<?xml version="1.0" encoding="UTF-8" standalone="no"?>
<!-- Created with Inkscape (http://www.inkscape.org/) -->

<svg
   xmlns:dc="http://purl.org/dc/elements/1.1/"
   xmlns:cc="http://creativecommons.org/ns#"
   xmlns:rdf="http://www.w3.org/1999/02/22-rdf-syntax-ns#"
   xmlns:svg="http://www.w3.org/2000/svg"
   xmlns="http://www.w3.org/2000/svg"
   xmlns:xlink="http://www.w3.org/1999/xlink"
   xmlns:sodipodi="http://sodipodi.sourceforge.net/DTD/sodipodi-0.dtd"
   xmlns:inkscape="http://www.inkscape.org/namespaces/inkscape"
   width="128"
   height="128"
   id="svg2"
   sodipodi:version="0.32"
   inkscape:version="0.48.3.1 r9886"
   version="1.0"
   sodipodi:docname="stock_new-window.svg"
   inkscape:output_extension="org.inkscape.output.svg.inkscape">
  <defs
     id="defs4">
    <linearGradient
       inkscape:collect="always"
       xlink:href="#linearGradient5439"
       id="linearGradient13414"
       gradientUnits="userSpaceOnUse"
       x1="499.90704"
       y1="953.39532"
       x2="652.75177"
       y2="1116.9413"
       gradientTransform="matrix(2.6765239,0,0,2.6765239,-1298.6765,-2514.903)" />
    <linearGradient
       inkscape:collect="always"
       xlink:href="#linearGradient7210"
       id="linearGradient13416"
       gradientUnits="userSpaceOnUse"
       x1="486.74878"
       y1="944.19513"
       x2="528.94489"
       y2="947.32013"
       gradientTransform="matrix(2.6765239,0,0,2.6765239,-1298.6765,-2514.903)" />
    <filter
       inkscape:collect="always"
       id="filter13392">
      <feGaussianBlur
         inkscape:collect="always"
         stdDeviation="0.57866302"
         id="feGaussianBlur13394" />
    </filter>
    <linearGradient
       inkscape:collect="always"
       xlink:href="#linearGradient5344"
       id="linearGradient13418"
       gradientUnits="userSpaceOnUse"
       x1="544.89001"
       y1="919.05762"
       x2="506.01498"
       y2="969.80762"
       gradientTransform="translate(-485.21014,-859.4386)" />
    <linearGradient
       id="linearGradient8702">
      <stop
         id="stop8704"
         offset="0"
         style="stop-color:#87c7ff;stop-opacity:1;" />
      <stop
         id="stop8706"
         offset="1"
         style="stop-color:#74aadb;stop-opacity:1;" />
    </linearGradient>
    <linearGradient
       inkscape:collect="always"
       xlink:href="#linearGradient8702"
       id="linearGradient13420"
       gradientUnits="userSpaceOnUse"
       gradientTransform="matrix(2.6765239,0,0,2.6765239,-1779.5422,-994.63744)"
       x1="700.13062"
       y1="378.86951"
       x2="707.80457"
       y2="395.74899" />
    <linearGradient
       inkscape:collect="always"
       xlink:href="#linearGradient5439"
       id="linearGradient13585"
       gradientUnits="userSpaceOnUse"
       gradientTransform="matrix(1.6871048,-0.116299,0,1.6888949,-805.49304,-1482.5665)"
       x1="499.90704"
       y1="953.39532"
       x2="652.75177"
       y2="1116.9413" />
    <linearGradient
       inkscape:collect="always"
       xlink:href="#linearGradient7210"
       id="linearGradient13587"
       gradientUnits="userSpaceOnUse"
       gradientTransform="matrix(1.6871048,-0.116299,0,1.6888949,-805.49304,-1482.5665)"
       x1="486.74878"
       y1="944.19513"
       x2="528.94489"
       y2="947.32013" />
    <linearGradient
       id="linearGradient5344">
      <stop
         style="stop-color:#000000;stop-opacity:1;"
         offset="0"
         id="stop5346" />
      <stop
         style="stop-color:#000000;stop-opacity:0;"
         offset="1"
         id="stop5348" />
    </linearGradient>
    <linearGradient
       inkscape:collect="always"
       xlink:href="#linearGradient5344"
       id="linearGradient13589"
       gradientUnits="userSpaceOnUse"
       x1="539.49908"
       y1="929.44275"
       x2="507.09296"
       y2="969.44275"
       gradientTransform="translate(-485.21014,-859.4386)" />
    <linearGradient
       inkscape:collect="always"
       xlink:href="#linearGradient5316"
       id="linearGradient13591"
       gradientUnits="userSpaceOnUse"
       gradientTransform="matrix(5.0665455,0,0,5.0567764,-2570.6451,-4757.3287)"
       x1="526.3382"
       y1="945.72064"
       x2="528.88556"
       y2="948.66046" />
    <linearGradient
       id="linearGradient5316">
      <stop
         style="stop-color:#87c7ff;stop-opacity:1;"
         offset="0"
         id="stop5320" />
      <stop
         style="stop-color:#74aadb;stop-opacity:1;"
         offset="1"
         id="stop5322" />
    </linearGradient>
    <linearGradient
       id="linearGradient5439">
      <stop
         style="stop-color:#ffffff;stop-opacity:1;"
         offset="0"
         id="stop5441" />
      <stop
         style="stop-color:#000000;stop-opacity:1;"
         offset="1"
         id="stop5443" />
    </linearGradient>
    <linearGradient
       id="linearGradient7210">
      <stop
         id="stop7212"
         offset="0"
         style="stop-color:#74aadb;stop-opacity:1;" />
      <stop
         id="stop8994"
         offset="0.5"
         style="stop-color:#87c7ff;stop-opacity:1;" />
      <stop
         id="stop7214"
         offset="1"
         style="stop-color:#74aadb;stop-opacity:1;" />
    </linearGradient>
    <inkscape:perspective
       sodipodi:type="inkscape:persp3d"
       inkscape:vp_x="0 : 526.18109 : 1"
       inkscape:vp_y="0 : 1000 : 0"
       inkscape:vp_z="744.09448 : 526.18109 : 1"
       inkscape:persp3d-origin="372.04724 : 350.78739 : 1"
       id="perspective10" />
  </defs>
  <sodipodi:namedview
     id="base"
     pagecolor="#ffffff"
     bordercolor="#666666"
     borderopacity="1.0"
     inkscape:pageopacity="0.0"
     inkscape:pageshadow="2"
     inkscape:zoom="1.7692308"
     inkscape:cx="111.63664"
     inkscape:cy="55.807454"
     inkscape:document-units="px"
     inkscape:current-layer="layer1"
     showgrid="false"
     inkscape:showpageshadow="false"
     inkscape:window-width="768"
     inkscape:window-height="713"
     inkscape:window-x="5"
     inkscape:window-y="0"
     inkscape:window-maximized="0" />
  <metadata
     id="metadata7">
    <rdf:RDF>
      <cc:Work
         rdf:about="">
        <dc:format>image/svg+xml</dc:format>
        <dc:type
           rdf:resource="http://purl.org/dc/dcmitype/StillImage" />
      </cc:Work>
    </rdf:RDF>
  </metadata>
  <g
     inkscape:label="Capa 1"
     inkscape:groupmode="layer"
     id="layer1">
    <path
       sodipodi:nodetypes="ccccccccc"
       id="path13402"
       d="M 108.50283,108.07363 L 14.79187,123.23632 C 8.4569122,124.35484 2.0526062,120.48189 2.4486515,112.07088 L 2.4486515,11.03211 C 2.2678255,4.3801718 9.6746771,0.37866152 16.503587,1.6865449 L 107.50222,8.8574343 C 114.69331,9.6805457 116.45495,14.268536 116.3682,19.396247 L 116.53241,94.569226 C 116.72643,102.93968 113.25524,107.26467 108.50283,108.07363 z"
       style="fill:url(#linearGradient13414);fill-rule:evenodd;stroke:none;stroke-width:0.5;stroke-linecap:butt;stroke-linejoin:miter;stroke-miterlimit:4;stroke-dasharray:none;stroke-opacity:1" />
    <path
       style="fill:url(#linearGradient13416);fill-rule:evenodd;stroke:none;stroke-width:0.5;stroke-linecap:butt;stroke-linejoin:miter;stroke-miterlimit:4;stroke-dasharray:none;stroke-opacity:1"
       d="M 2.4486515,23.076468 L 2.4486515,11.03211 C 2.2678255,4.3801718 9.6746771,0.37866152 16.503587,1.6865449 L 107.50222,8.8574343 C 114.69331,9.6805457 116.45495,14.268536 116.3682,19.396247 L 116.38793,28.429114 L 2.4486515,23.076468 z"
       id="path13404"
       sodipodi:nodetypes="ccccccc" />
    <path
       style="fill:none;fill-rule:evenodd;stroke:#000000;stroke-width:1.33826196;stroke-linecap:butt;stroke-linejoin:miter;stroke-miterlimit:4;stroke-dasharray:none;stroke-opacity:1"
       d="M 108.50283,108.07363 L 14.79187,123.23632 C 8.4569122,124.35484 2.0526062,120.48189 2.4486515,112.07088 L 2.4486515,11.03211 C 2.2678255,4.3801718 9.6746771,0.37866152 16.503587,1.6865449 L 107.50222,8.8574343 C 114.69331,9.6805457 116.45495,14.268536 116.3682,19.396247 L 116.53241,94.569226 C 116.72643,102.93968 113.25524,107.26467 108.50283,108.07363 z"
       id="path13406"
       sodipodi:nodetypes="ccccccccc" />
    <path
       inkscape:export-ydpi="89.986237"
       inkscape:export-xdpi="89.986237"
       inkscape:export-filename="/home/dafeba/DCV/tallerD/elementos.png"
       id="path13408"
       d="M 93.850258,2.5382684 C 91.384992,2.8149139 89.531258,4.9158513 89.563698,7.3963734 L 89.563698,28.543428 L 68.321386,28.543428 C 65.638331,28.543428 63.463281,30.718479 63.463281,33.401533 C 63.463281,36.084561 65.638331,38.259638 68.321386,38.259638 L 89.563698,38.259638 L 89.563698,59.406688 C 89.422618,61.21484 90.303275,62.936461 91.849851,63.883763 C 93.396507,64.831011 95.351868,64.831038 96.898471,63.883763 C 98.44502,62.936434 99.32573,61.21484 99.18465,59.406688 L 99.18465,38.259638 L 120.42696,38.259638 C 123.11002,38.259638 125.28507,36.084561 125.28507,33.401533 C 125.28507,30.718479 123.11002,28.543428 120.42696,28.543428 L 99.18465,28.543428 L 99.18465,7.3963734 C 99.201807,6.0176156 98.584734,4.7050215 97.565273,3.7765889 C 96.545839,2.8481831 95.221414,2.3926119 93.850258,2.5382684 z"
       style="fill:#c2e3ff;fill-opacity:1;fill-rule:evenodd;stroke:#000000;stroke-width:2.67652392;stroke-linecap:round;stroke-linejoin:miter;stroke-miterlimit:4;stroke-dasharray:none;stroke-opacity:1" />
    <path
       style="fill:url(#linearGradient13418);fill-opacity:1;fill-rule:evenodd;stroke:none;stroke-width:1;stroke-linecap:round;stroke-linejoin:miter;stroke-miterlimit:4;stroke-dasharray:none;stroke-opacity:1;filter:url(#filter13392)"
       d="M 32.157983,83.531372 C 31.236913,83.634732 30.544323,84.419682 30.556443,85.346452 L 30.556443,93.247392 L 22.619913,93.247392 C 21.617473,93.247392 20.804833,94.060032 20.804833,95.062472 C 20.804833,96.064902 21.617473,96.877552 22.619913,96.877552 L 30.556443,96.877552 L 30.556443,104.77849 C 30.503733,105.45405 30.832763,106.09728 31.410593,106.45121 C 31.988453,106.80512 32.719013,106.80513 33.296853,106.45121 C 33.874673,106.09727 34.203723,105.45405 34.151013,104.77849 L 34.151013,96.877552 L 42.087543,96.877552 C 43.089983,96.877552 43.902623,96.064902 43.902623,95.062472 C 43.902623,94.060032 43.089983,93.247392 42.087543,93.247392 L 34.151013,93.247392 L 34.151013,85.346452 C 34.157423,84.831322 33.926873,84.340912 33.545983,83.994032 C 33.165103,83.647162 32.670273,83.476952 32.157983,83.531372 z"
       id="path13410"
       inkscape:export-filename="/home/dafeba/DCV/tallerD/elementos.png"
       inkscape:export-xdpi="89.986237"
       inkscape:export-ydpi="89.986237"
       transform="matrix(2.6765239,0,0,2.6765239,0,-214.59506)" />
    <path
       inkscape:export-ydpi="89.986237"
       inkscape:export-xdpi="89.986237"
       inkscape:export-filename="/home/dafeba/DCV/tallerD/elementos.png"
       style="fill:url(#linearGradient13420);fill-opacity:1;fill-rule:evenodd;stroke:none;stroke-width:3.16552567;stroke-linecap:round;stroke-linejoin:miter;stroke-miterlimit:4;stroke-dasharray:none;stroke-opacity:1"
       d="M 93.850258,2.5382684 C 91.384992,2.8149139 89.531258,4.9158513 89.563698,7.3963734 L 89.563698,28.543428 L 68.321386,28.543428 C 65.638331,28.543428 63.463281,30.718479 63.463281,33.401533 C 63.463281,36.084561 65.638331,38.259638 68.321386,38.259638 L 89.563698,38.259638 L 89.563698,59.406688 C 89.422618,61.21484 90.303275,62.936461 91.849851,63.883763 C 93.396507,64.831011 95.351868,64.831038 96.898471,63.883763 C 98.44502,62.936434 99.32573,61.21484 99.18465,59.406688 L 99.18465,38.259638 L 120.42696,38.259638 C 123.11002,38.259638 125.28507,36.084561 125.28507,33.401533 C 125.28507,30.718479 123.11002,28.543428 120.42696,28.543428 L 99.18465,28.543428 L 99.18465,7.3963734 C 99.201807,6.0176156 98.584734,4.7050215 97.565273,3.7765889 C 96.545839,2.8481831 95.221414,2.3926119 93.850258,2.5382684 z"
       id="path13412" />
  </g>
</svg>
