<?xml version="1.0" encoding="UTF-8" standalone="no"?>
<!-- Created with Inkscape (http://www.inkscape.org/) -->

<svg
   xmlns:dc="http://purl.org/dc/elements/1.1/"
   xmlns:cc="http://creativecommons.org/ns#"
   xmlns:rdf="http://www.w3.org/1999/02/22-rdf-syntax-ns#"
   xmlns:svg="http://www.w3.org/2000/svg"
   xmlns="http://www.w3.org/2000/svg"
   xmlns:xlink="http://www.w3.org/1999/xlink"
   xmlns:sodipodi="http://sodipodi.sourceforge.net/DTD/sodipodi-0.dtd"
   xmlns:inkscape="http://www.inkscape.org/namespaces/inkscape"
   width="128"
   height="128"
   id="svg2"
   sodipodi:version="0.32"
   inkscape:version="0.48.3.1 r9886"
   version="1.0"
   sodipodi:docname="zoom-in-symbolic.svg"
   inkscape:output_extension="org.inkscape.output.svg.inkscape">
  <defs
     id="defs4">
    <linearGradient
       gradientTransform="matrix(2.6666667,0,0,2.6666667,-1293.8937,-2496.5029)"
       y2="962.34821"
       x2="501.80923"
       y1="923.1084"
       x1="477.42725"
       gradientUnits="userSpaceOnUse"
       id="linearGradient13696"
       xlink:href="#linearGradient12594"
       inkscape:collect="always" />
    <linearGradient
       gradientTransform="matrix(2.6666667,0,0,2.6666667,-1293.8937,-2496.5029)"
       y2="976.41351"
       x2="480.69382"
       y1="941.33264"
       x1="489.50848"
       gradientUnits="userSpaceOnUse"
       id="linearGradient13698"
       xlink:href="#linearGradient5439"
       inkscape:collect="always" />
    <linearGradient
       gradientTransform="matrix(2.6666667,0,0,2.6666667,-1293.8937,-2496.5029)"
       y2="974.45569"
       x2="517.47424"
       y1="971.45569"
       x1="519.5"
       gradientUnits="userSpaceOnUse"
       id="linearGradient13700"
       xlink:href="#linearGradient5316"
       inkscape:collect="always" />
    <linearGradient
       gradientTransform="matrix(2.6666667,0,0,2.6666667,-1293.8937,-2496.5029)"
       y2="968.36829"
       x2="507.65265"
       y1="962.74329"
       x1="510.59622"
       gradientUnits="userSpaceOnUse"
       id="linearGradient13702"
       xlink:href="#linearGradient5316"
       inkscape:collect="always" />
    <linearGradient
       gradientTransform="matrix(2.6666667,0,0,2.6666667,-1293.8937,-2496.5029)"
       y2="997.98248"
       x2="525.53125"
       y1="933.60748"
       x1="486.1875"
       gradientUnits="userSpaceOnUse"
       id="linearGradient13704"
       xlink:href="#linearGradient5439"
       inkscape:collect="always" />
    <linearGradient
       gradientTransform="matrix(2.6666667,0,0,2.6666667,-1293.8937,-2496.5029)"
       y2="932.31763"
       x2="500.875"
       y1="966.38013"
       x1="504.125"
       gradientUnits="userSpaceOnUse"
       id="linearGradient13706"
       xlink:href="#linearGradient5439"
       inkscape:collect="always" />
    <linearGradient
       gradientUnits="userSpaceOnUse"
       y2="291.54657"
       x2="270.47424"
       y1="336.29907"
       x1="270.47424"
       id="linearGradient10584"
       xlink:href="#linearGradient9863"
       inkscape:collect="always"
       gradientTransform="matrix(2.6666667,0,0,2.6666667,-653.89374,-771.83628)" />
    <linearGradient
       y2="969.80762"
       x2="506.01498"
       y1="919.05762"
       x1="544.89001"
       gradientTransform="matrix(2.6666667,0,0,2.6666667,-1294.3304,-2502.6162)"
       gradientUnits="userSpaceOnUse"
       id="linearGradient13710"
       xlink:href="#linearGradient5344"
       inkscape:collect="always" />
    <linearGradient
       gradientUnits="userSpaceOnUse"
       y2="290.17874"
       x2="271.01901"
       y1="337.45905"
       x1="271.01901"
       id="linearGradient10588"
       xlink:href="#linearGradient9863"
       inkscape:collect="always"
       gradientTransform="matrix(2.6666667,0,0,2.6666667,-653.89374,-771.83628)" />
    <linearGradient
       id="linearGradient12594">
      <stop
         id="stop12596"
         offset="0"
         style="stop-color:#e9b551;stop-opacity:1;" />
      <stop
         id="stop12598"
         offset="1"
         style="stop-color:#e9b551;stop-opacity:0;" />
    </linearGradient>
    <linearGradient
       id="linearGradient5316">
      <stop
         style="stop-color:#87c7ff;stop-opacity:1;"
         offset="0"
         id="stop5320" />
      <stop
         style="stop-color:#74aadb;stop-opacity:1;"
         offset="1"
         id="stop5322" />
    </linearGradient>
    <linearGradient
       id="linearGradient9863">
      <stop
         style="stop-color:#2f445a;stop-opacity:1;"
         offset="0"
         id="stop9865" />
      <stop
         style="stop-color:#415f7c;stop-opacity:1"
         offset="1"
         id="stop9867" />
    </linearGradient>
    <linearGradient
       id="linearGradient12336">
      <stop
         id="stop12338"
         offset="0"
         style="stop-color:#aac736;stop-opacity:1;" />
      <stop
         id="stop12340"
         offset="1"
         style="stop-color:#5d8b2c;stop-opacity:1;" />
    </linearGradient>
    <linearGradient
       id="linearGradient5439">
      <stop
         style="stop-color:#ffffff;stop-opacity:1;"
         offset="0"
         id="stop5441" />
      <stop
         style="stop-color:#000000;stop-opacity:1;"
         offset="1"
         id="stop5443" />
    </linearGradient>
    <linearGradient
       id="linearGradient5344">
      <stop
         style="stop-color:#000000;stop-opacity:1;"
         offset="0"
         id="stop5346" />
      <stop
         style="stop-color:#000000;stop-opacity:0;"
         offset="1"
         id="stop5348" />
    </linearGradient>
    <linearGradient
       inkscape:collect="always"
       xlink:href="#linearGradient12336"
       id="linearGradient3056"
       x1="63.026638"
       y1="12.190577"
       x2="123.49031"
       y2="34.234056"
       gradientUnits="userSpaceOnUse" />
    <linearGradient
       inkscape:collect="always"
       xlink:href="#linearGradient9863"
       id="linearGradient3058"
       gradientUnits="userSpaceOnUse"
       gradientTransform="matrix(2.6666667,0,0,2.6666667,-653.89374,-771.83628)"
       x1="270.47424"
       y1="336.29907"
       x2="270.47424"
       y2="291.54657" />
  </defs>
  <sodipodi:namedview
     id="base"
     pagecolor="#ffffff"
     bordercolor="#666666"
     borderopacity="1.0"
     inkscape:pageopacity="0.0"
     inkscape:pageshadow="2"
     inkscape:zoom="5.0041404"
     inkscape:cx="83.521197"
     inkscape:cy="74.310847"
     inkscape:document-units="px"
     inkscape:current-layer="layer1"
     showgrid="false"
     inkscape:showpageshadow="false"
     inkscape:window-width="1024"
     inkscape:window-height="713"
     inkscape:window-x="0"
     inkscape:window-y="0"
     showguides="true"
     inkscape:guide-bbox="true"
     inkscape:window-maximized="0" />
  <metadata
     id="metadata7">
    <rdf:RDF>
      <cc:Work
         rdf:about="">
        <dc:format>image/svg+xml</dc:format>
        <dc:type
           rdf:resource="http://purl.org/dc/dcmitype/StillImage" />
      </cc:Work>
    </rdf:RDF>
  </metadata>
  <g
     inkscape:label="Capa 1"
     inkscape:groupmode="layer"
     id="layer1">
    <path
       inkscape:export-ydpi="57.964222"
       inkscape:export-xdpi="57.964222"
       inkscape:export-filename="/home/dafeba/DCV/tallerD/bocetos/08-09-22-hastaahora.png"
       style="fill:url(#linearGradient13698);fill-opacity:1;stroke:none;stroke-width:0.5;stroke-linecap:round;stroke-linejoin:round;stroke-miterlimit:4;stroke-dashoffset:0;stroke-opacity:1;display:inline"
       d="M 13.821642,49.765974 C 13.821642,71.259654 25.146815,84.78496 36.318042,91.148934 C 34.529935,91.148934 25.580255,89.44768 23.935589,88.9592 C 12.007882,85.41672 4.1177486,69.65512 4.1177486,50.765974 C 4.1177486,31.14888 12.627695,14.905094 25.332309,12.218134 C 26.547642,11.961094 35.668149,10.717387 36.956495,10.717387 C 26.728095,15.54928 13.821642,28.272267 13.821642,49.765974 z"
       id="path13684"
       sodipodi:nodetypes="ccssscc" />
    <path
       inkscape:export-ydpi="57.964222"
       inkscape:export-xdpi="57.964222"
       inkscape:export-filename="/home/dafeba/DCV/tallerD/bocetos/08-09-22-hastaahora.png"
       style="fill:url(#linearGradient13700);fill-rule:evenodd;stroke:none;stroke-width:0.5;stroke-linecap:butt;stroke-linejoin:miter;stroke-miterlimit:4;stroke-dasharray:none;stroke-opacity:1;display:inline"
       d="M 51.439615,75.46288 L 104.10628,119.79621 C 110.73873,123.856 116.64487,111.99296 112.10628,107.12955 L 57.772948,61.46288 L 51.439615,75.46288 z"
       id="path13686"
       sodipodi:nodetypes="ccccc" />
    <path
       inkscape:export-ydpi="57.964222"
       inkscape:export-xdpi="57.964222"
       inkscape:export-filename="/home/dafeba/DCV/tallerD/bocetos/08-09-22-hastaahora.png"
       sodipodi:nodetypes="ccccc"
       id="path13688"
       d="M 51.029535,80.058134 L 59.483668,86.829307 C 68.181962,93.164934 78.336389,75.279414 70.980575,68.621947 L 60.509935,58.792694 L 51.029535,80.058134 z"
       style="fill:url(#linearGradient13702);fill-rule:evenodd;stroke:none;stroke-width:0.5;stroke-linecap:butt;stroke-linejoin:miter;stroke-miterlimit:4;stroke-dasharray:none;stroke-opacity:1;display:inline" />
    <path
       inkscape:export-ydpi="57.964222"
       inkscape:export-xdpi="57.964222"
       inkscape:export-filename="/home/dafeba/DCV/tallerD/bocetos/08-09-22-hastaahora.png"
       style="fill:url(#linearGradient13704);fill-opacity:1;stroke:none;stroke-width:0.50000006;stroke-linecap:round;stroke-linejoin:round;stroke-miterlimit:4;stroke-dashoffset:0;stroke-opacity:1;display:inline"
       d="M 36.439615,10.663734 C 22.558042,11.697654 11.606282,30.231654 11.606282,50.913734 C 11.606282,72.974507 24.001162,92.785627 39.022949,90.8304 C 53.104842,88.99752 64.189642,73.30776 64.189615,51.247067 C 64.189615,29.186214 53.786948,12.05584 39.272949,10.663734 C 38.324149,10.57272 37.365055,10.5948 36.439615,10.663734 z M 37.439615,15.913734 C 38.215695,15.854427 38.977295,15.835414 39.772949,15.913734 C 51.944495,17.111707 60.606282,31.84672 60.606282,50.8304 C 60.606282,69.813974 51.415455,83.33648 39.606282,84.913734 C 27.008975,86.596187 16.522949,69.564027 16.522949,50.5804 C 16.522949,32.783147 25.798442,16.803467 37.439615,15.913734 z"
       id="path13690" />
    <path
       inkscape:export-ydpi="57.964222"
       inkscape:export-xdpi="57.964222"
       inkscape:export-filename="/home/dafeba/DCV/tallerD/bocetos/08-09-22-hastaahora.png"
       style="fill:url(#linearGradient13706);fill-opacity:1;stroke:none;stroke-width:0.50000006;stroke-linecap:round;stroke-linejoin:round;stroke-miterlimit:4;stroke-dashoffset:0;stroke-opacity:1;display:inline"
       d="M 43.022949,16.663734 C 51.368548,21.680987 56.856282,33.961627 56.856282,48.997067 C 56.856282,67.891067 47.609108,81.34392 35.856282,82.913734 C 33.685642,83.203654 31.604255,82.90672 29.606282,82.163734 C 32.632789,84.30704 36.045189,85.389334 39.606282,84.913734 C 51.415455,83.33648 60.606282,69.813974 60.606282,50.8304 C 60.606282,33.584747 53.463855,19.930774 43.022949,16.663734 z"
       id="path13692" />
    <path
       style="fill:none;fill-opacity:1;stroke:url(#linearGradient3058);stroke-width:2.66666675000000009;stroke-linecap:round;stroke-linejoin:round;stroke-miterlimit:4;stroke-dasharray:none;stroke-dashoffset:0;stroke-opacity:1;display:inline"
       d="M 37.84375 10.59375 C 37.369697 10.596524 36.90022 10.621796 36.4375 10.65625 C 35.7107 10.710383 34.99085 10.852133 34.28125 11 C 34.14381 11.02864 33.980497 11.061697 33.84375 11.09375 C 30.65863 11.462897 26.237643 12.060987 25.34375 12.25 C 12.639137 14.93696 4.09375 31.132933 4.09375 50.75 C 4.09375 69.639147 12.009767 85.457573 23.9375 89 C 25.582167 89.48848 34.555643 91.15625 36.34375 91.15625 C 36.17895 91.062356 36.008603 90.940764 35.84375 90.84375 C 36.89527 90.92159 37.948796 90.98463 39.03125 90.84375 C 44.664556 90.110524 49.781207 87.095316 53.9375 82.40625 L 59.53125 86.84375 C 61.64557 88.383777 63.82975 88.46929 65.84375 87.65625 L 104.09375 119.84375 C 110.7262 123.90354 116.63234 112.01967 112.09375 107.15625 L 73.4375 74.65625 C 73.383954 72.336196 72.65022 70.143857 70.9375 68.59375 L 63.34375 61.5 C 63.899643 58.270107 64.1875 54.85224 64.1875 51.25 C 64.1875 29.189147 53.795249 12.048356 39.28125 10.65625 C 38.80685 10.61073 38.317803 10.590977 37.84375 10.59375 z M 39.3125 15.78125 C 39.705324 15.787004 40.104066 15.836029 40.5 15.875 C 52.613467 17.067293 56.875 30.10592 56.875 49 C 56.875 67.894053 47.659077 81.367686 35.90625 82.9375 C 23.368944 84.612006 16.59375 68.394107 16.59375 49.5 C 16.59375 31.19636 27.134965 15.602888 39.3125 15.78125 z "
       id="path13694" />
    <path
       style="fill:url(#linearGradient13710);fill-opacity:1;fill-rule:evenodd;stroke:none;stroke-width:1;stroke-linecap:round;stroke-linejoin:miter;stroke-miterlimit:4;stroke-dasharray:none;stroke-opacity:1;display:inline"
       d="M 85.317935,11.970374 C 82.861749,12.246 81.014842,14.3392 81.047162,16.810587 L 81.047162,37.87976 L 59.883082,37.87976 C 57.209908,37.87976 55.042868,40.0468 55.042868,42.719974 C 55.042868,45.39312 57.209908,47.560187 59.883082,47.560187 L 81.047162,47.560187 L 81.047162,68.62936 C 80.906602,70.430854 81.784015,72.146134 83.324895,73.089947 C 84.865855,74.033707 86.814015,74.033734 88.354922,73.089947 C 89.895775,72.146107 90.773242,70.430854 90.632682,68.62936 L 90.632682,47.560187 L 111.79676,47.560187 C 114.46993,47.560187 116.63697,45.39312 116.63697,42.719974 C 116.63697,40.0468 114.46993,37.87976 111.79676,37.87976 L 90.632682,37.87976 L 90.632682,16.810587 C 90.649775,15.436907 90.034975,14.129147 89.019269,13.204134 C 88.003589,12.279147 86.684042,11.825254 85.317935,11.970374 z"
       id="path13708"
       inkscape:export-filename="/home/dafeba/DCV/tallerD/bocetos/08-09-22-hastaahora.png"
       inkscape:export-xdpi="57.964222"
       inkscape:export-ydpi="57.964222" />
    <path
       inkscape:export-ydpi="57.964222"
       inkscape:export-xdpi="57.964222"
       inkscape:export-filename="/home/dafeba/DCV/tallerD/bocetos/08-09-22-hastaahora.png"
       id="path13666"
       d="M 92.171269,3.3336542 C 89.715082,3.6092802 87.868175,5.7024802 87.900495,8.1738672 L 87.900495,29.24304 L 66.736415,29.24304 C 64.063242,29.24304 61.896202,31.41008 61.896202,34.083254 C 61.896202,36.7564 64.063242,38.923467 66.736415,38.923467 L 87.900495,38.923467 L 87.900495,59.99264 C 87.759935,61.794134 88.637349,63.509414 90.178229,64.453227 C 91.719189,65.396987 93.667349,65.397014 95.208255,64.453227 C 96.749109,63.509387 97.626575,61.794134 97.486015,59.99264 L 97.486015,38.923467 L 118.65009,38.923467 C 121.32327,38.923467 123.49031,36.7564 123.49031,34.083254 C 123.49031,31.41008 121.32327,29.24304 118.65009,29.24304 L 97.486015,29.24304 L 97.486015,8.1738672 C 97.503109,6.8001872 96.888309,5.4924272 95.872602,4.5674142 C 94.856922,3.6424272 93.537375,3.1885342 92.171269,3.3336542 z"
       style="fill:#c2e3ff;fill-opacity:1;fill-rule:evenodd;stroke:url(#linearGradient10588);stroke-width:2.66666675;stroke-linecap:round;stroke-linejoin:miter;stroke-miterlimit:4;stroke-dasharray:none;stroke-opacity:1;display:inline" />
    <path
       inkscape:export-ydpi="57.964222"
       inkscape:export-xdpi="57.964222"
       inkscape:export-filename="/home/dafeba/DCV/tallerD/bocetos/08-09-22-hastaahora.png"
       style="fill:url(#linearGradient3056);fill-opacity:1;fill-rule:evenodd;stroke:none;stroke-width:3.16552567000000007;stroke-linecap:round;stroke-linejoin:miter;stroke-miterlimit:4;stroke-dasharray:none;stroke-opacity:1;display:inline"
       d="M 92.171269,3.3336542 C 89.715082,3.6092802 87.868175,5.7024802 87.900495,8.1738672 L 87.900495,29.24304 L 66.736415,29.24304 C 64.063242,29.24304 61.896202,31.41008 61.896202,34.083254 C 61.896202,36.7564 64.063242,38.923467 66.736415,38.923467 L 87.900495,38.923467 L 87.900495,59.99264 C 87.759935,61.794134 88.637349,63.509414 90.178229,64.453227 C 91.719189,65.396987 93.667349,65.397014 95.208255,64.453227 C 96.749109,63.509387 97.626575,61.794134 97.486015,59.99264 L 97.486015,38.923467 L 118.65009,38.923467 C 121.32327,38.923467 123.49031,36.7564 123.49031,34.083254 C 123.49031,31.41008 121.32327,29.24304 118.65009,29.24304 L 97.486015,29.24304 L 97.486015,8.1738672 C 97.503109,6.8001872 96.888309,5.4924272 95.872602,4.5674142 C 94.856922,3.6424272 93.537375,3.1885342 92.171269,3.3336542 z"
       id="path13668" />
  </g>
</svg>
