<?xml version="1.0" encoding="UTF-8" standalone="no"?>
<!-- Created with Inkscape (http://www.inkscape.org/) -->

<svg
   xmlns:dc="http://purl.org/dc/elements/1.1/"
   xmlns:cc="http://creativecommons.org/ns#"
   xmlns:rdf="http://www.w3.org/1999/02/22-rdf-syntax-ns#"
   xmlns:svg="http://www.w3.org/2000/svg"
   xmlns="http://www.w3.org/2000/svg"
   xmlns:xlink="http://www.w3.org/1999/xlink"
   xmlns:sodipodi="http://sodipodi.sourceforge.net/DTD/sodipodi-0.dtd"
   xmlns:inkscape="http://www.inkscape.org/namespaces/inkscape"
   width="128"
   height="128"
   id="svg2"
   sodipodi:version="0.32"
   inkscape:version="0.48.3.1 r9886"
   version="1.0"
   sodipodi:docname="drive-harddisk-symbolic.svg"
   inkscape:output_extension="org.inkscape.output.svg.inkscape">
  <defs
     id="defs4">
    <linearGradient
       id="linearGradient8702-5">
      <stop
         id="stop8704-4"
         offset="0"
         style="stop-color:#aac736;stop-opacity:1;" />
      <stop
         id="stop8706-4"
         offset="1"
         style="stop-color:#5d8b2c;stop-opacity:1;" />
    </linearGradient>
    <linearGradient
       y2="106.87752"
       x2="100.17935"
       y1="10.225347"
       x1="16.54705"
       gradientUnits="userSpaceOnUse"
       id="linearGradient3110"
       xlink:href="#linearGradient8702-5"
       inkscape:collect="always" />
  </defs>
  <sodipodi:namedview
     id="base"
     pagecolor="#ffffff"
     bordercolor="#666666"
     borderopacity="1.0"
     inkscape:pageopacity="0.0"
     inkscape:pageshadow="2"
     inkscape:zoom="1.7692308"
     inkscape:cx="106.47415"
     inkscape:cy="72.806915"
     inkscape:document-units="px"
     inkscape:current-layer="layer1"
     showgrid="false"
     inkscape:showpageshadow="false"
     inkscape:window-width="1366"
     inkscape:window-height="717"
     inkscape:window-x="0"
     inkscape:window-y="0"
     showguides="true"
     inkscape:guide-bbox="true"
     inkscape:window-maximized="1" />
  <metadata
     id="metadata7">
    <rdf:RDF>
      <cc:Work
         rdf:about="">
        <dc:format>image/svg+xml</dc:format>
        <dc:type
           rdf:resource="http://purl.org/dc/dcmitype/StillImage" />
      </cc:Work>
    </rdf:RDF>
  </metadata>
  <g
     inkscape:label="Capa 1"
     inkscape:groupmode="layer"
     id="layer1">
    <path
       inkscape:connector-curvature="0"
       style="fill:url(#linearGradient3110);fill-rule:evenodd;stroke:none;display:inline"
       d="m 24.125,2.7812505 c -0.921061,-0.014173 -1.831225,-0.0013 -2.71875,0.03125 -5.31293,0.1948668 -9.94974,1.2745373 -13.65625,2.96875 -0.009,0.0039 -0.02265,-0.0039 -0.03125,0 -4.32817,1.8571249 -7.422,5.6612065 -7.5625,10.8125005 a 1.3383958,1.3383958 0 0 0 0,0.03125 l 0,87.249999 c -0.0189,3.50066 0.49235,6.5506 1.6875,9.03125 1.19515,2.48065 3.16331,4.35226 5.78125,5.1875 a 1.3383958,1.3383958 0 0 0 0,0.0313 c 4.73887,1.4704 10.16806,3.11458 14.40625,3.5 a 1.3383958,1.3383958 0 0 0 0.03125,0 c 1.56394,0.11551 3.28597,0.0354 5.15625,-0.28125 l 0.03125,0 90.875,-14.21875 a 1.3383958,1.3383958 0 0 0 0.0313,0 c 3.88532,-0.64905 6.50432,-2.71537 7.9375,-5.4375 1.43318,-2.722133 1.78125,-6.012916 1.78125,-9.374999 l -0.0625,-70.59375 c -0.003,-2.410298 -0.19412,-5.026063 -1.40625,-7.28125 -1.21213,-2.255188 -3.58921,-3.955474 -7.1875,-4.312501 L 26.9375,2.9062505 c -0.95948,-0.069609 -1.891439,-0.1108267 -2.8125,-0.125 z m 29.25,4.9375 c 0.670441,0.010068 1.327649,0.034311 2,0.09375 6.72071,0.5941403 13.116655,3.6847195 18.59375,8.7500005 1.772728,1.405491 4.103964,1.335733 5.75,0.03125 L 83.75,13.312501 c 1.734387,-1.544756 4.365705,-2.307694 6.875,-2.000001 l 24.09375,1.968751 c 1.83866,0.153846 3.20422,1.037229 4.125,2.5625 l 4.5,7 c 0.73126,1.084688 1.37715,2.816452 1.28125,4.46875 l 0,23.03125 c 0.0928,1.509132 -0.62793,2.21683 -1.59375,2.625 l -4.78125,2.03125 c -0.94465,0.366496 -1.39174,1.019173 -1.40625,1.96875 l -0.0625,3.09375 c 0.004,0.732378 0.29,1.573242 1.28125,1.75 L 122,62.968751 c 1.31754,0.306462 2.63659,1.766983 2.625,3.34375 l 0,24.375 c 0.0835,1.58493 -0.20883,2.648747 -0.96875,3.8125 l -5.71875,7.187499 c -1.15628,1.44114 -2.36075,2.52667 -4.375,2.75 l -26.40625,4.53125 c -1.578105,0.2298 -2.834485,-0.34251 -3.5625,-1.0625 L 79,103.3125 c -0.88435,-1.0424 -2.248064,-0.99119 -3.125,-0.0313 l 0,-0.0313 C 70.09717,109.08026 63.0112,112.84336 55.25,114.125 33.11223,117.78073 13,96.915949 13,63.281251 13,30.580861 32.591328,7.4066466 53.375,7.7187505 z m 1.90625,6.6562505 C 36.414556,14.167342 19.4375,35.184156 19.4375,64.937501 c 0,30.603455 17.419864,49.576249 37.5625,46.249999 7.119108,-1.17561 13.626029,-4.62126 18.90625,-10 1.377125,-1.381895 3.374746,-1.619365 4.6875,-0.1875 l 4.5,4.8125 c 0.978992,1.15623 2.229609,1.25179 3.65625,0.96875 l 24.4375,-3.625 c 1.52565,-0.27317 2.69294,-1.10199 3.4375,-2.15625 l 5.875,-7.562499 c 0.5466,-0.758099 0.84321,-1.623125 0.78125,-2.90625 l 0,-23.75 c 0,-1.023716 -0.56048,-1.855367 -1.5,-2.125 l -4.46875,-1.09375 c -1.05918,-0.32477 -1.46875,-1.062631 -1.46875,-2.0625 l 0.0625,-5.0625 c 0.0405,-0.870352 0.44745,-1.605611 1.21875,-1.9375 l 4.9375,-2.1875 c 0.70954,-0.265404 1.2426,-0.932212 1.21875,-1.6875 l 0,-21.25 c -0.0567,-1.406808 -0.50476,-2.624162 -1.15625,-3.78125 l -4.78125,-7.09375 c -0.73899,-1.000619 -1.67347,-1.87064 -3.96875,-1.9375 l -21.53125,-1.5 c -2.129763,-0.152562 -3.718216,0.337023 -5.0625,1.5 L 80,21.875001 c -1.40644,0.984138 -4.109299,1.477482 -5.90625,0.1875 -0.0526,-0.03776 -0.105276,-0.08418 -0.15625,-0.125 -0.07264,-0.06468 -0.145719,-0.123582 -0.21875,-0.1875 -0.118173,-0.110597 -0.23738,-0.213785 -0.34375,-0.34375 l 0,0.0625 c -4.739794,-4.038474 -10.257333,-6.497886 -16.25,-7 -0.612,-0.05128 -1.235147,-0.08705 -1.84375,-0.09375 z m 36.0625,3.875 20.0625,1.4375 c 1.58838,0.205744 2.33504,2.191543 2.3125,3.8125 l 0,72.59375 c 0.0828,1.965478 -0.72215,3.785925 -3.125,4.093749 l -19.1875,2.75 c -2.573746,0.38638 -3.6875,-1.79144 -3.6875,-3.656249 l -0.03125,-77.1875 c 0.0069,-2.247959 1.53267,-3.949071 3.65625,-3.84375 z m -35.4375,21.59375 c 0.293437,-0.0024 0.608866,0.01167 0.90625,0.03125 8.111634,0.541809 15.125,11.530699 15.125,22.9375 0,11.483466 -6.875631,23.117658 -14.84375,24.28125 -9.488491,1.385583 -17.40625,-9.12774 -17.40625,-23.0625 0,-13.573551 7.122191,-24.111614 16.21875,-24.1875 z m -0.4375,3.28125 c -0.247043,9e-5 -0.481819,0.01331 -0.71875,0.03125 -7.107931,0.53816 -12.5625,9.043282 -12.5625,19.8125 0,11.424351 6.50216,20.042244 14.28125,18.90625 6.532634,-0.953945 12.25,-10.397817 12.25,-19.8125 0,-9.351826 -5.359694,-18.365607 -12.5,-18.90625 -0.243645,-0.0183 -0.502957,-0.03134 -0.75,-0.03125 z"
       id="path8898" />
  </g>
</svg>
