<?xml version="1.0" encoding="UTF-8" standalone="no"?>
<!-- Created with Inkscape (http://www.inkscape.org/) -->
<svg
   xmlns:dc="http://purl.org/dc/elements/1.1/"
   xmlns:cc="http://creativecommons.org/ns#"
   xmlns:rdf="http://www.w3.org/1999/02/22-rdf-syntax-ns#"
   xmlns:svg="http://www.w3.org/2000/svg"
   xmlns="http://www.w3.org/2000/svg"
   xmlns:xlink="http://www.w3.org/1999/xlink"
   xmlns:sodipodi="http://sodipodi.sourceforge.net/DTD/sodipodi-0.dtd"
   xmlns:inkscape="http://www.inkscape.org/namespaces/inkscape"
   width="128"
   height="128"
   id="svg2"
   sodipodi:version="0.32"
   inkscape:version="0.46"
   version="1.0"
   sodipodi:docname="input-gaming.svg"
   inkscape:output_extension="org.inkscape.output.svg.inkscape">
  <defs
     id="defs4">
    <linearGradient
       inkscape:collect="always"
       xlink:href="#linearGradient9863"
       id="linearGradient10531"
       x1="529.84375"
       y1="986.14581"
       x2="529.84375"
       y2="944.4375"
       gradientUnits="userSpaceOnUse"
       gradientTransform="matrix(2.8480457,0,0,2.8480457,-1439.7458,-2685.2638)" />
    <linearGradient
       inkscape:collect="always"
       xlink:href="#linearGradient5316"
       id="linearGradient10417"
       x1="500.57245"
       y1="974.04547"
       x2="514.35596"
       y2="977.04547"
       gradientUnits="userSpaceOnUse"
       gradientTransform="matrix(2.8480457,0,0,2.8480457,-1382.7849,-2685.7978)" />
    <linearGradient
       inkscape:collect="always"
       xlink:href="#linearGradient5344"
       id="linearGradient10533"
       x1="505.96286"
       y1="972.7179"
       x2="508.1875"
       y2="978.34192"
       gradientUnits="userSpaceOnUse" />
    <linearGradient
       inkscape:collect="always"
       xlink:href="#linearGradient5439"
       id="linearGradient10447"
       x1="502.66058"
       y1="971.21332"
       x2="520.07703"
       y2="971.33832"
       gradientUnits="userSpaceOnUse"
       gradientTransform="matrix(2.8480457,0,0,2.8480457,-1382.7849,-2685.7978)" />
    <linearGradient
       inkscape:collect="always"
       xlink:href="#linearGradient5439"
       id="linearGradient10449"
       x1="514.28558"
       y1="969.8905"
       x2="499.72308"
       y2="959.7655"
       gradientUnits="userSpaceOnUse"
       gradientTransform="matrix(2.8480457,0,0,2.8480457,-1382.7849,-2684.2244)" />
    <linearGradient
       inkscape:collect="always"
       xlink:href="#linearGradient5439"
       id="linearGradient10445"
       x1="506.49796"
       y1="961.93228"
       x2="519.68951"
       y2="959.74481"
       gradientUnits="userSpaceOnUse"
       gradientTransform="matrix(2.8480457,0,0,2.8480457,-1382.7849,-2685.7978)" />
    <linearGradient
       inkscape:collect="always"
       xlink:href="#linearGradient5439"
       id="linearGradient10451"
       x1="500.59207"
       y1="945.4798"
       x2="514.125"
       y2="958.36218"
       gradientUnits="userSpaceOnUse" />
    <linearGradient
       inkscape:collect="always"
       xlink:href="#linearGradient5362"
       id="linearGradient10453"
       x1="502.625"
       y1="948.06799"
       x2="511.73331"
       y2="956.19971"
       gradientUnits="userSpaceOnUse" />
    <linearGradient
       inkscape:collect="always"
       xlink:href="#linearGradient5439"
       id="linearGradient10463"
       x1="493.60324"
       y1="975.55829"
       x2="500.74399"
       y2="975.55829"
       gradientUnits="userSpaceOnUse"
       gradientTransform="matrix(2.5071888,0,0,3.3151473,-1220.8198,-3142.6089)" />
    <linearGradient
       inkscape:collect="always"
       xlink:href="#linearGradient5439"
       id="linearGradient10461"
       x1="493.59659"
       y1="975.55829"
       x2="501.69333"
       y2="975.55829"
       gradientUnits="userSpaceOnUse"
       gradientTransform="matrix(2.6475417,0,0,3.5007303,-1262.4324,-3317.9485)" />
    <linearGradient
       inkscape:collect="always"
       xlink:href="#linearGradient5316"
       id="linearGradient10432"
       x1="511.93539"
       y1="980.66925"
       x2="480.09647"
       y2="979.79425"
       gradientUnits="userSpaceOnUse"
       gradientTransform="matrix(2.8480457,0,0,2.8480457,-1382.7849,-2685.7978)" />
    <linearGradient
       inkscape:collect="always"
       xlink:href="#linearGradient5316"
       id="linearGradient10429"
       x1="502.77698"
       y1="977.26727"
       x2="512.01746"
       y2="981.01727"
       gradientUnits="userSpaceOnUse"
       gradientTransform="matrix(2.8480457,0,0,2.8480457,-1382.7849,-2685.7978)" />
    <linearGradient
       inkscape:collect="always"
       xlink:href="#linearGradient5362"
       id="linearGradient10440"
       x1="485.18539"
       y1="980.04425"
       x2="502.22147"
       y2="980.66925"
       gradientUnits="userSpaceOnUse"
       gradientTransform="matrix(2.8480457,0,0,2.8480457,-1382.7849,-2685.7978)" />
    <linearGradient
       inkscape:collect="always"
       xlink:href="#linearGradient5344"
       id="linearGradient10443"
       x1="544"
       y1="977.01727"
       x2="503.90198"
       y2="981.86218"
       gradientUnits="userSpaceOnUse"
       gradientTransform="matrix(2.8480457,0,0,2.8480457,-1382.7849,-2685.7978)" />
    <linearGradient
       inkscape:collect="always"
       xlink:href="#linearGradient12336"
       id="linearGradient10457"
       x1="497.47302"
       y1="975.71014"
       x2="500.86392"
       y2="975.29254"
       gradientUnits="userSpaceOnUse" />
    <linearGradient
       inkscape:collect="always"
       xlink:href="#linearGradient12336"
       id="linearGradient10455"
       x1="497.84039"
       y1="975.55829"
       x2="500.07587"
       y2="975.03357"
       gradientUnits="userSpaceOnUse" />
    <linearGradient
       inkscape:collect="always"
       xlink:href="#linearGradient5439"
       id="linearGradient8563"
       gradientUnits="userSpaceOnUse"
       gradientTransform="matrix(2.6765239,0,0,2.6765239,-1298.6209,-1368.6343)"
       x1="526.1701"
       y1="503.09528"
       x2="475.61102"
       y2="610.34528" />
    <linearGradient
       inkscape:collect="always"
       xlink:href="#linearGradient5316"
       id="linearGradient8567"
       gradientUnits="userSpaceOnUse"
       gradientTransform="matrix(2.6765239,0,0,2.6765239,-816.84656,-619.20759)"
       x1="313.44086"
       y1="239.28871"
       x2="325.08148"
       y2="277.16373" />
    <linearGradient
       inkscape:collect="always"
       xlink:href="#linearGradient5362"
       id="linearGradient8571"
       gradientUnits="userSpaceOnUse"
       gradientTransform="matrix(2.6765239,0,0,2.6765239,-1298.6209,-1368.6343)"
       x1="485.44086"
       y1="511.1637"
       x2="501.83148"
       y2="538.1637" />
    <linearGradient
       inkscape:collect="always"
       xlink:href="#linearGradient5439"
       id="linearGradient8591"
       gradientUnits="userSpaceOnUse"
       gradientTransform="matrix(2.6765239,0,0,2.6765239,-1298.6209,-1368.6343)"
       x1="508.09534"
       y1="501.59317"
       x2="556.49384"
       y2="608.89142" />
    <linearGradient
       inkscape:collect="always"
       xlink:href="#linearGradient5439"
       id="linearGradient8595"
       gradientUnits="userSpaceOnUse"
       gradientTransform="matrix(2.6765239,0,0,2.6765239,-1298.6209,-1368.6343)"
       x1="526.1701"
       y1="503.09528"
       x2="475.61102"
       y2="610.34528" />
    <linearGradient
       inkscape:collect="always"
       xlink:href="#linearGradient5344"
       id="linearGradient8597"
       gradientUnits="userSpaceOnUse"
       gradientTransform="matrix(2.6765239,0,0,2.6765239,-1298.6209,-1368.6343)"
       x1="510.48071"
       y1="531.75934"
       x2="507.97995"
       y2="531.75934" />
    <linearGradient
       inkscape:collect="always"
       xlink:href="#linearGradient5362"
       id="linearGradient8600"
       gradientUnits="userSpaceOnUse"
       gradientTransform="matrix(2.6765239,0,0,2.6765239,-1298.6209,-1368.6343)"
       x1="518.28668"
       y1="504.69495"
       x2="505.92706"
       y2="537.36938" />
    <linearGradient
       inkscape:collect="always"
       xlink:href="#linearGradient9863"
       id="linearGradient9875"
       gradientUnits="userSpaceOnUse"
       x1="89.357758"
       y1="34.90163"
       x2="89.357758"
       y2="-7.0638566"
       gradientTransform="matrix(2.6765239,0,0,2.6765239,-174.38458,23.158149)" />
    <linearGradient
       id="linearGradient2481">
      <stop
         id="stop2483"
         offset="0"
         style="stop-color:#87c6ff;stop-opacity:1;" />
      <stop
         style="stop-color:#5d8b2c;stop-opacity:1;"
         offset="0.5"
         id="stop3944" />
      <stop
         id="stop2485"
         offset="1"
         style="stop-color:#5d8b2c;stop-opacity:1;" />
    </linearGradient>
    <linearGradient
       id="linearGradient12578">
      <stop
         style="stop-color:#e9b551;stop-opacity:1;"
         offset="0"
         id="stop12580" />
      <stop
         style="stop-color:#b48739;stop-opacity:1;"
         offset="1"
         id="stop12582" />
    </linearGradient>
    <linearGradient
       id="linearGradient12594">
      <stop
         id="stop12596"
         offset="0"
         style="stop-color:#e9b551;stop-opacity:1;" />
      <stop
         id="stop12598"
         offset="1"
         style="stop-color:#e9b551;stop-opacity:0;" />
    </linearGradient>
    <linearGradient
       id="linearGradient5316">
      <stop
         style="stop-color:#aac736;stop-opacity:1;"
         offset="0"
         id="stop5320" />
      <stop
         style="stop-color:#5d8b2c;stop-opacity:1;"
         offset="1"
         id="stop5322" />
    </linearGradient>
    <linearGradient
       id="linearGradient9863">
      <stop
         style="stop-color:#2f445a;stop-opacity:1;"
         offset="0"
         id="stop9865" />
      <stop
         style="stop-color:#415f7c;stop-opacity:1"
         offset="1"
         id="stop9867" />
    </linearGradient>
    <linearGradient
       id="linearGradient12336">
      <stop
         id="stop12338"
         offset="0"
         style="stop-color:#ff6e00;stop-opacity:1;" />
      <stop
         id="stop12340"
         offset="1"
         style="stop-color:#eb2600;stop-opacity:1;" />
    </linearGradient>
    <linearGradient
       id="linearGradient5362">
      <stop
         style="stop-color:#ffffff;stop-opacity:1;"
         offset="0"
         id="stop5364" />
      <stop
         style="stop-color:#ffffff;stop-opacity:0;"
         offset="1"
         id="stop5366" />
    </linearGradient>
    <linearGradient
       id="linearGradient5439">
      <stop
         style="stop-color:#ffffff;stop-opacity:1;"
         offset="0"
         id="stop5441" />
      <stop
         style="stop-color:#000000;stop-opacity:1;"
         offset="1"
         id="stop5443" />
    </linearGradient>
    <linearGradient
       inkscape:collect="always"
       xlink:href="#linearGradient5439"
       id="linearGradient13309"
       gradientUnits="userSpaceOnUse"
       x1="499.90704"
       y1="953.39532"
       x2="652.75177"
       y2="1116.9413"
       gradientTransform="matrix(2.6765239,0,0,2.6765239,-1298.6765,-2514.903)" />
    <linearGradient
       inkscape:collect="always"
       id="linearGradient5398">
      <stop
         style="stop-color:#87c6ff;stop-opacity:1;"
         offset="0"
         id="stop5400" />
      <stop
         style="stop-color:#87c6ff;stop-opacity:0"
         offset="1"
         id="stop5402" />
    </linearGradient>
    <linearGradient
       inkscape:collect="always"
       xlink:href="#linearGradient5398"
       id="linearGradient13322"
       gradientUnits="userSpaceOnUse"
       x1="500.87799"
       y1="948.11993"
       x2="500.87799"
       y2="953.17468"
       gradientTransform="matrix(2.6765239,0,0,2.6765239,-1298.6765,-2514.903)" />
    <linearGradient
       id="linearGradient5344">
      <stop
         style="stop-color:#000000;stop-opacity:1;"
         offset="0"
         id="stop5346" />
      <stop
         style="stop-color:#000000;stop-opacity:0;"
         offset="1"
         id="stop5348" />
    </linearGradient>
    <linearGradient
       inkscape:collect="always"
       xlink:href="#linearGradient5344"
       id="linearGradient13314"
       gradientUnits="userSpaceOnUse"
       x1="544.89001"
       y1="919.05762"
       x2="506.01498"
       y2="969.80762"
       gradientTransform="translate(-485.21014,-859.4386)" />
    <linearGradient
       id="linearGradient8702">
      <stop
         id="stop8704"
         offset="0"
         style="stop-color:#aac736;stop-opacity:1;" />
      <stop
         id="stop8706"
         offset="1"
         style="stop-color:#5d8b2c;stop-opacity:1;" />
    </linearGradient>
    <linearGradient
       inkscape:collect="always"
       xlink:href="#linearGradient8702"
       id="linearGradient13316"
       gradientUnits="userSpaceOnUse"
       gradientTransform="matrix(2.6765239,0,0,2.6765239,-1779.5422,-994.63744)"
       x1="700.13062"
       y1="378.86951"
       x2="707.80457"
       y2="395.74899" />
    <inkscape:perspective
       sodipodi:type="inkscape:persp3d"
       inkscape:vp_x="0 : 526.18109 : 1"
       inkscape:vp_y="0 : 1000 : 0"
       inkscape:vp_z="744.09448 : 526.18109 : 1"
       inkscape:persp3d-origin="372.04724 : 350.78739 : 1"
       id="perspective10" />
  </defs>
  <sodipodi:namedview
     id="base"
     pagecolor="#ffffff"
     bordercolor="#666666"
     borderopacity="1.0"
     inkscape:pageopacity="0.0"
     inkscape:pageshadow="2"
     inkscape:zoom="1.7692308"
     inkscape:cx="61.192877"
     inkscape:cy="66.424839"
     inkscape:document-units="px"
     inkscape:current-layer="layer1"
     showgrid="false"
     inkscape:showpageshadow="false"
     inkscape:window-width="1024"
     inkscape:window-height="713"
     inkscape:window-x="0"
     inkscape:window-y="6"
     showguides="true"
     inkscape:guide-bbox="true" />
  <metadata
     id="metadata7">
    <rdf:RDF>
      <cc:Work
         rdf:about="">
        <dc:format>image/svg+xml</dc:format>
        <dc:type
           rdf:resource="http://purl.org/dc/dcmitype/StillImage" />
      </cc:Work>
    </rdf:RDF>
  </metadata>
  <g
     inkscape:label="Capa 1"
     inkscape:groupmode="layer"
     id="layer1">
    <path
       style="fill:url(#linearGradient10531);fill-opacity:1;fill-rule:evenodd;stroke:none;stroke-width:2;stroke-linecap:round;stroke-linejoin:round;stroke-miterlimit:4;stroke-dasharray:none;stroke-opacity:1;display:inline"
       d="M 65.09035,4.5374899 C 53.723688,4.5374899 44.442039,13.819032 44.442039,25.185836 C 44.442039,33.618385 49.61683,40.761251 56.902328,43.965131 L 56.902328,68.974538 C 55.500097,69.198376 54.052633,69.280036 52.808317,69.953557 C 51.856278,70.45843 51.270654,71.457308 51.295278,72.534582 C 51.290996,72.623523 51.290996,72.712652 51.295278,72.801592 L 51.295278,83.125748 L 17.296734,86.685819 C 15.397205,86.868439 13.95215,87.079509 12.757617,87.486823 C 12.160217,87.690479 11.601091,87.950156 10.977461,88.465842 C 10.429577,88.918977 9.9643969,90.030377 9.9095281,91.135888 L 9.7315393,91.135888 L 9.7315393,91.491893 L 9.7315393,110.80521 C 9.7200302,110.9533 9.7200302,111.10211 9.7315393,111.25021 C 9.9817943,112.89183 11.146885,114.21256 12.223651,114.89927 C 13.300149,115.58599 14.390029,115.89047 15.338589,116.1453 C 27.307736,119.39717 39.489399,122.66341 51.028161,125.84644 C 51.057068,125.87677 51.086777,125.90642 51.117289,125.93544 C 51.345865,126.02523 51.585146,126.08505 51.829245,126.11345 C 55.904252,126.96742 60.93585,127.08032 65.802305,125.75745 L 66.069423,125.66845 L 111.01522,117.4803 C 113.74367,116.97625 116.56633,116.1328 118.49128,113.65324 C 118.89517,113.14786 119.11465,112.52008 119.11438,111.87322 L 119.11438,92.381917 C 119.05496,90.085995 117.76782,89.093433 115.99917,88.287853 C 114.49898,87.628785 112.69474,87.120085 110.39212,86.774814 L 78.707701,81.879746 L 78.707701,72.979581 C 78.707701,72.979126 78.706095,72.910982 78.707701,72.890587 C 78.707433,72.891925 78.700474,72.737142 78.707701,72.623577 C 78.708236,72.593921 78.708236,72.564265 78.707701,72.534582 C 78.709574,72.475271 78.709574,72.415905 78.707701,72.356594 C 78.704757,72.272765 78.71011,72.291688 78.707701,72.267572 C 78.645873,71.354503 78.14911,70.526681 77.372651,70.042551 C 76.150282,69.266975 74.6616,69.218423 73.27864,68.974538 L 73.27864,43.965131 C 80.564138,40.761251 85.738661,33.618332 85.738661,25.185836 C 85.738661,13.819113 76.457279,4.5374363 65.09035,4.5374899 z M 65.09035,10.233588 C 73.375262,10.233534 80.042751,16.901031 80.042751,25.185836 C 80.042751,31.886326 75.57938,37.51602 69.540606,39.426067 C 68.353033,39.816519 67.559176,40.935439 67.582462,42.185108 L 67.582462,71.110565 C 67.576038,72.584794 68.695628,73.820277 70.163434,73.9586 C 71.673261,74.12227 72.265308,74.365512 73.011523,74.581615 L 73.011523,84.371777 C 72.994393,85.786079 74.017628,86.998812 75.414506,87.219813 L 109.50218,92.470912 C 111.37066,92.751063 112.68242,93.067669 113.4182,93.360909 L 113.4182,110.36021 C 112.72552,110.98124 111.78686,111.62232 109.94702,111.96222 L 64.734372,120.23937 C 64.645512,120.23516 64.556384,120.23516 64.467523,120.23937 C 60.868401,121.2577 56.999218,121.25781 53.787122,120.68436 C 53.702544,120.66924 53.604048,120.61127 53.520273,120.59537 C 53.43275,120.5613 53.343622,120.53162 53.253155,120.50635 C 41.504018,117.26114 28.923553,113.9312 16.762768,110.62719 C 16.06366,110.43946 15.637289,110.21337 15.427717,110.0932 L 15.427717,92.826916 C 16.001297,92.689798 16.586652,92.501504 17.830701,92.381917 L 54.410217,88.554836 C 55.878022,88.416513 56.997612,87.18103 56.991189,85.7068 L 56.991189,74.670609 C 57.833491,74.45539 58.560435,74.224299 60.106395,74.047621 C 61.538871,73.867036 62.60948,72.643303 62.598506,71.199559 L 62.598506,42.185108 C 62.621792,40.935439 61.827667,39.816519 60.640361,39.426067 C 54.601588,37.515993 50.138217,31.88638 50.138217,25.185836 C 50.138217,16.900977 56.805706,10.233588 65.09035,10.233588 z"
       id="path10465"
       sodipodi:nodetypes="csccsscccssccccssscsccccsccccccssssssccsccscccscccccccccssssccccccscccsc" />
    <path
       sodipodi:nodetypes="cccccccc"
       id="path10380"
       d="M 48.756328,99.774182 L 17.146046,93.054099 C 11.548899,91.975808 10.496222,90.258711 17.602661,89.575502 L 72.446508,83.837382 L 109.94782,89.626168 C 117.59465,90.772818 119.21421,93.299001 109.92159,94.534645 L 65.835494,100.07077 C 59.611773,101.03362 54.033898,100.70409 48.756328,99.774182 z"
       style="fill:url(#linearGradient10417);fill-rule:evenodd;stroke:none;stroke-width:1px;stroke-linecap:round;stroke-linejoin:round;stroke-opacity:1;display:inline" />
    <path
       sodipodi:type="arc"
       style="opacity:1;fill:url(#linearGradient10533);fill-opacity:1;stroke:none;stroke-width:1;stroke-linecap:round;stroke-linejoin:round;stroke-miterlimit:4;stroke-dasharray:none;stroke-dashoffset:0;stroke-opacity:1;display:inline"
       id="path10434"
       sodipodi:cx="508.1875"
       sodipodi:cy="974.61218"
       sodipodi:rx="4.9375"
       sodipodi:ry="0.75"
       d="M 513.125,974.61218 A 4.9375,0.75 0 1 1 503.25,974.61218 A 4.9375,0.75 0 1 1 513.125,974.61218 z"
       transform="matrix(2.9742251,0,0,4.3907371,-1446.2846,-4189.5909)" />
    <path
       style="fill:url(#linearGradient10447);fill-opacity:1;stroke:none;stroke-width:0.99999994;stroke-linecap:round;stroke-linejoin:round;stroke-miterlimit:4;stroke-dashoffset:0;stroke-opacity:1;display:inline"
       d="M 54.155679,72.766316 C 60.450061,70.269199 70.912593,70.376876 75.886645,72.499306 L 75.886645,89.435707 C 69.226918,91.87319 60.111213,91.695897 54.155679,89.435707 L 54.155679,72.766316 z"
       id="rect10398"
       sodipodi:nodetypes="ccccc" />
    <path
       sodipodi:nodetypes="ccsc"
       id="path10401"
       d="M 54.155679,72.470721 C 57.957949,70.412982 72.247643,70.161871 75.886645,72.470721 C 73.281316,73.966924 67.645895,74.968265 65.022634,74.980015 C 62.252699,74.992354 56.997612,74.218062 54.155679,72.470721 z"
       style="fill:url(#linearGradient10449);fill-opacity:1;stroke:none;stroke-width:0.99999994;stroke-linecap:round;stroke-linejoin:round;stroke-miterlimit:4;stroke-dashoffset:0;stroke-opacity:1;display:inline" />
    <path
       style="fill:url(#linearGradient10445);fill-opacity:1;stroke:none;stroke-width:1;stroke-linecap:round;stroke-linejoin:round;stroke-miterlimit:4;stroke-dashoffset:0;stroke-opacity:1;display:inline"
       d="M 59.744529,37.833937 L 70.436171,37.833937 L 70.436171,72.031048 C 67.148329,73.41995 63.033441,73.40646 59.744529,72.031048 L 59.744529,37.833937 z"
       id="rect10394"
       sodipodi:nodetypes="ccccc" />
    <path
       sodipodi:type="arc"
       style="opacity:1;fill:url(#linearGradient10451);fill-opacity:1;stroke:none;stroke-width:2;stroke-linecap:round;stroke-linejoin:round;stroke-miterlimit:4;stroke-dasharray:none;stroke-dashoffset:0;stroke-opacity:1;display:inline"
       id="path10390"
       sodipodi:cx="508.375"
       sodipodi:cy="952.61218"
       sodipodi:rx="5.75"
       sodipodi:ry="5.75"
       d="M 514.125,952.61218 A 5.75,5.75 0 1 1 502.625,952.61218 A 5.75,5.75 0 1 1 514.125,952.61218 z"
       transform="matrix(3.0957018,0,0,3.0957018,-1508.6871,-2923.8542)" />
    <path
       transform="matrix(1.0525387,0,0,1.0525387,-474.97802,-982.8519)"
       d="M 514.125,952.61218 A 5.75,5.75 0 1 1 502.625,952.61218 A 5.75,5.75 0 1 1 514.125,952.61218 z"
       sodipodi:ry="5.75"
       sodipodi:rx="5.75"
       sodipodi:cy="952.61218"
       sodipodi:cx="508.375"
       id="path10392"
       style="opacity:1;fill:url(#linearGradient10453);fill-opacity:1;stroke:none;stroke-width:2;stroke-linecap:round;stroke-linejoin:round;stroke-miterlimit:4;stroke-dasharray:none;stroke-dashoffset:0;stroke-opacity:1;display:inline"
       sodipodi:type="arc" />
    <path
       style="fill:url(#linearGradient10463);fill-opacity:1;stroke:none;stroke-width:1;stroke-linecap:round;stroke-linejoin:round;stroke-miterlimit:4;stroke-dashoffset:0;stroke-opacity:1;display:inline"
       d="M 37.017361,91.510548 C 37.017361,92.470831 33.492112,93.250128 29.148114,93.250128 C 24.804116,93.250128 21.278599,92.470831 21.278599,91.510548 C 21.278599,91.439781 21.264145,91.036268 21.301617,90.967722 C 21.769206,90.105882 25.124228,89.770968 29.148114,89.770968 C 33.176817,89.770968 36.568508,90.096433 37.029673,90.959746 C 37.065807,91.027302 37.017361,91.440851 37.017361,91.510548 z"
       id="path10404"
       sodipodi:nodetypes="csssssc" />
    <path
       style="fill:url(#linearGradient10461);fill-opacity:1;stroke:none;stroke-width:1;stroke-linecap:round;stroke-linejoin:round;stroke-miterlimit:4;stroke-dashoffset:0;stroke-opacity:1;display:inline"
       d="M 65.8189,97.217941 C 65.8189,98.231969 62.095855,99.054946 57.508828,99.054946 C 52.921802,99.054946 49.198757,98.231969 49.198757,97.217941 C 49.198757,97.157532 49.178683,96.686196 49.204378,96.627286 C 49.612012,95.697167 53.195075,95.380989 57.508828,95.380989 C 61.845065,95.380989 65.431339,95.682499 65.808194,96.61955 C 65.829874,96.67375 65.8189,97.162483 65.8189,97.217941 z"
       id="path10407"
       sodipodi:nodetypes="csssssc" />
    <path
       style="fill:url(#linearGradient10432);fill-rule:evenodd;stroke:none;stroke-width:1px;stroke-linecap:round;stroke-linejoin:round;stroke-opacity:1;display:inline"
       d="M 12.573472,91.081394 L 12.573472,110.84252 C 12.80285,112.34635 14.367011,112.88893 16.055095,113.34239 C 28.252816,116.65638 40.746295,120.05795 52.501588,123.30506 L 56.109006,111.21729 L 52.377932,100.22898 L 16.451756,92.965533 C 14.918107,92.464247 13.048823,92.139719 12.573472,91.081394 z"
       id="path10410"
       sodipodi:nodetypes="cccccccc" />
    <path
       sodipodi:nodetypes="ccccccccc"
       id="path10412"
       d="M 116.30992,92.421449 L 116.30992,111.86787 C 115.04285,113.50009 112.90029,114.25669 110.45315,114.70878 L 65.231135,122.96423 C 60.831733,124.20889 56.144872,124.17739 52.414065,123.3955 L 52.351167,100.23596 C 56.498173,100.67001 60.811659,100.81321 65.62619,100.07949 L 110.72749,94.320149 C 112.93643,94.134773 114.92749,93.669191 116.30992,92.421449 z"
       style="fill:url(#linearGradient10429);fill-rule:evenodd;stroke:none;stroke-width:1px;stroke-linecap:round;stroke-linejoin:round;stroke-opacity:1;display:inline" />
    <path
       sodipodi:nodetypes="cccccccc"
       id="path10421"
       d="M 12.573472,91.081394 L 12.573472,110.84252 C 12.80285,112.34635 14.367011,112.88893 16.055095,113.34239 C 28.252816,116.65638 40.746295,120.05795 52.501588,123.30506 L 56.109006,111.21729 L 52.377932,100.22898 L 16.451756,92.965533 C 14.918107,92.464247 13.048823,92.139719 12.573472,91.081394 z"
       style="fill:url(#linearGradient10440);fill-rule:evenodd;stroke:none;stroke-width:1px;stroke-linecap:round;stroke-linejoin:round;stroke-opacity:1;display:inline" />
    <path
       style="fill:url(#linearGradient10443);fill-opacity:1;fill-rule:evenodd;stroke:none;stroke-width:1px;stroke-linecap:round;stroke-linejoin:round;stroke-opacity:1;display:inline"
       d="M 116.30992,92.421449 L 116.30992,111.86787 C 115.04285,113.50009 112.90029,114.25669 110.45315,114.70878 L 65.231135,122.96423 C 60.831733,124.20889 56.144872,124.17739 52.414065,123.3955 L 52.351167,100.23596 C 56.498173,100.67001 60.811659,100.81321 65.62619,100.07949 L 110.72749,94.320149 C 112.93643,94.134773 114.92749,93.669191 116.30992,92.421449 z"
       id="path10423"
       sodipodi:nodetypes="ccccccccc" />
    <path
       transform="matrix(2.5071888,0,0,3.3151473,-1220.8198,-3143.1429)"
       d="M 501.69226,975.55829 A 3.1387637,0.52474278 0 1 1 495.41473,975.55829 A 3.1387637,0.52474278 0 1 1 501.69226,975.55829 z"
       sodipodi:ry="0.52474278"
       sodipodi:rx="3.1387637"
       sodipodi:cy="975.55829"
       sodipodi:cx="498.5535"
       id="path10436"
       style="opacity:1;fill:url(#linearGradient10457);fill-opacity:1;stroke:none;stroke-width:1;stroke-linecap:round;stroke-linejoin:round;stroke-miterlimit:4;stroke-dasharray:none;stroke-dashoffset:0;stroke-opacity:1;display:inline"
       sodipodi:type="arc" />
    <path
       sodipodi:type="arc"
       style="opacity:1;fill:url(#linearGradient10455);fill-opacity:1;stroke:none;stroke-width:1;stroke-linecap:round;stroke-linejoin:round;stroke-miterlimit:4;stroke-dasharray:none;stroke-dashoffset:0;stroke-opacity:1;display:inline"
       id="path10438"
       sodipodi:cx="498.5535"
       sodipodi:cy="975.55829"
       sodipodi:rx="3.1387637"
       sodipodi:ry="0.52474278"
       d="M 501.69226,975.55829 A 3.1387637,0.52474278 0 1 1 495.41473,975.55829 A 3.1387637,0.52474278 0 1 1 501.69226,975.55829 z"
       transform="matrix(2.6475417,0,0,3.5007303,-1262.4324,-3318.4825)" />
  </g>
</svg>
