<?xml version="1.0" encoding="UTF-8" standalone="no"?>
<!-- Created with Inkscape (http://www.inkscape.org/) -->

<svg
   xmlns:dc="http://purl.org/dc/elements/1.1/"
   xmlns:cc="http://creativecommons.org/ns#"
   xmlns:rdf="http://www.w3.org/1999/02/22-rdf-syntax-ns#"
   xmlns:svg="http://www.w3.org/2000/svg"
   xmlns="http://www.w3.org/2000/svg"
   xmlns:xlink="http://www.w3.org/1999/xlink"
   xmlns:sodipodi="http://sodipodi.sourceforge.net/DTD/sodipodi-0.dtd"
   xmlns:inkscape="http://www.inkscape.org/namespaces/inkscape"
   width="128"
   height="128"
   id="svg2"
   sodipodi:version="0.32"
   inkscape:version="0.48.3.1 r9886"
   version="1.0"
   sodipodi:docname="multimedia-player-symbolic.svg"
   inkscape:output_extension="org.inkscape.output.svg.inkscape">
  <defs
     id="defs4">
    <linearGradient
       inkscape:collect="always"
       xlink:href="#linearGradient5316"
       id="linearGradient9191"
       x1="488.62631"
       y1="943.60614"
       x2="488.62631"
       y2="982.23425"
       gradientUnits="userSpaceOnUse"
       gradientTransform="matrix(2.6765239,0,0,2.6765239,-1298.7888,-2514.903)" />
    <linearGradient
       inkscape:collect="always"
       xlink:href="#linearGradient5362"
       id="linearGradient9260"
       x1="489.71628"
       y1="927.97607"
       x2="489.71628"
       y2="971.55139"
       gradientUnits="userSpaceOnUse"
       gradientTransform="matrix(2.6765239,0,0,2.6765239,-1298.7888,-2514.903)" />
    <linearGradient
       inkscape:collect="always"
       xlink:href="#linearGradient5316"
       id="linearGradient9189"
       x1="490.07397"
       y1="949.56885"
       x2="511.07742"
       y2="972.36957"
       gradientUnits="userSpaceOnUse"
       gradientTransform="matrix(2.6765239,0,0,2.6765239,-1298.7888,-2514.903)" />
    <linearGradient
       inkscape:collect="always"
       xlink:href="#linearGradient9863"
       id="linearGradient9282"
       gradientUnits="userSpaceOnUse"
       gradientTransform="matrix(2.6578158,0,0,2.6578158,-1289.4546,-2494.8403)"
       x1="498.76901"
       y1="982.02686"
       x2="498.76901"
       y2="941.93231" />
    <linearGradient
       inkscape:collect="always"
       xlink:href="#linearGradient5316"
       id="linearGradient9293"
       gradientUnits="userSpaceOnUse"
       gradientTransform="matrix(0.4534883,0,0,0.4534698,-185.12224,-348.0344)"
       x1="498.94983"
       y1="949.01678"
       x2="516.58453"
       y2="971.763" />
    <linearGradient
       inkscape:collect="always"
       xlink:href="#linearGradient5344"
       id="linearGradient9280"
       gradientUnits="userSpaceOnUse"
       x1="521.4234"
       y1="1030.1816"
       x2="509.91653"
       y2="963.55237"
       gradientTransform="matrix(2.6765239,0,0,2.6765239,-1298.7888,-2514.903)" />
    <linearGradient
       inkscape:collect="always"
       xlink:href="#linearGradient5439"
       id="linearGradient9295"
       x1="514.61646"
       y1="967.49103"
       x2="475.02185"
       y2="918.74103"
       gradientUnits="userSpaceOnUse"
       gradientTransform="matrix(2.6765239,0,0,2.6765239,-1298.7888,-2514.903)" />
    <linearGradient
       inkscape:collect="always"
       xlink:href="#linearGradient5439"
       id="linearGradient9186"
       x1="487.90677"
       y1="972.87622"
       x2="540.1366"
       y2="902.62933"
       gradientUnits="userSpaceOnUse"
       gradientTransform="matrix(2.6765239,0,0,2.6765239,-1298.7888,-2514.903)" />
    <linearGradient
       inkscape:collect="always"
       xlink:href="#linearGradient9312"
       id="linearGradient9310"
       x1="513.375"
       y1="987.4386"
       x2="513.8125"
       y2="939.56744"
       gradientUnits="userSpaceOnUse"
       gradientTransform="matrix(2.6765239,0,0,2.6765239,-1298.7888,-2514.903)" />
    <linearGradient
       id="linearGradient9312">
      <stop
         style="stop-color:#2f445a;stop-opacity:1"
         offset="0"
         id="stop9314" />
      <stop
         style="stop-color:#415f7c;stop-opacity:1"
         offset="1"
         id="stop9316" />
    </linearGradient>
    <linearGradient
       inkscape:collect="always"
       xlink:href="#linearGradient9312"
       id="linearGradient9382"
       gradientUnits="userSpaceOnUse"
       x1="513.375"
       y1="987.4386"
       x2="513.8125"
       y2="939.56744"
       gradientTransform="matrix(2.6765239,0,0,2.6765239,-1298.7888,-2514.903)" />
    <linearGradient
       inkscape:collect="always"
       xlink:href="#linearGradient9863"
       id="linearGradient9375"
       x1="521.625"
       y1="978.62231"
       x2="521.625"
       y2="942.40515"
       gradientUnits="userSpaceOnUse" />
    <linearGradient
       inkscape:collect="always"
       xlink:href="#linearGradient9863"
       id="linearGradient9380"
       gradientUnits="userSpaceOnUse"
       x1="521.625"
       y1="978.62231"
       x2="521.625"
       y2="941.6239" />
    <linearGradient
       id="linearGradient5316">
      <stop
         style="stop-color:#aac736;stop-opacity:1;"
         offset="0"
         id="stop5320" />
      <stop
         style="stop-color:#5d8b2c;stop-opacity:1;"
         offset="1"
         id="stop5322" />
    </linearGradient>
    <linearGradient
       id="linearGradient9863">
      <stop
         style="stop-color:#2f445a;stop-opacity:1;"
         offset="0"
         id="stop9865" />
      <stop
         style="stop-color:#415f7c;stop-opacity:1"
         offset="1"
         id="stop9867" />
    </linearGradient>
    <linearGradient
       id="linearGradient5362">
      <stop
         style="stop-color:#ffffff;stop-opacity:1;"
         offset="0"
         id="stop5364" />
      <stop
         style="stop-color:#ffffff;stop-opacity:0;"
         offset="1"
         id="stop5366" />
    </linearGradient>
    <linearGradient
       id="linearGradient5439">
      <stop
         style="stop-color:#ffffff;stop-opacity:1;"
         offset="0"
         id="stop5441" />
      <stop
         style="stop-color:#000000;stop-opacity:1;"
         offset="1"
         id="stop5443" />
    </linearGradient>
    <linearGradient
       id="linearGradient5344">
      <stop
         style="stop-color:#000000;stop-opacity:1;"
         offset="0"
         id="stop5346" />
      <stop
         style="stop-color:#000000;stop-opacity:0;"
         offset="1"
         id="stop5348" />
    </linearGradient>
    <linearGradient
       inkscape:collect="always"
       xlink:href="#linearGradient9312"
       id="linearGradient3059"
       gradientUnits="userSpaceOnUse"
       gradientTransform="matrix(2.6765239,0,0,2.6765239,-1298.7888,-2514.903)"
       x1="513.375"
       y1="987.4386"
       x2="513.8125"
       y2="939.56744" />
    <linearGradient
       inkscape:collect="always"
       xlink:href="#linearGradient9312"
       id="linearGradient3065"
       gradientUnits="userSpaceOnUse"
       gradientTransform="matrix(2.6765239,0,0,2.6765239,-1298.7888,-2514.903)"
       x1="513.375"
       y1="987.4386"
       x2="513.8125"
       y2="939.56744" />
    <linearGradient
       inkscape:collect="always"
       xlink:href="#linearGradient9312"
       id="linearGradient3068"
       gradientUnits="userSpaceOnUse"
       gradientTransform="matrix(2.6765239,0,0,2.6765239,-1298.7888,-2514.903)"
       x1="513.375"
       y1="987.4386"
       x2="513.8125"
       y2="939.56744" />
    <linearGradient
       inkscape:collect="always"
       xlink:href="#linearGradient9863"
       id="linearGradient3075"
       gradientUnits="userSpaceOnUse"
       gradientTransform="matrix(2.6578158,0,0,2.6578158,-1289.4546,-2494.8403)"
       x1="498.76901"
       y1="982.02686"
       x2="498.76901"
       y2="941.93231" />
    <linearGradient
       inkscape:collect="always"
       xlink:href="#linearGradient5316"
       id="linearGradient3078"
       gradientUnits="userSpaceOnUse"
       gradientTransform="matrix(2.6765239,0,0,2.6765239,-1298.7888,-2514.903)"
       x1="488.62631"
       y1="943.60614"
       x2="488.62631"
       y2="982.23425" />
    <linearGradient
       inkscape:collect="always"
       xlink:href="#linearGradient5316"
       id="linearGradient3081"
       gradientUnits="userSpaceOnUse"
       gradientTransform="matrix(2.6765239,0,0,2.6765239,-1298.7888,-2514.903)"
       x1="488.62631"
       y1="943.60614"
       x2="488.62631"
       y2="982.23425" />
    <linearGradient
       inkscape:collect="always"
       xlink:href="#linearGradient5316"
       id="linearGradient3085"
       gradientUnits="userSpaceOnUse"
       gradientTransform="matrix(2.6765239,0,0,2.6765239,-1298.7888,-2514.903)"
       x1="488.62631"
       y1="943.60614"
       x2="488.62631"
       y2="982.23425" />
    <linearGradient
       inkscape:collect="always"
       xlink:href="#linearGradient5316"
       id="linearGradient3088"
       gradientUnits="userSpaceOnUse"
       gradientTransform="matrix(2.6765239,0,0,2.6765239,-1298.7888,-2514.903)"
       x1="488.62631"
       y1="943.60614"
       x2="488.62631"
       y2="982.23425" />
    <linearGradient
       inkscape:collect="always"
       xlink:href="#linearGradient5316"
       id="linearGradient3091"
       gradientUnits="userSpaceOnUse"
       gradientTransform="matrix(2.6765239,0,0,2.6765239,-1298.7888,-2514.903)"
       x1="488.62631"
       y1="943.60614"
       x2="516.29034"
       y2="981.38953" />
  </defs>
  <sodipodi:namedview
     id="base"
     pagecolor="#ffffff"
     bordercolor="#666666"
     borderopacity="1.0"
     inkscape:pageopacity="0.0"
     inkscape:pageshadow="2"
     inkscape:zoom="3.5384616"
     inkscape:cx="71.467123"
     inkscape:cy="56.449419"
     inkscape:document-units="px"
     inkscape:current-layer="layer1"
     showgrid="false"
     inkscape:showpageshadow="false"
     inkscape:window-width="1014"
     inkscape:window-height="713"
     inkscape:window-x="0"
     inkscape:window-y="0"
     showguides="true"
     inkscape:guide-bbox="true"
     inkscape:window-maximized="0" />
  <metadata
     id="metadata7">
    <rdf:RDF>
      <cc:Work
         rdf:about="">
        <dc:format>image/svg+xml</dc:format>
        <dc:type
           rdf:resource="http://purl.org/dc/dcmitype/StillImage" />
      </cc:Work>
    </rdf:RDF>
  </metadata>
  <g
     inkscape:label="Capa 1"
     inkscape:groupmode="layer"
     id="layer1">
    <path
       style="fill:url(#linearGradient3091);fill-rule:evenodd;stroke:none;display:inline"
       d="m 22.25,2.125 c -0.464983,0.0027 -0.816365,0.07843 -1,0.09375 -0.0057,4.75e-4 -0.02586,-3.71e-4 -0.03125,0 -1.377433,0.08874 -3.536676,0.365854 -5.5625,0.6875 -2.037035,0.323426 -3.747365,0.603221 -4.75,0.96875 C 5.64044,5.79465 2.722124,10.622492 2.75,17 l 0,87.71875 0,0.0313 c -0.06504,2.86823 0.275489,5.72993 1.34375,8.21875 1.072161,2.4979 2.978769,4.63084 5.84375,5.59375 1.093045,0.36741 3.849548,1.17393 6.5625,1.75 0.01206,0.003 0.01919,-0.003 0.03125,0 0.02881,0.009 0.06471,0.0224 0.09375,0.0313 0.989249,0.3012 2.077007,0.49839 3.28125,0.53125 0.01117,3e-4 0.02006,-2.8e-4 0.03125,0 0.670023,0.0483 1.296579,0.10487 2.03125,-0.0313 l 0.03125,0 1.59375,-0.3125 0.09375,0 0.09375,0 21.03125,-3.0625 a 1.7399145,1.7399145 0 0 0 0.03125,0.0313 c 9.418679,6.63259 25.931821,9.71336 41.15625,3.1875 l 0.03125,0 0.0625,-0.0313 c 4.74799,-2.35738 7.60516,-5.77513 8.90625,-9.71875 1.30109,-3.94362 1.11481,-8.28308 0.375,-12.84375 -1.478,-9.111419 -5.27129,-19.249281 -6,-28.625 a 1.7428705,1.7428705 0 0 0 0,-0.03125 l 0,-0.03125 c -0.45685,-4.784209 0.77658,-7.93935 2.9375,-10.46875 2.16092,-2.5294 5.38969,-4.396082 8.90625,-5.96875 3.51656,-1.572668 7.29268,-2.821708 10.5,-4.375 3.20732,-1.553292 6.05184,-3.463961 7.03125,-6.65625 a 1.7399145,1.7399145 0 0 0 0.0937,-0.75 c 0.11725,-0.440462 0.1875,-0.897613 0.1875,-1.375 0,-2.956407 -2.41859,-5.375 -5.375,-5.375 -2.95641,0 -5.34375,2.418593 -5.34375,5.375 0,2.207715 1.34197,4.119006 3.25,4.9375 -0.43124,0.244466 -0.88047,0.479252 -1.375,0.71875 -2.90189,1.405373 -6.65752,2.681227 -10.375,4.34375 -2.74838,1.229124 -5.5085,2.647305 -7.84375,4.59375 0.91793,-1.797762 1.97797,-3.3992 3,-4.90625 1.57007,-2.315163 3.12389,-4.377646 3.9375,-6.8125 0.75094,-2.247304 0.6467,-4.836596 -0.71875,-7.46875 -0.009,-0.02162 -0.02175,-0.04103 -0.03125,-0.0625 -0.0905,-0.206442 -0.19762,-0.40191 -0.3125,-0.59375 A 1.7399145,1.7399145 0 0 0 97.78125,34.4688 C 97.76445,34.44186 97.7674,34.40151 97.75,34.375 A 1.7399145,1.7399145 0 0 0 97.6875,34.3125 C 97.6795,34.30052 97.66445,34.29316 97.65625,34.28125 96.69126,32.877484 95.08221,31.9375 93.25,31.9375 c -2.95641,0 -5.34375,2.387343 -5.34375,5.34375 0,2.956407 2.38734,5.375 5.34375,5.375 0.74922,0 1.47758,-0.159559 2.125,-0.4375 -0.65791,1.528283 -1.8748,3.269853 -3.28125,5.34375 -3.20181,4.721279 -7.1763,11.320209 -6.1875,22.0625 0.003,0.03194 -0.003,0.06174 0,0.09375 7.9e-4,0.01022 -7.9e-4,0.02103 0,0.03125 a 1.7428705,1.7428705 0 0 0 0.03125,0.1875 c 0.81639,10.032155 4.61951,20.177213 6,28.6875 0.69525,4.28598 0.77868,8.1008 -0.25,11.21875 -1.02868,3.11795 -3.07157,5.65945 -7.15625,7.6875 -12.229024,5.20472 -25.619405,3.53282 -34.28125,-0.84375 l 15.5,-2.25 c 4.073824,-0.56068 7.333039,-2.21352 9.46875,-4.96875 2.135711,-2.75523 3.109307,-6.49802 3.0625,-11.09375 l 0,-77.5 c 3.28e-4,-0.01187 -3.15e-4,-0.0194 0,-0.03125 0.132144,-4.969275 -0.843685,-8.639676 -3,-11.125 -2.148904,-2.476782 -5.35876,-3.573217 -9.09375,-3.75 l -0.0625,0 -43.25,-3.84375 -0.0625,0 -0.03125,0 c -0.165552,-0.0045 -0.296932,4.11e-4 -0.375,0 l -0.15625,0 z m -3.875,7.09375 53.28125,4.125 -0.5,49.28125 -52.78125,2.4375 0,-55.84375 z m 26.75,58.125 c 0.345096,-0.01423 0.67894,-0.0064 1.03125,0 0.363675,0.0066 0.7539,0.03334 1.125,0.0625 C 56.632757,68.140902 63,76.102381 63,87.96875 62.720035,99.25996 56.687031,107.81559 47.4375,109.40625 35.070353,111.53328 27.26124,101.2728 27.25,89.5 27.2392,78.005752 34.427012,67.784741 45.125,67.34375 z m 0,11.59375 c -4.843836,0.208848 -8.098517,4.82322 -8.09375,10.03125 0.0051,5.339799 3.515542,9.996003 9.125,9.03125 4.195184,-0.721484 6.935633,-4.597382 7.0625,-9.71875 0,-5.382249 -2.883512,-9.010523 -7.125,-9.34375 -0.33664,-0.02645 -0.645828,-0.01392 -0.96875,0 z"
       id="path9173"
       inkscape:connector-curvature="0" />
  </g>
</svg>
