<?xml version="1.0" encoding="UTF-8" standalone="no"?>
<!-- Created with Inkscape (http://www.inkscape.org/) -->

<svg
   xmlns:dc="http://purl.org/dc/elements/1.1/"
   xmlns:cc="http://creativecommons.org/ns#"
   xmlns:rdf="http://www.w3.org/1999/02/22-rdf-syntax-ns#"
   xmlns:svg="http://www.w3.org/2000/svg"
   xmlns="http://www.w3.org/2000/svg"
   xmlns:xlink="http://www.w3.org/1999/xlink"
   xmlns:sodipodi="http://sodipodi.sourceforge.net/DTD/sodipodi-0.dtd"
   xmlns:inkscape="http://www.inkscape.org/namespaces/inkscape"
   width="136.53334"
   height="136.53334"
   id="svg2"
   sodipodi:version="0.32"
   inkscape:version="0.92.1 r15371"
   version="1.0"
   sodipodi:docname="printer-network-symbolic.svg"
   inkscape:output_extension="org.inkscape.output.svg.inkscape">
  <defs
     id="defs4">
    <linearGradient
       id="linearGradient8702">
      <stop
         id="stop8704"
         offset="0"
         style="stop-color:#aac736;stop-opacity:1;" />
      <stop
         id="stop8706"
         offset="1"
         style="stop-color:#5d8b2c;stop-opacity:1;" />
    </linearGradient>
    <linearGradient
       inkscape:collect="always"
       xlink:href="#linearGradient8702"
       id="linearGradient3323"
       x1="12.047645"
       y1="13.900783"
       x2="116.1711"
       y2="110.62069"
       gradientUnits="userSpaceOnUse"
       gradientTransform="scale(1.0666667)" />
  </defs>
  <sodipodi:namedview
     id="base"
     pagecolor="#ffffff"
     bordercolor="#666666"
     borderopacity="1.0"
     inkscape:pageopacity="0.0"
     inkscape:pageshadow="2"
     inkscape:zoom="2"
     inkscape:cx="66.822613"
     inkscape:cy="70.728464"
     inkscape:document-units="px"
     inkscape:current-layer="layer1"
     showgrid="false"
     inkscape:showpageshadow="false"
     inkscape:window-width="1024"
     inkscape:window-height="713"
     inkscape:window-x="0"
     inkscape:window-y="26"
     showguides="true"
     inkscape:guide-bbox="true"
     inkscape:window-maximized="0"
     inkscape:snap-global="false" />
  <metadata
     id="metadata7">
    <rdf:RDF>
      <cc:Work
         rdf:about="">
        <dc:format>image/svg+xml</dc:format>
        <dc:type
           rdf:resource="http://purl.org/dc/dcmitype/StillImage" />
      </cc:Work>
    </rdf:RDF>
  </metadata>
  <g
     inkscape:label="Capa 1"
     inkscape:groupmode="layer"
     id="layer1">
    <path
       style="display:inline;fill:url(#linearGradient3323);fill-rule:evenodd;stroke:none;stroke-width:1.06666672px;stroke-linecap:butt;stroke-linejoin:miter;stroke-opacity:1"
       d="m 92.333984,49.199219 -70.167968,2.568359 3.156252,24.740234 70.357617,-4.422294 z M 104.59961,73.632816 25.900391,79.5 20.424096,76.573721 c -2.10079,-0.07254 -4.424425,0.164608 -6.623312,0.293426 -2.20681,0.140985 -4.37074,0.3626 -6.3671872,1.365234 -0.021569,-0.0037 -0.044826,0.0037 -0.066406,0 -0.025798,0.01723 -0.040499,0.05104 -0.066406,0.06836 -2.399016,1.603966 -5.2394596,3.580823 -5.5332031,11.166016 v 36.333983 l 31.8652343,8.56641 v 0.0332 l 0.09961,-0.0332 0.06836,0.0332 v -0.0332 L 68.933594,128.5 l 14.699218,4.5332 c 8.497787,3.21077 31.959008,1.27692 39.999998,-1.36718 6.45821,-2.15989 12.43663,-7.64146 7.4336,-9 L 121.26758,119.80078 135,117.5 V 88.732422 C 134.97003,79.428426 124.23839,73.150338 105.80078,71.5 l -8.538475,0.47176 c 1.046338,0.151463 4.245195,0.800633 7.337305,1.661056 z m 16.5,24.333981 c 5.86725,0.01547 5.80078,6.510043 5.80078,19.566403 l -8.56641,1.40039 -11.13476,-3.26757 -54.265626,7.93359 12.765625,3.93359 -19.265625,3.13282 c 0.138181,-15.28978 1.402482,-23.86973 7.298828,-24.79883 l 66.101558,-7.800784 c 0.44557,-0.05657 0.87448,-0.100644 1.26563,-0.09961 z"
       id="path6551"
       inkscape:connector-curvature="0"
       sodipodi:nodetypes="cccccccccccccccccccccccccccccccccccccccc" />
    <path
       style="opacity:1;fill:#000000;fill-opacity:1;stroke:none;stroke-width:2.64566922;stroke-linecap:round;stroke-linejoin:bevel;stroke-miterlimit:4;stroke-dasharray:none;stroke-opacity:0.03809521"
       d="M 120.03125 3.2441406 A 12.197593 12.197593 0 0 0 108.89258 10.492188 L 87.492188 10.492188 L 87.492188 20.390625 L 108.89844 20.390625 A 12.197593 12.197593 0 0 0 115.08203 26.580078 L 115.08203 51.712891 L 124.98047 51.712891 L 124.98047 26.574219 A 12.197593 12.197593 0 0 0 132.22852 15.441406 A 12.197593 12.197593 0 0 0 120.03125 3.2441406 z "
       id="path28" />
  </g>
</svg>
