<?xml version="1.0" encoding="UTF-8" standalone="no"?>
<!-- Created with Inkscape (http://www.inkscape.org/) -->
<svg
   xmlns:dc="http://purl.org/dc/elements/1.1/"
   xmlns:cc="http://creativecommons.org/ns#"
   xmlns:rdf="http://www.w3.org/1999/02/22-rdf-syntax-ns#"
   xmlns:svg="http://www.w3.org/2000/svg"
   xmlns="http://www.w3.org/2000/svg"
   xmlns:xlink="http://www.w3.org/1999/xlink"
   xmlns:sodipodi="http://sodipodi.sourceforge.net/DTD/sodipodi-0.dtd"
   xmlns:inkscape="http://www.inkscape.org/namespaces/inkscape"
   width="128"
   height="128"
   id="svg2"
   sodipodi:version="0.32"
   inkscape:version="0.46"
   version="1.0"
   sodipodi:docname="gnome-mime-application-x-deb.svg"
   inkscape:output_extension="org.inkscape.output.svg.inkscape">
  <defs
     id="defs4">
    <linearGradient
       gradientTransform="matrix(2.6765239,0,0,2.6765239,-1298.6765,-2514.6032)"
       y2="1041.7268"
       x2="632.45203"
       y1="929.74353"
       x1="482.47244"
       gradientUnits="userSpaceOnUse"
       id="linearGradient5664"
       xlink:href="#linearGradient5439"
       inkscape:collect="always" />
    <linearGradient
       gradientTransform="matrix(2.6765239,0,0,2.6765239,-1298.6765,-2514.6032)"
       y2="974.72845"
       x2="481.26718"
       y1="926.28644"
       x1="503.1875"
       gradientUnits="userSpaceOnUse"
       id="linearGradient5666"
       xlink:href="#linearGradient5362"
       inkscape:collect="always" />
    <linearGradient
       gradientTransform="matrix(2.6765239,0,0,2.6765239,-1298.6765,-2508.581)"
       y2="932.17682"
       x2="479.43231"
       y1="990.51312"
       x1="512.6452"
       gradientUnits="userSpaceOnUse"
       id="linearGradient5668"
       xlink:href="#linearGradient5344"
       inkscape:collect="always" />
    <linearGradient
       gradientTransform="matrix(2.6765239,0,0,2.6765239,-1619.8594,-2086.3594)"
       gradientUnits="userSpaceOnUse"
       y2="942.96057"
       x2="767.56854"
       y1="788.43457"
       x1="625.0824"
       id="linearGradient6010"
       xlink:href="#linearGradient5439"
       inkscape:collect="always" />
    <linearGradient
       y2="810.591"
       x2="654.38629"
       y1="751.67841"
       x1="615.20587"
       gradientTransform="matrix(2.6685008,-0.2070831,0.2070831,2.6685008,-1779.6052,-1948.6342)"
       gradientUnits="userSpaceOnUse"
       id="linearGradient5425"
       xlink:href="#linearGradient12594"
       inkscape:collect="always" />
    <linearGradient
       y2="810.591"
       x2="654.38629"
       y1="751.67841"
       x1="615.20587"
       gradientTransform="matrix(2.6320524,-0.485882,0.485882,2.6320524,-1973.9206,-1670.0735)"
       gradientUnits="userSpaceOnUse"
       id="linearGradient5428"
       xlink:href="#linearGradient12594"
       inkscape:collect="always" />
    <linearGradient
       y2="431.66223"
       x2="691.25696"
       y1="478.72107"
       x1="691.25696"
       gradientTransform="matrix(2.660984,0,0,2.6609781,-1769.6339,-1147.7457)"
       gradientUnits="userSpaceOnUse"
       id="linearGradient11145"
       xlink:href="#linearGradient9863"
       inkscape:collect="always" />
    <linearGradient
       y2="1041.7268"
       x2="632.45203"
       y1="929.74353"
       x1="482.47244"
       gradientTransform="matrix(2.6765239,0,0,2.6765239,-1298.6765,-2514.5619)"
       gradientUnits="userSpaceOnUse"
       id="linearGradient6351"
       xlink:href="#linearGradient5439"
       inkscape:collect="always" />
    <linearGradient
       y2="974.72845"
       x2="481.26718"
       y1="926.28644"
       x1="503.1875"
       gradientTransform="matrix(2.6765239,0,0,2.6765239,-1298.6765,-2514.5619)"
       gradientUnits="userSpaceOnUse"
       id="linearGradient6353"
       xlink:href="#linearGradient5362"
       inkscape:collect="always" />
    <linearGradient
       y2="932.17682"
       x2="479.43231"
       y1="990.51312"
       x1="512.6452"
       gradientTransform="matrix(2.6765239,0,0,2.6765239,-1298.6765,-2508.5397)"
       gradientUnits="userSpaceOnUse"
       id="linearGradient6355"
       xlink:href="#linearGradient5344"
       inkscape:collect="always" />
    <linearGradient
       gradientTransform="matrix(2.6765239,0,0,2.6765239,-1619.8594,-2086.3181)"
       y2="942.96057"
       x2="767.56854"
       y1="788.43457"
       x1="625.0824"
       gradientUnits="userSpaceOnUse"
       id="linearGradient6357"
       xlink:href="#linearGradient5439"
       inkscape:collect="always" />
    <linearGradient
       gradientTransform="matrix(2.6765239,0,0,2.6765239,-1619.8594,-2086.3181)"
       y2="810.591"
       x2="654.38629"
       y1="751.67841"
       x1="615.20587"
       gradientUnits="userSpaceOnUse"
       id="linearGradient6359"
       xlink:href="#linearGradient12594"
       inkscape:collect="always" />
    <linearGradient
       y2="810.591"
       x2="654.38629"
       y1="751.67841"
       x1="615.20587"
       gradientTransform="matrix(2.6433998,-0.4197836,0.4197836,2.6433998,-1930.264,-1720.9632)"
       gradientUnits="userSpaceOnUse"
       id="linearGradient6361"
       xlink:href="#linearGradient12594"
       inkscape:collect="always" />
    <linearGradient
       gradientTransform="matrix(2.6765239,0,0,2.6765239,-1459.268,-2086.3181)"
       gradientUnits="userSpaceOnUse"
       y2="809.88635"
       x2="583.23914"
       y1="793.62292"
       x1="566.77771"
       id="linearGradient6575"
       xlink:href="#linearGradient5316"
       inkscape:collect="always" />
    <linearGradient
       id="linearGradient12578">
      <stop
         id="stop12580"
         offset="0"
         style="stop-color:#e9b551;stop-opacity:1;" />
      <stop
         id="stop12582"
         offset="1"
         style="stop-color:#b48739;stop-opacity:1;" />
    </linearGradient>
    <linearGradient
       gradientTransform="matrix(2.6765239,0,0,2.6765239,-1458.4316,-2086.3181)"
       gradientUnits="userSpaceOnUse"
       y2="812.4762"
       x2="583.71661"
       y1="796.47791"
       x1="566.30414"
       id="linearGradient6573"
       xlink:href="#linearGradient12578"
       inkscape:collect="always" />
    <linearGradient
       y2="431.66223"
       x2="691.25696"
       y1="478.72107"
       x1="691.25696"
       gradientTransform="matrix(2.660984,0,0,2.6609781,-1769.6339,-1147.7044)"
       gradientUnits="userSpaceOnUse"
       id="linearGradient11149"
       xlink:href="#linearGradient9863"
       inkscape:collect="always" />
    <linearGradient
       gradientTransform="matrix(2.6943474,0,0,2.6943474,-683.16883,-1430.2664)"
       gradientUnits="userSpaceOnUse"
       y2="483.33371"
       x2="313.54166"
       y1="553.00134"
       x1="282.71295"
       id="linearGradient20981"
       xlink:href="#linearGradient5439"
       inkscape:collect="always" />
    <linearGradient
       id="linearGradient12594">
      <stop
         id="stop12596"
         offset="0"
         style="stop-color:#e9b551;stop-opacity:1;" />
      <stop
         id="stop12598"
         offset="1"
         style="stop-color:#e9b551;stop-opacity:0;" />
    </linearGradient>
    <linearGradient
       id="linearGradient5316">
      <stop
         style="stop-color:#87c7ff;stop-opacity:1;"
         offset="0"
         id="stop5320" />
      <stop
         style="stop-color:#74aadb;stop-opacity:1;"
         offset="1"
         id="stop5322" />
    </linearGradient>
    <linearGradient
       id="linearGradient9863">
      <stop
         style="stop-color:#2f445a;stop-opacity:1;"
         offset="0"
         id="stop9865" />
      <stop
         style="stop-color:#415f7c;stop-opacity:1"
         offset="1"
         id="stop9867" />
    </linearGradient>
    <linearGradient
       id="linearGradient12336">
      <stop
         id="stop12338"
         offset="0"
         style="stop-color:#ff6e00;stop-opacity:1;" />
      <stop
         id="stop12340"
         offset="1"
         style="stop-color:#eb2600;stop-opacity:1;" />
    </linearGradient>
    <linearGradient
       id="linearGradient5362">
      <stop
         style="stop-color:#ffffff;stop-opacity:1;"
         offset="0"
         id="stop5364" />
      <stop
         style="stop-color:#ffffff;stop-opacity:0;"
         offset="1"
         id="stop5366" />
    </linearGradient>
    <linearGradient
       id="linearGradient5439">
      <stop
         style="stop-color:#ffffff;stop-opacity:1;"
         offset="0"
         id="stop5441" />
      <stop
         style="stop-color:#000000;stop-opacity:1;"
         offset="1"
         id="stop5443" />
    </linearGradient>
    <linearGradient
       inkscape:collect="always"
       xlink:href="#linearGradient5439"
       id="linearGradient13309"
       gradientUnits="userSpaceOnUse"
       x1="499.90704"
       y1="953.39532"
       x2="652.75177"
       y2="1116.9413"
       gradientTransform="matrix(2.6765239,0,0,2.6765239,-1298.6765,-2514.903)" />
    <linearGradient
       inkscape:collect="always"
       id="linearGradient5398">
      <stop
         style="stop-color:#87c6ff;stop-opacity:1;"
         offset="0"
         id="stop5400" />
      <stop
         style="stop-color:#87c6ff;stop-opacity:0"
         offset="1"
         id="stop5402" />
    </linearGradient>
    <linearGradient
       inkscape:collect="always"
       xlink:href="#linearGradient5398"
       id="linearGradient13322"
       gradientUnits="userSpaceOnUse"
       x1="500.87799"
       y1="948.11993"
       x2="500.87799"
       y2="953.17468"
       gradientTransform="matrix(2.6765239,0,0,2.6765239,-1298.6765,-2514.903)" />
    <linearGradient
       id="linearGradient5344">
      <stop
         style="stop-color:#000000;stop-opacity:1;"
         offset="0"
         id="stop5346" />
      <stop
         style="stop-color:#000000;stop-opacity:0;"
         offset="1"
         id="stop5348" />
    </linearGradient>
    <linearGradient
       inkscape:collect="always"
       xlink:href="#linearGradient5344"
       id="linearGradient13314"
       gradientUnits="userSpaceOnUse"
       x1="544.89001"
       y1="919.05762"
       x2="506.01498"
       y2="969.80762"
       gradientTransform="translate(-485.21014,-859.4386)" />
    <linearGradient
       id="linearGradient8702">
      <stop
         id="stop8704"
         offset="0"
         style="stop-color:#aac736;stop-opacity:1;" />
      <stop
         id="stop8706"
         offset="1"
         style="stop-color:#5d8b2c;stop-opacity:1;" />
    </linearGradient>
    <linearGradient
       inkscape:collect="always"
       xlink:href="#linearGradient8702"
       id="linearGradient13316"
       gradientUnits="userSpaceOnUse"
       gradientTransform="matrix(2.6765239,0,0,2.6765239,-1779.5422,-994.63744)"
       x1="700.13062"
       y1="378.86951"
       x2="707.80457"
       y2="395.74899" />
    <inkscape:perspective
       sodipodi:type="inkscape:persp3d"
       inkscape:vp_x="0 : 526.18109 : 1"
       inkscape:vp_y="0 : 1000 : 0"
       inkscape:vp_z="744.09448 : 526.18109 : 1"
       inkscape:persp3d-origin="372.04724 : 350.78739 : 1"
       id="perspective10" />
    <linearGradient
       inkscape:collect="always"
       xlink:href="#linearGradient5344"
       id="linearGradient11982"
       gradientUnits="userSpaceOnUse"
       gradientTransform="translate(58.38756,-239.79289)"
       x1="493.9072"
       y1="282.77054"
       x2="435.71548"
       y2="231.20738" />
    <linearGradient
       inkscape:collect="always"
       xlink:href="#linearGradient5316"
       id="linearGradient11987"
       gradientUnits="userSpaceOnUse"
       gradientTransform="matrix(0,-6.4509326,6.4649818,0,-726.43747,2464.539)"
       x1="380.45135"
       y1="123.74059"
       x2="373.96744"
       y2="128.94151" />
    <linearGradient
       inkscape:collect="always"
       xlink:href="#linearGradient9863"
       id="linearGradient11991"
       gradientUnits="userSpaceOnUse"
       gradientTransform="matrix(2.6724743,0,0,2.6666667,-1136.3076,-136.45573)"
       x1="448.61356"
       y1="98.163681"
       x2="448.61356"
       y2="51.040291" />
    <linearGradient
       inkscape:collect="always"
       xlink:href="#linearGradient5439"
       id="linearGradient11994"
       gradientUnits="userSpaceOnUse"
       gradientTransform="matrix(2.5929476,0,0,2.5467438,-1253.6197,-1603.2437)"
       x1="485.01462"
       y1="633.39752"
       x2="594.81787"
       y2="707.73212" />
    <linearGradient
       inkscape:collect="always"
       xlink:href="#linearGradient5439"
       id="linearGradient11997"
       gradientUnits="userSpaceOnUse"
       gradientTransform="matrix(2.7004997,0,0,2.6523792,-1308.1375,-1672.2418)"
       x1="511.00421"
       y1="661.83636"
       x2="484.41125"
       y2="630.4527" />
    <linearGradient
       inkscape:collect="always"
       xlink:href="#linearGradient5439"
       id="linearGradient12000"
       gradientUnits="userSpaceOnUse"
       gradientTransform="matrix(2.6724743,0,0,2.6666667,-1296.1836,-1683.3724)"
       x1="513.53632"
       y1="643.15497"
       x2="572.04932"
       y2="698.16571" />
    <linearGradient
       inkscape:collect="always"
       xlink:href="#linearGradient5439"
       id="linearGradient12003"
       gradientUnits="userSpaceOnUse"
       gradientTransform="matrix(2.4555546,0,0,2.4508294,-1182.6426,-1541.5864)"
       x1="482.04404"
       y1="629.51166"
       x2="600.66217"
       y2="711.91254" />
    <linearGradient
       inkscape:collect="always"
       xlink:href="#linearGradient5439"
       id="linearGradient12006"
       gradientUnits="userSpaceOnUse"
       gradientTransform="matrix(2.4316245,0,0,2.4263403,-1173.0757,-1524.0986)"
       x1="484.04169"
       y1="629.66498"
       x2="598.57666"
       y2="708.88654" />
    <linearGradient
       inkscape:collect="always"
       xlink:href="#linearGradient5439"
       id="linearGradient12009"
       gradientUnits="userSpaceOnUse"
       gradientTransform="matrix(2.6724743,0,0,2.6666667,-1296.656,-1683.1224)"
       x1="494.96805"
       y1="639.71228"
       x2="531.75"
       y2="670.73663" />
    <linearGradient
       inkscape:collect="always"
       xlink:href="#linearGradient5439"
       id="linearGradient12012"
       gradientUnits="userSpaceOnUse"
       gradientTransform="matrix(2.6724743,0,0,2.6666667,-1296.656,-1683.1224)"
       x1="495.35397"
       y1="640.05084"
       x2="531.08636"
       y2="670.77136" />
    <linearGradient
       inkscape:collect="always"
       xlink:href="#linearGradient5439"
       id="linearGradient12015"
       gradientUnits="userSpaceOnUse"
       gradientTransform="matrix(2.6724743,0,0,2.6666667,-1296.656,-1683.1224)"
       x1="485.65756"
       y1="629.86298"
       x2="594.2511"
       y2="706.58405" />
    <linearGradient
       inkscape:collect="always"
       xlink:href="#linearGradient5362"
       id="linearGradient12018"
       gradientUnits="userSpaceOnUse"
       gradientTransform="matrix(2.6724743,0,0,2.6666667,-1296.656,-1683.1224)"
       x1="491.02121"
       y1="633.16431"
       x2="485.68814"
       y2="640.88721" />
    <linearGradient
       inkscape:collect="always"
       xlink:href="#linearGradient5439"
       id="linearGradient12021"
       gradientUnits="userSpaceOnUse"
       gradientTransform="matrix(2.6724743,0,0,2.6666667,-1296.656,-1683.1224)"
       x1="490.27121"
       y1="632.72681"
       x2="449.2301"
       y2="708.07471" />
  </defs>
  <sodipodi:namedview
     id="base"
     pagecolor="#ffffff"
     bordercolor="#666666"
     borderopacity="1.0"
     inkscape:pageopacity="0.0"
     inkscape:pageshadow="2"
     inkscape:zoom="2.5020702"
     inkscape:cx="98.294547"
     inkscape:cy="63.02599"
     inkscape:document-units="px"
     inkscape:current-layer="layer1"
     showgrid="false"
     inkscape:showpageshadow="false"
     inkscape:window-width="1014"
     inkscape:window-height="715"
     inkscape:window-x="0"
     inkscape:window-y="6"
     showguides="true"
     inkscape:guide-bbox="true" />
  <metadata
     id="metadata7">
    <rdf:RDF>
      <cc:Work
         rdf:about="">
        <dc:format>image/svg+xml</dc:format>
        <dc:type
           rdf:resource="http://purl.org/dc/dcmitype/StillImage" />
      </cc:Work>
    </rdf:RDF>
  </metadata>
  <g
     inkscape:label="Capa 1"
     inkscape:groupmode="layer"
     id="layer1">
    <path
       inkscape:export-ydpi="57.964222"
       inkscape:export-xdpi="57.964222"
       inkscape:export-filename="/home/dafeba/DCV/tallerD/bocetos/08-09-22-hastaahora.png"
       style="fill:url(#linearGradient5664);fill-rule:evenodd;stroke:none;stroke-width:0.5;stroke-linecap:butt;stroke-linejoin:miter;stroke-miterlimit:4;stroke-dasharray:none;stroke-opacity:1;display:inline"
       d="M 43.875951,2.0767847 L 6.1706871,6.8988637 C 2.3455331,7.502393 1.2171641,12.257987 1.188445,15.932132 C 1.1640886,46.210362 1.6330156,76.488566 1.1154027,106.76679 C 1.0885304,111.03167 2.48589,113.47055 5.7762745,114.27862 L 43.260966,124.26521 C 46.722006,125.2055 49.709917,125.29377 54.054103,124.50955 L 122.07188,112.9289 C 125.34519,112.41857 126.41366,109.89006 126.57243,105.59496 L 126.57243,14.17569 C 126.62189,10.26387 125.24771,7.8579692 121.63759,7.3713237 L 54.287388,2.0356732 C 50.794043,1.820561 47.29315,1.5302385 43.875951,2.0767847 z"
       id="path5654"
       sodipodi:nodetypes="ccccccccccccc" />
    <path
       inkscape:export-ydpi="57.964222"
       inkscape:export-xdpi="57.964222"
       inkscape:export-filename="/home/dafeba/DCV/tallerD/bocetos/08-09-22-hastaahora.png"
       sodipodi:nodetypes="cccccccc"
       id="path5656"
       d="M 43.02752,2.1875927 L 6.1620687,6.9419022 C 2.7177036,7.3794603 1.1900509,11.663317 1.1867856,15.848491 L 1.1103708,102.66823 L 48.116796,114.81435 L 48.053818,11.582567 C 48.239676,7.3647126 50.63206,1.422214 54.281179,2.0895249 C 50.401932,1.7382044 46.575868,1.5462708 43.02752,2.1875927 z"
       style="fill:url(#linearGradient5666);fill-rule:evenodd;stroke:none;stroke-width:0.5;stroke-linecap:butt;stroke-linejoin:miter;stroke-miterlimit:4;stroke-dasharray:none;stroke-opacity:1;display:inline" />
    <path
       inkscape:export-ydpi="57.964222"
       inkscape:export-xdpi="57.964222"
       inkscape:export-filename="/home/dafeba/DCV/tallerD/bocetos/08-09-22-hastaahora.png"
       sodipodi:nodetypes="cccccc"
       id="path5658"
       d="M 48.048304,1.7827417 L 48.116796,125.52045 L 126.57243,112.37063 L 126.57243,7.8731719 L 54.175777,2.0266534 C 52.133295,1.9031585 50.090786,1.6990201 48.048304,1.7827417 z"
       style="fill:none;fill-rule:evenodd;stroke:none;stroke-width:0.5;stroke-linecap:butt;stroke-linejoin:miter;stroke-miterlimit:4;stroke-dasharray:none;stroke-opacity:1;display:inline" />
    <path
       inkscape:export-ydpi="57.964222"
       inkscape:export-xdpi="57.964222"
       inkscape:export-filename="/home/dafeba/DCV/tallerD/bocetos/08-09-22-hastaahora.png"
       sodipodi:nodetypes="ccccccccccccccccccc"
       style="fill:url(#linearGradient5668);fill-rule:evenodd;stroke:none;stroke-width:1px;stroke-linecap:butt;stroke-linejoin:miter;stroke-opacity:1;display:inline"
       d="M 23.944465,15.380955 L 10.980053,29.767271 L 17.253155,29.599989 L 17.253155,41.644346 L 30.803059,41.477064 L 30.803059,29.181782 L 37.494369,28.930858 L 23.944465,15.380955 z M 8.1362459,48.335656 L 20.682452,70.584261 L 20.682452,95.593031 L 13.656576,95.529678 L 13.656576,97.767707 L 33.228659,101.7538 L 33.228659,98.860987 L 25.199086,96.262162 L 25.199086,70.584261 L 40.840024,48.335656 L 8.1362459,48.335656 z"
       id="path5660" />
    <path
       inkscape:export-ydpi="57.964222"
       inkscape:export-xdpi="57.964222"
       inkscape:export-filename="/home/dafeba/DCV/tallerD/bocetos/08-09-22-hastaahora.png"
       sodipodi:nodetypes="ccccc"
       id="path6008"
       d="M 53.188568,29.582324 L 57.446891,104.33953 L 122.74117,91.564568 L 118.48285,23.90456 C 116.11712,23.90456 53.188568,29.109168 53.188568,29.582324 z"
       style="fill:url(#linearGradient6010);fill-rule:evenodd;stroke:none;stroke-width:1px;stroke-linecap:butt;stroke-linejoin:miter;stroke-opacity:1;display:inline" />
    <path
       inkscape:export-ydpi="57.964222"
       inkscape:export-xdpi="57.964222"
       inkscape:export-filename="/home/dafeba/DCV/tallerD/bocetos/08-09-22-hastaahora.png"
       d="M 107.75582,56.785228 C 107.94907,58.540439 107.43611,59.434077 107.02441,60.978752 L 106.12325,61.505331 C 105.46659,63.048722 106.26623,62.448806 105.80579,63.673717 C 104.68708,64.817369 102.4186,67.246582 101.65477,67.50666 C 101.08657,67.531016 101.988,66.807498 102.09409,66.543031 C 100.57335,67.749608 100.92766,68.282076 98.528054,69.109496 L 98.446098,68.954365 C 92.612026,72.193494 83.806209,67.069343 83.352538,59.338418 C 83.325772,59.832156 83.197861,59.71728 83.078703,59.922542 C 82.47793,55.970976 84.324865,51.843535 87.813259,49.983431 C 91.211695,48.00821 95.401258,48.463433 98.097963,50.668862 C 96.579598,48.931879 93.676212,47.171529 90.415938,47.558661 C 87.214494,47.813172 84.362123,50.050987 83.52049,52.338317 C 81.955526,53.478142 81.97833,56.457381 81.304033,57.04643 C 80.85783,64.219434 83.85543,67.115272 88.81361,70.432127 C 89.586938,70.883844 89.062982,70.994706 89.189314,71.369633 C 87.577805,70.736823 86.068835,69.72044 84.796951,68.436404 C 85.486611,69.310771 86.223217,70.15947 87.143994,70.804646 C 85.637192,70.399501 83.449348,67.44419 82.867846,67.355169 C 85.732904,71.755294 93.73373,74.698828 97.670174,72.73632 C 95.799043,72.923222 93.410674,73.043344 91.242823,72.397552 C 90.322982,71.995405 89.04901,71.123714 89.251677,70.933681 C 94.940146,72.657791 100.62524,71.790169 105.13934,67.628094 C 106.2888,66.597418 107.50271,64.889769 107.88628,64.842716 C 107.37164,65.753269 108.01612,65.25474 107.62989,66.05759 C 108.69983,64.013448 107.04505,65.290766 108.63581,62.581749 L 109.35933,63.45103 C 108.99669,61.831733 111.11368,59.704325 110.69641,57.133765 C 111.15779,56.312233 111.33656,57.948285 110.91584,59.799609 C 111.53459,57.7351 110.94729,57.44657 111.02156,55.771735 C 111.27176,56.316007 111.59583,56.893627 111.78303,57.473335 C 111.14524,55.558149 112.05162,54.161432 112.22171,53.012801 C 111.96715,52.919899 111.51591,53.920866 111.2299,51.63118 C 111.17463,50.630856 111.46672,51.089719 111.5483,50.8385 C 111.34726,50.739978 110.77866,50.006583 110.36043,48.554837 C 110.55876,48.195915 111.02611,49.410227 111.33816,49.442425 C 111.05809,48.287184 110.65014,47.417635 110.57115,46.52207 C 109.53502,44.691488 110.27162,46.792961 109.46623,45.780245 C 108.29346,42.842465 110.20645,45.034726 110.22647,43.666487 C 111.82794,45.684479 112.8936,48.902865 113.37155,50.233633 C 112.96276,48.601221 112.37842,47.030422 111.69345,45.518775 C 112.14939,45.675031 110.73836,42.16667 112.19149,44.459862 C 110.45534,39.488005 105.62199,35.041496 101.32914,33.086001 C 101.86415,33.517724 102.54699,34.057927 102.3246,34.166486 C 100.18086,33.070316 100.53654,32.950354 100.20358,32.450915 C 98.482392,31.873428 98.425034,32.618037 97.313313,32.634417 C 94.036766,31.154781 93.443327,31.372543 90.46267,30.503797 L 90.637634,31.115785 C 88.498289,30.550904 88.222767,31.532707 85.944537,31.413762 C 85.801289,31.317407 86.639496,30.977917 87.340157,30.830895 C 85.342078,31.226486 85.387204,30.554384 83.442977,31.149375 C 83.902804,30.777499 84.404893,30.516457 84.902325,30.19051 C 83.262687,30.394247 81.038763,31.402306 81.687526,30.571835 C 79.088648,31.94639 74.436635,33.94115 71.941794,36.635874 L 71.818834,36.077685 C 70.698789,37.632933 66.786916,40.835688 66.600737,42.775365 L 66.279688,42.870408 C 65.721579,43.995351 65.39697,45.254094 64.973972,46.402671 C 64.244379,47.884796 63.789343,47.029941 63.92539,47.246819 C 62.527656,50.69627 61.913153,53.56082 61.377928,55.912173 C 61.934592,56.631703 61.719747,60.451959 62.129603,63.471854 C 62.397256,78.496146 74.735523,92.316243 87.312455,94.887286 C 89.165386,95.422001 91.853017,95.227927 94.144229,95.145436 C 91.389952,94.542737 91.071311,94.931983 88.374392,94.17624 C 86.415712,93.400048 85.924704,92.401009 84.496778,91.316508 L 85.094928,92.225268 C 82.394289,91.458792 83.480636,91.163572 81.288804,90.618845 L 81.801385,89.840245 C 80.943452,89.828789 79.437961,88.539802 78.996388,87.799074 L 78.066804,87.894706 C 76.846363,86.576598 76.17568,85.612434 76.162003,84.832816 L 75.900051,85.389801 C 75.51787,84.824626 71.394953,80.436305 73.43706,81.387354 C 73.050115,81.077332 72.547277,80.89763 71.953731,79.971767 L 72.319398,79.487985 C 71.287464,78.326374 70.379935,76.811274 70.401508,76.286381 C 70.952497,76.937446 71.313667,77.043382 71.66745,77.138078 C 68.848883,71.342386 69.124324,76.973712 66.899678,71.357776 L 67.277737,71.30521 C 66.953074,70.879187 66.739595,70.409511 66.470229,69.952173 L 66.513937,68.278516 C 64.651103,66.394993 65.417205,59.822574 65.407944,56.247916 C 65.473278,54.791084 66.624986,53.170127 67.406611,50.689632 L 66.815367,50.626868 C 67.789461,48.597661 72.628001,42.353143 75.089707,42.499977 C 76.163207,40.935977 74.857117,42.50889 74.597815,42.15045 C 76.997506,39.289755 77.871231,40.029439 79.587097,39.431396 C 81.393001,38.186973 77.998259,39.972295 78.830577,39.050366 C 82.034269,38.005692 81.004852,36.999078 85.236168,36.304333 C 85.702392,36.531704 84.224629,36.766141 83.874513,37.122975 C 86.497694,35.612104 92.409466,35.545753 96.363575,37.073218 C 100.9529,38.875884 106.38855,44.71994 107.00889,50.50364 L 107.2338,50.549382 C 107.29102,52.859463 107.94401,55.494876 107.31974,57.994669 L 107.78246,56.8011"
       id="path6264"
       style="fill:#d62766;display:inline" />
    <path
       inkscape:export-ydpi="57.964222"
       inkscape:export-xdpi="57.964222"
       inkscape:export-filename="/home/dafeba/DCV/tallerD/bocetos/08-09-22-hastaahora.png"
       id="path5419"
       d="M 54.505177,25.951325 L 120.65413,22.160269 L 119.57725,23.418343 L 121.15595,24.302532 L 120.02731,24.893482 L 121.43921,25.790626 L 120.31057,26.381576 L 121.73542,27.445494 L 120.42705,27.882597 L 54.57284,31.147448 L 55.316164,29.915256 L 54.109855,29.505507 L 55.712959,28.542173 L 53.813644,27.850639 L 55.609404,27.207926 L 54.505177,25.951325 z"
       style="fill:url(#linearGradient5425);fill-rule:evenodd;stroke:none;stroke-width:1px;stroke-linecap:butt;stroke-linejoin:miter;stroke-opacity:1;display:inline" />
    <path
       inkscape:export-ydpi="57.964222"
       inkscape:export-xdpi="57.964222"
       inkscape:export-filename="/home/dafeba/DCV/tallerD/bocetos/08-09-22-hastaahora.png"
       style="fill:url(#linearGradient5428);fill-rule:evenodd;stroke:none;stroke-width:1px;stroke-linecap:butt;stroke-linejoin:miter;stroke-opacity:1;display:inline"
       d="M 57.215238,101.20747 L 122.60149,90.497893 L 121.66251,91.861984 L 123.32524,92.575706 L 122.26481,93.281799 L 123.76304,94.025846 L 122.7026,94.731913 L 124.23122,95.64054 L 122.97598,96.212459 L 57.8276,106.36778 L 58.437553,105.06442 L 57.194923,104.78352 L 58.688129,103.65732 L 56.726746,103.16882 L 58.445181,102.34127 L 57.215238,101.20747 z"
       id="path5421" />
    <path
       inkscape:export-ydpi="57.964222"
       inkscape:export-xdpi="57.964222"
       inkscape:export-filename="/home/dafeba/DCV/tallerD/bocetos/08-09-22-hastaahora.png"
       style="fill:none;fill-rule:evenodd;stroke:url(#linearGradient11145);stroke-width:2.67652369;stroke-linecap:butt;stroke-linejoin:miter;stroke-miterlimit:4;stroke-dasharray:none;stroke-opacity:1;display:inline"
       d="M 44.100913,1.8709332 L 6.6145618,6.6835373 C 2.8116228,7.2835604 1.6898115,12.011533 1.6612529,15.664346 C 1.6370304,45.766702 2.1032273,77.941544 1.5886121,108.0439 C 1.5619004,112.28402 2.95115,114.70871 6.2224243,115.51209 L 43.489488,125.44069 C 46.930427,126.37552 49.900994,126.46328 54.219967,125.68361 L 121.84283,112.74832 C 125.09713,112.24095 126.15939,109.72711 126.31725,105.45696 L 126.31725,13.090092 C 126.36642,9.2009954 125.00024,6.8090663 121.41105,6.3252311 L 54.451888,1.8300627 C 50.97883,1.6161817 47.498278,1.3275453 44.100913,1.8709332 z"
       id="path11143"
       sodipodi:nodetypes="ccccccccccccc" />
  </g>
</svg>
