<?xml version="1.0" encoding="UTF-8" standalone="no"?>
<!-- Created with Inkscape (http://www.inkscape.org/) -->
<svg
   xmlns:dc="http://purl.org/dc/elements/1.1/"
   xmlns:cc="http://creativecommons.org/ns#"
   xmlns:rdf="http://www.w3.org/1999/02/22-rdf-syntax-ns#"
   xmlns:svg="http://www.w3.org/2000/svg"
   xmlns="http://www.w3.org/2000/svg"
   xmlns:xlink="http://www.w3.org/1999/xlink"
   xmlns:sodipodi="http://sodipodi.sourceforge.net/DTD/sodipodi-0.dtd"
   xmlns:inkscape="http://www.inkscape.org/namespaces/inkscape"
   width="128"
   height="128"
   id="svg2"
   sodipodi:version="0.32"
   inkscape:version="0.46"
   version="1.0"
   sodipodi:docname="gnome-mime-x-directory-smb-share.svg"
   inkscape:output_extension="org.inkscape.output.svg.inkscape">
  <defs
     id="defs4">
    <linearGradient
       inkscape:collect="always"
       xlink:href="#linearGradient5316"
       id="linearGradient24955"
       gradientUnits="userSpaceOnUse"
       gradientTransform="matrix(2.6666667,0,0,2.6666667,-1293.8381,-1683.1224)"
       x1="506.875"
       y1="671.74292"
       x2="506.59363"
       y2="634.74292" />
    <linearGradient
       inkscape:collect="always"
       xlink:href="#linearGradient5316"
       id="linearGradient24957"
       gradientUnits="userSpaceOnUse"
       gradientTransform="matrix(2.6666667,0,0,2.6666667,-1293.8381,-1683.1224)"
       x1="505.92102"
       y1="635.54803"
       x2="508.99728"
       y2="673.02472" />
    <linearGradient
       inkscape:collect="always"
       xlink:href="#linearGradient5344"
       id="linearGradient24959"
       gradientUnits="userSpaceOnUse"
       gradientTransform="matrix(2.6666667,0,0,2.6666667,-1293.8381,-1683.1224)"
       x1="537.08398"
       y1="731.19934"
       x2="502.27975"
       y2="637.1001" />
    <linearGradient
       id="linearGradient25975"
       inkscape:collect="always">
      <stop
         id="stop25977"
         offset="0"
         style="stop-color:#f2f2f2;stop-opacity:1;" />
      <stop
         id="stop25979"
         offset="1"
         style="stop-color:#f2f2f2;stop-opacity:0;" />
    </linearGradient>
    <linearGradient
       inkscape:collect="always"
       xlink:href="#linearGradient25975"
       id="linearGradient24961"
       gradientUnits="userSpaceOnUse"
       x1="165.70816"
       y1="123.31397"
       x2="109.8125"
       y2="156.71875"
       gradientTransform="matrix(2.6666667,0,0,2.6666667,-333.89355,-296.47656)" />
    <linearGradient
       inkscape:collect="always"
       xlink:href="#linearGradient5316"
       id="linearGradient24963"
       gradientUnits="userSpaceOnUse"
       gradientTransform="matrix(2.6666667,0,0,2.6666667,-1293.8381,-1683.1224)"
       x1="516.58734"
       y1="643.28003"
       x2="518.94879"
       y2="670.57684" />
    <linearGradient
       inkscape:collect="always"
       xlink:href="#linearGradient9863"
       id="linearGradient24965"
       gradientUnits="userSpaceOnUse"
       gradientTransform="matrix(2.6666667,0,0,2.6666667,-173.89356,-296.47656)"
       x1="90.376579"
       y1="158.70711"
       x2="92.053268"
       y2="111.14841" />
    <linearGradient
       inkscape:collect="always"
       xlink:href="#linearGradient5362"
       id="linearGradient24969"
       gradientUnits="userSpaceOnUse"
       gradientTransform="matrix(2.6666667,0,0,2.6666667,-1987.2269,-829.80989)"
       x1="749.04877"
       y1="314.47687"
       x2="794.7475"
       y2="358.77771" />
    <linearGradient
       inkscape:collect="always"
       xlink:href="#linearGradient5439"
       id="linearGradient22723"
       gradientUnits="userSpaceOnUse"
       gradientTransform="matrix(2.6844245,0,0,2.6844245,-682.84559,-1424.5281)"
       x1="282.71295"
       y1="553.00134"
       x2="313.54166"
       y2="483.33371" />
    <linearGradient
       id="linearGradient4689">
      <stop
         id="stop4691"
         offset="0"
         style="stop-color:#5a9fd4;stop-opacity:1;" />
      <stop
         id="stop4693"
         offset="1"
         style="stop-color:#306998;stop-opacity:1;" />
    </linearGradient>
    <linearGradient
       id="linearGradient4671">
      <stop
         id="stop4673"
         offset="0"
         style="stop-color:#ffd43b;stop-opacity:1;" />
      <stop
         id="stop4675"
         offset="1"
         style="stop-color:#ffe873;stop-opacity:1" />
    </linearGradient>
    <linearGradient
       id="linearGradient5165-7-9-8-2">
      <stop
         offset="0"
         style="stop-color:#ffffff;stop-opacity:1"
         id="stop5167-4-8-6-9" />
      <stop
         offset="1"
         style="stop-color:#ffffff;stop-opacity:0"
         id="stop5169-5-5-2-9" />
    </linearGradient>
    <linearGradient
       id="linearGradient7210">
      <stop
         style="stop-color:#75aadb;stop-opacity:1"
         offset="0"
         id="stop7212" />
      <stop
         style="stop-color:#aac736;stop-opacity:1;"
         offset="0.5"
         id="stop8994" />
      <stop
         style="stop-color:#5d8b2c;stop-opacity:1;"
         offset="1"
         id="stop7214" />
    </linearGradient>
    <linearGradient
       y2="637.52454"
       x2="518.86896"
       y1="661.19366"
       x1="513.96362"
       gradientTransform="translate(-296.48677,-601.99164)"
       gradientUnits="userSpaceOnUse"
       id="linearGradient10430"
       xlink:href="#linearGradient5344"
       inkscape:collect="always" />
    <linearGradient
       y2="643.21948"
       x2="516.5"
       y1="647.79089"
       x1="519.95825"
       gradientTransform="translate(-296.48677,-601.99164)"
       gradientUnits="userSpaceOnUse"
       id="linearGradient10427"
       xlink:href="#linearGradient5316"
       inkscape:collect="always" />
    <linearGradient
       y2="650.17572"
       x2="519.57452"
       y1="632.9248"
       x1="512.30157"
       gradientTransform="translate(-296.48677,-601.99164)"
       gradientUnits="userSpaceOnUse"
       id="linearGradient10424"
       xlink:href="#linearGradient5344"
       inkscape:collect="always" />
    <linearGradient
       y2="643.65698"
       x2="524.125"
       y1="667.56323"
       x1="526.0625"
       gradientTransform="translate(-296.48677,-601.99164)"
       gradientUnits="userSpaceOnUse"
       id="linearGradient10419"
       xlink:href="#linearGradient5344"
       inkscape:collect="always" />
    <linearGradient
       inkscape:collect="always"
       xlink:href="#linearGradient5439"
       id="linearGradient15562"
       gradientUnits="userSpaceOnUse"
       gradientTransform="matrix(2.6666667,0,0,2.6666667,-1134.9597,-1416.4558)"
       x1="457.89578"
       y1="539.88666"
       x2="457.89578"
       y2="569.06531" />
    <linearGradient
       inkscape:collect="always"
       xlink:href="#linearGradient5439"
       id="linearGradient15559"
       gradientUnits="userSpaceOnUse"
       x1="459.76584"
       y1="546.18964"
       x2="459.76584"
       y2="583.90106"
       gradientTransform="matrix(2.6666667,0,0,2.6666667,-1134.3706,-1416.4558)" />
    <linearGradient
       id="linearGradient4508">
      <stop
         offset="0"
         style="stop-color:#75aadb;stop-opacity:1"
         id="stop4510" />
      <stop
         offset="1"
         style="stop-color:#5a83a9;stop-opacity:1"
         id="stop4512" />
    </linearGradient>
    <linearGradient
       inkscape:collect="always"
       xlink:href="#linearGradient4508"
       id="linearGradient15556"
       gradientUnits="userSpaceOnUse"
       gradientTransform="matrix(2.6666667,0,0,2.6666667,-1134.3706,-1414.3934)"
       x1="456.31311"
       y1="551.46545"
       x2="456.31311"
       y2="554.8988" />
    <linearGradient
       id="linearGradient12578">
      <stop
         id="stop12580"
         offset="0"
         style="stop-color:#e9b551;stop-opacity:1;" />
      <stop
         id="stop12582"
         offset="1"
         style="stop-color:#b48739;stop-opacity:1;" />
    </linearGradient>
    <linearGradient
       id="linearGradient5165-9">
      <stop
         offset="0"
         style="stop-color:#ffffff;stop-opacity:1"
         id="stop5167-6" />
      <stop
         offset="1"
         style="stop-color:#ffffff;stop-opacity:0"
         id="stop5169-7" />
    </linearGradient>
    <linearGradient
       id="linearGradient9121">
      <stop
         style="stop-color:#2f445a;stop-opacity:1"
         offset="0"
         id="stop9123" />
      <stop
         style="stop-color:#415f7c;stop-opacity:1"
         offset="1"
         id="stop9125" />
    </linearGradient>
    <linearGradient
       id="linearGradient12594">
      <stop
         id="stop12596"
         offset="0"
         style="stop-color:#e9b551;stop-opacity:1;" />
      <stop
         id="stop12598"
         offset="1"
         style="stop-color:#e9b551;stop-opacity:0;" />
    </linearGradient>
    <linearGradient
       id="linearGradient5316">
      <stop
         style="stop-color:#aac736;stop-opacity:1;"
         offset="0"
         id="stop5320" />
      <stop
         style="stop-color:#5d8b2c;stop-opacity:1;"
         offset="1"
         id="stop5322" />
    </linearGradient>
    <linearGradient
       id="linearGradient9863">
      <stop
         style="stop-color:#2f445a;stop-opacity:1;"
         offset="0"
         id="stop9865" />
      <stop
         style="stop-color:#415f7c;stop-opacity:1"
         offset="1"
         id="stop9867" />
    </linearGradient>
    <linearGradient
       id="linearGradient12336">
      <stop
         id="stop12338"
         offset="0"
         style="stop-color:#ff6e00;stop-opacity:1;" />
      <stop
         id="stop12340"
         offset="1"
         style="stop-color:#eb2600;stop-opacity:1;" />
    </linearGradient>
    <linearGradient
       id="linearGradient5362">
      <stop
         style="stop-color:#ffffff;stop-opacity:1;"
         offset="0"
         id="stop5364" />
      <stop
         style="stop-color:#ffffff;stop-opacity:0;"
         offset="1"
         id="stop5366" />
    </linearGradient>
    <linearGradient
       id="linearGradient5439">
      <stop
         style="stop-color:#ffffff;stop-opacity:1;"
         offset="0"
         id="stop5441" />
      <stop
         style="stop-color:#000000;stop-opacity:1;"
         offset="1"
         id="stop5443" />
    </linearGradient>
    <linearGradient
       inkscape:collect="always"
       xlink:href="#linearGradient5439"
       id="linearGradient13309"
       gradientUnits="userSpaceOnUse"
       x1="499.90704"
       y1="953.39532"
       x2="652.75177"
       y2="1116.9413"
       gradientTransform="matrix(2.6765239,0,0,2.6765239,-1298.6765,-2514.903)" />
    <linearGradient
       inkscape:collect="always"
       id="linearGradient5398">
      <stop
         style="stop-color:#87c6ff;stop-opacity:1;"
         offset="0"
         id="stop5400" />
      <stop
         style="stop-color:#87c6ff;stop-opacity:0"
         offset="1"
         id="stop5402" />
    </linearGradient>
    <linearGradient
       inkscape:collect="always"
       xlink:href="#linearGradient5398"
       id="linearGradient13322"
       gradientUnits="userSpaceOnUse"
       x1="500.87799"
       y1="948.11993"
       x2="500.87799"
       y2="953.17468"
       gradientTransform="matrix(2.6765239,0,0,2.6765239,-1298.6765,-2514.903)" />
    <linearGradient
       id="linearGradient5344">
      <stop
         style="stop-color:#000000;stop-opacity:1;"
         offset="0"
         id="stop5346" />
      <stop
         style="stop-color:#000000;stop-opacity:0;"
         offset="1"
         id="stop5348" />
    </linearGradient>
    <linearGradient
       inkscape:collect="always"
       xlink:href="#linearGradient5344"
       id="linearGradient13314"
       gradientUnits="userSpaceOnUse"
       x1="544.89001"
       y1="919.05762"
       x2="506.01498"
       y2="969.80762"
       gradientTransform="translate(-485.21014,-859.4386)" />
    <linearGradient
       id="linearGradient8702">
      <stop
         id="stop8704"
         offset="0"
         style="stop-color:#aac736;stop-opacity:1;" />
      <stop
         id="stop8706"
         offset="1"
         style="stop-color:#5d8b2c;stop-opacity:1;" />
    </linearGradient>
    <linearGradient
       inkscape:collect="always"
       xlink:href="#linearGradient8702"
       id="linearGradient13316"
       gradientUnits="userSpaceOnUse"
       gradientTransform="matrix(2.6765239,0,0,2.6765239,-1779.5422,-994.63744)"
       x1="700.13062"
       y1="378.86951"
       x2="707.80457"
       y2="395.74899" />
    <inkscape:perspective
       sodipodi:type="inkscape:persp3d"
       inkscape:vp_x="0 : 526.18109 : 1"
       inkscape:vp_y="0 : 1000 : 0"
       inkscape:vp_z="744.09448 : 526.18109 : 1"
       inkscape:persp3d-origin="372.04724 : 350.78739 : 1"
       id="perspective10" />
    <inkscape:perspective
       id="perspective22402"
       inkscape:persp3d-origin="133.5 : 106 : 1"
       inkscape:vp_z="267 : 159 : 1"
       inkscape:vp_y="0 : 1000 : 0"
       inkscape:vp_x="0 : 159 : 1"
       sodipodi:type="inkscape:persp3d" />
    <linearGradient
       inkscape:collect="always"
       xlink:href="#linearGradient4689"
       id="linearGradient22409"
       x1="20.863827"
       y1="18.166332"
       x2="247.12524"
       y2="318.047"
       gradientUnits="userSpaceOnUse" />
  </defs>
  <sodipodi:namedview
     id="base"
     pagecolor="#ffffff"
     bordercolor="#666666"
     borderopacity="1.0"
     inkscape:pageopacity="0.0"
     inkscape:pageshadow="2"
     inkscape:zoom="2"
     inkscape:cx="123.94273"
     inkscape:cy="79.960151"
     inkscape:document-units="px"
     inkscape:current-layer="layer1"
     showgrid="false"
     inkscape:showpageshadow="false"
     inkscape:window-width="1014"
     inkscape:window-height="715"
     inkscape:window-x="0"
     inkscape:window-y="6"
     showguides="true"
     inkscape:guide-bbox="true" />
  <metadata
     id="metadata7">
    <rdf:RDF>
      <cc:Work
         rdf:about="">
        <dc:format>image/svg+xml</dc:format>
        <dc:type
           rdf:resource="http://purl.org/dc/dcmitype/StillImage" />
      </cc:Work>
    </rdf:RDF>
  </metadata>
  <g
     inkscape:label="Capa 1"
     inkscape:groupmode="layer"
     id="layer1">
    <path
       inkscape:export-ydpi="57.964222"
       inkscape:export-xdpi="57.964222"
       inkscape:export-filename="/home/dafeba/DCV/tallerD/bocetos/08-09-22-hastaahora.png"
       sodipodi:nodetypes="ccccccc"
       id="path24943"
       d="M 0.91204416,118.75464 L 100.49525,104.46291 L 100.49525,14.973037 C 100.38991,13.230904 102.38591,11.966637 104.41151,12.031704 L 4.3285776,4.962904 C 1.6373775,5.7151707 1.1128442,7.944504 0.82857749,10.337837 L 0.91204416,118.75464 z"
       style="fill:url(#linearGradient24955);fill-rule:evenodd;stroke:none;stroke-width:1px;stroke-linecap:butt;stroke-linejoin:miter;stroke-opacity:1;display:inline" />
    <path
       inkscape:export-ydpi="57.964222"
       inkscape:export-xdpi="57.964222"
       inkscape:export-filename="/home/dafeba/DCV/tallerD/bocetos/08-09-22-hastaahora.png"
       sodipodi:nodetypes="ccccccccccc"
       id="path24945"
       d="M 3.8021776,4.802904 C 6.7656443,4.9015707 7.1741776,8.3511707 7.3488443,10.773837 L 12.257911,116.40184 C 12.417644,119.86664 14.911244,123.01571 17.190444,123.76157 C 17.914178,123.98824 19.181911,124.31917 19.785644,124.36504 L 114.20111,109.42611 L 113.19151,109.31357 C 111.35871,108.92531 110.14165,107.58611 110.03685,105.75464 L 108.20351,15.462904 C 108.14165,13.614371 107.04698,12.263704 104.74538,12.004504 L 3.8021776,4.802904 z"
       style="fill:url(#linearGradient24957);fill-rule:evenodd;stroke:none;stroke-width:1px;stroke-linecap:butt;stroke-linejoin:miter;stroke-opacity:1;display:inline" />
    <path
       style="fill:url(#linearGradient24959);fill-rule:evenodd;stroke:none;stroke-width:1px;stroke-linecap:butt;stroke-linejoin:miter;stroke-opacity:1;display:inline"
       d="M 7.8733776,25.791171 L 12.298444,116.40184 C 12.458178,119.86664 14.911244,123.01571 17.190444,123.76157 C 17.914178,123.98824 19.181911,124.31917 19.785644,124.36504 L 114.20111,109.42611 L 113.19151,109.31357 C 111.35871,108.92531 110.14165,107.58611 110.03685,105.75464 L 108.48751,29.447704 L 7.8733776,25.791171 z"
       id="path24947"
       sodipodi:nodetypes="ccccccccc"
       inkscape:export-filename="/home/dafeba/DCV/tallerD/bocetos/08-09-22-hastaahora.png"
       inkscape:export-xdpi="57.964222"
       inkscape:export-ydpi="57.964222" />
    <path
       style="fill:url(#linearGradient24961);fill-opacity:1;fill-rule:evenodd;stroke:none;stroke-width:1px;stroke-linecap:butt;stroke-linejoin:miter;stroke-opacity:1;display:inline"
       d="M 56.439512,16.443437 L 56.189645,21.106904 L 56.023245,21.106904 L 52.698179,16.118904 L 40.197645,15.285571 L 39.782179,20.937837 L 9.8563109,19.356771 L 14.356578,119.02344 L 16.023244,118.77357 L 16.023244,119.60664 L 17.939778,119.35677 L 17.939778,120.10691 L 19.856311,119.85677 L 19.856311,120.69011 L 21.689911,120.44024 L 21.606444,121.44024 L 115.68991,107.19011 L 124.02325,27.440237 L 119.85631,27.273304 L 120.02325,25.273304 L 115.43978,25.023437 L 115.43978,24.023437 L 111.77311,23.856771 L 111.77311,23.440237 L 107.02325,23.273304 L 104.60645,20.023437 L 97.023245,19.606637 L 96.856312,22.856771 L 96.773112,22.856771 L 96.689912,22.773571 L 93.773112,19.023437 L 85.273112,18.440237 L 85.356579,22.356771 L 84.606445,22.356771 L 81.189645,18.355171 L 71.440045,17.605304 L 71.356579,21.773571 L 70.356579,21.773571 L 67.523512,17.359704 L 56.439512,16.443437 z"
       id="path24949"
       sodipodi:nodetypes="cccccccccccccccccccccccccccccccccccccccc" />
    <path
       inkscape:export-ydpi="57.964222"
       inkscape:export-xdpi="57.964222"
       inkscape:export-filename="/home/dafeba/DCV/tallerD/bocetos/08-09-22-hastaahora.png"
       style="fill:url(#linearGradient24963);fill-rule:evenodd;stroke:none;stroke-width:0.5;stroke-linecap:round;stroke-linejoin:round;stroke-miterlimit:4;stroke-dasharray:none;stroke-opacity:1;display:inline"
       d="M 17.452844,123.80237 C 19.869911,124.60824 21.471244,124.18797 24.006978,123.70824 L 113.64138,109.55757 C 115.08165,109.38797 116.91098,108.09331 117.13551,105.83277 L 126.84938,28.004504 L 123.08485,27.878371 L 120.05071,31.083704 L 40.764579,28.738371 L 38.823245,24.534904 L 31.902979,24.262104 L 23.165111,119.25864 C 22.969111,122.79704 19.479511,124.40264 17.452844,123.80237 z"
       id="path24951"
       sodipodi:nodetypes="cccccccccccc" />
    <path
       inkscape:export-ydpi="57.964222"
       inkscape:export-xdpi="57.964222"
       inkscape:export-filename="/home/dafeba/DCV/tallerD/bocetos/08-09-22-hastaahora.png"
       sodipodi:nodetypes="ccccccccccccccccccccc"
       id="path24953"
       d="M 1.6128442,119.56051 L 12.333378,117.91757 C 12.700844,123.25171 16.012044,125.82771 21.293911,125.35357 L 114.52245,110.43811 C 116.43098,110.16717 117.85098,108.50237 118.04591,106.59544 L 125.87418,27.452237 C 125.81258,27.118637 125.66325,26.915971 125.44458,26.817571 L 122.99151,26.595971 L 122.46005,27.056237 L 120.45418,26.798104 L 120.62911,24.741037 L 115.65525,24.490371 L 115.38351,23.486371 L 112.13471,23.341304 L 111.84485,22.925037 L 108.37951,22.766637 L 108.15045,15.581037 C 108.14431,13.661304 106.71845,12.175171 104.48431,12.094637 L 4.7128443,4.5391707 C 2.1099108,4.4695707 1.5579108,5.9903707 1.5045775,8.1226373 L 1.6128442,119.56051 z"
       style="fill:none;fill-rule:evenodd;stroke:url(#linearGradient24965);stroke-width:2.66666675;stroke-linecap:round;stroke-linejoin:round;stroke-miterlimit:4;stroke-dasharray:none;stroke-opacity:1;display:inline" />
    <path
       style="fill:url(#linearGradient24969);fill-opacity:1;fill-rule:evenodd;stroke:none;stroke-width:0.5;stroke-linecap:round;stroke-linejoin:miter;stroke-miterlimit:4;stroke-dasharray:none;stroke-opacity:1;display:inline"
       d="M 83.689912,41.023437 C 83.542979,41.033304 83.482979,41.082904 83.273112,41.106904 C 82.017379,41.248237 79.790445,41.525837 78.606445,41.773571 C 77.437912,42.003437 76.258445,42.722371 76.023245,44.523437 L 74.356579,58.856773 L 65.273112,58.856773 C 62.632045,58.775973 59.543512,61.27144 59.356579,64.190107 L 57.939779,75.773573 L 54.689912,75.939973 C 52.376045,76.135973 50.413912,78.01064 50.189645,80.02344 L 47.439779,102.10691 C 47.246179,104.02397 47.766979,105.91011 49.273112,106.35677 L 54.023245,107.69011 L 54.106445,107.69011 C 54.438712,107.76451 54.861379,107.75277 55.273112,107.69011 L 83.522979,102.85677 C 85.704845,102.54931 87.133112,100.47197 87.356579,98.44024 L 89.773112,77.939973 C 89.993379,76.093307 89.175779,74.99864 87.522979,74.856773 L 83.856312,74.52344 C 83.481912,74.47544 83.135245,74.50664 82.773112,74.52344 L 63.273112,75.52344 L 64.689912,64.190107 L 73.773112,64.190107 L 73.356579,67.190107 C 73.169645,69.03784 73.270445,69.611173 74.689912,70.273307 C 75.829645,70.754373 78.629645,70.92424 80.439779,70.939973 C 80.496312,70.940773 80.635245,70.939973 80.689912,70.939973 C 80.827245,70.95944 80.957912,71.106907 81.106445,71.106907 L 107.10645,70.273307 C 109.20325,69.97224 110.89151,68.22824 111.10645,66.273307 L 113.43978,47.190104 C 113.63018,45.593837 112.94591,44.520504 111.68991,44.023437 C 111.68751,43.994637 111.70058,43.878371 111.68991,43.856771 L 111.10645,43.856771 L 111.02325,43.856771 C 110.91525,43.836504 110.80431,43.786371 110.68991,43.773571 L 84.439779,41.023437 C 84.313912,41.010104 84.229379,41.021304 84.106445,41.023437 C 83.968579,41.026104 83.822979,41.002371 83.689912,41.023437 z M 86.439779,43.356771 L 97.439779,44.606637 L 96.273112,55.356773 L 85.439779,54.356773 L 86.439779,43.356771 z M 99.522979,45.023437 L 110.18965,46.190104 L 109.02325,56.52344 L 98.689912,55.44024 L 99.522979,45.023437 z M 85.189645,56.02344 L 95.939779,56.939973 L 95.106445,67.44024 L 83.856312,67.60664 L 85.189645,56.02344 z M 98.606445,57.273307 L 108.93978,58.190107 L 108.02325,67.52344 L 97.773112,67.44024 L 98.606445,57.273307 z"
       id="path24967" />
  </g>
</svg>
