<?xml version="1.0" encoding="UTF-8" standalone="no"?>
<!-- Created with Inkscape (http://www.inkscape.org/) -->

<svg
   xmlns:dc="http://purl.org/dc/elements/1.1/"
   xmlns:cc="http://creativecommons.org/ns#"
   xmlns:rdf="http://www.w3.org/1999/02/22-rdf-syntax-ns#"
   xmlns:svg="http://www.w3.org/2000/svg"
   xmlns="http://www.w3.org/2000/svg"
   xmlns:xlink="http://www.w3.org/1999/xlink"
   xmlns:sodipodi="http://sodipodi.sourceforge.net/DTD/sodipodi-0.dtd"
   xmlns:inkscape="http://www.inkscape.org/namespaces/inkscape"
   width="128"
   height="128"
   id="svg2"
   sodipodi:version="0.32"
   inkscape:version="0.48.3.1 r9886"
   version="1.0"
   sodipodi:docname="gnome-mime-application-x-sharedlib.svg"
   inkscape:output_extension="org.inkscape.output.svg.inkscape">
  <defs
     id="defs4">
    <linearGradient
       inkscape:collect="always"
       xlink:href="#linearGradient5362"
       id="linearGradient28638"
       gradientUnits="userSpaceOnUse"
       gradientTransform="matrix(2.6666667,0,0,2.6666667,-1293.8382,-1683.1224)"
       x1="504.91962"
       y1="635.44617"
       x2="504.48212"
       y2="641.10242" />
    <linearGradient
       inkscape:collect="always"
       xlink:href="#linearGradient5344"
       id="linearGradient28640"
       gradientUnits="userSpaceOnUse"
       gradientTransform="matrix(2.6666667,0,0,2.6666667,-1293.8382,-1683.1224)"
       x1="519.31262"
       y1="723.67017"
       x2="511.42725"
       y2="667.20789" />
    <linearGradient
       inkscape:collect="always"
       xlink:href="#linearGradient9863"
       id="linearGradient28642"
       gradientUnits="userSpaceOnUse"
       gradientTransform="matrix(2.6666667,0,0,2.6666667,-2413.8382,-1096.6224)"
       x1="927.93488"
       y1="459.10907"
       x2="927.93488"
       y2="410.98141" />
    <linearGradient
       inkscape:collect="always"
       xlink:href="#linearGradient5344"
       id="linearGradient28648"
       gradientUnits="userSpaceOnUse"
       gradientTransform="matrix(2.6666667,0,0,2.6666667,-1133.7756,-1417.9965)"
       x1="495.94766"
       y1="486.7771"
       x2="434.51016"
       y2="572.7771" />
    <linearGradient
       id="linearGradient2481">
      <stop
         style="stop-color:#aac736;stop-opacity:1;"
         offset="0"
         id="stop2483" />
      <stop
         id="stop3944"
         offset="0.5"
         style="stop-color:#5d8b2c;stop-opacity:1;" />
      <stop
         style="stop-color:#5d8b2c;stop-opacity:1;"
         offset="1"
         id="stop2485" />
    </linearGradient>
    <linearGradient
       inkscape:collect="always"
       xlink:href="#linearGradient2481"
       id="linearGradient28650"
       gradientUnits="userSpaceOnUse"
       gradientTransform="matrix(1.5555558,0,0,1.5555558,49.724041,3.7918034)"
       x1="22.5"
       y1="-0.00033215381"
       x2="22.5"
       y2="48.001324" />
    <linearGradient
       inkscape:collect="always"
       xlink:href="#linearGradient5439"
       id="linearGradient28654"
       x1="776.67072"
       y1="827.14032"
       x2="830.74133"
       y2="751.19189"
       gradientUnits="userSpaceOnUse"
       gradientTransform="matrix(2.6666667,0,0,2.6666667,-1987.3483,-2131.8443)" />
    <linearGradient
       id="linearGradient9863">
      <stop
         style="stop-color:#2f445a;stop-opacity:1;"
         offset="0"
         id="stop9865" />
      <stop
         style="stop-color:#415f7c;stop-opacity:1"
         offset="1"
         id="stop9867" />
    </linearGradient>
    <linearGradient
       id="linearGradient5362">
      <stop
         style="stop-color:#ffffff;stop-opacity:1;"
         offset="0"
         id="stop5364" />
      <stop
         style="stop-color:#ffffff;stop-opacity:0;"
         offset="1"
         id="stop5366" />
    </linearGradient>
    <linearGradient
       id="linearGradient5439">
      <stop
         style="stop-color:#ffffff;stop-opacity:1;"
         offset="0"
         id="stop5441" />
      <stop
         style="stop-color:#000000;stop-opacity:1;"
         offset="1"
         id="stop5443" />
    </linearGradient>
    <linearGradient
       id="linearGradient5344">
      <stop
         style="stop-color:#000000;stop-opacity:1;"
         offset="0"
         id="stop5346" />
      <stop
         style="stop-color:#000000;stop-opacity:0;"
         offset="1"
         id="stop5348" />
    </linearGradient>
  </defs>
  <sodipodi:namedview
     id="base"
     pagecolor="#ffffff"
     bordercolor="#666666"
     borderopacity="1.0"
     inkscape:pageopacity="0.0"
     inkscape:pageshadow="2"
     inkscape:zoom="1.4142136"
     inkscape:cx="131.17472"
     inkscape:cy="75.191999"
     inkscape:document-units="px"
     inkscape:current-layer="layer1"
     showgrid="false"
     inkscape:showpageshadow="false"
     inkscape:window-width="1366"
     inkscape:window-height="717"
     inkscape:window-x="0"
     inkscape:window-y="0"
     showguides="true"
     inkscape:guide-bbox="true"
     inkscape:window-maximized="1" />
  <metadata
     id="metadata7">
    <rdf:RDF>
      <cc:Work
         rdf:about="">
        <dc:format>image/svg+xml</dc:format>
        <dc:type
           rdf:resource="http://purl.org/dc/dcmitype/StillImage" />
      </cc:Work>
    </rdf:RDF>
  </metadata>
  <g
     inkscape:label="Capa 1"
     inkscape:groupmode="layer"
     id="layer1">
    <path
       inkscape:export-ydpi="57.964222"
       inkscape:export-xdpi="57.964222"
       inkscape:export-filename="/home/dafeba/DCV/tallerD/bocetos/08-09-22-hastaahora.png"
       style="fill:#f2f2f2;fill-rule:evenodd;stroke:none;stroke-width:0.5;stroke-linecap:round;stroke-linejoin:round;stroke-miterlimit:4;stroke-dasharray:none;stroke-opacity:1;display:inline"
       d="M 0.79115998,5.4829034 C 10.397293,6.4058834 14.4642,17.544154 14.457027,25.848927 L 14.332813,101.85053 C 14.415293,111.17757 19.28212,120.45039 31.877747,127.21365 L 119.63449,112.23743 C 109.24049,110.32079 101.80921,100.02237 101.89337,91.650233 L 102.1026,28.818554 C 102.19374,20.720794 96.880653,12.573167 87.015263,11.698523 L 0.79115998,5.4829034 z"
       id="path28628"
       sodipodi:nodetypes="ccccccccc" />
    <path
       inkscape:export-ydpi="57.964222"
       inkscape:export-xdpi="57.964222"
       inkscape:export-filename="/home/dafeba/DCV/tallerD/bocetos/08-09-22-hastaahora.png"
       sodipodi:nodetypes="ccccc"
       id="path28630"
       d="M 0.79115998,5.4829034 C 10.397293,6.4058834 14.4642,17.544154 14.457027,25.848927 L 102.1026,28.818554 C 102.19374,20.720794 96.880653,12.573167 87.015263,11.698523 L 0.79115998,5.4829034 z"
       style="fill:url(#linearGradient28638);fill-rule:evenodd;stroke:none;stroke-width:0.5;stroke-linecap:round;stroke-linejoin:round;stroke-miterlimit:4;stroke-dasharray:none;stroke-opacity:1;display:inline" />
    <path
       inkscape:export-ydpi="57.964222"
       inkscape:export-xdpi="57.964222"
       inkscape:export-filename="/home/dafeba/DCV/tallerD/bocetos/08-09-22-hastaahora.png"
       sodipodi:nodetypes="ccccc"
       id="path28632"
       d="M 14.332813,101.85053 C 14.415293,111.17757 19.28212,120.45039 31.877747,127.21365 L 119.63449,112.23743 C 109.24049,110.32079 101.80921,100.02237 101.89337,91.650233 L 14.332813,101.85053 z"
       style="fill:url(#linearGradient28640);fill-rule:evenodd;stroke:none;stroke-width:0.5;stroke-linecap:round;stroke-linejoin:round;stroke-miterlimit:4;stroke-dasharray:none;stroke-opacity:1;display:inline" />
    <path
       sodipodi:nodetypes="cscccccccccc"
       id="path28634"
       d="M 1.675053,5.4046334 C 4.90036,5.7145234 6.617347,7.0876234 8.649213,9.2067934 C 12.669,13.399274 14.4618,20.16586 14.457027,25.68226 L 14.332813,101.68386 C 14.406307,109.99335 18.27716,118.25983 28.02748,124.74703 C 30.467907,126.35698 33.713293,126.35698 37.144387,125.98551 L 119.63449,112.07077 C 109.24049,110.15413 101.80921,99.8557 101.89337,91.483566 L 102.1026,28.651887 C 102.19374,20.554127 96.880653,12.406503 87.015263,11.531863 L 9.830893,5.9678834 L 1.675053,5.4046334 z"
       style="fill:none;fill-rule:evenodd;stroke:url(#linearGradient28642);stroke-width:2.66666675;stroke-linecap:round;stroke-linejoin:round;stroke-miterlimit:4;stroke-dasharray:none;stroke-opacity:1;display:inline"
       inkscape:export-filename="/home/dafeba/DCV/tallerD/bocetos/08-09-22-hastaahora.png"
       inkscape:export-xdpi="57.964222"
       inkscape:export-ydpi="57.964222" />
    <rect
       style="fill:url(#linearGradient28648);fill-opacity:1;stroke:none;display:inline"
       id="rect28644"
       width="78.166664"
       height="78.166664"
       x="41.418297"
       y="7.6591721"
       rx="4.7293906"
       ry="4.7293906"
       inkscape:export-filename="/home/dafeba/DCV/tallerD/bocetos/08-09-22-hastaahora.png"
       inkscape:export-xdpi="57.964222"
       inkscape:export-ydpi="57.964222" />
    <rect
       style="fill:url(#linearGradient28650);fill-opacity:1;stroke:#000000;stroke-width:1.60000002;stroke-miterlimit:4;stroke-dasharray:none;display:inline"
       id="rect28646"
       width="74.666664"
       height="74.666664"
       x="49.724121"
       y="3.7918243"
       rx="4.5176268"
       ry="4.5176268"
       inkscape:export-filename="/home/dafeba/DCV/tallerD/bocetos/08-09-22-hastaahora.png"
       inkscape:export-xdpi="57.964222"
       inkscape:export-ydpi="57.964222" />
    <path
       id="path28622"
       d="M 106.69097,7.5634034 C 104.16329,7.9113034 101.77236,9.0861034 100.01185,10.942043 C 98.066843,12.705594 97.147263,15.29498 96.577853,17.791487 C 96.173403,20.144927 95.921503,22.63146 96.583213,24.959754 C 97.750013,27.405087 100.85457,26.844234 102.93292,26.17162 C 105.10932,25.164474 106.80244,23.39522 108.5475,21.796767 C 110.20681,19.965087 111.75521,17.98258 112.90033,15.788714 C 113.90145,13.805407 114.47558,11.318603 113.29196,9.2823934 C 112.20849,7.2793034 109.6087,7.4629034 107.65361,7.4258834 C 107.33273,7.4717234 107.01185,7.5175634 106.69097,7.5634034 z M 86.269163,10.245063 C 84.327823,10.529753 82.822603,12.155803 82.117723,13.913114 C 81.196123,15.95858 81.884543,18.186767 82.487373,20.2153 C 83.099583,21.96826 84.032703,24.538954 86.337933,24.27218 C 88.256603,23.76562 88.951083,21.64498 89.638413,20.009007 C 90.463823,17.564554 91.132763,14.77986 90.050973,12.307863 C 89.425183,10.879513 87.821403,9.9354634 86.269163,10.245063 z M 72.654623,15.608367 C 70.729667,15.684287 69.40716,17.514127 69.23548,19.307994 C 68.949453,21.330154 69.859853,23.20786 70.83284,24.91322 C 71.618283,26.654287 73.492543,28.98338 75.611323,27.847674 C 77.292813,26.393674 77.470093,24.015514 77.626523,21.945194 C 77.855613,19.716394 76.968703,17.256767 74.960703,16.09786 C 74.284043,15.709407 73.441103,15.429887 72.654623,15.608367 z M 62.959427,23.79082 C 61.230707,24.117567 60.210813,26.020127 60.541373,27.68746 C 60.888467,30.103194 62.783667,31.836127 64.540893,33.348527 C 65.950653,34.604794 68.2278,33.74042 68.182573,31.782847 C 68.392947,29.80082 68.094973,27.697114 67.1538,25.92242 C 66.345,24.47698 64.62884,23.47322 62.959427,23.79082 z M 91.082383,29.566714 C 86.597583,29.902207 82.025423,30.275967 77.813133,31.976367 C 73.437613,33.479354 69.32716,36.301087 67.090013,40.438314 C 65.82068,42.48514 65.20692,44.866767 64.84468,47.22578 C 64.513907,49.556447 64.567213,51.9337 65.339747,54.178154 C 66.4318,57.602847 68.245987,60.751753 70.363213,63.640926 C 73.629773,67.86778 77.929403,71.508926 83.106203,73.091966 C 86.295613,73.905326 89.675133,74.178153 92.900383,73.40474 C 96.502143,72.541193 99.752923,70.448286 102.15057,67.63938 C 103.54678,66.0729 104.63292,64.222926 105.59081,62.36538 C 106.23996,60.758286 106.69252,58.591487 105.40828,57.169274 C 103.72252,55.971034 101.48892,56.43722 99.553103,56.499914 C 97.596573,56.839087 95.276303,56.914154 93.764043,58.308527 C 92.459103,60.18042 93.553453,62.94002 91.838763,64.5657 C 90.211903,65.873353 87.714523,65.668633 86.081373,64.466633 C 84.214123,63.053833 83.054093,60.60602 83.431103,58.253167 C 83.864543,56.184447 85.916173,55.05578 87.496443,53.889087 C 92.485423,50.437114 97.836143,47.53866 102.77164,44.006367 C 104.93596,42.440047 105.36516,39.484767 104.85262,37.022367 C 104.41238,35.1409 104.14774,32.883727 102.42782,31.69826 C 100.3186,30.270474 97.725773,29.815194 95.231963,29.631407 C 93.852223,29.49178 92.465743,29.477114 91.082383,29.566714 z"
       style="fill:url(#linearGradient28654);display:inline;overflow:visible" />
  </g>
</svg>
