<?xml version="1.0" encoding="UTF-8" standalone="no"?>
<!-- Created with Inkscape (http://www.inkscape.org/) -->
<svg
   xmlns:dc="http://purl.org/dc/elements/1.1/"
   xmlns:cc="http://creativecommons.org/ns#"
   xmlns:rdf="http://www.w3.org/1999/02/22-rdf-syntax-ns#"
   xmlns:svg="http://www.w3.org/2000/svg"
   xmlns="http://www.w3.org/2000/svg"
   xmlns:xlink="http://www.w3.org/1999/xlink"
   xmlns:sodipodi="http://sodipodi.sourceforge.net/DTD/sodipodi-0.dtd"
   xmlns:inkscape="http://www.inkscape.org/namespaces/inkscape"
   width="48px"
   height="48px"
   id="svg17121"
   sodipodi:version="0.32"
   inkscape:version="0.46"
   sodipodi:docname="emblem-art.svg"
   inkscape:output_extension="org.inkscape.output.svg.inkscape">
  <defs
     id="defs17123">
    <linearGradient
       id="linearGradient2818">
      <stop
         style="stop-color:#c0bfbb;stop-opacity:1;"
         offset="0"
         id="stop2820" />
      <stop
         style="stop-color:#798088;stop-opacity:1;"
         offset="1"
         id="stop2822" />
    </linearGradient>
    <linearGradient
       inkscape:collect="always"
       xlink:href="#linearGradient2818"
       id="linearGradient16195"
       gradientUnits="userSpaceOnUse"
       gradientTransform="matrix(0.9803922,0,0,0.9803922,0.4706043,0.470525)"
       x1="22.5"
       y1="-0.00033215381"
       x2="22.5"
       y2="48.001324" />
    <inkscape:perspective
       sodipodi:type="inkscape:persp3d"
       inkscape:vp_x="0 : 24 : 1"
       inkscape:vp_y="0 : 1000 : 0"
       inkscape:vp_z="48 : 24 : 1"
       inkscape:persp3d-origin="24 : 16 : 1"
       id="perspective17129" />
  </defs>
  <sodipodi:namedview
     id="base"
     pagecolor="#ffffff"
     bordercolor="#666666"
     borderopacity="1.0"
     inkscape:pageopacity="0.0"
     inkscape:pageshadow="2"
     inkscape:zoom="4"
     inkscape:cx="38.794462"
     inkscape:cy="21.451686"
     inkscape:current-layer="layer1"
     showgrid="true"
     inkscape:grid-bbox="true"
     inkscape:document-units="px"
     inkscape:window-width="1024"
     inkscape:window-height="731"
     inkscape:window-x="0"
     inkscape:window-y="6" />
  <metadata
     id="metadata17126">
    <rdf:RDF>
      <cc:Work
         rdf:about="">
        <dc:format>image/svg+xml</dc:format>
        <dc:type
           rdf:resource="http://purl.org/dc/dcmitype/StillImage" />
      </cc:Work>
    </rdf:RDF>
  </metadata>
  <g
     id="layer1"
     inkscape:label="Layer 1"
     inkscape:groupmode="layer">
    <rect
       style="fill:url(#linearGradient16195);fill-opacity:1;stroke:none"
       id="rect6694-9-5"
       width="47.058823"
       height="47.058823"
       x="0.47058824"
       y="0.47058913"
       rx="2.8472438"
       ry="2.8472438" />
    <path
       style="fill:#ffffff;stroke:none"
       d="M 5.8135693,6.4789956 C 5.7113573,6.4902898 5.6325813,6.5194662 5.5488163,6.5674662 C 4.2096163,7.3392314 5.8453813,12.657254 9.1958753,18.449818 C 10.984769,21.54243 12.886322,24.136689 14.489992,25.773395 C 14.320581,25.59636 14.167169,25.40963 13.990039,25.214618 C 14.034463,25.106007 14.061192,25.001913 14.107687,24.891042 C 15.062228,23.942807 16.169428,23.701583 17.901757,24.567465 C 17.381569,22.313536 16.026839,19.075324 14.048863,15.655748 C 10.907781,10.225254 7.3474983,6.3122192 5.8135693,6.479278 L 5.8135693,6.4789956 z"
       id="path5136-9" />
    <path
       style="fill:#ffffff;stroke:none"
       d="M 18.406604,26.390901 C 16.836063,25.485771 15.906651,25.662713 15.097239,26.470901 C 11.446981,35.296124 15.824957,34.873348 22.613004,40.90676 C 15.917098,32.937442 29.847075,33.177065 18.406604,26.391089 L 18.406604,26.390901 z"
       id="path5142-9"
       sodipodi:nodetypes="cccc" />
    <path
       sodipodi:type="arc"
       style="fill:#ffffff;stroke:none"
       id="path5179-6"
       sodipodi:cx="241.49998"
       sodipodi:cy="550.25"
       sodipodi:rx="10.749999"
       sodipodi:ry="3.7499998"
       d="M 252.24998,550.25 A 10.749999,3.7499998 0 1 1 230.74999,550.25 A 10.749999,3.7499998 0 1 1 252.24998,550.25 z"
       transform="matrix(0.5336072,0,0,0.5326278,-95.605951,-253.46994)" />
    <path
       sodipodi:type="arc"
       style="fill:#ffffff;stroke:none"
       id="path5181-0"
       sodipodi:cx="251.24998"
       sodipodi:cy="529.625"
       sodipodi:rx="7.2499995"
       sodipodi:ry="1.6249999"
       d="M 258.49998,529.625 A 7.2499995,1.6249999 0 1 1 243.99999,529.625 A 7.2499995,1.6249999 0 1 1 258.49998,529.625 z"
       transform="matrix(0.5336072,0,0,0.778456,-94.538751,-382.33512)" />
    <path
       sodipodi:type="arc"
       style="fill:#ffffff;stroke:none"
       id="path5183-5"
       sodipodi:cx="230.12498"
       sodipodi:cy="523.375"
       sodipodi:rx="3.8749998"
       sodipodi:ry="1.3749999"
       d="M 233.99998,523.375 A 3.8749998,1.3749999 0 1 1 226.24998,523.375 A 3.8749998,1.3749999 0 1 1 233.99998,523.375 z"
       transform="matrix(0.5336072,0,0,0.5326278,-95.605951,-253.46994)" />
    <rect
       ry="2.8472438"
       rx="2.8472438"
       y="0.47058913"
       x="0.47058824"
       height="47.058823"
       width="47.058823"
       id="rect4228-01"
       style="fill:none;stroke:#344b63;stroke-width:0.94117647;stroke-miterlimit:4;stroke-dasharray:none;stroke-opacity:1" />
  </g>
</svg>
