<?xml version="1.0" encoding="UTF-8" standalone="no"?>
<!-- Created with Inkscape (http://www.inkscape.org/) -->
<svg
   xmlns:dc="http://purl.org/dc/elements/1.1/"
   xmlns:cc="http://creativecommons.org/ns#"
   xmlns:rdf="http://www.w3.org/1999/02/22-rdf-syntax-ns#"
   xmlns:svg="http://www.w3.org/2000/svg"
   xmlns="http://www.w3.org/2000/svg"
   xmlns:xlink="http://www.w3.org/1999/xlink"
   xmlns:sodipodi="http://sodipodi.sourceforge.net/DTD/sodipodi-0.dtd"
   xmlns:inkscape="http://www.inkscape.org/namespaces/inkscape"
   width="48px"
   height="48px"
   id="svg4247"
   sodipodi:version="0.32"
   inkscape:version="0.46"
   sodipodi:docname="emblem-plan.svg"
   inkscape:output_extension="org.inkscape.output.svg.inkscape">
  <defs
     id="defs4249">
    <linearGradient
       inkscape:collect="always"
       xlink:href="#linearGradient2818"
       id="linearGradient16128"
       gradientUnits="userSpaceOnUse"
       gradientTransform="matrix(0.9803922,0,0,0.9803922,0.4705751,0.4706076)"
       x1="22.5"
       y1="-0.00033215381"
       x2="22.5"
       y2="48.001324" />
    <linearGradient
       id="linearGradient2481-61">
      <stop
         id="stop2483-0"
         offset="0"
         style="stop-color:#00ccff;stop-opacity:1" />
      <stop
         id="stop2485-61"
         offset="1"
         style="stop-color:#00aad4;stop-opacity:1" />
    </linearGradient>
    <linearGradient
       inkscape:collect="always"
       xlink:href="#linearGradient2481-61"
       id="linearGradient15958"
       gradientUnits="userSpaceOnUse"
       gradientTransform="matrix(0.9803922,0,0,0.9803922,0.4705913,0.4706064)"
       x1="22.5"
       y1="-0.00033215381"
       x2="22.5"
       y2="48.001324" />
    <linearGradient
       inkscape:collect="always"
       xlink:href="#linearGradient2818"
       id="linearGradient15960"
       x1="313.28293"
       y1="580.47382"
       x2="313.28293"
       y2="628.44104"
       gradientUnits="userSpaceOnUse"
       gradientTransform="matrix(0.9411765,0,0,0.9411765,-265.96764,-545.17649)" />
    <linearGradient
       id="linearGradient2818">
      <stop
         style="stop-color:#c0bfbb;stop-opacity:1;"
         offset="0"
         id="stop2820" />
      <stop
         style="stop-color:#798088;stop-opacity:1;"
         offset="1"
         id="stop2822" />
    </linearGradient>
    <inkscape:perspective
       sodipodi:type="inkscape:persp3d"
       inkscape:vp_x="0 : 24 : 1"
       inkscape:vp_y="0 : 1000 : 0"
       inkscape:vp_z="48 : 24 : 1"
       inkscape:persp3d-origin="24 : 16 : 1"
       id="perspective4255" />
  </defs>
  <sodipodi:namedview
     id="base"
     pagecolor="#ffffff"
     bordercolor="#666666"
     borderopacity="1.0"
     inkscape:pageopacity="0.0"
     inkscape:pageshadow="2"
     inkscape:zoom="7"
     inkscape:cx="24"
     inkscape:cy="24"
     inkscape:current-layer="layer1"
     showgrid="true"
     inkscape:grid-bbox="true"
     inkscape:document-units="px"
     inkscape:window-width="1024"
     inkscape:window-height="731"
     inkscape:window-x="0"
     inkscape:window-y="6"
     showguides="true"
     inkscape:guide-bbox="true" />
  <metadata
     id="metadata4252">
    <rdf:RDF>
      <cc:Work
         rdf:about="">
        <dc:format>image/svg+xml</dc:format>
        <dc:type
           rdf:resource="http://purl.org/dc/dcmitype/StillImage" />
      </cc:Work>
    </rdf:RDF>
  </metadata>
  <g
     id="layer1"
     inkscape:label="Layer 1"
     inkscape:groupmode="layer">
    <rect
       style="fill:url(#linearGradient16128);fill-opacity:1;stroke:none"
       id="rect6887-9"
       width="47.058823"
       height="47.058823"
       x="0.47058824"
       y="0.47058824"
       rx="2.8472438"
       ry="2.8472438" />
    <path
       style="fill:#ffffff;fill-opacity:1;stroke:none"
       d="M 5.0440998,7.7205934 C 3.9736809,7.7205934 3.1323351,8.5619393 3.1323351,9.6323581 L 3.1323351,38.367653 C 3.1323351,39.438081 3.9736809,40.279417 5.0440998,40.279417 L 42.955864,40.279417 C 44.026283,40.279417 44.867629,39.438081 44.867629,38.367653 L 44.867629,9.6323581 C 44.867629,8.5619393 44.026283,7.7205934 42.955864,7.7205934 L 5.0440998,7.7205934 z M 28.985276,13.132358 C 29.034264,13.129807 29.083347,13.129807 29.132335,13.132358 C 29.171535,13.13072 29.210782,13.13072 29.249982,13.132358 C 35.660128,13.282946 38.453464,13.394664 39.691159,13.485299 C 40.00058,13.507887 40.194377,13.550522 40.367629,13.573487 C 40.525436,13.594475 40.525107,13.494522 40.955864,13.720546 C 41.038933,13.761722 41.117747,13.810974 41.191159,13.867605 C 41.248382,13.903369 41.300966,13.922758 41.367629,13.985252 C 41.4241,14.038146 41.481041,14.103614 41.5441,14.191134 C 41.559723,14.212875 41.55417,14.245252 41.573464,14.279322 C 41.632006,14.38256 41.720344,14.514146 41.720523,14.514616 C 41.720712,14.515247 41.808712,14.955181 41.808712,14.955793 C 41.808806,14.956009 41.790453,15.049911 41.779347,15.132264 L 43.691112,25.102853 C 43.832024,25.615013 43.673559,26.162919 43.281022,26.520792 C 42.888476,26.878655 42.328297,26.98593 41.831319,26.798392 C 41.33433,26.610853 40.984664,26.160246 40.926406,25.632264 L 39.485229,18.07344 L 28.632288,30.102853 C 28.330857,30.448359 27.880429,30.625977 27.424307,30.579201 C 26.968184,30.532415 26.563187,30.26706 26.33817,29.867559 L 20.249935,19.161675 L 6.7499351,34.39697 C 6.2301421,34.981742 5.3347068,35.03441 4.7499351,34.514617 C 4.1651633,33.994824 4.1124951,33.099389 4.632288,32.514617 L 19.455817,15.808734 C 19.761587,15.465732 20.215149,15.292988 20.671629,15.345675 C 21.1281,15.398362 21.530387,15.669882 21.749982,16.073525 L 27.838217,26.749996 L 37.367629,16.220584 C 35.822914,16.145572 33.601003,16.059473 29.191159,15.955878 C 28.41146,16.012734 27.733304,15.426748 27.676457,14.647059 C 27.619601,13.86736 28.205577,13.189205 28.985276,13.132348 L 28.985276,13.132358 z"
       id="rect6474" />
    <rect
       ry="2.8472438"
       rx="2.8472438"
       y="0.47058824"
       x="0.47058824"
       height="47.058823"
       width="47.058823"
       id="rect4228-04"
       style="fill:none;stroke:#344b63;stroke-width:0.94117647;stroke-miterlimit:4;stroke-dasharray:none;stroke-opacity:1" />
  </g>
</svg>
