<?xml version="1.0" encoding="UTF-8" standalone="no"?>
<!-- Created with Inkscape (http://www.inkscape.org/) -->
<svg
   xmlns:dc="http://purl.org/dc/elements/1.1/"
   xmlns:cc="http://creativecommons.org/ns#"
   xmlns:rdf="http://www.w3.org/1999/02/22-rdf-syntax-ns#"
   xmlns:svg="http://www.w3.org/2000/svg"
   xmlns="http://www.w3.org/2000/svg"
   xmlns:xlink="http://www.w3.org/1999/xlink"
   xmlns:sodipodi="http://sodipodi.sourceforge.net/DTD/sodipodi-0.dtd"
   xmlns:inkscape="http://www.inkscape.org/namespaces/inkscape"
   width="48px"
   height="48px"
   id="svg17121"
   sodipodi:version="0.32"
   inkscape:version="0.46"
   sodipodi:docname="emblem-camera.svg"
   inkscape:output_extension="org.inkscape.output.svg.inkscape">
  <defs
     id="defs17123">
    <linearGradient
       inkscape:collect="always"
       xlink:href="#linearGradient2818"
       id="linearGradient16180"
       gradientUnits="userSpaceOnUse"
       gradientTransform="matrix(0.9803922,0,0,0.9803922,0.4704922,0.4706089)"
       x1="22.5"
       y1="-0.00033215381"
       x2="22.5"
       y2="48.001324" />
    <linearGradient
       id="linearGradient2818">
      <stop
         style="stop-color:#c0bfbb;stop-opacity:1;"
         offset="0"
         id="stop2820" />
      <stop
         style="stop-color:#798088;stop-opacity:1;"
         offset="1"
         id="stop2822" />
    </linearGradient>
    <linearGradient
       inkscape:collect="always"
       xlink:href="#linearGradient2818"
       id="linearGradient16195"
       gradientUnits="userSpaceOnUse"
       gradientTransform="matrix(0.9803922,0,0,0.9803922,0.4706043,0.470525)"
       x1="22.5"
       y1="-0.00033215381"
       x2="22.5"
       y2="48.001324" />
    <inkscape:perspective
       sodipodi:type="inkscape:persp3d"
       inkscape:vp_x="0 : 24 : 1"
       inkscape:vp_y="0 : 1000 : 0"
       inkscape:vp_z="48 : 24 : 1"
       inkscape:persp3d-origin="24 : 16 : 1"
       id="perspective17129" />
  </defs>
  <sodipodi:namedview
     id="base"
     pagecolor="#ffffff"
     bordercolor="#666666"
     borderopacity="1.0"
     inkscape:pageopacity="0.0"
     inkscape:pageshadow="2"
     inkscape:zoom="4"
     inkscape:cx="38.794462"
     inkscape:cy="21.451686"
     inkscape:current-layer="layer1"
     showgrid="true"
     inkscape:grid-bbox="true"
     inkscape:document-units="px"
     inkscape:window-width="1024"
     inkscape:window-height="731"
     inkscape:window-x="0"
     inkscape:window-y="6" />
  <metadata
     id="metadata17126">
    <rdf:RDF>
      <cc:Work
         rdf:about="">
        <dc:format>image/svg+xml</dc:format>
        <dc:type
           rdf:resource="http://purl.org/dc/dcmitype/StillImage" />
      </cc:Work>
    </rdf:RDF>
  </metadata>
  <g
     id="layer1"
     inkscape:label="Layer 1"
     inkscape:groupmode="layer">
    <rect
       style="fill:url(#linearGradient16180);fill-opacity:1;stroke:none"
       id="rect5903-9-9"
       width="47.058823"
       height="47.058823"
       x="0.47058824"
       y="0.47058824"
       rx="2.8472438"
       ry="2.8472438" />
    <path
       style="fill:#ffffff;stroke:none"
       d="M 10.088186,9.058844 C 9.7090805,9.058844 9.4116687,9.3562558 9.4116687,9.7352676 L 9.4116687,11.82355 L 7.382304,11.82355 C 5.8971275,11.82355 4.7057864,13.014797 4.7057864,14.500068 L 4.7057864,36.264774 C 4.7057864,37.749762 5.8971275,38.941197 7.382304,38.941197 L 9.9410805,38.941197 C 8.7172687,38.692068 7.7940687,37.623174 7.7940687,36.323503 L 7.7940687,20.176491 C 7.7940687,18.691315 8.9853158,17.499974 10.470492,17.499974 L 40.558775,17.499974 C 42.043951,17.499974 43.235198,18.691315 43.235198,20.176491 L 43.294022,14.500068 C 43.294022,13.014797 42.102775,11.82355 40.617598,11.82355 L 16.264657,11.82355 L 16.264657,9.7352676 C 16.264657,9.3562558 15.93788,9.058844 15.558775,9.058844 L 10.088186,9.058844 z M 33.411669,13.794185 L 37.088186,13.794185 C 37.467292,13.794185 37.76461,14.091503 37.76461,14.470609 L 37.76461,14.941197 C 37.76461,15.320303 37.467292,15.617621 37.088186,15.617621 L 33.411669,15.617621 C 33.032563,15.617621 32.735245,15.320303 32.735245,14.941197 L 32.735245,14.470609 C 32.735245,14.091503 33.032563,13.794185 33.411669,13.794185 z M 24.676422,19.147032 C 19.667951,19.147032 15.588139,23.226844 15.588139,28.235315 C 15.588139,33.243785 19.667951,37.352962 24.676422,37.352962 C 29.684892,37.352962 33.76461,33.243785 33.76461,28.235315 C 33.76461,23.226844 29.684892,19.147032 24.676422,19.147032 z M 24.676422,21.029385 C 28.666351,21.029385 31.882257,24.245291 31.882257,28.235315 C 31.882257,32.225338 28.666351,35.470609 24.676422,35.470609 C 20.686398,35.470609 17.470492,32.225338 17.470492,28.235315 C 17.470492,24.245291 20.686398,21.029385 24.676422,21.029385 z M 24.676422,22.705903 C 21.60941,22.705903 19.117551,25.168303 19.117551,28.235315 C 19.117551,31.302327 21.60941,33.794185 24.676422,33.794185 C 27.743339,33.794185 30.235198,31.302327 30.235198,28.235315 C 30.235198,25.168303 27.743339,22.705903 24.676422,22.705903 z"
       id="rect5915-1-1" />
    <rect
       ry="2.8472438"
       rx="2.8472438"
       y="0.47058824"
       x="0.47058824"
       height="47.058823"
       width="47.058823"
       id="rect4228-39"
       style="fill:none;stroke:#344b63;stroke-width:0.94117647;stroke-miterlimit:4;stroke-dasharray:none;stroke-opacity:1" />
  </g>
</svg>
