<?xml version="1.0" encoding="UTF-8" standalone="no"?>
<!-- Created with Inkscape (http://www.inkscape.org/) -->
<svg
   xmlns:dc="http://purl.org/dc/elements/1.1/"
   xmlns:cc="http://creativecommons.org/ns#"
   xmlns:rdf="http://www.w3.org/1999/02/22-rdf-syntax-ns#"
   xmlns:svg="http://www.w3.org/2000/svg"
   xmlns="http://www.w3.org/2000/svg"
   xmlns:xlink="http://www.w3.org/1999/xlink"
   xmlns:sodipodi="http://sodipodi.sourceforge.net/DTD/sodipodi-0.dtd"
   xmlns:inkscape="http://www.inkscape.org/namespaces/inkscape"
   width="48px"
   height="48px"
   id="svg17121"
   sodipodi:version="0.32"
   inkscape:version="0.46"
   sodipodi:docname="emblem-ohno.svg"
   inkscape:output_extension="org.inkscape.output.svg.inkscape">
  <defs
     id="defs17123">
    <linearGradient
       inkscape:collect="always"
       xlink:href="#linearGradient2818"
       id="linearGradient15979"
       gradientUnits="userSpaceOnUse"
       gradientTransform="matrix(0.9803922,0,0,0.9803922,0.4705826,0.4706184)"
       x1="22.5"
       y1="-0.00033215381"
       x2="22.5"
       y2="48.001324" />
    <linearGradient
       inkscape:collect="always"
       xlink:href="#linearGradient2818"
       id="linearGradient16103"
       gradientUnits="userSpaceOnUse"
       gradientTransform="matrix(0.9803922,0,0,0.9803922,0.4705732,0.4706089)"
       x1="22.5"
       y1="-0.00033215381"
       x2="22.5"
       y2="48.001324" />
    <linearGradient
       id="linearGradient2818">
      <stop
         style="stop-color:#c0bfbb;stop-opacity:1;"
         offset="0"
         id="stop2820" />
      <stop
         style="stop-color:#798088;stop-opacity:1;"
         offset="1"
         id="stop2822" />
    </linearGradient>
    <inkscape:perspective
       sodipodi:type="inkscape:persp3d"
       inkscape:vp_x="0 : 24 : 1"
       inkscape:vp_y="0 : 1000 : 0"
       inkscape:vp_z="48 : 24 : 1"
       inkscape:persp3d-origin="24 : 16 : 1"
       id="perspective17129" />
  </defs>
  <sodipodi:namedview
     id="base"
     pagecolor="#ffffff"
     bordercolor="#666666"
     borderopacity="1.0"
     inkscape:pageopacity="0.0"
     inkscape:pageshadow="2"
     inkscape:zoom="4"
     inkscape:cx="38.794462"
     inkscape:cy="21.451686"
     inkscape:current-layer="layer1"
     showgrid="true"
     inkscape:grid-bbox="true"
     inkscape:document-units="px"
     inkscape:window-width="1024"
     inkscape:window-height="731"
     inkscape:window-x="0"
     inkscape:window-y="6" />
  <metadata
     id="metadata17126">
    <rdf:RDF>
      <cc:Work
         rdf:about="">
        <dc:format>image/svg+xml</dc:format>
        <dc:type
           rdf:resource="http://purl.org/dc/dcmitype/StillImage" />
      </cc:Work>
    </rdf:RDF>
  </metadata>
  <g
     id="layer1"
     inkscape:label="Layer 1"
     inkscape:groupmode="layer">
    <rect
       ry="2.8472438"
       rx="2.8472438"
       y="0.47058824"
       x="0.47058824"
       height="47.058823"
       width="47.058823"
       id="rect3810-4"
       style="fill:url(#linearGradient15979);fill-opacity:1;stroke:none" />
    <path
       style="fill:#ffffff;stroke:none"
       d="M 23.985312,3.8676631 C 12.872559,3.8676631 3.8676649,12.901997 3.8676649,24.014722 C 3.8676649,35.127456 12.872559,44.132369 23.985312,44.132369 C 35.097971,44.132369 44.132324,35.127456 44.132324,24.014722 C 44.132324,12.901997 35.097971,3.8676631 23.985312,3.8676631 z M 15.014677,16.632369 C 16.484136,16.632369 17.661736,17.8394 17.661736,19.30884 C 17.661736,20.778289 16.484136,21.955898 15.014677,21.955898 C 13.545218,21.955898 12.338253,20.778289 12.338253,19.30884 C 12.338253,17.8394 13.545218,16.632369 15.014677,16.632369 z M 32.985312,16.632369 C 34.454771,16.632369 35.632371,17.8394 35.632371,19.30884 C 35.632371,20.778289 34.454771,21.955898 32.985312,21.955898 C 31.515853,21.955898 30.308794,20.778289 30.308794,19.30884 C 30.308794,17.8394 31.515853,16.632369 32.985312,16.632369 z M 23.985312,29.732096 C 28.7151,29.732096 30.880305,32.721752 30.880305,34.191192 C 30.880305,35.660642 28.7151,38.502035 23.985312,38.502035 C 19.255524,38.502035 17.030799,35.660642 17.030799,34.191192 C 17.030799,32.721752 19.255524,29.732096 23.985312,29.732096 z"
       id="path6682-7-9"
       sodipodi:nodetypes="csssccsssccsssccsssc" />
    <rect
       ry="2.8472438"
       rx="2.8472438"
       y="0.47058824"
       x="0.47058824"
       height="47.058823"
       width="47.058823"
       id="rect4228-12"
       style="fill:none;stroke:#344b63;stroke-width:0.94117647;stroke-miterlimit:4;stroke-dasharray:none;stroke-opacity:1" />
  </g>
</svg>
