<?xml version="1.0" encoding="UTF-8" standalone="no"?>
<!-- Created with Inkscape (http://www.inkscape.org/) -->
<svg
   xmlns:dc="http://purl.org/dc/elements/1.1/"
   xmlns:cc="http://creativecommons.org/ns#"
   xmlns:rdf="http://www.w3.org/1999/02/22-rdf-syntax-ns#"
   xmlns:svg="http://www.w3.org/2000/svg"
   xmlns="http://www.w3.org/2000/svg"
   xmlns:xlink="http://www.w3.org/1999/xlink"
   xmlns:sodipodi="http://sodipodi.sourceforge.net/DTD/sodipodi-0.dtd"
   xmlns:inkscape="http://www.inkscape.org/namespaces/inkscape"
   width="48px"
   height="48px"
   id="svg17121"
   sodipodi:version="0.32"
   inkscape:version="0.46"
   sodipodi:docname="emblem-pictures.svg"
   inkscape:output_extension="org.inkscape.output.svg.inkscape">
  <defs
     id="defs17123">
    <linearGradient
       inkscape:collect="always"
       xlink:href="#linearGradient2818"
       id="linearGradient16123"
       gradientUnits="userSpaceOnUse"
       gradientTransform="matrix(0.9803922,0,0,0.9803922,0.4706081,0.4706276)"
       x1="22.5"
       y1="-0.00033215381"
       x2="22.5"
       y2="48.001324" />
    <linearGradient
       inkscape:collect="always"
       xlink:href="#linearGradient2818"
       id="linearGradient16180"
       gradientUnits="userSpaceOnUse"
       gradientTransform="matrix(0.9803922,0,0,0.9803922,0.4704923,0.4706089)"
       x1="22.5"
       y1="-0.00033215381"
       x2="22.5"
       y2="48.001324" />
    <linearGradient
       inkscape:collect="always"
       xlink:href="#linearGradient2818"
       id="linearGradient16395"
       gradientUnits="userSpaceOnUse"
       gradientTransform="matrix(0.9803922,0,0,0.9803922,0.4705638,0.4706088)"
       x1="22.5"
       y1="-0.00033215381"
       x2="22.5"
       y2="48.001324" />
    <clipPath
       clipPathUnits="userSpaceOnUse"
       id="clipPath4871">
      <rect
         ry="2.8540657"
         rx="2.8540657"
         y="719.51721"
         x="318.22049"
         height="47.171574"
         width="47.171574"
         id="rect4873"
         style="fill:url(#linearGradient4875);fill-opacity:1;stroke:none" />
    </clipPath>
    <linearGradient
       id="linearGradient2818">
      <stop
         style="stop-color:#c0bfbb;stop-opacity:1;"
         offset="0"
         id="stop2820" />
      <stop
         style="stop-color:#798088;stop-opacity:1;"
         offset="1"
         id="stop2822" />
    </linearGradient>
    <inkscape:perspective
       sodipodi:type="inkscape:persp3d"
       inkscape:vp_x="0 : 24 : 1"
       inkscape:vp_y="0 : 1000 : 0"
       inkscape:vp_z="48 : 24 : 1"
       inkscape:persp3d-origin="24 : 16 : 1"
       id="perspective17129" />
  </defs>
  <sodipodi:namedview
     id="base"
     pagecolor="#ffffff"
     bordercolor="#666666"
     borderopacity="1.0"
     inkscape:pageopacity="0.0"
     inkscape:pageshadow="2"
     inkscape:zoom="1"
     inkscape:cx="27.215972"
     inkscape:cy="24.91415"
     inkscape:current-layer="layer1"
     showgrid="true"
     inkscape:grid-bbox="true"
     inkscape:document-units="px"
     inkscape:window-width="1024"
     inkscape:window-height="731"
     inkscape:window-x="0"
     inkscape:window-y="6" />
  <metadata
     id="metadata17126">
    <rdf:RDF>
      <cc:Work
         rdf:about="">
        <dc:format>image/svg+xml</dc:format>
        <dc:type
           rdf:resource="http://purl.org/dc/dcmitype/StillImage" />
      </cc:Work>
    </rdf:RDF>
  </metadata>
  <g
     id="layer1"
     inkscape:label="Layer 1"
     inkscape:groupmode="layer">
    <rect
       style="fill:url(#linearGradient16123);fill-opacity:1;stroke:none"
       id="rect6778-8"
       width="47.058823"
       height="47.058823"
       x="0.47058824"
       y="0.47058824"
       rx="2.8472438"
       ry="2.8472438" />
    <path
       style="fill:#ffffff;stroke:none"
       d="M 17.537817,4.3747972 C 16.244773,4.5127925 15.165535,5.5277384 15.037817,6.8747972 L 14.273112,15.051268 L 6.9495821,15.051268 C 5.372208,15.051268 4.0966409,16.297423 4.0966409,17.874797 L 4.0966409,40.786562 C 4.0966409,42.363936 5.372208,43.639503 6.9495821,43.639503 L 30.2437,43.639503 C 31.821074,43.639503 33.096641,42.363936 33.096641,40.786562 L 33.096641,34.521856 L 38.684876,35.021856 C 40.224368,35.167814 41.56833,34.061348 41.714288,32.521856 L 43.890759,9.6395031 C 44.036716,8.1000113 42.900839,6.7266372 41.361347,6.5806795 L 18.067229,4.3747972 C 17.874796,4.3565384 17.722542,4.3550325 17.537817,4.3747972 z M 19.626053,6.8453854 C 19.810777,6.8256207 19.992443,6.8271266 20.184876,6.8453854 L 38.861347,8.5806795 C 40.400839,8.7266372 41.507314,10.100011 41.361347,11.639503 L 40.2437,23.315974 C 40.097742,24.855465 38.75377,25.991343 37.214288,25.845385 L 33.096641,25.463032 L 33.096641,17.815974 C 33.096641,16.269583 31.848914,15.051268 30.302523,15.051268 L 16.596641,15.051268 L 17.155464,9.3453854 C 17.283173,7.9983266 18.333008,6.9833807 19.626053,6.8453854 z M 9.2731115,17.286562 L 27.92017,17.286562 C 29.497544,17.286562 30.773112,18.562129 30.773112,20.139503 L 30.773112,31.75715 C 30.773112,33.334524 29.497544,34.610091 27.92017,34.610091 L 9.2731115,34.610091 C 7.6957374,34.610091 6.4201704,33.334524 6.4201704,31.75715 L 6.4201704,20.139503 C 6.4201704,18.562129 7.6957374,17.286562 9.2731115,17.286562 z"
       id="rect6792-4" />
    <rect
       ry="2.8472438"
       rx="2.8472438"
       y="0.47058824"
       x="0.47058824"
       height="47.058823"
       width="47.058823"
       id="rect4228-8"
       style="fill:none;stroke:#344b63;stroke-width:0.94117647;stroke-miterlimit:4;stroke-dasharray:none;stroke-opacity:1" />
  </g>
</svg>
