<?xml version="1.0" encoding="UTF-8" standalone="no"?>
<!-- Created with Inkscape (http://www.inkscape.org/) -->
<svg
   xmlns:dc="http://purl.org/dc/elements/1.1/"
   xmlns:cc="http://creativecommons.org/ns#"
   xmlns:rdf="http://www.w3.org/1999/02/22-rdf-syntax-ns#"
   xmlns:svg="http://www.w3.org/2000/svg"
   xmlns="http://www.w3.org/2000/svg"
   xmlns:xlink="http://www.w3.org/1999/xlink"
   xmlns:sodipodi="http://sodipodi.sourceforge.net/DTD/sodipodi-0.dtd"
   xmlns:inkscape="http://www.inkscape.org/namespaces/inkscape"
   width="128"
   height="128"
   id="svg2"
   sodipodi:version="0.32"
   inkscape:version="0.46"
   version="1.0"
   sodipodi:docname="gnome-mime-application-x-executable.svg"
   inkscape:output_extension="org.inkscape.output.svg.inkscape">
  <defs
     id="defs4">
    <linearGradient
       gradientTransform="matrix(2.6765239,0,0,2.6765239,-1301.1494,-2513.8393)"
       gradientUnits="userSpaceOnUse"
       y2="1005.1491"
       x2="481.1861"
       y1="938.63416"
       x1="490.28125"
       id="linearGradient12409"
       xlink:href="#linearGradient5439"
       inkscape:collect="always" />
    <linearGradient
       y2="1116.9413"
       x2="652.75177"
       y1="953.39532"
       x1="499.90704"
       gradientTransform="matrix(2.6960058,0,0,2.6960058,-1302.5075,-2532.3333)"
       gradientUnits="userSpaceOnUse"
       id="linearGradient12422"
       xlink:href="#linearGradient5439"
       inkscape:collect="always" />
    <linearGradient
       y2="947.32013"
       x2="528.94489"
       y1="944.19513"
       x1="486.74878"
       gradientTransform="matrix(2.6960058,0,0,2.6960058,-1302.5075,-2532.3333)"
       gradientUnits="userSpaceOnUse"
       id="linearGradient12420"
       xlink:href="#linearGradient7210"
       inkscape:collect="always" />
    <linearGradient
       y2="836.74811"
       x2="909.69537"
       y1="782.92706"
       x1="860.80048"
       gradientTransform="matrix(2.7510043,0.1910065,-0.2868955,2.7409682,-2144.6085,-2309.2046)"
       gradientUnits="userSpaceOnUse"
       id="linearGradient9437"
       xlink:href="#linearGradient5439"
       inkscape:collect="always" />
    <linearGradient
       y2="808.49951"
       x2="884.04663"
       y1="795.24951"
       x1="872.23303"
       gradientTransform="matrix(2.6082428,-0.3166277,0.3321194,2.7358566,-2465.3186,-1841.7255)"
       gradientUnits="userSpaceOnUse"
       id="linearGradient9441"
       xlink:href="#linearGradient5316"
       inkscape:collect="always" />
    <linearGradient
       gradientUnits="userSpaceOnUse"
       y2="799.48352"
       x2="590.36938"
       y1="847.29248"
       x1="590.36938"
       id="linearGradient8848"
       xlink:href="#linearGradient9863"
       inkscape:collect="always"
       gradientTransform="matrix(2.6765239,0,0,2.6765239,-1515.2713,-2140.0131)" />
    <linearGradient
       y2="641.10242"
       x2="504.48212"
       y1="635.44617"
       x1="504.91962"
       gradientTransform="matrix(2.6765239,0,0,2.6765239,-1298.6208,-1689.8172)"
       gradientUnits="userSpaceOnUse"
       id="linearGradient13355"
       xlink:href="#linearGradient5362"
       inkscape:collect="always" />
    <linearGradient
       y2="667.20789"
       x2="511.42725"
       y1="723.67017"
       x1="519.31262"
       gradientTransform="matrix(2.6765239,0,0,2.6765239,-1298.6208,-1689.8172)"
       gradientUnits="userSpaceOnUse"
       id="linearGradient13352"
       xlink:href="#linearGradient5344"
       inkscape:collect="always" />
    <linearGradient
       y2="410.98141"
       x2="927.93488"
       y1="459.10907"
       x1="927.93488"
       gradientTransform="matrix(2.6765239,0,0,2.6765239,-2422.7609,-1101.1492)"
       gradientUnits="userSpaceOnUse"
       id="linearGradient11165"
       xlink:href="#linearGradient9863"
       inkscape:collect="always" />
    <filter
       id="filter7252"
       inkscape:collect="always">
      <feGaussianBlur
         id="feGaussianBlur7254"
         stdDeviation="0.68112788"
         inkscape:collect="always" />
    </filter>
    <linearGradient
       gradientTransform="translate(-5.9283009,13.913582)"
       gradientUnits="userSpaceOnUse"
       y2="409.32156"
       x2="1150.9343"
       y1="494.57156"
       x1="1058.9668"
       id="linearGradient7256"
       xlink:href="#linearGradient5344"
       inkscape:collect="always" />
    <linearGradient
       gradientTransform="matrix(2.0013301,2.0014227,-2.0013301,2.0014227,-1269.3501,-3070.9589)"
       gradientUnits="userSpaceOnUse"
       y2="451.18192"
       x2="1144.3892"
       y1="451.18191"
       x1="1117.25"
       id="linearGradient7240"
       xlink:href="#linearGradient5439"
       inkscape:collect="always" />
    <linearGradient
       gradientTransform="matrix(2.0013301,2.0014227,-2.0013301,2.0014227,-1269.3501,-3070.9589)"
       gradientUnits="userSpaceOnUse"
       y2="447.03708"
       x2="1124.375"
       y1="447.03708"
       x1="1118.8125"
       id="linearGradient7238"
       xlink:href="#linearGradient5316"
       inkscape:collect="always" />
    <linearGradient
       gradientTransform="matrix(2.0013301,2.0014227,-2.0013301,2.0014227,-1269.3501,-3070.9589)"
       gradientUnits="userSpaceOnUse"
       y2="447.01843"
       x2="1121.0625"
       y1="447.01843"
       x1="1118.3125"
       id="linearGradient7244"
       xlink:href="#linearGradient5362"
       inkscape:collect="always" />
    <linearGradient
       id="linearGradient2481">
      <stop
         style="stop-color:#87c6ff;stop-opacity:1;"
         offset="0"
         id="stop2483" />
      <stop
         id="stop3944"
         offset="0.5"
         style="stop-color:#74aadb;stop-opacity:1;" />
      <stop
         style="stop-color:#74aadb;stop-opacity:1;"
         offset="1"
         id="stop2485" />
    </linearGradient>
    <linearGradient
       id="linearGradient12578">
      <stop
         id="stop12580"
         offset="0"
         style="stop-color:#e9b551;stop-opacity:1;" />
      <stop
         id="stop12582"
         offset="1"
         style="stop-color:#b48739;stop-opacity:1;" />
    </linearGradient>
    <linearGradient
       id="linearGradient4395">
      <stop
         style="stop-color:#000000;stop-opacity:0.35099337;"
         offset="0"
         id="stop4397" />
      <stop
         id="stop4399"
         offset="0.45549738"
         style="stop-color:#000000;stop-opacity:0.29139072;" />
      <stop
         style="stop-color:#000000;stop-opacity:0"
         offset="1"
         id="stop4401" />
    </linearGradient>
    <linearGradient
       id="linearGradient7210">
      <stop
         style="stop-color:#74aadb;stop-opacity:1"
         offset="0"
         id="stop7212" />
      <stop
         style="stop-color:#87c7ff;stop-opacity:1;"
         offset="0.5"
         id="stop8994" />
      <stop
         style="stop-color:#74aadb;stop-opacity:1;"
         offset="1"
         id="stop7214" />
    </linearGradient>
    <linearGradient
       id="linearGradient12594">
      <stop
         id="stop12596"
         offset="0"
         style="stop-color:#e9b551;stop-opacity:1;" />
      <stop
         id="stop12598"
         offset="1"
         style="stop-color:#e9b551;stop-opacity:0;" />
    </linearGradient>
    <linearGradient
       id="linearGradient5316">
      <stop
         style="stop-color:#87c7ff;stop-opacity:1;"
         offset="0"
         id="stop5320" />
      <stop
         style="stop-color:#74aadb;stop-opacity:1;"
         offset="1"
         id="stop5322" />
    </linearGradient>
    <linearGradient
       id="linearGradient9863">
      <stop
         style="stop-color:#2f445a;stop-opacity:1;"
         offset="0"
         id="stop9865" />
      <stop
         style="stop-color:#415f7c;stop-opacity:1"
         offset="1"
         id="stop9867" />
    </linearGradient>
    <linearGradient
       id="linearGradient12336">
      <stop
         id="stop12338"
         offset="0"
         style="stop-color:#ff6e00;stop-opacity:1;" />
      <stop
         id="stop12340"
         offset="1"
         style="stop-color:#eb2600;stop-opacity:1;" />
    </linearGradient>
    <linearGradient
       id="linearGradient5362">
      <stop
         style="stop-color:#ffffff;stop-opacity:1;"
         offset="0"
         id="stop5364" />
      <stop
         style="stop-color:#ffffff;stop-opacity:0;"
         offset="1"
         id="stop5366" />
    </linearGradient>
    <linearGradient
       id="linearGradient5439">
      <stop
         style="stop-color:#ffffff;stop-opacity:1;"
         offset="0"
         id="stop5441" />
      <stop
         style="stop-color:#000000;stop-opacity:1;"
         offset="1"
         id="stop5443" />
    </linearGradient>
    <linearGradient
       inkscape:collect="always"
       xlink:href="#linearGradient5439"
       id="linearGradient13309"
       gradientUnits="userSpaceOnUse"
       x1="499.90704"
       y1="953.39532"
       x2="652.75177"
       y2="1116.9413"
       gradientTransform="matrix(2.6765239,0,0,2.6765239,-1298.6765,-2514.903)" />
    <linearGradient
       inkscape:collect="always"
       id="linearGradient5398">
      <stop
         style="stop-color:#87c6ff;stop-opacity:1;"
         offset="0"
         id="stop5400" />
      <stop
         style="stop-color:#87c6ff;stop-opacity:0"
         offset="1"
         id="stop5402" />
    </linearGradient>
    <linearGradient
       inkscape:collect="always"
       xlink:href="#linearGradient5398"
       id="linearGradient13322"
       gradientUnits="userSpaceOnUse"
       x1="500.87799"
       y1="948.11993"
       x2="500.87799"
       y2="953.17468"
       gradientTransform="matrix(2.6765239,0,0,2.6765239,-1298.6765,-2514.903)" />
    <linearGradient
       id="linearGradient5344">
      <stop
         style="stop-color:#000000;stop-opacity:1;"
         offset="0"
         id="stop5346" />
      <stop
         style="stop-color:#000000;stop-opacity:0;"
         offset="1"
         id="stop5348" />
    </linearGradient>
    <linearGradient
       inkscape:collect="always"
       xlink:href="#linearGradient5344"
       id="linearGradient13314"
       gradientUnits="userSpaceOnUse"
       x1="544.89001"
       y1="919.05762"
       x2="506.01498"
       y2="969.80762"
       gradientTransform="translate(-485.21014,-859.4386)" />
    <linearGradient
       id="linearGradient8702">
      <stop
         id="stop8704"
         offset="0"
         style="stop-color:#87c7ff;stop-opacity:1;" />
      <stop
         id="stop8706"
         offset="1"
         style="stop-color:#74aadb;stop-opacity:1;" />
    </linearGradient>
    <linearGradient
       inkscape:collect="always"
       xlink:href="#linearGradient8702"
       id="linearGradient13316"
       gradientUnits="userSpaceOnUse"
       gradientTransform="matrix(2.6765239,0,0,2.6765239,-1779.5422,-994.63744)"
       x1="700.13062"
       y1="378.86951"
       x2="707.80457"
       y2="395.74899" />
    <inkscape:perspective
       sodipodi:type="inkscape:persp3d"
       inkscape:vp_x="0 : 526.18109 : 1"
       inkscape:vp_y="0 : 1000 : 0"
       inkscape:vp_z="744.09448 : 526.18109 : 1"
       inkscape:persp3d-origin="372.04724 : 350.78739 : 1"
       id="perspective10" />
  </defs>
  <sodipodi:namedview
     id="base"
     pagecolor="#ffffff"
     bordercolor="#666666"
     borderopacity="1.0"
     inkscape:pageopacity="0.0"
     inkscape:pageshadow="2"
     inkscape:zoom="2.5020702"
     inkscape:cx="110.71489"
     inkscape:cy="79.276741"
     inkscape:document-units="px"
     inkscape:current-layer="layer1"
     showgrid="false"
     inkscape:showpageshadow="false"
     inkscape:window-width="1014"
     inkscape:window-height="715"
     inkscape:window-x="0"
     inkscape:window-y="6"
     showguides="true"
     inkscape:guide-bbox="true" />
  <metadata
     id="metadata7">
    <rdf:RDF>
      <cc:Work
         rdf:about="">
        <dc:format>image/svg+xml</dc:format>
        <dc:type
           rdf:resource="http://purl.org/dc/dcmitype/StillImage" />
      </cc:Work>
    </rdf:RDF>
  </metadata>
  <g
     inkscape:label="Capa 1"
     inkscape:groupmode="layer"
     id="layer1">
    <path
       sodipodi:nodetypes="cccscccccssssccc"
       id="path12400"
       d="M 6.9410059,4.873352 C 4.6362511,6.1447277 3.0705382,9.1941984 3.0705382,12.376933 L 3.0705382,112.83442 C 3.0962596,118.0326 4.2277601,122.48481 7.719286,123.49539 C 9.77333,124.08993 13.061172,125.1554 15.449461,125.79883 L 109.88057,110.40882 C 114.66756,109.59387 118.18911,105.29016 117.99378,96.858918 L 117.8265,29.527616 L 117.8265,20.410707 C 117.82743,20.35466 117.82599,20.299337 117.8265,20.243424 C 117.83648,19.653839 117.78678,19.057537 117.74286,18.486955 C 117.7378,18.428875 117.74856,18.377485 117.74286,18.319672 C 117.69583,17.780674 117.59776,17.243094 117.49193,16.730486 C 116.74245,13.10029 114.43066,10.256724 108.87687,9.6209701 L 19.512532,2.2258952 C 15.562571,2.4224591 9.7706,3.2253895 6.9410059,4.873352 z"
       style="fill:url(#linearGradient12409);fill-rule:evenodd;stroke:none;stroke-width:0.5;stroke-linecap:butt;stroke-linejoin:miter;stroke-miterlimit:4;stroke-dasharray:none;stroke-opacity:1;display:inline" />
    <path
       sodipodi:nodetypes="ccccccccc"
       id="path12384"
       d="M 114.91452,110.4453 L 20.521447,125.92862 C 14.140373,127.05538 7.689469,123.15427 8.088378,114.68189 L 8.088378,11.987659 C 7.906241,5.2873032 15.366998,1.2566456 22.24561,2.5740574 L 113.90662,9.7971389 C 121.15004,10.626245 122.9245,15.247639 122.83714,20.412661 L 123.00255,96.842538 C 123.19796,105.27383 119.70151,109.63035 114.91452,110.4453 z"
       style="fill:url(#linearGradient12422);fill-rule:evenodd;stroke:none;stroke-width:0.5;stroke-linecap:butt;stroke-linejoin:miter;stroke-miterlimit:4;stroke-dasharray:none;stroke-opacity:1;display:inline" />
    <path
       style="fill:url(#linearGradient12420);fill-rule:evenodd;stroke:none;stroke-width:0.5;stroke-linecap:butt;stroke-linejoin:miter;stroke-miterlimit:4;stroke-dasharray:none;stroke-opacity:1;display:inline"
       d="M 8.088378,24.119673 L 8.088378,11.751081 C 7.906241,5.0507253 15.366998,1.6114991 22.24561,2.3374795 L 113.90662,9.6197122 C 121.15004,10.448819 122.9245,15.070212 122.83714,20.235234 L 122.857,29.51129 L 8.088378,24.119673 z"
       id="path9417"
       sodipodi:nodetypes="ccccccc" />
    <path
       style="fill:url(#linearGradient9437);fill-opacity:1;stroke:none;stroke-width:2;stroke-linecap:butt;stroke-linejoin:round;stroke-miterlimit:4;stroke-dasharray:none;stroke-opacity:1;display:inline"
       d="M 35.151488,30.688826 C 34.777819,30.658019 34.005615,30.895775 32.647761,31.579573 C 18.845997,38.52981 37.446929,34.004129 24.820909,42.962615 C 18.195816,47.663341 21.562267,35.034082 17.742279,42.19274 C 10.462267,55.835702 23.046855,41.330926 17.914968,55.878045 C 15.222171,63.511197 10.568847,51.48614 11.630035,59.422298 C 13.652416,74.546826 15.509228,55.560957 19.831627,70.140197 C 22.099686,77.790184 11.242555,70.986835 16.779506,76.669069 C 27.331836,87.498097 17.671324,71.367651 29.797022,80.410153 C 36.159654,85.154934 23.225245,86.171799 31.123159,87.429578 C 46.174805,89.82678 28.715786,82.629634 44.013218,82.681478 C 52.040033,82.708725 42.016317,91.132709 49.258295,87.485865 C 63.060058,80.535602 44.4591,85.061336 57.085147,76.102796 C 63.710239,71.402044 60.343788,84.031329 64.163803,76.872672 C 71.443814,63.229707 58.859173,77.734486 63.991114,63.187391 C 66.683884,55.554186 71.337208,67.579299 70.27602,59.643111 C 68.253638,44.518559 66.396827,63.504505 62.074482,48.925215 C 59.806368,41.275228 70.6635,48.078577 65.126602,42.396343 C 54.574219,31.567315 64.234731,47.697788 52.109034,38.655259 C 45.746428,33.910451 58.680837,32.893613 50.782896,31.635807 C 35.731277,29.238632 53.18885,36.508981 37.891392,36.457137 C 31.369587,36.435002 36.770544,30.822679 35.151488,30.688826 z M 41.265391,43.466418 C 50.147168,43.422228 57.215333,50.600531 57.042483,59.489345 C 56.869713,68.378108 49.521022,75.628061 40.639245,75.672197 C 31.757495,75.71636 24.689304,68.53811 24.862154,59.649294 C 25.03495,50.760507 32.383614,43.510553 41.265391,43.466418 z"
       id="path9435" />
    <path
       id="path9439"
       d="M 80.213953,49.926556 C 79.858618,49.96475 79.190236,50.338901 78.073136,51.256869 C 66.71809,60.58763 83.080885,52.751868 73.262137,63.833397 C 68.110096,69.648198 68.487219,56.668128 66.489916,64.37558 C 62.683578,79.064397 71.25006,62.56079 69.645591,77.741525 C 68.803771,85.707155 61.831266,74.786776 64.557867,82.361794 C 69.754044,96.798054 67.331924,77.871497 74.554497,91.352934 C 78.344321,98.426879 66.726815,93.75415 73.135725,98.303278 C 85.349721,106.97281 72.80769,92.950042 86.098585,99.582629 C 93.072536,103.06283 81.228382,106.42615 88.871705,106.21174 C 103.43807,105.80303 85.575539,101.95333 99.858064,99.203687 C 107.35235,97.76088 99.844354,107.84286 105.80248,102.9467 C 117.15747,93.616042 100.79473,101.45186 110.61345,90.370248 C 115.76552,84.555527 115.38842,97.535463 117.3857,89.828172 C 121.19204,75.139275 112.62553,91.642908 114.23003,76.462147 C 115.0719,68.496517 122.04435,79.416868 119.3178,71.841824 C 114.1216,57.405564 116.54375,76.332148 109.3212,62.850765 C 105.53132,55.776819 117.14875,60.449521 110.73989,55.900394 C 98.525924,47.230868 111.06793,61.253656 97.777084,54.621096 C 90.803111,51.140815 102.64726,47.777468 95.003969,47.991991 C 80.437496,48.40067 98.314804,52.322232 84.032229,55.07193 C 77.943137,56.244193 81.753704,49.761173 80.213953,49.926556 z M 88.71363,61.316126 C 96.989923,59.646992 105.15463,65.380374 106.93842,74.113898 C 108.72222,82.847476 103.45292,91.290196 95.176685,92.95949 C 86.900418,94.628624 78.735736,88.895269 76.951966,80.161691 C 75.168117,71.42814 80.437389,62.98534 88.71363,61.316126 z"
       style="fill:url(#linearGradient9441);fill-opacity:1;stroke:none;stroke-width:2;stroke-linecap:butt;stroke-linejoin:round;stroke-miterlimit:4;stroke-dasharray:none;stroke-opacity:1;display:inline" />
    <path
       sodipodi:nodetypes="ccccccccccccc"
       id="path12411"
       d="M 18.842613,1.7348076 C 14.724135,1.3352939 9.321813,2.3464243 6.4430785,4.0229988 C 4.0983097,5.3164558 2.029183,8.2436042 2.029183,11.481609 L 1.8878787,112.75902 C 1.9140551,118.04746 3.1009864,122.53778 6.6531351,123.56592 L 14.937496,125.98172 C 16.511961,126.36762 18.568575,126.56477 20.257355,126.26656 L 115.79938,111.21135 C 120.6695,110.38224 124.25219,106.0038 124.05348,97.426181 L 123.88328,19.650601 C 123.97217,14.395888 122.14745,9.6872676 114.77826,8.8437076 L 51.043135,3.8231643 L 18.842613,1.7348076 z"
       style="fill:none;fill-rule:evenodd;stroke:url(#linearGradient8848);stroke-width:2.72299647;stroke-linecap:butt;stroke-linejoin:miter;stroke-miterlimit:4;stroke-dasharray:none;stroke-opacity:1;display:inline" />
  </g>
</svg>
