<?xml version="1.0" encoding="UTF-8" standalone="no"?>
<!-- Created with Inkscape (http://www.inkscape.org/) -->

<svg
   xmlns:dc="http://purl.org/dc/elements/1.1/"
   xmlns:cc="http://creativecommons.org/ns#"
   xmlns:rdf="http://www.w3.org/1999/02/22-rdf-syntax-ns#"
   xmlns:svg="http://www.w3.org/2000/svg"
   xmlns="http://www.w3.org/2000/svg"
   xmlns:xlink="http://www.w3.org/1999/xlink"
   xmlns:sodipodi="http://sodipodi.sourceforge.net/DTD/sodipodi-0.dtd"
   xmlns:inkscape="http://www.inkscape.org/namespaces/inkscape"
   width="128"
   height="128"
   id="svg2"
   sodipodi:version="0.32"
   inkscape:version="0.48.3.1 r9886"
   version="1.0"
   sodipodi:docname="text-x-bak.svg"
   inkscape:output_extension="org.inkscape.output.svg.inkscape">
  <defs
     id="defs4">
    <linearGradient
       inkscape:collect="always"
       xlink:href="#linearGradient5362"
       id="linearGradient16345"
       gradientUnits="userSpaceOnUse"
       gradientTransform="matrix(2.6666667,0,0,2.6666667,-1293.8383,-1683.1224)"
       x1="504.91962"
       y1="635.44617"
       x2="504.48212"
       y2="641.10242" />
    <linearGradient
       inkscape:collect="always"
       xlink:href="#linearGradient5344"
       id="linearGradient16347"
       gradientUnits="userSpaceOnUse"
       gradientTransform="matrix(2.6666667,0,0,2.6666667,-1293.8383,-1683.1224)"
       x1="519.31262"
       y1="723.67017"
       x2="511.42725"
       y2="667.20789" />
    <linearGradient
       inkscape:collect="always"
       xlink:href="#linearGradient9863"
       id="linearGradient16349"
       gradientUnits="userSpaceOnUse"
       gradientTransform="matrix(2.6666667,0,0,2.6666667,-2413.8383,-1096.6224)"
       x1="927.93488"
       y1="459.10907"
       x2="927.93488"
       y2="410.98141" />
    <linearGradient
       id="linearGradient9863">
      <stop
         style="stop-color:#2f445a;stop-opacity:1;"
         offset="0"
         id="stop9865" />
      <stop
         style="stop-color:#415f7c;stop-opacity:1"
         offset="1"
         id="stop9867" />
    </linearGradient>
    <linearGradient
       id="linearGradient5362">
      <stop
         style="stop-color:#ffffff;stop-opacity:1;"
         offset="0"
         id="stop5364" />
      <stop
         style="stop-color:#ffffff;stop-opacity:0;"
         offset="1"
         id="stop5366" />
    </linearGradient>
    <linearGradient
       id="linearGradient5344">
      <stop
         style="stop-color:#000000;stop-opacity:1;"
         offset="0"
         id="stop5346" />
      <stop
         style="stop-color:#000000;stop-opacity:0;"
         offset="1"
         id="stop5348" />
    </linearGradient>
    <linearGradient
       id="linearGradient5344-6">
      <stop
         style="stop-color:#000000;stop-opacity:1;"
         offset="0"
         id="stop5346-8" />
      <stop
         style="stop-color:#000000;stop-opacity:0;"
         offset="1"
         id="stop5348-3" />
    </linearGradient>
    <linearGradient
       y2="572.7771"
       x2="434.51016"
       y1="486.7771"
       x1="495.94766"
       gradientTransform="matrix(2.6666667,0,0,2.6666667,-1133.7756,-1417.9965)"
       gradientUnits="userSpaceOnUse"
       id="linearGradient3107"
       xlink:href="#linearGradient5344-6"
       inkscape:collect="always" />
    <linearGradient
       id="linearGradient4360">
      <stop
         id="stop4362"
         style="stop-color:#4f821e;stop-opacity:1"
         offset="0" />
      <stop
         id="stop4364"
         style="stop-color:#639632;stop-opacity:1"
         offset="1" />
    </linearGradient>
    <linearGradient
       inkscape:collect="always"
       xlink:href="#linearGradient4360"
       id="linearGradient5662"
       x1="82.496323"
       y1="69.418304"
       x2="80.028183"
       y2="10.666959"
       gradientUnits="userSpaceOnUse" />
  </defs>
  <sodipodi:namedview
     id="base"
     pagecolor="#ffffff"
     bordercolor="#666666"
     borderopacity="1.0"
     inkscape:pageopacity="0.0"
     inkscape:pageshadow="2"
     inkscape:zoom="1.7692308"
     inkscape:cx="-19.233306"
     inkscape:cy="19.495426"
     inkscape:document-units="px"
     inkscape:current-layer="layer1"
     showgrid="false"
     inkscape:showpageshadow="false"
     inkscape:window-width="1366"
     inkscape:window-height="717"
     inkscape:window-x="0"
     inkscape:window-y="0"
     showguides="true"
     inkscape:guide-bbox="true"
     inkscape:window-maximized="1" />
  <metadata
     id="metadata7">
    <rdf:RDF>
      <cc:Work
         rdf:about="">
        <dc:format>image/svg+xml</dc:format>
        <dc:type
           rdf:resource="http://purl.org/dc/dcmitype/StillImage" />
        <dc:title />
      </cc:Work>
    </rdf:RDF>
  </metadata>
  <g
     inkscape:label="Capa 1"
     inkscape:groupmode="layer"
     id="layer1">
    <path
       sodipodi:nodetypes="ccccccccc"
       id="path16325"
       d="M 0.79114262,5.4829152 C 10.397277,6.4059022 14.464183,17.544168 14.45701,25.848942 L 14.332797,101.85054 C 14.415277,111.17758 19.282103,120.45041 31.87773,127.21368 L 119.63448,112.23745 C 109.24048,110.32081 101.8092,100.02238 101.89336,91.650248 L 102.10259,28.818568 C 102.19373,20.720808 96.880636,12.573182 87.015246,11.698542 L 0.79114262,5.4829152 z"
       style="fill:#f2f2f2;fill-rule:evenodd;stroke:none;stroke-width:0.5;stroke-linecap:round;stroke-linejoin:round;stroke-miterlimit:4;stroke-dasharray:none;stroke-opacity:1;display:inline"
       inkscape:export-filename="/home/dafeba/DCV/tallerD/bocetos/08-09-22-hastaahora.png"
       inkscape:export-xdpi="57.964222"
       inkscape:export-ydpi="57.964222" />
    <path
       style="fill:url(#linearGradient16345);fill-rule:evenodd;stroke:none;stroke-width:0.5;stroke-linecap:round;stroke-linejoin:round;stroke-miterlimit:4;stroke-dasharray:none;stroke-opacity:1;display:inline"
       d="M 0.79114262,5.4829152 C 10.397277,6.4059022 14.464183,17.544168 14.45701,25.848942 L 102.10259,28.818568 C 102.19373,20.720808 96.880636,12.573182 87.015246,11.698542 L 0.79114262,5.4829152 z"
       id="path16327"
       sodipodi:nodetypes="ccccc"
       inkscape:export-filename="/home/dafeba/DCV/tallerD/bocetos/08-09-22-hastaahora.png"
       inkscape:export-xdpi="57.964222"
       inkscape:export-ydpi="57.964222" />
    <path
       style="fill:url(#linearGradient16347);fill-rule:evenodd;stroke:none;stroke-width:0.5;stroke-linecap:round;stroke-linejoin:round;stroke-miterlimit:4;stroke-dasharray:none;stroke-opacity:1;display:inline"
       d="M 14.332797,101.85054 C 14.415277,111.17758 19.282103,120.45041 31.87773,127.21368 L 119.63448,112.23745 C 109.24048,110.32081 101.8092,100.02238 101.89336,91.650248 L 14.332797,101.85054 z"
       id="path16329"
       sodipodi:nodetypes="ccccc"
       inkscape:export-filename="/home/dafeba/DCV/tallerD/bocetos/08-09-22-hastaahora.png"
       inkscape:export-xdpi="57.964222"
       inkscape:export-ydpi="57.964222" />
    <path
       inkscape:export-ydpi="57.964222"
       inkscape:export-xdpi="57.964222"
       inkscape:export-filename="/home/dafeba/DCV/tallerD/bocetos/08-09-22-hastaahora.png"
       style="fill:none;fill-rule:evenodd;stroke:url(#linearGradient16349);stroke-width:2.66666675;stroke-linecap:round;stroke-linejoin:round;stroke-miterlimit:4;stroke-dasharray:none;stroke-opacity:1;display:inline"
       d="M 1.6750366,5.4046482 C 4.9003426,5.7145422 6.6173296,7.0876352 8.6491966,9.2068082 C 12.668983,13.399288 14.461783,20.165875 14.45701,25.682275 L 14.332797,101.68388 C 14.40629,109.99337 18.277143,118.25985 28.027463,124.74705 C 30.46789,126.357 33.713277,126.357 37.14437,125.98553 L 119.63448,112.07078 C 109.24048,110.15414 101.8092,99.855715 101.89336,91.483582 L 102.10259,28.651902 C 102.19373,20.554142 96.880636,12.406515 87.015246,11.531875 L 9.8308766,5.9679022 L 1.6750366,5.4046482 z"
       id="path16331"
       sodipodi:nodetypes="cscccccccccc" />
    <rect
       style="fill:url(#linearGradient3107);fill-opacity:1;stroke:none;display:inline"
       id="rect28644"
       width="78.166664"
       height="78.166664"
       x="41.418297"
       y="7.6591678"
       rx="4.7293906"
       ry="4.7293906"
       inkscape:export-filename="/home/dafeba/DCV/tallerD/bocetos/08-09-22-hastaahora.png"
       inkscape:export-xdpi="57.964222"
       inkscape:export-ydpi="57.964222" />
    <rect
       style="fill:url(#linearGradient5662);fill-opacity:1;stroke:#000000;stroke-width:1.60000001999999997;stroke-miterlimit:4;stroke-dasharray:none;display:inline"
       id="rect28646"
       width="74.666664"
       height="74.666664"
       x="49.724121"
       y="4.1081433"
       rx="4.5176268"
       ry="4.5176268"
       inkscape:export-filename="/home/dafeba/DCV/tallerD/bocetos/08-09-22-hastaahora.png"
       inkscape:export-xdpi="57.964222"
       inkscape:export-ydpi="57.964222" />
    <path
       style="fill:#ffffff;fill-opacity:1;stroke:none;display:inline"
       id="path4068"
       inkscape:connector-curvature="0"
       d="m 98.242551,10.942303 -17.106824,0.03427 c 1.861855,1.18411 4.329667,3.839231 6.363739,6.876943 2.271974,3.393009 4.080166,7.297306 5.43997,10.708872 l -4.824124,2.805519 15.396148,-0.03427 7.18486,-13.548605 -3.83193,2.566024 -2.42917,-4.618843 c -1.62863,-2.606488 -3.12175,-4.496516 -6.192669,-4.78991 z m -21.178248,0.547418 c -1.044468,-0.02212 -2.157646,0.162748 -3.387151,0.650059 l -7.458575,11.051009 13.138041,8.792907 7.048011,-13.309109 c -1.947824,-2.873673 -4.814292,-7.088871 -9.340326,-7.184866 z m 36.095397,18.783293 -13.24068,8.519198 6.12425,13.274895 5.2689,0.03427 c 3.07704,0.03536 8.02883,-4.498848 7.83492,-7.766498 L 113.1597,30.273014 z m -43.896108,3.318723 -14.301305,0.786914 4.584629,2.497597 -1.539614,3.250296 c -4.968732,10.622741 1.316245,15.802819 8.758693,26.139227 -1.063516,-2.566068 -0.999639,-5.312268 -0.06843,-7.97178 l 6.603234,-14.130237 4.139852,2.15546 -8.177062,-12.727477 z m 28.089404,15.225074 -7.048011,13.445963 7.048011,13.274895 0.03421,-5.474183 3.455584,0 c 11.15021,-0.0055 12.69072,-8.281904 18.06481,-19.98077 -1.68385,2.157441 -4.01958,3.293279 -6.67166,3.592433 l -14.848734,0.03427 -0.03421,-4.892552 z m -11.119435,4.379346 -15.361928,0.513205 -2.394955,4.960979 c -1.402089,2.915079 0.210302,9.675707 3.045014,10.948367 l 14.609228,0 0.102641,-16.422551 z" />
  </g>
</svg>
