<?xml version="1.0" encoding="UTF-8" standalone="no"?>
<!-- Created with Inkscape (http://www.inkscape.org/) -->

<svg
   xmlns:dc="http://purl.org/dc/elements/1.1/"
   xmlns:cc="http://creativecommons.org/ns#"
   xmlns:rdf="http://www.w3.org/1999/02/22-rdf-syntax-ns#"
   xmlns:svg="http://www.w3.org/2000/svg"
   xmlns="http://www.w3.org/2000/svg"
   xmlns:xlink="http://www.w3.org/1999/xlink"
   xmlns:sodipodi="http://sodipodi.sourceforge.net/DTD/sodipodi-0.dtd"
   xmlns:inkscape="http://www.inkscape.org/namespaces/inkscape"
   version="1.0"
   width="128"
   height="128"
   id="svg2408"
   style="display:inline"
   inkscape:version="0.48.3.1 r9886"
   sodipodi:docname="text-x-copying.svg">
  <sodipodi:namedview
     pagecolor="#ffffff"
     bordercolor="#666666"
     borderopacity="1"
     objecttolerance="10"
     gridtolerance="10"
     guidetolerance="10"
     inkscape:pageopacity="0"
     inkscape:pageshadow="2"
     inkscape:window-width="1366"
     inkscape:window-height="721"
     id="namedview70"
     showgrid="false"
     inkscape:zoom="2.4583333"
     inkscape:cx="83.072094"
     inkscape:cy="57.605919"
     inkscape:window-x="0"
     inkscape:window-y="24"
     inkscape:window-maximized="1"
     inkscape:current-layer="svg2408" />
  <defs
     id="defs2410">
    <linearGradient
       x1="45.447727"
       y1="92.539597"
       x2="45.447727"
       y2="7.0165396"
       id="ButtonShadow"
       gradientUnits="userSpaceOnUse"
       gradientTransform="scale(1.0058652,0.994169)">
      <stop
         id="stop3750"
         style="stop-color:#000000;stop-opacity:1"
         offset="0" />
      <stop
         id="stop3752"
         style="stop-color:#000000;stop-opacity:0.58823532"
         offset="1" />
    </linearGradient>
    <linearGradient
       id="linearGradient3700">
      <stop
         id="stop3702"
         style="stop-color:#ebebeb;stop-opacity:1"
         offset="0" />
      <stop
         id="stop3704"
         style="stop-color:#fafafa;stop-opacity:1"
         offset="1" />
    </linearGradient>
    <linearGradient
       x1="48"
       y1="90"
       x2="48"
       y2="5.9877172"
       id="linearGradient3706"
       xlink:href="#linearGradient3700"
       gradientUnits="userSpaceOnUse" />
    <filter
       color-interpolation-filters="sRGB"
       id="filter3174">
      <feGaussianBlur
         id="feGaussianBlur3176"
         stdDeviation="1.71" />
    </filter>
    <linearGradient
       x1="45.447727"
       y1="92.539597"
       x2="45.447727"
       y2="7.0165396"
       id="ButtonShadow-0"
       gradientUnits="userSpaceOnUse"
       gradientTransform="matrix(1.0058652,0,0,0.994169,100,0)">
      <stop
         id="stop3750-8"
         style="stop-color:#000000;stop-opacity:1"
         offset="0" />
      <stop
         id="stop3752-5"
         style="stop-color:#000000;stop-opacity:0.58823532"
         offset="1" />
    </linearGradient>
    <linearGradient
       x1="32.251034"
       y1="6.1317081"
       x2="32.251034"
       y2="90.238609"
       id="linearGradient3780"
       xlink:href="#ButtonShadow-0"
       gradientUnits="userSpaceOnUse"
       gradientTransform="matrix(1.0238095,0,0,1.0119048,-1.1428571,-98.071429)" />
    <linearGradient
       x1="32.251034"
       y1="6.1317081"
       x2="32.251034"
       y2="90.238609"
       id="linearGradient3772"
       xlink:href="#ButtonShadow-0"
       gradientUnits="userSpaceOnUse"
       gradientTransform="matrix(1.0238095,0,0,1.0119048,-1.1428571,-98.071429)" />
    <linearGradient
       x1="32.251034"
       y1="6.1317081"
       x2="32.251034"
       y2="90.238609"
       id="linearGradient3725"
       xlink:href="#ButtonShadow-0"
       gradientUnits="userSpaceOnUse"
       gradientTransform="matrix(1.0238095,0,0,1.0119048,-1.1428571,-98.071429)" />
    <linearGradient
       x1="32.251034"
       y1="6.1317081"
       x2="32.251034"
       y2="90.238609"
       id="linearGradient3721"
       xlink:href="#ButtonShadow-0"
       gradientUnits="userSpaceOnUse"
       gradientTransform="translate(0,-97)" />
    <linearGradient
       x1="32.251034"
       y1="6.1317081"
       x2="32.251034"
       y2="90.238609"
       id="linearGradient3760"
       xlink:href="#ButtonShadow-0"
       gradientUnits="userSpaceOnUse"
       gradientTransform="matrix(1.0238095,0,0,1.0119048,-1.1428571,-98.071429)" />
    <linearGradient
       id="linearGradient3737-1">
      <stop
         id="stop3739-9"
         style="stop-color:#ffffff;stop-opacity:1"
         offset="0" />
      <stop
         id="stop3741-3"
         style="stop-color:#ffffff;stop-opacity:0"
         offset="1" />
    </linearGradient>
    <radialGradient
       cx="48"
       cy="90.171875"
       r="42"
       fx="48"
       fy="90.171875"
       id="radialGradient2886"
       xlink:href="#linearGradient3737-0"
       gradientUnits="userSpaceOnUse"
       gradientTransform="matrix(1.1573129,0,0,0.99590774,-7.551021,0.1971319)" />
    <linearGradient
       id="linearGradient3737-0">
      <stop
         id="stop3739-6"
         style="stop-color:#ffffff;stop-opacity:1"
         offset="0" />
      <stop
         id="stop3741-0"
         style="stop-color:#ffffff;stop-opacity:0"
         offset="1" />
    </linearGradient>
    <linearGradient
       x1="36.357143"
       y1="6"
       x2="36.357143"
       y2="63.893143"
       id="linearGradient3923"
       xlink:href="#linearGradient3737-1"
       gradientUnits="userSpaceOnUse" />
    <linearGradient
       id="linearGradient3697">
      <stop
         id="stop3699"
         style="stop-color:#bababa;stop-opacity:1"
         offset="0" />
      <stop
         id="stop3701"
         style="stop-color:#d2d2d2;stop-opacity:1"
         offset="1" />
    </linearGradient>
    <linearGradient
       x1="48"
       y1="72"
       x2="48"
       y2="23.989584"
       id="linearGradient3845"
       xlink:href="#linearGradient3697"
       gradientUnits="userSpaceOnUse" />
    <clipPath
       id="clipPath3875">
      <path
         d="m -88,6 c -3.324,0 -6,2.676 -6,6 l 0,72 c 0,3.324 2.676,6 6,6 l 72,0 c 3.324,0 6,-2.676 6,-6 l 0,-72 c 0,-3.324 -2.676,-6 -6,-6 l -72,0 z m 36,18 c 13.254834,0 24,10.745166 24,24 0,13.254834 -10.745166,24 -24,24 -13.254834,0 -24,-10.745166 -24,-24 0,-13.254834 10.745166,-24 24,-24 z m 0,6 c -9.941126,0 -18,8.058874 -18,18 0,9.941125 8.058874,18 18,18 9.941125,0 18,-8.058875 18,-18 0,-9.941126 -8.058875,-18 -18,-18 z m 0.46875,4 c 1.776535,2.8e-5 3.330255,0.189194 4.65625,0.5625 1.338829,0.37336 2.503211,0.911477 3.46875,1.59375 0.978367,0.66945 1.77542,1.448127 2.40625,2.375 0.643652,0.914045 1.139513,1.924145 1.5,3.03125 l -5,1.375 c -0.180252,-0.579291 -0.470438,-1.128414 -0.84375,-1.65625 -0.373354,-0.540669 -0.85821,-1.025525 -1.4375,-1.4375 -0.566456,-0.411932 -1.227605,-0.72413 -2,-0.96875 -0.772431,-0.257448 -1.646625,-0.406227 -2.625,-0.40625 -1.377485,2.3e-5 -2.571248,0.236948 -3.5625,0.6875 -0.991275,0.437723 -1.793832,1.082363 -2.4375,1.90625 -0.630813,0.823928 -1.097293,1.810148 -1.40625,2.96875 -0.296099,1.145764 -0.437507,2.4148 -0.4375,3.84375 -7e-6,1.416104 0.141401,2.721893 0.4375,3.90625 0.308957,1.171503 0.762563,2.181603 1.40625,3.03125 0.643668,0.849661 1.495851,1.523683 2.5,2 1.016999,0.476326 2.208894,0.718754 3.625,0.71875 1.068489,4e-6 2.008819,-0.172654 2.78125,-0.46875 0.785268,-0.308961 1.464794,-0.698299 2.03125,-1.1875 0.57929,-0.489189 1.032895,-1.038312 1.40625,-1.65625 0.386185,-0.617923 0.72413,-1.244187 0.96875,-1.875 l 4.9375,1.875 c -0.399108,0.978397 -0.918848,1.935235 -1.5625,2.875 -0.643703,0.939774 -1.440757,1.779083 -2.40625,2.5 -0.96554,0.720921 -2.098671,1.299426 -3.4375,1.75 C -47.888496,61.781451 -49.478968,62 -51.28125,62 c -2.355875,0 -4.399954,-0.336078 -6.125,-1.03125 -1.725065,-0.708045 -3.148383,-1.688762 -4.28125,-2.9375 -1.120004,-1.261604 -1.94644,-2.774936 -2.5,-4.5 -0.540692,-1.725048 -0.812502,-3.609342 -0.8125,-5.65625 -2e-6,-2.124122 0.271808,-4.037798 0.8125,-5.75 0.55356,-1.712163 1.39287,-3.177736 2.5,-4.375 1.10712,-1.21009 2.501056,-2.106296 4.1875,-2.75 1.699299,-0.656524 3.677243,-0.999972 5.96875,-1 z"
         inkscape:connector-curvature="0"
         id="path3877"
         style="fill:#ff00ff;fill-opacity:1;fill-rule:nonzero;stroke:none" />
    </clipPath>
    <filter
       x="-0.14399999"
       y="-0.14399999"
       width="1.288"
       height="1.288"
       color-interpolation-filters="sRGB"
       id="filter3879">
      <feGaussianBlur
         id="feGaussianBlur3881"
         stdDeviation="2.88" />
    </filter>
    <linearGradient
       id="linearGradient3737-9">
      <stop
         id="stop3739-2"
         style="stop-color:#ffffff;stop-opacity:1"
         offset="0" />
      <stop
         id="stop3741-1"
         style="stop-color:#ffffff;stop-opacity:0"
         offset="1" />
    </linearGradient>
    <clipPath
       id="clipPath3613">
      <rect
         width="84"
         height="84"
         rx="6"
         ry="6"
         x="6"
         y="6"
         id="rect3615"
         style="fill:#ffffff;fill-opacity:1;fill-rule:nonzero;stroke:none" />
    </clipPath>
    <filter
       x="-0.192"
       y="-0.192"
       width="1.3839999"
       height="1.3839999"
       color-interpolation-filters="sRGB"
       id="filter3794">
      <feGaussianBlur
         id="feGaussianBlur3796"
         stdDeviation="5.28" />
    </filter>
    <linearGradient
       x1="48"
       y1="20.220806"
       x2="48"
       y2="138.66119"
       id="linearGradient4458"
       xlink:href="#linearGradient3737-9"
       gradientUnits="userSpaceOnUse" />
    <linearGradient
       inkscape:collect="always"
       xlink:href="#linearGradient5439"
       id="linearGradient48897"
       gradientUnits="userSpaceOnUse"
       gradientTransform="matrix(0.587828,0,0,0.587828,-263.28612,102.75828)"
       x1="744.22913"
       y1="713.04987"
       x2="744.22913"
       y2="766.74945" />
    <linearGradient
       id="linearGradient5439">
      <stop
         style="stop-color:#ffffff;stop-opacity:1;"
         offset="0"
         id="stop5441" />
      <stop
         style="stop-color:#000000;stop-opacity:1;"
         offset="1"
         id="stop5443" />
    </linearGradient>
    <linearGradient
       inkscape:collect="always"
       xlink:href="#linearGradient12578"
       id="linearGradient48901"
       gradientUnits="userSpaceOnUse"
       gradientTransform="matrix(0.587828,0,0,0.587828,263.28612,-102.75828)"
       x1="-747.0946"
       y1="-713.92029"
       x2="-747.0946"
       y2="-759.54541" />
    <linearGradient
       id="linearGradient12578">
      <stop
         style="stop-color:#e9b551;stop-opacity:1;"
         offset="0"
         id="stop12580" />
      <stop
         style="stop-color:#b48739;stop-opacity:1;"
         offset="1"
         id="stop12582" />
    </linearGradient>
    <linearGradient
       inkscape:collect="always"
       xlink:href="#linearGradient9863"
       id="linearGradient48907"
       gradientUnits="userSpaceOnUse"
       gradientTransform="matrix(2.6666667,0,0,2.6666667,-2413.8382,-1096.6224)"
       x1="927.93488"
       y1="459.10907"
       x2="927.93488"
       y2="410.98141" />
    <linearGradient
       id="linearGradient9863">
      <stop
         style="stop-color:#2f445a;stop-opacity:1;"
         offset="0"
         id="stop9865" />
      <stop
         style="stop-color:#415f7c;stop-opacity:1"
         offset="1"
         id="stop9867" />
    </linearGradient>
    <linearGradient
       inkscape:collect="always"
       xlink:href="#linearGradient5344"
       id="linearGradient48910"
       gradientUnits="userSpaceOnUse"
       gradientTransform="matrix(2.6666667,0,0,2.6666667,-1293.8382,-1683.1224)"
       x1="519.31262"
       y1="723.67017"
       x2="511.42725"
       y2="667.20789" />
    <linearGradient
       id="linearGradient5344">
      <stop
         style="stop-color:#000000;stop-opacity:1;"
         offset="0"
         id="stop5346" />
      <stop
         style="stop-color:#000000;stop-opacity:0;"
         offset="1"
         id="stop5348" />
    </linearGradient>
    <linearGradient
       inkscape:collect="always"
       xlink:href="#linearGradient5344"
       id="linearGradient48913"
       gradientUnits="userSpaceOnUse"
       gradientTransform="matrix(2.6666667,0,0,2.6666667,-1133.8382,-1417.1628)"
       x1="521.94769"
       y1="480.2771"
       x2="435.38516"
       y2="569.9021" />
    <linearGradient
       id="linearGradient26253">
      <stop
         style="stop-color:#000000;stop-opacity:1;"
         offset="0"
         id="stop26255" />
      <stop
         style="stop-color:#000000;stop-opacity:0;"
         offset="1"
         id="stop26257" />
    </linearGradient>
    <linearGradient
       inkscape:collect="always"
       xlink:href="#linearGradient5362"
       id="linearGradient48916"
       gradientUnits="userSpaceOnUse"
       gradientTransform="matrix(2.6666667,0,0,2.6666667,-1293.8382,-1683.1224)"
       x1="504.91962"
       y1="635.44617"
       x2="504.48212"
       y2="641.10242" />
    <linearGradient
       id="linearGradient5362">
      <stop
         style="stop-color:#ffffff;stop-opacity:1;"
         offset="0"
         id="stop5364" />
      <stop
         style="stop-color:#ffffff;stop-opacity:0;"
         offset="1"
         id="stop5366" />
    </linearGradient>
    <linearGradient
       inkscape:collect="always"
       xlink:href="#linearGradient3737-9"
       id="linearGradient3131"
       gradientUnits="userSpaceOnUse"
       x1="48"
       y1="20.220806"
       x2="48"
       y2="138.66119" />
    <linearGradient
       inkscape:collect="always"
       xlink:href="#linearGradient3700"
       id="linearGradient3133"
       gradientUnits="userSpaceOnUse"
       x1="48"
       y1="90"
       x2="48"
       y2="5.9877172" />
    <linearGradient
       inkscape:collect="always"
       xlink:href="#linearGradient3737-1"
       id="linearGradient3135"
       gradientUnits="userSpaceOnUse"
       x1="36.357143"
       y1="6"
       x2="36.357143"
       y2="63.893143" />
    <radialGradient
       inkscape:collect="always"
       xlink:href="#linearGradient3737-0"
       id="radialGradient3137"
       gradientUnits="userSpaceOnUse"
       gradientTransform="matrix(1.1573129,0,0,0.99590774,-7.551021,0.1971319)"
       cx="48"
       cy="90.171875"
       fx="48"
       fy="90.171875"
       r="42" />
    <linearGradient
       inkscape:collect="always"
       xlink:href="#linearGradient3697"
       id="linearGradient3139"
       gradientUnits="userSpaceOnUse"
       x1="48"
       y1="72"
       x2="48"
       y2="23.989584" />
    <radialGradient
       inkscape:collect="always"
       xlink:href="#linearGradient3737-0"
       id="radialGradient3154"
       gradientUnits="userSpaceOnUse"
       gradientTransform="matrix(1.1573129,0,0,0.99590774,31.093047,49.824251)"
       cx="48"
       cy="90.171875"
       fx="48"
       fy="90.171875"
       r="42" />
    <linearGradient
       inkscape:collect="always"
       xlink:href="#linearGradient3737-1"
       id="linearGradient3157"
       gradientUnits="userSpaceOnUse"
       x1="36.357143"
       y1="6"
       x2="36.357143"
       y2="63.893143"
       gradientTransform="translate(38.644068,49.627119)" />
    <linearGradient
       inkscape:collect="always"
       xlink:href="#linearGradient3700"
       id="linearGradient3160"
       gradientUnits="userSpaceOnUse"
       x1="48"
       y1="90"
       x2="48"
       y2="5.9877172"
       gradientTransform="translate(38.644068,49.627119)" />
  </defs>
  <metadata
     id="metadata2413">
    <rdf:RDF>
      <cc:Work
         rdf:about="">
        <dc:format>image/svg+xml</dc:format>
        <dc:type
           rdf:resource="http://purl.org/dc/dcmitype/StillImage" />
        <dc:title />
      </cc:Work>
    </rdf:RDF>
  </metadata>
  <g
     id="layer2"
     style="display:none"
     transform="translate(0,32)">
    <rect
       width="86"
       height="85"
       rx="6"
       ry="6"
       x="5"
       y="7"
       id="rect3745"
       style="opacity:0.9;fill:url(#ButtonShadow);fill-opacity:1;fill-rule:nonzero;stroke:none;filter:url(#filter3174)" />
  </g>
  <path
     inkscape:connector-curvature="0"
     sodipodi:nodetypes="ccccccccc"
     id="path14242"
     d="M 0.7911669,5.4829421 C 10.397299,6.4059221 14.464206,17.544192 14.457033,25.848962 l -0.124267,76.001598 c 0.0824,9.32704 4.949307,18.59987 17.544933,25.36312 l 87.756751,-14.97621 c -10.394,-1.91664 -17.82528,-12.21507 -17.74112,-20.587198 l 0.20933,-62.83168 c 0.0912,-8.09776 -5.221944,-16.24539 -15.087334,-17.12003 L 0.7912203,5.4829421 z"
     style="fill:#f2f2f2;fill-rule:evenodd;stroke:none;display:inline"
     inkscape:export-filename="/home/dafeba/DCV/tallerD/bocetos/08-09-22-hastaahora.png"
     inkscape:export-xdpi="57.964222"
     inkscape:export-ydpi="57.964222" />
  <path
     inkscape:connector-curvature="0"
     style="fill:url(#linearGradient48916);fill-rule:evenodd;stroke:none;display:inline"
     d="M 0.7911669,5.4829421 C 10.397299,6.4059221 14.464206,17.544192 14.457033,25.848962 l 87.645577,2.96963 c 0.0912,-8.09776 -5.221954,-16.24539 -15.087337,-17.12003 L 0.7911669,5.4829421 z"
     id="path14244"
     sodipodi:nodetypes="ccccc"
     inkscape:export-filename="/home/dafeba/DCV/tallerD/bocetos/08-09-22-hastaahora.png"
     inkscape:export-xdpi="57.964222"
     inkscape:export-ydpi="57.964222" />
  <rect
     style="fill:url(#linearGradient48913);fill-opacity:1;stroke:none;display:inline"
     id="rect14284"
     width="78.166664"
     height="78.166664"
     x="41.355549"
     y="8.4928436"
     rx="4.7293906"
     ry="4.7293906"
     inkscape:export-filename="/home/dafeba/DCV/tallerD/bocetos/08-09-22-hastaahora.png"
     inkscape:export-xdpi="57.964222"
     inkscape:export-ydpi="57.964222" />
  <path
     inkscape:connector-curvature="0"
     style="fill:url(#linearGradient48910);fill-rule:evenodd;stroke:none;display:inline"
     d="m 14.332819,101.85056 c 0.0824,9.32704 4.949307,18.59987 17.544934,25.36312 L 119.6345,112.23747 C 109.2405,110.32083 101.80922,100.0224 101.89338,91.650272 L 14.332819,101.85056 z"
     id="path14246"
     sodipodi:nodetypes="ccccc"
     inkscape:export-filename="/home/dafeba/DCV/tallerD/bocetos/08-09-22-hastaahora.png"
     inkscape:export-xdpi="57.964222"
     inkscape:export-ydpi="57.964222" />
  <path
     inkscape:connector-curvature="0"
     inkscape:export-ydpi="57.964222"
     inkscape:export-xdpi="57.964222"
     inkscape:export-filename="/home/dafeba/DCV/tallerD/bocetos/08-09-22-hastaahora.png"
     style="fill:none;stroke:url(#linearGradient48907);stroke-width:2.66666675;stroke-linecap:round;stroke-linejoin:round;stroke-miterlimit:4;stroke-opacity:1;stroke-dasharray:none;display:inline"
     d="m 1.6750603,5.4046721 c 3.2253072,0.30989 4.9422932,1.68299 6.9741602,3.80216 C 12.669006,13.399312 14.461806,20.165902 14.457033,25.682302 L 14.332766,101.6839 c 0.0736,8.30949 3.944347,16.57597 13.694667,23.06317 2.440426,1.60995 5.685813,1.60995 9.116906,1.23848 L 119.63445,112.0708 c -10.394,-1.91664 -17.82528,-12.215058 -17.74112,-20.587198 l 0.20933,-62.83168 c 0.0912,-8.09776 -5.221944,-16.24538 -15.087334,-17.12002 L 9.8309535,5.9679221 1.6751136,5.4046721 z"
     id="path14248"
     sodipodi:nodetypes="cscccccccccc" />
  <rect
     ry="4.7293906"
     rx="4.7293906"
     y="2.3645859"
     x="47.012367"
     height="78.166664"
     width="78.166664"
     id="rect14280"
     style="fill:#ffffff;fill-opacity:1;stroke:#000000;stroke-width:1.33333337;stroke-miterlimit:4;stroke-dasharray:none;display:inline"
     inkscape:export-filename="/home/dafeba/DCV/tallerD/bocetos/08-09-22-hastaahora.png"
     inkscape:export-xdpi="57.964222"
     inkscape:export-ydpi="57.964222" />
  <path
     style="color:#000000;fill:#000000;fill-opacity:1;fill-rule:nonzero;stroke:none;stroke-width:1;marker:none;visibility:visible;display:inline;overflow:visible;enable-background:accumulate"
     id="path3836"
     inkscape:connector-curvature="0"
     d="m 86.095697,7.0072321 c -19.021061,0 -34.440677,15.4196299 -34.440677,34.4406999 0,19.02104 15.419616,34.44066 34.440677,34.44066 19.021073,0 34.440683,-15.41962 34.440683,-34.44066 0,-19.02107 -15.41961,-34.4406999 -34.440683,-34.4406999 z m 0,8.6101599 c 14.265803,0 25.830523,11.56475 25.830523,25.83054 0,14.26576 -11.56472,25.8305 -25.830523,25.8305 -14.265797,0 -25.830506,-11.56474 -25.830506,-25.8305 0,-14.26579 11.564709,-25.83054 25.830506,-25.83054 z m 0.672672,5.74014 c -3.288378,2e-5 -6.126784,0.49288 -8.565328,1.43501 -2.420093,0.92373 -4.420432,2.20984 -6.009178,3.94635 -1.588763,1.71808 -2.793198,3.82122 -3.587571,6.27824 -0.775909,2.45706 -1.165963,5.20325 -1.16596,8.25141 -3e-6,2.93736 0.390051,5.64139 1.16596,8.11688 0.794373,2.47552 1.980333,4.6472 3.587571,6.45763 1.625696,1.792 3.668197,3.19933 6.143714,4.21538 2.475491,0.9976 5.4088,1.47987 8.78955,1.47987 2.586325,0 4.868696,-0.3136 6.771539,-0.94173 1.92126,-0.64656 3.54733,-1.47675 4.93291,-2.51128 1.385514,-1.03456 2.529304,-2.23899 3.453044,-3.58758 0.92365,-1.34861 1.66949,-2.72168 2.24223,-4.1257 l -7.085464,-2.69067 c -0.35103,0.90523 -0.83599,1.80392 -1.39018,2.69067 -0.53577,0.88677 -1.18671,1.67474 -2.01801,2.37677 -0.812877,0.702 -1.788016,1.26072 -2.914899,1.70408 -1.108458,0.42491 -2.457861,0.67267 -3.99117,0.67267 -2.032155,0 -3.742558,-0.3479 -5.201979,-1.03142 -1.440984,-0.68352 -2.663891,-1.65077 -3.587571,-2.87005 -0.923709,-1.21928 -1.574648,-2.6688 -2.018008,-4.34992 -0.424912,-1.6996 -0.627834,-3.57347 -0.627824,-5.6056 -1e-5,-2.05059 0.202907,-3.87168 0.627824,-5.51589 0.44336,-1.66264 1.112774,-3.07787 2.018008,-4.26024 0.92368,-1.1823 2.075374,-2.10739 3.497883,-2.73552 1.422475,-0.64654 3.135557,-0.98656 5.112285,-0.98659 1.403998,3e-5 2.658491,0.2136 3.766952,0.58299 1.108408,0.35104 2.057174,0.79906 2.870054,1.39018 0.831295,0.59118 1.527085,1.28699 2.062855,2.06286 0.53571,0.75744 0.95214,1.54546 1.21081,2.37677 l 7.175134,-1.97317 c -0.5173,-1.58875 -1.22888,-3.03827 -2.15254,-4.34992 -0.90526,-1.33011 -2.049054,-2.44752 -3.453034,-3.40819 -1.38558,-0.97909 -3.0565,-1.75133 -4.977759,-2.28709 -1.90284,-0.53571 -4.132472,-0.80718 -6.681848,-0.8072 z" />
</svg>
