<?xml version="1.0" encoding="UTF-8" standalone="no"?>
<!-- Created with Inkscape (http://www.inkscape.org/) -->

<svg
   xmlns:dc="http://purl.org/dc/elements/1.1/"
   xmlns:cc="http://creativecommons.org/ns#"
   xmlns:rdf="http://www.w3.org/1999/02/22-rdf-syntax-ns#"
   xmlns:svg="http://www.w3.org/2000/svg"
   xmlns="http://www.w3.org/2000/svg"
   xmlns:xlink="http://www.w3.org/1999/xlink"
   xmlns:sodipodi="http://sodipodi.sourceforge.net/DTD/sodipodi-0.dtd"
   xmlns:inkscape="http://www.inkscape.org/namespaces/inkscape"
   width="128"
   height="128"
   id="svg2"
   sodipodi:version="0.32"
   inkscape:version="0.48.3.1 r9886"
   version="1.0"
   sodipodi:docname="changes-allow-symbolic.svg"
   inkscape:output_extension="org.inkscape.output.svg.inkscape">
  <defs
     id="defs4">
    <linearGradient
       gradientTransform="matrix(2.6765239,0,0,2.6765239,-1298.6766,-2514.3378)"
       y2="983.97821"
       x2="491.67746"
       y1="966.60321"
       x1="492.30246"
       gradientUnits="userSpaceOnUse"
       id="linearGradient14578"
       xlink:href="#linearGradient8702"
       inkscape:collect="always" />
    <linearGradient
       gradientTransform="matrix(2.6765239,0,0,2.6765239,-1298.6766,-2514.3378)"
       y2="1010.736"
       x2="567.06256"
       y1="939.90875"
       x1="499.46854"
       gradientUnits="userSpaceOnUse"
       id="linearGradient14580"
       xlink:href="#linearGradient5439"
       inkscape:collect="always" />
    <linearGradient
       id="linearGradient14474"
       inkscape:collect="always">
      <stop
         id="stop14476"
         offset="0"
         style="stop-color:#ffffff;stop-opacity:1;" />
      <stop
         id="stop14478"
         offset="1"
         style="stop-color:#ffffff;stop-opacity:0;" />
    </linearGradient>
    <linearGradient
       gradientTransform="matrix(2.6765239,0,0,2.6765239,-1298.6766,-2514.3378)"
       y2="979.94238"
       x2="498.06781"
       y1="954.06738"
       x1="500.14951"
       gradientUnits="userSpaceOnUse"
       id="linearGradient14582"
       xlink:href="#linearGradient14474"
       inkscape:collect="always" />
    <linearGradient
       id="linearGradient12578">
      <stop
         id="stop12580"
         offset="0"
         style="stop-color:#e9b551;stop-opacity:1;" />
      <stop
         id="stop12582"
         offset="1"
         style="stop-color:#b48739;stop-opacity:1;" />
    </linearGradient>
    <linearGradient
       gradientTransform="matrix(2.6765239,0,0,2.6765239,-1298.6766,-2514.3378)"
       y2="979.65985"
       x2="526.69824"
       y1="961.28485"
       x1="498.57062"
       gradientUnits="userSpaceOnUse"
       id="linearGradient14584"
       xlink:href="#linearGradient8702"
       inkscape:collect="always" />
    <linearGradient
       y2="966.22015"
       x2="509.94092"
       y1="984.84515"
       x1="529.39545"
       gradientTransform="matrix(2.4139858,0,0,2.4139858,-1163.9011,-2259.2447)"
       gradientUnits="userSpaceOnUse"
       id="linearGradient14586"
       xlink:href="#linearGradient5439"
       inkscape:collect="always" />
    <linearGradient
       gradientTransform="matrix(2.6765239,0,0,2.6765239,-1298.6766,-2134.2714)"
       y2="797.59735"
       x2="511.72525"
       y1="844.99249"
       x1="511.72525"
       gradientUnits="userSpaceOnUse"
       id="linearGradient11258"
       xlink:href="#linearGradient9863"
       inkscape:collect="always" />
    <linearGradient
       gradientTransform="matrix(2.6765239,0,0,2.6765239,-1298.6765,-2514.9867)"
       gradientUnits="userSpaceOnUse"
       y2="1080.5746"
       x2="534.9408"
       y1="931.72864"
       x1="483.88022"
       id="linearGradient13715"
       xlink:href="#linearGradient5439"
       inkscape:collect="always" />
    <linearGradient
       gradientTransform="matrix(2.6765239,0,0,2.6765239,-2476.3471,-2300.8647)"
       gradientUnits="userSpaceOnUse"
       y2="898.96539"
       x2="955.88574"
       y1="894.21539"
       x1="955.30823"
       id="linearGradient7649"
       xlink:href="#linearGradient5316"
       inkscape:collect="always" />
    <linearGradient
       gradientTransform="matrix(2.8141738,0,0,2.8141738,-2606.9423,-2423.786)"
       gradientUnits="userSpaceOnUse"
       y2="893"
       x2="963.625"
       y1="878.0625"
       x1="953.25"
       id="linearGradient7651"
       xlink:href="#linearGradient5316"
       inkscape:collect="always" />
    <linearGradient
       gradientTransform="matrix(2.6765239,0,0,2.6765239,-2476.3471,-2300.8647)"
       gradientUnits="userSpaceOnUse"
       y2="859.4328"
       x2="950.19702"
       y1="906.25275"
       x1="950.19702"
       id="linearGradient11038"
       xlink:href="#linearGradient9863"
       inkscape:collect="always" />
    <linearGradient
       id="linearGradient4395">
      <stop
         style="stop-color:#000000;stop-opacity:0.35099337;"
         offset="0"
         id="stop4397" />
      <stop
         id="stop4399"
         offset="0.45549738"
         style="stop-color:#000000;stop-opacity:0.29139072;" />
      <stop
         style="stop-color:#000000;stop-opacity:0"
         offset="1"
         id="stop4401" />
    </linearGradient>
    <linearGradient
       id="linearGradient7210">
      <stop
         style="stop-color:#75aadb;stop-opacity:1"
         offset="0"
         id="stop7212" />
      <stop
         style="stop-color:#766287;stop-opacity:1;"
         offset="0.5"
         id="stop8994" />
      <stop
         style="stop-color:#766287;stop-opacity:1;"
         offset="1"
         id="stop7214" />
    </linearGradient>
    <linearGradient
       id="linearGradient12594">
      <stop
         id="stop12596"
         offset="0"
         style="stop-color:#e9b551;stop-opacity:1;" />
      <stop
         id="stop12598"
         offset="1"
         style="stop-color:#e9b551;stop-opacity:0;" />
    </linearGradient>
    <linearGradient
       id="linearGradient5316">
      <stop
         style="stop-color:#766287;stop-opacity:1;"
         offset="0"
         id="stop5320" />
      <stop
         style="stop-color:#766287;stop-opacity:1;"
         offset="1"
         id="stop5322" />
    </linearGradient>
    <linearGradient
       id="linearGradient9863">
      <stop
         style="stop-color:#2f445a;stop-opacity:1;"
         offset="0"
         id="stop9865" />
      <stop
         style="stop-color:#415f7c;stop-opacity:1"
         offset="1"
         id="stop9867" />
    </linearGradient>
    <linearGradient
       id="linearGradient12336">
      <stop
         id="stop12338"
         offset="0"
         style="stop-color:#ff6e00;stop-opacity:1;" />
      <stop
         id="stop12340"
         offset="1"
         style="stop-color:#eb2600;stop-opacity:1;" />
    </linearGradient>
    <linearGradient
       id="linearGradient5362">
      <stop
         style="stop-color:#ffffff;stop-opacity:1;"
         offset="0"
         id="stop5364" />
      <stop
         style="stop-color:#ffffff;stop-opacity:0;"
         offset="1"
         id="stop5366" />
    </linearGradient>
    <linearGradient
       id="linearGradient5439">
      <stop
         style="stop-color:#ffffff;stop-opacity:1;"
         offset="0"
         id="stop5441" />
      <stop
         style="stop-color:#000000;stop-opacity:1;"
         offset="1"
         id="stop5443" />
    </linearGradient>
    <linearGradient
       inkscape:collect="always"
       xlink:href="#linearGradient5439"
       id="linearGradient13309"
       gradientUnits="userSpaceOnUse"
       x1="499.90704"
       y1="953.39532"
       x2="652.75177"
       y2="1116.9413"
       gradientTransform="matrix(2.6765239,0,0,2.6765239,-1298.6765,-2514.903)" />
    <linearGradient
       inkscape:collect="always"
       id="linearGradient5398">
      <stop
         style="stop-color:#87c6ff;stop-opacity:1;"
         offset="0"
         id="stop5400" />
      <stop
         style="stop-color:#87c6ff;stop-opacity:0"
         offset="1"
         id="stop5402" />
    </linearGradient>
    <linearGradient
       inkscape:collect="always"
       xlink:href="#linearGradient5398"
       id="linearGradient13322"
       gradientUnits="userSpaceOnUse"
       x1="500.87799"
       y1="948.11993"
       x2="500.87799"
       y2="953.17468"
       gradientTransform="matrix(2.6765239,0,0,2.6765239,-1298.6765,-2514.903)" />
    <linearGradient
       id="linearGradient5344">
      <stop
         style="stop-color:#000000;stop-opacity:1;"
         offset="0"
         id="stop5346" />
      <stop
         style="stop-color:#000000;stop-opacity:0;"
         offset="1"
         id="stop5348" />
    </linearGradient>
    <linearGradient
       inkscape:collect="always"
       xlink:href="#linearGradient5344"
       id="linearGradient13314"
       gradientUnits="userSpaceOnUse"
       x1="544.89001"
       y1="919.05762"
       x2="506.01498"
       y2="969.80762"
       gradientTransform="translate(-485.21014,-859.4386)" />
    <linearGradient
       id="linearGradient8702">
      <stop
         id="stop8704"
         offset="0"
         style="stop-color:#aac736;stop-opacity:1;" />
      <stop
         id="stop8706"
         offset="1"
         style="stop-color:#5d8b2c;stop-opacity:1;" />
    </linearGradient>
    <linearGradient
       inkscape:collect="always"
       xlink:href="#linearGradient8702"
       id="linearGradient13316"
       gradientUnits="userSpaceOnUse"
       gradientTransform="matrix(2.6765239,0,0,2.6765239,-1779.5422,-994.63744)"
       x1="700.13062"
       y1="378.86951"
       x2="707.80457"
       y2="395.74899" />
    <inkscape:perspective
       sodipodi:type="inkscape:persp3d"
       inkscape:vp_x="0 : 526.18109 : 1"
       inkscape:vp_y="0 : 1000 : 0"
       inkscape:vp_z="744.09448 : 526.18109 : 1"
       inkscape:persp3d-origin="372.04724 : 350.78739 : 1"
       id="perspective10" />
    <linearGradient
       inkscape:collect="always"
       xlink:href="#linearGradient9863"
       id="linearGradient3048"
       x1="112.3511"
       y1="25.928946"
       x2="187.58604"
       y2="28.966989"
       gradientUnits="userSpaceOnUse"
       gradientTransform="translate(-80,0)" />
    <linearGradient
       inkscape:collect="always"
       xlink:href="#linearGradient9863"
       id="linearGradient3819"
       gradientUnits="userSpaceOnUse"
       gradientTransform="translate(-80,0)"
       x1="112.3511"
       y1="25.928946"
       x2="187.58604"
       y2="28.966989" />
    <linearGradient
       id="linearGradient12578-1">
      <stop
         id="stop12580-9"
         offset="0"
         style="stop-color:#e9b551;stop-opacity:1;" />
      <stop
         id="stop12582-3"
         offset="1"
         style="stop-color:#b48739;stop-opacity:1;" />
    </linearGradient>
    <linearGradient
       inkscape:collect="always"
       xlink:href="#linearGradient5344-4"
       id="linearGradient14720"
       gradientUnits="userSpaceOnUse"
       x1="265.15753"
       y1="-15.525383"
       x2="110.64523"
       y2="156.47462"
       gradientTransform="matrix(0.877484,0,0,0.877484,-52.384981,-42.139419)" />
    <linearGradient
       id="linearGradient5344-4">
      <stop
         style="stop-color:#000000;stop-opacity:1;"
         offset="0"
         id="stop5346-1" />
      <stop
         style="stop-color:#000000;stop-opacity:0;"
         offset="1"
         id="stop5348-6" />
    </linearGradient>
  </defs>
  <sodipodi:namedview
     id="base"
     pagecolor="#ffffff"
     bordercolor="#666666"
     borderopacity="1.0"
     inkscape:pageopacity="0.0"
     inkscape:pageshadow="2"
     inkscape:zoom="2.5020702"
     inkscape:cx="103.40463"
     inkscape:cy="74.878583"
     inkscape:document-units="px"
     inkscape:current-layer="layer1"
     showgrid="false"
     inkscape:showpageshadow="false"
     inkscape:window-width="1366"
     inkscape:window-height="717"
     inkscape:window-x="0"
     inkscape:window-y="0"
     showguides="true"
     inkscape:guide-bbox="true"
     inkscape:window-maximized="1" />
  <metadata
     id="metadata7">
    <rdf:RDF>
      <cc:Work
         rdf:about="">
        <dc:format>image/svg+xml</dc:format>
        <dc:type
           rdf:resource="http://purl.org/dc/dcmitype/StillImage" />
        <dc:title></dc:title>
      </cc:Work>
    </rdf:RDF>
  </metadata>
  <g
     inkscape:label="Capa 1"
     inkscape:groupmode="layer"
     id="layer1">
    <path
       style="fill:url(#linearGradient14578);fill-rule:evenodd;stroke:none;stroke-width:0.5;stroke-linecap:round;stroke-linejoin:round;stroke-miterlimit:4;stroke-dasharray:none;stroke-opacity:1;display:inline"
       d="M 15.403616,122.06657 C 10.947712,121.12205 8.5891595,117.93961 8.897843,113.01678 L 9.134421,62.094361 C 9.3141496,56.419729 14.691179,51.405784 19.523349,51.316843 L 87.767244,49.628304 L 97.614791,49.651295 C 103.55989,49.477509 109.36634,53.828238 110.36013,61.279815 L 92.863908,107.8811 L 30.084619,125.88846 L 27.362353,125.55298 L 15.403616,122.06657 z"
       id="path14566"
       sodipodi:nodetypes="ccccccccccc" />
    <path
       style="fill:url(#linearGradient14580);fill-opacity:1;fill-rule:evenodd;stroke:none;display:inline"
       d="M 55.811821,2.096532 C 37.233997,2.7632861 32.243555,17.142558 32.209788,29.889859 c 0,1.115967 2.276143,2.363449 4.957599,2.215858 2.695614,-0.155421 4.951126,-1.005545 4.951126,-2.215858 0.261493,-9.809857 4.267436,-17.928902 12.24414,-16.959931 0.02294,1.72e-4 30.054523,2.716506 30.054523,2.716506 8.904902,1.055541 12.219563,10.160781 11.960716,18.568384 l -0.250924,15.891861 c -0.06929,3.325956 1.734334,5.660139 5.060282,5.729434 3.32599,0.06927 6.07836,-2.570761 6.14766,-5.896717 l 0.25092,-15.390012 c 1.9e-4,-0.02789 1.9e-4,-0.05575 0,-0.08364 0.0443,-14.547309 -6.8383,-28.9434478 -21.579468,-30.3618181 z"
       id="path14568"
       sodipodi:nodetypes="ccccccccsccccc"
       inkscape:connector-curvature="0" />
    <path
       sodipodi:nodetypes="ccccccccccc"
       id="path14570"
       d="m 15.403616,122.06657 c -4.455904,-0.94452 -6.814457,-4.12696 -6.505773,-9.04979 L 9.134421,62.094361 C 9.31415,56.419729 14.691179,51.405784 19.523349,51.316843 l 68.243891,-1.688539 9.84755,0.02299 c 5.9451,-0.173786 11.75155,4.176943 12.74534,11.62852 L 92.86391,107.8811 30.08462,125.88846 27.36235,125.55298 15.403616,122.06657 z"
       style="fill:url(#linearGradient14582);fill-rule:evenodd;stroke:none;display:inline"
       inkscape:connector-curvature="0" />
    <path
       style="fill:url(#linearGradient14584);fill-rule:evenodd;stroke:none;stroke-width:0.5;stroke-linecap:round;stroke-linejoin:round;stroke-miterlimit:4;stroke-dasharray:none;stroke-opacity:1;display:inline"
       d="M 21.198505,116.04554 L 21.383158,62.449188 C 21.383158,56.868154 26.218111,51.149105 31.723963,51.189735 L 111.60597,49.434658 C 115.99678,49.490945 119.95881,52.637038 119.95881,58.009451 L 119.89155,102.87921 C 119.91208,108.67988 116.16966,111.58348 110.6841,112.68174 L 31.555823,125.60838 C 24.801079,127.10552 21.406551,121.11445 21.198505,116.04554 z"
       id="path14572"
       sodipodi:nodetypes="ccccccccc" />
    <path
       style="fill:url(#linearGradient14586);fill-rule:evenodd;stroke:none;stroke-width:1px;stroke-linecap:butt;stroke-linejoin:miter;stroke-opacity:1;display:inline"
       d="M 85.307492,100.41373 L 65.934033,102.90445 L 71.136018,90.873176 C 68.32524,91.105793 64.496365,89.098748 64.566169,84.24431 L 64.577651,77.309463 C 64.583486,73.799684 66.369825,70.096151 70.936911,69.78629 L 79.820217,69.289875 C 83.96567,69.289875 86.099074,72.811672 86.099074,76.13562 L 86.005128,82.057001 C 86.005128,86.275149 83.171358,89.512485 79.905063,89.927988 L 85.307492,100.41373 z"
       id="path14574"
       sodipodi:nodetypes="ccccscccccc" />
    <path
       style="fill:none;stroke:url(#linearGradient3819);stroke-width:2.67700005;stroke-miterlimit:4;stroke-dasharray:none;display:inline"
       d="m 55.8125,2.09375 c -18.57782,0.6667541 -21.948567,11.317916 -24.03125,21.875 -1.856876,8.605167 8.92287,11.412479 10.625,3.59375 1.67454,-9.24464 3.99205,-15.593971 11.96875,-14.625 0.0229,1.72e-4 30.03125,2.71875 30.03125,2.71875 8.9049,1.055541 12.2276,10.154897 11.96875,18.5625 l -0.25,15.40625 -67.3125,0.5 -7.59375,0.15625 C 16.38658,50.37019 9.30479,56.387895 9.125,62.0625 L 8.875,113 c -0.30868,4.92282 2.0754,8.08678 6.53125,9.03125 l 11.71875,3.4375 0.25,0.0937 c 0.0509,0.0152 0.10472,-0.0141 0.15625,0 0.52176,0.14279 1.10011,0.22583 1.6875,0.25 l 0.15625,0 0.6875,0.0625 0.25,-0.0625 0.0625,0 c 0.37164,-0.038 0.79298,-0.10002 1.1875,-0.1875 l 79.125,-12.96875 c 5.48557,-1.09826 9.208,-3.98052 9.1875,-9.78125 l 0.0937,-44.90625 c 0,-5.372413 -3.98422,-8.474909 -8.375,-8.53125 l -4.25,0.09375 0.25,-14.96875 c 1.9e-4,-0.02789 1.9e-4,-0.06586 0,-0.09375 C 107.63805,19.921441 100.74117,5.5121203 86,4.09375 l -30.1875,-2 z"
       id="path3044"
       inkscape:connector-curvature="0" />
    <path
       inkscape:connector-curvature="0"
       sodipodi:nodetypes="ccccccc"
       id="path14176"
       d="m 114.31185,56.944559 c 3.34618,6.013867 0.98189,11.682933 -7.16632,11.6496 L 55.455232,68.354692 c -8.80808,-0.03227 -10.487573,-6.198666 -6.50568,-12.030666 l 26.0524,-44.646139 c 3.190453,-5.242133 10.14592,-5.594133 13.67216,0.381867 l 25.637738,44.884805 z"
       style="fill:#000000;fill-opacity:0.58091289;stroke:none;display:inline" />
    <path
       inkscape:connector-curvature="0"
       style="fill:#ff0000;fill-opacity:1;stroke:#000000;stroke-width:1.96931446000000010;stroke-linecap:round;stroke-linejoin:round;stroke-miterlimit:4;stroke-opacity:1;stroke-dashoffset:0;display:inline"
       d="m 123.14286,50.302154 c 3.21827,5.784538 0.94437,11.236538 -6.89248,11.204538 l -49.714481,-0.2304 C 58.064432,61.245359 56.449205,55.314426 60.278859,49.705087 L 85.335419,6.7658873 c 3.068533,-5.04168 9.758133,-5.38072 13.149573,0.3669333 L 123.14286,50.302154 z"
       id="path12249"
       sodipodi:nodetypes="ccccccc" />
    <path
       sodipodi:type="arc"
       style="fill:#ffffff;fill-opacity:1;stroke:#000000;stroke-width:0.50000000000000000;stroke-linecap:round;stroke-linejoin:round;stroke-miterlimit:4;stroke-opacity:1;stroke-dasharray:none;stroke-dashoffset:0;display:inline"
       id="path12263"
       sodipodi:cx="1110.5"
       sodipodi:cy="664.86218"
       sodipodi:rx="3.375"
       sodipodi:ry="3.375"
       d="m 1113.875,664.86218 a 3.375,3.375 0 1 1 -6.75,0 3.375,3.375 0 1 1 6.75,0 z"
       transform="matrix(1.9693144,0,0,1.9693144,-2094.0956,-1258.4044)" />
    <path
       inkscape:connector-curvature="0"
       style="fill:#ffffff;fill-opacity:1;stroke:#000000;stroke-width:0.98465723000000005;stroke-linecap:round;stroke-linejoin:round;stroke-miterlimit:4;stroke-opacity:1;stroke-dasharray:none;stroke-dashoffset:0;display:inline"
       d="m 90.283365,10.785087 4.691014,0 c 2.318133,0 4.18472,1.866133 4.18472,4.184533 l -1.230774,22.6472 c 0,2.318134 -1.86656,4.1848 -4.184693,4.1848 l -2.106453,0 c -2.318374,0 -4.18472,-1.866666 -4.18472,-4.1848 l -1.354027,-22.6472 c 0,-2.3184 1.86664,-4.184533 4.184933,-4.184533 z"
       id="rect12265"
       sodipodi:nodetypes="ccccccccc" />
  </g>
</svg>
