<?xml version="1.0" encoding="UTF-8" standalone="no"?>
<!-- Created with Inkscape (http://www.inkscape.org/) -->

<svg
   xmlns:dc="http://purl.org/dc/elements/1.1/"
   xmlns:cc="http://creativecommons.org/ns#"
   xmlns:rdf="http://www.w3.org/1999/02/22-rdf-syntax-ns#"
   xmlns:svg="http://www.w3.org/2000/svg"
   xmlns="http://www.w3.org/2000/svg"
   xmlns:xlink="http://www.w3.org/1999/xlink"
   xmlns:sodipodi="http://sodipodi.sourceforge.net/DTD/sodipodi-0.dtd"
   xmlns:inkscape="http://www.inkscape.org/namespaces/inkscape"
   width="136.53334"
   height="136.53334"
   id="svg17172"
   version="1.1"
   inkscape:version="0.92.1 r15371"
   sodipodi:docname="gpm-battery-010.svg">
  <defs
     id="defs17174">
    <linearGradient
       inkscape:collect="always"
       xlink:href="#linearGradient13604-6-9"
       id="linearGradient19019"
       gradientUnits="userSpaceOnUse"
       gradientTransform="matrix(2.2760519,0,0,2.2760519,-1108.727,-1133.4708)"
       x1="515.5863"
       y1="952.8299"
       x2="528.09021"
       y2="990.23395" />
    <linearGradient
       id="linearGradient13604-6-9">
      <stop
         id="stop13606-2-92"
         offset="0"
         style="stop-color:#ffffff;stop-opacity:1;" />
      <stop
         id="stop13608-7-53"
         offset="1"
         style="stop-color:#000000;stop-opacity:1;" />
    </linearGradient>
    <linearGradient
       inkscape:collect="always"
       xlink:href="#linearGradient13604-6-9"
       id="linearGradient19022"
       gradientUnits="userSpaceOnUse"
       gradientTransform="matrix(0.322637,-2.6958025,2.8204599,0.20790443,-2820.8475,2250.5817)"
       x1="506.53442"
       y1="958.87305"
       x2="530.64825"
       y2="952.20062" />
    <linearGradient
       inkscape:collect="always"
       xlink:href="#linearGradient13604-6-9"
       id="linearGradient19026"
       gradientUnits="userSpaceOnUse"
       gradientTransform="matrix(2.8444445,0,0,2.8444445,-1403.0282,-1680.5057)"
       x1="514.4931"
       y1="950.51849"
       x2="517.49799"
       y2="967.01849" />
    <linearGradient
       inkscape:collect="always"
       xlink:href="#linearGradient5398-0-3"
       id="linearGradient19029"
       gradientUnits="userSpaceOnUse"
       gradientTransform="matrix(2.8444445,0,0,2.8444445,-207.10439,-1688.206)"
       x1="84.874985"
       y1="974.73438"
       x2="83.03125"
       y2="963.23438" />
    <radialGradient
       inkscape:collect="always"
       xlink:href="#linearGradient12595-4"
       id="radialGradient18951"
       gradientUnits="userSpaceOnUse"
       gradientTransform="matrix(3.0306651,-1.8975751,1.7538504,2.8010996,-1206.0996,-1923.9368)"
       cx="-148.125"
       cy="975.26843"
       fx="-148.125"
       fy="975.26843"
       r="5.875" />
    <linearGradient
       id="linearGradient12595-4">
      <stop
         style="stop-color:#ff0000;stop-opacity:0.8874172;"
         offset="0"
         id="stop12597-9" />
      <stop
         id="stop12603-4"
         offset="0.31688023"
         style="stop-color:#ff0000;stop-opacity:0.41721857;" />
      <stop
         style="stop-color:#ff0000;stop-opacity:0;"
         offset="1"
         id="stop12599-2" />
    </linearGradient>
    <linearGradient
       inkscape:collect="always"
       xlink:href="#linearGradient13604-6-9"
       id="linearGradient19154"
       gradientUnits="userSpaceOnUse"
       gradientTransform="matrix(2.8444445,0,0,2.8444445,-492.80592,-1686.1947)"
       x1="200.4375"
       y1="989.04968"
       x2="189.375"
       y2="972.42468" />
    <linearGradient
       inkscape:collect="always"
       xlink:href="#linearGradient9863-4-19"
       id="linearGradient19157"
       gradientUnits="userSpaceOnUse"
       gradientTransform="matrix(2.8444445,0,0,2.8444445,-811.38366,-1458.639)"
       x1="308.6875"
       y1="907.00311"
       x2="308.6875"
       y2="859.37317" />
    <linearGradient
       id="linearGradient9863-4-19">
      <stop
         style="stop-color:#2f445a;stop-opacity:1;"
         offset="0"
         id="stop9865-0-6" />
      <stop
         style="stop-color:#415f7c;stop-opacity:1"
         offset="1"
         id="stop9867-6-57" />
    </linearGradient>
    <linearGradient
       inkscape:collect="always"
       xlink:href="#linearGradient13604-6-9"
       id="linearGradient19160"
       gradientUnits="userSpaceOnUse"
       gradientTransform="matrix(2.9192873,0,0,2.8633919,-1439.5886,-1704.8162)"
       x1="585.32428"
       y1="1057.6436"
       x2="492.58313"
       y2="945.6142" />
    <linearGradient
       inkscape:collect="always"
       xlink:href="#linearGradient5439-3-3"
       id="linearGradient19163"
       gradientUnits="userSpaceOnUse"
       gradientTransform="matrix(2.8960305,0,0,2.8959107,-1404.6407,-1736.0944)"
       x1="535.57587"
       y1="1000.2343"
       x2="496.84631"
       y2="946.46552" />
    <linearGradient
       id="linearGradient5439-3-3">
      <stop
         style="stop-color:#ffffff;stop-opacity:1;"
         offset="0"
         id="stop5441-29-50" />
      <stop
         style="stop-color:#000000;stop-opacity:1;"
         offset="1"
         id="stop5443-3-4" />
    </linearGradient>
    <linearGradient
       inkscape:collect="always"
       xlink:href="#linearGradient5344-50-4"
       id="linearGradient19166"
       gradientUnits="userSpaceOnUse"
       gradientTransform="matrix(2.8960305,0,0,2.8959107,-1404.6407,-1736.0944)"
       x1="504.93024"
       y1="992.24542"
       x2="497.81961"
       y2="968.64575" />
    <linearGradient
       id="linearGradient5344-50-4">
      <stop
         style="stop-color:#000000;stop-opacity:1;"
         offset="0"
         id="stop5346-2-9" />
      <stop
         style="stop-color:#000000;stop-opacity:0;"
         offset="1"
         id="stop5348-5-9" />
    </linearGradient>
    <linearGradient
       inkscape:collect="always"
       xlink:href="#linearGradient5362-7-4"
       id="linearGradient19169"
       gradientUnits="userSpaceOnUse"
       gradientTransform="matrix(2.8960305,0,0,2.8959107,-1404.6407,-1736.0944)"
       x1="502.97885"
       y1="936.30072"
       x2="499.43576"
       y2="956.01135" />
    <linearGradient
       id="linearGradient5362-7-4">
      <stop
         style="stop-color:#ffffff;stop-opacity:1;"
         offset="0"
         id="stop5364-61-9" />
      <stop
         style="stop-color:#ffffff;stop-opacity:0;"
         offset="1"
         id="stop5366-8-5" />
    </linearGradient>
    <linearGradient
       inkscape:collect="always"
       xlink:href="#linearGradient13604-6-9"
       id="linearGradient19172"
       gradientUnits="userSpaceOnUse"
       gradientTransform="matrix(2.8960305,0,0,2.8959107,-1404.6407,-1736.0944)"
       x1="506.14658"
       y1="891.09094"
       x2="484.66602"
       y2="986.18469" />
    <linearGradient
       inkscape:collect="always"
       id="linearGradient5398-0-3">
      <stop
         style="stop-color:#766287;stop-opacity:1"
         offset="0"
         id="stop5400-0-6" />
      <stop
         style="stop-color:#766287;stop-opacity:0"
         offset="1"
         id="stop5402-5-7" />
    </linearGradient>
  </defs>
  <sodipodi:namedview
     id="base"
     pagecolor="#ffffff"
     bordercolor="#666666"
     borderopacity="1.0"
     inkscape:pageopacity="0.0"
     inkscape:pageshadow="2"
     inkscape:zoom="2.8"
     inkscape:cx="44.114331"
     inkscape:cy="67.186095"
     inkscape:document-units="px"
     inkscape:current-layer="layer1"
     showgrid="false"
     inkscape:showpageshadow="false"
     inkscape:window-width="1366"
     inkscape:window-height="714"
     inkscape:window-x="0"
     inkscape:window-y="26"
     inkscape:window-maximized="1" />
  <metadata
     id="metadata17177">
    <rdf:RDF>
      <cc:Work
         rdf:about="">
        <dc:format>image/svg+xml</dc:format>
        <dc:type
           rdf:resource="http://purl.org/dc/dcmitype/StillImage" />
        <dc:title />
      </cc:Work>
    </rdf:RDF>
  </metadata>
  <g
     inkscape:label="Capa 1"
     inkscape:groupmode="layer"
     id="layer1"
     transform="translate(0,-985.98631)">
    <path
       inkscape:connector-curvature="0"
       inkscape:export-ydpi="90.041016"
       inkscape:export-xdpi="90.041016"
       inkscape:export-filename="/home/dafeba/DCV/tallerD/bocetos/bateria.png"
       sodipodi:nodetypes="csssssc"
       id="path66194"
       d="m 108.27782,1049.9957 c -0.81095,31.8398 -16.618368,62.6006 -43.787371,62.7808 -11.464811,0.077 -24.136533,-2.7161 -32.330805,-7.1535 -16.934966,-9.1707 -26.7733346,-29.1993 -26.7926732,-51.572 -0.02272,-26.8078 13.8419212,-51.1249 35.6789982,-59.43611 6.376107,-2.42659 18.866069,-4.50048 27.715989,-4.40888 23.069579,0.23608 39.515862,26.32759 39.515862,59.78969 z"
       style="display:inline;fill:url(#linearGradient19172);fill-opacity:1;stroke:none;stroke-width:1.06666672" />
    <path
       inkscape:connector-curvature="0"
       inkscape:export-ydpi="90.041016"
       inkscape:export-xdpi="90.041016"
       inkscape:export-filename="/home/dafeba/DCV/tallerD/bocetos/bateria.png"
       style="display:inline;fill:url(#linearGradient19169);fill-opacity:1;stroke:none;stroke-width:1.06666672"
       d="M 57.857489,1052.6032 8.2515148,1033.028 c 4.8500702,-16.9862 15.5972272,-30.9999 30.5743692,-37.51426 6.948128,-3.02194 18.006186,-5.45394 26.60864,-4.79573 54.247816,-6.94013 25.567861,62.83519 -7.577035,61.88519 z"
       id="path66196"
       sodipodi:nodetypes="ccscc" />
    <path
       inkscape:connector-curvature="0"
       inkscape:export-ydpi="90.041016"
       inkscape:export-xdpi="90.041016"
       inkscape:export-filename="/home/dafeba/DCV/tallerD/bocetos/bateria.png"
       style="display:inline;fill:url(#linearGradient19166);fill-opacity:1;stroke:none;stroke-width:1.06666672"
       d="m 65.514449,1112.7765 c -8.476437,1.2184 -20.274624,-2.0002 -27.070005,-4.3752 -16.731595,-5.8479 -27.963734,-21.3238 -31.7053132,-40.202 -0.901408,-4.5477 22.1815472,-1.1019 36.7681392,0.6978 34.385632,-2.0393 77.95768,27.8206 22.007179,43.8794 z"
       id="path66198"
       sodipodi:nodetypes="csscc" />
    <path
       inkscape:connector-curvature="0"
       inkscape:export-ydpi="90.041016"
       inkscape:export-xdpi="90.041016"
       inkscape:export-filename="/home/dafeba/DCV/tallerD/bocetos/bateria.png"
       style="display:inline;fill:url(#linearGradient19163);fill-opacity:1;stroke:none;stroke-width:1.06666672"
       d="m 117.49951,1050.2463 c -0.81123,32.7057 -18.288912,57.4575 -45.080453,62.065 -35.822368,6.161 -58.368,-23.5427 -58.400139,-57.6434 -0.03328,-35.4764 23.552,-66.70645 57.949291,-64.00337 27.086795,2.12793 45.531301,25.21007 45.531301,59.58177 z"
       id="path66200"
       sodipodi:nodetypes="csssc" />
    <path
       inkscape:connector-curvature="0"
       style="display:inline;fill:url(#linearGradient19160);fill-opacity:1;stroke:none;stroke-width:1.06666672"
       d="m 113.95918,1050.8686 c -0.76866,30.4009 -17.331824,53.4085 -42.721734,57.6914 -33.948106,5.7267 -55.314058,-21.8837 -55.344416,-53.5814 -0.03189,-32.9765 22.319392,-62.00609 54.917035,-59.49302 25.669888,1.97774 43.149115,23.43342 43.149115,55.38302 z"
       id="path66202"
       sodipodi:nodetypes="csssc"
       inkscape:export-filename="/home/dafeba/DCV/tallerD/bocetos/bateria.png"
       inkscape:export-xdpi="90.041016"
       inkscape:export-ydpi="90.041016" />
    <path
       inkscape:connector-curvature="0"
       inkscape:export-ydpi="90.041016"
       inkscape:export-xdpi="90.041016"
       inkscape:export-filename="/home/dafeba/DCV/tallerD/bocetos/bateria.png"
       sodipodi:nodetypes="csssccccc"
       id="path66204"
       d="m 65.327569,990.24981 c -8.406752,0.36864 -18.687712,2.23204 -24.266805,4.35569 -21.837366,8.3112 -35.7563746,32.6588 -35.7333346,59.4665 0.019947,22.3728 9.9094726,42.3845 26.8444486,51.5556 4.033131,2.184 9.404864,4.2901 14.923659,5.5148 7.494827,1.7852 16.674133,2.3006 25.343147,1.152 26.791541,-4.6077 44.255276,-29.339 45.066526,-62.0447 0,-32.6816 -16.60928,-55.48405 -41.533438,-59.44437 -3.521707,-0.58255 -7.089494,-0.55552 -10.644203,-0.55552 z"
       style="display:inline;fill:none;stroke:url(#linearGradient19157);stroke-width:2.84444451;stroke-linecap:round;stroke-linejoin:round;stroke-miterlimit:4;stroke-dasharray:none;stroke-dashoffset:0;stroke-opacity:1" />
    <path
       style="color:#000000;font-style:normal;font-variant:normal;font-weight:normal;font-stretch:normal;font-size:medium;line-height:normal;font-family:'Bitstream Vera Sans';-inkscape-font-specification:'Bitstream Vera Sans';text-indent:0;text-align:start;text-decoration:none;text-decoration-line:none;letter-spacing:normal;word-spacing:normal;text-transform:none;writing-mode:lr-tb;direction:ltr;baseline-shift:baseline;text-anchor:start;display:inline;overflow:visible;visibility:visible;fill:url(#linearGradient19154);fill-opacity:1;fill-rule:nonzero;stroke:none;stroke-width:0.99049908px;marker:none;enable-background:accumulate"
       d="m 56.082982,1077.8052 v 0.089 c -0.730197,0.1621 -1.360064,0.6056 -1.688885,1.1554 -0.316672,0.5297 -0.400725,1.0909 -0.355552,1.689 h -0.08875 v 4.6222 c -0.416746,0.037 -0.82768,0.1394 -1.244448,0.1765 8e-4,-1.5267 0.01141,-3.0838 0,-4.6223 v -0.089 c -0.109792,-2.1753 -2.769269,-3.1385 -4.355552,-1.6887 h -0.08875 c -0.60175,0.5894 -0.861675,1.4018 -0.888896,1.9556 -0.02848,0.5748 0.01419,1.0476 0,1.2444 v 0.089 3.5556 c -0.472342,0.031 -0.887862,0.082 -1.422219,0.1764 h -0.08875 -0.08875 c -0.93679,0.2816 -1.506102,1.161 -1.688886,1.8667 -0.173802,0.6702 -0.137674,1.2252 -0.08875,1.6888 0.0011,0.029 -0.0011,0.06 0,0.089 0.128853,2.8721 0.77312,6.1438 3.2,8.4446 v 0.089 c 2.847168,2.6708 7.186282,2.6292 10.311104,0.7112 3.123285,-1.8512 4.640853,-5.2315 5.155562,-8.4446 v -0.089 c 0.151318,-1.0923 0.327595,-2.283 0.177771,-3.6443 v -0.089 -0.089 c -0.198539,-0.793 -0.798891,-1.3989 -1.422219,-1.6887 -0.539904,-0.2504 -1.127509,-0.3471 -1.688885,-0.2674 h -0.266528 -0.177781 c 0.0032,-1.5127 0.0304,-3.0817 0,-4.6222 v -0.089 c -0.213334,-1.4748 -1.579744,-2.4647 -3.022219,-2.2224 -0.06347,0 -0.114059,0 -0.177781,0 z m 4,9.5113 c 0.0432,0 0.128,0 0.177782,0 -0.01707,0 -0.07083,0.091 -0.08875,0.089 0.02848,0 0.06624,0 0.08875,0 0.05003,0.8277 -0.03445,1.7207 -0.177782,2.7557 -0.24433,1.525 -0.89056,2.9202 -1.688885,4.1776 v -0.1763 c 1.049003,-1.5889 1.650741,-3.563 1.688885,-5.2442 l 0.08875,-1.5113 h -0.177771 l 0.08875,-0.089 z m -0.17777,0.089 -1.333334,0.1764 c -0.162421,0.029 -0.398485,0.072 -0.711114,0.089 -0.256288,0 -0.530603,0.051 -0.8,0.088 -0.0592,0 -0.113494,0 -0.177782,0 -0.08789,0 -0.178624,0 -0.266517,0 v -0.088 l 1.422219,-0.1765 1.866666,-0.089 z m -13.333334,1.3336 c 0.05003,0 0.126294,0 0.177771,0 l 0.08875,1.2443 c 0.117194,1.302 0.36224,2.704 0.8,4.089 -0.58336,-1.3648 -1.000448,-2.8505 -1.066667,-4.4445 v -0.089 c -0.03381,-0.3123 -0.02848,-0.6363 0,-0.7999 z m 10.4,1.6 c -0.261973,1.1192 -0.457642,2.4646 -0.888896,2.9331 l -0.08875,0.089 c -0.75551,1.1042 -2.178923,1.7577 -3.555552,1.6891 h -0.08875 c -0.952629,0.029 -1.973472,-0.7561 -2.222219,-1.6891 -0.23296,-0.717 -0.339349,-1.59 -0.444448,-2.3998 0.455904,-0.043 0.876971,-0.037 1.333334,-0.088 v 0.088 c 2.010624,-0.1679 4.002016,-0.4676 5.955552,-0.6224 z m -9.244448,3.822 c 0.270507,0.9167 0.816864,1.7072 1.511115,2.3111 -0.07221,-0.06 -0.197973,-0.029 -0.266528,-0.089 -0.60752,-0.576 -0.891733,-1.4301 -1.244448,-2.2222 z m 8.977782,2.0446 c -0.200822,0.1564 -0.314198,0.4033 -0.533334,0.5334 v 0.089 c -0.07883,0.048 -0.185173,0.043 -0.266528,0.089 0.312267,-0.165 0.516982,-0.4958 0.8,-0.7111 z"
       id="path66206"
       inkscape:connector-curvature="0"
       inkscape:export-filename="/home/dafeba/DCV/tallerD/bocetos/bateria.png"
       inkscape:export-xdpi="90.041016"
       inkscape:export-ydpi="90.041016" />
    <path
       style="color:#000000;font-style:normal;font-variant:normal;font-weight:normal;font-stretch:normal;font-size:medium;line-height:normal;font-family:'Bitstream Vera Sans';-inkscape-font-specification:'Bitstream Vera Sans';text-indent:0;text-align:start;text-decoration:none;text-decoration-line:none;letter-spacing:normal;word-spacing:normal;text-transform:none;writing-mode:lr-tb;direction:ltr;baseline-shift:baseline;text-anchor:start;display:inline;overflow:visible;visibility:visible;fill:#ff0000;fill-opacity:1;stroke:none;stroke-width:0.99049908px;marker:none;enable-background:accumulate"
       d="m 55.905212,1079.4052 c -0.767296,0.1224 -1.16352,0.9265 -1.066667,1.6435 0,1.9412 0,3.8822 0,5.8232 -1.303701,0.1195 -2.607424,0.2362 -3.911115,0.3556 -0.0053,-1.9997 0.0085,-4.0002 -0.0053,-5.9996 -0.05291,-1.047 -1.468875,-1.5976 -2.215061,-0.8612 -0.66719,0.6025 -0.383659,1.5488 -0.44495,2.3373 0,1.5968 0,3.1934 0,4.7903 -0.854645,0.088 -1.723626,0.085 -2.56817,0.236 -0.971062,0.2931 -0.968192,1.4266 -0.878987,2.2477 0.113493,2.7322 0.731531,5.6992 2.793248,7.6539 2.331051,2.1866 6.106219,2.2055 8.749248,0.5834 2.658507,-1.5755 4.052651,-4.6063 4.525568,-7.5586 0.154176,-1.1132 0.340117,-2.2556 0.216747,-3.3766 -0.193707,-0.774 -1.052694,-1.0798 -1.768758,-0.9162 -0.60817,0.051 -1.216309,0.1024 -1.82448,0.1508 -0.01141,-2.0134 0.02272,-4.0292 -0.01707,-6.0411 -0.10464,-0.7233 -0.871595,-1.2421 -1.582144,-1.0701 z m 0.711104,15.0224 c -1.039158,1.5186 -2.881504,2.3521 -4.703627,2.261 -1.603019,0.034 -3.094613,-1.118 -3.505952,-2.6607 -0.405899,-1.2498 -0.562059,-2.563 -0.679307,-3.8669 0.903734,-0.082 1.8176,-0.1593 2.709472,-0.2589 2.074539,-0.1735 4.157355,-0.4054 6.225067,-0.5632 0.330752,-0.063 1.15968,-0.068 1.674016,-0.1422 -0.0384,1.6927 -0.632064,4.0513 -1.719669,5.233 z"
       id="path66210"
       inkscape:connector-curvature="0"
       sodipodi:nodetypes="ccccccccccccccccccccccccccc"
       inkscape:export-filename="/home/dafeba/DCV/tallerD/bocetos/bateria.png"
       inkscape:export-xdpi="90.041016"
       inkscape:export-ydpi="90.041016" />
    <circle
       id="path66446"
       style="color:#000000;display:inline;overflow:visible;visibility:visible;fill:url(#radialGradient18951);fill-opacity:1;fill-rule:nonzero;stroke:none;stroke-width:20.5045166;marker:none;enable-background:accumulate"
       cx="55.458111"
       cy="1087.5773"
       r="20.077339" />
    <path
       id="path66550"
       d="m 64.006726,995.97169 c -0.790581,0.0341 -1.535402,0.1024 -2.311114,0.17636 l 2.933333,21.42235 c 0.510101,-0.028 0.989984,-0.099 1.511115,-0.088 0.545194,0 1.043626,0.043 1.6,0.088 1.901429,0.1536 3.70401,0.5032 5.422218,1.0667 l 4.444448,-21.06683 c -2.576501,-0.73728 -5.288618,-1.19837 -8.088885,-1.42222 -0.942933,-0.0768 -1.920373,-0.16213 -2.844448,-0.17636 -0.8952,-0.0285 -1.789867,-0.037 -2.666667,0 z m -5.155552,0.53333 c -5.060554,0.84026 -9.785429,2.58248 -14.044448,5.06678 l 0.08875,0.1764 9.244448,18.6667 c 2.343648,-1.2684 4.924469,-2.1305 7.644437,-2.578 l -2.933333,-21.33329 z m 21.422219,1.95557 -4.444448,21.33331 c 2.414421,1.156 4.654251,2.6832 6.577781,4.6222 l 10.755552,-18.1333 c -3.774037,-3.4204 -8.084906,-6.0709 -12.888885,-7.82221 z"
       style="display:inline;fill:#000000;fill-opacity:1;stroke:none;stroke-width:1.06666672"
       inkscape:connector-curvature="0"
       inkscape:export-filename="/home/dafeba/DCV/tallerD/bocetos/bateria.png"
       inkscape:export-xdpi="90.041016"
       inkscape:export-ydpi="90.041016" />
    <path
       id="path66552"
       d="m 42.406726,1003.1718 c -3.731285,2.5248 -7.105994,5.6667 -10.044448,9.2445 l 13.955563,14.4887 c 1.591179,-1.9026 3.362187,-3.5965 5.333333,-4.9777 z m -11.822218,11.4666 c -2.687488,3.6682 -4.846368,7.874 -6.666667,12.2666 l 17.066667,8.8889 c 0.977258,-2.3566 2.16928,-4.5679 3.555552,-6.5778 z m -7.82223,14.9333 c -1.373034,3.7968 -2.426645,7.779 -3.111104,11.9111 l 18.755552,3.3778 c 0.364406,-2.2136 0.914774,-4.3395 1.6,-6.4 z"
       style="display:inline;fill:#000000;fill-opacity:1;stroke:none;stroke-width:1.06666672"
       inkscape:connector-curvature="0"
       inkscape:export-filename="/home/dafeba/DCV/tallerD/bocetos/bateria.png"
       inkscape:export-xdpi="90.041016"
       inkscape:export-ydpi="90.041016" />
    <path
       id="path66554"
       d="m 95.295612,1008.3274 -10.933334,18.3111 c 1.338827,1.7089 2.488832,3.6619 3.466667,5.7776 l 15.111115,-12.8887 c -2.11695,-4.2328 -4.613632,-8.0242 -7.644448,-11.2 z m 8.977778,13.8667 -15.288882,13.0665 c 0.816661,2.3111 1.484,4.7875 1.866666,7.4667 l 17.688876,-5.3334 c -0.84272,-5.5327 -2.29967,-10.6317 -4.26666,-15.1998 z m 4.62222,18.1333 -17.688884,5.4221 c 0.09557,1.2481 0.08875,2.5085 0.08875,3.8223 -0.03211,1.3503 -0.135115,2.7025 -0.266528,3.9999 l 17.955552,2.5779 c 0.2395,-2.2297 0.38772,-4.5192 0.44444,-6.8446 0,-3.1141 -0.2102,-6.0822 -0.53333,-8.9776 z"
       style="display:inline;fill:#000000;fill-opacity:1;stroke:none;stroke-width:1.06666672"
       inkscape:connector-curvature="0"
       inkscape:export-filename="/home/dafeba/DCV/tallerD/bocetos/bateria.png"
       inkscape:export-xdpi="90.041016"
       inkscape:export-ydpi="90.041016" />
    <path
       id="path66556"
       d="m 19.206726,1044.3273 c -0.361984,2.9206 -0.536117,5.878 -0.533333,8.8888 0.0021,1.7238 0.05035,3.462 0.177781,5.1556 l 19.022219,-3.2888 c -0.07712,-1.0331 -0.08789,-2.0596 -0.08875,-3.1112 -0.0011,-1.4345 0.0432,-2.8644 0.177782,-4.2667 l -18.755563,-3.3777 z m 19.022219,13.6001 -19.022219,3.2887 c 0.508107,4.294 1.377398,8.4188 2.666667,12.3557 l 17.777781,-9.2444 c -0.65568,-2.0403 -1.105781,-4.1956 -1.422229,-6.4 z m 2.4,9.0667 -17.777771,9.2444 c 1.861312,4.8822 4.274027,9.4165 7.288886,13.3333 l 14.577781,-15.4666 c -1.630464,-2.1208 -3.012949,-4.4971 -4.088896,-7.1111 z"
       style="display:inline;fill:url(#linearGradient19029);fill-opacity:1;stroke:none;stroke-width:1.06666672"
       inkscape:connector-curvature="0"
       inkscape:export-filename="/home/dafeba/DCV/tallerD/bocetos/bateria.png"
       inkscape:export-xdpi="90.041016"
       inkscape:export-ydpi="90.041016" />
    <path
       sodipodi:nodetypes="csssc"
       id="path66566"
       d="m 73.766182,1057.2601 c -0.12544,5.0611 -2.830272,8.8917 -6.976341,9.6045 -5.543648,0.9535 -9.03264,-3.6431 -9.037621,-8.9204 -0.0053,-5.4901 3.644757,-10.3231 8.96785,-9.9047 4.191776,0.3294 7.046112,3.9015 7.046112,9.2206 z"
       style="display:inline;fill:url(#linearGradient19026);fill-opacity:1;stroke:none;stroke-width:1.06666672"
       inkscape:export-filename="/home/dafeba/DCV/tallerD/bocetos/bateria.png"
       inkscape:export-xdpi="90.041016"
       inkscape:export-ydpi="90.041016"
       inkscape:connector-curvature="0" />
    <path
       style="display:inline;fill:#000000;fill-opacity:0.37004406;stroke:none;stroke-width:1.06666672"
       d="m 23.76327,1072.9171 c 0.429344,1.8972 3.854934,1.1514 7.061504,0.4156 l 34.583328,-7.9344 c 3.879478,-0.8698 4.311723,-5.4531 3.477526,-7.5594 -0.98944,-2.4982 -4.125355,-5.5441 -8.249312,-3.7313 l -31.234272,14.536 c -3.006752,1.2177 -5.970667,2.4462 -5.638742,4.2735 z"
       id="path66568"
       inkscape:connector-curvature="0"
       sodipodi:nodetypes="cccsccc"
       inkscape:transform-center-x="6.7370988"
       inkscape:transform-center-y="1.4326614"
       inkscape:export-filename="/home/dafeba/DCV/tallerD/bocetos/bateria.png"
       inkscape:export-xdpi="90.041016"
       inkscape:export-ydpi="90.041016" />
    <path
       inkscape:export-ydpi="90.041016"
       inkscape:export-xdpi="90.041016"
       inkscape:export-filename="/home/dafeba/DCV/tallerD/bocetos/bateria.png"
       inkscape:transform-center-y="2.2031049"
       inkscape:transform-center-x="6.8185882"
       sodipodi:nodetypes="csccscc"
       inkscape:connector-curvature="0"
       id="path66570"
       d="m 24.037564,1068.8583 c -1.369238,0.445 -2.012704,1.4504 -1.854752,2.4622 0.155594,0.995 1.095392,1.8176 2.91937,1.4145 l 38.124854,-8.568 c 3.879477,-0.8699 4.31169,-5.4534 3.477504,-7.5594 -0.989472,-2.4983 -3.924278,-4.5867 -8.048267,-2.7736 z"
       style="display:inline;fill:url(#linearGradient19022);stroke:none;stroke-width:1.06666672" />
    <path
       inkscape:connector-curvature="0"
       inkscape:export-ydpi="90.041016"
       inkscape:export-xdpi="90.041016"
       inkscape:export-filename="/home/dafeba/DCV/tallerD/bocetos/bateria.png"
       style="display:inline;fill:url(#linearGradient19019);fill-opacity:1;stroke:none;stroke-width:1.06666672"
       d="m 72.966182,1057.2194 c -0.100373,4.0499 -2.264714,7.1151 -5.582272,7.6857 -4.435914,0.7629 -7.227712,-2.9153 -7.23169,-7.1381 -0.0053,-4.393 2.916437,-8.2603 7.17585,-7.9255 3.354144,0.2645 5.638112,3.1218 5.638112,7.3779 z"
       id="path66572"
       sodipodi:nodetypes="csssc" />
  </g>
</svg>
