<?xml version="1.0" encoding="UTF-8" standalone="no"?>
<!-- Created with Inkscape (http://www.inkscape.org/) -->

<svg
   xmlns:dc="http://purl.org/dc/elements/1.1/"
   xmlns:cc="http://creativecommons.org/ns#"
   xmlns:rdf="http://www.w3.org/1999/02/22-rdf-syntax-ns#"
   xmlns:svg="http://www.w3.org/2000/svg"
   xmlns="http://www.w3.org/2000/svg"
   xmlns:xlink="http://www.w3.org/1999/xlink"
   xmlns:sodipodi="http://sodipodi.sourceforge.net/DTD/sodipodi-0.dtd"
   xmlns:inkscape="http://www.inkscape.org/namespaces/inkscape"
   width="128"
   height="128"
   id="svg17172"
   version="1.1"
   inkscape:version="0.48.3.1 r9886"
   sodipodi:docname="gpm-battery-040.svg">
  <defs
     id="defs17174">
    <linearGradient
       id="linearGradient9863-4">
      <stop
         style="stop-color:#2f445a;stop-opacity:1;"
         offset="0"
         id="stop9865-0" />
      <stop
         style="stop-color:#415f7c;stop-opacity:1"
         offset="1"
         id="stop9867-6" />
    </linearGradient>
    <linearGradient
       id="linearGradient5344-50">
      <stop
         style="stop-color:#000000;stop-opacity:1;"
         offset="0"
         id="stop5346-2" />
      <stop
         style="stop-color:#000000;stop-opacity:0;"
         offset="1"
         id="stop5348-5" />
    </linearGradient>
    <linearGradient
       id="linearGradient17081">
      <stop
         style="stop-color:#000000;stop-opacity:1;"
         offset="0"
         id="stop17083" />
      <stop
         style="stop-color:#000000;stop-opacity:0;"
         offset="1"
         id="stop17085" />
    </linearGradient>
    <linearGradient
       id="linearGradient5316-0">
      <stop
         style="stop-color:#766287;stop-opacity:1;"
         offset="0"
         id="stop5320-8" />
      <stop
         style="stop-color:#766287;stop-opacity:1;"
         offset="1"
         id="stop5322-1" />
    </linearGradient>
    <linearGradient
       id="linearGradient17092">
      <stop
         style="stop-color:#766287;stop-opacity:1;"
         offset="0"
         id="stop17094" />
      <stop
         style="stop-color:#766287;stop-opacity:1;"
         offset="1"
         id="stop17096" />
    </linearGradient>
    <linearGradient
       id="linearGradient13604-6">
      <stop
         id="stop13606-2"
         offset="0"
         style="stop-color:#ffffff;stop-opacity:1;" />
      <stop
         id="stop13608-7"
         offset="1"
         style="stop-color:#000000;stop-opacity:1;" />
    </linearGradient>
    <linearGradient
       id="linearGradient13620-8">
      <stop
         id="stop13622-7"
         offset="0"
         style="stop-color:#000000;stop-opacity:1;" />
      <stop
         id="stop13624-6"
         offset="1"
         style="stop-color:#000000;stop-opacity:0;" />
    </linearGradient>
    <linearGradient
       id="linearGradient17107">
      <stop
         style="stop-color:#000000;stop-opacity:1;"
         offset="0"
         id="stop17109" />
      <stop
         style="stop-color:#000000;stop-opacity:0;"
         offset="1"
         id="stop17111" />
    </linearGradient>
    <linearGradient
       id="linearGradient17118">
      <stop
         id="stop17120"
         offset="0"
         style="stop-color:#ffffff;stop-opacity:1;" />
      <stop
         id="stop17122"
         offset="1"
         style="stop-color:#000000;stop-opacity:1;" />
    </linearGradient>
    <linearGradient
       id="linearGradient17125">
      <stop
         id="stop17127"
         offset="0"
         style="stop-color:#ffffff;stop-opacity:1;" />
      <stop
         id="stop17129"
         offset="1"
         style="stop-color:#000000;stop-opacity:1;" />
    </linearGradient>
    <linearGradient
       id="linearGradient17136">
      <stop
         style="stop-color:#766287;stop-opacity:1;"
         offset="0"
         id="stop17138" />
      <stop
         style="stop-color:#766287;stop-opacity:1;"
         offset="1"
         id="stop17140" />
    </linearGradient>
    <linearGradient
       id="linearGradient14769-9">
      <stop
         style="stop-color:#000000;stop-opacity:1;"
         offset="0"
         id="stop14771-3" />
      <stop
         style="stop-color:#000000;stop-opacity:0;"
         offset="1"
         id="stop14773-9" />
    </linearGradient>
    <linearGradient
       id="linearGradient17149">
      <stop
         style="stop-color:#766287;stop-opacity:1;"
         offset="0"
         id="stop17151" />
      <stop
         style="stop-color:#766287;stop-opacity:1;"
         offset="1"
         id="stop17153" />
    </linearGradient>
    <linearGradient
       id="linearGradient13628-4">
      <stop
         style="stop-color:#aac736;stop-opacity:1;"
         offset="0"
         id="stop13630-3" />
      <stop
         style="stop-color:#5d8b2c;stop-opacity:1;"
         offset="1"
         id="stop13632-1" />
    </linearGradient>
    <linearGradient
       id="linearGradient13604-6-7">
      <stop
         id="stop13606-2-9"
         offset="0"
         style="stop-color:#ffffff;stop-opacity:1;" />
      <stop
         id="stop13608-7-5"
         offset="1"
         style="stop-color:#000000;stop-opacity:1;" />
    </linearGradient>
    <linearGradient
       id="linearGradient18285">
      <stop
         id="stop18287"
         offset="0"
         style="stop-color:#ffffff;stop-opacity:1;" />
      <stop
         id="stop18289"
         offset="1"
         style="stop-color:#000000;stop-opacity:1;" />
    </linearGradient>
    <linearGradient
       id="linearGradient18292">
      <stop
         id="stop18294"
         offset="0"
         style="stop-color:#ffffff;stop-opacity:1;" />
      <stop
         id="stop18296"
         offset="1"
         style="stop-color:#000000;stop-opacity:1;" />
    </linearGradient>
    <linearGradient
       id="linearGradient5316-0-7">
      <stop
         style="stop-color:#766287;stop-opacity:1;"
         offset="0"
         id="stop5320-8-1" />
      <stop
         style="stop-color:#766287;stop-opacity:1;"
         offset="1"
         id="stop5322-1-3" />
    </linearGradient>
    <linearGradient
       id="linearGradient18307">
      <stop
         style="stop-color:#766287;stop-opacity:1;"
         offset="0"
         id="stop18309" />
      <stop
         style="stop-color:#766287;stop-opacity:1;"
         offset="1"
         id="stop18311" />
    </linearGradient>
    <linearGradient
       id="linearGradient18314">
      <stop
         style="stop-color:#766287;stop-opacity:1;"
         offset="0"
         id="stop18316" />
      <stop
         style="stop-color:#766287;stop-opacity:1;"
         offset="1"
         id="stop18318" />
    </linearGradient>
    <linearGradient
       id="linearGradient18321">
      <stop
         id="stop18323"
         offset="0"
         style="stop-color:#ffffff;stop-opacity:1;" />
      <stop
         id="stop18325"
         offset="1"
         style="stop-color:#000000;stop-opacity:1;" />
    </linearGradient>
    <linearGradient
       id="linearGradient9863-4-7">
      <stop
         style="stop-color:#2f445a;stop-opacity:1;"
         offset="0"
         id="stop9865-0-8" />
      <stop
         style="stop-color:#415f7c;stop-opacity:1"
         offset="1"
         id="stop9867-6-2" />
    </linearGradient>
    <linearGradient
       id="linearGradient18332">
      <stop
         id="stop18334"
         offset="0"
         style="stop-color:#ffffff;stop-opacity:1;" />
      <stop
         id="stop18336"
         offset="1"
         style="stop-color:#000000;stop-opacity:1;" />
    </linearGradient>
    <linearGradient
       id="linearGradient5439-3">
      <stop
         style="stop-color:#ffffff;stop-opacity:1;"
         offset="0"
         id="stop5441-29" />
      <stop
         style="stop-color:#000000;stop-opacity:1;"
         offset="1"
         id="stop5443-3" />
    </linearGradient>
    <linearGradient
       id="linearGradient5344-50-8">
      <stop
         style="stop-color:#000000;stop-opacity:1;"
         offset="0"
         id="stop5346-2-2" />
      <stop
         style="stop-color:#000000;stop-opacity:0;"
         offset="1"
         id="stop5348-5-5" />
    </linearGradient>
    <linearGradient
       id="linearGradient5362-7">
      <stop
         style="stop-color:#ffffff;stop-opacity:1;"
         offset="0"
         id="stop5364-61" />
      <stop
         style="stop-color:#ffffff;stop-opacity:0;"
         offset="1"
         id="stop5366-8" />
    </linearGradient>
    <linearGradient
       id="linearGradient18351">
      <stop
         id="stop18353"
         offset="0"
         style="stop-color:#ffffff;stop-opacity:1;" />
      <stop
         id="stop18355"
         offset="1"
         style="stop-color:#000000;stop-opacity:1;" />
    </linearGradient>
    <linearGradient
       id="linearGradient13604-6-4">
      <stop
         id="stop13606-2-6"
         offset="0"
         style="stop-color:#ffffff;stop-opacity:1;" />
      <stop
         id="stop13608-7-0"
         offset="1"
         style="stop-color:#000000;stop-opacity:1;" />
    </linearGradient>
    <linearGradient
       id="linearGradient19231">
      <stop
         id="stop19233"
         offset="0"
         style="stop-color:#ffffff;stop-opacity:1;" />
      <stop
         id="stop19235"
         offset="1"
         style="stop-color:#000000;stop-opacity:1;" />
    </linearGradient>
    <linearGradient
       id="linearGradient19238">
      <stop
         id="stop19240"
         offset="0"
         style="stop-color:#ffffff;stop-opacity:1;" />
      <stop
         id="stop19242"
         offset="1"
         style="stop-color:#000000;stop-opacity:1;" />
    </linearGradient>
    <linearGradient
       id="linearGradient5316-0-0">
      <stop
         style="stop-color:#766287;stop-opacity:1;"
         offset="0"
         id="stop5320-8-15" />
      <stop
         style="stop-color:#766287;stop-opacity:1;"
         offset="1"
         id="stop5322-1-1" />
    </linearGradient>
    <linearGradient
       id="linearGradient19249">
      <stop
         style="stop-color:#766287;stop-opacity:1;"
         offset="0"
         id="stop19251" />
      <stop
         style="stop-color:#766287;stop-opacity:1;"
         offset="1"
         id="stop19253" />
    </linearGradient>
    <linearGradient
       id="linearGradient19260">
      <stop
         id="stop19262"
         offset="0"
         style="stop-color:#ffffff;stop-opacity:1;" />
      <stop
         id="stop19264"
         offset="1"
         style="stop-color:#000000;stop-opacity:1;" />
    </linearGradient>
    <linearGradient
       id="linearGradient9863-4-4">
      <stop
         style="stop-color:#2f445a;stop-opacity:1;"
         offset="0"
         id="stop9865-0-4" />
      <stop
         style="stop-color:#415f7c;stop-opacity:1"
         offset="1"
         id="stop9867-6-0" />
    </linearGradient>
    <linearGradient
       id="linearGradient19271">
      <stop
         id="stop19273"
         offset="0"
         style="stop-color:#ffffff;stop-opacity:1;" />
      <stop
         id="stop19275"
         offset="1"
         style="stop-color:#000000;stop-opacity:1;" />
    </linearGradient>
    <linearGradient
       id="linearGradient5439-3-0">
      <stop
         style="stop-color:#ffffff;stop-opacity:1;"
         offset="0"
         id="stop5441-29-2" />
      <stop
         style="stop-color:#000000;stop-opacity:1;"
         offset="1"
         id="stop5443-3-7" />
    </linearGradient>
    <linearGradient
       id="linearGradient5344-50-5">
      <stop
         style="stop-color:#000000;stop-opacity:1;"
         offset="0"
         id="stop5346-2-7" />
      <stop
         style="stop-color:#000000;stop-opacity:0;"
         offset="1"
         id="stop5348-5-3" />
    </linearGradient>
    <linearGradient
       id="linearGradient19286">
      <stop
         id="stop19288"
         offset="0"
         style="stop-color:#ffffff;stop-opacity:1;" />
      <stop
         id="stop19290"
         offset="1"
         style="stop-color:#000000;stop-opacity:1;" />
    </linearGradient>
    <linearGradient
       id="linearGradient13628-4-3">
      <stop
         style="stop-color:#aac736;stop-opacity:1;"
         offset="0"
         id="stop13630-3-1" />
      <stop
         style="stop-color:#5d8b2c;stop-opacity:1;"
         offset="1"
         id="stop13632-1-2" />
    </linearGradient>
    <linearGradient
       id="linearGradient13604-6-0">
      <stop
         id="stop13606-2-2"
         offset="0"
         style="stop-color:#ffffff;stop-opacity:1;" />
      <stop
         id="stop13608-7-7"
         offset="1"
         style="stop-color:#000000;stop-opacity:1;" />
    </linearGradient>
    <linearGradient
       id="linearGradient19579">
      <stop
         id="stop19581"
         offset="0"
         style="stop-color:#ffffff;stop-opacity:1;" />
      <stop
         id="stop19583"
         offset="1"
         style="stop-color:#000000;stop-opacity:1;" />
    </linearGradient>
    <linearGradient
       id="linearGradient19586">
      <stop
         id="stop19588"
         offset="0"
         style="stop-color:#ffffff;stop-opacity:1;" />
      <stop
         id="stop19590"
         offset="1"
         style="stop-color:#000000;stop-opacity:1;" />
    </linearGradient>
    <linearGradient
       id="linearGradient5316-0-8">
      <stop
         style="stop-color:#766287;stop-opacity:1;"
         offset="0"
         id="stop5320-8-4" />
      <stop
         style="stop-color:#766287;stop-opacity:1;"
         offset="1"
         id="stop5322-1-2" />
    </linearGradient>
    <linearGradient
       id="linearGradient19601">
      <stop
         style="stop-color:#766287;stop-opacity:1;"
         offset="0"
         id="stop19603" />
      <stop
         style="stop-color:#766287;stop-opacity:1;"
         offset="1"
         id="stop19605" />
    </linearGradient>
    <linearGradient
       id="linearGradient19608">
      <stop
         style="stop-color:#766287;stop-opacity:1;"
         offset="0"
         id="stop19610" />
      <stop
         style="stop-color:#766287;stop-opacity:1;"
         offset="1"
         id="stop19612" />
    </linearGradient>
    <linearGradient
       id="linearGradient19615">
      <stop
         id="stop19617"
         offset="0"
         style="stop-color:#ffffff;stop-opacity:1;" />
      <stop
         id="stop19619"
         offset="1"
         style="stop-color:#000000;stop-opacity:1;" />
    </linearGradient>
    <linearGradient
       id="linearGradient9863-4-77">
      <stop
         style="stop-color:#2f445a;stop-opacity:1;"
         offset="0"
         id="stop9865-0-41" />
      <stop
         style="stop-color:#415f7c;stop-opacity:1"
         offset="1"
         id="stop9867-6-5" />
    </linearGradient>
    <linearGradient
       id="linearGradient19626">
      <stop
         id="stop19628"
         offset="0"
         style="stop-color:#ffffff;stop-opacity:1;" />
      <stop
         id="stop19630"
         offset="1"
         style="stop-color:#000000;stop-opacity:1;" />
    </linearGradient>
    <linearGradient
       id="linearGradient5439-3-4">
      <stop
         style="stop-color:#ffffff;stop-opacity:1;"
         offset="0"
         id="stop5441-29-3" />
      <stop
         style="stop-color:#000000;stop-opacity:1;"
         offset="1"
         id="stop5443-3-9" />
    </linearGradient>
    <linearGradient
       id="linearGradient5344-50-1">
      <stop
         style="stop-color:#000000;stop-opacity:1;"
         offset="0"
         id="stop5346-2-4" />
      <stop
         style="stop-color:#000000;stop-opacity:0;"
         offset="1"
         id="stop5348-5-56" />
    </linearGradient>
    <linearGradient
       id="linearGradient5362-7-7">
      <stop
         style="stop-color:#ffffff;stop-opacity:1;"
         offset="0"
         id="stop5364-61-5" />
      <stop
         style="stop-color:#ffffff;stop-opacity:0;"
         offset="1"
         id="stop5366-8-0" />
    </linearGradient>
    <linearGradient
       id="linearGradient19645">
      <stop
         id="stop19647"
         offset="0"
         style="stop-color:#ffffff;stop-opacity:1;" />
      <stop
         id="stop19649"
         offset="1"
         style="stop-color:#000000;stop-opacity:1;" />
    </linearGradient>
    <linearGradient
       inkscape:collect="always"
       xlink:href="#linearGradient13604-6-40"
       id="linearGradient19176"
       gradientUnits="userSpaceOnUse"
       gradientTransform="matrix(2.1337987,0,0,2.1337987,-1039.4316,-1067.9622)"
       x1="515.5863"
       y1="952.8299"
       x2="528.09021"
       y2="990.23395" />
    <linearGradient
       id="linearGradient13604-6-40">
      <stop
         id="stop13606-2-7"
         offset="0"
         style="stop-color:#ffffff;stop-opacity:1;" />
      <stop
         id="stop13608-7-9"
         offset="1"
         style="stop-color:#000000;stop-opacity:1;" />
    </linearGradient>
    <linearGradient
       inkscape:collect="always"
       xlink:href="#linearGradient13604-6-40"
       id="linearGradient19179"
       gradientUnits="userSpaceOnUse"
       gradientTransform="matrix(1.6990033,-1.8953094,2.0527535,1.6780605,-2795.9082,347.27109)"
       x1="506.53442"
       y1="958.87305"
       x2="530.64825"
       y2="952.20062" />
    <linearGradient
       id="linearGradient20000">
      <stop
         id="stop20002"
         offset="0"
         style="stop-color:#ffffff;stop-opacity:1;" />
      <stop
         id="stop20004"
         offset="1"
         style="stop-color:#000000;stop-opacity:1;" />
    </linearGradient>
    <linearGradient
       inkscape:collect="always"
       xlink:href="#linearGradient13604-6-40"
       id="linearGradient19183"
       gradientUnits="userSpaceOnUse"
       gradientTransform="matrix(2.6666667,0,0,2.6666667,-1315.3389,-1580.8075)"
       x1="514.4931"
       y1="950.51849"
       x2="517.49799"
       y2="967.01849" />
    <linearGradient
       id="linearGradient20007">
      <stop
         id="stop20009"
         offset="0"
         style="stop-color:#ffffff;stop-opacity:1;" />
      <stop
         id="stop20011"
         offset="1"
         style="stop-color:#000000;stop-opacity:1;" />
    </linearGradient>
    <linearGradient
       inkscape:collect="always"
       xlink:href="#linearGradient5316-0-6"
       id="linearGradient19186"
       gradientUnits="userSpaceOnUse"
       gradientTransform="matrix(2.6666667,0,0,2.6666667,-194.16038,-1582.6931)"
       x1="79.374985"
       y1="968.60938"
       x2="88.53125"
       y2="968.60938" />
    <linearGradient
       id="linearGradient5316-0-6">
      <stop
         style="stop-color:#766287;stop-opacity:1;"
         offset="0"
         id="stop5320-8-8" />
      <stop
         style="stop-color:#766287;stop-opacity:1;"
         offset="1"
         id="stop5322-1-16" />
    </linearGradient>
    <linearGradient
       inkscape:collect="always"
       xlink:href="#linearGradient13604-6-40"
       id="linearGradient19191"
       gradientUnits="userSpaceOnUse"
       gradientTransform="matrix(2.6666667,0,0,2.6666667,-462.00555,-1580.8075)"
       x1="200.4375"
       y1="989.04968"
       x2="189.375"
       y2="972.42468" />
    <linearGradient
       id="linearGradient20018">
      <stop
         id="stop20020"
         offset="0"
         style="stop-color:#ffffff;stop-opacity:1;" />
      <stop
         id="stop20022"
         offset="1"
         style="stop-color:#000000;stop-opacity:1;" />
    </linearGradient>
    <linearGradient
       inkscape:collect="always"
       id="linearGradient5398-0">
      <stop
         style="stop-color:#87c6ff;stop-opacity:1;"
         offset="0"
         id="stop5400-0" />
      <stop
         style="stop-color:#87c6ff;stop-opacity:0"
         offset="1"
         id="stop5402-5" />
    </linearGradient>
    <linearGradient
       inkscape:collect="always"
       xlink:href="#linearGradient9863-4-1"
       id="linearGradient19197"
       gradientUnits="userSpaceOnUse"
       gradientTransform="matrix(2.6666667,0,0,2.6666667,-760.67222,-1367.4741)"
       x1="308.6875"
       y1="907.00311"
       x2="308.6875"
       y2="859.37317" />
    <linearGradient
       id="linearGradient9863-4-1">
      <stop
         style="stop-color:#2f445a;stop-opacity:1;"
         offset="0"
         id="stop9865-0-1" />
      <stop
         style="stop-color:#415f7c;stop-opacity:1"
         offset="1"
         id="stop9867-6-6" />
    </linearGradient>
    <linearGradient
       inkscape:collect="always"
       xlink:href="#linearGradient13604-6-40"
       id="linearGradient19201"
       gradientUnits="userSpaceOnUse"
       gradientTransform="matrix(2.7368318,0,0,2.6844299,-1349.6143,-1598.2652)"
       x1="585.32428"
       y1="1057.6436"
       x2="492.58313"
       y2="945.6142" />
    <linearGradient
       id="linearGradient20033">
      <stop
         id="stop20035"
         offset="0"
         style="stop-color:#ffffff;stop-opacity:1;" />
      <stop
         id="stop20037"
         offset="1"
         style="stop-color:#000000;stop-opacity:1;" />
    </linearGradient>
    <linearGradient
       inkscape:collect="always"
       xlink:href="#linearGradient5439-3-5"
       id="linearGradient19204"
       gradientUnits="userSpaceOnUse"
       gradientTransform="matrix(2.7150286,0,0,2.7149163,-1316.8507,-1627.5885)"
       x1="535.57587"
       y1="1000.2343"
       x2="496.84631"
       y2="946.46552" />
    <linearGradient
       id="linearGradient5439-3-5">
      <stop
         style="stop-color:#ffffff;stop-opacity:1;"
         offset="0"
         id="stop5441-29-5" />
      <stop
         style="stop-color:#000000;stop-opacity:1;"
         offset="1"
         id="stop5443-3-3" />
    </linearGradient>
    <linearGradient
       inkscape:collect="always"
       xlink:href="#linearGradient5344-50-12"
       id="linearGradient19207"
       gradientUnits="userSpaceOnUse"
       gradientTransform="matrix(2.7150286,0,0,2.7149163,-1316.8507,-1627.5885)"
       x1="504.93024"
       y1="992.24542"
       x2="497.81961"
       y2="968.64575" />
    <linearGradient
       id="linearGradient5344-50-12">
      <stop
         style="stop-color:#000000;stop-opacity:1;"
         offset="0"
         id="stop5346-2-0" />
      <stop
         style="stop-color:#000000;stop-opacity:0;"
         offset="1"
         id="stop5348-5-0" />
    </linearGradient>
    <linearGradient
       inkscape:collect="always"
       xlink:href="#linearGradient5362-7-6"
       id="linearGradient19210"
       gradientUnits="userSpaceOnUse"
       gradientTransform="matrix(2.7150286,0,0,2.7149163,-1316.8507,-1627.5885)"
       x1="502.97885"
       y1="936.30072"
       x2="499.43576"
       y2="956.01135" />
    <linearGradient
       id="linearGradient5362-7-6">
      <stop
         style="stop-color:#ffffff;stop-opacity:1;"
         offset="0"
         id="stop5364-61-3" />
      <stop
         style="stop-color:#ffffff;stop-opacity:0;"
         offset="1"
         id="stop5366-8-6" />
    </linearGradient>
    <linearGradient
       inkscape:collect="always"
       xlink:href="#linearGradient13604-6-40"
       id="linearGradient19213"
       gradientUnits="userSpaceOnUse"
       gradientTransform="matrix(2.7150286,0,0,2.7149163,-1316.8507,-1627.5885)"
       x1="506.14658"
       y1="891.09094"
       x2="484.66602"
       y2="986.18469" />
    <linearGradient
       id="linearGradient20052">
      <stop
         id="stop20054"
         offset="0"
         style="stop-color:#ffffff;stop-opacity:1;" />
      <stop
         id="stop20056"
         offset="1"
         style="stop-color:#000000;stop-opacity:1;" />
    </linearGradient>
    <linearGradient
       inkscape:collect="always"
       xlink:href="#linearGradient13628-4-37"
       id="linearGradient20313"
       gradientUnits="userSpaceOnUse"
       gradientTransform="matrix(2.6666667,0,0,2.6666667,-1283.3995,-586.20285)"
       x1="516.26202"
       y1="567.96631"
       x2="517.18903"
       y2="590.68213" />
    <linearGradient
       id="linearGradient13628-4-37">
      <stop
         style="stop-color:#aac736;stop-opacity:1;"
         offset="0"
         id="stop13630-3-7" />
      <stop
         style="stop-color:#5d8b2c;stop-opacity:1;"
         offset="1"
         id="stop13632-1-6" />
    </linearGradient>
    <filter
       color-interpolation-filters="sRGB"
       inkscape:collect="always"
       id="filter21405-5-3">
      <feGaussianBlur
         inkscape:collect="always"
         stdDeviation="0.34806852"
         id="feGaussianBlur21407-3-2" />
    </filter>
    <linearGradient
       inkscape:collect="always"
       xlink:href="#linearGradient5398-0"
       id="linearGradient3215"
       gradientUnits="userSpaceOnUse"
       gradientTransform="matrix(2.6666667,0,0,2.6666667,-194.16038,-1582.6931)"
       x1="84.03125"
       y1="960.51562"
       x2="86.45089"
       y2="954.39062" />
  </defs>
  <sodipodi:namedview
     id="base"
     pagecolor="#ffffff"
     bordercolor="#666666"
     borderopacity="1.0"
     inkscape:pageopacity="0.0"
     inkscape:pageshadow="2"
     inkscape:zoom="3.959798"
     inkscape:cx="107.44751"
     inkscape:cy="70.060363"
     inkscape:document-units="px"
     inkscape:current-layer="layer1"
     showgrid="false"
     inkscape:showpageshadow="false"
     inkscape:window-width="1366"
     inkscape:window-height="720"
     inkscape:window-x="0"
     inkscape:window-y="24"
     inkscape:window-maximized="1" />
  <metadata
     id="metadata17177">
    <rdf:RDF>
      <cc:Work
         rdf:about="">
        <dc:format>image/svg+xml</dc:format>
        <dc:type
           rdf:resource="http://purl.org/dc/dcmitype/StillImage" />
        <dc:title></dc:title>
      </cc:Work>
    </rdf:RDF>
  </metadata>
  <g
     inkscape:label="Capa 1"
     inkscape:groupmode="layer"
     id="layer1"
     transform="translate(0,-924.36217)">
    <path
       style="fill:url(#linearGradient19213);fill-opacity:1;stroke:none;display:inline"
       d="m 101.51047,984.37095 c -0.76027,29.84985 -15.579737,58.68805 -41.050667,58.85705 -10.74827,0.072 -22.628,-2.5464 -30.31014,-6.7064 -15.87653,-8.5976 -25.0999995,-27.3744 -25.1181295,-48.34878 -0.0213,-25.13227 12.9767995,-47.9296 33.4490695,-55.72134 5.9776,-2.27493 17.68693,-4.2192 25.98373,-4.13333 21.62773,0.22133 37.046137,24.68213 37.046137,56.0528 z"
       id="path66126"
       sodipodi:nodetypes="csssssc"
       inkscape:export-filename="/home/dafeba/DCV/tallerD/bocetos/bateria.png"
       inkscape:export-xdpi="90.041016"
       inkscape:export-ydpi="90.041016"
       inkscape:connector-curvature="0" />
    <path
       sodipodi:nodetypes="ccscc"
       id="path66128"
       d="M 54.241403,986.81548 7.7358035,968.46375 c 4.5469295,-15.92453 14.6223995,-29.0624 28.6634595,-35.1696 6.51387,-2.83307 16.8808,-5.11307 24.9456,-4.496 50.857337,-6.50637 23.96987,58.908 -7.10346,58.01733 z"
       style="fill:url(#linearGradient19210);fill-opacity:1;stroke:none;display:inline"
       inkscape:export-filename="/home/dafeba/DCV/tallerD/bocetos/bateria.png"
       inkscape:export-xdpi="90.041016"
       inkscape:export-ydpi="90.041016"
       inkscape:connector-curvature="0" />
    <path
       sodipodi:nodetypes="csscc"
       id="path66130"
       d="m 61.419803,1043.228 c -7.94667,1.1422 -19.00747,-1.8752 -25.37814,-4.1018 -15.68586,-5.4824 -26.2159995,-19.991 -29.7237295,-37.6894 -0.84507,-4.26345 20.7951995,-1.033 34.4701295,0.6542 32.23654,-1.9118 73.085337,26.0818 20.63174,41.137 z"
       style="fill:url(#linearGradient19207);fill-opacity:1;stroke:none;display:inline"
       inkscape:export-filename="/home/dafeba/DCV/tallerD/bocetos/bateria.png"
       inkscape:export-xdpi="90.041016"
       inkscape:export-ydpi="90.041016"
       inkscape:connector-curvature="0" />
    <path
       sodipodi:nodetypes="csssc"
       id="path66132"
       d="m 110.1558,984.60588 c -0.76053,30.66162 -17.145867,53.86642 -42.262937,58.18592 -33.58346,5.776 -54.72,-22.0712 -54.75013,-54.04058 -0.0312,-33.2592 22.08,-62.53734 54.32747,-60.0032 25.393863,1.99493 42.685597,23.6344 42.685597,55.85786 z"
       style="fill:url(#linearGradient19204);fill-opacity:1;stroke:none;display:inline"
       inkscape:export-filename="/home/dafeba/DCV/tallerD/bocetos/bateria.png"
       inkscape:export-xdpi="90.041016"
       inkscape:export-ydpi="90.041016"
       inkscape:connector-curvature="0" />
    <path
       inkscape:export-ydpi="90.041016"
       inkscape:export-xdpi="90.041016"
       inkscape:export-filename="/home/dafeba/DCV/tallerD/bocetos/bateria.png"
       sodipodi:nodetypes="csssc"
       id="path66136"
       d="m 106.83671,985.18935 c -0.72059,28.50085 -16.248564,50.07045 -40.051607,54.08565 -31.82634,5.3688 -51.85693,-20.516 -51.88538,-50.23258 -0.0299,-30.91547 20.92442,-58.13067 51.48472,-55.77467 24.06549,1.85413 40.452267,21.9688 40.452267,51.9216 z"
       style="fill:url(#linearGradient19201);fill-opacity:1;stroke:none;display:inline"
       inkscape:connector-curvature="0" />
    <path
       inkscape:export-ydpi="90.041016"
       inkscape:export-xdpi="90.041016"
       inkscape:export-filename="/home/dafeba/DCV/tallerD/bocetos/bateria.png"
       inkscape:connector-curvature="0"
       style="fill:#000000;fill-opacity:1;stroke:none;display:inline"
       d="m 60.006303,933.72348 c -0.74117,0.032 -1.43944,0.096 -2.16666,0.16534 l 2.75,20.08346 c 0.47821,-0.0267 0.9281,-0.0933 1.41666,-0.0827 0.51112,0 0.9784,0.04 1.5,0.0827 1.78259,0.144 3.47251,0.47174 5.08334,1 l 4.16666,-19.75013 c -2.41546,-0.6912 -4.95808,-1.12347 -7.58333,-1.33333 -0.884,-0.072 -1.80035,-0.152 -2.66667,-0.16534 -0.83925,-0.0267 -1.678,-0.0347 -2.5,0 z m -4.83333,0.5 c -4.74427,0.78774 -9.17384,2.42107 -13.16667,4.75014 l 0.0832,0.16533 8.66667,17.5 c 2.19717,-1.18907 4.61669,-1.99733 7.16667,-2.4168 l -2.75,-20 z m 20.08333,1.83334 -4.16666,20 c 2.26352,1.08373 4.36336,2.51546 6.16666,4.33333 l 10.083336,-17 c -3.538156,-3.20667 -7.579596,-5.69147 -12.083336,-7.33333 z"
       id="path66534" />
    <path
       style="fill:none;stroke:url(#linearGradient19197);stroke-width:2.66666675;stroke-linecap:round;stroke-linejoin:round;stroke-miterlimit:4;stroke-opacity:1;stroke-dasharray:none;stroke-dashoffset:0;display:inline"
       d="m 61.244603,928.35922 c -7.88134,0.3456 -17.51974,2.09253 -22.75014,4.08346 -20.47253,7.79174 -33.5215995,30.6176 -33.4999995,55.74987 0.0187,20.97445 9.2901395,39.73545 25.1666695,48.33335 3.78107,2.0475 8.81707,4.0219 13.99093,5.1701 7.0264,1.6736 15.632,2.1568 23.7592,1.08 25.11707,-4.3197 41.489337,-27.5053 42.249867,-58.16692 0,-30.63893 -15.571197,-52.01626 -38.937597,-55.72906 -3.3016,-0.54614 -6.6464,-0.5208 -9.97893,-0.5208 z"
       id="path66138"
       sodipodi:nodetypes="csssccccc"
       inkscape:export-filename="/home/dafeba/DCV/tallerD/bocetos/bateria.png"
       inkscape:export-xdpi="90.041016"
       inkscape:export-ydpi="90.041016"
       inkscape:connector-curvature="0" />
    <path
       inkscape:export-ydpi="90.041016"
       inkscape:export-xdpi="90.041016"
       inkscape:export-filename="/home/dafeba/DCV/tallerD/bocetos/bateria.png"
       inkscape:connector-curvature="0"
       style="fill:#000000;fill-opacity:1;stroke:none;display:inline"
       d="m 39.756303,940.47362 c -3.49808,2.36693 -6.66186,5.31253 -9.41666,8.66666 l 13.08333,13.5832 c 1.49173,-1.78373 3.15205,-3.37173 5,-4.66666 l -8.66667,-17.5832 z m -11.08333,10.74986 c -2.51952,3.43894 -4.54347,7.38187 -6.25,11.5 l 16,8.33334 c 0.91619,-2.20934 2.03371,-4.2824 3.33333,-6.16667 l -13.08333,-13.66667 z m -7.33333,14 c -1.28723,3.55947 -2.27499,7.2928 -2.91667,11.16667 l 17.58333,3.16667 c 0.34163,-2.0752 0.8576,-4.06827 1.5,-6 l -16.16666,-8.33334 z"
       id="path66536" />
    <path
       inkscape:export-ydpi="90.041016"
       inkscape:export-xdpi="90.041016"
       inkscape:export-filename="/home/dafeba/DCV/tallerD/bocetos/bateria.png"
       inkscape:connector-curvature="0"
       id="path66140"
       d="m 52.577803,1010.4424 0,0.083 c -0.68456,0.152 -1.27507,0.5678 -1.58334,1.0832 -0.29688,0.4966 -0.37568,1.0227 -0.33333,1.5835 l -0.0832,0 0,4.3333 c -0.39069,0.035 -0.77595,0.1307 -1.16667,0.1654 7.5e-4,-1.4312 0.0107,-2.891 0,-4.3334 l 0,-0.083 c -0.10293,-2.0394 -2.59618,-2.9424 -4.08333,-1.5832 l -0.0832,0 c -0.56413,0.5526 -0.80781,1.3142 -0.83333,1.8334 -0.0267,0.5389 0.0133,0.9821 0,1.1666 l 0,0.083 0,3.3334 c -0.44283,0.029 -0.83238,0.077 -1.33334,0.1653 l -0.0832,0 -0.0832,0 c -0.87824,0.264 -1.41197,1.0885 -1.58333,1.7501 -0.16293,0.6283 -0.12907,1.1486 -0.0832,1.5832 10e-4,0.027 -0.001,0.056 0,0.083 0.1208,2.6926 0.7248,5.7598 3,7.9168 l 0,0.083 c 2.66923,2.5038 6.73715,2.4648 9.66667,0.6667 2.92808,-1.7355 4.3508,-4.9045 4.83333,-7.9168 l 0,-0.083 c 0.14187,-1.024 0.30712,-2.1403 0.16667,-3.4165 l 0,-0.083 0,-0.083 c -0.18614,-0.7435 -0.74896,-1.3115 -1.33334,-1.5832 -0.50616,-0.2347 -1.05704,-0.3254 -1.58333,-0.2507 l -0.24987,0 -0.16666,0 c 0.003,-1.4181 0.0285,-2.8891 0,-4.3333 l 0,-0.083 c -0.2,-1.3827 -1.48102,-2.3107 -2.83334,-2.0835 -0.0595,0 -0.10693,0 -0.16666,0 z m 3.75,8.9168 c 0.0405,0 0.12,0 0.16666,0 -0.016,0 -0.0664,0.085 -0.0832,0.083 0.0267,0 0.0621,0 0.0832,0 0.0469,0.776 -0.0323,1.6131 -0.16666,2.5835 -0.22907,1.4296 -0.83491,2.7376 -1.58334,3.9165 l 0,-0.1653 c 0.98344,-1.4896 1.54758,-3.3403 1.58334,-4.9165 l 0.0832,-1.4168 -0.16667,0 0.0832,-0.083 z m -0.16667,0.083 -1.25,0.1654 c -0.15227,0.027 -0.37357,0.067 -0.66667,0.083 -0.24026,0 -0.49744,0.048 -0.75,0.083 -0.0555,0 -0.1064,0 -0.16666,0 -0.0824,0 -0.16747,0 -0.24987,0 l 0,-0.083 1.33333,-0.1654 1.75,-0.083 z m -12.5,1.2502 c 0.0469,0 0.1184,0 0.16667,0 l 0.0832,1.1666 c 0.10986,1.2206 0.3396,2.535 0.75,3.8334 -0.54691,-1.2795 -0.93792,-2.6723 -1,-4.1667 l 0,-0.083 c -0.0317,-0.2928 -0.0267,-0.5965 0,-0.7499 z m 9.75,1.5 c -0.2456,1.0493 -0.42904,2.3106 -0.83333,2.7498 l -0.0832,0.083 c -0.7083,1.0352 -2.04275,1.6478 -3.33334,1.5835 l -0.0832,0 c -0.89309,0.027 -1.85013,-0.7088 -2.08333,-1.5835 -0.2184,-0.6722 -0.31813,-1.4906 -0.41667,-2.2498 0.42742,-0.04 0.82216,-0.035 1.25,-0.083 l 0,0.083 c 1.88496,-0.1574 3.7519,-0.4384 5.58334,-0.5835 z m -8.66667,3.5832 c 0.2536,0.8594 0.76582,1.6005 1.41667,2.1666 -0.0677,-0.056 -0.1856,-0.027 -0.24987,-0.083 -0.56954,-0.54 -0.836,-1.3408 -1.16666,-2.0834 z m 8.41667,1.9168 c -0.18827,0.1466 -0.29456,0.3781 -0.5,0.5 l 0,0.083 c -0.0739,0.045 -0.1736,0.04 -0.24987,0.083 0.29275,-0.1547 0.48467,-0.4648 0.75,-0.6667 z"
       style="font-size:medium;font-style:normal;font-variant:normal;font-weight:normal;font-stretch:normal;text-indent:0;text-align:start;text-decoration:none;line-height:normal;letter-spacing:normal;word-spacing:normal;text-transform:none;direction:ltr;block-progression:tb;writing-mode:lr-tb;text-anchor:start;baseline-shift:baseline;color:#000000;fill:url(#linearGradient19191);fill-opacity:1;fill-rule:nonzero;stroke:none;stroke-width:0.92859286px;marker:none;visibility:visible;display:inline;overflow:visible;enable-background:accumulate;font-family:Bitstream Vera Sans;-inkscape-font-specification:Bitstream Vera Sans" />
    <path
       inkscape:export-ydpi="90.041016"
       inkscape:export-xdpi="90.041016"
       inkscape:export-filename="/home/dafeba/DCV/tallerD/bocetos/bateria.png"
       inkscape:connector-curvature="0"
       style="fill:#000000;fill-opacity:1;stroke:none;display:inline"
       d="m 89.339639,945.30695 -10.249996,17.16667 c 1.25514,1.60213 2.33328,3.43306 3.25,5.41653 l 14.166663,-12.0832 c -1.98464,-3.96827 -4.32528,-7.52267 -7.166667,-10.5 z m 8.416667,13 -14.333333,12.24987 c 0.76563,2.16666 1.39125,4.48826 1.75,7 l 16.583337,-5 c -0.79006,-5.18694 -2.155951,-9.9672 -4.000004,-14.24987 z m 4.333334,17 -16.583337,5.0832 c 0.0896,1.17013 0.0832,2.35173 0.0832,3.58347 -0.0301,1.26586 -0.12666,2.5336 -0.24986,3.74986 l 16.833327,2.4168 c 0.22454,-2.0904 0.3635,-4.2368 0.41667,-6.4168 0,-2.91946 -0.19707,-5.70213 -0.5,-8.41653 z"
       id="path66538" />
    <path
       inkscape:export-ydpi="90.041016"
       inkscape:export-xdpi="90.041016"
       inkscape:export-filename="/home/dafeba/DCV/tallerD/bocetos/bateria.png"
       sodipodi:nodetypes="ccccccccccccccccccccccccccc"
       inkscape:connector-curvature="0"
       id="path66144"
       d="m 52.411133,1011.9424 c -0.71933,0.1147 -1.0908,0.8686 -1,1.5408 0,1.8198 0,3.6395 0,5.4592 -1.22221,0.112 -2.44445,0.2214 -3.66667,0.3334 -0.005,-1.8747 0.008,-3.7502 -0.005,-5.6246 -0.0496,-0.9816 -1.37707,-1.4978 -2.07661,-0.8074 -0.6255,0.5648 -0.35968,1.452 -0.41715,2.1912 0,1.497 0,2.9938 0,4.4909 -0.80123,0.083 -1.61589,0.08 -2.40765,0.2213 -0.91038,0.2747 -0.90768,1.3374 -0.82406,2.1072 0.1064,2.5614 0.68582,5.343 2.61867,7.1755 2.18536,2.0499 5.72459,2.0677 8.20243,0.5469 2.49234,-1.477 3.79936,-4.3184 4.24272,-7.0861 0.14453,-1.0437 0.31885,-2.1147 0.2032,-3.1656 -0.1816,-0.7256 -0.98691,-1.0123 -1.65822,-0.8589 -0.57016,0.048 -1.14029,0.096 -1.71045,0.1413 -0.0107,-1.8875 0.0213,-3.7773 -0.016,-5.6635 -0.0981,-0.6781 -0.81712,-1.1645 -1.48325,-1.0032 z m 0.66667,14.0835 c -0.97422,1.4237 -2.70142,2.2051 -4.40966,2.1197 -1.50282,0.032 -2.9012,-1.0482 -3.28682,-2.4944 -0.38054,-1.1717 -0.52694,-2.4029 -0.63686,-3.6253 0.84726,-0.077 1.704,-0.1493 2.54014,-0.2427 1.94488,-0.1626 3.89752,-0.38 5.836,-0.528 0.31008,-0.059 1.0872,-0.064 1.56938,-0.1333 -0.036,1.5869 -0.59256,3.7981 -1.61218,4.9059 z"
       style="font-size:medium;font-style:normal;font-variant:normal;font-weight:normal;font-stretch:normal;text-indent:0;text-align:start;text-decoration:none;line-height:normal;letter-spacing:normal;word-spacing:normal;text-transform:none;direction:ltr;block-progression:tb;writing-mode:lr-tb;text-anchor:start;baseline-shift:baseline;color:#000000;fill:#1a1a1a;fill-opacity:1;stroke:none;stroke-width:0.92859286px;marker:none;visibility:visible;display:inline;overflow:visible;enable-background:accumulate;font-family:Bitstream Vera Sans;-inkscape-font-specification:Bitstream Vera Sans" />
    <path
       inkscape:export-ydpi="90.041016"
       inkscape:export-xdpi="90.041016"
       inkscape:export-filename="/home/dafeba/DCV/tallerD/bocetos/bateria.png"
       inkscape:connector-curvature="0"
       style="fill:url(#linearGradient19186);fill-opacity:1;stroke:none;display:inline"
       d="m 18.006303,979.05682 c -0.33936,2.73813 -0.50261,5.51066 -0.5,8.33333 0.002,1.616 0.0472,3.2456 0.16667,4.83333 l 17.83333,-3.0832 c -0.0723,-0.96853 -0.0824,-1.93093 -0.0832,-2.9168 -10e-4,-1.3448 0.0405,-2.68533 0.16667,-4 l -17.58333,-3.16666 z m 17.83334,12.75013 -17.83334,3.0832 c 0.47635,4.0256 1.29131,7.89255 2.5,11.58345 l 16.66667,-8.66665 c -0.61469,-1.9128 -1.03667,-3.93333 -1.33333,-6 z m 2.25,8.50005 -16.66667,8.6666 c 1.74499,4.5771 4.00691,8.828 6.83333,12.5 l 13.66667,-14.5 c -1.52856,-1.9882 -2.82464,-4.216 -3.83333,-6.6666 z"
       id="path66540" />
    <path
       inkscape:connector-curvature="0"
       inkscape:export-ydpi="90.041016"
       inkscape:export-xdpi="90.041016"
       inkscape:export-filename="/home/dafeba/DCV/tallerD/bocetos/bateria.png"
       style="fill:url(#linearGradient19183);fill-opacity:1;stroke:none;display:inline"
       d="m 69.155803,985.84802 c -0.1176,4.7448 -2.65339,8.336 -6.54032,9.00426 -5.19718,0.89387 -8.46811,-3.41546 -8.47278,-8.36293 -0.005,-5.14693 3.41696,-9.67787 8.40736,-9.2856 3.92979,0.3088 6.60574,3.6576 6.60574,8.64427 z"
       id="path66152"
       sodipodi:nodetypes="csssc" />
    <path
       inkscape:export-ydpi="90.041016"
       inkscape:export-xdpi="90.041016"
       inkscape:export-filename="/home/dafeba/DCV/tallerD/bocetos/bateria.png"
       inkscape:transform-center-y="-3.4855738"
       inkscape:transform-center-x="19.848016"
       sodipodi:nodetypes="cccsccc"
       inkscape:connector-curvature="0"
       id="path66154"
       d="m 21.351592,974.91757 c -0.692023,1.68726 2.338711,2.95909 5.195792,4.12073 l 30.814309,12.5297 c 3.445698,1.42101 6.245097,-1.86394 6.738875,-3.92941 0.585601,-2.4502 -0.181377,-6.47629 -4.322501,-7.30507 l -31.798071,-5.65995 c -2.963199,-0.68428 -5.899372,-1.33697 -6.62846,0.24402 z"
       style="fill:#000000;fill-opacity:0.37004406;stroke:none;display:inline" />
    <path
       style="fill:url(#linearGradient19179);stroke:none;display:inline"
       d="m 23.747167,971.95016 c -1.290358,-0.39558 -2.325575,0.0298 -2.749462,0.8901 -0.416154,0.84759 -0.137824,1.985 1.479062,2.65731 l 33.873595,13.95005 c 3.445642,1.42104 6.245069,-1.86393 6.738698,-3.92962 0.58573,-2.44997 -0.542495,-5.63285 -4.683647,-6.46161 z"
       id="path66156"
       inkscape:connector-curvature="0"
       sodipodi:nodetypes="csccscc"
       inkscape:transform-center-x="20.581679"
       inkscape:transform-center-y="-5.614807"
       inkscape:export-filename="/home/dafeba/DCV/tallerD/bocetos/bateria.png"
       inkscape:export-xdpi="90.041016"
       inkscape:export-ydpi="90.041016" />
    <path
       sodipodi:nodetypes="csssc"
       id="path66158"
       d="m 68.405803,985.80988 c -0.0941,3.7968 -2.12318,6.6704 -5.23339,7.20534 -4.15867,0.7152 -6.77597,-2.73307 -6.77971,-6.692 -0.005,-4.1184 2.73416,-7.744 6.72736,-7.43014 3.14451,0.248 5.28574,2.92667 5.28574,6.9168 z"
       style="fill:url(#linearGradient19176);fill-opacity:1;stroke:none;display:inline"
       inkscape:export-filename="/home/dafeba/DCV/tallerD/bocetos/bateria.png"
       inkscape:export-xdpi="90.041016"
       inkscape:export-ydpi="90.041016"
       inkscape:connector-curvature="0" />
    <path
       transform="matrix(2.6666667,0,0,2.6666667,-888.67218,-1154.1408)"
       style="font-size:medium;font-style:normal;font-variant:normal;font-weight:normal;font-stretch:normal;text-indent:0;text-align:start;text-decoration:none;line-height:normal;letter-spacing:normal;word-spacing:normal;text-transform:none;direction:ltr;block-progression:tb;writing-mode:lr-tb;text-anchor:start;baseline-shift:baseline;color:#000000;fill:#000000;fill-opacity:0.62555069;fill-rule:nonzero;stroke:none;stroke-width:1;marker:none;visibility:visible;display:inline;overflow:visible;filter:url(#filter21405-5-3);enable-background:accumulate;font-family:Bitstream Vera Sans;-inkscape-font-specification:Bitstream Vera Sans"
       d="m 372.65625,780.971 c -1.2312,0 -2.26742,1.0501 -2.25,2.2812 l 0,5.5938 -4.09375,0.031 0,-5.625 c 0.008,-1.3122 -1.19563,-2.3905 -2.5,-2.25 l -0.25,0.031 -0.0625,0.125 c -0.95174,0.2704 -1.69323,1.0813 -1.6875,2.0937 l 0,5.6563 -2.25,0.031 c -1.21952,1e-4 -2.24988,1.0305 -2.25,2.25 0,4.6893 0.97288,8.1781 3.03125,10.5625 2.06591,2.3931 5.06801,3.3257 8.09375,3.2812 2.84059,-0.042 5.7644,-0.9686 7.875,-3.3125 2.10585,-2.3386 3.25329,-5.8177 3.34375,-10.5625 0.0445,-1.2484 -1.00085,-2.3132 -2.25,-2.3125 l -2.5,0 0,-5.5937 c 0.0174,-1.2311 -1.0188,-2.2813 -2.25,-2.2813 z m 2.125,12.375 c -0.33984,2.5391 -0.97955,4.4499 -1.8125,5.375 -1.15257,1.2799 -2.59636,1.7831 -4.59375,1.8125 -2.16781,0.032 -3.54562,-0.4684 -4.625,-1.7188 -0.77951,-0.903 -1.3795,-2.8203 -1.65625,-5.375 4.23403,-0.012 8.47132,-0.087 12.6875,-0.094 z"
       id="path20279"
       inkscape:connector-curvature="0"
       inkscape:export-filename="/home/dafeba/DCV/tallerD/bocetos/bateria.png"
       inkscape:export-xdpi="90.041016"
       inkscape:export-ydpi="90.041016" />
    <path
       sodipodi:nodetypes="cccccscsccccscccccccssscc"
       inkscape:connector-curvature="0"
       id="path20281"
       d="m 84.009962,926.92402 c -2.272207,0.24533 -4.179597,2.38133 -4.166657,4.66666 l 0,16.4168 -7.33318,0.0827 c -2.44338,0 -4.66642,2.2232 -4.66666,4.66667 0,12.3208 2.54877,21.30826 7.74997,27.33333 5.20123,6.0248 12.794347,8.36453 20.583327,8.24987 7.308318,-0.10667 14.664698,-2.40827 19.999998,-8.33334 5.33531,-5.92506 8.34598,-14.8832 8.58334,-27.33333 0.0891,-2.4984 -2.16672,-4.83467 -4.66667,-4.83333 l -8,0 0,-16.24987 c 0.0349,-2.4656 -2.20096,-4.73333 -4.66667,-4.73333 -2.4657,0 -4.70154,2.26773 -4.66666,4.73333 l 0,16.24987 -13.583338,0.0827 0,-16.33333 c 0.016,-2.6192 -2.56237,-4.94693 -5.16666,-4.66667 z m 30.749998,30.25013 c -0.82685,7.81707 -2.74848,13.52747 -5.5,16.5832 -3.34309,3.71253 -7.70077,5.16827 -13.249998,5.25013 -6.00354,0.088 -10.18677,-1.3552 -13.33333,-5 -2.599627,-3.01146 -4.365487,-8.72186 -4.999997,-16.58346 12.358717,-0.0267 24.750045,-0.25067 37.083325,-0.25067 z"
       style="font-size:medium;font-style:normal;font-variant:normal;font-weight:normal;font-stretch:normal;text-indent:0;text-align:start;text-decoration:none;line-height:normal;letter-spacing:normal;word-spacing:normal;text-transform:none;direction:ltr;block-progression:tb;writing-mode:lr-tb;text-anchor:start;baseline-shift:baseline;color:#000000;fill:#ff0000;fill-opacity:1;stroke:#000000;stroke-width:2.66666675;stroke-miterlimit:4;stroke-dasharray:none;marker:none;visibility:visible;display:inline;overflow:visible;enable-background:accumulate;font-family:Bitstream Vera Sans;-inkscape-font-specification:Bitstream Vera Sans"
       inkscape:export-filename="/home/dafeba/DCV/tallerD/bocetos/bateria.png"
       inkscape:export-xdpi="90.041016"
       inkscape:export-ydpi="90.041016" />
    <path
       style="font-size:medium;font-style:normal;font-variant:normal;font-weight:normal;font-stretch:normal;text-indent:0;text-align:start;text-decoration:none;line-height:normal;letter-spacing:normal;word-spacing:normal;text-transform:none;direction:ltr;block-progression:tb;writing-mode:lr-tb;text-anchor:start;baseline-shift:baseline;color:#000000;fill:url(#linearGradient20313);fill-opacity:1;stroke:none;stroke-width:0.5;marker:none;visibility:visible;display:inline;overflow:visible;enable-background:accumulate;font-family:Bitstream Vera Sans;-inkscape-font-specification:Bitstream Vera Sans"
       d="m 84.009962,926.92402 c -2.272207,0.24533 -4.179597,2.38133 -4.166657,4.66666 l 0,16.4168 -7.33318,0.0827 c -2.44338,0 -4.66642,2.2232 -4.66666,4.66667 0,12.3208 2.54877,21.30826 7.74997,27.33333 5.20123,6.0248 12.794347,8.36453 20.583327,8.24987 7.308318,-0.10667 14.664698,-2.40827 19.999998,-8.33334 5.33531,-5.92506 8.34598,-14.8832 8.58334,-27.33333 0.0891,-2.4984 -2.16672,-4.83467 -4.66667,-4.83333 l -8,0 0,-16.24987 c 0.0349,-2.4656 -2.20096,-4.73333 -4.66667,-4.73333 -2.4657,0 -4.70154,2.26773 -4.66666,4.73333 l 0,16.24987 -13.583338,0.0827 0,-16.33333 c 0.016,-2.6192 -2.56237,-4.94693 -5.16666,-4.66667 z m 30.749998,30.25013 c -0.82685,7.81707 -2.74848,13.52747 -5.5,16.5832 -3.34309,3.71253 -7.70077,5.16827 -13.249998,5.25013 -6.00354,0.088 -10.18677,-1.3552 -13.33333,-5 -2.599627,-3.01146 -4.365487,-8.72186 -4.999997,-16.58346 12.358717,-0.0267 24.750045,-0.25067 37.083325,-0.25067 z"
       id="path20283"
       inkscape:connector-curvature="0"
       sodipodi:nodetypes="cccccscsccccscccccccssscc"
       inkscape:export-filename="/home/dafeba/DCV/tallerD/bocetos/bateria.png"
       inkscape:export-xdpi="90.041016"
       inkscape:export-ydpi="90.041016" />
  </g>
</svg>
