<?xml version="1.0" encoding="UTF-8" standalone="no"?>
<!-- Created with Inkscape (http://www.inkscape.org/) -->

<svg
   xmlns:dc="http://purl.org/dc/elements/1.1/"
   xmlns:cc="http://creativecommons.org/ns#"
   xmlns:rdf="http://www.w3.org/1999/02/22-rdf-syntax-ns#"
   xmlns:svg="http://www.w3.org/2000/svg"
   xmlns="http://www.w3.org/2000/svg"
   xmlns:xlink="http://www.w3.org/1999/xlink"
   xmlns:sodipodi="http://sodipodi.sourceforge.net/DTD/sodipodi-0.dtd"
   xmlns:inkscape="http://www.inkscape.org/namespaces/inkscape"
   width="136.53334"
   height="136.53334"
   id="svg17172"
   version="1.1"
   inkscape:version="0.92.1 r15371"
   sodipodi:docname="gpm-battery-050-charging.svg">
  <defs
     id="defs17174">
    <linearGradient
       inkscape:collect="always"
       xlink:href="#linearGradient13628-4-4"
       id="linearGradient5121"
       x1="76.419975"
       y1="0.34229168"
       x2="108.43155"
       y2="43.422153"
       gradientUnits="userSpaceOnUse"
       gradientTransform="matrix(0.99454704,0,0,0.99454793,2.920526,983.19898)" />
    <linearGradient
       id="linearGradient13628-4-4">
      <stop
         style="stop-color:#b995da;stop-opacity:1;"
         offset="0"
         id="stop13630-3-0" />
      <stop
         style="stop-color:#766287;stop-opacity:1;"
         offset="1"
         id="stop13632-1-0" />
    </linearGradient>
    <linearGradient
       inkscape:collect="always"
       xlink:href="#linearGradient5344-50-0"
       id="linearGradient850"
       gradientUnits="userSpaceOnUse"
       gradientTransform="matrix(2.1798093,0,0,2.1797404,-890.14268,-176.80755)"
       x1="495.94766"
       y1="486.7771"
       x2="434.51016"
       y2="572.7771" />
    <linearGradient
       id="linearGradient5344-50-0">
      <stop
         style="stop-color:#000000;stop-opacity:1;"
         offset="0"
         id="stop5346-2-3" />
      <stop
         style="stop-color:#000000;stop-opacity:0;"
         offset="1"
         id="stop5348-5-05" />
    </linearGradient>
    <linearGradient
       inkscape:collect="always"
       xlink:href="#linearGradient13628-4-4"
       id="linearGradient4753"
       gradientUnits="userSpaceOnUse"
       gradientTransform="translate(4.5592641e-8,-1.7670898e-5)"
       x1="2.6289308"
       y1="1053.908"
       x2="120.98979"
       y2="1077.0596" />
    <linearGradient
       inkscape:collect="always"
       xlink:href="#linearGradient5439-3-1"
       id="linearGradient19091"
       gradientUnits="userSpaceOnUse"
       gradientTransform="matrix(2.8444445,0,0,2.8444445,-448.86427,-1705.1352)"
       x1="200.4375"
       y1="989.04968"
       x2="189.375"
       y2="972.42468" />
    <linearGradient
       id="linearGradient5439-3-1">
      <stop
         style="stop-color:#ffffff;stop-opacity:1;"
         offset="0"
         id="stop5441-29-29" />
      <stop
         style="stop-color:#000000;stop-opacity:1;"
         offset="1"
         id="stop5443-3-2" />
    </linearGradient>
    <linearGradient
       inkscape:collect="always"
       xlink:href="#linearGradient9863-4-0"
       id="linearGradient19094"
       gradientUnits="userSpaceOnUse"
       gradientTransform="matrix(2.8444445,0,0,2.8444445,-811.38369,-1458.6391)"
       x1="308.6875"
       y1="907.00311"
       x2="308.6875"
       y2="859.37317" />
    <linearGradient
       id="linearGradient9863-4-0">
      <stop
         style="stop-color:#2f445a;stop-opacity:1;"
         offset="0"
         id="stop9865-0-7" />
      <stop
         style="stop-color:#415f7c;stop-opacity:1"
         offset="1"
         id="stop9867-6-7" />
    </linearGradient>
    <linearGradient
       inkscape:collect="always"
       xlink:href="#linearGradient5439-3-1"
       id="linearGradient19097"
       gradientUnits="userSpaceOnUse"
       gradientTransform="matrix(2.9192873,0,0,2.8633919,-1439.5886,-1704.8163)"
       x1="585.32428"
       y1="1057.6436"
       x2="492.58313"
       y2="945.6142" />
    <linearGradient
       inkscape:collect="always"
       xlink:href="#linearGradient5439-3-1"
       id="linearGradient19100"
       gradientUnits="userSpaceOnUse"
       gradientTransform="matrix(2.8960305,0,0,2.8959107,-1404.6407,-1736.0945)"
       x1="535.57587"
       y1="1000.2343"
       x2="493.70932"
       y2="939.68524" />
    <linearGradient
       inkscape:collect="always"
       xlink:href="#linearGradient5344-50-0"
       id="linearGradient19103"
       gradientUnits="userSpaceOnUse"
       gradientTransform="matrix(2.8960305,0,0,2.8959107,-1404.6407,-1736.0945)"
       x1="504.93024"
       y1="992.24542"
       x2="497.81961"
       y2="968.64575" />
    <linearGradient
       inkscape:collect="always"
       xlink:href="#linearGradient5362-7-2"
       id="linearGradient19106"
       gradientUnits="userSpaceOnUse"
       gradientTransform="matrix(2.8960305,0,0,2.8959107,-1404.6407,-1736.0945)"
       x1="502.97885"
       y1="936.30072"
       x2="499.43576"
       y2="956.01135" />
    <linearGradient
       id="linearGradient5362-7-2">
      <stop
         style="stop-color:#ffffff;stop-opacity:1;"
         offset="0"
         id="stop5364-61-7" />
      <stop
         style="stop-color:#ffffff;stop-opacity:0;"
         offset="1"
         id="stop5366-8-2" />
    </linearGradient>
    <linearGradient
       inkscape:collect="always"
       xlink:href="#linearGradient5439-3-1"
       id="linearGradient19109"
       gradientUnits="userSpaceOnUse"
       gradientTransform="matrix(2.8960305,0,0,2.8959107,-1404.6407,-1736.0945)"
       x1="506.14658"
       y1="891.09094"
       x2="484.66602"
       y2="986.18469" />
  </defs>
  <sodipodi:namedview
     id="base"
     pagecolor="#ffffff"
     bordercolor="#666666"
     borderopacity="1.0"
     inkscape:pageopacity="0.0"
     inkscape:pageshadow="2"
     inkscape:zoom="2.8"
     inkscape:cx="124.73335"
     inkscape:cy="65.029657"
     inkscape:document-units="px"
     inkscape:current-layer="layer1"
     showgrid="false"
     inkscape:showpageshadow="false"
     inkscape:window-width="1366"
     inkscape:window-height="714"
     inkscape:window-x="0"
     inkscape:window-y="26"
     inkscape:window-maximized="1" />
  <metadata
     id="metadata17177">
    <rdf:RDF>
      <cc:Work
         rdf:about="">
        <dc:format>image/svg+xml</dc:format>
        <dc:type
           rdf:resource="http://purl.org/dc/dcmitype/StillImage" />
        <dc:title />
      </cc:Work>
    </rdf:RDF>
  </metadata>
  <g
     inkscape:label="Capa 1"
     inkscape:groupmode="layer"
     id="layer1"
     transform="translate(0,-985.98631)">
    <path
       inkscape:connector-curvature="0"
       inkscape:export-ydpi="90.041016"
       inkscape:export-xdpi="90.041016"
       inkscape:export-filename="/home/dafeba/DCV/tallerD/bocetos/bateria.png"
       sodipodi:nodetypes="csssssc"
       id="path66386"
       d="m 108.27783,1049.9956 c -0.81095,31.8398 -16.618369,62.6006 -43.787371,62.7808 -11.464811,0.077 -24.136534,-2.7161 -32.330806,-7.1535 -16.934973,-9.1707 -26.773333,-29.1993 -26.792683,-51.572 -0.0227,-26.8077 13.84192,-51.1249 35.679009,-59.43601 6.376106,-2.42659 18.866069,-4.50048 27.715989,-4.40888 23.069579,0.23608 39.515862,26.32749 39.515862,59.78959 z"
       style="display:inline;fill:url(#linearGradient19109);fill-opacity:1;stroke:none;stroke-width:1.06666672" />
    <path
       inkscape:connector-curvature="0"
       inkscape:export-ydpi="90.041016"
       inkscape:export-xdpi="90.041016"
       inkscape:export-filename="/home/dafeba/DCV/tallerD/bocetos/bateria.png"
       style="display:inline;fill:url(#linearGradient19106);fill-opacity:1;stroke:none;stroke-width:1.06666672"
       d="M 57.857499,1052.6031 8.2515249,1033.0279 c 4.8500591,-16.9862 15.5972271,-30.9999 30.5743681,-37.51416 6.948118,-3.02194 18.006187,-5.45394 26.60864,-4.79573 54.247817,-6.94013 25.567862,62.83509 -7.577034,61.88509 z"
       id="path66388"
       sodipodi:nodetypes="ccscc" />
    <path
       inkscape:connector-curvature="0"
       inkscape:export-ydpi="90.041016"
       inkscape:export-xdpi="90.041016"
       inkscape:export-filename="/home/dafeba/DCV/tallerD/bocetos/bateria.png"
       style="display:inline;fill:url(#linearGradient19103);fill-opacity:1;stroke:none;stroke-width:1.06666672"
       d="m 65.514459,1112.7764 c -8.476438,1.2184 -20.274635,-2.0002 -27.070006,-4.3752 -16.731594,-5.8479 -27.963733,-21.3238 -31.7053223,-40.202 -0.9013974,-4.5477 22.1815463,-1.1019 36.7681493,0.6978 34.385632,-2.0393 77.95768,27.8206 22.007179,43.8794 z"
       id="path66390"
       sodipodi:nodetypes="csscc" />
    <path
       inkscape:connector-curvature="0"
       inkscape:export-ydpi="90.041016"
       inkscape:export-xdpi="90.041016"
       inkscape:export-filename="/home/dafeba/DCV/tallerD/bocetos/bateria.png"
       style="display:inline;fill:url(#linearGradient19100);fill-opacity:1;stroke:none;stroke-width:1.06666672"
       d="m 117.49952,1050.2462 c -0.81123,32.7057 -18.288912,57.4575 -45.080453,62.065 -35.822368,6.161 -58.367997,-23.5427 -58.400147,-57.6433 -0.0333,-35.4765 23.551997,-66.70645 57.949299,-64.00337 27.086794,2.12793 45.531301,25.20997 45.531301,59.58167 z"
       id="path66392"
       sodipodi:nodetypes="csssc" />
    <path
       inkscape:connector-curvature="0"
       style="display:inline;fill:url(#linearGradient19097);fill-opacity:1;stroke:none;stroke-width:1.06666672"
       d="m 113.95919,1050.8685 c -0.76866,30.4009 -17.33182,53.4085 -42.72173,57.6914 -33.948111,5.7267 -55.31407,-21.8837 -55.34442,-53.5814 -0.0319,-32.9765 22.319392,-62.00599 54.91704,-59.49292 25.66988,1.97774 43.14911,23.43332 43.14911,55.38292 z"
       id="path66394"
       sodipodi:nodetypes="csssc"
       inkscape:export-filename="/home/dafeba/DCV/tallerD/bocetos/bateria.png"
       inkscape:export-xdpi="90.041016"
       inkscape:export-ydpi="90.041016" />
    <path
       inkscape:connector-curvature="0"
       inkscape:export-ydpi="90.041016"
       inkscape:export-xdpi="90.041016"
       inkscape:export-filename="/home/dafeba/DCV/tallerD/bocetos/bateria.png"
       sodipodi:nodetypes="csssccccc"
       id="path66396"
       d="m 65.327579,990.24981 c -8.406752,0.36864 -18.687712,2.23204 -24.266806,4.3557 C 19.223397,1002.9166 5.3044,1027.2642 5.32744,1054.072 c 0.019947,22.3727 9.909472,42.3844 26.844437,51.5555 4.033142,2.184 9.404875,4.2901 14.92367,5.5148 7.494826,1.7852 16.674133,2.3006 25.343146,1.152 26.791542,-4.6077 44.255277,-29.339 45.066527,-62.0447 0,-32.6815 -16.60928,-55.48395 -41.533439,-59.44427 -3.521706,-0.58254 -7.089493,-0.55552 -10.644202,-0.55552 z"
       style="display:inline;fill:none;stroke:url(#linearGradient19094);stroke-width:2.84444451;stroke-linecap:round;stroke-linejoin:round;stroke-miterlimit:4;stroke-dasharray:none;stroke-dashoffset:0;stroke-opacity:1" />
    <path
       style="color:#000000;font-style:normal;font-variant:normal;font-weight:normal;font-stretch:normal;font-size:medium;line-height:normal;font-family:'Bitstream Vera Sans';-inkscape-font-specification:'Bitstream Vera Sans';text-indent:0;text-align:start;text-decoration:none;text-decoration-line:none;letter-spacing:normal;word-spacing:normal;text-transform:none;writing-mode:lr-tb;direction:ltr;baseline-shift:baseline;text-anchor:start;display:inline;overflow:visible;visibility:visible;fill:url(#linearGradient19091);fill-opacity:1;fill-rule:nonzero;stroke:none;stroke-width:0.99049908px;marker:none;enable-background:accumulate"
       d="m 100.02463,1058.8647 v 0.089 c -0.730199,0.1621 -1.360066,0.6056 -1.688887,1.1554 -0.316672,0.5297 -0.400726,1.0909 -0.355552,1.689 h -0.08875 v 4.6222 c -0.416747,0.037 -0.82768,0.1394 -1.244448,0.1765 8e-4,-1.5267 0.01141,-3.0838 0,-4.6223 v -0.089 c -0.109792,-2.1753 -2.769269,-3.1385 -4.355552,-1.6887 h -0.08875 c -0.601749,0.5894 -0.861674,1.4018 -0.888896,1.9556 -0.02848,0.5748 0.01419,1.0476 0,1.2444 v 0.089 3.5556 c -0.472352,0.031 -0.887861,0.082 -1.422218,0.1764 h -0.08875 -0.08875 c -0.936789,0.2816 -1.506112,1.161 -1.688896,1.8667 -0.173792,0.6702 -0.137664,1.2252 -0.08875,1.6888 0.0011,0.029 -0.0011,0.06 0,0.089 0.128853,2.8721 0.77312,6.1438 3.2,8.4446 v 0.089 c 2.847178,2.6708 7.186293,2.6292 10.311109,0.7112 3.12329,-1.8512 4.64086,-5.2315 5.15557,-8.4446 v -0.089 c 0.15131,-1.0923 0.32759,-2.283 0.17777,-3.6443 v -0.089 -0.089 c -0.19854,-0.793 -0.79889,-1.3989 -1.42222,-1.6887 -0.5399,-0.2504 -1.12751,-0.3471 -1.68889,-0.2674 h -0.26652 -0.17779 c 0.003,-1.5127 0.0304,-3.0817 0,-4.6222 v -0.089 c -0.21333,-1.4748 -1.57974,-2.4647 -3.02221,-2.2224 -0.0635,0 -0.11406,0 -0.17779,0 z m 4,9.5113 c 0.0432,0 0.128,0 0.17778,0 -0.0171,0 -0.0708,0.091 -0.0888,0.089 0.0285,0 0.0662,0 0.0888,0 0.05,0.8277 -0.0345,1.7207 -0.17778,2.7557 -0.24433,1.525 -0.89056,2.9202 -1.68889,4.1776 v -0.1763 c 1.049,-1.5889 1.65074,-3.563 1.68889,-5.2442 l 0.0888,-1.5113 h -0.17777 l 0.0888,-0.089 z m -0.17777,0.089 -1.33334,0.1764 c -0.16242,0.029 -0.39848,0.072 -0.71111,0.089 -0.25629,0 -0.5306,0.051 -0.8,0.088 -0.0592,0 -0.11349,0 -0.17778,0 -0.0879,0 -0.17863,0 -0.26652,0 v -0.088 l 1.42222,-0.1765 1.86667,-0.089 z m -13.333347,1.3336 c 0.05003,0 0.126294,0 0.177782,0 l 0.08875,1.2443 c 0.117195,1.302 0.36224,2.704 0.8,4.089 -0.58337,-1.3648 -1.000448,-2.8505 -1.066666,-4.4445 v -0.089 c -0.03381,-0.3123 -0.02848,-0.6363 0,-0.7999 z m 10.400007,1.6 c -0.26197,1.1192 -0.45764,2.4646 -0.88889,2.9331 l -0.08875,0.089 c -0.755509,1.1042 -2.178922,1.7577 -3.555552,1.6891 h -0.08875 c -0.95263,0.029 -1.973472,-0.7561 -2.222219,-1.6891 -0.23296,-0.717 -0.339349,-1.59 -0.444448,-2.3998 0.455904,-0.043 0.876971,-0.037 1.333333,-0.088 v 0.088 c 2.010624,-0.1679 4.002016,-0.4676 5.955546,-0.6224 z m -9.244444,3.822 c 0.270507,0.9167 0.816864,1.7072 1.511115,2.3111 -0.07221,-0.06 -0.197974,-0.029 -0.266528,-0.089 -0.60752,-0.576 -0.891734,-1.4301 -1.244448,-2.2222 z m 8.977784,2.0446 c -0.20082,0.1564 -0.3142,0.4033 -0.53334,0.5334 v 0.089 c -0.0788,0.048 -0.185169,0.043 -0.266524,0.089 0.312264,-0.165 0.516984,-0.4958 0.800004,-0.7111 z"
       id="path66398"
       inkscape:connector-curvature="0"
       inkscape:export-filename="/home/dafeba/DCV/tallerD/bocetos/bateria.png"
       inkscape:export-xdpi="90.041016"
       inkscape:export-ydpi="90.041016" />
    <path
       style="color:#000000;font-style:normal;font-variant:normal;font-weight:normal;font-stretch:normal;font-size:medium;line-height:normal;font-family:'Bitstream Vera Sans';-inkscape-font-specification:'Bitstream Vera Sans';text-indent:0;text-align:start;text-decoration:none;text-decoration-line:none;letter-spacing:normal;word-spacing:normal;text-transform:none;writing-mode:lr-tb;direction:ltr;baseline-shift:baseline;text-anchor:start;display:inline;overflow:visible;visibility:visible;fill:#1a1a1a;fill-opacity:1;stroke:none;stroke-width:0.99049908px;marker:none;enable-background:accumulate"
       d="m 99.846857,1060.4647 c -0.767296,0.1224 -1.16352,0.9265 -1.066666,1.6435 0,1.9412 0,3.8822 0,5.8232 -1.303702,0.1195 -2.607424,0.2362 -3.911115,0.3556 -0.0053,-1.9997 0.0085,-4.0002 -0.0053,-5.9996 -0.05291,-1.047 -1.468875,-1.5976 -2.215062,-0.8612 -0.667189,0.6025 -0.383658,1.5488 -0.444949,2.3373 0,1.5968 0,3.1934 0,4.7903 -0.854645,0.088 -1.723627,0.085 -2.568171,0.236 -0.971061,0.2931 -0.968192,1.4266 -0.878986,2.2477 0.113493,2.7322 0.73153,5.6992 2.793237,7.6539 2.331061,2.1866 6.106229,2.2055 8.749255,0.5834 2.65851,-1.5755 4.05265,-4.6063 4.52557,-7.5586 0.15418,-1.1132 0.34012,-2.2556 0.21675,-3.3766 -0.19371,-0.774 -1.0527,-1.0798 -1.76876,-0.9162 -0.60817,0.051 -1.21631,0.1024 -1.82448,0.1508 -0.0114,-2.0134 0.0227,-4.0292 -0.0171,-6.0411 -0.10464,-0.7233 -0.87159,-1.2421 -1.582143,-1.0701 z m 0.711103,15.0224 c -1.039156,1.5186 -2.881503,2.3521 -4.703625,2.261 -1.603019,0.034 -3.094614,-1.118 -3.505952,-2.6607 -0.405899,-1.2498 -0.562059,-2.563 -0.679307,-3.8669 0.903733,-0.082 1.8176,-0.1593 2.709472,-0.2589 2.074539,-0.1735 4.157355,-0.4054 6.225062,-0.5632 0.33076,-0.063 1.15968,-0.068 1.67402,-0.1422 -0.0384,1.6927 -0.63206,4.0513 -1.71967,5.233 z"
       id="path66402"
       inkscape:connector-curvature="0"
       sodipodi:nodetypes="ccccccccccccccccccccccccccc"
       inkscape:export-filename="/home/dafeba/DCV/tallerD/bocetos/bateria.png"
       inkscape:export-xdpi="90.041016"
       inkscape:export-ydpi="90.041016" />
    <path
       style="color:#000000;font-style:normal;font-variant:normal;font-weight:normal;font-stretch:normal;font-size:medium;line-height:normal;font-family:sans-serif;font-variant-ligatures:normal;font-variant-position:normal;font-variant-caps:normal;font-variant-numeric:normal;font-variant-alternates:normal;font-feature-settings:normal;text-indent:0;text-align:start;text-decoration:none;text-decoration-line:none;text-decoration-style:solid;text-decoration-color:#000000;letter-spacing:normal;word-spacing:normal;text-transform:none;writing-mode:lr-tb;direction:ltr;text-orientation:mixed;dominant-baseline:auto;baseline-shift:baseline;text-anchor:start;white-space:normal;shape-padding:0;clip-rule:nonzero;display:inline;overflow:visible;visibility:visible;opacity:1;isolation:auto;mix-blend-mode:normal;color-interpolation:sRGB;color-interpolation-filters:linearRGB;solid-color:#000000;solid-opacity:1;vector-effect:none;fill:#000000;fill-opacity:1;fill-rule:nonzero;stroke:none;stroke-width:2.5;stroke-linecap:round;stroke-linejoin:round;stroke-miterlimit:4;stroke-dasharray:none;stroke-dashoffset:0;stroke-opacity:1;color-rendering:auto;image-rendering:auto;shape-rendering:auto;text-rendering:auto;enable-background:accumulate"
       d="m 67.37695,1000.0293 c -16.689574,-0.20698 -32.835476,9.7326 -42.583984,27.869 -6.959716,12.9481 -7.892526,30.0814 -2.503907,45.6367 6.92e-4,0 0.0013,0 0.002,0.01 6.919799,20.0653 23.887614,30.3257 39.947265,30.9004 13.400398,0.4797 23.654659,-5.7281 32.875,-12.0898 l -11.925827,-17.2833 c -8.604362,5.9367 -13.296116,8.6339 -20.199219,8.3868 -8.877443,-0.3177 -16.359524,-3.7501 -20.845703,-16.7637 l -0.0039,-0.01 -0.0039,-0.01 c -3.223323,-9.2958 -1.786107,-23.358 1.15625,-28.8321 7.028012,-13.0751 14.805086,-16.9263 23.826172,-16.8144 z"
       id="path4684"
       inkscape:connector-curvature="0" />
    <path
       style="color:#000000;font-style:normal;font-variant:normal;font-weight:normal;font-stretch:normal;font-size:medium;line-height:normal;font-family:sans-serif;font-variant-ligatures:normal;font-variant-position:normal;font-variant-caps:normal;font-variant-numeric:normal;font-variant-alternates:normal;font-feature-settings:normal;text-indent:0;text-align:start;text-decoration:none;text-decoration-line:none;text-decoration-style:solid;text-decoration-color:#000000;letter-spacing:normal;word-spacing:normal;text-transform:none;writing-mode:lr-tb;direction:ltr;text-orientation:mixed;dominant-baseline:auto;baseline-shift:baseline;text-anchor:start;white-space:normal;shape-padding:0;clip-rule:nonzero;display:inline;overflow:visible;visibility:visible;opacity:1;isolation:auto;mix-blend-mode:normal;color-interpolation:sRGB;color-interpolation-filters:linearRGB;solid-color:#000000;solid-opacity:1;vector-effect:none;fill:url(#linearGradient4753);fill-opacity:1;fill-rule:nonzero;stroke:none;stroke-width:21;stroke-linecap:butt;stroke-linejoin:miter;stroke-miterlimit:4;stroke-dasharray:none;stroke-dashoffset:0;stroke-opacity:1;color-rendering:auto;image-rendering:auto;shape-rendering:auto;text-rendering:auto;enable-background:accumulate"
       d="m 40.7168,1060.4159 -20.20313,6.9864 c 0.4874,2.0621 1.07513,4.1113 1.77539,6.1328 6.9e-4,0 9.6e-4,0 0.002,0.01 6.91979,20.0652 23.88761,30.3257 39.94726,30.9004 13.4004,0.4797 23.65466,-5.7282 32.875,-12.0899 L 83.1875,1075.0724 c -8.60436,5.9367 -13.29612,8.6338 -20.19922,8.3867 -8.87744,-0.3177 -16.35952,-3.7501 -20.8457,-16.7637 l -0.004,-0.01 -0.004,-0.01 c -0.66579,-1.92 -1.12205,-4.0487 -1.41797,-6.2578 z"
       id="path4731"
       inkscape:connector-curvature="0" />
    <path
       style="display:inline;fill:none;stroke:#ffffff;stroke-width:2.4000001;stroke-linecap:round;stroke-linejoin:round;stroke-miterlimit:4;stroke-dasharray:none;stroke-opacity:0.62780265"
       d="m 46.639313,1099.4939 4.225478,-9.8663"
       id="path4707"
       inkscape:connector-curvature="0"
       sodipodi:nodetypes="cc" />
    <path
       sodipodi:nodetypes="cc"
       inkscape:connector-curvature="0"
       id="path4718"
       d="m 26.211051,1027.2587 9.103891,4.7605"
       style="display:inline;fill:none;stroke:#ffffff;stroke-width:2.4000001;stroke-linecap:round;stroke-linejoin:miter;stroke-miterlimit:4;stroke-dasharray:none;stroke-opacity:0.62780265" />
    <path
       style="display:inline;fill:none;stroke:#ffffff;stroke-width:2.4000001;stroke-linecap:round;stroke-linejoin:miter;stroke-miterlimit:4;stroke-dasharray:none;stroke-opacity:0.62780265"
       d="m 22.281018,1066.6993 8.643998,-2.6886"
       id="path4748"
       inkscape:connector-curvature="0"
       sodipodi:nodetypes="cc" />
    <path
       style="display:inline;fill:none;stroke:#ffffff;stroke-width:3.4000001;stroke-linecap:round;stroke-linejoin:round;stroke-miterlimit:4;stroke-dasharray:none;stroke-opacity:0.65022421"
       d="m 66.764204,1022.5278 -0.256225,-21.5242 c -15.888166,-0.1145 -32.866347,10.9924 -41.09945,28.0156 -4.522191,9.3502 -6.611909,23.1095 -3.648803,38.8446 4.935451,16.7206 13.588805,27.6785 28.235499,32.5192 14.830641,4.9015 26.239794,2.9142 43.262322,-8.3987 l -12.592703,-17.7464"
       id="path4722"
       inkscape:connector-curvature="0"
       sodipodi:nodetypes="ccscscc" />
    <rect
       inkscape:export-ydpi="57.964222"
       inkscape:export-xdpi="57.964222"
       inkscape:export-filename="/home/dafeba/DCV/tallerD/bocetos/08-09-22-hastaahora.png"
       ry="3.8658166"
       rx="3.8659387"
       y="988.52716"
       x="70.494247"
       height="63.893635"
       width="63.895657"
       id="rect846"
       style="display:inline;fill:url(#linearGradient850);fill-opacity:1;stroke:none;stroke-width:1.06666672" />
    <rect
       inkscape:export-ydpi="57.964222"
       inkscape:export-xdpi="57.964222"
       inkscape:export-filename="/home/dafeba/DCV/tallerD/bocetos/08-09-22-hastaahora.png"
       ry="3.6927202"
       rx="3.6928368"
       y="987.12415"
       x="73.943214"
       height="61.032726"
       width="61.034657"
       id="rect848"
       style="display:inline;fill:url(#linearGradient5121);fill-opacity:1;stroke:none;stroke-width:1.70666671;stroke-miterlimit:4;stroke-dasharray:none" />
    <path
       style="color:#000000;font-style:normal;font-variant:normal;font-weight:normal;font-stretch:normal;font-size:medium;line-height:normal;font-family:'Bitstream Vera Sans';-inkscape-font-specification:'Bitstream Vera Sans';text-indent:0;text-align:start;text-decoration:none;text-decoration-line:none;letter-spacing:normal;word-spacing:normal;text-transform:none;writing-mode:lr-tb;direction:ltr;baseline-shift:baseline;text-anchor:start;display:inline;overflow:visible;visibility:visible;fill:#000000;fill-opacity:0.55605379;stroke:#000000;stroke-width:1.43299997;stroke-miterlimit:4;stroke-dasharray:none;stroke-opacity:0.29147985;marker:none;enable-background:accumulate"
       d="m 132.83434,1008.7282 c -0.21594,-2 -2.096,-3.6788 -4.10749,-3.6674 h -14.44964 l -0.0726,-6.45444 c 0,-2.15061 -1.95681,-4.10727 -4.10745,-4.10748 -10.84449,0 -18.755109,2.24336 -24.058203,6.82132 -5.302849,4.5779 -7.362298,11.2612 -7.261379,18.1169 0.0939,6.4325 2.119769,12.9074 7.334819,17.6034 5.215132,4.696 13.099924,7.3459 24.058213,7.5548 2.19907,0.079 4.25537,-1.9071 4.25414,-4.1074 v -7.0414 h 14.3028 c 2.17016,0.031 4.16617,-1.9373 4.16617,-4.1075 0,-2.1703 -1.99601,-4.1382 -4.16617,-4.1075 h -14.3028 l -0.0726,-11.9557 h 14.37624 c 2.30536,0.014 4.35419,-2.2553 4.10751,-4.5475 z m -26.62544,27.0653 c -6.880408,-0.7278 -11.906576,-2.4192 -14.596205,-4.841 -3.267658,-2.9425 -4.548977,-6.778 -4.621013,-11.6623 -0.07757,-5.2841 1.192777,-8.9661 4.400859,-11.7356 2.650598,-2.2881 7.676767,-3.8424 14.596359,-4.4009 0.024,10.8778 0.22065,21.7844 0.22065,32.6398 z"
       id="path5123"
       inkscape:connector-curvature="0"
       sodipodi:nodetypes="cccccscsccccscccccccssscc"
       inkscape:export-filename="/home/dafeba/DCV/tallerD/bocetos/bateria.png"
       inkscape:export-xdpi="90.041016"
       inkscape:export-ydpi="90.041016" />
    <path
       inkscape:export-ydpi="90.041016"
       inkscape:export-xdpi="90.041016"
       inkscape:export-filename="/home/dafeba/DCV/tallerD/bocetos/bateria.png"
       sodipodi:nodetypes="cccccscsccccscccccccssscc"
       inkscape:connector-curvature="0"
       id="path66454-5"
       d="m 131.50501,1006.7627 c -0.21594,-2 -2.096,-3.6788 -4.10749,-3.6674 h -14.44965 l -0.0726,-6.45443 c 0,-2.1506 -1.9568,-4.10726 -4.10744,-4.10748 -10.844496,0 -18.755115,2.24336 -24.058209,6.82132 -5.302848,4.57789 -7.362297,11.26119 -7.261379,18.11689 0.09391,6.4326 2.119769,12.9074 7.334819,17.6034 5.215132,4.696 13.099924,7.3459 24.058209,7.5548 2.19908,0.079 4.25538,-1.907 4.25415,-4.1074 v -7.0414 h 14.3028 c 2.17016,0.031 4.16617,-1.9372 4.16617,-4.1075 0,-2.1702 -1.99601,-4.1382 -4.16617,-4.1075 h -14.3028 l -0.0726,-11.9556 h 14.37624 c 2.30536,0.014 4.35419,-2.2554 4.10751,-4.5476 z m -26.62544,27.0653 c -6.880413,-0.7278 -11.906582,-2.4191 -14.596211,-4.8409 -3.267658,-2.9426 -4.548976,-6.7781 -4.621013,-11.6623 -0.07757,-5.2842 1.192777,-8.9662 4.400859,-11.7357 2.650598,-2.2881 7.676767,-3.8424 14.596365,-4.4008 0.0239,10.8778 0.22065,21.7843 0.22065,32.6397 z"
       style="color:#000000;font-style:normal;font-variant:normal;font-weight:normal;font-stretch:normal;font-size:medium;line-height:normal;font-family:'Bitstream Vera Sans';-inkscape-font-specification:'Bitstream Vera Sans';text-indent:0;text-align:start;text-decoration:none;text-decoration-line:none;letter-spacing:normal;word-spacing:normal;text-transform:none;writing-mode:lr-tb;direction:ltr;baseline-shift:baseline;text-anchor:start;display:inline;overflow:visible;visibility:visible;fill:#ffffff;fill-opacity:1;stroke:none;stroke-width:0.53333336;marker:none;enable-background:accumulate" />
  </g>
</svg>
