<?xml version="1.0" encoding="UTF-8" standalone="no"?>
<!-- Created with Inkscape (http://www.inkscape.org/) -->

<svg
   xmlns:dc="http://purl.org/dc/elements/1.1/"
   xmlns:cc="http://creativecommons.org/ns#"
   xmlns:rdf="http://www.w3.org/1999/02/22-rdf-syntax-ns#"
   xmlns:svg="http://www.w3.org/2000/svg"
   xmlns="http://www.w3.org/2000/svg"
   xmlns:xlink="http://www.w3.org/1999/xlink"
   xmlns:sodipodi="http://sodipodi.sourceforge.net/DTD/sodipodi-0.dtd"
   xmlns:inkscape="http://www.inkscape.org/namespaces/inkscape"
   width="136.53334"
   height="136.53334"
   id="svg17172"
   version="1.1"
   inkscape:version="0.92.1 r15371"
   sodipodi:docname="gpm-battery-060-charging.svg">
  <defs
     id="defs17174">
    <linearGradient
       inkscape:collect="always"
       xlink:href="#linearGradient13604-6-4"
       id="linearGradient19009"
       gradientUnits="userSpaceOnUse"
       gradientTransform="matrix(2.2760519,0,0,2.2760519,-1108.727,-1139.1597)"
       x1="515.5863"
       y1="952.8299"
       x2="528.09021"
       y2="990.23395" />
    <linearGradient
       id="linearGradient13604-6-4">
      <stop
         id="stop13606-2-6"
         offset="0"
         style="stop-color:#ffffff;stop-opacity:1;" />
      <stop
         id="stop13608-7-0"
         offset="1"
         style="stop-color:#000000;stop-opacity:1;" />
    </linearGradient>
    <linearGradient
       inkscape:collect="always"
       xlink:href="#linearGradient13604-6-4"
       id="linearGradient19012"
       gradientUnits="userSpaceOnUse"
       gradientTransform="matrix(2.452777,1.3778745,-1.0951162,3.0860826,-146.22816,-2633.9539)"
       x1="506.53442"
       y1="958.87305"
       x2="530.64825"
       y2="952.20062" />
    <linearGradient
       inkscape:collect="always"
       xlink:href="#linearGradient13604-6-4"
       id="linearGradient19016"
       gradientUnits="userSpaceOnUse"
       gradientTransform="matrix(2.8444445,0,0,2.8444445,-1403.0282,-1686.1947)"
       x1="514.4931"
       y1="950.51849"
       x2="517.49799"
       y2="967.01849" />
    <linearGradient
       inkscape:collect="always"
       xlink:href="#linearGradient5316-0-0"
       id="linearGradient19035"
       gradientUnits="userSpaceOnUse"
       gradientTransform="matrix(2.8444445,0,0,2.8444445,-207.10439,-1688.206)"
       x1="79.374985"
       y1="968.60938"
       x2="88.53125"
       y2="968.60938" />
    <linearGradient
       id="linearGradient5316-0-0">
      <stop
         style="stop-color:#766287;stop-opacity:1;"
         offset="0"
         id="stop5320-8-15" />
      <stop
         style="stop-color:#766287;stop-opacity:1;"
         offset="1"
         id="stop5322-1-1" />
    </linearGradient>
    <linearGradient
       inkscape:collect="always"
       xlink:href="#linearGradient5316-0-0"
       id="linearGradient19039"
       gradientUnits="userSpaceOnUse"
       gradientTransform="matrix(2.8444445,0,0,2.8444445,-207.10439,-1688.206)"
       x1="79.71875"
       y1="953.51562"
       x2="90.96875"
       y2="953.51562" />
    <linearGradient
       inkscape:collect="always"
       xlink:href="#linearGradient5398-0-3"
       id="linearGradient19042"
       gradientUnits="userSpaceOnUse"
       gradientTransform="matrix(2.8444445,0,0,2.8444445,-207.10439,-1688.206)"
       x1="88.9375"
       y1="948.65259"
       x2="101.5625"
       y2="948.77759" />
    <linearGradient
       inkscape:collect="always"
       xlink:href="#linearGradient13604-6-4"
       id="linearGradient19134"
       gradientUnits="userSpaceOnUse"
       gradientTransform="matrix(2.8444445,0,0,2.8444445,-492.80591,-1686.1947)"
       x1="200.4375"
       y1="989.04968"
       x2="189.375"
       y2="972.42468" />
    <linearGradient
       inkscape:collect="always"
       xlink:href="#linearGradient9863-4-4"
       id="linearGradient19137"
       gradientUnits="userSpaceOnUse"
       gradientTransform="matrix(2.8444445,0,0,2.8444445,-811.38369,-1458.639)"
       x1="308.6875"
       y1="907.00311"
       x2="308.6875"
       y2="859.37317" />
    <linearGradient
       id="linearGradient9863-4-4">
      <stop
         style="stop-color:#2f445a;stop-opacity:1;"
         offset="0"
         id="stop9865-0-4" />
      <stop
         style="stop-color:#415f7c;stop-opacity:1"
         offset="1"
         id="stop9867-6-0" />
    </linearGradient>
    <linearGradient
       inkscape:collect="always"
       xlink:href="#linearGradient13604-6-4"
       id="linearGradient19140"
       gradientUnits="userSpaceOnUse"
       gradientTransform="matrix(2.9192873,0,0,2.8633919,-1439.5886,-1704.8162)"
       x1="585.32428"
       y1="1057.6436"
       x2="492.58313"
       y2="945.6142" />
    <linearGradient
       inkscape:collect="always"
       xlink:href="#linearGradient5439-3-0"
       id="linearGradient19143"
       gradientUnits="userSpaceOnUse"
       gradientTransform="matrix(2.8960305,0,0,2.8959107,-1404.6407,-1736.0944)"
       x1="535.57587"
       y1="1000.2343"
       x2="496.84631"
       y2="946.46552" />
    <linearGradient
       id="linearGradient5439-3-0">
      <stop
         style="stop-color:#ffffff;stop-opacity:1;"
         offset="0"
         id="stop5441-29-2" />
      <stop
         style="stop-color:#000000;stop-opacity:1;"
         offset="1"
         id="stop5443-3-7" />
    </linearGradient>
    <linearGradient
       inkscape:collect="always"
       xlink:href="#linearGradient5344-50-5"
       id="linearGradient19146"
       gradientUnits="userSpaceOnUse"
       gradientTransform="matrix(2.8960305,0,0,2.8959107,-1404.6407,-1736.0944)"
       x1="504.93024"
       y1="992.24542"
       x2="497.81961"
       y2="968.64575" />
    <linearGradient
       id="linearGradient5344-50-5">
      <stop
         style="stop-color:#000000;stop-opacity:1;"
         offset="0"
         id="stop5346-2-7" />
      <stop
         style="stop-color:#000000;stop-opacity:0;"
         offset="1"
         id="stop5348-5-3" />
    </linearGradient>
    <linearGradient
       inkscape:collect="always"
       xlink:href="#linearGradient13604-6-4"
       id="linearGradient19149"
       gradientUnits="userSpaceOnUse"
       gradientTransform="matrix(2.8960305,0,0,2.8959107,-1404.6407,-1736.0944)"
       x1="506.14658"
       y1="891.09094"
       x2="484.66602"
       y2="986.18469" />
    <linearGradient
       id="linearGradient13628-4-3">
      <stop
         style="stop-color:#aac736;stop-opacity:1;"
         offset="0"
         id="stop13630-3-1" />
      <stop
         style="stop-color:#5d8b2c;stop-opacity:1;"
         offset="1"
         id="stop13632-1-2" />
    </linearGradient>
    <filter
       inkscape:collect="always"
       id="filter21405-5"
       style="color-interpolation-filters:sRGB">
      <feGaussianBlur
         inkscape:collect="always"
         stdDeviation="0.34806852"
         id="feGaussianBlur21407-3" />
    </filter>
    <linearGradient
       inkscape:collect="always"
       xlink:href="#linearGradient13628-4-3"
       id="linearGradient19893"
       gradientUnits="userSpaceOnUse"
       gradientTransform="matrix(2.8444445,0,0,2.8444445,-1368.9594,-625.28302)"
       x1="516.26202"
       y1="567.96631"
       x2="517.18903"
       y2="590.68213" />
    <linearGradient
       inkscape:collect="always"
       id="linearGradient5398-0-3">
      <stop
         style="stop-color:#766287;stop-opacity:1"
         offset="0"
         id="stop5400-0-6" />
      <stop
         style="stop-color:#766287;stop-opacity:0"
         offset="1"
         id="stop5402-5-7" />
    </linearGradient>
  </defs>
  <sodipodi:namedview
     id="base"
     pagecolor="#ffffff"
     bordercolor="#666666"
     borderopacity="1.0"
     inkscape:pageopacity="0.0"
     inkscape:pageshadow="2"
     inkscape:zoom="2.8"
     inkscape:cx="32.507189"
     inkscape:cy="67.186095"
     inkscape:document-units="px"
     inkscape:current-layer="layer1"
     showgrid="false"
     inkscape:showpageshadow="false"
     inkscape:window-width="1366"
     inkscape:window-height="714"
     inkscape:window-x="0"
     inkscape:window-y="26"
     inkscape:window-maximized="1" />
  <metadata
     id="metadata17177">
    <rdf:RDF>
      <cc:Work
         rdf:about="">
        <dc:format>image/svg+xml</dc:format>
        <dc:type
           rdf:resource="http://purl.org/dc/dcmitype/StillImage" />
        <dc:title />
      </cc:Work>
    </rdf:RDF>
  </metadata>
  <g
     inkscape:label="Capa 1"
     inkscape:groupmode="layer"
     id="layer1"
     transform="translate(0,-985.98631)">
    <path
       inkscape:connector-curvature="0"
       inkscape:export-ydpi="90.041016"
       inkscape:export-xdpi="90.041016"
       inkscape:export-filename="/home/dafeba/DCV/tallerD/bocetos/bateria.png"
       sodipodi:nodetypes="csssssc"
       id="path66258"
       d="m 108.27783,1049.9957 c -0.81095,31.8398 -16.61838,62.6006 -43.787376,62.7808 -11.464818,0.077 -24.136533,-2.7161 -32.330809,-7.1535 -16.934969,-9.1707 -26.7733339,-29.1993 -26.7926757,-51.5719 -0.022752,-26.8078 13.8419207,-51.125 35.6790047,-59.43617 6.376107,-2.42659 18.866062,-4.50048 27.715982,-4.40888 23.069579,0.23608 39.515874,26.32765 39.515874,59.78965 z"
       style="display:inline;fill:url(#linearGradient19149);fill-opacity:1;stroke:none;stroke-width:1.06666672" />
    <path
       inkscape:connector-curvature="0"
       inkscape:export-ydpi="90.041016"
       inkscape:export-xdpi="90.041016"
       inkscape:export-filename="/home/dafeba/DCV/tallerD/bocetos/bateria.png"
       style="display:inline;fill:url(#linearGradient19146);fill-opacity:1;stroke:none;stroke-width:1.06666672"
       d="m 65.514454,1112.7765 c -8.476444,1.2184 -20.274631,-2.0002 -27.070009,-4.3752 -16.731592,-5.8479 -27.963734,-21.3238 -31.7053157,-40.202 -0.9014048,-4.5477 22.1815467,-1.1019 36.7681417,0.6978 34.385637,-2.0393 77.957689,27.8206 22.007183,43.8794 z"
       id="path66262"
       sodipodi:nodetypes="csscc" />
    <path
       inkscape:connector-curvature="0"
       inkscape:export-ydpi="90.041016"
       inkscape:export-xdpi="90.041016"
       inkscape:export-filename="/home/dafeba/DCV/tallerD/bocetos/bateria.png"
       style="display:inline;fill:url(#linearGradient19143);fill-opacity:1;stroke:none;stroke-width:1.06666672"
       d="m 117.49952,1050.2463 c -0.81123,32.7057 -18.288924,57.4575 -45.080461,62.065 -35.822366,6.161 -58.368001,-23.5427 -58.400143,-57.6433 -0.03328,-35.4764 23.552,-66.70651 57.949298,-64.00342 27.086788,2.12792 45.531306,25.21002 45.531306,59.58172 z"
       id="path66264"
       sodipodi:nodetypes="csssc" />
    <path
       inkscape:connector-curvature="0"
       style="display:inline;fill:url(#linearGradient19140);fill-opacity:1;stroke:none;stroke-width:1.06666672"
       d="m 113.95916,1050.8687 c -0.76863,30.4008 -17.331806,53.4084 -42.721711,57.6913 -33.948105,5.7267 -55.314063,-21.8837 -55.344414,-53.5814 -0.03186,-32.9765 22.319388,-62.00605 54.917035,-59.49298 25.66986,1.97774 43.14909,23.43338 43.14909,55.38308 z"
       id="path66266"
       sodipodi:nodetypes="csssc"
       inkscape:export-filename="/home/dafeba/DCV/tallerD/bocetos/bateria.png"
       inkscape:export-xdpi="90.041016"
       inkscape:export-ydpi="90.041016" />
    <path
       inkscape:connector-curvature="0"
       inkscape:export-ydpi="90.041016"
       inkscape:export-xdpi="90.041016"
       inkscape:export-filename="/home/dafeba/DCV/tallerD/bocetos/bateria.png"
       sodipodi:nodetypes="csssccccc"
       id="path66268"
       d="m 65.327574,990.24986 c -8.406756,0.36864 -18.687716,2.23203 -24.266809,4.35569 -21.837369,8.31115 -35.7563739,32.65875 -35.7333339,59.46655 0.019915,22.3727 9.9094759,42.3844 26.8444449,51.5555 4.033137,2.184 9.404872,4.2901 14.923662,5.5148 7.494827,1.7852 16.674135,2.3006 25.343148,1.152 26.791537,-4.6077 44.255284,-29.339 45.066524,-62.0447 0,-32.6815 -16.60928,-55.484 -41.53344,-59.44432 -3.521707,-0.58255 -7.089494,-0.55552 -10.644196,-0.55552 z"
       style="display:inline;fill:none;stroke:url(#linearGradient19137);stroke-width:2.84444451;stroke-linecap:round;stroke-linejoin:round;stroke-miterlimit:4;stroke-dasharray:none;stroke-dashoffset:0;stroke-opacity:1" />
    <path
       style="color:#000000;font-style:normal;font-variant:normal;font-weight:normal;font-stretch:normal;font-size:medium;line-height:normal;font-family:'Bitstream Vera Sans';-inkscape-font-specification:'Bitstream Vera Sans';text-indent:0;text-align:start;text-decoration:none;text-decoration-line:none;letter-spacing:normal;word-spacing:normal;text-transform:none;writing-mode:lr-tb;direction:ltr;baseline-shift:baseline;text-anchor:start;display:inline;overflow:visible;visibility:visible;fill:url(#linearGradient19134);fill-opacity:1;fill-rule:nonzero;stroke:none;stroke-width:0.99049908px;marker:none;enable-background:accumulate"
       d="m 56.082988,1077.8052 v 0.089 c -0.730198,0.1621 -1.360072,0.6056 -1.68889,1.1554 -0.316672,0.5297 -0.400725,1.0909 -0.355555,1.689 h -0.08875 v 4.6222 c -0.416739,0.037 -0.827677,0.1394 -1.244445,0.1765 7.97e-4,-1.5267 0.01138,-3.0838 0,-4.6223 v -0.089 c -0.109795,-2.1753 -2.769265,-3.1385 -4.355555,-1.6887 h -0.08875 c -0.601742,0.5894 -0.861668,1.4018 -0.888889,1.9556 -0.02845,0.5748 0.01422,1.0476 0,1.2444 v 0.089 3.5556 c -0.472349,0.031 -0.887866,0.082 -1.422223,0.1764 h -0.08875 -0.08875 c -0.93679,0.2816 -1.506105,1.161 -1.688889,1.8667 -0.173795,0.6702 -0.137671,1.2252 -0.08875,1.6888 0.0012,0.029 -0.0013,0.06 0,0.089 0.128853,2.8721 0.77312,6.1438 3.2,8.4446 v 0.089 c 2.847175,2.6708 7.18629,2.6292 10.311111,0.7112 3.123285,-1.8512 4.640853,-5.2315 5.155555,-8.4446 v -0.089 c 0.151325,-1.0923 0.327595,-2.283 0.177778,-3.6443 v -0.089 -0.089 c -0.198541,-0.793 -0.79889,-1.3989 -1.422223,-1.6887 -0.539904,-0.2504 -1.127509,-0.3471 -1.688888,-0.2674 H 59.4616 59.283823 c 0.0029,-1.5127 0.03043,-3.0817 0,-4.6222 v -0.089 c -0.213333,-1.4748 -1.579748,-2.4647 -3.022223,-2.2224 -0.06343,0 -0.114062,0 -0.177777,0 z m 4,9.5113 c 0.04323,0 0.128,0 0.177777,0 -0.01707,0 -0.07083,0.091 -0.08875,0.089 0.02845,0 0.06627,0 0.08875,0 0.05006,0.8277 -0.03442,1.7207 -0.177777,2.7557 -0.244338,1.525 -0.890568,2.9202 -1.68889,4.1776 v -0.1763 c 1.049003,-1.5889 1.650746,-3.563 1.68889,-5.2442 l 0.08875,-1.5113 H 59.99396 l 0.08875,-0.089 z m -0.177778,0.089 -1.333334,0.1764 c -0.162418,0.029 -0.398478,0.072 -0.711111,0.089 -0.256284,0 -0.530603,0.051 -0.8,0.088 -0.05917,0 -0.113494,0 -0.177777,0 -0.08789,0 -0.178632,0 -0.266525,0 v -0.088 l 1.422222,-0.1765 1.866666,-0.089 z m -13.333334,1.3336 c 0.05006,0 0.126294,0 0.177778,0 l 0.08875,1.2443 c 0.11719,1.302 0.36224,2.704 0.8,4.089 -0.583367,-1.3648 -1.000448,-2.8505 -1.066667,-4.4445 v -0.089 c -0.03384,-0.3123 -0.02845,-0.6363 0,-0.7999 z m 10.4,1.6 c -0.261973,1.1192 -0.457642,2.4646 -0.888888,2.9331 l -0.08875,0.089 c -0.755514,1.1042 -2.17893,1.7577 -3.555556,1.6891 h -0.08875 c -0.952632,0.029 -1.973475,-0.7561 -2.222222,-1.6891 -0.23296,-0.717 -0.339342,-1.59 -0.444445,-2.3998 0.455909,-0.043 0.876971,-0.037 1.333334,-0.088 v 0.088 c 2.010624,-0.1679 4.00202,-0.4676 5.955556,-0.6224 z m -9.244445,3.822 c 0.270507,0.9167 0.816869,1.7072 1.511112,2.3111 -0.07225,-0.06 -0.197973,-0.029 -0.266525,-0.089 -0.607516,-0.576 -0.891733,-1.4301 -1.244444,-2.2222 z m 8.977779,2.0446 c -0.200819,0.1564 -0.314198,0.4033 -0.533334,0.5334 v 0.089 c -0.07879,0.048 -0.185173,0.043 -0.266525,0.089 0.312264,-0.165 0.516979,-0.4958 0.8,-0.7111 z"
       id="path66270"
       inkscape:connector-curvature="0"
       inkscape:export-filename="/home/dafeba/DCV/tallerD/bocetos/bateria.png"
       inkscape:export-xdpi="90.041016"
       inkscape:export-ydpi="90.041016" />
    <path
       style="color:#000000;font-style:normal;font-variant:normal;font-weight:normal;font-stretch:normal;font-size:medium;line-height:normal;font-family:'Bitstream Vera Sans';-inkscape-font-specification:'Bitstream Vera Sans';text-indent:0;text-align:start;text-decoration:none;text-decoration-line:none;letter-spacing:normal;word-spacing:normal;text-transform:none;writing-mode:lr-tb;direction:ltr;baseline-shift:baseline;text-anchor:start;display:inline;overflow:visible;visibility:visible;fill:#1a1a1a;fill-opacity:1;stroke:none;stroke-width:0.99049908px;marker:none;enable-background:accumulate"
       d="m 55.90521,1079.4052 c -0.767289,0.1224 -1.16352,0.9265 -1.066667,1.6435 0,1.9412 0,3.8822 0,5.8232 -1.303694,0.1195 -2.607417,0.2362 -3.911112,0.3556 -0.0057,-1.9997 0.0085,-4.0002 -0.0057,-5.9996 -0.05291,-1.047 -1.468871,-1.5976 -2.215054,-0.8612 -0.667193,0.6025 -0.383658,1.5488 -0.444957,2.3373 0,1.5968 0,3.1934 0,4.7903 -0.854642,0.088 -1.723619,0.085 -2.568163,0.236 -0.971065,0.2931 -0.968192,1.4266 -0.878991,2.2477 0.113494,2.7322 0.731535,5.6992 2.793245,7.6539 2.331051,2.1866 6.106226,2.2055 8.749256,0.5834 2.658502,-1.5755 4.05265,-4.6063 4.525568,-7.5586 0.154168,-1.1132 0.340109,-2.2556 0.216746,-3.3766 -0.193706,-0.774 -1.052701,-1.0798 -1.768761,-0.9162 -0.608171,0.051 -1.216313,0.1024 -1.824484,0.1508 -0.01138,-2.0134 0.02275,-4.0292 -0.01707,-6.0411 -0.104672,-0.7233 -0.871595,-1.2421 -1.582137,-1.0701 z m 0.711111,15.0224 c -1.039162,1.5186 -2.881508,2.3521 -4.703631,2.261 -1.603014,0.034 -3.094613,-1.118 -3.505948,-2.6607 -0.405903,-1.2498 -0.562063,-2.563 -0.679311,-3.8669 0.903738,-0.082 1.8176,-0.1593 2.709477,-0.2589 2.074538,-0.1735 4.157354,-0.4054 6.225066,-0.5632 0.330752,-0.063 1.15968,-0.068 1.674012,-0.1422 -0.0384,1.6927 -0.632064,4.0513 -1.719665,5.233 z"
       id="path66274"
       inkscape:connector-curvature="0"
       sodipodi:nodetypes="ccccccccccccccccccccccccccc"
       inkscape:export-filename="/home/dafeba/DCV/tallerD/bocetos/bateria.png"
       inkscape:export-xdpi="90.041016"
       inkscape:export-ydpi="90.041016" />
    <path
       id="path66518"
       d="m 64.006729,995.97173 c -0.790586,0.0341 -1.535403,0.1024 -2.311112,0.17637 l 2.933333,21.4224 c 0.510094,-0.029 0.989981,-0.1 1.511112,-0.088 0.545195,0 1.043627,0.043 1.6,0.088 1.901425,0.1536 3.704006,0.5031 5.422222,1.0666 l 4.444445,-21.06679 c -2.576499,-0.73728 -5.288619,-1.19836 -8.08889,-1.42221 -0.942933,-0.0768 -1.920369,-0.16214 -2.844444,-0.17637 -0.895204,-0.0285 -1.789866,-0.037 -2.666666,0 z m -5.155557,0.53334 c -5.060551,0.84025 -9.785429,2.58247 -14.044445,5.06683 l 0.08875,0.1763 9.244445,18.6667 c 2.343651,-1.2684 4.924472,-2.1305 7.644445,-2.5779 L 58.85103,996.50365 Z m 21.422223,1.95556 -4.444445,21.33337 c 2.414422,1.156 4.654251,2.6831 6.577779,4.6222 l 10.755558,-18.1334 c -3.774037,-3.4204 -8.084907,-6.0709 -12.888892,-7.82217 z"
       style="display:inline;fill:url(#linearGradient19042);fill-opacity:1;stroke:none;stroke-width:1.06666672"
       inkscape:connector-curvature="0"
       inkscape:export-filename="/home/dafeba/DCV/tallerD/bocetos/bateria.png"
       inkscape:export-xdpi="90.041016"
       inkscape:export-ydpi="90.041016" />
    <path
       id="path66520"
       d="m 42.406727,1003.1719 c -3.731285,2.5247 -7.105991,5.6667 -10.044444,9.2444 l 13.955556,14.4887 c 1.591182,-1.9026 3.36219,-3.5964 5.333333,-4.9777 z m -11.822221,11.4665 c -2.687488,3.6682 -4.846365,7.874 -6.666667,12.2666 l 17.066667,8.889 c 0.977266,-2.3567 2.169287,-4.5679 3.555555,-6.5778 z m -7.822223,14.9333 c -1.373041,3.7968 -2.426652,7.779 -3.111111,11.9112 l 18.755555,3.3778 c 0.364403,-2.2136 0.914774,-4.3395 1.6,-6.4 z"
       style="display:inline;fill:url(#linearGradient19039);fill-opacity:1;stroke:none;stroke-width:1.06666672"
       inkscape:connector-curvature="0"
       inkscape:export-filename="/home/dafeba/DCV/tallerD/bocetos/bateria.png"
       inkscape:export-xdpi="90.041016"
       inkscape:export-ydpi="90.041016" />
    <path
       id="path66522"
       d="m 95.29562,1008.3274 -10.933333,18.3112 c 1.338816,1.7089 2.488832,3.6619 3.466667,5.7776 l 15.111106,-12.8888 c -2.11695,-4.2328 -4.613634,-8.0241 -7.64444,-11.2 z m 8.97777,13.8667 -15.288884,13.0666 c 0.816672,2.311 1.484,4.7874 1.866666,7.4666 l 17.688888,-5.3333 c -0.84273,-5.5328 -2.29967,-10.6317 -4.26667,-15.1999 z m 4.62223,18.1333 -17.688896,5.4221 c 0.09557,1.2481 0.08875,2.5085 0.08875,3.8224 -0.03211,1.3502 -0.135104,2.7025 -0.266517,3.9998 l 17.955543,2.5779 c 0.23951,-2.2297 0.38773,-4.5192 0.44445,-6.8446 0,-3.114 -0.21021,-6.0822 -0.53333,-8.9776 z"
       style="display:inline;fill:#000000;fill-opacity:1;stroke:none;stroke-width:1.06666672"
       inkscape:connector-curvature="0"
       inkscape:export-filename="/home/dafeba/DCV/tallerD/bocetos/bateria.png"
       inkscape:export-xdpi="90.041016"
       inkscape:export-ydpi="90.041016" />
    <path
       id="path66524"
       d="m 19.206727,1044.3273 c -0.361984,2.9207 -0.53612,5.878 -0.533333,8.8889 0.0018,1.7237 0.05035,3.462 0.177778,5.1555 l 19.022222,-3.2887 c -0.07709,-1.0331 -0.08789,-2.0597 -0.08875,-3.1113 -0.0013,-1.4344 0.04323,-2.8643 0.177779,-4.2667 l -18.755557,-3.3777 z m 19.022222,13.6001 -19.022222,3.2888 c 0.508104,4.294 1.377395,8.4187 2.666667,12.3556 l 17.777778,-9.2444 c -0.655673,-2.0403 -1.105778,-4.1955 -1.422223,-6.4 z m 2.400001,9.0667 -17.777778,9.2444 c 1.861319,4.8822 4.274033,9.4165 7.288889,13.3333 l 14.577778,-15.4666 c -1.630464,-2.1208 -3.012949,-4.4971 -4.088889,-7.1111 z"
       style="display:inline;fill:url(#linearGradient19035);fill-opacity:1;stroke:none;stroke-width:1.06666672"
       inkscape:connector-curvature="0"
       inkscape:export-filename="/home/dafeba/DCV/tallerD/bocetos/bateria.png"
       inkscape:export-xdpi="90.041016"
       inkscape:export-ydpi="90.041016" />
    <path
       sodipodi:nodetypes="csssc"
       id="path66580"
       d="m 73.766188,1051.5713 c -0.12544,5.0611 -2.83028,8.8917 -6.976342,9.6045 -5.543652,0.9535 -9.032647,-3.6431 -9.037625,-8.9205 -0.0057,-5.49 3.644757,-10.3231 8.967852,-9.9046 4.191771,0.3294 7.046115,3.9014 7.046115,9.2206 z"
       style="display:inline;fill:url(#linearGradient19016);fill-opacity:1;stroke:none;stroke-width:1.06666672"
       inkscape:export-filename="/home/dafeba/DCV/tallerD/bocetos/bateria.png"
       inkscape:export-xdpi="90.041016"
       inkscape:export-ydpi="90.041016"
       inkscape:connector-curvature="0" />
    <path
       style="display:inline;fill:#000000;fill-opacity:0.37004406;stroke:none;stroke-width:1.06666672"
       d="m 67.70169,1000.5911 c -1.935332,-0.2332 -2.318876,3.8912 -2.64246,7.7662 l -3.489821,41.7908 c -0.410767,4.6804 3.796509,6.8924 6.058667,6.7505 2.683335,-0.1678 6.56913,-2.5393 6.163598,-7.8496 l -3.834396,-40.521 c -0.196836,-3.8324 -0.417821,-7.6206 -2.255674,-7.9369 z"
       id="path66582"
       inkscape:connector-curvature="0"
       sodipodi:nodetypes="cccsccc"
       inkscape:transform-center-x="1.2904079"
       inkscape:transform-center-y="-7.43956"
       inkscape:export-filename="/home/dafeba/DCV/tallerD/bocetos/bateria.png"
       inkscape:export-xdpi="90.041016"
       inkscape:export-ydpi="90.041016" />
    <path
       inkscape:export-ydpi="90.041016"
       inkscape:export-xdpi="90.041016"
       inkscape:export-filename="/home/dafeba/DCV/tallerD/bocetos/bateria.png"
       inkscape:transform-center-y="-7.4169339"
       inkscape:transform-center-x="1.3121729"
       sodipodi:nodetypes="csccscc"
       inkscape:connector-curvature="0"
       id="path66584"
       d="m 68.186156,1003.2017 c 0.01422,-1.7038 -0.734123,-2.8046 -1.743502,-3.0085 -0.99274,-0.19913 -2.071893,0.5438 -2.270351,2.7423 l -4.016782,46.0033 c -0.410767,4.6802 3.796509,6.8923 6.058667,6.75 2.683335,-0.1678 5.597298,-2.6743 5.191765,-7.9843 z"
       style="display:inline;fill:url(#linearGradient19012);stroke:none;stroke-width:1.06666672" />
    <path
       inkscape:connector-curvature="0"
       inkscape:export-ydpi="90.041016"
       inkscape:export-xdpi="90.041016"
       inkscape:export-filename="/home/dafeba/DCV/tallerD/bocetos/bateria.png"
       style="display:inline;fill:url(#linearGradient19009);fill-opacity:1;stroke:none;stroke-width:1.06666672"
       d="m 72.966188,1051.5305 c -0.100406,4.05 -2.264718,7.1151 -5.58228,7.6858 -4.43591,0.7629 -7.227704,-2.9153 -7.231687,-7.1381 -0.0057,-4.393 2.916438,-8.2603 7.175852,-7.9256 3.354139,0.2646 5.638115,3.1218 5.638115,7.3779 z"
       id="path66586"
       sodipodi:nodetypes="csssc" />
    <path
       inkscape:export-ydpi="90.041016"
       inkscape:export-xdpi="90.041016"
       inkscape:export-filename="/home/dafeba/DCV/tallerD/bocetos/bateria.png"
       inkscape:connector-curvature="0"
       id="path66450"
       d="m 372.65625,780.971 c -1.2312,0 -2.26742,1.0501 -2.25,2.2812 v 5.5938 l -4.09375,0.031 v -5.625 c 0.008,-1.3122 -1.19563,-2.3905 -2.5,-2.25 l -0.25,0.031 -0.0625,0.125 c -0.95174,0.2704 -1.69323,1.0813 -1.6875,2.0937 v 5.6563 l -2.25,0.031 c -1.21952,1e-4 -2.24988,1.0305 -2.25,2.25 0,4.6893 0.97288,8.1781 3.03125,10.5625 2.06591,2.3931 5.06801,3.3257 8.09375,3.2812 2.84059,-0.042 5.7644,-0.9686 7.875,-3.3125 2.10585,-2.3386 3.25329,-5.8177 3.34375,-10.5625 0.0445,-1.2484 -1.00085,-2.3132 -2.25,-2.3125 h -2.5 v -5.5937 c 0.0174,-1.2311 -1.0188,-2.2813 -2.25,-2.2813 z m 2.125,12.375 c -0.33984,2.5391 -0.97955,4.4499 -1.8125,5.375 -1.15257,1.2799 -2.59636,1.7831 -4.59375,1.8125 -2.16781,0.032 -3.54562,-0.4684 -4.625,-1.7188 -0.77951,-0.903 -1.3795,-2.8203 -1.65625,-5.375 4.23403,-0.012 8.47132,-0.087 12.6875,-0.094 z"
       style="color:#000000;font-style:normal;font-variant:normal;font-weight:normal;font-stretch:normal;font-size:medium;line-height:normal;font-family:'Bitstream Vera Sans';-inkscape-font-specification:'Bitstream Vera Sans';text-indent:0;text-align:start;text-decoration:none;text-decoration-line:none;letter-spacing:normal;word-spacing:normal;text-transform:none;writing-mode:lr-tb;direction:ltr;baseline-shift:baseline;text-anchor:start;display:inline;overflow:visible;visibility:visible;fill:#000000;fill-opacity:0.62555069;fill-rule:nonzero;stroke:none;stroke-width:1;marker:none;filter:url(#filter21405-5);enable-background:accumulate"
       transform="matrix(2.8444445,0,0,2.8444445,-947.91702,-1231.0835)" />
    <path
       inkscape:export-ydpi="90.041016"
       inkscape:export-xdpi="90.041016"
       inkscape:export-filename="/home/dafeba/DCV/tallerD/bocetos/bateria.png"
       style="color:#000000;font-style:normal;font-variant:normal;font-weight:normal;font-stretch:normal;font-size:medium;line-height:normal;font-family:'Bitstream Vera Sans';-inkscape-font-specification:'Bitstream Vera Sans';text-indent:0;text-align:start;text-decoration:none;text-decoration-line:none;letter-spacing:normal;word-spacing:normal;text-transform:none;writing-mode:lr-tb;direction:ltr;baseline-shift:baseline;text-anchor:start;display:inline;overflow:visible;visibility:visible;fill:#ff0000;fill-opacity:1;stroke:#000000;stroke-width:2.84444451;stroke-miterlimit:4;stroke-dasharray:none;marker:none;enable-background:accumulate"
       d="m 89.610624,988.71898 c -2.423691,0.26168 -4.45824,2.54008 -4.444437,4.97777 v 17.51125 l -7.822059,0.088 c -2.606272,0 -4.977515,2.3714 -4.977771,4.9778 0,13.1422 2.718688,22.7288 8.266635,29.1555 5.547979,6.4265 13.647307,8.9222 21.955548,8.7999 7.79555,-0.1138 15.64235,-2.5688 21.33334,-8.8889 5.69099,-6.3201 8.90238,-15.8754 9.15556,-29.1555 0.095,-2.665 -2.31117,-5.157 -4.97778,-5.1556 h -8.53333 v -17.33319 c 0.0372,-2.62997 -2.3477,-5.04888 -4.97779,-5.04888 -2.63008,0 -5.01497,2.41891 -4.97777,5.04888 v 17.33319 l -14.488893,0.088 V 993.695 c 0.01707,-2.79381 -2.733194,-5.27672 -5.511104,-4.97778 z m 32.799996,32.26682 c -0.88197,8.3382 -2.93171,14.4293 -5.86666,17.6887 -3.56597,3.9601 -8.21416,5.5128 -14.13334,5.6002 -6.403772,0.094 -10.865884,-1.4456 -14.222215,-5.3334 -2.772938,-3.2122 -4.656522,-9.3033 -5.333333,-17.689 13.182635,-0.029 26.400058,-0.2674 39.555548,-0.2674 z"
       id="path66452"
       inkscape:connector-curvature="0"
       sodipodi:nodetypes="cccccscsccccscccccccssscc" />
    <path
       inkscape:export-ydpi="90.041016"
       inkscape:export-xdpi="90.041016"
       inkscape:export-filename="/home/dafeba/DCV/tallerD/bocetos/bateria.png"
       sodipodi:nodetypes="cccccscsccccscccccccssscc"
       inkscape:connector-curvature="0"
       id="path66454"
       d="m 89.610624,988.71898 c -2.423691,0.26168 -4.45824,2.54008 -4.444437,4.97777 v 17.51125 l -7.822059,0.088 c -2.606272,0 -4.977515,2.3714 -4.977771,4.9778 0,13.1422 2.718688,22.7288 8.266635,29.1555 5.547979,6.4265 13.647307,8.9222 21.955548,8.7999 7.79555,-0.1138 15.64235,-2.5688 21.33334,-8.8889 5.69099,-6.3201 8.90238,-15.8754 9.15556,-29.1555 0.095,-2.665 -2.31117,-5.157 -4.97778,-5.1556 h -8.53333 v -17.33319 c 0.0372,-2.62997 -2.3477,-5.04888 -4.97779,-5.04888 -2.63008,0 -5.01497,2.41891 -4.97777,5.04888 v 17.33319 l -14.488893,0.088 V 993.695 c 0.01707,-2.79381 -2.733194,-5.27672 -5.511104,-4.97778 z m 32.799996,32.26682 c -0.88197,8.3382 -2.93171,14.4293 -5.86666,17.6887 -3.56597,3.9601 -8.21416,5.5128 -14.13334,5.6002 -6.403772,0.094 -10.865884,-1.4456 -14.222215,-5.3334 -2.772938,-3.2122 -4.656522,-9.3033 -5.333333,-17.689 13.182635,-0.029 26.400058,-0.2674 39.555548,-0.2674 z"
       style="color:#000000;font-style:normal;font-variant:normal;font-weight:normal;font-stretch:normal;font-size:medium;line-height:normal;font-family:'Bitstream Vera Sans';-inkscape-font-specification:'Bitstream Vera Sans';text-indent:0;text-align:start;text-decoration:none;text-decoration-line:none;letter-spacing:normal;word-spacing:normal;text-transform:none;writing-mode:lr-tb;direction:ltr;baseline-shift:baseline;text-anchor:start;display:inline;overflow:visible;visibility:visible;fill:url(#linearGradient19893);fill-opacity:1;stroke:none;stroke-width:0.53333336;marker:none;enable-background:accumulate" />
  </g>
</svg>
