<?xml version="1.0" encoding="UTF-8" standalone="no"?>
<!-- Created with Inkscape (http://www.inkscape.org/) -->

<svg
   xmlns:dc="http://purl.org/dc/elements/1.1/"
   xmlns:cc="http://creativecommons.org/ns#"
   xmlns:rdf="http://www.w3.org/1999/02/22-rdf-syntax-ns#"
   xmlns:svg="http://www.w3.org/2000/svg"
   xmlns="http://www.w3.org/2000/svg"
   xmlns:xlink="http://www.w3.org/1999/xlink"
   xmlns:sodipodi="http://sodipodi.sourceforge.net/DTD/sodipodi-0.dtd"
   xmlns:inkscape="http://www.inkscape.org/namespaces/inkscape"
   width="128"
   height="128"
   id="svg50797"
   version="1.1"
   inkscape:version="0.48.3.1 r9886"
   sodipodi:docname="weather-clear-night-280.svg">
  <defs
     id="defs50799">
    <linearGradient
       id="linearGradient9863-6">
      <stop
         id="stop9865-8"
         offset="0"
         style="stop-color:#2f445a;stop-opacity:1;" />
      <stop
         id="stop9867-1"
         offset="1"
         style="stop-color:#415f7c;stop-opacity:1" />
    </linearGradient>
    <linearGradient
       id="linearGradient9312-2">
      <stop
         style="stop-color:#2f445a;stop-opacity:1"
         offset="0"
         id="stop9314-8" />
      <stop
         style="stop-color:#415f7c;stop-opacity:1"
         offset="1"
         id="stop9316-9" />
    </linearGradient>
    <linearGradient
       id="linearGradient5344-3">
      <stop
         id="stop5346-3"
         offset="0"
         style="stop-color:#000000;stop-opacity:1;" />
      <stop
         id="stop5348-2"
         offset="1"
         style="stop-color:#000000;stop-opacity:0;" />
    </linearGradient>
    <linearGradient
       id="linearGradient5362-9">
      <stop
         id="stop5364-5"
         offset="0"
         style="stop-color:#ffffff;stop-opacity:1;" />
      <stop
         id="stop5366-7"
         offset="1"
         style="stop-color:#ffffff;stop-opacity:0;" />
    </linearGradient>
    <linearGradient
       id="linearGradient2740-4">
      <stop
         id="stop2742-4"
         offset="0"
         style="stop-color:#ffffff;stop-opacity:1;" />
      <stop
         id="stop2744-7"
         offset="1"
         style="stop-color:#cccccc;stop-opacity:1" />
    </linearGradient>
    <linearGradient
       id="linearGradient5439-2">
      <stop
         id="stop5441-2"
         offset="0"
         style="stop-color:#ffffff;stop-opacity:1;" />
      <stop
         id="stop5443-7"
         offset="1"
         style="stop-color:#000000;stop-opacity:1;" />
    </linearGradient>
    <linearGradient
       inkscape:collect="always"
       xlink:href="#linearGradient5439-2"
       id="linearGradient47529"
       gradientUnits="userSpaceOnUse"
       gradientTransform="matrix(2.7150285,0,0,2.7149163,-1310.664,-1625.0807)"
       x1="506.521"
       y1="945.86438"
       x2="538.38342"
       y2="1017.9187" />
    <linearGradient
       inkscape:collect="always"
       xlink:href="#linearGradient9863-6"
       id="linearGradient47527"
       gradientUnits="userSpaceOnUse"
       gradientTransform="matrix(2.7016395,0,0,2.7016395,-2926.5283,138.70152)"
       x1="1111.3293"
       y1="338.76315"
       x2="1111.3293"
       y2="292.43744" />
    <linearGradient
       inkscape:collect="always"
       xlink:href="#linearGradient9312-2"
       id="linearGradient47525"
       gradientUnits="userSpaceOnUse"
       gradientTransform="matrix(2.7150285,0,0,2.7149163,-1310.664,-1625.0807)"
       x1="512.19513"
       y1="982.966"
       x2="512.19513"
       y2="941.53302" />
    <linearGradient
       inkscape:collect="always"
       xlink:href="#linearGradient5344-3"
       id="linearGradient47523"
       gradientUnits="userSpaceOnUse"
       gradientTransform="matrix(2.7150285,0,0,2.7149163,-1310.664,-1625.0807)"
       x1="504.93024"
       y1="992.24542"
       x2="497.81961"
       y2="968.64575" />
    <linearGradient
       inkscape:collect="always"
       xlink:href="#linearGradient5362-9"
       id="linearGradient47521"
       gradientUnits="userSpaceOnUse"
       gradientTransform="matrix(2.7150285,0,0,2.7149163,-1310.664,-1625.0807)"
       x1="502.97885"
       y1="936.30072"
       x2="499.43576"
       y2="956.01135" />
    <linearGradient
       inkscape:collect="always"
       xlink:href="#linearGradient2740-4"
       id="linearGradient47519"
       gradientUnits="userSpaceOnUse"
       gradientTransform="matrix(2.7150285,0,0,2.7149163,-1310.664,-1625.0807)"
       x1="495.83362"
       y1="941.43011"
       x2="484.96606"
       y2="973.32123" />
  </defs>
  <sodipodi:namedview
     id="base"
     pagecolor="#ffffff"
     bordercolor="#666666"
     borderopacity="1.0"
     inkscape:pageopacity="0.0"
     inkscape:pageshadow="2"
     inkscape:zoom="0.28320478"
     inkscape:cx="651.91732"
     inkscape:cy="234.36891"
     inkscape:document-units="px"
     inkscape:current-layer="layer1"
     showgrid="false"
     inkscape:window-width="1366"
     inkscape:window-height="717"
     inkscape:window-x="0"
     inkscape:window-y="0"
     inkscape:window-maximized="1" />
  <metadata
     id="metadata50802">
    <rdf:RDF>
      <cc:Work
         rdf:about="">
        <dc:format>image/svg+xml</dc:format>
        <dc:type
           rdf:resource="http://purl.org/dc/dcmitype/StillImage" />
        <dc:title />
      </cc:Work>
    </rdf:RDF>
  </metadata>
  <g
     inkscape:label="Capa 1"
     inkscape:groupmode="layer"
     id="layer1"
     transform="translate(0,-924.36218)">
    <path
       inkscape:connector-curvature="0"
       style="fill:url(#linearGradient47519);fill-opacity:1;stroke:none;display:inline"
       d="m 107.6971,986.87869 c -0.7603,29.84991 -15.5797,58.68801 -41.0507,58.85711 -10.7482,0.071 -22.628,-2.5462 -30.3101,-6.7064 -15.8765,-8.5976 -25.1,-27.3744 -25.1181,-48.34873 -0.027,-25.13222 12.9768,-47.92952 33.449,-55.72128 5.9776,-2.2751 17.687,-4.21923 25.9838,-4.13344 21.6277,0.22106 37.0461,24.6821 37.0461,56.05274 z"
       id="path47471"
       sodipodi:nodetypes="csssssc"
       inkscape:export-filename="/home/dafeba/DCV/tallerD/bocetos/08-09-22-hastaahora.png"
       inkscape:export-xdpi="57.964222"
       inkscape:export-ydpi="57.964222" />
    <path
       inkscape:connector-curvature="0"
       sodipodi:nodetypes="ccscc"
       id="path47473"
       d="M 60.428,989.3232 13.9224,970.97165 c 4.547,-15.92458 14.6224,-29.06253 28.6635,-35.16962 6.5139,-2.83315 16.8808,-5.11304 24.9456,-4.49616 50.8573,-6.5063 23.9699,58.90816 -7.1035,58.01733 z"
       style="fill:url(#linearGradient47521);fill-opacity:1;stroke:none;display:inline"
       inkscape:export-filename="/home/dafeba/DCV/tallerD/bocetos/08-09-22-hastaahora.png"
       inkscape:export-xdpi="57.964222"
       inkscape:export-ydpi="57.964222" />
    <path
       inkscape:connector-curvature="0"
       sodipodi:nodetypes="csscc"
       id="path47475"
       d="m 67.6064,1045.7358 c -7.9466,1.1421 -19.0074,-1.8752 -25.3781,-4.1019 -15.6859,-5.4824 -26.216,-19.9909 -29.7237,-37.6893 -0.8451,-4.26343 20.7952,-1.0329 34.4701,0.6542 32.2365,-1.9119 73.0853,26.082 20.6317,41.137 z"
       style="fill:url(#linearGradient47523);fill-opacity:1;stroke:none;display:inline"
       inkscape:export-filename="/home/dafeba/DCV/tallerD/bocetos/08-09-22-hastaahora.png"
       inkscape:export-xdpi="57.964222"
       inkscape:export-ydpi="57.964222" />
    <path
       inkscape:connector-curvature="0"
       sodipodi:nodetypes="csssc"
       id="path47477"
       d="m 116.3424,987.11376 c -0.7605,30.66144 -17.1458,53.86624 -42.2629,58.18604 -33.5835,5.7757 -54.72,-22.0715 -54.7501,-54.04073 -0.032,-33.2592 22.08,-62.53747 54.3274,-60.00312 25.3939,1.99472 42.6856,23.63424 42.6856,55.85781 z"
       style="fill:url(#linearGradient47525);fill-opacity:1;stroke:none;display:inline"
       inkscape:export-filename="/home/dafeba/DCV/tallerD/bocetos/08-09-22-hastaahora.png"
       inkscape:export-xdpi="57.964222"
       inkscape:export-ydpi="57.964222" />
    <path
       inkscape:connector-curvature="0"
       inkscape:export-ydpi="57.964222"
       inkscape:export-xdpi="57.964222"
       inkscape:export-filename="/home/dafeba/DCV/tallerD/bocetos/08-09-22-hastaahora.png"
       style="fill:none;stroke:url(#linearGradient47527);stroke-width:2.66666675;stroke-linecap:round;stroke-linejoin:round;stroke-miterlimit:4;stroke-opacity:1;stroke-dasharray:none;stroke-dashoffset:0;display:inline"
       d="m 67.4792,930.11299 c -7.9845,0.35026 -17.7493,2.12 -23.0485,4.13688 -20.7408,7.89394 -33.9611,31.01936 -33.9392,56.48114 0.027,21.24939 9.412,40.25679 25.4968,48.96719 3.8307,2.0744 8.9325,4.0746 14.1744,5.2378 7.1184,1.6958 15.8371,2.1851 24.0707,1.0942 25.4464,-4.3763 42.0336,-27.8659 42.804,-58.92951 0,-31.0408 -15.7755,-52.69853 -39.4483,-56.46005 -3.3448,-0.55339 -6.7336,-0.52765 -10.1099,-0.52765 z"
       id="path47479"
       sodipodi:nodetypes="csssccccc" />
    <path
       style="fill:url(#linearGradient47529);fill-opacity:1;stroke:none;display:inline"
       d="m 67.7598,931.12448 c -29,1.25016 -48.4459,28.98616 -48.4166,60.16667 0.029,30.33175 19.0347,56.86865 49.6667,54.58335 -0.1627,-11.3001 0.256,-26.8499 0.2507,-53.83335 0,-28.16731 -0.1494,-47.408 0,-60.91667 -0.5027,0.005 -1.003,-0.0213 -1.5,0 z"
       id="path47481"
       inkscape:connector-curvature="0" />
    <g
       transform="matrix(2.6666667,0,0,2.6666667,-1454.8234,-1154.6255)"
       id="g47483"
       style="fill:#38526b;fill-opacity:0.28947371;display:inline">
      <path
         inkscape:connector-curvature="0"
         id="path47485"
         d="m 563.1875,795.71875 c -2.43993,0.10519 -4.06437,2.40781 -4.0625,5.03125 0.003,2.68981 1.76811,5.04845 4.59375,4.5625 2.11328,-0.36346 3.4985,-2.32648 3.5625,-4.90625 0,-2.71121 -1.45716,-4.51967 -3.59375,-4.6875 -0.16958,-0.0133 -0.33734,-0.007 -0.5,0 z m 16.71875,2.90625 c -2.77337,0.11956 -4.62781,2.76813 -4.625,5.75 0.003,3.0573 2.03832,5.70861 5.25,5.15625 2.40202,-0.41311 3.95845,-2.63027 4.03125,-5.5625 0,-3.08163 -1.63402,-5.15299 -4.0625,-5.34375 -0.19274,-0.0151 -0.40886,-0.008 -0.59375,0 z M 557,802.15625 c -1.58391,-0.12448 -2.65709,1.30388 -2.65625,2.9375 10e-4,1.57024 1.03795,2.93994 2.6875,2.65625 1.23369,-0.21219 2.05645,-1.33773 2.09375,-2.84375 0,-1.58274 -0.8777,-2.652 -2.125,-2.75 z m 10.46875,3.4375 c -4.06797,0.17536 -6.785,4.06365 -6.78125,8.4375 0.004,4.48449 2.97657,8.3727 7.6875,7.5625 3.52331,-0.60596 5.79945,-3.85522 5.90625,-8.15625 0,-4.52016 -2.40661,-7.56395 -5.96875,-7.84375 -0.28272,-0.0222 -0.57255,-0.0117 -0.84375,0 z"
         style="fill:#38526b;fill-opacity:0.28947371;stroke:none;display:inline" />
      <path
         inkscape:export-ydpi="57.964222"
         inkscape:export-xdpi="57.964222"
         inkscape:export-filename="/home/dafeba/DCV/tallerD/bocetos/08-09-22-hastaahora.png"
         style="fill:#38526b;fill-opacity:0.28947371;stroke:none;display:inline"
         d="m 581.3493,814.02005 c -0.0383,1.54185 -0.8622,2.70873 -2.12525,2.92595 -1.68878,0.29045 -2.75166,-1.10989 -2.75318,-2.7175 -0.002,-1.67247 1.11032,-3.14477 2.73193,-3.01733 1.27696,0.10031 2.1465,1.18848 2.1465,2.80888 z"
         id="path47487"
         sodipodi:nodetypes="csssc"
         inkscape:connector-curvature="0" />
    </g>
  </g>
</svg>
