<?xml version="1.0" encoding="UTF-8" standalone="no"?>
<!-- Created with Inkscape (http://www.inkscape.org/) -->

<svg
   xmlns:dc="http://purl.org/dc/elements/1.1/"
   xmlns:cc="http://creativecommons.org/ns#"
   xmlns:rdf="http://www.w3.org/1999/02/22-rdf-syntax-ns#"
   xmlns:svg="http://www.w3.org/2000/svg"
   xmlns="http://www.w3.org/2000/svg"
   xmlns:xlink="http://www.w3.org/1999/xlink"
   xmlns:sodipodi="http://sodipodi.sourceforge.net/DTD/sodipodi-0.dtd"
   xmlns:inkscape="http://www.inkscape.org/namespaces/inkscape"
   width="136.53334"
   height="136.53334"
   id="svg6934"
   sodipodi:version="0.32"
   inkscape:version="0.92.1 r15371"
   version="1.0"
   sodipodi:docname="aaa ceibo.svg"
   inkscape:output_extension="org.inkscape.output.svg.inkscape">
  <defs
     id="defs6936">
    <linearGradient
       id="linearGradient5165-7-9-8-2-1">
      <stop
         id="stop5167-4-8-6-9-4"
         style="stop-color:#ffffff;stop-opacity:1"
         offset="0" />
      <stop
         id="stop5169-5-5-2-9-90"
         style="stop-color:#ffffff;stop-opacity:0"
         offset="1" />
    </linearGradient>
    <linearGradient
       id="linearGradient5344-4">
      <stop
         style="stop-color:#000000;stop-opacity:1;"
         offset="0"
         id="stop5346-96" />
      <stop
         style="stop-color:#000000;stop-opacity:0;"
         offset="1"
         id="stop5348-31" />
    </linearGradient>
    <linearGradient
       inkscape:collect="always"
       xlink:href="#linearGradient12336"
       id="linearGradient1007"
       gradientUnits="userSpaceOnUse"
       gradientTransform="scale(1.0666667)"
       x1="6.5963445"
       y1="25.086559"
       x2="117.48683"
       y2="107.41399" />
    <linearGradient
       id="linearGradient12336">
      <stop
         style="stop-color:#ff6e00;stop-opacity:1;"
         offset="0"
         id="stop12338" />
      <stop
         style="stop-color:#eb2600;stop-opacity:1;"
         offset="1"
         id="stop12340" />
    </linearGradient>
    <linearGradient
       inkscape:collect="always"
       xlink:href="#linearGradient5344-4"
       id="linearGradient1013"
       gradientUnits="userSpaceOnUse"
       gradientTransform="matrix(1.0666667,0,0,1.0666667,0,149.33333)"
       x1="7.9531264"
       y1="2.2416961"
       x2="13.667412"
       y2="-64.464973" />
    <linearGradient
       inkscape:collect="always"
       xlink:href="#linearGradient5165-7-9-8-2-1"
       id="linearGradient1011"
       gradientUnits="userSpaceOnUse"
       gradientTransform="matrix(1.0666667,0,0,1.0666667,0,149.33333)"
       x1="22.933788"
       y1="-144.76825"
       x2="18.618809"
       y2="-96.331688" />
    <linearGradient
       inkscape:collect="always"
       xlink:href="#linearGradient5344-4"
       id="linearGradient1009"
       gradientUnits="userSpaceOnUse"
       gradientTransform="matrix(5.6896682,0,0,5.6896682,-1548.2455,-6255.5279)"
       x1="305.23422"
       y1="1137.0681"
       x2="283.35095"
       y2="1104.2024" />
  </defs>
  <sodipodi:namedview
     id="base"
     pagecolor="#ffffff"
     bordercolor="#666666"
     borderopacity="1.0"
     inkscape:pageopacity="0.0"
     inkscape:pageshadow="2"
     inkscape:zoom="0.51552065"
     inkscape:cx="-83.478131"
     inkscape:cy="226.27847"
     inkscape:document-units="px"
     inkscape:current-layer="layer2"
     showgrid="false"
     inkscape:window-width="1366"
     inkscape:window-height="714"
     inkscape:window-x="0"
     inkscape:window-y="26"
     inkscape:window-maximized="1"
     inkscape:snap-global="false" />
  <metadata
     id="metadata6939">
    <rdf:RDF>
      <cc:Work
         rdf:about="">
        <dc:format>image/svg+xml</dc:format>
        <dc:type
           rdf:resource="http://purl.org/dc/dcmitype/StillImage" />
        <dc:title></dc:title>
      </cc:Work>
    </rdf:RDF>
  </metadata>
  <g
     inkscape:label="Capa 1"
     inkscape:groupmode="layer"
     id="layer1">
    <path
       style="fill:url(#linearGradient1007);fill-opacity:1;fill-rule:evenodd;stroke:none;stroke-width:1.06666672"
       d="m 36.5,5.4 c -1.41789,0.0591 -2.72059,0.29831 -3.9,0.66667 l -19.56667,2.9 H 12.5 v 0.2 c -6.09653,1.11901 -9.23333,5.96478 -9.23333,11.9 V 111.4 C 3.19177,117.42908 5.45344,122.16821 10,123.66667 L 30.23333,130 c 0.0223,0.0109 0.0443,0.0226 0.0667,0.0334 2.01891,0.96994 4.44206,1.31466 7.23334,0.86666 l 83.49999,-12.6 c 6.10189,-0.66105 10.09792,-6.46819 9.76667,-14.53333 l 0.43333,-79.23338 C 131.47068,18.17032 128.2449,12.82538 121.2667,11.76668 L 38.23336,5.43334 c -0.59339,-0.0291 -1.1766,-0.0565 -1.73333,-0.0334 z"
       id="path985"
       inkscape:connector-curvature="0" />
  </g>
  <g
     inkscape:groupmode="layer"
     id="layer3"
     inkscape:label="som"
     style="display:inline">
    <path
       style="fill:url(#linearGradient1009);fill-rule:evenodd;stroke:none;stroke-width:1.06666672"
       d="m 31.2,17.83334 -0.0333,102.83333 c 0.47861,3.68883 1.50138,8.66619 4.63333,10.4 0.56227,-0.0244 1.13867,-0.0713 1.73334,-0.16667 l 83.49999,-12.6 c 6.10189,-0.66106 10.09792,-6.46819 9.76667,-14.53333 l 0.43333,-79.23333 C 131.47064,18.17031 128.2449,12.82537 121.2667,11.76667 L 40.19038,5.58261 c -4.23601,-0.44872 -8.97655,5.09927 -8.99035,12.25073 z m 0.96667,112.83333 c 0.69116,0.18296 1.40232,0.34791 2.16666,0.4 z"
       id="path987"
       inkscape:connector-curvature="0"
       sodipodi:nodetypes="ccccccccccccc" />
    <path
       style="display:inline;fill:url(#linearGradient1011);fill-rule:evenodd;stroke:none;stroke-width:1.06666672"
       d="m 37.1,5.66667 -24.06667,3.3 H 12.5 v 0.2 c -6.09653,1.11901 -9.23333,5.96478 -9.23333,11.9 V 47.73334 H 31.2 v -29.9 C 31.57019,12.58877 33.62567,7.2053 37.1,5.66667 Z"
       id="path989"
       inkscape:connector-curvature="0" />
    <path
       style="display:inline;fill:url(#linearGradient1013);fill-rule:evenodd;stroke:none;stroke-width:1.06666672"
       d="M 3.26667,72.96667 V 111.4 C 3.19177,117.42908 5.45344,122.16821 10,123.66667 l 18.83333,6.43333 8,1.4 c -3.95823,-1.11454 -5.13861,-6.76345 -5.66666,-10.83333 v -47.7 z"
       id="path991"
       inkscape:connector-curvature="0" />
  </g>
  <g
     inkscape:groupmode="layer"
     id="layer2"
     inkscape:label="top"
     style="display:inline">
    <path
       inkscape:connector-curvature="0"
       id="path993"
       d="m 38.21335,5.42339 c -1.85,-0.091 -3.48543,0.14222 -4.97846,0.53476 L 12.43204,9.15872 C 6.33551,10.27773 3.18633,15.13603 3.18633,21.07126 v 90.32366 c -0.0749,6.02908 2.20993,10.77021 6.75648,12.26866 l 20.98065,6.57806 c 1.91172,0.78962 4.02665,1.12128 6.57868,0.71168 l 83.567,-12.62421 c 6.10189,-0.66048 10.11037,-6.51435 9.77912,-14.57949 l 0.35561,-79.30029 c 0.23728,-6.36303 -2.97871,-11.56495 -9.95692,-12.62365 L 38.21335,5.42454 Z"
       style="display:inline;fill:none;stroke:#344b63;stroke-width:2.84483409;stroke-linecap:butt;stroke-linejoin:miter;stroke-miterlimit:4;stroke-dasharray:none;stroke-opacity:1"
       sodipodi:nodetypes="ccccccccccccc" />
    <path
       style="color:#000000;font-style:normal;font-variant:normal;font-weight:normal;font-stretch:normal;font-size:medium;line-height:normal;font-family:sans-serif;font-variant-ligatures:normal;font-variant-position:normal;font-variant-caps:normal;font-variant-numeric:normal;font-variant-alternates:normal;font-feature-settings:normal;text-indent:0;text-align:start;text-decoration:none;text-decoration-line:none;text-decoration-style:solid;text-decoration-color:#000000;letter-spacing:normal;word-spacing:normal;text-transform:none;writing-mode:lr-tb;direction:ltr;text-orientation:mixed;dominant-baseline:auto;baseline-shift:baseline;text-anchor:start;white-space:normal;shape-padding:0;clip-rule:nonzero;display:inline;overflow:visible;visibility:visible;opacity:1;isolation:auto;mix-blend-mode:normal;color-interpolation:sRGB;color-interpolation-filters:linearRGB;solid-color:#000000;solid-opacity:1;vector-effect:none;fill:#000000;fill-opacity:0.49514561;fill-rule:nonzero;stroke:#000000;stroke-width:2.5999999;stroke-linecap:round;stroke-linejoin:miter;stroke-miterlimit:4;stroke-dasharray:none;stroke-dashoffset:0;stroke-opacity:0.5;color-rendering:auto;image-rendering:auto;shape-rendering:auto;text-rendering:auto;enable-background:accumulate"
       d="m 55.23242,60.38672 a 5.0005,5.0005 0 0 0 -2.2539,0.58398 c -10.29555,5.28319 -13.36191,16.02412 -13.64063,24.99219 -0.36632,6.42219 0.46251,11.87658 2.58594,16.3457 a 5.0005,5.0005 0 1 0 9.03125,-4.29297 C 49.76163,95.50381 49.01164,91.7281 49.31836,86.47656 l 0.006,-0.0723 0.002,-0.0723 c 0.21225,-7.20686 1.96323,-13.25581 8.2168,-16.46484 a 5.0005,5.0005 0 0 0 -2.31055,-9.48047 z"
       id="path4764"
       inkscape:connector-curvature="0" />
    <path
       style="color:#000000;font-style:normal;font-variant:normal;font-weight:normal;font-stretch:normal;font-size:medium;line-height:normal;font-family:sans-serif;font-variant-ligatures:normal;font-variant-position:normal;font-variant-caps:normal;font-variant-numeric:normal;font-variant-alternates:normal;font-feature-settings:normal;text-indent:0;text-align:start;text-decoration:none;text-decoration-line:none;text-decoration-style:solid;text-decoration-color:#000000;letter-spacing:normal;word-spacing:normal;text-transform:none;writing-mode:lr-tb;direction:ltr;text-orientation:mixed;dominant-baseline:auto;baseline-shift:baseline;text-anchor:start;white-space:normal;shape-padding:0;clip-rule:nonzero;display:inline;overflow:visible;visibility:visible;opacity:1;isolation:auto;mix-blend-mode:normal;color-interpolation:sRGB;color-interpolation-filters:linearRGB;solid-color:#000000;solid-opacity:1;vector-effect:none;fill:#000000;fill-opacity:0.49514561;fill-rule:nonzero;stroke:#000000;stroke-width:2.5999999;stroke-linecap:round;stroke-linejoin:miter;stroke-miterlimit:4;stroke-dasharray:none;stroke-dashoffset:0;stroke-opacity:0.5;color-rendering:auto;image-rendering:auto;shape-rendering:auto;text-rendering:auto;enable-background:accumulate"
       d="m 116.41797,28.28125 a 4.4574455,4.4574455 0 0 0 -4.17969,6.13867 c 0.93209,2.38262 1.34405,5.61241 1.16016,9.2168 l -0.004,0.0547 -0.002,0.0566 c -0.14938,5.73273 -1.97751,8.72273 -6.14063,11.00781 a 4.4574455,4.4574455 0 1 0 4.28907,7.81445 c 6.6329,-3.64071 10.53444,-10.48121 10.75781,-18.54883 0.22173,-4.47659 -0.20238,-8.86859 -1.75977,-12.8496 a 4.4574455,4.4574455 0 0 0 -4.12109,-2.89063 z"
       id="path4766"
       inkscape:connector-curvature="0" />
    <path
       id="path4768"
       d="m 102.19727,19.48828 c -7.33896,-0.12657 -13.61132,3.57487 -17.50391,9.0586 -3.9023,5.49737 -5.77148,12.63966 -5.77148,20.27539 v 8.76562 l -13.73243,0.25195 c -6.32066,0.0215 -6.10622,9.84525 0.20899,9.57422 l 13.21484,-0.35156 0.31836,13.54102 c -0.002,6.6925 -1.51558,12.28263 -3.93164,16.10742 -2.41729,3.82672 -5.48801,5.98172 -9.74219,6.59765 l -0.10156,0.0137 -0.0996,0.0195 c -3.60902,0.67249 -6.62382,0.46071 -8.85742,-0.37304 a 5.0005,5.0005 0 1 0 -3.4961,9.36719 c 4.36072,1.62774 9.1795,1.74347 14.08399,0.84375 7.09928,-1.06001 12.97363,-5.28052 16.66797,-11.12891 3.71205,-5.87643 5.47656,-13.28921 5.47656,-21.45703 v -0.0586 l -0.32226,-13.73828 10.45898,-0.2793 c 6.09433,-0.0298 6.20695,-9.11804 0.11523,-9.29883 -0.10806,-0.003 -0.21621,-0.002 -0.32421,0.002 l -11.02344,0.20313 v -8.60156 c 0,-6.14037 1.5988,-11.55645 4.125,-15.11524 2.52619,-3.55879 5.62592,-5.40149 10.11133,-5.3125 l 0.0645,0.002 h 0.0644 c 2.17788,-0.0194 3.8478,0.31298 5.14649,0.83204 a 4.4574455,4.4574455 0 1 0 3.30859,-8.27735 c -2.51103,-1.00359 -5.35194,-1.48201 -8.45898,-1.46289 z"
       style="color:#000000;font-style:normal;font-variant:normal;font-weight:normal;font-stretch:normal;font-size:medium;line-height:normal;font-family:sans-serif;font-variant-ligatures:normal;font-variant-position:normal;font-variant-caps:normal;font-variant-numeric:normal;font-variant-alternates:normal;font-feature-settings:normal;text-indent:0;text-align:start;text-decoration:none;text-decoration-line:none;text-decoration-style:solid;text-decoration-color:#000000;letter-spacing:normal;word-spacing:normal;text-transform:none;writing-mode:lr-tb;direction:ltr;text-orientation:mixed;dominant-baseline:auto;baseline-shift:baseline;text-anchor:start;white-space:normal;shape-padding:0;clip-rule:nonzero;display:inline;overflow:visible;visibility:visible;opacity:1;isolation:auto;mix-blend-mode:normal;color-interpolation:sRGB;color-interpolation-filters:linearRGB;solid-color:#000000;solid-opacity:1;vector-effect:none;fill:#000000;fill-opacity:0.49514561;fill-rule:nonzero;stroke:#000000;stroke-width:2.5999999;stroke-linecap:round;stroke-linejoin:miter;stroke-miterlimit:4;stroke-dasharray:none;stroke-dashoffset:0;stroke-opacity:0.5;color-rendering:auto;image-rendering:auto;shape-rendering:auto;text-rendering:auto;enable-background:accumulate"
       inkscape:connector-curvature="0" />
    <path
       style="fill:#9aba34;fill-opacity:1;stroke:#cccccc;stroke-width:10;stroke-linecap:round;stroke-linejoin:miter;stroke-miterlimit:4;stroke-dasharray:none;stroke-opacity:1"
       d="M 48.4397,100.16233 C 46.77719,96.66329 45.98596,92.03814 46.3278,86.18522 46.56619,78.09057 48.97285,69.67158 57.26115,65.41842"
       id="path4760"
       inkscape:connector-curvature="0"
       sodipodi:nodetypes="ccc" />
    <path
       sodipodi:nodetypes="ccc"
       inkscape:connector-curvature="0"
       id="path4762"
       d="m 118.38817,32.79657 c 1.24876,3.19211 1.66731,7.01437 1.46055,11.06688 -0.18004,6.90949 -3.04753,11.83305 -8.45141,14.79917"
       style="fill:#9aba34;fill-opacity:1;stroke:#cccccc;stroke-width:8.91399956;stroke-linecap:round;stroke-linejoin:miter;stroke-miterlimit:4;stroke-dasharray:none;stroke-opacity:1" />
    <path
       inkscape:connector-curvature="0"
       style="color:#000000;font-style:normal;font-variant:normal;font-weight:normal;font-stretch:normal;font-size:medium;line-height:normal;font-family:sans-serif;font-variant-ligatures:normal;font-variant-position:normal;font-variant-caps:normal;font-variant-numeric:normal;font-variant-alternates:normal;font-feature-settings:normal;text-indent:0;text-align:start;text-decoration:none;text-decoration-line:none;text-decoration-style:solid;text-decoration-color:#000000;letter-spacing:normal;word-spacing:normal;text-transform:none;writing-mode:lr-tb;direction:ltr;text-orientation:mixed;dominant-baseline:auto;baseline-shift:baseline;text-anchor:start;white-space:normal;shape-padding:0;clip-rule:nonzero;display:inline;overflow:visible;visibility:visible;opacity:1;isolation:auto;mix-blend-mode:normal;color-interpolation:sRGB;color-interpolation-filters:linearRGB;solid-color:#000000;solid-opacity:1;vector-effect:none;fill:#ffffff;fill-opacity:1;fill-rule:nonzero;stroke:none;stroke-width:10;stroke-linecap:round;stroke-linejoin:miter;stroke-miterlimit:4;stroke-dasharray:none;stroke-dashoffset:0;stroke-opacity:1;color-rendering:auto;image-rendering:auto;shape-rendering:auto;text-rendering:auto;enable-background:accumulate"
       d="m 104.19727,19.48828 c -7.33896,-0.12657 -13.61132,3.57487 -17.50391,9.0586 -3.9023,5.49737 -5.77148,12.63966 -5.77148,20.27539 v 8.76562 l -13.73243,0.25195 c -6.32066,0.0215 -6.10622,9.84525 0.20899,9.57422 l 13.21484,-0.35156 0.31836,13.54102 c -0.002,6.6925 -1.51558,12.28263 -3.93164,16.10742 -2.41729,3.82672 -5.48801,5.98172 -9.74219,6.59765 l -0.10156,0.0137 -0.0996,0.0195 c -3.60902,0.67249 -6.62382,0.46071 -8.85742,-0.37304 a 5.0005,5.0005 0 1 0 -3.4961,9.36719 c 4.36072,1.62774 9.1795,1.74347 14.08399,0.84375 7.09928,-1.06001 12.97363,-5.28052 16.66797,-11.12891 3.71205,-5.87643 5.47656,-13.28921 5.47656,-21.45703 v -0.0586 l -0.32226,-13.73828 10.45898,-0.2793 c 6.09433,-0.0298 6.20695,-9.11804 0.11523,-9.29883 -0.10806,-0.003 -0.21621,-0.002 -0.32421,0.002 l -11.02344,0.20313 v -8.60156 c 0,-6.14037 1.5988,-11.55645 4.125,-15.11524 2.52619,-3.55879 5.62592,-5.40149 10.11133,-5.3125 l 0.0645,0.002 h 0.0644 c 2.17788,-0.0194 3.8478,0.31298 5.14649,0.83204 a 4.4574455,4.4574455 0 1 0 3.30859,-8.27735 c -2.51103,-1.00359 -5.35194,-1.48201 -8.45898,-1.46289 z"
       id="path1053" />
  </g>
</svg>
