<?xml version="1.0" encoding="UTF-8" standalone="no"?>
<!-- Created with Inkscape (http://www.inkscape.org/) -->
<svg
   xmlns:dc="http://purl.org/dc/elements/1.1/"
   xmlns:cc="http://creativecommons.org/ns#"
   xmlns:rdf="http://www.w3.org/1999/02/22-rdf-syntax-ns#"
   xmlns:svg="http://www.w3.org/2000/svg"
   xmlns="http://www.w3.org/2000/svg"
   xmlns:xlink="http://www.w3.org/1999/xlink"
   xmlns:sodipodi="http://sodipodi.sourceforge.net/DTD/sodipodi-0.dtd"
   xmlns:inkscape="http://www.inkscape.org/namespaces/inkscape"
   width="128"
   height="128"
   id="svg2"
   sodipodi:version="0.32"
   inkscape:version="0.46"
   version="1.0"
   sodipodi:docname="gtk-cancel.svg"
   inkscape:output_extension="org.inkscape.output.svg.inkscape">
  <defs
     id="defs4">
    <linearGradient
       inkscape:collect="always"
       xlink:href="#linearGradient5439"
       id="linearGradient6075"
       gradientUnits="userSpaceOnUse"
       gradientTransform="matrix(2.6765239,0,0,2.6765239,-816.84619,-1261.5733)"
       x1="308.74927"
       y1="465.0192"
       x2="275.71313"
       y2="574.98462" />
    <linearGradient
       inkscape:collect="always"
       xlink:href="#linearGradient5439"
       id="linearGradient6077"
       gradientUnits="userSpaceOnUse"
       gradientTransform="matrix(2.6765239,0,0,2.6765239,-816.84619,-1261.5733)"
       x1="314.59473"
       y1="473.02225"
       x2="389.19135"
       y2="560.27191" />
    <linearGradient
       inkscape:collect="always"
       xlink:href="#linearGradient5362"
       id="linearGradient6079"
       gradientUnits="userSpaceOnUse"
       gradientTransform="matrix(2.6765239,0,0,2.6765239,-1298.6205,-1689.8171)"
       x1="497.40543"
       y1="631.66345"
       x2="486.63849"
       y2="648.24927" />
    <linearGradient
       inkscape:collect="always"
       xlink:href="#linearGradient12336"
       id="linearGradient6081"
       gradientUnits="userSpaceOnUse"
       gradientTransform="matrix(2.5150995,0,0,2.5150995,-763.71692,-1181.7871)"
       x1="311.40219"
       y1="477.27896"
       x2="338.6427"
       y2="508.65906" />
    <linearGradient
       inkscape:collect="always"
       xlink:href="#linearGradient5344"
       id="linearGradient6083"
       gradientUnits="userSpaceOnUse"
       gradientTransform="matrix(2.6765239,0,0,2.6765239,-1298.6205,-1689.8171)"
       x1="511.70114"
       y1="681.87585"
       x2="494.52274"
       y2="658.36462" />
    <linearGradient
       inkscape:collect="always"
       xlink:href="#linearGradient5439"
       id="linearGradient6085"
       gradientUnits="userSpaceOnUse"
       gradientTransform="matrix(2.6765239,0,0,2.6765239,-977.43762,-1261.5733)"
       x1="372.19498"
       y1="478.91763"
       x2="393.67245"
       y2="498.9711" />
    <linearGradient
       inkscape:collect="always"
       xlink:href="#linearGradient9863"
       id="linearGradient10935"
       x1="1051.1798"
       y1="338.34076"
       x2="1051.1798"
       y2="291.32755"
       gradientUnits="userSpaceOnUse"
       gradientTransform="matrix(2.6765239,0,0,2.6765239,-2743.9434,-779.79899)" />
    <linearGradient
       inkscape:collect="always"
       xlink:href="#linearGradient5344"
       id="linearGradient6087"
       gradientUnits="userSpaceOnUse"
       gradientTransform="matrix(2.6765239,0,0,2.6765239,-1298.6205,-1689.8171)"
       x1="544.09601"
       y1="724.27393"
       x2="505.62787"
       y2="652.76361" />
    <linearGradient
       inkscape:collect="always"
       xlink:href="#linearGradient9863"
       id="linearGradient11274"
       x1="149.74757"
       y1="638.30701"
       x2="149.74757"
       y2="591.4209"
       gradientUnits="userSpaceOnUse"
       gradientTransform="matrix(2.6765239,0,0,2.6765239,-334.15381,-1582.7562)" />
    <linearGradient
       inkscape:collect="always"
       xlink:href="#linearGradient5316"
       id="linearGradient11271"
       gradientUnits="userSpaceOnUse"
       gradientTransform="matrix(3.0722683,-3.0722683,3.0722683,3.0722683,-3267.1886,1034.5533)"
       x1="702.77777"
       y1="379.11951"
       x2="696.05457"
       y2="390.85318" />
    <linearGradient
       inkscape:collect="always"
       xlink:href="#linearGradient8702"
       id="linearGradient7725"
       x1="861.77502"
       y1="443.29251"
       x2="903.36829"
       y2="485.01181"
       gradientUnits="userSpaceOnUse" />
    <linearGradient
       id="linearGradient5451">
      <stop
         style="stop-color:#000000;stop-opacity:0.35099337;"
         offset="0"
         id="stop5453" />
      <stop
         id="stop5459"
         offset="0.45549738"
         style="stop-color:#000000;stop-opacity:0.29139072;" />
      <stop
         style="stop-color:#000000;stop-opacity:0;"
         offset="1"
         id="stop5455" />
    </linearGradient>
    <linearGradient
       id="linearGradient12594">
      <stop
         id="stop12596"
         offset="0"
         style="stop-color:#e9b551;stop-opacity:1;" />
      <stop
         id="stop12598"
         offset="1"
         style="stop-color:#e9b551;stop-opacity:0;" />
    </linearGradient>
    <linearGradient
       id="linearGradient5316">
      <stop
         style="stop-color:#aac736;stop-opacity:1;"
         offset="0"
         id="stop5320" />
      <stop
         style="stop-color:#5d8b2c;stop-opacity:1;"
         offset="1"
         id="stop5322" />
    </linearGradient>
    <linearGradient
       id="linearGradient9863">
      <stop
         style="stop-color:#2f445a;stop-opacity:1;"
         offset="0"
         id="stop9865" />
      <stop
         style="stop-color:#415f7c;stop-opacity:1"
         offset="1"
         id="stop9867" />
    </linearGradient>
    <linearGradient
       id="linearGradient12336">
      <stop
         id="stop12338"
         offset="0"
         style="stop-color:#ff6e00;stop-opacity:1;" />
      <stop
         id="stop12340"
         offset="1"
         style="stop-color:#eb2600;stop-opacity:1;" />
    </linearGradient>
    <linearGradient
       id="linearGradient5362">
      <stop
         style="stop-color:#ffffff;stop-opacity:1;"
         offset="0"
         id="stop5364" />
      <stop
         style="stop-color:#ffffff;stop-opacity:0;"
         offset="1"
         id="stop5366" />
    </linearGradient>
    <linearGradient
       id="linearGradient5439">
      <stop
         style="stop-color:#ffffff;stop-opacity:1;"
         offset="0"
         id="stop5441" />
      <stop
         style="stop-color:#000000;stop-opacity:1;"
         offset="1"
         id="stop5443" />
    </linearGradient>
    <linearGradient
       inkscape:collect="always"
       xlink:href="#linearGradient5439"
       id="linearGradient13309"
       gradientUnits="userSpaceOnUse"
       x1="499.90704"
       y1="953.39532"
       x2="652.75177"
       y2="1116.9413"
       gradientTransform="matrix(2.6765239,0,0,2.6765239,-1298.6765,-2514.903)" />
    <linearGradient
       inkscape:collect="always"
       id="linearGradient5398">
      <stop
         style="stop-color:#87c6ff;stop-opacity:1;"
         offset="0"
         id="stop5400" />
      <stop
         style="stop-color:#87c6ff;stop-opacity:0"
         offset="1"
         id="stop5402" />
    </linearGradient>
    <linearGradient
       inkscape:collect="always"
       xlink:href="#linearGradient5398"
       id="linearGradient13322"
       gradientUnits="userSpaceOnUse"
       x1="500.87799"
       y1="948.11993"
       x2="500.87799"
       y2="953.17468"
       gradientTransform="matrix(2.6765239,0,0,2.6765239,-1298.6765,-2514.903)" />
    <linearGradient
       id="linearGradient5344">
      <stop
         style="stop-color:#000000;stop-opacity:1;"
         offset="0"
         id="stop5346" />
      <stop
         style="stop-color:#000000;stop-opacity:0;"
         offset="1"
         id="stop5348" />
    </linearGradient>
    <linearGradient
       inkscape:collect="always"
       xlink:href="#linearGradient5344"
       id="linearGradient13314"
       gradientUnits="userSpaceOnUse"
       x1="544.89001"
       y1="919.05762"
       x2="506.01498"
       y2="969.80762"
       gradientTransform="translate(-485.21014,-859.4386)" />
    <linearGradient
       id="linearGradient8702">
      <stop
         id="stop8704"
         offset="0"
         style="stop-color:#aac736;stop-opacity:1;" />
      <stop
         id="stop8706"
         offset="1"
         style="stop-color:#5d8b2c;stop-opacity:1;" />
    </linearGradient>
    <linearGradient
       inkscape:collect="always"
       xlink:href="#linearGradient8702"
       id="linearGradient13316"
       gradientUnits="userSpaceOnUse"
       gradientTransform="matrix(2.6765239,0,0,2.6765239,-1779.5422,-994.63744)"
       x1="700.13062"
       y1="378.86951"
       x2="707.80457"
       y2="395.74899" />
    <inkscape:perspective
       sodipodi:type="inkscape:persp3d"
       inkscape:vp_x="0 : 526.18109 : 1"
       inkscape:vp_y="0 : 1000 : 0"
       inkscape:vp_z="744.09448 : 526.18109 : 1"
       inkscape:persp3d-origin="372.04724 : 350.78739 : 1"
       id="perspective10" />
  </defs>
  <sodipodi:namedview
     id="base"
     pagecolor="#ffffff"
     bordercolor="#666666"
     borderopacity="1.0"
     inkscape:pageopacity="0.0"
     inkscape:pageshadow="2"
     inkscape:zoom="2.5020702"
     inkscape:cx="56.800683"
     inkscape:cy="58.657388"
     inkscape:document-units="px"
     inkscape:current-layer="layer1"
     showgrid="false"
     inkscape:showpageshadow="false"
     inkscape:window-width="1024"
     inkscape:window-height="715"
     inkscape:window-x="0"
     inkscape:window-y="6"
     showguides="true"
     inkscape:guide-bbox="true" />
  <metadata
     id="metadata7">
    <rdf:RDF>
      <cc:Work
         rdf:about="">
        <dc:format>image/svg+xml</dc:format>
        <dc:type
           rdf:resource="http://purl.org/dc/dcmitype/StillImage" />
      </cc:Work>
    </rdf:RDF>
  </metadata>
  <g
     inkscape:label="Capa 1"
     inkscape:groupmode="layer"
     id="layer1">
    <path
       inkscape:export-ydpi="57.964222"
       inkscape:export-xdpi="57.964222"
       inkscape:export-filename="/home/dafeba/DCV/tallerD/bocetos/08-09-22-hastaahora.png"
       style="fill:url(#linearGradient6075);fill-opacity:1;stroke:none;stroke-width:0.5;stroke-linecap:round;stroke-linejoin:round;stroke-miterlimit:4;stroke-opacity:1;display:inline"
       d="M 35.755123,115.27931 L 45.090036,117.76123 C 44.57882,117.59713 44.143349,117.33156 43.714303,117.05789 L 40.826869,10.073566 C 42.635396,6.452524 45.10663,4.0764131 50.782735,4.5395856 L 46.982338,4.6843855 L 40.316188,5.5679864 C 36.632756,6.0527851 34.535164,8.4968797 33.355887,10.845235 L 10.511222,57.576427 C 9.3745022,60.49796 9.0822258,64.741803 10.396934,67.490887 L 30.743332,109.27325 C 31.858908,111.86474 33.257124,114.70613 35.755123,115.27931 z"
       id="path6005"
       sodipodi:nodetypes="cccccccccccc" />
    <path
       inkscape:export-ydpi="57.964222"
       inkscape:export-xdpi="57.964222"
       inkscape:export-filename="/home/dafeba/DCV/tallerD/bocetos/08-09-22-hastaahora.png"
       sodipodi:nodetypes="ccccccccccccc"
       id="path6007"
       d="M 85.416954,112.5287 L 51.099367,117.94789 C 44.08286,118.95065 42.40923,116.79934 39.924612,111.78564 L 18.163404,67.079238 C 16.641532,63.891043 16.576225,61.348479 18.198199,58.133037 L 40.826869,10.073566 C 42.635396,6.452524 45.10663,4.0764131 50.782735,4.5395856 L 86.729254,7.3643086 C 90.970473,7.8053462 92.882582,9.7382783 94.270092,13.565467 L 110.44968,55.287089 C 111.39021,57.69572 111.34043,60.180551 110.50214,62.726032 L 94.963044,103.88845 C 92.984558,108.62365 91.024807,111.66429 85.416954,112.5287 z"
       style="fill:url(#linearGradient6077);fill-opacity:1;stroke:none;stroke-width:0.5;stroke-linecap:round;stroke-linejoin:round;stroke-miterlimit:4;stroke-opacity:1;display:inline" />
    <path
       inkscape:export-ydpi="57.964222"
       inkscape:export-xdpi="57.964222"
       inkscape:export-filename="/home/dafeba/DCV/tallerD/bocetos/08-09-22-hastaahora.png"
       sodipodi:nodetypes="cccccccc"
       id="path6009"
       d="M 18.198199,58.133037 L 40.826869,10.073566 C 42.635396,6.452524 45.10663,4.0764131 50.782735,4.5395856 L 46.982338,4.6843855 L 40.316188,5.5679864 C 36.632756,6.0527851 34.535164,8.4968797 33.355887,10.845235 L 10.511222,57.576427 L 18.198199,58.133037 z"
       style="fill:url(#linearGradient6079);fill-opacity:1;stroke:none;stroke-width:0.5;stroke-linecap:round;stroke-linejoin:round;stroke-miterlimit:4;stroke-opacity:1;display:inline" />
    <path
       style="fill:url(#linearGradient6081);fill-opacity:1;stroke:none;stroke-width:0.5;stroke-linecap:round;stroke-linejoin:round;stroke-miterlimit:4;stroke-opacity:1;display:inline"
       d="M 50.347532,8.102708 C 46.306784,8.2850061 44.306885,10.394803 42.819808,13.372114 L 30.859226,38.966374 L 101.11798,39.468223 L 92.000935,16.466845 C 90.6972,12.87048 88.960404,11.026355 84.97506,10.611949 L 52.187642,8.102708 C 51.52092,8.0482943 50.924858,8.0766655 50.347532,8.102708 z M 101.36877,79.448793 L 30.775451,85.470972 L 41.732337,108.72327 C 44.067336,113.43457 46.179649,115.10215 51.853077,114.49453 L 84.138646,109.47605 C 89.408186,108.66377 91.228758,105.81247 93.088407,101.36283 L 101.36877,79.448793 z"
       id="path6011"
       inkscape:export-filename="/home/dafeba/DCV/tallerD/bocetos/08-09-22-hastaahora.png"
       inkscape:export-xdpi="57.964222"
       inkscape:export-ydpi="57.964222" />
    <path
       inkscape:export-ydpi="57.964222"
       inkscape:export-xdpi="57.964222"
       inkscape:export-filename="/home/dafeba/DCV/tallerD/bocetos/08-09-22-hastaahora.png"
       sodipodi:nodetypes="cccccccc"
       id="path6013"
       d="M 35.755123,115.27931 L 45.090036,117.76123 C 44.57882,117.59713 44.143349,117.33156 43.714303,117.05789 C 42.163525,116.00979 41.14136,114.24095 39.924612,111.78564 L 18.163404,67.079238 L 10.396934,67.490887 L 30.743332,109.27325 C 31.858908,111.86474 33.257124,114.70613 35.755123,115.27931 z"
       style="fill:url(#linearGradient6083);fill-opacity:1;stroke:none;stroke-width:0.5;stroke-linecap:round;stroke-linejoin:round;stroke-miterlimit:4;stroke-opacity:1;display:inline" />
    <path
       inkscape:export-ydpi="57.964222"
       inkscape:export-xdpi="57.964222"
       inkscape:export-filename="/home/dafeba/DCV/tallerD/bocetos/08-09-22-hastaahora.png"
       sodipodi:nodetypes="cccsssccccssscccccccccccccccccccccccscccccccsccccccccccccccccccc"
       id="path6015"
       d="M 33.160234,52.585277 L 33.219385,61.398878 L 36.809942,61.288685 C 38.2922,61.247922 39.453277,60.834131 40.293437,60.04726 C 41.133331,59.260442 41.581916,58.160043 41.638926,56.746089 C 41.695401,55.3426 41.334338,54.269716 40.555737,53.527408 C 39.777136,52.785107 38.64684,52.434348 37.164849,52.475112 L 33.160234,52.585277 M 30.022545,50.002137 L 37.269768,49.867134 C 39.908286,49.794573 41.875798,50.33681 43.173377,51.493764 C 44.481662,52.639986 45.089501,54.359968 44.997161,56.653695 C 44.904018,58.96838 44.155661,60.736117 42.752092,61.95696 C 41.358962,63.177482 39.343271,63.824076 36.705022,63.89661 L 33.173349,64.006803 L 33.119283,73.787972 L 29.963929,73.934752 L 30.022545,50.002137 z M 56.5659,52.777291 L 51.739324,64.40606 L 60.311695,64.042454 L 56.5659,52.777291 z M 54.917964,49.670034 L 58.438931,49.615433 L 66.077195,71.768775 L 63.100633,71.985333 L 61.115188,66.529025 L 50.671391,67.071877 L 48.389387,72.771615 L 45.052029,72.92672 L 54.917964,49.670034 z M 80.396866,60.729319 C 82.220649,61.612812 83.301162,63.624702 83.978055,65.490882 L 85.355126,70.510675 L 82.495796,70.663933 L 81.35292,66.089968 C 80.638288,64.540341 79.777786,63.309889 79.062619,62.816927 C 78.358157,62.32367 77.166034,62.136234 75.904588,62.170921 L 73.152854,62.29083 L 73.074164,71.223246 L 69.916669,71.429151 L 69.855644,49.466297 L 76.985904,49.327653 C 81.988595,49.05604 84.184147,51.19766 84.179865,55.316156 C 84.188965,58.730571 82.433433,60.091048 80.396866,60.729319 z M 73.122341,59.658415 L 76.545883,59.506388 C 79.441614,59.34949 81.259777,58.201155 81.365232,55.534025 C 81.324817,52.246456 79.505316,51.618838 76.880984,51.723544 L 73.004039,51.828785 L 73.122341,59.658415 z M 101.45388,48.968437 L 101.46459,51.402655 L 90.948794,51.599059 L 90.863948,58.124874 L 100.72587,57.875609 L 100.70713,60.428103 L 90.798105,60.79567 L 90.751801,67.329439 L 101.55158,66.745877 L 101.56228,69.472853 L 88.138711,70.262347 L 88.235334,49.073892 L 101.45388,48.968437 z"
       style="font-size:12.03600407px;font-style:normal;font-variant:normal;font-weight:bold;font-stretch:normal;text-align:start;line-height:125%;writing-mode:lr-tb;text-anchor:start;fill:url(#linearGradient6085);fill-opacity:1;stroke:none;stroke-width:1px;stroke-linecap:butt;stroke-linejoin:miter;stroke-opacity:1;display:inline;font-family:Helvetica;-inkscape-font-specification:Helvetica Bold" />
    <path
       inkscape:export-ydpi="57.964222"
       inkscape:export-xdpi="57.964222"
       inkscape:export-filename="/home/dafeba/DCV/tallerD/bocetos/08-09-22-hastaahora.png"
       id="path6018"
       d="M 48.758212,4.506129 C 48.174462,4.532466 47.675826,4.5752101 47.16916,4.6734118 C 47.115362,4.6838502 47.054872,4.6621972 47.001877,4.6734118 L 40.310567,5.5934669 C 36.627135,6.0782657 34.547476,8.514518 33.368199,10.862873 L 10.53424,57.534754 C 9.397788,60.456313 9.0522488,64.738992 10.366957,67.488077 L 30.775451,109.30876 C 31.891026,111.90017 33.295933,114.67412 35.793933,115.2473 L 45.077992,117.75654 C 46.54098,118.27496 48.425252,118.30614 51.10017,117.92382 L 85.393401,112.48714 C 91.001253,111.62272 92.949763,108.60733 94.928249,103.87207 L 110.48581,62.720519 C 111.3241,60.175037 111.42634,57.685094 110.48581,55.276437 L 94.259118,13.539397 C 92.871876,9.7122089 90.972615,7.7909733 86.731663,7.3499357 L 50.765605,4.506129 C 50.056326,4.4482358 49.372742,4.4784003 48.758212,4.506129 z"
       style="fill:none;fill-opacity:1;stroke:url(#linearGradient10935);stroke-width:2.67652392;stroke-linecap:round;stroke-linejoin:round;stroke-miterlimit:4;stroke-dasharray:none;stroke-opacity:1;display:inline" />
    <path
       inkscape:export-ydpi="57.964222"
       inkscape:export-xdpi="57.964222"
       inkscape:export-filename="/home/dafeba/DCV/tallerD/bocetos/08-09-22-hastaahora.png"
       style="fill:url(#linearGradient6087);fill-opacity:1;stroke:none;stroke-width:0.5;stroke-linecap:round;stroke-linejoin:round;stroke-miterlimit:4;stroke-opacity:1;display:inline"
       d="M 85.416954,112.5287 L 51.099367,117.94789 C 44.08286,118.95065 42.40923,116.79934 39.924612,111.78564 L 18.163404,67.079238 C 16.641532,63.891043 16.576225,61.348479 18.198199,58.133037 L 40.826869,10.073566 C 42.635396,6.452524 45.10663,4.0764131 50.782735,4.5395856 L 86.729254,7.3643086 C 90.970473,7.8053462 92.882582,9.7382783 94.270092,13.565467 L 110.44968,55.287089 C 111.39021,57.69572 111.34043,60.180551 110.50214,62.726032 L 94.963044,103.88845 C 92.984558,108.62365 91.024807,111.66429 85.416954,112.5287 z"
       id="path6020"
       sodipodi:nodetypes="ccccccccccccc" />
  </g>
</svg>
