<?xml version="1.0" encoding="UTF-8" standalone="no"?>
<!-- Created with Inkscape (http://www.inkscape.org/) -->

<svg
   xmlns:dc="http://purl.org/dc/elements/1.1/"
   xmlns:cc="http://creativecommons.org/ns#"
   xmlns:rdf="http://www.w3.org/1999/02/22-rdf-syntax-ns#"
   xmlns:svg="http://www.w3.org/2000/svg"
   xmlns="http://www.w3.org/2000/svg"
   xmlns:xlink="http://www.w3.org/1999/xlink"
   xmlns:sodipodi="http://sodipodi.sourceforge.net/DTD/sodipodi-0.dtd"
   xmlns:inkscape="http://www.inkscape.org/namespaces/inkscape"
   width="128"
   height="128"
   viewBox="0 0 128 128"
   id="svg14346"
   version="1.1"
   inkscape:version="0.91 r13725"
   sodipodi:docname="content-loading-symbolic-arg.svg">
  <defs
     id="defs14348">
    <linearGradient
       inkscape:collect="always"
       xlink:href="#linearGradient5316-3"
       id="linearGradient14287"
       gradientUnits="userSpaceOnUse"
       gradientTransform="matrix(0.89853677,0,0,0.8984996,-429.08622,-811.66571)"
       x1="537.4505"
       y1="937.9505"
       x2="549.508"
       y2="995.53851" />
    <linearGradient
       id="linearGradient5316-3">
      <stop
         id="stop5320-6"
         offset="0"
         style="stop-color:#c0bfbb;stop-opacity:1;" />
      <stop
         id="stop5322-7"
         offset="1"
         style="stop-color:#798088;stop-opacity:1;" />
    </linearGradient>
  </defs>
  <sodipodi:namedview
     id="base"
     pagecolor="#ffffff"
     bordercolor="#666666"
     borderopacity="1.0"
     inkscape:pageopacity="0.0"
     inkscape:pageshadow="2"
     inkscape:zoom="2.8"
     inkscape:cx="44.28878"
     inkscape:cy="83.935477"
     inkscape:document-units="px"
     inkscape:current-layer="layer1"
     showgrid="false"
     units="px"
     borderlayer="true"
     inkscape:showpageshadow="false"
     inkscape:window-width="1600"
     inkscape:window-height="847"
     inkscape:window-x="0"
     inkscape:window-y="0"
     inkscape:window-maximized="1" />
  <metadata
     id="metadata14351">
    <rdf:RDF>
      <cc:Work
         rdf:about="">
        <dc:format>image/svg+xml</dc:format>
        <dc:type
           rdf:resource="http://purl.org/dc/dcmitype/StillImage" />
        <dc:title></dc:title>
      </cc:Work>
    </rdf:RDF>
  </metadata>
  <g
     inkscape:label="Capa 1"
     inkscape:groupmode="layer"
     id="layer1"
     transform="translate(0,-924.3622)">
    <path
       style="display:inline;fill:url(#linearGradient14287);fill-opacity:1;stroke:none;stroke-width:7.4000001;stroke-linecap:round;stroke-linejoin:round;stroke-miterlimit:4;stroke-dashoffset:0;stroke-opacity:1"
       d="M 28.0625 34.304688 C 17.930613 34.120895 11.063882 43.547819 11.074219 54.210938 C 11.084192 64.791147 18.078933 74.007203 29.193359 72.095703 C 37.505839 70.666103 42.927954 62.985251 43.179688 52.837891 C 43.179687 42.173491 37.458768 35.011692 29.054688 34.351562 C 28.72118 34.325352 28.389335 34.310616 28.0625 34.304688 z M 68.777344 35.066406 C 59.532039 34.898716 53.265054 43.500479 53.275391 53.230469 C 53.284484 62.884819 59.666808 71.294991 69.808594 69.550781 C 77.393688 68.246301 82.342666 61.237846 82.572266 51.978516 C 82.572266 42.247316 77.350308 35.711745 69.681641 35.109375 C 69.377318 35.085458 69.075579 35.071816 68.777344 35.066406 z M 105.38672 35.660156 C 97.104017 35.506122 91.489663 43.407473 91.5 52.345703 C 91.50816 61.214473 97.226745 68.938228 106.3125 67.335938 C 113.1077 66.137587 117.54022 59.701122 117.74609 51.195312 C 117.74609 42.256003 113.06738 36.252579 106.19727 35.699219 C 105.92463 35.677249 105.6539 35.665125 105.38672 35.660156 z "
       transform="translate(0,924.3622)"
       id="path14284" />
  </g>
</svg>
