<?xml version="1.0" encoding="UTF-8" standalone="no"?>
<!-- Created with Inkscape (http://www.inkscape.org/) -->

<svg
   xmlns:dc="http://purl.org/dc/elements/1.1/"
   xmlns:cc="http://creativecommons.org/ns#"
   xmlns:rdf="http://www.w3.org/1999/02/22-rdf-syntax-ns#"
   xmlns:svg="http://www.w3.org/2000/svg"
   xmlns="http://www.w3.org/2000/svg"
   xmlns:xlink="http://www.w3.org/1999/xlink"
   xmlns:sodipodi="http://sodipodi.sourceforge.net/DTD/sodipodi-0.dtd"
   xmlns:inkscape="http://www.inkscape.org/namespaces/inkscape"
   width="128"
   height="128"
   id="svg52672"
   sodipodi:version="0.32"
   inkscape:version="0.48.3.1 r9886"
   version="1.0"
   sodipodi:docname="edit-paste.svg"
   inkscape:output_extension="org.inkscape.output.svg.inkscape">
  <defs
     id="defs52674">
    <linearGradient
       inkscape:collect="always"
       xlink:href="#linearGradient12578"
       id="linearGradient7136"
       gradientUnits="userSpaceOnUse"
       x1="490.48212"
       y1="949.35925"
       x2="490.48212"
       y2="971.01001"
       gradientTransform="matrix(2.6765239,0,0,2.6765239,-1304.0296,-2511.591)" />
    <linearGradient
       inkscape:collect="always"
       xlink:href="#linearGradient5362"
       id="linearGradient7148"
       gradientUnits="userSpaceOnUse"
       gradientTransform="matrix(2.6765239,0,0,2.6765239,-1304.0296,-2511.591)"
       x1="489.24469"
       y1="930.97449"
       x2="490.48212"
       y2="971.01001" />
    <linearGradient
       id="linearGradient12578">
      <stop
         style="stop-color:#e9b551;stop-opacity:1;"
         offset="0"
         id="stop12580" />
      <stop
         style="stop-color:#b48739;stop-opacity:1;"
         offset="1"
         id="stop12582" />
    </linearGradient>
    <linearGradient
       inkscape:collect="always"
       xlink:href="#linearGradient12578"
       id="linearGradient7122"
       x1="491.48212"
       y1="941.75787"
       x2="518.73737"
       y2="978.25787"
       gradientUnits="userSpaceOnUse"
       gradientTransform="matrix(2.6765239,0,0,2.6765239,-1298.6766,-2511.591)" />
    <linearGradient
       inkscape:collect="always"
       xlink:href="#linearGradient5344"
       id="linearGradient7152"
       x1="522.125"
       y1="931.04968"
       x2="491.375"
       y2="995.04968"
       gradientUnits="userSpaceOnUse"
       gradientTransform="matrix(2.6765239,0,0,2.6765239,-1298.6766,-2511.591)" />
    <linearGradient
       inkscape:collect="always"
       xlink:href="#linearGradient7210"
       id="linearGradient7096"
       gradientUnits="userSpaceOnUse"
       x1="493.36885"
       y1="961.90929"
       x2="511.89639"
       y2="961.90929"
       gradientTransform="matrix(2.6741573,-7.5972727e-2,0.1106788,2.6757483,-1378.8813,-2499.906)" />
    <linearGradient
       inkscape:collect="always"
       xlink:href="#linearGradient7210"
       id="linearGradient7098"
       gradientUnits="userSpaceOnUse"
       x1="493.48537"
       y1="965.31766"
       x2="511.7216"
       y2="965.31766"
       gradientTransform="matrix(2.6741573,-7.5972727e-2,0.1106788,2.6757483,-1378.8813,-2499.906)" />
    <linearGradient
       inkscape:collect="always"
       xlink:href="#linearGradient7210"
       id="linearGradient7100"
       gradientUnits="userSpaceOnUse"
       x1="493.48537"
       y1="968.90081"
       x2="511.7216"
       y2="968.90081"
       gradientTransform="matrix(2.6741573,-7.5972727e-2,0.1106788,2.6757483,-1378.8813,-2499.906)" />
    <linearGradient
       inkscape:collect="always"
       xlink:href="#linearGradient7210"
       id="linearGradient7102"
       gradientUnits="userSpaceOnUse"
       x1="493.48537"
       y1="972.92094"
       x2="511.7216"
       y2="972.92094"
       gradientTransform="matrix(2.6741573,-7.5972727e-2,0.1106788,2.6757483,-1378.8813,-2499.906)" />
    <linearGradient
       id="linearGradient7210">
      <stop
         id="stop7212"
         offset="0"
         style="stop-color:#798088;stop-opacity:1" />
      <stop
         id="stop8994"
         offset="0.5"
         style="stop-color:#c0bfbb;stop-opacity:1;" />
      <stop
         id="stop7214"
         offset="1"
         style="stop-color:#798088;stop-opacity:1;" />
    </linearGradient>
    <linearGradient
       inkscape:collect="always"
       xlink:href="#linearGradient7210"
       id="linearGradient7104"
       gradientUnits="userSpaceOnUse"
       x1="493.48537"
       y1="976.91194"
       x2="511.7216"
       y2="976.91194"
       gradientTransform="matrix(2.6741573,-7.5972727e-2,0.1106788,2.6757483,-1378.8813,-2499.906)" />
    <linearGradient
       inkscape:collect="always"
       xlink:href="#linearGradient5439"
       id="linearGradient7212"
       gradientUnits="userSpaceOnUse"
       x1="505.31378"
       y1="936.72278"
       x2="520.72333"
       y2="973.74963"
       gradientTransform="matrix(2.6765239,0,0,2.6765239,-1298.6766,-2511.591)" />
    <linearGradient
       inkscape:collect="always"
       xlink:href="#linearGradient5439"
       id="linearGradient7209"
       x1="500.74512"
       y1="931.70868"
       x2="525.42798"
       y2="972.33368"
       gradientUnits="userSpaceOnUse"
       gradientTransform="matrix(2.6765239,0,0,2.6765239,-1298.6766,-2511.591)" />
    <linearGradient
       inkscape:collect="always"
       xlink:href="#linearGradient9863"
       id="linearGradient10546"
       x1="687.92377"
       y1="277.30258"
       x2="687.92377"
       y2="231.01886"
       gradientUnits="userSpaceOnUse"
       gradientTransform="matrix(2.6765239,0,0,2.6765239,-1780.4509,-616.61205)" />
    <linearGradient
       id="linearGradient9863">
      <stop
         style="stop-color:#2f445a;stop-opacity:1;"
         offset="0"
         id="stop9865" />
      <stop
         style="stop-color:#415f7c;stop-opacity:1"
         offset="1"
         id="stop9867" />
    </linearGradient>
    <linearGradient
       inkscape:collect="always"
       xlink:href="#linearGradient5344"
       id="linearGradient58832"
       gradientUnits="userSpaceOnUse"
       gradientTransform="translate(-184,-280)"
       x1="519.31262"
       y1="723.67017"
       x2="511.42725"
       y2="667.20789" />
    <linearGradient
       inkscape:collect="always"
       xlink:href="#linearGradient5362"
       id="linearGradient58830"
       gradientUnits="userSpaceOnUse"
       gradientTransform="translate(-184,-280)"
       x1="504.91962"
       y1="635.44617"
       x2="504.48212"
       y2="641.10242" />
    <linearGradient
       inkscape:collect="always"
       xlink:href="#linearGradient5451"
       id="linearGradient58828"
       gradientUnits="userSpaceOnUse"
       gradientTransform="translate(-184,-280)"
       x1="484.70901"
       y1="674.9306"
       x2="533.03339"
       y2="674.9306" />
    <linearGradient
       id="linearGradient5451">
      <stop
         style="stop-color:#000000;stop-opacity:0.35099337;"
         offset="0"
         id="stop5453" />
      <stop
         id="stop5459"
         offset="0.45549738"
         style="stop-color:#000000;stop-opacity:0.29139072;" />
      <stop
         style="stop-color:#000000;stop-opacity:0;"
         offset="1"
         id="stop5455" />
    </linearGradient>
    <linearGradient
       id="linearGradient5439">
      <stop
         style="stop-color:#ffffff;stop-opacity:1;"
         offset="0"
         id="stop5441" />
      <stop
         style="stop-color:#000000;stop-opacity:1;"
         offset="1"
         id="stop5443" />
    </linearGradient>
    <linearGradient
       id="linearGradient5362">
      <stop
         style="stop-color:#ffffff;stop-opacity:1;"
         offset="0"
         id="stop5364" />
      <stop
         style="stop-color:#ffffff;stop-opacity:0;"
         offset="1"
         id="stop5366" />
    </linearGradient>
    <linearGradient
       id="linearGradient5344">
      <stop
         style="stop-color:#000000;stop-opacity:1;"
         offset="0"
         id="stop5346" />
      <stop
         style="stop-color:#000000;stop-opacity:0;"
         offset="1"
         id="stop5348" />
    </linearGradient>
  </defs>
  <sodipodi:namedview
     id="base"
     pagecolor="#ffffff"
     bordercolor="#666666"
     borderopacity="1.0"
     inkscape:pageopacity="0.0"
     inkscape:pageshadow="2"
     inkscape:zoom="2"
     inkscape:cx="100.31318"
     inkscape:cy="68.173957"
     inkscape:document-units="px"
     inkscape:current-layer="layer1"
     showgrid="false"
     inkscape:window-width="1024"
     inkscape:window-height="713"
     inkscape:window-x="0"
     inkscape:window-y="0"
     inkscape:window-maximized="0" />
  <metadata
     id="metadata52677">
    <rdf:RDF>
      <cc:Work
         rdf:about="">
        <dc:format>image/svg+xml</dc:format>
        <dc:type
           rdf:resource="http://purl.org/dc/dcmitype/StillImage" />
      </cc:Work>
    </rdf:RDF>
  </metadata>
  <g
     inkscape:label="Capa 1"
     inkscape:groupmode="layer"
     id="layer1">
    <g
       inkscape:export-ydpi="89.986237"
       inkscape:export-xdpi="89.986237"
       inkscape:export-filename="/home/dafeba/DCV/tallerD/elementos.png"
       transform="translate(424,80)"
       id="g58804">
      <rect
         style="opacity:1;fill:#f2f2f2;fill-opacity:1;stroke:none;stroke-width:0.1;stroke-linecap:round;stroke-linejoin:round;stroke-miterlimit:4;stroke-dasharray:none;stroke-opacity:0.30041151"
         id="rect58806"
         width="47.823223"
         height="48"
         x="301.18933"
         y="351.1709" />
      <path
         style="fill:url(#linearGradient58828);fill-rule:evenodd;stroke:none;stroke-width:1px;stroke-linecap:butt;stroke-linejoin:miter;stroke-opacity:1"
         d="M 313.09207,399.15115 L 301.20351,395.7431 L 336.08403,390.7653 L 349.00384,390.68796 L 349.03336,399.15114 L 313.09207,399.15115 z"
         id="path58808"
         sodipodi:nodetypes="cccccc" />
      <path
         style="fill:#f2f2f2;fill-rule:evenodd;stroke:none;stroke-width:0.5;stroke-linecap:round;stroke-linejoin:round;stroke-miterlimit:4;stroke-dasharray:none;stroke-opacity:1"
         d="M 301.48601,353.22699 C 305.08831,353.57311 306.6134,357.74996 306.61071,360.86425 L 306.56413,389.36485 C 306.59506,392.86249 308.42012,396.3398 313.14348,398.87602 L 346.05226,393.25994 C 342.15451,392.5412 339.36778,388.67929 339.39934,385.53974 L 339.4778,361.97786 C 339.51198,358.9412 337.51957,355.88584 333.82005,355.55785 L 301.48601,353.22699 z"
         id="path58810"
         sodipodi:nodetypes="ccccccccc" />
      <path
         sodipodi:nodetypes="ccccc"
         id="path58812"
         d="M 301.48601,353.22699 C 305.08831,353.57311 306.6134,357.74996 306.61071,360.86425 L 339.4778,361.97786 C 339.51198,358.9412 337.51957,355.88584 333.82005,355.55785 L 301.48601,353.22699 z"
         style="fill:url(#linearGradient58830);fill-rule:evenodd;stroke:none;stroke-width:0.5;stroke-linecap:round;stroke-linejoin:round;stroke-miterlimit:4;stroke-dasharray:none;stroke-opacity:1" />
      <path
         sodipodi:nodetypes="ccccc"
         id="path58814"
         d="M 306.56413,389.36485 C 306.59506,392.86249 308.42012,396.3398 313.14348,398.87602 L 346.05226,393.25994 C 342.15451,392.5412 339.36778,388.67929 339.39934,385.53974 L 306.56413,389.36485 z"
         style="fill:url(#linearGradient58832);fill-rule:evenodd;stroke:none;stroke-width:0.5;stroke-linecap:round;stroke-linejoin:round;stroke-miterlimit:4;stroke-dasharray:none;stroke-opacity:1" />
      <path
         sodipodi:nodetypes="ccccccccc"
         id="path58816"
         d="M 301.48601,353.22699 C 305.08831,353.57311 306.6134,357.74996 306.61071,360.86425 L 306.56413,389.36485 C 306.59506,392.86249 308.42012,396.3398 313.14348,398.87602 L 346.05226,393.25994 C 342.15451,392.5412 339.36778,388.67929 339.39934,385.53974 L 339.4778,361.97786 C 339.51198,358.9412 337.51957,355.88584 333.82005,355.55785 L 301.48601,353.22699 z"
         style="fill:none;fill-rule:evenodd;stroke:#000000;stroke-width:0.5;stroke-linecap:round;stroke-linejoin:round;stroke-miterlimit:4;stroke-dasharray:none;stroke-opacity:1" />
    </g>
    <path
       sodipodi:nodetypes="ccccc"
       id="path58818"
       d="M 740.12551,445.55112 L 757.25142,445.69471 L 757.28066,447.8612 L 740.12588,448.00172 L 740.12551,445.55112 z"
       style="fill:#000000;fill-rule:evenodd;stroke:none;stroke-width:1px;stroke-linecap:butt;stroke-linejoin:miter;stroke-opacity:1" />
    <path
       style="fill:#000000;fill-rule:evenodd;stroke:none;stroke-width:1px;stroke-linecap:butt;stroke-linejoin:miter;stroke-opacity:1"
       d="M 744.24688,449.98324 L 754.3118,449.81922 L 754.31233,452.041 L 744.12653,452.24935 L 744.24688,449.98324 z"
       id="path58820"
       sodipodi:nodetypes="ccccc" />
    <path
       sodipodi:nodetypes="ccccc"
       id="path58822"
       d="M 737.18797,454.68729 L 758.68836,453.88522 L 758.75025,455.99227 L 737.18522,457.06633 L 737.18797,454.68729 z"
       style="fill:#000000;fill-rule:evenodd;stroke:none;stroke-width:1px;stroke-linecap:butt;stroke-linejoin:miter;stroke-opacity:1" />
    <path
       style="fill:#000000;fill-rule:evenodd;stroke:none;stroke-width:1px;stroke-linecap:butt;stroke-linejoin:miter;stroke-opacity:1"
       d="M 747.11973,459.21937 L 751.38008,458.93979 L 751.25403,461.03473 L 746.94583,461.39831 L 747.11973,459.21937 z"
       id="path58824"
       sodipodi:nodetypes="ccccc" />
    <path
       sodipodi:nodetypes="ccccc"
       id="path58826"
       d="M 742.54569,464.13694 L 754.55952,462.8959 L 754.44101,465.07791 L 742.37806,466.57431 L 742.54569,464.13694 z"
       style="fill:#000000;fill-rule:evenodd;stroke:none;stroke-width:1px;stroke-linecap:butt;stroke-linejoin:miter;stroke-opacity:1" />
    <path
       sodipodi:nodetypes="ccsccccccsc"
       id="path7134"
       d="M 9.4266302,102.42908 L 9.4266302,24.032252 C 9.7297465,18.188302 11.802982,12.674155 16.592675,9.9696076 C 18.443839,8.9243179 22.969306,7.5350146 27.168101,7.2559067 L 89.16686,12.004595 C 96.489883,12.376713 101.83429,18.792233 101.81159,27.10747 L 101.69749,92.935181 C 102.41346,103.29539 97.98962,112.0783 88.941497,112.91404 L 26.925341,123.13593 C 21.561133,123.06792 17.275777,121.5969 14.42892,118.23452 C 11.039316,114.23105 9.4518698,108.09049 9.4266302,102.42908 z"
       style="fill:url(#linearGradient7136);fill-rule:evenodd;stroke:none;stroke-width:0.5;stroke-linecap:round;stroke-linejoin:round;stroke-miterlimit:4;stroke-dasharray:none;stroke-opacity:1;display:inline"
       inkscape:export-filename="/home/dafeba/DCV/tallerD/bocetos/08-09-22-hastaahora.png"
       inkscape:export-xdpi="57.964222"
       inkscape:export-ydpi="57.964222" />
    <path
       style="fill:url(#linearGradient7148);fill-rule:evenodd;stroke:none;stroke-width:0.5;stroke-linecap:round;stroke-linejoin:round;stroke-miterlimit:4;stroke-dasharray:none;stroke-opacity:1;display:inline"
       d="M 9.4266302,102.42908 L 9.4266302,24.032252 C 9.7297465,18.188302 11.802982,12.674155 16.592675,9.9696076 C 18.443839,8.9243179 22.969306,7.5350146 27.168101,7.2559067 L 89.16686,12.004595 C 96.489883,12.376713 101.83429,18.792233 101.81159,27.10747 L 101.69749,92.935181 C 102.41346,103.29539 97.98962,112.0783 88.941497,112.91404 L 26.925341,123.13593 C 21.561133,123.06792 17.275777,121.5969 14.42892,118.23452 C 11.039316,114.23105 9.4518698,108.09049 9.4266302,102.42908 z"
       id="path7146"
       sodipodi:nodetypes="ccsccccccsc"
       inkscape:export-filename="/home/dafeba/DCV/tallerD/bocetos/08-09-22-hastaahora.png"
       inkscape:export-xdpi="57.964222"
       inkscape:export-ydpi="57.964222" />
    <path
       style="fill:url(#linearGradient7122);fill-rule:evenodd;stroke:none;stroke-width:0.5;stroke-linecap:round;stroke-linejoin:round;stroke-miterlimit:4;stroke-dasharray:none;stroke-opacity:1;display:inline"
       d="M 14.779678,102.42908 L 14.779678,22.849389 C 15.252513,13.733576 21.481854,5.7265677 32.521149,7.2559067 L 94.519908,12.004595 C 101.84293,12.376713 107.18733,18.792233 107.16464,27.10747 L 107.05054,92.935181 C 107.76651,103.29539 103.34267,112.0783 94.294545,112.91404 L 32.278389,122.63408 C 20.160829,124.3174 14.826116,112.84536 14.779678,102.42908 z"
       id="path7068"
       sodipodi:nodetypes="ccccccccc"
       inkscape:export-filename="/home/dafeba/DCV/tallerD/bocetos/08-09-22-hastaahora.png"
       inkscape:export-xdpi="57.964222"
       inkscape:export-ydpi="57.964222" />
    <path
       style="fill:url(#linearGradient7152);fill-rule:evenodd;stroke:none;stroke-width:1px;stroke-linecap:butt;stroke-linejoin:miter;stroke-opacity:1;display:inline"
       d="M 44.235706,107.43453 C 41.981564,103.93773 39.691209,100.35483 39.513113,93.640071 L 39.126302,33.831568 C 38.733522,30.499269 40.265832,25.444145 36.851471,23.924762 C 36.851471,23.924762 93.408428,26.388503 93.408428,28.395896 C 93.408428,30.403288 95.457842,99.14461 95.457842,99.14461 L 44.235706,107.43453 z"
       id="path7150"
       sodipodi:nodetypes="ccccscc"
       inkscape:export-filename="/home/dafeba/DCV/tallerD/bocetos/08-09-22-hastaahora.png"
       inkscape:export-xdpi="57.964222"
       inkscape:export-ydpi="57.964222" />
    <path
       sodipodi:nodetypes="ccccccc"
       id="path7072"
       d="M 42.319823,24.672449 L 44.805805,86.70873 C 45.107476,92.716938 48.51536,99.255766 56.805813,103.38358 L 112.97111,93.547115 C 106.22745,92.502147 101.12608,84.987592 100.95711,79.591452 L 98.823036,24.738292 L 42.319823,24.672449 z"
       style="fill:#ffffff;fill-rule:evenodd;stroke:none;stroke-width:0.5;stroke-linecap:round;stroke-linejoin:round;stroke-miterlimit:4;stroke-dasharray:none;stroke-opacity:1;display:inline"
       inkscape:export-filename="/home/dafeba/DCV/tallerD/bocetos/08-09-22-hastaahora.png"
       inkscape:export-xdpi="57.964222"
       inkscape:export-ydpi="57.964222" />
    <path
       style="fill:url(#linearGradient7096);fill-rule:evenodd;stroke:none;stroke-width:1px;stroke-linecap:butt;stroke-linejoin:miter;stroke-opacity:1;display:inline"
       d="M 47.36499,39.469478 L 46.85993,34.801406 L 95.933862,33.304881 L 96.575371,37.500787 L 47.36499,39.469478 z"
       id="path7074"
       sodipodi:nodetypes="ccccc"
       inkscape:export-filename="/home/dafeba/DCV/tallerD/bocetos/08-09-22-hastaahora.png"
       inkscape:export-xdpi="57.964222"
       inkscape:export-ydpi="57.964222" />
    <path
       sodipodi:nodetypes="ccccc"
       id="path7076"
       d="M 47.764783,49.135102 L 47.727177,44.453727 L 96.288528,41.879313 L 96.306836,46.092965 L 47.764783,49.135102 z"
       style="fill:url(#linearGradient7098);fill-rule:evenodd;stroke:none;stroke-width:1px;stroke-linecap:butt;stroke-linejoin:miter;stroke-opacity:1;display:inline"
       inkscape:export-filename="/home/dafeba/DCV/tallerD/bocetos/08-09-22-hastaahora.png"
       inkscape:export-xdpi="57.964222"
       inkscape:export-ydpi="57.964222" />
    <path
       style="fill:url(#linearGradient7100);fill-rule:evenodd;stroke:none;stroke-width:1px;stroke-linecap:butt;stroke-linejoin:miter;stroke-opacity:1;display:inline"
       d="M 48.177476,59.112431 L 48.139871,54.431056 L 96.698304,51.786546 L 96.716638,56.000195 L 48.177476,59.112431 z"
       id="path7078"
       sodipodi:nodetypes="ccccc"
       inkscape:export-filename="/home/dafeba/DCV/tallerD/bocetos/08-09-22-hastaahora.png"
       inkscape:export-xdpi="57.964222"
       inkscape:export-ydpi="57.964222" />
    <path
       sodipodi:nodetypes="ccccc"
       id="path7080"
       d="M 48.641799,70.336915 L 48.604141,65.655836 L 97.079896,61.011424 L 97.098204,65.225103 L 48.641799,70.336915 z"
       style="fill:url(#linearGradient7102);fill-rule:evenodd;stroke:none;stroke-width:1px;stroke-linecap:butt;stroke-linejoin:miter;stroke-opacity:1;display:inline"
       inkscape:export-filename="/home/dafeba/DCV/tallerD/bocetos/08-09-22-hastaahora.png"
       inkscape:export-xdpi="57.964222"
       inkscape:export-ydpi="57.964222" />
    <path
       style="fill:url(#linearGradient7104);fill-rule:evenodd;stroke:none;stroke-width:1px;stroke-linecap:butt;stroke-linejoin:miter;stroke-opacity:1;display:inline"
       d="M 49.106069,81.561427 L 49.068464,76.88032 L 97.494169,71.026495 L 97.512476,75.240147 L 49.106069,81.561427 z"
       id="path7082"
       sodipodi:nodetypes="ccccc"
       inkscape:export-filename="/home/dafeba/DCV/tallerD/bocetos/08-09-22-hastaahora.png"
       inkscape:export-xdpi="57.964222"
       inkscape:export-ydpi="57.964222" />
    <path
       style="fill:url(#linearGradient7212);fill-rule:evenodd;stroke:none;stroke-width:0.5;stroke-linecap:butt;stroke-linejoin:miter;stroke-miterlimit:4;stroke-dasharray:none;stroke-opacity:1;display:inline"
       d="M 59.241128,13.29112 C 59.816795,16.963632 35.326441,15.075746 34.817848,18.644168 L 34.566924,26.422816 L 90.104795,28.262926 L 90.43936,21.738899 C 90.875955,16.865886 70.089026,16.973187 71.703693,14.378458 C 74.42007,9.35299 71.76271,3.4709807 66.866839,3.2177816 C 61.112126,3.1450604 59.265003,7.7310433 59.241128,13.29112 z M 66.448632,6.6876539 C 68.447273,6.7924934 69.0936,9.735492 68.998476,11.357225 C 68.827393,13.38164 67.303032,14.963948 65.848797,14.963948 C 64.394561,14.963974 63.00499,13.349923 63.00499,11.200086 C 63.114058,8.2433567 64.365039,6.4326615 66.448632,6.6876539 z"
       id="path7138"
       inkscape:export-filename="/home/dafeba/DCV/tallerD/bocetos/08-09-22-hastaahora.png"
       inkscape:export-xdpi="57.964222"
       inkscape:export-ydpi="57.964222"
       sodipodi:nodetypes="ccccccccccscc" />
    <path
       style="fill:url(#linearGradient7209);fill-rule:evenodd;stroke:none;stroke-width:1px;stroke-linecap:butt;stroke-linejoin:miter;stroke-opacity:1;display:inline"
       d="M 90.010046,23.795647 L 34.888428,20.720187 L 34.895467,18.553487 L 65.037194,18.745689 C 68.686367,18.974558 70.601473,16.831813 71.528621,14.777153 C 72.865759,15.344228 73.139166,17.963769 71.669647,18.982293 L 90.246624,21.666472 L 90.010046,23.795647 z"
       id="path7207"
       sodipodi:nodetypes="cccccccc"
       inkscape:export-filename="/home/dafeba/DCV/tallerD/bocetos/08-09-22-hastaahora.png"
       inkscape:export-xdpi="57.964222"
       inkscape:export-ydpi="57.964222" />
    <path
       style="fill:none;fill-rule:evenodd;stroke:url(#linearGradient10546);stroke-width:2.67652392;stroke-linecap:round;stroke-linejoin:round;stroke-miterlimit:4;stroke-dasharray:none;stroke-opacity:1;display:inline"
       d="M 58.655639,9.0254102 L 32.475889,6.5999443 C 27.025282,6.2385065 21.283471,6.1592011 16.333106,9.2764682 C 11.543413,11.980828 8.7739063,17.734953 8.4708168,23.579143 L 8.6380995,102.45269 C 8.6633391,108.11407 10.936083,115.42847 14.325713,119.43202 C 19.213099,124.38466 26.324837,124.55818 32.810455,123.61409 L 94.286863,112.90799 C 102.84323,112.11761 107.11592,105.56771 106.96572,95.950955 L 113.11632,94.207976 L 107.08399,89.086875 L 108.17133,27.259229 C 108.19403,18.944073 102.86443,11.655764 95.541484,11.283727 L 73.878368,10.196389 C 74.747275,6.3436671 71.312117,2.6182938 67.083129,2.1405878 C 63.061545,1.8543335 59.257776,4.3334638 58.655639,9.0254102 z"
       id="path7160"
       inkscape:export-filename="/home/dafeba/DCV/tallerD/bocetos/08-09-22-hastaahora.png"
       inkscape:export-xdpi="57.964222"
       inkscape:export-ydpi="57.964222"
       sodipodi:nodetypes="cccccccccccccccc" />
  </g>
</svg>
