<?xml version="1.0" encoding="UTF-8" standalone="no"?>
<!-- Created with Inkscape (http://www.inkscape.org/) -->

<svg
   xmlns:dc="http://purl.org/dc/elements/1.1/"
   xmlns:cc="http://creativecommons.org/ns#"
   xmlns:rdf="http://www.w3.org/1999/02/22-rdf-syntax-ns#"
   xmlns:svg="http://www.w3.org/2000/svg"
   xmlns="http://www.w3.org/2000/svg"
   xmlns:xlink="http://www.w3.org/1999/xlink"
   xmlns:sodipodi="http://sodipodi.sourceforge.net/DTD/sodipodi-0.dtd"
   xmlns:inkscape="http://www.inkscape.org/namespaces/inkscape"
   width="128"
   height="128"
   id="svg2"
   sodipodi:version="0.32"
   inkscape:version="0.48.3.1 r9886"
   version="1.0"
   sodipodi:docname="file-new.svg"
   inkscape:output_extension="org.inkscape.output.svg.inkscape">
  <defs
     id="defs4">
    <linearGradient
       id="linearGradient9863">
      <stop
         style="stop-color:#2f445a;stop-opacity:1;"
         offset="0"
         id="stop9865" />
      <stop
         style="stop-color:#415f7c;stop-opacity:1"
         offset="1"
         id="stop9867" />
    </linearGradient>
    <linearGradient
       id="linearGradient5362">
      <stop
         style="stop-color:#ffffff;stop-opacity:1;"
         offset="0"
         id="stop5364" />
      <stop
         style="stop-color:#ffffff;stop-opacity:0;"
         offset="1"
         id="stop5366" />
    </linearGradient>
    <linearGradient
       id="linearGradient5344">
      <stop
         style="stop-color:#000000;stop-opacity:1;"
         offset="0"
         id="stop5346" />
      <stop
         style="stop-color:#000000;stop-opacity:0;"
         offset="1"
         id="stop5348" />
    </linearGradient>
    <linearGradient
       id="linearGradient8702">
      <stop
         id="stop8704"
         offset="0"
         style="stop-color:#aac736;stop-opacity:1;" />
      <stop
         id="stop8706"
         offset="1"
         style="stop-color:#5d8b2c;stop-opacity:1;" />
    </linearGradient>
    <linearGradient
       inkscape:collect="always"
       xlink:href="#linearGradient9863"
       id="linearGradient2575"
       gradientUnits="userSpaceOnUse"
       gradientTransform="matrix(2.6666667,0,0,2.6666667,-2411.5699,-1097.9463)"
       x1="927.93488"
       y1="459.10907"
       x2="927.93488"
       y2="410.98141" />
    <linearGradient
       inkscape:collect="always"
       xlink:href="#linearGradient5344"
       id="linearGradient2578"
       gradientUnits="userSpaceOnUse"
       gradientTransform="matrix(2.6666667,0,0,2.6666667,-1291.5699,-1684.4463)"
       x1="519.31262"
       y1="723.67017"
       x2="511.42725"
       y2="667.20789" />
    <linearGradient
       inkscape:collect="always"
       xlink:href="#linearGradient5362"
       id="linearGradient2581"
       gradientUnits="userSpaceOnUse"
       gradientTransform="matrix(2.6666667,0,0,2.6666667,-1291.5699,-1684.4463)"
       x1="504.91962"
       y1="635.44617"
       x2="504.48212"
       y2="641.10242" />
    <linearGradient
       inkscape:collect="always"
       xlink:href="#linearGradient8702"
       id="linearGradient2895"
       gradientUnits="userSpaceOnUse"
       gradientTransform="matrix(2.6765239,0,0,2.6765239,-1779.8685,-993.83428)"
       x1="700.13062"
       y1="378.86951"
       x2="707.80457"
       y2="395.74899" />
    <linearGradient
       inkscape:collect="always"
       xlink:href="#linearGradient5344"
       id="linearGradient2899"
       gradientUnits="userSpaceOnUse"
       gradientTransform="translate(-485.53649,-858.63547)"
       x1="628.54218"
       y1="847.27502"
       x2="550.77789"
       y2="930.47314" />
  </defs>
  <sodipodi:namedview
     id="base"
     pagecolor="#ffffff"
     bordercolor="#666666"
     borderopacity="1.0"
     inkscape:pageopacity="0.0"
     inkscape:pageshadow="2"
     inkscape:zoom="2.5020702"
     inkscape:cx="133.50355"
     inkscape:cy="78.169469"
     inkscape:document-units="px"
     inkscape:current-layer="layer1"
     showgrid="false"
     inkscape:showpageshadow="false"
     inkscape:window-width="1024"
     inkscape:window-height="713"
     inkscape:window-x="0"
     inkscape:window-y="0"
     showguides="true"
     inkscape:guide-bbox="true"
     inkscape:window-maximized="0" />
  <metadata
     id="metadata7">
    <rdf:RDF>
      <cc:Work
         rdf:about="">
        <dc:format>image/svg+xml</dc:format>
        <dc:type
           rdf:resource="http://purl.org/dc/dcmitype/StillImage" />
      </cc:Work>
    </rdf:RDF>
  </metadata>
  <g
     inkscape:label="Capa 1"
     inkscape:groupmode="layer"
     id="layer1">
    <path
       inkscape:export-ydpi="57.964222"
       inkscape:export-xdpi="57.964222"
       inkscape:export-filename="/home/dafeba/DCV/tallerD/bocetos/08-09-22-hastaahora.png"
       style="fill:#f2f2f2;fill-rule:evenodd;stroke:none;stroke-width:0.5;stroke-linecap:round;stroke-linejoin:round;stroke-miterlimit:4;stroke-dasharray:none;stroke-opacity:1;display:inline"
       d="M 3.0594227,4.1589507 C 12.665563,5.0821507 16.732463,16.220284 16.725293,24.525084 L 16.601083,100.52668 C 16.683563,109.85362 21.550383,119.12643 34.146013,125.88989 L 121.90275,110.91362 C 111.50875,108.99682 104.07748,98.69842 104.16164,90.326417 L 104.37086,27.494684 C 104.46201,19.396818 99.148923,11.249351 89.283533,10.374684 L 3.0594227,4.1589507 z"
       id="path14074"
       sodipodi:nodetypes="ccccccccc" />
    <path
       inkscape:export-ydpi="57.964222"
       inkscape:export-xdpi="57.964222"
       inkscape:export-filename="/home/dafeba/DCV/tallerD/bocetos/08-09-22-hastaahora.png"
       sodipodi:nodetypes="ccccc"
       id="path14076"
       d="M 3.0594227,4.1589507 C 12.665563,5.0821507 16.732463,16.220284 16.725293,24.525084 L 104.37086,27.494684 C 104.46201,19.396818 99.148923,11.249351 89.283533,10.374684 L 3.0594227,4.1589507 z"
       style="fill:url(#linearGradient2581);fill-rule:evenodd;stroke:none;stroke-width:0.5;stroke-linecap:round;stroke-linejoin:round;stroke-miterlimit:4;stroke-dasharray:none;stroke-opacity:1;display:inline" />
    <path
       inkscape:export-ydpi="57.964222"
       inkscape:export-xdpi="57.964222"
       inkscape:export-filename="/home/dafeba/DCV/tallerD/bocetos/08-09-22-hastaahora.png"
       sodipodi:nodetypes="ccccc"
       id="path14078"
       d="M 16.601083,100.52668 C 16.683563,109.85362 21.550383,119.12643 34.146013,125.88989 L 121.90275,110.91362 C 111.50875,108.99682 104.07748,98.098916 104.16164,89.726913 L 16.601083,100.52668 z"
       style="fill:url(#linearGradient2578);fill-rule:evenodd;stroke:none;stroke-width:0.5;stroke-linecap:round;stroke-linejoin:round;stroke-miterlimit:4;stroke-dasharray:none;stroke-opacity:1;display:inline" />
    <path
       sodipodi:nodetypes="cscccccccccc"
       id="path14080"
       d="M 3.9433227,4.0808177 C 7.1686227,4.3906837 8.8856127,5.7637507 10.917483,7.8829506 C 14.937263,12.075484 16.730063,18.841884 16.725293,24.358418 L 16.601083,100.36002 C 16.674573,108.66962 20.545423,116.93603 30.295743,123.42323 C 32.736173,125.03309 35.981563,125.03309 39.412653,124.66163 L 123.10176,110.34728 C 112.70776,108.43048 105.27649,98.132082 105.36065,89.760082 L 105.96954,27.727687 C 106.06069,19.62982 100.7476,11.482353 90.882209,10.607687 L 12.099163,4.6440177 L 3.9433227,4.0808177 z"
       style="fill:none;fill-rule:evenodd;stroke:url(#linearGradient2575);stroke-width:2.66666675;stroke-linecap:round;stroke-linejoin:round;stroke-miterlimit:4;stroke-dasharray:none;stroke-opacity:1;display:inline"
       inkscape:export-filename="/home/dafeba/DCV/tallerD/bocetos/08-09-22-hastaahora.png"
       inkscape:export-xdpi="57.964222"
       inkscape:export-ydpi="57.964222" />
    <path
       style="fill:#c2e3ff;fill-opacity:1;fill-rule:evenodd;stroke:#000000;stroke-width:2.67652392;stroke-linecap:round;stroke-linejoin:miter;stroke-miterlimit:4;stroke-dasharray:none;stroke-opacity:1;display:inline"
       d="M 93.52389,3.3414196 C 91.05863,3.6180596 89.20489,5.719 89.23733,8.19952 L 89.23733,29.34647 L 67.99502,29.34647 C 65.31196,29.34647 63.13691,31.52168 63.13691,34.20462 C 63.13691,36.88784 65.31196,39.06278 67.99502,39.06278 L 89.23733,39.06278 L 89.23733,60.20973 C 89.09625,62.01799 89.97691,63.73953 91.52348,64.68702 C 93.07014,65.63424 95.0255,65.63424 96.5721,64.68702 C 98.11865,63.73953 98.99936,62.01799 98.85828,60.20973 L 98.85828,39.06278 L 120.10059,39.06278 C 122.78364,39.06278 124.95869,36.88784 124.95869,34.20462 C 124.95869,31.52168 122.78364,29.34647 120.10059,29.34647 L 98.85828,29.34647 L 98.85828,8.19952 C 98.87544,6.82076 98.25837,5.50817 97.23891,4.5797396 C 96.21947,3.6513296 94.89505,3.1957596 93.52389,3.3414196 z"
       id="path13302"
       inkscape:export-filename="/home/dafeba/DCV/tallerD/bocetos/08-09-22-hastaahora.png"
       inkscape:export-xdpi="57.964222"
       inkscape:export-ydpi="57.964222" />
    <path
       inkscape:export-ydpi="57.964222"
       inkscape:export-xdpi="57.964222"
       inkscape:export-filename="/home/dafeba/DCV/tallerD/bocetos/08-09-22-hastaahora.png"
       id="path13304"
       d="M 85.74524,9.7818 C 83.27998,10.05844 81.42624,12.15938 81.45868,14.6399 L 81.45868,35.78699 L 60.21637,35.78699 C 57.53332,35.78699 55.35827,37.96193 55.35827,40.64514 C 55.35827,43.32809 57.53332,45.50304 60.21637,45.50304 L 81.45868,45.50304 L 81.45868,66.65025 C 81.3176,68.45851 82.19826,70.18005 83.74484,71.12727 C 85.29149,72.07449 87.24685,72.07449 88.79346,71.12727 C 90.34001,70.18005 91.22072,68.45851 91.07964,66.65025 L 91.07964,45.50304 L 112.32195,45.50304 C 115.005,45.50304 117.18005,43.32809 117.18005,40.64514 C 117.18005,37.96193 115.005,35.78699 112.32195,35.78699 L 91.07964,35.78699 L 91.07964,14.6399 C 91.09679,13.26115 90.47972,11.94855 89.46026,11.02012 C 88.44082,10.09171 87.1164,9.63614 85.74524,9.7818 z"
       style="fill:url(#linearGradient2899);fill-opacity:1;fill-rule:evenodd;stroke:none;stroke-width:1;stroke-linecap:round;stroke-linejoin:miter;stroke-miterlimit:4;stroke-dasharray:none;stroke-opacity:1;display:inline" />
    <path
       id="path13306"
       d="M 93.52389,3.3414196 C 91.05863,3.6180596 89.20489,5.719 89.23733,8.19952 L 89.23733,29.34647 L 67.99502,29.34647 C 65.31196,29.34647 63.13691,31.52168 63.13691,34.20462 C 63.13691,36.88784 65.31196,39.06278 67.99502,39.06278 L 89.23733,39.06278 L 89.23733,60.20973 C 89.09625,62.01799 89.97691,63.73953 91.52348,64.68702 C 93.07014,65.63424 95.0255,65.63424 96.5721,64.68702 C 98.11865,63.73953 98.99936,62.01799 98.85828,60.20973 L 98.85828,39.06278 L 120.10059,39.06278 C 122.78364,39.06278 124.95869,36.88784 124.95869,34.20462 C 124.95869,31.52168 122.78364,29.34647 120.10059,29.34647 L 98.85828,29.34647 L 98.85828,8.19952 C 98.87544,6.82076 98.25837,5.50817 97.23891,4.5797396 C 96.21947,3.6513296 94.89505,3.1957596 93.52389,3.3414196 z"
       style="fill:url(#linearGradient2895);fill-opacity:1;fill-rule:evenodd;stroke:none;stroke-width:3.16552567;stroke-linecap:round;stroke-linejoin:miter;stroke-miterlimit:4;stroke-dasharray:none;stroke-opacity:1;display:inline"
       inkscape:export-filename="/home/dafeba/DCV/tallerD/bocetos/08-09-22-hastaahora.png"
       inkscape:export-xdpi="57.964222"
       inkscape:export-ydpi="57.964222" />
  </g>
</svg>
