<?xml version="1.0" encoding="UTF-8" standalone="no"?>
<!-- Created with Inkscape (http://www.inkscape.org/) -->

<svg
   xmlns:dc="http://purl.org/dc/elements/1.1/"
   xmlns:cc="http://creativecommons.org/ns#"
   xmlns:rdf="http://www.w3.org/1999/02/22-rdf-syntax-ns#"
   xmlns:svg="http://www.w3.org/2000/svg"
   xmlns="http://www.w3.org/2000/svg"
   xmlns:xlink="http://www.w3.org/1999/xlink"
   xmlns:sodipodi="http://sodipodi.sourceforge.net/DTD/sodipodi-0.dtd"
   xmlns:inkscape="http://www.inkscape.org/namespaces/inkscape"
   width="128"
   height="128"
   id="svg52672"
   sodipodi:version="0.32"
   inkscape:version="0.48.3.1 r9886"
   version="1.0"
   sodipodi:docname="volume-0.svg"
   inkscape:output_extension="org.inkscape.output.svg.inkscape">
  <defs
     id="defs52674">
    <linearGradient
       inkscape:collect="always"
       xlink:href="#linearGradient5344"
       id="linearGradient58832"
       gradientUnits="userSpaceOnUse"
       gradientTransform="translate(-184,-280)"
       x1="519.31262"
       y1="723.67017"
       x2="511.42725"
       y2="667.20789" />
    <linearGradient
       inkscape:collect="always"
       xlink:href="#linearGradient5362"
       id="linearGradient58830"
       gradientUnits="userSpaceOnUse"
       gradientTransform="translate(-184,-280)"
       x1="504.91962"
       y1="635.44617"
       x2="504.48212"
       y2="641.10242" />
    <linearGradient
       inkscape:collect="always"
       xlink:href="#linearGradient5451"
       id="linearGradient58828"
       gradientUnits="userSpaceOnUse"
       gradientTransform="translate(-184,-280)"
       x1="484.70901"
       y1="674.9306"
       x2="533.03339"
       y2="674.9306" />
    <linearGradient
       id="linearGradient5451">
      <stop
         style="stop-color:#000000;stop-opacity:0.35099337;"
         offset="0"
         id="stop5453" />
      <stop
         id="stop5459"
         offset="0.45549738"
         style="stop-color:#000000;stop-opacity:0.29139072;" />
      <stop
         style="stop-color:#000000;stop-opacity:0;"
         offset="1"
         id="stop5455" />
    </linearGradient>
    <linearGradient
       id="linearGradient5362">
      <stop
         style="stop-color:#ffffff;stop-opacity:1;"
         offset="0"
         id="stop5364" />
      <stop
         style="stop-color:#ffffff;stop-opacity:0;"
         offset="1"
         id="stop5366" />
    </linearGradient>
    <linearGradient
       id="linearGradient5344">
      <stop
         style="stop-color:#000000;stop-opacity:1;"
         offset="0"
         id="stop5346" />
      <stop
         style="stop-color:#000000;stop-opacity:0;"
         offset="1"
         id="stop5348" />
    </linearGradient>
    <linearGradient
       inkscape:collect="always"
       xlink:href="#linearGradient9863-9"
       id="linearGradient5157"
       gradientUnits="userSpaceOnUse"
       gradientTransform="matrix(2.6765239,0,0,2.6765239,-977.438,-940.3904)"
       x1="392.3085"
       y1="398.4826"
       x2="392.3085"
       y2="352.06906" />
    <linearGradient
       id="linearGradient9863-9">
      <stop
         style="stop-color:#2f445a;stop-opacity:1;"
         offset="0"
         id="stop9865-4" />
      <stop
         style="stop-color:#415f7c;stop-opacity:1"
         offset="1"
         id="stop9867-8" />
    </linearGradient>
    <linearGradient
       inkscape:collect="always"
       xlink:href="#linearGradient5344-2"
       id="linearGradient5155"
       gradientUnits="userSpaceOnUse"
       gradientTransform="matrix(2.7642986,0,0,2.8210385,-1342.4466,-1789.1734)"
       x1="497.4556"
       y1="669.95612"
       x2="504.83231"
       y2="649.57263" />
    <linearGradient
       id="linearGradient5344-2">
      <stop
         style="stop-color:#000000;stop-opacity:1;"
         offset="0"
         id="stop5346-3" />
      <stop
         style="stop-color:#000000;stop-opacity:0;"
         offset="1"
         id="stop5348-2" />
    </linearGradient>
    <linearGradient
       inkscape:collect="always"
       xlink:href="#linearGradient5344-2"
       id="linearGradient5153"
       gradientUnits="userSpaceOnUse"
       gradientTransform="matrix(2.1481476,0,0,2.2660452,-1072.5125,-1414.5136)"
       x1="504.64963"
       y1="667.4726"
       x2="503.15131"
       y2="654.14331" />
    <radialGradient
       inkscape:collect="always"
       xlink:href="#linearGradient5439-5"
       id="radialGradient5151"
       gradientUnits="userSpaceOnUse"
       gradientTransform="matrix(4.9397802,0,0,5.7128195,-2434.1566,-3693.5547)"
       cx="502.22336"
       cy="657.59094"
       fx="502.22336"
       fy="657.59094"
       r="5.6949959" />
    <linearGradient
       id="linearGradient5439-5">
      <stop
         style="stop-color:#ffffff;stop-opacity:1;"
         offset="0"
         id="stop5441-1" />
      <stop
         style="stop-color:#000000;stop-opacity:1;"
         offset="1"
         id="stop5443-8" />
    </linearGradient>
    <linearGradient
       inkscape:collect="always"
       xlink:href="#linearGradient5439-5"
       id="linearGradient5149"
       gradientUnits="userSpaceOnUse"
       gradientTransform="matrix(3.1132681,0.09494446,-0.09345971,3.0643206,-1468.494,-1984.6057)"
       x1="494.64386"
       y1="641.93042"
       x2="509.46909"
       y2="661.21436" />
    <linearGradient
       inkscape:collect="always"
       xlink:href="#linearGradient5439-5"
       id="linearGradient5147"
       gradientUnits="userSpaceOnUse"
       gradientTransform="matrix(2.2024173,0,0,2.2023236,-1059.2662,-1371.7938)"
       x1="523.76074"
       y1="673.95343"
       x2="490.40436"
       y2="648.80872" />
    <linearGradient
       inkscape:collect="always"
       xlink:href="#linearGradient7210-3"
       id="linearGradient5145"
       gradientUnits="userSpaceOnUse"
       gradientTransform="matrix(2.4865983,0,0,2.4864923,-1202.2427,-1557.6522)"
       x1="494.4577"
       y1="637.09772"
       x2="515.29169"
       y2="668.90833" />
    <linearGradient
       id="linearGradient7210-3">
      <stop
         id="stop7212-5"
         offset="0"
         style="stop-color:#798088;stop-opacity:1;" />
      <stop
         id="stop8994-7"
         offset="0.5"
         style="stop-color:#c0bfbb;stop-opacity:1;" />
      <stop
         id="stop7214-6"
         offset="1"
         style="stop-color:#798088;stop-opacity:1;" />
    </linearGradient>
    <linearGradient
       inkscape:collect="always"
       xlink:href="#linearGradient5362-8"
       id="linearGradient5143"
       gradientUnits="userSpaceOnUse"
       gradientTransform="matrix(2.1481476,0,0,2.2660452,-1072.5125,-1414.5136)"
       x1="508.48956"
       y1="642.86359"
       x2="506.59845"
       y2="653.34991" />
    <linearGradient
       id="linearGradient5362-8">
      <stop
         style="stop-color:#ffffff;stop-opacity:1;"
         offset="0"
         id="stop5364-9" />
      <stop
         style="stop-color:#ffffff;stop-opacity:0;"
         offset="1"
         id="stop5366-3" />
    </linearGradient>
    <linearGradient
       id="linearGradient5316-5">
      <stop
         style="stop-color:#c0bfbb;stop-opacity:1;"
         offset="0"
         id="stop5320-7" />
      <stop
         style="stop-color:#798088;stop-opacity:1;"
         offset="1"
         id="stop5322-4" />
    </linearGradient>
    <linearGradient
       y2="659.34265"
       x2="504.58081"
       y1="645.81702"
       x1="505.28644"
       gradientTransform="matrix(2.1481476,0,0,2.2660452,-1072.5125,-1414.5136)"
       gradientUnits="userSpaceOnUse"
       id="linearGradient3225"
       xlink:href="#linearGradient5316-5"
       inkscape:collect="always" />
  </defs>
  <sodipodi:namedview
     id="base"
     pagecolor="#ffffff"
     bordercolor="#666666"
     borderopacity="1.0"
     inkscape:pageopacity="0.0"
     inkscape:pageshadow="2"
     inkscape:zoom="2"
     inkscape:cx="67.00261"
     inkscape:cy="72.934761"
     inkscape:document-units="px"
     inkscape:current-layer="layer1"
     showgrid="false"
     inkscape:window-width="1024"
     inkscape:window-height="713"
     inkscape:window-x="0"
     inkscape:window-y="0"
     inkscape:window-maximized="0" />
  <metadata
     id="metadata52677">
    <rdf:RDF>
      <cc:Work
         rdf:about="">
        <dc:format>image/svg+xml</dc:format>
        <dc:type
           rdf:resource="http://purl.org/dc/dcmitype/StillImage" />
      </cc:Work>
    </rdf:RDF>
  </metadata>
  <g
     inkscape:label="Capa 1"
     inkscape:groupmode="layer"
     id="layer1">
    <g
       inkscape:export-ydpi="89.986237"
       inkscape:export-xdpi="89.986237"
       inkscape:export-filename="/home/dafeba/DCV/tallerD/elementos.png"
       transform="translate(424,80)"
       id="g58804">
      <rect
         style="opacity:1;fill:#f2f2f2;fill-opacity:1;stroke:none;stroke-width:0.1;stroke-linecap:round;stroke-linejoin:round;stroke-miterlimit:4;stroke-dasharray:none;stroke-opacity:0.30041151"
         id="rect58806"
         width="47.823223"
         height="48"
         x="301.18933"
         y="351.1709" />
      <path
         style="fill:url(#linearGradient58828);fill-rule:evenodd;stroke:none;stroke-width:1px;stroke-linecap:butt;stroke-linejoin:miter;stroke-opacity:1"
         d="M 313.09207,399.15115 L 301.20351,395.7431 L 336.08403,390.7653 L 349.00384,390.68796 L 349.03336,399.15114 L 313.09207,399.15115 z"
         id="path58808"
         sodipodi:nodetypes="cccccc" />
      <path
         style="fill:#f2f2f2;fill-rule:evenodd;stroke:none;stroke-width:0.5;stroke-linecap:round;stroke-linejoin:round;stroke-miterlimit:4;stroke-dasharray:none;stroke-opacity:1"
         d="M 301.48601,353.22699 C 305.08831,353.57311 306.6134,357.74996 306.61071,360.86425 L 306.56413,389.36485 C 306.59506,392.86249 308.42012,396.3398 313.14348,398.87602 L 346.05226,393.25994 C 342.15451,392.5412 339.36778,388.67929 339.39934,385.53974 L 339.4778,361.97786 C 339.51198,358.9412 337.51957,355.88584 333.82005,355.55785 L 301.48601,353.22699 z"
         id="path58810"
         sodipodi:nodetypes="ccccccccc" />
      <path
         sodipodi:nodetypes="ccccc"
         id="path58812"
         d="M 301.48601,353.22699 C 305.08831,353.57311 306.6134,357.74996 306.61071,360.86425 L 339.4778,361.97786 C 339.51198,358.9412 337.51957,355.88584 333.82005,355.55785 L 301.48601,353.22699 z"
         style="fill:url(#linearGradient58830);fill-rule:evenodd;stroke:none;stroke-width:0.5;stroke-linecap:round;stroke-linejoin:round;stroke-miterlimit:4;stroke-dasharray:none;stroke-opacity:1" />
      <path
         sodipodi:nodetypes="ccccc"
         id="path58814"
         d="M 306.56413,389.36485 C 306.59506,392.86249 308.42012,396.3398 313.14348,398.87602 L 346.05226,393.25994 C 342.15451,392.5412 339.36778,388.67929 339.39934,385.53974 L 306.56413,389.36485 z"
         style="fill:url(#linearGradient58832);fill-rule:evenodd;stroke:none;stroke-width:0.5;stroke-linecap:round;stroke-linejoin:round;stroke-miterlimit:4;stroke-dasharray:none;stroke-opacity:1" />
      <path
         sodipodi:nodetypes="ccccccccc"
         id="path58816"
         d="M 301.48601,353.22699 C 305.08831,353.57311 306.6134,357.74996 306.61071,360.86425 L 306.56413,389.36485 C 306.59506,392.86249 308.42012,396.3398 313.14348,398.87602 L 346.05226,393.25994 C 342.15451,392.5412 339.36778,388.67929 339.39934,385.53974 L 339.4778,361.97786 C 339.51198,358.9412 337.51957,355.88584 333.82005,355.55785 L 301.48601,353.22699 z"
         style="fill:none;fill-rule:evenodd;stroke:#000000;stroke-width:0.5;stroke-linecap:round;stroke-linejoin:round;stroke-miterlimit:4;stroke-dasharray:none;stroke-opacity:1" />
    </g>
    <path
       sodipodi:nodetypes="ccccc"
       id="path58818"
       d="M 740.12551,445.55112 L 757.25142,445.69471 L 757.28066,447.8612 L 740.12588,448.00172 L 740.12551,445.55112 z"
       style="fill:#000000;fill-rule:evenodd;stroke:none;stroke-width:1px;stroke-linecap:butt;stroke-linejoin:miter;stroke-opacity:1" />
    <path
       style="fill:#000000;fill-rule:evenodd;stroke:none;stroke-width:1px;stroke-linecap:butt;stroke-linejoin:miter;stroke-opacity:1"
       d="M 744.24688,449.98324 L 754.3118,449.81922 L 754.31233,452.041 L 744.12653,452.24935 L 744.24688,449.98324 z"
       id="path58820"
       sodipodi:nodetypes="ccccc" />
    <path
       sodipodi:nodetypes="ccccc"
       id="path58822"
       d="M 737.18797,454.68729 L 758.68836,453.88522 L 758.75025,455.99227 L 737.18522,457.06633 L 737.18797,454.68729 z"
       style="fill:#000000;fill-rule:evenodd;stroke:none;stroke-width:1px;stroke-linecap:butt;stroke-linejoin:miter;stroke-opacity:1" />
    <path
       style="fill:#000000;fill-rule:evenodd;stroke:none;stroke-width:1px;stroke-linecap:butt;stroke-linejoin:miter;stroke-opacity:1"
       d="M 747.11973,459.21937 L 751.38008,458.93979 L 751.25403,461.03473 L 746.94583,461.39831 L 747.11973,459.21937 z"
       id="path58824"
       sodipodi:nodetypes="ccccc" />
    <path
       sodipodi:nodetypes="ccccc"
       id="path58826"
       d="M 742.54569,464.13694 L 754.55952,462.8959 L 754.44101,465.07791 L 742.37806,466.57431 L 742.54569,464.13694 z"
       style="fill:#000000;fill-rule:evenodd;stroke:none;stroke-width:1px;stroke-linecap:butt;stroke-linejoin:miter;stroke-opacity:1" />
    <path
       inkscape:connector-curvature="0"
       sodipodi:nodetypes="cccczcccz"
       id="path5117"
       d="m 32.447791,67.680975 c 0,8.97484 1.059529,37.979585 -4.751392,38.888995 L 14.211912,86.531735 10.988923,85.947905 c -6.076941,-0.68565 -9.078555,-8.36933 -9.078555,-18.57489 0,-10.20556 3.032555,-18.13802 9.803705,-18.16575 l 3.037025,-0.12957 17.20523,-20.36623 c 6.351471,0.5152 0.491463,30.05454 0.491463,38.96951 z"
       style="fill:url(#linearGradient3225);fill-opacity:1;stroke:none;display:inline"
       inkscape:export-filename="/home/dafeba/DCV/tallerD/bocetos/08-09-22-hastaahora.png"
       inkscape:export-xdpi="57.964222"
       inkscape:export-ydpi="57.964222" />
    <path
       inkscape:export-ydpi="57.964222"
       inkscape:export-xdpi="57.964222"
       inkscape:export-filename="/home/dafeba/DCV/tallerD/bocetos/08-09-22-hastaahora.png"
       style="fill:url(#linearGradient5143);fill-opacity:1;stroke:none;display:inline"
       d="M 27.696399,106.56997 14.211912,86.531735 c -6.835387,-10.9184 -5.517306,-29.44235 0.539186,-37.45404 l 17.20523,-20.36623 c -7.668026,14.66382 -10.548367,63.35224 -4.259929,77.858505 z"
       id="path5119"
       sodipodi:nodetypes="ccccc"
       inkscape:connector-curvature="0" />
    <path
       inkscape:connector-curvature="0"
       inkscape:export-ydpi="57.964222"
       inkscape:export-xdpi="57.964222"
       inkscape:export-filename="/home/dafeba/DCV/tallerD/bocetos/08-09-22-hastaahora.png"
       sodipodi:nodetypes="cszsz"
       id="path5121"
       d="M 88.68199,68.198855 C 88.90012,95.957355 74.34492,114.6418 55.56429,117.743 34.99734,121.13916 16.31646,101.76156 16.31646,70.514905 c 0,-31.35865 19.37303,-53.29817 39.36158,-51.53113 17.53685,1.55027 32.7842,21.23679 33.00395,49.21508 z"
       style="fill:url(#linearGradient5145);fill-opacity:1;stroke:none;display:inline" />
    <path
       inkscape:export-ydpi="57.964222"
       inkscape:export-xdpi="57.964222"
       inkscape:export-filename="/home/dafeba/DCV/tallerD/bocetos/08-09-22-hastaahora.png"
       style="fill:url(#linearGradient5147);fill-opacity:1;stroke:none;display:inline"
       d="M 84.125472,68.247115 C 84.31845,92.833235 71.426972,109.38238 54.792376,112.12919 36.576035,115.1372 20.808768,97.974085 20.808768,70.298485 c 0,-27.77482 16.373259,-47.12582 34.084513,-45.64193 16.388356,1.37311 29.037608,18.80981 29.232191,43.59056 z"
       id="path5123"
       sodipodi:nodetypes="cszsz"
       inkscape:connector-curvature="0" />
    <path
       inkscape:export-ydpi="57.964222"
       inkscape:export-xdpi="57.964222"
       inkscape:export-filename="/home/dafeba/DCV/tallerD/bocetos/08-09-22-hastaahora.png"
       sodipodi:nodetypes="cszsz"
       id="path5125"
       d="m 61.27117,68.143615 c -0.403085,13.21812 -8.715832,26.36697 -17.928695,27.42661 -10.970938,1.26179 -19.713186,-11.11711 -19.223971,-27.15679 0.491891,-16.12795 9.600342,-28.26633 20.532523,-27.2113 9.318318,0.90846 17.020551,13.81163 16.620143,26.94148 z"
       style="fill:url(#linearGradient5149);fill-opacity:1;stroke:none;display:inline"
       inkscape:connector-curvature="0" />
    <path
       inkscape:export-ydpi="57.964222"
       inkscape:export-xdpi="57.964222"
       inkscape:export-filename="/home/dafeba/DCV/tallerD/bocetos/08-09-22-hastaahora.png"
       style="fill:url(#radialGradient5151);fill-opacity:1;stroke:none;display:inline"
       d="m 59.761878,68.526755 c -0.340186,11.3805 -7.46536,22.58106 -15.237718,23.49338 -9.255152,1.08637 -16.630314,-9.5716 -16.217621,-23.38134 0.414995,-13.88567 8.107807,-24.42343 17.321687,-23.42814 8.438009,0.91674 14.471429,12.01162 14.133652,23.3161 z"
       id="path5127"
       sodipodi:nodetypes="cszsz"
       inkscape:connector-curvature="0" />
    <path
       inkscape:connector-curvature="0"
       inkscape:export-ydpi="57.964222"
       inkscape:export-xdpi="57.964222"
       inkscape:export-filename="/home/dafeba/DCV/tallerD/bocetos/08-09-22-hastaahora.png"
       style="fill:url(#linearGradient5153);fill-opacity:1;stroke:none;display:inline"
       d="m 14.211912,86.531735 -3.222989,-0.58383 c -6.076941,-0.68565 -9.078555,-8.36933 -9.078555,-18.57489 0,-10.20556 3.032555,-18.13802 9.803705,-18.16575 l 3.037025,-0.12957 c -5.985109,8.19096 -7.501092,26.65568 -0.539186,37.45404 z"
       id="path5129"
       sodipodi:nodetypes="cczccc" />
    <path
       sodipodi:nodetypes="cszsz"
       id="path5131"
       d="m 59.761878,68.526755 c -0.340186,11.3805 -7.46536,22.58106 -15.237718,23.49338 -9.255152,1.08637 -16.630314,-9.5716 -16.217621,-23.38134 0.414995,-13.88567 8.107807,-24.42343 17.321687,-23.42814 8.438009,0.91674 14.471429,12.01162 14.133652,23.3161 z"
       style="fill:url(#linearGradient5155);fill-opacity:1;stroke:none;display:inline"
       inkscape:export-filename="/home/dafeba/DCV/tallerD/bocetos/08-09-22-hastaahora.png"
       inkscape:export-xdpi="57.964222"
       inkscape:export-ydpi="57.964222"
       inkscape:connector-curvature="0" />
    <path
       inkscape:connector-curvature="0"
       inkscape:export-ydpi="57.964222"
       inkscape:export-xdpi="57.964222"
       inkscape:export-filename="/home/dafeba/DCV/tallerD/bocetos/08-09-22-hastaahora.png"
       style="fill:none;stroke:url(#linearGradient5157);stroke-width:2.67700005;stroke-linecap:round;stroke-linejoin:round;stroke-miterlimit:4;stroke-opacity:1;stroke-dasharray:none;display:inline"
       d="m 51.964093,18.919135 c -9.919144,0.57029 -19.395725,6.82187 -26.076247,17.01297 l -11.824213,13.1658 -2.368108,0.0855 c -6.771151,0.0277 -9.746562,8.00424 -9.746535,18.20983 0,10.20556 2.985555,17.86614 9.062549,18.55182 l 2.483199,0.62801 10.084714,13.905675 c 1.244209,2.16646 2.607469,4.18598 4.103779,5.98449 l 0,0.0855 c 7.28622,8.72697 17.347702,12.93726 27.871687,11.19945 18.780793,-3.10118 33.30495,-21.826955 33.086894,-49.585505 -0.219769,-27.97826 -15.464393,-47.6078 -33.001406,-49.15805 -1.249267,-0.11046 -2.43644,-0.15679 -3.676313,-0.0855 z"
       id="path5133"
       sodipodi:nodetypes="ccccscccccsssc" />
  </g>
</svg>
