<?xml version="1.0" encoding="UTF-8" standalone="no"?>
<!-- Created with Inkscape (http://www.inkscape.org/) -->

<svg
   xmlns:dc="http://purl.org/dc/elements/1.1/"
   xmlns:cc="http://creativecommons.org/ns#"
   xmlns:rdf="http://www.w3.org/1999/02/22-rdf-syntax-ns#"
   xmlns:svg="http://www.w3.org/2000/svg"
   xmlns="http://www.w3.org/2000/svg"
   xmlns:xlink="http://www.w3.org/1999/xlink"
   xmlns:sodipodi="http://sodipodi.sourceforge.net/DTD/sodipodi-0.dtd"
   xmlns:inkscape="http://www.inkscape.org/namespaces/inkscape"
   width="128"
   height="128"
   id="svg2"
   sodipodi:version="0.32"
   inkscape:version="0.48.3.1 r9886"
   version="1.0"
   sodipodi:docname="zoom-in.svg"
   inkscape:output_extension="org.inkscape.output.svg.inkscape">
  <defs
     id="defs4">
    <linearGradient
       gradientTransform="matrix(2.6666667,0,0,2.6666667,-1293.8937,-2496.5029)"
       y2="962.34821"
       x2="501.80923"
       y1="923.1084"
       x1="477.42725"
       gradientUnits="userSpaceOnUse"
       id="linearGradient13696"
       xlink:href="#linearGradient12594"
       inkscape:collect="always" />
    <linearGradient
       gradientTransform="matrix(2.6666667,0,0,2.6666667,-1293.8937,-2496.5029)"
       y2="976.41351"
       x2="480.69382"
       y1="941.33264"
       x1="489.50848"
       gradientUnits="userSpaceOnUse"
       id="linearGradient13698"
       xlink:href="#linearGradient5439"
       inkscape:collect="always" />
    <linearGradient
       gradientTransform="matrix(2.6666667,0,0,2.6666667,-1293.8937,-2496.5029)"
       y2="974.45569"
       x2="517.47424"
       y1="971.45569"
       x1="519.5"
       gradientUnits="userSpaceOnUse"
       id="linearGradient13700"
       xlink:href="#linearGradient5316"
       inkscape:collect="always" />
    <linearGradient
       gradientTransform="matrix(2.6666667,0,0,2.6666667,-1293.8937,-2496.5029)"
       y2="968.36829"
       x2="507.65265"
       y1="962.74329"
       x1="510.59622"
       gradientUnits="userSpaceOnUse"
       id="linearGradient13702"
       xlink:href="#linearGradient5316"
       inkscape:collect="always" />
    <linearGradient
       gradientTransform="matrix(2.6666667,0,0,2.6666667,-1293.8937,-2496.5029)"
       y2="997.98248"
       x2="525.53125"
       y1="933.60748"
       x1="486.1875"
       gradientUnits="userSpaceOnUse"
       id="linearGradient13704"
       xlink:href="#linearGradient5439"
       inkscape:collect="always" />
    <linearGradient
       gradientTransform="matrix(2.6666667,0,0,2.6666667,-1293.8937,-2496.5029)"
       y2="932.31763"
       x2="500.875"
       y1="966.38013"
       x1="504.125"
       gradientUnits="userSpaceOnUse"
       id="linearGradient13706"
       xlink:href="#linearGradient5439"
       inkscape:collect="always" />
    <linearGradient
       gradientUnits="userSpaceOnUse"
       y2="291.54657"
       x2="270.47424"
       y1="336.29907"
       x1="270.47424"
       id="linearGradient10584"
       xlink:href="#linearGradient9863"
       inkscape:collect="always"
       gradientTransform="matrix(2.6666667,0,0,2.6666667,-653.89374,-771.83628)" />
    <linearGradient
       y2="969.80762"
       x2="506.01498"
       y1="919.05762"
       x1="544.89001"
       gradientTransform="matrix(2.6666667,0,0,2.6666667,-1294.3304,-2502.6162)"
       gradientUnits="userSpaceOnUse"
       id="linearGradient13710"
       xlink:href="#linearGradient5344"
       inkscape:collect="always" />
    <linearGradient
       gradientUnits="userSpaceOnUse"
       y2="290.17874"
       x2="271.01901"
       y1="337.45905"
       x1="271.01901"
       id="linearGradient10588"
       xlink:href="#linearGradient9863"
       inkscape:collect="always"
       gradientTransform="matrix(2.6666667,0,0,2.6666667,-653.89374,-771.83628)" />
    <linearGradient
       y2="392.2674"
       x2="708.78247"
       y1="380.53372"
       x1="700.13062"
       gradientTransform="matrix(2.6666667,0,0,2.6666667,-1774.3218,-990.16961)"
       gradientUnits="userSpaceOnUse"
       id="linearGradient13678"
       xlink:href="#linearGradient8702"
       inkscape:collect="always" />
    <linearGradient
       id="linearGradient12594">
      <stop
         id="stop12596"
         offset="0"
         style="stop-color:#e9b551;stop-opacity:1;" />
      <stop
         id="stop12598"
         offset="1"
         style="stop-color:#e9b551;stop-opacity:0;" />
    </linearGradient>
    <linearGradient
       id="linearGradient5316">
      <stop
         style="stop-color:#c0bfbb;stop-opacity:1;"
         offset="0"
         id="stop5320" />
      <stop
         style="stop-color:#798088;stop-opacity:1;"
         offset="1"
         id="stop5322" />
    </linearGradient>
    <linearGradient
       id="linearGradient9863">
      <stop
         style="stop-color:#2f445a;stop-opacity:1;"
         offset="0"
         id="stop9865" />
      <stop
         style="stop-color:#415f7c;stop-opacity:1"
         offset="1"
         id="stop9867" />
    </linearGradient>
    <linearGradient
       id="linearGradient5439">
      <stop
         style="stop-color:#ffffff;stop-opacity:1;"
         offset="0"
         id="stop5441" />
      <stop
         style="stop-color:#000000;stop-opacity:1;"
         offset="1"
         id="stop5443" />
    </linearGradient>
    <linearGradient
       id="linearGradient5344">
      <stop
         style="stop-color:#000000;stop-opacity:1;"
         offset="0"
         id="stop5346" />
      <stop
         style="stop-color:#000000;stop-opacity:0;"
         offset="1"
         id="stop5348" />
    </linearGradient>
    <linearGradient
       id="linearGradient8702">
      <stop
         id="stop8704"
         offset="0"
         style="stop-color:#c0bfbb;stop-opacity:1;" />
      <stop
         id="stop8706"
         offset="1"
         style="stop-color:#798088;stop-opacity:1;" />
    </linearGradient>
    <linearGradient
       gradientTransform="translate(-2.6930237e-8,-4.1955275e-6)"
       inkscape:collect="always"
       xlink:href="#linearGradient12336-5"
       id="linearGradient3056"
       x1="63.026638"
       y1="12.190577"
       x2="123.49031"
       y2="34.234055"
       gradientUnits="userSpaceOnUse" />
    <linearGradient
       id="linearGradient12336-5">
      <stop
         id="stop12338-3"
         offset="0"
         style="stop-color:#aac736;stop-opacity:1;" />
      <stop
         id="stop12340-6"
         offset="1"
         style="stop-color:#5d8b2c;stop-opacity:1;" />
    </linearGradient>
    <linearGradient
       id="linearGradient9863-5">
      <stop
         style="stop-color:#2f445a;stop-opacity:1;"
         offset="0"
         id="stop9865-7" />
      <stop
         style="stop-color:#415f7c;stop-opacity:1"
         offset="1"
         id="stop9867-1" />
    </linearGradient>
    <linearGradient
       y2="291.54657"
       x2="270.47424"
       y1="336.29907"
       x1="270.47424"
       gradientTransform="matrix(2.6666667,0,0,2.6666667,-653.89374,-771.83628)"
       gradientUnits="userSpaceOnUse"
       id="linearGradient3081"
       xlink:href="#linearGradient9863-5"
       inkscape:collect="always" />
  </defs>
  <sodipodi:namedview
     id="base"
     pagecolor="#ffffff"
     bordercolor="#666666"
     borderopacity="1.0"
     inkscape:pageopacity="0.0"
     inkscape:pageshadow="2"
     inkscape:zoom="1.7692308"
     inkscape:cx="212.13464"
     inkscape:cy="21.294468"
     inkscape:document-units="px"
     inkscape:current-layer="layer1"
     showgrid="false"
     inkscape:showpageshadow="false"
     inkscape:window-width="1024"
     inkscape:window-height="713"
     inkscape:window-x="0"
     inkscape:window-y="0"
     showguides="true"
     inkscape:guide-bbox="true"
     inkscape:window-maximized="0" />
  <metadata
     id="metadata7">
    <rdf:RDF>
      <cc:Work
         rdf:about="">
        <dc:format>image/svg+xml</dc:format>
        <dc:type
           rdf:resource="http://purl.org/dc/dcmitype/StillImage" />
      </cc:Work>
    </rdf:RDF>
  </metadata>
  <g
     inkscape:label="Capa 1"
     inkscape:groupmode="layer"
     id="layer1">
    <path
       inkscape:export-ydpi="57.964222"
       inkscape:export-xdpi="57.964222"
       inkscape:export-filename="/home/dafeba/DCV/tallerD/bocetos/08-09-22-hastaahora.png"
       style="fill:url(#linearGradient13698);fill-opacity:1;stroke:none;stroke-width:0.5;stroke-linecap:round;stroke-linejoin:round;stroke-miterlimit:4;stroke-dashoffset:0;stroke-opacity:1;display:inline"
       d="M 13.821642,49.765974 C 13.821642,71.259654 25.146815,84.78496 36.318042,91.148934 C 34.529935,91.148934 25.580255,89.44768 23.935589,88.9592 C 12.007882,85.41672 4.1177486,69.65512 4.1177486,50.765974 C 4.1177486,31.14888 12.627695,14.905094 25.332309,12.218134 C 26.547642,11.961094 35.668149,10.717387 36.956495,10.717387 C 26.728095,15.54928 13.821642,28.272267 13.821642,49.765974 z"
       id="path13684"
       sodipodi:nodetypes="ccssscc" />
    <path
       inkscape:export-ydpi="57.964222"
       inkscape:export-xdpi="57.964222"
       inkscape:export-filename="/home/dafeba/DCV/tallerD/bocetos/08-09-22-hastaahora.png"
       style="fill:url(#linearGradient13700);fill-rule:evenodd;stroke:none;stroke-width:0.5;stroke-linecap:butt;stroke-linejoin:miter;stroke-miterlimit:4;stroke-dasharray:none;stroke-opacity:1;display:inline"
       d="M 51.439615,75.46288 L 104.10628,119.79621 C 110.73873,123.856 116.64487,111.99296 112.10628,107.12955 L 57.772948,61.46288 L 51.439615,75.46288 z"
       id="path13686"
       sodipodi:nodetypes="ccccc" />
    <path
       inkscape:export-ydpi="57.964222"
       inkscape:export-xdpi="57.964222"
       inkscape:export-filename="/home/dafeba/DCV/tallerD/bocetos/08-09-22-hastaahora.png"
       sodipodi:nodetypes="ccccc"
       id="path13688"
       d="M 51.029535,80.058134 L 59.483668,86.829307 C 68.181962,93.164934 78.336389,75.279414 70.980575,68.621947 L 60.509935,58.792694 L 51.029535,80.058134 z"
       style="fill:url(#linearGradient13702);fill-rule:evenodd;stroke:none;stroke-width:0.5;stroke-linecap:butt;stroke-linejoin:miter;stroke-miterlimit:4;stroke-dasharray:none;stroke-opacity:1;display:inline" />
    <path
       inkscape:export-ydpi="57.964222"
       inkscape:export-xdpi="57.964222"
       inkscape:export-filename="/home/dafeba/DCV/tallerD/bocetos/08-09-22-hastaahora.png"
       style="fill:url(#linearGradient13704);fill-opacity:1;stroke:none;stroke-width:0.50000006;stroke-linecap:round;stroke-linejoin:round;stroke-miterlimit:4;stroke-dashoffset:0;stroke-opacity:1;display:inline"
       d="M 36.439615,10.663734 C 22.558042,11.697654 11.606282,30.231654 11.606282,50.913734 C 11.606282,72.974507 24.001162,92.785627 39.022949,90.8304 C 53.104842,88.99752 64.189642,73.30776 64.189615,51.247067 C 64.189615,29.186214 53.786948,12.05584 39.272949,10.663734 C 38.324149,10.57272 37.365055,10.5948 36.439615,10.663734 z M 37.439615,15.913734 C 38.215695,15.854427 38.977295,15.835414 39.772949,15.913734 C 51.944495,17.111707 60.606282,31.84672 60.606282,50.8304 C 60.606282,69.813974 51.415455,83.33648 39.606282,84.913734 C 27.008975,86.596187 16.522949,69.564027 16.522949,50.5804 C 16.522949,32.783147 25.798442,16.803467 37.439615,15.913734 z"
       id="path13690" />
    <path
       inkscape:export-ydpi="57.964222"
       inkscape:export-xdpi="57.964222"
       inkscape:export-filename="/home/dafeba/DCV/tallerD/bocetos/08-09-22-hastaahora.png"
       style="fill:url(#linearGradient13706);fill-opacity:1;stroke:none;stroke-width:0.50000006;stroke-linecap:round;stroke-linejoin:round;stroke-miterlimit:4;stroke-dashoffset:0;stroke-opacity:1;display:inline"
       d="M 43.022949,16.663734 C 51.368548,21.680987 56.856282,33.961627 56.856282,48.997067 C 56.856282,67.891067 47.609108,81.34392 35.856282,82.913734 C 33.685642,83.203654 31.604255,82.90672 29.606282,82.163734 C 32.632789,84.30704 36.045189,85.389334 39.606282,84.913734 C 51.415455,83.33648 60.606282,69.813974 60.606282,50.8304 C 60.606282,33.584747 53.463855,19.930774 43.022949,16.663734 z"
       id="path13692" />
    <path
       style="fill:url(#linearGradient13710);fill-opacity:1;fill-rule:evenodd;stroke:none;stroke-width:1;stroke-linecap:round;stroke-linejoin:miter;stroke-miterlimit:4;stroke-dasharray:none;stroke-opacity:1;display:inline"
       d="M 85.317935,11.970374 C 82.861749,12.246 81.014842,14.3392 81.047162,16.810587 L 81.047162,37.87976 L 59.883082,37.87976 C 57.209908,37.87976 55.042868,40.0468 55.042868,42.719974 C 55.042868,45.39312 57.209908,47.560187 59.883082,47.560187 L 81.047162,47.560187 L 81.047162,68.62936 C 80.906602,70.430854 81.784015,72.146134 83.324895,73.089947 C 84.865855,74.033707 86.814015,74.033734 88.354922,73.089947 C 89.895775,72.146107 90.773242,70.430854 90.632682,68.62936 L 90.632682,47.560187 L 111.79676,47.560187 C 114.46993,47.560187 116.63697,45.39312 116.63697,42.719974 C 116.63697,40.0468 114.46993,37.87976 111.79676,37.87976 L 90.632682,37.87976 L 90.632682,16.810587 C 90.649775,15.436907 90.034975,14.129147 89.019269,13.204134 C 88.003589,12.279147 86.684042,11.825254 85.317935,11.970374 z"
       id="path13708"
       inkscape:export-filename="/home/dafeba/DCV/tallerD/bocetos/08-09-22-hastaahora.png"
       inkscape:export-xdpi="57.964222"
       inkscape:export-ydpi="57.964222" />
    <path
       inkscape:export-ydpi="57.964222"
       inkscape:export-xdpi="57.964222"
       inkscape:export-filename="/home/dafeba/DCV/tallerD/bocetos/08-09-22-hastaahora.png"
       id="path13666"
       d="M 92.171269,3.3336542 C 89.715082,3.6092802 87.868175,5.7024802 87.900495,8.1738672 L 87.900495,29.24304 L 66.736415,29.24304 C 64.063242,29.24304 61.896202,31.41008 61.896202,34.083254 C 61.896202,36.7564 64.063242,38.923467 66.736415,38.923467 L 87.900495,38.923467 L 87.900495,59.99264 C 87.759935,61.794134 88.637349,63.509414 90.178229,64.453227 C 91.719189,65.396987 93.667349,65.397014 95.208255,64.453227 C 96.749109,63.509387 97.626575,61.794134 97.486015,59.99264 L 97.486015,38.923467 L 118.65009,38.923467 C 121.32327,38.923467 123.49031,36.7564 123.49031,34.083254 C 123.49031,31.41008 121.32327,29.24304 118.65009,29.24304 L 97.486015,29.24304 L 97.486015,8.1738672 C 97.503109,6.8001872 96.888309,5.4924272 95.872602,4.5674142 C 94.856922,3.6424272 93.537375,3.1885342 92.171269,3.3336542 z"
       style="fill:#c2e3ff;fill-opacity:1;fill-rule:evenodd;stroke:url(#linearGradient10588);stroke-width:2.66666675;stroke-linecap:round;stroke-linejoin:miter;stroke-miterlimit:4;stroke-dasharray:none;stroke-opacity:1;display:inline" />
    <path
       inkscape:connector-curvature="0"
       inkscape:export-ydpi="57.964222"
       inkscape:export-xdpi="57.964222"
       inkscape:export-filename="/home/dafeba/DCV/tallerD/bocetos/08-09-22-hastaahora.png"
       style="fill:url(#linearGradient3056);fill-opacity:1;fill-rule:evenodd;stroke:none;display:inline"
       d="m 92.171269,3.33365 c -2.456187,0.275626 -4.303094,2.368826 -4.270774,4.840213 l 0,21.069173 -21.16408,0 c -2.673173,0 -4.840213,2.16704 -4.840213,4.840214 0,2.673146 2.16704,4.840213 4.840213,4.840213 l 21.16408,0 0,21.069173 c -0.14056,1.801494 0.736854,3.516774 2.277734,4.460587 1.54096,0.94376 3.48912,0.943787 5.030026,0 1.540854,-0.94384 2.41832,-2.659093 2.27776,-4.460587 l 0,-21.069173 21.164075,0 c 2.67318,0 4.84022,-2.167067 4.84022,-4.840213 0,-2.673174 -2.16704,-4.840214 -4.84022,-4.840214 l -21.164075,0 0,-21.069173 C 97.503105,6.800183 96.888309,5.492423 95.872602,4.56741 94.856922,3.642423 93.537375,3.18853 92.171269,3.33365 z"
       id="path13668" />
    <path
       inkscape:connector-curvature="0"
       style="fill:none;stroke:url(#linearGradient3081);stroke-width:2.66666675;stroke-linecap:round;stroke-linejoin:round;stroke-miterlimit:4;stroke-opacity:1;stroke-dasharray:none;stroke-dashoffset:0;display:inline"
       d="m 37.84375,10.593746 c -0.474053,0.0028 -0.94353,0.02805 -1.40625,0.0625 -0.7268,0.05413 -1.44665,0.195883 -2.15625,0.34375 -0.13744,0.02864 -0.300753,0.0617 -0.4375,0.09375 -3.18512,0.369147 -7.606107,0.967237 -8.5,1.15625 -12.704613,2.68696 -21.25,18.882933 -21.25,38.5 0,18.889147 7.916017,34.707573 19.84375,38.25 1.644667,0.48848 10.618143,2.15625 12.40625,2.15625 -0.1648,-0.09389 -0.335147,-0.215486 -0.5,-0.3125 1.05152,0.07784 2.105046,0.14088 3.1875,0 5.633306,-0.733226 10.749957,-3.748434 14.90625,-8.4375 l 5.59375,4.4375 c 2.11432,1.540027 4.2985,1.62554 6.3125,0.8125 l 38.25,32.187504 c 6.63245,4.05979 12.53859,-7.82408 8,-12.6875 L 73.4375,74.656246 c -0.05355,-2.320054 -0.78728,-4.512393 -2.5,-6.0625 l -7.59375,-7.09375 c 0.555893,-3.229893 0.84375,-6.64776 0.84375,-10.25 0,-22.060853 -10.392251,-39.201644 -24.90625,-40.59375 -0.4744,-0.04552 -0.963447,-0.06527 -1.4375,-0.0625 z m 1.46875,5.1875 c 0.392824,0.0058 0.791566,0.05478 1.1875,0.09375 12.113467,1.192293 16.375,14.23092 16.375,33.125 0,18.894053 -9.215923,32.367686 -20.96875,33.9375 -12.537306,1.674506 -19.3125,-14.543393 -19.3125,-33.4375 0,-18.30364 10.541215,-33.897112 22.71875,-33.71875 z"
       id="path13694" />
  </g>
</svg>
