<?xml version="1.0" encoding="UTF-8" standalone="no"?>
<!-- Created with Inkscape (http://www.inkscape.org/) -->

<svg
   xmlns:dc="http://purl.org/dc/elements/1.1/"
   xmlns:cc="http://creativecommons.org/ns#"
   xmlns:rdf="http://www.w3.org/1999/02/22-rdf-syntax-ns#"
   xmlns:svg="http://www.w3.org/2000/svg"
   xmlns="http://www.w3.org/2000/svg"
   xmlns:xlink="http://www.w3.org/1999/xlink"
   xmlns:sodipodi="http://sodipodi.sourceforge.net/DTD/sodipodi-0.dtd"
   xmlns:inkscape="http://www.inkscape.org/namespaces/inkscape"
   width="128"
   height="128"
   id="svg52672"
   sodipodi:version="0.32"
   inkscape:version="0.48.3.1 r9886"
   version="1.0"
   sodipodi:docname="redhat-games.svg"
   inkscape:output_extension="org.inkscape.output.svg.inkscape">
  <defs
     id="defs52674">
    <linearGradient
       inkscape:collect="always"
       xlink:href="#linearGradient9863"
       id="linearGradient10531"
       x1="529.84375"
       y1="986.14581"
       x2="529.84375"
       y2="944.4375"
       gradientUnits="userSpaceOnUse"
       gradientTransform="matrix(2.8480457,0,0,2.8480457,-1439.7458,-2685.2638)" />
    <linearGradient
       inkscape:collect="always"
       xlink:href="#linearGradient5316"
       id="linearGradient10417"
       x1="500.57245"
       y1="974.04547"
       x2="514.35596"
       y2="977.04547"
       gradientUnits="userSpaceOnUse"
       gradientTransform="matrix(2.8480457,0,0,2.8480457,-1382.7849,-2685.7978)" />
    <linearGradient
       inkscape:collect="always"
       xlink:href="#linearGradient5344"
       id="linearGradient10533"
       x1="505.96286"
       y1="972.7179"
       x2="508.1875"
       y2="978.34192"
       gradientUnits="userSpaceOnUse" />
    <linearGradient
       inkscape:collect="always"
       xlink:href="#linearGradient5439"
       id="linearGradient10447"
       x1="502.66058"
       y1="971.21332"
       x2="520.07703"
       y2="971.33832"
       gradientUnits="userSpaceOnUse"
       gradientTransform="matrix(2.8480457,0,0,2.8480457,-1382.7849,-2685.7978)" />
    <linearGradient
       inkscape:collect="always"
       xlink:href="#linearGradient5439"
       id="linearGradient10449"
       x1="514.28558"
       y1="969.8905"
       x2="499.72308"
       y2="959.7655"
       gradientUnits="userSpaceOnUse"
       gradientTransform="matrix(2.8480457,0,0,2.8480457,-1382.7849,-2684.2244)" />
    <linearGradient
       inkscape:collect="always"
       xlink:href="#linearGradient5439"
       id="linearGradient10445"
       x1="506.49796"
       y1="961.93228"
       x2="519.68951"
       y2="959.74481"
       gradientUnits="userSpaceOnUse"
       gradientTransform="matrix(2.8480457,0,0,2.8480457,-1382.7849,-2685.7978)" />
    <linearGradient
       inkscape:collect="always"
       xlink:href="#linearGradient5439"
       id="linearGradient10451"
       x1="500.59207"
       y1="945.4798"
       x2="514.125"
       y2="958.36218"
       gradientUnits="userSpaceOnUse" />
    <linearGradient
       inkscape:collect="always"
       xlink:href="#linearGradient5362"
       id="linearGradient10453"
       x1="502.625"
       y1="948.06799"
       x2="511.73331"
       y2="956.19971"
       gradientUnits="userSpaceOnUse" />
    <linearGradient
       inkscape:collect="always"
       xlink:href="#linearGradient5439"
       id="linearGradient10463"
       x1="493.60324"
       y1="975.55829"
       x2="500.74399"
       y2="975.55829"
       gradientUnits="userSpaceOnUse"
       gradientTransform="matrix(2.5071888,0,0,3.3151473,-1220.8198,-3142.6089)" />
    <linearGradient
       inkscape:collect="always"
       xlink:href="#linearGradient5439"
       id="linearGradient10461"
       x1="493.59659"
       y1="975.55829"
       x2="501.69333"
       y2="975.55829"
       gradientUnits="userSpaceOnUse"
       gradientTransform="matrix(2.6475417,0,0,3.5007303,-1262.4324,-3317.9485)" />
    <linearGradient
       inkscape:collect="always"
       xlink:href="#linearGradient5316"
       id="linearGradient10432"
       x1="511.93539"
       y1="980.66925"
       x2="480.09647"
       y2="979.79425"
       gradientUnits="userSpaceOnUse"
       gradientTransform="matrix(2.8480457,0,0,2.8480457,-1382.7849,-2685.7978)" />
    <linearGradient
       inkscape:collect="always"
       xlink:href="#linearGradient5316"
       id="linearGradient10429"
       x1="502.77698"
       y1="977.26727"
       x2="512.01746"
       y2="981.01727"
       gradientUnits="userSpaceOnUse"
       gradientTransform="matrix(2.8480457,0,0,2.8480457,-1382.7849,-2685.7978)" />
    <linearGradient
       inkscape:collect="always"
       xlink:href="#linearGradient5362"
       id="linearGradient10440"
       x1="485.18539"
       y1="980.04425"
       x2="502.22147"
       y2="980.66925"
       gradientUnits="userSpaceOnUse"
       gradientTransform="matrix(2.8480457,0,0,2.8480457,-1382.7849,-2685.7978)" />
    <linearGradient
       inkscape:collect="always"
       xlink:href="#linearGradient5344"
       id="linearGradient10443"
       x1="544"
       y1="977.01727"
       x2="503.90198"
       y2="981.86218"
       gradientUnits="userSpaceOnUse"
       gradientTransform="matrix(2.8480457,0,0,2.8480457,-1382.7849,-2685.7978)" />
    <linearGradient
       inkscape:collect="always"
       xlink:href="#linearGradient12336"
       id="linearGradient10457"
       x1="497.47302"
       y1="975.71014"
       x2="500.86392"
       y2="975.29254"
       gradientUnits="userSpaceOnUse" />
    <linearGradient
       inkscape:collect="always"
       xlink:href="#linearGradient12336"
       id="linearGradient10455"
       x1="497.84039"
       y1="975.55829"
       x2="500.07587"
       y2="975.03357"
       gradientUnits="userSpaceOnUse" />
    <linearGradient
       id="linearGradient9863">
      <stop
         style="stop-color:#2f445a;stop-opacity:1;"
         offset="0"
         id="stop9865" />
      <stop
         style="stop-color:#415f7c;stop-opacity:1"
         offset="1"
         id="stop9867" />
    </linearGradient>
    <linearGradient
       inkscape:collect="always"
       xlink:href="#linearGradient5344"
       id="linearGradient58832"
       gradientUnits="userSpaceOnUse"
       gradientTransform="translate(-184,-280)"
       x1="519.31262"
       y1="723.67017"
       x2="511.42725"
       y2="667.20789" />
    <linearGradient
       inkscape:collect="always"
       xlink:href="#linearGradient5362"
       id="linearGradient58830"
       gradientUnits="userSpaceOnUse"
       gradientTransform="translate(-184,-280)"
       x1="504.91962"
       y1="635.44617"
       x2="504.48212"
       y2="641.10242" />
    <linearGradient
       inkscape:collect="always"
       xlink:href="#linearGradient5451"
       id="linearGradient58828"
       gradientUnits="userSpaceOnUse"
       gradientTransform="translate(-184,-280)"
       x1="484.70901"
       y1="674.9306"
       x2="533.03339"
       y2="674.9306" />
    <linearGradient
       id="linearGradient12336">
      <stop
         id="stop12338"
         offset="0"
         style="stop-color:#ff6e00;stop-opacity:1;" />
      <stop
         id="stop12340"
         offset="1"
         style="stop-color:#eb2600;stop-opacity:1;" />
    </linearGradient>
    <linearGradient
       id="linearGradient5316">
      <stop
         style="stop-color:#ff6e00;stop-opacity:1;"
         offset="0"
         id="stop5320" />
      <stop
         style="stop-color:#eb2600;stop-opacity:1;"
         offset="1"
         id="stop5322" />
    </linearGradient>
    <linearGradient
       id="linearGradient5451">
      <stop
         style="stop-color:#000000;stop-opacity:0.35099337;"
         offset="0"
         id="stop5453" />
      <stop
         id="stop5459"
         offset="0.45549738"
         style="stop-color:#000000;stop-opacity:0.29139072;" />
      <stop
         style="stop-color:#000000;stop-opacity:0;"
         offset="1"
         id="stop5455" />
    </linearGradient>
    <linearGradient
       id="linearGradient5439">
      <stop
         style="stop-color:#ffffff;stop-opacity:1;"
         offset="0"
         id="stop5441" />
      <stop
         style="stop-color:#000000;stop-opacity:1;"
         offset="1"
         id="stop5443" />
    </linearGradient>
    <linearGradient
       id="linearGradient5362">
      <stop
         style="stop-color:#ffffff;stop-opacity:1;"
         offset="0"
         id="stop5364" />
      <stop
         style="stop-color:#ffffff;stop-opacity:0;"
         offset="1"
         id="stop5366" />
    </linearGradient>
    <linearGradient
       id="linearGradient5344">
      <stop
         style="stop-color:#000000;stop-opacity:1;"
         offset="0"
         id="stop5346" />
      <stop
         style="stop-color:#000000;stop-opacity:0;"
         offset="1"
         id="stop5348" />
    </linearGradient>
    <linearGradient
       inkscape:collect="always"
       xlink:href="#linearGradient5439-1"
       id="linearGradient10455-6"
       x1="497.84039"
       y1="975.55829"
       x2="506.48581"
       y2="974.02362"
       gradientUnits="userSpaceOnUse" />
    <linearGradient
       id="linearGradient5439-1">
      <stop
         style="stop-color:#ffffff;stop-opacity:1;"
         offset="0"
         id="stop5441-0" />
      <stop
         style="stop-color:#000000;stop-opacity:1;"
         offset="1"
         id="stop5443-1" />
    </linearGradient>
    <linearGradient
       inkscape:collect="always"
       xlink:href="#linearGradient5439-1"
       id="linearGradient10457-9"
       x1="497.47302"
       y1="975.71014"
       x2="507.49167"
       y2="974.54602"
       gradientUnits="userSpaceOnUse" />
    <linearGradient
       inkscape:collect="always"
       xlink:href="#linearGradient5344-0"
       id="linearGradient10443-6"
       x1="544"
       y1="977.01727"
       x2="503.90198"
       y2="981.86218"
       gradientUnits="userSpaceOnUse"
       gradientTransform="matrix(2.8480457,0,0,2.8480457,-1382.7849,-2685.7978)" />
    <linearGradient
       id="linearGradient5344-0">
      <stop
         style="stop-color:#000000;stop-opacity:1;"
         offset="0"
         id="stop5346-7" />
      <stop
         style="stop-color:#000000;stop-opacity:0;"
         offset="1"
         id="stop5348-8" />
    </linearGradient>
    <linearGradient
       inkscape:collect="always"
       xlink:href="#linearGradient5362-7"
       id="linearGradient10440-0"
       x1="485.18539"
       y1="980.04425"
       x2="502.22147"
       y2="980.66925"
       gradientUnits="userSpaceOnUse"
       gradientTransform="matrix(2.8480457,0,0,2.8480457,-1382.7849,-2685.7978)" />
    <linearGradient
       id="linearGradient5362-7">
      <stop
         style="stop-color:#ffffff;stop-opacity:1;"
         offset="0"
         id="stop5364-2" />
      <stop
         style="stop-color:#ffffff;stop-opacity:0;"
         offset="1"
         id="stop5366-6" />
    </linearGradient>
    <linearGradient
       inkscape:collect="always"
       xlink:href="#linearGradient5316-5"
       id="linearGradient10429-0"
       x1="502.77698"
       y1="977.26727"
       x2="512.01746"
       y2="981.01727"
       gradientUnits="userSpaceOnUse"
       gradientTransform="matrix(2.8480457,0,0,2.8480457,-1382.7849,-2685.7978)" />
    <linearGradient
       id="linearGradient5316-5">
      <stop
         style="stop-color:#ff6e00;stop-opacity:1;"
         offset="0"
         id="stop5320-4" />
      <stop
         style="stop-color:#eb2600;stop-opacity:1;"
         offset="1"
         id="stop5322-0" />
    </linearGradient>
    <linearGradient
       inkscape:collect="always"
       xlink:href="#linearGradient5316-5"
       id="linearGradient10432-3"
       x1="511.93539"
       y1="980.66925"
       x2="480.09647"
       y2="979.79425"
       gradientUnits="userSpaceOnUse"
       gradientTransform="matrix(2.8480457,0,0,2.8480457,-1382.7849,-2685.7978)" />
    <linearGradient
       inkscape:collect="always"
       xlink:href="#linearGradient5439-1"
       id="linearGradient10461-2"
       x1="493.59659"
       y1="975.55829"
       x2="501.69333"
       y2="975.55829"
       gradientUnits="userSpaceOnUse"
       gradientTransform="matrix(2.6475417,0,0,3.5007303,-1262.4324,-3317.9485)" />
    <linearGradient
       inkscape:collect="always"
       xlink:href="#linearGradient5439-1"
       id="linearGradient10463-3"
       x1="493.60324"
       y1="975.55829"
       x2="500.74399"
       y2="975.55829"
       gradientUnits="userSpaceOnUse"
       gradientTransform="matrix(2.5071888,0,0,3.3151473,-1220.8198,-3142.6089)" />
    <linearGradient
       inkscape:collect="always"
       xlink:href="#linearGradient5362-7"
       id="linearGradient10453-9"
       x1="502.625"
       y1="948.06799"
       x2="511.73331"
       y2="956.19971"
       gradientUnits="userSpaceOnUse" />
    <linearGradient
       inkscape:collect="always"
       xlink:href="#linearGradient5439-1"
       id="linearGradient10451-1"
       x1="500.59207"
       y1="945.4798"
       x2="514.125"
       y2="958.36218"
       gradientUnits="userSpaceOnUse" />
    <linearGradient
       inkscape:collect="always"
       xlink:href="#linearGradient5439-1"
       id="linearGradient10445-8"
       x1="506.49796"
       y1="961.93225"
       x2="519.68951"
       y2="959.74481"
       gradientUnits="userSpaceOnUse"
       gradientTransform="matrix(2.8480457,0,0,2.8480457,-1382.7849,-2685.7978)" />
    <linearGradient
       inkscape:collect="always"
       xlink:href="#linearGradient5439-1"
       id="linearGradient10449-6"
       x1="514.28558"
       y1="969.8905"
       x2="499.72308"
       y2="959.7655"
       gradientUnits="userSpaceOnUse"
       gradientTransform="matrix(2.8480457,0,0,2.8480457,-1382.7849,-2684.2244)" />
    <linearGradient
       inkscape:collect="always"
       xlink:href="#linearGradient5439-1"
       id="linearGradient10447-6"
       x1="502.66058"
       y1="971.21332"
       x2="520.07703"
       y2="971.33832"
       gradientUnits="userSpaceOnUse"
       gradientTransform="matrix(2.8480457,0,0,2.8480457,-1382.7849,-2685.7978)" />
    <linearGradient
       inkscape:collect="always"
       xlink:href="#linearGradient5344-0"
       id="linearGradient10533-7"
       x1="505.96286"
       y1="972.7179"
       x2="508.1875"
       y2="978.34192"
       gradientUnits="userSpaceOnUse" />
    <linearGradient
       inkscape:collect="always"
       xlink:href="#linearGradient5316-5"
       id="linearGradient10417-0"
       x1="500.57245"
       y1="974.04547"
       x2="514.35596"
       y2="977.04547"
       gradientUnits="userSpaceOnUse"
       gradientTransform="matrix(2.8480457,0,0,2.8480457,-1382.7849,-2685.7978)" />
    <linearGradient
       id="linearGradient9863-3">
      <stop
         style="stop-color:#2f445a;stop-opacity:1;"
         offset="0"
         id="stop9865-6" />
      <stop
         style="stop-color:#415f7c;stop-opacity:1"
         offset="1"
         id="stop9867-0" />
    </linearGradient>
    <linearGradient
       y2="944.4375"
       x2="529.84375"
       y1="986.14581"
       x1="529.84375"
       gradientTransform="matrix(2.8480457,0,0,2.8480457,-1439.7458,-2685.2638)"
       gradientUnits="userSpaceOnUse"
       id="linearGradient3982"
       xlink:href="#linearGradient9863-3"
       inkscape:collect="always" />
  </defs>
  <sodipodi:namedview
     id="base"
     pagecolor="#ffffff"
     bordercolor="#666666"
     borderopacity="1.0"
     inkscape:pageopacity="0.0"
     inkscape:pageshadow="2"
     inkscape:zoom="2"
     inkscape:cx="140.43952"
     inkscape:cy="73.716595"
     inkscape:document-units="px"
     inkscape:current-layer="layer1"
     showgrid="false"
     inkscape:window-width="1366"
     inkscape:window-height="717"
     inkscape:window-x="0"
     inkscape:window-y="0"
     showguides="true"
     inkscape:guide-bbox="true"
     inkscape:window-maximized="1" />
  <metadata
     id="metadata52677">
    <rdf:RDF>
      <cc:Work
         rdf:about="">
        <dc:format>image/svg+xml</dc:format>
        <dc:type
           rdf:resource="http://purl.org/dc/dcmitype/StillImage" />
      </cc:Work>
    </rdf:RDF>
  </metadata>
  <g
     inkscape:label="Capa 1"
     inkscape:groupmode="layer"
     id="layer1">
    <g
       inkscape:export-ydpi="89.986237"
       inkscape:export-xdpi="89.986237"
       inkscape:export-filename="/home/dafeba/DCV/tallerD/elementos.png"
       transform="translate(424,80)"
       id="g58804">
      <rect
         style="opacity:1;fill:#f2f2f2;fill-opacity:1;stroke:none;stroke-width:0.1;stroke-linecap:round;stroke-linejoin:round;stroke-miterlimit:4;stroke-dasharray:none;stroke-opacity:0.30041151"
         id="rect58806"
         width="47.823223"
         height="48"
         x="301.18933"
         y="351.1709" />
      <path
         style="fill:url(#linearGradient58828);fill-rule:evenodd;stroke:none;stroke-width:1px;stroke-linecap:butt;stroke-linejoin:miter;stroke-opacity:1"
         d="M 313.09207,399.15115 L 301.20351,395.7431 L 336.08403,390.7653 L 349.00384,390.68796 L 349.03336,399.15114 L 313.09207,399.15115 z"
         id="path58808"
         sodipodi:nodetypes="cccccc" />
      <path
         style="fill:#f2f2f2;fill-rule:evenodd;stroke:none;stroke-width:0.5;stroke-linecap:round;stroke-linejoin:round;stroke-miterlimit:4;stroke-dasharray:none;stroke-opacity:1"
         d="M 301.48601,353.22699 C 305.08831,353.57311 306.6134,357.74996 306.61071,360.86425 L 306.56413,389.36485 C 306.59506,392.86249 308.42012,396.3398 313.14348,398.87602 L 346.05226,393.25994 C 342.15451,392.5412 339.36778,388.67929 339.39934,385.53974 L 339.4778,361.97786 C 339.51198,358.9412 337.51957,355.88584 333.82005,355.55785 L 301.48601,353.22699 z"
         id="path58810"
         sodipodi:nodetypes="ccccccccc" />
      <path
         sodipodi:nodetypes="ccccc"
         id="path58812"
         d="M 301.48601,353.22699 C 305.08831,353.57311 306.6134,357.74996 306.61071,360.86425 L 339.4778,361.97786 C 339.51198,358.9412 337.51957,355.88584 333.82005,355.55785 L 301.48601,353.22699 z"
         style="fill:url(#linearGradient58830);fill-rule:evenodd;stroke:none;stroke-width:0.5;stroke-linecap:round;stroke-linejoin:round;stroke-miterlimit:4;stroke-dasharray:none;stroke-opacity:1" />
      <path
         sodipodi:nodetypes="ccccc"
         id="path58814"
         d="M 306.56413,389.36485 C 306.59506,392.86249 308.42012,396.3398 313.14348,398.87602 L 346.05226,393.25994 C 342.15451,392.5412 339.36778,388.67929 339.39934,385.53974 L 306.56413,389.36485 z"
         style="fill:url(#linearGradient58832);fill-rule:evenodd;stroke:none;stroke-width:0.5;stroke-linecap:round;stroke-linejoin:round;stroke-miterlimit:4;stroke-dasharray:none;stroke-opacity:1" />
      <path
         sodipodi:nodetypes="ccccccccc"
         id="path58816"
         d="M 301.48601,353.22699 C 305.08831,353.57311 306.6134,357.74996 306.61071,360.86425 L 306.56413,389.36485 C 306.59506,392.86249 308.42012,396.3398 313.14348,398.87602 L 346.05226,393.25994 C 342.15451,392.5412 339.36778,388.67929 339.39934,385.53974 L 339.4778,361.97786 C 339.51198,358.9412 337.51957,355.88584 333.82005,355.55785 L 301.48601,353.22699 z"
         style="fill:none;fill-rule:evenodd;stroke:#000000;stroke-width:0.5;stroke-linecap:round;stroke-linejoin:round;stroke-miterlimit:4;stroke-dasharray:none;stroke-opacity:1" />
    </g>
    <path
       sodipodi:nodetypes="ccccc"
       id="path58818"
       d="M 740.12551,445.55112 L 757.25142,445.69471 L 757.28066,447.8612 L 740.12588,448.00172 L 740.12551,445.55112 z"
       style="fill:#000000;fill-rule:evenodd;stroke:none;stroke-width:1px;stroke-linecap:butt;stroke-linejoin:miter;stroke-opacity:1" />
    <path
       style="fill:#000000;fill-rule:evenodd;stroke:none;stroke-width:1px;stroke-linecap:butt;stroke-linejoin:miter;stroke-opacity:1"
       d="M 744.24688,449.98324 L 754.3118,449.81922 L 754.31233,452.041 L 744.12653,452.24935 L 744.24688,449.98324 z"
       id="path58820"
       sodipodi:nodetypes="ccccc" />
    <path
       sodipodi:nodetypes="ccccc"
       id="path58822"
       d="M 737.18797,454.68729 L 758.68836,453.88522 L 758.75025,455.99227 L 737.18522,457.06633 L 737.18797,454.68729 z"
       style="fill:#000000;fill-rule:evenodd;stroke:none;stroke-width:1px;stroke-linecap:butt;stroke-linejoin:miter;stroke-opacity:1" />
    <path
       style="fill:#000000;fill-rule:evenodd;stroke:none;stroke-width:1px;stroke-linecap:butt;stroke-linejoin:miter;stroke-opacity:1"
       d="M 747.11973,459.21937 L 751.38008,458.93979 L 751.25403,461.03473 L 746.94583,461.39831 L 747.11973,459.21937 z"
       id="path58824"
       sodipodi:nodetypes="ccccc" />
    <path
       sodipodi:nodetypes="ccccc"
       id="path58826"
       d="M 742.54569,464.13694 L 754.55952,462.8959 L 754.44101,465.07791 L 742.37806,466.57431 L 742.54569,464.13694 z"
       style="fill:#000000;fill-rule:evenodd;stroke:none;stroke-width:1px;stroke-linecap:butt;stroke-linejoin:miter;stroke-opacity:1" />
    <path
       inkscape:connector-curvature="0"
       style="fill:url(#linearGradient3982);fill-opacity:1;fill-rule:evenodd;stroke:none;display:inline"
       d="m 65.090339,4.53749 c -11.366661,0 -20.648311,9.281543 -20.648311,20.648339 0,8.432549 5.174791,15.575415 12.460289,18.779294 l 0,25.009413 c -1.40223,0.223838 -2.849695,0.305498 -4.094011,0.979019 -0.952039,0.504873 -1.537662,1.503751 -1.513038,2.581025 -0.0043,0.08894 -0.0043,0.17807 0,0.26701 l 0,10.324156 -33.998544,3.560071 c -1.899529,0.18262 -3.344584,0.39369 -4.539117,0.801004 -0.5974,0.203656 -1.156526,0.463333 -1.780156,0.979019 -0.547884,0.453135 -1.0130642,1.564535 -1.0679329,2.670046 l -0.1779889,0 0,0.356005 0,19.313319 c -0.011509,0.14809 -0.011509,0.2969 0,0.445 0.250255,1.64162 1.4153458,2.96235 2.4921118,3.64906 1.076497,0.68672 2.166378,0.9912 3.114938,1.24603 11.969146,3.25187 24.150809,6.51811 35.689571,9.70114 0.02891,0.0303 0.05862,0.06 0.08913,0.089 0.228575,0.0898 0.467856,0.14961 0.711955,0.17801 4.075008,0.85397 9.106605,0.96687 13.973061,-0.356 l 0.267117,-0.089 44.945797,-8.18815 c 2.72845,-0.50405 5.55111,-1.3475 7.47606,-3.82706 0.40389,-0.50538 0.62337,-1.13316 0.6231,-1.78002 l 0,-19.491305 c -0.0594,-2.295922 -1.34656,-3.288484 -3.11521,-4.094064 -1.50019,-0.659068 -3.30443,-1.167768 -5.60705,-1.513039 l -31.684419,-4.895068 0,-8.900165 c 0,-4.55e-4 -0.0016,-0.0686 0,-0.08899 -2.68e-4,0.0013 -0.0072,-0.153445 0,-0.26701 5.35e-4,-0.02966 5.35e-4,-0.05931 0,-0.08899 0.0019,-0.05931 0.0019,-0.118677 0,-0.177988 -0.0029,-0.08383 0.0024,-0.06491 0,-0.08902 -0.06183,-0.913069 -0.55859,-1.740891 -1.33505,-2.225021 -1.222369,-0.775576 -2.711051,-0.824128 -4.094011,-1.068013 l 0,-25.009413 C 80.564128,40.761255 85.738652,33.618335 85.738652,25.18584 85.738652,13.819124 76.45727,4.5374475 65.09034,4.537501 z m 0,5.696098 c 8.284913,-5.3e-5 14.952401,6.667436 14.952401,14.952241 0,6.70049 -4.463371,12.330183 -10.502144,14.240231 -1.187574,0.390451 -1.981431,1.509372 -1.958145,2.759041 l 0,28.925462 c -0.0064,1.474229 1.113166,2.709712 2.580972,2.848035 1.509827,0.16367 2.101874,0.406912 2.848089,0.623015 l 0,9.790162 c -0.01713,1.414302 1.006105,2.627035 2.402983,2.848036 l 34.087675,5.251099 c 1.86848,0.280151 3.18024,0.596757 3.91602,0.889997 l 0,16.999303 c -0.69268,0.62103 -1.63134,1.26211 -3.47118,1.60201 l -45.212648,8.27715 c -0.08886,-0.004 -0.177989,-0.004 -0.26685,0 -3.599121,1.01833 -7.468304,1.01844 -10.680401,0.44499 -0.08458,-0.0151 -0.183074,-0.0731 -0.266849,-0.089 -0.08752,-0.0341 -0.176651,-0.0637 -0.267117,-0.089 -11.749137,-3.24521 -24.329603,-6.57515 -36.490388,-9.87916 -0.699108,-0.18773 -1.125478,-0.41382 -1.33505,-0.53399 l 0,-17.266286 c 0.573579,-0.137118 1.158935,-0.325412 2.402983,-0.444999 l 36.579516,-3.827081 c 1.467806,-0.138323 2.587396,-1.373806 2.580972,-2.848036 l 0,-11.036191 c 0.842302,-0.215219 1.569246,-0.44631 3.115206,-0.622988 1.432476,-0.180585 2.503085,-1.404318 2.492112,-2.848062 l 0,-29.014456 c 0.02329,-1.249669 -0.770839,-2.36859 -1.958145,-2.759041 -6.038773,-1.910075 -10.502145,-7.539688 -10.502145,-14.240231 0,-8.284859 6.667489,-14.952241 14.952133,-14.952241 z"
       id="path10465"
       sodipodi:nodetypes="csccsscccssccccssscsccccsccccccssssssccsccscccscccccccccssssccccccscccsc" />
    <path
       inkscape:connector-curvature="0"
       sodipodi:nodetypes="cccccccc"
       id="path10380"
       d="M 48.756317,99.77418 17.146036,93.054097 C 11.548889,91.975806 10.496212,90.258709 17.602651,89.5755 l 54.843847,-5.73812 37.501312,5.788786 c 7.64683,1.14665 9.26639,3.672833 -0.0262,4.908477 l -44.086096,5.536127 c -6.223721,0.96285 -11.801597,0.63332 -17.079167,-0.29659 z"
       style="fill:url(#linearGradient10417-0);fill-rule:evenodd;stroke:none;display:inline" />
    <path
       sodipodi:type="arc"
       style="fill:url(#linearGradient10533-7);fill-opacity:1;stroke:none;display:inline"
       id="path10434"
       sodipodi:cx="508.1875"
       sodipodi:cy="974.61218"
       sodipodi:rx="4.9375"
       sodipodi:ry="0.75"
       d="m 513.125,974.61218 a 4.9375,0.75 0 1 1 -9.875,0 4.9375,0.75 0 1 1 9.875,0 z"
       transform="matrix(2.9742251,0,0,4.3907371,-1446.2846,-4189.5906)" />
    <path
       inkscape:connector-curvature="0"
       style="fill:url(#linearGradient10447-6);fill-opacity:1;stroke:none;display:inline"
       d="m 54.155669,72.766314 c 6.294381,-2.497117 16.756913,-2.38944 21.730965,-0.26701 l 0,16.936401 c -6.659727,2.437483 -15.775432,2.26019 -21.730965,0 l 0,-16.669391 z"
       id="rect10398"
       sodipodi:nodetypes="ccccc" />
    <path
       inkscape:connector-curvature="0"
       sodipodi:nodetypes="ccsc"
       id="path10401"
       d="m 54.155669,72.470719 c 3.802269,-2.057739 18.091963,-2.30885 21.730965,0 -2.605328,1.496203 -8.24075,2.497544 -10.864011,2.509294 -2.769934,0.01234 -8.025021,-0.761953 -10.866954,-2.509294 z"
       style="fill:url(#linearGradient10449-6);fill-opacity:1;stroke:none;display:inline" />
    <path
       inkscape:connector-curvature="0"
       style="fill:url(#linearGradient10445-8);fill-opacity:1;stroke:none;display:inline"
       d="m 59.744518,37.83393 10.691643,0 0,34.197116 c -3.287842,1.388902 -7.40273,1.375412 -10.691643,0 l 0,-34.197116 z"
       id="rect10394"
       sodipodi:nodetypes="ccccc" />
    <path
       sodipodi:type="arc"
       style="fill:url(#linearGradient10451-1);fill-opacity:1;stroke:none;display:inline"
       id="path10390"
       sodipodi:cx="508.375"
       sodipodi:cy="952.61218"
       sodipodi:rx="5.75"
       sodipodi:ry="5.75"
       d="m 514.125,952.61218 a 5.75,5.75 0 1 1 -11.5,0 5.75,5.75 0 1 1 11.5,0 z"
       transform="matrix(3.0957018,0,0,3.0957018,-1508.6871,-2923.8542)" />
    <path
       transform="matrix(1.0525387,0,0,1.0525387,-474.97802,-982.8519)"
       d="m 514.125,952.61218 a 5.75,5.75 0 1 1 -11.5,0 5.75,5.75 0 1 1 11.5,0 z"
       sodipodi:ry="5.75"
       sodipodi:rx="5.75"
       sodipodi:cy="952.61218"
       sodipodi:cx="508.375"
       id="path10392"
       style="fill:url(#linearGradient10453-9);fill-opacity:1;stroke:none;display:inline"
       sodipodi:type="arc" />
    <path
       inkscape:connector-curvature="0"
       style="fill:url(#linearGradient10463-3);fill-opacity:1;stroke:none;display:inline"
       d="m 37.017351,91.510546 c 0,0.960283 -3.52525,1.73958 -7.869248,1.73958 -4.343997,0 -7.869514,-0.779297 -7.869514,-1.73958 0,-0.07077 -0.01445,-0.47428 0.02302,-0.542826 0.467588,-0.86184 3.822611,-1.196754 7.846496,-1.196754 4.028704,0 7.420395,0.325465 7.88156,1.188778 0.03613,0.06756 -0.01231,0.481105 -0.01231,0.550802 z"
       id="path10404"
       sodipodi:nodetypes="csssssc" />
    <path
       inkscape:connector-curvature="0"
       style="fill:url(#linearGradient10461-2);fill-opacity:1;stroke:none;display:inline"
       d="m 65.818889,97.217939 c 0,1.014028 -3.723045,1.837005 -8.310071,1.837005 -4.587027,0 -8.310072,-0.822977 -8.310072,-1.837005 0,-0.06041 -0.02007,-0.531745 0.0056,-0.590655 0.407635,-0.930119 3.990697,-1.246297 8.304451,-1.246297 4.336236,0 7.922511,0.30151 8.299365,1.238561 0.02168,0.0542 0.01071,0.542933 0.01071,0.598391 z"
       id="path10407"
       sodipodi:nodetypes="csssssc" />
    <path
       inkscape:connector-curvature="0"
       style="fill:url(#linearGradient10432-3);fill-rule:evenodd;stroke:none;display:inline"
       d="m 12.573462,91.081392 0,19.761128 c 0.229378,1.50383 1.793539,2.04641 3.481622,2.49987 12.197722,3.31399 24.6912,6.71556 36.446493,9.96267 l 3.607419,-12.08777 -3.731075,-10.98831 -35.926176,-7.263449 c -1.533648,-0.501286 -3.402932,-0.825814 -3.878283,-1.884139 z"
       id="path10410"
       sodipodi:nodetypes="cccccccc" />
    <path
       inkscape:connector-curvature="0"
       sodipodi:nodetypes="ccccccccc"
       id="path10412"
       d="m 116.30991,92.421447 0,19.446423 c -1.26707,1.63222 -3.40963,2.38882 -5.85677,2.84091 l -45.222015,8.25545 c -4.399403,1.24466 -9.086264,1.21316 -12.81707,0.43127 l -0.0629,-23.15954 c 4.147006,0.43405 8.460492,0.57725 13.275023,-0.15647 l 45.101302,-5.759343 c 2.20894,-0.185376 4.2,-0.650958 5.58243,-1.8987 z"
       style="fill:url(#linearGradient10429-0);fill-rule:evenodd;stroke:none;display:inline" />
    <path
       inkscape:connector-curvature="0"
       sodipodi:nodetypes="cccccccc"
       id="path10421"
       d="m 12.573462,91.081392 0,19.761128 c 0.229378,1.50383 1.793539,2.04641 3.481622,2.49987 12.197722,3.31399 24.6912,6.71556 36.446493,9.96267 l 3.607419,-12.08777 -3.731075,-10.98831 -35.926176,-7.263449 c -1.533648,-0.501286 -3.402932,-0.825814 -3.878283,-1.884139 z"
       style="fill:url(#linearGradient10440-0);fill-rule:evenodd;stroke:none;display:inline" />
    <path
       inkscape:connector-curvature="0"
       style="fill:url(#linearGradient10443-6);fill-opacity:1;fill-rule:evenodd;stroke:none;display:inline"
       d="m 116.30991,92.421447 0,19.446423 c -1.26707,1.63222 -3.40963,2.38882 -5.85677,2.84091 l -45.222015,8.25545 c -4.399403,1.24466 -9.086264,1.21316 -12.81707,0.43127 l -0.0629,-23.15954 c 4.147006,0.43405 8.460492,0.57725 13.275023,-0.15647 l 45.101302,-5.759343 c 2.20894,-0.185376 4.2,-0.650958 5.58243,-1.8987 z"
       id="path10423"
       sodipodi:nodetypes="ccccccccc" />
    <path
       transform="matrix(2.5071888,0,0,3.3151473,-1220.8198,-3143.1429)"
       d="m 501.69226,975.55829 a 3.1387637,0.52474278 0 1 1 -6.27753,0 3.1387637,0.52474278 0 1 1 6.27753,0 z"
       sodipodi:ry="0.52474278"
       sodipodi:rx="3.1387637"
       sodipodi:cy="975.55829"
       sodipodi:cx="498.5535"
       id="path10436"
       style="fill:url(#linearGradient10457-9);fill-opacity:1;stroke:none;display:inline"
       sodipodi:type="arc" />
    <path
       sodipodi:type="arc"
       style="fill:url(#linearGradient10455-6);fill-opacity:1;stroke:none;display:inline"
       id="path10438"
       sodipodi:cx="498.5535"
       sodipodi:cy="975.55829"
       sodipodi:rx="3.1387637"
       sodipodi:ry="0.52474278"
       d="m 501.69226,975.55829 a 3.1387637,0.52474278 0 1 1 -6.27753,0 3.1387637,0.52474278 0 1 1 6.27753,0 z"
       transform="matrix(2.6475417,0,0,3.5007303,-1262.4324,-3318.4825)" />
  </g>
</svg>
