<?xml version="1.0" encoding="UTF-8" standalone="no"?>
<!-- Created with Inkscape (http://www.inkscape.org/) -->

<svg
   xmlns:dc="http://purl.org/dc/elements/1.1/"
   xmlns:cc="http://creativecommons.org/ns#"
   xmlns:rdf="http://www.w3.org/1999/02/22-rdf-syntax-ns#"
   xmlns:svg="http://www.w3.org/2000/svg"
   xmlns="http://www.w3.org/2000/svg"
   xmlns:xlink="http://www.w3.org/1999/xlink"
   xmlns:sodipodi="http://sodipodi.sourceforge.net/DTD/sodipodi-0.dtd"
   xmlns:inkscape="http://www.inkscape.org/namespaces/inkscape"
   width="128"
   height="128"
   id="svg6934"
   sodipodi:version="0.32"
   inkscape:version="0.48.3.1 r9886"
   version="1.0"
   sodipodi:docname="brasero.svg"
   inkscape:output_extension="org.inkscape.output.svg.inkscape">
  <defs
     id="defs6936">
    <inkscape:perspective
       sodipodi:type="inkscape:persp3d"
       inkscape:vp_x="0 : 526.18109 : 1"
       inkscape:vp_y="0 : 1000 : 0"
       inkscape:vp_z="744.09448 : 526.18109 : 1"
       inkscape:persp3d-origin="372.04724 : 350.78739 : 1"
       id="perspective6942" />
    <inkscape:perspective
       id="perspective6952"
       inkscape:persp3d-origin="0.5 : 0.33333333 : 1"
       inkscape:vp_z="1 : 0.5 : 1"
       inkscape:vp_y="0 : 1000 : 0"
       inkscape:vp_x="0 : 0.5 : 1"
       sodipodi:type="inkscape:persp3d" />
    <linearGradient
       id="linearGradient5316">
      <stop
         style="stop-color:#aac736;stop-opacity:1;"
         offset="0"
         id="stop5320" />
      <stop
         style="stop-color:#5d8b2c;stop-opacity:1;"
         offset="1"
         id="stop5322" />
    </linearGradient>
    <linearGradient
       id="linearGradient5165-7-9-8-2">
      <stop
         id="stop5167-4-8-6-9"
         style="stop-color:#ffffff;stop-opacity:1"
         offset="0" />
      <stop
         id="stop5169-5-5-2-9"
         style="stop-color:#ffffff;stop-opacity:0"
         offset="1" />
    </linearGradient>
    <linearGradient
       id="linearGradient6965">
      <stop
         style="stop-color:#aac736;stop-opacity:1;"
         offset="0"
         id="stop6967" />
      <stop
         style="stop-color:#5d8b2c;stop-opacity:1;"
         offset="1"
         id="stop6969" />
    </linearGradient>
    <linearGradient
       id="linearGradient5344">
      <stop
         style="stop-color:#000000;stop-opacity:1;"
         offset="0"
         id="stop5346" />
      <stop
         style="stop-color:#000000;stop-opacity:0;"
         offset="1"
         id="stop5348" />
    </linearGradient>
    <inkscape:perspective
       id="perspective7046"
       inkscape:persp3d-origin="0.5 : 0.33333333 : 1"
       inkscape:vp_z="1 : 0.5 : 1"
       inkscape:vp_y="0 : 1000 : 0"
       inkscape:vp_x="0 : 0.5 : 1"
       sodipodi:type="inkscape:persp3d" />
    <linearGradient
       id="linearGradient5316-7">
      <stop
         style="stop-color:#aac736;stop-opacity:1;"
         offset="0"
         id="stop5320-8" />
      <stop
         style="stop-color:#5d8b2c;stop-opacity:1;"
         offset="1"
         id="stop5322-4" />
    </linearGradient>
    <linearGradient
       id="linearGradient5165-7-9-8-2-6">
      <stop
         id="stop5167-4-8-6-9-3"
         style="stop-color:#ffffff;stop-opacity:1"
         offset="0" />
      <stop
         id="stop5169-5-5-2-9-0"
         style="stop-color:#ffffff;stop-opacity:0"
         offset="1" />
    </linearGradient>
    <linearGradient
       id="linearGradient7059">
      <stop
         style="stop-color:#aac736;stop-opacity:1;"
         offset="0"
         id="stop7061" />
      <stop
         style="stop-color:#5d8b2c;stop-opacity:1;"
         offset="1"
         id="stop7063" />
    </linearGradient>
    <linearGradient
       id="linearGradient5344-7">
      <stop
         style="stop-color:#000000;stop-opacity:1;"
         offset="0"
         id="stop5346-7" />
      <stop
         style="stop-color:#000000;stop-opacity:0;"
         offset="1"
         id="stop5348-0" />
    </linearGradient>
    <inkscape:perspective
       id="perspective7210"
       inkscape:persp3d-origin="0.5 : 0.33333333 : 1"
       inkscape:vp_z="1 : 0.5 : 1"
       inkscape:vp_y="0 : 1000 : 0"
       inkscape:vp_x="0 : 0.5 : 1"
       sodipodi:type="inkscape:persp3d" />
    <linearGradient
       id="linearGradient5316-3">
      <stop
         style="stop-color:#aac736;stop-opacity:1;"
         offset="0"
         id="stop5320-1" />
      <stop
         style="stop-color:#5d8b2c;stop-opacity:1;"
         offset="1"
         id="stop5322-49" />
    </linearGradient>
    <linearGradient
       id="linearGradient5165-7-9-8-2-0">
      <stop
         id="stop5167-4-8-6-9-2"
         style="stop-color:#ffffff;stop-opacity:1"
         offset="0" />
      <stop
         id="stop5169-5-5-2-9-9"
         style="stop-color:#ffffff;stop-opacity:0"
         offset="1" />
    </linearGradient>
    <linearGradient
       id="linearGradient7223">
      <stop
         style="stop-color:#aac736;stop-opacity:1;"
         offset="0"
         id="stop7225" />
      <stop
         style="stop-color:#5d8b2c;stop-opacity:1;"
         offset="1"
         id="stop7227" />
    </linearGradient>
    <linearGradient
       id="linearGradient5344-1">
      <stop
         style="stop-color:#000000;stop-opacity:1;"
         offset="0"
         id="stop5346-1" />
      <stop
         style="stop-color:#000000;stop-opacity:0;"
         offset="1"
         id="stop5348-6" />
    </linearGradient>
    <inkscape:perspective
       id="perspective7325"
       inkscape:persp3d-origin="0.5 : 0.33333333 : 1"
       inkscape:vp_z="1 : 0.5 : 1"
       inkscape:vp_y="0 : 1000 : 0"
       inkscape:vp_x="0 : 0.5 : 1"
       sodipodi:type="inkscape:persp3d" />
    <linearGradient
       inkscape:collect="always"
       xlink:href="#linearGradient5316-76"
       id="linearGradient31057"
       gradientUnits="userSpaceOnUse"
       gradientTransform="translate(-274.43625,37.414147)"
       x1="275.29071"
       y1="1103.7349"
       x2="275.29071"
       y2="1121.6162" />
    <linearGradient
       id="linearGradient5316-76">
      <stop
         style="stop-color:#aac736;stop-opacity:1;"
         offset="0"
         id="stop5320-4" />
      <stop
         style="stop-color:#5d8b2c;stop-opacity:1;"
         offset="1"
         id="stop5322-6" />
    </linearGradient>
    <linearGradient
       inkscape:collect="always"
       xlink:href="#linearGradient5165-7-9-8-2-67"
       id="linearGradient31059"
       gradientUnits="userSpaceOnUse"
       gradientTransform="translate(-274.43625,37.414147)"
       x1="275.29071"
       y1="1094.0099"
       x2="275.29071"
       y2="1117.1519" />
    <linearGradient
       id="linearGradient5165-7-9-8-2-67">
      <stop
         id="stop5167-4-8-6-9-1"
         style="stop-color:#ffffff;stop-opacity:1"
         offset="0" />
      <stop
         id="stop5169-5-5-2-9-1"
         style="stop-color:#ffffff;stop-opacity:0"
         offset="1" />
    </linearGradient>
    <linearGradient
       inkscape:collect="always"
       xlink:href="#linearGradient5316-76"
       id="linearGradient31061"
       gradientUnits="userSpaceOnUse"
       gradientTransform="translate(-274.43625,37.414147)"
       x1="280.65372"
       y1="1100.6647"
       x2="292.69617"
       y2="1118.8726" />
    <linearGradient
       id="linearGradient7338">
      <stop
         style="stop-color:#aac736;stop-opacity:1;"
         offset="0"
         id="stop7340" />
      <stop
         style="stop-color:#5d8b2c;stop-opacity:1;"
         offset="1"
         id="stop7342" />
    </linearGradient>
    <linearGradient
       inkscape:collect="always"
       xlink:href="#linearGradient5344-0"
       id="linearGradient31063"
       gradientUnits="userSpaceOnUse"
       gradientTransform="translate(-274.43625,37.414147)"
       x1="317.94461"
       y1="1142.4757"
       x2="283.81964"
       y2="1103.8007" />
    <linearGradient
       id="linearGradient5344-0">
      <stop
         style="stop-color:#000000;stop-opacity:1;"
         offset="0"
         id="stop5346-9" />
      <stop
         style="stop-color:#000000;stop-opacity:0;"
         offset="1"
         id="stop5348-5" />
    </linearGradient>
    <inkscape:perspective
       id="perspective7440"
       inkscape:persp3d-origin="0.5 : 0.33333333 : 1"
       inkscape:vp_z="1 : 0.5 : 1"
       inkscape:vp_y="0 : 1000 : 0"
       inkscape:vp_x="0 : 0.5 : 1"
       sodipodi:type="inkscape:persp3d" />
    <linearGradient
       id="linearGradient5316-4">
      <stop
         style="stop-color:#aac736;stop-opacity:1;"
         offset="0"
         id="stop5320-9" />
      <stop
         style="stop-color:#5d8b2c;stop-opacity:1;"
         offset="1"
         id="stop5322-9" />
    </linearGradient>
    <linearGradient
       id="linearGradient5165-7-9-8-2-4">
      <stop
         id="stop5167-4-8-6-9-8"
         style="stop-color:#ffffff;stop-opacity:1"
         offset="0" />
      <stop
         id="stop5169-5-5-2-9-5"
         style="stop-color:#ffffff;stop-opacity:0"
         offset="1" />
    </linearGradient>
    <linearGradient
       id="linearGradient7453">
      <stop
         style="stop-color:#aac736;stop-opacity:1;"
         offset="0"
         id="stop7455" />
      <stop
         style="stop-color:#5d8b2c;stop-opacity:1;"
         offset="1"
         id="stop7457" />
    </linearGradient>
    <linearGradient
       id="linearGradient5344-2">
      <stop
         style="stop-color:#000000;stop-opacity:1;"
         offset="0"
         id="stop5346-5" />
      <stop
         style="stop-color:#000000;stop-opacity:0;"
         offset="1"
         id="stop5348-4" />
    </linearGradient>
    <linearGradient
       inkscape:collect="always"
       xlink:href="#linearGradient5344-2"
       id="linearGradient3076"
       gradientUnits="userSpaceOnUse"
       gradientTransform="matrix(5.3340457,0,0,5.3340457,-1451.5289,-5864.5157)"
       x1="317.94461"
       y1="1142.4757"
       x2="283.81964"
       y2="1103.8007" />
    <linearGradient
       inkscape:collect="always"
       xlink:href="#linearGradient5316-4"
       id="linearGradient3079"
       gradientUnits="userSpaceOnUse"
       gradientTransform="matrix(5.3340457,0,0,5.3340457,-1451.5289,-5864.5157)"
       x1="280.65372"
       y1="1100.6647"
       x2="292.69617"
       y2="1118.8726" />
    <linearGradient
       inkscape:collect="always"
       xlink:href="#linearGradient5165-7-9-8-2-4"
       id="linearGradient3082"
       gradientUnits="userSpaceOnUse"
       gradientTransform="matrix(5.3340457,0,0,5.3340457,-1451.5289,-5864.5157)"
       x1="275.29071"
       y1="1094.0099"
       x2="275.29071"
       y2="1117.1519" />
    <linearGradient
       inkscape:collect="always"
       xlink:href="#linearGradient5316-4"
       id="linearGradient3085"
       gradientUnits="userSpaceOnUse"
       gradientTransform="matrix(5.3340457,0,0,5.3340457,-1451.5289,-5864.5157)"
       x1="275.29071"
       y1="1103.7349"
       x2="275.29071"
       y2="1121.6162" />
  </defs>
  <sodipodi:namedview
     id="base"
     pagecolor="#ffffff"
     bordercolor="#666666"
     borderopacity="1.0"
     inkscape:pageopacity="0.0"
     inkscape:pageshadow="2"
     inkscape:zoom="1.4"
     inkscape:cx="85.031014"
     inkscape:cy="16.621863"
     inkscape:document-units="px"
     inkscape:current-layer="layer1"
     showgrid="false"
     inkscape:window-width="1366"
     inkscape:window-height="717"
     inkscape:window-x="0"
     inkscape:window-y="0"
     inkscape:window-maximized="1"
     showguides="true"
     inkscape:guide-bbox="true"
     inkscape:snap-global="false">
    <sodipodi:guide
       orientation="1,0"
       position="79.821428,78.392857"
       id="guide3087" />
  </sodipodi:namedview>
  <metadata
     id="metadata6939">
    <rdf:RDF>
      <cc:Work
         rdf:about="">
        <dc:format>image/svg+xml</dc:format>
        <dc:type
           rdf:resource="http://purl.org/dc/dcmitype/StillImage" />
        <dc:title></dc:title>
      </cc:Work>
    </rdf:RDF>
  </metadata>
  <g
     inkscape:label="Capa 1"
     inkscape:groupmode="layer"
     id="layer1">
    <path
       inkscape:connector-curvature="0"
       style="fill:url(#linearGradient3085);fill-rule:evenodd;stroke:none;display:inline"
       d="m 31.169171,5.6018359 -19.002538,2.8334451 -0.500066,0 0,0.1653554 C 5.9510832,9.6493098 2.9987423,14.204051 2.9987423,19.768528 l 0,84.677972 c -0.070249,5.65249 2.0717967,10.09735 6.3341792,11.50181 l 19.6692935,6.16775 0.166689,-8.00107 54.673968,-8.33498 c 5.082493,-0.55047 8.443848,-5.28443 8.167758,-12.001598 l 0.333378,-69.675439 c 0.197359,-5.299907 -2.52183,-9.619951 -8.334447,-10.501669 l -52.84039,-4.000534 0,-4.0005343 z"
       id="path30929" />
    <path
       inkscape:connector-curvature="0"
       id="path30931"
       d="m 31.169171,5.6018359 -19.002538,2.8334451 -0.500066,0 0,0.1653554 C 5.9510832,9.6493098 2.9987423,14.204051 2.9987423,19.768528 l 0,74.77692 89.0118877,-0.767036 0.333378,-69.675439 c 0.197359,-5.299907 -2.52183,-9.619951 -8.334447,-10.501669 L 31.169171,5.6002357 z"
       style="fill:url(#linearGradient3082);fill-rule:evenodd;stroke:none;display:inline"
       sodipodi:nodetypes="cccccccccc" />
    <path
       inkscape:connector-curvature="0"
       inkscape:export-ydpi="57.964222"
       inkscape:export-xdpi="57.964222"
       inkscape:export-filename="/home/dafeba/DCV/tallerD/bocetos/08-09-22-hastaahora.png"
       sodipodi:nodetypes="ccccccccc"
       id="path30933"
       d="m 22.374717,18.045098 -0.0112,91.329532 c -0.615442,8.35525 4.408802,14.7065 12.782614,13.36232 l 78.281921,-11.82078 c 5.7205,-0.61929 9.45236,-6.04774 9.14181,-13.608753 l 0.4216,-74.294189 c 0.22248,-5.965063 -2.82998,-10.95773 -9.37202,-11.950396 L 35.779494,5.1036361 C 26.878571,4.6662443 22.37445,10.67078 22.37445,18.045098 z"
       style="fill:url(#linearGradient3079);fill-rule:evenodd;stroke:none" />
    <path
       inkscape:connector-curvature="0"
       style="fill:url(#linearGradient3076);fill-rule:evenodd;stroke:none"
       d="m 22.374717,18.045098 -0.0112,91.329532 c -0.615442,8.35525 4.408802,14.7065 12.782614,13.36232 l 78.281921,-11.82078 c 5.7205,-0.61929 9.45236,-6.04774 9.14181,-13.608753 l 0.4216,-74.294189 c 0.22248,-5.965063 -2.82998,-10.95773 -9.37202,-11.950396 L 35.779494,5.1036361 C 26.878571,4.6662443 22.37445,10.67078 22.37445,18.045098 z"
       id="path30935"
       sodipodi:nodetypes="ccccccccc"
       inkscape:export-filename="/home/dafeba/DCV/tallerD/bocetos/08-09-22-hastaahora.png"
       inkscape:export-xdpi="57.964222"
       inkscape:export-ydpi="57.964222" />
    <path
       inkscape:connector-curvature="0"
       style="fill:none;stroke:#344b63;stroke-width:2.66702294;stroke-linecap:butt;stroke-linejoin:miter;stroke-miterlimit:4;stroke-opacity:1;stroke-dasharray:none;display:inline"
       d="m 35.824908,5.0844335 c -1.734365,-0.085345 -3.267583,0.1333511 -4.66729,0.5014003 L 11.655013,8.5867679 C 5.9395297,9.6354413 2.9871887,14.190716 2.9871887,19.755193 l 0,84.677977 c -0.070249,5.65195 2.0717967,10.09681 6.3341793,11.50127 l 19.669294,6.16775 c 1.792239,0.73984 3.774957,1.05028 6.16749,0.66676 l 78.343798,-11.83571 c 5.7205,-0.61875 9.47844,-6.10695 9.16789,-13.667962 l 0.33338,-74.343796 c 0.22248,-5.965063 -2.79254,-10.841981 -9.33458,-11.834113 L 35.824908,5.0865671 z"
       id="path30937"
       sodipodi:nodetypes="ccccccccccccc" />
    <path
       inkscape:connector-curvature="0"
       id="path3121"
       d="M 74.6875,13.21875 C 50.63726,12.72011 26.9375,33.944469 26.9375,63 c 0,29.993872 23.43604,52.12191 50.09375,48.5625 24.56937,-3.28044 39.875,-24.692129 39.875,-48.9375 0,-24.244838 -15.05096,-47.303919 -39.875,-49.28125 -0.77575,-0.06178 -1.56794,-0.108915 -2.34375,-0.125 z m 0.21875,1.21875 c 0.68374,-0.02623 1.37467,-0.02063 2.03125,0 L 77.5,40.53125 c -0.0407,-0.0037 -0.0842,0.0034 -0.125,0 -1.09108,-0.09093 -2.17851,-0.07161 -3.25,0.0625 l -4.84375,-25.5 c 1.92397,-0.362138 3.81245,-0.586714 5.625,-0.65625 z M 62.21875,17 71,41.3125 c -2.69701,0.887519 -5.21664,2.459777 -7.375,4.5625 L 46.46875,26.125 c 3.16728,-3.516967 9.20747,-6.900337 15.75,-9.125 z m 13.5,26.5625 c 0.54509,-0.02512 1.10643,-0.01637 1.65625,0.03125 8.79712,0.761925 14.625,8.968662 14.625,18.3125 0,9.344244 -5.91813,18.298315 -14.625,19.5625 -9.44692,1.371871 -17.25,-6.752782 -17.25,-18.3125 0,-10.836854 7.41742,-19.216923 15.59375,-19.59375 z m 1.0625,13.25 c -2.58687,0.114725 -4.9375,2.638257 -4.9375,5.9375 0,3.519317 2.44864,6.011412 5.4375,5.59375 2.75472,-0.384876 4.625,-3.123925 4.625,-5.96875 0,-2.844699 -1.84173,-5.330534 -4.625,-5.5625 -0.17396,-0.0145 -0.32754,-0.0076 -0.5,0 z M 90.25,76.53125 l 14.90625,17.1875 c -3.2061,3.890763 -7.04812,7.28168 -11.65625,10.0625 l -8.09375,-22.5 c 1.84265,-1.299239 3.47959,-2.900471 4.84375,-4.75 z m -8.0625,6.625 4.5625,24.03125 c -2.432,0.98857 -5.03344,1.81092 -7.84375,2.5 L 78.375,84.34375 c 1.33237,-0.263437 2.60492,-0.652308 3.8125,-1.1875 z"
       style="fill:#000000;fill-opacity:0.12601626;stroke:#000000;overflow:visible;stroke-width:5;stroke-miterlimit:4;stroke-dasharray:none;stroke-opacity:0.62195122000000003" />
    <path
       style="fill:#ffffff;fill-opacity:1;stroke:none;overflow:visible"
       d="M 76.6875,13.21875 C 52.63726,12.72011 28.9375,33.944469 28.9375,63 c 0,29.993872 23.43604,52.12191 50.09375,48.5625 24.56937,-3.28044 39.875,-24.692129 39.875,-48.9375 0,-24.244838 -15.05096,-47.303919 -39.875,-49.28125 -0.77575,-0.06178 -1.56794,-0.108915 -2.34375,-0.125 z m 0.21875,1.21875 c 0.68374,-0.02623 1.37467,-0.02063 2.03125,0 L 79.5,40.53125 c -0.0407,-0.0037 -0.0842,0.0034 -0.125,0 -1.09108,-0.09093 -2.17851,-0.07161 -3.25,0.0625 l -4.84375,-25.5 c 1.92397,-0.362138 3.81245,-0.586714 5.625,-0.65625 z M 64.21875,17 73,41.3125 c -2.69701,0.887519 -5.21664,2.459777 -7.375,4.5625 L 48.46875,26.125 c 3.16728,-3.516967 9.20747,-6.900337 15.75,-9.125 z m 13.5,26.5625 c 0.54509,-0.02512 1.10643,-0.01637 1.65625,0.03125 8.79712,0.761925 14.625,8.968662 14.625,18.3125 0,9.344244 -5.91813,18.298315 -14.625,19.5625 -9.44692,1.371871 -17.25,-6.752782 -17.25,-18.3125 0,-10.836854 7.41742,-19.216923 15.59375,-19.59375 z m 1.0625,13.25 c -2.58687,0.114725 -4.9375,2.638257 -4.9375,5.9375 0,3.519317 2.44864,6.011412 5.4375,5.59375 2.75472,-0.384876 4.625,-3.123925 4.625,-5.96875 0,-2.844699 -1.84173,-5.330534 -4.625,-5.5625 -0.17396,-0.0145 -0.32754,-0.0076 -0.5,0 z M 92.25,76.53125 l 14.90625,17.1875 c -3.2061,3.890763 -7.04812,7.28168 -11.65625,10.0625 l -8.09375,-22.5 c 1.84265,-1.299239 3.47959,-2.900471 4.84375,-4.75 z m -8.0625,6.625 4.5625,24.03125 c -2.432,0.98857 -5.03344,1.81092 -7.84375,2.5 L 80.375,84.34375 c 1.33237,-0.263437 2.60492,-0.652308 3.8125,-1.1875 z"
       id="path30941"
       inkscape:connector-curvature="0" />
  </g>
</svg>
