<?xml version="1.0" encoding="UTF-8" standalone="no"?>
<!-- Created with Inkscape (http://www.inkscape.org/) -->

<svg
   xmlns:dc="http://purl.org/dc/elements/1.1/"
   xmlns:cc="http://creativecommons.org/ns#"
   xmlns:rdf="http://www.w3.org/1999/02/22-rdf-syntax-ns#"
   xmlns:svg="http://www.w3.org/2000/svg"
   xmlns="http://www.w3.org/2000/svg"
   xmlns:xlink="http://www.w3.org/1999/xlink"
   xmlns:sodipodi="http://sodipodi.sourceforge.net/DTD/sodipodi-0.dtd"
   xmlns:inkscape="http://www.inkscape.org/namespaces/inkscape"
   width="128"
   height="128"
   id="svg6934"
   sodipodi:version="0.32"
   inkscape:version="0.48.3.1 r9886"
   version="1.0"
   sodipodi:docname="gimp.svg"
   inkscape:output_extension="org.inkscape.output.svg.inkscape">
  <defs
     id="defs6936">
    <linearGradient
       inkscape:collect="always"
       xlink:href="#linearGradient5316-22"
       id="linearGradient31121"
       gradientUnits="userSpaceOnUse"
       gradientTransform="translate(-88.568223,-33.91079)"
       x1="275.29071"
       y1="1103.7349"
       x2="275.29071"
       y2="1121.6162" />
    <linearGradient
       id="linearGradient5316-22">
      <stop
         style="stop-color:#aac736;stop-opacity:1;"
         offset="0"
         id="stop5320-3" />
      <stop
         style="stop-color:#5d8b2c;stop-opacity:1;"
         offset="1"
         id="stop5322-7" />
    </linearGradient>
    <linearGradient
       inkscape:collect="always"
       xlink:href="#linearGradient5165-7-9-8-2-68"
       id="linearGradient31123"
       gradientUnits="userSpaceOnUse"
       gradientTransform="translate(-88.568223,-33.91079)"
       x1="275.29071"
       y1="1094.0099"
       x2="275.29071"
       y2="1117.1519" />
    <linearGradient
       id="linearGradient5165-7-9-8-2-68">
      <stop
         id="stop5167-4-8-6-9-41"
         style="stop-color:#ffffff;stop-opacity:1"
         offset="0" />
      <stop
         id="stop5169-5-5-2-9-60"
         style="stop-color:#ffffff;stop-opacity:0"
         offset="1" />
    </linearGradient>
    <linearGradient
       inkscape:collect="always"
       xlink:href="#linearGradient5316-22"
       id="linearGradient31125"
       gradientUnits="userSpaceOnUse"
       gradientTransform="translate(-88.568223,-33.91079)"
       x1="280.65372"
       y1="1100.6647"
       x2="292.69617"
       y2="1118.8726" />
    <linearGradient
       inkscape:collect="always"
       xlink:href="#linearGradient5344-61"
       id="linearGradient31127"
       gradientUnits="userSpaceOnUse"
       gradientTransform="translate(-88.568223,-33.91079)"
       x1="317.94461"
       y1="1142.4757"
       x2="283.81964"
       y2="1103.8007" />
    <linearGradient
       id="linearGradient5344-61">
      <stop
         style="stop-color:#000000;stop-opacity:1;"
         offset="0"
         id="stop5346-14" />
      <stop
         style="stop-color:#000000;stop-opacity:0;"
         offset="1"
         id="stop5348-1" />
    </linearGradient>
    <linearGradient
       inkscape:collect="always"
       xlink:href="#linearGradient5344-61"
       id="linearGradient3146"
       gradientUnits="userSpaceOnUse"
       gradientTransform="matrix(5.334059,0,0,5.334059,-1451.5325,-5864.5296)"
       x1="317.94461"
       y1="1142.4757"
       x2="283.81964"
       y2="1103.8007" />
    <linearGradient
       inkscape:collect="always"
       xlink:href="#linearGradient5316-22"
       id="linearGradient3149"
       gradientUnits="userSpaceOnUse"
       gradientTransform="matrix(5.334059,0,0,5.334059,-1451.5325,-5864.5296)"
       x1="280.65372"
       y1="1100.6647"
       x2="292.69617"
       y2="1118.8726" />
    <linearGradient
       inkscape:collect="always"
       xlink:href="#linearGradient5165-7-9-8-2-68"
       id="linearGradient3152"
       gradientUnits="userSpaceOnUse"
       gradientTransform="matrix(5.334059,0,0,5.334059,-1451.5325,-5864.5296)"
       x1="275.29071"
       y1="1094.0099"
       x2="275.29071"
       y2="1117.1519" />
    <linearGradient
       inkscape:collect="always"
       xlink:href="#linearGradient5316-22"
       id="linearGradient3155"
       gradientUnits="userSpaceOnUse"
       gradientTransform="matrix(5.334059,0,0,5.334059,-1451.5325,-5864.5296)"
       x1="275.29071"
       y1="1103.7349"
       x2="275.29071"
       y2="1121.6162" />
    <linearGradient
       inkscape:collect="always"
       xlink:href="#linearGradient5344"
       id="linearGradient3105"
       x1="7.9531264"
       y1="2.2416961"
       x2="13.667412"
       y2="-64.464973"
       gradientUnits="userSpaceOnUse"
       gradientTransform="translate(-4.0351795e-8,140)" />
    <linearGradient
       id="linearGradient5344">
      <stop
         style="stop-color:#000000;stop-opacity:1;"
         offset="0"
         id="stop5346" />
      <stop
         style="stop-color:#000000;stop-opacity:0;"
         offset="1"
         id="stop5348" />
    </linearGradient>
    <linearGradient
       inkscape:collect="always"
       xlink:href="#linearGradient5165-7-9-8-2"
       id="linearGradient3103"
       x1="22.933788"
       y1="-144.76825"
       x2="18.618809"
       y2="-96.331688"
       gradientUnits="userSpaceOnUse"
       gradientTransform="translate(-4.0351795e-8,140)" />
    <linearGradient
       id="linearGradient5165-7-9-8-2">
      <stop
         id="stop5167-4-8-6-9"
         style="stop-color:#ffffff;stop-opacity:1"
         offset="0" />
      <stop
         id="stop5169-5-5-2-9"
         style="stop-color:#ffffff;stop-opacity:0"
         offset="1" />
    </linearGradient>
    <linearGradient
       inkscape:collect="always"
       xlink:href="#linearGradient5344"
       id="linearGradient3107"
       gradientUnits="userSpaceOnUse"
       gradientTransform="matrix(5.3340639,0,0,5.3340639,-1451.4802,-5864.5574)"
       x1="305.23422"
       y1="1137.0681"
       x2="283.35095"
       y2="1104.2024" />
    <linearGradient
       id="linearGradient3069">
      <stop
         style="stop-color:#000000;stop-opacity:1;"
         offset="0"
         id="stop3071" />
      <stop
         style="stop-color:#000000;stop-opacity:0;"
         offset="1"
         id="stop3073" />
    </linearGradient>
  </defs>
  <sodipodi:namedview
     id="base"
     pagecolor="#ffffff"
     bordercolor="#666666"
     borderopacity="1.0"
     inkscape:pageopacity="0.0"
     inkscape:pageshadow="2"
     inkscape:zoom="1.979899"
     inkscape:cx="93.008776"
     inkscape:cy="66.413003"
     inkscape:document-units="px"
     inkscape:current-layer="layer1"
     showgrid="false"
     inkscape:window-width="1280"
     inkscape:window-height="713"
     inkscape:window-x="0"
     inkscape:window-y="0"
     inkscape:window-maximized="0" />
  <metadata
     id="metadata6939">
    <rdf:RDF>
      <cc:Work
         rdf:about="">
        <dc:format>image/svg+xml</dc:format>
        <dc:type
           rdf:resource="http://purl.org/dc/dcmitype/StillImage" />
        <dc:title />
      </cc:Work>
    </rdf:RDF>
  </metadata>
  <g
     inkscape:label="Capa 1"
     inkscape:groupmode="layer"
     id="layer1">
    <path
       style="fill:#00c721;fill-opacity:1;fill-rule:evenodd;stroke:none"
       d="m 34.21875,5.0625028 c -1.32927,0.0554 -2.550557,0.27966 -3.65625,0.625 l -18.34375,2.71875 -0.5,0 0,0.1875 C 6.0032494,9.6428228 3.0625,14.185733 3.0625,19.750003 l 0,84.687497 c -0.07024,5.65226 2.0501037,10.0952 6.3125,11.5 l 18.96875,5.9375 c 0.02087,0.0102 0.04153,0.0212 0.0625,0.0313 1.892721,0.90932 4.164425,1.2325 6.78125,0.8125 l 78.28125,-11.8125 c 5.72052,-0.61974 9.4668,-6.06393 9.15625,-13.624997 l 0.40625,-74.2813 c 0.22248,-5.96534 -2.80168,-10.97622 -9.34375,-11.96875 L 35.84375,5.0937528 c -0.55631,-0.0273 -1.103066,-0.053 -1.625,-0.0313 z"
       id="path30949"
       inkscape:connector-curvature="0" />
    <path
       style="fill:url(#linearGradient3107);fill-rule:evenodd;stroke:none"
       d="M 29.25,16.718753 29.21875,113.125 c 0.448699,3.45828 1.407546,8.12456 4.34375,9.75 0.527128,-0.0229 1.067503,-0.0668 1.625,-0.15625 l 78.28125,-11.8125 c 5.72052,-0.61974 9.4668,-6.06393 9.15625,-13.624997 l 0.40625,-74.28125 c 0.22245,-5.96534 -2.80168,-10.97622 -9.34375,-11.96875 L 37.678453,5.2336928 C 33.707189,4.8130228 29.262938,10.014263 29.25,16.718753 z M 30.15625,122.5 c 0.647964,0.17153 1.314675,0.32617 2.03125,0.375 z"
       id="path30953"
       inkscape:connector-curvature="0"
       sodipodi:nodetypes="ccccccccccccc" />
    <path
       style="fill:url(#linearGradient3103);fill-rule:evenodd;stroke:none;display:inline"
       d="m 34.78125,5.3125028 -22.5625,3.09375 -0.5,0 0,0.1875 C 6.003249,9.6428228 3.0625,14.185733 3.0625,19.750003 l 0,25 26.1875,0 0,-28.03125 c 0.347051,-4.91678 2.274064,-9.9637802 5.53125,-11.4062502 z"
       id="path3073"
       inkscape:connector-curvature="0" />
    <path
       style="fill:url(#linearGradient3105);fill-rule:evenodd;stroke:none;display:inline"
       d="m 3.0625,68.406253 0,36.031247 c -0.07024,5.65226 2.050104,10.0952 6.3125,11.5 l 17.65625,6.03125 7.5,1.3125 c -3.710844,-1.04488 -4.81745,-6.34073 -5.3125,-10.15625 l 0,-44.718747 -26.15625,0 z"
       id="path3081"
       inkscape:connector-curvature="0" />
    <path
       inkscape:connector-curvature="0"
       id="path30957"
       d="m 35.825012,5.0844328 c -1.734374,-0.0853 -3.26759,0.13333 -4.667303,0.50133 L 11.65504,8.5863028 C 5.9395447,9.6353728 2.9871862,14.190033 2.9871862,19.754303 l 0,84.678437 c -0.07024,5.65226 2.0718035,10.09707 6.3341998,11.50187 l 19.669357,6.16693 c 1.792241,0.74027 3.774988,1.0512 6.167512,0.6672 l 78.344065,-11.8352 c 5.72052,-0.6192 9.47847,-6.1072 9.16792,-13.668267 l 0.33339,-74.34403 c 0.22245,-5.96534 -2.79254,-10.84214 -9.33461,-11.83467 L 35.825018,5.0855028 z"
       style="fill:none;stroke:#344b63;stroke-width:2.667032;stroke-linecap:butt;stroke-linejoin:miter;stroke-miterlimit:4;stroke-opacity:1;stroke-dasharray:none;display:inline"
       sodipodi:nodetypes="ccccccccccccc" />
    <path
       inkscape:connector-curvature="0"
       d="m 101.65745,16.294334 c 3.29859,12.105108 2.24345,28.778843 -6.059968,35.911547 1.511672,2.763042 3.569019,5.043886 5.931048,6.691043 0.13868,-1.800778 0.60978,-3.691168 1.48276,-5.493547 2.61513,-5.347394 7.64189,-7.815997 11.21742,-5.618364 3.57553,2.154426 4.35579,8.058696 1.74061,13.278073 -0.47473,0.956396 -1.02254,1.825848 -1.63313,2.600887 -0.0213,0 -0.0427,0.05334 -0.0645,0.07468 -5.96839,10.467557 -17.379486,26.2185 -40.335462,28.524947 -3.443082,0.378718 -6.718194,-0.19736 -9.713161,-1.496737 0,0 18.179966,-9.446618 18.179966,-9.446618 -4.053564,0.277371 -7.571856,0 -9.799093,-1.549545 0,0 -14.806174,6.274987 -14.806174,6.274987 1.479935,2.024276 3.313091,3.961073 6.059971,4.760648 0,0 -3.524266,1.879722 -3.524266,1.879722 0.04797,9.846133 -13.826508,23.966453 -26.775736,17.748013 12.782859,0.0693 5.286266,-28.928737 23.186994,-24.945795 C 51.686281,80.343042 48.245973,73.247143 47.396898,67.12471 33.584672,58.410992 34.540375,32.348779 33.708155,15.950284 c 23.773368,33.956617 48.103558,31.270919 67.949185,0.34671 0,0 6e-5,0 6e-5,0 0,0 0,0 0,0 M 88.076138,40.500288 c -4.270341,-0.06401 -7.736145,4.064553 -7.736145,9.209787 0,5.145766 3.465804,9.208186 7.736145,9.0679 4.270395,-0.138686 7.736146,-4.266714 7.7362,-9.21032 0,-4.944139 -3.465805,-9.006558 -7.7362,-9.067367 0,0 0,0 0,0 0,0 0,0 0,0 m -17.363375,1.660493 c -4.887172,-0.05334 -8.853578,4.916935 -8.853578,11.081507 0,6.164039 3.966406,10.990829 8.853578,10.773733 4.887225,-0.218697 8.853578,-5.180972 8.853578,-11.081508 0,-5.900002 -3.966353,-10.726259 -8.853578,-10.773732 0,0 0,0 0,0 0,0 0,0 0,0 m 17.98666,4.633697 c 2.20302,-0.0043 3.996917,2.367255 3.996917,5.284986 0,2.91773 -1.793897,5.320723 -3.996917,5.385799 -2.203126,0.06401 -3.975581,-2.281911 -3.975527,-5.260449 0,-2.978539 1.772347,-5.406069 3.975527,-5.410336 0,0 0,0 0,0 m -16.761747,3.020144 c 2.471536,0 4.469835,2.71717 4.469835,6.129367 0,3.413265 -1.998299,6.278721 -4.469835,6.378468 -2.471483,0.101347 -4.491277,-2.665963 -4.491277,-6.156037 0,-3.489542 2.019794,-6.328861 4.491277,-6.351798 0,0 0,0 0,0 0,0 0,0 0,0"
       id="path31019"
       style="fill:#000000;fill-opacity:0.55601663;stroke:#000000;stroke-width:5.33405876;stroke-linecap:round;stroke-linejoin:round;stroke-opacity:0.56431538;overflow:visible" />
    <path
       inkscape:connector-curvature="0"
       style="fill:#ffffff;fill-opacity:1;stroke:none;overflow:visible"
       id="path31021"
       d="m 103.07188,16.294334 c 3.29859,12.105108 2.24346,28.778843 -6.059966,35.911547 1.511672,2.763042 3.569016,5.043886 5.931046,6.691043 0.13868,-1.800778 0.60979,-3.691168 1.48276,-5.493547 2.61513,-5.347394 7.6419,-7.815997 11.21742,-5.618364 3.57553,2.154426 4.3558,8.058696 1.74061,13.278073 -0.47473,0.956396 -1.02254,1.825848 -1.63313,2.600887 -0.0213,0 -0.0427,0.05334 -0.0645,0.07468 -5.96838,10.467557 -17.379483,26.2185 -40.335459,28.524947 -3.443082,0.378718 -6.718194,-0.19736 -9.713162,-1.496737 0,0 18.179967,-9.446618 18.179967,-9.446618 -4.053565,0.277371 -7.571857,0 -9.799093,-1.549545 0,0 -14.806175,6.274987 -14.806175,6.274987 1.479935,2.024276 3.313091,3.961073 6.059971,4.760648 0,0 -3.524266,1.879722 -3.524266,1.879722 0.04801,9.846143 -13.826467,23.966463 -26.775696,17.748023 12.782859,0.0693 5.286266,-28.928744 23.186995,-24.945802 C 53.100714,80.343042 49.660406,73.247143 48.81133,67.12471 34.999104,58.410992 35.954808,32.348779 35.122588,15.950284 c 23.773367,33.956617 48.103557,31.270919 67.949182,0.34671 0,0 6e-5,0 6e-5,0 0,0 0,0 0,0 M 89.490571,40.500288 c -4.270341,-0.06401 -7.736146,4.064553 -7.736146,9.209787 0,5.145766 3.465805,9.208186 7.736146,9.0679 4.270394,-0.138686 7.736146,-4.266714 7.736199,-9.21032 0,-4.944139 -3.465805,-9.006558 -7.736199,-9.067367 0,0 0,0 0,0 0,0 0,0 0,0 m -17.363376,1.660493 c -4.887171,-0.05334 -8.853577,4.916935 -8.853577,11.081507 0,6.164039 3.966406,10.990829 8.853577,10.773733 4.887225,-0.218697 8.853578,-5.180972 8.853578,-11.081508 0,-5.900002 -3.966353,-10.726259 -8.853578,-10.773732 0,0 0,0 0,0 0,0 0,0 0,0 m 17.986661,4.633697 c 2.203019,-0.0043 3.996917,2.367255 3.996917,5.284986 0,2.91773 -1.793898,5.320723 -3.996917,5.385799 -2.203127,0.06401 -3.975581,-2.281911 -3.975528,-5.260449 0,-2.978539 1.772348,-5.406069 3.975528,-5.410336 0,0 0,0 0,0 m -16.761747,3.020144 c 2.471536,0 4.469834,2.71717 4.469834,6.129367 0,3.413265 -1.998298,6.278721 -4.469834,6.378468 -2.471483,0.101347 -4.491278,-2.665963 -4.491278,-6.156037 0,-3.489542 2.019795,-6.328861 4.491278,-6.351798 0,0 0,0 0,0 0,0 0,0 0,0" />
  </g>
</svg>
