<?xml version="1.0" encoding="UTF-8" standalone="no"?>
<!-- Created with Inkscape (http://www.inkscape.org/) -->

<svg
   xmlns:dc="http://purl.org/dc/elements/1.1/"
   xmlns:cc="http://creativecommons.org/ns#"
   xmlns:rdf="http://www.w3.org/1999/02/22-rdf-syntax-ns#"
   xmlns:svg="http://www.w3.org/2000/svg"
   xmlns="http://www.w3.org/2000/svg"
   xmlns:xlink="http://www.w3.org/1999/xlink"
   xmlns:sodipodi="http://sodipodi.sourceforge.net/DTD/sodipodi-0.dtd"
   xmlns:inkscape="http://www.inkscape.org/namespaces/inkscape"
   width="128"
   height="128"
   id="svg6934"
   sodipodi:version="0.32"
   inkscape:version="0.48.3.1 r9886"
   version="1.0"
   sodipodi:docname="huayra-preciosa.svg"
   inkscape:output_extension="org.inkscape.output.svg.inkscape">
  <defs
     id="defs6936">
    <linearGradient
       id="linearGradient5344">
      <stop
         style="stop-color:#000000;stop-opacity:1;"
         offset="0"
         id="stop5346" />
      <stop
         style="stop-color:#000000;stop-opacity:0;"
         offset="1"
         id="stop5348" />
    </linearGradient>
    <linearGradient
       id="linearGradient5165-7-9-8-2">
      <stop
         id="stop5167-4-8-6-9"
         style="stop-color:#ffffff;stop-opacity:1"
         offset="0" />
      <stop
         id="stop5169-5-5-2-9"
         style="stop-color:#ffffff;stop-opacity:0"
         offset="1" />
    </linearGradient>
    <linearGradient
       inkscape:collect="always"
       xlink:href="#linearGradient5344"
       id="linearGradient3107"
       gradientUnits="userSpaceOnUse"
       gradientTransform="matrix(5.3340639,0,0,5.3340639,-1451.4802,-5864.5574)"
       x1="305.23422"
       y1="1137.0681"
       x2="283.35095"
       y2="1104.2024" />
    <linearGradient
       inkscape:collect="always"
       xlink:href="#linearGradient5165-7-9-8-2"
       id="linearGradient3092"
       gradientUnits="userSpaceOnUse"
       gradientTransform="translate(-40,140)"
       x1="22.933788"
       y1="-144.76825"
       x2="18.618809"
       y2="-96.331688" />
    <linearGradient
       inkscape:collect="always"
       xlink:href="#linearGradient5344"
       id="linearGradient3094"
       gradientUnits="userSpaceOnUse"
       gradientTransform="translate(-40,140)"
       x1="7.9531264"
       y1="2.2416961"
       x2="13.667412"
       y2="-64.464973" />
  </defs>
  <sodipodi:namedview
     id="base"
     pagecolor="#ffffff"
     bordercolor="#666666"
     borderopacity="1.0"
     inkscape:pageopacity="0.0"
     inkscape:pageshadow="2"
     inkscape:zoom="2.8"
     inkscape:cx="31.206487"
     inkscape:cy="44.034472"
     inkscape:document-units="px"
     inkscape:current-layer="layer1"
     showgrid="false"
     inkscape:window-width="1366"
     inkscape:window-height="717"
     inkscape:window-x="0"
     inkscape:window-y="0"
     inkscape:window-maximized="1" />
  <metadata
     id="metadata6939">
    <rdf:RDF>
      <cc:Work
         rdf:about="">
        <dc:format>image/svg+xml</dc:format>
        <dc:type
           rdf:resource="http://purl.org/dc/dcmitype/StillImage" />
        <dc:title />
      </cc:Work>
    </rdf:RDF>
  </metadata>
  <g
     inkscape:label="Capa 1"
     inkscape:groupmode="layer"
     id="layer1">
    <path
       style="fill:#ff0000;fill-opacity:1;fill-rule:evenodd;stroke:none"
       d="m 34.21875,5.062503 c -1.32927,0.0554 -2.55056,0.27966 -3.65625,0.625 l -18.34375,2.71875 -0.5,0 0,0.1875 c -5.7155,1.04907 -8.65625,5.59198 -8.65625,11.15625 l 0,84.687497 c -0.0702,5.65226 2.0501,10.0952 6.3125,11.5 l 18.96875,5.9375 c 0.0209,0.0102 0.0415,0.0212 0.0625,0.0313 1.89272,0.90932 4.16442,1.2325 6.78125,0.8125 l 78.28125,-11.8125 c 5.72052,-0.61974 9.4668,-6.06393 9.15625,-13.625 l 0.40625,-74.281297 c 0.22248,-5.96534 -2.80168,-10.97622 -9.34375,-11.96875 l -77.84375,-5.9375 c -0.55631,-0.0273 -1.10307,-0.053 -1.625,-0.0313 z"
       id="path30949"
       inkscape:connector-curvature="0" />
    <path
       style="fill:url(#linearGradient3107);fill-rule:evenodd;stroke:none"
       d="M 29.25,16.718753 29.2187,113.125 c 0.4487,3.45828 1.40755,8.12456 4.34375,9.75 0.52713,-0.0229 1.0675,-0.0668 1.625,-0.15625 l 78.28125,-11.8125 c 5.72052,-0.61974 9.4668,-6.06393 9.15625,-13.625 l 0.40625,-74.281247 c 0.22245,-5.96534 -2.80168,-10.97622 -9.34375,-11.96875 L 37.6784,5.233693 c -3.97126,-0.42067 -8.41551,4.78057 -8.42845,11.48506 z M 30.15625,122.5 c 0.64796,0.17153 1.31467,0.32617 2.03125,0.375 z"
       id="path30953"
       inkscape:connector-curvature="0"
       sodipodi:nodetypes="ccccccccccccc" />
    <g
       id="g3087"
       transform="translate(40,0)">
      <path
         inkscape:connector-curvature="0"
         id="path3073"
         d="m -5.21875,5.312503 -22.5625,3.09375 -0.5,0 0,0.1875 c -5.715501,1.04907 -8.65625,5.59198 -8.65625,11.15625 l 0,25 26.1875,0 0,-28.03125 c 0.347051,-4.91678 2.274064,-9.96378 5.53125,-11.40625 z"
         style="fill:url(#linearGradient3092);fill-rule:evenodd;stroke:none;display:inline" />
      <path
         inkscape:connector-curvature="0"
         id="path3081"
         d="m -36.9375,68.406253 0,36.031247 c -0.07024,5.65226 2.050104,10.0952 6.3125,11.5 l 17.65625,6.03125 7.5,1.3125 c -3.710844,-1.04488 -4.81745,-6.34073 -5.3125,-10.15625 l 0,-44.718747 -26.15625,0 z"
         style="fill:url(#linearGradient3094);fill-rule:evenodd;stroke:none;display:inline" />
    </g>
    <path
       inkscape:connector-curvature="0"
       id="path30957"
       d="m 35.825012,5.0844328 c -1.734374,-0.0853 -3.26759,0.13333 -4.667303,0.50133 L 11.65504,8.5863028 C 5.9395447,9.6353728 2.9871862,14.190033 2.9871862,19.754303 l 0,84.678437 c -0.07024,5.65226 2.0718035,10.09707 6.3341998,11.50187 l 19.669357,6.16693 c 1.792241,0.74027 3.774988,1.0512 6.167512,0.6672 l 78.344065,-11.8352 c 5.72052,-0.6192 9.47847,-6.1072 9.16792,-13.66827 l 0.33339,-74.344027 c 0.22245,-5.96534 -2.79254,-10.84214 -9.33461,-11.83467 L 35.825018,5.0855028 z"
       style="fill:none;stroke:#344b63;stroke-width:2.667032;stroke-linecap:butt;stroke-linejoin:miter;stroke-miterlimit:4;stroke-opacity:1;stroke-dasharray:none;display:inline"
       sodipodi:nodetypes="ccccccccccccc" />
    <path
       id="path3052"
       d="m 67.089733,14.6875 c -3.062519,-0.108337 -6.037125,1.704755 -7.254212,4.5625 -1.073545,2.34178 -0.647338,5.021613 -0.728456,7.5625 3.16e-4,1.670027 0,3.361563 0,5.03125 -3.764379,0.06481 -7.066589,0.10144 -8.134431,0.125 -0.494312,-0.0024 -0.933783,0.270708 -1.305151,0.59375 -6.517003,5.589759 -11.453175,9.784941 -17.968593,15.375 l -0.51599,6.96875 c 7.337054,-6.292934 12.941487,-12.328205 20.275372,-18.625 0.258246,-0.285574 0.664798,-0.202954 1.001627,-0.21875 2.039673,-0.02886 4.308687,-0.08685 6.647166,-0.125 2.158497,-0.03543 4.375746,-0.05599 6.556108,-0.09375 2.789062,-0.04836 5.483739,-0.113999 7.891611,-0.15625 0.528534,-0.01609 0.866509,0.501035 1.062333,0.9375 0.443614,1.104662 0.500646,2.452349 0,3.5625 -0.209449,0.499089 -0.670668,0.862708 -1.214094,0.8125 -2.289047,0.03992 -4.992615,0.0842 -7.73985,0.125 -2.216802,0.03381 -4.459717,0.05479 -6.556108,0.09375 -1.245604,0.02264 -2.454232,0.06774 -3.551226,0.09375 -0.806743,0.05798 -1.705098,-0.144104 -2.428188,0.34375 -0.803575,0.498345 -1.136447,1.618165 -0.789161,2.5 0.291201,0.79013 1.08581,1.327162 1.912198,1.28125 1.603664,-0.01564 3.192008,-0.06147 4.795672,-0.09375 -0.08366,2.323248 -0.371496,4.653876 -1.092685,6.875 -0.859027,2.74021 -2.445921,5.290068 -4.734967,7 -2.72759,2.062491 -6.16311,2.899057 -9.469934,3.0625 -1.110936,0.03734 -2.03711,1.14693 -1.881846,2.28125 0.07573,1.050187 1.076853,1.878995 2.094313,1.78125 2.948763,-0.142396 5.886841,-0.738446 8.589715,-2.03125 2.585001,-1.205994 4.857702,-3.127724 6.556109,-5.46875 -3.17e-4,13.664484 -0.0045,30.36674 0,44.03125 -0.0263,2.47067 0.963711,4.8225 2.822768,6.15625 1.551064,1.22811 3.668089,1.61725 5.736595,1.28125 11.315635,-1.55748 22.618616,-3.15023 33.933932,-4.71875 1.39231,-0.18039 2.80866,-0.33611 4.18862,-0.75 2.67658,-0.8508 4.98123,-3.22743 6.00977,-5.9375 0.77791,-2.177739 0.56496,-4.391387 0.57669,-6.5625 0.005,-5.917685 -9.7e-4,-8.363598 0,-14.28125 1.21234,-0.01556 2.48643,0.03125 3.61193,-0.53125 1.45823,-0.669572 2.45057,-2.120662 2.91383,-3.65625 0.73608,-2.452351 0.37839,-5.21705 -1.03198,-7.3125 1.8505,-2.67766 1.85714,-6.500664 0.15176,-9.1875 -0.0992,-0.116099 -0.1124,-0.254213 -0.0304,-0.375 1.79315,-2.74455 1.67332,-6.591423 -0.12141,-9.25 1.56564,-2.28039 1.79546,-5.345828 0.81951,-7.875 -0.56434,-1.480082 -1.66325,-2.803641 -3.15664,-3.3125 -1.00826,-0.359143 -2.10242,-0.222832 -3.15665,-0.21875 0,-3.605582 -0.002,-3.863256 0,-7.46875 -0.071,-1.817508 0.14401,-3.628263 -0.21246,-5.4375 -0.5466,-3.001007 -2.83518,-5.677184 -5.67589,-6.59375 C 105.49524,16.49591 104.45,16.414297 103.42145,16.375 91.309891,15.829339 79.201337,15.204123 67.089733,14.6875 z m 12.839045,6.25 13.081864,0.625 c 0.904022,0.04199 1.639027,0.819569 1.639027,1.75 0,0.930431 -0.736424,1.666928 -1.639027,1.625 l -13.081864,-0.625 c -0.903704,-0.04198 -1.639027,-0.819569 -1.639027,-1.75 0,-0.93043 0.735639,-1.666966 1.639027,-1.625 z m -14.265605,7.75 c 13.388261,0.61769 26.767898,1.261551 40.156167,1.875 -0.0123,20.938687 -0.006,32.715215 0,53.65625 l -40.156167,5.5625 0,-44.53125 c 2.278274,-0.04202 5.486728,-0.09518 7.254212,-0.125 1.140403,0.02089 2.328337,-0.186812 3.308406,-0.84375 1.546628,-1.004479 2.393815,-2.818697 2.640655,-4.625 0.291834,-2.21225 -0.1708,-4.626688 -1.578322,-6.34375 -0.869166,-1.075299 -2.181726,-1.713144 -3.551225,-1.71875 -0.952502,0.01052 -4.256431,0.06125 -8.073726,0.125 3.16e-4,-1.144775 0,-1.886807 0,-3.03125 z M 84.967269,35.75 c -0.58557,0.0099 -1.123037,0.568953 -1.123037,1.1875 l 0,0.375 c -1.667353,0.414397 -2.762064,1.593124 -2.762064,3.0625 0,0.973817 0.293764,1.717638 0.849866,2.1875 0.555784,0.470194 1.48484,0.805254 2.731711,1.0625 1.141989,0.22835 1.66938,0.427006 1.66938,0.90625 0,0.510888 -0.403165,0.767058 -1.244447,0.78125 -0.67651,0.01141 -1.508559,-0.27812 -2.033607,-0.6875 -0.300707,-0.242215 -0.625324,-0.349074 -0.940923,-0.34375 -0.705979,0.01191 -1.274799,0.600906 -1.274799,1.34375 0,0.433244 0.202024,0.823328 0.637399,1.15625 0.570995,0.485271 1.361115,0.800098 2.367484,0.96875 l 0,0.4375 c 0,0.618547 0.537467,1.197378 1.123037,1.1875 0.616306,-0.0104 1.062332,-0.55355 1.062332,-1.21875 l 0,-0.40625 c 1.862862,-0.341025 2.944178,-1.672896 2.944178,-3.28125 0,-0.882147 -0.293196,-1.561472 -0.819513,-2.0625 -0.525681,-0.501368 -1.424953,-0.900274 -2.731712,-1.1875 -0.721189,-0.157804 -0.943923,-0.194623 -1.305151,-0.3125 -0.360278,-0.132896 -0.424933,-0.298968 -0.424933,-0.53125 0,-0.417585 0.418124,-0.736572 1.214094,-0.75 0.58557,-0.0099 1.112528,0.104316 1.578323,0.34375 0.375487,0.179292 0.68496,0.253806 0.91057,0.25 0.676511,-0.01141 1.183742,-0.538214 1.183742,-1.21875 0,-0.417581 -0.154328,-0.772283 -0.424933,-1 -0.480687,-0.440468 -1.177867,-0.704502 -2.124665,-0.8125 l 0,-0.28125 c 0,-0.6652 -0.446026,-1.166647 -1.062332,-1.15625 z m 10.19839,3.875 c -0.411611,0.0069 -0.789161,0.408219 -0.789161,0.84375 l 0,0.25 c -1.172724,0.29154 -1.94255,1.122728 -1.94255,2.15625 0,0.685426 0.215717,1.200522 0.607047,1.53125 0.390697,0.330413 1.035427,0.569371 1.912198,0.75 0.803257,0.16066 1.183742,0.319246 1.183742,0.65625 0,0.359188 -0.318346,0.52126 -0.910571,0.53125 -0.4753,0.008 -1.05646,-0.181706 -1.42656,-0.46875 -0.21135,-0.17032 -0.41591,-0.284987 -0.6374,-0.28125 -0.496848,0.0084 -0.91057,0.446117 -0.91057,0.96875 0,0.30438 0.149191,0.578532 0.455285,0.8125 0.401787,0.341318 0.961499,0.569273 1.669379,0.6875 l 0,0.3125 c 0,0.434875 0.37755,0.819444 0.789161,0.8125 0.433157,-0.0073 0.758809,-0.375925 0.758809,-0.84375 l 0,-0.28125 c 1.310879,-0.239714 2.06396,-1.181103 2.06396,-2.3125 0,-0.620501 -0.206277,-1.084234 -0.576695,-1.4375 -0.369467,-0.352955 -1.023002,-0.641661 -1.94255,-0.84375 -0.506987,-0.11085 -0.626724,-0.136574 -0.880218,-0.21875 -0.254128,-0.09424 -0.333876,-0.211555 -0.333876,-0.375 0,-0.293614 0.320314,-0.521805 0.880218,-0.53125 0.411927,-0.0069 0.765994,0.08195 1.092685,0.25 0.264583,0.126032 0.478966,0.190172 0.637399,0.1875 0.4753,-0.008 0.849866,-0.396083 0.849866,-0.875 0,-0.293288 -0.113089,-0.526941 -0.303524,-0.6875 -0.33778,-0.309774 -0.821527,-0.517878 -1.487265,-0.59375 l 0,-0.1875 c 0,-0.467825 -0.325652,-0.819807 -0.758809,-0.8125 z m 18.150711,0.78125 c 0.30827,-0.0043 0.6078,0.0074 0.91057,0.0625 0.77569,0.452457 0.97108,1.46843 1.06233,2.3125 0.0491,0.969403 -0.0579,2.176701 -0.91057,2.78125 -0.63563,0.214948 -1.3372,0.140773 -2.00326,0.15625 3.1e-4,-1.758755 -6.3e-4,-3.523469 0,-5.28125 0.30768,-0.0035 0.63265,-0.0269 0.94093,-0.03125 z m 0,9.4375 c 0.311,-0.0062 0.60479,-0.01824 0.91057,0.03125 0.51712,0.289132 0.75974,0.910165 0.91057,1.46875 0.21547,0.878187 0.21791,1.823304 -0.091,2.6875 -0.17713,0.443083 -0.46746,0.958482 -0.97128,1.03125 -0.56718,0.0585 -1.13158,0.06205 -1.69973,0.0625 -3.2e-4,-1.750588 0,-3.499407 0,-5.25 0.31054,-0.0033 0.62992,-0.02507 0.94092,-0.03125 z M 90.885978,50.75 c -0.467697,-8.7e-5 -0.875547,0.326386 -1.274799,0.5625 -1.343516,0.819401 -2.693664,1.615516 -4.036863,2.4375 1.420831,1.059584 2.853147,2.135609 4.279682,3.1875 1.539022,-0.129487 3.074535,-0.294323 4.613557,-0.4375 -0.86568,-1.711404 -1.706981,-3.418823 -2.57995,-5.125 -0.175861,-0.385033 -0.573857,-0.639568 -1.001627,-0.625 z m -9.166411,2.03125 c -0.382775,0.04051 -0.768731,0.258507 -1.001627,0.59375 -1.134067,1.557646 -2.27934,3.117414 -3.399464,4.6875 3.549226,-0.318245 7.10445,-0.638763 10.653676,-0.96875 -1.696189,-1.262708 -3.400472,-2.521709 -5.099195,-3.78125 -0.333344,-0.259861 -0.697101,-0.539917 -1.15339,-0.53125 z m -11.898122,1.9375 c -0.388043,0.01397 -0.797164,0.07113 -1.183742,0.09375 -0.468962,0.07132 -0.964001,0.0054 -1.396208,0.28125 -0.487974,0.302202 -0.689316,0.955492 -0.51599,1.46875 0.144175,0.508426 0.673269,0.803135 1.183742,0.75 0.615988,-0.07239 1.23487,-0.09783 1.851493,-0.15625 0.636586,-0.05414 1.277349,0.159507 1.699732,0.625 0.590006,0.597185 0.933283,1.399218 1.244447,2.1875 1.130897,3.251009 2.266029,6.499521 3.399463,9.75 0.4753,1.339469 0.924193,2.700542 1.487265,4 0.409076,0.860333 0.843192,1.739644 1.578323,2.34375 0.776007,0.687271 1.8707,0.880168 2.913825,0.78125 4.163632,-0.334934 8.312136,-0.662861 12.474817,-1 0.273457,-0.01743 0.558416,0.0017 0.819514,-0.125 0.343484,-0.14736 0.645687,-0.47905 0.758809,-0.84375 0.254444,-0.677184 -0.229623,-1.461474 -0.910571,-1.5 -0.662251,-0.02372 -1.338785,0.100948 -2.003255,0.125 -3.641118,0.296816 -7.256644,0.609862 -10.896495,0.90625 -0.549446,0.06606 -1.182489,0.05771 -1.608674,-0.3125 -0.553249,-0.505206 -0.812508,-1.225577 -1.123037,-1.90625 3.617669,-0.289385 7.21812,-0.581376 10.835789,-0.875 0.492729,-0.02562 0.994221,-0.08723 1.487266,-0.15625 0.951551,-0.138852 1.856859,-0.625672 2.57995,-1.3125 1.026648,-0.985612 1.685536,-2.272811 2.246074,-3.5625 0.718971,-1.806798 1.239525,-3.70515 1.608674,-5.59375 0.174277,-0.841359 0.05329,-1.732117 -0.455285,-2.375 -0.38119,-0.489034 -0.968987,-0.74668 -1.578322,-0.8125 -0.821319,-0.04486 -1.664406,0.113454 -2.488893,0.15625 -6.280303,0.511074 -12.568825,0.984709 -18.848811,1.5 -0.259514,-0.776124 -0.607695,-1.504559 -1.03198,-2.1875 -0.678095,-1.070648 -1.676327,-1.988271 -2.974531,-2.15625 -0.376595,-0.0772 -0.765346,-0.107719 -1.153389,-0.09375 z m 43.434215,4.5 c 0.28954,-0.0062 0.56105,0.01362 0.84987,0.03125 0.42523,0.134088 0.67021,0.546109 0.84986,0.9375 0.39071,0.985825 0.47022,2.130079 0.15176,3.15625 -0.17046,0.489623 -0.49013,1.032017 -1.03197,1.125 -0.56307,0.07572 -1.13572,0.06865 -1.69974,0.0625 -3.2e-4,-1.760701 3.2e-4,-3.520549 0,-5.28125 0.28915,-0.0059 0.59068,-0.02506 0.88022,-0.03125 z M 93.799804,61.3125 c 0.571478,-0.05424 1.135221,0.335375 1.183741,0.9375 0.143858,0.745952 -0.571604,1.557528 -1.305151,1.46875 -0.604582,-0.0058 -1.080777,-0.5709 -1.03198,-1.1875 0.02535,-0.522388 0.418477,-1.038299 0.910571,-1.1875 0.0804,-0.02751 0.161179,-0.0235 0.242819,-0.03125 z m -4.704615,0.375 c 0.616692,-0.04724 1.22838,0.462285 1.183742,1.125 0.0358,0.642092 -0.559198,1.26396 -1.183742,1.28125 C 88.462723,64.18802 87.898456,63.640797 87.911447,63 c -0.01172,-0.548442 0.430133,-1.112602 0.940923,-1.28125 0.08709,-0.03074 0.15472,-0.0245 0.242819,-0.03125 z m -4.583205,0.375 c 0.595897,0.0142 1.095472,0.552672 1.03198,1.1875 -0.03328,0.593167 -0.521057,1.133292 -1.092685,1.21875 -0.699643,0.133269 -1.35725,-0.522224 -1.244446,-1.25 0.05989,-0.550615 0.502812,-1.019142 1.03198,-1.125 0.08686,-0.02122 0.188042,-0.03328 0.273171,-0.03125 z m -4.886729,0.375 c 0.575415,-0.05875 1.116089,0.373018 1.183742,0.96875 0.1071,0.659194 -0.443742,1.383924 -1.092685,1.46875 -0.590007,0.0977 -1.194064,-0.356213 -1.244446,-0.96875 -0.09062,-0.591031 0.331021,-1.243163 0.91057,-1.40625 0.08207,-0.02887 0.160617,-0.05411 0.242819,-0.0625 z m 11.837417,2.6875 c 0.617209,-0.04806 1.228381,0.462286 1.183742,1.125 0.03644,0.644651 -0.556662,1.297942 -1.183742,1.3125 -0.629931,0.09211 -1.195465,-0.486914 -1.183741,-1.125 -0.013,-0.548666 0.400415,-1.081076 0.91057,-1.25 0.08713,-0.03087 0.184999,-0.05563 0.273171,-0.0625 z m -4.856376,0.40625 c 0.696473,-0.173798 1.378664,0.459296 1.305151,1.1875 -0.03391,0.571035 -0.482533,1.110935 -1.03198,1.21875 -0.696157,0.172142 -1.381516,-0.459719 -1.305151,-1.1875 0.03612,-0.568929 0.484751,-1.109482 1.03198,-1.21875 z m -4.613558,0.375 c 0.574008,-0.05706 1.114982,0.375961 1.183742,0.96875 0.108686,0.660372 -0.441523,1.354778 -1.092685,1.4375 -0.645141,0.108013 -1.291342,-0.409445 -1.244446,-1.09375 -0.02566,-0.546994 0.391542,-1.102873 0.910571,-1.25 0.08195,-0.02853 0.160818,-0.05435 0.242818,-0.0625 z M 113.28601,68.625 c 0.30162,-0.0062 0.6105,2.65e-4 0.91057,0.03125 0.43126,0.194666 0.65443,0.660681 0.81952,1.09375 0.33556,0.956089 0.37341,2.050196 0.0607,3.03125 -0.17332,0.489345 -0.48506,1.043022 -1.03198,1.125 -0.55166,0.05074 -1.11676,0.0402 -1.66938,0.03125 3.2e-4,-1.752229 0,-3.497776 0,-5.25 0.30119,-0.01063 0.60895,-0.05631 0.91057,-0.0625 z m -19.729025,8.78125 c -0.288745,-0.0043 -0.594246,0.04645 -0.880219,0.125 -1.244653,0.327661 -2.270205,1.567997 -2.367483,2.875 -0.100447,0.883501 0.221269,1.770769 0.819514,2.34375 0.592224,0.604178 1.472401,0.870675 2.337131,0.71875 1.428752,-0.199692 2.666504,-1.650268 2.701359,-3.125 0.08143,-1.244926 -0.645065,-2.413718 -1.760436,-2.78125 -0.266644,-0.100789 -0.561122,-0.151979 -0.849866,-0.15625 z m -39.09383,0.1875 c -2.01464,0.03855 -2.051625,0.03078 -4.067216,0.0625 -0.72816,-0.02523 -1.342271,0.468467 -2.003255,0.71875 -4.868343,2.187667 -9.760856,4.376127 -14.629834,6.5625 0.603949,1.22136 1.257802,2.395028 1.942551,3.5625 4.887673,-2.194191 9.773464,-4.365389 14.660186,-6.5625 0.258247,-0.127675 0.538135,-0.155744 0.819514,-0.15625 1.746254,-0.02228 1.531483,-0.03402 3.278054,-0.0625 l 0,-4.125 z m 27.286765,0.875 c -0.244346,0.0097 -0.488055,0.05468 -0.728457,0.125 -1.322757,0.347757 -2.416253,1.673177 -2.519245,3.0625 -0.106697,0.937424 0.213394,1.85952 0.849866,2.46875 0.629067,0.639338 1.572724,0.910823 2.488893,0.75 1.518646,-0.211517 2.844766,-1.715318 2.883473,-3.28125 0.05587,-0.942992 -0.327122,-1.86489 -1.001627,-2.4375 -0.53188,-0.478625 -1.239865,-0.7167 -1.972903,-0.6875 z M 102.41987,89.25 c 0.31338,-0.04353 0.58623,0.005 0.84987,0.15625 0.30007,0.165465 0.49627,0.410167 0.54634,0.75 0.0123,0.04167 0.013,0.07915 0,0.125 l 0,0.03125 c 0,0.278282 -0.11333,0.546971 -0.33388,0.8125 l -3.00488,3.625 2.91383,2.75 c 0.24366,0.220612 0.36423,0.485678 0.36423,0.78125 l 0.0304,0.09375 c -0.0491,0.36601 -0.2566,0.688821 -0.60705,0.9375 -0.28296,0.199821 -0.58268,0.302411 -0.88022,0.34375 -0.0818,0.01136 -0.15948,0.03402 -0.24282,0.03125 -0.39513,0.01345 -0.67862,-0.08374 -0.91057,-0.3125 l -2.519244,-2.40625 -2.549597,3.09375 c -0.237968,0.29764 -0.571957,0.49034 -1.001628,0.59375 -0.07827,0.0243 -0.12818,0.0195 -0.212467,0.0313 -0.319718,0.0444 -0.610948,0.009 -0.849865,-0.125 -0.307995,-0.19797 -0.469411,-0.45724 -0.51599,-0.78125 -0.01109,-0.02846 -0.03035,-0.08781 -0.03035,-0.125 0,-0.277629 0.112703,-0.546882 0.333876,-0.8125 L 96.774334,95.25 93.830156,92.46875 c -0.235116,-0.214623 -0.364228,-0.458017 -0.364228,-0.75 0,-0.04143 0.01419,-0.06338 0.03035,-0.125 0.04817,-0.359681 0.234478,-0.704254 0.576695,-0.96875 0.281378,-0.212978 0.57761,-0.332955 0.880218,-0.375 0.06496,-0.0091 0.114304,-0.0033 0.182114,0 l 0.03035,0 c 0.396718,0.0026 0.706442,0.147568 0.940923,0.375 l 2.549598,2.40625 2.579954,-3.125 c 0.26743,-0.311524 0.59604,-0.52428 1.00163,-0.625 0.059,-0.02187 0.13268,-0.02437 0.18211,-0.03125 z m -23.310605,3.21875 c 0.199428,-0.02763 0.400901,0.02688 0.546342,0.15625 l 1.15339,1.03125 c 0.299439,0.267345 0.299439,0.774449 0,1.125 l -7.22386,8.4375 c -0.291518,0.34064 -0.802117,0.41471 -1.092685,0.15625 L 68.455589,99.78125 C 68.309513,99.65213 68.21277,99.461402 68.21277,99.25 c 0,-0.211403 0.09674,-0.424037 0.242819,-0.59375 l 1.15339,-1.34375 C 69.75442,97.142223 69.949041,97.028659 70.155321,97 c 0.205329,-0.02852 0.401217,0.02667 0.546342,0.15625 l 2.003256,1.8125 c 0.17903,0.159127 0.488721,0.11514 0.667751,-0.09375 l 5.190253,-6.09375 c 0.145283,-0.170091 0.346914,-0.284873 0.546342,-0.3125 z"
       style="fill:#000000;fill-rule:evenodd;stroke:#000000;stroke-width:5;stroke-linecap:round;stroke-linejoin:round;stroke-miterlimit:4;stroke-dasharray:none;stroke-opacity:0.57261413000000005;fill-opacity:0.43983403"
       inkscape:connector-curvature="0" />
    <path
       style="fill:#ffffff;fill-rule:evenodd"
       d="m 69.032284,14.6875 c -3.062519,-0.108337 -6.037126,1.704755 -7.254212,4.5625 -1.073545,2.34178 -0.647339,5.021613 -0.728457,7.5625 3.17e-4,1.670027 0,3.361563 0,5.03125 -3.764378,0.06481 -7.066589,0.10144 -8.13443,0.125 -0.494312,-0.0024 -0.933783,0.270708 -1.305151,0.59375 -6.517003,5.589759 -11.453175,9.784941 -17.968593,15.375 l -0.51599,6.96875 c 7.337053,-6.292934 12.941487,-12.328205 20.275372,-18.625 0.258246,-0.285574 0.664798,-0.202954 1.001627,-0.21875 2.039672,-0.02886 4.308687,-0.08685 6.647165,-0.125 2.158497,-0.03543 4.375747,-0.05599 6.556109,-0.09375 2.789062,-0.04836 5.483739,-0.113999 7.891611,-0.15625 0.528534,-0.01609 0.866509,0.501035 1.062333,0.9375 0.443614,1.104662 0.500645,2.452349 0,3.5625 C 76.350219,40.686589 75.889,41.050208 75.345573,41 c -2.289046,0.03992 -4.992614,0.0842 -7.739849,0.125 -2.216802,0.03381 -4.459717,0.05479 -6.556109,0.09375 -1.245603,0.02264 -2.454232,0.06774 -3.551225,0.09375 -0.806743,0.05798 -1.705098,-0.144104 -2.428188,0.34375 -0.803575,0.498345 -1.136448,1.618165 -0.789161,2.5 0.291201,0.79013 1.08581,1.327162 1.912198,1.28125 1.603664,-0.01564 3.192008,-0.06147 4.795672,-0.09375 -0.08366,2.323248 -0.371497,4.653876 -1.092685,6.875 -0.859027,2.74021 -2.445921,5.290068 -4.734967,7 -2.727591,2.062491 -6.163111,2.899057 -9.469934,3.0625 -1.110936,0.03734 -2.03711,1.14693 -1.881846,2.28125 0.07573,1.050187 1.076853,1.878995 2.094312,1.78125 2.948764,-0.142396 5.886842,-0.738446 8.589716,-2.03125 2.585001,-1.205994 4.857701,-3.127724 6.556108,-5.46875 -3.16e-4,13.664484 -0.0044,30.36674 0,44.03125 -0.0263,2.47067 0.963711,4.8225 2.822769,6.15625 1.551064,1.22811 3.668088,1.61725 5.736595,1.28125 11.315635,-1.55748 22.618616,-3.15023 33.933931,-4.71875 1.39231,-0.18039 2.80866,-0.33611 4.18862,-0.75 2.67658,-0.8508 4.98123,-3.22743 6.00977,-5.9375 0.77791,-2.177739 0.56496,-4.391387 0.57669,-6.5625 0.005,-5.917685 -9.7e-4,-8.363598 0,-14.28125 1.21234,-0.01556 2.48643,0.03125 3.61193,-0.53125 1.45823,-0.669572 2.45057,-2.120662 2.91383,-3.65625 0.73608,-2.452351 0.37839,-5.21705 -1.03198,-7.3125 1.8505,-2.67766 1.85714,-6.500664 0.15176,-9.1875 -0.0992,-0.116099 -0.1124,-0.254213 -0.0304,-0.375 1.79315,-2.74455 1.67332,-6.591423 -0.12141,-9.25 1.56564,-2.28039 1.79546,-5.345828 0.81951,-7.875 -0.56434,-1.480082 -1.66325,-2.803641 -3.15664,-3.3125 -1.00826,-0.359143 -2.10242,-0.222832 -3.15665,-0.21875 0,-3.605582 -0.002,-3.863256 0,-7.46875 -0.071,-1.817508 0.14401,-3.628263 -0.21246,-5.4375 -0.5466,-3.001007 -2.83518,-5.677184 -5.67589,-6.59375 -0.9918,-0.34784 -2.03704,-0.429453 -3.06559,-0.46875 C 93.252442,15.829339 81.143888,15.204123 69.032284,14.6875 z m 12.839045,6.25 13.081864,0.625 c 0.904021,0.04199 1.639027,0.819569 1.639027,1.75 0,0.930431 -0.736425,1.666928 -1.639027,1.625 l -13.081864,-0.625 c -0.903704,-0.04198 -1.639027,-0.819569 -1.639027,-1.75 0,-0.93043 0.735639,-1.666966 1.639027,-1.625 z m -14.265605,7.75 c 13.388261,0.61769 26.767898,1.261551 40.156166,1.875 -0.0123,20.938687 -0.006,32.715215 0,53.65625 l -40.156166,5.5625 0,-44.53125 c 2.278273,-0.04202 5.486728,-0.09518 7.254212,-0.125 1.140403,0.02089 2.328337,-0.186812 3.308406,-0.84375 1.546628,-1.004479 2.393815,-2.818697 2.640655,-4.625 0.291834,-2.21225 -0.1708,-4.626688 -1.578322,-6.34375 -0.869167,-1.075299 -2.181727,-1.713144 -3.551226,-1.71875 -0.952501,0.01052 -4.25643,0.06125 -8.073725,0.125 3.16e-4,-1.144775 0,-1.886807 0,-3.03125 z M 86.90982,35.75 c -0.58557,0.0099 -1.123037,0.568953 -1.123037,1.1875 l 0,0.375 c -1.667354,0.414397 -2.762064,1.593124 -2.762064,3.0625 0,0.973817 0.293764,1.717638 0.849866,2.1875 0.555784,0.470194 1.48484,0.805254 2.731711,1.0625 1.141989,0.22835 1.66938,0.427006 1.66938,0.90625 0,0.510888 -0.403165,0.767058 -1.244447,0.78125 -0.676511,0.01141 -1.508559,-0.27812 -2.033607,-0.6875 -0.300707,-0.242215 -0.625324,-0.349074 -0.940923,-0.34375 -0.70598,0.01191 -1.274799,0.600906 -1.274799,1.34375 0,0.433244 0.202024,0.823328 0.637399,1.15625 0.570995,0.485271 1.361114,0.800098 2.367484,0.96875 l 0,0.4375 c 0,0.618547 0.537467,1.197378 1.123037,1.1875 0.616306,-0.0104 1.062332,-0.55355 1.062332,-1.21875 l 0,-0.40625 c 1.862861,-0.341025 2.944178,-1.672896 2.944178,-3.28125 0,-0.882147 -0.293197,-1.561472 -0.819513,-2.0625 -0.525682,-0.501368 -1.424953,-0.900274 -2.731712,-1.1875 -0.721189,-0.157804 -0.943923,-0.194623 -1.305151,-0.3125 -0.360278,-0.132896 -0.424933,-0.298968 -0.424933,-0.53125 0,-0.417585 0.418124,-0.736572 1.214094,-0.75 0.58557,-0.0099 1.112528,0.104316 1.578322,0.34375 0.375488,0.179292 0.684961,0.253806 0.910571,0.25 C 90.014519,40.20734 90.52175,39.680536 90.52175,39 c 0,-0.417581 -0.154328,-0.772283 -0.424933,-1 -0.480687,-0.440468 -1.177867,-0.704502 -2.124665,-0.8125 l 0,-0.28125 c 0,-0.6652 -0.446026,-1.166647 -1.062332,-1.15625 z m 10.19839,3.875 c -0.411611,0.0069 -0.789161,0.408219 -0.789161,0.84375 l 0,0.25 c -1.172724,0.29154 -1.94255,1.122728 -1.94255,2.15625 0,0.685426 0.215717,1.200522 0.607047,1.53125 0.390697,0.330413 1.035427,0.569371 1.912198,0.75 0.803257,0.16066 1.183742,0.319246 1.183742,0.65625 0,0.359188 -0.318347,0.52126 -0.910571,0.53125 -0.4753,0.008 -1.05646,-0.181706 -1.426561,-0.46875 -0.211349,-0.17032 -0.415909,-0.284987 -0.637399,-0.28125 -0.496848,0.0084 -0.910571,0.446117 -0.910571,0.96875 0,0.30438 0.149192,0.578532 0.455286,0.8125 0.401787,0.341318 0.961499,0.569273 1.669379,0.6875 l 0,0.3125 c 0,0.434875 0.37755,0.819444 0.789161,0.8125 0.433157,-0.0073 0.758809,-0.375925 0.758809,-0.84375 l 0,-0.28125 c 1.310879,-0.239714 2.06396,-1.181103 2.06396,-2.3125 0,-0.620501 -0.206277,-1.084234 -0.576695,-1.4375 -0.369467,-0.352955 -1.023002,-0.641661 -1.94255,-0.84375 C 96.904747,43.3579 96.78501,43.332176 96.531516,43.25 96.277388,43.15576 96.19764,43.038445 96.19764,42.875 c 0,-0.293614 0.320314,-0.521805 0.880218,-0.53125 0.411927,-0.0069 0.765994,0.08195 1.092685,0.25 0.264583,0.126032 0.478966,0.190172 0.637399,0.1875 0.4753,-0.008 0.849866,-0.396083 0.849866,-0.875 0,-0.293288 -0.11309,-0.526941 -0.303524,-0.6875 -0.33778,-0.309774 -0.821528,-0.517878 -1.487265,-0.59375 l 0,-0.1875 c 0,-0.467825 -0.325652,-0.819807 -0.758809,-0.8125 z m 18.15071,0.78125 c 0.30827,-0.0043 0.6078,0.0074 0.91057,0.0625 0.77569,0.452457 0.97108,1.46843 1.06233,2.3125 0.0491,0.969403 -0.0578,2.176701 -0.91057,2.78125 -0.63563,0.214948 -1.3372,0.140773 -2.00326,0.15625 3.1e-4,-1.758755 -6.3e-4,-3.523469 0,-5.28125 0.30768,-0.0035 0.63265,-0.0269 0.94093,-0.03125 z m 0,9.4375 c 0.311,-0.0062 0.60479,-0.01824 0.91057,0.03125 0.51712,0.289132 0.75974,0.910165 0.91057,1.46875 0.21548,0.878187 0.21791,1.823304 -0.0911,2.6875 -0.17713,0.443083 -0.46745,0.958482 -0.97127,1.03125 -0.56719,0.0585 -1.13159,0.06205 -1.69974,0.0625 -3.2e-4,-1.750588 0,-3.499407 0,-5.25 0.31054,-0.0033 0.62992,-0.02507 0.94093,-0.03125 z M 92.828529,50.75 c -0.467697,-8.7e-5 -0.875547,0.326386 -1.274799,0.5625 -1.343516,0.819401 -2.693664,1.615516 -4.036863,2.4375 1.420831,1.059584 2.853147,2.135609 4.279682,3.1875 1.539022,-0.129487 3.074535,-0.294323 4.613557,-0.4375 -0.86568,-1.711404 -1.706981,-3.418823 -2.57995,-5.125 -0.175861,-0.385033 -0.573857,-0.639568 -1.001627,-0.625 z m -9.166411,2.03125 c -0.382776,0.04051 -0.768731,0.258507 -1.001628,0.59375 -1.134066,1.557646 -2.279339,3.117414 -3.399463,4.6875 3.549226,-0.318245 7.104449,-0.638763 10.653676,-0.96875 -1.696189,-1.262708 -3.400472,-2.521709 -5.099196,-3.78125 -0.333343,-0.259861 -0.6971,-0.539917 -1.153389,-0.53125 z m -11.898122,1.9375 c -0.388043,0.01397 -0.797165,0.07113 -1.183742,0.09375 -0.468963,0.07132 -0.964001,0.0054 -1.396208,0.28125 -0.487975,0.302202 -0.689316,0.955492 -0.51599,1.46875 0.144175,0.508426 0.673268,0.803135 1.183742,0.75 0.615988,-0.07239 1.234869,-0.09783 1.851493,-0.15625 0.636586,-0.05414 1.277349,0.159507 1.699732,0.625 0.590006,0.597185 0.933283,1.399218 1.244446,2.1875 1.130898,3.251009 2.26603,6.499521 3.399464,9.75 0.4753,1.339469 0.924193,2.700542 1.487265,4 0.409076,0.860333 0.843191,1.739644 1.578322,2.34375 0.776008,0.687271 1.870701,0.880168 2.913826,0.78125 4.163632,-0.334934 8.312136,-0.662861 12.474817,-1 0.273457,-0.01743 0.558416,0.0017 0.819514,-0.125 0.343483,-0.14736 0.645687,-0.47905 0.758809,-0.84375 0.254444,-0.677184 -0.229624,-1.461474 -0.910571,-1.5 -0.662251,-0.02372 -1.338785,0.100948 -2.003255,0.125 -3.641118,0.296816 -7.256645,0.609862 -10.896495,0.90625 -0.549446,0.06606 -1.182489,0.05771 -1.608675,-0.3125 -0.553249,-0.505206 -0.812507,-1.225577 -1.123037,-1.90625 3.61767,-0.289385 7.218121,-0.581376 10.83579,-0.875 0.492729,-0.02562 0.994221,-0.08723 1.487266,-0.15625 0.951551,-0.138852 1.856859,-0.625672 2.57995,-1.3125 1.026648,-0.985612 1.685536,-2.272811 2.246074,-3.5625 0.718971,-1.806798 1.239525,-3.70515 1.608677,-5.59375 0.17427,-0.841359 0.0533,-1.732117 -0.455288,-2.375 C 99.458731,57.823466 98.870935,57.56582 98.2616,57.5 c -0.821319,-0.04486 -1.664406,0.113454 -2.488893,0.15625 -6.280303,0.511074 -12.568825,0.984709 -18.848811,1.5 -0.259514,-0.776124 -0.607695,-1.504559 -1.03198,-2.1875 -0.678095,-1.070648 -1.676327,-1.988271 -2.974531,-2.15625 -0.376595,-0.0772 -0.765346,-0.107719 -1.153389,-0.09375 z m 43.434214,4.5 c 0.28954,-0.0062 0.56105,0.01362 0.84987,0.03125 0.42523,0.134088 0.67021,0.546109 0.84986,0.9375 0.39071,0.985825 0.47022,2.130079 0.15177,3.15625 -0.17047,0.489623 -0.49014,1.032017 -1.03198,1.125 -0.56307,0.07572 -1.13572,0.06865 -1.69974,0.0625 -3.2e-4,-1.760701 3.2e-4,-3.520549 0,-5.28125 0.28915,-0.0059 0.59069,-0.02506 0.88022,-0.03125 z M 95.742354,61.3125 c 0.571478,-0.05424 1.135222,0.335375 1.183742,0.9375 0.143858,0.745952 -0.571604,1.557528 -1.305151,1.46875 -0.604582,-0.0058 -1.080777,-0.5709 -1.03198,-1.1875 0.02535,-0.522388 0.418477,-1.038299 0.910571,-1.1875 0.0804,-0.02751 0.161179,-0.0235 0.242818,-0.03125 z m -4.704614,0.375 c 0.616692,-0.04724 1.228379,0.462285 1.183741,1.125 0.0358,0.642092 -0.559197,1.26396 -1.183741,1.28125 C 90.405273,64.18802 89.841007,63.640797 89.853998,63 c -0.01172,-0.548442 0.430133,-1.112602 0.940923,-1.28125 0.0871,-0.03074 0.15472,-0.0245 0.242819,-0.03125 z m -4.583205,0.375 c 0.595897,0.0142 1.095472,0.552672 1.031979,1.1875 -0.03328,0.593167 -0.521057,1.133292 -1.092684,1.21875 -0.699643,0.133269 -1.357251,-0.522224 -1.244447,-1.25 0.05989,-0.550615 0.502813,-1.019142 1.03198,-1.125 0.08686,-0.02122 0.188043,-0.03328 0.273172,-0.03125 z m -4.886729,0.375 c 0.575415,-0.05875 1.116089,0.373018 1.183741,0.96875 0.107101,0.659194 -0.443741,1.383924 -1.092684,1.46875 -0.590007,0.0977 -1.194065,-0.356213 -1.244447,-0.96875 -0.09062,-0.591031 0.331022,-1.243163 0.910571,-1.40625 0.08207,-0.02887 0.160617,-0.05411 0.242819,-0.0625 z m 11.837417,2.6875 c 0.617209,-0.04806 1.228381,0.462286 1.183742,1.125 0.03644,0.644651 -0.556662,1.297942 -1.183742,1.3125 -0.629931,0.09211 -1.195465,-0.486914 -1.183742,-1.125 -0.013,-0.548666 0.400416,-1.081076 0.910571,-1.25 0.08714,-0.03087 0.184999,-0.05563 0.273171,-0.0625 z m -4.856376,0.40625 c 0.696473,-0.173798 1.378664,0.459296 1.305151,1.1875 -0.03391,0.571035 -0.482533,1.110935 -1.03198,1.21875 -0.696157,0.172142 -1.381516,-0.459719 -1.305151,-1.1875 0.03612,-0.568929 0.484751,-1.109482 1.03198,-1.21875 z m -4.613558,0.375 c 0.574007,-0.05706 1.114982,0.375961 1.183742,0.96875 0.108686,0.660372 -0.441523,1.354778 -1.092685,1.4375 -0.645141,0.108013 -1.291342,-0.409445 -1.244446,-1.09375 -0.02566,-0.546994 0.391542,-1.102873 0.91057,-1.25 0.08195,-0.02853 0.160818,-0.05435 0.242819,-0.0625 z M 115.22856,68.625 c 0.30162,-0.0062 0.6105,2.65e-4 0.91058,0.03125 0.43125,0.194666 0.65442,0.660681 0.81951,1.09375 0.33556,0.956089 0.37342,2.050196 0.0607,3.03125 -0.17332,0.489345 -0.48506,1.043022 -1.03198,1.125 -0.55166,0.05074 -1.11676,0.0402 -1.66938,0.03125 3.2e-4,-1.752229 0,-3.497776 0,-5.25 0.30119,-0.01063 0.60895,-0.05631 0.91057,-0.0625 z m -19.729024,8.78125 c -0.288745,-0.0043 -0.594246,0.04645 -0.880219,0.125 -1.244653,0.327661 -2.270205,1.567997 -2.367483,2.875 -0.100447,0.883501 0.221269,1.770769 0.819513,2.34375 0.592225,0.604178 1.472402,0.870675 2.337132,0.71875 1.428752,-0.199692 2.666504,-1.650268 2.701359,-3.125 0.08143,-1.244926 -0.645065,-2.413718 -1.760437,-2.78125 -0.266643,-0.100789 -0.561121,-0.151979 -0.849865,-0.15625 z m -39.093831,0.1875 c -2.014639,0.03855 -2.051624,0.03078 -4.067215,0.0625 -0.72816,-0.02523 -1.342271,0.468467 -2.003255,0.71875 -4.868344,2.187667 -9.760856,4.376127 -14.629834,6.5625 0.603949,1.22136 1.257801,2.395028 1.942551,3.5625 4.887672,-2.194191 9.773464,-4.365389 14.660186,-6.5625 0.258246,-0.127675 0.538135,-0.155744 0.819513,-0.15625 1.746254,-0.02228 1.531484,-0.03402 3.278054,-0.0625 l 0,-4.125 z m 27.286765,0.875 c -0.244345,0.0097 -0.488054,0.05468 -0.728456,0.125 -1.322758,0.347757 -2.416253,1.673177 -2.519245,3.0625 -0.106697,0.937424 0.213394,1.85952 0.849866,2.46875 0.629066,0.639338 1.572723,0.910823 2.488892,0.75 1.518647,-0.211517 2.844767,-1.715318 2.883474,-3.28125 0.05587,-0.942992 -0.327123,-1.86489 -1.001628,-2.4375 -0.531879,-0.478625 -1.239865,-0.7167 -1.972903,-0.6875 z M 104.36242,89.25 c 0.31338,-0.04353 0.58624,0.005 0.84987,0.15625 0.30007,0.165465 0.49627,0.410167 0.54634,0.75 0.0123,0.04167 0.013,0.07915 0,0.125 l 0,0.03125 c 0,0.278282 -0.11333,0.546971 -0.33388,0.8125 l -3.00488,3.625 2.91383,2.75 c 0.24366,0.220612 0.36423,0.485678 0.36423,0.78125 l 0.0303,0.09375 c -0.0491,0.36601 -0.25659,0.688821 -0.60705,0.9375 -0.28296,0.199821 -0.58268,0.302411 -0.88022,0.34375 -0.0818,0.01136 -0.15948,0.03402 -0.24282,0.03125 -0.39513,0.01345 -0.67862,-0.08374 -0.91057,-0.3125 l -2.51924,-2.40625 -2.549599,3.09375 c -0.237967,0.29764 -0.571957,0.49034 -1.001628,0.59375 -0.07826,0.0243 -0.12818,0.0195 -0.212466,0.0313 -0.319719,0.0444 -0.610949,0.009 -0.849866,-0.125 -0.307994,-0.19797 -0.469411,-0.45724 -0.51599,-0.78125 -0.01109,-0.02846 -0.03035,-0.08781 -0.03035,-0.125 0,-0.277629 0.112702,-0.546882 0.333875,-0.8125 L 98.716885,95.25 95.772707,92.46875 c -0.235116,-0.214623 -0.364228,-0.458017 -0.364228,-0.75 0,-0.04143 0.01419,-0.06338 0.03035,-0.125 0.04817,-0.359681 0.234478,-0.704254 0.576695,-0.96875 0.281378,-0.212978 0.57761,-0.332955 0.880218,-0.375 0.06496,-0.0091 0.114304,-0.0033 0.182114,0 l 0.03035,0 c 0.396718,0.0026 0.706442,0.147568 0.940923,0.375 l 2.549597,2.40625 2.57995,-3.125 c 0.26743,-0.311524 0.59604,-0.52428 1.00163,-0.625 0.0589,-0.02187 0.13268,-0.02437 0.18211,-0.03125 z m -23.310604,3.21875 c 0.199428,-0.02763 0.4009,0.02688 0.546342,0.15625 l 1.153389,1.03125 c 0.29944,0.267345 0.29944,0.774449 0,1.125 l -7.223859,8.4375 c -0.291518,0.34064 -0.802117,0.41471 -1.092685,0.15625 L 70.39814,99.78125 C 70.252064,99.65213 70.155321,99.461402 70.155321,99.25 c 0,-0.211403 0.09674,-0.424037 0.242819,-0.59375 l 1.153389,-1.34375 c 0.145442,-0.170277 0.340062,-0.283841 0.546343,-0.3125 0.205329,-0.02852 0.401217,0.02667 0.546342,0.15625 l 2.003255,1.8125 c 0.179031,0.159127 0.488722,0.11514 0.667752,-0.09375 l 5.190252,-6.09375 c 0.145284,-0.170091 0.346915,-0.284873 0.546343,-0.3125 z"
       id="path3"
       inkscape:connector-curvature="0" />
  </g>
</svg>
