<?xml version="1.0" encoding="UTF-8" standalone="no"?>
<!-- Created with Inkscape (http://www.inkscape.org/) -->

<svg
   xmlns:dc="http://purl.org/dc/elements/1.1/"
   xmlns:cc="http://creativecommons.org/ns#"
   xmlns:rdf="http://www.w3.org/1999/02/22-rdf-syntax-ns#"
   xmlns:svg="http://www.w3.org/2000/svg"
   xmlns="http://www.w3.org/2000/svg"
   xmlns:xlink="http://www.w3.org/1999/xlink"
   xmlns:sodipodi="http://sodipodi.sourceforge.net/DTD/sodipodi-0.dtd"
   xmlns:inkscape="http://www.inkscape.org/namespaces/inkscape"
   width="128"
   height="128"
   id="svg6934"
   sodipodi:version="0.32"
   inkscape:version="0.48.3.1 r9886"
   version="1.0"
   sodipodi:docname="aaa-generic.svg"
   inkscape:output_extension="org.inkscape.output.svg.inkscape">
  <defs
     id="defs6936">
    <linearGradient
       id="linearGradient5344">
      <stop
         style="stop-color:#000000;stop-opacity:1;"
         offset="0"
         id="stop5346" />
      <stop
         style="stop-color:#000000;stop-opacity:0;"
         offset="1"
         id="stop5348" />
    </linearGradient>
    <linearGradient
       id="linearGradient5165-7-9-8-2">
      <stop
         id="stop5167-4-8-6-9"
         style="stop-color:#ffffff;stop-opacity:1"
         offset="0" />
      <stop
         id="stop5169-5-5-2-9"
         style="stop-color:#ffffff;stop-opacity:0"
         offset="1" />
    </linearGradient>
    <linearGradient
       inkscape:collect="always"
       xlink:href="#linearGradient5344"
       id="linearGradient3107"
       gradientUnits="userSpaceOnUse"
       gradientTransform="matrix(5.3340639,0,0,5.3340639,-1451.4802,-5864.5574)"
       x1="305.23422"
       y1="1137.0681"
       x2="283.35095"
       y2="1104.2024" />
    <linearGradient
       inkscape:collect="always"
       xlink:href="#linearGradient5344-50"
       id="linearGradient13031-7"
       gradientUnits="userSpaceOnUse"
       gradientTransform="matrix(2.3371908,-0.19593194,0,2.3371908,-1123.3759,-2035.152)"
       x1="516.625"
       y1="949.4657"
       x2="516.625"
       y2="953.45752" />
    <linearGradient
       id="linearGradient5344-50">
      <stop
         style="stop-color:#000000;stop-opacity:1;"
         offset="0"
         id="stop5346-2" />
      <stop
         style="stop-color:#000000;stop-opacity:0;"
         offset="1"
         id="stop5348-5" />
    </linearGradient>
    <linearGradient
       inkscape:collect="always"
       xlink:href="#linearGradient5316-0"
       id="linearGradient13027-1"
       gradientUnits="userSpaceOnUse"
       gradientTransform="matrix(3.6383072,-0.24094751,0,3.6383072,-1797.8001,-3254.4436)"
       x1="516.625"
       y1="951.58276"
       x2="516.84595"
       y2="953.33002" />
    <linearGradient
       id="linearGradient5316-0">
      <stop
         style="stop-color:#aac736;stop-opacity:1;"
         offset="0"
         id="stop5320-8" />
      <stop
         style="stop-color:#5d8b2c;stop-opacity:1;"
         offset="1"
         id="stop5322-1" />
    </linearGradient>
    <linearGradient
       inkscape:collect="always"
       xlink:href="#linearGradient13604-6"
       id="linearGradient13023-1"
       gradientUnits="userSpaceOnUse"
       gradientTransform="matrix(3.6383072,0,0,3.6383072,-1871.8013,-3376.2301)"
       x1="532.71075"
       y1="943.25812"
       x2="540.65033"
       y2="973.31165" />
    <linearGradient
       id="linearGradient13604-6">
      <stop
         id="stop13606-2"
         offset="0"
         style="stop-color:#ffffff;stop-opacity:1;" />
      <stop
         id="stop13608-7"
         offset="1"
         style="stop-color:#000000;stop-opacity:1;" />
    </linearGradient>
    <linearGradient
       inkscape:collect="always"
       xlink:href="#linearGradient13620-8"
       id="linearGradient13021-7"
       gradientUnits="userSpaceOnUse"
       gradientTransform="matrix(3.6383072,0,0,3.6383072,-1811.8986,-3430.9797)"
       x1="508.00168"
       y1="976.56775"
       x2="507.60999"
       y2="969.06256" />
    <linearGradient
       id="linearGradient13620-8">
      <stop
         id="stop13622-7"
         offset="0"
         style="stop-color:#000000;stop-opacity:1;" />
      <stop
         id="stop13624-6"
         offset="1"
         style="stop-color:#000000;stop-opacity:0;" />
    </linearGradient>
    <linearGradient
       inkscape:collect="always"
       xlink:href="#linearGradient13604-6"
       id="linearGradient13015-1"
       gradientUnits="userSpaceOnUse"
       gradientTransform="matrix(3.6383072,0,0,3.6383072,-1811.8986,-3430.9797)"
       x1="507.15793"
       y1="956.94275"
       x2="506.35999"
       y2="981.68756" />
    <linearGradient
       inkscape:collect="always"
       xlink:href="#linearGradient5165-7-9-8-2"
       id="linearGradient3092"
       gradientUnits="userSpaceOnUse"
       gradientTransform="translate(-40,140)"
       x1="22.933788"
       y1="-144.76825"
       x2="18.618809"
       y2="-96.331688" />
    <linearGradient
       inkscape:collect="always"
       xlink:href="#linearGradient5344"
       id="linearGradient3094"
       gradientUnits="userSpaceOnUse"
       gradientTransform="translate(-40,140)"
       x1="7.9531264"
       y1="2.2416961"
       x2="13.667412"
       y2="-64.464973" />
  </defs>
  <sodipodi:namedview
     id="base"
     pagecolor="#ffffff"
     bordercolor="#666666"
     borderopacity="1.0"
     inkscape:pageopacity="0.0"
     inkscape:pageshadow="2"
     inkscape:zoom="3.959798"
     inkscape:cx="59.086378"
     inkscape:cy="55.768606"
     inkscape:document-units="px"
     inkscape:current-layer="layer1"
     showgrid="false"
     inkscape:window-width="1366"
     inkscape:window-height="717"
     inkscape:window-x="0"
     inkscape:window-y="0"
     inkscape:window-maximized="1" />
  <metadata
     id="metadata6939">
    <rdf:RDF>
      <cc:Work
         rdf:about="">
        <dc:format>image/svg+xml</dc:format>
        <dc:type
           rdf:resource="http://purl.org/dc/dcmitype/StillImage" />
        <dc:title></dc:title>
      </cc:Work>
    </rdf:RDF>
  </metadata>
  <g
     inkscape:label="Capa 1"
     inkscape:groupmode="layer"
     id="layer1">
    <path
       style="fill:#ff0000;fill-opacity:1;fill-rule:evenodd;stroke:none"
       d="m 34.21875,5.062503 c -1.32927,0.0554 -2.55056,0.27966 -3.65625,0.625 l -18.34375,2.71875 -0.5,0 0,0.1875 c -5.7155,1.04907 -8.65625,5.59198 -8.65625,11.15625 l 0,84.687497 c -0.0702,5.65226 2.0501,10.0952 6.3125,11.5 l 18.96875,5.9375 c 0.0209,0.0102 0.0415,0.0212 0.0625,0.0313 1.89272,0.90932 4.16442,1.2325 6.78125,0.8125 l 78.28125,-11.8125 c 5.72052,-0.61974 9.4668,-6.06393 9.15625,-13.625 l 0.40625,-74.281297 c 0.22248,-5.96534 -2.80168,-10.97622 -9.34375,-11.96875 l -77.84375,-5.9375 c -0.55631,-0.0273 -1.10307,-0.053 -1.625,-0.0313 z"
       id="path30949"
       inkscape:connector-curvature="0" />
    <path
       style="fill:url(#linearGradient3107);fill-rule:evenodd;stroke:none"
       d="M 29.25,16.718753 29.2187,113.125 c 0.4487,3.45828 1.40755,8.12456 4.34375,9.75 0.52713,-0.0229 1.0675,-0.0668 1.625,-0.15625 l 78.28125,-11.8125 c 5.72052,-0.61974 9.4668,-6.06393 9.15625,-13.625 l 0.40625,-74.281247 c 0.22245,-5.96534 -2.80168,-10.97622 -9.34375,-11.96875 L 37.6784,5.233693 c -3.97126,-0.42067 -8.41551,4.78057 -8.42845,11.48506 z M 30.15625,122.5 c 0.64796,0.17153 1.31467,0.32617 2.03125,0.375 z"
       id="path30953"
       inkscape:connector-curvature="0"
       sodipodi:nodetypes="ccccccccccccc" />
    <g
       id="g3087"
       transform="translate(40,0)">
      <path
         inkscape:connector-curvature="0"
         id="path3073"
         d="m -5.21875,5.312503 -22.5625,3.09375 -0.5,0 0,0.1875 c -5.715501,1.04907 -8.65625,5.59198 -8.65625,11.15625 l 0,25 26.1875,0 0,-28.03125 c 0.347051,-4.91678 2.274064,-9.96378 5.53125,-11.40625 z"
         style="fill:url(#linearGradient3092);fill-rule:evenodd;stroke:none;display:inline" />
      <path
         inkscape:connector-curvature="0"
         id="path3081"
         d="m -36.9375,68.406253 0,36.031247 c -0.07024,5.65226 2.050104,10.0952 6.3125,11.5 l 17.65625,6.03125 7.5,1.3125 c -3.710844,-1.04488 -4.81745,-6.34073 -5.3125,-10.15625 l 0,-44.718747 -26.15625,0 z"
         style="fill:url(#linearGradient3094);fill-rule:evenodd;stroke:none;display:inline" />
    </g>
    <path
       inkscape:connector-curvature="0"
       id="path30957"
       d="m 35.825012,5.0844328 c -1.734374,-0.0853 -3.26759,0.13333 -4.667303,0.50133 L 11.65504,8.5863028 C 5.9395447,9.6353728 2.9871862,14.190033 2.9871862,19.754303 l 0,84.678437 c -0.07024,5.65226 2.0718035,10.09707 6.3341998,11.50187 l 19.669357,6.16693 c 1.792241,0.74027 3.774988,1.0512 6.167512,0.6672 l 78.344065,-11.8352 c 5.72052,-0.6192 9.47847,-6.1072 9.16792,-13.66827 l 0.33339,-74.344027 c 0.22245,-5.96534 -2.79254,-10.84214 -9.33461,-11.83467 L 35.825018,5.0855028 z"
       style="fill:none;stroke:#344b63;stroke-width:2.667032;stroke-linecap:butt;stroke-linejoin:miter;stroke-miterlimit:4;stroke-opacity:1;stroke-dasharray:none;display:inline"
       sodipodi:nodetypes="ccccccccccccc" />
    <path
       sodipodi:nodetypes="ccscccccssssccscscccscccccscsccccssccscscsccsccssssccssscccscccccsccccsscsssscccccccc"
       id="path6954"
       d="m 72.863952,13.847436 c -3.232659,0.579414 -4.262843,4.011436 -5.918182,5.774798 -3.437926,2.37519 -7.358369,3.485394 -11.28485,4.574509 -2.484479,0.689135 -4.968898,1.374762 -7.339395,2.361391 -6.294753,4.417139 -9.820596,14.860361 -10.542426,23.149811 -0.28917,2.583709 -0.868713,9.055514 0,11.194353 1.741893,-1.242138 3.416592,-1.244741 3.436364,-1.10046 -4.114649,-0.09532 -5.968793,11.719528 -6.533334,15.756586 -0.3577,6.871806 0.522239,13.273641 4.200001,17.868379 4.747783,5.931547 16.786611,6.260664 21.063638,10.439917 1.136672,1.11071 -3.440686,3.44889 -4.79394,5.42713 -0.438605,0.64116 -0.759047,1.78102 -0.593941,2.43326 0.17802,0.7032 0.976846,1.43033 1.612124,1.624 0.699083,0.2131 1.631935,-0.49378 2.396969,-0.39836 0.798073,0.0995 1.546381,1.22585 2.290909,0.9875 1.276082,-0.40853 2.500255,-2.45251 3.775761,-2.94583 0.592601,-0.22921 1.229175,0.97408 1.824241,0.78587 1.006167,-0.31824 -0.126106,0.1015 2.99091,-2.29734 0.269316,-0.25346 0.471404,-0.47608 0.721212,-0.71762 -9.121111,-2.51339 -15.899468,-11.5483 -16.800002,-23.286917 -0.06755,-0.880364 -0.106061,-1.775705 -0.106061,-2.684826 0,-6.522572 1.789652,-14.995171 4.793939,-19.914538 0.01263,0.08959 0.02302,0.177918 0.04242,0.25371 0.566184,2.213577 2.078789,-1.205012 2.078789,-1.205012 0,0 0.0013,0.223025 0.02124,0.50848 0.01,0.142727 0.0201,0.286519 0.04243,0.457242 0.111578,0.853618 0.41564,1.892248 1.20909,1.277349 1.26951,-0.983839 1.484848,-3.56118 1.484848,-3.56118 0,0 0.356981,2.08392 1.972729,0.933862 1.115662,-0.794108 0.912528,-2.396033 0.678787,-3.318753 0.0133,0.01767 0.02879,0.03349 0.04242,0.05018 0.258082,0.638861 0.688331,1.419322 1.209091,1.175581 0.06076,-0.02843 0.127938,-0.07237 0.190909,-0.130395 0.06298,-0.05803 0.12599,-0.14083 0.190908,-0.232161 1.038697,-1.461312 2.313236,-2.119582 0.466668,-4.816272 -0.199116,-0.290785 -0.318588,-0.475067 -0.40303,-0.629317 0.114233,-0.06668 0.224197,-0.144578 0.339392,-0.209199 0.788028,0.398223 2.428473,1.405953 3.521214,0.628161 1.043847,-0.742989 0.752233,-1.48964 -0.06361,-2.212369 2.104156,-0.743258 4.325415,-1.166182 6.618184,-1.204448 2.276573,-0.038 4.660644,0.29359 6.570243,0.958856 -0.75695,0.756491 -1.020859,1.523919 -0.05809,2.239883 0.210807,0.156771 0.433479,0.223993 0.678048,0.24261 0.122283,0.0094 0.261363,0.0099 0.387457,-0.0067 0.25219,-0.03315 0.50665,-0.114666 0.755542,-0.216689 0.572505,-0.23468 1.076974,-0.565579 1.414216,-0.762432 0.09747,0.05624 0.193884,0.114978 0.290594,0.173032 -0.07541,0.15817 -0.183629,0.366361 -0.368084,0.667893 -0.105402,0.172305 -0.206679,0.332111 -0.290594,0.488452 -1.258738,2.345111 -0.172546,2.974369 0.716797,4.312612 0.177862,0.267648 0.344123,0.396492 0.503693,0.398296 0.397641,0.0044 0.721196,-0.670228 0.929897,-1.237393 0.01823,-0.02442 0.04048,-0.05081 0.05809,-0.07732 -0.05914,0.257338 -0.124731,0.537165 -0.154983,0.86772 -0.07905,0.863749 0.01772,1.880547 0.755541,2.429249 0.276681,0.20576 0.516074,0.301896 0.716793,0.31826 0.869782,0.07093 1.08488,-1.316417 1.08488,-1.316417 0,0 0.03738,0.362361 0.135611,0.862657 0.16366,0.833829 0.515213,2.060753 1.239861,2.649792 0.144928,0.11781 0.257123,0.169229 0.368085,0.171684 0.77673,0.01718 0.794286,-2.456234 0.794286,-2.456234 0,0 0.07629,0.225674 0.213101,0.505124 0.06841,0.139724 0.142932,0.296683 0.232473,0.453903 0.447727,0.78609 1.110408,1.57359 1.433592,0.178573 0.02361,-0.102017 0.04526,-0.206005 0.05809,-0.331754 2.769073,4.833883 4.417023,8.565622 4.417023,15.121206 0,13.045902 -6.487833,23.731279 -15.459543,28.633769 0.234707,0.18288 0.425423,0.36241 0.67805,0.55263 2.699637,2.03301 1.793268,1.53406 2.712198,1.62547 0.543461,0.054 1.124846,-1.29277 1.666066,-1.19716 1.164905,0.20577 2.282932,1.97377 3.448365,2.09459 0.679971,0.0704 1.363396,-1.2245 2.092267,-1.50398 0.6987,-0.26791 1.570037,0.22629 2.208505,-0.14421 0.580194,-0.33686 1.290388,-1.2417 1.45296,-1.98505 0.150793,-0.68946 -0.141856,-1.75708 -0.542439,-2.29936 -1.235906,-1.67314 -5.416368,-2.97937 -4.378262,-4.346313 3.906172,-5.143513 14.901133,-7.034991 19.237233,-14.036914 3.35887,-5.423886 4.18187,-12.008919 3.85518,-18.817646 -0.63675,-3.893809 -2.15367,-7.476354 -5.96683,-7.247272 0.018,-0.144923 1.63124,-0.333695 3.11903,0.988802 0.79344,-2.16715 0.26412,-8.620067 0,-11.194352 -0.2943,-8.252613 -4.12783,-14.86713 -9.62831,-19.658837 C 99.661481,25.375724 93.016478,25.132077 88.087015,20.439189 86.575216,18.554125 85.454428,15.020409 82.515468,14.221731 79.45083,13.48009 77.189374,13.089227 72.863952,13.847488 z"
       style="fill:#000000;fill-opacity:0.20746888;fill-rule:evenodd;stroke:#000000;stroke-width:5;stroke-miterlimit:4;stroke-dasharray:none;stroke-opacity:0.56846476000000001"
       inkscape:connector-curvature="0" />
    <path
       inkscape:connector-curvature="0"
       style="fill:#ffffff;fill-opacity:1;fill-rule:evenodd;stroke:none"
       d="m 74.916117,13.847437 c -3.232658,0.579413 -4.262842,4.011436 -5.918182,5.774798 -3.437926,2.37519 -7.358368,3.485394 -11.284849,4.574509 -2.48448,0.689135 -4.968899,1.374762 -7.339396,2.361391 -6.294753,4.417139 -9.820595,14.860362 -10.542426,23.149812 -0.28917,2.583709 -0.868712,9.055515 0,11.194354 1.741893,-1.242139 3.416592,-1.244742 3.436364,-1.100461 -4.114649,-0.09532 -5.968793,11.719529 -6.533334,15.756587 -0.3577,6.871806 0.522239,13.273641 4.200002,17.86838 4.747782,5.931547 16.78661,6.260663 21.063637,10.439923 1.136672,1.1107 -3.440686,3.44888 -4.793939,5.42712 -0.438606,0.64117 -0.759047,1.78103 -0.593941,2.43326 0.17802,0.70321 0.976845,1.43034 1.612124,1.62401 0.699082,0.2131 1.631934,-0.49379 2.396969,-0.39836 0.798072,0.0995 1.546379,1.22584 2.290908,0.98749 1.276082,-0.40852 2.500255,-2.45251 3.775761,-2.94583 0.592602,-0.22921 1.229175,0.97408 1.824242,0.78587 1.006166,-0.31824 -0.126106,0.10151 2.990909,-2.29734 0.269316,-0.25346 0.471405,-0.47607 0.721212,-0.71762 -9.12111,-2.51339 -15.899468,-11.548296 -16.800002,-23.286914 -0.06754,-0.880364 -0.106061,-1.775705 -0.106061,-2.684825 0,-6.522573 1.789652,-14.995172 4.793939,-19.914539 0.01263,0.08959 0.02302,0.177917 0.04243,0.25371 0.566184,2.213576 2.078789,-1.205013 2.078789,-1.205013 0,0 0.0013,0.223025 0.02124,0.508481 0.01,0.142727 0.0201,0.286519 0.04242,0.457241 0.111578,0.853618 0.415641,1.892249 1.20909,1.277349 1.26951,-0.983839 1.484849,-3.56118 1.484849,-3.56118 0,0 0.35698,2.08392 1.972728,0.933862 1.115663,-0.794108 0.912528,-2.396033 0.678787,-3.318753 0.01331,0.01767 0.02879,0.03349 0.04243,0.05018 0.258082,0.638861 0.688331,1.419323 1.209091,1.175581 0.06076,-0.02843 0.127938,-0.07237 0.19091,-0.130394 0.06298,-0.05803 0.12599,-0.140831 0.190908,-0.232162 1.038696,-1.461311 2.313235,-2.119581 0.466667,-4.816272 -0.199115,-0.290785 -0.318588,-0.475067 -0.403029,-0.629317 0.114232,-0.06668 0.224197,-0.144578 0.339392,-0.209199 0.788027,0.398223 2.428472,1.405953 3.521213,0.628161 1.043848,-0.742989 0.752232,-1.48964 -0.06361,-2.212369 2.104157,-0.743258 4.325416,-1.166182 6.618184,-1.204448 2.276574,-0.038 4.660645,0.29359 6.570244,0.958856 -0.75695,0.756491 -1.020859,1.523919 -0.05809,2.239883 0.210808,0.156771 0.43348,0.223993 0.67805,0.24261 0.122283,0.0094 0.261362,0.0099 0.387457,-0.0067 0.252188,-0.03315 0.50665,-0.114666 0.75554,-0.216689 0.572507,-0.23468 1.076976,-0.565579 1.414218,-0.762432 0.09747,0.05624 0.193883,0.114978 0.290594,0.173032 -0.07541,0.15817 -0.183631,0.366361 -0.368085,0.667893 -0.105401,0.172305 -0.206678,0.332111 -0.290593,0.488452 -1.258739,2.345111 -0.172546,2.974369 0.716796,4.312612 0.177863,0.267649 0.344123,0.396492 0.503693,0.398297 0.397642,0.0044 0.721197,-0.670229 0.929898,-1.237394 0.01823,-0.02442 0.04048,-0.05081 0.05809,-0.07732 -0.05914,0.257337 -0.124732,0.537164 -0.154983,0.867719 -0.07905,0.86375 0.01772,1.880547 0.755541,2.429249 0.276681,0.205761 0.516073,0.301896 0.716793,0.31826 0.869782,0.07093 1.084879,-1.316417 1.084879,-1.316417 0,0 0.03738,0.362361 0.13561,0.862657 0.163662,0.83383 0.515214,2.060753 1.239862,2.649792 0.144928,0.11781 0.257124,0.16923 0.368086,0.171684 0.77673,0.01718 0.794286,-2.456233 0.794286,-2.456233 0,0 0.07629,0.225674 0.2131,0.505123 0.06841,0.139724 0.142933,0.296684 0.232474,0.453903 0.447727,0.78609 1.110408,1.57359 1.433591,0.178573 0.02361,-0.102017 0.04526,-0.206004 0.05809,-0.331753 2.769076,4.833883 4.417016,8.565622 4.417016,15.121205 0,13.045903 -6.487826,23.731279 -15.459537,28.633779 0.234708,0.18287 0.425423,0.3624 0.678051,0.55263 2.699637,2.033 1.793268,1.53405 2.712198,1.62546 0.54346,0.054 1.124845,-1.29277 1.666064,-1.19716 1.164906,0.20577 2.282932,1.97377 3.448365,2.0946 0.679972,0.0704 1.363398,-1.22451 2.092268,-1.50398 0.6987,-0.26791 1.570037,0.22628 2.208504,-0.14421 0.580197,-0.33687 1.290387,-1.24171 1.452957,-1.98505 0.1508,-0.68946 -0.14185,-1.75709 -0.54244,-2.29937 -1.235901,-1.67313 -5.416362,-2.97936 -4.378257,-4.346312 3.906177,-5.143513 14.901127,-7.034991 19.237227,-14.036913 3.35887,-5.423887 4.18188,-12.008921 3.85518,-18.817647 -0.63675,-3.893809 -2.15366,-7.476355 -5.96682,-7.247272 0.0179,-0.144924 1.63123,-0.333696 3.11903,0.988802 0.79343,-2.167151 0.26412,-8.620068 0,-11.194354 -0.29432,-8.252613 -4.12784,-14.86713 -9.62832,-19.658837 -5.41552,-3.367814 -12.060527,-3.611461 -16.98999,-8.30435 -1.5118,-1.885063 -2.632587,-5.41878 -5.571547,-6.217457 -3.064638,-0.741642 -5.326095,-1.132504 -9.651517,-0.374243 z m -1.333798,22.403406 c 0.02485,-0.001 0.04974,-0.0014 0.07458,-0.0012 0.909804,-0.04425 1.752418,0.937879 1.741279,2.029585 0.06935,1.111582 -0.761188,2.198826 -1.691528,2.214353 -0.93034,0.01552 -1.760877,-1.043995 -1.691528,-2.157893 -0.01262,-1.023355 0.716125,-1.992799 1.567153,-2.084801 z m 11.815824,-0.197205 c 0.02485,-0.001 0.04974,-0.0014 0.07458,-0.0012 0.909805,-0.04425 1.752419,0.937878 1.741281,2.029583 0.06935,1.111581 -0.761192,2.19882 -1.691529,2.214345 -0.930338,0.01553 -1.760873,-1.043988 -1.691529,-2.157883 -0.01262,-1.023355 0.716124,-1.9928 1.567151,-2.0848 z m -6.790989,8.43743 c 0.0082,-6.76e-4 0.01661,-8.08e-4 0.0249,-3.91e-4 0.260083,-0.01271 0.498718,0.598682 0.497507,1.274621 -1.71e-4,0.676661 -0.237122,1.29597 -0.497508,1.300316 -0.260385,0.0043 -0.497337,-0.607057 -0.497508,-1.283713 0.0021,-0.605294 0.192238,-1.171893 0.422881,-1.260147 0.01637,-0.01251 0.03298,-0.02268 0.04976,-0.03068 z m 1.965158,-0.03279 c 0.0082,-6.76e-4 0.01662,-8.07e-4 0.02492,-3.9e-4 0.260084,-0.01271 0.498719,0.598681 0.497509,1.274621 -1.73e-4,0.676663 -0.237124,1.295971 -0.497509,1.300316 -0.260386,0.0043 -0.497334,-0.607056 -0.497508,-1.283713 0.0021,-0.605294 0.19224,-1.171891 0.422882,-1.260147 0.01634,-0.01251 0.03296,-0.02269 0.04972,-0.0307 z"
       id="path6580"
       sodipodi:nodetypes="ccscccccssssccscscccscccccscsccccssccscscsccsccssssccssscccscccccsccccsscssssccccccccccsccccccsccccccscccccccsccccc" />
  </g>
</svg>
