<?xml version="1.0" encoding="UTF-8" standalone="no"?>
<!-- Created with Inkscape (http://www.inkscape.org/) -->

<svg
   xmlns:dc="http://purl.org/dc/elements/1.1/"
   xmlns:cc="http://creativecommons.org/ns#"
   xmlns:rdf="http://www.w3.org/1999/02/22-rdf-syntax-ns#"
   xmlns:svg="http://www.w3.org/2000/svg"
   xmlns="http://www.w3.org/2000/svg"
   xmlns:xlink="http://www.w3.org/1999/xlink"
   xmlns:sodipodi="http://sodipodi.sourceforge.net/DTD/sodipodi-0.dtd"
   xmlns:inkscape="http://www.inkscape.org/namespaces/inkscape"
   width="128"
   height="128"
   id="svg13737"
   version="1.1"
   inkscape:version="0.48.3.1 r9886"
   sodipodi:docname="mate-session-properties.svg">
  <defs
     id="defs13739">
    <linearGradient
       inkscape:collect="always"
       xlink:href="#linearGradient9863"
       id="linearGradient51805"
       gradientUnits="userSpaceOnUse"
       gradientTransform="matrix(2.6666668,0,0,2.6666668,-1507.2271,-1207.4741)"
       x1="590.36938"
       y1="847.29248"
       x2="590.36938"
       y2="799.48352" />
    <linearGradient
       id="linearGradient9863">
      <stop
         style="stop-color:#2f445a;stop-opacity:1;"
         offset="0"
         id="stop9865" />
      <stop
         style="stop-color:#415f7c;stop-opacity:1"
         offset="1"
         id="stop9867" />
    </linearGradient>
    <linearGradient
       inkscape:collect="always"
       xlink:href="#linearGradient8702"
       id="linearGradient51808"
       gradientUnits="userSpaceOnUse"
       gradientTransform="matrix(2.5986371,-0.3154616,0.33089627,2.7257808,-2453.7755,-910.28493)"
       x1="872.23303"
       y1="795.24951"
       x2="884.04663"
       y2="808.49951" />
    <linearGradient
       inkscape:collect="always"
       xlink:href="#linearGradient5439"
       id="linearGradient51811"
       gradientUnits="userSpaceOnUse"
       gradientTransform="matrix(2.7408729,0.19030304,-0.28583893,2.7308736,-2134.2465,-1376.0424)"
       x1="860.80048"
       y1="782.92706"
       x2="909.69537"
       y2="836.74811" />
    <linearGradient
       id="linearGradient5439">
      <stop
         style="stop-color:#ffffff;stop-opacity:1;"
         offset="0"
         id="stop5441" />
      <stop
         style="stop-color:#000000;stop-opacity:1;"
         offset="1"
         id="stop5443" />
    </linearGradient>
    <linearGradient
       inkscape:collect="always"
       xlink:href="#linearGradient7210"
       id="linearGradient51814"
       gradientUnits="userSpaceOnUse"
       gradientTransform="matrix(2.6860768,0,0,2.6860768,-1295.2468,-1598.3494)"
       x1="486.74878"
       y1="944.19513"
       x2="528.94489"
       y2="947.32013" />
    <linearGradient
       id="linearGradient7210">
      <stop
         id="stop7212"
         offset="0"
         style="stop-color:#5d8b2f;stop-opacity:0.94117647;" />
      <stop
         id="stop8994"
         offset="0.5"
         style="stop-color:#aac736;stop-opacity:1;" />
      <stop
         id="stop7214"
         offset="1"
         style="stop-color:#5d8b2f;stop-opacity:0.94117647;" />
    </linearGradient>
    <linearGradient
       inkscape:collect="always"
       xlink:href="#linearGradient5439"
       id="linearGradient51817"
       gradientUnits="userSpaceOnUse"
       gradientTransform="matrix(2.6860768,0,0,2.6860768,-1295.2468,-1598.3494)"
       x1="499.90704"
       y1="953.39532"
       x2="652.75177"
       y2="1116.9413" />
    <linearGradient
       inkscape:collect="always"
       xlink:href="#linearGradient5439"
       id="linearGradient55141"
       gradientUnits="userSpaceOnUse"
       gradientTransform="matrix(2.6666667,0,0,2.6666667,-1293.8937,-1579.9235)"
       x1="490.28125"
       y1="938.63416"
       x2="481.1861"
       y2="1005.1491" />
    <linearGradient
       inkscape:collect="always"
       xlink:href="#linearGradient8702"
       id="linearGradient50461"
       gradientUnits="userSpaceOnUse"
       gradientTransform="matrix(2.6562227,0,0,2.6562227,-1274.1934,-762.7319)"
       x1="515.3125"
       y1="635.96948"
       x2="521.32233"
       y2="650.16199" />
    <linearGradient
       inkscape:collect="always"
       xlink:href="#linearGradient5344"
       id="linearGradient50464"
       gradientUnits="userSpaceOnUse"
       gradientTransform="translate(-634.95216,157.70925)"
       x1="661.80859"
       y1="338.36591"
       x2="628.88568"
       y2="399.89111" />
    <linearGradient
       id="linearGradient5344">
      <stop
         style="stop-color:#000000;stop-opacity:1;"
         offset="0"
         id="stop5346" />
      <stop
         style="stop-color:#000000;stop-opacity:0;"
         offset="1"
         id="stop5348" />
    </linearGradient>
    <filter
       color-interpolation-filters="sRGB"
       inkscape:collect="always"
       id="filter20342">
      <feGaussianBlur
         inkscape:collect="always"
         stdDeviation="0.5439693"
         id="feGaussianBlur20344" />
    </filter>
    <linearGradient
       inkscape:collect="always"
       xlink:href="#linearGradient8702"
       id="linearGradient50467"
       gradientUnits="userSpaceOnUse"
       gradientTransform="matrix(2.6562227,0,0,2.6562227,-1274.1934,-762.7319)"
       x1="499"
       y1="647.99408"
       x2="506.42969"
       y2="636.87573" />
    <linearGradient
       inkscape:collect="always"
       xlink:href="#linearGradient5344"
       id="linearGradient50469"
       gradientUnits="userSpaceOnUse"
       gradientTransform="matrix(2.6562227,0,0,2.6562227,-1289.1346,-763.064)"
       x1="506.66599"
       y1="636.31903"
       x2="503.55746"
       y2="646.90363" />
    <linearGradient
       id="linearGradient8702">
      <stop
         id="stop8704"
         offset="0"
         style="stop-color:#aac736;stop-opacity:1;" />
      <stop
         id="stop8706"
         offset="1"
         style="stop-color:#5d8b2c;stop-opacity:1;" />
    </linearGradient>
    <linearGradient
       y2="965.83002"
       x2="492.02759"
       y1="958.84735"
       x1="492.35342"
       gradientTransform="matrix(2.6666667,0,0,2.6666667,-1378.1771,-1688.2265)"
       gradientUnits="userSpaceOnUse"
       id="linearGradient3166"
       xlink:href="#linearGradient8702"
       inkscape:collect="always" />
  </defs>
  <sodipodi:namedview
     id="base"
     pagecolor="#ffffff"
     bordercolor="#666666"
     borderopacity="1.0"
     inkscape:pageopacity="0.0"
     inkscape:pageshadow="2"
     inkscape:zoom="1.979899"
     inkscape:cx="125.0827"
     inkscape:cy="83.432386"
     inkscape:document-units="px"
     inkscape:current-layer="layer1"
     showgrid="false"
     inkscape:window-width="1366"
     inkscape:window-height="717"
     inkscape:window-x="0"
     inkscape:window-y="0"
     inkscape:window-maximized="1" />
  <metadata
     id="metadata13742">
    <rdf:RDF>
      <cc:Work
         rdf:about="">
        <dc:format>image/svg+xml</dc:format>
        <dc:type
           rdf:resource="http://purl.org/dc/dcmitype/StillImage" />
        <dc:title />
      </cc:Work>
    </rdf:RDF>
  </metadata>
  <g
     inkscape:label="Capa 1"
     inkscape:groupmode="layer"
     id="layer1"
     transform="translate(0,-924.36218)">
    <path
       inkscape:connector-curvature="0"
       style="fill:url(#linearGradient55141);fill-rule:evenodd;stroke:none;display:inline"
       d="m 9.3790222,929.51318 c -2.2962667,1.26666 -3.8562667,4.3048 -3.8562667,7.47573 l 0,100.08779 c 0.026667,5.1788 1.1530667,9.6146 4.6317335,10.6215 2.046396,0.5923 5.32213,1.6539 7.701596,2.2949 l 94.083465,-15.3333 c 4.76934,-0.8119 8.27787,-5.0997 8.08347,-13.4999 l -0.16533,-67.08326 0,-9.08346 c 8e-4,-0.056 -5.4e-4,-0.112 0,-0.168 0,-0.58747 -0.04,-1.1816 -0.0827,-1.74987 0,-0.0587 0,-0.10933 0,-0.168 -0.048,-0.53707 -0.144,-1.0728 -0.25067,-1.58347 -0.74693,-3.6168 -3.05013,-6.44986 -8.58346,-7.0832 l -89.035205,-7.368 c -3.935466,0.19467 -9.706133,0.99574 -12.5253295,2.63787 z"
       id="path12400"
       sodipodi:nodetypes="cccscccccssssccc" />
    <path
       inkscape:connector-curvature="0"
       style="fill:url(#linearGradient51817);fill-rule:evenodd;stroke:none;display:inline"
       d="m 116.95502,1034.6961 -94.045601,15.4264 c -6.3576,1.1227 -12.78453,-2.7642 -12.3872,-11.2053 l 0,-102.31602 c -0.181333,-6.67574 7.251733,-10.69147 14.105066,-9.37894 l 91.323465,7.19654 c 7.2168,0.82586 8.9848,5.4304 8.8976,10.57626 l 0.16534,76.14846 c 0.19466,8.4004 -3.2888,12.7408 -8.05814,13.5526 z"
       id="path12384"
       sodipodi:nodetypes="ccccccccc" />
    <path
       inkscape:connector-curvature="0"
       sodipodi:nodetypes="ccccccc"
       id="path9417"
       d="m 10.522219,948.68838 0,-12.32294 c -0.181333,-6.67573 7.251733,-10.10213 14.105066,-9.37893 l 91.323465,7.25547 c 7.2168,0.82613 8.9848,5.4304 8.8976,10.57626 l 0.0267,9.24214 -114.345868,-5.372 z"
       style="fill:url(#linearGradient51814);fill-rule:evenodd;stroke:none;display:inline" />
    <path
       inkscape:connector-curvature="0"
       id="path9435"
       d="m 37.485685,955.23344 c -0.372266,-0.032 -1.1416,0.20534 -2.4944,0.88747 -13.750933,6.92453 4.781334,2.41573 -7.798133,11.34107 -6.6008,4.68346 -3.246667,-7.8992 -7.052533,-0.76694 -7.253334,13.5928 5.285066,-0.85866 0.173333,13.63494 -2.682933,7.60502 -7.3192,-4.37574 -6.261867,3.5312 2.014934,15.06881 3.865067,-3.8472 8.171467,10.67841 2.259733,7.62191 -8.5576,0.84341 -3.0408,6.50471 10.513333,10.7892 0.888533,-5.28178 12.969333,3.7273 6.339467,4.7275 -6.547466,5.7405 1.321334,6.9936 14.996266,2.3885 -2.3984,-4.7822 12.842666,-4.7307 7.997334,0.027 -1.9896,8.4203 5.225867,4.7869 13.750933,-6.9248 -4.7816,-2.4157 7.797867,-11.3413 6.6008,-4.68345 3.246666,7.8995 7.052533,0.7672 7.253333,-13.59283 -5.285067,0.8587 -0.170667,-13.63497 2.682934,-7.60502 7.3192,4.37579 6.261867,-3.53115 -2.014933,-15.0688 -3.8648,3.84721 -8.171467,-10.6784 -2.259733,-7.62187 8.5576,-0.84374 3.041067,-6.5048 -10.5136,-10.78934 -0.888533,5.28186 -12.9696,-3.72747 -6.3392,-4.7272 6.547467,-5.74027 -1.321333,-6.9936 -14.996267,-2.38827 2.397066,4.8552 -12.844,4.80373 -6.497867,-0.0267 -1.1168,-5.61386 -2.729867,-5.7472 z m 6.091467,12.73067 c 8.849067,-0.0427 15.8912,7.10773 15.718933,15.96373 -0.173333,8.85601 -7.493866,16.07946 -16.342933,16.12326 -8.849067,0.046 -15.8912,-7.10778 -15.718933,-15.96379 0.173333,-8.856 7.493866,-16.07947 16.342933,-16.1232 z"
       style="fill:url(#linearGradient51811);fill-opacity:1;stroke:none;display:inline" />
    <path
       inkscape:connector-curvature="0"
       style="fill:url(#linearGradient51808);fill-opacity:1;stroke:none;display:inline"
       d="m 82.382219,974.40038 c -0.354134,0.0373 -1.02,0.41066 -2.133067,1.32533 -11.313067,9.29654 4.989333,1.4896 -4.793067,12.53014 -5.133066,5.7936 -4.757333,-7.13867 -6.747466,0.54027 -3.792267,14.63468 4.742666,-1.808 3.144266,13.31678 -0.838933,7.9362 -7.7856,-2.94398 -5.069066,4.6032 5.177066,14.3832 2.763733,-4.4739 9.959733,8.9581 3.776,7.0478 -7.798933,2.3923 -1.4136,6.9246 12.169067,8.6375 -0.326667,-5.3333 12.9152,1.2747 6.948267,3.4674 -4.852267,6.8183 2.762933,6.6048 14.512805,-0.4073 -3.284,-4.2427 10.945865,-6.9824 7.46667,-1.4374 -0.0267,8.6074 5.92267,3.7292 11.31307,-9.2962 -4.98933,-1.4892 4.79307,-12.5301 5.13306,-5.7933 4.75733,7.139 6.74746,-0.5399 3.79227,-14.63503 -4.74266,1.808 -3.14426,-13.3168 0.83893,-7.93637 7.7856,2.9436 5.06906,-4.60357 -5.17706,-14.38289 -2.76373,4.47397 -9.95973,-8.95786 -3.776,-7.04796 7.79867,-2.39223 1.4136,-6.92476 -12.16907,-8.6376 0.32667,5.33361 -12.915201,-1.27467 -6.948267,-3.46746 4.852271,-6.8184 -2.762934,-6.60453 -14.5128,0.4072 3.298665,4.31413 -10.9312,7.05387 -6.066666,1.168 -2.270133,-5.2912 -3.804266,-5.1264 z m 8.468266,11.34742 c 8.245867,-1.66289 16.380535,4.04939 18.157865,12.75072 1.77707,8.70158 -3.4728,17.11308 -11.718398,18.77618 -8.245867,1.663 -16.380533,-4.0492 -18.1576,-12.7506 -1.777333,-8.70131 3.472533,-17.11305 11.718133,-18.7763 z"
       id="path9439" />
    <path
       inkscape:connector-curvature="0"
       style="fill:none;stroke:url(#linearGradient51805);stroke-width:2.71296811;stroke-linecap:butt;stroke-linejoin:miter;stroke-miterlimit:4;stroke-opacity:1;stroke-dasharray:none;display:inline"
       d="m 21.187019,925.83851 c -4.003734,0.2 -9.9336,0.95787 -12.8018635,2.62827 -2.336,1.28853 -3.8997333,4.404 -3.8997333,7.63013 l 0,100.90459 c 0.026667,5.2688 1.2085333,9.7426 4.7477333,10.7669 l 8.1130635,2.4069 c 1.568533,0.3846 3.6176,0.581 5.300266,0.284 l 95.190135,-15 c 4.85227,-0.8258 8.4216,-5.1883 8.22373,-13.7344 l -0.17066,-77.48906 c 0.088,-5.2352 -1.7296,-9.92666 -9.07147,-10.76693 l -63.500535,-5.00213 -32.131733,-2.62827 z"
       id="path12411"
       sodipodi:nodetypes="ccccccccccccc" />
    <path
       inkscape:connector-curvature="0"
       sodipodi:nodetypes="ccccc"
       id="path9315"
       d="m 102.76908,937.96864 4.95412,0.38438 0,4.69806 -4.95412,-0.21356 0,-4.86888 z"
       style="fill:#000000;fill-opacity:1;stroke:none;display:inline"
       inkscape:export-filename="/home/dafeba/DCV/tallerD/bocetos/08-09-22-hastaahora.png"
       inkscape:export-xdpi="57.964222"
       inkscape:export-ydpi="57.964222" />
    <path
       inkscape:connector-curvature="0"
       inkscape:export-ydpi="57.964222"
       inkscape:export-xdpi="57.964222"
       inkscape:export-filename="/home/dafeba/DCV/tallerD/bocetos/08-09-22-hastaahora.png"
       style="fill:url(#linearGradient50467);fill-rule:evenodd;stroke:url(#linearGradient50469);stroke-width:1.32811141;stroke-linecap:round;stroke-linejoin:round;stroke-miterlimit:4;stroke-opacity:1;stroke-dasharray:none;display:inline"
       d="m 64.376836,927.37472 35.50626,3.15426 c -25.550472,-2.65893 -46.744207,8.32474 -48.718577,27.45762 l -5.812081,0.31186 c -2.99011,-22.7583 4.26005,-31.80996 19.024398,-30.92374 z"
       id="path9341"
       sodipodi:nodetypes="ccccc" />
    <path
       inkscape:connector-curvature="0"
       inkscape:export-ydpi="57.964222"
       inkscape:export-xdpi="57.964222"
       inkscape:export-filename="/home/dafeba/DCV/tallerD/bocetos/08-09-22-hastaahora.png"
       sodipodi:nodetypes="cccccccc"
       id="path9343"
       d="m 1.7974377,555.94013 9.1924003,-11.66727 -2.2981003,-7.68978 -13.0663,-2.15257 c -2.1067,-0.41263 -4.8448,0.12627 -6.6236997,0.87852 2.8332997,-0.12978 8.9891997,3.67366 9.3485997,9.31739 l -7.6014,-0.17678 11.0485,11.49049 z"
       style="fill:url(#linearGradient50464);fill-rule:evenodd;stroke:none;display:inline;filter:url(#filter20342)"
       transform="matrix(2.6562227,0,0,2.6562227,78.692979,-491.35695)" />
    <path
       inkscape:connector-curvature="0"
       inkscape:export-ydpi="57.964222"
       inkscape:export-xdpi="57.964222"
       inkscape:export-filename="/home/dafeba/DCV/tallerD/bocetos/08-09-22-hastaahora.png"
       style="fill:url(#linearGradient50461);fill-rule:evenodd;stroke:#000000;stroke-width:1.32811141;stroke-linecap:round;stroke-linejoin:round;stroke-miterlimit:4;stroke-opacity:1;stroke-dasharray:none;display:inline"
       d="m 64.874878,927.37472 c 6.002266,0.58296 14.010778,7.70942 16.10335,16.02034 l -18.593559,-0.58105 36.665436,38.18321 25.257755,-36.35705 -12.28503,-0.33203 c -0.46616,-7.77152 -5.80013,-13.14759 -11.953,-13.77916 l -35.194952,-3.15426 z"
       id="path9345"
       sodipodi:nodetypes="cccccccc" />
  </g>
</svg>
