<?xml version="1.0" encoding="UTF-8" standalone="no"?>
<!-- Created with Inkscape (http://www.inkscape.org/) -->

<svg
   xmlns:dc="http://purl.org/dc/elements/1.1/"
   xmlns:cc="http://creativecommons.org/ns#"
   xmlns:rdf="http://www.w3.org/1999/02/22-rdf-syntax-ns#"
   xmlns:svg="http://www.w3.org/2000/svg"
   xmlns="http://www.w3.org/2000/svg"
   xmlns:xlink="http://www.w3.org/1999/xlink"
   xmlns:sodipodi="http://sodipodi.sourceforge.net/DTD/sodipodi-0.dtd"
   xmlns:inkscape="http://www.inkscape.org/namespaces/inkscape"
   width="128"
   height="128"
   id="svg6934"
   sodipodi:version="0.32"
   inkscape:version="0.48.3.1 r9886"
   version="1.0"
   sodipodi:docname="banshee.svg"
   inkscape:output_extension="org.inkscape.output.svg.inkscape">
  <defs
     id="defs6936">
    <inkscape:perspective
       sodipodi:type="inkscape:persp3d"
       inkscape:vp_x="0 : 526.18109 : 1"
       inkscape:vp_y="0 : 1000 : 0"
       inkscape:vp_z="744.09448 : 526.18109 : 1"
       inkscape:persp3d-origin="372.04724 : 350.78739 : 1"
       id="perspective6942" />
    <inkscape:perspective
       id="perspective6952"
       inkscape:persp3d-origin="0.5 : 0.33333333 : 1"
       inkscape:vp_z="1 : 0.5 : 1"
       inkscape:vp_y="0 : 1000 : 0"
       inkscape:vp_x="0 : 0.5 : 1"
       sodipodi:type="inkscape:persp3d" />
    <linearGradient
       id="linearGradient5316">
      <stop
         style="stop-color:#aac736;stop-opacity:1;"
         offset="0"
         id="stop5320" />
      <stop
         style="stop-color:#5d8b2c;stop-opacity:1;"
         offset="1"
         id="stop5322" />
    </linearGradient>
    <linearGradient
       id="linearGradient5165-7-9-8-2">
      <stop
         id="stop5167-4-8-6-9"
         style="stop-color:#ffffff;stop-opacity:1"
         offset="0" />
      <stop
         id="stop5169-5-5-2-9"
         style="stop-color:#ffffff;stop-opacity:0"
         offset="1" />
    </linearGradient>
    <linearGradient
       id="linearGradient6965">
      <stop
         style="stop-color:#aac736;stop-opacity:1;"
         offset="0"
         id="stop6967" />
      <stop
         style="stop-color:#5d8b2c;stop-opacity:1;"
         offset="1"
         id="stop6969" />
    </linearGradient>
    <linearGradient
       id="linearGradient5344">
      <stop
         style="stop-color:#000000;stop-opacity:1;"
         offset="0"
         id="stop5346" />
      <stop
         style="stop-color:#000000;stop-opacity:0;"
         offset="1"
         id="stop5348" />
    </linearGradient>
    <inkscape:perspective
       id="perspective7046"
       inkscape:persp3d-origin="0.5 : 0.33333333 : 1"
       inkscape:vp_z="1 : 0.5 : 1"
       inkscape:vp_y="0 : 1000 : 0"
       inkscape:vp_x="0 : 0.5 : 1"
       sodipodi:type="inkscape:persp3d" />
    <linearGradient
       id="linearGradient5316-7">
      <stop
         style="stop-color:#aac736;stop-opacity:1;"
         offset="0"
         id="stop5320-8" />
      <stop
         style="stop-color:#5d8b2c;stop-opacity:1;"
         offset="1"
         id="stop5322-4" />
    </linearGradient>
    <linearGradient
       id="linearGradient5165-7-9-8-2-6">
      <stop
         id="stop5167-4-8-6-9-3"
         style="stop-color:#ffffff;stop-opacity:1"
         offset="0" />
      <stop
         id="stop5169-5-5-2-9-0"
         style="stop-color:#ffffff;stop-opacity:0"
         offset="1" />
    </linearGradient>
    <linearGradient
       id="linearGradient7059">
      <stop
         style="stop-color:#aac736;stop-opacity:1;"
         offset="0"
         id="stop7061" />
      <stop
         style="stop-color:#5d8b2c;stop-opacity:1;"
         offset="1"
         id="stop7063" />
    </linearGradient>
    <linearGradient
       id="linearGradient5344-7">
      <stop
         style="stop-color:#000000;stop-opacity:1;"
         offset="0"
         id="stop5346-7" />
      <stop
         style="stop-color:#000000;stop-opacity:0;"
         offset="1"
         id="stop5348-0" />
    </linearGradient>
    <inkscape:perspective
       id="perspective7210"
       inkscape:persp3d-origin="0.5 : 0.33333333 : 1"
       inkscape:vp_z="1 : 0.5 : 1"
       inkscape:vp_y="0 : 1000 : 0"
       inkscape:vp_x="0 : 0.5 : 1"
       sodipodi:type="inkscape:persp3d" />
    <linearGradient
       inkscape:collect="always"
       xlink:href="#linearGradient5316-3"
       id="linearGradient6914"
       gradientUnits="userSpaceOnUse"
       gradientTransform="matrix(1.0001368,0,0,1.0001368,-167.83943,269.26222)"
       x1="275.29071"
       y1="1103.7349"
       x2="275.29071"
       y2="1121.6162" />
    <linearGradient
       id="linearGradient5316-3">
      <stop
         style="stop-color:#aac736;stop-opacity:1;"
         offset="0"
         id="stop5320-1" />
      <stop
         style="stop-color:#5d8b2c;stop-opacity:1;"
         offset="1"
         id="stop5322-49" />
    </linearGradient>
    <linearGradient
       inkscape:collect="always"
       xlink:href="#linearGradient5165-7-9-8-2-0"
       id="linearGradient6911"
       gradientUnits="userSpaceOnUse"
       gradientTransform="matrix(1.0001368,0,0,1.0001368,-167.83943,269.26222)"
       x1="275.29071"
       y1="1094.0099"
       x2="275.29071"
       y2="1117.1519" />
    <linearGradient
       id="linearGradient5165-7-9-8-2-0">
      <stop
         id="stop5167-4-8-6-9-2"
         style="stop-color:#ffffff;stop-opacity:1"
         offset="0" />
      <stop
         id="stop5169-5-5-2-9-9"
         style="stop-color:#ffffff;stop-opacity:0"
         offset="1" />
    </linearGradient>
    <linearGradient
       inkscape:collect="always"
       xlink:href="#linearGradient5316-3"
       id="linearGradient6908"
       gradientUnits="userSpaceOnUse"
       gradientTransform="matrix(1.0001368,0,0,1.0001368,-167.83943,269.26222)"
       x1="280.65372"
       y1="1100.6647"
       x2="292.69617"
       y2="1118.8726" />
    <linearGradient
       id="linearGradient7223">
      <stop
         style="stop-color:#aac736;stop-opacity:1;"
         offset="0"
         id="stop7225" />
      <stop
         style="stop-color:#5d8b2c;stop-opacity:1;"
         offset="1"
         id="stop7227" />
    </linearGradient>
    <linearGradient
       inkscape:collect="always"
       xlink:href="#linearGradient5344-1"
       id="linearGradient6905"
       gradientUnits="userSpaceOnUse"
       gradientTransform="matrix(1.0001368,0,0,1.0001368,-167.83943,269.26222)"
       x1="317.94461"
       y1="1142.4757"
       x2="283.81964"
       y2="1103.8007" />
    <linearGradient
       id="linearGradient5344-1">
      <stop
         style="stop-color:#000000;stop-opacity:1;"
         offset="0"
         id="stop5346-1" />
      <stop
         style="stop-color:#000000;stop-opacity:0;"
         offset="1"
         id="stop5348-6" />
    </linearGradient>
    <inkscape:perspective
       id="perspective7325"
       inkscape:persp3d-origin="0.5 : 0.33333333 : 1"
       inkscape:vp_z="1 : 0.5 : 1"
       inkscape:vp_y="0 : 1000 : 0"
       inkscape:vp_x="0 : 0.5 : 1"
       sodipodi:type="inkscape:persp3d" />
    <linearGradient
       inkscape:collect="always"
       xlink:href="#linearGradient5316-76"
       id="linearGradient31057"
       gradientUnits="userSpaceOnUse"
       gradientTransform="translate(-274.43625,37.414147)"
       x1="275.29071"
       y1="1103.7349"
       x2="275.29071"
       y2="1121.6162" />
    <linearGradient
       id="linearGradient5316-76">
      <stop
         style="stop-color:#aac736;stop-opacity:1;"
         offset="0"
         id="stop5320-4" />
      <stop
         style="stop-color:#5d8b2c;stop-opacity:1;"
         offset="1"
         id="stop5322-6" />
    </linearGradient>
    <linearGradient
       inkscape:collect="always"
       xlink:href="#linearGradient5165-7-9-8-2-67"
       id="linearGradient31059"
       gradientUnits="userSpaceOnUse"
       gradientTransform="translate(-274.43625,37.414147)"
       x1="275.29071"
       y1="1094.0099"
       x2="275.29071"
       y2="1117.1519" />
    <linearGradient
       id="linearGradient5165-7-9-8-2-67">
      <stop
         id="stop5167-4-8-6-9-1"
         style="stop-color:#ffffff;stop-opacity:1"
         offset="0" />
      <stop
         id="stop5169-5-5-2-9-1"
         style="stop-color:#ffffff;stop-opacity:0"
         offset="1" />
    </linearGradient>
    <linearGradient
       inkscape:collect="always"
       xlink:href="#linearGradient5316-76"
       id="linearGradient31061"
       gradientUnits="userSpaceOnUse"
       gradientTransform="translate(-274.43625,37.414147)"
       x1="280.65372"
       y1="1100.6647"
       x2="292.69617"
       y2="1118.8726" />
    <linearGradient
       id="linearGradient7338">
      <stop
         style="stop-color:#aac736;stop-opacity:1;"
         offset="0"
         id="stop7340" />
      <stop
         style="stop-color:#5d8b2c;stop-opacity:1;"
         offset="1"
         id="stop7342" />
    </linearGradient>
    <linearGradient
       inkscape:collect="always"
       xlink:href="#linearGradient5344-0"
       id="linearGradient31063"
       gradientUnits="userSpaceOnUse"
       gradientTransform="translate(-274.43625,37.414147)"
       x1="317.94461"
       y1="1142.4757"
       x2="283.81964"
       y2="1103.8007" />
    <linearGradient
       id="linearGradient5344-0">
      <stop
         style="stop-color:#000000;stop-opacity:1;"
         offset="0"
         id="stop5346-9" />
      <stop
         style="stop-color:#000000;stop-opacity:0;"
         offset="1"
         id="stop5348-5" />
    </linearGradient>
  </defs>
  <sodipodi:namedview
     id="base"
     pagecolor="#ffffff"
     bordercolor="#666666"
     borderopacity="1.0"
     inkscape:pageopacity="0.0"
     inkscape:pageshadow="2"
     inkscape:zoom="1.979899"
     inkscape:cx="143.32618"
     inkscape:cy="96.89407"
     inkscape:document-units="px"
     inkscape:current-layer="layer1"
     showgrid="false"
     inkscape:window-width="1280"
     inkscape:window-height="716"
     inkscape:window-x="0"
     inkscape:window-y="25"
     inkscape:window-maximized="0" />
  <metadata
     id="metadata6939">
    <rdf:RDF>
      <cc:Work
         rdf:about="">
        <dc:format>image/svg+xml</dc:format>
        <dc:type
           rdf:resource="http://purl.org/dc/dcmitype/StillImage" />
        <dc:title />
      </cc:Work>
    </rdf:RDF>
  </metadata>
  <g
     inkscape:label="Capa 1"
     inkscape:groupmode="layer"
     id="layer1">
    <g
       style="display:inline"
       id="g30879"
       transform="matrix(5.3333221,0,0,5.3340538,12.325299,-6064.0938)">
      <path
         id="path30881"
         d="m 3.532499,1137.9142 -3.5625,0.5312 -0.09375,0 0,0.031 c -1.07151,0.1966 -1.625,1.0505 -1.625,2.0937 l 0,15.875 c -0.01317,1.0597 0.38841,1.893 1.1875,2.1563 l 3.6875,1.1563 0.03125,-1.5 10.25,-1.5626 c 0.95284,-0.1032 1.58301,-0.9907 1.53125,-2.25 l 0.0625,-13.0624 c 0.037,-0.9936 -0.47278,-1.8035 -1.5625,-1.9688 l -9.90625,-0.75 0,-0.75 z"
         style="fill:url(#linearGradient31057);fill-rule:evenodd;stroke:none;display:inline"
         inkscape:connector-curvature="0" />
      <path
         sodipodi:nodetypes="cccccccccc"
         style="fill:url(#linearGradient31059);fill-rule:evenodd;stroke:none;display:inline"
         d="m 3.532499,1137.9142 -3.5625,0.5312 -0.09375,0 0,0.031 c -1.07151,0.1966 -1.625,1.0505 -1.625,2.0937 l 0,14.0188 16.6875,-0.1438 0.0625,-13.0624 c 0.037,-0.9936 -0.47278,-1.8035 -1.5625,-1.9688 l -9.90625,-1.5 z"
         id="path30883"
         inkscape:connector-curvature="0" />
      <path
         style="fill:url(#linearGradient31061);fill-rule:evenodd;stroke:none"
         d="m 1.883759,1140.247 -0.00205,17.122 c -0.11538,1.5664 0.82654,2.7571 2.39642,2.5051 l 14.6759,-2.2161 c 1.07245,-0.1161 1.77208,-1.1338 1.71386,-2.5513 l 0.07904,-13.9283 c 0.04171,-1.1183 -0.53055,-2.0543 -1.75702,-2.2404 l -14.59304,-1.1172 c -1.6687,-0.082 -2.51311,1.0437 -2.51311,2.4262 z"
         id="path30885"
         sodipodi:nodetypes="ccccccccc"
         inkscape:export-filename="/home/dafeba/DCV/tallerD/bocetos/08-09-22-hastaahora.png"
         inkscape:export-xdpi="57.964222"
         inkscape:export-ydpi="57.964222"
         inkscape:connector-curvature="0" />
      <path
         inkscape:export-ydpi="57.964222"
         inkscape:export-xdpi="57.964222"
         inkscape:export-filename="/home/dafeba/DCV/tallerD/bocetos/08-09-22-hastaahora.png"
         sodipodi:nodetypes="ccccccccc"
         id="path30887"
         d="m 1.883759,1140.247 -0.00205,17.122 c -0.11538,1.5664 0.82654,2.7571 2.39642,2.5051 l 14.6759,-2.2161 c 1.07245,-0.1161 1.77208,-1.1338 1.71386,-2.5513 l 0.07904,-13.9283 c 0.04171,-1.1183 -0.53055,-2.0543 -1.75702,-2.2404 l -14.59304,-1.1172 c -1.6687,-0.082 -2.51311,1.0437 -2.51311,2.4262 z"
         style="fill:url(#linearGradient31063);fill-rule:evenodd;stroke:none"
         inkscape:connector-curvature="0" />
      <path
         sodipodi:nodetypes="ccccccccccccc"
         id="path30889"
         d="m 4.405333,1137.8172 c -0.32515,-0.016 -0.61259,0.025 -0.875,0.094 l -3.65625,0.5626 c -1.07151,0.1966 -1.625,1.0506 -1.625,2.0938 l 0,15.875 c -0.01317,1.0596 0.38841,1.8929 1.1875,2.1562 l 3.6875,1.1563 c 0.336,0.1387 0.70771,0.1969 1.15625,0.125 l 14.6875,-2.2189 c 1.07245,-0.116 1.77697,-1.1449 1.71875,-2.5624 l 0.0625,-13.9376 c 0.04171,-1.1183 -0.52353,-2.0326 -1.75,-2.2186 l -14.59375,-1.125 z"
         style="fill:none;stroke:#344b63;stroke-width:0.5;stroke-linecap:butt;stroke-linejoin:miter;stroke-miterlimit:4;stroke-opacity:1;stroke-dasharray:none;display:inline"
         inkscape:connector-curvature="0" />
      <path
         style="fill:#ffffff;stroke:#344b63;stroke-linecap:round;stroke-linejoin:round;stroke-opacity:1;display:inline"
         d="m 9.6761612,1139.8792 c -3.787078,-0.2295 -5.0635385,1.9156 -6.830851,3.6852 1.8216708,0.6053 3.2541888,-1.5002 5.0332588,-1.5396 0,0 0,4.3561 0,4.3561 0.6503988,-0.4353 1.3806362,-0.7585 2.169725,-0.9638 0,0 0,4.1371 0,4.1371 0.510279,-0.1145 1.016099,-0.2298 1.526377,-0.3418 2.137633,-0.4563 5.783776,-0.5291 5.266632,2.061 -0.291979,1.4787 -2.56227,2.7543 -4.642205,2.9746 0,0 -4.320529,0.4574 -4.320529,0.4574 0,0 0,-8.3245 0,-8.3245 -1.7991283,1.2408 -2.9707587,3.2948 -2.9707587,5.5898 -2.1e-6,3.8058 3.2173118,6.4073 7.1840627,5.8049 3.966752,-0.6023 7.184064,-3.6502 7.184064,-6.8025 -2e-6,-3.1523 -3.217314,-5.7535 -7.184064,-5.8049 -0.710152,-0.01 -1.395516,0.077 -2.043579,0.2429 0,0 0,-5.5022 0,-5.5022 -0.127484,-0.011 -0.249968,-0.021 -0.3721328,-0.03 0,0 0,0 0,0 m 3.1662878,10.1894 c -0.932881,0.032 -2.080768,0.3554 -2.73108,0.458 3e-6,0.8736 0,1.7467 0,2.6203 0.822333,-0.063 1.624669,-0.1981 2.409403,-0.4465 0.912117,-0.2839 1.616607,-0.7833 1.75975,-1.4371 0.217118,-0.987 -0.5052,-1.2264 -1.438073,-1.1947 0,0 0,0 0,0"
         id="path30891"
         inkscape:connector-curvature="0" />
      <path
         id="path30893"
         d="m 9.9261612,1139.8792 c -3.787078,-0.2295 -5.0635385,1.9156 -6.830851,3.6852 1.8216708,0.6053 3.2541888,-1.5002 5.0332588,-1.5396 0,0 0,4.3561 0,4.3561 0.6503988,-0.4353 1.3806362,-0.7585 2.169725,-0.9638 0,0 0,4.1371 0,4.1371 0.510279,-0.1145 1.016099,-0.2298 1.526377,-0.3418 2.137633,-0.4563 5.783776,-0.5291 5.266632,2.061 -0.291979,1.4787 -2.56227,2.7543 -4.642205,2.9746 0,0 -4.320529,0.4574 -4.320529,0.4574 0,0 0,-8.3245 0,-8.3245 -1.7991283,1.2408 -2.9707587,3.2948 -2.9707587,5.5898 -2.1e-6,3.8058 3.2173118,6.4073 7.1840627,5.8049 3.966752,-0.6023 7.184064,-3.6502 7.184064,-6.8025 -2e-6,-3.1523 -3.217314,-5.7535 -7.184064,-5.8049 -0.710152,-0.01 -1.395516,0.077 -2.043579,0.2429 0,0 0,-5.5022 0,-5.5022 -0.127484,-0.011 -0.249968,-0.021 -0.3721328,-0.03 0,0 0,0 0,0 m 3.1662878,10.1894 c -0.932881,0.032 -2.080768,0.3554 -2.73108,0.458 3e-6,0.8736 0,1.7467 0,2.6203 0.822333,-0.063 1.624669,-0.1981 2.409403,-0.4465 0.912117,-0.2839 1.616607,-0.7833 1.75975,-1.4371 0.217118,-0.987 -0.5052,-1.2264 -1.438073,-1.1947 0,0 0,0 0,0"
         style="fill:#ffffff;stroke:none;display:inline"
         inkscape:connector-curvature="0" />
    </g>
  </g>
</svg>
