<?xml version="1.0" encoding="UTF-8" standalone="no"?>
<!-- Created with Inkscape (http://www.inkscape.org/) -->

<svg
   xmlns:dc="http://purl.org/dc/elements/1.1/"
   xmlns:cc="http://creativecommons.org/ns#"
   xmlns:rdf="http://www.w3.org/1999/02/22-rdf-syntax-ns#"
   xmlns:svg="http://www.w3.org/2000/svg"
   xmlns="http://www.w3.org/2000/svg"
   xmlns:xlink="http://www.w3.org/1999/xlink"
   xmlns:sodipodi="http://sodipodi.sourceforge.net/DTD/sodipodi-0.dtd"
   xmlns:inkscape="http://www.inkscape.org/namespaces/inkscape"
   width="128"
   height="128"
   id="svg6934"
   sodipodi:version="0.32"
   inkscape:version="0.48.3.1 r9886"
   version="1.0"
   sodipodi:docname="aaa-generic.svg"
   inkscape:output_extension="org.inkscape.output.svg.inkscape">
  <defs
     id="defs6936">
    <linearGradient
       id="linearGradient5344">
      <stop
         style="stop-color:#000000;stop-opacity:1;"
         offset="0"
         id="stop5346" />
      <stop
         style="stop-color:#000000;stop-opacity:0;"
         offset="1"
         id="stop5348" />
    </linearGradient>
    <linearGradient
       id="linearGradient5165-7-9-8-2">
      <stop
         id="stop5167-4-8-6-9"
         style="stop-color:#ffffff;stop-opacity:1"
         offset="0" />
      <stop
         id="stop5169-5-5-2-9"
         style="stop-color:#ffffff;stop-opacity:0"
         offset="1" />
    </linearGradient>
    <linearGradient
       inkscape:collect="always"
       xlink:href="#linearGradient5344"
       id="linearGradient3107"
       gradientUnits="userSpaceOnUse"
       gradientTransform="matrix(5.3340639,0,0,5.3340639,-1451.4802,-5864.5574)"
       x1="305.23422"
       y1="1137.0681"
       x2="283.35095"
       y2="1104.2024" />
    <linearGradient
       inkscape:collect="always"
       xlink:href="#linearGradient5344-50"
       id="linearGradient13031-7"
       gradientUnits="userSpaceOnUse"
       gradientTransform="matrix(2.3371908,-0.19593194,0,2.3371908,-1123.3759,-2035.152)"
       x1="516.625"
       y1="949.4657"
       x2="516.625"
       y2="953.45752" />
    <linearGradient
       id="linearGradient5344-50">
      <stop
         style="stop-color:#000000;stop-opacity:1;"
         offset="0"
         id="stop5346-2" />
      <stop
         style="stop-color:#000000;stop-opacity:0;"
         offset="1"
         id="stop5348-5" />
    </linearGradient>
    <linearGradient
       inkscape:collect="always"
       xlink:href="#linearGradient5316-0"
       id="linearGradient13027-1"
       gradientUnits="userSpaceOnUse"
       gradientTransform="matrix(3.6383072,-0.24094751,0,3.6383072,-1797.8001,-3254.4436)"
       x1="516.625"
       y1="951.58276"
       x2="516.84595"
       y2="953.33002" />
    <linearGradient
       id="linearGradient5316-0">
      <stop
         style="stop-color:#aac736;stop-opacity:1;"
         offset="0"
         id="stop5320-8" />
      <stop
         style="stop-color:#5d8b2c;stop-opacity:1;"
         offset="1"
         id="stop5322-1" />
    </linearGradient>
    <linearGradient
       inkscape:collect="always"
       xlink:href="#linearGradient13604-6"
       id="linearGradient13023-1"
       gradientUnits="userSpaceOnUse"
       gradientTransform="matrix(3.6383072,0,0,3.6383072,-1871.8013,-3376.2301)"
       x1="532.71075"
       y1="943.25812"
       x2="540.65033"
       y2="973.31165" />
    <linearGradient
       id="linearGradient13604-6">
      <stop
         id="stop13606-2"
         offset="0"
         style="stop-color:#ffffff;stop-opacity:1;" />
      <stop
         id="stop13608-7"
         offset="1"
         style="stop-color:#000000;stop-opacity:1;" />
    </linearGradient>
    <linearGradient
       inkscape:collect="always"
       xlink:href="#linearGradient13620-8"
       id="linearGradient13021-7"
       gradientUnits="userSpaceOnUse"
       gradientTransform="matrix(3.6383072,0,0,3.6383072,-1811.8986,-3430.9797)"
       x1="508.00168"
       y1="976.56775"
       x2="507.60999"
       y2="969.06256" />
    <linearGradient
       id="linearGradient13620-8">
      <stop
         id="stop13622-7"
         offset="0"
         style="stop-color:#000000;stop-opacity:1;" />
      <stop
         id="stop13624-6"
         offset="1"
         style="stop-color:#000000;stop-opacity:0;" />
    </linearGradient>
    <linearGradient
       inkscape:collect="always"
       xlink:href="#linearGradient13604-6"
       id="linearGradient13015-1"
       gradientUnits="userSpaceOnUse"
       gradientTransform="matrix(3.6383072,0,0,3.6383072,-1811.8986,-3430.9797)"
       x1="507.15793"
       y1="956.94275"
       x2="506.35999"
       y2="981.68756" />
    <linearGradient
       inkscape:collect="always"
       xlink:href="#linearGradient5165-7-9-8-2"
       id="linearGradient3092"
       gradientUnits="userSpaceOnUse"
       gradientTransform="translate(-40,140)"
       x1="22.933788"
       y1="-144.76825"
       x2="18.618809"
       y2="-96.331688" />
    <linearGradient
       inkscape:collect="always"
       xlink:href="#linearGradient5344"
       id="linearGradient3094"
       gradientUnits="userSpaceOnUse"
       gradientTransform="translate(-40,140)"
       x1="7.9531264"
       y1="2.2416961"
       x2="13.667412"
       y2="-64.464973" />
  </defs>
  <sodipodi:namedview
     id="base"
     pagecolor="#ffffff"
     bordercolor="#666666"
     borderopacity="1.0"
     inkscape:pageopacity="0.0"
     inkscape:pageshadow="2"
     inkscape:zoom="1.979899"
     inkscape:cx="9.4815837"
     inkscape:cy="20.698156"
     inkscape:document-units="px"
     inkscape:current-layer="layer1"
     showgrid="false"
     inkscape:window-width="1366"
     inkscape:window-height="717"
     inkscape:window-x="0"
     inkscape:window-y="0"
     inkscape:window-maximized="1" />
  <metadata
     id="metadata6939">
    <rdf:RDF>
      <cc:Work
         rdf:about="">
        <dc:format>image/svg+xml</dc:format>
        <dc:type
           rdf:resource="http://purl.org/dc/dcmitype/StillImage" />
        <dc:title></dc:title>
      </cc:Work>
    </rdf:RDF>
  </metadata>
  <g
     inkscape:label="Capa 1"
     inkscape:groupmode="layer"
     id="layer1">
    <path
       style="fill:#666666;fill-opacity:1;fill-rule:evenodd;stroke:none"
       d="m 34.21875,5.062503 c -1.32927,0.0554 -2.55056,0.27966 -3.65625,0.625 l -18.34375,2.71875 -0.5,0 0,0.1875 c -5.7155,1.04907 -8.65625,5.59198 -8.65625,11.15625 l 0,84.687497 c -0.0702,5.65226 2.0501,10.0952 6.3125,11.5 l 18.96875,5.9375 c 0.0209,0.0102 0.0415,0.0212 0.0625,0.0313 1.89272,0.90932 4.16442,1.2325 6.78125,0.8125 l 78.28125,-11.8125 c 5.72052,-0.61974 9.4668,-6.06393 9.15625,-13.625 l 0.40625,-74.281297 c 0.22248,-5.96534 -2.80168,-10.97622 -9.34375,-11.96875 l -77.84375,-5.9375 c -0.55631,-0.0273 -1.10307,-0.053 -1.625,-0.0313 z"
       id="path30949"
       inkscape:connector-curvature="0" />
    <path
       style="fill:url(#linearGradient3107);fill-rule:evenodd;stroke:none"
       d="M 29.25,16.718753 29.2187,113.125 c 0.4487,3.45828 1.40755,8.12456 4.34375,9.75 0.52713,-0.0229 1.0675,-0.0668 1.625,-0.15625 l 78.28125,-11.8125 c 5.72052,-0.61974 9.4668,-6.06393 9.15625,-13.625 l 0.40625,-74.281247 c 0.22245,-5.96534 -2.80168,-10.97622 -9.34375,-11.96875 L 37.6784,5.233693 c -3.97126,-0.42067 -8.41551,4.78057 -8.42845,11.48506 z M 30.15625,122.5 c 0.64796,0.17153 1.31467,0.32617 2.03125,0.375 z"
       id="path30953"
       inkscape:connector-curvature="0"
       sodipodi:nodetypes="ccccccccccccc" />
    <g
       id="g3087"
       transform="translate(40,0)">
      <path
         inkscape:connector-curvature="0"
         id="path3073"
         d="m -5.21875,5.312503 -22.5625,3.09375 -0.5,0 0,0.1875 c -5.715501,1.04907 -8.65625,5.59198 -8.65625,11.15625 l 0,25 26.1875,0 0,-28.03125 c 0.347051,-4.91678 2.274064,-9.96378 5.53125,-11.40625 z"
         style="fill:url(#linearGradient3092);fill-rule:evenodd;stroke:none;display:inline" />
      <path
         inkscape:connector-curvature="0"
         id="path3081"
         d="m -36.9375,68.406253 0,36.031247 c -0.07024,5.65226 2.050104,10.0952 6.3125,11.5 l 17.65625,6.03125 7.5,1.3125 c -3.710844,-1.04488 -4.81745,-6.34073 -5.3125,-10.15625 l 0,-44.718747 -26.15625,0 z"
         style="fill:url(#linearGradient3094);fill-rule:evenodd;stroke:none;display:inline" />
    </g>
    <path
       inkscape:connector-curvature="0"
       id="path30957"
       d="m 35.825012,5.0844328 c -1.734374,-0.0853 -3.26759,0.13333 -4.667303,0.50133 L 11.65504,8.5863028 C 5.9395447,9.6353728 2.9871862,14.190033 2.9871862,19.754303 l 0,84.678437 c -0.07024,5.65226 2.0718035,10.09707 6.3341998,11.50187 l 19.669357,6.16693 c 1.792241,0.74027 3.774988,1.0512 6.167512,0.6672 l 78.344065,-11.8352 c 5.72052,-0.6192 9.47847,-6.1072 9.16792,-13.66827 l 0.33339,-74.344027 c 0.22245,-5.96534 -2.79254,-10.84214 -9.33461,-11.83467 L 35.825018,5.0855028 z"
       style="fill:none;stroke:#344b63;stroke-width:2.667032;stroke-linecap:butt;stroke-linejoin:miter;stroke-miterlimit:4;stroke-opacity:1;stroke-dasharray:none;display:inline"
       sodipodi:nodetypes="ccccccccccccc" />
    <path
       sodipodi:nodetypes="cccssssccssssccccssccssssccssssssscssccccccccccccccccccccccccccccccccccccccccccccccsscccssssccssscsccssscccssssccsssssssssccccccccccccscccccccsccccccccccscscccccc"
       id="path3854"
       d="M 101.33357,12.350756 84.70768,27.745409 c -0.06673,-1.693959 0.06649,-4.577441 0.06649,-5.77344 -0.825049,-0.458199 -3.537933,-1.21195 -4.764967,-1.223834 -2.117837,-0.02051 -2.062786,7.000392 -3.8563,6.983021 l -3.634671,-0.0352 c -1.538194,-0.0149 -2.364888,-6.803165 -3.401967,-6.813209 -2.217469,-0.02148 -4.111452,0.443335 -5.485252,1.353235 l 0.265952,4.450336 0,2.103825 c 0,0.922191 -3.297542,2.311997 -4.077927,2.304439 -0.980633,-0.0095 -4.578783,-4.960893 -5.2193,-4.967097 -0.973764,-0.0094 -4.532261,2.455404 -4.532261,3.226179 0,0.844711 1.990688,4.640816 2.415728,5.740313 0.587498,1.519886 -1.913828,3.680992 -3.11385,4.348998 l -6.105802,-2.894726 c -1.744824,0.935681 -2.5352,3.027335 -3.401967,4.883598 0.770571,0.922565 4.986596,4.443022 4.986596,5.19352 l 0,0.24011 c 0,1.20832 -1.168827,4.06366 -2.271672,4.185648 -1.600032,0.176437 -4.59935,-0.04455 -6.349596,-0.0615 -0.616943,1.196775 -1.130294,3.29091 -1.130294,5.134276 0,1.956305 6.80393,1.643488 6.80393,4.284981 l 0,3.843402 c 0,1.574463 -6.582304,2.465389 -6.582304,3.877799 0,2.309283 0.460409,3.983117 1.363003,5.393233 l 3.856298,-0.349109 2.493297,-0.04829 c 0.869712,-0.01685 2.271671,3.430639 2.271671,4.175078 0,1.243266 -4.764968,4.419501 -4.764968,5.706309 0,0.725195 2.434804,4.400596 3.180339,4.386156 1.025791,-0.01987 5.595162,-2.921104 6.116889,-2.93121 0.579154,-0.01122 3.401965,2.66665 3.401965,3.215613 l 0,0.468787 c 0,0.650244 -2.11832,5.393091 -2.493297,6.131094 0.403009,0.77804 1.811511,2.051009 3.158175,2.728676 0.573828,0.288758 1.138681,0.469599 1.606793,0.460531 0.79085,-0.01532 3.03816,-3.675567 4.399283,-4.727353 L 56.383826,96.9126 c -0.04608,0.02024 -0.08751,0.05832 -0.132977,0.09404 -0.02841,0.02213 -0.05949,0.04424 -0.08866,0.07036 -0.01819,0.01633 -0.03666,0.02953 -0.05542,0.0468 -0.01234,0.01135 -0.0206,0.02331 -0.03322,0.03496 -0.03734,0.03433 -0.06996,0.0704 -0.110814,0.105055 -0.02092,0.01781 -0.04436,0.02968 -0.06649,0.04701 -0.05958,0.04667 -0.128706,0.08091 -0.199465,0.118196 -0.0047,0.0031 -0.0064,0.0093 -0.01111,0.01172 -0.03546,0.0181 -0.07186,0.03367 -0.110813,0.04787 -0.06811,0.02484 -0.140984,0.05294 -0.221627,0.06142 -0.0076,8.79e-4 -0.0144,-7.7e-5 -0.02217,4.29e-4 -0.08762,0.0068 -0.183063,5.1e-4 -0.288113,-0.01723 -0.01667,-0.0027 -0.03826,-0.0064 -0.05542,-0.01043 -0.02865,-0.0066 -0.05862,-0.01271 -0.08866,-0.0212 -0.03153,-0.0086 -0.06664,-0.02101 -0.09974,-0.03239 -0.02875,-0.0098 -0.05864,-0.02077 -0.08866,-0.0326 -0.01117,-0.0049 -0.02188,-0.0058 -0.03322,-0.01076 -0.127377,-0.05253 -0.258813,-0.12859 -0.410008,-0.220737 l -0.365684,-0.198731 -12.876493,21.584948 0.941912,-1.01298 -0.03322,0.0578 22.583729,-23.31655 c -0.138153,-0.15883 -0.282381,-0.311349 -0.432171,-0.448984 -0.01369,-0.01257 -0.03052,-0.021 -0.04432,-0.03346 -0.03698,-0.0333 -0.07322,-0.06876 -0.110813,-0.100757 -0.04605,-0.03923 -0.09712,-0.07419 -0.144058,-0.111543 -0.05294,-0.04205 -0.101128,-0.08309 -0.155138,-0.122776 -0.0329,-0.02421 -0.06644,-0.04333 -0.09973,-0.0667 -0.0878,-0.06134 -0.175716,-0.122683 -0.265952,-0.177791 -0.08131,-0.04964 -0.160713,-0.0993 -0.243789,-0.143922 -0.01022,-0.006 -0.02302,-0.0058 -0.03322,-0.01076 -0.105726,-0.0559 -0.2132,-0.106141 -0.321358,-0.153846 -0.167785,-0.07404 -0.337396,-0.141588 -0.50974,-0.195941 -0.0077,-0.0029 -0.01443,-0.0089 -0.02217,-0.01098 -0.115098,-0.03565 -0.227013,-0.05792 -0.343521,-0.0848 -0.08156,-0.019 -0.161726,-0.03771 -0.243789,-0.0524 -0.01837,-0.0036 -0.03701,-0.0074 -0.05542,-0.01043 -0.121092,-0.02015 -0.244013,-0.03916 -0.365684,-0.05006 -0.0036,-2.96e-4 -0.0074,5.1e-4 -0.0111,2.15e-4 -0.05517,-0.0051 -0.111022,-0.005 -0.16622,-0.0083 -0.121763,-0.0069 -0.244104,-0.0072 -0.365683,-0.0044 -0.07737,0.0018 -0.155585,-0.001 -0.232707,0.0046 -0.05141,0.004 -0.103211,0.0091 -0.155138,0.01441 0.109552,-0.05641 0.207925,-0.09548 0.299194,-0.09726 l 0.232708,-0.0046 c 1.204443,-0.02333 4.077927,1.121214 4.077927,2.493618 l 0.05542,3.051764 -0.277033,3.035333 c 1.286407,0.86384 3.328008,1.34189 5.440927,1.30095 1.092047,-0.0212 1.974206,-7.058595 3.401965,-7.086252 l 3.634673,-0.07041 c 1.327599,-0.02572 2.583791,6.741652 3.401965,6.725802 2.217469,-0.043 4.111453,-0.57424 5.485253,-1.52405 l -0.265952,-4.431176 0,-2.103827 c 0,-0.922186 3.297542,-2.407805 4.077925,-2.422922 0.980635,-0.019 4.578783,4.827848 5.219301,4.815441 0.998791,-0.01935 4.532261,-2.563073 4.532261,-3.369297 -3e-5,-1.029493 -2.71496,-5.838778 -2.71496,-6.270263 0,-0.821922 2.71855,-3.423228 3.413054,-3.839277 l 6.1058,2.728753 c 1.08617,-0.614057 3.18034,-3.361638 3.18034,-4.978152 0,-0.914597 -4.76496,-3.959868 -4.76496,-5.064358 l 0,-0.228676 c 0,-1.208321 1.16882,-4.097619 2.27166,-4.251651 1.60003,-0.222925 4.5969,-0.09734 6.56014,-0.09279 l 0.91974,-5.677469 c -1.65057,-1.107982 -6.80391,-1.585435 -6.80391,-3.607068 l 0,-1.943599 c 0,-1.574461 6.58229,-2.262702 6.58229,-3.675111 l 0,-0.240111 c 0,-2.081897 -0.54138,-3.889635 -1.36299,-5.20416 l -4.76499,0.228263 -1.58461,-0.01534 c -0.8697,-0.0084 -2.27166,-3.485211 -2.27166,-4.22965 0,-1.088806 4.76496,-4.572441 4.76496,-5.339185 0,-1.030567 -2.39848,-4.711101 -3.18033,-4.718673 -1.09304,-0.01058 -5.45873,2.759853 -6.116904,2.753479 -0.57914,-0.0056 -3.401972,-2.765494 -3.401972,-3.314457 l 0,-0.457352 c 0,-1.189583 2.493302,-5.362394 2.493302,-6.298761 0,-0.59555 -3.689106,-3.077127 -4.764968,-3.087547 -0.252584,-0.0024 -0.668298,0.371724 -1.141377,0.903651 l 8.591959,-14.340514 -1.05274,1.05315 0.86435,-1.306519 z M 75.898032,34.143067 c 0.632013,0.0061 1.259068,0.03551 1.883824,0.09828 L 64.318052,46.8711 l 14.02895,0.295947 -23.791591,31.784119 10.006431,0.194922 -3.26899,5.482958 c 0.344184,0.232086 0.687333,0.446911 1.041645,0.654419 0.297458,0.174208 0.604341,0.339387 0.908668,0.49692 0.231917,0.120011 0.462351,0.230284 0.698124,0.340926 0.104514,0.04909 0.205016,0.106785 0.310275,0.154065 0.0031,0.0013 0.0079,-0.0016 0.01111,-2.15e-4 0.168493,0.07559 0.339373,0.136335 0.509741,0.207368 0.165837,0.06917 0.331085,0.154077 0.49866,0.219017 0.0031,0.0013 0.0078,-0.0015 0.0111,-2.14e-4 0.333759,0.12915 0.667961,0.244855 1.008401,0.357782 0.169503,0.05623 0.338634,0.109308 0.509741,0.161633 0.176843,0.05412 0.35338,0.111164 0.531902,0.161206 0.0294,0.0082 0.05921,0.013 0.08866,0.02115 0.339297,0.09371 0.674361,0.186512 1.01948,0.266098 0.271317,0.06255 0.545255,0.112883 0.820018,0.167058 0.12493,0.02466 0.251137,0.04976 0.376765,0.07273 0.308137,0.05636 0.618622,0.106972 0.930831,0.153476 L 84.862854,73.298916 71.997442,73.045036 94.304138,43.354059 c 4.377882,5.062557 7.158532,11.816322 7.158532,18.693227 0,15.395714 -12.013568,25.940734 -26.683817,26.768294 -14.224122,0.802724 -26.661654,-12.184876 -26.661654,-26.768294 0,-15.604854 12.346912,-28.053698 27.780868,-27.904218 z m 10.804286,2.963097 c 1.439936,0.799823 2.820488,1.75192 4.11117,2.81824 l -5.795531,-0.079 z"
       style="fill:#000000;fill-rule:evenodd;stroke:#000000;stroke-width:5;stroke-miterlimit:4;stroke-dasharray:none;stroke-linejoin:round;stroke-linecap:round;stroke-opacity:0.53112035999999996;fill-opacity:0.15352698"
       inkscape:connector-curvature="0" />
    <path
       inkscape:connector-curvature="0"
       style="fill:#ffffff;fill-rule:evenodd;stroke:none"
       d="M 103.77551,12.350756 87.149622,27.745409 c -0.06673,-1.693959 0.06649,-4.577441 0.06649,-5.77344 -0.825049,-0.458199 -3.537933,-1.21195 -4.764967,-1.223834 -2.117837,-0.02051 -2.062786,7.000392 -3.8563,6.983021 l -3.634671,-0.0352 c -1.538194,-0.0149 -2.364888,-6.803165 -3.401967,-6.813209 -2.217469,-0.02148 -4.111452,0.443335 -5.485252,1.353235 l 0.265952,4.450336 0,2.103825 c 0,0.922191 -3.297542,2.311997 -4.077927,2.304439 -0.980633,-0.0095 -4.578783,-4.960893 -5.2193,-4.967097 -0.973764,-0.0094 -4.532261,2.455404 -4.532261,3.226179 0,0.844711 1.990688,4.640816 2.415728,5.740313 0.587498,1.519886 -1.913828,3.680992 -3.11385,4.348998 l -6.105802,-2.894726 c -1.744824,0.935681 -2.5352,3.027335 -3.401967,4.883598 0.770571,0.922565 4.986596,4.443022 4.986596,5.19352 l 0,0.24011 c 0,1.20832 -1.168827,4.06366 -2.271672,4.185648 -1.600032,0.176437 -4.59935,-0.04455 -6.349596,-0.0615 -0.616943,1.196775 -1.130294,3.29091 -1.130294,5.134276 0,1.956305 6.80393,1.643488 6.80393,4.284981 l 0,3.843402 c 0,1.574463 -6.582304,2.465389 -6.582304,3.877799 0,2.309283 0.460409,3.983117 1.363003,5.393233 l 3.856298,-0.349109 2.493297,-0.04829 c 0.869712,-0.01685 2.271671,3.430639 2.271671,4.175078 0,1.243266 -4.764968,4.419501 -4.764968,5.706309 0,0.725195 2.434804,4.400596 3.180339,4.386156 1.025791,-0.01987 5.595162,-2.921104 6.116889,-2.93121 0.579154,-0.01122 3.401965,2.66665 3.401965,3.215613 l 0,0.468787 c 0,0.650244 -2.11832,5.393091 -2.493297,6.131094 0.403009,0.77804 1.811511,2.051009 3.158175,2.728676 0.573828,0.288758 1.138681,0.469599 1.606793,0.460531 0.79085,-0.01532 3.03816,-3.675567 4.399283,-4.727353 L 58.825768,96.9126 c -0.04608,0.02024 -0.08751,0.05832 -0.132977,0.09404 -0.02841,0.02213 -0.05949,0.04424 -0.08866,0.07036 -0.01819,0.01633 -0.03666,0.02953 -0.05542,0.0468 -0.01234,0.01135 -0.0206,0.02331 -0.03322,0.03496 -0.03734,0.03433 -0.06996,0.0704 -0.110814,0.105055 -0.02092,0.01781 -0.04436,0.02968 -0.06649,0.04701 -0.05958,0.04667 -0.128706,0.08091 -0.199465,0.118196 -0.0047,0.0031 -0.0064,0.0093 -0.01111,0.01172 -0.03546,0.0181 -0.07186,0.03367 -0.110813,0.04787 -0.06811,0.02484 -0.140984,0.05294 -0.221627,0.06142 -0.0076,8.79e-4 -0.0144,-7.7e-5 -0.02217,4.29e-4 -0.08762,0.0068 -0.183063,5.1e-4 -0.288113,-0.01723 -0.01667,-0.0027 -0.03826,-0.0064 -0.05542,-0.01043 -0.02865,-0.0066 -0.05862,-0.01271 -0.08866,-0.0212 -0.03153,-0.0086 -0.06664,-0.02101 -0.09974,-0.03239 -0.02875,-0.0098 -0.05864,-0.02077 -0.08866,-0.0326 -0.01117,-0.0049 -0.02188,-0.0058 -0.03322,-0.01076 -0.127377,-0.05253 -0.258813,-0.12859 -0.410008,-0.220737 l -0.365684,-0.198731 -12.876493,21.584948 0.941912,-1.01298 -0.03322,0.0578 22.583729,-23.31655 c -0.138153,-0.15883 -0.282381,-0.311349 -0.432171,-0.448984 -0.01369,-0.01257 -0.03052,-0.021 -0.04432,-0.03346 -0.03698,-0.0333 -0.07322,-0.06876 -0.110813,-0.100757 -0.04605,-0.03923 -0.09712,-0.07419 -0.144058,-0.111543 -0.05294,-0.04205 -0.101128,-0.08309 -0.155138,-0.122776 -0.0329,-0.02421 -0.06644,-0.04333 -0.09973,-0.0667 -0.0878,-0.06134 -0.175716,-0.122683 -0.265952,-0.177791 -0.08131,-0.04964 -0.160713,-0.0993 -0.243789,-0.143922 -0.01022,-0.006 -0.02302,-0.0058 -0.03322,-0.01076 -0.105726,-0.0559 -0.2132,-0.106141 -0.321358,-0.153846 -0.167785,-0.07404 -0.337396,-0.141588 -0.50974,-0.195941 -0.0077,-0.0029 -0.01443,-0.0089 -0.02217,-0.01098 -0.115098,-0.03565 -0.227013,-0.05792 -0.343521,-0.0848 -0.08156,-0.019 -0.161726,-0.03771 -0.243789,-0.0524 -0.01837,-0.0036 -0.03701,-0.0074 -0.05542,-0.01043 -0.121092,-0.02015 -0.244013,-0.03916 -0.365684,-0.05006 -0.0036,-2.96e-4 -0.0074,5.1e-4 -0.0111,2.15e-4 -0.05517,-0.0051 -0.111022,-0.005 -0.16622,-0.0083 -0.121763,-0.0069 -0.244104,-0.0072 -0.365683,-0.0044 -0.07737,0.0018 -0.155585,-0.001 -0.232707,0.0046 -0.05141,0.004 -0.103211,0.0091 -0.155138,0.01441 0.109552,-0.05641 0.207925,-0.09548 0.299194,-0.09726 l 0.232708,-0.0046 c 1.204443,-0.02333 4.077927,1.121214 4.077927,2.493618 l 0.05542,3.051764 -0.277033,3.035333 c 1.286407,0.86384 3.328008,1.34189 5.440927,1.30095 1.092047,-0.0212 1.974206,-7.058595 3.401965,-7.086252 l 3.634673,-0.07041 c 1.327599,-0.02572 2.583791,6.741652 3.401965,6.725802 2.217469,-0.043 4.111453,-0.57424 5.485253,-1.52405 l -0.265952,-4.431176 0,-2.103827 c 0,-0.922186 3.297542,-2.407805 4.077925,-2.422922 0.980635,-0.019 4.578783,4.827848 5.219301,4.815441 0.998791,-0.01935 4.532263,-2.563073 4.532263,-3.369297 -3e-5,-1.029493 -2.714962,-5.838778 -2.714962,-6.270263 0,-0.821922 2.718552,-3.423228 3.413052,-3.839277 l 6.1058,2.728753 c 1.08617,-0.614057 3.18034,-3.361638 3.18034,-4.978152 0,-0.914597 -4.76496,-3.959868 -4.76496,-5.064358 l 0,-0.228676 c 0,-1.208321 1.16882,-4.097619 2.27166,-4.251651 1.60003,-0.222925 4.5969,-0.09734 6.56014,-0.09279 l 0.91974,-5.677469 c -1.65057,-1.107982 -6.80391,-1.585435 -6.80391,-3.607068 l 0,-1.943599 c 0,-1.574461 6.58229,-2.262702 6.58229,-3.675111 l 0,-0.240111 c 0,-2.081897 -0.54138,-3.889635 -1.36299,-5.20416 l -4.76499,0.228263 -1.58461,-0.01534 c -0.8697,-0.0084 -2.27166,-3.485211 -2.27166,-4.22965 0,-1.088806 4.76496,-4.572441 4.76496,-5.339185 0,-1.030567 -2.39848,-4.711101 -3.18033,-4.718673 -1.09304,-0.01058 -5.45873,2.759853 -6.1169,2.753479 -0.57914,-0.0056 -3.401974,-2.765494 -3.401974,-3.314457 l 0,-0.457352 c 0,-1.189583 2.493304,-5.362394 2.493304,-6.298761 0,-0.59555 -3.689108,-3.077127 -4.76497,-3.087547 -0.252584,-0.0024 -0.668298,0.371724 -1.141377,0.903651 l 8.591957,-14.340514 -1.05274,1.05315 0.86435,-1.306519 z M 78.339974,34.143067 c 0.632013,0.0061 1.259068,0.03551 1.883824,0.09828 L 66.759994,46.8711 l 14.02895,0.295947 -23.791591,31.784119 10.006431,0.194922 -3.26899,5.482958 c 0.344184,0.232086 0.687333,0.446911 1.041645,0.654419 0.297458,0.174208 0.604341,0.339387 0.908668,0.49692 0.231917,0.120011 0.462351,0.230284 0.698124,0.340926 0.104514,0.04909 0.205016,0.106785 0.310275,0.154065 0.0031,0.0013 0.0079,-0.0016 0.01111,-2.15e-4 0.168493,0.07559 0.339373,0.136335 0.509741,0.207368 0.165837,0.06917 0.331085,0.154077 0.49866,0.219017 0.0031,0.0013 0.0078,-0.0015 0.0111,-2.14e-4 0.333759,0.12915 0.667961,0.244855 1.008401,0.357782 0.169503,0.05623 0.338634,0.109308 0.509741,0.161633 0.176843,0.05412 0.35338,0.111164 0.531902,0.161206 0.0294,0.0082 0.05921,0.013 0.08866,0.02115 0.339297,0.09371 0.674361,0.186512 1.01948,0.266098 0.271317,0.06255 0.545255,0.112883 0.820018,0.167058 0.12493,0.02466 0.251137,0.04976 0.376765,0.07273 0.308137,0.05636 0.618622,0.106972 0.930831,0.153476 L 87.304796,73.298916 74.439384,73.045036 96.74608,43.354059 c 4.37788,5.062557 7.15853,11.816322 7.15853,18.693227 0,15.395714 -12.013566,25.940734 -26.683815,26.768294 -14.224122,0.802724 -26.661654,-12.184876 -26.661654,-26.768294 0,-15.604854 12.346912,-28.053698 27.780868,-27.904218 z m 10.804286,2.963097 c 1.439936,0.799823 2.820488,1.75192 4.11117,2.81824 l -5.795531,-0.079 z"
       id="path3082"
       sodipodi:nodetypes="cccssssccssssccccssccssssccssssssscssccccccccccccccccccccccccccccccccccccccccccccccsscccssssccssscsccssscccssssccsssssssssccccccccccccscccccccsccccccccccscscccccc" />
  </g>
</svg>
