<?xml version="1.0" encoding="UTF-8" standalone="no"?>
<!-- Created with Inkscape (http://www.inkscape.org/) -->

<svg
   xmlns:dc="http://purl.org/dc/elements/1.1/"
   xmlns:cc="http://creativecommons.org/ns#"
   xmlns:rdf="http://www.w3.org/1999/02/22-rdf-syntax-ns#"
   xmlns:svg="http://www.w3.org/2000/svg"
   xmlns="http://www.w3.org/2000/svg"
   xmlns:xlink="http://www.w3.org/1999/xlink"
   xmlns:sodipodi="http://sodipodi.sourceforge.net/DTD/sodipodi-0.dtd"
   xmlns:inkscape="http://www.inkscape.org/namespaces/inkscape"
   width="136.53334"
   height="136.53334"
   id="svg6934"
   sodipodi:version="0.32"
   inkscape:version="0.92.1 r15371"
   version="1.0"
   sodipodi:docname="fedora c.svg"
   inkscape:output_extension="org.inkscape.output.svg.inkscape">
  <defs
     id="defs6936">
    <linearGradient
       id="linearGradient5165-7-9-8-2-1">
      <stop
         id="stop5167-4-8-6-9-4"
         style="stop-color:#ffffff;stop-opacity:1"
         offset="0" />
      <stop
         id="stop5169-5-5-2-9-90"
         style="stop-color:#ffffff;stop-opacity:0"
         offset="1" />
    </linearGradient>
    <linearGradient
       id="linearGradient5344-4">
      <stop
         style="stop-color:#000000;stop-opacity:1;"
         offset="0"
         id="stop5346-96" />
      <stop
         style="stop-color:#000000;stop-opacity:0;"
         offset="1"
         id="stop5348-31" />
    </linearGradient>
    <linearGradient
       id="linearGradient5316">
      <stop
         id="stop5320"
         offset="0"
         style="stop-color:#87c7ff;stop-opacity:1;" />
      <stop
         id="stop5322"
         offset="1"
         style="stop-color:#74aadb;stop-opacity:1;" />
    </linearGradient>
    <linearGradient
       inkscape:collect="always"
       xlink:href="#linearGradient5316"
       id="linearGradient4851"
       gradientUnits="userSpaceOnUse"
       gradientTransform="scale(1.0666667)"
       x1="6.5963445"
       y1="25.086559"
       x2="117.48683"
       y2="107.41399" />
    <linearGradient
       inkscape:collect="always"
       xlink:href="#linearGradient5344-4"
       id="linearGradient4857"
       gradientUnits="userSpaceOnUse"
       gradientTransform="matrix(1.0666667,0,0,1.0666667,0,149.33333)"
       x1="7.9531264"
       y1="2.2416961"
       x2="13.667412"
       y2="-64.464973" />
    <linearGradient
       inkscape:collect="always"
       xlink:href="#linearGradient5165-7-9-8-2-1"
       id="linearGradient4855"
       gradientUnits="userSpaceOnUse"
       gradientTransform="matrix(1.0666667,0,0,1.0666667,0,149.33333)"
       x1="22.933788"
       y1="-144.76825"
       x2="18.618809"
       y2="-96.331688" />
    <linearGradient
       inkscape:collect="always"
       xlink:href="#linearGradient5344-4"
       id="linearGradient4853"
       gradientUnits="userSpaceOnUse"
       gradientTransform="matrix(5.6896682,0,0,5.6896682,-1548.2455,-6255.5279)"
       x1="305.23422"
       y1="1137.0681"
       x2="283.35095"
       y2="1104.2024" />
  </defs>
  <sodipodi:namedview
     id="base"
     pagecolor="#ffffff"
     bordercolor="#666666"
     borderopacity="1.0"
     inkscape:pageopacity="0.0"
     inkscape:pageshadow="2"
     inkscape:zoom="0.62604681"
     inkscape:cx="156.73656"
     inkscape:cy="148.26842"
     inkscape:document-units="px"
     inkscape:current-layer="layer2"
     showgrid="false"
     inkscape:window-width="1366"
     inkscape:window-height="714"
     inkscape:window-x="0"
     inkscape:window-y="26"
     inkscape:window-maximized="1"
     inkscape:snap-global="false" />
  <metadata
     id="metadata6939">
    <rdf:RDF>
      <cc:Work
         rdf:about="">
        <dc:format>image/svg+xml</dc:format>
        <dc:type
           rdf:resource="http://purl.org/dc/dcmitype/StillImage" />
        <dc:title></dc:title>
      </cc:Work>
    </rdf:RDF>
  </metadata>
  <g
     inkscape:label="Capa 1"
     inkscape:groupmode="layer"
     id="layer1">
    <path
       inkscape:connector-curvature="0"
       id="path4833"
       d="m 36.5,5.4 c -1.41789,0.0591 -2.72059,0.29831 -3.9,0.66667 l -19.56667,2.9 H 12.5 v 0.2 c -6.09653,1.11901 -9.23333,5.96478 -9.23333,11.9 V 111.4 C 3.19177,117.42908 5.45344,122.16821 10,123.66667 L 30.23333,130 c 0.0223,0.0109 0.0443,0.0226 0.0667,0.0334 2.01891,0.96994 4.44206,1.31466 7.23334,0.86666 l 83.49999,-12.6 c 6.10189,-0.66105 10.09792,-6.46819 9.76667,-14.53333 l 0.43333,-79.23338 C 131.47068,18.17032 128.2449,12.82538 121.2667,11.76668 L 38.23336,5.43334 c -0.59339,-0.0291 -1.1766,-0.0565 -1.73333,-0.0334 z"
       style="fill:url(#linearGradient4851);fill-opacity:1;fill-rule:evenodd;stroke:none;stroke-width:1.06666672" />
  </g>
  <g
     inkscape:groupmode="layer"
     id="layer3"
     inkscape:label="som"
     style="display:inline">
    <path
       sodipodi:nodetypes="ccccccccccccc"
       inkscape:connector-curvature="0"
       id="path4835"
       d="m 31.2,17.83334 -0.0333,102.83333 c 0.47861,3.68883 1.50138,8.66619 4.63333,10.4 0.56227,-0.0244 1.13867,-0.0713 1.73334,-0.16667 l 83.49999,-12.6 c 6.10189,-0.66106 10.09792,-6.46819 9.76667,-14.53333 l 0.43333,-79.23333 C 131.47064,18.17031 128.2449,12.82537 121.2667,11.76667 L 40.19038,5.5826105 C 35.95437,5.1338905 31.21383,10.68188 31.20003,17.83334 Z m 0.96667,112.83333 c 0.69116,0.18296 1.40232,0.34791 2.16666,0.4 z"
       style="fill:url(#linearGradient4853);fill-rule:evenodd;stroke:none;stroke-width:1.06666672" />
    <path
       inkscape:connector-curvature="0"
       id="path4837"
       d="m 37.1,5.6666705 -24.06667,3.3 H 12.5 v 0.2 C 6.40347,10.28568 3.26667,15.13145 3.26667,21.06667 V 47.73334 H 31.2 v -29.9 C 31.57019,12.58877 33.62567,7.2053005 37.1,5.6666705 Z"
       style="display:inline;fill:url(#linearGradient4855);fill-rule:evenodd;stroke:none;stroke-width:1.06666672" />
    <path
       inkscape:connector-curvature="0"
       id="path4839"
       d="M 3.26667,72.96667 V 111.4 C 3.19177,117.42908 5.45344,122.16821 10,123.66667 l 18.83333,6.43333 8,1.4 c -3.95823,-1.11454 -5.13861,-6.76345 -5.66666,-10.83333 v -47.7 z"
       style="display:inline;fill:url(#linearGradient4857);fill-rule:evenodd;stroke:none;stroke-width:1.06666672" />
  </g>
  <g
     inkscape:groupmode="layer"
     id="layer2"
     inkscape:label="top"
     style="display:inline">
    <path
       sodipodi:nodetypes="ccccccccccccc"
       style="display:inline;fill:none;stroke:#344b63;stroke-width:2.84483409;stroke-linecap:butt;stroke-linejoin:miter;stroke-miterlimit:4;stroke-dasharray:none;stroke-opacity:1"
       d="m 38.21335,5.4233905 c -1.85,-0.091 -3.48543,0.14222 -4.97846,0.53476 l -20.80285,3.20057 C 6.33551,10.27773 3.18633,15.13603 3.18633,21.07126 v 90.32366 c -0.0749,6.02908 2.20993,10.77021 6.75648,12.26866 l 20.98065,6.57806 c 1.91172,0.78962 4.02665,1.12128 6.57868,0.71168 l 83.567,-12.62421 c 6.10189,-0.66048 10.11037,-6.51435 9.77912,-14.57949 l 0.35561,-79.30029 c 0.23728,-6.36303 -2.97871,-11.56495 -9.95692,-12.62365 L 38.21335,5.4245405 Z"
       id="path4841"
       inkscape:connector-curvature="0" />
    <path
       id="path4951"
       d="m 73.3457,52.53313 c -6.362,1.46533 -6.98258,2.25353 -8.09893,3.70382 -1.57235,2.04449 -4.06168,-1.69446 -4.06168,-1.69446 -1.35103,-0.0686 -3.10694,-1.94373 -2.36318,-4.06944 0.7312,-2.10178 2.35809,-1.76276 2.89425,-1.22673 0.65468,0.64945 2.02663,1.66468 3.70017,1.35712 1.67436,-0.30771 3.58707,-0.96274 6.28658,-1.38779 2.73555,-0.43076 4.64246,0.29128 4.80038,1.14344 0.13611,0.72753 -0.1286,1.47807 -3.15759,2.17404 m 6.0356,-11.51397 c -0.0104,0.006 -0.0176,0.006 -0.0286,0.009 -0.0986,0.0153 -0.18387,-0.0475 -0.1897,-0.13789 -0.003,-0.0653 0.032,-0.12953 0.0924,-0.16463 1.19634,-0.84563 3.01078,-1.65014 5.11209,-2.19642 0.63141,-0.16542 1.25012,-0.29563 1.84487,-0.39653 0.10574,-0.0166 0.21201,-0.0298 0.31771,-0.0465 3.55169,-0.47842 6.48415,0.46925 6.54648,2.11823 0.0628,1.64809 -2.76256,3.37154 -6.314,3.85386 -1.14905,0.15177 -2.23718,0.15899 -3.18174,0.0412 -0.11124,-0.0118 -0.19815,-0.0933 -0.20517,-0.20151 -0.008,-0.11213 0.0677,-0.21518 0.17521,-0.26093 2.18075,-0.85495 3.62097,-1.91839 3.46401,-2.68622 -0.20613,-1.01588 -3.13511,-1.12427 -6.54647,-0.24002 -0.36998,0.0943 -0.73641,0.19919 -1.0872,0.30929 z m 30.4078,20.03869 c -0.42591,1.90757 -1.05342,4.35525 -4.39853,6.66089 -0.48758,0.3321 -0.70812,-0.0566 -0.50028,-0.48728 1.16534,-2.40427 1.3596,-2.99408 1.68368,-3.9217 0.45048,-1.35304 0.61157,-3.20495 -0.6885,-6.80612 C 103.32292,49.41943 98.33806,40.19328 94.97356,37.47548 91.72991,34.85204 86.1543,34.8498 81.24717,36.90143 c -1.80354,0.7547 -5.27766,3.17271 -12.03959,2.73564 -11.70161,-0.75445 -13.0404,5.2309 -13.53982,7.82656 -0.49983,2.59565 -1.63014,9.92158 -1.63014,9.92158 -0.3426,2.96881 -0.71198,8.08983 17.41564,8.64649 8.44423,0.25908 9.00595,2.32575 9.47822,3.80372 0.83956,2.64737 2.00085,4.05685 3.24293,4.65386 1.24154,0.60103 0.0932,1.43908 -1.22065,1.78091 -3.53011,0.92449 -16.90298,-0.73515 -24.95534,-3.88315 -6.60761,-2.84229 -6.93849,-6.28907 -5.67454,-9.45467 -9.66566,0.48132 -16.74835,3.53639 -17.76425,8.23963 -1.74215,8.08024 18.50733,18.21239 41.02007,21.35536 23.62177,3.29654 47.14464,-5.30548 48.85819,-20.14166 0.77713,-6.74075 -5.11072,-10.70749 -14.64879,-11.32785 z"
       style="display:inline;fill:#000000;fill-opacity:0.43689318;stroke:#000000;stroke-width:2.5999999;stroke-miterlimit:4;stroke-dasharray:none;stroke-opacity:0.48058256"
       inkscape:export-filename="/home/dafeba/DCV/tallerD/bocetos/08-09-22-hastaahora.png"
       inkscape:export-xdpi="57.964222"
       inkscape:export-ydpi="57.964222"
       inkscape:connector-curvature="0" />
    <path
       inkscape:connector-curvature="0"
       inkscape:export-ydpi="57.964222"
       inkscape:export-xdpi="57.964222"
       inkscape:export-filename="/home/dafeba/DCV/tallerD/bocetos/08-09-22-hastaahora.png"
       style="display:inline;fill:#ffffff;stroke-width:0.99999994"
       d="m 75.3457,52.53313 c -6.362,1.46533 -6.98258,2.25353 -8.09893,3.70382 -1.57235,2.04449 -4.06168,-1.69446 -4.06168,-1.69446 -1.35103,-0.0686 -3.10694,-1.94373 -2.36318,-4.06944 0.7312,-2.10178 2.35809,-1.76276 2.89425,-1.22673 0.65468,0.64945 2.02663,1.66468 3.70017,1.35712 1.67436,-0.30771 3.58707,-0.96274 6.28658,-1.38779 2.73555,-0.43076 4.64246,0.29128 4.80038,1.14344 0.13611,0.72753 -0.1286,1.47807 -3.15759,2.17404 m 6.0356,-11.51397 c -0.0104,0.006 -0.0176,0.006 -0.0286,0.009 -0.0986,0.0153 -0.18387,-0.0475 -0.1897,-0.13789 -0.003,-0.0653 0.032,-0.12953 0.0924,-0.16463 1.19634,-0.84563 3.01078,-1.65014 5.11209,-2.19642 0.63141,-0.16542 1.25012,-0.29563 1.84487,-0.39653 0.10574,-0.0166 0.21201,-0.0298 0.31771,-0.0465 3.55169,-0.47842 6.48415,0.46925 6.54648,2.11823 0.0628,1.64809 -2.76256,3.37154 -6.314,3.85386 -1.14905,0.15177 -2.23718,0.15899 -3.18174,0.0412 -0.11124,-0.0118 -0.19815,-0.0933 -0.20517,-0.20151 -0.008,-0.11213 0.0677,-0.21518 0.17521,-0.26093 2.18075,-0.85495 3.62097,-1.91839 3.46401,-2.68622 -0.20613,-1.01588 -3.13511,-1.12427 -6.54647,-0.24002 -0.36998,0.0943 -0.73641,0.19919 -1.0872,0.30929 z m 30.4078,20.03869 c -0.42591,1.90757 -1.05342,4.35525 -4.39853,6.66089 -0.48758,0.3321 -0.70812,-0.0566 -0.50028,-0.48728 1.16534,-2.40427 1.3596,-2.99408 1.68368,-3.9217 0.45048,-1.35304 0.61157,-3.20495 -0.6885,-6.80612 -2.56255,-7.08421 -7.54741,-16.31036 -10.91191,-19.02816 -3.24365,-2.62344 -8.81926,-2.62568 -13.72639,-0.57405 -1.80354,0.7547 -5.27766,3.17271 -12.03959,2.73564 -11.70161,-0.75445 -13.0404,5.2309 -13.53982,7.82656 -0.49983,2.59565 -1.63014,9.92158 -1.63014,9.92158 -0.3426,2.96881 -0.71198,8.08983 17.41564,8.64649 8.44423,0.25908 9.00595,2.32575 9.47822,3.80372 0.83956,2.64737 2.00085,4.05685 3.24293,4.65386 1.24154,0.60103 0.0932,1.43908 -1.22065,1.78091 -3.53011,0.92449 -16.90298,-0.73515 -24.95534,-3.88315 -6.60761,-2.84229 -6.93849,-6.28907 -5.67454,-9.45467 -9.66566,0.48132 -16.74835,3.53639 -17.76425,8.23963 -1.74215,8.08024 18.50733,18.21239 41.02007,21.35536 23.62177,3.29654 47.14464,-5.30548 48.85819,-20.14166 0.77713,-6.74075 -5.11072,-10.70749 -14.64879,-11.32785 z"
       id="path6548" />
  </g>
</svg>
