<?xml version="1.0" encoding="UTF-8" standalone="no"?>
<!-- Created with Inkscape (http://www.inkscape.org/) -->

<svg
   xmlns:dc="http://purl.org/dc/elements/1.1/"
   xmlns:cc="http://creativecommons.org/ns#"
   xmlns:rdf="http://www.w3.org/1999/02/22-rdf-syntax-ns#"
   xmlns:svg="http://www.w3.org/2000/svg"
   xmlns="http://www.w3.org/2000/svg"
   xmlns:xlink="http://www.w3.org/1999/xlink"
   xmlns:sodipodi="http://sodipodi.sourceforge.net/DTD/sodipodi-0.dtd"
   xmlns:inkscape="http://www.inkscape.org/namespaces/inkscape"
   width="136.53334"
   height="136.53334"
   id="svg6934"
   sodipodi:version="0.32"
   inkscape:version="0.92.1 r15371"
   version="1.0"
   sodipodi:docname="start-here-symbolic celeste.svg"
   inkscape:output_extension="org.inkscape.output.svg.inkscape">
  <defs
     id="defs6936">
    <linearGradient
       inkscape:collect="always"
       xlink:href="#linearGradient5316"
       id="linearGradient1459"
       gradientUnits="userSpaceOnUse"
       x1="9.495225"
       y1="-3.1310093"
       x2="75.466797"
       y2="104.28125" />
    <linearGradient
       id="linearGradient5316">
      <stop
         style="stop-color:#87c7ff;stop-opacity:1;"
         offset="0"
         id="stop5320" />
      <stop
         style="stop-color:#74aadb;stop-opacity:1;"
         offset="1"
         id="stop5322" />
    </linearGradient>
  </defs>
  <sodipodi:namedview
     id="base"
     pagecolor="#ffffff"
     bordercolor="#666666"
     borderopacity="1.0"
     inkscape:pageopacity="0.0"
     inkscape:pageshadow="2"
     inkscape:zoom="4.0264091"
     inkscape:cx="67.254267"
     inkscape:cy="68.244255"
     inkscape:document-units="px"
     inkscape:current-layer="layer1"
     showgrid="false"
     inkscape:window-width="1366"
     inkscape:window-height="714"
     inkscape:window-x="0"
     inkscape:window-y="26"
     inkscape:window-maximized="1" />
  <metadata
     id="metadata6939">
    <rdf:RDF>
      <cc:Work
         rdf:about="">
        <dc:format>image/svg+xml</dc:format>
        <dc:type
           rdf:resource="http://purl.org/dc/dcmitype/StillImage" />
        <dc:title></dc:title>
      </cc:Work>
    </rdf:RDF>
  </metadata>
  <g
     inkscape:label="Capa 1"
     inkscape:groupmode="layer"
     id="layer1">
    <path
       style="fill:url(#linearGradient1459);fill-opacity:1;fill-rule:evenodd;stroke:none;stroke-width:1.06666672"
       d="M 39.998047 5.578125 C 37.878341 6.396493 36.158816 7.9325495 34.833984 9.9316406 C 33.132418 13.192557 32.103944 16.146676 32.117188 19.480469 L 32.519531 120.53125 C 33.019162 125.90816 34.479176 128.75318 36.732422 131 C 36.995926 130.9744 37.2623 130.94379 37.533203 130.90039 L 121.0332 118.30078 C 123.70278 118.01157 125.96908 116.7361 127.64648 114.71875 C 128.12574 114.14236 128.55681 113.50653 128.93555 112.81445 C 130.26114 110.39219 130.9457 107.29608 130.80078 103.76758 L 131.23242 24.533203 C 131.46974 18.170173 128.24578 12.826277 121.26758 11.767578 L 41.521484 5.6835938 L 40.189453 5.5820312 C 40.184953 5.5815516 40.180351 5.5824974 40.175781 5.5820312 C 40.116851 5.5759713 40.05714 5.5819012 39.998047 5.578125 z M 32.966797 5.9472656 C 25.957636 6.7107112 16.045752 8.3556349 11.996094 8.9667969 C 5.8826774 10.186574 3.367109 15.777336 3.265625 21.066406 L 3.265625 72.966797 L 3.265625 104.98438 L 3.265625 111.40039 C 3.194793 117.42947 5.334487 122.16756 9.6328125 123.66602 L 27.4375 130.09961 L 31.572266 130.86523 C 29.970653 128.33071 28.81841 125.13168 28.427734 120.85156 L 28.419922 120.76367 L 28.015625 18.691406 L 28.015625 18.664062 C 28.098955 14.901174 29.23588 10.95571 31.416016 7.6660156 C 31.790508 7.1009284 32.746264 6.2076947 32.966797 5.9472656 z M 89.820312 35.435547 C 92.586545 35.353476 95.148103 35.998924 96.972656 37.474609 C 100.33716 40.192409 105.32222 49.419696 107.88477 56.503906 C 109.18484 60.105076 109.0247 61.957507 108.57422 63.310547 C 108.25014 64.238167 108.05597 64.828152 106.89062 67.232422 C 106.68279 67.663102 106.90305 68.05085 107.39062 67.71875 C 110.73573 65.41311 111.36315 62.966164 111.78906 61.058594 C 121.32713 61.678954 127.21463 65.644016 126.4375 72.384766 C 124.72395 87.220946 101.20185 95.823884 77.580078 92.527344 C 55.067338 89.384374 34.818397 79.252115 36.560547 71.171875 C 37.576447 66.468635 44.658559 63.412961 54.324219 62.931641 C 53.060269 66.097241 53.390437 69.544429 59.998047 72.386719 C 68.050407 75.534719 81.423015 77.194021 84.953125 76.269531 C 86.266975 75.927701 87.415368 75.091264 86.173828 74.490234 C 84.931748 73.893224 83.771201 72.483307 82.931641 69.835938 C 82.459371 68.357968 81.897355 66.29033 73.453125 66.03125 C 55.325505 65.47459 55.694509 60.353576 56.037109 57.384766 C 56.037109 57.384766 57.168139 50.058541 57.667969 47.462891 C 58.167389 44.867231 59.505421 38.882269 71.207031 39.636719 C 77.968961 40.073789 81.444507 37.657044 83.248047 36.902344 C 85.394916 36.004756 87.668798 35.49938 89.820312 35.435547 z M 89.828125 37.972656 C 89.407911 37.989309 88.973258 38.026135 88.529297 38.085938 C 88.423597 38.102638 88.318631 38.116213 88.212891 38.132812 C 87.618141 38.233712 86.998598 38.363877 86.367188 38.529297 C 84.265878 39.075577 82.452199 39.880933 81.255859 40.726562 C 81.195459 40.761662 81.159109 40.825325 81.162109 40.890625 C 81.167939 40.981015 81.254916 41.042644 81.353516 41.027344 C 81.364516 41.024344 81.370459 41.025531 81.380859 41.019531 C 81.731649 40.909431 82.09877 40.805237 82.46875 40.710938 C 85.88011 39.826687 88.809495 39.935292 89.015625 40.951172 C 89.172585 41.719002 87.731531 42.781769 85.550781 43.636719 C 85.443271 43.682469 85.367 43.786307 85.375 43.898438 C 85.38202 44.006647 85.468838 44.087809 85.580078 44.099609 C 86.524638 44.217399 87.612669 44.210364 88.761719 44.058594 C 92.313159 43.576274 95.138972 41.853168 95.076172 40.205078 C 95.021633 38.762221 92.769623 37.856087 89.828125 37.972656 z M 62.757812 48.845703 C 62.086021 48.800241 61.279266 49.159044 60.822266 50.472656 C 60.078506 52.598366 61.834517 54.474369 63.185547 54.542969 C 63.185547 54.542969 65.673744 58.280818 67.246094 56.236328 C 68.362444 54.786038 68.983703 53.998533 75.345703 52.533203 C 78.374693 51.837233 78.640016 51.086905 78.503906 50.359375 C 78.345986 49.507215 76.438675 48.784084 73.703125 49.214844 C 71.003615 49.639894 69.090376 50.295806 67.416016 50.603516 C 65.742476 50.911076 64.371477 49.895544 63.716797 49.246094 C 63.515737 49.045082 63.160888 48.87298 62.757812 48.845703 z "
       id="path4493" />
  </g>
</svg>
