<?xml version="1.0" encoding="UTF-8" standalone="no"?>
<!-- Created with Inkscape (http://www.inkscape.org/) -->

<svg
   xmlns:dc="http://purl.org/dc/elements/1.1/"
   xmlns:cc="http://creativecommons.org/ns#"
   xmlns:rdf="http://www.w3.org/1999/02/22-rdf-syntax-ns#"
   xmlns:svg="http://www.w3.org/2000/svg"
   xmlns="http://www.w3.org/2000/svg"
   xmlns:xlink="http://www.w3.org/1999/xlink"
   xmlns:sodipodi="http://sodipodi.sourceforge.net/DTD/sodipodi-0.dtd"
   xmlns:inkscape="http://www.inkscape.org/namespaces/inkscape"
   width="32"
   height="32"
   id="svg8156"
   version="1.1"
   inkscape:version="0.48.3.1 r9886"
   sodipodi:docname="start-here (copia).svg">
  <defs
     id="defs8158">
    <linearGradient
       gradientTransform="matrix(0.66666667,0,0,0.66666667,-416.8382,434.88802)"
       inkscape:collect="always"
       xlink:href="#linearGradient9863"
       id="linearGradient7873"
       x1="644.40491"
       y1="926.25873"
       x2="652.68567"
       y2="883.30194"
       gradientUnits="userSpaceOnUse" />
    <linearGradient
       id="linearGradient9863">
      <stop
         style="stop-color:#2f445a;stop-opacity:1;"
         offset="0"
         id="stop9865" />
      <stop
         style="stop-color:#415f7c;stop-opacity:1"
         offset="1"
         id="stop9867" />
    </linearGradient>
    <linearGradient
       inkscape:collect="always"
       xlink:href="#linearGradient12578"
       id="linearGradient7416"
       gradientUnits="userSpaceOnUse"
       x1="9.5300207"
       y1="9.6453409"
       x2="13.114401"
       y2="15.088529" />
    <linearGradient
       id="linearGradient12578">
      <stop
         style="stop-color:#e9b551;stop-opacity:1;"
         offset="0"
         id="stop12580" />
      <stop
         style="stop-color:#b48739;stop-opacity:1;"
         offset="1"
         id="stop12582" />
    </linearGradient>
    <linearGradient
       inkscape:collect="always"
       xlink:href="#linearGradient3249"
       id="linearGradient7414"
       gradientUnits="userSpaceOnUse"
       x1="504.90103"
       y1="978.02399"
       x2="504.0184"
       y2="974.03284"
       gradientTransform="matrix(0.66666667,0,0,0.66666667,-323.50488,394.88801)" />
    <linearGradient
       id="linearGradient3249">
      <stop
         style="stop-color:#000000;stop-opacity:1;"
         offset="0"
         id="stop3251" />
      <stop
         style="stop-color:#000000;stop-opacity:0;"
         offset="1"
         id="stop3253-2" />
    </linearGradient>
    <linearGradient
       inkscape:collect="always"
       xlink:href="#linearGradient9495"
       id="linearGradient7412"
       gradientUnits="userSpaceOnUse"
       x1="504.91241"
       y1="965.13464"
       x2="502.77573"
       y2="971.09668"
       gradientTransform="matrix(0.66666667,0,0,0.66666667,-323.50488,394.88801)" />
    <linearGradient
       inkscape:collect="always"
       id="linearGradient9495">
      <stop
         style="stop-color:#ffffff;stop-opacity:1;"
         offset="0"
         id="stop9497" />
      <stop
         style="stop-color:#ffffff;stop-opacity:0;"
         offset="1"
         id="stop9499" />
    </linearGradient>
    <linearGradient
       inkscape:collect="always"
       xlink:href="#linearGradient12578"
       id="linearGradient7410"
       gradientUnits="userSpaceOnUse"
       x1="503.58203"
       y1="968.48517"
       x2="503.85971"
       y2="975.43262"
       gradientTransform="matrix(0.66666667,0,0,0.66666667,-323.50488,394.88801)" />
    <linearGradient
       id="linearGradient7902">
      <stop
         style="stop-color:#e9b551;stop-opacity:1;"
         offset="0"
         id="stop7904" />
      <stop
         style="stop-color:#b48739;stop-opacity:1;"
         offset="1"
         id="stop7906" />
    </linearGradient>
    <linearGradient
       inkscape:collect="always"
       xlink:href="#linearGradient5316"
       id="linearGradient7406"
       gradientUnits="userSpaceOnUse"
       x1="499.41898"
       y1="944.26801"
       x2="517.93237"
       y2="972.64899"
       gradientTransform="matrix(0.66666667,0,0,0.66666667,-323.50488,394.88801)" />
    <linearGradient
       id="linearGradient5316">
      <stop
         style="stop-color:#ff6e00;stop-opacity:1;"
         offset="0"
         id="stop5320" />
      <stop
         style="stop-color:#eb2600;stop-opacity:1;"
         offset="1"
         id="stop5322" />
    </linearGradient>
    <linearGradient
       inkscape:collect="always"
       xlink:href="#linearGradient3249"
       id="linearGradient7404"
       gradientUnits="userSpaceOnUse"
       x1="517.75867"
       y1="983.15723"
       x2="529.18732"
       y2="974.53223"
       gradientTransform="matrix(0.66666667,0,0,0.66666667,-323.50488,394.88801)" />
    <linearGradient
       id="linearGradient7913">
      <stop
         style="stop-color:#000000;stop-opacity:1;"
         offset="0"
         id="stop7915" />
      <stop
         style="stop-color:#000000;stop-opacity:0;"
         offset="1"
         id="stop7917" />
    </linearGradient>
    <linearGradient
       inkscape:collect="always"
       xlink:href="#linearGradient3249"
       id="linearGradient7402"
       gradientUnits="userSpaceOnUse"
       x1="501.06546"
       y1="973.474"
       x2="492.28647"
       y2="967.55103"
       gradientTransform="matrix(0.66666667,0,0,0.66666667,-323.50488,394.88801)" />
    <linearGradient
       id="linearGradient7920">
      <stop
         style="stop-color:#000000;stop-opacity:1;"
         offset="0"
         id="stop7922" />
      <stop
         style="stop-color:#000000;stop-opacity:0;"
         offset="1"
         id="stop7924" />
    </linearGradient>
    <linearGradient
       inkscape:collect="always"
       xlink:href="#linearGradient3249"
       id="linearGradient7400"
       gradientUnits="userSpaceOnUse"
       x1="501.25372"
       y1="966.9411"
       x2="498.23135"
       y2="959.27612"
       gradientTransform="matrix(0.66666667,0,0,0.66666667,-323.50488,394.88801)" />
    <linearGradient
       id="linearGradient7927">
      <stop
         style="stop-color:#000000;stop-opacity:1;"
         offset="0"
         id="stop7929" />
      <stop
         style="stop-color:#000000;stop-opacity:0;"
         offset="1"
         id="stop7931" />
    </linearGradient>
    <linearGradient
       inkscape:collect="always"
       xlink:href="#linearGradient3249"
       id="linearGradient7398"
       gradientUnits="userSpaceOnUse"
       x1="503.51712"
       y1="962.07922"
       x2="502.30066"
       y2="954.48389"
       gradientTransform="matrix(0.66666667,0,0,0.66666667,-323.50488,394.88801)" />
    <linearGradient
       id="linearGradient7934">
      <stop
         style="stop-color:#000000;stop-opacity:1;"
         offset="0"
         id="stop7936" />
      <stop
         style="stop-color:#000000;stop-opacity:0;"
         offset="1"
         id="stop7938" />
    </linearGradient>
    <linearGradient
       inkscape:collect="always"
       xlink:href="#linearGradient3249"
       id="linearGradient7396"
       gradientUnits="userSpaceOnUse"
       x1="504.51901"
       y1="962.52405"
       x2="508.2655"
       y2="952.21112"
       gradientTransform="matrix(0.66666667,0,0,0.66666667,-323.50488,394.88801)" />
    <linearGradient
       id="linearGradient7941">
      <stop
         style="stop-color:#000000;stop-opacity:1;"
         offset="0"
         id="stop7943" />
      <stop
         style="stop-color:#000000;stop-opacity:0;"
         offset="1"
         id="stop7945" />
    </linearGradient>
    <linearGradient
       inkscape:collect="always"
       xlink:href="#linearGradient3249"
       id="linearGradient7394"
       gradientUnits="userSpaceOnUse"
       x1="508.13217"
       y1="962.60834"
       x2="516.60168"
       y2="953.75873"
       gradientTransform="matrix(0.66666667,0,0,0.66666667,-323.50488,394.88801)" />
    <linearGradient
       id="linearGradient7948">
      <stop
         style="stop-color:#000000;stop-opacity:1;"
         offset="0"
         id="stop7950" />
      <stop
         style="stop-color:#000000;stop-opacity:0;"
         offset="1"
         id="stop7952" />
    </linearGradient>
    <linearGradient
       inkscape:collect="always"
       xlink:href="#linearGradient3249"
       id="linearGradient7392"
       gradientUnits="userSpaceOnUse"
       x1="512.58618"
       y1="966.49304"
       x2="523.43536"
       y2="959.52484"
       gradientTransform="matrix(0.66666667,0,0,0.66666667,-323.50488,394.88801)" />
    <linearGradient
       id="linearGradient7955">
      <stop
         style="stop-color:#000000;stop-opacity:1;"
         offset="0"
         id="stop7957" />
      <stop
         style="stop-color:#000000;stop-opacity:0;"
         offset="1"
         id="stop7959" />
    </linearGradient>
    <linearGradient
       inkscape:collect="always"
       xlink:href="#linearGradient3249"
       id="linearGradient7390"
       gradientUnits="userSpaceOnUse"
       x1="515.26477"
       y1="970.04193"
       x2="525.87769"
       y2="966.90625"
       gradientTransform="matrix(0.66666667,0,0,0.66666667,-323.50488,394.88801)" />
    <linearGradient
       id="linearGradient7962">
      <stop
         style="stop-color:#000000;stop-opacity:1;"
         offset="0"
         id="stop7964" />
      <stop
         style="stop-color:#000000;stop-opacity:0;"
         offset="1"
         id="stop7966" />
    </linearGradient>
    <linearGradient
       inkscape:collect="always"
       xlink:href="#linearGradient9495"
       id="linearGradient7388"
       gradientUnits="userSpaceOnUse"
       x1="533.7652"
       y1="960.7713"
       x2="525.43396"
       y2="967.87891"
       gradientTransform="matrix(0.66666667,0,0,0.66666667,-323.50488,394.88801)" />
    <linearGradient
       inkscape:collect="always"
       xlink:href="#linearGradient9495"
       id="linearGradient7386"
       gradientUnits="userSpaceOnUse"
       x1="530.06799"
       y1="948.79803"
       x2="524.05096"
       y2="960.78333"
       gradientTransform="matrix(0.66666667,0,0,0.66666667,-323.50488,394.88801)" />
    <linearGradient
       inkscape:collect="always"
       xlink:href="#linearGradient9495"
       id="linearGradient7382"
       gradientUnits="userSpaceOnUse"
       x1="521.33777"
       y1="941.61536"
       x2="518.71277"
       y2="954.92456"
       gradientTransform="matrix(0.66666667,0,0,0.66666667,-323.50488,394.88801)" />
    <linearGradient
       inkscape:collect="always"
       xlink:href="#linearGradient9495"
       id="linearGradient7372"
       gradientUnits="userSpaceOnUse"
       x1="510.21683"
       y1="939.59192"
       x2="510.09769"
       y2="952.90118"
       gradientTransform="matrix(0.66666667,0,0,0.66666667,-323.50488,394.88801)" />
    <linearGradient
       inkscape:collect="always"
       xlink:href="#linearGradient9495"
       id="linearGradient7370"
       gradientUnits="userSpaceOnUse"
       x1="494.897"
       y1="939.91022"
       x2="501.27188"
       y2="952.3136"
       gradientTransform="matrix(0.66666667,0,0,0.66666667,-323.50488,394.88801)" />
    <linearGradient
       inkscape:collect="always"
       xlink:href="#linearGradient9495"
       id="linearGradient7368"
       gradientUnits="userSpaceOnUse"
       x1="486.55066"
       y1="948.86316"
       x2="496.47592"
       y2="960.15161"
       gradientTransform="matrix(0.66666667,0,0,0.66666667,-323.50488,394.88801)" />
    <linearGradient
       inkscape:collect="always"
       xlink:href="#linearGradient9495"
       id="linearGradient7366"
       gradientUnits="userSpaceOnUse"
       x1="484.07101"
       y1="960.50787"
       x2="493.65625"
       y2="966.77924"
       gradientTransform="matrix(0.66666667,0,0,0.66666667,-323.50488,394.88801)" />
    <linearGradient
       inkscape:collect="always"
       xlink:href="#linearGradient5316"
       id="linearGradient7364"
       gradientUnits="userSpaceOnUse"
       x1="522.14795"
       y1="956.44171"
       x2="523.64545"
       y2="958.39282"
       gradientTransform="matrix(0.66666667,0,0,0.66666667,-323.50488,394.88801)" />
    <linearGradient
       id="linearGradient8018">
      <stop
         style="stop-color:#ff6e00;stop-opacity:1;"
         offset="0"
         id="stop8020" />
      <stop
         style="stop-color:#eb2600;stop-opacity:1;"
         offset="1"
         id="stop8022" />
    </linearGradient>
    <linearGradient
       inkscape:collect="always"
       xlink:href="#linearGradient3249"
       id="linearGradient7360"
       gradientUnits="userSpaceOnUse"
       x1="503.88083"
       y1="965.2442"
       x2="519.55634"
       y2="973.9162"
       gradientTransform="matrix(0.66666667,0,0,0.66666667,-323.50488,394.88801)" />
    <linearGradient
       id="linearGradient8025">
      <stop
         style="stop-color:#000000;stop-opacity:1;"
         offset="0"
         id="stop8027" />
      <stop
         style="stop-color:#000000;stop-opacity:0;"
         offset="1"
         id="stop8029" />
    </linearGradient>
    <linearGradient
       inkscape:collect="always"
       xlink:href="#linearGradient5316"
       id="linearGradient7358"
       gradientUnits="userSpaceOnUse"
       x1="526.14325"
       y1="963.68213"
       x2="527.8717"
       y2="966.60876"
       gradientTransform="matrix(0.66666667,0,0,0.66666667,-323.50488,394.88801)" />
    <linearGradient
       id="linearGradient8032">
      <stop
         style="stop-color:#ff6e00;stop-opacity:1;"
         offset="0"
         id="stop8034" />
      <stop
         style="stop-color:#eb2600;stop-opacity:1;"
         offset="1"
         id="stop8036" />
    </linearGradient>
    <linearGradient
       inkscape:collect="always"
       xlink:href="#linearGradient5316"
       id="linearGradient7356"
       gradientUnits="userSpaceOnUse"
       x1="514.25336"
       y1="952.99561"
       x2="516.48315"
       y2="955.15576"
       gradientTransform="matrix(0.66666667,0,0,0.66666667,-323.50488,394.88801)" />
    <linearGradient
       id="linearGradient8039">
      <stop
         style="stop-color:#ff6e00;stop-opacity:1;"
         offset="0"
         id="stop8041" />
      <stop
         style="stop-color:#eb2600;stop-opacity:1;"
         offset="1"
         id="stop8043" />
    </linearGradient>
    <linearGradient
       inkscape:collect="always"
       xlink:href="#linearGradient5316"
       id="linearGradient7354"
       gradientUnits="userSpaceOnUse"
       x1="507.50449"
       y1="948.90527"
       x2="510.01953"
       y2="950.08984"
       gradientTransform="matrix(0.66666667,0,0,0.66666667,-323.50488,394.88801)" />
    <linearGradient
       id="linearGradient8046">
      <stop
         style="stop-color:#ff6e00;stop-opacity:1;"
         offset="0"
         id="stop8048" />
      <stop
         style="stop-color:#eb2600;stop-opacity:1;"
         offset="1"
         id="stop8050" />
    </linearGradient>
    <linearGradient
       inkscape:collect="always"
       xlink:href="#linearGradient5316"
       id="linearGradient7352"
       gradientUnits="userSpaceOnUse"
       x1="498.38791"
       y1="951.03802"
       x2="501.2634"
       y2="951.73486"
       gradientTransform="matrix(0.66666667,0,0,0.66666667,-323.50488,394.88801)" />
    <linearGradient
       id="linearGradient8053">
      <stop
         style="stop-color:#ff6e00;stop-opacity:1;"
         offset="0"
         id="stop8055" />
      <stop
         style="stop-color:#eb2600;stop-opacity:1;"
         offset="1"
         id="stop8057" />
    </linearGradient>
    <linearGradient
       inkscape:collect="always"
       xlink:href="#linearGradient5316"
       id="linearGradient7350"
       gradientUnits="userSpaceOnUse"
       x1="491.08978"
       y1="958.44739"
       x2="493.50464"
       y2="957.82025"
       gradientTransform="matrix(0.66666667,0,0,0.66666667,-323.50488,394.88801)" />
    <linearGradient
       id="linearGradient8060">
      <stop
         style="stop-color:#ff6e00;stop-opacity:1;"
         offset="0"
         id="stop8062" />
      <stop
         style="stop-color:#eb2600;stop-opacity:1;"
         offset="1"
         id="stop8064" />
    </linearGradient>
    <linearGradient
       inkscape:collect="always"
       xlink:href="#linearGradient5316"
       id="linearGradient7348"
       gradientUnits="userSpaceOnUse"
       x1="490.69354"
       y1="968.67584"
       x2="492.09064"
       y2="967.83966"
       gradientTransform="matrix(0.66666667,0,0,0.66666667,-323.50488,394.88801)" />
    <linearGradient
       id="linearGradient8067">
      <stop
         style="stop-color:#ff6e00;stop-opacity:1;"
         offset="0"
         id="stop8069" />
      <stop
         style="stop-color:#eb2600;stop-opacity:1;"
         offset="1"
         id="stop8071" />
    </linearGradient>
    <linearGradient
       inkscape:collect="always"
       xlink:href="#linearGradient3249"
       id="linearGradient7346"
       gradientUnits="userSpaceOnUse"
       x1="505.95053"
       y1="966.20435"
       x2="498.86234"
       y2="956.56519"
       gradientTransform="matrix(0.66666667,0,0,0.66666667,-323.50488,394.88801)" />
    <linearGradient
       id="linearGradient8074">
      <stop
         style="stop-color:#000000;stop-opacity:1;"
         offset="0"
         id="stop8076" />
      <stop
         style="stop-color:#000000;stop-opacity:0;"
         offset="1"
         id="stop8078" />
    </linearGradient>
    <linearGradient
       inkscape:collect="always"
       xlink:href="#linearGradient5316"
       id="linearGradient7344"
       gradientUnits="userSpaceOnUse"
       x1="511.6962"
       y1="974.53223"
       x2="529.18732"
       y2="974.53223"
       gradientTransform="matrix(0.66666667,0,0,0.66666667,-323.50488,394.88801)" />
    <linearGradient
       id="linearGradient8081">
      <stop
         style="stop-color:#ff6e00;stop-opacity:1;"
         offset="0"
         id="stop8083" />
      <stop
         style="stop-color:#eb2600;stop-opacity:1;"
         offset="1"
         id="stop8085" />
    </linearGradient>
    <linearGradient
       inkscape:collect="always"
       xlink:href="#linearGradient5316"
       id="linearGradient7342"
       gradientUnits="userSpaceOnUse"
       x1="498.49457"
       y1="962.30219"
       x2="507.29385"
       y2="963.46375"
       gradientTransform="matrix(0.66666667,0,0,0.66666667,-323.50488,394.88801)" />
    <linearGradient
       id="linearGradient8088">
      <stop
         style="stop-color:#ff6e00;stop-opacity:1;"
         offset="0"
         id="stop8090" />
      <stop
         style="stop-color:#eb2600;stop-opacity:1;"
         offset="1"
         id="stop8092" />
    </linearGradient>
    <linearGradient
       inkscape:collect="always"
       xlink:href="#linearGradient3249"
       id="linearGradient7340"
       gradientUnits="userSpaceOnUse"
       x1="490.08923"
       y1="994.99048"
       x2="499.6041"
       y2="982.93817"
       gradientTransform="matrix(0.66666667,0,0,0.66666667,-323.50488,394.88801)" />
    <linearGradient
       id="linearGradient8095">
      <stop
         style="stop-color:#000000;stop-opacity:1;"
         offset="0"
         id="stop8097" />
      <stop
         style="stop-color:#000000;stop-opacity:0;"
         offset="1"
         id="stop8099" />
    </linearGradient>
    <linearGradient
       inkscape:collect="always"
       xlink:href="#linearGradient5316"
       id="linearGradient7338"
       gradientUnits="userSpaceOnUse"
       x1="498"
       y1="972.89343"
       x2="501.0625"
       y2="984.70593"
       gradientTransform="matrix(0.66666667,0,0,0.66666667,-323.50488,394.88801)" />
    <linearGradient
       id="linearGradient8102">
      <stop
         style="stop-color:#ff6e00;stop-opacity:1;"
         offset="0"
         id="stop8104" />
      <stop
         style="stop-color:#eb2600;stop-opacity:1;"
         offset="1"
         id="stop8106" />
    </linearGradient>
    <linearGradient
       inkscape:collect="always"
       xlink:href="#linearGradient9590"
       id="linearGradient7336"
       gradientUnits="userSpaceOnUse"
       gradientTransform="matrix(0.66666667,0,0,0.66666667,-325.8382,394.40886)"
       x1="502.91904"
       y1="981.9881"
       x2="504.20029"
       y2="976.3974" />
    <linearGradient
       id="linearGradient9590">
      <stop
         style="stop-color:#ffffff;stop-opacity:0.0000000;"
         offset="0.0000000"
         id="stop9591" />
      <stop
         style="stop-color:#fff;stop-opacity:1;"
         offset="1"
         id="stop9592" />
    </linearGradient>
    <linearGradient
       inkscape:collect="always"
       xlink:href="#linearGradient5316"
       id="linearGradient7334"
       gradientUnits="userSpaceOnUse"
       gradientTransform="matrix(0.66666667,0,0,0.66666667,-325.8382,394.40886)"
       x1="503.75873"
       y1="980.04358"
       x2="501.0625"
       y2="984.70593" />
    <linearGradient
       id="linearGradient8113">
      <stop
         style="stop-color:#ff6e00;stop-opacity:1;"
         offset="0"
         id="stop8115" />
      <stop
         style="stop-color:#eb2600;stop-opacity:1;"
         offset="1"
         id="stop8117" />
    </linearGradient>
  </defs>
  <sodipodi:namedview
     id="base"
     pagecolor="#ffffff"
     bordercolor="#666666"
     borderopacity="1.0"
     inkscape:pageopacity="0.0"
     inkscape:pageshadow="2"
     inkscape:zoom="7.919596"
     inkscape:cx="18.159874"
     inkscape:cy="17.141021"
     inkscape:document-units="px"
     inkscape:current-layer="layer1"
     showgrid="false"
     inkscape:window-width="1366"
     inkscape:window-height="717"
     inkscape:window-x="0"
     inkscape:window-y="0"
     inkscape:window-maximized="1" />
  <metadata
     id="metadata8161">
    <rdf:RDF>
      <cc:Work
         rdf:about="">
        <dc:format>image/svg+xml</dc:format>
        <dc:type
           rdf:resource="http://purl.org/dc/dcmitype/StillImage" />
        <dc:title></dc:title>
      </cc:Work>
    </rdf:RDF>
  </metadata>
  <g
     inkscape:label="Capa 1"
     inkscape:groupmode="layer"
     id="layer1"
     transform="translate(0,-1020.3622)">
    <path
       style="fill:url(#linearGradient7334);stroke:none;display:inline"
       d="m 12.057617,1047.4003 c -0.850827,1.8909 -2.6858003,2.835 -4.7083338,3.5208 -1.1855132,0.2696 -2.9526865,1.0349 -3.8783932,0.7909 -0.8413,-0.2217 -1.2910467,-0.3458 -2.09036,-0.5982 2.3308732,-1.8254 7.1966732,-1.1656 8.5520867,-4.0885 0.5968803,0.1575 1.3576603,0.2708 2.1250003,0.375 z"
       id="path7264"
       inkscape:connector-curvature="0"
       sodipodi:nodetypes="ccsccc" />
    <path
       sodipodi:nodetypes="ccccc"
       inkscape:connector-curvature="0"
       id="path7266"
       d="m 12.057617,1047.4003 c -0.5267,1.1705 -1.430534,1.9783 -2.5225337,2.5865 -0.8761,-0.058 -2.2930801,-0.3512 -2.5893933,-0.7656 1.30498,-0.4117 2.4359668,-1.0078 2.9869267,-2.1959 0.5968803,0.1575 1.3576603,0.2708 2.1250003,0.375 z"
       style="fill:url(#linearGradient7336);stroke:none;display:inline" />
    <path
       sodipodi:nodetypes="ccccc"
       inkscape:connector-curvature="0"
       id="path7268"
       d="m 13.26595,1047.5669 c -1.37166,1.8701 -1.5608,3.1476 -3.5833332,3.8334 -2.5856468,0.5879 -4.7530668,0.7786 -6.2291668,0.3125 2.3308733,-1.8255 7.22792,-1.4313 8.583333,-4.3542 0.321787,0.1867 0.74082,0.2437 1.229167,0.2083 z"
       style="fill:url(#linearGradient7338);stroke:none;display:inline" />
    <path
       style="fill:url(#linearGradient7340);stroke:none;display:inline"
       d="m 11.192137,1050.5301 c -0.376127,0.3542 -0.843387,0.6443 -1.5095203,0.8702 -2.5856467,0.5879 -4.7530667,0.7786 -6.2291667,0.3125 1.32326,-1.0364 3.47358,-1.3573 5.33342,-1.9759 0.48108,0.2471 1.459047,0.6224 2.405267,0.7932 z"
       id="path7270"
       inkscape:connector-curvature="0"
       sodipodi:nodetypes="ccccc" />
    <path
       sodipodi:nodetypes="ccccc"
       style="fill:url(#linearGradient7342);fill-opacity:1;fill-rule:evenodd;display:inline"
       inkscape:connector-curvature="0"
       d="m 4.78447,1041.4217 2.3370132,1.6349 c 2.2173468,-9.9048 13.4663668,-5.2481 10.5071198,1.5743 l 2.90094,0.6394 c 4.202814,-9.352 -10.147593,-18.9118 -15.745073,-3.8486 z"
       class="fil0"
       id="path7272" />
    <path
       sodipodi:nodetypes="cscccczc"
       style="fill:url(#linearGradient7344);fill-opacity:1;fill-rule:evenodd;display:inline"
       inkscape:connector-curvature="0"
       d="m 27.993703,1045.4383 c 2.1522,0.595 1.245627,0.7398 -0.0384,0.7838 -1.72334,0.059 -4.618025,-0.398 -7.530786,-0.9683 l -2.798594,-0.6258 1.878574,0.2807 1.343585,-1.9837 c 4.135475,1.4123 4.993375,1.9184 7.14558,2.5133 z"
       class="fil0"
       id="path7274" />
    <path
       inkscape:connector-curvature="0"
       id="path7276"
       d="m 13.32845,1033.5546 c -3.12084,0.033 -6.4426133,2.2263 -8.5416667,7.875 l 2.3333335,1.625 c 1.0448132,-4.6671 4.1051202,-6.1063 6.7291662,-5.6041 l 2.354167,-3.2917 c -0.906333,-0.3853 -1.879347,-0.6147 -2.875,-0.6042 z"
       style="fill:url(#linearGradient7346);fill-opacity:1;fill-rule:evenodd;display:inline" />
    <path
       sodipodi:nodetypes="zsscccz"
       style="fill:url(#linearGradient7348);fill-opacity:1;fill-rule:evenodd;display:inline"
       inkscape:connector-curvature="0"
       d="m 1.2741968,1038.1559 c -0.61354678,-0.6797 -0.99612677,-1.1861 -0.88170002,-1.2468 0.15061999,-0.08 1.64490652,0.1159 2.04315322,0.1384 0.4385068,0.025 3.0550668,2.0395 5.4019868,3.8549 l 1.27046,2.4363 -1.9879535,-0.2706 c -3.67502,-2.3741 -5.2323933,-4.2325 -5.8459465,-4.9122 z"
       class="fil0"
       id="path7278" />
    <path
       sodipodi:nodetypes="cssscccc"
       style="fill:url(#linearGradient7350);fill-opacity:1;fill-rule:evenodd;display:inline"
       inkscape:connector-curvature="0"
       d="m 2.2801633,1030.8516 c -0.4868665,-0.8393 -0.60606,-1.2007 -0.48476,-1.2365 0.09804,-0.029 1.2357467,-0.05 1.8801067,-0.066 0.17764,0 0.3608067,0.4326 0.61804,0.6996 1.2167267,1.263 3.5858332,5.3516 5.29268,8.0017 l -3.1556867,-0.1497 c -1.2619001,-2.5131 -2.7286666,-4.8299 -4.15038,-7.2491 z"
       class="fil0"
       id="path7280" />
    <path
       sodipodi:nodetypes="zsssccsz"
       style="fill:url(#linearGradient7352);fill-opacity:1;fill-rule:evenodd;display:inline"
       inkscape:connector-curvature="0"
       d="m 8.0177433,1024.8654 c -0.1608865,-0.9244 -0.1104866,-1.2432 0.027467,-1.2699 0.1121068,-0.022 1.3536533,-0.1743 1.9496933,-0.2383 0.2123934,-0.023 0.3703334,1.0447 0.4924064,1.4426 0.56834,1.8523 0.191153,5.3881 1.061273,9.1785 l 0.09768,0.956 c -0.0053,-0.04 -2.2640259,-0.068 -2.2695059,-0.1076 -0.6295068,-4.5635 -1.1981268,-9.0369 -1.3590135,-9.9613 z"
       class="fil0"
       id="path7282" />
    <path
       sodipodi:nodetypes="zsssccz"
       style="fill:url(#linearGradient7354);fill-opacity:1;fill-rule:evenodd;display:inline"
       inkscape:connector-curvature="0"
       d="m 15.739163,1024.8563 c 0.368674,-1.0105 0.639894,-1.3423 0.800947,-1.2966 0.1175,0.033 1.38218,-0.1441 1.92856,-0.1981 0.420227,-0.041 -0.309453,1.5407 -0.3546,1.987 -0.19152,1.8929 -1.701847,5.0107 -3.4046,8.9679 l -2.20076,-0.531 c 1.553987,-4.7387 2.86178,-7.9187 3.230453,-8.9292 z"
       class="fil0"
       id="path7284" />
    <path
       sodipodi:nodetypes="zsssccz"
       style="fill:url(#linearGradient7356);fill-opacity:1;fill-rule:evenodd;display:inline"
       inkscape:connector-curvature="0"
       d="m 22.448002,1026.5479 c 0.757848,-0.9184 1.194628,-1.2245 1.367661,-1.2064 0.07342,0.01 1.764515,-0.1416 1.938955,-0.1433 0.359852,0 -1.679295,2.4646 -2.181416,3.2321 -2.09148,3.197 -3.556365,5.1812 -6.460185,8.1768 l -1.910774,-1.8789 c 3.630627,-3.6111 6.487915,-7.2618 7.245759,-8.1803 z"
       class="fil0"
       id="path7286" />
    <path
       sodipodi:nodetypes="zsssccz"
       style="fill:url(#linearGradient7358);fill-opacity:1;fill-rule:evenodd;display:inline"
       inkscape:connector-curvature="0"
       d="m 27.69505,1037.8138 c 0.76348,-0.326 1.438007,-0.551 1.701772,-0.5478 0.24816,0 1.52334,0.077 1.951815,0.095 0.326425,0.014 -1.787815,1.2893 -2.275335,1.6073 -1.575092,1.0273 -2.80186,1.2091 -6.59026,1.9819 -0.285,-0.4213 -1.10632,-0.8286 -1.96168,-1.5483 3.120435,-0.5016 6.410215,-1.2618 7.173688,-1.5879 z"
       class="fil0"
       id="path7288" />
    <path
       id="path7290"
       class="fil0"
       d="m 14.238097,1037.5493 c 2.75774,0.7458 4.884273,3.6378 3.390506,7.0816 l 2.90094,0.6394 c 1.124467,-2.5021 0.920827,-5.0191 -0.08793,-7.0754 -2.303007,-3.6757 -7.772633,-1.8056 -6.203513,-0.6456 z"
       inkscape:connector-curvature="0"
       style="fill:url(#linearGradient7360);fill-opacity:1;fill-rule:evenodd;display:inline"
       sodipodi:nodetypes="ccccc" />
    <path
       inkscape:transform-center-x="-0.045756056"
       inkscape:transform-center-y="0.62060624"
       sodipodi:nodetypes="zsssccz"
       style="fill:url(#linearGradient7364);fill-opacity:1;fill-rule:evenodd;display:inline"
       inkscape:connector-curvature="0"
       d="m 26.774197,1031.2921 c 0.909205,-0.7106 1.41452,-0.9181 1.645086,-0.9324 0.171095,-0.011 1.632347,-0.033 1.95924,-0.022 0.461707,0.016 -0.954093,1.4333 -1.438053,1.9564 -1.38728,1.4993 -6.36202,4.591 -10.164013,6.5841 l -1.104434,-2.4842 c 4.525819,-2.2318 8.192967,-4.3911 9.102174,-5.1017 z"
       class="fil0"
       id="path7292" />
    <path
       inkscape:connector-curvature="0"
       id="path7294"
       d="m 0.72428327,1036.888 c -0.16749325,-0.01 -0.29567999,7e-4 -0.33333324,0.021 -0.11442676,0.061 0.26145324,0.5703 0.87499997,1.25 0.51098,0.5661 1.71004,1.9527 4.2083332,3.7709 -0.068987,-0.9289 -0.0354,-1.8369 0.125,-2.7292 -1.54588,-1.1712 -2.8680265,-2.1289 -3.1666664,-2.1458 -0.2986868,-0.017 -1.2058535,-0.1443 -1.70833353,-0.1667 z"
       style="fill:url(#linearGradient7366);fill-opacity:1;fill-rule:evenodd;display:inline" />
    <path
       inkscape:connector-curvature="0"
       id="path7296"
       d="m 3.6826168,1029.5546 c -0.64436,0.016 -1.7977935,0.034 -1.8958335,0.063 -0.1213,0.036 0.013132,0.3898 0.5,1.2292 1.2968735,2.2068 2.6095135,4.3411 3.7916667,6.6041 0.33328,-0.9376 0.7888867,-1.8343 1.3541667,-2.6458 -1.20676,-1.9373 -2.3921267,-3.7802 -3.1458335,-4.5625 -0.2572332,-0.267 -0.4265264,-0.6922 -0.6041664,-0.6875 z"
       style="fill:url(#linearGradient7368);fill-opacity:1;fill-rule:evenodd;display:inline" />
    <path
       inkscape:connector-curvature="0"
       id="path7298"
       d="m 9.9951167,1023.3671 c -0.59604,0.064 -1.8462267,0.2075 -1.9583335,0.2292 -0.1379532,0.027 -0.18172,0.3464 -0.020867,1.2708 0.1366332,0.7851 0.5918332,4.2559 1.1041664,8.0417 0.6115201,-0.5477 1.2890534,-1.0187 2.0208334,-1.4167 -0.3278,-2.7996 -0.20446,-5.2491 -0.6458,-6.6875 -0.122074,-0.3978 -0.287607,-1.4603 -0.4999998,-1.4375 z"
       style="fill:url(#linearGradient7370);fill-opacity:1;fill-rule:evenodd;display:inline" />
    <path
       inkscape:connector-curvature="0"
       id="path7300"
       d="m 18.474283,1023.3671 c -0.54638,0.054 -1.82,0.2209 -1.9375,0.1875 -0.161053,-0.046 -0.422993,0.2812 -0.791666,1.2917 -0.276507,0.7579 -1.084314,2.7466 -2.125,5.6875 0.963186,-0.2392 1.91538,-0.3497 2.854166,-0.3125 0.861707,-2.0183 1.527314,-3.7035 1.645834,-4.875 0.04513,-0.4463 0.774393,-2.0206 0.354166,-1.9792 z"
       style="fill:url(#linearGradient7372);fill-opacity:1;fill-rule:evenodd;display:inline" />
    <path
       inkscape:connector-curvature="0"
       id="path7302"
       d="m 25.745117,1025.2005 c -0.17444,0 -1.86408,0.1535 -1.9375,0.1458 -0.173035,-0.018 -0.59632,0.2899 -1.354167,1.2083 -0.50956,0.6176 -2.0161,2.5046 -4.020833,4.75 l 3.166665,0 c 0.636028,-0.8804 1.280281,-1.8067 1.979168,-2.875 0.50212,-0.7675 2.52652,-3.2325 2.166667,-3.2291 z"
       style="fill:url(#linearGradient7382);fill-opacity:1;fill-rule:evenodd;display:inline" />
    <path
       inkscape:connector-curvature="0"
       id="path7304"
       d="m 30.370117,1030.3463 c -0.326895,-0.011 -1.78724,0.01 -1.958335,0.021 -0.230564,0.014 -0.736625,0.2061 -1.645832,0.9166 -0.471688,0.3687 -1.704768,1.127 -3.395833,2.0834 0.562105,0.5946 1.04434,1.2677 1.458333,2 1.86348,-1.1941 3.418547,-2.3424 4.104167,-3.0834 0.48396,-0.523 1.899205,-1.9217 1.4375,-1.9375 z"
       style="fill:url(#linearGradient7386);fill-opacity:1;fill-rule:evenodd;display:inline" />
    <path
       inkscape:connector-curvature="0"
       id="path7306"
       d="m 29.39095,1037.263 c -0.263768,0 -0.92402,0.2156 -1.6875,0.5416 -0.271,0.1158 -0.942128,0.3059 -1.729168,0.5 l 0,0.021 c 0.131715,0.6054 0.201175,1.211 0.229168,1.8125 1.166367,-0.2961 1.99664,-0.5938 2.875,-1.1667 0.48752,-0.3179 2.59726,-1.5905 2.270832,-1.6041 -0.428472,-0.018 -1.710172,-0.1009 -1.958332,-0.1042 z"
       style="fill:url(#linearGradient7388);fill-opacity:1;fill-rule:evenodd;display:inline" />
    <path
       inkscape:connector-curvature="0"
       id="path7308"
       d="m 26.995117,1038.0338 c -1.28814,0.3767 -3.899555,0.9603 -6.479167,1.375 0.85536,0.7197 1.673332,1.1204 1.958332,1.5417 2.224376,-0.4537 3.557,-0.7047 4.604168,-1.0417 0.0082,-0.6419 -0.01028,-1.2662 -0.08333,-1.875 z"
       style="fill:url(#linearGradient7390);fill-opacity:1;fill-rule:evenodd;display:inline" />
    <path
       inkscape:connector-curvature="0"
       id="path7310"
       d="m 24.432617,1032.763 c -1.689147,0.9927 -4.030155,2.2735 -6.770834,3.625 l 1.125,2.5 c 2.288299,-1.1996 4.983227,-2.7996 7.083334,-4.2084 -0.4404,-0.6999 -0.92146,-1.3403 -1.4375,-1.9166 z"
       style="fill:url(#linearGradient7392);fill-opacity:1;fill-rule:evenodd;display:inline" />
    <path
       inkscape:connector-curvature="0"
       id="path7312"
       d="m 19.95345,1029.5755 c -1.270773,1.4906 -2.907727,3.3134 -4.75,5.1458 l 1.916667,1.8958 c 2.155853,-2.224 3.522653,-3.8974 4.9375,-5.9166 -0.67636,-0.4485 -1.367235,-0.8349 -2.104167,-1.125 z"
       style="fill:url(#linearGradient7394);fill-opacity:1;fill-rule:evenodd;display:inline" />
    <path
       inkscape:connector-curvature="0"
       id="path7314"
       d="m 15.474283,1028.7838 c -0.413713,0.01 -0.831326,0.053 -1.25,0.1042 -0.50496,1.3729 -1.07438,2.9626 -1.708333,4.8958 l 2.1875,0.5417 c 0.888733,-2.0654 1.730433,-3.9051 2.354167,-5.4584 -0.523834,-0.059 -1.047167,-0.095 -1.583334,-0.083 z"
       style="fill:url(#linearGradient7396);fill-opacity:1;fill-rule:evenodd;display:inline" />
    <path
       inkscape:connector-curvature="0"
       id="path7316"
       d="m 10.974283,1029.7213 c -0.46184,0.1761 -0.937073,0.3557 -1.395833,0.5833 -0.2658667,0.1384 -0.50462,0.2881 -0.75,0.4584 0.17744,1.3272 0.34046,2.6038 0.5416667,4.0625 0.00533,0.04 2.2655003,0.064 2.2708333,0.1041 l -0.08333,-0.9583 c -0.341007,-1.4855 -0.493487,-2.9287 -0.583334,-4.25 z"
       style="fill:url(#linearGradient7398);fill-opacity:1;fill-rule:evenodd;display:inline" />
    <path
       inkscape:connector-curvature="0"
       id="path7318"
       d="m 6.4742832,1033.263 c -0.5031932,0.7641 -0.9291532,1.607 -1.2916665,2.5 0.4323533,0.7652 0.8507465,1.5382 1.25,2.3333 l 3.1458333,0.1458 c -0.94692,-1.4702 -2.0594333,-3.3515 -3.1041668,-4.9791 z"
       style="fill:url(#linearGradient7400);fill-opacity:1;fill-rule:evenodd;display:inline" />
    <path
       inkscape:connector-curvature="0"
       id="path7320"
       d="m 4.3492832,1038.263 c -0.21096,0.8033 -0.3695332,1.6118 -0.4999999,2.4166 0.8395999,0.7039 1.9103667,1.517 3.2708334,2.3959 l 1.9791666,0.2708 -1.2708333,-2.4375 c -1.2017932,-0.9296 -2.4646267,-1.9057 -3.4791667,-2.6458 z"
       style="fill:url(#linearGradient7402);fill-opacity:1;fill-rule:evenodd;display:inline" />
    <path
       id="path7322"
       class="fil0"
       d="m 27.993703,1045.4383 c 2.1522,0.595 1.245627,0.7398 -0.0384,0.7838 -1.72334,0.059 -4.618025,-0.398 -7.530786,-0.9683 l -2.798594,-0.6258 1.878574,0.2807 1.343585,-1.9837 c 4.135475,1.4123 4.993375,1.9184 7.14558,2.5133 z"
       inkscape:connector-curvature="0"
       style="fill:url(#linearGradient7404);fill-opacity:1;fill-rule:evenodd;display:inline"
       sodipodi:nodetypes="cscccczc" />
    <path
       sodipodi:nodetypes="ssccssccsscccccssccccsccssccssccssccssccss"
       inkscape:connector-curvature="0"
       id="path7324"
       d="m 10.01595,1023.3463 c -0.1505332,-8e-4 -0.2099532,0.4115 -0.041667,1.3958 0.381314,2.2304 0.728467,5.5436 1.354167,10.1667 -0.51076,0.3575 -0.997847,0.7931 -1.4791671,1.3125 -1.6517332,-2.4604 -3.6253332,-4.2896 -4.7708332,-5.5 -1.2167268,-1.2856 -2.0330733,-1.8759 -0.9166668,0.083 1.1007868,1.9319 2.0807535,3.4078 4.1875,7.4167 -0.25268,0.4125 -0.49512,0.858 -0.7291665,1.3333 -1.3174335,-0.8112 -2.4310735,-1.31 -3.4583335,-1.8333 -1.5479665,-0.7886 -2.6149332,-1.0994 -1.0416665,0.2708 1.16428,1.0141 1.8747665,2.0879 3.6458333,3.5625 -0.00533,0.015 -0.015333,0.027 -0.020868,0.042 l 0.8333335,0.6042 c 0.1677665,0.1269 0.3357865,0.2632 0.5208333,0.3958 l 1.0208332,0.75 c 0.063,-0.2864 0.1314267,-0.5705 0.2083335,-0.8333 0.0992,-0.3391 0.19216,-0.6575 0.3125,-0.9584 3.0703058,-7.676 12.6625728,-3.1388 9.8958328,3.3542 l 1.93722,0.3959 c 2.034553,0.4092 4.174188,0.8179 6.054521,1.0347 0.91902,0.1035 1.733692,0.1546 2.38326,0.1319 1.284027,-0.045 2.193867,-0.186 0.04167,-0.7917 -2.082007,-0.5859 -3.014035,-1.1039 -6.8125,-2.4375 0.06353,-0.4194 0.103532,-0.8191 0.104165,-1.2291 2.920428,-0.907 5.63508,-2.1907 6.854168,-3 1.4663,-0.9735 2.377792,-2.3835 -0.333333,-1.2084 -2.13324,0.9247 -4.0262,1.2213 -6.895835,1.6875 -0.150805,-0.4859 -0.332813,-0.9503 -0.5625,-1.3958 3.16304,-1.9649 5.911448,-4.4587 7.104168,-5.7708 1.29146,-1.4208 1.889372,-3.0752 -0.666668,-1.0417 -2.32564,1.8502 -4.312305,2.7871 -8.041665,4.6458 -0.17024,-0.1704 -0.33808,-0.3454 -0.520835,-0.5 2.070327,-2.6193 2.970507,-5.2404 4.770835,-8.0416 1.04786,-1.6305 1.53082,-3.4942 -0.541668,-0.9375 -1.932512,2.384 -3.42894,4.3879 -6.5625,7.625 -0.313947,-0.1194 -0.631687,-0.2378 -0.958333,-0.3125 1.462753,-3.7384 1.568193,-6.6919 1.75,-8.5209 0.19152,-1.9269 -0.103147,-2.8278 -0.9375,-0.5 -0.821847,2.2929 -1.656867,4.2291 -3.166667,8.8959 -0.35236,0.044 -0.709847,0.125 -1.0625,0.2291 -0.86746,-3.7933 -2.064027,-7.0139 -2.625,-8.875 -0.291867,-0.9683 -0.639793,-1.6445 -0.833333,-1.6458 z"
       style="fill:url(#linearGradient7406);fill-opacity:1;fill-rule:evenodd;display:inline" />
    <path
       sodipodi:nodetypes="ssssssss"
       inkscape:connector-curvature="0"
       id="path7326"
       d="m 14.35531,1045.9363 c -0.382567,-0.056 -1.598307,-0.2951 -1.900433,-0.34 -1.32196,-0.1968 -1.956967,-1.2273 -1.97886,-2.3854 -0.0292,-1.5444 1.194093,-2.6707 2.66092,-2.8056 0.155246,-0.014 0.311513,-0.011 0.466246,0.01 0.353727,0.044 1.160934,0.1 1.66106,0.1582 0.753087,0.088 0.460454,1.2977 0.483827,2.1029 0.03787,1.3058 -0.05153,3.4579 -1.39276,3.2617 z"
       style="fill:url(#linearGradient7410);fill-opacity:1;fill-rule:evenodd;stroke:none;display:inline" />
    <path
       style="fill:url(#linearGradient7412);fill-opacity:1;fill-rule:evenodd;stroke:none;display:inline"
       d="m 10.708883,1042.0572 c 0.419934,-0.9291 1.35936,-1.5536 2.428054,-1.6519 0.155246,-0.014 0.311513,-0.011 0.466246,0.01 0.353727,0.044 1.160934,0.1 1.66106,0.1582 0.753087,0.088 0.460454,1.2977 0.483827,2.1029 -1.8408,0.089 -3.515027,-0.3896 -5.039187,-0.6173 z"
       id="path7328"
       inkscape:connector-curvature="0"
       sodipodi:nodetypes="cssscc" />
    <path
       style="fill:url(#linearGradient7414);fill-opacity:1;fill-rule:evenodd;stroke:none;display:inline"
       d="m 14.35531,1045.9363 c -0.382567,-0.056 -1.598307,-0.2951 -1.900433,-0.34 -0.888527,-0.1323 -1.46672,-0.6412 -1.757,-1.3123 1.508273,0.011 3.90076,-0.1322 4.491773,0.2629 0.03787,1.3058 0.506887,1.5855 -0.83434,1.3894 z"
       id="path7330"
       inkscape:connector-curvature="0"
       sodipodi:nodetypes="csccsc" />
    <path
       sodipodi:type="arc"
       style="fill:url(#linearGradient7416);fill-opacity:1;fill-rule:evenodd;stroke:none;display:inline"
       id="path7332"
       sodipodi:cx="11.182829"
       sodipodi:cy="12.753372"
       sodipodi:rx="2.6694496"
       sodipodi:ry="2.6694496"
       d="m 13.844562,12.550547 a 2.6694496,2.6694496 0 1 1 -0.0051,-0.0581"
       transform="matrix(0.978987,-0.1682127,0.14059707,1.0018575,2.03393,1032.355)"
       sodipodi:start="6.2071318"
       sodipodi:end="12.46847"
       sodipodi:open="true" />
    <path
       style="fill:none;stroke:url(#linearGradient7873);stroke-width:0.66666669;stroke-linecap:round;stroke-linejoin:round;display:inline"
       d="m 10.01595,1023.3463 c -0.0188,-1e-4 -0.025933,0.01 -0.041667,0.021 -0.603,0.065 -1.8265665,0.2077 -1.9375,0.2291 -0.1379533,0.027 -0.18172,0.3465 -0.020867,1.2709 0.1608865,0.9244 0.72466,5.3948 1.3541665,9.9583 10e-5,8e-4 0.040133,-7e-4 0.041667,0 -0.1217867,0.083 -0.2337332,0.1793 -0.3541667,0.2708 -1.45136,-1.902 -3.01532,-3.3565 -3.9791665,-4.375 -0.70342,-0.7432 -1.2561468,-1.2465 -1.3958335,-1.1666 -0.64436,0.016 -1.7977933,0.034 -1.8958333,0.062 -0.1213,0.036 0.013132,0.3898 0.5,1.2292 1.41694,2.4111 2.8659668,4.7258 4.125,7.2292 -0.0548,0.087 -0.1126667,0.1805 -0.1666668,0.2708 -0.061533,0.103 -0.1270664,0.2058 -0.1875,0.3125 -0.00333,0.01 0.00333,0.015 0,0.021 -0.67394,-0.3511 -1.3022332,-0.6559 -1.8958332,-0.9584 -0.82236,-0.4189 -1.5020532,-0.6978 -1.7291667,-0.6666 -0.3982465,-0.023 -1.89104652,-0.2257 -2.04166652,-0.1459 -0.11442675,0.061 0.26145325,0.5703 0.87500002,1.25 0.4634265,0.5134 1.4747132,1.6983 3.5208332,3.2709 l 0.2708332,0.1875 0.020868,0.021 c 0.5999533,0.4506 1.2625268,0.9342 2.0416668,1.4375 l 1.9791665,0.2708 0.020867,0 c 0.063,-0.2864 0.1314267,-0.5705 0.2083333,-0.8333 0.0992,-0.339 0.19216,-0.6575 0.3125,-0.9584 1.0396727,-2.5992 2.8227597,-3.8033 4.6249997,-4 2.7416,0.76 4.841947,3.6533 3.354166,7.0834 l 2.8125,0.625 c 0.728188,0.1426 1.43792,0.2737 2.145833,0.3958 0.707915,0.1221 1.410907,0.2234 2.0625,0.3125 0.509447,0.07 0.961275,0.1241 1.416667,0.1667 0.0067,0 0.01428,0 0.02088,0 0.120213,0.011 0.259345,0.033 0.375,0.042 0.36534,0.052 0.733593,0.1264 1.083333,0.1667 0.91902,0.1035 1.725432,0.1477 2.375,0.125 1.284027,-0.045 2.193867,-0.186 0.04167,-0.7917 -2.082007,-0.5858 -3.014035,-1.1039 -6.8125,-2.4375 0.06353,-0.4194 0.103533,-0.8191 0.104165,-1.2291 2.920427,-0.907 5.63508,-2.1906 6.854167,-3 0.97016,-0.6441 1.695828,-1.4739 1.291668,-1.625 -0.002,-0.01 -0.02127,-0.02 -0.04167,-0.021 -0.428472,-0.018 -1.710172,-0.1008 -1.958332,-0.1042 -0.263768,0 -0.92402,0.2157 -1.6875,0.5417 -0.58446,0.2496 -2.663875,0.7607 -5,1.2083 -0.11508,-0.3124 -0.243715,-0.6216 -0.395835,-0.9166 3.16304,-1.9649 5.911447,-4.4587 7.104167,-5.7709 0.73936,-0.8133 1.23944,-1.6859 1.0625,-1.9166 -0.0033,-0.031 -0.02993,-0.053 -0.06247,-0.063 -0.03353,-0.011 -0.07343,-0.01 -0.125,0 -0.401205,-0.01 -1.711185,0.011 -1.875,0.021 -0.230565,0.014 -0.736625,0.2061 -1.645833,0.9166 -0.703687,0.55 -3.08108,1.9775 -6.208332,3.625 1.798985,-2.4481 2.713792,-4.9036 4.395832,-7.5208 0.629728,-0.9798 1.043673,-2.0283 0.833333,-2.1667 -0.0027,-0.011 -0.01172,-0.016 -0.02088,-0.021 -0.0302,-0.01 -0.07683,-0.02 -0.125,0 -0.310128,0.016 -1.76384,0.1531 -1.833335,0.1458 -0.173033,-0.018 -0.59632,0.2899 -1.354165,1.2083 -0.601228,0.7287 -2.54322,3.1745 -5.125,5.9584 1.034233,-3.1435 1.151646,-5.6526 1.3125,-7.2709 0.09314,-0.937 0.08048,-1.6349 -0.06247,-1.8333 -0.0053,-0.01 -0.01393,-0.013 -0.02087,-0.021 -0.03853,-0.044 -0.09119,-0.048 -0.145833,-0.021 -0.56836,0.059 -1.760727,0.2199 -1.875,0.1875 -0.161053,-0.046 -0.422993,0.2811 -0.791667,1.2916 -0.323206,0.8859 -1.38762,3.5242 -2.6875,7.3334 -0.80124,-3.0515 -1.7329,-5.6102 -2.208333,-7.1875 -0.291867,-0.9683 -0.639793,-1.6446 -0.833333,-1.6459 z m 3.125,17.0625 c -1.466827,0.1349 -2.695867,1.2681 -2.666667,2.8125 0.02187,1.1581 0.657207,2.1783 1.979167,2.375 0.27902,0.042 1.288427,0.237 1.75,0.3125 0.03433,0.01 0.06944,0.015 0.104167,0.021 0.0089,0 0.03353,0 0.04167,0 0.08383,0.012 0.17568,0.026 0.25,0.021 0.245334,0.011 0.49784,0 0.75,-0.062 1.423394,-0.3595 2.316347,-1.8378 2,-3.2917 l 0,-0.063 c -0.254766,-1.0603 -1.09298,-1.7936 -2.083333,-1.9583 -0.500127,-0.058 -1.31294,-0.1227 -1.666667,-0.1667 -0.154733,-0.019 -0.303086,-0.014 -0.458333,0 z m -3.2083332,6.625 c -1.3554135,2.9229 -6.2316268,2.2579 -8.5625,4.0833 0.7993132,0.2524 1.2628665,0.3825 2.1041665,0.6042 1.47568,0.4587 3.6335535,0.273 6.2083335,-0.3125 2.0225332,-0.6858 2.2116732,-1.9632 3.5833332,-3.8333 -0.488347,0.035 -0.90738,-0.022 -1.229167,-0.2084 -0.0068,0.015 -0.01387,0.027 -0.02087,0.042 -0.753154,-0.1026 -1.497267,-0.2203 -2.0833338,-0.375 z"
       id="path7695"
       inkscape:connector-curvature="0" />
  </g>
</svg>
