<?xml version="1.0" encoding="UTF-8" standalone="no"?>
<!-- Created with Inkscape (http://www.inkscape.org/) -->
<svg
   xmlns:dc="http://purl.org/dc/elements/1.1/"
   xmlns:cc="http://creativecommons.org/ns#"
   xmlns:rdf="http://www.w3.org/1999/02/22-rdf-syntax-ns#"
   xmlns:svg="http://www.w3.org/2000/svg"
   xmlns="http://www.w3.org/2000/svg"
   xmlns:xlink="http://www.w3.org/1999/xlink"
   xmlns:sodipodi="http://sodipodi.sourceforge.net/DTD/sodipodi-0.dtd"
   xmlns:inkscape="http://www.inkscape.org/namespaces/inkscape"
   width="128"
   height="128"
   id="svg2"
   sodipodi:version="0.32"
   inkscape:version="0.46"
   version="1.0"
   sodipodi:docname="gtk-delete-full.svg"
   inkscape:output_extension="org.inkscape.output.svg.inkscape">
  <defs
     id="defs4">
    <linearGradient
       y2="745.66449"
       x2="586.93988"
       y1="626.40784"
       x1="492.65778"
       gradientTransform="matrix(2.6765239,0,0,2.6765239,-1298.6208,-1689.8172)"
       gradientUnits="userSpaceOnUse"
       id="linearGradient10401"
       xlink:href="#linearGradient5439"
       inkscape:collect="always" />
    <linearGradient
       y2="637.52454"
       x2="518.86896"
       y1="661.19366"
       x1="513.96362"
       gradientTransform="matrix(2.6765239,0,0,2.6765239,-1298.6208,-1689.8172)"
       gradientUnits="userSpaceOnUse"
       id="linearGradient10394"
       xlink:href="#linearGradient5344"
       inkscape:collect="always" />
    <linearGradient
       y2="643.21948"
       x2="516.5"
       y1="647.79089"
       x1="519.95825"
       gradientTransform="matrix(2.6765239,0,0,2.6765239,-1298.6208,-1689.8172)"
       gradientUnits="userSpaceOnUse"
       id="linearGradient10391"
       xlink:href="#linearGradient5316"
       inkscape:collect="always" />
    <linearGradient
       y2="650.17572"
       x2="519.57452"
       y1="632.9248"
       x1="512.30157"
       gradientTransform="matrix(2.6765239,0,0,2.6765239,-1298.6208,-1689.8172)"
       gradientUnits="userSpaceOnUse"
       id="linearGradient10387"
       xlink:href="#linearGradient5344"
       inkscape:collect="always" />
    <linearGradient
       y2="643.65698"
       x2="524.125"
       y1="667.56323"
       x1="526.0625"
       gradientTransform="matrix(2.6765239,0,0,2.6765239,-1298.6208,-1689.8172)"
       gradientUnits="userSpaceOnUse"
       id="linearGradient10381"
       xlink:href="#linearGradient5344"
       inkscape:collect="always" />
    <linearGradient
       y2="979.54144"
       x2="502.00113"
       y1="940.28815"
       x1="476.7262"
       gradientTransform="matrix(2.6765239,0,0,2.6765239,-1298.6208,-2514.1865)"
       gradientUnits="userSpaceOnUse"
       id="linearGradient10376"
       xlink:href="#linearGradient5362"
       inkscape:collect="always" />
    <linearGradient
       y2="944.34961"
       x2="494.40411"
       y1="975.97461"
       x1="556.40369"
       gradientTransform="matrix(2.6765239,0,0,2.6765239,-1298.6208,-2514.1865)"
       gradientUnits="userSpaceOnUse"
       id="linearGradient10366"
       xlink:href="#linearGradient5344"
       inkscape:collect="always" />
    <linearGradient
       y2="945.75403"
       x2="495.68619"
       y1="938.40631"
       x1="487.4212"
       gradientTransform="matrix(2.6765239,0,0,2.6765239,-1298.6208,-2514.1865)"
       gradientUnits="userSpaceOnUse"
       id="linearGradient10363"
       xlink:href="#linearGradient5362"
       inkscape:collect="always" />
    <linearGradient
       gradientTransform="matrix(2.6765239,0,0,2.6765239,-1298.9218,-298.02472)"
       y2="112.66784"
       x2="509.19516"
       y1="157.46848"
       x1="509.19516"
       gradientUnits="userSpaceOnUse"
       id="linearGradient10442"
       xlink:href="#linearGradient9863"
       inkscape:collect="always" />
    <linearGradient
       y2="671.72296"
       x2="520.39868"
       y1="652.32129"
       x1="507.57828"
       gradientTransform="matrix(2.4993378,-5.8003287e-2,4.3271185e-2,2.4990827,-1237.5897,-1542.7369)"
       gradientUnits="userSpaceOnUse"
       id="linearGradient10679"
       xlink:href="#linearGradient5316"
       inkscape:collect="always" />
    <linearGradient
       gradientTransform="matrix(2.6765239,0,0,2.6765239,-1459.5132,451.40197)"
       gradientUnits="userSpaceOnUse"
       y2="-143.35732"
       x2="571.42249"
       y1="-107.73232"
       x1="603.46594"
       id="linearGradient10701"
       xlink:href="#linearGradient5344"
       inkscape:collect="always" />
    <linearGradient
       y2="641.10242"
       x2="504.48212"
       y1="635.44617"
       x1="504.91962"
       gradientTransform="matrix(2.6651927,0,0,2.6651927,-1292.5812,-1682.668)"
       gradientUnits="userSpaceOnUse"
       id="linearGradient6193"
       xlink:href="#linearGradient5362"
       inkscape:collect="always" />
    <linearGradient
       y2="641.10242"
       x2="504.48212"
       y1="635.44617"
       x1="504.91962"
       gradientTransform="matrix(2.6651927,0,0,2.6651927,-1292.5812,-1682.668)"
       gradientUnits="userSpaceOnUse"
       id="linearGradient6201"
       xlink:href="#linearGradient5362"
       inkscape:collect="always" />
    <linearGradient
       y2="472.12598"
       x2="623.98755"
       y1="436.26382"
       x1="620.23755"
       gradientTransform="matrix(2.6651927,0,0,2.6651927,-1612.4043,-1149.6295)"
       gradientUnits="userSpaceOnUse"
       id="linearGradient6205"
       xlink:href="#linearGradient5344"
       inkscape:collect="always" />
    <linearGradient
       y2="469.80151"
       x2="631.42725"
       y1="514.55151"
       x1="636.98602"
       gradientTransform="matrix(2.6651927,0,0,2.6651927,-1612.4043,-1149.6295)"
       gradientUnits="userSpaceOnUse"
       id="linearGradient6203"
       xlink:href="#linearGradient5344"
       inkscape:collect="always" />
    <filter
       id="filter20356"
       inkscape:collect="always">
      <feGaussianBlur
         id="feGaussianBlur20358"
         stdDeviation="0.48197145"
         inkscape:collect="always" />
    </filter>
    <linearGradient
       y2="400.18481"
       x2="688.08392"
       y1="336.13824"
       x1="720.71875"
       gradientTransform="translate(-666.5043,-290.34387)"
       gradientUnits="userSpaceOnUse"
       id="linearGradient6207"
       xlink:href="#linearGradient5344"
       inkscape:collect="always" />
    <linearGradient
       id="linearGradient4395">
      <stop
         style="stop-color:#000000;stop-opacity:0.35099337;"
         offset="0"
         id="stop4397" />
      <stop
         id="stop4399"
         offset="0.45549738"
         style="stop-color:#000000;stop-opacity:0.29139072;" />
      <stop
         style="stop-color:#000000;stop-opacity:0"
         offset="1"
         id="stop4401" />
    </linearGradient>
    <linearGradient
       id="linearGradient7210">
      <stop
         style="stop-color:#eb2600;stop-opacity:1"
         offset="0"
         id="stop7212" />
      <stop
         style="stop-color:#ff6e00;stop-opacity:1;"
         offset="0.5"
         id="stop8994" />
      <stop
         style="stop-color:#eb2600;stop-opacity:1;"
         offset="1"
         id="stop7214" />
    </linearGradient>
    <linearGradient
       id="linearGradient12594">
      <stop
         id="stop12596"
         offset="0"
         style="stop-color:#e9b551;stop-opacity:1;" />
      <stop
         id="stop12598"
         offset="1"
         style="stop-color:#e9b551;stop-opacity:0;" />
    </linearGradient>
    <linearGradient
       id="linearGradient5316">
      <stop
         style="stop-color:#ff6e00;stop-opacity:1;"
         offset="0"
         id="stop5320" />
      <stop
         style="stop-color:#eb2600;stop-opacity:1;"
         offset="1"
         id="stop5322" />
    </linearGradient>
    <linearGradient
       id="linearGradient9863">
      <stop
         style="stop-color:#2f445a;stop-opacity:1;"
         offset="0"
         id="stop9865" />
      <stop
         style="stop-color:#415f7c;stop-opacity:1"
         offset="1"
         id="stop9867" />
    </linearGradient>
    <linearGradient
       id="linearGradient12336">
      <stop
         id="stop12338"
         offset="0"
         style="stop-color:#ff6e00;stop-opacity:1;" />
      <stop
         id="stop12340"
         offset="1"
         style="stop-color:#eb2600;stop-opacity:1;" />
    </linearGradient>
    <linearGradient
       id="linearGradient5362">
      <stop
         style="stop-color:#ffffff;stop-opacity:1;"
         offset="0"
         id="stop5364" />
      <stop
         style="stop-color:#ffffff;stop-opacity:0;"
         offset="1"
         id="stop5366" />
    </linearGradient>
    <linearGradient
       id="linearGradient5439">
      <stop
         style="stop-color:#ffffff;stop-opacity:1;"
         offset="0"
         id="stop5441" />
      <stop
         style="stop-color:#000000;stop-opacity:1;"
         offset="1"
         id="stop5443" />
    </linearGradient>
    <linearGradient
       inkscape:collect="always"
       xlink:href="#linearGradient5439"
       id="linearGradient13309"
       gradientUnits="userSpaceOnUse"
       x1="499.90704"
       y1="953.39532"
       x2="652.75177"
       y2="1116.9413"
       gradientTransform="matrix(2.6765239,0,0,2.6765239,-1298.6765,-2514.903)" />
    <linearGradient
       inkscape:collect="always"
       id="linearGradient5398">
      <stop
         style="stop-color:#87c6ff;stop-opacity:1;"
         offset="0"
         id="stop5400" />
      <stop
         style="stop-color:#87c6ff;stop-opacity:0"
         offset="1"
         id="stop5402" />
    </linearGradient>
    <linearGradient
       inkscape:collect="always"
       xlink:href="#linearGradient5398"
       id="linearGradient13322"
       gradientUnits="userSpaceOnUse"
       x1="500.87799"
       y1="948.11993"
       x2="500.87799"
       y2="953.17468"
       gradientTransform="matrix(2.6765239,0,0,2.6765239,-1298.6765,-2514.903)" />
    <linearGradient
       id="linearGradient5344">
      <stop
         style="stop-color:#000000;stop-opacity:1;"
         offset="0"
         id="stop5346" />
      <stop
         style="stop-color:#000000;stop-opacity:0;"
         offset="1"
         id="stop5348" />
    </linearGradient>
    <linearGradient
       inkscape:collect="always"
       xlink:href="#linearGradient5344"
       id="linearGradient13314"
       gradientUnits="userSpaceOnUse"
       x1="544.89001"
       y1="919.05762"
       x2="506.01498"
       y2="969.80762"
       gradientTransform="translate(-485.21014,-859.4386)" />
    <linearGradient
       id="linearGradient8702">
      <stop
         id="stop8704"
         offset="0"
         style="stop-color:#ff6e00;stop-opacity:1;" />
      <stop
         id="stop8706"
         offset="1"
         style="stop-color:#eb2600;stop-opacity:1;" />
    </linearGradient>
    <linearGradient
       inkscape:collect="always"
       xlink:href="#linearGradient8702"
       id="linearGradient13316"
       gradientUnits="userSpaceOnUse"
       gradientTransform="matrix(2.6765239,0,0,2.6765239,-1779.5422,-994.63744)"
       x1="700.13062"
       y1="378.86951"
       x2="707.80457"
       y2="395.74899" />
    <inkscape:perspective
       sodipodi:type="inkscape:persp3d"
       inkscape:vp_x="0 : 526.18109 : 1"
       inkscape:vp_y="0 : 1000 : 0"
       inkscape:vp_z="744.09448 : 526.18109 : 1"
       inkscape:persp3d-origin="372.04724 : 350.78739 : 1"
       id="perspective10" />
  </defs>
  <sodipodi:namedview
     id="base"
     pagecolor="#ffffff"
     bordercolor="#666666"
     borderopacity="1.0"
     inkscape:pageopacity="0.0"
     inkscape:pageshadow="2"
     inkscape:zoom="1.7692308"
     inkscape:cx="90.910978"
     inkscape:cy="30.014671"
     inkscape:document-units="px"
     inkscape:current-layer="layer1"
     showgrid="false"
     inkscape:showpageshadow="false"
     inkscape:window-width="1014"
     inkscape:window-height="715"
     inkscape:window-x="0"
     inkscape:window-y="6"
     showguides="true"
     inkscape:guide-bbox="true" />
  <metadata
     id="metadata7">
    <rdf:RDF>
      <cc:Work
         rdf:about="">
        <dc:format>image/svg+xml</dc:format>
        <dc:type
           rdf:resource="http://purl.org/dc/dcmitype/StillImage" />
      </cc:Work>
    </rdf:RDF>
  </metadata>
  <g
     inkscape:label="Capa 1"
     inkscape:groupmode="layer"
     id="layer1">
    <path
       inkscape:export-ydpi="57.964222"
       inkscape:export-xdpi="57.964222"
       inkscape:export-filename="/home/dafeba/DCV/tallerD/bocetos/08-09-22-hastaahora.png"
       sodipodi:nodetypes="ccccccccccccc"
       id="path10169"
       d="M 6.9456079,9.7659776 L 36.254242,5.5838822 C 40.173128,5.0246226 47.936305,4.6168542 52.091769,4.9816911 L 120.46389,10.569176 C 123.45253,11.063958 126.84577,13.719819 126.15962,17.853898 L 105.88401,104.79861 C 104.9824,109.06659 101.85244,112.84916 97.695106,113.58098 L 47.511246,121.51674 C 42.807336,122.53068 38.537102,122.09899 34.500931,120.88719 L 23.643664,117.32514 C 19.871425,115.6715 17.643219,112.99905 16.871898,109.48606 L 2.3060677,16.337165 C 2.3449844,12.76885 3.6194381,10.121795 6.9456079,9.7659776 z"
       style="fill:url(#linearGradient10401);fill-rule:evenodd;stroke:none;stroke-width:1;stroke-linecap:butt;stroke-linejoin:miter;stroke-miterlimit:4;stroke-dasharray:none;stroke-opacity:1;display:inline" />
    <path
       style="fill:url(#linearGradient10394);fill-rule:evenodd;stroke:none;stroke-width:1px;stroke-linecap:butt;stroke-linejoin:miter;stroke-opacity:1;display:inline"
       d="M 58.722134,48.579589 L 107.21957,47.971242 C 111.33767,47.855429 112.82943,45.846644 113.27815,42.964938 L 117.83217,18.251816 L 110.94219,42.799636 C 110.45926,44.72783 108.95056,45.387219 107.3728,45.615366 L 54.121216,46.596553 C 54.99842,47.955103 56.456269,48.700006 58.722134,48.579589 z"
       id="path10173"
       sodipodi:nodetypes="cccccccc"
       inkscape:export-filename="/home/dafeba/DCV/tallerD/bocetos/08-09-22-hastaahora.png"
       inkscape:export-xdpi="57.964222"
       inkscape:export-ydpi="57.964222" />
    <path
       sodipodi:nodetypes="cccccccccc"
       id="path10175"
       d="M 71.759455,46.997897 L 69.293868,40.739355 L 81.074535,31.373287 L 79.479675,23.41103 L 99.617974,27.625271 L 100.88694,31.215908 L 107.2234,31.94245 L 98.691977,41.979415 L 98.691977,47.16518 L 71.759455,46.997897 z"
       style="fill:url(#linearGradient10391);fill-rule:evenodd;stroke:none;stroke-width:1px;stroke-linecap:butt;stroke-linejoin:miter;stroke-opacity:1;display:inline"
       inkscape:export-filename="/home/dafeba/DCV/tallerD/bocetos/08-09-22-hastaahora.png"
       inkscape:export-xdpi="57.964222"
       inkscape:export-ydpi="57.964222" />
    <path
       inkscape:export-ydpi="57.964222"
       inkscape:export-xdpi="57.964222"
       inkscape:export-filename="/home/dafeba/DCV/tallerD/bocetos/08-09-22-hastaahora.png"
       style="fill:url(#linearGradient10387);fill-rule:evenodd;stroke:none;stroke-width:1px;stroke-linecap:butt;stroke-linejoin:miter;stroke-opacity:1;display:inline"
       d="M 58.722134,48.579589 L 107.21957,47.971242 C 111.33767,47.855429 112.82943,45.846644 113.27815,42.964938 L 117.83217,21.090698 L 53.069262,17.527228 L 53.004678,42.012791 C 53.116931,46.088414 54.549353,48.801339 58.722134,48.579589 z"
       id="path10177"
       sodipodi:nodetypes="ccccccc" />
    <path
       sodipodi:nodetypes="cccccccccccccc"
       id="path10179"
       d="M 58.837492,48.572737 L 54.253838,36.588949 L 60.261162,30.784613 L 67.921374,31.725973 L 71.439183,45.043553 L 75.71683,36.891637 L 85.309358,38.801043 L 86.694459,34.277717 L 90.32784,32.109733 L 96.448783,34.022671 L 97.688281,39.804739 L 91.666102,42.89947 L 97.437357,48.168876 L 58.837492,48.572737 z"
       style="fill:#f2f2f2;fill-rule:evenodd;stroke:none;stroke-width:1px;stroke-linecap:butt;stroke-linejoin:miter;stroke-opacity:1;display:inline"
       inkscape:export-filename="/home/dafeba/DCV/tallerD/bocetos/08-09-22-hastaahora.png"
       inkscape:export-xdpi="57.964222"
       inkscape:export-ydpi="57.964222" />
    <path
       sodipodi:nodetypes="cccccccccc"
       id="path10181"
       d="M 97.730088,48.085235 L 95.680888,42.983111 L 99.770376,39.11896 L 105.96878,37.880988 L 110.40177,30.353264 L 120.94058,35.622671 L 109.06351,45.659635 L 108.05981,47.907487 C 107.5559,47.950365 106.99236,47.978335 106.33094,47.981841 L 97.730088,48.085235 z"
       style="fill:#f2f2f2;fill-rule:evenodd;stroke:none;stroke-width:1px;stroke-linecap:butt;stroke-linejoin:miter;stroke-opacity:1;display:inline"
       inkscape:export-filename="/home/dafeba/DCV/tallerD/bocetos/08-09-22-hastaahora.png"
       inkscape:export-xdpi="57.964222"
       inkscape:export-ydpi="57.964222" />
    <path
       sodipodi:nodetypes="cccccccccccccccccccccccccccccc"
       id="path10183"
       d="M 112.57645,42.648546 L 120.94058,35.539029 L 109.23079,42.481263 L 105.80149,37.797346 L 104.93023,38.463881 L 106.2197,45.659635 L 95.670423,43.004015 L 97.718499,48.086841 L 97.388189,48.08486 L 94.104094,45.132173 L 94.623045,47.257038 L 88.645912,48.214939 L 89.324144,46.830615 L 90.704213,43.401318 L 97.668876,39.838678 L 90.802468,40.302947 L 90.32784,32.946147 L 87.316751,42.481263 L 85.309358,38.968326 L 81.127289,45.492353 L 71.62951,45.258424 L 70.119737,39.714567 L 67.086111,46.581805 L 60.921354,46.352159 L 55.332531,39.579429 L 58.781018,48.622681 L 71.42489,48.503442 L 106.41827,47.986016 L 108.04935,47.917952 L 112.57645,42.648546 z"
       style="fill:url(#linearGradient10381);fill-rule:evenodd;stroke:none;stroke-width:1px;stroke-linecap:butt;stroke-linejoin:miter;stroke-opacity:1;display:inline"
       inkscape:export-filename="/home/dafeba/DCV/tallerD/bocetos/08-09-22-hastaahora.png"
       inkscape:export-xdpi="57.964222"
       inkscape:export-ydpi="57.964222" />
    <path
       style="fill:url(#linearGradient10376);fill-rule:evenodd;stroke:none;stroke-width:1;stroke-linecap:butt;stroke-linejoin:miter;stroke-miterlimit:4;stroke-dasharray:none;stroke-opacity:1;display:inline"
       d="M 6.9456079,9.5293997 L 39.348972,5.751165 C 37.412962,6.1956018 36.265885,9.1830842 36.325384,13.534015 L 36.386944,113.67474 C 36.454098,118.34714 38.839202,121.36474 42.515916,122.04878 C 40.279305,121.93071 36.585221,121.51296 34.500931,120.88719 L 23.643664,117.32514 C 19.871425,115.6715 17.643219,112.99905 16.871898,109.48606 L 2.3060677,16.337165 C 2.3449844,12.76885 1.6677168,9.70779 6.9456079,9.5293997 z"
       id="path10185"
       sodipodi:nodetypes="cccccccccc"
       inkscape:export-filename="/home/dafeba/DCV/tallerD/bocetos/08-09-22-hastaahora.png"
       inkscape:export-xdpi="57.964222"
       inkscape:export-ydpi="57.964222" />
    <path
       style="fill:#b3b3b3;fill-opacity:1;fill-rule:evenodd;stroke:none;stroke-width:1;stroke-linecap:butt;stroke-linejoin:miter;stroke-miterlimit:4;stroke-dasharray:none;stroke-opacity:1;display:inline"
       d="M 2.6186322,10.191384 L 36.254242,5.5838822 C 40.173128,5.0246226 47.936305,4.6168542 52.091769,4.9816911 L 125.43195,10.98318 C 128.47971,11.123082 127.61289,17.899024 126.0396,17.833904 L 52.096988,11.899595 C 47.567908,11.569366 42.092543,11.700569 37.090307,12.221501 L 2.2469433,16.278014 C 1.3239708,16.389919 -0.093810661,10.618584 2.6186322,10.191384 z"
       id="path10187"
       sodipodi:nodetypes="ccccccccc"
       inkscape:export-filename="/home/dafeba/DCV/tallerD/bocetos/08-09-22-hastaahora.png"
       inkscape:export-xdpi="57.964222"
       inkscape:export-ydpi="57.964222" />
    <path
       inkscape:export-ydpi="57.964222"
       inkscape:export-xdpi="57.964222"
       inkscape:export-filename="/home/dafeba/DCV/tallerD/bocetos/08-09-22-hastaahora.png"
       sodipodi:nodetypes="cccccccc"
       id="path10189"
       d="M 36.421524,9.6823095 C 40.34041,9.1230498 47.852664,8.7152814 52.008128,9.0801184 L 127.35032,15.688322 C 127.13213,16.89779 126.63676,17.858608 126.0396,17.833904 L 52.096988,11.899595 C 47.567908,11.569366 42.092543,11.700569 37.090307,12.221501 L 36.532279,12.226185 C 35.427196,12.350269 35.349122,9.8261191 36.421524,9.6823095 z"
       style="fill:url(#linearGradient10366);fill-rule:evenodd;stroke:none;stroke-width:1;stroke-linecap:butt;stroke-linejoin:miter;stroke-miterlimit:4;stroke-dasharray:none;stroke-opacity:1;display:inline" />
    <path
       inkscape:export-ydpi="57.964222"
       inkscape:export-xdpi="57.964222"
       inkscape:export-filename="/home/dafeba/DCV/tallerD/bocetos/08-09-22-hastaahora.png"
       sodipodi:nodetypes="ccccc"
       id="path10191"
       d="M 2.6186322,10.191384 L 36.254242,5.5838822 C 34.574134,6.4149965 33.929145,8.1087275 33.57737,10.046825 L 1.1031041,13.744122 C 0.80231631,12.191845 1.1682507,10.419826 2.6186322,10.191384 z"
       style="fill:url(#linearGradient10363);fill-rule:evenodd;stroke:none;stroke-width:1;stroke-linecap:butt;stroke-linejoin:miter;stroke-miterlimit:4;stroke-dasharray:none;stroke-opacity:1;display:inline" />
    <path
       style="fill:none;fill-rule:evenodd;stroke:url(#linearGradient10442);stroke-width:2.67652392;stroke-linecap:round;stroke-linejoin:round;stroke-miterlimit:4;stroke-dasharray:none;stroke-opacity:1;display:inline"
       d="M 48.373462,4.8720607 C 44.253274,4.8589457 39.184607,5.2055556 36.245463,5.6249669 L 2.6216299,10.225109 C 0.44146735,10.534006 1.5415722,16.536593 2.2870644,17.370999 L 16.840663,109.50728 C 17.611984,113.02049 19.843322,115.63251 23.615614,117.28606 L 34.488994,120.88251 C 38.525165,122.09444 42.833137,122.56577 47.537048,121.55164 L 97.721871,113.60584 C 101.87921,112.87408 105.01719,109.09162 105.91873,104.82336 L 124.79965,18.7235 C 126.49375,18.422124 127.74714,11.11532 124.75658,10.978015 L 52.053682,4.9558359 C 51.014816,4.8642988 49.746866,4.8763432 48.373462,4.8720607 z"
       id="path10440"
       sodipodi:nodetypes="cccccccccccccc" />
    <path
       style="fill:url(#linearGradient10679);fill-rule:evenodd;stroke:none;stroke-width:1px;stroke-linecap:butt;stroke-linejoin:miter;stroke-opacity:1;display:inline"
       d="M 85.226225,58.026806 L 73.27758,58.382221 L 82.261948,71.846047 L 91.320349,67.026323 L 85.226225,58.026806 z M 72.287935,59.889613 L 62.152929,74.734685 L 59.625193,73.152672 L 61.157155,84.914389 L 73.000613,82.998854 L 70.309904,81.029976 L 78.694489,68.88185 L 72.287935,59.889613 z M 87.792449,70.858302 L 85.163246,81.466598 L 87.947955,79.839378 L 93.733743,89.080425 L 104.72617,87.653383 L 96.774783,75.18121 L 99.327866,73.715706 L 87.792449,70.858302 z M 56.06282,84.01695 L 48.616838,96.221444 L 54.570979,106.16176 L 63.429283,89.783735 L 56.06282,84.01695 z M 105.3767,89.122741 L 83.320486,92.36907 L 83.823566,103.37344 L 99.018754,100.98943 L 105.3767,89.122741 z M 72.66048,90.428884 L 72.640487,93.788832 L 62.348316,95.043372 L 55.463921,108.09421 L 72.761171,105.27083 L 72.889323,108.15858 L 81.933886,98.026465 L 72.66048,90.428884 z"
       id="path10661"
       sodipodi:nodetypes="ccccccccccccccccccccccccccccccccccccccc"
       inkscape:export-filename="/home/dafeba/DCV/tallerD/bocetos/papelera.png"
       inkscape:export-xdpi="208.125"
       inkscape:export-ydpi="208.125" />
    <path
       inkscape:export-ydpi="208.125"
       inkscape:export-xdpi="208.125"
       inkscape:export-filename="/home/dafeba/DCV/tallerD/bocetos/papelera.png"
       sodipodi:nodetypes="ccccccccccccccccccccccccccccccccccccccc"
       id="path10697"
       d="M 85.226225,58.026806 L 73.27758,58.382221 L 82.261948,71.846047 L 91.320349,67.026323 L 85.226225,58.026806 z M 72.287935,59.889613 L 62.152929,74.734685 L 59.625193,73.152672 L 61.157155,84.914389 L 73.000613,82.998854 L 70.309904,81.029976 L 78.694489,68.88185 L 72.287935,59.889613 z M 87.792449,70.858302 L 85.163246,81.466598 L 87.947955,79.839378 L 93.733743,89.080425 L 104.72617,87.653383 L 96.774783,75.18121 L 99.327866,73.715706 L 87.792449,70.858302 z M 56.06282,84.01695 L 48.616838,96.221444 L 54.570979,106.16176 L 63.429283,89.783735 L 56.06282,84.01695 z M 105.3767,89.122741 L 83.320486,92.36907 L 83.823566,103.37344 L 99.018754,100.98943 L 105.3767,89.122741 z M 72.66048,90.428884 L 72.640487,93.788832 L 62.348316,95.043372 L 55.463921,108.09421 L 72.761171,105.27083 L 72.889323,108.15858 L 81.933886,98.026465 L 72.66048,90.428884 z"
       style="fill:url(#linearGradient10701);fill-rule:evenodd;stroke:none;stroke-width:1px;stroke-linecap:butt;stroke-linejoin:miter;stroke-opacity:1;display:inline" />
  </g>
</svg>
