<?xml version="1.0" encoding="UTF-8" standalone="no"?>
<!-- Created with Inkscape (http://www.inkscape.org/) -->

<svg
   xmlns:dc="http://purl.org/dc/elements/1.1/"
   xmlns:cc="http://creativecommons.org/ns#"
   xmlns:rdf="http://www.w3.org/1999/02/22-rdf-syntax-ns#"
   xmlns:svg="http://www.w3.org/2000/svg"
   xmlns="http://www.w3.org/2000/svg"
   xmlns:xlink="http://www.w3.org/1999/xlink"
   xmlns:sodipodi="http://sodipodi.sourceforge.net/DTD/sodipodi-0.dtd"
   xmlns:inkscape="http://www.inkscape.org/namespaces/inkscape"
   width="128"
   height="128"
   id="svg2"
   sodipodi:version="0.32"
   inkscape:version="0.48.3.1 r9886"
   version="1.0"
   sodipodi:docname="user-desktop-symbolic.svg"
   inkscape:output_extension="org.inkscape.output.svg.inkscape">
  <defs
     id="defs4">
    <linearGradient
       id="linearGradient5362">
      <stop
         style="stop-color:#ffffff;stop-opacity:1;"
         offset="0"
         id="stop5364" />
      <stop
         style="stop-color:#ffffff;stop-opacity:0;"
         offset="1"
         id="stop5366" />
    </linearGradient>
    <linearGradient
       id="linearGradient8702-2">
      <stop
         id="stop8704-1"
         offset="0"
         style="stop-color:#ff6e00;stop-opacity:1;" />
      <stop
         id="stop8706-4"
         offset="1"
         style="stop-color:#eb2600;stop-opacity:1;" />
    </linearGradient>
    <linearGradient
       gradientTransform="matrix(2.6666667,0,0,2.6666667,-1294.0196,-2505.1798)"
       inkscape:collect="always"
       xlink:href="#linearGradient9863-1"
       id="linearGradient8560"
       x1="486.83997"
       y1="962.52155"
       x2="531.73425"
       y2="962.52155"
       gradientUnits="userSpaceOnUse" />
    <linearGradient
       id="linearGradient9863-1">
      <stop
         style="stop-color:#2f445a;stop-opacity:1;"
         offset="0"
         id="stop9865-7" />
      <stop
         style="stop-color:#415f7c;stop-opacity:1"
         offset="1"
         id="stop9867-1" />
    </linearGradient>
    <linearGradient
       inkscape:collect="always"
       xlink:href="#linearGradient5362"
       id="linearGradient3275"
       gradientUnits="userSpaceOnUse"
       gradientTransform="matrix(2.8536732,0.0351575,-0.72619837,2.8447263,-2002.5704,-2486.3823)"
       x1="954.46594"
       y1="889.73199"
       x2="954.51746"
       y2="900.63007" />
    <linearGradient
       inkscape:collect="always"
       xlink:href="#linearGradient5362"
       id="linearGradient3277"
       gradientUnits="userSpaceOnUse"
       gradientTransform="matrix(3.4893417,0.04298897,-0.88796231,3.478402,-2462.8176,-3062.3337)"
       x1="955.14526"
       y1="869.30664"
       x2="972.15375"
       y2="913.46173" />
    <linearGradient
       inkscape:collect="always"
       xlink:href="#linearGradient9863-1"
       id="linearGradient3077"
       gradientUnits="userSpaceOnUse"
       gradientTransform="matrix(2.6666667,0,0,2.6666667,-1294.0196,-2505.1798)"
       x1="486.83997"
       y1="962.52155"
       x2="531.73425"
       y2="962.52155" />
    <linearGradient
       inkscape:collect="always"
       xlink:href="#linearGradient8702-2"
       id="linearGradient3081"
       gradientUnits="userSpaceOnUse"
       gradientTransform="matrix(2.6666667,0,0,2.6666667,-1294.0196,-2505.1798)"
       x1="487.73923"
       y1="940.78955"
       x2="532.1839"
       y2="986.20197" />
  </defs>
  <sodipodi:namedview
     id="base"
     pagecolor="#ffffff"
     bordercolor="#666666"
     borderopacity="1.0"
     inkscape:pageopacity="0.0"
     inkscape:pageshadow="2"
     inkscape:zoom="2.5020702"
     inkscape:cx="109.89818"
     inkscape:cy="61.169892"
     inkscape:document-units="px"
     inkscape:current-layer="layer1"
     showgrid="false"
     inkscape:showpageshadow="false"
     inkscape:window-width="1024"
     inkscape:window-height="713"
     inkscape:window-x="0"
     inkscape:window-y="0"
     showguides="true"
     inkscape:guide-bbox="true"
     inkscape:window-maximized="0" />
  <metadata
     id="metadata7">
    <rdf:RDF>
      <cc:Work
         rdf:about="">
        <dc:format>image/svg+xml</dc:format>
        <dc:type
           rdf:resource="http://purl.org/dc/dcmitype/StillImage" />
      </cc:Work>
    </rdf:RDF>
  </metadata>
  <g
     inkscape:label="Capa 1"
     inkscape:groupmode="layer"
     id="layer1">
    <path
       style="font-size:medium;font-style:normal;font-variant:normal;font-weight:normal;font-stretch:normal;text-indent:0;text-align:start;text-decoration:none;line-height:normal;letter-spacing:normal;word-spacing:normal;text-transform:none;direction:ltr;block-progression:tb;writing-mode:lr-tb;text-anchor:start;baseline-shift:baseline;color:#000000;fill:url(#linearGradient3081);fill-opacity:1;fill-rule:evenodd;stroke:none;stroke-width:2.66666675000000009;marker:none;visibility:visible;display:inline;overflow:visible;enable-background:accumulate;font-family:Sans;-inkscape-font-specification:Sans"
       d="M 16.78125 1 C 12.851439 1.1669629 9.6562317 2.5923666 7.46875 4.90625 C 4.9687709 7.5506882 3.78125 11.223748 3.78125 15.15625 A 1.3334667 1.3334667 0 0 0 3.78125 15.3125 L 3.59375 107.25 C 3.5929643 107.2607 3.5945185 107.27055 3.59375 107.28125 L 3.59375 107.34375 C 3.290521 111.74347 4.4500215 115.7462 6.9375 118.5 C 9.4370367 121.26715 13.30355 122.65164 17.8125 121.9375 L 17.84375 121.9375 L 114.25 107.5 C 114.2604 107.499 114.27085 107.501 114.28125 107.5 C 117.49128 107.1431 120.21547 105.38891 122 102.75 C 123.78532 100.10991 124.65736 96.627997 124.5 92.65625 C 124.49956 92.64516 124.50046 92.63609 124.5 92.625 L 124.59375 21.15625 C 124.59455 21.13486 124.59303 21.11512 124.59375 21.09375 C 124.70067 17.915179 123.95915 14.904549 122.21875 12.53125 C 120.46665 10.141994 117.70149 8.4441563 114.15625 7.90625 A 1.3334667 1.3334667 0 0 0 114.0625 7.90625 L 18.53125 1 A 1.3334667 1.3334667 0 0 0 18.5 1 C 17.908929 0.9710798 17.342652 0.97614815 16.78125 1 z M 16.84375 3.65625 C 17.316842 3.6369332 17.801084 3.6321743 18.3125 3.65625 L 18.34375 3.65625 L 113.75 10.5625 C 116.70049 11.010167 118.73049 12.27736 120.0625 14.09375 C 121.39451 15.91014 122.03892 18.341819 121.9375 21.0625 A 1.3334667 1.3334667 0 0 0 121.9375 21.09375 L 121.84375 92.65625 A 1.3334667 1.3334667 0 0 0 121.84375 92.71875 C 121.98839 96.24046 121.18657 99.171857 119.78125 101.25 C 118.37593 103.32814 116.42514 104.57782 113.96875 104.84375 A 1.3334667 1.3334667 0 0 0 113.90625 104.875 L 17.4375 119.28125 A 1.3334667 1.3334667 0 0 0 17.40625 119.3125 C 13.614668 119.92113 10.852167 118.80716 8.9375 116.6875 C 7.0228333 114.56784 5.9658161 111.29558 6.25 107.4375 A 1.3334667 1.3334667 0 0 0 6.28125 107.34375 L 6.4375 15.15625 C 6.4375 11.766671 7.4918841 8.8080416 9.4375 6.75 C 11.135242 4.9541554 13.532108 3.7914673 16.84375 3.65625 z M 14.4375 13.53125 L 14.4375 114.0625 L 116.40625 99.96875 L 116.40625 98.34375 L 17.375 109.96875 L 17.71875 93.5 L 114.28125 85.625 L 116.1875 86.90625 L 116.40625 91.34375 L 116.40625 19.03125 L 79.1875 17.03125 L 114.625 83.59375 L 76.21875 87.0625 L 75.8125 16.84375 L 14.4375 13.53125 z M 86.125 52.59375 L 86.875 74.96875 L 96.3125 74.21875 L 86.125 52.59375 z "
       id="path9522" />
  </g>
</svg>
