<?xml version="1.0" encoding="UTF-8" standalone="no"?>
<!-- Created with Inkscape (http://www.inkscape.org/) -->

<svg
   xmlns:dc="http://purl.org/dc/elements/1.1/"
   xmlns:cc="http://creativecommons.org/ns#"
   xmlns:rdf="http://www.w3.org/1999/02/22-rdf-syntax-ns#"
   xmlns:svg="http://www.w3.org/2000/svg"
   xmlns="http://www.w3.org/2000/svg"
   xmlns:xlink="http://www.w3.org/1999/xlink"
   xmlns:sodipodi="http://sodipodi.sourceforge.net/DTD/sodipodi-0.dtd"
   xmlns:inkscape="http://www.inkscape.org/namespaces/inkscape"
   width="128"
   height="128"
   id="svg6934"
   sodipodi:version="0.32"
   inkscape:version="0.48.3.1 r9886"
   version="1.0"
   sodipodi:docname="accessories-character-map-symbolic.svg"
   inkscape:output_extension="org.inkscape.output.svg.inkscape">
  <defs
     id="defs6936">
    <linearGradient
       inkscape:collect="always"
       xlink:href="#linearGradient5344"
       id="linearGradient3105"
       x1="7.9531264"
       y1="2.2416961"
       x2="13.667412"
       y2="-64.464973"
       gradientUnits="userSpaceOnUse"
       gradientTransform="translate(-4.0351795e-8,140)" />
    <linearGradient
       id="linearGradient5344">
      <stop
         style="stop-color:#000000;stop-opacity:1;"
         offset="0"
         id="stop5346" />
      <stop
         style="stop-color:#000000;stop-opacity:0;"
         offset="1"
         id="stop5348" />
    </linearGradient>
    <linearGradient
       inkscape:collect="always"
       xlink:href="#linearGradient5165-7-9-8-2"
       id="linearGradient3103"
       x1="22.933788"
       y1="-144.76825"
       x2="18.618809"
       y2="-96.331688"
       gradientUnits="userSpaceOnUse"
       gradientTransform="translate(-4.0351795e-8,140)" />
    <linearGradient
       id="linearGradient5165-7-9-8-2">
      <stop
         id="stop5167-4-8-6-9"
         style="stop-color:#ffffff;stop-opacity:1"
         offset="0" />
      <stop
         id="stop5169-5-5-2-9"
         style="stop-color:#ffffff;stop-opacity:0"
         offset="1" />
    </linearGradient>
    <linearGradient
       inkscape:collect="always"
       xlink:href="#linearGradient5344"
       id="linearGradient3107"
       gradientUnits="userSpaceOnUse"
       gradientTransform="matrix(5.3340639,0,0,5.3340639,-1451.4802,-5864.5574)"
       x1="305.23422"
       y1="1137.0681"
       x2="283.35095"
       y2="1104.2024" />
    <linearGradient
       id="linearGradient5316">
      <stop
         style="stop-color:#c0bfbb;stop-opacity:1;"
         offset="0"
         id="stop5320" />
      <stop
         style="stop-color:#798088;stop-opacity:1;"
         offset="1"
         id="stop5322" />
    </linearGradient>
    <linearGradient
       inkscape:collect="always"
       xlink:href="#linearGradient5316"
       id="linearGradient3062"
       x1="18.718174"
       y1="14.479958"
       x2="121.52744"
       y2="107.41399"
       gradientUnits="userSpaceOnUse" />
  </defs>
  <sodipodi:namedview
     id="base"
     pagecolor="#ffffff"
     bordercolor="#666666"
     borderopacity="1.0"
     inkscape:pageopacity="0.0"
     inkscape:pageshadow="2"
     inkscape:zoom="3.959798"
     inkscape:cx="69.084673"
     inkscape:cy="58.996489"
     inkscape:document-units="px"
     inkscape:current-layer="layer1"
     showgrid="false"
     inkscape:window-width="1366"
     inkscape:window-height="717"
     inkscape:window-x="0"
     inkscape:window-y="0"
     inkscape:window-maximized="1"
     inkscape:snap-global="false" />
  <metadata
     id="metadata6939">
    <rdf:RDF>
      <cc:Work
         rdf:about="">
        <dc:format>image/svg+xml</dc:format>
        <dc:type
           rdf:resource="http://purl.org/dc/dcmitype/StillImage" />
        <dc:title></dc:title>
      </cc:Work>
    </rdf:RDF>
  </metadata>
  <g
     inkscape:label="Capa 1"
     inkscape:groupmode="layer"
     id="layer1">
    <path
       style="fill:url(#linearGradient3062);fill-opacity:1;fill-rule:evenodd;stroke:none"
       d="m 34.21875,5.062503 c -1.32927,0.0554 -2.550557,0.27966 -3.65625,0.625 l -18.34375,2.71875 -0.5,0 0,0.1875 C 6.0032494,9.642823 3.0625,14.185733 3.0625,19.750003 l 0,84.687497 c -0.07024,5.65226 2.0501037,10.0952 6.3125,11.5 l 18.96875,5.9375 c 0.02087,0.0102 0.04153,0.0212 0.0625,0.0313 1.892721,0.90932 4.164425,1.2325 6.78125,0.8125 l 78.28125,-11.8125 c 5.72052,-0.61974 9.4668,-6.06393 9.15625,-13.625 l 0.40625,-74.281297 c 0.22248,-5.96534 -2.80168,-10.97622 -9.34375,-11.96875 l -77.84375,-5.9375 c -0.55631,-0.0273 -1.103066,-0.053 -1.625,-0.0313 z"
       id="path30949"
       inkscape:connector-curvature="0" />
    <path
       style="fill:url(#linearGradient3107);fill-rule:evenodd;stroke:none"
       d="M 29.25,16.718753 29.21875,113.125 c 0.448699,3.45828 1.407546,8.12456 4.34375,9.75 0.527128,-0.0229 1.067503,-0.0668 1.625,-0.15625 l 78.28125,-11.8125 c 5.72052,-0.61974 9.4668,-6.06393 9.15625,-13.625 l 0.40625,-74.281247 c 0.22245,-5.96534 -2.80168,-10.97622 -9.34375,-11.96875 L 37.678453,5.233693 C 33.707189,4.813023 29.262938,10.014263 29.25,16.718753 z M 30.15625,122.5 c 0.647964,0.17153 1.314675,0.32617 2.03125,0.375 z"
       id="path30953"
       inkscape:connector-curvature="0"
       sodipodi:nodetypes="ccccccccccccc" />
    <path
       style="fill:url(#linearGradient3103);fill-rule:evenodd;stroke:none;display:inline"
       d="m 34.78125,5.312503 -22.5625,3.09375 -0.5,0 0,0.1875 C 6.003249,9.642823 3.0625,14.185733 3.0625,19.750003 l 0,25 26.1875,0 0,-28.03125 c 0.347051,-4.91678 2.274064,-9.96378 5.53125,-11.40625 z"
       id="path3073"
       inkscape:connector-curvature="0" />
    <path
       style="fill:url(#linearGradient3105);fill-rule:evenodd;stroke:none;display:inline"
       d="m 3.0625,68.406253 0,36.031247 c -0.07024,5.65226 2.050104,10.0952 6.3125,11.5 l 17.65625,6.03125 7.5,1.3125 c -3.710844,-1.04488 -4.81745,-6.34073 -5.3125,-10.15625 l 0,-44.718747 -26.15625,0 z"
       id="path3081"
       inkscape:connector-curvature="0" />
    <path
       inkscape:connector-curvature="0"
       id="path30957"
       d="m 35.825012,5.084433 c -1.734374,-0.0853 -3.26759,0.13333 -4.667303,0.50133 L 11.65504,8.586303 c -5.7154953,1.04907 -8.6678538,5.60373 -8.6678538,11.168 l 0,84.678437 c -0.07024,5.65226 2.0718035,10.09707 6.3341998,11.50187 l 19.669357,6.16693 c 1.792241,0.74027 3.774988,1.0512 6.167512,0.6672 l 78.344065,-11.8352 c 5.72052,-0.6192 9.47847,-6.1072 9.16792,-13.66827 l 0.33339,-74.344027 c 0.22245,-5.96534 -2.79254,-10.84214 -9.33461,-11.83467 L 35.825018,5.085503 z"
       style="fill:none;stroke:#344b63;stroke-width:2.667032;stroke-linecap:butt;stroke-linejoin:miter;stroke-miterlimit:4;stroke-opacity:1;stroke-dasharray:none;display:inline"
       sodipodi:nodetypes="ccccccccccccc" />
    <path
       sodipodi:nodetypes="sssssssssccsssscsscccccccccccscccsccccccccscccccccccccccc"
       inkscape:connector-curvature="0"
       id="path3107"
       d="m 49.766852,13.589163 c -9.885789,-0.655181 -17.54546,8.055458 -17.54546,18.196333 l 0,66.805798 c 0,10.140866 7.672983,18.086986 17.54546,16.509446 l 51.089178,-8.16371 c 9.86022,-1.57559 17.74713,-11.215969 17.74713,-21.356845 l 0,-46.916667 c 0,-10.140876 -7.80475,-21.029488 -17.74713,-21.688419 z m 3.428423,8.39687 c 0.592014,-0.07914 1.00476,-0.0042 1.613375,0.06647 22.759437,2.640818 34.409749,1.223846 45.57786,2.076405 4.86717,0.371567 9.88192,5.639045 9.88192,11.105497 l 0,44.590141 c 0,4.426937 -3.42802,7.760263 -7.66352,8.952955 -18.304855,5.154369 -30.769277,6.261034 -49.611307,5.921224 -4.228916,-0.07649 -7.663534,-2.420854 -7.663534,-6.847792 l 0,-56.41749 c 0,-4.783132 3.721098,-8.893738 7.865206,-9.44741 z m 45.9812,7.853105 -19.360505,5.855192 2.016718,6.320229 19.360512,-5.855193 z m -5.24347,17.155424 -18.755491,1.135186 0.201674,6.645207 18.352144,-1.119722 c 1.33652,0.05446 2.189866,0.553354 2.621735,0.938973 0.431741,0.385281 0.806687,0.696744 0.806687,1.840183 l 0,4.911049 -15.932081,1.525471 -0.201672,0.0193 c -2.923307,0.114979 -5.748973,1.596369 -7.461861,3.625137 -1.753481,2.076874 -2.537065,4.659265 -2.621736,7.111868 -0.08454,2.452568 0.538869,6.534193 2.218391,8.322142 1.64158,1.747267 4.481633,2.533955 7.461862,2.093692 0.06969,-0.0104 0.131973,-0.01615 0.201672,-0.0277 l 19.158826,-2.631455 3.226765,-0.44319 0,-3.326472 0.40335,-21.427381 c 0,-2.678793 -1.04489,-5.164773 -2.82342,-6.752538 -1.778515,-1.587768 -4.082419,-2.358093 -6.4535,-2.455231 l -0.201672,0.0078 z m -13.310348,22.58722 0.201672,-0.0193 0.201672,-0.0193 15.932082,-1.525471 -0.201673,7.15646 -16.133753,2.215963 c -1.420286,0.241595 -1.970059,-0.02016 -2.420063,-0.49922 -0.449809,-0.479107 -0.840635,-2.689323 -0.806689,-3.673686 0.03227,-0.984202 0.501439,-1.990802 1.008361,-2.591406 0.507245,-0.600755 0.926659,-1.020805 2.218391,-1.044024 z"
       style="font-size:medium;font-style:normal;font-variant:normal;font-weight:normal;font-stretch:normal;text-indent:0;text-align:start;text-decoration:none;line-height:normal;letter-spacing:normal;word-spacing:normal;text-transform:none;direction:ltr;block-progression:tb;writing-mode:lr-tb;text-anchor:start;color:#bebebe;fill:#000000;fill-opacity:0.57261412;fill-rule:nonzero;stroke:#000000;stroke-width:5;stroke-linecap:round;stroke-linejoin:round;stroke-miterlimit:4;stroke-opacity:0.59336093;stroke-dasharray:none;marker:none;visibility:visible;display:inline;overflow:visible;enable-background:accumulate;font-family:Bitstream Vera Sans;-inkscape-font-specification:Bitstream Vera Sans" />
    <path
       style="font-size:medium;font-style:normal;font-variant:normal;font-weight:normal;font-stretch:normal;text-indent:0;text-align:start;text-decoration:none;line-height:normal;letter-spacing:normal;word-spacing:normal;text-transform:none;direction:ltr;block-progression:tb;writing-mode:lr-tb;text-anchor:start;color:#bebebe;fill:#ffffff;fill-opacity:1;fill-rule:nonzero;stroke:none;stroke-width:2;marker:none;visibility:visible;display:inline;overflow:visible;enable-background:accumulate;font-family:Bitstream Vera Sans;-inkscape-font-specification:Bitstream Vera Sans"
       d="m 51.766852,13.589163 c -9.882759,-0.699405 -17.54546,8.055458 -17.54546,18.196333 l 0,66.805798 c 0,10.140866 7.672983,18.086986 17.54546,16.509446 l 51.089178,-8.16371 c 9.86022,-1.57559 17.74713,-11.215969 17.74713,-21.356845 l 0,-46.687011 c 0,-10.140876 -7.80621,-20.984899 -17.74713,-21.68842 z m 3.428423,8.39687 c 0.592014,-0.07914 1.00476,-0.0042 1.613375,0.06647 22.759437,2.640818 34.409749,1.453501 45.57786,2.30606 4.86717,0.371567 9.88192,5.639045 9.88192,11.105497 l 0,44.360486 c 0,4.426937 -3.42802,7.760263 -7.66352,8.952955 -18.304855,5.154369 -30.769277,6.261034 -49.611307,5.921224 -4.228916,-0.07649 -7.663534,-2.420854 -7.663534,-6.847792 l 0,-56.41749 c 0,-4.783132 3.721098,-8.893738 7.865206,-9.44741 z m 45.981205,7.853105 -19.36051,5.855192 2.016718,6.320229 19.360512,-5.855193 z m -5.243475,17.155424 -18.755491,1.135186 0.201674,6.645207 18.352144,-1.119722 c 1.33652,0.05446 2.189866,0.553354 2.621735,0.938973 0.431741,0.385281 0.806687,0.696744 0.806687,1.840183 l 0,4.911049 -15.932081,1.525471 -0.201672,0.0193 c -2.923307,0.114979 -5.748973,1.596369 -7.461861,3.625137 -1.753481,2.076874 -2.537065,4.659265 -2.621736,7.111868 -0.08454,2.452568 0.538869,6.534193 2.218391,8.322142 1.64158,1.747267 4.481633,2.533955 7.461862,2.093692 0.06969,-0.0104 0.131973,-0.01615 0.201672,-0.0277 l 19.158831,-2.631455 3.22676,-0.44319 0,-3.326472 0.40335,-21.427381 c 0,-2.678793 -1.04489,-5.164773 -2.82342,-6.752538 -1.77851,-1.587768 -4.082419,-2.358093 -6.4535,-2.455231 l -0.201672,0.0078 z m -13.310348,22.58722 0.201672,-0.0193 0.201672,-0.0193 15.932082,-1.525471 -0.201673,7.15646 -16.133753,2.215963 c -1.420286,0.241595 -1.970059,-0.02016 -2.420063,-0.49922 -0.449809,-0.479107 -0.840635,-2.689323 -0.806689,-3.673686 0.03227,-0.984202 0.501439,-1.990802 1.008361,-2.591406 0.507245,-0.600755 0.926659,-1.020805 2.218391,-1.044024 z"
       id="rect11749-5-9-2-7"
       inkscape:connector-curvature="0"
       sodipodi:nodetypes="sssssssssccsssscsscccccccccccscccsccccccccscccccccccccccc" />
  </g>
</svg>
