<?xml version="1.0" encoding="UTF-8" standalone="no"?>
<!-- Created with Inkscape (http://www.inkscape.org/) -->

<svg
   xmlns:dc="http://purl.org/dc/elements/1.1/"
   xmlns:cc="http://creativecommons.org/ns#"
   xmlns:rdf="http://www.w3.org/1999/02/22-rdf-syntax-ns#"
   xmlns:svg="http://www.w3.org/2000/svg"
   xmlns="http://www.w3.org/2000/svg"
   xmlns:xlink="http://www.w3.org/1999/xlink"
   xmlns:sodipodi="http://sodipodi.sourceforge.net/DTD/sodipodi-0.dtd"
   xmlns:inkscape="http://www.inkscape.org/namespaces/inkscape"
   width="128"
   height="128"
   id="svg46581"
   version="1.1"
   inkscape:version="0.48.3.1 r9886"
   sodipodi:docname="application-pgp-keys.svg">
  <defs
     id="defs46583">
    <linearGradient
       id="linearGradient46442">
      <stop
         id="stop46444"
         offset="0"
         style="stop-color:#ffffff;stop-opacity:1;" />
      <stop
         id="stop46446"
         offset="1"
         style="stop-color:#000000;stop-opacity:1;" />
    </linearGradient>
    <linearGradient
       inkscape:collect="always"
       xlink:href="#linearGradient8702"
       id="linearGradient47176"
       gradientUnits="userSpaceOnUse"
       gradientTransform="matrix(3.3885625,-0.02939628,0.02892543,3.3352872,-1643.4806,-1180.955)"
       x1="502.68289"
       y1="646.61127"
       x2="509.46909"
       y2="661.21436" />
    <linearGradient
       inkscape:collect="always"
       xlink:href="#linearGradient8702"
       id="linearGradient47182"
       gradientUnits="userSpaceOnUse"
       gradientTransform="matrix(2.2999525,-0.09011729,0.09196702,2.3471613,-1125.9799,-513.80079)"
       x1="501.21866"
       y1="653.51526"
       x2="503.34927"
       y2="663.3374" />
    <linearGradient
       id="linearGradient8702">
      <stop
         id="stop8704"
         offset="0"
         style="stop-color:#c0bfbb;stop-opacity:1;" />
      <stop
         id="stop8706"
         offset="1"
         style="stop-color:#798088;stop-opacity:1;" />
    </linearGradient>
    <linearGradient
       inkscape:collect="always"
       xlink:href="#linearGradient5344-9"
       id="linearGradient3105"
       x1="13.310269"
       y1="-23.829733"
       x2="13.667412"
       y2="-64.464973"
       gradientUnits="userSpaceOnUse"
       gradientTransform="translate(-4.0351793e-8,1064.3622)" />
    <linearGradient
       id="linearGradient5344-9">
      <stop
         style="stop-color:#000000;stop-opacity:1;"
         offset="0"
         id="stop5346-3" />
      <stop
         style="stop-color:#000000;stop-opacity:0;"
         offset="1"
         id="stop5348-7" />
    </linearGradient>
    <linearGradient
       inkscape:collect="always"
       xlink:href="#linearGradient5165-7-9-8-2"
       id="linearGradient3103"
       x1="22.933788"
       y1="-144.76825"
       x2="18.618809"
       y2="-96.331688"
       gradientUnits="userSpaceOnUse"
       gradientTransform="translate(-4.0351793e-8,1064.3622)" />
    <linearGradient
       id="linearGradient5165-7-9-8-2">
      <stop
         id="stop5167-4-8-6-9"
         style="stop-color:#ffffff;stop-opacity:1"
         offset="0" />
      <stop
         id="stop5169-5-5-2-9"
         style="stop-color:#ffffff;stop-opacity:0"
         offset="1" />
    </linearGradient>
    <linearGradient
       inkscape:collect="always"
       xlink:href="#linearGradient5344-9"
       id="linearGradient3107"
       gradientUnits="userSpaceOnUse"
       gradientTransform="matrix(5.3340639,0,0,5.3340639,-1451.4802,-4940.1952)"
       x1="293.29718"
       y1="1123.1711"
       x2="282.14575"
       y2="1103.5999" />
    <linearGradient
       inkscape:collect="always"
       xlink:href="#linearGradient46442"
       id="linearGradient3441"
       x1="78.478928"
       y1="818.45709"
       x2="99.832985"
       y2="881.04944"
       gradientUnits="userSpaceOnUse"
       gradientTransform="translate(0,120)" />
    <linearGradient
       inkscape:collect="always"
       xlink:href="#linearGradient8702"
       id="linearGradient3443"
       x1="96.191597"
       y1="1008.9679"
       x2="84.171448"
       y2="968.56183"
       gradientUnits="userSpaceOnUse" />
  </defs>
  <sodipodi:namedview
     id="base"
     pagecolor="#ffffff"
     bordercolor="#666666"
     borderopacity="1.0"
     inkscape:pageopacity="0"
     inkscape:pageshadow="2"
     inkscape:zoom="1.979899"
     inkscape:cx="154.24297"
     inkscape:cy="62.784203"
     inkscape:document-units="px"
     inkscape:current-layer="layer1"
     showgrid="false"
     inkscape:showpageshadow="false"
     inkscape:window-width="1366"
     inkscape:window-height="717"
     inkscape:window-x="0"
     inkscape:window-y="0"
     inkscape:window-maximized="1" />
  <metadata
     id="metadata46586">
    <rdf:RDF>
      <cc:Work
         rdf:about="">
        <dc:format>image/svg+xml</dc:format>
        <dc:type
           rdf:resource="http://purl.org/dc/dcmitype/StillImage" />
        <dc:title />
      </cc:Work>
    </rdf:RDF>
  </metadata>
  <g
     inkscape:label="Capa 1"
     inkscape:groupmode="layer"
     id="layer1"
     transform="translate(0,-924.36218)">
    <path
       style="fill:#4d4d4d;fill-opacity:1;fill-rule:evenodd;stroke:none"
       d="m 34.21875,929.42468 c -1.32927,0.0554 -2.550557,0.27966 -3.65625,0.625 l -18.34375,2.71875 -0.5,0 0,0.1875 C 6.0032494,934.005 3.0625,938.54791 3.0625,944.11218 l 0,84.68752 c -0.07024,5.6522 2.0501037,10.0952 6.3125,11.5 l 18.96875,5.9375 c 0.02087,0.01 0.04153,0.021 0.0625,0.031 1.892721,0.9093 4.164425,1.2325 6.78125,0.8125 l 78.28125,-11.8125 c 5.72052,-0.6198 9.4668,-6.064 9.15625,-13.625 l 0.40625,-74.28132 c 0.22248,-5.96534 -2.80168,-10.97622 -9.34375,-11.96875 l -77.84375,-5.9375 c -0.55631,-0.0273 -1.103066,-0.053 -1.625,-0.0313 z"
       id="path30949"
       inkscape:connector-curvature="0" />
    <path
       style="fill:url(#linearGradient3107);fill-rule:evenodd;stroke:none"
       d="m 29.25,941.08093 -0.03125,96.40627 c 0.448699,3.4583 1.407546,8.1245 4.34375,9.75 0.527128,-0.023 1.067503,-0.067 1.625,-0.1563 l 78.28125,-11.8125 c 5.72052,-0.6197 9.4668,-6.0639 9.15625,-13.625 l 0.40625,-74.28122 c 0.22245,-5.96534 -2.80168,-10.97622 -9.34375,-11.96875 L 37.678453,929.59587 C 33.707189,929.1752 29.262938,934.37644 29.25,941.08093 z m 0.90625,105.78127 c 0.647964,0.1715 1.314675,0.3261 2.03125,0.375 z"
       id="path30953"
       inkscape:connector-curvature="0"
       sodipodi:nodetypes="ccccccccccccc" />
    <path
       style="fill:url(#linearGradient3103);fill-rule:evenodd;stroke:none;display:inline"
       d="m 34.78125,929.67468 -22.5625,3.09375 -0.5,0 0,0.1875 C 6.003249,934.005 3.0625,938.54791 3.0625,944.11218 l 0,25 26.1875,0 0,-28.03125 c 0.347051,-4.91678 2.274064,-9.96378 5.53125,-11.40625 z"
       id="path3073"
       inkscape:connector-curvature="0" />
    <path
       style="fill:url(#linearGradient3105);fill-rule:evenodd;stroke:none;display:inline"
       d="m 3.0625,992.76843 0,36.03127 c -0.07024,5.6522 2.050104,10.0952 6.3125,11.5 l 17.65625,6.0312 7.5,1.3125 c -3.710844,-1.0449 -4.81745,-6.3407 -5.3125,-10.1562 l 0,-44.71877 -26.15625,0 z"
       id="path3081"
       inkscape:connector-curvature="0" />
    <path
       inkscape:connector-curvature="0"
       id="path30957"
       d="m 35.825012,929.44661 c -1.734374,-0.0853 -3.26759,0.13333 -4.667303,0.50133 l -19.502669,3.00054 c -5.7154953,1.04907 -8.6678538,5.60373 -8.6678538,11.168 l 0,84.67842 c -0.07024,5.6523 2.0718035,10.0971 6.3341998,11.5019 l 19.669357,6.1669 c 1.792241,0.7403 3.774988,1.0512 6.167512,0.6672 l 78.344065,-11.8352 c 5.72052,-0.6192 9.47847,-6.1072 9.16792,-13.6683 l 0.33339,-74.34398 c 0.22245,-5.96534 -2.79254,-10.84214 -9.33461,-11.83467 l -77.844002,-6.00107 z"
       style="fill:none;stroke:#344b63;stroke-width:2.667032;stroke-linecap:butt;stroke-linejoin:miter;stroke-miterlimit:4;stroke-opacity:1;stroke-dasharray:none;display:inline"
       sodipodi:nodetypes="ccccccccccccc" />
    <path
       inkscape:export-ydpi="57.964222"
       inkscape:export-xdpi="57.964222"
       inkscape:export-filename="/home/dafeba/DCV/tallerD/bocetos/08-09-22-hastaahora.png"
       sodipodi:nodetypes="cszsz"
       id="path47164"
       d="m 107.00784,985.48276 c 0.12474,14.38694 -8.35203,29.03544 -18.322617,30.57994 -11.872968,1.839 -21.904206,-11.246 -22.055586,-28.70405 -0.152238,-17.55409 9.232753,-31.13804 21.162487,-30.45676 10.168862,0.59069 19.091726,14.29 19.215716,28.58087 z"
       style="fill:url(#linearGradient47176);fill-opacity:1;stroke:none;display:inline"
       inkscape:connector-curvature="0" />
    <path
       inkscape:export-ydpi="57.964222"
       inkscape:export-xdpi="57.964222"
       inkscape:export-filename="/home/dafeba/DCV/tallerD/bocetos/08-09-22-hastaahora.png"
       style="fill:url(#linearGradient3443);fill-opacity:1;stroke:none;display:inline"
       d="m 105.3833,985.96359 c 0.11509,12.38652 -7.153894,24.86641 -15.56445,26.18931 -10.015369,1.5752 -18.487094,-9.6972 -18.626687,-24.72764 -0.140319,-15.11318 7.773879,-26.89675 17.83296,-26.20721 9.212269,0.63718 16.243927,12.44174 16.358177,24.74554 z"
       id="path47166"
       sodipodi:nodetypes="cszsz"
       inkscape:connector-curvature="0" />
    <path
       sodipodi:nodetypes="cszsz"
       id="path47170"
       d="m 101.24784,986.13099 c 0.0881,9.4799 -5.475158,19.03121 -11.912081,20.04371 -7.665148,1.2056 -14.148885,-7.42166 -14.255721,-18.92503 -0.107392,-11.56669 5.949648,-20.58513 13.648251,-20.05739 7.050504,0.48767 12.432101,9.52215 12.519551,18.93871 z"
       style="fill:url(#linearGradient47182);fill-opacity:1;stroke:none;display:inline"
       inkscape:export-filename="/home/dafeba/DCV/tallerD/bocetos/08-09-22-hastaahora.png"
       inkscape:export-xdpi="57.964222"
       inkscape:export-ydpi="57.964222"
       inkscape:connector-curvature="0" />
    <path
       style="fill:#000000;fill-opacity:1;stroke:none;display:inline"
       d="m 81.21875,966.45593 0.71875,8.375 c -2.383349,2.95618 -3.860541,7.51296 -3.8125,12.6875 0.08643,9.30558 5.33058,16.28777 11.53125,15.31247 5.207106,-0.819 9.69627,-8.55002 9.625,-16.21872 -0.07074,-7.61746 -4.421542,-14.94925 -10.125,-15.34375 -0.713594,-0.0489 -1.42053,0.0422 -2.09375,0.1875 l -5.84375,-5 z"
       id="path47203"
       inkscape:connector-curvature="0" />
    <path
       inkscape:connector-curvature="0"
       inkscape:export-ydpi="57.964222"
       inkscape:export-xdpi="57.964222"
       inkscape:export-filename="/home/dafeba/DCV/tallerD/bocetos/08-09-22-hastaahora.png"
       style="fill:url(#linearGradient3441);fill-opacity:1;stroke:none;display:inline"
       d="m 98.569607,986.50534 c 0.05925,6.37499 -3.681903,12.79799 -8.010567,13.47887 -5.154615,0.81079 -9.514761,-4.99087 -9.586605,-12.72659 -0.07222,-7.7783 4.000985,-13.84297 9.178097,-13.48808 4.741282,0.32795 8.360267,6.4034 8.419075,12.7358 z"
       id="path47210"
       sodipodi:nodetypes="cszsz" />
  </g>
</svg>
