<?xml version="1.0" encoding="UTF-8" standalone="no"?>
<!-- Created with Inkscape (http://www.inkscape.org/) -->

<svg
   xmlns:dc="http://purl.org/dc/elements/1.1/"
   xmlns:cc="http://creativecommons.org/ns#"
   xmlns:rdf="http://www.w3.org/1999/02/22-rdf-syntax-ns#"
   xmlns:svg="http://www.w3.org/2000/svg"
   xmlns="http://www.w3.org/2000/svg"
   xmlns:xlink="http://www.w3.org/1999/xlink"
   xmlns:sodipodi="http://sodipodi.sourceforge.net/DTD/sodipodi-0.dtd"
   xmlns:inkscape="http://www.inkscape.org/namespaces/inkscape"
   width="128"
   height="128"
   id="svg6934"
   sodipodi:version="0.32"
   inkscape:version="0.48.3.1 r9886"
   version="1.0"
   sodipodi:docname="banshee.svg"
   inkscape:output_extension="org.inkscape.output.svg.inkscape">
  <defs
     id="defs6936">
    <linearGradient
       inkscape:collect="always"
       xlink:href="#linearGradient5316-76"
       id="linearGradient31057"
       gradientUnits="userSpaceOnUse"
       gradientTransform="translate(-274.43625,37.414147)"
       x1="275.29071"
       y1="1103.7349"
       x2="275.29071"
       y2="1121.6162" />
    <linearGradient
       id="linearGradient5316-76">
      <stop
         style="stop-color:#aac736;stop-opacity:1;"
         offset="0"
         id="stop5320-4" />
      <stop
         style="stop-color:#5d8b2c;stop-opacity:1;"
         offset="1"
         id="stop5322-6" />
    </linearGradient>
    <linearGradient
       inkscape:collect="always"
       xlink:href="#linearGradient5165-7-9-8-2-67"
       id="linearGradient31059"
       gradientUnits="userSpaceOnUse"
       gradientTransform="translate(-274.43625,37.414147)"
       x1="275.29071"
       y1="1094.0099"
       x2="275.29071"
       y2="1117.1519" />
    <linearGradient
       id="linearGradient5165-7-9-8-2-67">
      <stop
         id="stop5167-4-8-6-9-1"
         style="stop-color:#ffffff;stop-opacity:1"
         offset="0" />
      <stop
         id="stop5169-5-5-2-9-1"
         style="stop-color:#ffffff;stop-opacity:0"
         offset="1" />
    </linearGradient>
    <linearGradient
       inkscape:collect="always"
       xlink:href="#linearGradient5316-76"
       id="linearGradient31061"
       gradientUnits="userSpaceOnUse"
       gradientTransform="translate(-274.43625,37.414147)"
       x1="280.65372"
       y1="1100.6647"
       x2="292.69617"
       y2="1118.8726" />
    <linearGradient
       inkscape:collect="always"
       xlink:href="#linearGradient5344-0"
       id="linearGradient31063"
       gradientUnits="userSpaceOnUse"
       gradientTransform="translate(-274.43625,37.414147)"
       x1="317.94461"
       y1="1142.4757"
       x2="283.81964"
       y2="1103.8007" />
    <linearGradient
       id="linearGradient5344-0">
      <stop
         style="stop-color:#000000;stop-opacity:1;"
         offset="0"
         id="stop5346-9" />
      <stop
         style="stop-color:#000000;stop-opacity:0;"
         offset="1"
         id="stop5348-5" />
    </linearGradient>
    <linearGradient
       inkscape:collect="always"
       xlink:href="#linearGradient5344"
       id="linearGradient3105"
       x1="7.9531264"
       y1="2.2416961"
       x2="13.667412"
       y2="-64.464973"
       gradientUnits="userSpaceOnUse"
       gradientTransform="translate(1.7141702e-8,140)" />
    <linearGradient
       id="linearGradient5344">
      <stop
         style="stop-color:#000000;stop-opacity:1;"
         offset="0"
         id="stop5346" />
      <stop
         style="stop-color:#000000;stop-opacity:0;"
         offset="1"
         id="stop5348" />
    </linearGradient>
    <linearGradient
       inkscape:collect="always"
       xlink:href="#linearGradient5165-7-9-8-2"
       id="linearGradient3103"
       x1="22.933788"
       y1="-144.76825"
       x2="18.618809"
       y2="-96.331688"
       gradientUnits="userSpaceOnUse"
       gradientTransform="translate(1.7141702e-8,140)" />
    <linearGradient
       id="linearGradient5165-7-9-8-2">
      <stop
         id="stop5167-4-8-6-9"
         style="stop-color:#ffffff;stop-opacity:1"
         offset="0" />
      <stop
         id="stop5169-5-5-2-9"
         style="stop-color:#ffffff;stop-opacity:0"
         offset="1" />
    </linearGradient>
    <linearGradient
       inkscape:collect="always"
       xlink:href="#linearGradient5344"
       id="linearGradient3107"
       gradientUnits="userSpaceOnUse"
       gradientTransform="matrix(5.3340639,0,0,5.3340639,-1451.4802,-5864.5574)"
       x1="305.23422"
       y1="1137.0681"
       x2="283.35095"
       y2="1104.2024" />
    <linearGradient
       id="linearGradient3896">
      <stop
         style="stop-color:#000000;stop-opacity:1;"
         offset="0"
         id="stop3898" />
      <stop
         style="stop-color:#000000;stop-opacity:0;"
         offset="1"
         id="stop3900" />
    </linearGradient>
  </defs>
  <sodipodi:namedview
     id="base"
     pagecolor="#ffffff"
     bordercolor="#666666"
     borderopacity="1.0"
     inkscape:pageopacity="0.0"
     inkscape:pageshadow="2"
     inkscape:zoom="1.979899"
     inkscape:cx="143.32618"
     inkscape:cy="96.89407"
     inkscape:document-units="px"
     inkscape:current-layer="layer1"
     showgrid="false"
     inkscape:window-width="1280"
     inkscape:window-height="713"
     inkscape:window-x="0"
     inkscape:window-y="0"
     inkscape:window-maximized="0" />
  <metadata
     id="metadata6939">
    <rdf:RDF>
      <cc:Work
         rdf:about="">
        <dc:format>image/svg+xml</dc:format>
        <dc:type
           rdf:resource="http://purl.org/dc/dcmitype/StillImage" />
        <dc:title />
      </cc:Work>
    </rdf:RDF>
  </metadata>
  <g
     inkscape:label="Capa 1"
     inkscape:groupmode="layer"
     id="layer1">
    <path
       style="fill:#003f9d;fill-opacity:1;fill-rule:evenodd;stroke:none"
       d="m 34.21875,5.0625028 c -1.32927,0.0554 -2.550557,0.27966 -3.65625,0.625 l -18.34375,2.71875 -0.5,0 0,0.1875 C 6.0032494,9.6428228 3.0625,14.185733 3.0625,19.750003 l 0,84.687497 c -0.07024,5.65226 2.0501037,10.0952 6.3125,11.5 l 18.96875,5.9375 c 0.02087,0.0102 0.04153,0.0212 0.0625,0.0313 1.892721,0.90932 4.164425,1.2325 6.78125,0.8125 l 78.28125,-11.8125 c 5.72052,-0.61974 9.4668,-6.06393 9.15625,-13.624997 l 0.40625,-74.2813 c 0.22248,-5.96534 -2.80168,-10.97622 -9.34375,-11.96875 L 35.84375,5.0937528 c -0.55631,-0.0273 -1.103066,-0.053 -1.625,-0.0313 z"
       id="path30949"
       inkscape:connector-curvature="0" />
    <path
       style="fill:url(#linearGradient3107);fill-rule:evenodd;stroke:none"
       d="M 29.25,16.718753 29.21875,113.125 c 0.448699,3.45828 1.407546,8.12456 4.34375,9.75 0.527128,-0.0229 1.067503,-0.0668 1.625,-0.15625 l 78.28125,-11.8125 c 5.72052,-0.61974 9.4668,-6.06393 9.15625,-13.624997 l 0.40625,-74.28125 c 0.22245,-5.96534 -2.80168,-10.97622 -9.34375,-11.96875 L 37.678453,5.2336928 C 33.707189,4.8130228 29.262938,10.014263 29.25,16.718753 z M 30.15625,122.5 c 0.647964,0.17153 1.314675,0.32617 2.03125,0.375 z"
       id="path30953"
       inkscape:connector-curvature="0"
       sodipodi:nodetypes="ccccccccccccc" />
    <path
       style="fill:url(#linearGradient3103);fill-rule:evenodd;stroke:none;display:inline"
       d="m 34.78125,5.3125028 -22.5625,3.09375 -0.5,0 0,0.1875 C 6.003249,9.6428228 3.0625,14.185733 3.0625,19.750003 l 0,25 26.1875,0 0,-28.03125 c 0.347051,-4.91678 2.274064,-9.9637802 5.53125,-11.4062502 z"
       id="path3073"
       inkscape:connector-curvature="0" />
    <path
       style="fill:url(#linearGradient3105);fill-rule:evenodd;stroke:none;display:inline"
       d="m 3.0625,68.406253 0,36.031247 c -0.07024,5.65226 2.050104,10.0952 6.3125,11.5 l 17.65625,6.03125 7.5,1.3125 c -3.710844,-1.04488 -4.81745,-6.34073 -5.3125,-10.15625 l 0,-44.718747 -26.15625,0 z"
       id="path3081"
       inkscape:connector-curvature="0" />
    <path
       inkscape:connector-curvature="0"
       id="path30957"
       d="m 35.82501,5.0844328 c -1.73437,-0.0853 -3.26759,0.13333 -4.6673,0.50133 l -19.50267,3.00054 C 5.93954,9.6353728 2.98719,14.190033 2.98719,19.754303 l 0,84.678437 c -0.0702,5.65226 2.0718,10.09707 6.3342,11.50187 l 19.66935,6.16693 c 1.79224,0.74027 3.77499,1.0512 6.16751,0.6672 l 78.34407,-11.8352 c 5.72052,-0.6192 9.47847,-6.1072 9.16792,-13.668267 l 0.33339,-74.34403 c 0.22245,-5.96534 -2.79254,-10.84214 -9.33461,-11.83467 l -77.844,-6.0010702 z"
       style="fill:none;stroke:#344b63;stroke-width:2.667032;stroke-linecap:butt;stroke-linejoin:miter;stroke-miterlimit:4;stroke-opacity:1;stroke-dasharray:none;display:inline"
       sodipodi:nodetypes="ccccccccccccc" />
    <path
       inkscape:connector-curvature="0"
       id="path30891"
       d="M 67.859954,16.08318 C 47.662248,14.85901 40.854473,26.301092 31.428826,35.740233 c 9.715557,3.228703 17.355637,-8.002147 26.84399,-8.212309 0,0 0,23.235672 0,23.235672 3.468786,-2.321914 7.363378,-4.04588 11.571842,-5.140961 0,0 0,22.067514 0,22.067514 2.721483,-0.610749 5.419184,-1.225766 8.140661,-1.82318 11.400685,-2.433929 30.846741,-2.822248 28.088641,10.993485 -1.55722,7.887465 -13.665408,14.691584 -24.758371,15.866677 0,0 -23.042773,2.439796 -23.042773,2.439796 0,0 0,-44.403331 0,-44.403331 -9.595331,6.618494 -15.844013,17.57464 -15.844013,29.816294 -1.1e-5,20.30034 17.15896,34.17688 38.314921,30.96365 21.155966,-3.2127 38.314926,-19.470364 38.314926,-36.284902 -1e-5,-16.814538 -17.15897,-30.689479 -38.314926,-30.963649 -3.78747,-0.05334 -7.442737,0.410722 -10.899066,1.295642 0,0 0,-29.349031 0,-29.349031 -0.679913,-0.0587 -1.333159,-0.11201 -1.984704,-0.16002 0,0 0,0 0,0 m 16.886833,54.350806 c -4.975355,0.17069 -11.097406,1.895723 -14.565729,2.442997 1.6e-5,4.659829 0,9.316991 0,13.976821 4.385767,-0.336046 8.664883,-1.056676 12.850122,-2.381655 4.864614,-1.514338 8.621886,-4.178165 9.385314,-7.665569 1.15796,-5.264711 -2.694395,-6.541684 -7.669707,-6.372594 0,0 0,0 0,0"
       style="fill:#000000;fill-opacity:0.56431538;stroke:#000000;stroke-width:5.33368778;stroke-linecap:round;stroke-linejoin:round;stroke-opacity:0.61568627;display:inline" />
    <path
       inkscape:connector-curvature="0"
       style="fill:#ffffff;stroke:none;display:inline"
       d="M 69.445823,16.08318 C 49.248116,14.85901 42.440341,26.301092 33.014694,35.740233 c 9.715557,3.228703 17.355637,-8.002147 26.843991,-8.212309 0,0 0,23.235672 0,23.235672 3.468786,-2.321914 7.363377,-4.04588 11.571842,-5.140961 0,0 0,22.067514 0,22.067514 2.721482,-0.610749 5.419183,-1.225766 8.14066,-1.82318 11.400685,-2.433929 30.846743,-2.822248 28.088643,10.993485 -1.55722,7.887465 -13.665409,14.691584 -24.758373,15.866677 0,0 -23.042772,2.439796 -23.042772,2.439796 0,0 0,-44.403331 0,-44.403331 -9.595331,6.618494 -15.844013,17.57464 -15.844013,29.816294 -1.2e-5,20.30034 17.15896,34.17688 38.31492,30.96365 21.155968,-3.2127 38.314928,-19.470364 38.314928,-36.284902 -1e-5,-16.814538 -17.15897,-30.689479 -38.314928,-30.963649 -3.787469,-0.05334 -7.442736,0.410722 -10.899065,1.295642 0,0 0,-29.349031 0,-29.349031 -0.679913,-0.0587 -1.33316,-0.11201 -1.984704,-0.16002 0,0 0,0 0,0 m 16.886833,54.350806 c -4.975355,0.17069 -11.097406,1.895723 -14.56573,2.442997 1.6e-5,4.659829 0,9.316991 0,13.976821 4.385767,-0.336046 8.664883,-1.056676 12.850123,-2.381655 4.864613,-1.514338 8.621885,-4.178165 9.385313,-7.665569 1.15796,-5.264711 -2.694394,-6.541684 -7.669706,-6.372594 0,0 0,0 0,0"
       id="path30893" />
  </g>
</svg>
