<?xml version="1.0" encoding="UTF-8" standalone="no"?>
<!-- Created with Inkscape (http://www.inkscape.org/) -->

<svg
   xmlns:dc="http://purl.org/dc/elements/1.1/"
   xmlns:cc="http://creativecommons.org/ns#"
   xmlns:rdf="http://www.w3.org/1999/02/22-rdf-syntax-ns#"
   xmlns:svg="http://www.w3.org/2000/svg"
   xmlns="http://www.w3.org/2000/svg"
   xmlns:xlink="http://www.w3.org/1999/xlink"
   xmlns:sodipodi="http://sodipodi.sourceforge.net/DTD/sodipodi-0.dtd"
   xmlns:inkscape="http://www.inkscape.org/namespaces/inkscape"
   width="128"
   height="128"
   id="svg5809"
   version="1.1"
   inkscape:version="0.48.3.1 r9886"
   sodipodi:docname="desktop-symbolic.svg">
  <defs
     id="defs5811">
    <linearGradient
       inkscape:collect="always"
       xlink:href="#linearGradient9863"
       id="linearGradient14708"
       gradientUnits="userSpaceOnUse"
       gradientTransform="matrix(2.6666667,0,0,2.6666667,-1134.0196,-1900.8174)"
       x1="427.49109"
       y1="1082.9915"
       x2="462.47525"
       y2="1082.9915" />
    <linearGradient
       id="linearGradient9863">
      <stop
         style="stop-color:#2f445a;stop-opacity:1;"
         offset="0"
         id="stop9865" />
      <stop
         style="stop-color:#415f7c;stop-opacity:1"
         offset="1"
         id="stop9867" />
    </linearGradient>
    <linearGradient
       inkscape:collect="always"
       xlink:href="#linearGradient583"
       id="linearGradient14706"
       gradientUnits="userSpaceOnUse"
       x1="528.09375"
       y1="958.19788"
       x2="498.40625"
       y2="958.38538"
       gradientTransform="matrix(2.6666667,0,0,2.6666667,-1294.0196,-1580.8175)" />
    <linearGradient
       inkscape:collect="always"
       id="linearGradient583">
      <stop
         style="stop-color:#000000;stop-opacity:1;"
         offset="0"
         id="stop584" />
      <stop
         style="stop-color:#000000;stop-opacity:0;"
         offset="1"
         id="stop585" />
    </linearGradient>
    <linearGradient
       inkscape:collect="always"
       xlink:href="#linearGradient583"
       id="linearGradient14704"
       gradientUnits="userSpaceOnUse"
       x1="538.4118"
       y1="993.27368"
       x2="503.58163"
       y2="977.29645"
       gradientTransform="matrix(2.6666667,0,0,2.6666667,-1294.0196,-1580.8175)" />
    <linearGradient
       inkscape:collect="always"
       xlink:href="#linearGradient5165-7-9-8-2"
       id="linearGradient14702"
       gradientUnits="userSpaceOnUse"
       x1="478.94519"
       y1="920.79523"
       x2="506.24091"
       y2="970.36383"
       gradientTransform="matrix(2.6666667,0,0,2.6666667,-1294.0196,-1580.8175)" />
    <linearGradient
       id="linearGradient5165-7-9-8-2">
      <stop
         id="stop5167-4-8-6-9"
         style="stop-color:#ffffff;stop-opacity:1"
         offset="0" />
      <stop
         id="stop5169-5-5-2-9"
         style="stop-color:#ffffff;stop-opacity:0"
         offset="1" />
    </linearGradient>
    <linearGradient
       inkscape:collect="always"
       xlink:href="#linearGradient14753"
       id="linearGradient14700"
       gradientUnits="userSpaceOnUse"
       x1="490.625"
       y1="954.61218"
       x2="541.625"
       y2="962.61218"
       gradientTransform="matrix(2.6666667,0,0,2.6666667,-1294.0196,-1580.8175)" />
    <linearGradient
       id="linearGradient14753">
      <stop
         style="stop-color:#ffffff;stop-opacity:1;"
         offset="0"
         id="stop14755" />
      <stop
         style="stop-color:#000000;stop-opacity:1;"
         offset="1"
         id="stop14757" />
    </linearGradient>
    <linearGradient
       inkscape:collect="always"
       xlink:href="#linearGradient14753"
       id="linearGradient14698"
       gradientUnits="userSpaceOnUse"
       gradientTransform="matrix(2.6666667,0,0,2.6666667,-1288.0092,-1580.8175)"
       x1="500.54321"
       y1="947.93134"
       x2="510.08917"
       y2="961.54315" />
    <linearGradient
       id="linearGradient5769">
      <stop
         style="stop-color:#ffffff;stop-opacity:1;"
         offset="0"
         id="stop5771" />
      <stop
         style="stop-color:#000000;stop-opacity:1;"
         offset="1"
         id="stop5773" />
    </linearGradient>
    <linearGradient
       inkscape:collect="always"
       xlink:href="#linearGradient14705"
       id="linearGradient14696"
       gradientUnits="userSpaceOnUse"
       x1="501.25"
       y1="961.11218"
       x2="501.25"
       y2="977.98718"
       gradientTransform="matrix(2.6666667,0,0,2.6666667,-1294.0196,-1580.8175)" />
    <linearGradient
       id="linearGradient14705">
      <stop
         style="stop-color:#e9b551;stop-opacity:1;"
         offset="0"
         id="stop14707" />
      <stop
         style="stop-color:#b48739;stop-opacity:1;"
         offset="1"
         id="stop14709" />
    </linearGradient>
    <linearGradient
       inkscape:collect="always"
       xlink:href="#linearGradient583"
       id="linearGradient5932"
       gradientUnits="userSpaceOnUse"
       gradientTransform="matrix(2.6666667,0,0,2.6666667,-1294.0196,-1580.8175)"
       x1="456.66617"
       y1="990.67792"
       x2="540.91187"
       y2="980.18683" />
    <linearGradient
       inkscape:collect="always"
       xlink:href="#linearGradient9863-7"
       id="linearGradient33767"
       gradientUnits="userSpaceOnUse"
       gradientTransform="matrix(2.6666651,0,0,2.6666651,-1134.0188,-1900.8159)"
       x1="427.49109"
       y1="1082.9915"
       x2="462.47525"
       y2="1082.9915" />
    <linearGradient
       id="linearGradient9863-7">
      <stop
         style="stop-color:#2f445a;stop-opacity:1;"
         offset="0"
         id="stop9865-0" />
      <stop
         style="stop-color:#415f7c;stop-opacity:1"
         offset="1"
         id="stop9867-3" />
    </linearGradient>
    <linearGradient
       inkscape:collect="always"
       xlink:href="#linearGradient32471-6"
       id="linearGradient33565-7"
       gradientUnits="userSpaceOnUse"
       x1="640.03125"
       y1="1107.2971"
       x2="665.93811"
       y2="1074.6721" />
    <linearGradient
       id="linearGradient32471-6">
      <stop
         style="stop-color:#000000;stop-opacity:1;"
         offset="0"
         id="stop32473-3" />
      <stop
         style="stop-color:#000000;stop-opacity:0;"
         offset="1"
         id="stop32475-6" />
    </linearGradient>
    <linearGradient
       inkscape:collect="always"
       xlink:href="#linearGradient5316-5-3"
       id="linearGradient33567-8"
       gradientUnits="userSpaceOnUse"
       gradientTransform="translate(138.49324,119.2046)"
       x1="515.96655"
       y1="969.24048"
       x2="512.15381"
       y2="973.83667" />
    <linearGradient
       id="linearGradient5316-5-3">
      <stop
         style="stop-color:#c0bfbb;stop-opacity:1;"
         offset="0"
         id="stop5320-8-0" />
      <stop
         style="stop-color:#798088;stop-opacity:1;"
         offset="1"
         id="stop5322-9-5" />
    </linearGradient>
    <linearGradient
       inkscape:collect="always"
       xlink:href="#linearGradient5344-5-4"
       id="linearGradient33569-1"
       gradientUnits="userSpaceOnUse"
       gradientTransform="translate(138.49324,119.2046)"
       x1="516.10785"
       y1="969.711"
       x2="512.9375"
       y2="972.711" />
    <linearGradient
       id="linearGradient5344-5-4">
      <stop
         style="stop-color:#000000;stop-opacity:1;"
         offset="0"
         id="stop5346-7-0" />
      <stop
         style="stop-color:#000000;stop-opacity:0;"
         offset="1"
         id="stop5348-4-5" />
    </linearGradient>
    <linearGradient
       inkscape:collect="always"
       xlink:href="#linearGradient5362-8-6"
       id="linearGradient33571-7"
       gradientUnits="userSpaceOnUse"
       gradientTransform="translate(136.46199,117.00147)"
       x1="506.89734"
       y1="960.09497"
       x2="505.13272"
       y2="967.29858" />
    <linearGradient
       id="linearGradient5362-8-6">
      <stop
         style="stop-color:#ffffff;stop-opacity:1;"
         offset="0"
         id="stop5364-8-0" />
      <stop
         style="stop-color:#ffffff;stop-opacity:0;"
         offset="1"
         id="stop5366-5-8" />
    </linearGradient>
    <linearGradient
       inkscape:collect="always"
       xlink:href="#linearGradient5439-1-7"
       id="linearGradient33573-3"
       gradientUnits="userSpaceOnUse"
       gradientTransform="translate(138.49324,119.2046)"
       x1="499.19803"
       y1="953.06122"
       x2="494.27518"
       y2="958.18781" />
    <linearGradient
       id="linearGradient5439-1-7">
      <stop
         style="stop-color:#ffffff;stop-opacity:1;"
         offset="0"
         id="stop5441-5-6" />
      <stop
         style="stop-color:#000000;stop-opacity:1;"
         offset="1"
         id="stop5443-7-8" />
    </linearGradient>
    <linearGradient
       inkscape:collect="always"
       xlink:href="#linearGradient5439-1-7"
       id="linearGradient33575-1"
       gradientUnits="userSpaceOnUse"
       gradientTransform="translate(138.49324,119.2046)"
       x1="487.87024"
       y1="943.24536"
       x2="495.58206"
       y2="959.24365" />
    <linearGradient
       id="linearGradient6075">
      <stop
         style="stop-color:#ffffff;stop-opacity:1;"
         offset="0"
         id="stop6077" />
      <stop
         style="stop-color:#000000;stop-opacity:1;"
         offset="1"
         id="stop6079" />
    </linearGradient>
    <linearGradient
       y2="1091.7322"
       x2="651.04498"
       y1="1095.5295"
       x1="647.14551"
       gradientUnits="userSpaceOnUse"
       id="linearGradient33643"
       xlink:href="#linearGradient32471-6"
       inkscape:collect="always" />
    <linearGradient
       id="linearGradient6082">
      <stop
         style="stop-color:#000000;stop-opacity:1;"
         offset="0"
         id="stop6084" />
      <stop
         style="stop-color:#000000;stop-opacity:0;"
         offset="1"
         id="stop6086" />
    </linearGradient>
    <linearGradient
       inkscape:collect="always"
       xlink:href="#linearGradient583-6"
       id="linearGradient32382"
       gradientUnits="userSpaceOnUse"
       x1="456.66617"
       y1="990.67792"
       x2="540.91187"
       y2="980.18683"
       gradientTransform="translate(80,120)" />
    <linearGradient
       inkscape:collect="always"
       id="linearGradient583-6">
      <stop
         style="stop-color:#000000;stop-opacity:1;"
         offset="0"
         id="stop584-9" />
      <stop
         style="stop-color:#000000;stop-opacity:0;"
         offset="1"
         id="stop585-2" />
    </linearGradient>
    <linearGradient
       inkscape:collect="always"
       xlink:href="#linearGradient14705-0"
       id="linearGradient32384"
       gradientUnits="userSpaceOnUse"
       x1="501.25"
       y1="961.11218"
       x2="501.25"
       y2="977.98718"
       gradientTransform="translate(80,120)" />
    <linearGradient
       id="linearGradient14705-0">
      <stop
         style="stop-color:#e9b551;stop-opacity:1;"
         offset="0"
         id="stop14707-7" />
      <stop
         style="stop-color:#b48739;stop-opacity:1;"
         offset="1"
         id="stop14709-0" />
    </linearGradient>
    <linearGradient
       inkscape:collect="always"
       xlink:href="#linearGradient14753-0"
       id="linearGradient32386"
       gradientUnits="userSpaceOnUse"
       gradientTransform="translate(82.253903,120)"
       x1="500.54321"
       y1="947.93134"
       x2="510.08917"
       y2="961.54315" />
    <linearGradient
       id="linearGradient14753-0">
      <stop
         style="stop-color:#ffffff;stop-opacity:1;"
         offset="0"
         id="stop14755-1" />
      <stop
         style="stop-color:#000000;stop-opacity:1;"
         offset="1"
         id="stop14757-7" />
    </linearGradient>
    <linearGradient
       inkscape:collect="always"
       xlink:href="#linearGradient14753-0"
       id="linearGradient32388"
       gradientUnits="userSpaceOnUse"
       x1="490.625"
       y1="954.61218"
       x2="541.625"
       y2="962.61218"
       gradientTransform="translate(80,120)" />
    <linearGradient
       id="linearGradient6101">
      <stop
         style="stop-color:#ffffff;stop-opacity:1;"
         offset="0"
         id="stop6103" />
      <stop
         style="stop-color:#000000;stop-opacity:1;"
         offset="1"
         id="stop6105" />
    </linearGradient>
    <linearGradient
       inkscape:collect="always"
       xlink:href="#linearGradient5165-7-9-8-2-8"
       id="linearGradient32390"
       gradientUnits="userSpaceOnUse"
       x1="478.94519"
       y1="920.79523"
       x2="506.24091"
       y2="970.36383"
       gradientTransform="translate(80,120)" />
    <linearGradient
       id="linearGradient5165-7-9-8-2-8">
      <stop
         id="stop5167-4-8-6-9-8"
         style="stop-color:#ffffff;stop-opacity:1"
         offset="0" />
      <stop
         id="stop5169-5-5-2-9-1"
         style="stop-color:#ffffff;stop-opacity:0"
         offset="1" />
    </linearGradient>
    <linearGradient
       inkscape:collect="always"
       xlink:href="#linearGradient583-6"
       id="linearGradient32392"
       gradientUnits="userSpaceOnUse"
       x1="538.4118"
       y1="993.27368"
       x2="503.58163"
       y2="977.29645"
       gradientTransform="translate(80,120)" />
    <linearGradient
       inkscape:collect="always"
       xlink:href="#linearGradient583-6"
       id="linearGradient32394"
       gradientUnits="userSpaceOnUse"
       x1="528.09375"
       y1="958.19788"
       x2="498.40625"
       y2="958.38538"
       gradientTransform="translate(80,120)" />
    <linearGradient
       inkscape:collect="always"
       xlink:href="#linearGradient583-6"
       id="linearGradient6310"
       gradientUnits="userSpaceOnUse"
       gradientTransform="translate(80,120)"
       x1="456.66617"
       y1="990.67792"
       x2="540.91187"
       y2="980.18683" />
    <linearGradient
       inkscape:collect="always"
       xlink:href="#linearGradient14705-0"
       id="linearGradient6312"
       gradientUnits="userSpaceOnUse"
       gradientTransform="translate(80,120)"
       x1="501.25"
       y1="961.11218"
       x2="501.25"
       y2="977.98718" />
    <linearGradient
       inkscape:collect="always"
       xlink:href="#linearGradient14753-0"
       id="linearGradient6314"
       gradientUnits="userSpaceOnUse"
       gradientTransform="translate(82.253903,120)"
       x1="500.54321"
       y1="947.93134"
       x2="510.08917"
       y2="961.54315" />
    <linearGradient
       inkscape:collect="always"
       xlink:href="#linearGradient14753-0"
       id="linearGradient6316"
       gradientUnits="userSpaceOnUse"
       gradientTransform="translate(80,120)"
       x1="490.625"
       y1="954.61218"
       x2="541.625"
       y2="962.61218" />
    <linearGradient
       inkscape:collect="always"
       xlink:href="#linearGradient5165-7-9-8-2-8"
       id="linearGradient6318"
       gradientUnits="userSpaceOnUse"
       gradientTransform="translate(80,120)"
       x1="478.94519"
       y1="920.79523"
       x2="506.24091"
       y2="970.36383" />
    <linearGradient
       inkscape:collect="always"
       xlink:href="#linearGradient583-6"
       id="linearGradient6320"
       gradientUnits="userSpaceOnUse"
       gradientTransform="translate(80,120)"
       x1="538.4118"
       y1="993.27368"
       x2="503.58163"
       y2="977.29645" />
    <linearGradient
       inkscape:collect="always"
       xlink:href="#linearGradient583-6"
       id="linearGradient6322"
       gradientUnits="userSpaceOnUse"
       gradientTransform="translate(80,120)"
       x1="528.09375"
       y1="958.19788"
       x2="498.40625"
       y2="958.38538" />
    <linearGradient
       inkscape:collect="always"
       xlink:href="#linearGradient583-6"
       id="linearGradient6325"
       gradientUnits="userSpaceOnUse"
       gradientTransform="matrix(2.6666651,0,0,2.6666651,-1294.0188,-1580.8161)"
       x1="528.09375"
       y1="958.19788"
       x2="498.40625"
       y2="958.38538" />
    <linearGradient
       inkscape:collect="always"
       xlink:href="#linearGradient583-6"
       id="linearGradient6328"
       gradientUnits="userSpaceOnUse"
       gradientTransform="matrix(2.6666651,0,0,2.6666651,-1294.0188,-1580.8161)"
       x1="538.4118"
       y1="993.27368"
       x2="503.58163"
       y2="977.29645" />
    <linearGradient
       inkscape:collect="always"
       xlink:href="#linearGradient5165-7-9-8-2-8"
       id="linearGradient6331"
       gradientUnits="userSpaceOnUse"
       gradientTransform="matrix(2.6666651,0,0,2.6666651,-1294.0188,-1580.8161)"
       x1="478.94519"
       y1="920.79523"
       x2="506.24091"
       y2="970.36383" />
    <linearGradient
       inkscape:collect="always"
       xlink:href="#linearGradient14753-0"
       id="linearGradient6334"
       gradientUnits="userSpaceOnUse"
       gradientTransform="matrix(2.6666651,0,0,2.6666651,-1294.0188,-1580.8161)"
       x1="490.625"
       y1="954.61218"
       x2="541.625"
       y2="962.61218" />
    <linearGradient
       inkscape:collect="always"
       xlink:href="#linearGradient14753-0"
       id="linearGradient6337"
       gradientUnits="userSpaceOnUse"
       gradientTransform="matrix(2.6666651,0,0,2.6666651,-1288.0084,-1580.8161)"
       x1="500.54321"
       y1="947.93134"
       x2="510.08917"
       y2="961.54315" />
    <linearGradient
       inkscape:collect="always"
       xlink:href="#linearGradient14705-0"
       id="linearGradient6340"
       gradientUnits="userSpaceOnUse"
       gradientTransform="matrix(2.6666651,0,0,2.6666651,-1294.0188,-1580.8161)"
       x1="501.25"
       y1="961.11218"
       x2="501.25"
       y2="977.98718" />
    <linearGradient
       inkscape:collect="always"
       xlink:href="#linearGradient583-6"
       id="linearGradient6343"
       gradientUnits="userSpaceOnUse"
       gradientTransform="matrix(2.6666651,0,0,2.6666651,-1294.0188,-1580.8161)"
       x1="456.66617"
       y1="990.67792"
       x2="540.91187"
       y2="980.18683" />
  </defs>
  <sodipodi:namedview
     id="base"
     pagecolor="#ffffff"
     bordercolor="#666666"
     borderopacity="1.0"
     inkscape:pageopacity="0.0"
     inkscape:pageshadow="2"
     inkscape:zoom="1.979899"
     inkscape:cx="202.03517"
     inkscape:cy="47.166963"
     inkscape:document-units="px"
     inkscape:current-layer="layer1"
     showgrid="false"
     inkscape:window-width="1366"
     inkscape:window-height="720"
     inkscape:window-x="0"
     inkscape:window-y="25"
     inkscape:window-maximized="1" />
  <metadata
     id="metadata5814">
    <rdf:RDF>
      <cc:Work
         rdf:about="">
        <dc:format>image/svg+xml</dc:format>
        <dc:type
           rdf:resource="http://purl.org/dc/dcmitype/StillImage" />
        <dc:title></dc:title>
      </cc:Work>
    </rdf:RDF>
  </metadata>
  <g
     inkscape:label="Capa 1"
     inkscape:groupmode="layer"
     id="layer1"
     transform="translate(0,-924.36218)">
    <path
       sodipodi:nodetypes="ccccc"
       inkscape:connector-curvature="0"
       id="path32366"
       d="m 33.397601,1038.0648 c -11.31386,1.588 -22.2326,8.1925 -10.6997,10.6666 18.207963,3.8603 48.900105,1.2198 71.528971,-1.6666 12.436578,-1.4027 24.733958,-7.2558 14.437088,-9.2499 -3.50843,-1.3184 -56.031063,-2.1925 -75.266359,0.2507 z"
       style="fill:url(#linearGradient6343);fill-opacity:1;stroke:none" />
    <path
       sodipodi:nodetypes="ccccc"
       inkscape:connector-curvature="0"
       id="path32368"
       d="m 34.313761,966.48162 36.333312,0 c 27.332411,19.90665 38.862167,55.96368 11.999993,72.99998 -17.80407,9.4557 -49.047438,11.3205 -59.999965,1 -27.6182236,-23.0317 -14.4345781,-50.8256 11.66666,-73.99998 z"
       style="fill:url(#linearGradient6340);stroke:none" />
    <path
       inkscape:connector-curvature="0"
       id="path32370"
       d="m 53.608096,966.91628 30.169849,-40.06957 4.006958,3.06426 -34.412513,45.72611 z"
       style="fill:url(#linearGradient6337);stroke:none;display:inline" />
    <path
       sodipodi:nodetypes="ccccc"
       inkscape:connector-curvature="0"
       id="path32372"
       d="m 34.398374,966.20908 -8.013862,7.66026 c 16.672497,3.6488 37.531365,3.04614 53.504369,0.47147 -2.038852,-2.82346 -5.071971,-5.5048 -9.310235,-8.01386 z"
       style="fill:url(#linearGradient6334);fill-opacity:1;stroke:none;display:inline" />
    <path
       sodipodi:nodetypes="ccsscc"
       inkscape:connector-curvature="0"
       id="path32374"
       d="m 34.313761,966.18375 c -19.980868,17.74026 -32.3918744,38.51975 -24.7241189,57.46555 5.3389839,7.5016 19.3815619,21.9435 25.3148389,17.1104 6.740636,-5.4909 -7.237223,-33.6325 8.708261,-45.01037 10.927007,-7.79679 13.803805,-23.45678 10.730714,-29.61758 -5.160104,-0.47547 -15.082685,0.0507 -20.029695,0.0507 z"
       style="fill:url(#linearGradient6331);stroke:none" />
    <path
       style="fill:url(#linearGradient6328);stroke:none"
       d="m 70.647073,966.48162 c 27.332411,19.90665 38.862167,55.96368 11.999993,72.99998 -17.80407,9.4557 -49.047438,11.3205 -59.999965,1 -6.25141,-10.9184 30.762302,-74.47145 47.999972,-73.99998 z"
       id="path32376"
       inkscape:connector-curvature="0"
       sodipodi:nodetypes="cccc" />
    <path
       sodipodi:nodetypes="cccc"
       inkscape:connector-curvature="0"
       id="path32378"
       d="m 80.397067,975.14828 c -16.505163,2.1896 -32.986914,2.5464 -46.833306,0.0827 15.055538,0.33627 30.944436,0.86294 45.999973,-1.4168 z"
       style="fill:url(#linearGradient6325);stroke:none" />
    <g
       style="display:inline"
       id="g33555"
       transform="matrix(2.6666651,0,0,2.6666651,-1663.208,-1898.6849)">
      <rect
         inkscape:export-ydpi="180"
         inkscape:export-xdpi="180"
         inkscape:export-filename="/home/dafeba/DCV/tallerD/bocetos/herram.png"
         y="1058.6433"
         x="623.70337"
         height="48"
         width="47.823223"
         id="rect7877"
         style="fill:none;stroke:none;display:inline" />
      <path
         inkscape:connector-curvature="0"
         id="path32733"
         d="m 625.90625,1063.5938 -1.5,1.375 2.15625,6.1874 2.34375,0.031 c 0.14233,-0.048 0.30775,-0.1372 0.46875,-0.2187 l 10.8125,12 c -0.46987,0.5012 -0.86349,1.0755 -0.96875,1.5937 -0.009,0.043 -0.0271,0.083 -0.0313,0.125 -0.003,0.031 4.2e-4,0.063 0,0.094 2.8e-4,0.021 -0.002,0.043 0,0.063 0.007,0.1419 0.0191,0.2801 0.0937,0.4062 l 1.09375,2.75 13.71875,13.7812 c 0.35665,0.123 0.69365,0.1676 1.03125,0.1876 0.0315,0 0.0625,0.03 0.0937,0.031 0.0212,8e-4 0.0414,-4e-4 0.0625,0 0.0212,3e-4 0.0415,0 0.0625,0 0.17136,4e-4 0.33523,-0.039 0.5,-0.063 0.18634,-0.027 0.35447,-0.069 0.53125,-0.125 0.0829,-0.026 0.16938,-0.061 0.25,-0.094 0.031,-0.013 0.0631,-0.018 0.0937,-0.031 0.12831,-0.056 0.25321,-0.1175 0.375,-0.1875 0.0282,-0.016 0.0659,-0.014 0.0937,-0.031 0.0644,-0.039 0.12511,-0.082 0.1875,-0.125 0.079,-0.055 0.14316,-0.127 0.21875,-0.1876 0.0685,-0.055 0.15316,-0.097 0.21875,-0.1562 0.062,-0.056 0.1282,-0.1272 0.1875,-0.1875 0.0161,-0.016 0.0154,-0.046 0.0313,-0.063 0.0586,-0.061 0.13174,-0.1226 0.1875,-0.1875 0.0211,-0.018 0.0418,-0.043 0.0625,-0.063 0.0241,-0.029 0.039,-0.064 0.0625,-0.094 0.25407,-0.2501 0.4588,-0.5485 0.59375,-0.9374 0.0203,-0.041 0.0431,-0.084 0.0625,-0.125 0.0207,-0.072 0.0469,-0.141 0.0625,-0.2188 0.32199,-0.7656 0.51494,-1.6185 0.5,-2.5 l -12.875,-14.3125 -2.3125,-1.5313 c -0.0489,-0.052 -0.13613,-0.093 -0.21875,-0.125 -0.009,0 -0.0217,0 -0.0313,0 -0.0321,-0.011 -0.0567,-0.023 -0.0937,-0.031 -0.0797,-0.01 -0.15291,-0.013 -0.25,0 -0.0977,0.012 -0.20494,0.032 -0.3125,0.063 -0.22289,0.068 -0.488,0.175 -0.75,0.3125 -0.0877,0.045 -0.16216,0.1061 -0.25,0.1562 -0.0635,0.037 -0.12305,0.085 -0.1875,0.125 L 631.25,1069.3438 c 0.0805,-0.1287 0.17322,-0.2472 0.21875,-0.375 l 0.0313,-2.2188 -5.59375,-3.1562 z"
         style="fill:url(#linearGradient33565-7);fill-rule:evenodd;stroke:none;display:inline" />
      <path
         inkscape:export-ydpi="180"
         inkscape:export-xdpi="180"
         inkscape:export-filename="/home/dafeba/DCV/tallerD/bocetos/herram.png"
         style="fill:url(#linearGradient33567-8);fill-rule:evenodd;stroke:none;display:inline"
         d="m 639.91937,1082.8755 1.07387,2.7538 13.71783,13.7651 c 3.06479,1.0567 5.539,-1.908 5.48421,-5.1401 l -12.88954,-14.3125 -2.51896,-1.6692 c -0.75288,-0.1817 -2.22538,0.7507 -3.04654,1.4573 -0.87049,0.749 -2.37566,2.2087 -1.82087,3.1456 z"
         id="path7879"
         sodipodi:nodetypes="ccccccsc"
         inkscape:connector-curvature="0" />
      <path
         inkscape:export-ydpi="180"
         inkscape:export-xdpi="180"
         inkscape:export-filename="/home/dafeba/DCV/tallerD/bocetos/herram.png"
         style="fill:url(#linearGradient33569-1);fill-rule:evenodd;stroke:none;display:inline"
         d="m 659.68074,1096.7543 -13.125,-14.1875 c -1.49105,-1.5857 -3.35457,0.8452 -2.125,2.3125 l 13,14.3125 c 0.91202,-0.713 1.97847,-1.0841 2.25,-2.4375 z"
         id="path7881"
         sodipodi:nodetypes="ccccc"
         inkscape:connector-curvature="0" />
      <path
         inkscape:export-ydpi="180"
         inkscape:export-xdpi="180"
         inkscape:export-filename="/home/dafeba/DCV/tallerD/bocetos/herram.png"
         style="fill:url(#linearGradient33571-7);fill-rule:evenodd;stroke:none;display:inline"
         d="m 639.81125,1082.4697 c 0.16271,1.0994 2.34246,0.1089 3.57909,-1.1735 1.02715,-0.9119 2.45585,-2.8021 1.26917,-3.0509 -1.27501,-0.1545 -4.97258,2.7681 -4.84826,4.2244 z"
         id="path7887"
         sodipodi:nodetypes="cccc"
         inkscape:connector-curvature="0" />
      <path
         inkscape:export-ydpi="180"
         inkscape:export-xdpi="180"
         inkscape:export-filename="/home/dafeba/DCV/tallerD/bocetos/herram.png"
         style="fill:url(#linearGradient33573-3);fill-rule:evenodd;stroke:none;display:inline"
         d="m 629.91309,1068.4654 11.5808,12.9246 c 0.76523,-0.01 2.0463,-1.1538 1.96588,-1.8683 l -11.69129,-12.6677 -1.85539,1.6114 z"
         id="path7889"
         sodipodi:nodetypes="ccccc"
         inkscape:connector-curvature="0" />
      <path
         inkscape:export-ydpi="180"
         inkscape:export-xdpi="180"
         inkscape:export-filename="/home/dafeba/DCV/tallerD/bocetos/herram.png"
         style="fill:url(#linearGradient33575-1);fill-rule:evenodd;stroke:none;display:inline"
         d="m 626.5295,1061.2139 -1.49187,1.3647 2.15858,6.2162 2.33092,0.018 c 0.87693,-0.2936 2.22979,-1.2945 2.56012,-2.2222 l 0.0435,-2.2287 -5.60129,-3.1478 z"
         id="path7891"
         sodipodi:nodetypes="ccccccc"
         inkscape:connector-curvature="0" />
      <path
         inkscape:connector-curvature="0"
         sodipodi:nodetypes="cccccc"
         id="path32700"
         d="m 639.91937,1082.8755 1.07387,2.7538 13.71783,13.7651 c 1.64519,0.5672 3.1202,-0.024 4.12518,-1.194 l -17.09601,-18.4705 c -0.87049,0.749 -2.37566,2.2087 -1.82087,3.1456 z"
         style="fill:url(#linearGradient33643);fill-rule:evenodd;stroke:none;display:inline"
         inkscape:export-filename="/home/dafeba/DCV/tallerD/bocetos/herram.png"
         inkscape:export-xdpi="180"
         inkscape:export-ydpi="180" />
    </g>
    <path
       inkscape:connector-curvature="0"
       style="fill:none;stroke:url(#linearGradient33767);stroke-width:2.66666508;stroke-linecap:round;stroke-linejoin:round;stroke-opacity:1"
       d="m 83.813781,926.84923 -29.66665,39.41651 -14.24999,-0.0827 -18.08333,-19.58345 c 0.21467,-0.34294 0.46192,-0.74214 0.58334,-1.0832 l 0.0835,-5.9168 -14.91666,-8.41653 -3.99999,3.66667 5.74999,16.58345 6.25,0.0827 c 0.41013,-0.13867 0.86667,-0.42453 1.33333,-0.66667 l 15.49999,17.25013 -2.83333,2.74986 -3.16666,3 0.16666,0 c -20.68063,21.52452 -28.64734,46.0429 -3.91666,66.6666 10.95253,10.3206 42.19589,8.4558 59.99996,-1 3.47435,-2.2034 6.26008,-4.7336 8.5,-7.5 3.7841,-2.4365 6.256,-7.3965 6.16666,-12.6666 l -0.0835,-0.083 c 3.008229,-14.5 -4.15046,-31.64877 -17.33333,-44.9165 -2.03885,-2.82346 -5.09506,-5.49093 -9.33333,-7.99999 l -10.16666,-0.0827 27.41665,-36.33331 -3.99999,-3.0832 z"
       id="path33765" />
  </g>
</svg>
