<?xml version="1.0" encoding="UTF-8" standalone="no"?>
<!-- Created with Inkscape (http://www.inkscape.org/) -->

<svg
   xmlns:dc="http://purl.org/dc/elements/1.1/"
   xmlns:cc="http://creativecommons.org/ns#"
   xmlns:rdf="http://www.w3.org/1999/02/22-rdf-syntax-ns#"
   xmlns:svg="http://www.w3.org/2000/svg"
   xmlns="http://www.w3.org/2000/svg"
   xmlns:xlink="http://www.w3.org/1999/xlink"
   xmlns:sodipodi="http://sodipodi.sourceforge.net/DTD/sodipodi-0.dtd"
   xmlns:inkscape="http://www.inkscape.org/namespaces/inkscape"
   width="128"
   height="128"
   id="svg6934"
   sodipodi:version="0.32"
   inkscape:version="0.48.3.1 r9886"
   version="1.0"
   sodipodi:docname="aaa-generic.svg"
   inkscape:output_extension="org.inkscape.output.svg.inkscape">
  <defs
     id="defs6936">
    <linearGradient
       id="linearGradient5344">
      <stop
         style="stop-color:#000000;stop-opacity:1;"
         offset="0"
         id="stop5346" />
      <stop
         style="stop-color:#000000;stop-opacity:0;"
         offset="1"
         id="stop5348" />
    </linearGradient>
    <linearGradient
       id="linearGradient5165-7-9-8-2">
      <stop
         id="stop5167-4-8-6-9"
         style="stop-color:#ffffff;stop-opacity:1"
         offset="0" />
      <stop
         id="stop5169-5-5-2-9"
         style="stop-color:#ffffff;stop-opacity:0"
         offset="1" />
    </linearGradient>
    <linearGradient
       inkscape:collect="always"
       xlink:href="#linearGradient5344"
       id="linearGradient3107"
       gradientUnits="userSpaceOnUse"
       gradientTransform="matrix(5.3340639,0,0,5.3340639,-1451.4802,-5864.5574)"
       x1="305.23422"
       y1="1137.0681"
       x2="283.35095"
       y2="1104.2024" />
    <linearGradient
       inkscape:collect="always"
       xlink:href="#linearGradient5344-50"
       id="linearGradient13031-7"
       gradientUnits="userSpaceOnUse"
       gradientTransform="matrix(2.3371908,-0.19593194,0,2.3371908,-1123.3759,-2035.152)"
       x1="516.625"
       y1="949.4657"
       x2="516.625"
       y2="953.45752" />
    <linearGradient
       id="linearGradient5344-50">
      <stop
         style="stop-color:#000000;stop-opacity:1;"
         offset="0"
         id="stop5346-2" />
      <stop
         style="stop-color:#000000;stop-opacity:0;"
         offset="1"
         id="stop5348-5" />
    </linearGradient>
    <linearGradient
       inkscape:collect="always"
       xlink:href="#linearGradient5316-0"
       id="linearGradient13027-1"
       gradientUnits="userSpaceOnUse"
       gradientTransform="matrix(3.6383072,-0.24094751,0,3.6383072,-1797.8001,-3254.4436)"
       x1="516.625"
       y1="951.58276"
       x2="516.84595"
       y2="953.33002" />
    <linearGradient
       id="linearGradient5316-0">
      <stop
         style="stop-color:#aac736;stop-opacity:1;"
         offset="0"
         id="stop5320-8" />
      <stop
         style="stop-color:#5d8b2c;stop-opacity:1;"
         offset="1"
         id="stop5322-1" />
    </linearGradient>
    <linearGradient
       inkscape:collect="always"
       xlink:href="#linearGradient13604-6"
       id="linearGradient13023-1"
       gradientUnits="userSpaceOnUse"
       gradientTransform="matrix(3.6383072,0,0,3.6383072,-1871.8013,-3376.2301)"
       x1="532.71075"
       y1="943.25812"
       x2="540.65033"
       y2="973.31165" />
    <linearGradient
       id="linearGradient13604-6">
      <stop
         id="stop13606-2"
         offset="0"
         style="stop-color:#ffffff;stop-opacity:1;" />
      <stop
         id="stop13608-7"
         offset="1"
         style="stop-color:#000000;stop-opacity:1;" />
    </linearGradient>
    <linearGradient
       inkscape:collect="always"
       xlink:href="#linearGradient13620-8"
       id="linearGradient13021-7"
       gradientUnits="userSpaceOnUse"
       gradientTransform="matrix(3.6383072,0,0,3.6383072,-1811.8986,-3430.9797)"
       x1="508.00168"
       y1="976.56775"
       x2="507.60999"
       y2="969.06256" />
    <linearGradient
       id="linearGradient13620-8">
      <stop
         id="stop13622-7"
         offset="0"
         style="stop-color:#000000;stop-opacity:1;" />
      <stop
         id="stop13624-6"
         offset="1"
         style="stop-color:#000000;stop-opacity:0;" />
    </linearGradient>
    <linearGradient
       inkscape:collect="always"
       xlink:href="#linearGradient13604-6"
       id="linearGradient13015-1"
       gradientUnits="userSpaceOnUse"
       gradientTransform="matrix(3.6383072,0,0,3.6383072,-1811.8986,-3430.9797)"
       x1="507.15793"
       y1="956.94275"
       x2="506.35999"
       y2="981.68756" />
    <linearGradient
       inkscape:collect="always"
       xlink:href="#linearGradient5165-7-9-8-2"
       id="linearGradient3092"
       gradientUnits="userSpaceOnUse"
       gradientTransform="translate(-40,140)"
       x1="22.933788"
       y1="-144.76825"
       x2="18.618809"
       y2="-96.331688" />
    <linearGradient
       inkscape:collect="always"
       xlink:href="#linearGradient5344"
       id="linearGradient3094"
       gradientUnits="userSpaceOnUse"
       gradientTransform="translate(-40,140)"
       x1="7.9531264"
       y1="2.2416961"
       x2="13.667412"
       y2="-64.464973" />
  </defs>
  <sodipodi:namedview
     id="base"
     pagecolor="#ffffff"
     bordercolor="#666666"
     borderopacity="1.0"
     inkscape:pageopacity="0.0"
     inkscape:pageshadow="2"
     inkscape:zoom="3.959798"
     inkscape:cx="68.78644"
     inkscape:cy="65.202937"
     inkscape:document-units="px"
     inkscape:current-layer="layer1"
     showgrid="false"
     inkscape:window-width="1366"
     inkscape:window-height="717"
     inkscape:window-x="0"
     inkscape:window-y="0"
     inkscape:window-maximized="1" />
  <metadata
     id="metadata6939">
    <rdf:RDF>
      <cc:Work
         rdf:about="">
        <dc:format>image/svg+xml</dc:format>
        <dc:type
           rdf:resource="http://purl.org/dc/dcmitype/StillImage" />
        <dc:title></dc:title>
      </cc:Work>
    </rdf:RDF>
  </metadata>
  <g
     inkscape:label="Capa 1"
     inkscape:groupmode="layer"
     id="layer1">
    <path
       style="fill:#ae00ff;fill-opacity:1;fill-rule:evenodd;stroke:none"
       d="m 34.21875,5.062503 c -1.32927,0.0554 -2.55056,0.27966 -3.65625,0.625 l -18.34375,2.71875 -0.5,0 0,0.1875 c -5.7155,1.04907 -8.65625,5.59198 -8.65625,11.15625 l 0,84.687497 c -0.0702,5.65226 2.0501,10.0952 6.3125,11.5 l 18.96875,5.9375 c 0.0209,0.0102 0.0415,0.0212 0.0625,0.0313 1.89272,0.90932 4.16442,1.2325 6.78125,0.8125 l 78.28125,-11.8125 c 5.72052,-0.61974 9.4668,-6.06393 9.15625,-13.625 l 0.40625,-74.281297 c 0.22248,-5.96534 -2.80168,-10.97622 -9.34375,-11.96875 l -77.84375,-5.9375 c -0.55631,-0.0273 -1.10307,-0.053 -1.625,-0.0313 z"
       id="path30949"
       inkscape:connector-curvature="0" />
    <path
       style="fill:url(#linearGradient3107);fill-rule:evenodd;stroke:none"
       d="M 29.25,16.718753 29.2187,113.125 c 0.4487,3.45828 1.40755,8.12456 4.34375,9.75 0.52713,-0.0229 1.0675,-0.0668 1.625,-0.15625 l 78.28125,-11.8125 c 5.72052,-0.61974 9.4668,-6.06393 9.15625,-13.625 l 0.40625,-74.281247 c 0.22245,-5.96534 -2.80168,-10.97622 -9.34375,-11.96875 L 37.6784,5.233693 c -3.97126,-0.42067 -8.41551,4.78057 -8.42845,11.48506 z M 30.15625,122.5 c 0.64796,0.17153 1.31467,0.32617 2.03125,0.375 z"
       id="path30953"
       inkscape:connector-curvature="0"
       sodipodi:nodetypes="ccccccccccccc" />
    <g
       id="g3087"
       transform="translate(40,0)">
      <path
         inkscape:connector-curvature="0"
         id="path3073"
         d="m -5.21875,5.312503 -22.5625,3.09375 -0.5,0 0,0.1875 c -5.715501,1.04907 -8.65625,5.59198 -8.65625,11.15625 l 0,25 26.1875,0 0,-28.03125 c 0.347051,-4.91678 2.274064,-9.96378 5.53125,-11.40625 z"
         style="fill:url(#linearGradient3092);fill-rule:evenodd;stroke:none;display:inline" />
      <path
         inkscape:connector-curvature="0"
         id="path3081"
         d="m -36.9375,68.406253 0,36.031247 c -0.07024,5.65226 2.050104,10.0952 6.3125,11.5 l 17.65625,6.03125 7.5,1.3125 c -3.710844,-1.04488 -4.81745,-6.34073 -5.3125,-10.15625 l 0,-44.718747 -26.15625,0 z"
         style="fill:url(#linearGradient3094);fill-rule:evenodd;stroke:none;display:inline" />
    </g>
    <path
       inkscape:connector-curvature="0"
       id="path30957"
       d="m 35.825012,5.0844328 c -1.734374,-0.0853 -3.26759,0.13333 -4.667303,0.50133 L 11.65504,8.5863028 C 5.9395447,9.6353728 2.9871862,14.190033 2.9871862,19.754303 l 0,84.678437 c -0.07024,5.65226 2.0718035,10.09707 6.3341998,11.50187 l 19.669357,6.16693 c 1.792241,0.74027 3.774988,1.0512 6.167512,0.6672 l 78.344065,-11.8352 c 5.72052,-0.6192 9.47847,-6.1072 9.16792,-13.66827 l 0.33339,-74.344027 c 0.22245,-5.96534 -2.79254,-10.84214 -9.33461,-11.83467 L 35.825018,5.0855028 z"
       style="fill:none;stroke:#344b63;stroke-width:2.667032;stroke-linecap:butt;stroke-linejoin:miter;stroke-miterlimit:4;stroke-opacity:1;stroke-dasharray:none;display:inline"
       sodipodi:nodetypes="ccccccccccccc" />
    <path
       inkscape:connector-curvature="0"
       id="path3792"
       d="m 75.579258,13.874676 c -1.394322,0.03561 -2.763695,0.120446 -4.106988,0.277885 -0.584613,16.617223 -1.172432,33.808644 -0.864629,33.963805 0.381776,0.19245 20.206889,-7.84234 39.093599,-15.499845 C 103.55411,22.018277 93.617311,14.866334 80.149441,13.967305 78.594009,13.863474 77.080833,13.836326 75.579258,13.874673 z M 67.921113,14.73921 C 53.192006,17.767369 42.177077,28.616303 38.122289,46.757813 49.93018,54.12684 60.914247,60.935679 61.15848,60.775601 61.544413,60.522645 64.939184,36.152131 67.921113,14.73921 z m 43.663777,21.428072 c -12.970769,6.899894 -25.307717,13.496403 -25.290406,13.801655 0.02243,0.39556 14.760556,11.909037 29.706186,23.558528 0.70871,-3.730273 1.05881,-7.617023 1.01904,-11.640322 -0.0931,-9.412063 -1.92818,-18.259403 -5.43482,-25.719861 z M 37.25766,51.358365 c -0.49342,3.297212 -0.777505,6.812911 -0.833751,10.528778 -0.161767,10.687103 1.69116,19.961966 5.126016,27.510681 C 54.760141,82.372033 67.413753,75.59764 67.39616,75.287408 67.373494,74.887677 52.364971,63.133096 37.25766,51.358365 z m 39.278867,3.056741 c -3.76156,0.09607 -6.468347,2.865478 -6.546478,8.027809 -0.08335,5.506486 3.029344,8.77637 7.318467,8.151313 3.666929,-0.534386 6.186723,-3.936615 6.145043,-8.151313 -0.04168,-4.214699 -2.169107,-7.762399 -6.145043,-8.027809 -0.259765,-0.01734 -0.521219,-0.0064 -0.771989,0 z M 92.532165,64.480743 C 92.152628,64.729505 88.871286,88.33163 85.923928,109.49822 100.05352,105.24709 110.63066,93.448188 114.91989,78.097141 103.4002,70.910183 92.771492,64.32388 92.532165,64.480743 z m -9.449162,12.659236 c -0.386667,-0.194917 -20.678881,8.004945 -39.77294,15.746853 7.575447,13.445158 20.811785,20.213038 36.839378,17.877308 0.706334,-0.10297 1.407828,-0.20137 2.099813,-0.33964 0.575849,-16.387328 1.136976,-33.131667 0.833749,-33.284521 z"
       style="fill:#000000;fill-opacity:0.12448132;stroke:#000000;stroke-width:5;stroke-linecap:round;stroke-linejoin:round;stroke-miterlimit:4;stroke-opacity:0.58506224;stroke-dasharray:none" />
    <path
       style="fill:#ffffff;fill-opacity:1;stroke:none"
       d="m 77.645087,13.874675 c -1.394321,0.03561 -2.763695,0.120447 -4.106988,0.277886 -0.584612,16.617221 -1.172431,33.808641 -0.86463,33.963802 0.381777,0.192451 20.20689,-7.842339 39.093601,-15.499844 -6.14713,-10.598244 -16.08393,-17.750186 -29.5518,-18.649215 -1.555433,-0.103831 -3.068607,-0.130978 -4.570183,-0.09263 z m -7.658144,0.864533 c -14.729107,3.02816 -25.744036,13.877093 -29.798825,32.018603 11.807891,7.369026 22.791959,14.177865 23.03619,14.017787 0.385935,-0.252955 3.780705,-24.623469 6.762635,-46.03639 z M 113.65072,36.16728 c -12.97077,6.899894 -25.307717,13.496402 -25.290408,13.801654 0.02244,0.39556 14.760568,11.909037 29.706188,23.558527 0.70871,-3.730273 1.05881,-7.617022 1.01903,-11.640321 -0.0931,-9.412063 -1.92817,-18.259401 -5.43481,-25.71986 z M 39.323489,51.358362 c -0.49342,3.297213 -0.777505,6.812911 -0.83375,10.528778 -0.161767,10.687102 1.691159,19.961964 5.126016,27.51068 C 56.82597,82.37203 69.479581,75.597637 69.46199,75.287404 69.439322,74.887674 54.4308,63.133093 39.323489,51.358362 z m 39.278866,3.056742 c -3.76156,0.09607 -6.468346,2.865477 -6.546478,8.027807 -0.08335,5.506487 3.029345,8.776371 7.318469,8.151313 3.666929,-0.534385 6.186722,-3.936614 6.145041,-8.151313 -0.04168,-4.214698 -2.169106,-7.762397 -6.145041,-8.027807 -0.259765,-0.01734 -0.52122,-0.0064 -0.771991,0 z M 94.597994,64.480739 C 94.218457,64.729502 90.937115,88.331626 87.989757,109.49821 102.11935,105.24709 112.69649,93.448183 116.98572,78.097137 105.46602,70.91018 94.837321,64.323877 94.597994,64.480739 z m -9.449161,12.659236 c -0.386667,-0.194916 -20.678882,8.004946 -39.772941,15.746853 7.575447,13.445162 20.811785,20.213042 36.839378,17.877302 0.706334,-0.10297 1.407829,-0.20137 2.099814,-0.33963 0.575847,-16.387333 1.136976,-33.131671 0.833749,-33.284525 z"
       id="path3014"
       inkscape:connector-curvature="0" />
  </g>
</svg>
