<?xml version="1.0" encoding="UTF-8" standalone="no"?>
<!-- Created with Inkscape (http://www.inkscape.org/) -->

<svg
   xmlns:dc="http://purl.org/dc/elements/1.1/"
   xmlns:cc="http://creativecommons.org/ns#"
   xmlns:rdf="http://www.w3.org/1999/02/22-rdf-syntax-ns#"
   xmlns:svg="http://www.w3.org/2000/svg"
   xmlns="http://www.w3.org/2000/svg"
   xmlns:xlink="http://www.w3.org/1999/xlink"
   xmlns:sodipodi="http://sodipodi.sourceforge.net/DTD/sodipodi-0.dtd"
   xmlns:inkscape="http://www.inkscape.org/namespaces/inkscape"
   width="128"
   height="128"
   id="svg6934"
   sodipodi:version="0.32"
   inkscape:version="0.48.3.1 r9886"
   version="1.0"
   sodipodi:docname="firefox.svg"
   inkscape:output_extension="org.inkscape.output.svg.inkscape">
  <defs
     id="defs6936">
    <linearGradient
       inkscape:collect="always"
       xlink:href="#linearGradient5316"
       id="linearGradient6899"
       gradientUnits="userSpaceOnUse"
       gradientTransform="matrix(1.0001366,0,0,1.0001366,-195.82932,269.25819)"
       x1="275.29071"
       y1="1103.7349"
       x2="275.29071"
       y2="1121.6162" />
    <linearGradient
       id="linearGradient5316">
      <stop
         style="stop-color:#aac736;stop-opacity:1;"
         offset="0"
         id="stop5320" />
      <stop
         style="stop-color:#5d8b2c;stop-opacity:1;"
         offset="1"
         id="stop5322" />
    </linearGradient>
    <linearGradient
       inkscape:collect="always"
       xlink:href="#linearGradient5165-7-9-8-2"
       id="linearGradient6896"
       gradientUnits="userSpaceOnUse"
       gradientTransform="matrix(1.0001366,0,0,1.0001366,-195.82932,269.25819)"
       x1="275.29071"
       y1="1094.0099"
       x2="275.29071"
       y2="1117.1519" />
    <linearGradient
       id="linearGradient5165-7-9-8-2">
      <stop
         id="stop5167-4-8-6-9"
         style="stop-color:#ffffff;stop-opacity:1"
         offset="0" />
      <stop
         id="stop5169-5-5-2-9"
         style="stop-color:#ffffff;stop-opacity:0"
         offset="1" />
    </linearGradient>
    <linearGradient
       inkscape:collect="always"
       xlink:href="#linearGradient5316"
       id="linearGradient6893"
       gradientUnits="userSpaceOnUse"
       gradientTransform="matrix(1.0001366,0,0,1.0001366,-195.82932,269.25819)"
       x1="280.65372"
       y1="1100.6647"
       x2="292.69617"
       y2="1118.8726" />
    <linearGradient
       inkscape:collect="always"
       xlink:href="#linearGradient5344"
       id="linearGradient6889"
       gradientUnits="userSpaceOnUse"
       gradientTransform="matrix(1.0001366,0,0,1.0001366,-195.82932,269.25819)"
       x1="322.44461"
       y1="1153.7257"
       x2="283.81964"
       y2="1103.8007" />
    <linearGradient
       id="linearGradient5344">
      <stop
         style="stop-color:#000000;stop-opacity:1;"
         offset="0"
         id="stop5346" />
      <stop
         style="stop-color:#000000;stop-opacity:0;"
         offset="1"
         id="stop5348" />
    </linearGradient>
    <linearGradient
       id="linearGradient5344-7">
      <stop
         style="stop-color:#000000;stop-opacity:1;"
         offset="0"
         id="stop5346-7" />
      <stop
         style="stop-color:#000000;stop-opacity:0;"
         offset="1"
         id="stop5348-0" />
    </linearGradient>
    <linearGradient
       inkscape:collect="always"
       xlink:href="#linearGradient5344"
       id="linearGradient3033"
       gradientUnits="userSpaceOnUse"
       gradientTransform="matrix(5.3340639,0,0,5.3340639,-1451.4802,-6004.5574)"
       x1="304.83249"
       y1="1139.1437"
       x2="283.81964"
       y2="1103.8007" />
    <linearGradient
       inkscape:collect="always"
       xlink:href="#linearGradient5316"
       id="linearGradient3036"
       gradientUnits="userSpaceOnUse"
       gradientTransform="matrix(5.3340639,0,0,5.3340639,-1451.4802,-5864.5574)"
       x1="280.65372"
       y1="1100.6647"
       x2="292.69617"
       y2="1118.8726" />
    <linearGradient
       inkscape:collect="always"
       xlink:href="#linearGradient5165-7-9-8-2"
       id="linearGradient3039"
       gradientUnits="userSpaceOnUse"
       gradientTransform="matrix(5.3340639,0,0,5.3340639,-1451.4802,-6004.5574)"
       x1="275.29071"
       y1="1094.0099"
       x2="275.29071"
       y2="1117.1519" />
    <linearGradient
       inkscape:collect="always"
       xlink:href="#linearGradient5316"
       id="linearGradient3042"
       gradientUnits="userSpaceOnUse"
       gradientTransform="matrix(5.3340639,0,0,5.3340639,-1451.4802,-5864.5574)"
       x1="275.29071"
       y1="1103.7349"
       x2="275.29071"
       y2="1121.6162" />
    <linearGradient
       inkscape:collect="always"
       xlink:href="#linearGradient5316"
       id="linearGradient3048"
       gradientUnits="userSpaceOnUse"
       gradientTransform="matrix(5.3340639,0,0,5.3340639,-1271.4802,-5864.5574)"
       x1="275.29071"
       y1="1103.7349"
       x2="275.29071"
       y2="1121.6162" />
    <linearGradient
       inkscape:collect="always"
       xlink:href="#linearGradient5316"
       id="linearGradient3050"
       gradientUnits="userSpaceOnUse"
       gradientTransform="matrix(5.3340639,0,0,5.3340639,-1271.4802,-5864.5574)"
       x1="280.65372"
       y1="1100.6647"
       x2="292.69617"
       y2="1118.8726" />
    <linearGradient
       inkscape:collect="always"
       xlink:href="#linearGradient5316"
       id="linearGradient3055"
       gradientUnits="userSpaceOnUse"
       gradientTransform="matrix(5.3340639,0,0,5.3340639,-1271.4802,-5864.5574)"
       x1="275.29071"
       y1="1103.7349"
       x2="275.29071"
       y2="1121.6162" />
    <linearGradient
       inkscape:collect="always"
       xlink:href="#linearGradient5344-7"
       id="linearGradient3058"
       x1="189.6268"
       y1="139.3264"
       x2="194.20161"
       y2="88.818764"
       gradientUnits="userSpaceOnUse"
       gradientTransform="translate(-180,-140)" />
    <linearGradient
       inkscape:collect="always"
       xlink:href="#linearGradient5316"
       id="linearGradient3065"
       gradientUnits="userSpaceOnUse"
       gradientTransform="matrix(5.3340639,0,0,5.3340639,-1451.4802,-5864.5574)"
       x1="280.65372"
       y1="1100.6647"
       x2="292.69617"
       y2="1118.8726" />
    <linearGradient
       inkscape:collect="always"
       xlink:href="#linearGradient5316"
       id="linearGradient3071"
       gradientUnits="userSpaceOnUse"
       gradientTransform="matrix(5.3340639,0,0,5.3340639,-1451.4802,-6004.5574)"
       x1="275.29071"
       y1="1103.7349"
       x2="275.29071"
       y2="1121.6162" />
    <linearGradient
       inkscape:collect="always"
       xlink:href="#linearGradient5165-7-9-8-2"
       id="linearGradient3103"
       x1="22.933788"
       y1="-144.76825"
       x2="18.618809"
       y2="-96.331688"
       gradientUnits="userSpaceOnUse"
       gradientTransform="translate(0,140)" />
    <linearGradient
       inkscape:collect="always"
       xlink:href="#linearGradient5344"
       id="linearGradient3105"
       x1="7.9531264"
       y1="2.2416961"
       x2="13.667412"
       y2="-64.464973"
       gradientUnits="userSpaceOnUse"
       gradientTransform="translate(0,140)" />
    <linearGradient
       inkscape:collect="always"
       xlink:href="#linearGradient5344"
       id="linearGradient3107"
       gradientUnits="userSpaceOnUse"
       gradientTransform="matrix(5.3340639,0,0,5.3340639,-1451.4802,-5864.5574)"
       x1="305.23422"
       y1="1137.0681"
       x2="283.35095"
       y2="1104.2024" />
  </defs>
  <sodipodi:namedview
     id="base"
     pagecolor="#ffffff"
     bordercolor="#666666"
     borderopacity="1.0"
     inkscape:pageopacity="0.0"
     inkscape:pageshadow="2"
     inkscape:zoom="1.4"
     inkscape:cx="80.784042"
     inkscape:cy="3.9701717"
     inkscape:document-units="px"
     inkscape:current-layer="layer1"
     showgrid="false"
     inkscape:window-width="1280"
     inkscape:window-height="713"
     inkscape:window-x="0"
     inkscape:window-y="0"
     inkscape:window-maximized="0" />
  <metadata
     id="metadata6939">
    <rdf:RDF>
      <cc:Work
         rdf:about="">
        <dc:format>image/svg+xml</dc:format>
        <dc:type
           rdf:resource="http://purl.org/dc/dcmitype/StillImage" />
        <dc:title />
      </cc:Work>
    </rdf:RDF>
  </metadata>
  <g
     inkscape:label="Capa 1"
     inkscape:groupmode="layer"
     id="layer1">
    <path
       style="fill:#ff761a;fill-opacity:1;fill-rule:evenodd;stroke:none"
       d="m 34.21875,5.0625 c -1.32927,0.0554 -2.550557,0.27966 -3.65625,0.625 l -18.34375,2.71875 -0.5,0 0,0.1875 C 6.0032494,9.64282 3.0625,14.18573 3.0625,19.75 l 0,84.6875 c -0.07024,5.65226 2.0501037,10.0952 6.3125,11.5 l 18.96875,5.9375 c 0.02087,0.0102 0.04153,0.0212 0.0625,0.0313 1.892721,0.90932 4.164425,1.2325 6.78125,0.8125 l 78.28125,-11.8125 c 5.72052,-0.61974 9.4668,-6.06393 9.15625,-13.625 L 123.03125,23 c 0.22248,-5.96534 -2.80168,-10.97622 -9.34375,-11.96875 L 35.84375,5.09375 c -0.55631,-0.0273 -1.103066,-0.053 -1.625,-0.0313 z"
       id="path30949"
       inkscape:connector-curvature="0" />
    <path
       style="fill:url(#linearGradient3107);fill-rule:evenodd;stroke:none"
       d="M 29.25,16.71875 29.21875,113.125 c 0.448699,3.45828 1.407546,8.12456 4.34375,9.75 0.527128,-0.0229 1.067503,-0.0668 1.625,-0.15625 l 78.28125,-11.8125 c 5.72052,-0.61974 9.4668,-6.06393 9.15625,-13.625 L 123.03125,23 C 123.2537,17.03466 120.22957,12.02378 113.6875,11.03125 L 37.678453,5.23369 C 33.707189,4.81302 29.262938,10.01426 29.25,16.71875 z M 30.15625,122.5 c 0.647964,0.17153 1.314675,0.32617 2.03125,0.375 z"
       id="path30953"
       inkscape:connector-curvature="0"
       sodipodi:nodetypes="ccccccccccccc" />
    <path
       inkscape:connector-curvature="0"
       d="m 100.18678,22.14573 c 8.3989,3.72005 11.5758,13.62624 11.5758,13.62624 0,0 0.32932,-2.73277 -1.46336,-7.93375 0.005,0 1.18904,0 3.86587,7.71 1.74669,4.96609 3.18884,18.03666 3.18884,18.03666 l 0.98285,-7.02177 c 0,0 3.89334,46.95565 -31.844349,61.63069 -2.696443,1.18187 -5.398061,2.06735 -8.081179,2.68506 -15.339834,3.96661 -30.133744,-2.46025 -38.942915,-21.45926 -4.358941,-9.69676 -5.415674,-18.8214 -5.198139,-26.02768 -0.916377,5.026 -1.135778,9.01647 -1.135778,9.01647 -0.482399,-10.12517 0.351591,-16.86274 1.397789,-21.19945 -1.422588,3.45548 -2.140401,6.50904 -2.140401,6.50904 1.009266,-7.73015 2.250343,-12.76993 3.47276,-16.11777 0.009,-0.37116 0.701727,-2.54031 2.118599,-5.09228 0.0052,-0.2227 0.01962,-0.42949 0.02174,-0.67392 -0.763937,-14.40462 4.324525,-19.28799 4.324525,-19.28799 0.133564,4.63894 2.52747,8.29431 4.062456,10.4343 0.787463,0.27041 1.467964,0.42948 1.987484,0.4772 2.514596,-0.63627 5.435075,-0.53818 8.780211,0.70626 3.784846,-5.95284 12.039598,-5.86111 11.357379,-5.42579 -1.313929,0.84147 -2.406145,1.88495 -3.297935,3.14105 -0.110393,0.18028 -0.231602,0.38706 -0.371423,0.61241 -0.447297,0.7105 -0.900184,1.64741 -1.31045,2.6893 -0.38505,1.09438 -0.664579,2.30065 -0.851759,3.61348 0.359175,1.07689 1.840978,4.94276 4.848747,5.01434 2.880659,0.0689 4.48968,0.13786 5.438437,0.26511 0.0059,0 0.01643,0 0.02174,5.3e-4 0.130913,0 0.287965,0.053 0.393162,0.0636 0.04083,0 0.09364,0 0.130966,0.053 0.07201,0 0.137486,0.053 0.1965,0.0583 0.05684,0 0.128474,0.053 0.174763,0.0583 0.06972,0.053 0.125981,0.053 0.174709,0.0848 0.02015,0 0.04825,0.053 0.06565,0.053 0.01643,0 0.03075,0.053 0.04348,0.0583 0.03022,0.053 0.04666,0.0689 0.06554,0.11135 0.02227,0.053 0.03181,0.10604 0.04348,0.16437 0.01909,0.0954 0.03818,0.20679 0.04348,0.32344 0.01484,0.33404 0.01591,0.63149 0,0.91516 -0.0019,0.053 0.0023,0.0742 0,0.10605 -0.01697,0.2386 -0.05249,0.4666 -0.08733,0.67073 -0.01113,0.0689 -0.03129,0.14846 -0.04348,0.21209 -0.03181,0.15377 -0.06919,0.31814 -0.109174,0.456 -0.352546,1.21951 -0.979824,1.77095 -1.288706,2.05356 -0.463364,0.42418 -6.757817,4.8998 -6.989196,6.21317 -0.0075,0.053 -0.02333,0.0689 -0.04348,0.0795 0.266331,0.97774 0.413681,2.06205 0.524074,3.10288 0.215377,1.19353 0.298304,2.17233 0.15297,2.44062 0.02174,0.76724 0.03765,1.46289 0.02174,1.97456 -1.503182,-0.94539 -2.920855,-1.50849 -4.695831,-1.71899 -1.436585,0.5965 -2.205973,2.6034 -2.205973,4.01857 0,1.80701 -0.02598,4.6294 4.586683,7.92421 5.406103,3.76354 8.936325,-0.31813 11.794162,-1.35737 4.052308,-1.45123 7.044234,0.77519 8.277839,2.42472 1.232046,1.63521 0.188601,3.59439 -1.397837,3.25505 -1.58718,-0.33935 -3.367898,1.58166 -6.355779,4.26035 -2.960616,2.69143 -8.072169,4.12993 -12.88633,2.99047 5.998158,4.62727 20.803626,17.05893 33.242203,-6.59865 2.083487,-4.55728 -0.946314,7.13312 -0.611534,6.86217 4.29488,-3.44752 5.21033,-14.8113 4.34648,-21.91684 2.69709,1.33935 2.85973,4.57478 3.0359,3.9629 1.36912,-4.74339 1.74334,-14.19783 0.30599,-19.20739 2.1862,0.75557 3.9532,4.94646 3.95325,4.94646 -3.29685,-18.41099 -19.416037,-21.64324 -19.220199,-21.69786 4.329774,-1.19778 8.670842,-0.9088 8.670842,-0.9088 -1.816376,-3.03607 -12.040346,-5.87277 -12.078051,-5.9311 -0.01591,0 0.686943,-0.18028 2.096743,-0.12195 2.924396,3.367166 2.11868,1.93573 0.960948,0.053 l -3.72e-4,-0.002 3.74e-4,-0.0066 c 2.482008,0.23734 6.464065,1.10584 11.903805,3.58836 z"
       id="path30951"
       style="fill:#000000;fill-opacity:1;stroke:#000000;stroke-width:5.30297279000000010;stroke-linejoin:round;stroke-opacity:0.61410791;overflow:visible"
       sodipodi:nodetypes="cccccccccccccccccccccccccccccccccsccccccccccccccccscccccccccccccccccccc" />
    <path
       inkscape:connector-curvature="0"
       style="fill:#ffffff;fill-opacity:1;stroke:none;overflow:visible"
       id="path30955"
       d="m 89.756512,18.5508 c 2.481641,0.24391 6.463694,1.11241 11.903428,3.59493 8.3989,3.72005 11.5758,13.62624 11.5758,13.62624 0,0 0.32933,-2.73277 -1.46335,-7.93375 0.005,0 1.18903,0 3.86587,7.71 1.7467,4.96609 3.18883,18.03666 3.18883,18.03666 0,0 0.98286,-7.02177 0.98286,-7.02177 0,0 3.89333,46.95565 -31.844358,61.63069 -2.6965,1.18187 -5.39816,2.06735 -8.081279,2.68506 C 64.54448,114.84547 49.750566,108.41861 40.941394,89.4196 36.58246,79.72284 35.525726,70.5982 35.74326,63.39192 c -0.916377,5.026 -1.135781,9.01647 -1.135781,9.01647 -0.482401,-10.12517 0.351589,-16.86274 1.397795,-21.19945 -1.422589,3.45548 -2.140411,6.50904 -2.140411,6.50904 1.009273,-7.73015 2.250347,-12.76993 3.472769,-16.11777 0.0089,-0.37116 0.701726,-2.54031 2.118599,-5.09228 0.005,-0.2227 0.01958,-0.42949 0.02177,-0.67392 -0.763951,-14.40462 4.324515,-19.28799 4.324515,-19.28799 0.133567,4.63894 2.527472,8.29431 4.062462,10.4343 0.787453,0.27041 1.467963,0.42948 1.987477,0.4772 2.514597,-0.63627 5.435085,-0.53818 8.780212,0.70626 3.78485,-5.95284 12.039603,-5.86111 11.357382,-5.42579 -1.313926,0.84147 -2.406142,1.88495 -3.297934,3.14105 -0.110393,0.18028 -0.231602,0.38706 -0.371422,0.61241 -0.447298,0.7105 -0.900183,1.64741 -1.310447,2.6893 -0.385053,1.09438 -0.664584,2.30065 -0.851766,3.61348 0.359174,1.07689 1.840976,4.94276 4.848752,5.01434 2.88066,0.0689 4.489677,0.13786 5.438434,0.26511 0.006,0 0.0164,0 0.02177,5.3e-4 0.130912,0 0.287971,0.053 0.393165,0.0636 0.04086,0 0.09365,0 0.130962,0.053 0.07198,0 0.137494,0.053 0.196557,0.0583 0.05687,0 0.128467,0.053 0.174706,0.0583 0.06969,0.053 0.125981,0.053 0.174706,0.0848 0.02018,0 0.04822,0.053 0.06561,0.053 0.0164,0 0.03072,0.053 0.04345,0.0583 0.03022,0.053 0.04663,0.0689 0.06552,0.11135 0.02227,0.053 0.03181,0.10604 0.04345,0.16437 0.01909,0.0954 0.03818,0.20679 0.04345,0.32344 0.01481,0.33404 0.01591,0.63149 0,0.91516 -0.002,0.053 0.002,0.0742 0,0.10605 -0.017,0.2386 -0.05249,0.4666 -0.08729,0.67073 -0.01113,0.0689 -0.03132,0.14846 -0.04345,0.21209 -0.03181,0.15377 -0.06919,0.31814 -0.10917,0.456 -0.352543,1.21951 -0.979825,1.77095 -1.288704,2.05356 -0.463363,0.42418 -6.757819,4.8998 -6.989193,6.21317 -0.008,0.053 -0.02336,0.0689 -0.04344,0.0795 0.266329,0.97774 0.413675,2.06205 0.524067,3.10288 0.215378,1.19353 0.298311,2.17233 0.152974,2.44062 0.02177,0.76724 0.03768,1.46289 0.02177,1.97456 -1.503177,-0.94539 -2.920855,-1.50849 -4.695829,-1.71899 -1.436587,0.5965 -2.205976,2.6034 -2.205976,4.01857 0,1.80701 -0.02595,4.6294 4.586688,7.92421 5.406105,3.76354 8.936327,-0.31813 11.794162,-1.35737 4.052301,-1.45123 7.04423,0.77519 8.277897,2.42472 1.232086,1.63521 0.188763,3.59439 -1.397895,3.25505 -1.587184,-0.33935 -3.367904,1.58166 -6.355786,4.26035 -2.960612,2.69143 -8.072163,4.12993 -12.886328,2.99047 5.998153,4.62727 20.803709,17.05893 33.242312,-6.59865 2.083489,-4.55728 -0.946312,7.13312 -0.611535,6.86217 4.294874,-3.44752 5.210334,-14.8113 4.346474,-21.91684 2.69709,1.33935 2.85973,4.57478 3.0359,3.9629 1.36912,-4.74339 1.74336,-14.19783 0.30599,-19.20739 2.18621,0.75557 3.95321,4.94646 3.95326,4.94646 -3.29685,-18.41099 -19.416043,-21.64324 -19.220201,-21.69786 4.329775,-1.19778 8.670843,-0.9088 8.670843,-0.9088 -1.81638,-3.03607 -12.040358,-5.87277 -12.078057,-5.9311 -0.01591,0 0.686943,-0.18028 2.096747,-0.12195 0.293798,0 0.606385,0 0.960946,0.053 0,0 -3.68e-4,-0.002 -3.68e-4,-0.002 0,0 0,0 0,0" />
    <path
       style="fill:url(#linearGradient3103);fill-rule:evenodd;stroke:none;display:inline"
       d="m 34.78125,5.3125 -22.5625,3.09375 -0.5,0 0,0.1875 C 6.003249,9.64282 3.0625,14.18573 3.0625,19.75 l 0,25 26.1875,0 0,-28.03125 C 29.597051,11.80197 31.524064,6.75497 34.78125,5.3125 z"
       id="path3073"
       inkscape:connector-curvature="0" />
    <path
       style="fill:url(#linearGradient3105);fill-rule:evenodd;stroke:none;display:inline"
       d="m 3.0625,68.40625 0,36.03125 c -0.07024,5.65226 2.050104,10.0952 6.3125,11.5 l 17.65625,6.03125 7.5,1.3125 c -3.710844,-1.04488 -4.81745,-6.34073 -5.3125,-10.15625 l 0,-44.71875 -26.15625,0 z"
       id="path3081"
       inkscape:connector-curvature="0" />
    <path
       inkscape:connector-curvature="0"
       id="path30957"
       d="m 35.825012,5.08443 c -1.734374,-0.0853 -3.26759,0.13333 -4.667303,0.50133 L 11.65504,8.5863 C 5.9395447,9.63537 2.9871862,14.19003 2.9871862,19.7543 l 0,84.67844 c -0.07024,5.65226 2.0718035,10.09707 6.3341998,11.50187 l 19.669357,6.16693 c 1.792241,0.74027 3.774988,1.0512 6.167512,0.6672 l 78.344065,-11.8352 c 5.72052,-0.6192 9.47847,-6.1072 9.16792,-13.66827 l 0.33339,-74.34403 C 123.22608,16.9559 120.21109,12.0791 113.66902,11.08657 L 35.825018,5.0855 z"
       style="fill:none;stroke:#344b63;stroke-width:2.667032;stroke-linecap:butt;stroke-linejoin:miter;stroke-miterlimit:4;stroke-opacity:1;stroke-dasharray:none;display:inline"
       sodipodi:nodetypes="ccccccccccccc" />
  </g>
</svg>
