<?xml version="1.0" encoding="UTF-8" standalone="no"?>
<!-- Created with Inkscape (http://www.inkscape.org/) -->

<svg
   xmlns:dc="http://purl.org/dc/elements/1.1/"
   xmlns:cc="http://creativecommons.org/ns#"
   xmlns:rdf="http://www.w3.org/1999/02/22-rdf-syntax-ns#"
   xmlns:svg="http://www.w3.org/2000/svg"
   xmlns="http://www.w3.org/2000/svg"
   xmlns:xlink="http://www.w3.org/1999/xlink"
   xmlns:sodipodi="http://sodipodi.sourceforge.net/DTD/sodipodi-0.dtd"
   xmlns:inkscape="http://www.inkscape.org/namespaces/inkscape"
   width="128"
   height="128"
   id="svg6934"
   sodipodi:version="0.32"
   inkscape:version="0.91 r13725"
   version="1.0"
   sodipodi:docname="app gambas.svg"
   inkscape:output_extension="org.inkscape.output.svg.inkscape">
  <defs
     id="defs6936">
    <inkscape:path-effect
       effect="envelope"
       id="path-effect4864"
       is_visible="true"
       yy="true"
       xx="true"
       bendpath1="m 34.724566,13.018964 85.059714,6.05852"
       bendpath2="m 119.78428,13.018964 0,89.178366"
       bendpath3="M 34.724566,114.86515 119.78428,104.12504"
       bendpath4="m 34.724566,13.018964 0,102.947736"
       bendpath1-nodetypes="cc"
       bendpath2-nodetypes="cc"
       bendpath3-nodetypes="cc"
       bendpath4-nodetypes="cc" />
    <linearGradient
       inkscape:collect="always"
       id="linearGradient4679">
      <stop
         style="stop-color:#3398c3;stop-opacity:1;"
         offset="0"
         id="stop4681" />
      <stop
         style="stop-color:#74bcdb;stop-opacity:1"
         offset="1"
         id="stop4683" />
    </linearGradient>
    <inkscape:path-effect
       effect="skeletal"
       id="path-effect3013"
       is_visible="true"
       pattern="M 0,5 10,10 10,0 z"
       copytype="single_stretched"
       prop_scale="1"
       scale_y_rel="false"
       spacing="0"
       normal_offset="0"
       tang_offset="0"
       prop_units="false"
       vertical_pattern="false"
       fuse_tolerance="0" />
    <linearGradient
       id="linearGradient5344">
      <stop
         style="stop-color:#000000;stop-opacity:1;"
         offset="0"
         id="stop5346" />
      <stop
         style="stop-color:#000000;stop-opacity:0;"
         offset="1"
         id="stop5348" />
    </linearGradient>
    <linearGradient
       id="linearGradient5165-7-9-8-2">
      <stop
         id="stop5167-4-8-6-9"
         style="stop-color:#ffffff;stop-opacity:1"
         offset="0" />
      <stop
         id="stop5169-5-5-2-9"
         style="stop-color:#ffffff;stop-opacity:0"
         offset="1" />
    </linearGradient>
    <linearGradient
       inkscape:collect="always"
       xlink:href="#linearGradient5344"
       id="linearGradient3107"
       gradientUnits="userSpaceOnUse"
       gradientTransform="matrix(5.3340639,0,0,5.3340639,-1451.4802,-5864.5574)"
       x1="305.23422"
       y1="1137.0681"
       x2="283.35095"
       y2="1104.2024" />
    <linearGradient
       inkscape:collect="always"
       xlink:href="#linearGradient5165-7-9-8-2"
       id="linearGradient3092"
       gradientUnits="userSpaceOnUse"
       gradientTransform="translate(-40,140)"
       x1="22.933788"
       y1="-144.76825"
       x2="18.618809"
       y2="-96.331688" />
    <linearGradient
       inkscape:collect="always"
       xlink:href="#linearGradient5344"
       id="linearGradient3094"
       gradientUnits="userSpaceOnUse"
       gradientTransform="translate(-40,140)"
       x1="7.9531264"
       y1="2.2416961"
       x2="13.667412"
       y2="-64.464973" />
    <linearGradient
       id="linearGradient5316-39">
      <stop
         style="stop-color:#87c7ff;stop-opacity:1;"
         offset="0"
         id="stop5320-84" />
      <stop
         style="stop-color:#74aadb;stop-opacity:1;"
         offset="1"
         id="stop5322-5" />
    </linearGradient>
    <linearGradient
       y2="157.17104"
       x2="223.35713"
       y1="179.13533"
       x1="221.64285"
       gradientUnits="userSpaceOnUse"
       id="linearGradient4248"
       xlink:href="#linearGradient3602"
       inkscape:collect="always" />
    <linearGradient
       y2="137.41652"
       x2="232.33508"
       y1="137.41652"
       x1="203.04065"
       gradientUnits="userSpaceOnUse"
       id="linearGradient4246"
       xlink:href="#linearGradient3428"
       inkscape:collect="always" />
    <linearGradient
       id="linearGradient3602">
      <stop
         id="stop3604"
         offset="0"
         style="stop-color:#ff0d00;stop-opacity:1;" />
      <stop
         style="stop-color:#ff0c00;stop-opacity:1;"
         offset="0.5"
         id="stop3610" />
      <stop
         id="stop3606"
         offset="1"
         style="stop-color:#f1d3d3;stop-opacity:1;" />
    </linearGradient>
    <linearGradient
       id="linearGradient3428"
       inkscape:collect="always">
      <stop
         id="stop3430"
         offset="0"
         style="stop-color:#00ffff;stop-opacity:1;" />
      <stop
         id="stop3432"
         offset="1"
         style="stop-color:#00ffff;stop-opacity:0;" />
    </linearGradient>
    <inkscape:perspective
       id="perspective4434"
       inkscape:persp3d-origin="372.04724 : 350.78739 : 1"
       inkscape:vp_z="744.09448 : 526.18109 : 1"
       inkscape:vp_y="0 : 1000 : 0"
       inkscape:vp_x="0 : 526.18109 : 1"
       sodipodi:type="inkscape:persp3d" />
    <linearGradient
       inkscape:collect="always"
       xlink:href="#linearGradient4679"
       id="linearGradient4685"
       x1="100.09029"
       y1="85.159798"
       x2="8.5680408"
       y2="6.8790598"
       gradientUnits="userSpaceOnUse" />
  </defs>
  <sodipodi:namedview
     id="base"
     pagecolor="#ffffff"
     bordercolor="#666666"
     borderopacity="1.0"
     inkscape:pageopacity="0.0"
     inkscape:pageshadow="2"
     inkscape:zoom="2.5676815"
     inkscape:cx="108.32061"
     inkscape:cy="82.88132"
     inkscape:document-units="px"
     inkscape:current-layer="layer1"
     showgrid="false"
     inkscape:window-width="1600"
     inkscape:window-height="852"
     inkscape:window-x="0"
     inkscape:window-y="0"
     inkscape:window-maximized="1"
     showguides="true"
     inkscape:guide-bbox="true" />
  <metadata
     id="metadata6939">
    <rdf:RDF>
      <cc:Work
         rdf:about="">
        <dc:format>image/svg+xml</dc:format>
        <dc:type
           rdf:resource="http://purl.org/dc/dcmitype/StillImage" />
        <dc:title></dc:title>
      </cc:Work>
    </rdf:RDF>
  </metadata>
  <g
     inkscape:label="Capa 1"
     inkscape:groupmode="layer"
     id="layer1">
    <path
       style="fill:url(#linearGradient4685);fill-opacity:1;fill-rule:evenodd;stroke:none"
       d="m 34.21875,5.0624987 c -1.32927,0.0554 -2.550557,0.27966 -3.65625,0.625 l -18.34375,2.71875 -0.5,0 0,0.1875 C 6.0032494,9.6428187 3.0625,14.185729 3.0625,19.749999 l 0,84.687501 c -0.07024,5.65226 2.0501037,10.0952 6.3125,11.5 l 18.96875,5.9375 c 0.02087,0.0102 0.04153,0.0212 0.0625,0.0313 1.892721,0.90932 4.164425,1.2325 6.78125,0.8125 l 78.28125,-11.8125 c 5.72052,-0.61974 9.4668,-6.06393 9.15625,-13.625004 l 0.40625,-74.281297 c 0.22248,-5.96534 -2.80168,-10.97622 -9.34375,-11.96875 L 35.84375,5.0937487 c -0.55631,-0.0273 -1.103066,-0.053 -1.625,-0.0313 z"
       id="path30949"
       inkscape:connector-curvature="0" />
    <path
       style="fill:url(#linearGradient3107);fill-rule:evenodd;stroke:none"
       d="M 29.25,16.71875 29.2187,113.125 c 0.4487,3.45828 1.40755,8.12456 4.34375,9.75 0.52713,-0.0229 1.0675,-0.0668 1.625,-0.15625 l 78.28125,-11.8125 c 5.72052,-0.61974 9.4668,-6.06393 9.15625,-13.625 L 123.0312,23 c 0.22245,-5.96534 -2.80168,-10.97622 -9.34375,-11.96875 L 37.6784,5.23369 C 33.70714,4.81302 29.26289,10.01426 29.24995,16.71875 Z M 30.15625,122.5 c 0.64796,0.17153 1.31467,0.32617 2.03125,0.375 z"
       id="path30953"
       inkscape:connector-curvature="0"
       sodipodi:nodetypes="ccccccccccccc" />
    <g
       id="g3087"
       transform="translate(40,0)">
      <path
         inkscape:connector-curvature="0"
         id="path3073"
         d="m -5.21875,5.312503 -22.5625,3.09375 -0.5,0 0,0.1875 c -5.715501,1.04907 -8.65625,5.59198 -8.65625,11.15625 l 0,25 26.1875,0 0,-28.03125 c 0.347051,-4.91678 2.274064,-9.96378 5.53125,-11.40625 z"
         style="fill:url(#linearGradient3092);fill-rule:evenodd;stroke:none;display:inline" />
      <path
         inkscape:connector-curvature="0"
         id="path3081"
         d="m -36.9375,68.406253 0,36.031247 c -0.07024,5.65226 2.050104,10.0952 6.3125,11.5 l 17.65625,6.03125 7.5,1.3125 c -3.710844,-1.04488 -4.81745,-6.34073 -5.3125,-10.15625 l 0,-44.718747 -26.15625,0 z"
         style="fill:url(#linearGradient3094);fill-rule:evenodd;stroke:none;display:inline" />
    </g>
    <path
       inkscape:connector-curvature="0"
       id="path30957"
       d="m 35.825012,5.084433 c -1.734374,-0.0853 -3.26759,0.13333 -4.667303,0.50133 L 11.65504,8.586303 c -5.7154953,1.04907 -8.6678538,5.60373 -8.6678538,11.168 l 0,84.678437 c -0.07024,5.65226 2.0718035,10.09707 6.3341998,11.50187 l 19.669357,6.16693 c 1.792241,0.74027 3.774988,1.0512 6.167512,0.6672 l 78.344065,-11.8352 c 5.72052,-0.6192 9.47847,-6.1072 9.16792,-13.66827 l 0.33339,-74.34403 c 0.22245,-5.965337 -2.79254,-10.842137 -9.33461,-11.834667 L 35.825018,5.085503 Z"
       style="display:inline;fill:none;stroke:#344b63;stroke-width:2.667032;stroke-linecap:butt;stroke-linejoin:miter;stroke-miterlimit:4;stroke-dasharray:none;stroke-opacity:1"
       sodipodi:nodetypes="ccccccccccccc" />
    <path
       id="path4867"
       d="m 50.430287,14.052289 c -1.047061,0.268349 -5.232748,2.238232 -3.615011,1.963165 0.691236,-0.113529 1.153869,-0.105027 1.845093,-0.03841 4.775182,1.822394 9.888162,3.620442 14.453317,4.888764 5.196075,1.441194 10.20006,2.566926 14.862967,2.502988 3.068046,-0.101125 6.147062,-0.913397 9.143269,-1.732471 2.454161,-0.66518 4.737512,-1.773803 7.067243,-2.80778 -2.029344,0.137614 -3.846968,1.232873 -7.393389,2.09491 -2.888439,0.624883 -5.053647,0.840854 -7.622887,0.871897 -5.26873,-0.316811 -10.465882,-1.379261 -15.242802,-2.817595 -4.056416,-0.576426 -9.915381,-4.669289 -13.4978,-4.925466 z m 51.143783,3.784705 c -4.420509,1.057457 -8.43818,4.017963 -11.52091,7.431879 -3.075086,3.405451 -5.036883,7.047357 -5.789852,9.026374 -0.01615,0.04245 -0.02099,0.0681 -0.03593,0.108787 -0.27742,-0.136842 -0.561904,-0.260517 -0.852415,-0.370539 -1.097741,-0.414513 -2.272028,-0.630616 -3.462261,-0.631912 -2.834338,-0.0028 -5.565308,1.210709 -7.442741,3.414628 -0.479423,-0.253142 -0.877862,-0.653063 -0.966335,-1.036887 0.04842,1.325098 0.135553,1.567466 0.408037,1.762369 -0.162803,0.234759 -0.31543,0.476834 -0.457466,0.72558 -0.287257,0.208144 -0.367417,0.191351 -1.570835,-0.477298 0.268267,0.583817 0.661456,1.479986 0.968241,1.712421 -0.327478,0.812909 -0.547466,1.668024 -0.654959,2.54196 -3.931407,1.824652 -7.079511,4.685172 -8.090715,8.891996 -2.421236,10.072895 2.572448,16.081933 8.646357,18.416637 1.180149,-3.143241 3.22431,-7.198552 4.788076,-8.044534 0.760784,-0.411574 1.518189,-0.723654 2.250477,-0.955273 -0.30941,-0.378727 -0.596124,-0.769462 -0.855332,-1.166401 -9.7e-4,-0.0019 -0.0023,-0.0034 -0.0038,-0.0052 -0.106997,-0.164035 -0.206214,-0.329687 -0.303309,-0.495205 -0.05459,-0.09357 -0.106957,-0.18704 -0.158192,-0.280859 -0.07387,-0.13449 -0.148272,-0.269124 -0.214905,-0.403676 -0.109388,-0.222398 -0.209806,-0.444705 -0.297975,-0.665398 -0.07562,-0.187874 -0.144263,-0.375013 -0.203195,-0.560126 -0.05423,-0.170329 -0.09776,-0.337829 -0.136915,-0.504666 -0.01112,-0.04754 -0.02222,-0.09488 -0.03208,-0.142068 -0.03575,-0.170554 -0.06631,-0.339882 -0.08484,-0.505216 -1.280717,-0.433756 -2.486801,-1.110032 -3.387776,-2.074854 -0.368541,-0.576255 0.376625,-0.722125 0.765099,-0.90125 0.44482,1.168881 1.73529,1.697364 2.811072,2.219215 1.799363,0.693871 3.68321,1.220757 5.670004,1.384557 1.921915,0.180761 3.86979,0.294593 5.835536,0.323324 3.500805,-0.156782 6.699358,-1.614107 9.989344,-3.01232 0.491845,-0.299214 -0.415628,0.474832 0.43244,0.0035 0.318272,-0.28205 1.593425,-1.017256 1.555335,-0.71986 -2.550641,1.666054 -5.484924,2.625493 -8.349282,3.505295 -0.100658,0.0289 -0.202106,0.05186 -0.303043,0.07895 1.30093,-0.245774 2.561872,-0.609006 3.736111,-1.126806 -3.018578,7.522455 -5.509381,7.718129 -8.152767,8.797164 -0.147118,0.06005 -0.29776,0.107548 -0.450056,0.148215 -0.03937,0.01055 -0.07952,0.01864 -0.119208,0.02792 -0.114846,0.02677 -0.230479,0.04851 -0.347737,0.06498 -0.04604,0.0065 -0.09202,0.01271 -0.138422,0.01756 -0.122906,0.01303 -0.247406,0.02022 -0.372438,0.02273 -0.03515,6.32e-4 -0.07011,0.0036 -0.105388,0.0034 -0.163299,-6.11e-4 -0.327613,-0.0085 -0.493637,-0.02601 -0.116549,1.181693 -0.434081,2.450963 -0.836537,3.699916 7.827199,-3.223823 17.341994,-10.062104 24.305094,-17.867063 7.09966,-7.958037 11.0491,-16.329647 9.15379,-23.179806 -1.09532,3.083803 -2.41396,5.208356 -4.02893,6.685286 0.22065,-0.801129 0.20393,-1.64368 -0.0942,-2.543891 -1.55949,1.512094 -3.11809,3.02849 -4.67805,4.553576 0.30427,-0.732639 0.486,-1.486299 0.2739,-2.330808 -1.4985,1.173752 -2.98703,2.340653 -4.48299,3.51678 0.733,-0.835008 1.12401,-1.776663 1.03524,-2.959427 0.022,0.03269 -9.111821,7.225742 -15.718285,6.062627 -0.330006,-1.092603 -0.862802,-2.106497 -1.569286,-2.99718 0.618303,0.08244 1.19587,0.184709 1.696306,0.318193 2.912318,0.776801 6.448476,-0.277626 9.491265,-1.688908 0.0117,-0.0054 0.0248,-0.01245 0.0366,-0.01789 0.40002,-0.185496 0.78823,-0.377653 1.16771,-0.571787 0.15864,-0.08141 0.30985,-0.162118 0.46433,-0.244256 0.29159,-0.154593 0.57419,-0.308343 0.84921,-0.463348 0.0657,-0.03705 0.1386,-0.07409 0.20322,-0.111029 0,4.3e-5 7e-5,-0.0041 7e-5,-0.0041 0.10895,-0.06227 0.22435,-0.124831 0.33029,-0.186729 1.76746,-1.367071 3.6174,-3.008729 4.17721,-4.260375 1.16857,-2.612782 2.38771,-7.624231 0.96379,-9.367663 -0.0701,-0.08575 -0.14781,-0.127806 -0.23277,-0.132635 -0.86282,-0.04903 -2.20153,3.368323 -2.26565,3.700708 -0.12144,0.629598 -1.86872,-0.550571 -2.47507,-0.122989 -1.13853,0.802861 -0.25041,2.464177 -0.65819,2.438638 -0.55544,-0.03478 -0.66675,-0.838323 -1.22639,-0.741105 -1.54057,1.066931 -2.452213,2.325134 -3.16356,3.572 -0.402775,-0.07908 -0.801333,-0.168344 -1.173017,-0.293615 -0.541365,-0.182459 -0.390132,-1.407488 -0.161297,-1.893736 0.277266,-0.589171 1.528326,-0.242318 1.899685,-0.80108 0.422581,-0.635815 -0.208718,-1.652966 0.372922,-2.202339 0.369207,-0.348711 0.823317,0.125163 1.185547,-0.229901 1.14772,-1.125003 3.09585,-5.964182 2.65681,-5.859157 0,0 -7e-5,4e-6 -7e-5,4e-6 z M 71.503617,35.779323 c -0.0036,-0.09736 -0.0093,-0.159028 -0.01244,-0.269708 -0.01813,0.08693 -0.0087,0.178087 0.01244,0.269708 z M 63.754658,24.24563 c -3.981786,1.07256 -4.226369,2.625166 -7.258635,3.678439 -1.576162,0.535386 -3.155563,1.106542 -4.75155,1.51184 -2.097972,0.374077 -4.529452,0.196283 -6.494784,0.02076 -1.509145,-0.161017 -2.810451,-0.892068 -4.056434,-1.532597 -1.219214,-0.632295 -2.267293,-1.132117 -3.519044,-1.265768 -0.801149,-0.276929 -2.198625,-0.06222 -3.596899,0.363315 -1.981503,0.932058 -3.580807,1.874394 0.902747,1.747839 2.082652,0.165671 4.378573,1.322827 6.096054,2.174807 2.75433,1.029092 5.439175,1.068188 8.003417,0.619161 2.982278,-0.615798 5.529601,-1.52229 8.294577,-2.836164 3.060213,-1.469072 2.926814,-2.683549 6.380551,-4.481631 z M 79.92846,35.591793 c 1.484639,-0.0051 2.944208,0.307632 4.252762,0.903704 0,0 9.3e-4,-1.7e-5 9.3e-4,-1.7e-5 0,0 0.002,8.22e-4 0.002,8.22e-4 0,0 0.0028,0.0018 0.0028,0.0018 0.161134,0.07409 0.319702,0.152386 0.475488,0.23476 0,0 9.07e-4,8.39e-4 9.07e-4,8.39e-4 1.438752,0.751708 2.618606,1.837231 3.40721,3.149032 0.08207,0.139083 0.15962,0.280408 0.232531,0.423824 0.01397,0.02766 0.02776,0.0554 0.04138,0.08321 0.03997,0.07645 0.07862,0.153499 0.115906,0.231122 0.0658,0.145184 0.126931,0.292222 0.183289,0.44096 0.02977,0.0767 0.05828,0.153865 0.08549,0.231451 0.0141,0.03764 0.02789,0.07537 0.04137,0.113214 0.04659,0.144796 0.08871,0.290936 0.126333,0.438272 0.02164,0.08176 0.04188,0.163885 0.06071,0.246351 0.01032,0.04099 0.0203,0.08206 0.02993,0.123217 0.02984,0.1489 0.05513,0.298768 0.0758,0.449455 0.01933,0.123703 0.03555,0.247969 0.04864,0.372715 0.02157,0.215814 0.03376,0.432894 0.03653,0.6508 0.0014,0.03237 0.0024,0.06477 0.0034,0.09718 -0.0087,0.538493 -0.07492,1.078958 -0.197944,1.614502 0.0081,-0.03065 0.01593,-0.0613 0.02367,-0.092 -0.157933,0.763383 -0.42988,1.512625 -0.808713,2.227404 -0.414987,0.134325 -0.826896,0.274882 -1.234656,0.421881 0,0 -9.93e-4,5e-5 -9.93e-4,5e-5 -0.405766,0.146291 -0.808318,0.301257 -1.208361,0.463783 -0.0076,0.0032 -0.01371,0.0058 -0.0213,0.009 -0.0183,0.0075 -0.03783,0.01628 -0.05613,0.02374 0,0 -9.92e-4,9.43e-4 -9.92e-4,9.43e-4 -0.148981,0.06103 -0.296545,0.128618 -0.444934,0.192333 -0.221133,0.09496 -0.442965,0.186462 -0.662755,0.287722 -0.02322,0.01081 -0.04435,0.02135 -0.06758,0.03215 -0.0088,0.0042 -0.01632,0.0084 -0.0251,0.01259 -0.159964,0.07446 -0.31906,0.157611 -0.478557,0.235969 -0.03371,0.01658 -0.06752,0.03394 -0.101243,0.05045 -0.178865,0.08885 -0.358427,0.17223 -0.536692,0.265982 -0.01396,0.0074 -0.02648,0.01556 -0.04044,0.02299 -0.197585,0.104422 -0.39463,0.220697 -0.59185,0.332098 -0.0101,0.0056 -0.01779,0.0098 -0.02789,0.01538 -0.187516,0.105471 -0.374987,0.207642 -0.562213,0.320387 0,0 -9.82e-4,4.4e-5 -9.82e-4,4.4e-5 -0.162601,0.09779 -0.325089,0.207946 -0.487679,0.311111 -0.228531,0.145097 -0.456896,0.285556 -0.685455,0.441639 -0.116187,0.07927 -0.233222,0.169154 -0.349527,0.25154 -0.276117,0.195568 -0.551345,0.390352 -0.828112,0.603727 -0.388327,0.299391 -0.777963,0.617161 -1.168621,0.954812 -0.589945,-0.04395 -1.17083,-0.145039 -1.735602,-0.302354 0,0 -0.002,-8.37e-4 -0.002,-8.37e-4 -0.0196,-0.0042 -0.03918,-0.0085 -0.05873,-0.01287 -0.01486,-0.0048 -0.0297,-0.0095 -0.04452,-0.01436 0,0 -0.0037,-0.0017 -0.0037,-0.0017 -0.219543,-0.06234 -0.436327,-0.133116 -0.649959,-0.212209 -0.06521,-0.02161 -0.130097,-0.04396 -0.19467,-0.06704 -0.128913,-0.05005 -0.256408,-0.103046 -0.382391,-0.158927 0.07136,0.02909 0.143108,0.05725 0.215236,0.08445 -1.1176,-0.462656 -2.110846,-1.1439 -2.924704,-2.002813 0,0 -0.0074,-0.008 -0.0074,-0.008 -0.0964,-0.101678 -0.190144,-0.205696 -0.281152,-0.311962 -0.101405,-0.118729 -0.199366,-0.240213 -0.293784,-0.364311 -0.08384,-0.110104 -0.164868,-0.222236 -0.243016,-0.336295 -0.08765,-0.128138 -0.171629,-0.25866 -0.251866,-0.391417 -0.07099,-0.117557 -0.13902,-0.23683 -0.204038,-0.357711 -0.07258,-0.135129 -0.141373,-0.272223 -0.206309,-0.411124 -0.05985,-0.127213 -0.116444,-0.255916 -0.169733,-0.385986 -0.05755,-0.141702 -0.111172,-0.284967 -0.160799,-0.42963 -0.04466,-0.12921 -0.08613,-0.25951 -0.124361,-0.390779 -0.0109,-0.0403 -0.02151,-0.08068 -0.03181,-0.121137 -0.03071,-0.109777 -0.05915,-0.220183 -0.08531,-0.331147 -0.03125,-0.135196 -0.05911,-0.271173 -0.08357,-0.407802 -0.02638,-0.147961 -0.04875,-0.296641 -0.06709,-0.445875 -0.0177,-0.144989 -0.0316,-0.290453 -0.04166,-0.436244 -0.01794,-0.219283 -0.02721,-0.439284 -0.02776,-0.65949 0.01279,-0.885902 0.166408,-1.766292 0.45644,-2.609291 -0.0011,4.46e-4 -0.0092,0.0041 -0.01031,0.0046 0.09382,-0.277444 0.202169,-0.550214 0.324652,-0.817284 1.497274,-3.256081 4.89453,-5.273846 8.631697,-5.293337 0,0 -7.1e-5,-6.8e-5 -7.1e-5,-6.8e-5 z m -0.648152,3.657572 c -2.449229,0.03385 -4.466005,2.275116 -4.496538,5.08385 -0.01521,1.627833 0.657274,3.14627 1.806182,4.060727 0.206188,-0.04146 0.419942,-0.06616 0.634951,-0.07345 1.027603,-0.03241 1.932874,0.332859 2.206334,0.893758 0.0035,0.0075 0.0071,0.0151 0.01037,0.02269 2.276962,-0.247277 4.095211,-2.406416 4.209442,-4.940828 -1.172574,0.645389 -2.330778,0.769768 -3.098216,0.324907 -1.275117,-0.740526 -1.104452,-2.801167 0.386615,-4.558206 0.09534,-0.111798 0.194915,-0.2209 0.298302,-0.326874 -0.605801,-0.327076 -1.275829,-0.494219 -1.95748,-0.486572 0,0 3.9e-5,-10e-7 3.9e-5,-10e-7 z m -16.655599,7.256769 c -8.024046,1.409684 -14.821534,5.893526 -19.654244,11.948583 -4.731016,5.927641 -7.507659,13.327122 -7.039684,19.247032 0.51479,6.512109 3.496502,11.269637 6.968032,14.557255 3.430965,3.2492 7.225024,4.938123 8.672423,5.155556 4.629546,0.990814 7.174874,-2.1555 4.675888,-6.205906 -1.2416,-1.570915 -3.143793,-6.377736 -2.209465,-10.770782 1.178996,1.047787 2.367901,2.089163 3.569128,3.124796 0.269157,1.621254 0.456802,3.391605 0.41146,4.794954 -0.06011,0.0038 -0.120486,0.0033 -0.180497,0.0082 -0.675317,0.05401 -1.34334,0.152919 -1.994984,0.29945 0.529071,1.807204 1.283279,3.260312 1.870492,3.989067 1.152252,1.827574 1.272731,3.443041 0.631772,4.595354 4.077657,0.191507 9.524727,1.628418 14.620481,2.678543 0.380336,-0.02431 0.408036,-2.047597 -0.514627,-4.360448 -0.921865,-2.310852 -2.80379,-4.932292 -6.390014,-6.148432 -1.379232,-0.467721 -3.235679,-0.877965 -5.196515,-1.035071 0,0 -2.4e-5,-9.59e-4 -2.4e-5,-9.59e-4 0.390907,-1.994859 0.04075,-6.108716 -0.0044,-6.211902 -0.256164,-0.585498 -0.61617,-0.947417 -1.007095,-1.135713 -0.04881,-0.02352 -0.0991,-0.03599 -0.148757,-0.05418 0,0 -9.39e-4,-8.83e-4 -9.39e-4,-8.83e-4 -1.478212,-1.203806 -2.93989,-2.415811 -4.389362,-3.637557 0.02403,-0.03593 0.04533,-0.07319 0.07003,-0.10885 0.09878,-0.142581 0.213408,-0.283556 0.32782,-0.424655 0.02514,0.07026 0.05658,0.135554 0.0979,0.191874 0.09825,0.133919 6.100099,2.913614 6.526776,3.109341 0,0 9.44e-4,8.8e-4 9.44e-4,8.8e-4 0.615962,0.596582 1.101091,1.636908 1.573763,3.122899 0.500954,1.574908 0.613979,3.362882 1.088782,3.689257 0.409729,0.281646 1.333444,-0.810136 1.847831,-1.98292 0.249125,1.184514 0.643967,2.249354 1.177113,3.089566 4.524996,7.13123 13.084192,12.010867 21.457609,14.041317 8.34615,2.02383 15.840424,1.0829 18.908844,-3.09496 -1.61179,-1.796695 -4.12042,-1.660068 -7.57561,-3.27704 -0.69523,0.218093 -1.28591,0.555118 -1.70375,1.086501 -0.66304,-0.832878 -1.319769,-1.669317 -1.970293,-2.508369 -0.676679,0.187956 -1.310733,-0.644287 -1.912936,0.518221 -1.329756,-0.675991 -1.277819,-1.006003 -1.072726,-1.704549 0.671372,-1.894187 1.998734,-2.441504 2.129875,-5.662462 0.914792,-2.803203 -8.746975,-12.294213 -15.225086,-15.096084 -3.754494,-1.623869 -6.65487,-1.745937 -8.867294,-0.884193 -0.0078,0.003 -0.01562,0.0069 -0.0234,0.01 -2.106749,-0.841695 -4.192367,-1.69756 -6.263006,-2.567946 -0.128248,-0.05391 -0.257849,-0.06916 -0.387593,-0.06854 0,0 -9.43e-4,5.9e-5 -9.43e-4,5.9e-5 -4.57964,-2.955883 -7.715154,-8.604837 -5.722049,-17.042954 0.486817,-2.061012 1.481703,-3.809825 2.828319,-5.273244 0,0 1.2e-5,-7.1e-5 1.2e-5,-7.1e-5 z M 82.44981,57.69686 c -2.018149,0.106262 -4.025462,0.862774 -4.504086,1.727152 1.778506,2.347628 4.538509,4.633944 7.911595,3.914783 2.196948,-0.4684 4.636402,-1.799004 6.150414,-5.414992 -2.46731,-0.505557 -4.352785,-0.685751 -5.17627,-0.207204 -0.43915,0.454297 -0.634275,1.223891 -0.567382,1.768007 C 86.00299,59.053158 85.657544,58.262307 85.050768,58.007719 84.282952,57.734774 83.365382,57.648647 82.44981,57.69686 Z m -4.10642,3.291381 c -0.793224,0.231192 -1.668669,0.61003 -2.584723,1.149085 -1.346047,0.792089 -3.166897,4.491711 -4.499127,7.551647 2.304958,-1.297257 5.488984,-1.402556 9.798757,0.473276 0.008,0.0034 0.0161,0.0072 0.02394,0.01078 0.6985,-1.995414 1.400948,-4.288716 1.406356,-6.211833 -1.477395,-0.568585 -2.935635,-1.661355 -4.14521,-2.972969 0,0 4e-6,1.3e-5 4e-6,1.3e-5 z M 63.706834,71.624772 c 0.07401,0.133606 0.188526,0.237727 0.352111,0.296779 1.679367,0.606081 3.369287,1.204513 5.072879,1.79513 -0.151923,0.185343 -0.298173,0.375689 -0.436018,0.574447 -0.05871,-0.04992 -0.116639,-0.10149 -0.179593,-0.141334 -0.164884,-0.104362 -0.344147,-0.170413 -0.528349,-0.211465 2e-6,-2e-6 0.02585,-0.0426 0.02585,-0.04261 0,0 -2.747767,-1.207881 -4.729784,-2.090387 0.141033,-0.06098 0.281569,-0.121379 0.422908,-0.180563 z m -4.512146,2.288595 c 0.415558,0.36924 6.977226,3.0762 6.977226,3.0762 0,0 0.0082,-0.01363 0.0082,-0.01363 0.219896,0.444084 0.47457,0.995863 0.733964,1.571761 -0.143428,0.649329 -0.24937,1.30952 -0.308278,1.971058 -0.0043,0.04802 -0.005,0.09582 -0.0087,0.143826 -0.492179,-1.438892 -1.191545,-2.756869 -1.803928,-3.244492 0,0 0.01372,-0.01597 0.01372,-0.01597 -1.2e-5,-5e-6 -0.09311,-0.04028 -0.09312,-0.04029 -0.04906,-0.03359 -0.09817,-0.06748 -0.145755,-0.08936 -0.07653,-0.03517 -0.154053,-0.05667 -0.232019,-0.07435 -2.567976,-1.112657 -3.680848,-1.616291 -6.060309,-2.680384 0.294998,-0.205697 0.601903,-0.406848 0.918996,-0.604352 0,0 -6e-6,-2.3e-5 -6e-6,-2.3e-5 z m 37.096427,8.020434 c 1.858825,2.150583 2.970475,4.078988 2.612245,5.15898 -0.12463,2.765352 -1.144335,3.586037 -1.863857,4.98821 1.217537,0.218708 2.384627,0.437768 3.239907,0.628118 0.77928,0.173433 0.0599,-2.042478 0.89319,-2.218919 1.15867,-0.245341 1.49998,2.403892 2.67138,2.302198 0.98697,-0.08569 1.33066,-2.831422 2.22983,-2.528839 1.35299,0.45532 6.53165,3.50453 6.13298,1.592264 -0.85138,-4.083741 -6.92576,-7.918702 -10.59638,-9.28626 -1.23937,-0.461748 -3.27716,-0.613835 -5.319295,-0.635752 z m -47.460266,15.13163 c -0.329039,5.534869 2.854936,11.778279 7.585365,14.162749 3.547383,1.78815 12.430519,-3.59808 12.430519,-3.59808 -5.516083,-3.05847 -8.997315,-6.18092 -11.46144,-9.343012 -1.001902,0.684378 -2.513225,0.940068 -4.316184,0.561306 -0.817959,-0.120335 -2.402599,-0.722139 -4.23826,-1.782963 z"
       style="fill:#000000;fill-opacity:0.0959596;fill-rule:evenodd;stroke:#000000;stroke-width:5;stroke-linecap:butt;stroke-linejoin:miter;stroke-miterlimit:4;stroke-dasharray:none;stroke-opacity:0.57575756"
       inkscape:connector-curvature="0" />
    <path
       style="fill:#ffffff;fill-opacity:1;fill-rule:evenodd;stroke:none;stroke-width:1.74183249;stroke-linecap:butt;stroke-linejoin:miter;stroke-miterlimit:4;stroke-dasharray:none;stroke-opacity:1"
       d="m 52.430287,14.052289 c -1.047061,0.268349 -5.232748,2.238232 -3.615011,1.963165 0.691236,-0.113529 1.153869,-0.105027 1.845093,-0.03841 4.775182,1.822394 9.888162,3.620442 14.453317,4.888764 5.196075,1.441194 10.20006,2.566926 14.862967,2.502988 3.068046,-0.101125 6.147062,-0.913397 9.143269,-1.732471 2.454161,-0.66518 4.737512,-1.773803 7.067243,-2.80778 -2.029344,0.137614 -3.846968,1.232873 -7.393389,2.09491 -2.888439,0.624883 -5.053647,0.840854 -7.622887,0.871897 -5.26873,-0.316811 -10.465882,-1.379261 -15.242802,-2.817595 -4.056416,-0.576426 -9.915381,-4.669289 -13.4978,-4.925466 z m 51.143783,3.784705 c -4.420509,1.057457 -8.43818,4.017963 -11.52091,7.431879 -3.075086,3.405451 -5.036883,7.047357 -5.789852,9.026374 -0.01615,0.04245 -0.02099,0.0681 -0.03593,0.108787 -0.27742,-0.136842 -0.561904,-0.260517 -0.852415,-0.370539 -1.097741,-0.414513 -2.272028,-0.630616 -3.462261,-0.631912 -2.834338,-0.0028 -5.565308,1.210709 -7.442741,3.414628 -0.479423,-0.253142 -0.877862,-0.653063 -0.966335,-1.036887 0.04842,1.325098 0.135553,1.567466 0.408037,1.762369 -0.162803,0.234759 -0.31543,0.476834 -0.457466,0.72558 -0.287257,0.208144 -0.367417,0.191351 -1.570835,-0.477298 0.268267,0.583817 0.661456,1.479986 0.968241,1.712421 -0.327478,0.812909 -0.547466,1.668024 -0.654959,2.54196 -3.931407,1.824652 -7.079511,4.685172 -8.090715,8.891996 -2.421236,10.072895 2.572448,16.081933 8.646357,18.416637 1.180149,-3.143241 3.22431,-7.198552 4.788076,-8.044534 0.760784,-0.411574 1.518189,-0.723654 2.250477,-0.955273 -0.30941,-0.378727 -0.596124,-0.769462 -0.855332,-1.166401 -9.7e-4,-0.0019 -0.0023,-0.0034 -0.0038,-0.0052 -0.106997,-0.164035 -0.206214,-0.329687 -0.303309,-0.495205 -0.05459,-0.09357 -0.106957,-0.18704 -0.158192,-0.280859 -0.07387,-0.13449 -0.148272,-0.269124 -0.214905,-0.403676 -0.109388,-0.222398 -0.209806,-0.444705 -0.297975,-0.665398 -0.07562,-0.187874 -0.144263,-0.375013 -0.203195,-0.560126 -0.05423,-0.170329 -0.09776,-0.337829 -0.136915,-0.504666 -0.01112,-0.04754 -0.02222,-0.09488 -0.03208,-0.142068 -0.03575,-0.170554 -0.06631,-0.339882 -0.08484,-0.505216 -1.280717,-0.433756 -2.486801,-1.110032 -3.387776,-2.074854 -0.368541,-0.576255 0.376625,-0.722125 0.765099,-0.90125 0.44482,1.168881 1.73529,1.697364 2.811072,2.219215 1.799363,0.693871 3.68321,1.220757 5.670004,1.384557 1.921915,0.180761 3.86979,0.294593 5.835536,0.323324 3.500805,-0.156782 6.699358,-1.614107 9.989344,-3.01232 0.491845,-0.299214 -0.415628,0.474832 0.43244,0.0035 0.318272,-0.28205 1.593425,-1.017256 1.555335,-0.71986 -2.550641,1.666054 -5.484924,2.625493 -8.349282,3.505295 -0.100658,0.0289 -0.202106,0.05186 -0.303043,0.07895 1.30093,-0.245774 2.561872,-0.609006 3.736111,-1.126806 -3.018578,7.522455 -5.509381,7.718129 -8.152767,8.797164 -0.147118,0.06005 -0.29776,0.107548 -0.450056,0.148215 -0.03937,0.01055 -0.07952,0.01864 -0.119208,0.02792 -0.114846,0.02677 -0.230479,0.04851 -0.347737,0.06498 -0.04604,0.0065 -0.09202,0.01271 -0.138422,0.01756 -0.122906,0.01303 -0.247406,0.02022 -0.372438,0.02273 -0.03515,6.32e-4 -0.07011,0.0036 -0.105388,0.0034 -0.163299,-6.11e-4 -0.327613,-0.0085 -0.493637,-0.02601 -0.116549,1.181693 -0.434081,2.450963 -0.836537,3.699916 7.827199,-3.223823 17.341994,-10.062104 24.305094,-17.867063 7.09966,-7.958037 11.0491,-16.329647 9.15379,-23.179806 -1.09532,3.083803 -2.41396,5.208356 -4.02893,6.685286 0.22065,-0.801129 0.20393,-1.64368 -0.0942,-2.543891 -1.55949,1.512094 -3.11809,3.02849 -4.67805,4.553576 0.30427,-0.732639 0.486,-1.486299 0.2739,-2.330808 -1.4985,1.173752 -2.98703,2.340653 -4.48299,3.51678 0.733,-0.835008 1.12401,-1.776663 1.03524,-2.959427 0.022,0.03269 -9.111821,7.225742 -15.718285,6.062627 -0.330006,-1.092603 -0.862802,-2.106497 -1.569286,-2.99718 0.618303,0.08244 1.19587,0.184709 1.696306,0.318193 2.912318,0.776801 6.448476,-0.277626 9.491265,-1.688908 0.0117,-0.0054 0.0248,-0.01245 0.0366,-0.01789 0.40002,-0.185496 0.78823,-0.377653 1.16771,-0.571787 0.15864,-0.08141 0.30985,-0.162118 0.46433,-0.244256 0.29159,-0.154593 0.57419,-0.308343 0.84921,-0.463348 0.0657,-0.03705 0.1386,-0.07409 0.20322,-0.111029 0,4.3e-5 7e-5,-0.0041 7e-5,-0.0041 0.10895,-0.06227 0.22435,-0.124831 0.33029,-0.186729 1.76746,-1.367071 3.6174,-3.008729 4.17721,-4.260375 1.16857,-2.612782 2.38771,-7.624231 0.96379,-9.367663 -0.0701,-0.08575 -0.14781,-0.127806 -0.23277,-0.132635 -0.86282,-0.04903 -2.20153,3.368323 -2.26565,3.700708 -0.12144,0.629598 -1.86872,-0.550571 -2.47507,-0.122989 -1.13853,0.802861 -0.25041,2.464177 -0.65819,2.438638 -0.55544,-0.03478 -0.66675,-0.838323 -1.22639,-0.741105 -1.54057,1.066931 -2.452213,2.325134 -3.16356,3.572 -0.402775,-0.07908 -0.801333,-0.168344 -1.173017,-0.293615 -0.541365,-0.182459 -0.390132,-1.407488 -0.161297,-1.893736 0.277266,-0.589171 1.528326,-0.242318 1.899685,-0.80108 0.422581,-0.635815 -0.208718,-1.652966 0.372922,-2.202339 0.369207,-0.348711 0.823317,0.125163 1.185547,-0.229901 1.14772,-1.125003 3.09585,-5.964182 2.65681,-5.859157 0,0 -7e-5,4e-6 -7e-5,4e-6 z M 73.503617,35.779323 c -0.0036,-0.09736 -0.0093,-0.159028 -0.01244,-0.269708 -0.01813,0.08693 -0.0087,0.178087 0.01244,0.269708 z M 65.754658,24.24563 c -3.981786,1.07256 -4.226369,2.625166 -7.258635,3.678439 -1.576162,0.535386 -3.155563,1.106542 -4.75155,1.51184 -2.097972,0.374077 -4.529452,0.196283 -6.494784,0.02076 -1.509145,-0.161017 -2.810451,-0.892068 -4.056434,-1.532597 -1.219214,-0.632295 -2.267293,-1.132117 -3.519044,-1.265768 -0.801149,-0.276929 -2.198625,-0.06222 -3.596899,0.363315 -1.981503,0.932058 -3.580807,1.874394 0.902747,1.747839 2.082652,0.165671 4.378573,1.322827 6.096054,2.174807 2.75433,1.029092 5.439175,1.068188 8.003417,0.619161 2.982278,-0.615798 5.529601,-1.52229 8.294577,-2.836164 3.060213,-1.469072 2.926814,-2.683549 6.380551,-4.481631 z M 81.92846,35.591793 c 1.484639,-0.0051 2.944208,0.307632 4.252762,0.903704 0,0 9.3e-4,-1.7e-5 9.3e-4,-1.7e-5 0,0 0.002,8.22e-4 0.002,8.22e-4 0,0 0.0028,0.0018 0.0028,0.0018 0.161134,0.07409 0.319702,0.152386 0.475488,0.23476 0,0 9.07e-4,8.39e-4 9.07e-4,8.39e-4 1.438752,0.751708 2.618606,1.837231 3.40721,3.149032 0.08207,0.139083 0.15962,0.280408 0.232531,0.423824 0.01397,0.02766 0.02776,0.0554 0.04138,0.08321 0.03997,0.07645 0.07862,0.153499 0.115906,0.231122 0.0658,0.145184 0.126931,0.292222 0.183289,0.44096 0.02977,0.0767 0.05828,0.153865 0.08549,0.231451 0.0141,0.03764 0.02789,0.07537 0.04137,0.113214 0.04659,0.144796 0.08871,0.290936 0.126333,0.438272 0.02164,0.08176 0.04188,0.163885 0.06071,0.246351 0.01032,0.04099 0.0203,0.08206 0.02993,0.123217 0.02984,0.1489 0.05513,0.298768 0.0758,0.449455 0.01933,0.123703 0.03555,0.247969 0.04864,0.372715 0.02157,0.215814 0.03376,0.432894 0.03653,0.6508 0.0014,0.03237 0.0024,0.06477 0.0034,0.09718 -0.0087,0.538493 -0.07492,1.078958 -0.197944,1.614502 0.0081,-0.03065 0.01593,-0.0613 0.02367,-0.092 -0.157933,0.763383 -0.42988,1.512625 -0.808713,2.227404 -0.414987,0.134325 -0.826896,0.274882 -1.234656,0.421881 0,0 -9.93e-4,5e-5 -9.93e-4,5e-5 -0.405766,0.146291 -0.808318,0.301257 -1.208361,0.463783 -0.0076,0.0032 -0.01371,0.0058 -0.0213,0.009 -0.0183,0.0075 -0.03783,0.01628 -0.05613,0.02374 0,0 -9.92e-4,9.43e-4 -9.92e-4,9.43e-4 -0.148981,0.06103 -0.296545,0.128618 -0.444934,0.192333 -0.221133,0.09496 -0.442965,0.186462 -0.662755,0.287722 -0.02322,0.01081 -0.04435,0.02135 -0.06758,0.03215 -0.0088,0.0042 -0.01632,0.0084 -0.0251,0.01259 -0.159964,0.07446 -0.31906,0.157611 -0.478557,0.235969 -0.03371,0.01658 -0.06752,0.03394 -0.101243,0.05045 -0.178865,0.08885 -0.358427,0.17223 -0.536692,0.265982 -0.01396,0.0074 -0.02648,0.01556 -0.04044,0.02299 -0.197585,0.104422 -0.39463,0.220697 -0.59185,0.332098 -0.0101,0.0056 -0.01779,0.0098 -0.02789,0.01538 -0.187516,0.105471 -0.374987,0.207642 -0.562213,0.320387 0,0 -9.82e-4,4.4e-5 -9.82e-4,4.4e-5 -0.162601,0.09779 -0.325089,0.207946 -0.487679,0.311111 -0.228531,0.145097 -0.456896,0.285556 -0.685455,0.441639 -0.116187,0.07927 -0.233222,0.169154 -0.349527,0.25154 -0.276117,0.195568 -0.551345,0.390352 -0.828112,0.603727 -0.388327,0.299391 -0.777963,0.617161 -1.168621,0.954812 -0.589945,-0.04395 -1.17083,-0.145039 -1.735602,-0.302354 0,0 -0.002,-8.37e-4 -0.002,-8.37e-4 -0.0196,-0.0042 -0.03918,-0.0085 -0.05873,-0.01287 -0.01486,-0.0048 -0.0297,-0.0095 -0.04452,-0.01436 0,0 -0.0037,-0.0017 -0.0037,-0.0017 -0.219543,-0.06234 -0.436327,-0.133116 -0.649959,-0.212209 -0.06521,-0.02161 -0.130097,-0.04396 -0.19467,-0.06704 -0.128913,-0.05005 -0.256408,-0.103046 -0.382391,-0.158927 0.07136,0.02909 0.143108,0.05725 0.215236,0.08445 -1.1176,-0.462656 -2.110846,-1.1439 -2.924704,-2.002813 0,0 -0.0074,-0.008 -0.0074,-0.008 -0.0964,-0.101678 -0.190144,-0.205696 -0.281152,-0.311962 -0.101405,-0.118729 -0.199366,-0.240213 -0.293784,-0.364311 -0.08384,-0.110104 -0.164868,-0.222236 -0.243016,-0.336295 -0.08765,-0.128138 -0.171629,-0.25866 -0.251866,-0.391417 -0.07099,-0.117557 -0.13902,-0.23683 -0.204038,-0.357711 -0.07258,-0.135129 -0.141373,-0.272223 -0.206309,-0.411124 -0.05985,-0.127213 -0.116444,-0.255916 -0.169733,-0.385986 -0.05755,-0.141702 -0.111172,-0.284967 -0.160799,-0.42963 -0.04466,-0.12921 -0.08613,-0.25951 -0.124361,-0.390779 -0.0109,-0.0403 -0.02151,-0.08068 -0.03181,-0.121137 -0.03071,-0.109777 -0.05915,-0.220183 -0.08531,-0.331147 -0.03125,-0.135196 -0.05911,-0.271173 -0.08357,-0.407802 -0.02638,-0.147961 -0.04875,-0.296641 -0.06709,-0.445875 -0.0177,-0.144989 -0.0316,-0.290453 -0.04166,-0.436244 -0.01794,-0.219283 -0.02721,-0.439284 -0.02776,-0.65949 0.01279,-0.885902 0.166408,-1.766292 0.45644,-2.609291 -0.0011,4.46e-4 -0.0092,0.0041 -0.01031,0.0046 0.09382,-0.277444 0.202169,-0.550214 0.324652,-0.817284 1.497274,-3.256081 4.89453,-5.273846 8.631697,-5.293337 0,0 -7.1e-5,-6.8e-5 -7.1e-5,-6.8e-5 z m -0.648152,3.657572 c -2.449229,0.03385 -4.466005,2.275116 -4.496538,5.08385 -0.01521,1.627833 0.657274,3.14627 1.806182,4.060727 0.206188,-0.04146 0.419942,-0.06616 0.634951,-0.07345 1.027603,-0.03241 1.932874,0.332859 2.206334,0.893758 0.0035,0.0075 0.0071,0.0151 0.01037,0.02269 2.276962,-0.247277 4.095211,-2.406416 4.209442,-4.940828 -1.172574,0.645389 -2.330778,0.769768 -3.098216,0.324907 -1.275117,-0.740526 -1.104452,-2.801167 0.386615,-4.558206 0.09534,-0.111798 0.194915,-0.2209 0.298302,-0.326874 -0.605801,-0.327076 -1.275829,-0.494219 -1.95748,-0.486572 0,0 3.9e-5,-10e-7 3.9e-5,-10e-7 z m -16.655599,7.256769 c -8.024046,1.409684 -14.821534,5.893526 -19.654244,11.948583 -4.731016,5.927641 -7.507659,13.327122 -7.039684,19.247032 0.51479,6.512109 3.496502,11.269637 6.968032,14.557255 3.430965,3.2492 7.225024,4.938123 8.672423,5.155556 4.629546,0.990814 7.174874,-2.1555 4.675888,-6.205906 -1.2416,-1.570915 -3.143793,-6.377736 -2.209465,-10.770782 1.178996,1.047787 2.367901,2.089163 3.569128,3.124796 0.269157,1.621254 0.456802,3.391605 0.41146,4.794954 -0.06011,0.0038 -0.120486,0.0033 -0.180497,0.0082 -0.675317,0.05401 -1.34334,0.152919 -1.994984,0.29945 0.529071,1.807204 1.283279,3.260312 1.870492,3.989067 1.152252,1.827574 1.272731,3.443041 0.631772,4.595354 4.077657,0.191507 9.524727,1.628418 14.620481,2.678543 0.380336,-0.02431 0.408036,-2.047597 -0.514627,-4.360448 -0.921865,-2.310852 -2.80379,-4.932292 -6.390014,-6.148432 -1.379232,-0.467721 -3.235679,-0.877965 -5.196515,-1.035071 0,0 -2.4e-5,-9.59e-4 -2.4e-5,-9.59e-4 0.390907,-1.994859 0.04075,-6.108716 -0.0044,-6.211902 -0.256164,-0.585498 -0.61617,-0.947417 -1.007095,-1.135713 -0.04881,-0.02352 -0.0991,-0.03599 -0.148757,-0.05418 0,0 -9.39e-4,-8.83e-4 -9.39e-4,-8.83e-4 -1.478212,-1.203806 -2.93989,-2.415811 -4.389362,-3.637557 0.02403,-0.03593 0.04533,-0.07319 0.07003,-0.10885 0.09878,-0.142581 0.213408,-0.283556 0.32782,-0.424655 0.02514,0.07026 0.05658,0.135554 0.0979,0.191874 0.09825,0.133919 6.100099,2.913614 6.526776,3.109341 0,0 9.44e-4,8.8e-4 9.44e-4,8.8e-4 0.615962,0.596582 1.101091,1.636908 1.573763,3.122899 0.500954,1.574908 0.613979,3.362882 1.088782,3.689257 0.409729,0.281646 1.333444,-0.810136 1.847831,-1.98292 0.249125,1.184514 0.643967,2.249354 1.177113,3.089566 4.524996,7.13123 13.084192,12.010867 21.457609,14.041317 8.34615,2.02383 15.840424,1.0829 18.908844,-3.09496 -1.61179,-1.796695 -4.12042,-1.660068 -7.57561,-3.27704 -0.69523,0.218093 -1.28591,0.555118 -1.70375,1.086501 -0.66304,-0.832878 -1.319769,-1.669317 -1.970293,-2.508369 -0.676679,0.187956 -1.310733,-0.644287 -1.912936,0.518221 -1.329756,-0.675991 -1.277819,-1.006003 -1.072726,-1.704549 0.671372,-1.894187 1.998734,-2.441504 2.129875,-5.662462 0.914792,-2.803203 -8.746975,-12.294213 -15.225086,-15.096084 -3.754494,-1.623869 -6.65487,-1.745937 -8.867294,-0.884193 -0.0078,0.003 -0.01562,0.0069 -0.0234,0.01 -2.106749,-0.841695 -4.192367,-1.69756 -6.263006,-2.567946 -0.128248,-0.05391 -0.257849,-0.06916 -0.387593,-0.06854 0,0 -9.43e-4,5.9e-5 -9.43e-4,5.9e-5 -4.57964,-2.955883 -7.715154,-8.604837 -5.722049,-17.042954 0.486817,-2.061012 1.481703,-3.809825 2.828319,-5.273244 0,0 1.2e-5,-7.1e-5 1.2e-5,-7.1e-5 z M 84.44981,57.69686 c -2.018149,0.106262 -4.025462,0.862774 -4.504086,1.727152 1.778506,2.347628 4.538509,4.633944 7.911595,3.914783 2.196948,-0.4684 4.636402,-1.799004 6.150414,-5.414992 -2.46731,-0.505557 -4.352785,-0.685751 -5.17627,-0.207204 -0.43915,0.454297 -0.634275,1.223891 -0.567382,1.768007 C 88.00299,59.053158 87.657544,58.262307 87.050768,58.007719 86.282952,57.734774 85.365382,57.648647 84.44981,57.69686 Z m -4.10642,3.291381 c -0.793224,0.231192 -1.668669,0.61003 -2.584723,1.149085 -1.346047,0.792089 -3.166897,4.491711 -4.499127,7.551647 2.304958,-1.297257 5.488984,-1.402556 9.798757,0.473276 0.008,0.0034 0.0161,0.0072 0.02394,0.01078 0.6985,-1.995414 1.400948,-4.288716 1.406356,-6.211833 -1.477395,-0.568585 -2.935635,-1.661355 -4.14521,-2.972969 0,0 4e-6,1.3e-5 4e-6,1.3e-5 z M 65.706834,71.624772 c 0.07401,0.133606 0.188526,0.237727 0.352111,0.296779 1.679367,0.606081 3.369287,1.204513 5.072879,1.79513 -0.151923,0.185343 -0.298173,0.375689 -0.436018,0.574447 -0.05871,-0.04992 -0.116639,-0.10149 -0.179593,-0.141334 -0.164884,-0.104362 -0.344147,-0.170413 -0.528349,-0.211465 2e-6,-2e-6 0.02585,-0.0426 0.02585,-0.04261 0,0 -2.747767,-1.207881 -4.729784,-2.090387 0.141033,-0.06098 0.281569,-0.121379 0.422908,-0.180563 z m -4.512146,2.288595 c 0.415558,0.36924 6.977226,3.0762 6.977226,3.0762 0,0 0.0082,-0.01363 0.0082,-0.01363 0.219896,0.444084 0.47457,0.995863 0.733964,1.571761 -0.143428,0.649329 -0.24937,1.30952 -0.308278,1.971058 -0.0043,0.04802 -0.005,0.09582 -0.0087,0.143826 -0.492179,-1.438892 -1.191545,-2.756869 -1.803928,-3.244492 0,0 0.01372,-0.01597 0.01372,-0.01597 -1.2e-5,-5e-6 -0.09311,-0.04028 -0.09312,-0.04029 -0.04906,-0.03359 -0.09817,-0.06748 -0.145755,-0.08936 -0.07653,-0.03517 -0.154053,-0.05667 -0.232019,-0.07435 -2.567976,-1.112657 -3.680848,-1.616291 -6.060309,-2.680384 0.294998,-0.205697 0.601903,-0.406848 0.918996,-0.604352 0,0 -6e-6,-2.3e-5 -6e-6,-2.3e-5 z m 37.096427,8.020434 c 1.858825,2.150583 2.970475,4.078988 2.612245,5.15898 -0.12463,2.765352 -1.144335,3.586037 -1.863857,4.98821 1.217537,0.218708 2.384627,0.437768 3.239907,0.628118 0.77928,0.173433 0.0599,-2.042478 0.89319,-2.218919 1.15867,-0.245341 1.49998,2.403892 2.67138,2.302198 0.98697,-0.08569 1.33066,-2.831422 2.22983,-2.528839 1.35299,0.45532 6.53165,3.50453 6.13298,1.592264 -0.85138,-4.083741 -6.92576,-7.918702 -10.59638,-9.28626 -1.23937,-0.461748 -3.27716,-0.613835 -5.319295,-0.635752 z m -47.460266,15.13163 c -0.329039,5.534869 2.854936,11.778279 7.585365,14.162749 3.547383,1.78815 12.430519,-3.59808 12.430519,-3.59808 -5.516083,-3.05847 -8.997315,-6.18092 -11.46144,-9.343012 -1.001902,0.684378 -2.513225,0.940068 -4.316184,0.561306 -0.817959,-0.120335 -2.402599,-0.722139 -4.23826,-1.782963 z"
       id="path4790" />
  </g>
</svg>
