<?xml version="1.0" encoding="UTF-8" standalone="no"?>
<!-- Created with Inkscape (http://www.inkscape.org/) -->

<svg
   xmlns:dc="http://purl.org/dc/elements/1.1/"
   xmlns:cc="http://creativecommons.org/ns#"
   xmlns:rdf="http://www.w3.org/1999/02/22-rdf-syntax-ns#"
   xmlns:svg="http://www.w3.org/2000/svg"
   xmlns="http://www.w3.org/2000/svg"
   xmlns:xlink="http://www.w3.org/1999/xlink"
   xmlns:sodipodi="http://sodipodi.sourceforge.net/DTD/sodipodi-0.dtd"
   xmlns:inkscape="http://www.inkscape.org/namespaces/inkscape"
   width="128"
   height="128"
   id="svg6934"
   sodipodi:version="0.32"
   inkscape:version="0.48.3.1 r9886"
   version="1.0"
   sodipodi:docname="aaa-generic.svg"
   inkscape:output_extension="org.inkscape.output.svg.inkscape">
  <defs
     id="defs6936">
    <linearGradient
       id="linearGradient5344">
      <stop
         style="stop-color:#000000;stop-opacity:1;"
         offset="0"
         id="stop5346" />
      <stop
         style="stop-color:#000000;stop-opacity:0;"
         offset="1"
         id="stop5348" />
    </linearGradient>
    <linearGradient
       id="linearGradient5165-7-9-8-2">
      <stop
         id="stop5167-4-8-6-9"
         style="stop-color:#ffffff;stop-opacity:1"
         offset="0" />
      <stop
         id="stop5169-5-5-2-9"
         style="stop-color:#ffffff;stop-opacity:0"
         offset="1" />
    </linearGradient>
    <linearGradient
       inkscape:collect="always"
       xlink:href="#linearGradient5344"
       id="linearGradient3107"
       gradientUnits="userSpaceOnUse"
       gradientTransform="matrix(5.3340639,0,0,5.3340639,-1451.4802,-5864.5574)"
       x1="305.23422"
       y1="1137.0681"
       x2="283.35095"
       y2="1104.2024" />
    <linearGradient
       inkscape:collect="always"
       xlink:href="#linearGradient5344-50"
       id="linearGradient13031-7"
       gradientUnits="userSpaceOnUse"
       gradientTransform="matrix(2.3371908,-0.19593194,0,2.3371908,-1123.3759,-2035.152)"
       x1="516.625"
       y1="949.4657"
       x2="516.625"
       y2="953.45752" />
    <linearGradient
       id="linearGradient5344-50">
      <stop
         style="stop-color:#000000;stop-opacity:1;"
         offset="0"
         id="stop5346-2" />
      <stop
         style="stop-color:#000000;stop-opacity:0;"
         offset="1"
         id="stop5348-5" />
    </linearGradient>
    <linearGradient
       inkscape:collect="always"
       xlink:href="#linearGradient5316-0"
       id="linearGradient13027-1"
       gradientUnits="userSpaceOnUse"
       gradientTransform="matrix(3.6383072,-0.24094751,0,3.6383072,-1797.8001,-3254.4436)"
       x1="516.625"
       y1="951.58276"
       x2="516.84595"
       y2="953.33002" />
    <linearGradient
       id="linearGradient5316-0">
      <stop
         style="stop-color:#aac736;stop-opacity:1;"
         offset="0"
         id="stop5320-8" />
      <stop
         style="stop-color:#5d8b2c;stop-opacity:1;"
         offset="1"
         id="stop5322-1" />
    </linearGradient>
    <linearGradient
       inkscape:collect="always"
       xlink:href="#linearGradient13604-6"
       id="linearGradient13023-1"
       gradientUnits="userSpaceOnUse"
       gradientTransform="matrix(3.6383072,0,0,3.6383072,-1871.8013,-3376.2301)"
       x1="532.71075"
       y1="943.25812"
       x2="540.65033"
       y2="973.31165" />
    <linearGradient
       id="linearGradient13604-6">
      <stop
         id="stop13606-2"
         offset="0"
         style="stop-color:#ffffff;stop-opacity:1;" />
      <stop
         id="stop13608-7"
         offset="1"
         style="stop-color:#000000;stop-opacity:1;" />
    </linearGradient>
    <linearGradient
       inkscape:collect="always"
       xlink:href="#linearGradient13620-8"
       id="linearGradient13021-7"
       gradientUnits="userSpaceOnUse"
       gradientTransform="matrix(3.6383072,0,0,3.6383072,-1811.8986,-3430.9797)"
       x1="508.00168"
       y1="976.56775"
       x2="507.60999"
       y2="969.06256" />
    <linearGradient
       id="linearGradient13620-8">
      <stop
         id="stop13622-7"
         offset="0"
         style="stop-color:#000000;stop-opacity:1;" />
      <stop
         id="stop13624-6"
         offset="1"
         style="stop-color:#000000;stop-opacity:0;" />
    </linearGradient>
    <linearGradient
       inkscape:collect="always"
       xlink:href="#linearGradient13604-6"
       id="linearGradient13015-1"
       gradientUnits="userSpaceOnUse"
       gradientTransform="matrix(3.6383072,0,0,3.6383072,-1811.8986,-3430.9797)"
       x1="507.15793"
       y1="956.94275"
       x2="506.35999"
       y2="981.68756" />
    <linearGradient
       inkscape:collect="always"
       xlink:href="#linearGradient5165-7-9-8-2"
       id="linearGradient3092"
       gradientUnits="userSpaceOnUse"
       gradientTransform="translate(-40,140)"
       x1="22.933788"
       y1="-144.76825"
       x2="18.618809"
       y2="-96.331688" />
    <linearGradient
       inkscape:collect="always"
       xlink:href="#linearGradient5344"
       id="linearGradient3094"
       gradientUnits="userSpaceOnUse"
       gradientTransform="translate(-40,140)"
       x1="7.9531264"
       y1="2.2416961"
       x2="13.667412"
       y2="-64.464973" />
  </defs>
  <sodipodi:namedview
     id="base"
     pagecolor="#ffffff"
     bordercolor="#666666"
     borderopacity="1.0"
     inkscape:pageopacity="0.0"
     inkscape:pageshadow="2"
     inkscape:zoom="3.959798"
     inkscape:cx="73.934527"
     inkscape:cy="65.963797"
     inkscape:document-units="px"
     inkscape:current-layer="layer1"
     showgrid="false"
     inkscape:window-width="1366"
     inkscape:window-height="717"
     inkscape:window-x="0"
     inkscape:window-y="0"
     inkscape:window-maximized="1" />
  <metadata
     id="metadata6939">
    <rdf:RDF>
      <cc:Work
         rdf:about="">
        <dc:format>image/svg+xml</dc:format>
        <dc:type
           rdf:resource="http://purl.org/dc/dcmitype/StillImage" />
        <dc:title></dc:title>
      </cc:Work>
    </rdf:RDF>
  </metadata>
  <g
     inkscape:label="Capa 1"
     inkscape:groupmode="layer"
     id="layer1">
    <path
       style="fill:#483745;fill-opacity:1;fill-rule:evenodd;stroke:none"
       d="m 34.21875,5.062503 c -1.32927,0.0554 -2.55056,0.27966 -3.65625,0.625 l -18.34375,2.71875 -0.5,0 0,0.1875 c -5.7155,1.04907 -8.65625,5.59198 -8.65625,11.15625 l 0,84.687497 c -0.0702,5.65226 2.0501,10.0952 6.3125,11.5 l 18.96875,5.9375 c 0.0209,0.0102 0.0415,0.0212 0.0625,0.0313 1.89272,0.90932 4.16442,1.2325 6.78125,0.8125 l 78.28125,-11.8125 c 5.72052,-0.61974 9.4668,-6.06393 9.15625,-13.625 l 0.40625,-74.281297 c 0.22248,-5.96534 -2.80168,-10.97622 -9.34375,-11.96875 l -77.84375,-5.9375 c -0.55631,-0.0273 -1.10307,-0.053 -1.625,-0.0313 z"
       id="path30949"
       inkscape:connector-curvature="0" />
    <path
       style="fill:url(#linearGradient3107);fill-rule:evenodd;stroke:none"
       d="M 29.25,16.718753 29.2187,113.125 c 0.4487,3.45828 1.40755,8.12456 4.34375,9.75 0.52713,-0.0229 1.0675,-0.0668 1.625,-0.15625 l 78.28125,-11.8125 c 5.72052,-0.61974 9.4668,-6.06393 9.15625,-13.625 l 0.40625,-74.281247 c 0.22245,-5.96534 -2.80168,-10.97622 -9.34375,-11.96875 L 37.6784,5.233693 c -3.97126,-0.42067 -8.41551,4.78057 -8.42845,11.48506 z M 30.15625,122.5 c 0.64796,0.17153 1.31467,0.32617 2.03125,0.375 z"
       id="path30953"
       inkscape:connector-curvature="0"
       sodipodi:nodetypes="ccccccccccccc" />
    <g
       id="g3087"
       transform="translate(40,0)">
      <path
         inkscape:connector-curvature="0"
         id="path3073"
         d="m -5.21875,5.312503 -22.5625,3.09375 -0.5,0 0,0.1875 c -5.715501,1.04907 -8.65625,5.59198 -8.65625,11.15625 l 0,25 26.1875,0 0,-28.03125 c 0.347051,-4.91678 2.274064,-9.96378 5.53125,-11.40625 z"
         style="fill:url(#linearGradient3092);fill-rule:evenodd;stroke:none;display:inline" />
      <path
         inkscape:connector-curvature="0"
         id="path3081"
         d="m -36.9375,68.406253 0,36.031247 c -0.07024,5.65226 2.050104,10.0952 6.3125,11.5 l 17.65625,6.03125 7.5,1.3125 c -3.710844,-1.04488 -4.81745,-6.34073 -5.3125,-10.15625 l 0,-44.718747 -26.15625,0 z"
         style="fill:url(#linearGradient3094);fill-rule:evenodd;stroke:none;display:inline" />
    </g>
    <path
       inkscape:connector-curvature="0"
       id="path30957"
       d="m 35.825012,5.0844328 c -1.734374,-0.0853 -3.26759,0.13333 -4.667303,0.50133 L 11.65504,8.5863028 C 5.9395447,9.6353728 2.9871862,14.190033 2.9871862,19.754303 l 0,84.678437 c -0.07024,5.65226 2.0718035,10.09707 6.3341998,11.50187 l 19.669357,6.16693 c 1.792241,0.74027 3.774988,1.0512 6.167512,0.6672 l 78.344065,-11.8352 c 5.72052,-0.6192 9.47847,-6.1072 9.16792,-13.66827 l 0.33339,-74.344027 c 0.22245,-5.96534 -2.79254,-10.84214 -9.33461,-11.83467 L 35.825018,5.0855028 z"
       style="fill:none;stroke:#344b63;stroke-width:2.667032;stroke-linecap:butt;stroke-linejoin:miter;stroke-miterlimit:4;stroke-opacity:1;stroke-dasharray:none;display:inline"
       sodipodi:nodetypes="ccccccccccccc" />
    <path
       sodipodi:nodetypes="scscsscscsscccssccssccsccsccssccscscscccsc"
       id="path3021"
       d="m 72.281424,20.104949 c -5.12504,0 -8.942377,4.097962 -8.983905,9.323566 -0.965279,0.413278 -1.928284,0.785919 -2.873423,1.271395 -6.224241,3.197116 -12.502081,7.383953 -16.620395,12.950426 -0.769143,-0.178314 -1.517624,-0.342421 -2.326246,-0.342421 -5.788915,0 -10.229152,4.822294 -9.847282,10.843383 0.214802,3.386867 1.904497,6.43148 4.37657,8.446426 -0.87058,6.894201 0.19312,14.019878 3.607558,20.545359 1.814338,3.467457 4.125944,6.454621 6.827037,9.01713 -0.152488,0.851984 -0.220797,1.70953 -0.162721,2.625239 0.381871,6.021088 5.441025,10.957528 11.229941,10.957528 3.3116,0 6.193247,-1.59925 7.969856,-4.10907 10.188232,1.76331 20.562784,-4.000827 27.744467,-8.317778 0.02651,-0.01356 0.07538,0.01356 0.101866,0 1.721929,1.342319 3.794339,2.118993 6.042511,2.118993 5.373482,0 9.488332,-4.58217 9.133872,-10.171164 -0.0834,-1.315741 -0.4319,-2.559717 -0.94823,-3.708235 5.86812,-7.388107 8.05424,-16.781229 7.47231,-25.151833 2.60732,-1.651075 4.22533,-4.708868 4.00332,-8.209469 -0.33495,-5.28123 -4.77244,-9.611083 -9.85002,-9.611083 -0.50254,0 -0.95484,0.118657 -1.43113,0.20023 C 101.53777,31.61719 91.829526,26.014289 81.404591,25.826228 79.604795,22.450257 76.143609,20.104949 72.281424,20.104949 z m 10.096137,13.031803 c 7.776377,0.324596 15.076703,4.391384 19.720509,9.15086 -1.11619,1.629085 -1.69062,3.697241 -1.55048,5.906812 0.29308,4.62108 3.74782,8.428938 8.00213,9.310739 0.15243,6.048288 -1.68891,13.061628 -6.01854,18.753082 -1.36724,-0.686503 -2.869798,-1.059496 -4.447353,-1.059496 -5.373482,0 -9.393205,4.476219 -9.038738,10.065212 0.03738,0.589524 0.183573,1.132272 0.311241,1.695195 -8.425393,4.39474 -14.72855,8.549846 -22.160903,7.141451 C 66.47785,88.407301 61.6776,83.827928 56.118661,83.827928 c -2.119597,0 -4.121362,0.577594 -5.70761,1.712114 -1.646605,-1.719433 -3.086979,-3.674792 -4.210072,-5.821185 -2.390376,-4.568346 -3.293514,-9.606951 -2.799408,-14.724175 5.50583,-0.312947 9.667769,-5.022304 9.298584,-10.843384 -0.148816,-2.346455 -0.929193,-4.509875 -2.263719,-6.277749 3.389243,-4.358508 8.322127,-7.965566 13.460194,-10.604762 0.584703,-0.30032 1.190006,-0.579201 1.779797,-0.847598 1.917248,2.396659 4.763123,3.920137 7.88843,3.920137 4.36595,0 7.830669,-3.072414 8.812704,-7.204574 z"
       style="font-size:medium;font-style:normal;font-variant:normal;font-weight:normal;font-stretch:normal;text-indent:0;text-align:start;text-decoration:none;line-height:normal;letter-spacing:normal;word-spacing:normal;text-transform:none;direction:ltr;block-progression:tb;writing-mode:lr-tb;text-anchor:start;baseline-shift:baseline;color:#000000;fill:#000000;fill-opacity:1;stroke:#000000;stroke-width:4.89294100000000043;stroke-miterlimit:4;stroke-dasharray:none;marker:none;visibility:visible;display:inline;overflow:visible;enable-background:accumulate;font-family:Sans;-inkscape-font-specification:Sans;stroke-opacity:0.55601662"
       inkscape:connector-curvature="0" />
    <path
       inkscape:connector-curvature="0"
       style="font-size:medium;font-style:normal;font-variant:normal;font-weight:normal;font-stretch:normal;text-indent:0;text-align:start;text-decoration:none;line-height:normal;letter-spacing:normal;word-spacing:normal;text-transform:none;direction:ltr;block-progression:tb;writing-mode:lr-tb;text-anchor:start;baseline-shift:baseline;color:#000000;fill:#ffffff;fill-opacity:1;stroke:none;stroke-width:2.5;marker:none;visibility:visible;display:inline;overflow:visible;enable-background:accumulate;font-family:Sans;-inkscape-font-specification:Sans"
       d="m 74.238601,20.104949 c -5.125041,0 -8.942377,4.097962 -8.983906,9.323566 -0.965278,0.413278 -1.928283,0.785919 -2.873422,1.271395 -6.224241,3.197116 -12.502081,7.383953 -16.620395,12.950426 -0.769143,-0.178314 -1.517624,-0.342421 -2.326246,-0.342421 -5.788915,0 -10.229153,4.822294 -9.847283,10.843383 0.214802,3.386867 1.904497,6.43148 4.37657,8.446426 -0.870579,6.894201 0.193121,14.019878 3.607559,20.545359 1.814338,3.467457 4.125943,6.454621 6.827036,9.01713 -0.152487,0.851984 -0.220797,1.70953 -0.16272,2.625239 0.38187,6.021088 5.441025,10.957528 11.22994,10.957528 3.311601,0 6.193247,-1.59925 7.969857,-4.10907 10.188231,1.76331 20.562783,-4.000827 27.744467,-8.317778 0.02651,-0.01356 0.07538,0.01356 0.101866,0 1.721929,1.342319 3.794339,2.118993 6.042506,2.118993 5.37349,0 9.48834,-4.58217 9.13387,-10.171164 -0.0834,-1.315741 -0.4319,-2.559717 -0.94822,-3.708235 5.86811,-7.388107 8.05424,-16.781229 7.4723,-25.151833 2.60732,-1.651075 4.22533,-4.708868 4.00333,-8.209469 -0.33495,-5.28123 -4.77245,-9.611083 -9.85002,-9.611083 -0.50254,0 -0.95485,0.118657 -1.43114,0.20023 C 103.49494,31.61719 93.786703,26.014289 83.361767,25.826228 81.561971,22.450257 78.100785,20.104949 74.238601,20.104949 z m 10.096136,13.031803 c 7.776377,0.324596 15.076704,4.391384 19.720503,9.15086 -1.11618,1.629085 -1.69062,3.697241 -1.55047,5.906812 0.29308,4.62108 3.74781,8.428938 8.00213,9.310739 0.15242,6.048288 -1.68892,13.061628 -6.01854,18.753082 -1.36725,-0.686503 -2.8698,-1.059496 -4.44736,-1.059496 -5.373479,0 -9.393201,4.476219 -9.038735,10.065212 0.03738,0.589524 0.183573,1.132272 0.311241,1.695195 -8.425393,4.39474 -14.728549,8.549846 -22.160903,7.141451 -0.717576,-5.693306 -5.517826,-10.272679 -11.076765,-10.272679 -2.119598,0 -4.121363,0.577594 -5.70761,1.712114 -1.646606,-1.719433 -3.086979,-3.674792 -4.210073,-5.821185 -2.390375,-4.568346 -3.293513,-9.606951 -2.799408,-14.724175 5.50583,-0.312947 9.66777,-5.022304 9.298585,-10.843384 -0.148816,-2.346455 -0.929193,-4.509875 -2.26372,-6.277749 3.389244,-4.358508 8.322127,-7.965566 13.460195,-10.604762 0.584702,-0.30032 1.190006,-0.579201 1.779796,-0.847598 1.917248,2.396659 4.763124,3.920137 7.88843,3.920137 4.365951,0 7.83067,-3.072414 8.812704,-7.204574 z"
       id="path22"
       sodipodi:nodetypes="scscsscscsscccssccssccsccsccssccscscscccsc" />
  </g>
</svg>
