<?xml version="1.0" encoding="UTF-8" standalone="no"?>
<!-- Created with Inkscape (http://www.inkscape.org/) -->

<svg
   xmlns:dc="http://purl.org/dc/elements/1.1/"
   xmlns:cc="http://creativecommons.org/ns#"
   xmlns:rdf="http://www.w3.org/1999/02/22-rdf-syntax-ns#"
   xmlns:svg="http://www.w3.org/2000/svg"
   xmlns="http://www.w3.org/2000/svg"
   xmlns:xlink="http://www.w3.org/1999/xlink"
   xmlns:sodipodi="http://sodipodi.sourceforge.net/DTD/sodipodi-0.dtd"
   xmlns:inkscape="http://www.inkscape.org/namespaces/inkscape"
   width="128"
   height="128"
   id="svg52672"
   sodipodi:version="0.32"
   inkscape:version="0.48.3.1 r9886"
   version="1.0"
   sodipodi:docname="gnome-session-halt.svg"
   inkscape:output_extension="org.inkscape.output.svg.inkscape">
  <defs
     id="defs52674">
    <linearGradient
       y2="976.64746"
       x2="492.41547"
       y1="945.42371"
       x1="495.48636"
       gradientTransform="matrix(2.7463541,0,0,2.7462405,-1329.1225,-2580.7257)"
       gradientUnits="userSpaceOnUse"
       id="linearGradient32013"
       xlink:href="#linearGradient12336"
       inkscape:collect="always" />
    <linearGradient
       y2="982.72186"
       x2="516.07599"
       y1="959.34686"
       x1="517.87469"
       gradientTransform="matrix(2.6974343,0,0,2.6974343,-1308.8225,-2535.5507)"
       gradientUnits="userSpaceOnUse"
       id="linearGradient32015"
       xlink:href="#linearGradient12336"
       inkscape:collect="always" />
    <linearGradient
       y2="961.01263"
       x2="513.22931"
       y1="947.51263"
       x1="508.23962"
       gradientTransform="matrix(2.6974343,0,0,2.6974343,-1308.8225,-2535.5507)"
       gradientUnits="userSpaceOnUse"
       id="linearGradient32017"
       xlink:href="#linearGradient12336"
       inkscape:collect="always" />
    <linearGradient
       y2="945.63763"
       x2="508.23962"
       y1="984.01263"
       x1="508.23962"
       gradientTransform="matrix(2.6974343,0,0,2.6974343,-1308.8225,-2535.5507)"
       gradientUnits="userSpaceOnUse"
       id="linearGradient32019"
       xlink:href="#linearGradient5344"
       inkscape:collect="always" />
    <linearGradient
       y2="954.51263"
       x2="509.10428"
       y1="931.61798"
       x1="509.10428"
       gradientTransform="matrix(2.6974343,0,0,2.6974343,-1308.8225,-2535.5507)"
       gradientUnits="userSpaceOnUse"
       id="linearGradient32021"
       xlink:href="#linearGradient5362"
       inkscape:collect="always" />
    <linearGradient
       y2="970.9136"
       x2="511.48921"
       y1="970.9136"
       x1="506.25519"
       gradientTransform="matrix(3.6074757,0,0,3.6074757,-1767.7025,-3437.4985)"
       gradientUnits="userSpaceOnUse"
       id="linearGradient32023"
       xlink:href="#linearGradient12336"
       inkscape:collect="always" />
    <linearGradient
       y2="960.07947"
       x2="509.25"
       y1="1005.2045"
       x1="510.1875"
       gradientTransform="matrix(2.6974343,0,0,2.6974343,-1308.8225,-2535.5507)"
       gradientUnits="userSpaceOnUse"
       id="linearGradient32025"
       xlink:href="#linearGradient5344"
       inkscape:collect="always" />
    <linearGradient
       y2="961.72186"
       x2="521.45099"
       y1="995.34686"
       x1="518.24969"
       gradientTransform="matrix(2.6974343,0,0,2.6974343,-1308.8225,-2535.5507)"
       gradientUnits="userSpaceOnUse"
       id="linearGradient32027"
       xlink:href="#linearGradient5344"
       inkscape:collect="always" />
    <linearGradient
       inkscape:collect="always"
       id="linearGradient8811">
      <stop
         style="stop-color:#ffffff;stop-opacity:1;"
         offset="0"
         id="stop8813" />
      <stop
         style="stop-color:#ffffff;stop-opacity:0;"
         offset="1"
         id="stop8815" />
    </linearGradient>
    <linearGradient
       y2="967.73718"
       x2="498.875"
       y1="935.09094"
       x1="498.875"
       gradientTransform="matrix(2.6974343,0,0,2.6974343,-1308.8225,-2535.5507)"
       gradientUnits="userSpaceOnUse"
       id="linearGradient32029"
       xlink:href="#linearGradient8811"
       inkscape:collect="always" />
    <linearGradient
       y2="977.25409"
       x2="520.09509"
       y1="949.08014"
       x1="496.11346"
       gradientTransform="matrix(2.7463541,0,0,2.7462405,-1330.137,-2580.9641)"
       gradientUnits="userSpaceOnUse"
       id="linearGradient32031"
       xlink:href="#linearGradient12336"
       inkscape:collect="always" />
    <linearGradient
       inkscape:collect="always"
       xlink:href="#linearGradient9863"
       id="linearGradient11240"
       x1="371.70312"
       y1="846.59558"
       x2="371.70312"
       y2="799.56122"
       gradientUnits="userSpaceOnUse"
       gradientTransform="matrix(2.6974343,0,0,2.6974343,-941.97144,-2157.9099)" />
    <linearGradient
       id="linearGradient9863">
      <stop
         style="stop-color:#2f445a;stop-opacity:1;"
         offset="0"
         id="stop9865" />
      <stop
         style="stop-color:#415f7c;stop-opacity:1"
         offset="1"
         id="stop9867" />
    </linearGradient>
    <linearGradient
       id="linearGradient12336">
      <stop
         id="stop12338"
         offset="0"
         style="stop-color:#ff6e00;stop-opacity:1;" />
      <stop
         id="stop12340"
         offset="1"
         style="stop-color:#eb2600;stop-opacity:1;" />
    </linearGradient>
    <linearGradient
       id="linearGradient5362">
      <stop
         style="stop-color:#ffffff;stop-opacity:1;"
         offset="0"
         id="stop5364" />
      <stop
         style="stop-color:#ffffff;stop-opacity:0;"
         offset="1"
         id="stop5366" />
    </linearGradient>
    <linearGradient
       id="linearGradient5344">
      <stop
         style="stop-color:#000000;stop-opacity:1;"
         offset="0"
         id="stop5346" />
      <stop
         style="stop-color:#000000;stop-opacity:0;"
         offset="1"
         id="stop5348" />
    </linearGradient>
  </defs>
  <sodipodi:namedview
     id="base"
     pagecolor="#ffffff"
     bordercolor="#666666"
     borderopacity="1.0"
     inkscape:pageopacity="0.0"
     inkscape:pageshadow="2"
     inkscape:zoom="2"
     inkscape:cx="93.697845"
     inkscape:cy="89.867876"
     inkscape:document-units="px"
     inkscape:current-layer="layer1"
     showgrid="false"
     inkscape:window-width="1024"
     inkscape:window-height="713"
     inkscape:window-x="0"
     inkscape:window-y="0"
     inkscape:window-maximized="0" />
  <metadata
     id="metadata52677">
    <rdf:RDF>
      <cc:Work
         rdf:about="">
        <dc:format>image/svg+xml</dc:format>
        <dc:type
           rdf:resource="http://purl.org/dc/dcmitype/StillImage" />
      </cc:Work>
    </rdf:RDF>
  </metadata>
  <g
     inkscape:label="Capa 1"
     inkscape:groupmode="layer"
     id="layer1">
    <path
       style="fill:url(#linearGradient32013);fill-opacity:1;stroke:none;stroke-width:7.4000001;stroke-linecap:round;stroke-linejoin:round;stroke-miterlimit:4;stroke-dashoffset:0;stroke-opacity:1;display:inline"
       d="M 32.125482,14.046839 C 17.116768,24.527585 8.012873,44.023695 8.0312156,65.197392 C 8.0496121,86.413791 17.344242,105.39135 33.403958,114.08839 C 41.174726,118.29638 53.214994,120.98751 64.087272,120.91627 C 89.852085,120.74525 104.87555,91.598448 105.64462,61.404125 C 105.64462,45.350752 101.63189,31.064412 94.854882,20.858319 L 87.858412,30.636518 C 94.841718,38.088369 98.816738,49.419076 98.816738,62.162778 C 98.262065,84.526909 86.959249,103.09842 68.976372,105.57461 C 44.35376,108.96504 29.042611,88.431067 29.020627,65.113097 C 29.006465,49.996894 35.302196,36.057498 45.711001,28.107673 L 41.483555,13.109184 L 32.125482,14.046839 z"
       id="path31931"
       sodipodi:nodetypes="csssccccssccc" />
    <path
       style="fill:url(#linearGradient32015);fill-rule:evenodd;stroke:none;stroke-width:1px;stroke-linecap:butt;stroke-linejoin:miter;stroke-opacity:1;display:inline"
       d="M 92.680237,14.994394 L 85.652477,15.872759 C 83.802738,16.120896 81.841515,16.675111 81.047876,17.879623 C 78.603703,21.28071 77.622458,26.324481 80.759115,30.730254 C 87.165387,39.785541 90.875249,49.096301 91.00103,61.605839 C 90.43964,89.654327 77.326954,97.856685 65.082922,100.34936 C 56.981988,101.79804 49.250871,100.93292 42.254024,98.203602 L 55.387777,113.05697 L 84.395068,108.57494 L 103.82644,62.67877 L 92.680237,14.994394 z"
       id="path31935"
       sodipodi:nodetypes="ccccccccccc" />
    <path
       id="path31937"
       d="M 60.188266,3.1217176 C 55.473016,3.6416211 52.365302,8.7787228 52.370292,14.114733 C 52.370319,14.142382 52.370103,14.171433 52.370292,14.199028 L 52.370292,64.944507 C 52.370157,64.973235 52.370265,65.000047 52.370292,65.028802 C 52.3762,71.251001 56.497286,75.003806 62.82285,75.692083 C 63.141066,75.726718 66.739686,76.156177 67.043309,76.139183 C 71.444794,75.892826 71.122612,69.85284 71.252332,64.270149 C 71.261099,63.892724 71.192044,63.536527 71.168037,63.174316 L 71.589511,13.313919 C 71.589511,7.0422764 73.286548,2.6174053 68.344174,2.2291636 L 60.188266,3.1217176 z"
       style="fill:url(#linearGradient32017);fill-opacity:1;stroke:none;stroke-width:7.4000001;stroke-linecap:round;stroke-linejoin:round;stroke-miterlimit:4;stroke-dashoffset:0;stroke-opacity:1;display:inline"
       sodipodi:nodetypes="csccsssscccc" />
    <path
       sodipodi:nodetypes="csccsssscccc"
       style="fill:url(#linearGradient32019);fill-opacity:1;stroke:none;stroke-width:7.4000001;stroke-linecap:round;stroke-linejoin:round;stroke-miterlimit:4;stroke-dashoffset:0;stroke-opacity:1;display:inline"
       d="M 60.188266,3.1217176 C 55.473016,3.6416211 52.365302,8.7787228 52.370292,14.114733 C 52.370319,14.142382 52.370103,14.171433 52.370292,14.199028 L 52.370292,64.944507 C 52.370157,64.973235 52.370265,65.000047 52.370292,65.028802 C 52.3762,71.251001 56.497286,75.003806 62.82285,75.692083 C 63.141066,75.726718 66.739686,76.156177 67.043309,76.139183 C 71.444794,75.892826 71.122612,69.85284 71.252332,64.270149 C 71.261099,63.892724 71.192044,63.536527 71.168037,63.174316 L 71.589511,13.313919 C 71.589511,7.0422764 73.286548,2.6174053 68.344174,2.2291636 L 60.188266,3.1217176 z"
       id="path31939" />
    <path
       id="path31941"
       d="M 60.188266,3.1217176 C 55.473016,3.6416211 52.365302,8.7787228 52.370292,14.114733 C 52.370319,14.142382 52.370103,14.171433 52.370292,14.199028 L 52.370292,64.944507 C 52.370157,64.973235 52.370265,65.000047 52.370292,65.028802 C 52.3762,71.251001 56.497286,75.003806 62.82285,75.692083 C 63.141066,75.726718 66.739686,76.156177 67.043309,76.139183 C 71.444794,75.892826 71.122612,69.85284 71.252332,64.270149 C 71.261099,63.892724 71.192044,63.536527 71.168037,63.174316 L 71.589511,13.313919 C 71.589511,7.0422764 73.286548,2.6174053 68.344174,2.2291636 L 60.188266,3.1217176 z"
       style="fill:url(#linearGradient32021);fill-opacity:1;stroke:none;stroke-width:7.4000001;stroke-linecap:round;stroke-linejoin:round;stroke-miterlimit:4;stroke-dashoffset:0;stroke-opacity:1;display:inline"
       sodipodi:nodetypes="csccsssscccc" />
    <path
       style="fill:url(#linearGradient32023);fill-opacity:1;stroke:none;stroke-width:7.4000001;stroke-linecap:round;stroke-linejoin:round;stroke-miterlimit:4;stroke-dashoffset:0;stroke-opacity:1;display:inline"
       d="M 68.049129,2.3134584 C 62.404828,2.556767 58.602444,7.877483 58.608109,13.946144 C 58.608136,13.973792 58.60792,14.002844 58.608109,14.030438 L 58.608109,65.450276 C 58.607974,65.479004 58.608082,65.505816 58.608109,65.534571 C 58.614016,71.75677 62.692941,77.195471 69.229256,76.071423 C 74.117762,75.230714 77.342113,70.743613 77.490149,64.775918 C 77.490149,64.398385 77.429861,64.042296 77.405854,63.680085 L 77.490149,13.18749 C 77.490149,6.9158477 74.087335,2.7017001 69.144961,2.3134584 C 68.752701,2.2826267 68.425421,2.2972468 68.049129,2.3134584 z"
       id="path31943" />
    <path
       sodipodi:nodetypes="csssccccssccc"
       id="path31945"
       d="M 32.125482,14.046839 C 17.116768,24.527585 8.012873,44.023695 8.0312156,65.197392 C 8.0496121,86.413791 17.344242,105.39135 33.403958,114.08839 C 41.174726,118.29638 53.214994,120.98751 64.087272,120.91627 C 89.852085,120.74525 104.87555,91.598448 105.64462,61.404125 C 105.64462,45.350752 101.63189,31.064412 94.854882,20.858319 L 87.858412,30.636518 C 94.841718,38.088369 98.816738,49.419076 98.816738,62.162778 C 98.262065,84.526909 86.959249,103.09842 68.976372,105.57461 C 44.35376,108.96504 29.042611,88.431067 29.020627,65.113097 C 29.006465,49.996894 35.302196,36.057498 45.711001,28.107673 L 41.483555,13.109184 L 32.125482,14.046839 z"
       style="fill:url(#linearGradient32025);fill-opacity:1;stroke:none;stroke-width:7.4000001;stroke-linecap:round;stroke-linejoin:round;stroke-miterlimit:4;stroke-dashoffset:0;stroke-opacity:1;display:inline" />
    <path
       sodipodi:nodetypes="ccccccccccc"
       id="path31947"
       d="M 92.680237,14.994394 L 85.652477,15.872759 C 83.802738,16.120896 81.841515,16.675111 81.047876,17.879623 C 78.603703,21.28071 77.622458,26.324481 80.759115,30.730254 C 87.165387,39.785541 90.91741,49.096301 91.043191,61.605839 C 90.481801,89.654327 77.326954,97.856685 65.082922,100.34936 C 56.981988,101.79804 49.250871,100.93292 42.254024,98.203602 L 55.387777,113.05697 L 84.395068,108.57494 L 103.82644,62.67877 L 92.680237,14.994394 z"
       style="fill:url(#linearGradient32027);fill-rule:evenodd;stroke:none;stroke-width:1px;stroke-linecap:butt;stroke-linejoin:miter;stroke-opacity:1;display:inline" />
    <path
       sodipodi:nodetypes="ccsssccccccccccscc"
       style="fill:url(#linearGradient32029);fill-opacity:1;stroke:none;stroke-width:7.4000001;stroke-linecap:round;stroke-linejoin:round;stroke-miterlimit:4;stroke-dashoffset:0;stroke-opacity:1;display:inline"
       d="M 41.49626,13.103195 L 32.139535,14.030438 C 17.130848,24.51113 8.012873,44.023695 8.0312156,65.197392 C 8.0496121,86.413791 17.344242,105.39135 33.403958,114.08839 C 41.174726,118.29638 53.214994,120.98751 64.087272,120.91627 C 89.852085,120.74525 104.87555,91.598448 105.64462,61.404125 C 105.64462,45.350752 101.63189,31.064412 94.854882,20.858319 L 94.264818,21.701267 L 92.663216,14.957681 L 85.666746,15.884924 C 83.817062,16.133088 81.82417,16.703488 81.030531,17.908 C 78.586413,21.309033 77.640989,26.31504 80.777647,30.720813 C 87.183999,39.776154 90.935833,49.063177 91.061615,61.572714 C 90.500225,89.621229 77.342842,97.85566 65.09881,100.34833 C 57.31005,101.74123 49.878969,100.97921 43.097862,98.493846 C 34.132777,90.943026 29.033251,78.504105 29.020627,65.113097 C 29.006465,49.996894 35.302196,36.057498 45.711001,28.107673 L 41.49626,13.103195 z"
       id="path31949" />
    <path
       style="fill:url(#linearGradient32031);fill-opacity:1;stroke:none;stroke-width:7.4000001;stroke-linecap:round;stroke-linejoin:round;stroke-miterlimit:4;stroke-dashoffset:0;stroke-opacity:1;display:inline"
       d="M 42.507798,13.103195 C 40.543473,12.948821 38.848783,13.696011 37.534404,14.873387 C 37.481777,14.911313 37.41952,14.91722 37.365814,14.957681 C 23.472759,26.085785 15.176962,45.014463 15.196275,65.534571 C 15.226702,97.872761 36.607053,126.0845 70.577973,120.24191 C 95.984837,115.87261 112.54614,92.41944 113.31545,61.404125 C 113.31545,42.479927 107.44052,27.146686 97.468021,17.233642 L 97.383726,17.317936 C 96.289863,16.046285 94.841556,15.264245 93.08469,15.126271 C 88.312066,14.751193 85.07207,19.054868 85.076682,23.977227 C 85.079191,26.638678 86.107237,29.053906 87.858412,30.552223 L 87.858412,30.636518 C 94.841718,38.088369 98.816738,49.419076 98.816738,62.162778 C 98.262065,84.526909 86.959249,103.09842 68.976372,105.57461 C 44.35376,108.96504 30.473141,88.311868 30.451157,64.993897 C 30.437346,50.258788 35.114832,36.949296 45.05771,28.908488 C 45.087786,28.884157 45.111847,28.848416 45.142005,28.824193 C 45.391895,28.663723 45.588942,28.427104 45.816363,28.234129 C 47.594566,26.725265 48.588193,24.143956 48.66132,21.195498 C 48.66132,16.53568 46.180031,13.391605 42.507798,13.103195 z"
       id="path31951"
       sodipodi:nodetypes="csssscccsscccssssscc" />
    <path
       id="path9031"
       d="M 68.386308,2.2291636 L 60.20971,3.1564066 C 55.494514,3.676364 52.365302,8.7787228 52.370292,14.114733 C 52.370319,14.142382 52.370103,14.171433 52.370292,14.199028 L 52.370292,64.944507 C 52.370157,64.973235 52.370265,65.000047 52.370292,65.028802 C 52.3762,71.251001 56.497286,74.961672 62.82285,75.649949 C 63.032899,75.672797 64.427041,75.862157 65.604579,75.987129 C 66.032014,76.088984 66.408306,76.122405 66.869001,76.155718 C 66.890823,76.156393 67.025614,76.156393 67.037591,76.155718 C 67.727783,76.193132 68.470279,76.201952 69.229256,76.071423 C 74.117762,75.230714 77.342113,70.743613 77.490149,64.775918 C 77.490149,64.398385 77.429861,64.042296 77.405854,63.680085 L 77.490149,13.18749 C 77.490149,6.9158477 74.087335,2.7017001 69.144961,2.3134584 C 68.994094,2.3015897 68.861623,2.3143755 68.723487,2.3134584 C 68.595575,2.2963567 68.524417,2.2400073 68.386308,2.2291636 z M 41.49626,13.103195 L 41.074786,13.18749 L 32.139535,14.030438 C 17.130848,24.51113 8.012873,44.023695 8.0312156,65.197392 C 8.0496121,86.413791 17.344242,105.39135 33.403958,114.08839 C 38.39672,116.79205 45.126117,118.86808 52.201703,119.98902 C 55.939025,120.81126 59.884858,121.11547 64.087272,120.91627 C 64.173428,120.9157 64.254243,120.91748 64.340157,120.91627 C 64.394456,120.91341 64.454366,120.91932 64.508746,120.91627 C 66.592541,120.87621 68.638167,120.64755 70.577973,120.24191 C 70.749341,120.21243 70.913183,120.18882 71.083742,120.15761 C 71.257565,120.11834 71.416902,120.0311 71.589511,119.98902 C 96.406823,115.16512 112.55669,91.993704 113.31545,61.404125 C 113.31545,42.479927 107.44052,27.146686 97.468021,17.233642 L 97.383726,17.317936 C 96.289863,16.046285 94.841556,15.264245 93.08469,15.126271 C 92.96568,15.116911 92.864607,15.129859 92.747511,15.126271 L 92.663216,14.957681 L 85.666746,15.884924 C 83.816981,16.133088 81.82417,16.703488 81.030531,17.908 C 78.586332,21.309033 77.640989,26.31504 80.777647,30.720813 C 87.183918,39.776154 90.851539,49.063177 90.97732,61.572714 C 90.41593,89.621229 77.342842,97.85566 65.09881,100.34833 C 57.726614,101.66673 50.678677,101.09058 44.193695,98.91532 C 35.270555,91.386511 30.466533,78.70857 30.453639,65.028802 C 30.439828,50.293692 35.093765,36.99143 45.036643,28.950622 C 45.066719,28.926318 45.09078,28.89055 45.120938,28.866327 C 45.370828,28.705883 45.567875,28.469238 45.795296,28.276263 C 47.573499,26.767426 48.588193,24.143956 48.66132,21.195498 C 48.66132,16.53568 46.180031,13.391605 42.507798,13.103195 C 42.160665,13.075924 41.825941,13.161055 41.49626,13.18749 L 41.49626,13.103195 z"
       style="fill:none;fill-opacity:1;stroke:url(#linearGradient11240);stroke-width:2.69743419;stroke-linecap:round;stroke-linejoin:round;stroke-miterlimit:4;stroke-dasharray:none;stroke-dashoffset:0;stroke-opacity:1;display:inline" />
  </g>
</svg>
