<?xml version="1.0" encoding="UTF-8" standalone="no"?>
<!-- Created with Inkscape (http://www.inkscape.org/) -->

<svg
   xmlns:dc="http://purl.org/dc/elements/1.1/"
   xmlns:cc="http://creativecommons.org/ns#"
   xmlns:rdf="http://www.w3.org/1999/02/22-rdf-syntax-ns#"
   xmlns:svg="http://www.w3.org/2000/svg"
   xmlns="http://www.w3.org/2000/svg"
   xmlns:xlink="http://www.w3.org/1999/xlink"
   xmlns:sodipodi="http://sodipodi.sourceforge.net/DTD/sodipodi-0.dtd"
   xmlns:inkscape="http://www.inkscape.org/namespaces/inkscape"
   width="128"
   height="128"
   id="svg52672"
   sodipodi:version="0.32"
   inkscape:version="0.48.3.1 r9886"
   version="1.0"
   sodipodi:docname="gnome-session-reboot.svg"
   inkscape:output_extension="org.inkscape.output.svg.inkscape">
  <defs
     id="defs52674">
    <linearGradient
       y2="976.85352"
       x2="489.08588"
       y1="941.43011"
       x1="495.83362"
       gradientTransform="matrix(2.7250645,0,0,2.7249519,-1321.7184,-2561.8569)"
       gradientUnits="userSpaceOnUse"
       id="linearGradient32033"
       xlink:href="#linearGradient2481"
       inkscape:collect="always" />
    <linearGradient
       y2="955.362"
       x2="516.24847"
       y1="976.92877"
       x1="510.04871"
       gradientTransform="matrix(2.6765239,0,0,2.6765239,-1297.6059,-2514.903)"
       gradientUnits="userSpaceOnUse"
       id="linearGradient32035"
       xlink:href="#linearGradient2481"
       inkscape:collect="always" />
    <linearGradient
       y2="956.01135"
       x2="499.43576"
       y1="936.30072"
       x1="502.97885"
       gradientTransform="matrix(2.7250645,0,0,2.7249519,-1321.7184,-2561.8569)"
       gradientUnits="userSpaceOnUse"
       id="linearGradient32037"
       xlink:href="#linearGradient5362"
       inkscape:collect="always" />
    <linearGradient
       y2="968.64575"
       x2="497.81961"
       y1="992.24542"
       x1="504.93024"
       gradientTransform="matrix(2.7250645,0,0,2.7249519,-1321.7184,-2561.8569)"
       gradientUnits="userSpaceOnUse"
       id="linearGradient32039"
       xlink:href="#linearGradient5344"
       inkscape:collect="always" />
    <linearGradient
       y2="979.33771"
       x2="519.22742"
       y1="949.08014"
       x1="496.11346"
       gradientTransform="matrix(2.7250645,0,0,2.7249519,-1321.7184,-2561.8569)"
       gradientUnits="userSpaceOnUse"
       id="linearGradient32041"
       xlink:href="#linearGradient2481"
       inkscape:collect="always" />
    <linearGradient
       y2="962.43312"
       x2="523.03125"
       y1="935.43311"
       x1="513.78125"
       gradientTransform="matrix(2.6765239,0,0,2.6765239,-1298.7888,-2514.903)"
       gradientUnits="userSpaceOnUse"
       id="linearGradient32043"
       xlink:href="#linearGradient5344"
       inkscape:collect="always" />
    <linearGradient
       inkscape:collect="always"
       xlink:href="#linearGradient9863"
       id="linearGradient11242"
       x1="322.9375"
       y1="846.58838"
       x2="322.9375"
       y2="799.43402"
       gradientUnits="userSpaceOnUse"
       gradientTransform="matrix(2.6765239,0,0,2.6765239,-784.8962,-2140.1897)" />
    <linearGradient
       id="linearGradient9863">
      <stop
         style="stop-color:#2f445a;stop-opacity:1;"
         offset="0"
         id="stop9865" />
      <stop
         style="stop-color:#415f7c;stop-opacity:1"
         offset="1"
         id="stop9867" />
    </linearGradient>
    <linearGradient
       id="linearGradient2481">
      <stop
         id="stop2483"
         offset="0"
         style="stop-color:#87c6ff;stop-opacity:1;" />
      <stop
         style="stop-color:#75aadb;stop-opacity:1;"
         offset="0.5"
         id="stop3944" />
      <stop
         id="stop2485"
         offset="1"
         style="stop-color:#75aadb;stop-opacity:1;" />
    </linearGradient>
    <linearGradient
       id="linearGradient5362">
      <stop
         style="stop-color:#ffffff;stop-opacity:1;"
         offset="0"
         id="stop5364" />
      <stop
         style="stop-color:#ffffff;stop-opacity:0;"
         offset="1"
         id="stop5366" />
    </linearGradient>
    <linearGradient
       id="linearGradient5344">
      <stop
         style="stop-color:#000000;stop-opacity:1;"
         offset="0"
         id="stop5346" />
      <stop
         style="stop-color:#000000;stop-opacity:0;"
         offset="1"
         id="stop5348" />
    </linearGradient>
  </defs>
  <sodipodi:namedview
     id="base"
     pagecolor="#ffffff"
     bordercolor="#666666"
     borderopacity="1.0"
     inkscape:pageopacity="0.0"
     inkscape:pageshadow="2"
     inkscape:zoom="2.8284271"
     inkscape:cx="97.403069"
     inkscape:cy="62.738341"
     inkscape:document-units="px"
     inkscape:current-layer="layer1"
     showgrid="false"
     inkscape:window-width="1024"
     inkscape:window-height="713"
     inkscape:window-x="0"
     inkscape:window-y="0"
     inkscape:window-maximized="0" />
  <metadata
     id="metadata52677">
    <rdf:RDF>
      <cc:Work
         rdf:about="">
        <dc:format>image/svg+xml</dc:format>
        <dc:type
           rdf:resource="http://purl.org/dc/dcmitype/StillImage" />
      </cc:Work>
    </rdf:RDF>
  </metadata>
  <g
     inkscape:label="Capa 1"
     inkscape:groupmode="layer"
     id="layer1">
    <path
       style="fill:url(#linearGradient32033);fill-opacity:1;stroke:none;stroke-width:7.4000001;stroke-linecap:round;stroke-linejoin:round;stroke-miterlimit:4;stroke-dashoffset:0;stroke-opacity:1;display:inline"
       d="M 60.718077,3.7059795 C 52.834242,3.8978863 44.534288,5.440822 38.636755,7.637124 C 33.99494,9.4037904 29.735305,12.00762 25.923265,15.164848 C 24.860979,16.09601 24.278247,17.160196 23.832231,18.594144 C 22.885437,22.539688 24.005188,25.262783 26.843321,27.292846 C 27.568847,27.844023 28.460932,28.016204 29.268921,27.961977 L 38.804038,27.627412 C 40.725166,27.648583 42.207934,26.958388 43.571596,25.870943 C 49.92189,20.690424 57.824353,17.864845 66.907539,18.594144 C 85.295927,20.069658 97.854846,36.07586 97.854846,59.912979 C 97.667168,67.643315 96.125517,74.716913 93.505495,80.823322 L 98.69126,81.408812 C 100.56113,74.526291 101.68032,67.1795 101.86963,59.745696 C 101.86963,32.090783 89.957736,9.7955264 72.344228,4.6260346 C 69.796284,4.0864474 66.999825,3.7856864 64.063732,3.7059795 C 62.96269,3.6760828 61.844332,3.6785719 60.718077,3.7059795 z M 24.166796,37.748018 L 14.63168,37.915301 C 11.238757,38.295153 8.9045341,40.372376 8.1076526,43.101066 C 6.1604279,49.556226 5.0067391,56.480203 5.0129218,63.593199 C 5.0311222,84.64513 14.337396,103.47579 30.272618,112.1052 C 37.983148,116.28057 49.93008,118.86741 60.718077,118.7965 C 75.909224,118.69568 87.26534,108.37787 94.174626,93.787735 C 93.976349,93.615099 93.801304,93.439171 93.589136,93.285886 C 90.41775,91.062552 87.28892,92.124409 84.974075,93.704093 C 80.164469,98.468707 74.143655,101.69207 67.242104,102.90464 C 42.923663,107.17726 27.617827,86.573566 27.596094,62.924068 C 27.590821,57.238837 28.421908,51.730741 30.021693,46.614003 C 30.706455,42.077697 28.094114,38.677334 24.166796,37.748018 z"
       id="path31955" />
    <path
       style="fill:url(#linearGradient32035);fill-opacity:1;stroke:none;stroke-width:7.4000001;stroke-linecap:round;stroke-linejoin:round;stroke-miterlimit:4;stroke-dashoffset:0;stroke-opacity:1;display:inline"
       d="M 67.493028,18.677785 C 80.074591,24.108425 88.068806,38.082583 88.068806,57.152814 C 87.934123,62.761871 87.085585,67.997767 85.643206,72.79375 L 85.726847,72.79375 C 85.08756,75.78316 87.102607,79.864859 90.327123,80.488756 L 101.11686,81.952494 C 98.185424,81.225496 95.27714,76.228988 95.933263,73.75307 C 97.071802,69.456848 97.735794,64.817067 97.854846,59.912979 C 97.854793,36.330932 85.559725,20.444291 67.493028,18.677785 z M 73.515207,92.365831 C 69.169121,96.109378 63.989057,98.684462 58.125194,99.726272 C 53.854774,100.4848 49.914877,100.42832 46.24812,99.726272 C 52.102159,102.98521 59.176239,104.32186 67.242104,102.90464 C 74.143655,101.69207 88.361296,98.050527 93.170929,93.285886 L 91.012982,92.085813 L 83.805986,91.015257 C 78.810415,90.17416 75.340114,90.854398 73.515207,92.365831 z"
       id="path31957"
       sodipodi:nodetypes="ccccccscccscscccc" />
    <path
       style="fill:url(#linearGradient32037);fill-opacity:1;stroke:none;stroke-width:7.4000001;stroke-linecap:round;stroke-linejoin:round;stroke-miterlimit:4;stroke-dashoffset:0;stroke-opacity:1;display:inline"
       d="M 61.554491,3.7059795 C 53.376238,3.5884801 43.083692,5.6300255 36.54572,8.4735378 C 32.880167,10.06789 29.608171,12.188821 26.508754,14.662999 L 26.006906,15.081206 C 22.169172,18.690954 22.71976,25.043389 27.177887,27.543771 C 27.943266,27.94094 28.957267,28.056352 29.854411,27.961977 L 38.804038,27.627412 C 40.691094,27.656747 42.392533,26.537746 43.738878,25.536378 C 43.802178,25.553588 43.843611,25.602354 43.906161,25.620019 C 50.202978,20.605177 57.977584,17.87713 66.907539,18.594144 C 70.791094,18.905771 74.399825,19.893061 77.697276,21.43795 C 75.588094,11.673376 70.127102,3.9440831 61.554491,3.7059795 z M 21.99212,37.497094 C 19.572115,37.425577 16.638671,37.784338 14.63168,37.915301 C 11.885245,38.098696 9.0051981,40.282793 7.7730871,43.770197 L 28.683431,52.050693 C 29.052604,50.198779 29.470008,48.378502 30.021693,46.614003 C 30.706455,42.077697 28.094114,38.677334 24.166796,37.748018 C 23.51715,37.609963 22.798798,37.520942 21.99212,37.497094 z"
       id="path31959" />
    <path
       style="fill:url(#linearGradient32039);fill-opacity:1;stroke:none;stroke-width:7.4000001;stroke-linecap:round;stroke-linejoin:round;stroke-miterlimit:4;stroke-dashoffset:0;stroke-opacity:1;display:inline"
       d="M 61.646831,118.8321 C 53.67079,119.97846 42.569104,116.94997 36.174888,114.71507 C 20.431038,109.21241 9.862007,94.650244 6.3412807,76.886423 C 5.7597791,73.952417 15.787563,74.554314 26.573767,75.768492 C 28.842685,86.194891 37.45887,96.591822 44.451771,99.791579 C 56.443106,107.08746 73.121116,104.78389 85.36565,94.828207 C 89.920238,102.88425 84.983657,112.13397 61.646831,118.8321 z"
       id="path31961"
       sodipodi:nodetypes="csscccc"
       inkscape:export-filename="/home/dafeba/DCV/tallerD/bocetos/08-09-22-hastaahora.png"
       inkscape:export-xdpi="57.964222"
       inkscape:export-ydpi="57.964222" />
    <path
       style="fill:url(#linearGradient32041);fill-opacity:1;stroke:none;stroke-width:7.4000001;stroke-linecap:round;stroke-linejoin:round;stroke-miterlimit:4;stroke-dashoffset:0;stroke-opacity:1;display:inline"
       d="M 61.805415,3.7896209 C 50.907707,4.2594847 41.400694,8.3850786 33.701914,15.081206 C 29.810248,18.804144 31.296334,23.103819 33.367348,25.536378 C 35.514483,28.265121 38.884735,28.438131 43.738878,25.536378 C 43.796745,25.564669 43.849178,25.591514 43.906161,25.620019 C 50.202978,20.605177 57.977584,17.87713 66.907539,18.594144 C 85.295927,20.069658 97.854846,36.07586 97.854846,59.912979 C 97.735661,64.821403 97.060106,69.495068 95.931095,73.797447 C 95.126478,78.019877 97.142115,81.088298 100.82413,81.952494 C 105.0753,82.413177 107.19835,80.327041 108.14273,77.979515 C 108.15799,77.919641 108.21125,77.872213 108.22638,77.812233 C 109.62805,72.25526 110.41261,66.275344 110.56833,59.99662 C 110.56833,27.654043 93.23166,5.9591844 67.743952,3.9569037 C 65.721035,3.7979449 63.745895,3.7059528 61.805415,3.7896209 z M 22.243045,37.748018 C 19.827455,37.999852 17.149646,39.415974 15.802659,43.435631 C 13.963646,49.784507 13.203219,57.214079 13.209776,64.178689 C 13.239994,96.266196 34.454526,124.17573 68.162159,118.3783 C 79.009308,116.51287 88.213713,111.12171 95.261964,103.15557 C 95.282038,103.1208 95.32604,103.10656 95.345605,103.07193 C 97.92283,98.512228 96.186596,95.162344 93.589136,93.285886 C 90.711418,91.268564 87.872242,91.967805 85.643206,93.285886 C 85.017247,93.75029 84.516095,94.198099 84.05402,94.624148 C 79.407093,98.908648 73.713002,101.76774 67.242104,102.90464 C 42.923663,107.17726 27.617827,86.573566 27.596094,62.924068 C 27.590821,57.238837 28.421908,51.730741 30.021693,46.614003 C 30.706455,42.077697 28.42868,38.760975 24.501362,37.831659 C 23.808035,37.71052 23.04825,37.664082 22.243045,37.748018 z"
       id="path31963"
       sodipodi:nodetypes="cccccscccsscscccsscsccsssccc" />
    <path
       sodipodi:nodetypes="ccccccscccscscccc"
       id="path31965"
       d="M 67.493028,18.677785 C 80.074591,24.108425 88.068806,38.082583 88.068806,57.152814 C 87.934123,62.761871 87.085585,67.997767 85.643206,72.79375 L 85.726847,72.79375 C 85.08756,75.78316 87.102607,79.864859 90.327123,80.488756 L 101.11686,81.952494 C 98.185424,81.225496 95.27714,76.228988 95.933263,73.75307 C 97.071802,69.456848 97.735794,64.817067 97.854846,59.912979 C 97.854793,36.330932 85.559725,20.444291 67.493028,18.677785 z M 73.515207,92.365831 C 69.169121,96.109378 63.989057,98.684462 58.125194,99.726272 C 53.854774,100.4848 49.914877,100.42832 46.24812,99.726272 C 52.102159,102.98521 59.176239,104.32186 67.242104,102.90464 C 74.143655,101.69207 88.361296,98.050527 93.170929,93.285886 L 91.012982,92.085813 L 83.805986,91.015257 C 78.810415,90.17416 75.340114,90.854398 73.515207,92.365831 z"
       style="fill:url(#linearGradient32043);fill-opacity:1;stroke:none;stroke-width:7.4000001;stroke-linecap:round;stroke-linejoin:round;stroke-miterlimit:4;stroke-dashoffset:0;stroke-opacity:1;display:inline" />
    <path
       id="path10838"
       d="M 60.718077,3.7059795 C 52.834242,3.8978863 44.534288,5.440822 38.636755,7.637124 C 33.99494,9.4037904 29.735305,12.00762 25.923265,15.164848 C 24.860979,16.09601 24.278247,17.160196 23.832231,18.594144 C 22.885437,22.539688 24.005188,25.262783 26.843321,27.292846 C 27.568847,27.844023 28.460932,28.016204 29.268921,27.961977 L 35.29838,28.460132 C 38.619919,28.723127 41.075443,27.240868 43.906161,25.620019 C 49.64685,20.987706 56.274244,19.000895 63.645525,18.510502 C 72.502223,18.357566 78.635718,26.459752 82.808205,33.379877 C 86.185416,39.840765 88.068806,47.896487 88.068806,57.152814 C 87.934123,62.761871 87.085585,67.997767 85.643206,72.79375 L 85.726847,72.79375 C 85.08756,75.78316 87.102607,79.864859 90.327123,80.488756 L 100.69865,81.91066 C 100.75767,81.925889 100.80604,81.980249 100.86594,81.994301 L 101.11686,81.994301 C 105.1829,82.33604 107.21917,80.27525 108.14273,77.979515 C 108.15799,77.919641 108.21125,77.872213 108.22638,77.812233 C 109.62805,72.25526 110.41261,66.275344 110.56833,59.99662 C 110.56833,28.662531 94.277752,7.3289491 70.085911,4.2078278 C 69.318792,4.091506 68.544233,4.035299 67.743952,3.9569037 C 66.732494,3.8774377 65.722079,3.8220336 64.732863,3.7896209 C 64.503485,3.780601 64.294903,3.7122426 64.063732,3.7059795 C 62.96269,3.6760828 61.844332,3.6785719 60.718077,3.7059795 z M 14.63168,37.915301 C 11.238757,38.295153 8.9045341,40.372376 8.1076526,43.101066 C 6.1604279,49.556226 5.0067391,56.480203 5.0129218,63.593199 C 5.0311222,84.64513 14.337396,103.47579 30.272618,112.1052 C 35.226676,114.7879 41.903907,116.78887 48.924644,117.87645 C 54.755103,119.30365 61.183632,119.57856 68.162159,118.3783 C 79.009308,116.51287 88.213713,111.12171 95.261964,103.15557 C 95.282038,103.1208 95.32604,103.10656 95.345605,103.07193 C 99.229455,98.822169 96.495841,93.600592 92.418157,92.616755 L 83.803096,91.027569 C 78.807551,90.186418 75.340114,90.854398 73.515207,92.365831 C 69.169121,96.109378 63.989057,98.684462 58.125194,99.726272 C 53.854774,100.4848 49.914877,100.42832 46.24812,99.726272 C 34.452224,93.158243 27.610627,78.729584 27.596094,62.924068 C 27.590821,57.238837 28.421908,51.730741 30.021693,46.614003 C 31.035935,41.535513 28.27668,37.664751 24.166796,37.748018 L 14.63168,37.915301 z"
       style="fill:none;fill-opacity:1;stroke:url(#linearGradient11242);stroke-width:2.67652392;stroke-linecap:round;stroke-linejoin:round;stroke-miterlimit:4;stroke-dasharray:none;stroke-dashoffset:0;stroke-opacity:1;display:inline"
       sodipodi:nodetypes="cccccccccccccccccssccssscccsscscccccscsccc" />
  </g>
</svg>
