<?xml version="1.0" encoding="UTF-8" standalone="no"?>
<!-- Created with Inkscape (http://www.inkscape.org/) -->

<svg
   xmlns:dc="http://purl.org/dc/elements/1.1/"
   xmlns:cc="http://creativecommons.org/ns#"
   xmlns:rdf="http://www.w3.org/1999/02/22-rdf-syntax-ns#"
   xmlns:svg="http://www.w3.org/2000/svg"
   xmlns="http://www.w3.org/2000/svg"
   xmlns:xlink="http://www.w3.org/1999/xlink"
   xmlns:sodipodi="http://sodipodi.sourceforge.net/DTD/sodipodi-0.dtd"
   xmlns:inkscape="http://www.inkscape.org/namespaces/inkscape"
   width="128"
   height="128"
   id="svg6934"
   sodipodi:version="0.32"
   inkscape:version="0.48.3.1 r9886"
   version="1.0"
   sodipodi:docname="aaa-generic.svg"
   inkscape:output_extension="org.inkscape.output.svg.inkscape">
  <defs
     id="defs6936">
    <linearGradient
       id="linearGradient5344">
      <stop
         style="stop-color:#000000;stop-opacity:1;"
         offset="0"
         id="stop5346" />
      <stop
         style="stop-color:#000000;stop-opacity:0;"
         offset="1"
         id="stop5348" />
    </linearGradient>
    <linearGradient
       id="linearGradient5165-7-9-8-2">
      <stop
         id="stop5167-4-8-6-9"
         style="stop-color:#ffffff;stop-opacity:1"
         offset="0" />
      <stop
         id="stop5169-5-5-2-9"
         style="stop-color:#ffffff;stop-opacity:0"
         offset="1" />
    </linearGradient>
    <linearGradient
       inkscape:collect="always"
       xlink:href="#linearGradient5344"
       id="linearGradient3107"
       gradientUnits="userSpaceOnUse"
       gradientTransform="matrix(5.3340639,0,0,5.3340639,-1451.4802,-5864.5574)"
       x1="305.23422"
       y1="1137.0681"
       x2="283.35095"
       y2="1104.2024" />
    <linearGradient
       inkscape:collect="always"
       xlink:href="#linearGradient5344-50"
       id="linearGradient13031-7"
       gradientUnits="userSpaceOnUse"
       gradientTransform="matrix(2.3371908,-0.19593194,0,2.3371908,-1123.3759,-2035.152)"
       x1="516.625"
       y1="949.4657"
       x2="516.625"
       y2="953.45752" />
    <linearGradient
       id="linearGradient5344-50">
      <stop
         style="stop-color:#000000;stop-opacity:1;"
         offset="0"
         id="stop5346-2" />
      <stop
         style="stop-color:#000000;stop-opacity:0;"
         offset="1"
         id="stop5348-5" />
    </linearGradient>
    <linearGradient
       inkscape:collect="always"
       xlink:href="#linearGradient5316-0"
       id="linearGradient13027-1"
       gradientUnits="userSpaceOnUse"
       gradientTransform="matrix(3.6383072,-0.24094751,0,3.6383072,-1797.8001,-3254.4436)"
       x1="516.625"
       y1="951.58276"
       x2="516.84595"
       y2="953.33002" />
    <linearGradient
       id="linearGradient5316-0">
      <stop
         style="stop-color:#aac736;stop-opacity:1;"
         offset="0"
         id="stop5320-8" />
      <stop
         style="stop-color:#5d8b2c;stop-opacity:1;"
         offset="1"
         id="stop5322-1" />
    </linearGradient>
    <linearGradient
       inkscape:collect="always"
       xlink:href="#linearGradient13604-6"
       id="linearGradient13023-1"
       gradientUnits="userSpaceOnUse"
       gradientTransform="matrix(3.6383072,0,0,3.6383072,-1871.8013,-3376.2301)"
       x1="532.71075"
       y1="943.25812"
       x2="540.65033"
       y2="973.31165" />
    <linearGradient
       id="linearGradient13604-6">
      <stop
         id="stop13606-2"
         offset="0"
         style="stop-color:#ffffff;stop-opacity:1;" />
      <stop
         id="stop13608-7"
         offset="1"
         style="stop-color:#000000;stop-opacity:1;" />
    </linearGradient>
    <linearGradient
       inkscape:collect="always"
       xlink:href="#linearGradient13620-8"
       id="linearGradient13021-7"
       gradientUnits="userSpaceOnUse"
       gradientTransform="matrix(3.6383072,0,0,3.6383072,-1811.8986,-3430.9797)"
       x1="508.00168"
       y1="976.56775"
       x2="507.60999"
       y2="969.06256" />
    <linearGradient
       id="linearGradient13620-8">
      <stop
         id="stop13622-7"
         offset="0"
         style="stop-color:#000000;stop-opacity:1;" />
      <stop
         id="stop13624-6"
         offset="1"
         style="stop-color:#000000;stop-opacity:0;" />
    </linearGradient>
    <linearGradient
       inkscape:collect="always"
       xlink:href="#linearGradient13604-6"
       id="linearGradient13015-1"
       gradientUnits="userSpaceOnUse"
       gradientTransform="matrix(3.6383072,0,0,3.6383072,-1811.8986,-3430.9797)"
       x1="507.15793"
       y1="956.94275"
       x2="506.35999"
       y2="981.68756" />
    <linearGradient
       inkscape:collect="always"
       xlink:href="#linearGradient5165-7-9-8-2"
       id="linearGradient3092"
       gradientUnits="userSpaceOnUse"
       gradientTransform="translate(-40,140)"
       x1="22.933788"
       y1="-144.76825"
       x2="18.618809"
       y2="-96.331688" />
    <linearGradient
       inkscape:collect="always"
       xlink:href="#linearGradient5344"
       id="linearGradient3094"
       gradientUnits="userSpaceOnUse"
       gradientTransform="translate(-40,140)"
       x1="7.9531264"
       y1="2.2416961"
       x2="13.667412"
       y2="-64.464973" />
  </defs>
  <sodipodi:namedview
     id="base"
     pagecolor="#ffffff"
     bordercolor="#666666"
     borderopacity="1.0"
     inkscape:pageopacity="0.0"
     inkscape:pageshadow="2"
     inkscape:zoom="2.8"
     inkscape:cx="27.898595"
     inkscape:cy="55.557657"
     inkscape:document-units="px"
     inkscape:current-layer="layer1"
     showgrid="false"
     inkscape:window-width="1366"
     inkscape:window-height="717"
     inkscape:window-x="0"
     inkscape:window-y="0"
     inkscape:window-maximized="1" />
  <metadata
     id="metadata6939">
    <rdf:RDF>
      <cc:Work
         rdf:about="">
        <dc:format>image/svg+xml</dc:format>
        <dc:type
           rdf:resource="http://purl.org/dc/dcmitype/StillImage" />
        <dc:title></dc:title>
      </cc:Work>
    </rdf:RDF>
  </metadata>
  <g
     inkscape:label="Capa 1"
     inkscape:groupmode="layer"
     id="layer1">
    <path
       style="fill:#404aaf;fill-opacity:1;fill-rule:evenodd;stroke:none"
       d="m 34.21875,5.062503 c -1.32927,0.0554 -2.55056,0.27966 -3.65625,0.625 l -18.34375,2.71875 -0.5,0 0,0.1875 c -5.7155,1.04907 -8.65625,5.59198 -8.65625,11.15625 l 0,84.687497 c -0.0702,5.65226 2.0501,10.0952 6.3125,11.5 l 18.96875,5.9375 c 0.0209,0.0102 0.0415,0.0212 0.0625,0.0313 1.89272,0.90932 4.16442,1.2325 6.78125,0.8125 l 78.28125,-11.8125 c 5.72052,-0.61974 9.4668,-6.06393 9.15625,-13.625 l 0.40625,-74.281297 c 0.22248,-5.96534 -2.80168,-10.97622 -9.34375,-11.96875 l -77.84375,-5.9375 c -0.55631,-0.0273 -1.10307,-0.053 -1.625,-0.0313 z"
       id="path30949"
       inkscape:connector-curvature="0" />
    <path
       style="fill:url(#linearGradient3107);fill-rule:evenodd;stroke:none"
       d="M 29.25,16.718753 29.2187,113.125 c 0.4487,3.45828 1.40755,8.12456 4.34375,9.75 0.52713,-0.0229 1.0675,-0.0668 1.625,-0.15625 l 78.28125,-11.8125 c 5.72052,-0.61974 9.4668,-6.06393 9.15625,-13.625 l 0.40625,-74.281247 c 0.22245,-5.96534 -2.80168,-10.97622 -9.34375,-11.96875 L 37.6784,5.233693 c -3.97126,-0.42067 -8.41551,4.78057 -8.42845,11.48506 z M 30.15625,122.5 c 0.64796,0.17153 1.31467,0.32617 2.03125,0.375 z"
       id="path30953"
       inkscape:connector-curvature="0"
       sodipodi:nodetypes="ccccccccccccc" />
    <g
       id="g3087"
       transform="translate(40,0)">
      <path
         inkscape:connector-curvature="0"
         id="path3073"
         d="m -5.21875,5.312503 -22.5625,3.09375 -0.5,0 0,0.1875 c -5.715501,1.04907 -8.65625,5.59198 -8.65625,11.15625 l 0,25 26.1875,0 0,-28.03125 c 0.347051,-4.91678 2.274064,-9.96378 5.53125,-11.40625 z"
         style="fill:url(#linearGradient3092);fill-rule:evenodd;stroke:none;display:inline" />
      <path
         inkscape:connector-curvature="0"
         id="path3081"
         d="m -36.9375,68.406253 0,36.031247 c -0.07024,5.65226 2.050104,10.0952 6.3125,11.5 l 17.65625,6.03125 7.5,1.3125 c -3.710844,-1.04488 -4.81745,-6.34073 -5.3125,-10.15625 l 0,-44.718747 -26.15625,0 z"
         style="fill:url(#linearGradient3094);fill-rule:evenodd;stroke:none;display:inline" />
    </g>
    <path
       inkscape:connector-curvature="0"
       id="path30957"
       d="m 35.825012,5.0844328 c -1.734374,-0.0853 -3.26759,0.13333 -4.667303,0.50133 L 11.65504,8.5863028 C 5.9395447,9.6353728 2.9871862,14.190033 2.9871862,19.754303 l 0,84.678437 c -0.07024,5.65226 2.0718035,10.09707 6.3341998,11.50187 l 19.669357,6.16693 c 1.792241,0.74027 3.774988,1.0512 6.167512,0.6672 l 78.344065,-11.8352 c 5.72052,-0.6192 9.47847,-6.1072 9.16792,-13.66827 l 0.33339,-74.344027 c 0.22245,-5.96534 -2.79254,-10.84214 -9.33461,-11.83467 L 35.825018,5.0855028 z"
       style="fill:none;stroke:#344b63;stroke-width:2.667032;stroke-linecap:butt;stroke-linejoin:miter;stroke-miterlimit:4;stroke-opacity:1;stroke-dasharray:none;display:inline"
       sodipodi:nodetypes="ccccccccccccc" />
    <path
       sodipodi:nodetypes="ccccccccscscsscccscsccscccscccccccccccccccsccccccssscccccccccscscccccccccccccccccccccccccccscsscsccccccsscccsccccccsscssssss"
       id="path3854"
       d="m 95.163094,13.375344 c -0.764549,0.03375 -1.718739,0.486776 -2.081528,2.37781 -0.367097,-1.446742 -3.351723,-1.070766 -3.351723,-1.070766 0,0 1.028858,0.720302 1.038019,1.27834 -0.509631,0.06602 -1.006809,0.163402 -1.500143,0.281046 -0.247678,-0.509871 -0.03226,-1.543297 -0.21172,-2.250862 -0.382721,0.684448 -0.521122,1.663028 -0.56035,2.445211 -0.48052,0.144128 -0.927878,0.323968 -1.38449,0.521412 -1.938183,-3.115985 -4.850308,-4.496274 -8.148812,-2.209584 -1.803616,1.250358 -2.560233,3.222021 -2.682098,5.413355 -5.391656,1.251747 -11.51969,2.297881 -16.925963,2.344264 -13.11478,0.112521 -20.068167,9.32448 -19.41987,24.275659 -4.587516,7.012369 -7.039577,15.928789 -6.469605,25.353979 1.381302,22.841498 19.975154,40.735842 41.545718,39.982782 7.250553,-0.25314 13.915533,-2.60053 19.515931,-6.44713 0.388802,-0.0554 0.784926,-0.10789 1.179696,-0.17528 16.154894,-2.75665 14.535374,-21.687683 14.480974,-22.281462 1.1701,-4.347424 1.68497,-8.990225 1.39374,-13.806098 -0.54452,-9.004177 -3.7865,-15.439533 -8.81231,-22.200454 1.64496,-0.96975 3.07145,-2.117004 4.76636,-4.814431 0.62048,-0.987472 1.05901,-1.755223 1.39434,-2.452366 0.78476,-0.653291 1.56883,-1.299095 2.31607,-1.843469 3.58835,-2.700679 7.6684,-8.354514 4.86149,-13.289617 -2.2761,-4.00183 -5.6793,-4.033406 -8.70741,-1.829344 -0.31603,-0.431614 -0.62434,-0.854462 -0.98586,-1.251969 0.20544,-0.528374 0.4762,-1.438061 0.39962,-2.175656 -0.44607,0.603113 -0.48501,2.046883 -1.31713,1.218093 -0.83212,-0.828793 0.72355,-0.99846 0.72355,-0.99846 0,0 -1.71208,-1.32071 -2.30686,-0.51656 0.4621,-2.408727 -1.39368,-2.562535 -1.39368,-2.562535 0,-10e-7 0.83277,0.836833 0.59606,1.496674 -0.079,0.220465 -0.30499,0.372777 -0.55698,0.407043 -0.29063,-0.175717 -0.58975,-0.341796 -0.89001,-0.5019 -0.0771,-0.195495 -0.0835,-0.454156 -0.0216,-0.777525 -0.49471,-0.178635 -0.86858,-0.04799 -1.12592,0.197382 -0.21735,-0.09789 -0.42885,-0.199566 -0.649597,-0.28942 l 0.252847,-2.093944 -0.976647,1.831978 c -0.167665,-0.0606 -0.347844,-0.127334 -0.516847,-0.183289 -0.09537,-0.735897 -0.444815,-1.576268 -1.54894,-1.783491 -0.140744,0.733688 -0.477708,1.06783 -0.865475,1.160583 -0.284966,-0.0547 -0.583187,-0.112216 -0.868961,-0.15345 -0.396523,-0.219793 -0.705351,-0.624504 -0.693302,-1.013122 0.03107,-1.002033 1.583805,-1.408105 1.583805,-1.408104 0,0 -0.166843,-0.0719 -0.412441,-0.13055 -0.184199,-0.04399 -0.407077,-0.08602 -0.661936,-0.07477 z m -8.977357,14.638991 c 0.174656,0.01244 0.3607,0.05484 0.537186,0.102665 1.411881,0.382564 2.331819,1.886063 2.048773,3.361442 -0.283046,1.475381 -1.679535,2.366773 -3.091418,1.98421 -1.411881,-0.382562 -2.306546,-1.886278 -2.0235,-3.361659 0.212282,-1.106534 1.029788,-1.898589 2.025135,-2.055515 0.165885,-0.02616 0.329165,-0.0436 0.503824,-0.03114 z M 69.113613,30.86939 c 2.424447,0.007 5.448142,0.293434 9.570279,1.044228 0.0085,0.0015 0.01681,-0.0018 0.02532,-2.16e-4 0.0529,0.76874 0.15799,1.629006 0.343594,2.759267 0.984272,5.993013 2.972113,6.940546 5.812179,11.669433 3.460032,5.856568 7.955687,6.829179 13.162645,3.587902 1.771453,-1.157157 3.1661,-1.819066 4.42374,-2.531994 4.34801,6.227031 7.12514,11.898668 7.61493,19.997929 0.68387,11.30856 -3.20904,21.646824 -9.99302,29.07055 C 97.297549,97.030797 93.969744,96.187471 89.703141,94.173583 76.101177,87.75331 56.343481,76.485451 56.343481,76.485451 l -0.07134,0.914289 -1.973709,-1.647421 0.03237,0.535223 -0.914274,-0.879881 -0.07943,0.780484 -0.93855,-1.281296 0.06311,1.043683 -0.936931,-1.254536 0.08577,1.418341 -1.024453,-0.607858 0.04693,0.776072 -1.150812,-0.603446 0.29156,0.633445 -1.041632,-0.47317 0.204041,1.280123 -1.048727,-1.009275 0.490747,1.833284 -1.017979,-0.500813 1.001664,2.32498 -1.340287,-1.642718 1.001665,2.324981 -0.765258,-0.509636 1.111842,2.052958 -0.906183,-0.746074 1.073002,1.410691 -0.891618,-0.505225 c 0,0 4.982091,8.741635 12.699003,13.582271 6.065339,3.80463 14.299128,9.406363 25.515702,10.265313 -3.305448,1.18295 -6.843776,1.87481 -10.540838,2.00389 -20.504325,0.71584 -38.189022,-16.303565 -39.502045,-38.015994 -0.457145,-7.559442 1.13346,-14.759743 4.2632,-20.79457 0.887178,13.482491 3.059245,16.767397 4.384598,17.22091 1.38986,0.475583 0.447803,-0.551987 0.447803,-0.551987 l 1.051342,0.633736 -0.04046,-0.669029 0.867343,0.103808 0.417055,-1.060447 1.111972,-0.03882 c 0,0 0.950823,-0.561832 0.708746,-2.518783 -0.242086,-1.956956 0.84604,-2.378713 -0.25246,-4.174735 -0.992027,-1.621931 -2.749674,-14.557604 -1.704382,-18.363989 2.752381,-2.656221 5.907736,-4.848301 9.395139,-6.4632 0.209027,-0.09679 0.429598,-0.181045 0.64089,-0.273675 0.918051,-0.356749 1.836727,-0.648316 2.70611,-0.827746 2.897957,-0.598106 5.259144,-1.351998 9.299886,-1.340218 z m 32.478747,1.464486 c 0.14581,-0.019 0.30331,-0.01225 0.4549,-0.0039 0.17324,0.0095 0.35909,0.02804 0.53557,0.07586 1.41189,0.382562 2.33182,1.886061 2.04877,3.361442 -0.28303,1.47538 -1.65426,2.366556 -3.06615,1.983993 -1.41188,-0.382563 -2.331807,-1.886062 -2.048767,-3.361443 0.21671,-1.129587 1.055027,-1.922971 2.075677,-2.055942 z M 89.692658,44.637991 c 1.463963,-0.101794 2.676777,0.02708 4.395972,1.195894 1.719205,1.16881 1.506198,1.207865 0.739234,2.192703 -0.766972,0.984835 -2.165811,2.19553 -3.813601,1.749047 -1.647783,-0.446484 -2.460025,-2.233541 -2.791375,-3.515977 -0.331358,-1.282438 0.0058,-1.519872 1.46977,-1.621667 z"
       style="fill:#000000;fill-opacity:0.60995853000000000;stroke:#000000;stroke-width:5;stroke-linecap:round;stroke-linejoin:round;stroke-miterlimit:4;stroke-dasharray:none;display:inline;stroke-opacity:0.54771787"
       inkscape:connector-curvature="0" />
    <path
       inkscape:connector-curvature="0"
       style="fill:#ffffff;fill-opacity:1;stroke:none;display:inline"
       d="m 97.163094,13.375344 c -0.764549,0.03375 -1.718739,0.486776 -2.081528,2.37781 -0.367097,-1.446742 -3.351723,-1.070766 -3.351723,-1.070766 0,0 1.028858,0.720302 1.038019,1.27834 -0.509631,0.06602 -1.006809,0.163402 -1.500143,0.281047 -0.247678,-0.509872 -0.03226,-1.543298 -0.21172,-2.250863 -0.382721,0.684448 -0.521122,1.663028 -0.56035,2.445211 -0.48052,0.144128 -0.927878,0.323968 -1.38449,0.521412 -1.938183,-3.115985 -4.850308,-4.496274 -8.148812,-2.209584 -1.803616,1.250358 -2.560233,3.222021 -2.682098,5.413355 -5.391656,1.251747 -11.51969,2.297881 -16.925963,2.344264 -13.11478,0.112521 -20.068167,9.32448 -19.41987,24.275659 -4.587516,7.012369 -7.039577,15.928789 -6.469605,25.35398 1.381302,22.841498 19.975154,40.735841 41.545718,39.982781 7.250553,-0.25314 13.915533,-2.60053 19.515931,-6.44713 0.388802,-0.0554 0.784926,-0.10789 1.179696,-0.17528 16.154894,-2.75664 14.535374,-21.687683 14.480974,-22.281462 1.1701,-4.347424 1.68497,-8.990224 1.39374,-13.806098 -0.54452,-9.004177 -3.7865,-15.439533 -8.81231,-22.200454 1.64496,-0.96975 3.07145,-2.117004 4.76636,-4.814431 0.62048,-0.987472 1.05901,-1.755223 1.39434,-2.452366 0.78476,-0.653291 1.56883,-1.299095 2.31607,-1.843469 3.58835,-2.700678 7.6684,-8.354513 4.86149,-13.289616 -2.2761,-4.001831 -5.6793,-4.033407 -8.70741,-1.829345 -0.31603,-0.431614 -0.62434,-0.854462 -0.98586,-1.251969 0.20544,-0.528374 0.4762,-1.438061 0.39962,-2.175656 -0.44607,0.603113 -0.48501,2.046883 -1.31713,1.218093 -0.83212,-0.828793 0.72355,-0.99846 0.72355,-0.99846 0,0 -1.71208,-1.32071 -2.30686,-0.51656 0.4621,-2.408727 -1.39368,-2.562535 -1.39368,-2.562535 0,-10e-7 0.83277,0.836833 0.59606,1.496674 -0.079,0.220465 -0.30499,0.372777 -0.55698,0.407043 -0.29063,-0.175717 -0.58975,-0.341796 -0.89001,-0.5019 -0.0771,-0.195495 -0.0835,-0.454156 -0.0216,-0.777525 -0.49471,-0.178635 -0.86858,-0.04799 -1.12592,0.197382 -0.21735,-0.09789 -0.42885,-0.199566 -0.6496,-0.28942 l 0.25285,-2.093944 -0.97665,1.831978 c -0.16766,-0.0606 -0.34784,-0.127334 -0.51684,-0.183289 -0.0954,-0.735897 -0.44482,-1.576268 -1.548944,-1.783491 -0.140744,0.733688 -0.477708,1.06783 -0.865475,1.160583 -0.284966,-0.0547 -0.583187,-0.112216 -0.868961,-0.15345 -0.396523,-0.219793 -0.705351,-0.624504 -0.693302,-1.013122 0.03107,-1.002033 1.583805,-1.408105 1.583805,-1.408104 0,0 -0.166843,-0.0719 -0.412441,-0.13055 -0.184199,-0.04399 -0.407077,-0.08602 -0.661936,-0.07477 z m -8.977357,14.638991 c 0.174656,0.01244 0.3607,0.05484 0.537186,0.102665 1.411881,0.382564 2.331819,1.886063 2.048773,3.361442 -0.283046,1.475381 -1.679535,2.366773 -3.091418,1.98421 -1.411881,-0.382562 -2.306546,-1.886278 -2.0235,-3.361659 0.212282,-1.106534 1.029788,-1.898589 2.025135,-2.055515 0.165885,-0.02616 0.329165,-0.0436 0.503824,-0.03114 z M 71.113613,30.86939 c 2.424447,0.007 5.448142,0.293434 9.570279,1.044228 0.0085,0.0015 0.01681,-0.0018 0.02532,-2.16e-4 0.0529,0.76874 0.15799,1.629006 0.343594,2.759267 0.984272,5.993013 2.972113,6.940546 5.812179,11.669434 3.460032,5.856567 7.955687,6.829178 13.162645,3.587901 1.77145,-1.157157 3.1661,-1.819066 4.42374,-2.531994 4.34801,6.227031 7.12514,11.898668 7.61493,19.997929 0.68387,11.30856 -3.20904,21.646825 -9.99302,29.07055 C 99.297549,97.030797 95.969744,96.187471 91.703141,94.173583 78.101177,87.75331 58.343481,76.485451 58.343481,76.485451 l -0.07134,0.91429 -1.973709,-1.647421 0.03237,0.535222 -0.914274,-0.87988 -0.07943,0.780483 -0.93855,-1.281296 0.06311,1.043684 -0.936931,-1.254536 0.08577,1.41834 -1.024453,-0.607858 0.04693,0.776072 -1.150812,-0.603446 0.29156,0.633445 -1.041632,-0.473169 0.204041,1.280123 -1.048727,-1.009275 0.490747,1.833283 -1.017979,-0.500813 1.001664,2.324981 -1.340287,-1.642718 1.001665,2.32498 -0.765258,-0.509636 1.111842,2.052959 -0.906183,-0.746075 1.073002,1.410691 -0.891618,-0.505224 c 0,0 4.982091,8.741634 12.699003,13.582271 6.065339,3.804629 14.299128,9.406362 25.515702,10.265312 -3.305448,1.18295 -6.843776,1.87481 -10.540838,2.00389 -20.504325,0.71584 -38.189022,-16.303565 -39.502045,-38.015993 -0.457145,-7.559443 1.13346,-14.759744 4.2632,-20.794571 0.887178,13.482491 3.059245,16.767397 4.384598,17.22091 1.38986,0.475583 0.447803,-0.551987 0.447803,-0.551987 l 1.051342,0.633736 -0.04046,-0.669028 0.867343,0.103808 0.417055,-1.060447 1.111972,-0.03882 c 0,0 0.950823,-0.561831 0.708746,-2.518782 C 50.786334,60.356 51.87446,59.934242 50.77596,58.13822 49.783933,56.516289 48.026286,43.580616 49.071578,39.774231 c 2.752381,-2.65622 5.907736,-4.848301 9.395139,-6.4632 0.209027,-0.09679 0.429598,-0.181045 0.64089,-0.273675 0.918051,-0.356749 1.836727,-0.648316 2.70611,-0.827746 2.897957,-0.598106 5.259144,-1.351998 9.299886,-1.340218 z m 32.478747,1.464486 c 0.14581,-0.019 0.30331,-0.01225 0.4549,-0.0039 0.17324,0.0095 0.35909,0.02804 0.53557,0.07586 1.41189,0.382562 2.33182,1.886062 2.04877,3.361442 -0.28303,1.47538 -1.65426,2.366556 -3.06615,1.983994 -1.41188,-0.382564 -2.33181,-1.886063 -2.04877,-3.361444 0.21671,-1.129587 1.05503,-1.922971 2.07568,-2.055942 z M 91.692658,44.637991 c 1.463963,-0.101794 2.676777,0.02708 4.395972,1.195894 1.719205,1.16881 1.506198,1.207865 0.739234,2.192703 -0.766972,0.984836 -2.165811,2.19553 -3.813601,1.749047 -1.647783,-0.446484 -2.460025,-2.233541 -2.791375,-3.515977 -0.331358,-1.282437 0.0058,-1.519872 1.46977,-1.621667 z"
       id="path7489"
       sodipodi:nodetypes="ccccccccscscsscccscsccscccscccccccccccccccsccccccssscccccccccscscccccccccccccccccccccccccccscsscsccccccsscccsccccccsscssssss" />
  </g>
</svg>
