<?xml version="1.0" encoding="UTF-8" standalone="no"?>
<!-- Created with Inkscape (http://www.inkscape.org/) -->

<svg
   xmlns:dc="http://purl.org/dc/elements/1.1/"
   xmlns:cc="http://creativecommons.org/ns#"
   xmlns:rdf="http://www.w3.org/1999/02/22-rdf-syntax-ns#"
   xmlns:svg="http://www.w3.org/2000/svg"
   xmlns="http://www.w3.org/2000/svg"
   xmlns:xlink="http://www.w3.org/1999/xlink"
   xmlns:sodipodi="http://sodipodi.sourceforge.net/DTD/sodipodi-0.dtd"
   xmlns:inkscape="http://www.inkscape.org/namespaces/inkscape"
   width="128"
   height="128"
   id="svg6934"
   sodipodi:version="0.32"
   inkscape:version="0.48.3.1 r9886"
   version="1.0"
   sodipodi:docname="inkscape.svg"
   inkscape:output_extension="org.inkscape.output.svg.inkscape">
  <defs
     id="defs6936">
    <linearGradient
       inkscape:collect="always"
       xlink:href="#linearGradient5316-769"
       id="linearGradient31097"
       gradientUnits="userSpaceOnUse"
       gradientTransform="translate(-161.94958,-34.469637)"
       x1="275.29071"
       y1="1103.7349"
       x2="275.29071"
       y2="1121.6162" />
    <linearGradient
       id="linearGradient5316-769">
      <stop
         style="stop-color:#aac736;stop-opacity:1;"
         offset="0"
         id="stop5320-2" />
      <stop
         style="stop-color:#5d8b2c;stop-opacity:1;"
         offset="1"
         id="stop5322-97" />
    </linearGradient>
    <linearGradient
       inkscape:collect="always"
       xlink:href="#linearGradient5165-7-9-8-2-06"
       id="linearGradient31099"
       gradientUnits="userSpaceOnUse"
       gradientTransform="translate(-161.94958,-34.469637)"
       x1="275.29071"
       y1="1094.0099"
       x2="275.29071"
       y2="1117.1519" />
    <linearGradient
       id="linearGradient5165-7-9-8-2-06">
      <stop
         id="stop5167-4-8-6-9-14"
         style="stop-color:#ffffff;stop-opacity:1"
         offset="0" />
      <stop
         id="stop5169-5-5-2-9-08"
         style="stop-color:#ffffff;stop-opacity:0"
         offset="1" />
    </linearGradient>
    <linearGradient
       inkscape:collect="always"
       xlink:href="#linearGradient5316-769"
       id="linearGradient31101"
       gradientUnits="userSpaceOnUse"
       gradientTransform="translate(-161.94958,-34.469637)"
       x1="280.65372"
       y1="1100.6647"
       x2="292.69617"
       y2="1118.8726" />
    <linearGradient
       inkscape:collect="always"
       xlink:href="#linearGradient5344-24"
       id="linearGradient31103"
       gradientUnits="userSpaceOnUse"
       gradientTransform="translate(-161.94958,-34.469637)"
       x1="317.94461"
       y1="1142.4757"
       x2="283.81964"
       y2="1103.8007" />
    <linearGradient
       id="linearGradient5344-24">
      <stop
         style="stop-color:#000000;stop-opacity:1;"
         offset="0"
         id="stop5346-2" />
      <stop
         style="stop-color:#000000;stop-opacity:0;"
         offset="1"
         id="stop5348-8" />
    </linearGradient>
    <linearGradient
       inkscape:collect="always"
       xlink:href="#linearGradient5344-24"
       id="linearGradient3107"
       gradientUnits="userSpaceOnUse"
       gradientTransform="matrix(5.334059,0,0,5.334059,-1451.5324,-5864.5298)"
       x1="317.94461"
       y1="1142.4757"
       x2="283.81964"
       y2="1103.8007" />
    <linearGradient
       inkscape:collect="always"
       xlink:href="#linearGradient5316-769"
       id="linearGradient3110"
       gradientUnits="userSpaceOnUse"
       gradientTransform="matrix(5.334059,0,0,5.334059,-1451.5324,-5864.5298)"
       x1="280.65372"
       y1="1100.6647"
       x2="292.69617"
       y2="1118.8726" />
    <linearGradient
       inkscape:collect="always"
       xlink:href="#linearGradient5165-7-9-8-2-06"
       id="linearGradient3113"
       gradientUnits="userSpaceOnUse"
       gradientTransform="matrix(5.334059,0,0,5.334059,-1451.5324,-5864.5298)"
       x1="275.29071"
       y1="1094.0099"
       x2="275.29071"
       y2="1117.1519" />
    <linearGradient
       inkscape:collect="always"
       xlink:href="#linearGradient5316-769"
       id="linearGradient3116"
       gradientUnits="userSpaceOnUse"
       gradientTransform="matrix(5.334059,0,0,5.334059,-1451.5324,-5864.5298)"
       x1="275.29071"
       y1="1103.7349"
       x2="275.29071"
       y2="1121.6162" />
    <linearGradient
       inkscape:collect="always"
       xlink:href="#linearGradient5344"
       id="linearGradient3105"
       x1="7.9531264"
       y1="2.2416961"
       x2="13.667412"
       y2="-64.464973"
       gradientUnits="userSpaceOnUse"
       gradientTransform="translate(-4.0351795e-8,140)" />
    <linearGradient
       id="linearGradient5344">
      <stop
         style="stop-color:#000000;stop-opacity:1;"
         offset="0"
         id="stop5346" />
      <stop
         style="stop-color:#000000;stop-opacity:0;"
         offset="1"
         id="stop5348" />
    </linearGradient>
    <linearGradient
       inkscape:collect="always"
       xlink:href="#linearGradient5165-7-9-8-2"
       id="linearGradient3103"
       x1="22.933788"
       y1="-144.76825"
       x2="18.618809"
       y2="-96.331688"
       gradientUnits="userSpaceOnUse"
       gradientTransform="translate(-4.0351795e-8,140)" />
    <linearGradient
       id="linearGradient5165-7-9-8-2">
      <stop
         id="stop5167-4-8-6-9"
         style="stop-color:#ffffff;stop-opacity:1"
         offset="0" />
      <stop
         id="stop5169-5-5-2-9"
         style="stop-color:#ffffff;stop-opacity:0"
         offset="1" />
    </linearGradient>
    <linearGradient
       inkscape:collect="always"
       xlink:href="#linearGradient5344"
       id="linearGradient3107-3"
       gradientUnits="userSpaceOnUse"
       gradientTransform="matrix(5.3340639,0,0,5.3340639,-1451.4802,-5864.5574)"
       x1="305.23422"
       y1="1137.0681"
       x2="283.35095"
       y2="1104.2024" />
    <linearGradient
       id="linearGradient3069">
      <stop
         style="stop-color:#000000;stop-opacity:1;"
         offset="0"
         id="stop3071" />
      <stop
         style="stop-color:#000000;stop-opacity:0;"
         offset="1"
         id="stop3073" />
    </linearGradient>
  </defs>
  <sodipodi:namedview
     id="base"
     pagecolor="#ffffff"
     bordercolor="#666666"
     borderopacity="1.0"
     inkscape:pageopacity="0.0"
     inkscape:pageshadow="2"
     inkscape:zoom="1.4"
     inkscape:cx="145.65066"
     inkscape:cy="46.132567"
     inkscape:document-units="px"
     inkscape:current-layer="layer1"
     showgrid="false"
     inkscape:window-width="1280"
     inkscape:window-height="713"
     inkscape:window-x="0"
     inkscape:window-y="0"
     inkscape:window-maximized="0" />
  <metadata
     id="metadata6939">
    <rdf:RDF>
      <cc:Work
         rdf:about="">
        <dc:format>image/svg+xml</dc:format>
        <dc:type
           rdf:resource="http://purl.org/dc/dcmitype/StillImage" />
        <dc:title />
      </cc:Work>
    </rdf:RDF>
  </metadata>
  <g
     inkscape:label="Capa 1"
     inkscape:groupmode="layer"
     id="layer1">
    <path
       style="fill:#4d4d4d;fill-opacity:1;fill-rule:evenodd;stroke:none"
       d="m 34.21875,5.0625028 c -1.32927,0.0554 -2.550557,0.27966 -3.65625,0.625 l -18.34375,2.71875 -0.5,0 0,0.1875 C 6.0032494,9.6428228 3.0625,14.185733 3.0625,19.750003 l 0,84.687497 c -0.07024,5.65226 2.0501037,10.0952 6.3125,11.5 l 18.96875,5.9375 c 0.02087,0.0102 0.04153,0.0212 0.0625,0.0313 1.892721,0.90932 4.164425,1.2325 6.78125,0.8125 l 78.28125,-11.8125 c 5.72052,-0.61974 9.4668,-6.06393 9.15625,-13.624997 l 0.40625,-74.2813 c 0.22248,-5.96534 -2.80168,-10.97622 -9.34375,-11.96875 L 35.84375,5.0937528 c -0.55631,-0.0273 -1.103066,-0.053 -1.625,-0.0313 z"
       id="path30949"
       inkscape:connector-curvature="0" />
    <path
       style="fill:url(#linearGradient3107-3);fill-rule:evenodd;stroke:none"
       d="M 29.25,16.718753 29.21875,113.125 c 0.448699,3.45828 1.407546,8.12456 4.34375,9.75 0.527128,-0.0229 1.067503,-0.0668 1.625,-0.15625 l 78.28125,-11.8125 c 5.72052,-0.61974 9.4668,-6.06393 9.15625,-13.624997 l 0.40625,-74.28125 c 0.22245,-5.96534 -2.80168,-10.97622 -9.34375,-11.96875 L 37.678453,5.2336928 C 33.707189,4.8130228 29.262938,10.014263 29.25,16.718753 z M 30.15625,122.5 c 0.647964,0.17153 1.314675,0.32617 2.03125,0.375 z"
       id="path30953"
       inkscape:connector-curvature="0"
       sodipodi:nodetypes="ccccccccccccc" />
    <path
       style="fill:url(#linearGradient3103);fill-rule:evenodd;stroke:none;display:inline"
       d="m 34.78125,5.3125028 -22.5625,3.09375 -0.5,0 0,0.1875 C 6.003249,9.6428228 3.0625,14.185733 3.0625,19.750003 l 0,25 26.1875,0 0,-28.03125 c 0.347051,-4.91678 2.274064,-9.9637802 5.53125,-11.4062502 z"
       id="path3073"
       inkscape:connector-curvature="0" />
    <path
       style="fill:url(#linearGradient3105);fill-rule:evenodd;stroke:none;display:inline"
       d="m 3.0625,68.406253 0,36.031247 c -0.07024,5.65226 2.050104,10.0952 6.3125,11.5 l 17.65625,6.03125 7.5,1.3125 c -3.710844,-1.04488 -4.81745,-6.34073 -5.3125,-10.15625 l 0,-44.718747 -26.15625,0 z"
       id="path3081"
       inkscape:connector-curvature="0" />
    <path
       inkscape:connector-curvature="0"
       id="path30957"
       d="m 35.825012,5.0844328 c -1.734374,-0.0853 -3.26759,0.13333 -4.667303,0.50133 L 11.65504,8.5863028 C 5.9395447,9.6353728 2.9871862,14.190033 2.9871862,19.754303 l 0,84.678437 c -0.07024,5.65226 2.0718035,10.09707 6.3341998,11.50187 l 19.669357,6.16693 c 1.792241,0.74027 3.774988,1.0512 6.167512,0.6672 l 78.344065,-11.8352 c 5.72052,-0.6192 9.47847,-6.1072 9.16792,-13.668267 l 0.33339,-74.34403 c 0.22245,-5.96534 -2.79254,-10.84214 -9.33461,-11.83467 L 35.825018,5.0855028 z"
       style="fill:none;stroke:#344b63;stroke-width:2.667032;stroke-linecap:butt;stroke-linejoin:miter;stroke-miterlimit:4;stroke-opacity:1;stroke-dasharray:none;display:inline"
       sodipodi:nodetypes="ccccccccccccc" />
    <path
       inkscape:connector-curvature="0"
       sodipodi:nodetypes="ccccccsssssssccccccsccccccccccccccccccccccccccsscscc"
       style="fill:#000000;fill-opacity:0.56846475;stroke:#000000;stroke-width:5.33405876;stroke-linecap:round;stroke-linejoin:round;stroke-opacity:0.5767635;display:inline;overflow:visible"
       id="path30969"
       d="m 73.806192,16.0251 c 2.71813,0.2187 5.476852,1.49941 7.564709,3.80852 0,0 33.630809,36.904753 33.630809,36.904753 13.07852,12.37715 -15.291994,16.791084 -23.012937,23.047402 -3.2302,2.6937 8.914437,4.317921 7.496326,8.142974 -2.599927,7.201513 -7.20306,2.684099 -14.293678,11.214326 -2.836386,3.540745 5.356196,2.779575 2.204887,6.087225 -5.042446,5.26472 -16.313473,9.70479 -17.179991,4.35206 -1.181814,-7.28846 -9.100971,-2.62809 -11.858413,-5.61623 -2.836386,-3.02121 5.752783,-7.541825 2.916503,-10.563569 C 58.438128,90.427756 44.173681,88.598707 41.337348,85.3588 38.422339,82.079954 50.248748,78.166355 49.289364,75.365974 48.082853,71.845495 44.739838,72.778422 37.039537,71.54252 30.00354,70.412766 30.128784,61.588099 34.00067,56.91653 c 0,0 32.468738,-38.15292 32.468738,-38.15292 1.930235,-2.07815 4.618708,-2.95454 7.336784,-2.73851 0,0 0,0 0,0 0,0 0,0 0,0 m 0.273638,3.53808 c -1.949919,-0.15469 -3.913546,0.485401 -5.331659,2.028545 -2.757602,3.118291 -11.504499,12.356881 -15.995243,17.990714 -2.284791,2.630224 -2.593259,5.319657 -0.387253,5.341527 0,0 11.43809,0.192026 11.43809,0.192026 0,0 4.557047,-11.136982 4.557047,-11.136982 0,0 2.84812,12.888687 2.84812,12.888687 0,0 8.567193,-5.914405 8.567193,-5.914405 0,0 5.286212,3.184967 5.286212,3.184967 0,0 1.25313,-8.234187 1.25313,-8.234187 0,0 6.402685,5.720245 6.402685,5.720245 0.709056,-0.736634 0.703242,-3.318852 -0.478465,-4.605427 0,0 -12.850815,-14.728404 -12.850815,-14.728404 -1.418113,-1.652491 -3.358964,-2.575816 -5.308882,-2.725706 0,0 1.6e-4,5.4e-4 1.6e-4,5.4e-4 0,0 0,0 0,0 M 58.677468,76.90965 c -4.175715,0.266703 11.731035,6.559826 15.19764,5.226845 9.060433,-3.368459 -14.488637,-5.271651 -15.19764,-5.226845 0,0 0,0 0,0 m 51.266482,5.938942 c 2.7279,-0.34138 5.41199,0.579278 5.92417,3.051615 0.709,2.91453 -12.12175,3.314584 -12.1217,1.608752 0.709,-2.665963 3.46954,-4.317921 6.19753,-4.660367 0,0 0,0 0,0 0,0 0,0 0,0 M 52.685399,96.495248 c 4.242497,-0.743568 4.85042,2.411528 2.969151,4.673172 -1.954186,2.43339 -4.671836,3.80692 -6.683576,2.03067 -3.13568,-2.76891 0.0029,-6.054687 3.714425,-6.703842 z m 49.466081,-5.242846 c 2.52621,-2.319249 6.64293,1.487135 4.19246,4.14403 -3.05854,3.314584 -7.816624,-0.293373 -4.19246,-4.14403 0,0 0,0 0,0" />
    <path
       inkscape:connector-curvature="0"
       d="m 75.880715,16.0251 c 2.718129,0.2187 5.476851,1.49941 7.564709,3.80852 0,0 33.630806,36.904753 33.630806,36.904753 13.07853,12.37715 -15.292,16.791084 -23.012935,23.047402 -3.2302,2.6937 8.914435,4.317921 7.496325,8.142974 -2.599926,7.201513 -7.203059,2.684099 -14.293677,11.214326 -2.836385,3.540745 5.356196,2.779575 2.204887,6.087225 -5.042446,5.26472 -16.313473,9.70479 -17.17999,4.35206 -1.181815,-7.28846 -9.100972,-2.62809 -11.858414,-5.61623 C 57.59604,100.94492 66.185209,96.424305 63.34893,93.402561 60.512651,90.427756 46.248203,88.598707 43.411871,85.3588 40.496861,82.079954 52.32327,78.166355 51.363886,75.365974 50.157375,71.845495 46.81436,72.778422 39.114059,71.54252 32.078062,70.412766 32.203306,61.588099 36.075193,56.91653 c 0,0 32.468737,-38.15292 32.468737,-38.15292 1.930236,-2.07815 4.618708,-2.95454 7.336785,-2.73851 0,0 0,0 0,0 0,0 0,0 0,0 m 0.273637,3.53808 c -1.949919,-0.15469 -3.913546,0.485401 -5.331659,2.028545 -2.757602,3.118291 -11.504498,12.356881 -15.995243,17.990714 -2.28479,2.630224 -2.593259,5.319657 -0.387252,5.341527 0,0 11.438089,0.192026 11.438089,0.192026 0,0 4.557047,-11.136982 4.557047,-11.136982 0,0 2.848121,12.888687 2.848121,12.888687 0,0 8.567192,-5.914405 8.567192,-5.914405 0,0 5.286212,3.184967 5.286212,3.184967 0,0 1.253131,-8.234187 1.253131,-8.234187 0,0 6.402684,5.720245 6.402684,5.720245 0.709057,-0.736634 0.703242,-3.318852 -0.478465,-4.605427 0,0 -12.850815,-14.728404 -12.850815,-14.728404 -1.418113,-1.652491 -3.358964,-2.575816 -5.308882,-2.725706 0,0 1.6e-4,5.4e-4 1.6e-4,5.4e-4 0,0 0,0 0,0 M 60.75199,76.90965 c -4.175715,0.266703 11.731036,6.559826 15.197641,5.226845 9.060432,-3.368459 -14.488638,-5.271651 -15.197641,-5.226845 0,0 0,0 0,0 m 51.26649,5.938942 c 2.72789,-0.34138 5.41199,0.579278 5.92416,3.051615 0.70901,2.91453 -12.12175,3.314584 -12.1217,1.608752 0.709,-2.665963 3.46954,-4.317921 6.19754,-4.660367 0,0 0,0 0,0 0,0 0,0 0,0 M 54.759921,96.495248 c 4.242497,-0.743568 4.85042,2.411528 2.969151,4.673172 -1.954186,2.43339 -4.671836,3.80692 -6.683576,2.03067 -3.13568,-2.76891 0.0029,-6.054687 3.714425,-6.703842 z m 49.466089,-5.242846 c 2.5262,-2.319249 6.64292,1.487135 4.19246,4.14403 -3.05855,3.314584 -7.81663,-0.293373 -4.19246,-4.14403 0,0 0,0 0,0"
       id="path30971"
       style="fill:#ffffff;fill-opacity:1;stroke:none;display:inline;overflow:visible"
       sodipodi:nodetypes="ccccccsssssssccccccsccccccccccccccccccccccccccsscscc" />
  </g>
</svg>
