<?xml version="1.0" encoding="UTF-8" standalone="no"?>
<!-- Created with Inkscape (http://www.inkscape.org/) -->

<svg
   xmlns:dc="http://purl.org/dc/elements/1.1/"
   xmlns:cc="http://creativecommons.org/ns#"
   xmlns:rdf="http://www.w3.org/1999/02/22-rdf-syntax-ns#"
   xmlns:svg="http://www.w3.org/2000/svg"
   xmlns="http://www.w3.org/2000/svg"
   xmlns:xlink="http://www.w3.org/1999/xlink"
   xmlns:sodipodi="http://sodipodi.sourceforge.net/DTD/sodipodi-0.dtd"
   xmlns:inkscape="http://www.inkscape.org/namespaces/inkscape"
   width="128"
   height="128"
   id="svg7868"
   version="1.1"
   inkscape:version="0.48.3.1 r9886"
   sodipodi:docname="software-center.svg">
  <defs
     id="defs7870">
    <linearGradient
       gradientTransform="matrix(2.6513978,0,0,2.6513978,-1286.6102,-1566.4733)"
       inkscape:collect="always"
       xlink:href="#linearGradient5344-500"
       id="linearGradient6968"
       gradientUnits="userSpaceOnUse"
       x1="490.125"
       y1="969.414"
       x2="501.25839"
       y2="969.164" />
    <linearGradient
       id="linearGradient5344-500">
      <stop
         style="stop-color:#000000;stop-opacity:1;"
         offset="0"
         id="stop5346-9" />
      <stop
         style="stop-color:#000000;stop-opacity:0;"
         offset="1"
         id="stop5348-32" />
    </linearGradient>
    <linearGradient
       gradientTransform="matrix(2.6513978,0,0,2.6513978,-1286.6102,-1566.4733)"
       inkscape:collect="always"
       xlink:href="#linearGradient5344-500"
       id="linearGradient6964"
       x1="503.26172"
       y1="983.9325"
       x2="485.88281"
       y2="978.0575"
       gradientUnits="userSpaceOnUse" />
    <linearGradient
       gradientTransform="matrix(2.6513978,0,0,2.6513978,-1286.6102,-1566.4733)"
       inkscape:collect="always"
       xlink:href="#linearGradient36790"
       id="linearGradient6970"
       x1="516.99005"
       y1="930.91602"
       x2="510.10913"
       y2="969.29102"
       gradientUnits="userSpaceOnUse" />
    <linearGradient
       id="linearGradient36790">
      <stop
         style="stop-color:#ffffff;stop-opacity:1;"
         offset="0"
         id="stop36792" />
      <stop
         style="stop-color:#000000;stop-opacity:1;"
         offset="1"
         id="stop36794" />
    </linearGradient>
    <linearGradient
       gradientTransform="matrix(2.6513978,0,0,2.6513978,-1286.6102,-1566.4733)"
       inkscape:collect="always"
       xlink:href="#linearGradient5316"
       id="linearGradient6958"
       x1="496.25"
       y1="969.164"
       x2="501.25839"
       y2="969.164"
       gradientUnits="userSpaceOnUse" />
    <linearGradient
       id="linearGradient5316-7-7">
      <stop
         style="stop-color:#c0bfbb;stop-opacity:1;"
         offset="0"
         id="stop5320-77-6" />
      <stop
         style="stop-color:#798088;stop-opacity:1;"
         offset="1"
         id="stop5322-9-2" />
    </linearGradient>
    <linearGradient
       gradientTransform="matrix(2.6513978,0,0,2.6513978,-1286.6102,-1566.4733)"
       inkscape:collect="always"
       xlink:href="#linearGradient5316"
       id="linearGradient6960"
       x1="489.38672"
       y1="968.0575"
       x2="497.88281"
       y2="968.0575"
       gradientUnits="userSpaceOnUse" />
    <linearGradient
       gradientTransform="matrix(2.6513978,0,0,2.6513978,-1286.6102,-1566.4733)"
       inkscape:collect="always"
       xlink:href="#linearGradient5316"
       id="linearGradient6956"
       x1="500.56628"
       y1="969.16504"
       x2="529.625"
       y2="969.16504"
       gradientUnits="userSpaceOnUse" />
    <linearGradient
       gradientTransform="matrix(2.6513978,0,0,2.6513978,-1286.6102,-1566.4733)"
       inkscape:collect="always"
       xlink:href="#linearGradient36790"
       id="linearGradient6972"
       x1="499.14417"
       y1="927.55963"
       x2="502.98755"
       y2="951.80963"
       gradientUnits="userSpaceOnUse" />
    <linearGradient
       inkscape:collect="always"
       xlink:href="#linearGradient9863-6"
       id="linearGradient7800"
       x1="488.875"
       y1="1024.4532"
       x2="530.125"
       y2="1024.4532"
       gradientUnits="userSpaceOnUse"
       gradientTransform="matrix(2.6513978,0,0,2.6513978,-1286.6102,-1725.5572)" />
    <linearGradient
       id="linearGradient9863-6">
      <stop
         style="stop-color:#2f445a;stop-opacity:1;"
         offset="0"
         id="stop9865-07" />
      <stop
         style="stop-color:#415f7c;stop-opacity:1"
         offset="1"
         id="stop9867-9" />
    </linearGradient>
    <linearGradient
       id="linearGradient5316">
      <stop
         style="stop-color:#c0bfbb;stop-opacity:1;"
         offset="0"
         id="stop5320" />
      <stop
         style="stop-color:#798088;stop-opacity:1;"
         offset="1"
         id="stop5322" />
    </linearGradient>
    <linearGradient
       id="linearGradient9863">
      <stop
         style="stop-color:#2f445a;stop-opacity:1;"
         offset="0"
         id="stop9865" />
      <stop
         style="stop-color:#415f7c;stop-opacity:1"
         offset="1"
         id="stop9867" />
    </linearGradient>
    <linearGradient
       inkscape:collect="always"
       xlink:href="#linearGradient9863"
       id="linearGradient3091"
       x1="220.63092"
       y1="919.83051"
       x2="208.18069"
       y2="990.38495"
       gradientUnits="userSpaceOnUse"
       gradientTransform="matrix(0.75205264,-0.04308129,0.02257587,0.7983791,-102.74764,239.37342)" />
  </defs>
  <sodipodi:namedview
     id="base"
     pagecolor="#ffffff"
     bordercolor="#666666"
     borderopacity="1.0"
     inkscape:pageopacity="0.0"
     inkscape:pageshadow="2"
     inkscape:zoom="3.959798"
     inkscape:cx="90.202797"
     inkscape:cy="60.282917"
     inkscape:document-units="px"
     inkscape:current-layer="layer1"
     showgrid="false"
     inkscape:window-width="1366"
     inkscape:window-height="717"
     inkscape:window-x="0"
     inkscape:window-y="0"
     inkscape:window-maximized="1" />
  <metadata
     id="metadata7873">
    <rdf:RDF>
      <cc:Work
         rdf:about="">
        <dc:format>image/svg+xml</dc:format>
        <dc:type
           rdf:resource="http://purl.org/dc/dcmitype/StillImage" />
        <dc:title></dc:title>
      </cc:Work>
    </rdf:RDF>
  </metadata>
  <g
     inkscape:label="Capa 1"
     inkscape:groupmode="layer"
     id="layer1"
     transform="translate(0,-924.36218)">
    <path
       style="fill:none;stroke:url(#linearGradient7800);stroke-width:5.30279589;stroke-linecap:round;stroke-linejoin:round;stroke-miterlimit:4;stroke-dasharray:none"
       d="m 68.751231,931.64061 -4.63995,3.31425 -21.62546,-1.90556 -12.26272,10.35689 0.57999,13.91984 -7.29134,0.0827 -12.59414,83.68497 18.22836,2.0713 13.25699,6.5458 0.083,-0.082 75.150559,-12.4284 -9.85989,-79.12784 -12.014149,-0.24843 2.89997,-16.23981 -3.89424,-8.86548 -26.01684,-1.07727 z m 1.57426,3.56268 21.45975,0.74584 2.89997,6.29707 -2.73425,15.49397 -17.06838,-0.41414 -1.57426,-13.67114 -5.05423,-6.95992 2.0714,-1.49168 z m -25.35399,1.24298 15.24554,1.24297 -8.11991,5.79967 -3.31424,13.33998 -8.20277,-0.16571 -4.55709,0.41414 -0.57999,-12.34543 9.52846,-8.28562 z m 20.71405,2.15426 4.14281,5.55123 1.57426,13.17427 -17.15123,-0.41415 3.06568,-12.17999 8.36848,-6.13136 z"
       id="path6974"
       inkscape:connector-curvature="0" />
    <path
       sodipodi:nodetypes="ccccccccccccc"
       inkscape:connector-curvature="0"
       id="path6949"
       d="m 30.807341,957.28466 -0.6163,-13.87961 12.32601,-10.37434 24.65198,2.20848 6.16302,8.44847 1.84889,16.37047 -3.4667,0.005 -1.92592,-15.90985 -4.46819,-6.02498 -20.33789,-1.65636 -9.55264,8.27507 0.61629,13.2633 z"
       style="fill:url(#linearGradient6972);stroke:none" />
    <path
       style="fill:#ff00ff;stroke:none"
       d="m 84.548761,1030.5812 6.6431,-71.77561 -67.76803,-1.36248 -12.49278,83.68159 z"
       id="path6935"
       inkscape:connector-curvature="0"
       sodipodi:nodetypes="ccccc" />
    <path
       sodipodi:nodetypes="ccccc"
       inkscape:connector-curvature="0"
       id="path6931"
       d="m 117.63637,1037.1654 -9.86405,-79.12148 -67.182149,-1.36245 1.81279,92.97453 z"
       style="fill:url(#linearGradient6956);stroke:none" />
    <path
       style="fill:url(#linearGradient6960);stroke:none"
       d="m 10.948681,1041.1321 18.19729,1.9989 4.32926,-85.79752 -9.98419,0.10367 z"
       id="path6943"
       inkscape:connector-curvature="0"
       sodipodi:nodetypes="ccccc" />
    <path
       sodipodi:nodetypes="ccccc"
       inkscape:connector-curvature="0"
       id="path6945"
       d="m 42.425181,1049.686 -13.27921,-6.555 4.32926,-85.79752 7.18215,-0.68727 z"
       style="fill:url(#linearGradient6958);stroke:none" />
    <path
       style="fill:url(#linearGradient6970);stroke:none"
       d="m 48.742321,956.85394 3.36446,-13.34072 16.65134,-11.89907 25.97285,1.09765 3.97206,8.83756 -2.933,16.20683 -3.84609,0.0414 2.79547,-15.55678 -2.91171,-6.29861 -21.48048,-0.72596 -12.97979,9.47658 -3.06016,12.25351 z"
       id="path6947"
       inkscape:connector-curvature="0"
       sodipodi:nodetypes="ccccccccccccc" />
    <path
       sodipodi:nodetypes="ccccc"
       inkscape:connector-curvature="0"
       id="path6962"
       d="m 10.948681,1041.1321 18.19729,1.9989 4.32926,-85.79752 -9.98419,0.10367 z"
       style="fill:url(#linearGradient6964);stroke:none" />
    <path
       style="fill:url(#linearGradient6968);stroke:none"
       d="m 42.425181,1049.686 -13.27921,-6.555 4.32926,-85.79752 7.18215,-0.68727 z"
       id="path6966"
       inkscape:connector-curvature="0"
       sodipodi:nodetypes="ccccc" />
    <path
       inkscape:connector-curvature="0"
       id="path3089"
       d="m 66.688456,976.47923 c -0.157633,-0.0763 -0.309076,0.12859 -0.397169,0.265 -0.210998,0.323 -0.0082,1.31982 0.292867,3.19045 0.803006,4.95992 3.50287,16.84112 3.201291,27.35412 -0.632318,0.3284 -1.188163,0.6469 -1.790062,1.0885 -3.840711,-6.8717 -10.175532,-16.9497 -12.304677,-20.1712 -1.962982,-2.9664 -3.815508,-4.0826 -1.820372,0.017 1.977746,4.0634 6.562282,15.0175 10.379711,23.6431 -0.825631,1.1038 -1.445431,2.5108 -2.114414,3.928 -4.880813,-3.9012 -12.35837,-9.0247 -15.269381,-10.5403 -3.07449,-1.6007 -5.043673,-1.8993 -1.79006,1.0886 3.20242,2.9401 8.790113,7.8973 15.170885,14.2113 -0.28133,1.0631 -0.307936,2.32 -0.507428,3.5077 -3.449681,-0.5571 -6.573429,-0.5366 -8.924558,-0.8024 -1.720688,-0.1945 -2.951195,-0.3402 -3.445298,-0.2093 0.167763,0.2072 0.463602,0.8265 1.655156,1.2958 2.85995,1.1251 5.395106,2.5978 10.029545,4.1053 1.54484,0.5025 3.391576,1.1716 5.509629,1.6661 l 0.09882,-3.6715 c 1.59509,-17.3912 22.783464,-15.6986 21.013938,-0.9501 l 5.83411,-1.1688 0.006,0.2135 c 0.07293,-0.01 0.329637,-0.043 0.403186,-0.051 6.093562,-1.0914 14.124105,-2.9604 17.477795,-4.3744 2.52913,-1.065 4.17129,-1.9123 -0.44565,-1.4493 -4.4571,0.443 -8.77095,0.5705 -17.171596,0.8921 -0.111648,-0.8797 -0.243977,-1.7091 -0.475934,-2.522 6.282632,-5.0105 12.89319,-12.2122 14.9571,-14.8137 2.39821,-3.0215 3.51079,-6.362 -1.27015,-1.9898 -3.89601,3.5621 -9.53279,7.9696 -16.043907,12.1541 -0.554853,-0.802 -1.003017,-1.4812 -1.679424,-2.1534 5.703481,-7.186 11.728004,-17.9712 13.351941,-21.4962 1.7277,-3.7517 1.99132,-7.3832 -1.862814,-1.4848 -3.538291,5.4151 -9.119083,12.4691 -15.83167,19.6589 -0.390434,-0.1845 -0.824581,-0.336 -1.227805,-0.4914 3.372637,-8.2078 6.251372,-19.8054 6.523606,-26.86879 0.155629,-4.04331 -0.853962,-7.71601 -1.844656,-0.84135 -0.930263,6.45434 -5.286708,17.39924 -9.962722,26.87584 -0.702397,0.01 -1.521039,-0.021 -2.223589,0.067 0.490399,-9.1498 -4.112324,-22.6045 -5.590012,-25.97418 -0.725964,-1.65542 -1.439547,-2.96951 -1.911369,-3.20029 z m 8.316865,43.70447 c -0.678407,0.1541 -1.366984,0.4702 -1.997674,0.9015 -2.562527,1.7594 -3.627684,5.2149 -2.206857,7.8129 1.420891,2.6013 4.767644,3.4091 7.330027,1.6501 2.562568,-1.7587 3.621604,-5.4287 2.200804,-8.0268 l -0.207987,-0.1884 c -1.090261,-1.89 -3.082317,-2.5715 -5.118604,-2.1473 z"
       style="color:#bebebe;fill:none;stroke:url(#linearGradient3091);stroke-width:1.86119306;marker:none;visibility:visible;display:inline;overflow:visible;enable-background:accumulate" />
    <path
       style="color:#bebebe;fill:#ffffff;fill-opacity:1;fill-rule:nonzero;stroke:none;stroke-width:2.4000001;marker:none;visibility:visible;display:inline;overflow:visible;enable-background:accumulate"
       d="m 67.81375,976.39307 c -0.157631,-0.0763 -0.309074,0.12859 -0.397159,0.26499 -0.211006,0.323 -0.0082,1.31983 0.292859,3.19045 0.803014,4.95995 3.502878,16.8411 3.201299,27.35409 -0.632324,0.3285 -1.18817,0.6471 -1.790074,1.0884 -3.840708,-6.8716 -10.175528,-16.94951 -12.304673,-20.17104 -1.962983,-2.96638 -3.815508,-4.08259 -1.820364,0.0169 1.977745,4.06335 6.562273,15.01744 10.379706,23.64314 -0.825626,1.1037 -1.445425,2.5109 -2.114416,3.928 -4.880814,-3.9013 -12.358373,-9.0249 -15.269375,-10.5403 -3.074498,-1.6008 -5.043671,-1.8992 -1.790067,1.0885 3.202421,2.9403 8.790112,7.8973 15.170884,14.2113 -0.281331,1.0632 -0.307934,2.3201 -0.507425,3.5077 -3.449682,-0.5569 -6.573432,-0.5366 -8.924561,-0.8024 -1.720685,-0.1943 -2.951193,-0.3401 -3.445287,-0.2092 0.167754,0.2073 0.463588,0.8263 1.655142,1.2957 2.859951,1.125 5.395112,2.598 10.029549,4.1053 1.544839,0.5026 3.391574,1.1715 5.509638,1.6662 l 0.09881,-3.6715 c 1.595091,-17.3912 22.78347,-15.6987 21.013947,-0.95 l 5.834108,-1.1689 0.0058,0.2134 c 0.07292,-0.01 0.329621,-0.043 0.403168,-0.051 6.093586,-1.0912 14.124091,-2.9602 17.477781,-4.3742 2.52915,-1.0651 4.17131,-1.9123 -0.44563,-1.4494 -4.45712,0.4431 -8.77095,0.5706 -17.1716,0.8921 -0.11164,-0.8796 -0.243961,-1.7091 -0.475923,-2.5219 6.282627,-5.0106 12.893163,-12.2123 14.957073,-14.8138 2.39822,-3.02147 3.51079,-6.36195 -1.27015,-1.9897 -3.89599,3.562 -9.532776,7.9696 -16.043878,12.1541 -0.554858,-0.8023 -1.003028,-1.4813 -1.679424,-2.1535 5.703466,-7.186 11.727992,-17.97119 13.351922,-21.49619 1.72771,-3.75167 1.99132,-7.38321 -1.862801,-1.48475 -3.538284,5.41507 -9.119086,12.46908 -15.831675,19.65884 -0.390424,-0.1844 -0.824573,-0.336 -1.227805,-0.4913 3.372646,-8.20785 6.251373,-19.80548 6.523614,-26.86886 0.155622,-4.04331 -0.85396,-7.716 -1.844655,-0.84136 -0.930262,6.45431 -5.286716,17.39921 -9.962729,26.87602 -0.702396,0.01 -1.521038,-0.021 -2.223589,0.067 0.490407,-9.14986 -4.112326,-22.60453 -5.590013,-25.97424 -0.725964,-1.65542 -1.439538,-2.96951 -1.911361,-3.2003 z m 8.316877,43.70453 c -0.678418,0.154 -1.366988,0.47 -1.997675,0.9015 -2.562536,1.7594 -3.627696,5.2147 -2.206868,7.8127 1.420891,2.6014 4.767655,3.4094 7.330036,1.6502 2.562558,-1.7588 3.621595,-5.4287 2.200797,-8.0268 l -0.207987,-0.1885 c -1.090263,-1.8899 -3.082317,-2.5714 -5.118597,-2.1472 z"
       id="rect11261"
       inkscape:connector-curvature="0" />
  </g>
</svg>
