<?xml version="1.0" encoding="UTF-8" standalone="no"?>
<!-- Created with Inkscape (http://www.inkscape.org/) -->

<svg
   xmlns:dc="http://purl.org/dc/elements/1.1/"
   xmlns:cc="http://creativecommons.org/ns#"
   xmlns:rdf="http://www.w3.org/1999/02/22-rdf-syntax-ns#"
   xmlns:svg="http://www.w3.org/2000/svg"
   xmlns="http://www.w3.org/2000/svg"
   xmlns:xlink="http://www.w3.org/1999/xlink"
   xmlns:sodipodi="http://sodipodi.sourceforge.net/DTD/sodipodi-0.dtd"
   xmlns:inkscape="http://www.inkscape.org/namespaces/inkscape"
   width="128"
   height="128"
   id="svg6934"
   sodipodi:version="0.32"
   inkscape:version="0.48.3.1 r9886"
   version="1.0"
   sodipodi:docname="partner.svg"
   inkscape:output_extension="org.inkscape.output.svg.inkscape">
  <defs
     id="defs6936">
    <linearGradient
       id="linearGradient5165-7-9-8-2">
      <stop
         id="stop5167-4-8-6-9"
         style="stop-color:#ffffff;stop-opacity:1"
         offset="0" />
      <stop
         id="stop5169-5-5-2-9"
         style="stop-color:#ffffff;stop-opacity:0"
         offset="1" />
    </linearGradient>
    <linearGradient
       id="linearGradient5344">
      <stop
         style="stop-color:#000000;stop-opacity:1;"
         offset="0"
         id="stop5346" />
      <stop
         style="stop-color:#000000;stop-opacity:0;"
         offset="1"
         id="stop5348" />
    </linearGradient>
    <linearGradient
       inkscape:collect="always"
       xlink:href="#linearGradient5165-7-9-8-2"
       id="linearGradient3103"
       x1="22.933788"
       y1="-144.76825"
       x2="18.618809"
       y2="-96.331688"
       gradientUnits="userSpaceOnUse"
       gradientTransform="translate(0,140)" />
    <linearGradient
       inkscape:collect="always"
       xlink:href="#linearGradient5344"
       id="linearGradient3105"
       x1="7.9531264"
       y1="2.2416961"
       x2="13.667412"
       y2="-64.464973"
       gradientUnits="userSpaceOnUse"
       gradientTransform="translate(0,140)" />
    <linearGradient
       inkscape:collect="always"
       xlink:href="#linearGradient5344"
       id="linearGradient3107"
       gradientUnits="userSpaceOnUse"
       gradientTransform="matrix(5.3340639,0,0,5.3340639,-1451.4802,-5864.5574)"
       x1="305.23422"
       y1="1137.0681"
       x2="283.35095"
       y2="1104.2024" />
  </defs>
  <sodipodi:namedview
     id="base"
     pagecolor="#ffffff"
     bordercolor="#666666"
     borderopacity="1.0"
     inkscape:pageopacity="0.0"
     inkscape:pageshadow="2"
     inkscape:zoom="3.959798"
     inkscape:cx="66.03473"
     inkscape:cy="63.976981"
     inkscape:document-units="px"
     inkscape:current-layer="layer1"
     showgrid="false"
     inkscape:window-width="1280"
     inkscape:window-height="713"
     inkscape:window-x="0"
     inkscape:window-y="0"
     inkscape:window-maximized="0"
     inkscape:snap-global="false" />
  <metadata
     id="metadata6939">
    <rdf:RDF>
      <cc:Work
         rdf:about="">
        <dc:format>image/svg+xml</dc:format>
        <dc:type
           rdf:resource="http://purl.org/dc/dcmitype/StillImage" />
        <dc:title />
      </cc:Work>
    </rdf:RDF>
  </metadata>
  <g
     inkscape:label="Capa 1"
     inkscape:groupmode="layer"
     id="layer1">
    <path
       style="fill:#f50051;fill-opacity:1;fill-rule:evenodd;stroke:none"
       d="m 34.21875,5.0625 c -1.32927,0.0554 -2.550557,0.27966 -3.65625,0.625 l -18.34375,2.71875 -0.5,0 0,0.1875 C 6.0032494,9.64282 3.0625,14.18573 3.0625,19.75 l 0,84.6875 c -0.07024,5.65226 2.0501037,10.0952 6.3125,11.5 l 18.96875,5.9375 c 0.02087,0.0102 0.04153,0.0212 0.0625,0.0313 1.892721,0.90932 4.164425,1.2325 6.78125,0.8125 l 78.28125,-11.8125 c 5.72052,-0.61974 9.4668,-6.06393 9.15625,-13.625 L 123.03125,23 c 0.22248,-5.96534 -2.80168,-10.97622 -9.34375,-11.96875 L 35.84375,5.09375 c -0.55631,-0.0273 -1.103066,-0.053 -1.625,-0.0313 z"
       id="path30949"
       inkscape:connector-curvature="0" />
    <path
       style="fill:url(#linearGradient3107);fill-rule:evenodd;stroke:none"
       d="M 29.25,16.71875 29.21875,113.125 c 0.448699,3.45828 1.407546,8.12456 4.34375,9.75 0.527128,-0.0229 1.067503,-0.0668 1.625,-0.15625 l 78.28125,-11.8125 c 5.72052,-0.61974 9.4668,-6.06393 9.15625,-13.625 L 123.03125,23 C 123.2537,17.03466 120.22957,12.02378 113.6875,11.03125 L 37.678453,5.23369 C 33.707189,4.81302 29.262938,10.01426 29.25,16.71875 z M 30.15625,122.5 c 0.647964,0.17153 1.314675,0.32617 2.03125,0.375 z"
       id="path30953"
       inkscape:connector-curvature="0"
       sodipodi:nodetypes="ccccccccccccc" />
    <path
       style="fill:url(#linearGradient3103);fill-rule:evenodd;stroke:none;display:inline"
       d="m 34.78125,5.3125 -22.5625,3.09375 -0.5,0 0,0.1875 C 6.003249,9.64282 3.0625,14.18573 3.0625,19.75 l 0,25 26.1875,0 0,-28.03125 C 29.597051,11.80197 31.524064,6.75497 34.78125,5.3125 z"
       id="path3073"
       inkscape:connector-curvature="0" />
    <path
       style="fill:url(#linearGradient3105);fill-rule:evenodd;stroke:none;display:inline"
       d="m 3.0625,68.40625 0,36.03125 c -0.07024,5.65226 2.050104,10.0952 6.3125,11.5 l 17.65625,6.03125 7.5,1.3125 c -3.710844,-1.04488 -4.81745,-6.34073 -5.3125,-10.15625 l 0,-44.71875 -26.15625,0 z"
       id="path3081"
       inkscape:connector-curvature="0" />
    <path
       inkscape:connector-curvature="0"
       id="path30957"
       d="m 35.825012,5.08443 c -1.734374,-0.0853 -3.26759,0.13333 -4.667303,0.50133 L 11.65504,8.5863 C 5.9395447,9.63537 2.9871862,14.19003 2.9871862,19.7543 l 0,84.67844 c -0.07024,5.65226 2.0718035,10.09707 6.3341998,11.50187 l 19.669357,6.16693 c 1.792241,0.74027 3.774988,1.0512 6.167512,0.6672 l 78.344065,-11.8352 c 5.72052,-0.6192 9.47847,-6.1072 9.16792,-13.66827 l 0.33339,-74.34403 C 123.22608,16.9559 120.21109,12.0791 113.66902,11.08657 L 35.825018,5.0855 z"
       style="fill:none;stroke:#344b63;stroke-width:2.667032;stroke-linecap:butt;stroke-linejoin:miter;stroke-miterlimit:4;stroke-opacity:1;stroke-dasharray:none;display:inline"
       sodipodi:nodetypes="ccccccccccccc" />
    <path
       sodipodi:nodetypes="ssscscssccccccc"
       inkscape:connector-curvature="0"
       id="path2998"
       d="m 33.513392,65.613152 c 0,25.649318 22.018327,47.411248 45.214286,44.918098 23.195952,-2.49316 38.533162,-21.846977 38.533162,-47.496295 0,-25.649318 -16.78251,-47.104475 -39.997448,-48.616575 -27.218647,-1.44931 -43.75,23.780258 -43.75,51.194772 z m 43.75,-39.575681 c 20.197101,1.23753 30.747448,17.740841 30.747448,36.977831 0,19.236988 -11.873722,34.152279 -29.283162,35.896857 C 60.068017,100.78202 45.169642,86.274806 45.169642,65.396189 45.268513,41.765856 58.727863,25.325671 77.263392,26.037471 z m 0.5,10.182666 C 62.068203,36.140072 53.419642,47.229406 53.419642,65.284825 53.641801,80.537292 64.09433,91.999913 78.741071,90.836252 90.83036,89.328746 101.38392,76.10307 101.38392,63.31159 100.80138,47.654691 92.04871,36.607557 77.763392,36.220137 z"
       style="color:#000000;fill:#000000;fill-opacity:0.19087135;fill-rule:nonzero;stroke:#000000;stroke-width:5;stroke-miterlimit:4;stroke-opacity:0.57261412;stroke-dasharray:none;marker:none;visibility:visible;display:inline;overflow:visible;enable-background:accumulate" />
    <path
       style="color:#000000;fill:#ffffff;fill-opacity:1;fill-rule:nonzero;stroke:none;stroke-width:1;marker:none;visibility:visible;display:inline;overflow:visible;enable-background:accumulate"
       d="m 35.513392,65.613152 c 0,25.649318 22.018327,47.411248 45.214286,44.918098 23.195952,-2.49316 38.533162,-21.846977 38.533162,-47.496295 0,-25.649318 -16.78251,-47.104475 -39.997448,-48.616575 -27.218647,-1.44931 -43.75,23.780258 -43.75,51.194772 z m 43.75,-39.575681 c 20.197101,1.23753 30.747448,17.740841 30.747448,36.977831 0,19.236988 -11.873722,34.152279 -29.283162,35.896857 C 62.068017,100.78202 47.169642,86.274806 47.169642,65.396189 47.268513,41.765856 60.727863,25.325671 79.263392,26.037471 z m 0.5,10.182666 C 64.068203,36.140072 55.419642,47.229406 55.419642,65.284825 55.641801,80.537292 66.09433,91.999913 80.741071,90.836252 92.83036,89.328746 103.38392,76.10307 103.38392,63.31159 102.80138,47.654691 94.04871,36.607557 79.763392,36.220137 z"
       id="path3659"
       inkscape:connector-curvature="0"
       sodipodi:nodetypes="ssscscssccccccc" />
  </g>
</svg>
