<?xml version="1.0" encoding="UTF-8" standalone="no"?>
<!-- Created with Inkscape (http://www.inkscape.org/) -->

<svg
   xmlns:dc="http://purl.org/dc/elements/1.1/"
   xmlns:cc="http://creativecommons.org/ns#"
   xmlns:rdf="http://www.w3.org/1999/02/22-rdf-syntax-ns#"
   xmlns:svg="http://www.w3.org/2000/svg"
   xmlns="http://www.w3.org/2000/svg"
   xmlns:xlink="http://www.w3.org/1999/xlink"
   xmlns:sodipodi="http://sodipodi.sourceforge.net/DTD/sodipodi-0.dtd"
   xmlns:inkscape="http://www.inkscape.org/namespaces/inkscape"
   width="128"
   height="128"
   id="svg6934"
   sodipodi:version="0.32"
   inkscape:version="0.48.3.1 r9886"
   version="1.0"
   sodipodi:docname="aaa-generic.svg"
   inkscape:output_extension="org.inkscape.output.svg.inkscape">
  <defs
     id="defs6936">
    <linearGradient
       id="linearGradient5344">
      <stop
         style="stop-color:#000000;stop-opacity:1;"
         offset="0"
         id="stop5346" />
      <stop
         style="stop-color:#000000;stop-opacity:0;"
         offset="1"
         id="stop5348" />
    </linearGradient>
    <linearGradient
       id="linearGradient5165-7-9-8-2">
      <stop
         id="stop5167-4-8-6-9"
         style="stop-color:#ffffff;stop-opacity:1"
         offset="0" />
      <stop
         id="stop5169-5-5-2-9"
         style="stop-color:#ffffff;stop-opacity:0"
         offset="1" />
    </linearGradient>
    <linearGradient
       inkscape:collect="always"
       xlink:href="#linearGradient5344"
       id="linearGradient3107"
       gradientUnits="userSpaceOnUse"
       gradientTransform="matrix(5.3340639,0,0,5.3340639,-1451.4802,-5864.5574)"
       x1="305.23422"
       y1="1137.0681"
       x2="283.35095"
       y2="1104.2024" />
    <linearGradient
       inkscape:collect="always"
       xlink:href="#linearGradient5344-50"
       id="linearGradient13031-7"
       gradientUnits="userSpaceOnUse"
       gradientTransform="matrix(2.3371908,-0.19593194,0,2.3371908,-1123.3759,-2035.152)"
       x1="516.625"
       y1="949.4657"
       x2="516.625"
       y2="953.45752" />
    <linearGradient
       id="linearGradient5344-50">
      <stop
         style="stop-color:#000000;stop-opacity:1;"
         offset="0"
         id="stop5346-2" />
      <stop
         style="stop-color:#000000;stop-opacity:0;"
         offset="1"
         id="stop5348-5" />
    </linearGradient>
    <linearGradient
       inkscape:collect="always"
       xlink:href="#linearGradient5316-0"
       id="linearGradient13027-1"
       gradientUnits="userSpaceOnUse"
       gradientTransform="matrix(3.6383072,-0.24094751,0,3.6383072,-1797.8001,-3254.4436)"
       x1="516.625"
       y1="951.58276"
       x2="516.84595"
       y2="953.33002" />
    <linearGradient
       id="linearGradient5316-0">
      <stop
         style="stop-color:#aac736;stop-opacity:1;"
         offset="0"
         id="stop5320-8" />
      <stop
         style="stop-color:#5d8b2c;stop-opacity:1;"
         offset="1"
         id="stop5322-1" />
    </linearGradient>
    <linearGradient
       inkscape:collect="always"
       xlink:href="#linearGradient13604-6"
       id="linearGradient13023-1"
       gradientUnits="userSpaceOnUse"
       gradientTransform="matrix(3.6383072,0,0,3.6383072,-1871.8013,-3376.2301)"
       x1="532.71075"
       y1="943.25812"
       x2="540.65033"
       y2="973.31165" />
    <linearGradient
       id="linearGradient13604-6">
      <stop
         id="stop13606-2"
         offset="0"
         style="stop-color:#ffffff;stop-opacity:1;" />
      <stop
         id="stop13608-7"
         offset="1"
         style="stop-color:#000000;stop-opacity:1;" />
    </linearGradient>
    <linearGradient
       inkscape:collect="always"
       xlink:href="#linearGradient13620-8"
       id="linearGradient13021-7"
       gradientUnits="userSpaceOnUse"
       gradientTransform="matrix(3.6383072,0,0,3.6383072,-1811.8986,-3430.9797)"
       x1="508.00168"
       y1="976.56775"
       x2="507.60999"
       y2="969.06256" />
    <linearGradient
       id="linearGradient13620-8">
      <stop
         id="stop13622-7"
         offset="0"
         style="stop-color:#000000;stop-opacity:1;" />
      <stop
         id="stop13624-6"
         offset="1"
         style="stop-color:#000000;stop-opacity:0;" />
    </linearGradient>
    <linearGradient
       inkscape:collect="always"
       xlink:href="#linearGradient13604-6"
       id="linearGradient13015-1"
       gradientUnits="userSpaceOnUse"
       gradientTransform="matrix(3.6383072,0,0,3.6383072,-1811.8986,-3430.9797)"
       x1="507.15793"
       y1="956.94275"
       x2="506.35999"
       y2="981.68756" />
    <linearGradient
       inkscape:collect="always"
       xlink:href="#linearGradient5165-7-9-8-2"
       id="linearGradient3092"
       gradientUnits="userSpaceOnUse"
       gradientTransform="translate(-40,140)"
       x1="22.933788"
       y1="-144.76825"
       x2="18.618809"
       y2="-96.331688" />
    <linearGradient
       inkscape:collect="always"
       xlink:href="#linearGradient5344"
       id="linearGradient3094"
       gradientUnits="userSpaceOnUse"
       gradientTransform="translate(-40,140)"
       x1="7.9531264"
       y1="2.2416961"
       x2="13.667412"
       y2="-64.464973" />
  </defs>
  <sodipodi:namedview
     id="base"
     pagecolor="#ffffff"
     bordercolor="#666666"
     borderopacity="1.0"
     inkscape:pageopacity="0.0"
     inkscape:pageshadow="2"
     inkscape:zoom="0.5"
     inkscape:cx="-184.79868"
     inkscape:cy="-32.499629"
     inkscape:document-units="px"
     inkscape:current-layer="layer1"
     showgrid="false"
     inkscape:window-width="1366"
     inkscape:window-height="718"
     inkscape:window-x="0"
     inkscape:window-y="0"
     inkscape:window-maximized="1" />
  <metadata
     id="metadata6939">
    <rdf:RDF>
      <cc:Work
         rdf:about="">
        <dc:format>image/svg+xml</dc:format>
        <dc:type
           rdf:resource="http://purl.org/dc/dcmitype/StillImage" />
        <dc:title></dc:title>
      </cc:Work>
    </rdf:RDF>
  </metadata>
  <g
     inkscape:label="Capa 1"
     inkscape:groupmode="layer"
     id="layer1">
    <path
       style="fill:#00b400;fill-opacity:1;fill-rule:evenodd;stroke:none"
       d="m 34.21875,5.062503 c -1.32927,0.0554 -2.55056,0.27966 -3.65625,0.625 l -18.34375,2.71875 -0.5,0 0,0.1875 c -5.7155,1.04907 -8.65625,5.59198 -8.65625,11.15625 l 0,84.687497 c -0.0702,5.65226 2.0501,10.0952 6.3125,11.5 l 18.96875,5.9375 c 0.0209,0.0102 0.0415,0.0212 0.0625,0.0313 1.89272,0.90932 4.16442,1.2325 6.78125,0.8125 l 78.28125,-11.8125 c 5.72052,-0.61974 9.4668,-6.06393 9.15625,-13.625 l 0.40625,-74.281297 c 0.22248,-5.96534 -2.80168,-10.97622 -9.34375,-11.96875 l -77.84375,-5.9375 c -0.55631,-0.0273 -1.10307,-0.053 -1.625,-0.0313 z"
       id="path30949"
       inkscape:connector-curvature="0" />
    <path
       style="fill:url(#linearGradient3107);fill-rule:evenodd;stroke:none"
       d="M 29.25,16.718753 29.2187,113.125 c 0.4487,3.45828 1.40755,8.12456 4.34375,9.75 0.52713,-0.0229 1.0675,-0.0668 1.625,-0.15625 l 78.28125,-11.8125 c 5.72052,-0.61974 9.4668,-6.06393 9.15625,-13.625 l 0.40625,-74.281247 c 0.22245,-5.96534 -2.80168,-10.97622 -9.34375,-11.96875 L 37.6784,5.233693 c -3.97126,-0.42067 -8.41551,4.78057 -8.42845,11.48506 z M 30.15625,122.5 c 0.64796,0.17153 1.31467,0.32617 2.03125,0.375 z"
       id="path30953"
       inkscape:connector-curvature="0"
       sodipodi:nodetypes="ccccccccccccc" />
    <g
       id="g3087"
       transform="translate(40,0)">
      <path
         inkscape:connector-curvature="0"
         id="path3073"
         d="m -5.21875,5.312503 -22.5625,3.09375 -0.5,0 0,0.1875 c -5.715501,1.04907 -8.65625,5.59198 -8.65625,11.15625 l 0,25 26.1875,0 0,-28.03125 c 0.347051,-4.91678 2.274064,-9.96378 5.53125,-11.40625 z"
         style="fill:url(#linearGradient3092);fill-rule:evenodd;stroke:none;display:inline" />
      <path
         inkscape:connector-curvature="0"
         id="path3081"
         d="m -36.9375,68.406253 0,36.031247 c -0.07024,5.65226 2.050104,10.0952 6.3125,11.5 l 17.65625,6.03125 7.5,1.3125 c -3.710844,-1.04488 -4.81745,-6.34073 -5.3125,-10.15625 l 0,-44.718747 -26.15625,0 z"
         style="fill:url(#linearGradient3094);fill-rule:evenodd;stroke:none;display:inline" />
    </g>
    <path
       inkscape:connector-curvature="0"
       id="path30957"
       d="m 35.825012,5.0844328 c -1.734374,-0.0853 -3.26759,0.13333 -4.667303,0.50133 L 11.65504,8.5863028 C 5.9395447,9.6353728 2.9871862,14.190033 2.9871862,19.754303 l 0,84.678437 c -0.07024,5.65226 2.0718035,10.09707 6.3341998,11.50187 l 19.669357,6.16693 c 1.792241,0.74027 3.774988,1.0512 6.167512,0.6672 l 78.344065,-11.8352 c 5.72052,-0.6192 9.47847,-6.1072 9.16792,-13.66827 l 0.33339,-74.344027 c 0.22245,-5.96534 -2.79254,-10.84214 -9.33461,-11.83467 L 35.825018,5.0855028 z"
       style="fill:none;stroke:#344b63;stroke-width:2.667032;stroke-linecap:butt;stroke-linejoin:miter;stroke-miterlimit:4;stroke-opacity:1;stroke-dasharray:none;display:inline"
       sodipodi:nodetypes="ccccccccccccc" />
    <path
       sodipodi:nodetypes="ccccccccccscccccccccssscccccscscsccsccccccccccccccccccssssssssccsssssssssss"
       id="path8020"
       d="M 82.825251,13.202501 62.382957,17.504795 67.017749,31.3533 53.818543,33.255215 c 1.220366,6.509354 1.739808,12.617913 1.733505,18.811884 l -8.203437,2.525201 0.272994,4.564454 7.848545,-3.019606 c -0.137062,3.626628 -0.438904,7.236406 -0.887226,10.823441 -5.68e-4,0.0045 5.66e-4,0.0091 0,0.01368 -1.55658,1.698254 -2.511534,3.945884 -2.511534,6.395009 0,1.522234 0.370623,2.941209 1.023722,4.187078 -0.05425,-0.103533 -0.113517,-0.203092 -0.163795,-0.309036 -1.13556,5.90176 -2.561941,11.637848 -4.135843,17.548716 -1.936729,-0.736543 -3.917168,-1.574294 -5.951244,-2.521821 l -1.214818,2.352903 c 2.207245,1.028189 4.358322,1.941197 6.46993,2.730343 -1.61441,5.915449 -3.343527,11.816799 -5.050368,17.724289 l 66.518206,-9.50278 c -0.0724,-2.98473 -0.18165,-5.974745 -0.32787,-8.967879 0.23339,-0.184899 0.46851,-0.366789 0.70619,-0.567646 2.93568,-2.480965 4.68077,-4.75423 5.47301,-6.962368 0.79224,-2.208137 0.52251,-4.31064 -0.35309,-6.053019 -1.52199,-3.028613 -4.62239,-5.23128 -7.44028,-7.247541 -0.0435,-0.413004 -0.0811,-0.826316 -0.12611,-1.239413 -0.67879,0.913625 -1.36883,1.800283 -2.06813,2.670339 2.35482,1.705844 4.93069,3.501326 6.53229,5.610179 0.0811,0.10137 0.15156,0.209742 0.227,0.311608 0.27167,0.36682 0.51862,0.736323 0.70619,1.10957 0.34668,0.689863 0.54314,1.370802 0.58009,2.089623 0.26877,2.472384 -1.05459,5.362591 -5.20819,8.872813 -10.550743,8.916504 -15.661087,1.770504 -20.252671,-2.937068 -0.964848,0.508374 -1.950071,0.979087 -2.950887,1.409489 -9.882357,4.249916 -22.011507,9.226153 -36.842532,3.711944 0.231166,-0.825028 0.478747,-1.663505 0.70978,-2.535103 14.512538,5.486232 26.00074,0.659114 35.325672,-3.351081 4.384993,-1.88577 8.43201,-4.612796 12.207085,-8.037673 1.89651,2.053017 3.839943,3.85787 5.346913,6.086061 l 2.00509,-1.442612 c -1.69017,-2.499078 -3.20664,-4.322923 -5.030963,-6.371883 3.117703,-2.949062 5.516813,-6.606441 8.297113,-10.558663 0.12573,1.142509 0.23587,2.286892 0.35311,3.430007 1.94912,-2.617812 3.82671,-5.399164 5.62433,-8.335159 l -2.00509,-1.142588 c -1.27612,2.084248 -2.59194,4.083769 -3.93451,5.994585 -1.87663,-19.70966 -2.66566,-34.07734 -12.316619,-53.106728 l -7.455287,5.129669 z m 7.278994,25.702461 c 0.22551,-0.01216 0.452907,-0.01527 0.677431,-0.02029 2.993677,-0.06811 5.887681,0.473159 8.554141,1.231464 l -2.82064,5.849238 c -3.614685,-3.246019 -6.688224,-5.255098 -11.19275,-6.213197 1.604653,-0.493401 3.20332,-0.761839 4.781818,-0.847215 z m -4.78731,11.872594 c 7.900757,-0.236644 14.300452,5.971369 14.300452,13.872123 0,7.900754 -6.399695,14.504747 -14.300452,14.741391 -7.900756,0.236644 -14.313064,-5.983603 -14.313064,-13.884357 0,-7.900754 6.412308,-14.492512 14.313064,-14.729157 z M 61.284898,63.866127 c 5.093846,-0.152571 9.227159,2.816757 9.227159,7.652816 0,4.836057 -4.133313,10.648931 -9.227159,10.801502 -3.560912,0.106656 -6.639409,-1.828197 -8.176137,-4.737228 0.683379,-3.457111 1.210847,-7.071952 1.637958,-10.77768 1.670834,-1.737541 3.975863,-2.862663 6.538179,-2.93941 z m 23.868099,0.06922 c -1.493054,0.04472 -2.698676,1.299062 -2.698676,2.792116 0,1.493053 1.205622,2.662564 2.698676,2.617844 1.493054,-0.04472 2.711285,-1.28683 2.711285,-2.779883 0,-1.493054 -1.218231,-2.674797 -2.711285,-2.630077 z m -23.868099,5.32239 c -2.119338,0.06348 -3.83555,1.831095 -3.83555,3.950432 0,2.119338 1.716212,3.784146 3.83555,3.720668 2.119337,-0.06348 3.835551,-1.831096 3.835551,-3.950434 0,-2.119337 -1.716214,-3.784144 -3.835551,-3.720666 z"
       style="fill:#ffffff;fill-opacity:1;stroke:#000000;stroke-width:5;stroke-linecap:round;stroke-linejoin:round;stroke-miterlimit:4;stroke-opacity:0.58921162;stroke-dasharray:none"
       inkscape:connector-curvature="0" />
    <path
       inkscape:connector-curvature="0"
       style="fill:#ffffff;fill-opacity:1;stroke:none"
       d="M 84.825251,13.202501 64.382957,17.504795 69.017749,31.3533 55.818543,33.255215 c 1.220366,6.509354 1.739808,12.617913 1.733505,18.811884 l -8.203437,2.525201 0.272994,4.564454 7.848545,-3.019606 c -0.137062,3.626628 -0.438904,7.236406 -0.887226,10.823441 -5.68e-4,0.0045 5.66e-4,0.0091 0,0.01368 -1.55658,1.698254 -2.511534,3.945884 -2.511534,6.395009 0,1.522234 0.370623,2.941209 1.023722,4.187078 -0.05425,-0.103533 -0.113517,-0.203092 -0.163795,-0.309036 -1.13556,5.90176 -2.561941,11.637848 -4.135843,17.548716 -1.936729,-0.736543 -3.917168,-1.574294 -5.951244,-2.521821 l -1.214818,2.352903 c 2.207245,1.028189 4.358322,1.941197 6.46993,2.730343 -1.61441,5.915449 -3.343527,11.816799 -5.050368,17.724289 l 66.518206,-9.50278 c -0.0724,-2.98473 -0.18165,-5.974745 -0.32787,-8.967879 0.23339,-0.184899 0.46851,-0.366789 0.70619,-0.567646 2.93568,-2.480965 4.68077,-4.75423 5.47301,-6.962368 0.79224,-2.208137 0.52251,-4.31064 -0.35309,-6.053019 -1.52199,-3.028613 -4.62239,-5.23128 -7.44028,-7.247541 -0.0435,-0.413004 -0.0811,-0.826316 -0.12611,-1.239413 -0.67879,0.913625 -1.36883,1.800283 -2.06813,2.670339 2.35482,1.705844 4.93069,3.501326 6.53229,5.610179 0.0811,0.10137 0.15156,0.209742 0.227,0.311608 0.27167,0.36682 0.51862,0.736323 0.70619,1.10957 0.34668,0.689863 0.54314,1.370802 0.58009,2.089623 0.26877,2.472384 -1.05459,5.362591 -5.20819,8.872813 -10.550743,8.916504 -15.661087,1.770504 -20.252671,-2.937068 -0.964848,0.508374 -1.950071,0.979087 -2.950887,1.409489 -9.882357,4.249916 -22.011507,9.226153 -36.842532,3.711944 0.231166,-0.825028 0.478747,-1.663505 0.70978,-2.535103 14.512538,5.486232 26.00074,0.659114 35.325672,-3.351081 4.384993,-1.88577 8.43201,-4.612796 12.207085,-8.037673 1.896513,2.053017 3.839943,3.85787 5.346913,6.086061 l 2.00509,-1.442612 c -1.69017,-2.499078 -3.20664,-4.322923 -5.03096,-6.371883 3.1177,-2.949062 5.51681,-6.606441 8.29711,-10.558663 0.12573,1.142509 0.23587,2.286892 0.35311,3.430007 1.94912,-2.617812 3.82671,-5.399164 5.62433,-8.335159 l -2.00509,-1.142588 c -1.27612,2.084248 -2.59194,4.083769 -3.93451,5.994585 -1.87663,-19.70966 -2.66566,-34.07734 -12.316619,-53.106728 l -7.455287,5.129669 z m 7.278994,25.702461 c 0.22551,-0.01216 0.452907,-0.01527 0.677431,-0.02029 2.993677,-0.06811 5.887681,0.473159 8.554144,1.231464 l -2.820643,5.849238 c -3.614685,-3.246019 -6.688224,-5.255098 -11.19275,-6.213197 1.604653,-0.493401 3.20332,-0.761839 4.781818,-0.847215 z m -4.78731,11.872594 c 7.900757,-0.236644 14.300455,5.971369 14.300455,13.872123 0,7.900754 -6.399698,14.504747 -14.300455,14.741391 -7.900756,0.236644 -14.313064,-5.983603 -14.313064,-13.884357 0,-7.900754 6.412308,-14.492512 14.313064,-14.729157 z M 63.284898,63.866127 c 5.093846,-0.152571 9.227159,2.816757 9.227159,7.652816 0,4.836057 -4.133313,10.648931 -9.227159,10.801502 -3.560912,0.106656 -6.639409,-1.828197 -8.176137,-4.737228 0.683379,-3.457111 1.210847,-7.071952 1.637958,-10.77768 1.670834,-1.737541 3.975863,-2.862663 6.538179,-2.93941 z m 23.868099,0.06922 c -1.493054,0.04472 -2.698676,1.299062 -2.698676,2.792116 0,1.493053 1.205622,2.662564 2.698676,2.617844 1.493054,-0.04472 2.711285,-1.28683 2.711285,-2.779883 0,-1.493054 -1.218231,-2.674797 -2.711285,-2.630077 z m -23.868099,5.32239 c -2.119338,0.06348 -3.83555,1.831095 -3.83555,3.950432 0,2.119338 1.716212,3.784146 3.83555,3.720668 2.119337,-0.06348 3.835551,-1.831096 3.835551,-3.950434 0,-2.119337 -1.716214,-3.784144 -3.835551,-3.720666 z"
       id="path7411"
       sodipodi:nodetypes="ccccccccccscccccccccssscccccscscsccsccccccccccccccccccssssssssccsssssssssss" />
  </g>
</svg>
