<?xml version="1.0" encoding="UTF-8" standalone="no"?>
<!-- Created with Inkscape (http://www.inkscape.org/) -->
<svg
   xmlns:dc="http://purl.org/dc/elements/1.1/"
   xmlns:cc="http://creativecommons.org/ns#"
   xmlns:rdf="http://www.w3.org/1999/02/22-rdf-syntax-ns#"
   xmlns:svg="http://www.w3.org/2000/svg"
   xmlns="http://www.w3.org/2000/svg"
   xmlns:xlink="http://www.w3.org/1999/xlink"
   xmlns:sodipodi="http://sodipodi.sourceforge.net/DTD/sodipodi-0.dtd"
   xmlns:inkscape="http://www.inkscape.org/namespaces/inkscape"
   width="210mm"
   height="297mm"
   id="svg26983"
   sodipodi:version="0.32"
   inkscape:version="0.46"
   sodipodi:docname="solologo3d.svg"
   inkscape:output_extension="org.inkscape.output.svg.inkscape">
  <defs
     id="defs26985">
    <linearGradient
       inkscape:collect="always"
       xlink:href="#linearGradient5316"
       id="linearGradient26191"
       gradientUnits="userSpaceOnUse"
       gradientTransform="translate(-69.163653,-336.09396)"
       x1="502.34912"
       y1="943.10809"
       x2="492.34177"
       y2="969.80133" />
    <linearGradient
       inkscape:collect="always"
       xlink:href="#linearGradient5316"
       id="linearGradient26188"
       gradientUnits="userSpaceOnUse"
       gradientTransform="translate(-69.163653,-336.09396)"
       x1="522.07306"
       y1="971.2395"
       x2="522.06268"
       y2="954.44568" />
    <linearGradient
       inkscape:collect="always"
       xlink:href="#linearGradient5344"
       id="linearGradient26185"
       gradientUnits="userSpaceOnUse"
       gradientTransform="translate(-69.163653,-336.09396)"
       x1="505.88623"
       y1="990.3045"
       x2="495.03214"
       y2="969.87225" />
    <linearGradient
       inkscape:collect="always"
       xlink:href="#linearGradient5362"
       id="linearGradient26182"
       gradientUnits="userSpaceOnUse"
       gradientTransform="translate(350.83635,611.90605)"
       x1="85.849136"
       y1="-12.996742"
       x2="74.278313"
       y2="4.5032578" />
    <linearGradient
       inkscape:collect="always"
       xlink:href="#linearGradient5316"
       id="linearGradient26176"
       gradientUnits="userSpaceOnUse"
       gradientTransform="translate(-69.163653,-336.09396)"
       x1="516.61072"
       y1="964.90088"
       x2="516.61725"
       y2="976.01251" />
    <linearGradient
       inkscape:collect="always"
       xlink:href="#linearGradient5316"
       id="linearGradient26173"
       gradientUnits="userSpaceOnUse"
       gradientTransform="translate(-69.163653,-336.09396)"
       x1="508.31351"
       y1="955.09186"
       x2="506.46252"
       y2="967.85718" />
    <linearGradient
       inkscape:collect="always"
       xlink:href="#linearGradient5362"
       id="linearGradient26170"
       gradientUnits="userSpaceOnUse"
       gradientTransform="translate(-69.163653,-336.09396)"
       x1="507.58542"
       y1="951.43848"
       x2="509.52502"
       y2="960.31348" />
    <linearGradient
       inkscape:collect="always"
       xlink:href="#linearGradient5344"
       id="linearGradient26167"
       gradientUnits="userSpaceOnUse"
       gradientTransform="translate(-69.163653,-336.09396)"
       x1="512.31091"
       y1="979.01343"
       x2="507.62781"
       y2="965.32593" />
    <linearGradient
       id="linearGradient5362">
      <stop
         id="stop5364"
         offset="0"
         style="stop-color:#ffffff;stop-opacity:1;" />
      <stop
         id="stop5366"
         offset="1"
         style="stop-color:#ffffff;stop-opacity:0;" />
    </linearGradient>
    <linearGradient
       inkscape:collect="always"
       xlink:href="#linearGradient5362"
       id="linearGradient26163"
       gradientUnits="userSpaceOnUse"
       gradientTransform="translate(-69.163653,-336.09396)"
       x1="508.69806"
       y1="981.13507"
       x2="525.37488"
       y2="964.38507" />
    <linearGradient
       inkscape:collect="always"
       xlink:href="#linearGradient5344"
       id="linearGradient26160"
       gradientUnits="userSpaceOnUse"
       gradientTransform="translate(-69.163653,-336.09396)"
       x1="525.08405"
       y1="990.77148"
       x2="514.79333"
       y2="974.77148" />
    <linearGradient
       inkscape:collect="always"
       xlink:href="#linearGradient5344"
       id="linearGradient26156"
       gradientUnits="userSpaceOnUse"
       gradientTransform="translate(-69.163653,-336.09396)"
       x1="512.04279"
       y1="932.46844"
       x2="518.17859"
       y2="959.40594" />
    <linearGradient
       id="linearGradient5316">
      <stop
         id="stop5320"
         offset="0"
         style="stop-color:#c0bfbb;stop-opacity:1;" />
      <stop
         id="stop5322"
         offset="1"
         style="stop-color:#798088;stop-opacity:1;" />
    </linearGradient>
    <linearGradient
       inkscape:collect="always"
       xlink:href="#linearGradient5316"
       id="linearGradient26977"
       gradientUnits="userSpaceOnUse"
       gradientTransform="translate(-69.163653,-336.09396)"
       x1="502.05005"
       y1="945.19952"
       x2="521.29358"
       y2="977.56915" />
    <linearGradient
       id="linearGradient5344">
      <stop
         id="stop5346"
         offset="0"
         style="stop-color:#000000;stop-opacity:1;" />
      <stop
         id="stop5348"
         offset="1"
         style="stop-color:#000000;stop-opacity:0;" />
    </linearGradient>
    <linearGradient
       inkscape:collect="always"
       xlink:href="#linearGradient5344"
       id="linearGradient26981"
       gradientUnits="userSpaceOnUse"
       gradientTransform="translate(-69.163653,-336.09396)"
       x1="570.55005"
       y1="1069.1996"
       x2="502.29358"
       y2="949.56915" />
    <linearGradient
       id="linearGradient9863">
      <stop
         id="stop9865"
         offset="0"
         style="stop-color:#2f445a;stop-opacity:1;" />
      <stop
         id="stop9867"
         offset="1"
         style="stop-color:#415f7c;stop-opacity:1" />
    </linearGradient>
    <linearGradient
       inkscape:collect="always"
       xlink:href="#linearGradient9863"
       id="linearGradient26974"
       gradientUnits="userSpaceOnUse"
       gradientTransform="translate(110.93501,612.17375)"
       x1="329.60443"
       y1="37.079216"
       x2="329.60443"
       y2="-8.3120422" />
    <inkscape:perspective
       sodipodi:type="inkscape:persp3d"
       inkscape:vp_x="0 : 526.18109 : 1"
       inkscape:vp_y="0 : 1000 : 0"
       inkscape:vp_z="744.09448 : 526.18109 : 1"
       inkscape:persp3d-origin="372.04724 : 350.78739 : 1"
       id="perspective26991" />
    <linearGradient
       inkscape:collect="always"
       xlink:href="#linearGradient5316"
       id="linearGradient27067"
       gradientUnits="userSpaceOnUse"
       gradientTransform="matrix(10.091373,0,0,10.091373,-4766.8504,-9386.0089)"
       x1="502.34912"
       y1="943.10809"
       x2="492.34177"
       y2="969.80133" />
    <linearGradient
       inkscape:collect="always"
       xlink:href="#linearGradient5316"
       id="linearGradient27069"
       gradientUnits="userSpaceOnUse"
       gradientTransform="matrix(10.091373,0,0,10.091373,-4766.8504,-9386.0089)"
       x1="522.07306"
       y1="971.2395"
       x2="522.06268"
       y2="954.44568" />
    <linearGradient
       inkscape:collect="always"
       xlink:href="#linearGradient5344"
       id="linearGradient27071"
       gradientUnits="userSpaceOnUse"
       gradientTransform="matrix(10.091373,0,0,10.091373,-4766.8504,-9386.0089)"
       x1="505.88623"
       y1="990.3045"
       x2="495.03214"
       y2="969.87225" />
    <linearGradient
       inkscape:collect="always"
       xlink:href="#linearGradient5362"
       id="linearGradient27073"
       gradientUnits="userSpaceOnUse"
       gradientTransform="matrix(10.091373,0,0,10.091373,-528.47386,180.61274)"
       x1="85.849136"
       y1="-12.996742"
       x2="74.278313"
       y2="4.5032578" />
    <linearGradient
       inkscape:collect="always"
       xlink:href="#linearGradient5316"
       id="linearGradient27075"
       gradientUnits="userSpaceOnUse"
       gradientTransform="matrix(10.091373,0,0,10.091373,-4766.8504,-9386.0089)"
       x1="516.61072"
       y1="964.90088"
       x2="516.61725"
       y2="976.01251" />
    <linearGradient
       inkscape:collect="always"
       xlink:href="#linearGradient5316"
       id="linearGradient27077"
       gradientUnits="userSpaceOnUse"
       gradientTransform="matrix(10.091373,0,0,10.091373,-4766.8504,-9386.0089)"
       x1="508.31351"
       y1="955.09186"
       x2="506.46252"
       y2="967.85718" />
    <linearGradient
       inkscape:collect="always"
       xlink:href="#linearGradient5362"
       id="linearGradient27079"
       gradientUnits="userSpaceOnUse"
       gradientTransform="matrix(10.091373,0,0,10.091373,-4766.8504,-9386.0089)"
       x1="507.58542"
       y1="951.43848"
       x2="509.52502"
       y2="960.31348" />
    <linearGradient
       inkscape:collect="always"
       xlink:href="#linearGradient5344"
       id="linearGradient27081"
       gradientUnits="userSpaceOnUse"
       gradientTransform="matrix(10.091373,0,0,10.091373,-4766.8504,-9386.0089)"
       x1="512.31091"
       y1="979.01343"
       x2="507.62781"
       y2="965.32593" />
    <linearGradient
       inkscape:collect="always"
       xlink:href="#linearGradient5362"
       id="linearGradient27083"
       gradientUnits="userSpaceOnUse"
       gradientTransform="matrix(10.091373,0,0,10.091373,-4766.8504,-9386.0089)"
       x1="508.69806"
       y1="981.13507"
       x2="525.37488"
       y2="964.38507" />
    <linearGradient
       inkscape:collect="always"
       xlink:href="#linearGradient5344"
       id="linearGradient27085"
       gradientUnits="userSpaceOnUse"
       gradientTransform="matrix(10.091373,0,0,10.091373,-4766.8504,-9386.0089)"
       x1="525.08405"
       y1="990.77148"
       x2="514.79333"
       y2="974.77148" />
    <linearGradient
       inkscape:collect="always"
       xlink:href="#linearGradient5344"
       id="linearGradient27087"
       gradientUnits="userSpaceOnUse"
       gradientTransform="matrix(10.091373,0,0,10.091373,-4766.8504,-9386.0089)"
       x1="512.04279"
       y1="932.46844"
       x2="518.17859"
       y2="959.40594" />
    <linearGradient
       inkscape:collect="always"
       xlink:href="#linearGradient5316"
       id="linearGradient27089"
       gradientUnits="userSpaceOnUse"
       gradientTransform="matrix(10.091373,0,0,10.091373,-4766.8504,-9386.0089)"
       x1="502.05005"
       y1="945.19952"
       x2="521.29358"
       y2="977.56915" />
    <linearGradient
       inkscape:collect="always"
       xlink:href="#linearGradient5344"
       id="linearGradient27091"
       gradientUnits="userSpaceOnUse"
       gradientTransform="matrix(10.091373,0,0,10.091373,-4766.8504,-9386.0089)"
       x1="570.55005"
       y1="1069.1996"
       x2="502.29358"
       y2="949.56915" />
    <linearGradient
       inkscape:collect="always"
       xlink:href="#linearGradient9863"
       id="linearGradient27093"
       gradientUnits="userSpaceOnUse"
       gradientTransform="matrix(10.091373,0,0,10.091373,-2949.4076,183.31426)"
       x1="329.60443"
       y1="37.079216"
       x2="329.60443"
       y2="-8.3120422" />
  </defs>
  <sodipodi:namedview
     id="base"
     pagecolor="#ffffff"
     bordercolor="#666666"
     borderopacity="1.0"
     inkscape:pageopacity="0.0"
     inkscape:pageshadow="2"
     inkscape:zoom="0.49497475"
     inkscape:cx="327.52469"
     inkscape:cy="791.69357"
     inkscape:document-units="px"
     inkscape:current-layer="layer1"
     showgrid="false"
     inkscape:window-width="640"
     inkscape:window-height="706"
     inkscape:window-x="0"
     inkscape:window-y="6" />
  <metadata
     id="metadata26988">
    <rdf:RDF>
      <cc:Work
         rdf:about="">
        <dc:format>image/svg+xml</dc:format>
        <dc:type
           rdf:resource="http://purl.org/dc/dcmitype/StillImage" />
      </cc:Work>
    </rdf:RDF>
  </metadata>
  <g
     inkscape:label="Capa 1"
     inkscape:groupmode="layer"
     id="layer1">
    <rect
       inkscape:export-ydpi="57.964222"
       inkscape:export-xdpi="57.964222"
       inkscape:export-filename="/home/dafeba/DCV/tallerD/bocetos/08-09-22-hastaahora.png"
       style="fill:#f2f2f2;fill-opacity:1;stroke:none;stroke-width:0.1;stroke-linecap:round;stroke-linejoin:round;stroke-miterlimit:4;stroke-dasharray:none;stroke-opacity:0.30041151;display:inline"
       id="rect7269"
       width="47.823223"
       height="48"
       x="416.08838"
       y="603.12366" />
    <rect
       inkscape:export-ydpi="57.964222"
       inkscape:export-xdpi="57.964222"
       inkscape:export-filename="/home/dafeba/DCV/tallerD/bocetos/08-09-22-hastaahora.png"
       style="fill:#f2f2f2;fill-opacity:1;stroke:none;stroke-width:0.1;stroke-linecap:round;stroke-linejoin:round;stroke-miterlimit:4;stroke-dasharray:none;stroke-opacity:0.30041151;display:inline"
       id="rect7324"
       width="47.823223"
       height="48"
       x="416.08838"
       y="603.12366" />
    <path
       sodipodi:nodetypes="ccscsccz"
       id="path7326"
       d="M 427.05918,625.29597 C 427.05918,636.40763 426.95512,637.816 438.33126,650.18512 C 435.61087,649.62568 431.53422,648.53481 429.42946,648.00398 C 424.50135,646.76109 419.57487,637.81974 419.57487,627.27922 C 419.52876,621.229 421.54155,615.29386 424.74414,610.9976 C 427.45679,607.35859 431.81855,604.98375 434.91479,604.53391 C 436.72994,604.27318 439.50661,604.09498 442.86466,604.12024 C 429.86078,611.11014 427.05918,614.30691 427.05918,625.29597 z"
       style="fill:url(#linearGradient26191);fill-opacity:1;stroke:none;stroke-width:0.46319342;stroke-linecap:round;stroke-linejoin:round;stroke-miterlimit:4;stroke-opacity:1;display:inline"
       inkscape:export-filename="/home/dafeba/DCV/tallerD/bocetos/08-09-22-hastaahora.png"
       inkscape:export-xdpi="57.964222"
       inkscape:export-ydpi="57.964222" />
    <path
       style="fill:url(#linearGradient26188);fill-opacity:1;fill-rule:evenodd;stroke:none;stroke-width:0.5;stroke-linecap:round;stroke-linejoin:round;stroke-miterlimit:4;stroke-dasharray:none;stroke-opacity:1;display:inline"
       d="M 449.63504,640.68643 C 453.49559,637.46196 456.04249,631.85521 456.2112,625.89581 C 456.2871,621.48123 454.2299,616.45628 451.33979,613.6113 C 448.41606,610.84217 444.8714,610.095 441.81665,610.62895 C 446.37466,611.28185 452.203,617.32516 452.13715,626.03075 C 452.17969,632.02406 449.13047,636.44831 444.78438,639.9134 L 449.63504,640.68643 z"
       id="path7328"
       sodipodi:nodetypes="ccccccc"
       inkscape:export-filename="/home/dafeba/DCV/tallerD/bocetos/08-09-22-hastaahora.png"
       inkscape:export-xdpi="57.964222"
       inkscape:export-ydpi="57.964222" />
    <path
       inkscape:export-ydpi="57.964222"
       inkscape:export-xdpi="57.964222"
       inkscape:export-filename="/home/dafeba/DCV/tallerD/bocetos/08-09-22-hastaahora.png"
       style="fill:url(#linearGradient26185);fill-opacity:1;stroke:none;stroke-width:0.46319342;stroke-linecap:round;stroke-linejoin:round;stroke-miterlimit:4;stroke-opacity:1;display:inline"
       d="M 427.32648,633.10467 C 427.99006,638.18283 430.2993,641.45208 438.33126,650.18512 C 435.61087,649.62568 431.53422,648.53481 429.42946,648.00398 C 425.4609,647.00309 421.4934,641.00982 420.09883,633.20935 L 427.32648,633.10467 z"
       id="path7330"
       sodipodi:nodetypes="ccscc" />
    <path
       inkscape:export-ydpi="57.964222"
       inkscape:export-xdpi="57.964222"
       inkscape:export-filename="/home/dafeba/DCV/tallerD/bocetos/08-09-22-hastaahora.png"
       style="fill:url(#linearGradient26182);fill-opacity:1;stroke:none;stroke-width:0.46319342;stroke-linecap:round;stroke-linejoin:round;stroke-miterlimit:4;stroke-opacity:1;display:inline"
       d="M 421.18549,617.75875 C 422.06883,615.26026 423.28259,612.95827 424.74414,610.9976 C 427.45679,607.35859 431.81855,604.98375 434.91479,604.53391 C 436.72994,604.27318 439.50661,604.09498 442.86466,604.12024 C 433.32657,609.24719 429.27724,612.33347 427.79631,617.95075 L 421.18549,617.75875 z"
       id="path26077"
       sodipodi:nodetypes="cscccc" />
    <path
       sodipodi:nodetypes="ccccc"
       id="path7336"
       d="M 449.63409,640.68717 L 444.7954,639.91856 L 446.7852,645.65663 L 451.87968,646.68658 L 449.63409,640.68717 z"
       style="fill:url(#linearGradient26176);fill-rule:evenodd;stroke:none;stroke-width:1px;stroke-linecap:butt;stroke-linejoin:miter;stroke-opacity:1;display:inline"
       inkscape:export-filename="/home/dafeba/DCV/tallerD/bocetos/08-09-22-hastaahora.png"
       inkscape:export-xdpi="57.964222"
       inkscape:export-ydpi="57.964222" />
    <path
       sodipodi:nodetypes="ccsccc"
       id="path7338"
       d="M 444.67389,619.03566 L 440.08108,619.05315 C 436.96922,618.97896 434.83737,623.1916 434.83737,626.97913 C 434.83737,630.40071 436.19562,634.27267 438.70162,634.58524 L 443.65165,635.24077 L 444.67389,619.03566 z"
       style="fill:url(#linearGradient26173);fill-opacity:1;fill-rule:evenodd;stroke:none;stroke-width:0.5;stroke-linecap:butt;stroke-linejoin:miter;stroke-miterlimit:4;stroke-dasharray:none;stroke-opacity:1;display:inline"
       inkscape:export-filename="/home/dafeba/DCV/tallerD/bocetos/08-09-22-hastaahora.png"
       inkscape:export-xdpi="57.964222"
       inkscape:export-ydpi="57.964222" />
    <path
       inkscape:export-ydpi="57.964222"
       inkscape:export-xdpi="57.964222"
       inkscape:export-filename="/home/dafeba/DCV/tallerD/bocetos/08-09-22-hastaahora.png"
       style="fill:url(#linearGradient26170);fill-opacity:1;fill-rule:evenodd;stroke:none;stroke-width:0.5;stroke-linecap:butt;stroke-linejoin:miter;stroke-miterlimit:4;stroke-dasharray:none;stroke-opacity:1;display:inline"
       d="M 444.67389,619.03566 L 440.08108,619.05315 C 437.54185,618.99261 435.65514,621.78638 435.04676,624.87442 L 444.24855,625.77845 L 444.67389,619.03566 z"
       id="path7340"
       sodipodi:nodetypes="ccccc" />
    <path
       inkscape:export-ydpi="57.964222"
       inkscape:export-xdpi="57.964222"
       inkscape:export-filename="/home/dafeba/DCV/tallerD/bocetos/08-09-22-hastaahora.png"
       style="fill:url(#linearGradient26167);fill-opacity:1;fill-rule:evenodd;stroke:none;stroke-width:0.5;stroke-linecap:butt;stroke-linejoin:miter;stroke-miterlimit:4;stroke-dasharray:none;stroke-opacity:1;display:inline"
       d="M 440.98639,628.59816 L 435.08477,629.54671 C 435.58165,632.10228 436.8171,634.35019 438.70162,634.58524 L 443.65165,635.24077 L 440.98639,628.59816 z"
       id="path7342"
       sodipodi:nodetypes="ccccc" />
    <path
       inkscape:export-ydpi="57.964222"
       inkscape:export-xdpi="57.964222"
       inkscape:export-filename="/home/dafeba/DCV/tallerD/bocetos/08-09-22-hastaahora.png"
       sodipodi:nodetypes="ccccc"
       id="path7346"
       d="M 449.63504,640.68643 C 453.49559,637.46196 456.04249,631.85521 456.2112,625.89581 L 452.13715,626.03075 C 452.17969,632.02406 449.13047,636.44831 444.78438,639.9134 L 449.63504,640.68643 z"
       style="fill:url(#linearGradient26163);fill-opacity:1;fill-rule:evenodd;stroke:none;stroke-width:0.5;stroke-linecap:round;stroke-linejoin:round;stroke-miterlimit:4;stroke-dasharray:none;stroke-opacity:1;display:inline" />
    <path
       style="fill:url(#linearGradient26160);fill-rule:evenodd;stroke:none;stroke-width:1px;stroke-linecap:butt;stroke-linejoin:miter;stroke-opacity:1;display:inline"
       d="M 449.63409,640.68717 L 444.7954,639.91856 L 446.7852,645.65665 L 451.87968,646.68655 L 449.63409,640.68717 z"
       id="path7348"
       sodipodi:nodetypes="ccccc"
       inkscape:export-filename="/home/dafeba/DCV/tallerD/bocetos/08-09-22-hastaahora.png"
       inkscape:export-xdpi="57.964222"
       inkscape:export-ydpi="57.964222" />
    <path
       inkscape:export-ydpi="57.964222"
       inkscape:export-xdpi="57.964222"
       inkscape:export-filename="/home/dafeba/DCV/tallerD/bocetos/08-09-22-hastaahora.png"
       sodipodi:nodetypes="ccccc"
       id="path7353"
       d="M 456.2112,625.89581 C 456.2871,621.48123 454.2299,616.45628 451.33979,613.6113 C 448.41606,610.84217 444.8714,610.095 441.81665,610.62895 C 446.37466,611.28185 452.203,617.32516 452.13715,626.03075 L 456.2112,625.89581 z"
       style="fill:url(#linearGradient26156);fill-opacity:1;fill-rule:evenodd;stroke:none;stroke-width:0.5;stroke-linecap:round;stroke-linejoin:round;stroke-miterlimit:4;stroke-dasharray:none;stroke-opacity:1;display:inline" />
    <path
       style="fill:url(#linearGradient26977);fill-opacity:1;stroke:none;stroke-width:0.5;stroke-linecap:round;stroke-linejoin:round;stroke-miterlimit:4;stroke-dasharray:none;stroke-opacity:1;display:inline"
       d="M 442.27876,604.10902 C 432.14345,604.38734 423.34126,612.66718 423.34126,627.32777 C 423.34127,639.79305 430.10254,649.026 438.46626,650.20277 L 440.49751,642.92152 C 435.04062,641.64441 431.24751,635.81122 431.24751,626.98402 C 431.24751,615.93886 437.64331,609.90458 444.77876,610.54652 C 448.80251,610.90852 452.00897,613.48099 453.93501,617.39027 C 455.11557,619.78641 455.8725,622.6645 455.87251,625.89027 C 455.87251,632.05474 453.29804,637.62273 449.62251,640.67152 L 451.87251,646.70277 C 457.55214,642.31773 461.49752,634.41931 461.49751,625.73402 C 461.4975,613.71585 454.3436,604.96695 444.34126,604.14027 C 443.65395,604.08347 442.95445,604.09047 442.27876,604.10902 z M 444.74751,619.04652 C 441.40928,618.9951 438.43501,621.82969 438.43501,627.32777 C 438.43501,632.82602 441.13949,635.69683 445.02876,635.20277 C 448.09275,634.81353 450.18501,630.91282 450.18501,626.64027 C 450.18501,622.41484 447.97943,619.09533 444.74751,619.04652 z"
       id="path7334" />
    <path
       id="path26979"
       d="M 442.27876,604.10902 C 432.14345,604.38734 423.34126,612.66718 423.34126,627.32777 C 423.34127,639.79305 430.10254,649.026 438.46626,650.20277 L 440.49751,642.92152 C 435.04062,641.64441 431.24751,635.81122 431.24751,626.98402 C 431.24751,615.93886 437.64331,609.90458 444.77876,610.54652 C 448.80251,610.90852 452.00897,613.48099 453.93501,617.39027 C 455.11557,619.78641 455.8725,622.6645 455.87251,625.89027 C 455.87251,632.05474 453.29804,637.62273 449.62251,640.67152 L 451.87251,646.70277 C 457.55214,642.31773 461.49752,634.41931 461.49751,625.73402 C 461.4975,613.71585 454.3436,604.96695 444.34126,604.14027 C 443.65395,604.08347 442.95445,604.09047 442.27876,604.10902 z M 444.74751,619.04652 C 441.40928,618.9951 438.43501,621.82969 438.43501,627.32777 C 438.43501,632.82602 441.13949,635.69683 445.02876,635.20277 C 448.09275,634.81353 450.18501,630.91282 450.18501,626.64027 C 450.18501,622.41484 447.97943,619.09533 444.74751,619.04652 z"
       style="fill:url(#linearGradient26981);fill-opacity:1;stroke:none;stroke-width:0.5;stroke-linecap:round;stroke-linejoin:round;stroke-miterlimit:4;stroke-dasharray:none;stroke-opacity:1;display:inline" />
    <path
       sodipodi:nodetypes="cscscsccscccccccsccccscccsssc"
       id="path7351"
       d="M 435.46135,604.4373 C 431.90073,604.85422 427.50031,607.3892 424.81603,610.81521 C 421.43346,615.13246 419.57403,621.51382 419.58635,627.28105 C 419.58635,637.82157 424.50199,646.75694 429.4301,647.9998 C 431.14022,648.4311 434.12037,649.22702 436.64885,649.8123 C 437.20821,649.97424 437.75981,650.10031 438.33635,650.1873 C 438.37932,650.19378 438.41829,650.21249 438.46135,650.21855 L 440.4926,642.9373 C 435.03571,641.66017 431.2426,635.79575 431.2426,626.96855 C 431.2426,617.4045 436.19775,611.27667 441.83714,610.68596 C 443.64387,610.74708 444.65601,611.71144 445.84193,612.41596 C 449.04544,614.70711 452.19748,619.60207 452.14885,626.03105 C 452.19135,632.01575 449.14122,636.44319 444.8051,639.90605 L 444.8051,639.9373 L 446.77385,645.65605 L 451.8676,646.6873 C 457.54723,642.30226 461.49261,634.43509 461.4926,625.7498 C 461.49259,613.73162 454.33869,604.98273 444.33635,604.15605 C 441.95323,603.96379 438.40895,604.13976 435.46135,604.4373 z M 444.6801,619.03105 L 440.08635,619.0623 C 436.9745,618.98812 434.83635,623.18102 434.83635,626.96855 C 434.83636,630.39015 436.20535,634.28098 438.71135,634.59355 L 443.64885,635.2498 L 443.64885,635.21855 C 444.08518,635.25724 444.54872,635.24766 445.02385,635.1873 C 448.08784,634.79806 450.18007,630.89737 450.1801,626.6248 C 450.1801,622.39937 447.97452,619.07985 444.7426,619.03105 C 444.72179,619.03073 444.70088,619.03115 444.6801,619.03105 z"
       style="fill:none;fill-opacity:1;stroke:url(#linearGradient26974);stroke-width:1;stroke-linecap:round;stroke-linejoin:round;stroke-miterlimit:4;stroke-dasharray:none;stroke-opacity:1;display:inline"
       inkscape:export-filename="/home/dafeba/DCV/tallerD/bocetos/08-09-22-hastaahora.png"
       inkscape:export-xdpi="57.964222"
       inkscape:export-ydpi="57.964222" />
    <rect
       y="91.986488"
       x="130.00862"
       height="484.38589"
       width="482.60199"
       id="rect27035"
       style="fill:#f2f2f2;fill-opacity:1;stroke:none;stroke-width:0.1;stroke-linecap:round;stroke-linejoin:round;stroke-miterlimit:4;stroke-dasharray:none;stroke-opacity:0.30041151;display:inline"
       inkscape:export-filename="/home/dafeba/DCV/tallerD/bocetos/08-09-22-hastaahora.png"
       inkscape:export-xdpi="57.964222"
       inkscape:export-ydpi="57.964222" />
    <rect
       y="91.986488"
       x="130.00862"
       height="484.38589"
       width="482.60199"
       id="rect27037"
       style="fill:#f2f2f2;fill-opacity:1;stroke:none;stroke-width:0.1;stroke-linecap:round;stroke-linejoin:round;stroke-miterlimit:4;stroke-dasharray:none;stroke-opacity:0.30041151;display:inline"
       inkscape:export-filename="/home/dafeba/DCV/tallerD/bocetos/08-09-22-hastaahora.png"
       inkscape:export-xdpi="57.964222"
       inkscape:export-ydpi="57.964222" />
    <path
       inkscape:export-ydpi="57.964222"
       inkscape:export-xdpi="57.964222"
       inkscape:export-filename="/home/dafeba/DCV/tallerD/bocetos/08-09-22-hastaahora.png"
       style="fill:url(#linearGradient27067);fill-opacity:1;stroke:none;stroke-width:0.46319342;stroke-linecap:round;stroke-linejoin:round;stroke-miterlimit:4;stroke-opacity:1;display:inline"
       d="M 240.71914,315.73541 C 240.71914,427.86732 239.66903,442.0797 354.4699,566.9011 C 327.01743,561.25559 285.87844,550.24721 264.63852,544.89041 C 214.90713,532.34794 165.19218,442.11744 165.19218,335.74913 C 164.72687,274.6941 185.03868,214.80039 217.35721,171.44524 C 244.73157,134.72263 288.74772,110.75723 319.99303,106.21773 C 338.31039,103.58661 366.3308,101.78832 400.21813,102.04323 C 268.99113,172.58092 240.71914,204.84071 240.71914,315.73541 z"
       id="path27039"
       sodipodi:nodetypes="ccscsccz" />
    <path
       inkscape:export-ydpi="57.964222"
       inkscape:export-xdpi="57.964222"
       inkscape:export-filename="/home/dafeba/DCV/tallerD/bocetos/08-09-22-hastaahora.png"
       sodipodi:nodetypes="ccccccc"
       id="path27041"
       d="M 468.54056,471.04628 C 507.49881,438.50695 533.20053,381.92715 534.90305,321.78862 C 535.66898,277.23945 514.90901,226.5308 485.74383,197.82105 C 456.23938,169.87673 420.4689,162.33676 389.64227,167.72505 C 435.63885,174.31371 494.45481,235.29899 493.79029,323.15035 C 494.21958,383.63108 463.44876,428.27783 419.59074,463.24535 L 468.54056,471.04628 z"
       style="fill:url(#linearGradient27069);fill-opacity:1;fill-rule:evenodd;stroke:none;stroke-width:0.5;stroke-linecap:round;stroke-linejoin:round;stroke-miterlimit:4;stroke-dasharray:none;stroke-opacity:1;display:inline" />
    <path
       sodipodi:nodetypes="ccscc"
       id="path27043"
       d="M 243.41657,394.53591 C 250.113,445.78152 273.4164,478.77274 354.4699,566.9011 C 327.01743,561.25559 285.87844,550.24721 264.63852,544.89041 C 224.5903,534.79005 184.55278,474.30973 170.47965,395.59228 L 243.41657,394.53591 z"
       style="fill:url(#linearGradient27071);fill-opacity:1;stroke:none;stroke-width:0.46319342;stroke-linecap:round;stroke-linejoin:round;stroke-miterlimit:4;stroke-opacity:1;display:inline"
       inkscape:export-filename="/home/dafeba/DCV/tallerD/bocetos/08-09-22-hastaahora.png"
       inkscape:export-xdpi="57.964222"
       inkscape:export-ydpi="57.964222" />
    <path
       sodipodi:nodetypes="cscccc"
       id="path27045"
       d="M 181.44555,239.67451 C 190.35966,214.46132 202.60816,191.23108 217.35721,171.44524 C 244.73157,134.72263 288.74772,110.75723 319.99303,106.21773 C 338.31039,103.58661 366.3308,101.78832 400.21813,102.04323 C 303.96571,153.7812 263.10241,184.926 248.1578,241.61206 L 181.44555,239.67451 z"
       style="fill:url(#linearGradient27073);fill-opacity:1;stroke:none;stroke-width:0.46319342;stroke-linecap:round;stroke-linejoin:round;stroke-miterlimit:4;stroke-opacity:1;display:inline"
       inkscape:export-filename="/home/dafeba/DCV/tallerD/bocetos/08-09-22-hastaahora.png"
       inkscape:export-xdpi="57.964222"
       inkscape:export-ydpi="57.964222" />
    <path
       inkscape:export-ydpi="57.964222"
       inkscape:export-xdpi="57.964222"
       inkscape:export-filename="/home/dafeba/DCV/tallerD/bocetos/08-09-22-hastaahora.png"
       style="fill:url(#linearGradient27075);fill-rule:evenodd;stroke:none;stroke-width:1px;stroke-linecap:butt;stroke-linejoin:miter;stroke-opacity:1;display:inline"
       d="M 468.53098,471.05375 L 419.70195,463.29742 L 439.78177,521.20242 L 491.19206,531.59603 L 468.53098,471.05375 z"
       id="path27047"
       sodipodi:nodetypes="ccccc" />
    <path
       inkscape:export-ydpi="57.964222"
       inkscape:export-xdpi="57.964222"
       inkscape:export-filename="/home/dafeba/DCV/tallerD/bocetos/08-09-22-hastaahora.png"
       style="fill:url(#linearGradient27077);fill-opacity:1;fill-rule:evenodd;stroke:none;stroke-width:0.5;stroke-linecap:butt;stroke-linejoin:miter;stroke-miterlimit:4;stroke-dasharray:none;stroke-opacity:1;display:inline"
       d="M 418.47575,252.56029 L 372.12799,252.73679 C 340.72505,251.98811 319.21176,294.49943 319.21176,332.72081 C 319.21176,367.24925 332.91836,406.32264 358.20735,409.4769 L 408.15994,416.0921 L 418.47575,252.56029 z"
       id="path27049"
       sodipodi:nodetypes="ccsccc" />
    <path
       sodipodi:nodetypes="ccccc"
       id="path27051"
       d="M 418.47575,252.56029 L 372.12799,252.73679 C 346.50367,252.12585 327.46418,280.31883 321.32479,311.48139 L 414.18348,320.6043 L 418.47575,252.56029 z"
       style="fill:url(#linearGradient27079);fill-opacity:1;fill-rule:evenodd;stroke:none;stroke-width:0.5;stroke-linecap:butt;stroke-linejoin:miter;stroke-miterlimit:4;stroke-dasharray:none;stroke-opacity:1;display:inline"
       inkscape:export-filename="/home/dafeba/DCV/tallerD/bocetos/08-09-22-hastaahora.png"
       inkscape:export-xdpi="57.964222"
       inkscape:export-ydpi="57.964222" />
    <path
       sodipodi:nodetypes="ccccc"
       id="path27053"
       d="M 381.26381,349.05904 L 321.70836,358.63121 C 326.72256,384.42042 339.18995,407.10492 358.20735,409.4769 L 408.15994,416.0921 L 381.26381,349.05904 z"
       style="fill:url(#linearGradient27081);fill-opacity:1;fill-rule:evenodd;stroke:none;stroke-width:0.5;stroke-linecap:butt;stroke-linejoin:miter;stroke-miterlimit:4;stroke-dasharray:none;stroke-opacity:1;display:inline"
       inkscape:export-filename="/home/dafeba/DCV/tallerD/bocetos/08-09-22-hastaahora.png"
       inkscape:export-xdpi="57.964222"
       inkscape:export-ydpi="57.964222" />
    <path
       style="fill:url(#linearGradient27083);fill-opacity:1;fill-rule:evenodd;stroke:none;stroke-width:0.5;stroke-linecap:round;stroke-linejoin:round;stroke-miterlimit:4;stroke-dasharray:none;stroke-opacity:1;display:inline"
       d="M 468.54056,471.04628 C 507.49881,438.50695 533.20053,381.92715 534.90305,321.78862 L 493.79029,323.15035 C 494.21958,383.63108 463.44876,428.27783 419.59074,463.24535 L 468.54056,471.04628 z"
       id="path27055"
       sodipodi:nodetypes="ccccc"
       inkscape:export-filename="/home/dafeba/DCV/tallerD/bocetos/08-09-22-hastaahora.png"
       inkscape:export-xdpi="57.964222"
       inkscape:export-ydpi="57.964222" />
    <path
       inkscape:export-ydpi="57.964222"
       inkscape:export-xdpi="57.964222"
       inkscape:export-filename="/home/dafeba/DCV/tallerD/bocetos/08-09-22-hastaahora.png"
       sodipodi:nodetypes="ccccc"
       id="path27057"
       d="M 468.53098,471.05375 L 419.70195,463.29742 L 439.78177,521.20262 L 491.19206,531.59573 L 468.53098,471.05375 z"
       style="fill:url(#linearGradient27085);fill-rule:evenodd;stroke:none;stroke-width:1px;stroke-linecap:butt;stroke-linejoin:miter;stroke-opacity:1;display:inline" />
    <path
       style="fill:url(#linearGradient27087);fill-opacity:1;fill-rule:evenodd;stroke:none;stroke-width:0.5;stroke-linecap:round;stroke-linejoin:round;stroke-miterlimit:4;stroke-dasharray:none;stroke-opacity:1;display:inline"
       d="M 534.90305,321.78862 C 535.66898,277.23945 514.90901,226.5308 485.74383,197.82105 C 456.23938,169.87673 420.4689,162.33676 389.64227,167.72505 C 435.63885,174.31371 494.45481,235.29899 493.79029,323.15035 L 534.90305,321.78862 z"
       id="path27059"
       sodipodi:nodetypes="ccccc"
       inkscape:export-filename="/home/dafeba/DCV/tallerD/bocetos/08-09-22-hastaahora.png"
       inkscape:export-xdpi="57.964222"
       inkscape:export-ydpi="57.964222" />
    <path
       id="path27061"
       d="M 394.3056,101.93001 C 292.02641,104.73864 203.20022,188.29359 203.20022,336.23906 C 203.20033,462.03085 271.43082,555.20399 355.83224,567.07922 L 376.33034,493.60141 C 321.26283,480.71361 282.98514,421.84872 282.98514,332.77015 C 282.98514,221.30932 347.52754,160.41516 419.53403,166.89322 C 460.13919,170.5463 492.49678,196.50604 511.93316,235.95604 C 523.84664,260.13639 531.4851,289.18027 531.4852,321.73271 C 531.4852,383.94068 505.50526,440.12934 468.41412,470.89582 L 491.11971,531.75941 C 548.43497,487.50834 588.24927,407.80244 588.24917,320.15594 C 588.24907,198.8761 516.0564,110.5877 415.11906,102.24536 C 408.18315,101.67217 401.12424,101.74281 394.3056,101.93001 z M 419.21868,252.66988 C 385.53135,252.15098 355.51688,280.75589 355.51688,336.23906 C 355.51688,391.72395 382.8088,420.69437 422.05687,415.70862 C 452.97674,411.78066 474.09052,372.41714 474.09052,329.30124 C 474.09052,286.66085 451.83319,253.16244 419.21868,252.66988 z"
       style="fill:url(#linearGradient27089);fill-opacity:1;stroke:none;stroke-width:0.5;stroke-linecap:round;stroke-linejoin:round;stroke-miterlimit:4;stroke-dasharray:none;stroke-opacity:1;display:inline" />
    <path
       style="fill:url(#linearGradient27091);fill-opacity:1;stroke:none;stroke-width:0.5;stroke-linecap:round;stroke-linejoin:round;stroke-miterlimit:4;stroke-dasharray:none;stroke-opacity:1;display:inline"
       d="M 394.3056,101.93001 C 292.02641,104.73864 203.20022,188.29359 203.20022,336.23906 C 203.20033,462.03085 271.43082,555.20399 355.83224,567.07922 L 376.33034,493.60141 C 321.26283,480.71361 282.98514,421.84872 282.98514,332.77015 C 282.98514,221.30932 347.52754,160.41516 419.53403,166.89322 C 460.13919,170.5463 492.49678,196.50604 511.93316,235.95604 C 523.84664,260.13639 531.4851,289.18027 531.4852,321.73271 C 531.4852,383.94068 505.50526,440.12934 468.41412,470.89582 L 491.11971,531.75941 C 548.43497,487.50834 588.24927,407.80244 588.24917,320.15594 C 588.24907,198.8761 516.0564,110.5877 415.11906,102.24536 C 408.18315,101.67217 401.12424,101.74281 394.3056,101.93001 z M 419.21868,252.66988 C 385.53135,252.15098 355.51688,280.75589 355.51688,336.23906 C 355.51688,391.72395 382.8088,420.69437 422.05687,415.70862 C 452.97674,411.78066 474.09052,372.41714 474.09052,329.30124 C 474.09052,286.66085 451.83319,253.16244 419.21868,252.66988 z"
       id="path27063" />
    <path
       inkscape:export-ydpi="57.964222"
       inkscape:export-xdpi="57.964222"
       inkscape:export-filename="/home/dafeba/DCV/tallerD/bocetos/08-09-22-hastaahora.png"
       style="fill:none;fill-opacity:1;stroke:url(#linearGradient27093);stroke-width:10.09137249;stroke-linecap:round;stroke-linejoin:round;stroke-miterlimit:4;stroke-dasharray:none;stroke-opacity:1;display:inline"
       d="M 325.50857,105.2428 C 289.57703,109.4501 245.17075,135.03153 218.08268,169.60467 C 183.9479,213.17164 165.1837,277.56832 165.30803,335.76759 C 165.30803,442.13591 214.91358,532.30606 264.64498,544.84823 C 281.90244,549.20063 311.97624,557.23256 337.49208,563.13884 C 343.13679,564.77304 348.70319,566.04525 354.52127,566.9231 C 354.9549,566.9885 355.34816,567.17731 355.78269,567.23846 L 376.28079,493.76065 C 321.21328,480.87265 282.93559,421.69261 282.93559,332.61404 C 282.93559,236.09964 332.93986,174.26144 389.84905,168.30036 C 408.08143,168.91715 418.29532,178.64886 430.26288,185.75844 C 462.59069,208.87928 494.3991,258.27614 493.90836,323.15338 C 494.33724,383.54722 463.55724,428.22616 419.79984,463.17118 L 419.79984,463.48653 L 439.66723,521.19657 L 491.07016,531.6033 C 548.38542,487.35222 588.19972,407.96168 588.19962,320.31518 C 588.19952,199.03524 516.00685,110.74694 415.06951,102.4046 C 391.02055,100.46444 355.2539,102.24022 325.50857,105.2428 z M 418.53842,252.51377 L 372.18117,252.82912 C 340.77833,252.08054 319.20146,294.39266 319.20146,332.61404 C 319.20157,367.14268 333.01655,406.4065 358.30553,409.56076 L 408.13169,416.18322 L 408.13169,415.86787 C 412.53486,416.2583 417.21261,416.16163 422.00733,415.55251 C 452.92719,411.62454 474.04066,372.26123 474.04097,329.14513 C 474.04097,286.50474 451.78364,253.00623 419.16913,252.51377 C 418.95913,252.51054 418.74812,252.51478 418.53842,252.51377 z"
       id="path27065"
       sodipodi:nodetypes="cscscsccscccccccsccccscccsssc" />
  </g>
</svg>
