<?xml version="1.0" encoding="UTF-8" standalone="no"?>
<!-- Created with Inkscape (http://www.inkscape.org/) -->

<svg
   xmlns:dc="http://purl.org/dc/elements/1.1/"
   xmlns:cc="http://creativecommons.org/ns#"
   xmlns:rdf="http://www.w3.org/1999/02/22-rdf-syntax-ns#"
   xmlns:svg="http://www.w3.org/2000/svg"
   xmlns="http://www.w3.org/2000/svg"
   xmlns:xlink="http://www.w3.org/1999/xlink"
   xmlns:sodipodi="http://sodipodi.sourceforge.net/DTD/sodipodi-0.dtd"
   xmlns:inkscape="http://www.inkscape.org/namespaces/inkscape"
   width="128"
   height="128"
   id="svg6934"
   sodipodi:version="0.32"
   inkscape:version="0.48.3.1 r9886"
   version="1.0"
   sodipodi:docname="aaa-generic.svg"
   inkscape:output_extension="org.inkscape.output.svg.inkscape">
  <defs
     id="defs6936">
    <linearGradient
       id="linearGradient5344">
      <stop
         style="stop-color:#000000;stop-opacity:1;"
         offset="0"
         id="stop5346" />
      <stop
         style="stop-color:#000000;stop-opacity:0;"
         offset="1"
         id="stop5348" />
    </linearGradient>
    <linearGradient
       id="linearGradient5165-7-9-8-2">
      <stop
         id="stop5167-4-8-6-9"
         style="stop-color:#ffffff;stop-opacity:1"
         offset="0" />
      <stop
         id="stop5169-5-5-2-9"
         style="stop-color:#ffffff;stop-opacity:0"
         offset="1" />
    </linearGradient>
    <linearGradient
       inkscape:collect="always"
       xlink:href="#linearGradient5344"
       id="linearGradient3107"
       gradientUnits="userSpaceOnUse"
       gradientTransform="matrix(5.3340639,0,0,5.3340639,-1451.4802,-5864.5574)"
       x1="305.23422"
       y1="1137.0681"
       x2="283.35095"
       y2="1104.2024" />
    <linearGradient
       inkscape:collect="always"
       xlink:href="#linearGradient5344-50"
       id="linearGradient13031-7"
       gradientUnits="userSpaceOnUse"
       gradientTransform="matrix(2.3371908,-0.19593194,0,2.3371908,-1123.3759,-2035.152)"
       x1="516.625"
       y1="949.4657"
       x2="516.625"
       y2="953.45752" />
    <linearGradient
       id="linearGradient5344-50">
      <stop
         style="stop-color:#000000;stop-opacity:1;"
         offset="0"
         id="stop5346-2" />
      <stop
         style="stop-color:#000000;stop-opacity:0;"
         offset="1"
         id="stop5348-5" />
    </linearGradient>
    <linearGradient
       inkscape:collect="always"
       xlink:href="#linearGradient5316-0"
       id="linearGradient13027-1"
       gradientUnits="userSpaceOnUse"
       gradientTransform="matrix(3.6383072,-0.24094751,0,3.6383072,-1797.8001,-3254.4436)"
       x1="516.625"
       y1="951.58276"
       x2="516.84595"
       y2="953.33002" />
    <linearGradient
       id="linearGradient5316-0">
      <stop
         style="stop-color:#aac736;stop-opacity:1;"
         offset="0"
         id="stop5320-8" />
      <stop
         style="stop-color:#5d8b2c;stop-opacity:1;"
         offset="1"
         id="stop5322-1" />
    </linearGradient>
    <linearGradient
       inkscape:collect="always"
       xlink:href="#linearGradient13604-6"
       id="linearGradient13023-1"
       gradientUnits="userSpaceOnUse"
       gradientTransform="matrix(3.6383072,0,0,3.6383072,-1871.8013,-3376.2301)"
       x1="532.71075"
       y1="943.25812"
       x2="540.65033"
       y2="973.31165" />
    <linearGradient
       id="linearGradient13604-6">
      <stop
         id="stop13606-2"
         offset="0"
         style="stop-color:#ffffff;stop-opacity:1;" />
      <stop
         id="stop13608-7"
         offset="1"
         style="stop-color:#000000;stop-opacity:1;" />
    </linearGradient>
    <linearGradient
       inkscape:collect="always"
       xlink:href="#linearGradient13620-8"
       id="linearGradient13021-7"
       gradientUnits="userSpaceOnUse"
       gradientTransform="matrix(3.6383072,0,0,3.6383072,-1811.8986,-3430.9797)"
       x1="508.00168"
       y1="976.56775"
       x2="507.60999"
       y2="969.06256" />
    <linearGradient
       id="linearGradient13620-8">
      <stop
         id="stop13622-7"
         offset="0"
         style="stop-color:#000000;stop-opacity:1;" />
      <stop
         id="stop13624-6"
         offset="1"
         style="stop-color:#000000;stop-opacity:0;" />
    </linearGradient>
    <linearGradient
       inkscape:collect="always"
       xlink:href="#linearGradient13604-6"
       id="linearGradient13015-1"
       gradientUnits="userSpaceOnUse"
       gradientTransform="matrix(3.6383072,0,0,3.6383072,-1811.8986,-3430.9797)"
       x1="507.15793"
       y1="956.94275"
       x2="506.35999"
       y2="981.68756" />
    <linearGradient
       inkscape:collect="always"
       xlink:href="#linearGradient5165-7-9-8-2"
       id="linearGradient3092"
       gradientUnits="userSpaceOnUse"
       gradientTransform="translate(-40,140)"
       x1="22.933788"
       y1="-144.76825"
       x2="18.618809"
       y2="-96.331688" />
    <linearGradient
       inkscape:collect="always"
       xlink:href="#linearGradient5344"
       id="linearGradient3094"
       gradientUnits="userSpaceOnUse"
       gradientTransform="translate(-40,140)"
       x1="7.9531264"
       y1="2.2416961"
       x2="13.667412"
       y2="-64.464973" />
  </defs>
  <sodipodi:namedview
     id="base"
     pagecolor="#ffffff"
     bordercolor="#666666"
     borderopacity="1.0"
     inkscape:pageopacity="0.0"
     inkscape:pageshadow="2"
     inkscape:zoom="1.979899"
     inkscape:cx="82.950036"
     inkscape:cy="43.644967"
     inkscape:document-units="px"
     inkscape:current-layer="layer1"
     showgrid="false"
     inkscape:window-width="1366"
     inkscape:window-height="717"
     inkscape:window-x="0"
     inkscape:window-y="0"
     inkscape:window-maximized="1" />
  <metadata
     id="metadata6939">
    <rdf:RDF>
      <cc:Work
         rdf:about="">
        <dc:format>image/svg+xml</dc:format>
        <dc:type
           rdf:resource="http://purl.org/dc/dcmitype/StillImage" />
        <dc:title></dc:title>
      </cc:Work>
    </rdf:RDF>
  </metadata>
  <g
     inkscape:label="Capa 1"
     inkscape:groupmode="layer"
     id="layer1">
    <path
       style="fill:#0000ff;fill-opacity:1;fill-rule:evenodd;stroke:none"
       d="m 34.21875,5.062503 c -1.32927,0.0554 -2.55056,0.27966 -3.65625,0.625 l -18.34375,2.71875 -0.5,0 0,0.1875 c -5.7155,1.04907 -8.65625,5.59198 -8.65625,11.15625 l 0,84.687497 c -0.0702,5.65226 2.0501,10.0952 6.3125,11.5 l 18.96875,5.9375 c 0.0209,0.0102 0.0415,0.0212 0.0625,0.0313 1.89272,0.90932 4.16442,1.2325 6.78125,0.8125 l 78.28125,-11.8125 c 5.72052,-0.61974 9.4668,-6.06393 9.15625,-13.625 l 0.40625,-74.281297 c 0.22248,-5.96534 -2.80168,-10.97622 -9.34375,-11.96875 l -77.84375,-5.9375 c -0.55631,-0.0273 -1.10307,-0.053 -1.625,-0.0313 z"
       id="path30949"
       inkscape:connector-curvature="0" />
    <path
       style="fill:url(#linearGradient3107);fill-rule:evenodd;stroke:none"
       d="M 29.25,16.718753 29.2187,113.125 c 0.4487,3.45828 1.40755,8.12456 4.34375,9.75 0.52713,-0.0229 1.0675,-0.0668 1.625,-0.15625 l 78.28125,-11.8125 c 5.72052,-0.61974 9.4668,-6.06393 9.15625,-13.625 l 0.40625,-74.281247 c 0.22245,-5.96534 -2.80168,-10.97622 -9.34375,-11.96875 L 37.6784,5.233693 c -3.97126,-0.42067 -8.41551,4.78057 -8.42845,11.48506 z M 30.15625,122.5 c 0.64796,0.17153 1.31467,0.32617 2.03125,0.375 z"
       id="path30953"
       inkscape:connector-curvature="0"
       sodipodi:nodetypes="ccccccccccccc" />
    <g
       id="g3087"
       transform="translate(40,0)">
      <path
         inkscape:connector-curvature="0"
         id="path3073"
         d="m -5.21875,5.312503 -22.5625,3.09375 -0.5,0 0,0.1875 c -5.715501,1.04907 -8.65625,5.59198 -8.65625,11.15625 l 0,25 26.1875,0 0,-28.03125 c 0.347051,-4.91678 2.274064,-9.96378 5.53125,-11.40625 z"
         style="fill:url(#linearGradient3092);fill-rule:evenodd;stroke:none;display:inline" />
      <path
         inkscape:connector-curvature="0"
         id="path3081"
         d="m -36.9375,68.406253 0,36.031247 c -0.07024,5.65226 2.050104,10.0952 6.3125,11.5 l 17.65625,6.03125 7.5,1.3125 c -3.710844,-1.04488 -4.81745,-6.34073 -5.3125,-10.15625 l 0,-44.718747 -26.15625,0 z"
         style="fill:url(#linearGradient3094);fill-rule:evenodd;stroke:none;display:inline" />
    </g>
    <path
       inkscape:connector-curvature="0"
       id="path30957"
       d="m 35.825012,5.0844328 c -1.734374,-0.0853 -3.26759,0.13333 -4.667303,0.50133 L 11.65504,8.5863028 C 5.9395447,9.6353728 2.9871862,14.190033 2.9871862,19.754303 l 0,84.678437 c -0.07024,5.65226 2.0718035,10.09707 6.3341998,11.50187 l 19.669357,6.16693 c 1.792241,0.74027 3.774988,1.0512 6.167512,0.6672 l 78.344065,-11.8352 c 5.72052,-0.6192 9.47847,-6.1072 9.16792,-13.66827 l 0.33339,-74.344027 c 0.22245,-5.96534 -2.79254,-10.84214 -9.33461,-11.83467 L 35.825018,5.0855028 z"
       style="fill:none;stroke:#344b63;stroke-width:2.667032;stroke-linecap:butt;stroke-linejoin:miter;stroke-miterlimit:4;stroke-opacity:1;stroke-dasharray:none;display:inline"
       sodipodi:nodetypes="ccccccccccccc" />
    <path
       inkscape:connector-curvature="0"
       id="path3396"
       d="m 64.9375,12.958388 c -0.0092,9.47e-4 -6.400002,1.936344 -11.125,11.833126 -1.713452,1.049322 -3.452886,2.189627 -5.15625,3.517372 -1.816142,1.413446 -3.529322,2.952615 -5.15625,4.701523 -0.02011,0.02155 -0.04245,0.04472 -0.0625,0.0663 -0.09275,0.100159 -0.189451,0.197029 -0.28125,0.298342 -0.913165,1.003916 -1.791237,2.019262 -2.59375,3.135435 -0.167745,0.233907 -0.338004,0.483485 -0.5,0.722413 -0.009,0.01312 0.009,0.05081 0,0.06401 -0.330979,0.489799 -0.663959,0.964619 -0.96875,1.475683 -0.322907,0.539616 -0.615548,1.101862 -0.90625,1.665417 -0.28286,0.548242 -0.531794,1.057563 -0.78125,1.628834 -0.508605,1.158608 -0.92801,2.37659 -1.28125,3.631408 -1.577745,4.033927 -2.201336,9.246505 -1.84375,15.685561 0.04821,0.894528 0.191854,1.771224 0.3125,2.644889 l -0.0625,-0.06172 c 0,0 1.247201,11.064326 5.46875,19.290097 0.0081,0.02399 -0.0081,0.03981 0,0.06401 0.04784,0.08893 0.108416,0.194434 0.15625,0.282312 0.275762,0.523076 0.573923,0.977668 0.875,1.472128 0.181991,0.311115 0.380795,0.642825 0.5625,0.939511 0.01661,0.02465 0.04581,0.03717 0.0625,0.06172 2.714268,4.413681 5.368838,7.22237 7.6875,9.031491 1.209576,0.943764 2.276741,1.553728 3.25,2.025181 9.747938,6.003029 6.895636,2.276349 6.90625,2.275252 2.439557,1.310847 4.019559,1.165657 4.03125,1.164447 -0.11668,-1.551114 -5.960125,-1.303019 -8.34375,-11.663784 2.026057,3.810054 9.192176,5.287178 9.5625,4.80225 0.192059,-0.261677 -0.652232,-1.715367 -2.4375,-4.263237 l 28.375,6.225156 c -0.255473,0.455079 -0.51961,0.907871 -0.78125,1.340796 -0.158445,0.262675 -0.308712,0.562882 -0.46875,0.817279 -0.347159,0.550022 -0.741266,1.096957 -1.09375,1.60828 -0.130813,0.189731 -0.243714,0.405436 -0.375,0.58982 -0.385118,0.54025 -0.769671,1.05197 -1.15625,1.54656 -0.137974,0.17686 -0.299647,0.32505 -0.4375,0.49609 -0.37871,0.46819 -0.780971,0.93006 -1.15625,1.35454 -0.486955,0.5508 -0.900532,1.10911 -1.375,1.58659 -0.03169,0.0319 -0.09337,0.037 -0.125,0.0686 -0.07346,0.0736 -0.145687,0.16027 -0.21875,0.23204 -0.424729,0.41577 -0.874004,0.81076 -1.28125,1.16709 -0.04221,0.0369 -0.08303,0.0962 -0.125,0.13259 -0.173818,0.15007 -0.330242,0.26325 -0.5,0.40238 -0.724404,0.59507 -1.432659,1.08667 -2.0625,1.48375 8.515782,-0.21086 13.45706,-4.1088 13.46875,-4.11001 0.01184,-0.001 -1.002273,1.72392 -3.875,4.14251 3.799994,-0.39304 12.97163,-5.48979 14.53125,-10.005696 l 1,0.315401 c -0.003,3.14e-4 11.22744,-10.70407 12.125,-32.640429 0.006,-0.02565 0.0294,-0.282071 0.0313,-0.289184 -0.008,-0.0038 0.051,0.0031 0.0625,-0.0023 0.0246,-0.977419 -0.0122,-1.953101 -0.0313,-2.975234 -0.0134,-0.666724 -0.0618,-1.359076 -0.0937,-2.044829 -0.0115,-0.248506 0.0448,-0.486215 0.0313,-0.737241 -0.0192,-0.398495 -0.0691,-0.807842 -0.0937,-1.212721 -0.0382,-0.525805 -0.0759,-1.09121 -0.125,-1.627629 -0.0854,-1.026835 -0.21155,-2.026108 -0.34375,-3.091801 -0.14494,-1.168846 -0.26418,-2.41554 -0.46875,-3.63129 -0.0294,-0.309614 -0.0721,-0.624361 -0.125,-0.955542 -0.10319,-0.494075 -0.23011,-0.972277 -0.34375,-1.459593 -0.93899,-4.027321 -2.21865,-7.754699 -3.78125,-11.158884 -0.32337,-0.698604 -0.68542,-1.355042 -1.03125,-2.010473 -0.063,-0.198519 -0.11511,-0.406166 -0.1875,-0.601208 -0.7658,-1.39421 -1.61352,-2.703906 -2.53125,-3.971764 -0.67753,-0.936046 -1.39557,-1.826789 -2.15625,-2.67334 -0.7322,-0.814852 -1.53425,-1.566411 -2.34375,-2.282418 -0.0555,-0.04916 -0.0692,-0.138801 -0.125,-0.187444 -1.27733,-1.102933 -2.66309,-2.050598 -4.093754,-2.858373 -0.27073,-0.15286 -0.5373,-0.308251 -0.8125,-0.450289 -0.4542,-0.239223 -0.88063,-0.479843 -1.343746,-0.686854 -0.181942,-0.0801 -0.379036,-0.127902 -0.5625,-0.203415 -0.487889,-0.203397 -0.972366,-0.385714 -1.46875,-0.554257 -0.08502,-0.02886 -0.164723,-0.05899 -0.25,-0.08685 -0.8273,-0.73899 -2.008821,-1.296951 -3.34375,-1.765714 -1.300719,-0.45675 -2.743441,-0.855848 -4.03125,-1.100439 -0.869827,-0.165201 -1.697729,-0.27588 -2.375,-0.361027 -2.332297,-0.285784 -4.733737,-0.201611 -7.0625,-0.157255 -0.803481,0.01839 -2.329383,0.135198 -3.90625,0.335165 -1.576864,0.199965 -3.260121,0.517617 -4.21875,0.730666 -0.471614,0.105382 -0.877199,0.199081 -1.28125,0.334987 -0.373438,0.114173 -0.72438,0.226814 -1.0625,0.358976 0.248992,-0.20204 0.489159,-0.404158 0.75,-0.603557 0,0 -0.469331,0.197809 -0.71875,0.28237 0.02081,-0.07933 0.03932,-0.143843 0.0625,-0.226319 -0.14334,0.08564 -0.26917,0.238892 -0.40625,0.334928 -0.612638,0.201336 -1.634626,0.553027 -2.84375,1.032325 0.590582,-1.230674 1.264908,-2.512969 2.1875,-3.696622 -1.374274,0.829625 -2.863675,2.627242 -4.21875,4.507149 -0.864099,0.3759 -1.814596,0.839809 -2.78125,1.318073 0.888665,-2.120155 2.460224,-5.041094 5.59375,-8.81408 z M 50.28125,35.226233 c -0.261083,0.605179 -0.50503,1.263 -0.65625,1.912288 -0.130412,0.365205 -0.220922,0.726674 -0.28125,1.13045 -0.06677,0.423141 -0.05813,0.829321 -0.0625,1.282454 -0.01643,1.701242 0.351452,3.595469 0.65625,5.256628 0.158103,0.86163 0.279442,1.622188 0.34375,2.323703 l 0.1875,1.913375 c -0.0837,-0.129792 -0.07418,-0.22053 -0.0625,-0.221739 0.0028,-2.92e-4 -0.09562,0.43213 -0.21875,1.064151 -0.121552,0.633311 -0.257873,1.462895 -0.3125,2.411758 -0.02731,0.474432 -0.05652,1.011654 -0.03125,1.505338 0.02425,0.492888 0.05521,0.929915 0.15625,1.402455 0.0044,0.02154 -0.0046,0.04254 0,0.06401 0.205346,0.920734 0.611006,1.774478 1.25,2.386507 0,0 0.952158,-2.274338 2.8125,-3.623513 1.860338,-1.349175 3.557348,-2.558188 4.9375,-3.701379 1.380153,-1.143187 5.620657,-5.788784 9.34375,-5.879102 2.25817,-0.05208 8.99641,0.636638 19.15625,1.826362 2.051529,3.107493 3.592219,6.705186 4.3125,10.659356 L 64.5,69.333633 l -11.0625,-12.6843 -0.5,1.522514 11.21875,14.886858 28.0625,-12.709818 c 0.189784,3.506382 -0.268174,7.222946 -1.625,11.132963 -0.118265,0.241635 -0.205731,0.5044 -0.25,0.713251 -0.0026,0.01268 4.385053,0.409103 7.718746,-4.891436 -10e-4,0.04457 0.002,0.115469 0,0.160021 -0.0318,1.038378 -0.11533,2.016136 -0.1875,3.015256 -0.0277,0.383788 -0.0289,0.776422 -0.0625,1.154437 -0.0425,0.476975 -0.0737,0.976989 -0.125,1.444766 -0.0983,0.898326 -0.21478,1.836479 -0.34375,2.70094 -0.0757,0.503423 -0.164434,1.021399 -0.249996,1.513353 -0.135375,0.779176 -0.278943,1.537898 -0.4375,2.288323 -0.03939,0.186335 -0.115432,0.365224 -0.15625,0.549794 -0.188617,0.853429 -0.377621,1.702443 -0.59375,2.518078 -0.04824,0.182062 -0.07546,0.368464 -0.125,0.548649 -0.04018,0.145737 -0.115236,0.309261 -0.15625,0.453784 -0.286114,1.010582 -0.613978,1.996145 -0.9375,2.946726 -0.370576,1.088837 -0.744089,2.168343 -1.15625,3.178771 -0.235367,0.574658 -0.471965,1.141198 -0.71875,1.690551 -0.03878,0.08652 -0.08473,0.173529 -0.125,0.260613 L 43.5,81.432607 c -0.159539,-0.425003 -0.327144,-0.844511 -0.46875,-1.262986 l -1.8125,-6.302398 c -1.061267,-4.13772 -1.598722,-7.238018 -1.59375,-7.238532 -0.16093,-1.628528 -0.28125,-2.902067 -0.28125,-2.902067 0.04564,0.06467 0.110373,0.122807 0.15625,0.186299 0.135396,0.187476 0.238143,0.385634 0.375,0.562333 0.24017,0.310061 0.508889,0.624438 0.75,0.900635 0.05618,0.06435 0.131407,0.122731 0.1875,0.185154 0.141947,0.157707 0.296822,0.286714 0.4375,0.432025 0.189974,0.19558 0.407895,0.382189 0.59375,0.554317 1.639537,1.52319 3.037271,2.157067 3.5,1.535959 -8.17e-4,8.4e-5 -0.09738,-0.17733 -0.25,-0.374888 -1.167144,-1.715654 -5.53269,-9.337031 -1.3125,-21.106612 1.321462,-3.694017 3.518043,-7.51793 6.5,-11.375611 z m 7.6875,4.582921 c 0.522305,-0.06906 0.9951,-0.02148 1.375,0.07763 0.613674,1.58457 0.09264,3.253593 -0.40625,4.591472 -1.567217,2.113845 -3.660999,1.851958 -4,-0.68553 -0.377012,-2.687644 1.464315,-3.776701 3.03125,-3.983573 z"
       style="fill:#000000;stroke:#000000;stroke-width:5;stroke-linecap:round;stroke-linejoin:round;stroke-miterlimit:4;stroke-dasharray:none;stroke-opacity:0.61825728;fill-opacity:0.19502074999999999" />
    <path
       style="fill:#ffffff;stroke:none"
       d="m 66.9375,12.958388 c -0.0092,9.47e-4 -6.400002,1.936344 -11.125,11.833126 -1.713452,1.049322 -3.452886,2.189627 -5.15625,3.517372 -1.816142,1.413446 -3.529322,2.952615 -5.15625,4.701523 -0.02011,0.02155 -0.04245,0.04472 -0.0625,0.0663 -0.09275,0.100159 -0.189451,0.197029 -0.28125,0.298342 -0.913165,1.003916 -1.791237,2.019262 -2.59375,3.135435 -0.167745,0.233907 -0.338004,0.483485 -0.5,0.722413 -0.009,0.01312 0.009,0.05081 0,0.06401 -0.330979,0.489799 -0.663959,0.964619 -0.96875,1.475683 -0.322907,0.539616 -0.615548,1.101862 -0.90625,1.665417 -0.28286,0.548242 -0.531794,1.057563 -0.78125,1.628834 -0.508605,1.158608 -0.92801,2.37659 -1.28125,3.631408 -1.577745,4.033927 -2.201336,9.246505 -1.84375,15.685561 0.04821,0.894528 0.191854,1.771224 0.3125,2.644889 l -0.0625,-0.06172 c 0,0 1.247201,11.064326 5.46875,19.290097 0.0081,0.02399 -0.0081,0.03981 0,0.06401 0.04784,0.08893 0.108416,0.194434 0.15625,0.282312 0.275762,0.523076 0.573923,0.977668 0.875,1.472128 0.181991,0.311115 0.380795,0.642825 0.5625,0.939511 0.01661,0.02465 0.04581,0.03717 0.0625,0.06172 2.714268,4.413681 5.368838,7.22237 7.6875,9.031491 1.209576,0.943764 2.276741,1.553728 3.25,2.025181 9.747938,6.003029 6.895636,2.276349 6.90625,2.275252 2.439557,1.310847 4.019559,1.165657 4.03125,1.164447 -0.11668,-1.551114 -5.960125,-1.303019 -8.34375,-11.663784 2.026057,3.810054 9.192176,5.287178 9.5625,4.80225 0.192059,-0.261677 -0.652232,-1.715367 -2.4375,-4.263237 l 28.375,6.225156 c -0.255473,0.455079 -0.51961,0.907871 -0.78125,1.340796 -0.158445,0.262675 -0.308712,0.562882 -0.46875,0.817279 -0.347159,0.550022 -0.741266,1.096957 -1.09375,1.60828 -0.130813,0.189731 -0.243714,0.405436 -0.375,0.58982 -0.385118,0.54025 -0.769671,1.05197 -1.15625,1.54656 -0.137974,0.17686 -0.299647,0.32505 -0.4375,0.49609 -0.37871,0.46819 -0.780971,0.93006 -1.15625,1.35454 -0.486955,0.5508 -0.900532,1.10911 -1.375,1.58659 -0.03169,0.0319 -0.09337,0.037 -0.125,0.0686 -0.07346,0.0736 -0.145687,0.16027 -0.21875,0.23204 -0.424729,0.41577 -0.874004,0.81076 -1.28125,1.16709 -0.04221,0.0369 -0.08303,0.0962 -0.125,0.13259 -0.173818,0.15007 -0.330242,0.26325 -0.5,0.40238 -0.724404,0.59507 -1.432659,1.08667 -2.0625,1.48375 8.515782,-0.21086 13.45706,-4.1088 13.46875,-4.11001 0.01184,-0.001 -1.002273,1.72392 -3.875,4.14251 3.799994,-0.39304 12.97163,-5.48979 14.53125,-10.005696 l 1,0.315401 c -0.003,3.14e-4 11.22744,-10.70407 12.125,-32.640429 0.006,-0.02565 0.0294,-0.282071 0.0313,-0.289184 -0.008,-0.0038 0.051,0.0031 0.0625,-0.0023 0.0246,-0.977419 -0.0122,-1.953101 -0.0313,-2.975234 -0.0134,-0.666724 -0.0618,-1.359076 -0.0937,-2.044829 -0.0115,-0.248506 0.0448,-0.486215 0.0313,-0.737241 -0.0192,-0.398495 -0.0691,-0.807842 -0.0937,-1.212721 -0.0382,-0.525805 -0.0759,-1.09121 -0.125,-1.627629 -0.0854,-1.026835 -0.21155,-2.026108 -0.34375,-3.091801 -0.14494,-1.168846 -0.26418,-2.41554 -0.46875,-3.63129 -0.0294,-0.309614 -0.0721,-0.624361 -0.125,-0.955542 -0.10319,-0.494075 -0.23011,-0.972277 -0.34375,-1.459593 -0.93899,-4.027321 -2.21865,-7.754699 -3.78125,-11.158884 -0.32337,-0.698604 -0.68542,-1.355042 -1.03125,-2.010473 -0.063,-0.198519 -0.11511,-0.406166 -0.1875,-0.601208 -0.7658,-1.39421 -1.61352,-2.703906 -2.53125,-3.971764 -0.67753,-0.936046 -1.39557,-1.826789 -2.15625,-2.67334 -0.7322,-0.814852 -1.53425,-1.566411 -2.34375,-2.282418 -0.0555,-0.04916 -0.0692,-0.138801 -0.125,-0.187444 -1.27733,-1.102933 -2.66309,-2.050598 -4.09375,-2.858373 -0.27073,-0.15286 -0.5373,-0.308251 -0.8125,-0.450289 -0.454204,-0.239223 -0.880634,-0.479843 -1.34375,-0.686854 -0.181942,-0.0801 -0.379036,-0.127902 -0.5625,-0.203415 -0.487889,-0.203397 -0.972366,-0.385714 -1.46875,-0.554257 -0.08502,-0.02886 -0.164723,-0.05899 -0.25,-0.08685 -0.8273,-0.73899 -2.008821,-1.296951 -3.34375,-1.765714 -1.300719,-0.45675 -2.743441,-0.855848 -4.03125,-1.100439 -0.869827,-0.165201 -1.697729,-0.27588 -2.375,-0.361027 -2.332297,-0.285784 -4.733737,-0.201611 -7.0625,-0.157255 -0.803481,0.01839 -2.329383,0.135198 -3.90625,0.335165 -1.576864,0.199965 -3.260121,0.517617 -4.21875,0.730666 -0.471614,0.105382 -0.877199,0.199081 -1.28125,0.334987 -0.373438,0.114173 -0.72438,0.226814 -1.0625,0.358976 0.248992,-0.20204 0.489159,-0.404158 0.75,-0.603557 0,0 -0.469331,0.197809 -0.71875,0.28237 0.02081,-0.07933 0.03932,-0.143843 0.0625,-0.226319 -0.14334,0.08564 -0.26917,0.238892 -0.40625,0.334928 -0.612638,0.201336 -1.634626,0.553027 -2.84375,1.032325 0.590582,-1.230674 1.264908,-2.512969 2.1875,-3.696622 -1.374274,0.829625 -2.863675,2.627242 -4.21875,4.507149 -0.864099,0.3759 -1.814596,0.839809 -2.78125,1.318073 0.888665,-2.120155 2.460224,-5.041094 5.59375,-8.81408 z M 52.28125,35.226233 c -0.261083,0.605179 -0.50503,1.263 -0.65625,1.912288 -0.130412,0.365205 -0.220922,0.726674 -0.28125,1.13045 -0.06677,0.423141 -0.05813,0.829321 -0.0625,1.282454 -0.01643,1.701242 0.351452,3.595469 0.65625,5.256628 0.158103,0.86163 0.279442,1.622188 0.34375,2.323703 l 0.1875,1.913375 c -0.0837,-0.129792 -0.07418,-0.22053 -0.0625,-0.221739 0.0028,-2.92e-4 -0.09562,0.43213 -0.21875,1.064151 -0.121552,0.633311 -0.257873,1.462895 -0.3125,2.411758 -0.02731,0.474432 -0.05652,1.011654 -0.03125,1.505338 0.02425,0.492888 0.05521,0.929915 0.15625,1.402455 0.0044,0.02154 -0.0046,0.04254 0,0.06401 0.205346,0.920734 0.611006,1.774478 1.25,2.386507 0,0 0.952158,-2.274338 2.8125,-3.623513 1.860338,-1.349175 3.557348,-2.558188 4.9375,-3.701379 1.380153,-1.143187 5.620657,-5.788784 9.34375,-5.879102 2.25817,-0.05208 8.99641,0.636638 19.15625,1.826362 2.051529,3.107493 3.592219,6.705186 4.3125,10.659356 L 66.5,69.333633 l -11.0625,-12.6843 -0.5,1.522514 11.21875,14.886858 28.0625,-12.709818 c 0.189784,3.506382 -0.268174,7.222946 -1.625,11.132963 -0.118265,0.241635 -0.205731,0.5044 -0.25,0.713251 -0.0026,0.01268 4.385053,0.409103 7.71875,-4.891436 -0.001,0.04457 0.002,0.115469 0,0.160021 -0.0318,1.038378 -0.115334,2.016136 -0.187504,3.015256 -0.0277,0.383788 -0.0289,0.776422 -0.0625,1.154437 -0.0425,0.476975 -0.0737,0.976989 -0.125,1.444766 -0.0983,0.898326 -0.21478,1.836479 -0.34375,2.70094 -0.0757,0.503423 -0.164434,1.021399 -0.249996,1.513353 -0.135375,0.779176 -0.278943,1.537898 -0.4375,2.288323 -0.03939,0.186335 -0.115432,0.365224 -0.15625,0.549794 -0.188617,0.853429 -0.377621,1.702443 -0.59375,2.518078 -0.04824,0.182062 -0.07546,0.368464 -0.125,0.548649 -0.04018,0.145737 -0.115236,0.309261 -0.15625,0.453784 -0.286114,1.010582 -0.613978,1.996145 -0.9375,2.946726 -0.370576,1.088837 -0.744089,2.168343 -1.15625,3.178771 -0.235367,0.574658 -0.471965,1.141198 -0.71875,1.690551 -0.03878,0.08652 -0.08473,0.173529 -0.125,0.260613 L 45.5,81.432607 c -0.159539,-0.425003 -0.327144,-0.844511 -0.46875,-1.262986 l -1.8125,-6.302398 c -1.061267,-4.13772 -1.598722,-7.238018 -1.59375,-7.238532 -0.16093,-1.628528 -0.28125,-2.902067 -0.28125,-2.902067 0.04564,0.06467 0.110373,0.122807 0.15625,0.186299 0.135396,0.187476 0.238143,0.385634 0.375,0.562333 0.24017,0.310061 0.508889,0.624438 0.75,0.900635 0.05618,0.06435 0.131407,0.122731 0.1875,0.185154 0.141947,0.157707 0.296822,0.286714 0.4375,0.432025 0.189974,0.19558 0.407895,0.382189 0.59375,0.554317 1.639537,1.52319 3.037271,2.157067 3.5,1.535959 -8.17e-4,8.4e-5 -0.09738,-0.17733 -0.25,-0.374888 -1.167144,-1.715654 -5.53269,-9.337031 -1.3125,-21.106612 1.321462,-3.694017 3.518043,-7.51793 6.5,-11.375611 z m 7.6875,4.582921 c 0.522305,-0.06906 0.9951,-0.02148 1.375,0.07763 0.613674,1.58457 0.09264,3.253593 -0.40625,4.591472 -1.567217,2.113845 -3.660999,1.851958 -4,-0.68553 -0.377012,-2.687644 1.464315,-3.776701 3.03125,-3.983573 z"
       id="path185"
       inkscape:connector-curvature="0" />
  </g>
</svg>
