<?xml version="1.0" encoding="UTF-8" standalone="no"?>
<!-- Created with Inkscape (http://www.inkscape.org/) -->

<svg
   xmlns:dc="http://purl.org/dc/elements/1.1/"
   xmlns:cc="http://creativecommons.org/ns#"
   xmlns:rdf="http://www.w3.org/1999/02/22-rdf-syntax-ns#"
   xmlns:svg="http://www.w3.org/2000/svg"
   xmlns="http://www.w3.org/2000/svg"
   xmlns:xlink="http://www.w3.org/1999/xlink"
   xmlns:sodipodi="http://sodipodi.sourceforge.net/DTD/sodipodi-0.dtd"
   xmlns:inkscape="http://www.inkscape.org/namespaces/inkscape"
   width="128"
   height="128"
   id="svg6934"
   sodipodi:version="0.32"
   inkscape:version="0.48.3.1 r9886"
   version="1.0"
   sodipodi:docname="utilities-terminal-symbolic.svg"
   inkscape:output_extension="org.inkscape.output.svg.inkscape">
  <defs
     id="defs6936">
    <linearGradient
       inkscape:collect="always"
       xlink:href="#linearGradient5316-79"
       id="linearGradient31105"
       gradientUnits="userSpaceOnUse"
       gradientTransform="translate(-135.78663,-33.91079)"
       x1="275.29071"
       y1="1103.7349"
       x2="275.29071"
       y2="1121.6162" />
    <linearGradient
       id="linearGradient5316-79">
      <stop
         style="stop-color:#87c7ff;stop-opacity:1;"
         offset="0"
         id="stop5320-43" />
      <stop
         style="stop-color:#74aadb;stop-opacity:1;"
         offset="1"
         id="stop5322-35" />
    </linearGradient>
    <linearGradient
       inkscape:collect="always"
       xlink:href="#linearGradient5165-7-9-8-2-065"
       id="linearGradient31107"
       gradientUnits="userSpaceOnUse"
       gradientTransform="translate(-135.78663,-33.91079)"
       x1="275.29071"
       y1="1094.0099"
       x2="275.29071"
       y2="1117.1519" />
    <linearGradient
       id="linearGradient5165-7-9-8-2-065">
      <stop
         id="stop5167-4-8-6-9-9"
         style="stop-color:#ffffff;stop-opacity:1"
         offset="0" />
      <stop
         id="stop5169-5-5-2-9-7"
         style="stop-color:#ffffff;stop-opacity:0"
         offset="1" />
    </linearGradient>
    <linearGradient
       inkscape:collect="always"
       xlink:href="#linearGradient5316-79"
       id="linearGradient31109"
       gradientUnits="userSpaceOnUse"
       gradientTransform="translate(-135.78663,-33.91079)"
       x1="280.65372"
       y1="1100.6647"
       x2="292.69617"
       y2="1118.8726" />
    <linearGradient
       inkscape:collect="always"
       xlink:href="#linearGradient5344-8"
       id="linearGradient31111"
       gradientUnits="userSpaceOnUse"
       gradientTransform="translate(-135.78663,-33.91079)"
       x1="317.94461"
       y1="1142.4757"
       x2="283.81964"
       y2="1103.8007" />
    <linearGradient
       id="linearGradient5344-8">
      <stop
         style="stop-color:#000000;stop-opacity:1;"
         offset="0"
         id="stop5346-3" />
      <stop
         style="stop-color:#000000;stop-opacity:0;"
         offset="1"
         id="stop5348-05" />
    </linearGradient>
    <linearGradient
       inkscape:collect="always"
       xlink:href="#linearGradient5344-8"
       id="linearGradient3185"
       gradientUnits="userSpaceOnUse"
       gradientTransform="matrix(5.334059,0,0,5.334059,-1451.5326,-5864.5299)"
       x1="317.94461"
       y1="1142.4757"
       x2="283.81964"
       y2="1103.8007" />
    <linearGradient
       inkscape:collect="always"
       xlink:href="#linearGradient5316-79"
       id="linearGradient3188"
       gradientUnits="userSpaceOnUse"
       gradientTransform="matrix(5.334059,0,0,5.334059,-1451.5326,-5864.5299)"
       x1="280.65372"
       y1="1100.6647"
       x2="292.69617"
       y2="1118.8726" />
    <linearGradient
       inkscape:collect="always"
       xlink:href="#linearGradient5165-7-9-8-2-065"
       id="linearGradient3191"
       gradientUnits="userSpaceOnUse"
       gradientTransform="matrix(5.334059,0,0,5.334059,-1451.5326,-5864.5299)"
       x1="275.29071"
       y1="1094.0099"
       x2="275.29071"
       y2="1117.1519" />
    <linearGradient
       inkscape:collect="always"
       xlink:href="#linearGradient5316-79"
       id="linearGradient3194"
       gradientUnits="userSpaceOnUse"
       gradientTransform="matrix(5.334059,0,0,5.334059,-1451.5326,-5864.5299)"
       x1="275.29071"
       y1="1103.7349"
       x2="275.29071"
       y2="1121.6162" />
    <linearGradient
       id="linearGradient8702-9">
      <stop
         id="stop8704-9"
         offset="0"
         style="stop-color:#ff6e00;stop-opacity:1;" />
      <stop
         id="stop8706-9"
         offset="1"
         style="stop-color:#eb2600;stop-opacity:1;" />
    </linearGradient>
    <linearGradient
       gradientTransform="translate(-290.13354,-146.34359)"
       y2="124.03289"
       x2="116.18261"
       y1="7.3602738"
       x1="5.1721773"
       gradientUnits="userSpaceOnUse"
       id="linearGradient3211"
       xlink:href="#linearGradient8702-9"
       inkscape:collect="always" />
    <linearGradient
       inkscape:collect="always"
       xlink:href="#linearGradient8702-9"
       id="linearGradient3231"
       gradientUnits="userSpaceOnUse"
       gradientTransform="matrix(5.334059,0,0,5.334059,-1451.5326,-5864.5299)"
       x1="273.5863"
       y1="1101.9358"
       x2="293.37628"
       y2="1122.4684" />
  </defs>
  <sodipodi:namedview
     id="base"
     pagecolor="#ffffff"
     bordercolor="#666666"
     borderopacity="1.0"
     inkscape:pageopacity="0.0"
     inkscape:pageshadow="2"
     inkscape:zoom="1.979899"
     inkscape:cx="114.28429"
     inkscape:cy="53.457511"
     inkscape:document-units="px"
     inkscape:current-layer="layer1"
     showgrid="false"
     inkscape:window-width="1280"
     inkscape:window-height="714"
     inkscape:window-x="0"
     inkscape:window-y="0"
     inkscape:window-maximized="0" />
  <metadata
     id="metadata6939">
    <rdf:RDF>
      <cc:Work
         rdf:about="">
        <dc:format>image/svg+xml</dc:format>
        <dc:type
           rdf:resource="http://purl.org/dc/dcmitype/StillImage" />
        <dc:title />
      </cc:Work>
    </rdf:RDF>
  </metadata>
  <g
     inkscape:label="Capa 1"
     inkscape:groupmode="layer"
     id="layer1">
    <path
       style="fill:url(#linearGradient3231);fill-rule:evenodd;stroke:none;display:inline"
       d="M 34.15625 5.09375 C 32.913386 5.1455482 31.797432 5.3498354 30.75 5.65625 L 12.15625 8.4375 L 11.65625 8.4375 L 11.65625 8.59375 C 5.9407528 9.642426 3 14.21676 3 19.78125 L 3 104.4375 C 2.929591 110.09 5.0813568 114.53304 9.34375 115.9375 L 28.34375 121.90625 L 28.46875 121.96875 C 30.337281 122.83378 32.596074 123.16097 35.15625 122.75 L 113.4375 110.90625 C 119.15802 110.28696 122.87305 104.87353 122.5625 97.3125 L 123 23 C 123.22243 17.034922 120.16706 12.055169 113.625 11.0625 L 35.78125 5.09375 C 35.224941 5.0664129 34.678183 5.0719977 34.15625 5.09375 z M 37.09375 16 C 38.021716 16.139219 38.952238 16.437181 39.75 17.3125 L 59.875 37.65625 L 79.96875 56.15625 C 81.385476 57.405486 82.25 59.704275 82.25 62.21875 C 82.25 64.731625 81.385476 67.1171 79.96875 68.46875 L 59.875 88.375 L 39.75 110.1875 C 38.315565 112.09283 36.439526 112.53751 34.90625 111.34375 C 33.372922 110.14038 32.50609 107.45444 32.46875 104.4375 C 32.508436 101.40989 33.52431 98.58515 35.09375 97.09375 L 55.25 75.65625 L 68.4375 62.71875 L 55.25 50.71875 L 35.09375 30.75 C 33.325456 28.90815 32.524331 25.300533 32.90625 21.875 C 33.365992 18.462269 35.057739 16.08001 37.09375 16 z M 108.21875 87.71875 C 110.78059 87.43978 112.84375 90.12573 112.84375 93.71875 C 112.84375 97.31178 110.78059 100.54278 108.21875 100.9375 L 81.40625 105 C 78.844035 105.56914 76.68625 102.80376 76.5625 98.84375 C 76.438537 94.88161 78.407229 91.27199 80.96875 90.78125 C 81.118637 90.72795 81.256363 90.75 81.40625 90.75 L 108.21875 87.71875 z "
       id="path30977" />
  </g>
</svg>
