<?xml version="1.0" encoding="UTF-8" standalone="no"?>
<!-- Created with Inkscape (http://www.inkscape.org/) -->

<svg
   xmlns:dc="http://purl.org/dc/elements/1.1/"
   xmlns:cc="http://creativecommons.org/ns#"
   xmlns:rdf="http://www.w3.org/1999/02/22-rdf-syntax-ns#"
   xmlns:svg="http://www.w3.org/2000/svg"
   xmlns="http://www.w3.org/2000/svg"
   xmlns:xlink="http://www.w3.org/1999/xlink"
   xmlns:sodipodi="http://sodipodi.sourceforge.net/DTD/sodipodi-0.dtd"
   xmlns:inkscape="http://www.inkscape.org/namespaces/inkscape"
   width="136.53334"
   height="136.53334"
   id="svg6934"
   sodipodi:version="0.32"
   inkscape:version="0.92.1 r15371"
   version="1.0"
   sodipodi:docname="start-here.svg"
   inkscape:output_extension="org.inkscape.output.svg.inkscape">
  <defs
     id="defs6936">
    <linearGradient
       id="linearGradient5165-7-9-8-2-1">
      <stop
         id="stop5167-4-8-6-9-4"
         style="stop-color:#ffffff;stop-opacity:1"
         offset="0" />
      <stop
         id="stop5169-5-5-2-9-90"
         style="stop-color:#ffffff;stop-opacity:0"
         offset="1" />
    </linearGradient>
    <linearGradient
       id="linearGradient5344-4">
      <stop
         style="stop-color:#000000;stop-opacity:1;"
         offset="0"
         id="stop5346-96" />
      <stop
         style="stop-color:#000000;stop-opacity:0;"
         offset="1"
         id="stop5348-31" />
    </linearGradient>
    <linearGradient
       inkscape:collect="always"
       xlink:href="#jaca"
       id="linearGradient4922"
       gradientUnits="userSpaceOnUse"
       gradientTransform="scale(1.0666667)"
       x1="6.5963445"
       y1="25.086559"
       x2="117.48683"
       y2="107.41399" />
    <linearGradient
       inkscape:collect="always"
       xlink:href="#linearGradient5344-4"
       id="linearGradient4924"
       gradientUnits="userSpaceOnUse"
       gradientTransform="matrix(5.6896682,0,0,5.6896682,-1548.2455,-6255.5279)"
       x1="305.23422"
       y1="1137.0681"
       x2="283.35095"
       y2="1104.2024" />
    <linearGradient
       inkscape:collect="always"
       xlink:href="#linearGradient5344-4"
       id="linearGradient4928"
       gradientUnits="userSpaceOnUse"
       gradientTransform="matrix(1.0666667,0,0,1.0666667,0,149.33333)"
       x1="7.9531264"
       y1="2.2416961"
       x2="13.667412"
       y2="-64.464973" />
    <linearGradient
       inkscape:collect="always"
       xlink:href="#linearGradient5165-7-9-8-2-1"
       id="linearGradient4926"
       gradientUnits="userSpaceOnUse"
       gradientTransform="matrix(1.0666667,0,0,1.0666667,0,149.33333)"
       x1="22.933788"
       y1="-144.76825"
       x2="18.618809"
       y2="-96.331688" />
    <linearGradient
       id="jaca">
      <stop
         id="stop8362"
         offset="0"
         style="stop-color:#b995da;stop-opacity:1" />
      <stop
         id="stop8364"
         offset="1"
         style="stop-color:#766287;stop-opacity:1" />
    </linearGradient>
  </defs>
  <sodipodi:namedview
     id="base"
     pagecolor="#ffffff"
     bordercolor="#666666"
     borderopacity="1.0"
     inkscape:pageopacity="0.0"
     inkscape:pageshadow="2"
     inkscape:zoom="3.9279184"
     inkscape:cx="17.428373"
     inkscape:cy="68.268417"
     inkscape:document-units="px"
     inkscape:current-layer="layer2"
     showgrid="false"
     inkscape:window-width="1366"
     inkscape:window-height="714"
     inkscape:window-x="0"
     inkscape:window-y="26"
     inkscape:window-maximized="1"
     inkscape:snap-global="false" />
  <metadata
     id="metadata6939">
    <rdf:RDF>
      <cc:Work
         rdf:about="">
        <dc:format>image/svg+xml</dc:format>
        <dc:type
           rdf:resource="http://purl.org/dc/dcmitype/StillImage" />
        <dc:title />
      </cc:Work>
    </rdf:RDF>
  </metadata>
  <g
     inkscape:label="Capa 1"
     inkscape:groupmode="layer"
     id="layer1">
    <path
       inkscape:connector-curvature="0"
       id="path4898"
       d="m 36.5,5.4 c -1.41789,0.0591 -2.72059,0.29831 -3.9,0.66667 l -19.56667,2.9 H 12.5 v 0.2 c -6.09653,1.11901 -9.23333,5.96478 -9.23333,11.9 V 111.4 C 3.19177,117.42908 5.45344,122.16821 10,123.66667 L 30.23333,130 c 0.0223,0.0109 0.0443,0.0226 0.0667,0.0334 2.0189,0.96994 4.44206,1.31466 7.23334,0.86666 l 83.49999,-12.6 c 6.10189,-0.66105 10.09792,-6.46819 9.76667,-14.53333 l 0.43333,-79.23338 C 131.47068,18.17032 128.2449,12.82538 121.2667,11.76668 L 38.23333,5.43334 C 37.63994,5.40424 37.05673,5.37684 36.5,5.39994 Z"
       style="fill:url(#linearGradient4922);fill-opacity:1;fill-rule:evenodd;stroke:none;stroke-width:1.06666672" />
  </g>
  <g
     inkscape:groupmode="layer"
     id="layer3"
     inkscape:label="som"
     style="display:inline">
    <path
       sodipodi:nodetypes="ccccccccccccc"
       inkscape:connector-curvature="0"
       id="path4900"
       d="m 31.2,17.83334 -0.0333,102.83333 c 0.47861,3.68883 1.50138,8.66619 4.63333,10.4 0.56227,-0.0244 1.13867,-0.0713 1.73334,-0.16667 l 83.49999,-12.6 c 6.10189,-0.66106 10.09792,-6.46819 9.76667,-14.53333 l 0.43333,-79.23333 C 131.47064,18.17031 128.2449,12.82537 121.2667,11.76667 L 40.19035,5.58261 C 35.95434,5.13389 31.2138,10.68188 31.2,17.83334 Z m 0.96667,112.83333 c 0.69116,0.18296 1.40232,0.34791 2.16666,0.4 z"
       style="fill:url(#linearGradient4924);fill-rule:evenodd;stroke:none;stroke-width:1.06666672" />
    <path
       inkscape:connector-curvature="0"
       id="path4902"
       d="m 37.1,5.6666705 -24.06667,3.3 H 12.5 v 0.2 C 6.40347,10.28568 3.26667,15.13145 3.26667,21.06667 V 47.73334 H 31.2 v -29.9 C 31.57019,12.58877 33.62567,7.2053005 37.1,5.6666705 Z"
       style="display:inline;fill:url(#linearGradient4926);fill-rule:evenodd;stroke:none;stroke-width:1.06666672" />
    <path
       inkscape:connector-curvature="0"
       id="path4904"
       d="M 3.26667,72.96667 V 111.4 C 3.19177,117.42908 5.45344,122.16821 10,123.66667 l 18.83333,6.43333 8,1.4 c -3.95823,-1.11454 -5.13861,-6.76345 -5.66666,-10.83333 v -47.7 z"
       style="display:inline;fill:url(#linearGradient4928);fill-rule:evenodd;stroke:none;stroke-width:1.06666672" />
  </g>
  <g
     inkscape:groupmode="layer"
     id="layer2"
     inkscape:label="top"
     style="display:inline">
    <path
       sodipodi:nodetypes="ccccccccccccc"
       style="display:inline;fill:none;stroke:#344b63;stroke-width:2.84483409;stroke-linecap:butt;stroke-linejoin:miter;stroke-miterlimit:4;stroke-dasharray:none;stroke-opacity:1"
       d="m 38.21335,5.4233905 c -1.85,-0.091 -3.48543,0.14222 -4.97846,0.53476 l -20.80285,3.20057 C 6.33551,10.27773 3.18633,15.13603 3.18633,21.07126 v 90.32366 c -0.0749,6.02908 2.20993,10.77021 6.75648,12.26866 l 20.98065,6.57806 c 1.91172,0.78962 4.02665,1.12128 6.57868,0.71168 l 83.567,-12.62421 c 6.10189,-0.66048 10.11037,-6.51435 9.77912,-14.57949 l 0.35561,-79.30029 c 0.23728,-6.36303 -2.97871,-11.56495 -9.95692,-12.62365 L 38.21335,5.4245405 Z"
       id="path4906"
       inkscape:connector-curvature="0" />
    <path
       inkscape:connector-curvature="0"
       id="path4949"
       d="m 106.46419,20.33908 c -3.02823,-0.0879 -5.89956,2.31103 -6.97123,5.97106 -3.6e-4,0.001 3.6e-4,0.003 0,0.004 -0.11761,0.40219 -0.20957,0.82065 -0.28149,1.25171 -0.014,0.0832 -0.0238,0.16739 -0.036,0.25154 -0.0618,0.43087 -0.10955,0.87029 -0.12177,1.32557 -0.0698,2.59831 0.77667,5.07078 2.08018,6.75962 1.30351,1.68884 2.91635,2.55804 4.68343,2.46948 0.25736,-0.0129 0.51021,-0.0369 0.75861,-0.0719 0.15962,-0.0223 0.3134,-0.0566 0.46914,-0.0878 0.0848,-0.0171 0.1719,-0.0302 0.25553,-0.0499 0.15613,-0.0366 0.30738,-0.0822 0.45916,-0.12777 0.0824,-0.0249 0.16645,-0.0463 0.24754,-0.0739 0.1796,-0.0606 0.35425,-0.13243 0.52704,-0.20562 0.0376,-0.016 0.0766,-0.0293 0.1138,-0.0459 0.18077,-0.0801 0.35634,-0.16967 0.52903,-0.26352 0.0344,-0.0189 0.0697,-0.0365 0.10381,-0.0559 0.18328,-0.10349 0.35965,-0.21652 0.53302,-0.33538 0.009,-0.006 0.0188,-0.0116 0.0279,-0.018 0.005,-0.004 0.009,-0.008 0.014,-0.012 0.17457,-0.12153 0.34326,-0.25042 0.50707,-0.3873 0.0178,-0.0149 0.0363,-0.0288 0.0539,-0.0439 0.16994,-0.14476 0.33359,-0.29807 0.49109,-0.45915 1.49259,-1.52656 2.41828,-3.76914 2.49344,-6.56797 0.13973,-5.20248 -3.18218,-9.11804 -6.9373,-9.2271 z m -22.6625,1.65896 c -0.68094,-0.0134 -1.35868,-0.002 -2.03228,0.0299 -5.36001,0.25819 -10.46497,1.9487 -15.01649,4.68143 l 8.31078,13.45535 c 2.7245,-1.64605 5.85889,-2.51432 9.3928,-2.27383 12.62996,0.50334 22.17123,11.65368 22.77029,24.99222 h 13.46534 c -0.41169,-8.40523 -2.99068,-16.48407 -7.27468,-23.21149 -1.98809,1.81156 -4.53117,2.94555 -7.38048,3.08835 -3.39365,0.17007 -6.40006,-1.60369 -8.38265,-4.17236 -1.98259,-2.56867 -3.08911,-5.96826 -2.99252,-9.56448 0.0433,-1.6131 0.34789,-3.16426 0.85044,-4.60756 -3.02035,-1.20526 -6.24778,-2.00371 -9.6583,-2.30578 -0.68717,-0.0609 -1.37131,-0.0984 -2.05225,-0.11179 z m -21.48065,7.84363 c -1.73742,1.42678 -3.3623,3.0101 -4.84513,4.73134 -3.46173,4.01829 -6.25106,8.79229 -8.20897,14.09818 2.45807,0.72765 4.63482,2.27609 6.28649,4.33206 2.33957,2.91225 3.73847,6.83102 3.78907,11.13161 0.0955,8.11775 -4.67466,14.79021 -11.61074,16.0546 1.88503,7.24076 5.3045,13.61364 9.91784,18.62588 1.01884,1.10696 2.10913,2.1379 3.25204,3.10231 L 69.78138,87.54199 C 64.64405,81.92256 61.99651,73.48578 61.91179,66.94372 62.31877,58.88822 65.35376,49.52846 70.84742,43.64639 Z M 46.12071,52.60199 c -2.24966,0.0259 -4.32106,1.1871 -5.93114,3.28997 -1.61009,2.10287 -2.65886,5.12262 -2.61921,8.49245 0.0397,3.367 1.18171,6.51754 2.84679,8.63818 1.66509,2.12063 3.6694,3.16082 5.79539,2.95658 0.20392,-0.0196 0.40159,-0.0556 0.6009,-0.0878 6.5e-4,-10e-5 10e-4,1.1e-4 0.002,0 0.28888,-0.0469 0.57202,-0.10871 0.85044,-0.18167 0.0166,-0.004 0.0334,-0.008 0.0499,-0.012 0.25729,-0.069 0.50911,-0.15074 0.75661,-0.24155 0.0414,-0.0152 0.0827,-0.0301 0.12377,-0.0459 0.23661,-0.0909 0.46799,-0.19092 0.69473,-0.30145 0.0367,-0.0179 0.0734,-0.0355 0.1098,-0.0539 0.22455,-0.1134 0.44282,-0.23692 0.6568,-0.36932 0.0403,-0.0248 0.0799,-0.0504 0.11978,-0.0759 0.20408,-0.13091 0.40335,-0.26921 0.5969,-0.41724 0.0477,-0.0365 0.0947,-0.0743 0.14175,-0.1118 0.18597,-0.14827 0.3677,-0.30309 0.543,-0.46714 0.045,-0.042 0.0895,-0.0848 0.13375,-0.12777 0.16974,-0.16534 0.33436,-0.33691 0.49311,-0.51705 0.0449,-0.0508 0.0878,-0.10373 0.13175,-0.15571 0.15412,-0.18256 0.30449,-0.36834 0.44718,-0.56497 0.0448,-0.0615 0.0862,-0.12675 0.12977,-0.18965 0.13047,-0.18865 0.25746,-0.38031 0.37731,-0.58094 0.054,-0.0902 0.10394,-0.18494 0.15571,-0.27749 0.10502,-0.18818 0.20979,-0.3771 0.30544,-0.57495 0.0571,-0.11795 0.10797,-0.242 0.1617,-0.36333 0.0786,-0.17788 0.15853,-0.35402 0.22958,-0.53901 0.0593,-0.15388 0.10981,-0.31441 0.16371,-0.47314 0.0585,-0.17251 0.11969,-0.34293 0.17168,-0.52104 0.0505,-0.17268 0.0915,-0.35318 0.13575,-0.53103 0.0418,-0.16819 0.0877,-0.33236 0.12377,-0.50508 0.0443,-0.21124 0.0762,-0.43091 0.1118,-0.64881 0.0254,-0.15661 0.055,-0.30917 0.0758,-0.46914 0.0263,-0.201 0.043,-0.41065 0.0618,-0.61687 0.0171,-0.18685 0.039,-0.36995 0.0499,-0.56097 2.3e-4,-0.004 0.002,-0.008 0.002,-0.012 0.022,-0.39099 0.0308,-0.78984 0.026,-1.19781 -0.0397,-3.36976 -1.15923,-6.36471 -2.81884,-8.43056 -0.26977,-0.33581 -0.55474,-0.63759 -0.84644,-0.92231 -0.0704,-0.0686 -0.14195,-0.13413 -0.21362,-0.19963 -0.29361,-0.26937 -0.59421,-0.51932 -0.90634,-0.73665 -0.10679,-0.0744 -0.21663,-0.13948 -0.3254,-0.20762 -0.10201,-0.0636 -0.20373,-0.12759 -0.30744,-0.18566 -0.12979,-0.0731 -0.26102,-0.14125 -0.39327,-0.20562 -0.0619,-0.03 -0.12523,-0.0558 -0.18766,-0.0838 -0.33275,-0.15034 -0.6702,-0.27683 -1.01614,-0.37132 -0.58869,-0.1608 -1.1932,-0.24866 -1.81068,-0.24156 z m 61.00028,14.36968 c -1.22812,12.88424 -10.8569,24.64625 -21.72422,26.4815 -4.43112,0.60926 -8.24106,-0.38829 -11.42907,-2.38164 l -8.66213,14.02232 c 6.2447,3.78152 13.63594,5.51243 21.16923,4.24022 3.73709,-0.63111 7.22977,-1.77189 10.45484,-3.3299 -0.81554,-1.7613 -1.30687,-3.73739 -1.36349,-5.81534 -0.0971,-3.56286 1.01694,-6.92899 3.00649,-9.46866 1.98953,-2.53967 4.99498,-4.28365 8.38064,-4.11646 2.83881,0.14018 5.37862,1.25389 7.36851,3.03644 3.87666,-6.66069 6.12638,-14.47219 6.40228,-22.66848 z m -0.3833,24.02 c -1.78293,-0.088 -3.40376,0.778 -4.70539,2.43953 -1.30163,1.66154 -2.14371,4.08778 -2.0742,6.63784 0.009,0.3446 0.0368,0.68142 0.0758,1.01215 0.003,0.0278 0.008,0.0542 0.012,0.0819 0.0384,0.30544 0.0894,0.60413 0.15172,0.89636 0.004,0.0169 0.008,0.0331 0.012,0.0499 0.0662,0.30344 0.14525,0.59859 0.23557,0.88638 0.002,0.005 0.004,0.0105 0.006,0.016 0.0942,0.29856 0.20112,0.58616 0.31942,0.8664 1.27084,3.01057 3.86671,4.92979 6.61588,4.85113 3.78333,-0.10829 7.08647,-3.97083 6.94728,-9.07738 -0.0733,-2.68787 -0.95641,-4.85662 -2.39163,-6.35636 -0.16582,-0.17327 -0.33872,-0.33812 -0.51905,-0.49309 -0.18042,-0.15507 -0.36679,-0.30096 -0.56097,-0.4372 -0.19169,-0.1345 -0.38855,-0.26165 -0.59292,-0.37731 -0.003,-0.001 -0.005,-0.003 -0.008,-0.004 -0.013,-0.007 -0.027,-0.0127 -0.04,-0.02 -0.18907,-0.1052 -0.38176,-0.20467 -0.58094,-0.29346 -0.0358,-0.0161 -0.0737,-0.0284 -0.10979,-0.0439 -0.18892,-0.0807 -0.37968,-0.15781 -0.57695,-0.22359 -10e-4,-4.6e-4 -0.003,-0.002 -0.004,-0.002 -0.0247,-0.008 -0.051,-0.0139 -0.0758,-0.022 -0.19756,-0.0635 -0.3976,-0.12328 -0.6029,-0.17169 -0.14284,-0.0339 -0.29076,-0.0574 -0.4372,-0.0838 -0.10675,-0.0191 -0.21085,-0.0428 -0.31942,-0.0579 -0.003,-4.6e-4 -0.007,-0.002 -0.0102,-0.002 -0.251,-0.0348 -0.50629,-0.059 -0.76659,-0.0719 z"
       style="color:#000000;font-style:normal;font-variant:normal;font-weight:normal;font-stretch:normal;font-size:medium;line-height:normal;font-family:sans-serif;font-variant-ligatures:normal;font-variant-position:normal;font-variant-caps:normal;font-variant-numeric:normal;font-variant-alternates:normal;font-feature-settings:normal;text-indent:0;text-align:start;text-decoration:none;text-decoration-line:none;text-decoration-style:solid;text-decoration-color:#000000;letter-spacing:normal;word-spacing:normal;text-transform:none;writing-mode:lr-tb;direction:ltr;text-orientation:mixed;dominant-baseline:auto;baseline-shift:baseline;text-anchor:start;white-space:normal;shape-padding:0;clip-rule:nonzero;display:inline;overflow:visible;visibility:visible;opacity:1;isolation:auto;mix-blend-mode:normal;color-interpolation:sRGB;color-interpolation-filters:linearRGB;solid-color:#000000;solid-opacity:1;vector-effect:none;fill:#000000;fill-opacity:0.5;fill-rule:nonzero;stroke:#000000;stroke-width:3.5999999;stroke-linecap:round;stroke-linejoin:bevel;stroke-miterlimit:4;stroke-dasharray:none;stroke-dashoffset:0;stroke-opacity:0.51456311;color-rendering:auto;image-rendering:auto;shape-rendering:auto;text-rendering:auto;enable-background:accumulate" />
    <path
       style="color:#000000;font-style:normal;font-variant:normal;font-weight:normal;font-stretch:normal;font-size:medium;line-height:normal;font-family:sans-serif;font-variant-ligatures:normal;font-variant-position:normal;font-variant-caps:normal;font-variant-numeric:normal;font-variant-alternates:normal;font-feature-settings:normal;text-indent:0;text-align:start;text-decoration:none;text-decoration-line:none;text-decoration-style:solid;text-decoration-color:#000000;letter-spacing:normal;word-spacing:normal;text-transform:none;writing-mode:lr-tb;direction:ltr;text-orientation:mixed;dominant-baseline:auto;baseline-shift:baseline;text-anchor:start;white-space:normal;shape-padding:0;clip-rule:nonzero;display:inline;overflow:visible;visibility:visible;opacity:1;isolation:auto;mix-blend-mode:normal;color-interpolation:sRGB;color-interpolation-filters:linearRGB;solid-color:#000000;solid-opacity:1;vector-effect:none;fill:#ffffff;fill-opacity:1;fill-rule:nonzero;stroke:none;stroke-width:15.49999809;stroke-linecap:butt;stroke-linejoin:miter;stroke-miterlimit:4;stroke-dasharray:none;stroke-dashoffset:0;stroke-opacity:1;color-rendering:auto;image-rendering:auto;shape-rendering:auto;text-rendering:auto;enable-background:accumulate"
       d="m 108.46419,20.33908 c -3.02823,-0.0879 -5.89956,2.31103 -6.97123,5.97106 -3.6e-4,0.001 3.6e-4,0.003 0,0.004 -0.11761,0.40219 -0.20957,0.82065 -0.28149,1.25171 -0.014,0.0832 -0.0238,0.16739 -0.036,0.25154 -0.0618,0.43087 -0.10955,0.87029 -0.12177,1.32557 -0.0698,2.59831 0.77667,5.07078 2.08018,6.75962 1.30351,1.68884 2.91635,2.55804 4.68343,2.46948 0.25736,-0.0129 0.51021,-0.0369 0.75861,-0.0719 0.15962,-0.0223 0.3134,-0.0566 0.46914,-0.0878 0.0848,-0.0171 0.1719,-0.0302 0.25553,-0.0499 0.15613,-0.0366 0.30738,-0.0822 0.45916,-0.12777 0.0824,-0.0249 0.16645,-0.0463 0.24754,-0.0739 0.1796,-0.0606 0.35425,-0.13243 0.52704,-0.20562 0.0376,-0.016 0.0766,-0.0293 0.1138,-0.0459 0.18077,-0.0801 0.35634,-0.16967 0.52903,-0.26352 0.0344,-0.0189 0.0697,-0.0365 0.10381,-0.0559 0.18328,-0.10349 0.35965,-0.21652 0.53302,-0.33538 0.009,-0.006 0.0188,-0.0116 0.0279,-0.018 0.005,-0.004 0.009,-0.008 0.014,-0.012 0.17457,-0.12153 0.34326,-0.25042 0.50707,-0.3873 0.0178,-0.0149 0.0363,-0.0288 0.0539,-0.0439 0.16994,-0.14476 0.33359,-0.29807 0.49109,-0.45915 1.49259,-1.52656 2.41828,-3.76914 2.49344,-6.56797 0.13973,-5.20248 -3.18218,-9.11804 -6.9373,-9.2271 z m -22.6625,1.65896 c -0.68094,-0.0134 -1.35868,-0.002 -2.03228,0.0299 -5.36001,0.25819 -10.46497,1.9487 -15.01649,4.68143 l 8.31078,13.45535 c 2.7245,-1.64605 5.85889,-2.51432 9.3928,-2.27383 12.62996,0.50334 22.17123,11.65368 22.77029,24.99222 h 13.46534 c -0.41169,-8.40523 -2.99068,-16.48407 -7.27468,-23.21149 -1.98809,1.81156 -4.53117,2.94555 -7.38048,3.08835 -3.39365,0.17007 -6.40006,-1.60369 -8.38265,-4.17236 -1.98259,-2.56867 -3.08911,-5.96826 -2.99252,-9.56448 0.0433,-1.6131 0.34789,-3.16426 0.85044,-4.60756 -3.02035,-1.20526 -6.24778,-2.00371 -9.6583,-2.30578 -0.68717,-0.0609 -1.37131,-0.0984 -2.05225,-0.11179 z m -21.48065,7.84363 c -1.73742,1.42678 -3.3623,3.0101 -4.84513,4.73134 -3.46173,4.01829 -6.25106,8.79229 -8.20897,14.09818 2.45807,0.72765 4.63482,2.27609 6.28649,4.33206 2.33957,2.91225 3.73847,6.83102 3.78907,11.13161 0.0955,8.11775 -4.67466,14.79021 -11.61074,16.0546 1.88503,7.24076 5.3045,13.61364 9.91784,18.62588 1.01884,1.10696 2.10913,2.1379 3.25204,3.10231 L 71.78138,87.54199 C 66.64405,81.92256 63.99651,73.48578 63.91179,66.94372 64.31877,58.88822 67.35376,49.52846 72.84742,43.64639 Z M 48.12071,52.60199 c -2.24966,0.0259 -4.32106,1.1871 -5.93114,3.28997 -1.61009,2.10287 -2.65886,5.12262 -2.61921,8.49245 0.0397,3.367 1.18171,6.51754 2.84679,8.63818 1.66509,2.12063 3.6694,3.16082 5.79539,2.95658 0.20392,-0.0196 0.40159,-0.0556 0.6009,-0.0878 6.5e-4,-10e-5 10e-4,1.1e-4 0.002,0 0.28888,-0.0469 0.57202,-0.10871 0.85044,-0.18167 0.0166,-0.004 0.0334,-0.008 0.0499,-0.012 0.25729,-0.069 0.50911,-0.15074 0.75661,-0.24155 0.0414,-0.0152 0.0827,-0.0301 0.12377,-0.0459 0.23661,-0.0909 0.46799,-0.19092 0.69473,-0.30145 0.0367,-0.0179 0.0734,-0.0355 0.1098,-0.0539 0.22455,-0.1134 0.44282,-0.23692 0.6568,-0.36932 0.0403,-0.0248 0.0799,-0.0504 0.11978,-0.0759 0.20408,-0.13091 0.40335,-0.26921 0.5969,-0.41724 0.0477,-0.0365 0.0947,-0.0743 0.14175,-0.1118 0.18597,-0.14827 0.3677,-0.30309 0.543,-0.46714 0.045,-0.042 0.0895,-0.0848 0.13375,-0.12777 0.16974,-0.16534 0.33436,-0.33691 0.49311,-0.51705 0.0449,-0.0508 0.0878,-0.10373 0.13175,-0.15571 0.15412,-0.18256 0.30449,-0.36834 0.44718,-0.56497 0.0448,-0.0615 0.0862,-0.12675 0.12977,-0.18965 0.13047,-0.18865 0.25746,-0.38031 0.37731,-0.58094 0.054,-0.0902 0.10394,-0.18494 0.15571,-0.27749 0.10502,-0.18818 0.20979,-0.3771 0.30544,-0.57495 0.0571,-0.11795 0.10797,-0.242 0.1617,-0.36333 0.0786,-0.17788 0.15853,-0.35402 0.22958,-0.53901 0.0593,-0.15388 0.10981,-0.31441 0.16371,-0.47314 0.0585,-0.17251 0.11969,-0.34293 0.17168,-0.52104 0.0505,-0.17268 0.0915,-0.35318 0.13575,-0.53103 0.0418,-0.16819 0.0877,-0.33236 0.12377,-0.50508 0.0443,-0.21124 0.0762,-0.43091 0.1118,-0.64881 0.0254,-0.15661 0.055,-0.30917 0.0758,-0.46914 0.0263,-0.201 0.043,-0.41065 0.0618,-0.61687 0.0171,-0.18685 0.039,-0.36995 0.0499,-0.56097 2.3e-4,-0.004 0.002,-0.008 0.002,-0.012 0.022,-0.39099 0.0308,-0.78984 0.026,-1.19781 -0.0397,-3.36976 -1.15923,-6.36471 -2.81884,-8.43056 -0.26977,-0.33581 -0.55474,-0.63759 -0.84644,-0.92231 -0.0704,-0.0686 -0.14195,-0.13413 -0.21362,-0.19963 -0.29361,-0.26937 -0.59421,-0.51932 -0.90634,-0.73665 -0.10679,-0.0744 -0.21663,-0.13948 -0.3254,-0.20762 -0.10201,-0.0636 -0.20373,-0.12759 -0.30744,-0.18566 -0.12979,-0.0731 -0.26102,-0.14125 -0.39327,-0.20562 -0.0619,-0.03 -0.12523,-0.0558 -0.18766,-0.0838 -0.33275,-0.15034 -0.6702,-0.27683 -1.01614,-0.37132 -0.58869,-0.1608 -1.1932,-0.24866 -1.81068,-0.24156 z m 61.00028,14.36968 c -1.22812,12.88424 -10.8569,24.64625 -21.72422,26.4815 -4.43112,0.60926 -8.24106,-0.38829 -11.42907,-2.38164 l -8.66213,14.02232 c 6.2447,3.78152 13.63594,5.51243 21.16923,4.24022 3.73709,-0.63111 7.22977,-1.77189 10.45484,-3.3299 -0.81554,-1.7613 -1.30687,-3.73739 -1.36349,-5.81534 -0.0971,-3.56286 1.01694,-6.92899 3.00649,-9.46866 1.98953,-2.53967 4.99498,-4.28365 8.38064,-4.11646 2.83881,0.14018 5.37862,1.25389 7.36851,3.03644 3.87666,-6.66069 6.12638,-14.47219 6.40228,-22.66848 z m -0.3833,24.02 c -1.78293,-0.088 -3.40376,0.778 -4.70539,2.43953 -1.30163,1.66154 -2.14371,4.08778 -2.0742,6.63784 0.009,0.3446 0.0368,0.68142 0.0758,1.01215 0.003,0.0278 0.008,0.0542 0.012,0.0819 0.0384,0.30544 0.0894,0.60413 0.15172,0.89636 0.004,0.0169 0.008,0.0331 0.012,0.0499 0.0662,0.30344 0.14525,0.59859 0.23557,0.88638 0.002,0.005 0.004,0.0105 0.006,0.016 0.0942,0.29856 0.20112,0.58616 0.31942,0.8664 1.27084,3.01057 3.86671,4.92979 6.61588,4.85113 3.78333,-0.10829 7.08647,-3.97083 6.94728,-9.07738 -0.0733,-2.68787 -0.95641,-4.85662 -2.39163,-6.35636 -0.16582,-0.17327 -0.33872,-0.33812 -0.51905,-0.49309 -0.18042,-0.15507 -0.36679,-0.30096 -0.56097,-0.4372 -0.19169,-0.1345 -0.38855,-0.26165 -0.59292,-0.37731 -0.003,-0.001 -0.005,-0.003 -0.008,-0.004 -0.013,-0.007 -0.027,-0.0127 -0.04,-0.02 -0.18907,-0.1052 -0.38176,-0.20467 -0.58094,-0.29346 -0.0358,-0.0161 -0.0737,-0.0284 -0.10979,-0.0439 -0.18892,-0.0807 -0.37968,-0.15781 -0.57695,-0.22359 -10e-4,-4.6e-4 -0.003,-0.002 -0.004,-0.002 -0.0247,-0.008 -0.051,-0.0139 -0.0758,-0.022 -0.19756,-0.0635 -0.3976,-0.12328 -0.6029,-0.17169 -0.14284,-0.0339 -0.29076,-0.0574 -0.4372,-0.0838 -0.10675,-0.0191 -0.21085,-0.0428 -0.31942,-0.0579 -0.003,-4.6e-4 -0.007,-0.002 -0.0102,-0.002 -0.251,-0.0348 -0.50629,-0.059 -0.76659,-0.0719 z"
       id="path4908"
       inkscape:connector-curvature="0" />
  </g>
</svg>
