<?xml version="1.0" encoding="UTF-8" standalone="no"?>
<!-- Created with Inkscape (http://www.inkscape.org/) -->
<svg
   xmlns:dc="http://purl.org/dc/elements/1.1/"
   xmlns:cc="http://creativecommons.org/ns#"
   xmlns:rdf="http://www.w3.org/1999/02/22-rdf-syntax-ns#"
   xmlns:svg="http://www.w3.org/2000/svg"
   xmlns="http://www.w3.org/2000/svg"
   xmlns:sodipodi="http://sodipodi.sourceforge.net/DTD/sodipodi-0.dtd"
   xmlns:inkscape="http://www.inkscape.org/namespaces/inkscape"
   width="144"
   height="288"
   id="svg2"
   sodipodi:version="0.32"
   inkscape:version="0.46"
   version="1.0"
   sodipodi:docname="process-working.svg"
   inkscape:output_extension="org.inkscape.output.svg.inkscape">
  <defs
     id="defs4">
    <inkscape:perspective
       sodipodi:type="inkscape:persp3d"
       inkscape:vp_x="0 : 144 : 1"
       inkscape:vp_y="0 : 1000 : 0"
       inkscape:vp_z="144 : 144 : 1"
       inkscape:persp3d-origin="72 : 96 : 1"
       id="perspective4101" />
  </defs>
  <sodipodi:namedview
     id="base"
     pagecolor="#ffffff"
     bordercolor="#666666"
     borderopacity="1.0"
     gridtolerance="10000"
     guidetolerance="10"
     objecttolerance="10"
     inkscape:pageopacity="0.0"
     inkscape:pageshadow="2"
     inkscape:zoom="1.0145852"
     inkscape:cx="39.999602"
     inkscape:cy="159.34178"
     inkscape:document-units="px"
     inkscape:current-layer="layer1"
     showgrid="false"
     inkscape:snap-global="false"
     showguides="false"
     inkscape:guide-bbox="true"
     inkscape:window-width="1024"
     inkscape:window-height="714"
     inkscape:window-x="0"
     inkscape:window-y="24">
    <sodipodi:guide
       orientation="0,1"
       position="-8.474866,263.59756"
       id="guide5177" />
    <sodipodi:guide
       orientation="1,0"
       position="23.963414,185.2781"
       id="guide5179" />
    <sodipodi:guide
       orientation="1,0"
       position="71.890243,177.09548"
       id="guide5181" />
    <sodipodi:guide
       orientation="1,0"
       position="119.81707,176.511"
       id="guide5183" />
    <sodipodi:guide
       orientation="0,1"
       position="89.132211,215.08625"
       id="guide5185" />
    <sodipodi:guide
       orientation="0,1"
       position="174.46534,165.69824"
       id="guide5265" />
    <sodipodi:guide
       orientation="0,1"
       position="129.75312,118.64812"
       id="guide5373" />
    <sodipodi:guide
       orientation="0,1"
       position="115.43352,70.136822"
       id="guide5453" />
    <sodipodi:guide
       orientation="0,1"
       position="105.20523,23.378941"
       id="guide5533" />
  </sodipodi:namedview>
  <metadata
     id="metadata7">
    <rdf:RDF>
      <cc:Work
         rdf:about="">
        <dc:format>image/svg+xml</dc:format>
        <dc:type
           rdf:resource="http://purl.org/dc/dcmitype/StillImage" />
      </cc:Work>
    </rdf:RDF>
  </metadata>
  <g
     inkscape:label="Layer 1"
     inkscape:groupmode="layer"
     id="layer1"
     transform="translate(-116.57143,-348.36218)">
    <g
       id="g8873"
       inkscape:transform-center-y="0.031639344"
       transform="matrix(0.9395357,0.3424509,-0.3424509,0.9395357,139.02307,-42.043222)"
       inkscape:transform-center-x="0.011851762">
      <path
         id="path8843"
         d="M 188.57574,356.70261 C 179.74217,356.70261 172.57143,363.87337 172.57143,372.70692 C 172.57143,379.92812 177.36408,386.03186 183.93906,388.02176 L 185.49036,382.88522 C 181.12286,381.56183 177.94067,377.50346 177.94067,372.70692 C 177.94067,366.83833 182.70715,362.08046 188.57574,362.08046 C 194.44431,362.08046 199.20218,366.83833 199.20218,372.70692 C 199.2022,377.50633 196.02193,381.56432 191.65251,382.88522 L 193.2038,388.02176 C 199.78076,386.03439 204.57143,379.93103 204.57143,372.70692 C 204.57143,363.87337 197.40931,356.70261 188.57574,356.70261 z"
         style="fill:#4d4d4d;fill-opacity:1;stroke:none" />
      <path
         id="path8839"
         d="M 188.57574,367.3894 C 185.63856,367.3894 183.24959,369.76975 183.24959,372.70692 C 183.24959,375.64409 185.63856,378.03307 188.57574,378.03307 C 191.51291,378.03307 193.8933,375.64409 193.89328,372.70692 C 193.89328,369.76975 191.51291,367.3894 188.57574,367.3894 z"
         style="fill:#4d4d4d;fill-opacity:1;stroke:none" />
      <path
         style="fill:#4d4d4d;fill-opacity:1;stroke:none"
         d="M 188.57181,372.25027 C 188.31739,372.25027 188.11046,372.45644 188.11046,372.71087 C 188.11046,372.96527 188.31739,373.1722 188.57181,373.1722 C 188.82622,373.1722 189.03241,372.96527 189.03241,372.71087 C 189.03241,372.45644 188.82622,372.25027 188.57181,372.25027 z"
         id="path8845" />
    </g>
    <g
       transform="matrix(1.7281352,0,0,1.7281352,-429.92391,-950.83438)"
       id="g8862"
       style="fill:#b3b3b3">
      <path
         style="fill:#b3b3b3;fill-opacity:1;stroke:none"
         d="M 330.12443,756.6173 C 325.01281,756.6173 320.8634,760.76672 320.8634,765.87833 C 320.8634,770.05694 323.63671,773.58892 327.44138,774.74039 L 328.33905,771.76809 C 325.81176,771.0023 323.97036,768.65389 323.97036,765.87833 C 323.97036,762.48242 326.72852,759.72924 330.12443,759.72924 C 333.52033,759.72924 336.27351,762.48242 336.27351,765.87833 C 336.27352,768.65555 334.43323,771.00374 331.90483,771.76809 L 332.8025,774.74039 C 336.60831,773.59038 339.38047,770.05862 339.38047,765.87833 C 339.38047,760.76672 335.23605,756.6173 330.12443,756.6173 z"
         id="path8864" />
      <path
         style="fill:#b3b3b3;fill-opacity:1;stroke:none"
         d="M 330.12443,762.8013 C 328.42481,762.8013 327.04241,764.17871 327.04241,765.87833 C 327.04241,767.57795 328.42481,768.96035 330.12443,768.96035 C 331.82405,768.96035 333.20148,767.57795 333.20147,765.87833 C 333.20147,764.17871 331.82405,762.8013 330.12443,762.8013 z"
         id="path8866" />
      <path
         id="path8868"
         d="M 330.12236,765.36456 C 329.83742,765.36456 329.60567,765.59547 329.60567,765.88041 C 329.60567,766.16534 329.83742,766.39709 330.12236,766.39709 C 330.40729,766.39709 330.63821,766.16534 330.63821,765.88041 C 330.63821,765.59547 330.40729,765.36456 330.12236,765.36456 z"
         style="fill:#b3b3b3;fill-opacity:1;stroke:none" />
    </g>
    <g
       inkscape:transform-center-x="0.020995909"
       transform="matrix(0.7645698,0.6445409,-0.6445409,0.7645698,332.60845,-33.804189)"
       inkscape:transform-center-y="0.027030514"
       id="g8886">
      <path
         style="fill:#4d4d4d;fill-opacity:1;stroke:none"
         d="M 188.57574,356.70261 C 179.74217,356.70261 172.57143,363.87337 172.57143,372.70692 C 172.57143,379.92812 177.36408,386.03186 183.93906,388.02176 L 185.49036,382.88522 C 181.12286,381.56183 177.94067,377.50346 177.94067,372.70692 C 177.94067,366.83833 182.70715,362.08046 188.57574,362.08046 C 194.44431,362.08046 199.20218,366.83833 199.20218,372.70692 C 199.2022,377.50633 196.02193,381.56432 191.65251,382.88522 L 193.2038,388.02176 C 199.78076,386.03439 204.57143,379.93103 204.57143,372.70692 C 204.57143,363.87337 197.40931,356.70261 188.57574,356.70261 z"
         id="path8888" />
      <path
         style="fill:#4d4d4d;fill-opacity:1;stroke:none"
         d="M 188.57574,367.3894 C 185.63856,367.3894 183.24959,369.76975 183.24959,372.70692 C 183.24959,375.64409 185.63856,378.03307 188.57574,378.03307 C 191.51291,378.03307 193.8933,375.64409 193.89328,372.70692 C 193.89328,369.76975 191.51291,367.3894 188.57574,367.3894 z"
         id="path8890" />
      <path
         id="path8892"
         d="M 188.57181,372.25027 C 188.31739,372.25027 188.11046,372.45644 188.11046,372.71087 C 188.11046,372.96527 188.31739,373.1722 188.57181,373.1722 C 188.82622,373.1722 189.03241,372.96527 189.03241,372.71087 C 189.03241,372.45644 188.82622,372.25027 188.57181,372.25027 z"
         style="fill:#4d4d4d;fill-opacity:1;stroke:none" />
    </g>
    <g
       inkscape:transform-center-x="-0.029247418"
       transform="matrix(0.1684337,0.985713,-0.985713,0.1684337,524.1555,171.68302)"
       inkscape:transform-center-y="0.0062754752"
       id="g8904">
      <path
         style="fill:#4d4d4d;fill-opacity:1;stroke:none"
         d="M 188.57574,356.70261 C 179.74217,356.70261 172.57143,363.87337 172.57143,372.70692 C 172.57143,379.92812 177.36408,386.03186 183.93906,388.02176 L 185.49036,382.88522 C 181.12286,381.56183 177.94067,377.50346 177.94067,372.70692 C 177.94067,366.83833 182.70715,362.08046 188.57574,362.08046 C 194.44431,362.08046 199.20218,366.83833 199.20218,372.70692 C 199.2022,377.50633 196.02193,381.56432 191.65251,382.88522 L 193.2038,388.02176 C 199.78076,386.03439 204.57143,379.93103 204.57143,372.70692 C 204.57143,363.87337 197.40931,356.70261 188.57574,356.70261 z"
         id="path8906" />
      <path
         style="fill:#4d4d4d;fill-opacity:1;stroke:none"
         d="M 188.57574,367.3894 C 185.63856,367.3894 183.24959,369.76975 183.24959,372.70692 C 183.24959,375.64409 185.63856,378.03307 188.57574,378.03307 C 191.51291,378.03307 193.8933,375.64409 193.89328,372.70692 C 193.89328,369.76975 191.51291,367.3894 188.57574,367.3894 z"
         id="path8908" />
      <path
         id="path8910"
         d="M 188.57181,372.25027 C 188.31739,372.25027 188.11046,372.45644 188.11046,372.71087 C 188.11046,372.96527 188.31739,373.1722 188.57181,373.1722 C 188.82622,373.1722 189.03241,372.96527 189.03241,372.71087 C 189.03241,372.45644 188.82622,372.25027 188.57181,372.25027 z"
         style="fill:#4d4d4d;fill-opacity:1;stroke:none" />
    </g>
    <g
       style="fill:#4d4d4d;fill-opacity:1"
       id="g8912"
       transform="matrix(0.8614738,1.4981035,-1.4981035,0.8614738,1003.2462,-734.14659)">
      <path
         id="path8914"
         d="M 330.12443,756.6173 C 325.01281,756.6173 320.8634,760.76672 320.8634,765.87833 C 320.8634,770.05694 323.63671,773.58892 327.44138,774.74039 L 328.33905,771.76809 C 325.81176,771.0023 323.97036,768.65389 323.97036,765.87833 C 323.97036,762.48242 326.72852,759.72924 330.12443,759.72924 C 333.52033,759.72924 336.27351,762.48242 336.27351,765.87833 C 336.27352,768.65555 334.43323,771.00374 331.90483,771.76809 L 332.8025,774.74039 C 336.60831,773.59038 339.38047,770.05862 339.38047,765.87833 C 339.38047,760.76672 335.23605,756.6173 330.12443,756.6173 z"
         style="fill:#4d4d4d;fill-opacity:1;stroke:none" />
      <path
         id="path8916"
         d="M 330.12443,762.8013 C 328.42481,762.8013 327.04241,764.17871 327.04241,765.87833 C 327.04241,767.57795 328.42481,768.96035 330.12443,768.96035 C 331.82405,768.96035 333.20148,767.57795 333.20147,765.87833 C 333.20147,764.17871 331.82405,762.8013 330.12443,762.8013 z"
         style="fill:#4d4d4d;fill-opacity:1;stroke:none" />
      <path
         style="fill:#4d4d4d;fill-opacity:1;stroke:none"
         d="M 330.12236,765.36456 C 329.83742,765.36456 329.60567,765.59547 329.60567,765.88041 C 329.60567,766.16534 329.83742,766.39709 330.12236,766.39709 C 330.40729,766.39709 330.63821,766.16534 330.63821,765.88041 C 330.63821,765.59547 330.40729,765.36456 330.12236,765.36456 z"
         id="path8918" />
    </g>
    <g
       id="g8920"
       inkscape:transform-center-y="-0.006272428"
       transform="matrix(-0.1758052,0.9844249,-0.9844249,-0.1758052,636.60097,300.21349)"
       inkscape:transform-center-x="-0.021453939">
      <path
         id="path8922"
         d="M 188.57574,356.70261 C 179.74217,356.70261 172.57143,363.87337 172.57143,372.70692 C 172.57143,379.92812 177.36408,386.03186 183.93906,388.02176 L 185.49036,382.88522 C 181.12286,381.56183 177.94067,377.50346 177.94067,372.70692 C 177.94067,366.83833 182.70715,362.08046 188.57574,362.08046 C 194.44431,362.08046 199.20218,366.83833 199.20218,372.70692 C 199.2022,377.50633 196.02193,381.56432 191.65251,382.88522 L 193.2038,388.02176 C 199.78076,386.03439 204.57143,379.93103 204.57143,372.70692 C 204.57143,363.87337 197.40931,356.70261 188.57574,356.70261 z"
         style="fill:#4d4d4d;fill-opacity:1;stroke:none" />
      <path
         id="path8924"
         d="M 188.57574,367.3894 C 185.63856,367.3894 183.24959,369.76975 183.24959,372.70692 C 183.24959,375.64409 185.63856,378.03307 188.57574,378.03307 C 191.51291,378.03307 193.8933,375.64409 193.89328,372.70692 C 193.89328,369.76975 191.51291,367.3894 188.57574,367.3894 z"
         style="fill:#4d4d4d;fill-opacity:1;stroke:none" />
      <path
         style="fill:#4d4d4d;fill-opacity:1;stroke:none"
         d="M 188.57181,372.25027 C 188.31739,372.25027 188.11046,372.45644 188.11046,372.71087 C 188.11046,372.96527 188.31739,373.1722 188.57181,373.1722 C 188.82622,373.1722 189.03241,372.96527 189.03241,372.71087 C 189.03241,372.45644 188.82622,372.25027 188.57181,372.25027 z"
         id="path8926" />
    </g>
    <g
       id="g8954"
       inkscape:transform-center-y="-0.024598967"
       transform="matrix(-0.7697747,0.6383157,-0.6383157,-0.7697747,571.61017,634.85991)"
       inkscape:transform-center-x="0.023142701">
      <path
         id="path8956"
         d="M 188.57574,356.70261 C 179.74217,356.70261 172.57143,363.87337 172.57143,372.70692 C 172.57143,379.92812 177.36408,386.03186 183.93906,388.02176 L 185.49036,382.88522 C 181.12286,381.56183 177.94067,377.50346 177.94067,372.70692 C 177.94067,366.83833 182.70715,362.08046 188.57574,362.08046 C 194.44431,362.08046 199.20218,366.83833 199.20218,372.70692 C 199.2022,377.50633 196.02193,381.56432 191.65251,382.88522 L 193.2038,388.02176 C 199.78076,386.03439 204.57143,379.93103 204.57143,372.70692 C 204.57143,363.87337 197.40931,356.70261 188.57574,356.70261 z"
         style="fill:#4d4d4d;fill-opacity:1;stroke:none" />
      <path
         id="path8958"
         d="M 188.57574,367.3894 C 185.63856,367.3894 183.24959,369.76975 183.24959,372.70692 C 183.24959,375.64409 185.63856,378.03307 188.57574,378.03307 C 191.51291,378.03307 193.8933,375.64409 193.89328,372.70692 C 193.89328,369.76975 191.51291,367.3894 188.57574,367.3894 z"
         style="fill:#4d4d4d;fill-opacity:1;stroke:none" />
      <path
         style="fill:#4d4d4d;fill-opacity:1;stroke:none"
         d="M 188.57181,372.25027 C 188.31739,372.25027 188.11046,372.45644 188.11046,372.71087 C 188.11046,372.96527 188.31739,373.1722 188.57181,373.1722 C 188.82622,373.1722 189.03241,372.96527 189.03241,372.71087 C 189.03241,372.45644 188.82622,372.25027 188.57181,372.25027 z"
         id="path8960" />
    </g>
    <g
       transform="matrix(-0.8676068,1.49456,-1.49456,-0.8676068,1571.342,639.4527)"
       id="g8962"
       style="fill:#4d4d4d;fill-opacity:1">
      <path
         style="fill:#4d4d4d;fill-opacity:1;stroke:none"
         d="M 330.12443,756.6173 C 325.01281,756.6173 320.8634,760.76672 320.8634,765.87833 C 320.8634,770.05694 323.63671,773.58892 327.44138,774.74039 L 328.33905,771.76809 C 325.81176,771.0023 323.97036,768.65389 323.97036,765.87833 C 323.97036,762.48242 326.72852,759.72924 330.12443,759.72924 C 333.52033,759.72924 336.27351,762.48242 336.27351,765.87833 C 336.27352,768.65555 334.43323,771.00374 331.90483,771.76809 L 332.8025,774.74039 C 336.60831,773.59038 339.38047,770.05862 339.38047,765.87833 C 339.38047,760.76672 335.23605,756.6173 330.12443,756.6173 z"
         id="path8964" />
      <path
         style="fill:#4d4d4d;fill-opacity:1;stroke:none"
         d="M 330.12443,762.8013 C 328.42481,762.8013 327.04241,764.17871 327.04241,765.87833 C 327.04241,767.57795 328.42481,768.96035 330.12443,768.96035 C 331.82405,768.96035 333.20148,767.57795 333.20147,765.87833 C 333.20147,764.17871 331.82405,762.8013 330.12443,762.8013 z"
         id="path8966" />
      <path
         id="path8968"
         d="M 330.12236,765.36456 C 329.83742,765.36456 329.60567,765.59547 329.60567,765.88041 C 329.60567,766.16534 329.83742,766.39709 330.12236,766.39709 C 330.40729,766.39709 330.63821,766.16534 330.63821,765.88041 C 330.63821,765.59547 330.40729,765.36456 330.12236,765.36456 z"
         style="fill:#4d4d4d;fill-opacity:1;stroke:none" />
    </g>
    <g
       inkscape:transform-center-x="0.012616287"
       transform="matrix(-0.9408191,0.3389089,-0.3389089,-0.9408191,540.29614,755.0752)"
       inkscape:transform-center-y="-0.030167625"
       id="g8970">
      <path
         style="fill:#4d4d4d;fill-opacity:1;stroke:none"
         d="M 188.57574,356.70261 C 179.74217,356.70261 172.57143,363.87337 172.57143,372.70692 C 172.57143,379.92812 177.36408,386.03186 183.93906,388.02176 L 185.49036,382.88522 C 181.12286,381.56183 177.94067,377.50346 177.94067,372.70692 C 177.94067,366.83833 182.70715,362.08046 188.57574,362.08046 C 194.44431,362.08046 199.20218,366.83833 199.20218,372.70692 C 199.2022,377.50633 196.02193,381.56432 191.65251,382.88522 L 193.2038,388.02176 C 199.78076,386.03439 204.57143,379.93103 204.57143,372.70692 C 204.57143,363.87337 197.40931,356.70261 188.57574,356.70261 z"
         id="path8972" />
      <path
         style="fill:#4d4d4d;fill-opacity:1;stroke:none"
         d="M 188.57574,367.3894 C 185.63856,367.3894 183.24959,369.76975 183.24959,372.70692 C 183.24959,375.64409 185.63856,378.03307 188.57574,378.03307 C 191.51291,378.03307 193.8933,375.64409 193.89328,372.70692 C 193.89328,369.76975 191.51291,367.3894 188.57574,367.3894 z"
         id="path8974" />
      <path
         id="path8976"
         d="M 188.57181,372.25027 C 188.31739,372.25027 188.11046,372.45644 188.11046,372.71087 C 188.11046,372.96527 188.31739,373.1722 188.57181,373.1722 C 188.82622,373.1722 189.03241,372.96527 189.03241,372.71087 C 189.03241,372.45644 188.82622,372.25027 188.57181,372.25027 z"
         style="fill:#4d4d4d;fill-opacity:1;stroke:none" />
    </g>
    <g
       inkscape:transform-center-x="-0.011911153"
       transform="matrix(-0.9383586,-0.3456632,0.3456632,-0.9383586,236.70065,931.25165)"
       inkscape:transform-center-y="-0.031597725"
       id="g8978">
      <path
         style="fill:#4d4d4d;fill-opacity:1;stroke:none"
         d="M 188.57574,356.70261 C 179.74217,356.70261 172.57143,363.87337 172.57143,372.70692 C 172.57143,379.92812 177.36408,386.03186 183.93906,388.02176 L 185.49036,382.88522 C 181.12286,381.56183 177.94067,377.50346 177.94067,372.70692 C 177.94067,366.83833 182.70715,362.08046 188.57574,362.08046 C 194.44431,362.08046 199.20218,366.83833 199.20218,372.70692 C 199.2022,377.50633 196.02193,381.56432 191.65251,382.88522 L 193.2038,388.02176 C 199.78076,386.03439 204.57143,379.93103 204.57143,372.70692 C 204.57143,363.87337 197.40931,356.70261 188.57574,356.70261 z"
         id="path8980" />
      <path
         style="fill:#4d4d4d;fill-opacity:1;stroke:none"
         d="M 188.57574,367.3894 C 185.63856,367.3894 183.24959,369.76975 183.24959,372.70692 C 183.24959,375.64409 185.63856,378.03307 188.57574,378.03307 C 191.51291,378.03307 193.8933,375.64409 193.89328,372.70692 C 193.89328,369.76975 191.51291,367.3894 188.57574,367.3894 z"
         id="path8982" />
      <path
         id="path8984"
         d="M 188.57181,372.25027 C 188.31739,372.25027 188.11046,372.45644 188.11046,372.71087 C 188.11046,372.96527 188.31739,373.1722 188.57181,373.1722 C 188.82622,373.1722 189.03241,372.96527 189.03241,372.71087 C 189.03241,372.45644 188.82622,372.25027 188.57181,372.25027 z"
         style="fill:#4d4d4d;fill-opacity:1;stroke:none" />
    </g>
    <g
       style="fill:#4d4d4d;fill-opacity:1"
       id="g8986"
       transform="matrix(-1.728115,-8.3392034e-3,8.3392034e-3,-1.728115,704.37911,1842.6517)">
      <path
         id="path8988"
         d="M 330.12443,756.6173 C 325.01281,756.6173 320.8634,760.76672 320.8634,765.87833 C 320.8634,770.05694 323.63671,773.58892 327.44138,774.74039 L 328.33905,771.76809 C 325.81176,771.0023 323.97036,768.65389 323.97036,765.87833 C 323.97036,762.48242 326.72852,759.72924 330.12443,759.72924 C 333.52033,759.72924 336.27351,762.48242 336.27351,765.87833 C 336.27352,768.65555 334.43323,771.00374 331.90483,771.76809 L 332.8025,774.74039 C 336.60831,773.59038 339.38047,770.05862 339.38047,765.87833 C 339.38047,760.76672 335.23605,756.6173 330.12443,756.6173 z"
         style="fill:#4d4d4d;fill-opacity:1;stroke:none" />
      <path
         id="path8990"
         d="M 330.12443,762.8013 C 328.42481,762.8013 327.04241,764.17871 327.04241,765.87833 C 327.04241,767.57795 328.42481,768.96035 330.12443,768.96035 C 331.82405,768.96035 333.20148,767.57795 333.20147,765.87833 C 333.20147,764.17871 331.82405,762.8013 330.12443,762.8013 z"
         style="fill:#4d4d4d;fill-opacity:1;stroke:none" />
      <path
         style="fill:#4d4d4d;fill-opacity:1;stroke:none"
         d="M 330.12236,765.36456 C 329.83742,765.36456 329.60567,765.59547 329.60567,765.88041 C 329.60567,766.16534 329.83742,766.39709 330.12236,766.39709 C 330.40729,766.39709 330.63821,766.16534 330.63821,765.88041 C 330.63821,765.59547 330.40729,765.36456 330.12236,765.36456 z"
         id="path8992" />
    </g>
    <g
       id="g8994"
       inkscape:transform-center-y="-0.026975855"
       transform="matrix(-0.7638061,-0.6454456,0.6454456,-0.7638061,140.07691,922.7441)"
       inkscape:transform-center-x="-0.020988766">
      <path
         id="path8996"
         d="M 188.57574,356.70261 C 179.74217,356.70261 172.57143,363.87337 172.57143,372.70692 C 172.57143,379.92812 177.36408,386.03186 183.93906,388.02176 L 185.49036,382.88522 C 181.12286,381.56183 177.94067,377.50346 177.94067,372.70692 C 177.94067,366.83833 182.70715,362.08046 188.57574,362.08046 C 194.44431,362.08046 199.20218,366.83833 199.20218,372.70692 C 199.2022,377.50633 196.02193,381.56432 191.65251,382.88522 L 193.2038,388.02176 C 199.78076,386.03439 204.57143,379.93103 204.57143,372.70692 C 204.57143,363.87337 197.40931,356.70261 188.57574,356.70261 z"
         style="fill:#4d4d4d;fill-opacity:1;stroke:none" />
      <path
         id="path8998"
         d="M 188.57574,367.3894 C 185.63856,367.3894 183.24959,369.76975 183.24959,372.70692 C 183.24959,375.64409 185.63856,378.03307 188.57574,378.03307 C 191.51291,378.03307 193.8933,375.64409 193.89328,372.70692 C 193.89328,369.76975 191.51291,367.3894 188.57574,367.3894 z"
         style="fill:#4d4d4d;fill-opacity:1;stroke:none" />
      <path
         style="fill:#4d4d4d;fill-opacity:1;stroke:none"
         d="M 188.57181,372.25027 C 188.31739,372.25027 188.11046,372.45644 188.11046,372.71087 C 188.11046,372.96527 188.31739,373.1722 188.57181,373.1722 C 188.82622,373.1722 189.03241,372.96527 189.03241,372.71087 C 189.03241,372.45644 188.82622,372.25027 188.57181,372.25027 z"
         id="path9000" />
    </g>
    <g
       id="g9042"
       inkscape:transform-center-y="-0.0063502954"
       transform="matrix(-0.1696828,-0.9854987,0.9854987,-0.1696828,-146.69727,813.44904)"
       inkscape:transform-center-x="0.02805223">
      <path
         id="path9044"
         d="M 188.57574,356.70261 C 179.74217,356.70261 172.57143,363.87337 172.57143,372.70692 C 172.57143,379.92812 177.36408,386.03186 183.93906,388.02176 L 185.49036,382.88522 C 181.12286,381.56183 177.94067,377.50346 177.94067,372.70692 C 177.94067,366.83833 182.70715,362.08046 188.57574,362.08046 C 194.44431,362.08046 199.20218,366.83833 199.20218,372.70692 C 199.2022,377.50633 196.02193,381.56432 191.65251,382.88522 L 193.2038,388.02176 C 199.78076,386.03439 204.57143,379.93103 204.57143,372.70692 C 204.57143,363.87337 197.40931,356.70261 188.57574,356.70261 z"
         style="fill:#4d4d4d;fill-opacity:1;stroke:none" />
      <path
         id="path9046"
         d="M 188.57574,367.3894 C 185.63856,367.3894 183.24959,369.76975 183.24959,372.70692 C 183.24959,375.64409 185.63856,378.03307 188.57574,378.03307 C 191.51291,378.03307 193.8933,375.64409 193.89328,372.70692 C 193.89328,369.76975 191.51291,367.3894 188.57574,367.3894 z"
         style="fill:#4d4d4d;fill-opacity:1;stroke:none" />
      <path
         style="fill:#4d4d4d;fill-opacity:1;stroke:none"
         d="M 188.57181,372.25027 C 188.31739,372.25027 188.11046,372.45644 188.11046,372.71087 C 188.11046,372.96527 188.31739,373.1722 188.57181,373.1722 C 188.82622,373.1722 189.03241,372.96527 189.03241,372.71087 C 189.03241,372.45644 188.82622,372.25027 188.57181,372.25027 z"
         id="path9048" />
    </g>
    <g
       transform="matrix(-0.8568743,-1.500739,1.500739,-0.8568743,-725.94427,1716.2333)"
       id="g9050"
       style="fill:#4d4d4d;fill-opacity:1">
      <path
         style="fill:#4d4d4d;fill-opacity:1;stroke:none"
         d="M 330.12443,756.6173 C 325.01281,756.6173 320.8634,760.76672 320.8634,765.87833 C 320.8634,770.05694 323.63671,773.58892 327.44138,774.74039 L 328.33905,771.76809 C 325.81176,771.0023 323.97036,768.65389 323.97036,765.87833 C 323.97036,762.48242 326.72852,759.72924 330.12443,759.72924 C 333.52033,759.72924 336.27351,762.48242 336.27351,765.87833 C 336.27352,768.65555 334.43323,771.00374 331.90483,771.76809 L 332.8025,774.74039 C 336.60831,773.59038 339.38047,770.05862 339.38047,765.87833 C 339.38047,760.76672 335.23605,756.6173 330.12443,756.6173 z"
         id="path9052" />
      <path
         style="fill:#4d4d4d;fill-opacity:1;stroke:none"
         d="M 330.12443,762.8013 C 328.42481,762.8013 327.04241,764.17871 327.04241,765.87833 C 327.04241,767.57795 328.42481,768.96035 330.12443,768.96035 C 331.82405,768.96035 333.20148,767.57795 333.20147,765.87833 C 333.20147,764.17871 331.82405,762.8013 330.12443,762.8013 z"
         id="path9054" />
      <path
         id="path9056"
         d="M 330.12236,765.36456 C 329.83742,765.36456 329.60567,765.59547 329.60567,765.88041 C 329.60567,766.16534 329.83742,766.39709 330.12236,766.39709 C 330.40729,766.39709 330.63821,766.16534 330.63821,765.88041 C 330.63821,765.59547 330.40729,765.36456 330.12236,765.36456 z"
         style="fill:#4d4d4d;fill-opacity:1;stroke:none" />
    </g>
    <g
       inkscape:transform-center-x="0.020225543"
       transform="matrix(0.1771311,-0.9841872,0.9841872,0.1771311,-163.59586,683.96709)"
       inkscape:transform-center-y="0.0062977525"
       id="g9058">
      <path
         style="fill:#4d4d4d;fill-opacity:1;stroke:none"
         d="M 188.57574,356.70261 C 179.74217,356.70261 172.57143,363.87337 172.57143,372.70692 C 172.57143,379.92812 177.36408,386.03186 183.93906,388.02176 L 185.49036,382.88522 C 181.12286,381.56183 177.94067,377.50346 177.94067,372.70692 C 177.94067,366.83833 182.70715,362.08046 188.57574,362.08046 C 194.44431,362.08046 199.20218,366.83833 199.20218,372.70692 C 199.2022,377.50633 196.02193,381.56432 191.65251,382.88522 L 193.2038,388.02176 C 199.78076,386.03439 204.57143,379.93103 204.57143,372.70692 C 204.57143,363.87337 197.40931,356.70261 188.57574,356.70261 z"
         id="path9060" />
      <path
         style="fill:#4d4d4d;fill-opacity:1;stroke:none"
         d="M 188.57574,367.3894 C 185.63856,367.3894 183.24959,369.76975 183.24959,372.70692 C 183.24959,375.64409 185.63856,378.03307 188.57574,378.03307 C 191.51291,378.03307 193.8933,375.64409 193.89328,372.70692 C 193.89328,369.76975 191.51291,367.3894 188.57574,367.3894 z"
         id="path9062" />
      <path
         id="path9064"
         d="M 188.57181,372.25027 C 188.31739,372.25027 188.11046,372.45644 188.11046,372.71087 C 188.11046,372.96527 188.31739,373.1722 188.57181,373.1722 C 188.82622,373.1722 189.03241,372.96527 189.03241,372.71087 C 189.03241,372.45644 188.82622,372.25027 188.57181,372.25027 z"
         style="fill:#4d4d4d;fill-opacity:1;stroke:none" />
    </g>
    <g
       inkscape:transform-center-x="-0.023192544"
       transform="matrix(0.7687629,-0.6395339,0.6395339,0.7687629,-194.73049,446.38448)"
       inkscape:transform-center-y="0.024557409"
       id="g9092">
      <path
         style="fill:#4d4d4d;fill-opacity:1;stroke:none"
         d="M 188.57574,356.70261 C 179.74217,356.70261 172.57143,363.87337 172.57143,372.70692 C 172.57143,379.92812 177.36408,386.03186 183.93906,388.02176 L 185.49036,382.88522 C 181.12286,381.56183 177.94067,377.50346 177.94067,372.70692 C 177.94067,366.83833 182.70715,362.08046 188.57574,362.08046 C 194.44431,362.08046 199.20218,366.83833 199.20218,372.70692 C 199.2022,377.50633 196.02193,381.56432 191.65251,382.88522 L 193.2038,388.02176 C 199.78076,386.03439 204.57143,379.93103 204.57143,372.70692 C 204.57143,363.87337 197.40931,356.70261 188.57574,356.70261 z"
         id="path9094" />
      <path
         style="fill:#4d4d4d;fill-opacity:1;stroke:none"
         d="M 188.57574,367.3894 C 185.63856,367.3894 183.24959,369.76975 183.24959,372.70692 C 183.24959,375.64409 185.63856,378.03307 188.57574,378.03307 C 191.51291,378.03307 193.8933,375.64409 193.89328,372.70692 C 193.89328,369.76975 191.51291,367.3894 188.57574,367.3894 z"
         id="path9096" />
      <path
         id="path9098"
         d="M 188.57181,372.25027 C 188.31739,372.25027 188.11046,372.45644 188.11046,372.71087 C 188.11046,372.96527 188.31739,373.1722 188.57181,373.1722 C 188.82622,373.1722 189.03241,372.96527 189.03241,372.71087 C 189.03241,372.45644 188.82622,372.25027 188.57181,372.25027 z"
         style="fill:#4d4d4d;fill-opacity:1;stroke:none" />
    </g>
    <g
       style="fill:#4d4d4d;fill-opacity:1"
       id="g9100"
       transform="matrix(0.8668451,-1.4950019,1.4950019,0.8668451,-1290.5901,442.08893)">
      <path
         id="path9102"
         d="M 330.12443,756.6173 C 325.01281,756.6173 320.8634,760.76672 320.8634,765.87833 C 320.8634,770.05694 323.63671,773.58892 327.44138,774.74039 L 328.33905,771.76809 C 325.81176,771.0023 323.97036,768.65389 323.97036,765.87833 C 323.97036,762.48242 326.72852,759.72924 330.12443,759.72924 C 333.52033,759.72924 336.27351,762.48242 336.27351,765.87833 C 336.27352,768.65555 334.43323,771.00374 331.90483,771.76809 L 332.8025,774.74039 C 336.60831,773.59038 339.38047,770.05862 339.38047,765.87833 C 339.38047,760.76672 335.23605,756.6173 330.12443,756.6173 z"
         style="fill:#4d4d4d;fill-opacity:1;stroke:none" />
      <path
         id="path9104"
         d="M 330.12443,762.8013 C 328.42481,762.8013 327.04241,764.17871 327.04241,765.87833 C 327.04241,767.57795 328.42481,768.96035 330.12443,768.96035 C 331.82405,768.96035 333.20148,767.57795 333.20147,765.87833 C 333.20147,764.17871 331.82405,762.8013 330.12443,762.8013 z"
         style="fill:#4d4d4d;fill-opacity:1;stroke:none" />
      <path
         style="fill:#4d4d4d;fill-opacity:1;stroke:none"
         d="M 330.12236,765.36456 C 329.83742,765.36456 329.60567,765.59547 329.60567,765.88041 C 329.60567,766.16534 329.83742,766.39709 330.12236,766.39709 C 330.40729,766.39709 330.63821,766.16534 330.63821,765.88041 C 330.63821,765.59547 330.40729,765.36456 330.12236,765.36456 z"
         id="path9106" />
    </g>
    <g
       id="g9108"
       inkscape:transform-center-y="-0.29455815"
       transform="matrix(0.9999827,-5.8811974e-3,5.8811974e-3,0.9999827,45.823377,240.73952)"
       inkscape:transform-center-x="-0.00022783225">
      <path
         id="path9110"
         d="M 188.57574,356.70261 C 179.74217,356.70261 172.57143,363.87337 172.57143,372.70692 C 172.57143,379.92812 177.36408,386.03186 183.93906,388.02176 L 185.49036,382.88522 C 181.12286,381.56183 177.94067,377.50346 177.94067,372.70692 C 177.94067,366.83833 182.70715,362.08046 188.57574,362.08046 C 194.44431,362.08046 199.20218,366.83833 199.20218,372.70692 C 199.2022,377.50633 196.02193,381.56432 191.65251,382.88522 L 193.2038,388.02176 C 199.78076,386.03439 204.57143,379.93103 204.57143,372.70692 C 204.57143,363.87337 197.40931,356.70261 188.57574,356.70261 z"
         style="fill:#4d4d4d;fill-opacity:1;stroke:none" />
      <path
         id="path9112"
         d="M 188.57574,367.3894 C 185.63856,367.3894 183.24959,369.76975 183.24959,372.70692 C 183.24959,375.64409 185.63856,378.03307 188.57574,378.03307 C 191.51291,378.03307 193.8933,375.64409 193.89328,372.70692 C 193.89328,369.76975 191.51291,367.3894 188.57574,367.3894 z"
         style="fill:#4d4d4d;fill-opacity:1;stroke:none" />
      <path
         style="fill:#4d4d4d;fill-opacity:1;stroke:none"
         d="M 188.57181,372.25027 C 188.31739,372.25027 188.11046,372.45644 188.11046,372.71087 C 188.11046,372.96527 188.31739,373.1722 188.57181,373.1722 C 188.82622,373.1722 189.03241,372.96527 189.03241,372.71087 C 189.03241,372.45644 188.82622,372.25027 188.57181,372.25027 z"
         id="path9114" />
    </g>
  </g>
</svg>
