<?xml version="1.0" encoding="UTF-8" standalone="no"?>
<!-- Created with Inkscape (http://www.inkscape.org/) -->

<svg
   xmlns:dc="http://purl.org/dc/elements/1.1/"
   xmlns:cc="http://creativecommons.org/ns#"
   xmlns:rdf="http://www.w3.org/1999/02/22-rdf-syntax-ns#"
   xmlns:svg="http://www.w3.org/2000/svg"
   xmlns="http://www.w3.org/2000/svg"
   xmlns:xlink="http://www.w3.org/1999/xlink"
   xmlns:sodipodi="http://sodipodi.sourceforge.net/DTD/sodipodi-0.dtd"
   xmlns:inkscape="http://www.inkscape.org/namespaces/inkscape"
   width="128"
   height="128"
   id="svg33790"
   version="1.1"
   inkscape:version="0.48.3.1 r9886"
   sodipodi:docname="Documento nuevo 8">
  <defs
     id="defs33792">
    <linearGradient
       inkscape:collect="always"
       xlink:href="#linearGradient8702"
       id="linearGradient46054"
       gradientUnits="userSpaceOnUse"
       x1="515.83441"
       y1="952.92529"
       x2="519.11151"
       y2="956.98944" />
    <linearGradient
       id="linearGradient8702">
      <stop
         id="stop8704"
         offset="0"
         style="stop-color:#aac736;stop-opacity:1;" />
      <stop
         id="stop8706"
         offset="1"
         style="stop-color:#5d8b2c;stop-opacity:1;" />
    </linearGradient>
    <linearGradient
       inkscape:collect="always"
       xlink:href="#linearGradient12578"
       id="linearGradient46052"
       gradientUnits="userSpaceOnUse"
       x1="515.83441"
       y1="952.92529"
       x2="519.23651"
       y2="958.1402" />
    <linearGradient
       id="linearGradient12578">
      <stop
         style="stop-color:#e9b551;stop-opacity:1;"
         offset="0"
         id="stop12580" />
      <stop
         style="stop-color:#b48739;stop-opacity:1;"
         offset="1"
         id="stop12582" />
    </linearGradient>
    <linearGradient
       inkscape:collect="always"
       xlink:href="#linearGradient5316"
       id="linearGradient46050"
       gradientUnits="userSpaceOnUse"
       x1="515.83441"
       y1="952.92529"
       x2="518.11151"
       y2="956.11444" />
    <linearGradient
       id="linearGradient5316">
      <stop
         style="stop-color:#87c7ff;stop-opacity:1;"
         offset="0"
         id="stop5320" />
      <stop
         style="stop-color:#74aadb;stop-opacity:1;"
         offset="1"
         id="stop5322" />
    </linearGradient>
    <linearGradient
       inkscape:collect="always"
       xlink:href="#linearGradient12336"
       id="linearGradient46048"
       gradientUnits="userSpaceOnUse"
       x1="515.83441"
       y1="952.92529"
       x2="519.23651"
       y2="957.36444" />
    <linearGradient
       id="linearGradient12336">
      <stop
         id="stop12338"
         offset="0"
         style="stop-color:#ff6e00;stop-opacity:1;" />
      <stop
         id="stop12340"
         offset="1"
         style="stop-color:#eb2600;stop-opacity:1;" />
    </linearGradient>
    <linearGradient
       inkscape:collect="always"
       xlink:href="#linearGradient9863"
       id="linearGradient48792"
       gradientUnits="userSpaceOnUse"
       gradientTransform="matrix(2.6649953,0.09565357,-0.04656572,2.6666657,-444.88533,106.38141)"
       x1="207.43929"
       y1="335.66388"
       x2="207.43929"
       y2="291.18256" />
    <linearGradient
       id="linearGradient9863">
      <stop
         style="stop-color:#2f445a;stop-opacity:1;"
         offset="0"
         id="stop9865" />
      <stop
         style="stop-color:#415f7c;stop-opacity:1"
         offset="1"
         id="stop9867" />
    </linearGradient>
    <linearGradient
       inkscape:collect="always"
       xlink:href="#linearGradient7210"
       id="linearGradient48795"
       gradientUnits="userSpaceOnUse"
       gradientTransform="matrix(1.6818613,-0.05557691,-0.02938311,1.6826743,-741.01744,-609.48776)"
       x1="486.74878"
       y1="944.19513"
       x2="528.94489"
       y2="947.32013" />
    <linearGradient
       id="linearGradient7210">
      <stop
         id="stop7212"
         offset="0"
         style="stop-color:#75aadb;stop-opacity:1" />
      <stop
         id="stop8994"
         offset="0.5"
         style="stop-color:#87c7ff;stop-opacity:1;" />
      <stop
         id="stop7214"
         offset="1"
         style="stop-color:#74aadb;stop-opacity:1;" />
    </linearGradient>
    <linearGradient
       inkscape:collect="always"
       xlink:href="#linearGradient5439"
       id="linearGradient48798"
       gradientUnits="userSpaceOnUse"
       gradientTransform="matrix(1.6818613,-0.05557691,-0.02938311,1.6826743,-741.01744,-609.48776)"
       x1="499.90704"
       y1="953.39532"
       x2="652.75177"
       y2="1116.9413" />
    <linearGradient
       id="linearGradient5439">
      <stop
         style="stop-color:#ffffff;stop-opacity:1;"
         offset="0"
         id="stop5441" />
      <stop
         style="stop-color:#000000;stop-opacity:1;"
         offset="1"
         id="stop5443" />
    </linearGradient>
    <linearGradient
       inkscape:collect="always"
       xlink:href="#linearGradient5344"
       id="linearGradient48801"
       gradientUnits="userSpaceOnUse"
       gradientTransform="matrix(2.6666657,0,0,2.6666657,-1454.5449,-490.44313)"
       x1="618.54346"
       y1="510.62631"
       x2="549.66016"
       y2="580.45312" />
    <linearGradient
       id="linearGradient5344">
      <stop
         style="stop-color:#000000;stop-opacity:1;"
         offset="0"
         id="stop5346" />
      <stop
         style="stop-color:#000000;stop-opacity:0;"
         offset="1"
         id="stop5348" />
    </linearGradient>
    <linearGradient
       inkscape:collect="always"
       xlink:href="#linearGradient9863"
       id="linearGradient48804"
       gradientUnits="userSpaceOnUse"
       gradientTransform="matrix(2.6666657,0,0,2.6666657,-2413.8375,-172.25985)"
       x1="927.93488"
       y1="459.10907"
       x2="927.93488"
       y2="410.98141" />
    <linearGradient
       id="linearGradient33760">
      <stop
         style="stop-color:#2f445a;stop-opacity:1;"
         offset="0"
         id="stop33762" />
      <stop
         style="stop-color:#415f7c;stop-opacity:1"
         offset="1"
         id="stop33764" />
    </linearGradient>
    <linearGradient
       inkscape:collect="always"
       xlink:href="#linearGradient5344"
       id="linearGradient48807"
       gradientUnits="userSpaceOnUse"
       gradientTransform="matrix(2.6666657,0,0,2.6666657,-1293.8379,-758.75962)"
       x1="519.31262"
       y1="723.67017"
       x2="511.42725"
       y2="667.20789" />
    <linearGradient
       id="linearGradient33767">
      <stop
         style="stop-color:#000000;stop-opacity:1;"
         offset="0"
         id="stop33769" />
      <stop
         style="stop-color:#000000;stop-opacity:0;"
         offset="1"
         id="stop33771" />
    </linearGradient>
    <linearGradient
       inkscape:collect="always"
       xlink:href="#linearGradient5362"
       id="linearGradient48810"
       gradientUnits="userSpaceOnUse"
       gradientTransform="matrix(2.6666657,0,0,2.6666657,-1293.8379,-758.75962)"
       x1="504.91962"
       y1="635.44617"
       x2="504.48212"
       y2="641.10242" />
    <linearGradient
       id="linearGradient5362">
      <stop
         style="stop-color:#ffffff;stop-opacity:1;"
         offset="0"
         id="stop5364" />
      <stop
         style="stop-color:#ffffff;stop-opacity:0;"
         offset="1"
         id="stop5366" />
    </linearGradient>
  </defs>
  <sodipodi:namedview
     id="base"
     pagecolor="#ffffff"
     bordercolor="#666666"
     borderopacity="1.0"
     inkscape:pageopacity="0.0"
     inkscape:pageshadow="2"
     inkscape:zoom="3.960937"
     inkscape:cx="63.764275"
     inkscape:cy="63.999989"
     inkscape:document-units="px"
     inkscape:current-layer="layer1"
     showgrid="false"
     inkscape:window-width="1366"
     inkscape:window-height="721"
     inkscape:window-x="0"
     inkscape:window-y="24"
     inkscape:window-maximized="1" />
  <metadata
     id="metadata33795">
    <rdf:RDF>
      <cc:Work
         rdf:about="">
        <dc:format>image/svg+xml</dc:format>
        <dc:type
           rdf:resource="http://purl.org/dc/dcmitype/StillImage" />
        <dc:title></dc:title>
      </cc:Work>
    </rdf:RDF>
  </metadata>
  <g
     inkscape:label="Capa 1"
     inkscape:groupmode="layer"
     id="layer1"
     transform="translate(0,-924.36218)">
    <path
       inkscape:connector-curvature="0"
       inkscape:export-ydpi="57.964222"
       inkscape:export-xdpi="57.964222"
       inkscape:export-filename="/home/dafeba/DCV/tallerD/bocetos/08-09-22-hastaahora.png"
       style="fill:#f2f2f2;fill-rule:evenodd;stroke:none;display:inline"
       d="m 0.0024,930.63158 c 9.6061299,0.92293 13.673075,12.06106 13.665875,20.36586 l -0.125333,76.00156 c 0.08267,9.3272 4.949331,18.6 17.54506,25.3632 l 87.756498,-14.9763 c -10.39386,-1.9165 -17.82506,-12.2149 -17.74106,-20.5872 l 0.208,-62.83166 c 0.0907,-8.0976 -5.221861,-16.24533 -15.087191,-17.12 L 0,930.63158 z"
       id="path21483"
       sodipodi:nodetypes="ccccccccc" />
    <path
       inkscape:connector-curvature="0"
       inkscape:export-ydpi="57.964222"
       inkscape:export-xdpi="57.964222"
       inkscape:export-filename="/home/dafeba/DCV/tallerD/bocetos/08-09-22-hastaahora.png"
       sodipodi:nodetypes="ccccc"
       id="path21485"
       d="M 0.79090227,929.84518 C 10.397032,930.76811 14.463977,941.90624 14.456777,950.21104 l 87.645563,2.9696 c 0.0907,-8.0976 -5.22186,-16.24533 -15.087457,-17.12 L 0.79090227,929.84518 z"
       style="fill:url(#linearGradient48810);fill-rule:evenodd;stroke:none;display:inline" />
    <path
       inkscape:connector-curvature="0"
       inkscape:export-ydpi="57.964222"
       inkscape:export-xdpi="57.964222"
       inkscape:export-filename="/home/dafeba/DCV/tallerD/bocetos/08-09-22-hastaahora.png"
       sodipodi:nodetypes="ccccc"
       id="path21487"
       d="m 14.332511,1026.2126 c 0.08267,9.3272 4.949331,18.6 17.545059,25.3632 l 87.75677,-14.9763 c -10.39413,-1.9165 -17.82533,-12.2149 -17.74133,-20.5872 l -87.560499,10.2003 z"
       style="fill:url(#linearGradient48807);fill-rule:evenodd;stroke:none;display:inline" />
    <path
       inkscape:connector-curvature="0"
       sodipodi:nodetypes="cscccccccccc"
       id="path21489"
       d="m 1.674902,929.76678 c 3.2253322,0.30986 4.9421316,1.68293 6.9741309,3.80213 4.0197451,4.19253 5.8125441,10.9592 5.8077441,16.47546 l -0.125333,76.00153 c 0.07467,8.3096 3.944265,16.576 13.694661,23.0632 2.440532,1.6099 5.685864,1.6099 9.117063,1.2384 L 119.633,1036.4329 c -10.39386,-1.9166 -17.82506,-12.215 -17.74106,-20.5872 l 0.208,-62.83173 c 0.0907,-8.0976 -5.22186,-16.24533 -15.08719,-17.11999 l -77.1845176,-5.564 -8.1557304,-0.5632 z"
       style="fill:none;stroke:url(#linearGradient48804);stroke-width:2.66666579;stroke-linecap:round;stroke-linejoin:round;stroke-miterlimit:4;stroke-opacity:1;stroke-dasharray:none;display:inline"
       inkscape:export-filename="/home/dafeba/DCV/tallerD/bocetos/08-09-22-hastaahora.png"
       inkscape:export-xdpi="57.964222"
       inkscape:export-ydpi="57.964222" />
    <path
       inkscape:connector-curvature="0"
       id="path21537"
       d="m 105.75621,953.54517 -57.14398,-1.30053 c -4.199465,-0.176 -8.09813,1.63893 -8.75573,5.10586 -0.06667,0.34587 -0.189333,0.6984 -0.186666,1.07733 0,0.13867 0,0.27334 0,0.4168 l -0.122667,7.0832 0.08267,0.003 -0.261334,53.1906 c -0.341333,5.296 3.514399,7.0243 7.631731,6.7779 l 58.203979,-6.9165 c 2.9952,-0.6072 5.26453,-3.3926 5.2344,-8.651 l 0.6136,-44.67247 0.0827,0 0,-5.0032 c 0,-0.22933 0.0267,-0.4408 0,-0.66666 0,-0.17334 0,-0.3296 0,-0.5 -0.0267,-3.00854 -1.12826,-5.59867 -5.39626,-5.9472 z"
       style="fill:url(#linearGradient48801);fill-rule:evenodd;stroke:none;display:inline"
       inkscape:export-filename="/home/dafeba/DCV/tallerD/bocetos/08-09-22-hastaahora.png"
       inkscape:export-xdpi="57.964222"
       inkscape:export-ydpi="57.964222" />
    <path
       inkscape:connector-curvature="0"
       inkscape:export-ydpi="57.964222"
       inkscape:export-xdpi="57.964222"
       inkscape:export-filename="/home/dafeba/DCV/tallerD/bocetos/08-09-22-hastaahora.png"
       style="fill:url(#linearGradient48798);fill-rule:evenodd;stroke:none;display:inline"
       d="m 114.39941,1011.6979 -58.209582,6.8779 c -4.117599,0.2453 -7.974931,-1.4669 -7.633598,-6.7629 l 0.2912,-60.31546 c -0.04,-4.17814 4.657599,-6.84773 8.934397,-6.1672 l 57.120783,1.56986 c 4.50959,0.368 5.56639,3.216 5.45546,6.44134 l -0.7648,49.69976 c 0.0293,5.2583 -2.19866,8.0495 -5.19386,8.6567 z"
       id="path21465"
       sodipodi:nodetypes="ccccccccc" />
    <path
       inkscape:connector-curvature="0"
       inkscape:export-ydpi="57.964222"
       inkscape:export-xdpi="57.964222"
       inkscape:export-filename="/home/dafeba/DCV/tallerD/bocetos/08-09-22-hastaahora.png"
       sodipodi:nodetypes="ccccccc"
       id="path21467"
       d="m 48.722364,958.6529 0.133333,-7.57226 c -0.04,-4.17814 4.315732,-6.35947 8.934397,-6.1672 l 57.125046,1.33093 c 4.5096,0.36827 5.5664,3.216 5.45546,6.4416 l -0.088,5.6784 -71.560236,0.28853 z"
       style="fill:url(#linearGradient48795);fill-rule:evenodd;stroke:none;display:inline" />
    <path
       inkscape:connector-curvature="0"
       inkscape:export-ydpi="57.964222"
       inkscape:export-xdpi="57.964222"
       inkscape:export-filename="/home/dafeba/DCV/tallerD/bocetos/08-09-22-hastaahora.png"
       style="fill:none;stroke:url(#linearGradient48792);stroke-width:1.3333329;stroke-linecap:butt;stroke-linejoin:miter;stroke-miterlimit:4;stroke-opacity:1;stroke-dasharray:none;display:inline"
       d="m 114.94874,946.23851 -57.14398,-1.30054 c -4.199731,-0.176 -8.098397,1.63867 -8.75573,5.10587 -0.06667,0.3456 -0.189333,0.6984 -0.186666,1.07733 0,0.13867 0,0.27333 0,0.41653 l -0.122667,7.08347 0.08267,0.003 -0.261334,53.19033 c -0.341333,5.296 3.514132,7.0243 7.631464,6.7781 l 58.204243,-6.9165 c 2.9952,-0.6075 5.26426,-3.3928 5.2344,-8.6509 l 0.61333,-44.67276 0.0827,0 0,-5.00293 c 0,-0.22933 0.0267,-0.4408 0,-0.66667 0,-0.17333 0,-0.3296 0,-0.5 -0.0267,-3.0088 -1.128,-5.59893 -5.396,-5.94719 z"
       id="path21469" />
    <path
       sodipodi:type="arc"
       style="fill:url(#linearGradient46048);fill-opacity:1;stroke:none;display:inline"
       id="path21521"
       sodipodi:cx="517.4696"
       sodipodi:cy="955.13501"
       sodipodi:rx="2.6958447"
       sodipodi:ry="3.0052037"
       d="m 520.16545,955.13501 a 2.6958447,3.0052037 0 1 1 -5.39169,0 2.6958447,3.0052037 0 1 1 5.39169,0 z"
       transform="matrix(3.7816941,0,0,3.7816941,-1881.956,-2638.0384)" />
    <path
       transform="matrix(3.6628712,0,0,3.6628712,-1820.5483,-2498.6105)"
       d="m 520.16545,955.13501 a 2.6958447,3.0052037 0 1 1 -5.39169,0 2.6958447,3.0052037 0 1 1 5.39169,0 z"
       sodipodi:ry="3.0052037"
       sodipodi:rx="2.6958447"
       sodipodi:cy="955.13501"
       sodipodi:cx="517.4696"
       id="path21525"
       style="fill:url(#linearGradient46050);fill-opacity:1;stroke:none;display:inline"
       sodipodi:type="arc" />
    <path
       transform="matrix(3.5213601,0,0,3.5213601,-1724.7572,-2390.1519)"
       d="m 520.16545,955.13501 a 2.6958447,3.0052037 0 1 1 -5.39169,0 2.6958447,3.0052037 0 1 1 5.39169,0 z"
       sodipodi:ry="3.0052037"
       sodipodi:rx="2.6958447"
       sodipodi:cy="955.13501"
       sodipodi:cx="517.4696"
       id="path21529"
       style="fill:url(#linearGradient46052);fill-opacity:1;stroke:none;display:inline"
       sodipodi:type="arc" />
    <path
       sodipodi:type="arc"
       style="fill:url(#linearGradient46054);fill-opacity:1;stroke:none;display:inline"
       id="path21533"
       sodipodi:cx="517.4696"
       sodipodi:cy="955.13501"
       sodipodi:rx="2.6958447"
       sodipodi:ry="3.0052037"
       d="m 520.16545,955.13501 a 2.6958447,3.0052037 0 1 1 -5.39169,0 2.6958447,3.0052037 0 1 1 5.39169,0 z"
       transform="matrix(3.5163265,0,0,3.4547462,-1722.3181,-2301.8471)" />
  </g>
</svg>
