<?xml version="1.0" encoding="UTF-8" standalone="no"?>
<!-- Created with Inkscape (http://www.inkscape.org/) -->
<svg
   xmlns:dc="http://purl.org/dc/elements/1.1/"
   xmlns:cc="http://creativecommons.org/ns#"
   xmlns:rdf="http://www.w3.org/1999/02/22-rdf-syntax-ns#"
   xmlns:svg="http://www.w3.org/2000/svg"
   xmlns="http://www.w3.org/2000/svg"
   xmlns:xlink="http://www.w3.org/1999/xlink"
   xmlns:sodipodi="http://sodipodi.sourceforge.net/DTD/sodipodi-0.dtd"
   xmlns:inkscape="http://www.inkscape.org/namespaces/inkscape"
   width="128"
   height="128"
   id="svg2"
   sodipodi:version="0.32"
   inkscape:version="0.46"
   version="1.0"
   sodipodi:docname="gnome-mime-text-x-csharp.svg"
   inkscape:output_extension="org.inkscape.output.svg.inkscape">
  <defs
     id="defs4">
    <linearGradient
       inkscape:collect="always"
       xlink:href="#linearGradient5362"
       id="linearGradient21931"
       gradientUnits="userSpaceOnUse"
       gradientTransform="matrix(2.6666667,0,0,2.6666667,-1293.8382,-1683.1224)"
       x1="504.91962"
       y1="635.44617"
       x2="504.48212"
       y2="641.10242" />
    <linearGradient
       inkscape:collect="always"
       xlink:href="#linearGradient5344"
       id="linearGradient21933"
       gradientUnits="userSpaceOnUse"
       gradientTransform="matrix(2.6666667,0,0,2.6666667,-1293.8382,-1683.1224)"
       x1="519.31262"
       y1="723.67017"
       x2="511.42725"
       y2="667.20789" />
    <linearGradient
       inkscape:collect="always"
       xlink:href="#linearGradient9863"
       id="linearGradient21935"
       gradientUnits="userSpaceOnUse"
       gradientTransform="matrix(2.6666667,0,0,2.6666667,-2413.8383,-1096.6224)"
       x1="927.93488"
       y1="459.10907"
       x2="927.93488"
       y2="410.98141" />
    <linearGradient
       inkscape:collect="always"
       xlink:href="#linearGradient5344"
       id="linearGradient21963"
       gradientUnits="userSpaceOnUse"
       gradientTransform="matrix(2.6666667,0,0,2.6666667,-1133.8382,-1417.1628)"
       x1="533.94769"
       y1="471.7771"
       x2="436.88516"
       y2="567.9021" />
    <linearGradient
       inkscape:collect="always"
       xlink:href="#linearGradient5439"
       id="linearGradient21965"
       gradientUnits="userSpaceOnUse"
       gradientTransform="matrix(1.6284723,0,0,1.6284723,47.012345,2.3646196)"
       x1="13.700951"
       y1="6.7592273"
       x2="132.53625"
       y2="115.95733" />
    <linearGradient
       id="linearGradient4689">
      <stop
         id="stop4691"
         offset="0"
         style="stop-color:#5a9fd4;stop-opacity:1;" />
      <stop
         id="stop4693"
         offset="1"
         style="stop-color:#306998;stop-opacity:1;" />
    </linearGradient>
    <linearGradient
       id="linearGradient4671">
      <stop
         id="stop4673"
         offset="0"
         style="stop-color:#ffd43b;stop-opacity:1;" />
      <stop
         id="stop4675"
         offset="1"
         style="stop-color:#ffe873;stop-opacity:1" />
    </linearGradient>
    <linearGradient
       id="linearGradient5165-7-9-8-2">
      <stop
         offset="0"
         style="stop-color:#ffffff;stop-opacity:1"
         id="stop5167-4-8-6-9" />
      <stop
         offset="1"
         style="stop-color:#ffffff;stop-opacity:0"
         id="stop5169-5-5-2-9" />
    </linearGradient>
    <linearGradient
       id="linearGradient7210">
      <stop
         style="stop-color:#75aadb;stop-opacity:1"
         offset="0"
         id="stop7212" />
      <stop
         style="stop-color:#87c7ff;stop-opacity:1;"
         offset="0.5"
         id="stop8994" />
      <stop
         style="stop-color:#74aadb;stop-opacity:1;"
         offset="1"
         id="stop7214" />
    </linearGradient>
    <linearGradient
       y2="637.52454"
       x2="518.86896"
       y1="661.19366"
       x1="513.96362"
       gradientTransform="translate(-296.48677,-601.99164)"
       gradientUnits="userSpaceOnUse"
       id="linearGradient10430"
       xlink:href="#linearGradient5344"
       inkscape:collect="always" />
    <linearGradient
       y2="643.21948"
       x2="516.5"
       y1="647.79089"
       x1="519.95825"
       gradientTransform="translate(-296.48677,-601.99164)"
       gradientUnits="userSpaceOnUse"
       id="linearGradient10427"
       xlink:href="#linearGradient5316"
       inkscape:collect="always" />
    <linearGradient
       y2="650.17572"
       x2="519.57452"
       y1="632.9248"
       x1="512.30157"
       gradientTransform="translate(-296.48677,-601.99164)"
       gradientUnits="userSpaceOnUse"
       id="linearGradient10424"
       xlink:href="#linearGradient5344"
       inkscape:collect="always" />
    <linearGradient
       y2="643.65698"
       x2="524.125"
       y1="667.56323"
       x1="526.0625"
       gradientTransform="translate(-296.48677,-601.99164)"
       gradientUnits="userSpaceOnUse"
       id="linearGradient10419"
       xlink:href="#linearGradient5344"
       inkscape:collect="always" />
    <linearGradient
       inkscape:collect="always"
       xlink:href="#linearGradient5439"
       id="linearGradient15562"
       gradientUnits="userSpaceOnUse"
       gradientTransform="matrix(2.6666667,0,0,2.6666667,-1134.9597,-1416.4558)"
       x1="457.89578"
       y1="539.88666"
       x2="457.89578"
       y2="569.06531" />
    <linearGradient
       inkscape:collect="always"
       xlink:href="#linearGradient5439"
       id="linearGradient15559"
       gradientUnits="userSpaceOnUse"
       x1="459.76584"
       y1="546.18964"
       x2="459.76584"
       y2="583.90106"
       gradientTransform="matrix(2.6666667,0,0,2.6666667,-1134.3706,-1416.4558)" />
    <linearGradient
       id="linearGradient4508">
      <stop
         offset="0"
         style="stop-color:#75aadb;stop-opacity:1"
         id="stop4510" />
      <stop
         offset="1"
         style="stop-color:#5a83a9;stop-opacity:1"
         id="stop4512" />
    </linearGradient>
    <linearGradient
       inkscape:collect="always"
       xlink:href="#linearGradient4508"
       id="linearGradient15556"
       gradientUnits="userSpaceOnUse"
       gradientTransform="matrix(2.6666667,0,0,2.6666667,-1134.3706,-1414.3934)"
       x1="456.31311"
       y1="551.46545"
       x2="456.31311"
       y2="554.8988" />
    <linearGradient
       id="linearGradient12578">
      <stop
         id="stop12580"
         offset="0"
         style="stop-color:#e9b551;stop-opacity:1;" />
      <stop
         id="stop12582"
         offset="1"
         style="stop-color:#b48739;stop-opacity:1;" />
    </linearGradient>
    <linearGradient
       id="linearGradient5165-9">
      <stop
         offset="0"
         style="stop-color:#ffffff;stop-opacity:1"
         id="stop5167-6" />
      <stop
         offset="1"
         style="stop-color:#ffffff;stop-opacity:0"
         id="stop5169-7" />
    </linearGradient>
    <linearGradient
       id="linearGradient9121">
      <stop
         style="stop-color:#2f445a;stop-opacity:1"
         offset="0"
         id="stop9123" />
      <stop
         style="stop-color:#415f7c;stop-opacity:1"
         offset="1"
         id="stop9125" />
    </linearGradient>
    <linearGradient
       id="linearGradient12594">
      <stop
         id="stop12596"
         offset="0"
         style="stop-color:#e9b551;stop-opacity:1;" />
      <stop
         id="stop12598"
         offset="1"
         style="stop-color:#e9b551;stop-opacity:0;" />
    </linearGradient>
    <linearGradient
       id="linearGradient5316">
      <stop
         style="stop-color:#87c7ff;stop-opacity:1;"
         offset="0"
         id="stop5320" />
      <stop
         style="stop-color:#74aadb;stop-opacity:1;"
         offset="1"
         id="stop5322" />
    </linearGradient>
    <linearGradient
       id="linearGradient9863">
      <stop
         style="stop-color:#2f445a;stop-opacity:1;"
         offset="0"
         id="stop9865" />
      <stop
         style="stop-color:#415f7c;stop-opacity:1"
         offset="1"
         id="stop9867" />
    </linearGradient>
    <linearGradient
       id="linearGradient12336">
      <stop
         id="stop12338"
         offset="0"
         style="stop-color:#ff6e00;stop-opacity:1;" />
      <stop
         id="stop12340"
         offset="1"
         style="stop-color:#eb2600;stop-opacity:1;" />
    </linearGradient>
    <linearGradient
       id="linearGradient5362">
      <stop
         style="stop-color:#ffffff;stop-opacity:1;"
         offset="0"
         id="stop5364" />
      <stop
         style="stop-color:#ffffff;stop-opacity:0;"
         offset="1"
         id="stop5366" />
    </linearGradient>
    <linearGradient
       id="linearGradient5439">
      <stop
         style="stop-color:#ffffff;stop-opacity:1;"
         offset="0"
         id="stop5441" />
      <stop
         style="stop-color:#000000;stop-opacity:1;"
         offset="1"
         id="stop5443" />
    </linearGradient>
    <linearGradient
       inkscape:collect="always"
       xlink:href="#linearGradient5439"
       id="linearGradient13309"
       gradientUnits="userSpaceOnUse"
       x1="499.90704"
       y1="953.39532"
       x2="652.75177"
       y2="1116.9413"
       gradientTransform="matrix(2.6765239,0,0,2.6765239,-1298.6765,-2514.903)" />
    <linearGradient
       inkscape:collect="always"
       id="linearGradient5398">
      <stop
         style="stop-color:#87c6ff;stop-opacity:1;"
         offset="0"
         id="stop5400" />
      <stop
         style="stop-color:#87c6ff;stop-opacity:0"
         offset="1"
         id="stop5402" />
    </linearGradient>
    <linearGradient
       inkscape:collect="always"
       xlink:href="#linearGradient5398"
       id="linearGradient13322"
       gradientUnits="userSpaceOnUse"
       x1="500.87799"
       y1="948.11993"
       x2="500.87799"
       y2="953.17468"
       gradientTransform="matrix(2.6765239,0,0,2.6765239,-1298.6765,-2514.903)" />
    <linearGradient
       id="linearGradient5344">
      <stop
         style="stop-color:#000000;stop-opacity:1;"
         offset="0"
         id="stop5346" />
      <stop
         style="stop-color:#000000;stop-opacity:0;"
         offset="1"
         id="stop5348" />
    </linearGradient>
    <linearGradient
       inkscape:collect="always"
       xlink:href="#linearGradient5344"
       id="linearGradient13314"
       gradientUnits="userSpaceOnUse"
       x1="544.89001"
       y1="919.05762"
       x2="506.01498"
       y2="969.80762"
       gradientTransform="translate(-485.21014,-859.4386)" />
    <linearGradient
       id="linearGradient8702">
      <stop
         id="stop8704"
         offset="0"
         style="stop-color:#aac736;stop-opacity:1;" />
      <stop
         id="stop8706"
         offset="1"
         style="stop-color:#5d8b2c;stop-opacity:1;" />
    </linearGradient>
    <linearGradient
       inkscape:collect="always"
       xlink:href="#linearGradient8702"
       id="linearGradient13316"
       gradientUnits="userSpaceOnUse"
       gradientTransform="matrix(2.6765239,0,0,2.6765239,-1779.5422,-994.63744)"
       x1="700.13062"
       y1="378.86951"
       x2="707.80457"
       y2="395.74899" />
    <inkscape:perspective
       sodipodi:type="inkscape:persp3d"
       inkscape:vp_x="0 : 526.18109 : 1"
       inkscape:vp_y="0 : 1000 : 0"
       inkscape:vp_z="744.09448 : 526.18109 : 1"
       inkscape:persp3d-origin="372.04724 : 350.78739 : 1"
       id="perspective10" />
    <inkscape:perspective
       id="perspective22402"
       inkscape:persp3d-origin="133.5 : 106 : 1"
       inkscape:vp_z="267 : 159 : 1"
       inkscape:vp_y="0 : 1000 : 0"
       inkscape:vp_x="0 : 159 : 1"
       sodipodi:type="inkscape:persp3d" />
    <linearGradient
       inkscape:collect="always"
       xlink:href="#linearGradient4689"
       id="linearGradient22409"
       x1="20.863827"
       y1="18.166332"
       x2="247.12524"
       y2="318.047"
       gradientUnits="userSpaceOnUse" />
  </defs>
  <sodipodi:namedview
     id="base"
     pagecolor="#ffffff"
     bordercolor="#666666"
     borderopacity="1.0"
     inkscape:pageopacity="0.0"
     inkscape:pageshadow="2"
     inkscape:zoom="1"
     inkscape:cx="119.47926"
     inkscape:cy="87.649651"
     inkscape:document-units="px"
     inkscape:current-layer="layer1"
     showgrid="false"
     inkscape:showpageshadow="false"
     inkscape:window-width="1014"
     inkscape:window-height="715"
     inkscape:window-x="0"
     inkscape:window-y="6"
     showguides="true"
     inkscape:guide-bbox="true" />
  <metadata
     id="metadata7">
    <rdf:RDF>
      <cc:Work
         rdf:about="">
        <dc:format>image/svg+xml</dc:format>
        <dc:type
           rdf:resource="http://purl.org/dc/dcmitype/StillImage" />
      </cc:Work>
    </rdf:RDF>
  </metadata>
  <g
     inkscape:label="Capa 1"
     inkscape:groupmode="layer"
     id="layer1">
    <path
       inkscape:export-ydpi="57.964222"
       inkscape:export-xdpi="57.964222"
       inkscape:export-filename="/home/dafeba/DCV/tallerD/bocetos/08-09-22-hastaahora.png"
       style="fill:#f2f2f2;fill-rule:evenodd;stroke:none;stroke-width:0.5;stroke-linecap:round;stroke-linejoin:round;stroke-miterlimit:4;stroke-dasharray:none;stroke-opacity:1;display:inline"
       d="M 0.79114382,5.4829136 C 10.397277,6.4059006 14.464184,17.544167 14.45701,25.84894 L 14.332797,101.85054 C 14.415277,111.17758 19.282104,120.45041 31.877731,127.21366 L 119.63447,112.23745 C 109.24047,110.32081 101.8092,100.02238 101.89336,91.650247 L 102.10258,28.818567 C 102.19373,20.720807 96.880638,12.573181 87.015251,11.698541 L 0.79114382,5.4829136 z"
       id="path21907"
       sodipodi:nodetypes="ccccccccc" />
    <path
       inkscape:export-ydpi="57.964222"
       inkscape:export-xdpi="57.964222"
       inkscape:export-filename="/home/dafeba/DCV/tallerD/bocetos/08-09-22-hastaahora.png"
       sodipodi:nodetypes="ccccc"
       id="path21909"
       d="M 0.79114382,5.4829136 C 10.397277,6.4059006 14.464184,17.544167 14.45701,25.84894 L 102.10258,28.818567 C 102.19373,20.720807 96.880638,12.573181 87.015251,11.698541 L 0.79114382,5.4829136 z"
       style="fill:url(#linearGradient21931);fill-rule:evenodd;stroke:none;stroke-width:0.5;stroke-linecap:round;stroke-linejoin:round;stroke-miterlimit:4;stroke-dasharray:none;stroke-opacity:1;display:inline" />
    <path
       inkscape:export-ydpi="57.964222"
       inkscape:export-xdpi="57.964222"
       inkscape:export-filename="/home/dafeba/DCV/tallerD/bocetos/08-09-22-hastaahora.png"
       sodipodi:nodetypes="ccccc"
       id="path21911"
       d="M 14.332797,101.85054 C 14.415277,111.17758 19.282104,120.45041 31.877731,127.21366 L 119.63447,112.23745 C 109.24047,110.32081 101.8092,100.02238 101.89336,91.650247 L 14.332797,101.85054 z"
       style="fill:url(#linearGradient21933);fill-rule:evenodd;stroke:none;stroke-width:0.5;stroke-linecap:round;stroke-linejoin:round;stroke-miterlimit:4;stroke-dasharray:none;stroke-opacity:1;display:inline" />
    <path
       sodipodi:nodetypes="cscccccccccc"
       id="path21913"
       d="M 1.6750371,5.4046466 C 4.9003438,5.7145406 6.6173305,7.0876336 8.6491971,9.2068066 C 12.668984,13.399287 14.461784,20.165873 14.45701,25.682273 L 14.332797,101.68387 C 14.40629,109.99337 18.277144,118.25985 28.027464,124.74705 C 30.46789,126.35699 33.713278,126.35699 37.144371,125.98553 L 119.63447,112.07078 C 109.24047,110.15414 101.8092,99.855714 101.89336,91.48358 L 102.10258,28.6519 C 102.19373,20.55414 96.880638,12.406514 87.015251,11.531874 L 9.8308771,5.9679006 L 1.6750371,5.4046466 z"
       style="fill:none;fill-rule:evenodd;stroke:url(#linearGradient21935);stroke-width:2.66666675;stroke-linecap:round;stroke-linejoin:round;stroke-miterlimit:4;stroke-dasharray:none;stroke-opacity:1;display:inline"
       inkscape:export-filename="/home/dafeba/DCV/tallerD/bocetos/08-09-22-hastaahora.png"
       inkscape:export-xdpi="57.964222"
       inkscape:export-ydpi="57.964222" />
    <rect
       inkscape:export-ydpi="57.964222"
       inkscape:export-xdpi="57.964222"
       inkscape:export-filename="/home/dafeba/DCV/tallerD/bocetos/08-09-22-hastaahora.png"
       ry="4.7293906"
       rx="4.7293906"
       y="8.4928436"
       x="41.355469"
       height="78.166664"
       width="78.166664"
       id="rect21953"
       style="fill:url(#linearGradient21963);fill-opacity:1;stroke:none;display:inline" />
    <rect
       ry="4.7293906"
       rx="4.7293906"
       y="2.3645859"
       x="47.012367"
       height="78.166664"
       width="78.166664"
       id="rect21955"
       style="fill:url(#linearGradient21965);fill-opacity:1;stroke:#000000;stroke-width:1.33333337000000007;stroke-miterlimit:4;stroke-dasharray:none;display:inline"
       inkscape:export-filename="/home/dafeba/DCV/tallerD/bocetos/08-09-22-hastaahora.png"
       inkscape:export-xdpi="57.964222"
       inkscape:export-ydpi="57.964222" />
    <g
       id="g22405"
       transform="matrix(0.2249088,0,0,0.2249088,58.297694,5.3900222)"
       style="fill:url(#linearGradient22409)">
      <path
         id="path2228"
         style="fill:url(#linearGradient22409)"
         d="M 8.45454,315.65636 C 6.00499,313.20681 6,313.15926 6,292.29122 C 6,272.65073 6.12589,271.22059 8.07258,268.74577 C 11.21119,264.75567 16.13638,265.52411 18.68847,270.40209 C 19.57803,272.10236 19.75695,272.08993 22.21389,270.15731 C 28.52058,265.19646 40.08382,265.37788 44.90835,270.51336 L 47.18645,272.93828 L 51.65115,269.79126 C 55.41808,267.13608 57.00546,266.64965 61.80793,266.67881 C 68.62253,266.72019 73.3148,268.93919 76.04048,273.40946 C 77.79289,276.2835 77.99291,278.52845 77.99626,295.36091 C 77.99974,312.78033 77.85807,314.25284 76,316.11091 C 73.49016,318.62075 69.5689,318.67981 67.13352,316.24443 C 65.50314,314.61405 65.20956,312.27733 64.81259,297.77104 C 64.42126,283.47064 64.10341,280.88266 62.52408,279.13752 C 60.45825,276.8548 58.22671,276.59486 54.65733,278.22118 C 50.62557,280.05817 49.71988,283.59218 49.09033,299.94376 C 48.56555,313.57397 48.28445,315.43398 46.55887,316.69376 C 44.06727,318.51279 40.99638,318.4971 38.36198,316.65189 C 36.43141,315.29968 36.24038,313.9638 35.75218,298.40189 C 35.46247,289.16685 34.90007,280.81953 34.50241,279.85228 C 33.63435,277.74082 29.93356,276.65978 26.51265,277.51838 C 21.58874,278.7542 20.54509,282.15098 20,298.71521 C 19.56875,311.82016 19.23808,314.19808 17.59501,316.01007 C 15.06061,318.80503 11.46404,318.66586 8.45454,315.65636 z M 103.22179,316.64119 C 92.71457,313.36015 86.99353,304.72263 87.00977,292.16457 C 87.01737,286.28972 87.55663,283.45733 89.43615,279.42051 C 98.10804,260.79503 128.57966,262.49658 135.45747,281.99036 C 137.44393,287.62059 137.42685,296.50191 135.41822,302.39691 C 131.27479,314.55719 116.9059,320.91425 103.22179,316.64119 z M 118.10069,305.81595 C 122.50491,303.06547 124.79449,294.15177 122.96401,286.88227 C 121.40256,280.68118 117.45598,277.00564 112.2824,276.93424 C 106.82857,276.85898 104.165,278.53438 101.93695,283.44159 C 98.06336,291.97304 100.75443,303.78661 107.21639,306.6179 C 110.55573,308.08101 114.99783,307.75372 118.10069,305.81595 z M 148,316.11091 C 146.11864,314.22955 146,312.77758 146,291.63396 L 146,269.15702 L 148.49271,267.52373 C 151.92455,265.2751 155.90797,266.40683 157.27092,270.0177 L 158.33404,272.83424 L 162.46716,269.92095 C 171.65207,263.44683 184.11973,265.89069 188.75,275.0728 C 190.81464,279.16711 191,280.90661 191,296.18794 C 191,311.52139 190.83574,313.05001 188.92742,315.47605 C 186.43671,318.64248 182.79084,318.90175 180,316.11091 C 178.21444,314.32535 177.99533,312.74387 177.95645,301.36091 C 177.90604,286.60324 176.92502,280.26047 174.40827,278.42017 C 171.94757,276.62087 166.92048,276.77788 164.11687,278.7416 C 160.02306,281.60902 159,285.94028 159,300.40448 C 159,313.07426 158.88079,313.87427 156.68555,315.9366 C 153.79848,318.64886 150.6021,318.71301 148,316.11091 z M 217.23559,317.191 C 212.40229,315.95709 206.35271,311.60101 203.51294,307.30982 C 198.37937,299.55248 198.15615,285.44842 203.04183,277.54323 C 211.175,264.38347 232.56222,262.37037 243.13584,273.76933 C 248.19319,279.22144 249.48271,282.94798 249.48271,292.11091 C 249.48271,301.27384 248.19319,305.00038 243.13584,310.45249 C 237.53535,316.49013 226.12185,319.4596 217.23559,317.191 z M 231.35238,305.25198 C 234.60407,302.37951 236.16157,298.08042 236.13276,292.05687 C 236.08667,282.42197 231.81586,276.91091 224.39533,276.91091 C 219.81157,276.91091 215.86148,279.76658 214.30644,284.20457 C 212.53816,289.25113 212.74464,297.09351 214.75155,301.11091 C 217.96007,307.53364 226.38924,309.63629 231.35238,305.25198 z M 250,264.61091 C 250,261.27758 249.61111,260.11091 248.5,260.11091 C 247.675,260.11091 247,259.64946 247,259.08547 C 247,258.48604 249.3102,258.13553 252.5609,258.24175 C 257.76445,258.41179 258.20436,258.62227 259.40648,261.51719 L 260.69117,264.61091 L 261.42504,261.36091 C 261.82867,259.57341 262.73928,258.11091 263.44861,258.11091 C 264.62342,258.11091 265.96146,262.98299 265.98899,267.36091 C 266.00445,269.81822 264.0956,269.54356 263.13634,266.95044 C 262.45233,265.10138 262.24529,265.02931 261.69995,266.45044 C 260.75398,268.9156 259.29664,268.46677 258.16228,265.36091 L 257.15789,262.61091 L 257.07895,265.86091 C 256.95704,270.8796 255,269.7029 255,264.61091 C 255,261.27758 254.61111,260.11091 253.5,260.11091 C 252.38889,260.11091 252,261.27758 252,264.61091 C 252,267.08591 251.55,269.11091 251,269.11091 C 250.45,269.11091 250,267.08591 250,264.61091 z M 23,248.35213 C 23,246.80511 74.7466,184.62003 75.83756,184.85603 C 76.46078,184.99084 99.57282,194.8098 127.19763,206.67595 C 174.37746,226.94188 177.50697,228.14035 178.7827,226.43083 C 180.71204,223.84549 187.3572,209.94547 190.87217,201.1427 L 193.85425,193.67448 L 188.83035,190.92715 C 181.71071,187.03374 171.26844,178.36304 164.72952,170.91512 C 158.76255,164.11865 148,147.71975 148,145.42435 C 148,144.66458 151.41988,148.11901 155.59973,153.10084 C 167.34039,167.09419 194.39526,188.99049 196.09436,185.87433 C 198.11061,182.17652 199.41392,171.26008 199.34932,158.61091 C 199.27046,143.16872 197.24623,131.14711 191.93082,114.55347 L 188.95233,105.25525 L 174.22617,100.62616 C 166.12677,98.08016 158.00735,95.52784 156.183,94.95433 C 149.8207,92.95426 153.80112,93.06194 163.11562,95.14187 C 174.25265,97.62878 185.56527,99.72929 192.5702,100.61097 C 198.73792,101.38728 200.09505,100.17715 200.7546,93.31309 C 201.59552,84.56139 195.94794,60.39173 190.25017,48.357866 C 187.97612,43.554997 186.94956,42.519359 182.39671,40.434994 C 167.24118,33.496565 119.80313,26.99806 99.65854,29.100751 C 90.95043,30.009703 82.00528,32.125757 79.21741,33.936278 C 78.43163,34.446588 84.04815,35.893447 93.71741,37.671593 C 102.39784,39.267894 108.72349,40.725653 107.77442,40.911058 C 106.82535,41.096463 93.18521,39.597545 77.463,37.580129 C 49.86144,34.038399 48.80861,33.974143 46.88613,35.713968 C 42.87783,39.341426 37.11079,49.256788 35.92349,54.562185 C 34.77399,59.69873 34.85485,60.29395 37.4123,65.5212 C 41.77144,74.43096 49.87721,80.91401 68.32215,90.24312 C 77.04415,94.65455 83.96884,98.47541 83.71034,98.73391 C 83.45184,98.99241 76.00857,96.21333 67.16973,92.55819 L 51.09911,85.91247 L 27.51719,92.51169 C 14.54713,96.14127 3.49982,99.11092 2.96763,99.11092 C 2.35941,99.11092 2,83.44205 2,56.92664 C 2,16.304429 2.07668,14.583951 4.07095,10.464349 C 5.28663,7.9530962 7.6613004,5.2415412 9.82095,3.8986252 L 13.5,1.6109162 L 121.5,1.3103692 C 180.9,1.1450692 231.90259,1.2949592 234.83909,1.6434572 C 241.45648,2.4287972 247.42831,7.2741032 249.00763,13.139249 C 249.68844,15.667583 249.94431,54.120659 249.76716,127.2815 L 249.5,237.61091 L 247.21229,241.28996 C 245.86938,243.44961 243.15782,245.82428 240.64657,247.03996 C 236.40165,249.09489 235.54309,249.11091 129.68428,249.11091 C 71.00792,249.11091 23,248.76946 23,248.35213 z" />
      <path
         id="path2224"
         style="fill:url(#linearGradient22409)"
         d="" />
    </g>
  </g>
</svg>
