<?xml version="1.0" encoding="UTF-8" standalone="no"?>
<!-- Created with Inkscape (http://www.inkscape.org/) -->

<svg
   xmlns:dc="http://purl.org/dc/elements/1.1/"
   xmlns:cc="http://creativecommons.org/ns#"
   xmlns:rdf="http://www.w3.org/1999/02/22-rdf-syntax-ns#"
   xmlns:svg="http://www.w3.org/2000/svg"
   xmlns="http://www.w3.org/2000/svg"
   xmlns:xlink="http://www.w3.org/1999/xlink"
   xmlns:sodipodi="http://sodipodi.sourceforge.net/DTD/sodipodi-0.dtd"
   xmlns:inkscape="http://www.inkscape.org/namespaces/inkscape"
   version="1.0"
   width="128"
   height="128"
   id="svg2408"
   style="display:inline"
   inkscape:version="0.48.3.1 r9886"
   sodipodi:docname="opera-extension.svg">
  <sodipodi:namedview
     pagecolor="#ffffff"
     bordercolor="#666666"
     borderopacity="1"
     objecttolerance="10"
     gridtolerance="10"
     guidetolerance="10"
     inkscape:pageopacity="0"
     inkscape:pageshadow="2"
     inkscape:window-width="1366"
     inkscape:window-height="721"
     id="namedview71"
     showgrid="false"
     inkscape:zoom="1.7383042"
     inkscape:cx="127.48347"
     inkscape:cy="73.985295"
     inkscape:window-x="0"
     inkscape:window-y="24"
     inkscape:window-maximized="1"
     inkscape:current-layer="svg2408" />
  <defs
     id="defs2410">
    <linearGradient
       x1="483.10059"
       y1="724.99017"
       x2="483.10059"
       y2="836.99017"
       id="linearGradient3960"
       gradientUnits="userSpaceOnUse"
       gradientTransform="translate(-400.0996,-607.9902)">
      <stop
         id="stop3962"
         style="stop-color:#d174f0;stop-opacity:1"
         offset="0" />
      <stop
         id="stop3964"
         style="stop-color:#8a1cc2;stop-opacity:1"
         offset="1" />
    </linearGradient>
    <linearGradient
       x1="45.447727"
       y1="92.539597"
       x2="45.447727"
       y2="7.0165396"
       id="ButtonShadow"
       gradientUnits="userSpaceOnUse"
       gradientTransform="scale(1.0058652,0.994169)">
      <stop
         id="stop3750"
         style="stop-color:#000000;stop-opacity:1"
         offset="0" />
      <stop
         id="stop3752"
         style="stop-color:#000000;stop-opacity:0.58823532"
         offset="1" />
    </linearGradient>
    <filter
       color-interpolation-filters="sRGB"
       id="filter3174">
      <feGaussianBlur
         id="feGaussianBlur3176"
         stdDeviation="1.71" />
    </filter>
    <linearGradient
       x1="45.447727"
       y1="92.539597"
       x2="45.447727"
       y2="7.0165396"
       id="ButtonShadow-0"
       gradientUnits="userSpaceOnUse"
       gradientTransform="matrix(1.0058652,0,0,0.994169,100,0)">
      <stop
         id="stop3750-8"
         style="stop-color:#000000;stop-opacity:1"
         offset="0" />
      <stop
         id="stop3752-5"
         style="stop-color:#000000;stop-opacity:0.58823532"
         offset="1" />
    </linearGradient>
    <linearGradient
       x1="32.251034"
       y1="6.1317081"
       x2="32.251034"
       y2="90.238609"
       id="linearGradient3780"
       xlink:href="#ButtonShadow-0"
       gradientUnits="userSpaceOnUse"
       gradientTransform="matrix(1.0238095,0,0,1.0119048,-1.1428571,-98.071429)" />
    <linearGradient
       x1="32.251034"
       y1="6.1317081"
       x2="32.251034"
       y2="90.238609"
       id="linearGradient3772"
       xlink:href="#ButtonShadow-0"
       gradientUnits="userSpaceOnUse"
       gradientTransform="matrix(1.0238095,0,0,1.0119048,-1.1428571,-98.071429)" />
    <linearGradient
       x1="32.251034"
       y1="6.1317081"
       x2="32.251034"
       y2="90.238609"
       id="linearGradient3725"
       xlink:href="#ButtonShadow-0"
       gradientUnits="userSpaceOnUse"
       gradientTransform="matrix(1.0238095,0,0,1.0119048,-1.1428571,-98.071429)" />
    <linearGradient
       x1="32.251034"
       y1="6.1317081"
       x2="32.251034"
       y2="90.238609"
       id="linearGradient3721"
       xlink:href="#ButtonShadow-0"
       gradientUnits="userSpaceOnUse"
       gradientTransform="translate(0,-97)" />
    <linearGradient
       x1="32.251034"
       y1="6.1317081"
       x2="32.251034"
       y2="90.238609"
       id="linearGradient3760"
       xlink:href="#ButtonShadow-0"
       gradientUnits="userSpaceOnUse"
       gradientTransform="matrix(1.0238095,0,0,1.0119048,-1.1428571,-98.071429)" />
    <linearGradient
       id="linearGradient3700-7">
      <stop
         id="stop3702-2"
         style="stop-color:#e6e6e6;stop-opacity:1"
         offset="0" />
      <stop
         id="stop3704-9"
         style="stop-color:#f5f5f5;stop-opacity:1"
         offset="1" />
    </linearGradient>
    <linearGradient
       x1="36.357143"
       y1="6"
       x2="36.357143"
       y2="63.893143"
       id="linearGradient3923-0"
       xlink:href="#linearGradient3737-1-9"
       gradientUnits="userSpaceOnUse" />
    <linearGradient
       id="linearGradient3737-1-9">
      <stop
         id="stop3739-9-7"
         style="stop-color:#ffffff;stop-opacity:1"
         offset="0" />
      <stop
         id="stop3741-3-7"
         style="stop-color:#ffffff;stop-opacity:0"
         offset="1" />
    </linearGradient>
    <radialGradient
       cx="48"
       cy="90.171875"
       r="42"
       fx="48"
       fy="90.171875"
       id="radialGradient2886-8"
       xlink:href="#linearGradient3737-0-2"
       gradientUnits="userSpaceOnUse"
       gradientTransform="matrix(1.1573129,0,0,0.99590774,-7.551021,0.1971319)" />
    <linearGradient
       id="linearGradient3737-0-2">
      <stop
         id="stop3739-6-6"
         style="stop-color:#ffffff;stop-opacity:1"
         offset="0" />
      <stop
         id="stop3741-0-7"
         style="stop-color:#ffffff;stop-opacity:0"
         offset="1" />
    </linearGradient>
    <linearGradient
       x1="48"
       y1="90"
       x2="48"
       y2="5.9877172"
       id="linearGradient3100"
       xlink:href="#linearGradient3700-7"
       gradientUnits="userSpaceOnUse" />
    <linearGradient
       id="linearGradient3737-9-3">
      <stop
         id="stop3739-2-0"
         style="stop-color:#ffffff;stop-opacity:1"
         offset="0" />
      <stop
         id="stop3741-1-9"
         style="stop-color:#ffffff;stop-opacity:0"
         offset="1" />
    </linearGradient>
    <clipPath
       id="clipPath3613-0">
      <rect
         width="84"
         height="84"
         rx="6"
         ry="6"
         x="6"
         y="6"
         id="rect3615-6"
         style="fill:#ffffff;fill-opacity:1;fill-rule:nonzero;stroke:none" />
    </clipPath>
    <filter
       x="-0.192"
       y="-0.192"
       width="1.3839999"
       height="1.3839999"
       color-interpolation-filters="sRGB"
       id="filter3794">
      <feGaussianBlur
         id="feGaussianBlur3796"
         stdDeviation="5.28" />
    </filter>
    <linearGradient
       x1="48"
       y1="20.220806"
       x2="48"
       y2="138.66119"
       id="linearGradient3121"
       xlink:href="#linearGradient3737-9-3"
       gradientUnits="userSpaceOnUse" />
    <clipPath
       id="clipPath3144">
      <path
         d="m 118.5,17 c -3.58985,0 -6.5,2.014719 -6.5,4.5 0.10443,0.9272 0.69059,2.098034 1,2.5 1.5,2 1.5,3.25 1.125,4 L 102,28 c -2.216,0 -4,1.784 -4,4 l 0,10.125 c 0.75,0.375 2,0.375 4,-1.125 0.40197,-0.309411 1.5728,-0.89557 2.5,-1 2.48528,0 4.5,2.910149 4.5,6.5 0,3.589851 -2.01472,6.5 -4.5,6.5 -0.76276,-0.01292 -1.92237,-0.695105 -2.5,-1 -2,-1.5 -3.25,-1.5 -4,-1.125 L 98,64 c 0,2.216 1.784,4 4,4 l 16.125,0 C 118.5,67.25 118.5,66 117,64 c -0.30941,-0.401966 -0.89557,-1.5728 -1,-2.5 0,-2.485281 2.91015,-4.5 6.5,-4.5 3.58985,0 6.5,2.014719 6.5,4.5 -0.0129,0.762762 -0.6951,1.922371 -1,2.5 -1.5,2 -1.5,3.25 -1.125,4 L 134,68 c 2.216,0 4,-1.784 4,-4 l 0,-11.125 c 0.75,-0.375 2,-0.375 4,1.125 0.57763,0.304895 1.73724,0.987081 2.5,1 2.48528,0 4.5,-2.910149 4.5,-6.5 0,-3.589851 -2.01472,-6.5 -4.5,-6.5 -0.9272,0.10443 -2.09803,0.690589 -2.5,1 -2,1.5 -3.25,1.5 -4,1.125 L 138,32 c 0,-2.216 -1.784,-4 -4,-4 l -11.125,0 C 122.5,27.25 122.5,26 124,24 c 0.3049,-0.577629 0.98708,-1.737238 1,-2.5 0,-2.485281 -2.91015,-4.5 -6.5,-4.5 z"
         inkscape:connector-curvature="0"
         id="path3146"
         style="color:#000000;fill:url(#linearGradient3148);fill-opacity:1;fill-rule:nonzero;stroke:none;stroke-width:2;marker:none;visibility:visible;display:inline;overflow:visible;enable-background:accumulate" />
    </clipPath>
    <linearGradient
       x1="40"
       y1="24"
       x2="40"
       y2="64"
       id="linearGradient3148"
       xlink:href="#linearGradient3960"
       gradientUnits="userSpaceOnUse"
       gradientTransform="translate(70,0)" />
    <linearGradient
       x1="40"
       y1="24"
       x2="40"
       y2="64"
       id="linearGradient3150"
       xlink:href="#linearGradient3960"
       gradientUnits="userSpaceOnUse"
       gradientTransform="translate(70,0)" />
    <linearGradient
       inkscape:collect="always"
       xlink:href="#linearGradient5439"
       id="linearGradient48554"
       gradientUnits="userSpaceOnUse"
       gradientTransform="matrix(2.3671674,0,0,2.3723637,-593.01719,-1146.4123)"
       x1="282.71295"
       y1="553.00134"
       x2="313.54166"
       y2="483.33371" />
    <linearGradient
       id="linearGradient5439">
      <stop
         style="stop-color:#ffffff;stop-opacity:1;"
         offset="0"
         id="stop5441" />
      <stop
         style="stop-color:#000000;stop-opacity:1;"
         offset="1"
         id="stop5443" />
    </linearGradient>
    <linearGradient
       inkscape:collect="always"
       xlink:href="#linearGradient3960"
       id="linearGradient48557"
       gradientUnits="userSpaceOnUse"
       gradientTransform="matrix(1.6284723,0,0,1.6284723,47.012352,2.3646658)"
       x1="22.5"
       y1="2.3154802"
       x2="42.233582"
       y2="47.28299" />
    <linearGradient
       id="linearGradient5316">
      <stop
         style="stop-color:#87c7ff;stop-opacity:1;"
         offset="0"
         id="stop5320" />
      <stop
         style="stop-color:#74aadb;stop-opacity:1;"
         offset="1"
         id="stop5322" />
    </linearGradient>
    <linearGradient
       inkscape:collect="always"
       xlink:href="#linearGradient5344"
       id="linearGradient48560"
       gradientUnits="userSpaceOnUse"
       gradientTransform="matrix(2.6666667,0,0,2.6666667,-1133.8383,-1417.1628)"
       x1="492.44766"
       y1="503.7771"
       x2="434.51016"
       y2="572.7771" />
    <linearGradient
       id="linearGradient5344">
      <stop
         style="stop-color:#000000;stop-opacity:1;"
         offset="0"
         id="stop5346" />
      <stop
         style="stop-color:#000000;stop-opacity:0;"
         offset="1"
         id="stop5348" />
    </linearGradient>
    <linearGradient
       inkscape:collect="always"
       xlink:href="#linearGradient9863"
       id="linearGradient48564"
       gradientUnits="userSpaceOnUse"
       gradientTransform="matrix(2.6666667,0,0,2.6666667,-2413.8383,-1096.6224)"
       x1="927.93488"
       y1="459.10907"
       x2="927.93488"
       y2="410.98141" />
    <linearGradient
       id="linearGradient9863">
      <stop
         style="stop-color:#2f445a;stop-opacity:1;"
         offset="0"
         id="stop9865" />
      <stop
         style="stop-color:#415f7c;stop-opacity:1"
         offset="1"
         id="stop9867" />
    </linearGradient>
    <linearGradient
       inkscape:collect="always"
       xlink:href="#linearGradient5344"
       id="linearGradient48571"
       gradientUnits="userSpaceOnUse"
       gradientTransform="matrix(2.6666667,0,0,2.6666667,-1293.8383,-1683.1224)"
       x1="519.31262"
       y1="723.67017"
       x2="511.42725"
       y2="667.20789" />
    <linearGradient
       id="linearGradient26147">
      <stop
         style="stop-color:#000000;stop-opacity:1;"
         offset="0"
         id="stop26149" />
      <stop
         style="stop-color:#000000;stop-opacity:0;"
         offset="1"
         id="stop26151" />
    </linearGradient>
    <linearGradient
       inkscape:collect="always"
       xlink:href="#linearGradient5362"
       id="linearGradient48574"
       gradientUnits="userSpaceOnUse"
       gradientTransform="matrix(2.6666667,0,0,2.6666667,-1293.8383,-1683.1224)"
       x1="504.91962"
       y1="635.44617"
       x2="504.48212"
       y2="641.10242" />
    <linearGradient
       id="linearGradient5362">
      <stop
         style="stop-color:#ffffff;stop-opacity:1;"
         offset="0"
         id="stop5364" />
      <stop
         style="stop-color:#ffffff;stop-opacity:0;"
         offset="1"
         id="stop5366" />
    </linearGradient>
  </defs>
  <metadata
     id="metadata2413">
    <rdf:RDF>
      <cc:Work
         rdf:about="">
        <dc:format>image/svg+xml</dc:format>
        <dc:type
           rdf:resource="http://purl.org/dc/dcmitype/StillImage" />
        <dc:title />
      </cc:Work>
    </rdf:RDF>
  </metadata>
  <g
     id="layer2"
     style="display:none"
     transform="translate(0,32)">
    <rect
       width="86"
       height="85"
       rx="6"
       ry="6"
       x="5"
       y="7"
       id="rect3745"
       style="opacity:0.9;fill:url(#ButtonShadow);fill-opacity:1;fill-rule:nonzero;stroke:none;filter:url(#filter3174)" />
  </g>
  <g
     id="layer3"
     style="display:none"
     transform="translate(0,32)">
    <rect
       width="66"
       height="66"
       rx="12"
       ry="12"
       x="15"
       y="15"
       clip-path="url(#clipPath3613-0)"
       id="rect3171"
       style="opacity:0.5;fill:url(#linearGradient3121);fill-opacity:1;fill-rule:nonzero;stroke:#ffffff;stroke-width:0.5;stroke-linecap:round;stroke-linejoin:miter;stroke-miterlimit:4;stroke-opacity:1;stroke-dasharray:none;stroke-dashoffset:0;display:inline;filter:url(#filter3794)" />
  </g>
  <path
     inkscape:connector-curvature="0"
     inkscape:export-ydpi="57.964222"
     inkscape:export-xdpi="57.964222"
     inkscape:export-filename="/home/dafeba/DCV/tallerD/bocetos/08-09-22-hastaahora.png"
     sodipodi:nodetypes="ccccccccc"
     id="path27269"
     d="M 0.79115407,5.4829458 C 10.397288,6.4059358 14.464194,17.544206 14.457021,25.848976 l -0.124267,76.001604 c 0.0824,9.32704 4.949307,18.59987 17.544931,25.36312 l 87.756735,-14.97621 c -10.39399,-1.91664 -17.82527,-12.21507 -17.74111,-20.587204 l 0.20933,-62.83168 c 0.0912,-8.09776 -5.221942,-16.24539 -15.087328,-17.12003 L 0.79120737,5.4829458 z"
     style="fill:#f2f2f2;fill-rule:evenodd;stroke:none;display:inline" />
  <path
     inkscape:connector-curvature="0"
     inkscape:export-ydpi="57.964222"
     inkscape:export-xdpi="57.964222"
     inkscape:export-filename="/home/dafeba/DCV/tallerD/bocetos/08-09-22-hastaahora.png"
     style="fill:url(#linearGradient48574);fill-rule:evenodd;stroke:none;display:inline"
     d="M 0.79115407,5.4829458 C 10.397288,6.4059358 14.464194,17.544206 14.457021,25.848976 l 87.645569,2.96963 c 0.0912,-8.09776 -5.221945,-16.24539 -15.087332,-17.12003 L 0.79115407,5.4829458 z"
     id="path27271"
     sodipodi:nodetypes="ccccc" />
  <path
     inkscape:connector-curvature="0"
     inkscape:export-ydpi="57.964222"
     inkscape:export-xdpi="57.964222"
     inkscape:export-filename="/home/dafeba/DCV/tallerD/bocetos/08-09-22-hastaahora.png"
     style="fill:url(#linearGradient48571);fill-rule:evenodd;stroke:none;display:inline"
     d="m 14.332808,101.85058 c 0.0824,9.32704 4.949306,18.59987 17.54493,25.36312 l 87.756742,-14.97621 c -10.394,-1.91664 -17.82528,-12.21507 -17.74112,-20.587204 L 14.332808,101.85058 z"
     id="path27273"
     sodipodi:nodetypes="ccccc" />
  <path
     inkscape:connector-curvature="0"
     inkscape:export-ydpi="57.964222"
     inkscape:export-xdpi="57.964222"
     inkscape:export-filename="/home/dafeba/DCV/tallerD/bocetos/08-09-22-hastaahora.png"
     sodipodi:nodetypes="ccccc"
     id="path27275"
     d="m 19.495128,39.176786 79.333327,0.33334 0.16667,1.66666 -79.499997,0.66667 0,-2.66667 z"
     style="fill:#666666;fill-rule:evenodd;stroke:none;display:inline" />
  <path
     inkscape:connector-curvature="0"
     inkscape:export-ydpi="57.964222"
     inkscape:export-xdpi="57.964222"
     inkscape:export-filename="/home/dafeba/DCV/tallerD/bocetos/08-09-22-hastaahora.png"
     style="fill:#666666;fill-rule:evenodd;stroke:none;display:inline"
     d="m 19.495128,51.510126 79.333327,-2.16667 0.16667,1.66667 -79.499997,3.16666 0,-2.66666 z"
     id="path27277"
     sodipodi:nodetypes="ccccc" />
  <path
     inkscape:connector-curvature="0"
     inkscape:export-ydpi="57.964222"
     inkscape:export-xdpi="57.964222"
     inkscape:export-filename="/home/dafeba/DCV/tallerD/bocetos/08-09-22-hastaahora.png"
     sodipodi:nodetypes="ccccc"
     id="path27279"
     d="m 19.495128,63.843456 79.333327,-3.5 0.16667,1.66667 -79.499997,4.5 0,-2.66667 z"
     style="fill:#666666;fill-rule:evenodd;stroke:none;display:inline" />
  <path
     inkscape:connector-curvature="0"
     inkscape:export-ydpi="57.964222"
     inkscape:export-xdpi="57.964222"
     inkscape:export-filename="/home/dafeba/DCV/tallerD/bocetos/08-09-22-hastaahora.png"
     style="fill:#666666;fill-rule:evenodd;stroke:none;display:inline"
     d="m 20.161794,77.343456 78.666661,-5.83333 0.16667,1.66666 -78.833331,6.83334 0,-2.66667 z"
     id="path27281"
     sodipodi:nodetypes="ccccc" />
  <path
     inkscape:connector-curvature="0"
     sodipodi:nodetypes="cscccccccccc"
     id="path27283"
     d="m 1.6750474,5.4046858 c 3.2253067,0.30989 4.9422933,1.68298 6.9741605,3.80216 4.0197861,4.1924802 5.8125861,10.9590602 5.8078131,16.4754602 l -0.124267,76.001604 c 0.0736,8.3095 3.944347,16.57598 13.694664,23.06318 2.440427,1.60994 5.685814,1.60994 9.116907,1.23848 L 119.63442,112.07082 C 109.24043,110.15418 101.80915,99.855746 101.89331,91.483616 l 0.20933,-62.83168 c 0.0912,-8.09776 -5.221942,-16.24539 -15.087328,-17.12003 L 9.8309409,5.9679358 1.6751007,5.4046858 z"
     style="fill:none;stroke:url(#linearGradient48564);stroke-width:2.66666675;stroke-linecap:round;stroke-linejoin:round;stroke-miterlimit:4;stroke-opacity:1;stroke-dasharray:none;display:inline"
     inkscape:export-filename="/home/dafeba/DCV/tallerD/bocetos/08-09-22-hastaahora.png"
     inkscape:export-xdpi="57.964222"
     inkscape:export-ydpi="57.964222" />
  <path
     inkscape:connector-curvature="0"
     inkscape:export-ydpi="57.964222"
     inkscape:export-xdpi="57.964222"
     inkscape:export-filename="/home/dafeba/DCV/tallerD/bocetos/08-09-22-hastaahora.png"
     sodipodi:nodetypes="ccccc"
     id="path27285"
     d="m 19.495128,91.676786 79.333327,-8.83333 0.16667,1.66667 -79.499997,9.83333 0,-2.66667 z"
     style="fill:#666666;fill-rule:evenodd;stroke:none;display:inline" />
  <rect
     inkscape:export-ydpi="57.964222"
     inkscape:export-xdpi="57.964222"
     inkscape:export-filename="/home/dafeba/DCV/tallerD/bocetos/08-09-22-hastaahora.png"
     ry="4.7293906"
     rx="4.7293906"
     y="8.4928284"
     x="41.355553"
     height="78.166664"
     width="78.166664"
     id="rect27287"
     style="fill:url(#linearGradient48560);fill-opacity:1;stroke:none;display:inline" />
  <rect
     inkscape:export-ydpi="57.964222"
     inkscape:export-xdpi="57.964222"
     inkscape:export-filename="/home/dafeba/DCV/tallerD/bocetos/08-09-22-hastaahora.png"
     style="fill:url(#linearGradient48557);fill-opacity:1;stroke:#000000;stroke-width:1.33333337;stroke-miterlimit:4;stroke-dasharray:none;display:inline"
     id="rect27289"
     width="78.166664"
     height="78.166664"
     x="47.012375"
     y="2.3645935"
     rx="4.7293906"
     ry="4.7293906" />
  <path
     style="color:#000000;fill:#ffffff;fill-opacity:1;fill-rule:nonzero;stroke:none;stroke-width:2;marker:none;visibility:visible;display:inline;overflow:visible;enable-background:accumulate"
     id="rect4096"
     clip-path="url(#clipPath3144)"
     transform="matrix(1.3190429,0,0,1.3190429,-76.806089,-14.611404)"
     inkscape:connector-curvature="0"
     d="m 118.5,17 c -3.58985,0 -6.5,2.014719 -6.5,4.5 0.10443,0.9272 0.69059,2.098034 1,2.5 1.5,2 1.5,3.25 1.125,4 L 102,28 c -2.216,0 -4,1.784 -4,4 l 0,10.125 c 0.75,0.375 2,0.375 4,-1.125 0.40197,-0.309411 1.5728,-0.89557 2.5,-1 2.48528,0 4.5,2.910149 4.5,6.5 0,3.589851 -2.01472,6.5 -4.5,6.5 -0.76276,-0.01292 -1.92237,-0.695105 -2.5,-1 -2,-1.5 -3.25,-1.5 -4,-1.125 L 98,64 c 0,2.216 1.784,4 4,4 l 16.125,0 C 118.5,67.25 118.5,66 117,64 c -0.30941,-0.401966 -0.89557,-1.5728 -1,-2.5 0,-2.485281 2.91015,-4.5 6.5,-4.5 3.58985,0 6.5,2.014719 6.5,4.5 -0.0129,0.762762 -0.6951,1.922371 -1,2.5 -1.5,2 -1.5,3.25 -1.125,4 L 134,68 c 2.216,0 4,-1.784 4,-4 l 0,-11.125 c 0.75,-0.375 2,-0.375 4,1.125 0.57763,0.304895 1.73724,0.987081 2.5,1 2.48528,0 4.5,-2.910149 4.5,-6.5 0,-3.589851 -2.01472,-6.5 -4.5,-6.5 -0.9272,0.10443 -2.09803,0.690589 -2.5,1 -2,1.5 -3.25,1.5 -4,1.125 L 138,32 c 0,-2.216 -1.784,-4 -4,-4 l -11.125,0 C 122.5,27.25 122.5,26 124,24 c 0.3049,-0.577629 0.98708,-1.737238 1,-2.5 0,-2.485281 -2.91015,-4.5 -6.5,-4.5 z" />
</svg>
