<?xml version="1.0" encoding="UTF-8" standalone="no"?>
<!-- Created with Inkscape (http://www.inkscape.org/) -->
<svg
   xmlns:dc="http://purl.org/dc/elements/1.1/"
   xmlns:cc="http://creativecommons.org/ns#"
   xmlns:rdf="http://www.w3.org/1999/02/22-rdf-syntax-ns#"
   xmlns:svg="http://www.w3.org/2000/svg"
   xmlns="http://www.w3.org/2000/svg"
   xmlns:xlink="http://www.w3.org/1999/xlink"
   xmlns:sodipodi="http://sodipodi.sourceforge.net/DTD/sodipodi-0.dtd"
   xmlns:inkscape="http://www.inkscape.org/namespaces/inkscape"
   width="128"
   height="128"
   id="svg2"
   sodipodi:version="0.32"
   inkscape:version="0.46"
   version="1.0"
   sodipodi:docname="gtk-clear.svg"
   inkscape:output_extension="org.inkscape.output.svg.inkscape">
  <defs
     id="defs4">
    <linearGradient
       y2="745.66449"
       x2="586.93988"
       y1="626.40784"
       x1="492.65778"
       gradientTransform="matrix(2.6765239,0,0,2.6765239,-1298.6208,-1689.8172)"
       gradientUnits="userSpaceOnUse"
       id="linearGradient10335"
       xlink:href="#linearGradient5439"
       inkscape:collect="always" />
    <linearGradient
       y2="637.52454"
       x2="518.86896"
       y1="661.19366"
       x1="513.96362"
       gradientTransform="matrix(2.6765239,0,0,2.6765239,-1298.6208,-1689.8172)"
       gradientUnits="userSpaceOnUse"
       id="linearGradient10327"
       xlink:href="#linearGradient5344"
       inkscape:collect="always" />
    <linearGradient
       y2="650.17572"
       x2="519.57452"
       y1="632.9248"
       x1="512.30157"
       gradientTransform="matrix(2.6765239,0,0,2.6765239,-1298.6208,-1689.8172)"
       gradientUnits="userSpaceOnUse"
       id="linearGradient10321"
       xlink:href="#linearGradient5344"
       inkscape:collect="always" />
    <linearGradient
       y2="979.54144"
       x2="502.00113"
       y1="940.28815"
       x1="476.7262"
       gradientTransform="matrix(2.6765239,0,0,2.6765239,-1298.6208,-2514.1865)"
       gradientUnits="userSpaceOnUse"
       id="linearGradient10313"
       xlink:href="#linearGradient5362"
       inkscape:collect="always" />
    <linearGradient
       y2="944.34961"
       x2="494.40411"
       y1="975.97461"
       x1="556.40369"
       gradientTransform="matrix(2.6765239,0,0,2.6765239,-1298.6208,-2514.1865)"
       gradientUnits="userSpaceOnUse"
       id="linearGradient10307"
       xlink:href="#linearGradient5344"
       inkscape:collect="always" />
    <linearGradient
       y2="945.75403"
       x2="495.68619"
       y1="938.40631"
       x1="487.4212"
       gradientTransform="matrix(2.6765239,0,0,2.6765239,-1298.6208,-2514.1865)"
       gradientUnits="userSpaceOnUse"
       id="linearGradient10303"
       xlink:href="#linearGradient5362"
       inkscape:collect="always" />
    <linearGradient
       gradientUnits="userSpaceOnUse"
       y2="112.66784"
       x2="509.19516"
       y1="157.46848"
       x1="509.19516"
       id="linearGradient10339"
       xlink:href="#linearGradient9863"
       inkscape:collect="always"
       gradientTransform="matrix(2.6765239,0,0,2.6765239,-1298.9218,-298.02471)" />
    <linearGradient
       y2="671.72296"
       x2="520.39868"
       y1="652.32129"
       x1="507.57828"
       gradientTransform="matrix(2.4993378,-5.8003287e-2,4.3271185e-2,2.4990827,-1237.5897,-1542.7369)"
       gradientUnits="userSpaceOnUse"
       id="linearGradient10721"
       xlink:href="#linearGradient5316"
       inkscape:collect="always" />
    <linearGradient
       y2="-143.35732"
       x2="571.42249"
       y1="-107.73232"
       x1="603.46594"
       gradientTransform="matrix(2.6765239,0,0,2.6765239,-1459.5132,451.40197)"
       gradientUnits="userSpaceOnUse"
       id="linearGradient10723"
       xlink:href="#linearGradient5344"
       inkscape:collect="always" />
    <linearGradient
       gradientTransform="matrix(2.6765239,0,0,2.6765239,-2262.1694,-618.2613)"
       gradientUnits="userSpaceOnUse"
       y2="233.10092"
       x2="869.39996"
       y1="278.01718"
       x1="869.39996"
       id="linearGradient10552"
       xlink:href="#linearGradient9863"
       inkscape:collect="always" />
    <linearGradient
       id="linearGradient12594">
      <stop
         id="stop12596"
         offset="0"
         style="stop-color:#e9b551;stop-opacity:1;" />
      <stop
         id="stop12598"
         offset="1"
         style="stop-color:#e9b551;stop-opacity:0;" />
    </linearGradient>
    <linearGradient
       id="linearGradient5316">
      <stop
         style="stop-color:#b995da;stop-opacity:1;"
         offset="0"
         id="stop5320" />
      <stop
         style="stop-color:#766287;stop-opacity:1;"
         offset="1"
         id="stop5322" />
    </linearGradient>
    <linearGradient
       id="linearGradient9863">
      <stop
         style="stop-color:#2f445a;stop-opacity:1;"
         offset="0"
         id="stop9865" />
      <stop
         style="stop-color:#415f7c;stop-opacity:1"
         offset="1"
         id="stop9867" />
    </linearGradient>
    <linearGradient
       id="linearGradient12336">
      <stop
         id="stop12338"
         offset="0"
         style="stop-color:#ff6e00;stop-opacity:1;" />
      <stop
         id="stop12340"
         offset="1"
         style="stop-color:#eb2600;stop-opacity:1;" />
    </linearGradient>
    <linearGradient
       id="linearGradient5362">
      <stop
         style="stop-color:#ffffff;stop-opacity:1;"
         offset="0"
         id="stop5364" />
      <stop
         style="stop-color:#ffffff;stop-opacity:0;"
         offset="1"
         id="stop5366" />
    </linearGradient>
    <linearGradient
       id="linearGradient5439">
      <stop
         style="stop-color:#ffffff;stop-opacity:1;"
         offset="0"
         id="stop5441" />
      <stop
         style="stop-color:#000000;stop-opacity:1;"
         offset="1"
         id="stop5443" />
    </linearGradient>
    <linearGradient
       inkscape:collect="always"
       xlink:href="#linearGradient5439"
       id="linearGradient13309"
       gradientUnits="userSpaceOnUse"
       x1="499.90704"
       y1="953.39532"
       x2="652.75177"
       y2="1116.9413"
       gradientTransform="matrix(2.6765239,0,0,2.6765239,-1298.6765,-2514.903)" />
    <linearGradient
       inkscape:collect="always"
       id="linearGradient5398">
      <stop
         style="stop-color:#87c6ff;stop-opacity:1;"
         offset="0"
         id="stop5400" />
      <stop
         style="stop-color:#87c6ff;stop-opacity:0"
         offset="1"
         id="stop5402" />
    </linearGradient>
    <linearGradient
       inkscape:collect="always"
       xlink:href="#linearGradient5398"
       id="linearGradient13322"
       gradientUnits="userSpaceOnUse"
       x1="500.87799"
       y1="948.11993"
       x2="500.87799"
       y2="953.17468"
       gradientTransform="matrix(2.6765239,0,0,2.6765239,-1298.6765,-2514.903)" />
    <linearGradient
       id="linearGradient5344">
      <stop
         style="stop-color:#000000;stop-opacity:1;"
         offset="0"
         id="stop5346" />
      <stop
         style="stop-color:#000000;stop-opacity:0;"
         offset="1"
         id="stop5348" />
    </linearGradient>
    <linearGradient
       inkscape:collect="always"
       xlink:href="#linearGradient5344"
       id="linearGradient13314"
       gradientUnits="userSpaceOnUse"
       x1="544.89001"
       y1="919.05762"
       x2="506.01498"
       y2="969.80762"
       gradientTransform="translate(-485.21014,-859.4386)" />
    <linearGradient
       id="linearGradient8702">
      <stop
         id="stop8704"
         offset="0"
         style="stop-color:#b995da;stop-opacity:1;" />
      <stop
         id="stop8706"
         offset="1"
         style="stop-color:#766287;stop-opacity:1;" />
    </linearGradient>
    <linearGradient
       inkscape:collect="always"
       xlink:href="#linearGradient8702"
       id="linearGradient13316"
       gradientUnits="userSpaceOnUse"
       gradientTransform="matrix(2.6765239,0,0,2.6765239,-1779.5422,-994.63744)"
       x1="700.13062"
       y1="378.86951"
       x2="707.80457"
       y2="395.74899" />
    <inkscape:perspective
       sodipodi:type="inkscape:persp3d"
       inkscape:vp_x="0 : 526.18109 : 1"
       inkscape:vp_y="0 : 1000 : 0"
       inkscape:vp_z="744.09448 : 526.18109 : 1"
       inkscape:persp3d-origin="372.04724 : 350.78739 : 1"
       id="perspective10" />
  </defs>
  <sodipodi:namedview
     id="base"
     pagecolor="#ffffff"
     bordercolor="#666666"
     borderopacity="1.0"
     inkscape:pageopacity="0.0"
     inkscape:pageshadow="2"
     inkscape:zoom="1.7692308"
     inkscape:cx="154.47041"
     inkscape:cy="74.247968"
     inkscape:document-units="px"
     inkscape:current-layer="layer1"
     showgrid="false"
     inkscape:showpageshadow="false"
     inkscape:window-width="1014"
     inkscape:window-height="715"
     inkscape:window-x="0"
     inkscape:window-y="6"
     showguides="true"
     inkscape:guide-bbox="true" />
  <metadata
     id="metadata7">
    <rdf:RDF>
      <cc:Work
         rdf:about="">
        <dc:format>image/svg+xml</dc:format>
        <dc:type
           rdf:resource="http://purl.org/dc/dcmitype/StillImage" />
      </cc:Work>
    </rdf:RDF>
  </metadata>
  <g
     inkscape:label="Capa 1"
     inkscape:groupmode="layer"
     id="layer1">
    <path
       style="fill:url(#linearGradient10335);fill-rule:evenodd;stroke:none;stroke-width:1;stroke-linecap:butt;stroke-linejoin:miter;stroke-miterlimit:4;stroke-dasharray:none;stroke-opacity:1;display:inline"
       d="M 6.9456122,9.7659803 L 36.254247,5.5838849 C 40.173133,5.0246253 47.93631,4.6168568 52.091774,4.9816938 L 120.4639,10.569178 C 123.45253,11.063961 126.84578,13.719822 126.15962,17.8539 L 105.88402,104.79861 C 104.9824,109.06659 101.85245,112.84916 97.695111,113.58098 L 47.511252,121.51674 C 42.807341,122.53068 38.537108,122.09899 34.500937,120.88719 L 23.643669,117.32514 C 19.87143,115.6715 17.643224,112.99905 16.871903,109.48606 L 2.3060722,16.337168 C 2.3449889,12.768853 3.6194424,10.121797 6.9456122,9.7659803 z"
       id="path10235"
       sodipodi:nodetypes="ccccccccccccc"
       inkscape:export-filename="/home/dafeba/DCV/tallerD/bocetos/08-09-22-hastaahora.png"
       inkscape:export-xdpi="57.964222"
       inkscape:export-ydpi="57.964222" />
    <path
       inkscape:export-ydpi="57.964222"
       inkscape:export-xdpi="57.964222"
       inkscape:export-filename="/home/dafeba/DCV/tallerD/bocetos/08-09-22-hastaahora.png"
       sodipodi:nodetypes="cccccccc"
       id="path10239"
       d="M 58.72214,48.579592 L 107.21958,47.971245 C 111.33767,47.855431 112.82944,45.846647 113.27815,42.96494 L 117.83218,18.251819 L 110.94219,42.799638 C 110.45927,44.727833 108.95056,45.387221 107.37281,45.615368 L 54.121222,46.596555 C 54.998426,47.955105 56.456275,48.700009 58.72214,48.579592 z"
       style="fill:url(#linearGradient10327);fill-rule:evenodd;stroke:none;stroke-width:1px;stroke-linecap:butt;stroke-linejoin:miter;stroke-opacity:1;display:inline" />
    <path
       sodipodi:nodetypes="ccccccc"
       id="path10243"
       d="M 58.72214,48.579592 L 107.21958,47.971245 C 111.33767,47.855431 112.82944,45.846647 113.27815,42.96494 L 117.83218,21.090701 L 53.069268,17.52723 L 53.004683,42.012794 C 53.116936,46.088417 54.549359,48.801342 58.72214,48.579592 z"
       style="fill:url(#linearGradient10321);fill-rule:evenodd;stroke:none;stroke-width:1px;stroke-linecap:butt;stroke-linejoin:miter;stroke-opacity:1;display:inline"
       inkscape:export-filename="/home/dafeba/DCV/tallerD/bocetos/08-09-22-hastaahora.png"
       inkscape:export-xdpi="57.964222"
       inkscape:export-ydpi="57.964222" />
    <path
       inkscape:export-ydpi="57.964222"
       inkscape:export-xdpi="57.964222"
       inkscape:export-filename="/home/dafeba/DCV/tallerD/bocetos/08-09-22-hastaahora.png"
       sodipodi:nodetypes="cccccccccc"
       id="path10251"
       d="M 6.9456122,9.5294023 L 39.348978,5.7511677 C 37.412968,6.1956045 36.26589,9.1830869 36.325389,13.534017 L 36.386949,113.67474 C 36.454103,118.34714 38.839207,121.36474 42.515921,122.04878 C 40.279311,121.93071 36.585226,121.51296 34.500937,120.88719 L 23.643669,117.32514 C 19.87143,115.6715 17.643224,112.99905 16.871903,109.48606 L 2.3060722,16.337168 C 2.3449889,12.768853 1.6677213,9.7077927 6.9456122,9.5294023 z"
       style="fill:url(#linearGradient10313);fill-rule:evenodd;stroke:none;stroke-width:1;stroke-linecap:butt;stroke-linejoin:miter;stroke-miterlimit:4;stroke-dasharray:none;stroke-opacity:1;display:inline" />
    <path
       inkscape:export-ydpi="57.964222"
       inkscape:export-xdpi="57.964222"
       inkscape:export-filename="/home/dafeba/DCV/tallerD/bocetos/08-09-22-hastaahora.png"
       sodipodi:nodetypes="ccccccccc"
       id="path10253"
       d="M 2.6186367,10.191387 L 36.254247,5.5838849 C 40.173133,5.0246253 47.93631,4.6168568 52.091774,4.9816938 L 125.43196,10.983183 C 128.47971,11.123085 127.61289,17.899026 126.03961,17.833907 L 52.096994,11.899598 C 47.567914,11.569369 42.092549,11.700572 37.090313,12.221504 L 2.2469478,16.278016 C 1.3239753,16.389922 -0.093806192,10.618587 2.6186367,10.191387 z"
       style="fill:#b3b3b3;fill-opacity:1;fill-rule:evenodd;stroke:none;stroke-width:1;stroke-linecap:butt;stroke-linejoin:miter;stroke-miterlimit:4;stroke-dasharray:none;stroke-opacity:1;display:inline" />
    <path
       style="fill:url(#linearGradient10307);fill-rule:evenodd;stroke:none;stroke-width:1;stroke-linecap:butt;stroke-linejoin:miter;stroke-miterlimit:4;stroke-dasharray:none;stroke-opacity:1;display:inline"
       d="M 36.42153,9.6823122 C 40.340416,9.1230525 47.852669,8.7152841 52.008133,9.080121 L 127.35033,15.688325 C 127.13214,16.897792 126.63677,17.858611 126.03961,17.833907 L 52.096994,11.899598 C 47.567914,11.569369 42.092549,11.700572 37.090313,12.221504 L 36.532284,12.226188 C 35.427201,12.350271 35.349127,9.8261218 36.42153,9.6823122 z"
       id="path10255"
       sodipodi:nodetypes="cccccccc"
       inkscape:export-filename="/home/dafeba/DCV/tallerD/bocetos/08-09-22-hastaahora.png"
       inkscape:export-xdpi="57.964222"
       inkscape:export-ydpi="57.964222" />
    <path
       style="fill:url(#linearGradient10303);fill-rule:evenodd;stroke:none;stroke-width:1;stroke-linecap:butt;stroke-linejoin:miter;stroke-miterlimit:4;stroke-dasharray:none;stroke-opacity:1;display:inline"
       d="M 2.6186367,10.191387 L 36.254247,5.5838849 C 34.574139,6.4149991 33.929151,8.1087302 33.577375,10.046828 L 1.1031085,13.744125 C 0.80232078,12.191848 1.1682551,10.419828 2.6186367,10.191387 z"
       id="path10257"
       sodipodi:nodetypes="ccccc"
       inkscape:export-filename="/home/dafeba/DCV/tallerD/bocetos/08-09-22-hastaahora.png"
       inkscape:export-xdpi="57.964222"
       inkscape:export-ydpi="57.964222" />
    <path
       sodipodi:nodetypes="cccccccccccccc"
       id="path10259"
       d="M 48.373467,4.8720634 C 44.25328,4.8589484 39.184612,5.2055583 36.245468,5.6249696 L 2.6216344,10.225111 C 0.44147182,10.534009 1.5415767,16.536595 2.2870689,17.371002 L 16.840668,109.50728 C 17.611989,113.02049 19.843327,115.63251 23.615619,117.28606 L 34.488999,120.88251 C 38.52517,122.09444 42.833143,122.56577 47.537053,121.55164 L 97.721877,113.60584 C 101.87921,112.87408 105.0172,109.09162 105.91873,104.82336 L 124.79965,18.723503 C 126.49376,18.422126 127.74715,11.115323 124.75659,10.978017 L 52.053687,4.9558386 C 51.014821,4.8643015 49.746872,4.8763458 48.373467,4.8720634 z"
       style="fill:none;fill-rule:evenodd;stroke:url(#linearGradient10339);stroke-width:2.67652392;stroke-linecap:round;stroke-linejoin:round;stroke-miterlimit:4;stroke-dasharray:none;stroke-opacity:1;display:inline" />
    <path
       inkscape:export-ydpi="208.125"
       inkscape:export-xdpi="208.125"
       inkscape:export-filename="/home/dafeba/DCV/tallerD/bocetos/papelera.png"
       sodipodi:nodetypes="ccccccccccccccccccccccccccccccccccccccc"
       id="path10717"
       d="M 85.22623,58.026806 L 73.277585,58.382221 L 82.261953,71.846047 L 91.320354,67.026323 L 85.22623,58.026806 z M 72.28794,59.889613 L 62.152935,74.734685 L 59.625199,73.152672 L 61.157161,84.914389 L 73.000618,82.998854 L 70.309909,81.029976 L 78.694495,68.88185 L 72.28794,59.889613 z M 87.792455,70.858302 L 85.163252,81.466598 L 87.947961,79.839378 L 93.733749,89.080425 L 104.72618,87.653383 L 96.774789,75.18121 L 99.327871,73.715706 L 87.792455,70.858302 z M 56.062826,84.01695 L 48.616843,96.221444 L 54.570985,106.16176 L 63.429289,89.783735 L 56.062826,84.01695 z M 105.37671,89.122741 L 83.320492,92.36907 L 83.823571,103.37344 L 99.018759,100.98943 L 105.37671,89.122741 z M 72.660486,90.428884 L 72.640492,93.788832 L 62.348321,95.043372 L 55.463927,108.09421 L 72.761177,105.27083 L 72.889329,108.15858 L 81.933892,98.026465 L 72.660486,90.428884 z"
       style="fill:url(#linearGradient10721);fill-rule:evenodd;stroke:none;stroke-width:1px;stroke-linecap:butt;stroke-linejoin:miter;stroke-opacity:1;display:inline" />
    <path
       style="fill:url(#linearGradient10723);fill-rule:evenodd;stroke:none;stroke-width:1px;stroke-linecap:butt;stroke-linejoin:miter;stroke-opacity:1;display:inline"
       d="M 85.22623,58.026806 L 73.277585,58.382221 L 82.261953,71.846047 L 91.320354,67.026323 L 85.22623,58.026806 z M 72.28794,59.889613 L 62.152935,74.734685 L 59.625199,73.152672 L 61.157161,84.914389 L 73.000618,82.998854 L 70.309909,81.029976 L 78.694495,68.88185 L 72.28794,59.889613 z M 87.792455,70.858302 L 85.163252,81.466598 L 87.947961,79.839378 L 93.733749,89.080425 L 104.72618,87.653383 L 96.774789,75.18121 L 99.327871,73.715706 L 87.792455,70.858302 z M 56.062826,84.01695 L 48.616843,96.221444 L 54.570985,106.16176 L 63.429289,89.783735 L 56.062826,84.01695 z M 105.37671,89.122741 L 83.320492,92.36907 L 83.823571,103.37344 L 99.018759,100.98943 L 105.37671,89.122741 z M 72.660486,90.428884 L 72.640492,93.788832 L 62.348321,95.043372 L 55.463927,108.09421 L 72.761177,105.27083 L 72.889329,108.15858 L 81.933892,98.026465 L 72.660486,90.428884 z"
       id="path10719"
       sodipodi:nodetypes="ccccccccccccccccccccccccccccccccccccccc"
       inkscape:export-filename="/home/dafeba/DCV/tallerD/bocetos/papelera.png"
       inkscape:export-xdpi="208.125"
       inkscape:export-ydpi="208.125" />
  </g>
</svg>
