<?xml version="1.0" encoding="UTF-8" standalone="no"?>
<!-- Created with Inkscape (http://www.inkscape.org/) -->

<svg
   xmlns:dc="http://purl.org/dc/elements/1.1/"
   xmlns:cc="http://creativecommons.org/ns#"
   xmlns:rdf="http://www.w3.org/1999/02/22-rdf-syntax-ns#"
   xmlns:svg="http://www.w3.org/2000/svg"
   xmlns="http://www.w3.org/2000/svg"
   xmlns:xlink="http://www.w3.org/1999/xlink"
   xmlns:sodipodi="http://sodipodi.sourceforge.net/DTD/sodipodi-0.dtd"
   xmlns:inkscape="http://www.inkscape.org/namespaces/inkscape"
   width="128"
   height="128"
   id="svg52672"
   sodipodi:version="0.32"
   inkscape:version="0.48.3.1 r9886"
   version="1.0"
   sodipodi:docname="gtk-stop.svg"
   inkscape:output_extension="org.inkscape.output.svg.inkscape">
  <defs
     id="defs52674">
    <linearGradient
       inkscape:collect="always"
       xlink:href="#linearGradient5344"
       id="linearGradient58832"
       gradientUnits="userSpaceOnUse"
       gradientTransform="translate(-184,-280)"
       x1="519.31262"
       y1="723.67017"
       x2="511.42725"
       y2="667.20789" />
    <linearGradient
       inkscape:collect="always"
       xlink:href="#linearGradient5362"
       id="linearGradient58830"
       gradientUnits="userSpaceOnUse"
       gradientTransform="translate(-184,-280)"
       x1="504.91962"
       y1="635.44617"
       x2="504.48212"
       y2="641.10242" />
    <linearGradient
       inkscape:collect="always"
       xlink:href="#linearGradient5451"
       id="linearGradient58828"
       gradientUnits="userSpaceOnUse"
       gradientTransform="translate(-184,-280)"
       x1="484.70901"
       y1="674.9306"
       x2="533.03339"
       y2="674.9306" />
    <linearGradient
       id="linearGradient12336">
      <stop
         id="stop12338"
         offset="0"
         style="stop-color:#ff6e00;stop-opacity:1;" />
      <stop
         id="stop12340"
         offset="1"
         style="stop-color:#eb2600;stop-opacity:1;" />
    </linearGradient>
    <linearGradient
       id="linearGradient5451">
      <stop
         style="stop-color:#000000;stop-opacity:0.35099337;"
         offset="0"
         id="stop5453" />
      <stop
         id="stop5459"
         offset="0.45549738"
         style="stop-color:#000000;stop-opacity:0.29139072;" />
      <stop
         style="stop-color:#000000;stop-opacity:0;"
         offset="1"
         id="stop5455" />
    </linearGradient>
    <linearGradient
       id="linearGradient5439">
      <stop
         style="stop-color:#ffffff;stop-opacity:1;"
         offset="0"
         id="stop5441" />
      <stop
         style="stop-color:#000000;stop-opacity:1;"
         offset="1"
         id="stop5443" />
    </linearGradient>
    <linearGradient
       id="linearGradient5362">
      <stop
         style="stop-color:#ffffff;stop-opacity:1;"
         offset="0"
         id="stop5364" />
      <stop
         style="stop-color:#ffffff;stop-opacity:0;"
         offset="1"
         id="stop5366" />
    </linearGradient>
    <linearGradient
       id="linearGradient5344">
      <stop
         style="stop-color:#000000;stop-opacity:1;"
         offset="0"
         id="stop5346" />
      <stop
         style="stop-color:#000000;stop-opacity:0;"
         offset="1"
         id="stop5348" />
    </linearGradient>
    <linearGradient
       inkscape:collect="always"
       xlink:href="#linearGradient5344"
       id="linearGradient9922"
       gradientUnits="userSpaceOnUse"
       gradientTransform="matrix(2.6737318,0,0,2.6666667,-1297.2661,-1683.1224)"
       x1="544.09601"
       y1="724.27393"
       x2="505.62787"
       y2="652.76361" />
    <linearGradient
       inkscape:collect="always"
       xlink:href="#linearGradient5439"
       id="linearGradient9926"
       gradientUnits="userSpaceOnUse"
       gradientTransform="matrix(2.6737318,0,0,2.6666667,-976.41833,-1256.4557)"
       x1="372.19498"
       y1="478.91763"
       x2="393.67245"
       y2="498.9711" />
    <linearGradient
       inkscape:collect="always"
       xlink:href="#linearGradient5344"
       id="linearGradient9929"
       gradientUnits="userSpaceOnUse"
       gradientTransform="matrix(2.6737318,0,0,2.6666667,-1297.2661,-1683.1224)"
       x1="511.70114"
       y1="681.87585"
       x2="494.52274"
       y2="658.36462" />
    <linearGradient
       inkscape:collect="always"
       xlink:href="#linearGradient12336"
       id="linearGradient9932"
       gradientUnits="userSpaceOnUse"
       gradientTransform="matrix(2.5124758,0,0,2.5058368,-762.92055,-1176.9633)"
       x1="311.40219"
       y1="477.27896"
       x2="338.6427"
       y2="508.65906" />
    <linearGradient
       inkscape:collect="always"
       xlink:href="#linearGradient5362"
       id="linearGradient9935"
       gradientUnits="userSpaceOnUse"
       gradientTransform="matrix(2.6737318,0,0,2.6666667,-1297.2661,-1683.1224)"
       x1="497.40543"
       y1="631.66345"
       x2="486.63849"
       y2="648.24927" />
    <linearGradient
       inkscape:collect="always"
       xlink:href="#linearGradient5439"
       id="linearGradient9938"
       gradientUnits="userSpaceOnUse"
       gradientTransform="matrix(2.6737318,0,0,2.6666667,-815.99443,-1256.4557)"
       x1="314.59473"
       y1="473.02225"
       x2="389.19135"
       y2="560.27191" />
    <linearGradient
       inkscape:collect="always"
       xlink:href="#linearGradient5439"
       id="linearGradient9941"
       gradientUnits="userSpaceOnUse"
       gradientTransform="matrix(2.6737318,0,0,2.6666667,-815.99443,-1256.4557)"
       x1="308.74927"
       y1="465.0192"
       x2="275.71313"
       y2="574.98462" />
  </defs>
  <sodipodi:namedview
     id="base"
     pagecolor="#ffffff"
     bordercolor="#666666"
     borderopacity="1.0"
     inkscape:pageopacity="0.0"
     inkscape:pageshadow="2"
     inkscape:zoom="2"
     inkscape:cx="96.31318"
     inkscape:cy="70.673957"
     inkscape:document-units="px"
     inkscape:current-layer="layer1"
     showgrid="false"
     inkscape:window-width="1024"
     inkscape:window-height="713"
     inkscape:window-x="0"
     inkscape:window-y="0"
     inkscape:window-maximized="0" />
  <metadata
     id="metadata52677">
    <rdf:RDF>
      <cc:Work
         rdf:about="">
        <dc:format>image/svg+xml</dc:format>
        <dc:type
           rdf:resource="http://purl.org/dc/dcmitype/StillImage" />
      </cc:Work>
    </rdf:RDF>
  </metadata>
  <g
     inkscape:label="Capa 1"
     inkscape:groupmode="layer"
     id="layer1">
    <g
       inkscape:export-ydpi="89.986237"
       inkscape:export-xdpi="89.986237"
       inkscape:export-filename="/home/dafeba/DCV/tallerD/elementos.png"
       transform="translate(424,80)"
       id="g58804">
      <rect
         style="opacity:1;fill:#f2f2f2;fill-opacity:1;stroke:none;stroke-width:0.1;stroke-linecap:round;stroke-linejoin:round;stroke-miterlimit:4;stroke-dasharray:none;stroke-opacity:0.30041151"
         id="rect58806"
         width="47.823223"
         height="48"
         x="301.18933"
         y="351.1709" />
      <path
         style="fill:url(#linearGradient58828);fill-rule:evenodd;stroke:none;stroke-width:1px;stroke-linecap:butt;stroke-linejoin:miter;stroke-opacity:1"
         d="M 313.09207,399.15115 L 301.20351,395.7431 L 336.08403,390.7653 L 349.00384,390.68796 L 349.03336,399.15114 L 313.09207,399.15115 z"
         id="path58808"
         sodipodi:nodetypes="cccccc" />
      <path
         style="fill:#f2f2f2;fill-rule:evenodd;stroke:none;stroke-width:0.5;stroke-linecap:round;stroke-linejoin:round;stroke-miterlimit:4;stroke-dasharray:none;stroke-opacity:1"
         d="M 301.48601,353.22699 C 305.08831,353.57311 306.6134,357.74996 306.61071,360.86425 L 306.56413,389.36485 C 306.59506,392.86249 308.42012,396.3398 313.14348,398.87602 L 346.05226,393.25994 C 342.15451,392.5412 339.36778,388.67929 339.39934,385.53974 L 339.4778,361.97786 C 339.51198,358.9412 337.51957,355.88584 333.82005,355.55785 L 301.48601,353.22699 z"
         id="path58810"
         sodipodi:nodetypes="ccccccccc" />
      <path
         sodipodi:nodetypes="ccccc"
         id="path58812"
         d="M 301.48601,353.22699 C 305.08831,353.57311 306.6134,357.74996 306.61071,360.86425 L 339.4778,361.97786 C 339.51198,358.9412 337.51957,355.88584 333.82005,355.55785 L 301.48601,353.22699 z"
         style="fill:url(#linearGradient58830);fill-rule:evenodd;stroke:none;stroke-width:0.5;stroke-linecap:round;stroke-linejoin:round;stroke-miterlimit:4;stroke-dasharray:none;stroke-opacity:1" />
      <path
         sodipodi:nodetypes="ccccc"
         id="path58814"
         d="M 306.56413,389.36485 C 306.59506,392.86249 308.42012,396.3398 313.14348,398.87602 L 346.05226,393.25994 C 342.15451,392.5412 339.36778,388.67929 339.39934,385.53974 L 306.56413,389.36485 z"
         style="fill:url(#linearGradient58832);fill-rule:evenodd;stroke:none;stroke-width:0.5;stroke-linecap:round;stroke-linejoin:round;stroke-miterlimit:4;stroke-dasharray:none;stroke-opacity:1" />
      <path
         sodipodi:nodetypes="ccccccccc"
         id="path58816"
         d="M 301.48601,353.22699 C 305.08831,353.57311 306.6134,357.74996 306.61071,360.86425 L 306.56413,389.36485 C 306.59506,392.86249 308.42012,396.3398 313.14348,398.87602 L 346.05226,393.25994 C 342.15451,392.5412 339.36778,388.67929 339.39934,385.53974 L 339.4778,361.97786 C 339.51198,358.9412 337.51957,355.88584 333.82005,355.55785 L 301.48601,353.22699 z"
         style="fill:none;fill-rule:evenodd;stroke:#000000;stroke-width:0.5;stroke-linecap:round;stroke-linejoin:round;stroke-miterlimit:4;stroke-dasharray:none;stroke-opacity:1" />
    </g>
    <path
       sodipodi:nodetypes="ccccc"
       id="path58818"
       d="M 740.12551,445.55112 L 757.25142,445.69471 L 757.28066,447.8612 L 740.12588,448.00172 L 740.12551,445.55112 z"
       style="fill:#000000;fill-rule:evenodd;stroke:none;stroke-width:1px;stroke-linecap:butt;stroke-linejoin:miter;stroke-opacity:1" />
    <path
       style="fill:#000000;fill-rule:evenodd;stroke:none;stroke-width:1px;stroke-linecap:butt;stroke-linejoin:miter;stroke-opacity:1"
       d="M 744.24688,449.98324 L 754.3118,449.81922 L 754.31233,452.041 L 744.12653,452.24935 L 744.24688,449.98324 z"
       id="path58820"
       sodipodi:nodetypes="ccccc" />
    <path
       sodipodi:nodetypes="ccccc"
       id="path58822"
       d="M 737.18797,454.68729 L 758.68836,453.88522 L 758.75025,455.99227 L 737.18522,457.06633 L 737.18797,454.68729 z"
       style="fill:#000000;fill-rule:evenodd;stroke:none;stroke-width:1px;stroke-linecap:butt;stroke-linejoin:miter;stroke-opacity:1" />
    <path
       style="fill:#000000;fill-rule:evenodd;stroke:none;stroke-width:1px;stroke-linecap:butt;stroke-linejoin:miter;stroke-opacity:1"
       d="M 747.11973,459.21937 L 751.38008,458.93979 L 751.25403,461.03473 L 746.94583,461.39831 L 747.11973,459.21937 z"
       id="path58824"
       sodipodi:nodetypes="ccccc" />
    <path
       sodipodi:nodetypes="ccccc"
       id="path58826"
       d="M 742.54569,464.13694 L 754.55952,462.8959 L 754.44101,465.07791 L 742.37806,466.57431 L 742.54569,464.13694 z"
       style="fill:#000000;fill-rule:evenodd;stroke:none;stroke-width:1px;stroke-linecap:butt;stroke-linejoin:miter;stroke-opacity:1" />
    <path
       inkscape:export-ydpi="89"
       inkscape:export-xdpi="89"
       inkscape:export-filename="/home/dafeba/DCV/tallerD/elementos.png"
       style="fill:url(#linearGradient9941);fill-opacity:1;stroke:none;stroke-width:0.5;stroke-linecap:round;stroke-linejoin:round;stroke-miterlimit:4;stroke-opacity:1"
       d="M 35.717626,115.32617 L 45.042747,117.79894 C 44.531877,117.63545 44.097021,117.37086 43.668235,117.09819 L 40.783866,10.507878 C 42.590667,6.9001708 45.059297,4.5328108 50.729293,4.9942775 L 46.933048,5.1385441 L 40.273852,6.0188908 C 36.594289,6.5019041 34.498885,8.9369975 33.320839,11.276704 L 10.49979,57.835798 C 9.3644964,60.746571 9.072418,64.974785 10.385809,67.713745 L 30.710876,109.34222 C 31.825314,111.92417 33.222125,114.7551 35.717626,115.32617 z"
       id="path12828"
       sodipodi:nodetypes="cccccccccccc" />
    <path
       inkscape:export-ydpi="89"
       inkscape:export-xdpi="89"
       inkscape:export-filename="/home/dafeba/DCV/tallerD/elementos.png"
       sodipodi:nodetypes="ccccccccccccc"
       id="path12830"
       d="M 85.327596,112.58569 L 51.045783,117.98491 C 44.036515,118.98398 42.364577,116.84059 39.882525,111.84537 L 18.144256,67.303612 C 16.623758,64.127158 16.55868,61.593958 18.178881,58.390358 L 40.783866,10.507878 C 42.590667,6.9001708 45.059297,4.5328108 50.729293,4.9942775 L 86.638554,7.8085975 C 90.875323,8.2480108 92.785303,10.173824 94.171339,13.986918 L 110.33402,55.554891 C 111.2737,57.954651 111.22389,60.430331 110.38643,62.966438 L 94.863782,103.97726 C 92.887119,108.69502 90.929626,111.72446 85.327596,112.58569 z"
       style="fill:url(#linearGradient9938);fill-opacity:1;stroke:none;stroke-width:0.5;stroke-linecap:round;stroke-linejoin:round;stroke-miterlimit:4;stroke-opacity:1" />
    <path
       inkscape:export-ydpi="89"
       inkscape:export-xdpi="89"
       inkscape:export-filename="/home/dafeba/DCV/tallerD/elementos.png"
       sodipodi:nodetypes="cccccccc"
       id="path12832"
       d="M 18.178881,58.390358 L 40.783866,10.507878 C 42.590667,6.9001708 45.059297,4.5328108 50.729293,4.9942775 L 46.933048,5.1385441 L 40.273852,6.0188908 C 36.594289,6.5019041 34.498885,8.9369975 33.320839,11.276704 L 10.49979,57.835798 L 18.178881,58.390358 z"
       style="fill:url(#linearGradient9935);fill-opacity:1;stroke:none;stroke-width:0.5;stroke-linecap:round;stroke-linejoin:round;stroke-miterlimit:4;stroke-opacity:1" />
    <path
       style="fill:url(#linearGradient9932);fill-opacity:1;stroke:none;stroke-width:0.5;stroke-linecap:round;stroke-linejoin:round;stroke-miterlimit:4;stroke-opacity:1"
       d="M 50.294678,8.5442775 C 46.258092,8.7259042 44.260386,10.827931 42.774807,13.794278 L 30.826568,39.294278 L 101.01203,39.794278 L 91.904629,16.877611 C 90.602201,13.294491 88.867323,11.457158 84.886083,11.044278 L 52.132869,8.5442775 C 51.466869,8.4900642 50.871322,8.5183308 50.294678,8.5442775 z M 101.26269,79.627612 L 30.743014,85.627612 L 41.688604,108.79427 C 44.02098,113.48822 46.131223,115.14966 51.798652,114.54427 L 84.050542,109.54427 C 89.314719,108.73499 91.133364,105.89419 92.990833,101.46094 L 101.26269,79.627612 z"
       id="path12858" />
    <path
       inkscape:export-ydpi="89"
       inkscape:export-xdpi="89"
       inkscape:export-filename="/home/dafeba/DCV/tallerD/elementos.png"
       sodipodi:nodetypes="cccccccc"
       id="path12836"
       d="M 35.717626,115.32617 L 45.042747,117.79894 C 44.531877,117.63545 44.097021,117.37086 43.668235,117.09819 C 42.119262,116.05395 41.09803,114.29163 39.882525,111.84537 L 18.144256,67.303612 L 10.385809,67.713745 L 30.710876,109.34222 C 31.825314,111.92417 33.222125,114.7551 35.717626,115.32617 z"
       style="fill:url(#linearGradient9929);fill-opacity:1;stroke:none;stroke-width:0.5;stroke-linecap:round;stroke-linejoin:round;stroke-miterlimit:4;stroke-opacity:1" />
    <path
       inkscape:export-ydpi="89"
       inkscape:export-xdpi="89"
       inkscape:export-filename="/home/dafeba/DCV/tallerD/elementos.png"
       sodipodi:nodetypes="cccsssccccssscccccccccccccccccccccccscccccccsccccccccccccccccccc"
       id="path12838"
       d="M 33.125229,52.863025 L 33.184318,61.644172 L 36.77129,61.534385 C 38.251789,61.493772 39.41168,61.081505 40.250965,60.297531 C 41.090196,59.513611 41.53826,58.417265 41.59513,57.008518 C 41.651573,55.610198 41.29094,54.541265 40.513178,53.801691 C 39.735416,53.062118 38.606272,52.712651 37.125773,52.753265 L 33.125229,52.863025 M 29.990867,50.289398 L 37.230664,50.154891 C 39.866188,50.082598 41.831916,50.622838 43.127927,51.775531 C 44.43482,52.917531 45.042159,54.631185 44.949915,56.916465 C 44.856816,59.222625 44.109213,60.983851 42.707108,62.200198 C 41.315484,63.416225 39.301924,64.060438 36.6664,64.132705 L 33.138517,64.242492 L 33.084348,73.987638 L 29.932365,74.133878 L 29.990867,50.289398 z M 56.506559,53.054331 L 51.685125,64.640278 L 60.248393,64.278012 L 56.506559,53.054331 z M 54.860476,49.958518 L 58.37761,49.904118 L 66.007852,71.975878 L 63.034502,72.191638 L 61.050967,66.755425 L 50.618226,67.296278 L 48.338656,72.975025 L 45.004726,73.129558 L 54.860476,49.958518 z M 80.312772,60.977078 C 82.134599,61.857318 83.213931,63.861798 83.890011,65.721105 L 85.26578,70.722412 L 82.409272,70.875105 L 81.267775,66.317985 C 80.553916,64.774065 79.694231,63.548145 78.979863,63.056998 C 78.276003,62.565558 77.085177,62.378812 75.82518,62.413372 L 73.07629,62.532838 L 72.997468,71.432358 L 69.843374,71.637505 L 69.782359,49.755531 L 76.905368,49.617398 C 81.90284,49.346785 84.095942,51.480518 84.09161,55.583851 C 84.100942,58.985691 82.347134,60.341158 80.312772,60.977078 z M 73.045703,59.910118 L 76.465593,59.758651 C 79.358303,59.602331 81.174569,58.458225 81.279941,55.800918 C 81.239594,52.525451 79.421938,51.900145 76.800478,52.004465 L 72.927497,52.109318 L 73.045703,59.910118 z M 101.34777,49.259505 L 101.35849,51.684758 L 90.853505,51.880438 L 90.768774,58.382225 L 100.62051,58.133878 L 100.60172,60.676971 L 90.703161,61.043185 L 90.656718,67.552892 L 101.4452,66.971478 L 101.45595,69.688412 L 88.046354,70.474998 L 88.143036,49.364571 L 101.34777,49.259505 z"
       style="font-size:12.03600407px;font-style:normal;font-variant:normal;font-weight:bold;font-stretch:normal;text-align:start;line-height:125%;writing-mode:lr-tb;text-anchor:start;fill:url(#linearGradient9926);fill-opacity:1;stroke:none;stroke-width:1px;stroke-linecap:butt;stroke-linejoin:miter;stroke-opacity:1;font-family:Helvetica;-inkscape-font-specification:Helvetica Bold" />
    <path
       inkscape:export-ydpi="89"
       inkscape:export-xdpi="89"
       inkscape:export-filename="/home/dafeba/DCV/tallerD/elementos.png"
       id="path12840"
       d="M 48.70715,4.9609441 C 48.123875,4.9871841 47.625759,5.0297708 47.119621,5.1276108 C 47.065799,5.1380108 47.005507,5.1164375 46.952513,5.1276108 L 40.268184,6.0442775 C 36.588648,6.5272908 34.511238,8.9545708 33.333192,11.294278 L 10.522917,57.794278 C 9.3875975,60.705078 9.0424187,64.971985 10.355809,67.710945 L 30.743014,109.37761 C 31.857452,111.95947 33.26076,114.72321 35.756261,115.29427 L 45.030769,117.79427 C 46.492123,118.31078 48.374377,118.34185 51.046665,117.96094 L 85.303854,112.54427 C 90.905883,111.68305 92.85236,108.67875 94.829023,103.96094 L 110.37009,62.960945 C 111.20756,60.424838 111.30977,57.944065 110.37009,55.544278 L 94.16059,13.960944 C 92.774555,10.147851 90.877435,8.2336908 86.64072,7.7942775 L 50.712449,4.9609441 C 50.003696,4.9032641 49.320825,4.9333175 48.70715,4.9609441 z"
       style="fill:none;fill-opacity:1;stroke:#000000;stroke-width:1.33509851;stroke-linecap:round;stroke-linejoin:round;stroke-miterlimit:4;stroke-opacity:1" />
    <path
       inkscape:export-ydpi="89"
       inkscape:export-xdpi="89"
       inkscape:export-filename="/home/dafeba/DCV/tallerD/elementos.png"
       style="fill:url(#linearGradient9922);fill-opacity:1;stroke:none;stroke-width:0.5;stroke-linecap:round;stroke-linejoin:round;stroke-miterlimit:4;stroke-opacity:1"
       d="M 85.327596,112.58569 L 51.045783,117.98491 C 44.036515,118.98398 42.364577,116.84059 39.882525,111.84537 L 18.144256,67.303612 C 16.623758,64.127158 16.55868,61.593958 18.178881,58.390358 L 40.783866,10.507878 C 42.590667,6.9001708 45.059297,4.5328108 50.729293,4.9942775 L 86.638554,7.8085975 C 90.875323,8.2480108 92.785303,10.173824 94.171339,13.986918 L 110.33402,55.554891 C 111.2737,57.954651 111.22389,60.430331 110.38643,62.966438 L 94.863782,103.97726 C 92.887119,108.69502 90.929626,111.72446 85.327596,112.58569 z"
       id="path12842"
       sodipodi:nodetypes="ccccccccccccc" />
  </g>
</svg>
