<?xml version="1.0" encoding="UTF-8" standalone="no"?>
<!-- Created with Inkscape (http://www.inkscape.org/) -->
<svg
   xmlns:dc="http://purl.org/dc/elements/1.1/"
   xmlns:cc="http://creativecommons.org/ns#"
   xmlns:rdf="http://www.w3.org/1999/02/22-rdf-syntax-ns#"
   xmlns:svg="http://www.w3.org/2000/svg"
   xmlns="http://www.w3.org/2000/svg"
   xmlns:xlink="http://www.w3.org/1999/xlink"
   xmlns:sodipodi="http://sodipodi.sourceforge.net/DTD/sodipodi-0.dtd"
   xmlns:inkscape="http://www.inkscape.org/namespaces/inkscape"
   width="100"
   height="100"
   id="svg48765"
   sodipodi:version="0.32"
   inkscape:version="0.46"
   version="1.0"
   sodipodi:docname="mouse-dblclck-maybe.svg"
   inkscape:output_extension="org.inkscape.output.svg.inkscape">
  <defs
     id="defs48767">
    <linearGradient
       y2="969.80133"
       x2="492.34177"
       y1="943.10809"
       x1="502.34912"
       gradientTransform="matrix(2.0833333,0,0,2.0833333,-812.8022,-1956.7034)"
       gradientUnits="userSpaceOnUse"
       id="linearGradient26191"
       xlink:href="#linearGradient5316"
       inkscape:collect="always" />
    <linearGradient
       y2="954.44568"
       x2="522.06268"
       y1="971.2395"
       x1="522.07306"
       gradientTransform="matrix(2.0833333,0,0,2.0833333,-812.8022,-1956.7034)"
       gradientUnits="userSpaceOnUse"
       id="linearGradient26188"
       xlink:href="#linearGradient5316"
       inkscape:collect="always" />
    <linearGradient
       y2="969.87225"
       x2="495.03214"
       y1="990.3045"
       x1="505.88623"
       gradientTransform="matrix(2.0833333,0,0,2.0833333,-1012.8022,-1956.7034)"
       gradientUnits="userSpaceOnUse"
       id="linearGradient26185"
       xlink:href="#linearGradient5344"
       inkscape:collect="always" />
    <linearGradient
       y2="4.5032578"
       x2="74.278313"
       y1="-12.996742"
       x1="85.849136"
       gradientTransform="matrix(2.0833333,0,0,2.0833333,-137.80219,18.296613)"
       gradientUnits="userSpaceOnUse"
       id="linearGradient26182"
       xlink:href="#linearGradient5362"
       inkscape:collect="always" />
    <linearGradient
       y2="976.01251"
       x2="516.61725"
       y1="964.90088"
       x1="516.61072"
       gradientTransform="matrix(2.0833333,0,0,2.0833333,-812.8022,-1956.7034)"
       gradientUnits="userSpaceOnUse"
       id="linearGradient26176"
       xlink:href="#linearGradient5316"
       inkscape:collect="always" />
    <linearGradient
       y2="967.85718"
       x2="506.46252"
       y1="955.09186"
       x1="508.31351"
       gradientTransform="matrix(2.0833333,0,0,2.0833333,-812.8022,-1956.7034)"
       gradientUnits="userSpaceOnUse"
       id="linearGradient26173"
       xlink:href="#linearGradient5316"
       inkscape:collect="always" />
    <linearGradient
       y2="960.31348"
       x2="509.52502"
       y1="951.43848"
       x1="507.58542"
       gradientTransform="matrix(2.0833333,0,0,2.0833333,-1012.8022,-1956.7034)"
       gradientUnits="userSpaceOnUse"
       id="linearGradient26170"
       xlink:href="#linearGradient5362"
       inkscape:collect="always" />
    <linearGradient
       y2="965.32593"
       x2="507.62781"
       y1="979.01343"
       x1="512.31091"
       gradientTransform="matrix(2.0833333,0,0,2.0833333,-1012.8022,-1956.7034)"
       gradientUnits="userSpaceOnUse"
       id="linearGradient26167"
       xlink:href="#linearGradient5344"
       inkscape:collect="always" />
    <linearGradient
       id="linearGradient5362">
      <stop
         style="stop-color:#ffffff;stop-opacity:1;"
         offset="0"
         id="stop5364" />
      <stop
         style="stop-color:#ffffff;stop-opacity:0;"
         offset="1"
         id="stop5366" />
    </linearGradient>
    <linearGradient
       y2="964.38507"
       x2="525.37488"
       y1="981.13507"
       x1="508.69806"
       gradientTransform="matrix(2.0833333,0,0,2.0833333,-1012.8022,-1956.7034)"
       gradientUnits="userSpaceOnUse"
       id="linearGradient26163"
       xlink:href="#linearGradient5362"
       inkscape:collect="always" />
    <linearGradient
       y2="974.77148"
       x2="514.79333"
       y1="990.77148"
       x1="525.08405"
       gradientTransform="matrix(2.0833333,0,0,2.0833333,-1012.8022,-1956.7034)"
       gradientUnits="userSpaceOnUse"
       id="linearGradient26160"
       xlink:href="#linearGradient5344"
       inkscape:collect="always" />
    <linearGradient
       y2="959.40594"
       x2="518.17859"
       y1="932.46844"
       x1="512.04279"
       gradientTransform="matrix(2.0833333,0,0,2.0833333,-1012.8022,-1956.7034)"
       gradientUnits="userSpaceOnUse"
       id="linearGradient26156"
       xlink:href="#linearGradient5344"
       inkscape:collect="always" />
    <linearGradient
       id="linearGradient5316">
      <stop
         style="stop-color:#87c7ff;stop-opacity:1;"
         offset="0"
         id="stop5320" />
      <stop
         style="stop-color:#74aadb;stop-opacity:1;"
         offset="1"
         id="stop5322" />
    </linearGradient>
    <linearGradient
       y2="977.56915"
       x2="521.29358"
       y1="945.19952"
       x1="502.05005"
       gradientTransform="matrix(2.0833333,0,0,2.0833333,-812.8022,-1956.7034)"
       gradientUnits="userSpaceOnUse"
       id="linearGradient26977"
       xlink:href="#linearGradient5316"
       inkscape:collect="always" />
    <linearGradient
       id="linearGradient5344">
      <stop
         style="stop-color:#000000;stop-opacity:1;"
         offset="0"
         id="stop5346" />
      <stop
         style="stop-color:#000000;stop-opacity:0;"
         offset="1"
         id="stop5348" />
    </linearGradient>
    <linearGradient
       y2="949.56915"
       x2="502.29358"
       y1="1069.1996"
       x1="570.55005"
       gradientTransform="matrix(2.0833333,0,0,2.0833333,-1012.8022,-1956.7034)"
       gradientUnits="userSpaceOnUse"
       id="linearGradient26981"
       xlink:href="#linearGradient5344"
       inkscape:collect="always" />
    <linearGradient
       id="linearGradient9863">
      <stop
         style="stop-color:#2f445a;stop-opacity:1;"
         offset="0"
         id="stop9865" />
      <stop
         style="stop-color:#415f7c;stop-opacity:1"
         offset="1"
         id="stop9867" />
    </linearGradient>
    <linearGradient
       y2="-8.3120422"
       x2="329.60443"
       y1="37.079216"
       x1="329.60443"
       gradientTransform="matrix(2.0833333,0,0,2.0833333,-637.59664,18.854316)"
       gradientUnits="userSpaceOnUse"
       id="linearGradient26974"
       xlink:href="#linearGradient9863"
       inkscape:collect="always" />
    <inkscape:perspective
       sodipodi:type="inkscape:persp3d"
       inkscape:vp_x="0 : 526.18109 : 1"
       inkscape:vp_y="0 : 1000 : 0"
       inkscape:vp_z="744.09448 : 526.18109 : 1"
       inkscape:persp3d-origin="372.04724 : 350.78739 : 1"
       id="perspective48773" />
  </defs>
  <sodipodi:namedview
     id="base"
     pagecolor="#ffffff"
     bordercolor="#666666"
     borderopacity="1.0"
     inkscape:pageopacity="0.0"
     inkscape:pageshadow="2"
     inkscape:zoom="2.8"
     inkscape:cx="88.465168"
     inkscape:cy="61.817986"
     inkscape:document-units="px"
     inkscape:current-layer="layer1"
     showgrid="false"
     inkscape:showpageshadow="false"
     inkscape:window-width="1024"
     inkscape:window-height="714"
     inkscape:window-x="0"
     inkscape:window-y="24"
     showguides="true"
     inkscape:guide-bbox="true" />
  <metadata
     id="metadata48770">
    <rdf:RDF>
      <cc:Work
         rdf:about="">
        <dc:format>image/svg+xml</dc:format>
        <dc:type
           rdf:resource="http://purl.org/dc/dcmitype/StillImage" />
      </cc:Work>
    </rdf:RDF>
  </metadata>
  <g
     inkscape:label="Capa 1"
     inkscape:groupmode="layer"
     id="layer1">
    <path
       sodipodi:nodetypes="ccscc"
       id="path7330"
       d="M 14.587962,62.460405 C 15.97042,73.039905 23.549194,93.957985 44.478873,98.044676 C 38.811394,96.879176 30.318373,94.60653 25.933456,93.500634 C 17.665623,91.415446 9.3999971,78.929467 6.4946431,62.678488 L 14.587962,62.460405 z"
       style="fill:url(#linearGradient26185);fill-opacity:1;stroke:none;stroke-width:0.46319342;stroke-linecap:round;stroke-linejoin:round;stroke-miterlimit:4;stroke-opacity:1;display:inline"
       inkscape:export-filename="/home/dafeba/DCV/tallerD/bocetos/08-09-22-hastaahora.png"
       inkscape:export-xdpi="57.964222"
       inkscape:export-ydpi="57.964222" />
    <path
       sodipodi:nodetypes="cscccc"
       id="path26077"
       d="M 8.7585181,30.489751 C 10.59881,25.284559 13.127476,20.488734 16.172373,16.404007 C 21.823727,8.8227385 30.910727,3.8751675 37.361227,2.9379885 C 41.14279,2.3948015 46.927519,2.0235515 53.923456,2.0761765 C 34.052435,12.757328 25.616331,19.187068 22.53106,30.889753 L 8.7585181,30.489751 z"
       style="fill:url(#linearGradient26182);fill-opacity:1;stroke:none;stroke-width:0.46319342;stroke-linecap:round;stroke-linejoin:round;stroke-miterlimit:4;stroke-opacity:1;display:inline"
       inkscape:export-filename="/home/dafeba/DCV/tallerD/bocetos/08-09-22-hastaahora.png"
       inkscape:export-xdpi="57.964222"
       inkscape:export-ydpi="57.964222" />
    <path
       sodipodi:nodetypes="ccccc"
       id="path7340"
       d="M 57.692685,33.149968 L 48.124331,33.186405 C 42.834269,33.06028 38.903623,38.880634 37.636165,45.314051 L 56.80656,47.197446 L 57.692685,33.149968 z"
       style="fill:url(#linearGradient26170);fill-opacity:1;fill-rule:evenodd;stroke:none;stroke-width:0.5;stroke-linecap:butt;stroke-linejoin:miter;stroke-miterlimit:4;stroke-dasharray:none;stroke-opacity:1;display:inline"
       inkscape:export-filename="/home/dafeba/DCV/tallerD/bocetos/08-09-22-hastaahora.png"
       inkscape:export-xdpi="57.964222"
       inkscape:export-ydpi="57.964222" />
    <path
       sodipodi:nodetypes="ccccc"
       id="path7342"
       d="M 44.921108,53.875413 L 37.715352,55.047988 C 38.750519,60.372092 41.324373,65.055238 45.250456,65.544926 L 55.563019,66.910613 C 48.851943,66.175747 45.831789,60.857103 44.921108,53.875413 z"
       style="fill:url(#linearGradient26167);fill-opacity:1;fill-rule:evenodd;stroke:none;stroke-width:0.5;stroke-linecap:butt;stroke-linejoin:miter;stroke-miterlimit:4;stroke-dasharray:none;stroke-opacity:1;display:inline"
       inkscape:export-filename="/home/dafeba/DCV/tallerD/bocetos/08-09-22-hastaahora.png"
       inkscape:export-xdpi="57.964222"
       inkscape:export-ydpi="57.964222" />
    <path
       style="fill:url(#linearGradient26163);fill-opacity:1;fill-rule:evenodd;stroke:none;stroke-width:0.5;stroke-linecap:round;stroke-linejoin:round;stroke-miterlimit:4;stroke-dasharray:none;stroke-opacity:1;display:inline"
       d="M 68.028415,78.255738 C 76.071227,71.538092 81.37727,59.857363 81.72875,47.441946 L 73.241144,47.723071 C 73.329769,60.209134 66.977227,69.426321 57.922873,76.645259 L 68.028415,78.255738 z"
       id="path7346"
       sodipodi:nodetypes="ccccc"
       inkscape:export-filename="/home/dafeba/DCV/tallerD/bocetos/08-09-22-hastaahora.png"
       inkscape:export-xdpi="57.964222"
       inkscape:export-ydpi="57.964222" />
    <path
       inkscape:export-ydpi="57.964222"
       inkscape:export-xdpi="57.964222"
       inkscape:export-filename="/home/dafeba/DCV/tallerD/bocetos/08-09-22-hastaahora.png"
       sodipodi:nodetypes="ccccc"
       id="path7348"
       d="M 68.02644,78.25728 L 57.94583,76.656009 L 62.09125,88.610363 L 72.70475,90.755988 L 68.02644,78.25728 z"
       style="fill:url(#linearGradient26160);fill-rule:evenodd;stroke:none;stroke-width:1px;stroke-linecap:butt;stroke-linejoin:miter;stroke-opacity:1;display:inline" />
    <path
       style="fill:url(#linearGradient26156);fill-opacity:1;fill-rule:evenodd;stroke:none;stroke-width:0.5;stroke-linecap:round;stroke-linejoin:round;stroke-miterlimit:4;stroke-dasharray:none;stroke-opacity:1;display:inline"
       d="M 81.72875,47.441946 C 81.88687,38.244905 77.60104,27.776259 71.579977,21.849218 C 65.488873,16.080196 58.104165,14.523592 51.740102,15.635988 C 61.235956,16.996197 73.378331,29.586426 73.241144,47.723071 L 81.72875,47.441946 z"
       id="path7353"
       sodipodi:nodetypes="ccccc"
       inkscape:export-filename="/home/dafeba/DCV/tallerD/bocetos/08-09-22-hastaahora.png"
       inkscape:export-xdpi="57.964222"
       inkscape:export-ydpi="57.964222" />
    <path
       style="fill:url(#linearGradient26981);fill-opacity:1;stroke:none;stroke-width:0.5;stroke-linecap:round;stroke-linejoin:round;stroke-miterlimit:4;stroke-dasharray:none;stroke-opacity:1;display:inline"
       d="M 52.70283,2.0528155 C 31.5876,2.6326485 13.24971,19.882316 13.24971,50.425211 C 13.24973,76.394544 27.33571,95.629857 44.76012,98.081461 L 48.99189,82.91219 C 37.62337,80.251544 29.72106,68.099065 29.72106,49.709065 C 29.72106,26.698318 43.04564,14.126898 57.91116,15.464273 C 66.29398,16.21844 72.9741,21.577753 76.98668,29.722086 C 79.44618,34.714045 81.02312,40.710065 81.02314,47.430419 C 81.02314,60.273065 75.65967,71.873044 68.00231,78.22469 L 72.68981,90.789794 C 84.52237,81.654292 92.74192,65.199253 92.74189,47.104898 C 92.74187,22.067047 77.83791,3.8401695 56.99971,2.1179195 C 55.56781,1.9995865 54.11052,2.0141695 52.70283,2.0528155 z M 57.84606,33.172607 C 50.89141,33.065482 44.69502,38.970878 44.69502,50.425211 C 44.69502,61.879898 50.32935,67.860753 58.432,66.831461 C 64.81531,66.020544 69.17418,57.894065 69.17418,48.992919 C 69.17418,40.18994 64.57923,33.274295 57.84606,33.172607 z"
       id="path26979" />
    <path
       inkscape:export-ydpi="57.964222"
       inkscape:export-xdpi="57.964222"
       inkscape:export-filename="/home/dafeba/DCV/tallerD/bocetos/08-09-22-hastaahora.png"
       style="fill:none;fill-opacity:1;stroke:url(#linearGradient26974);stroke-width:2.08333325;stroke-linecap:round;stroke-linejoin:round;stroke-miterlimit:4;stroke-dasharray:none;stroke-opacity:1;display:inline"
       d="M 38.499894,2.7367175 C 31.081935,3.6053135 21.914394,8.8865195 16.322144,16.024032 C 9.275122,25.018307 5.40131,38.312805 5.426976,50.327863 C 5.426976,72.28728 15.667894,90.902634 25.93479,93.491926 C 29.49754,94.390467 35.706185,96.048634 40.97385,97.267967 C 42.13918,97.605342 43.28835,97.867988 44.48948,98.049217 C 44.579,98.062717 44.66018,98.101696 44.74989,98.114321 L 48.98167,82.945051 C 37.613144,80.284363 29.710831,68.066821 29.710831,49.676821 C 29.710831,29.751718 40.03406,16.985405 51.78279,15.754759 C 55.54681,15.882092 57.65543,17.891176 60.1261,19.358926 C 66.80008,24.132155 73.36683,34.329988 73.26552,47.723696 C 73.35406,60.191821 66.99962,69.415655 57.96604,76.629946 L 57.96604,76.695051 L 62.0676,88.609113 L 72.67958,90.757551 C 84.51214,81.622051 92.73168,65.232113 92.73167,47.137759 C 92.73164,22.099884 77.82769,3.8730305 56.98948,2.1507805 C 52.02464,1.7502345 44.64073,2.1168385 38.499894,2.7367175 z M 57.70562,33.140363 L 48.13531,33.205468 C 41.65229,33.050926 37.19781,41.786134 37.19781,49.676821 C 37.197831,56.805155 40.04989,64.911051 45.27073,65.562238 L 55.55719,66.929426 L 55.55719,66.864321 C 56.46621,66.944926 57.43192,66.924967 58.42177,66.799217 C 64.80508,65.988301 69.16389,57.861863 69.16396,48.960676 C 69.16396,40.157696 64.569,33.24203 57.83583,33.140363 C 57.79248,33.139697 57.74891,33.140572 57.70562,33.140363 z"
       id="path7351"
       sodipodi:nodetypes="cscscsccscccccccsccccscccsssc" />
  </g>
</svg>
