<?xml version="1.0" encoding="UTF-8" standalone="no"?>
<!-- Created with Inkscape (http://www.inkscape.org/) -->

<svg
   xmlns:dc="http://purl.org/dc/elements/1.1/"
   xmlns:cc="http://creativecommons.org/ns#"
   xmlns:rdf="http://www.w3.org/1999/02/22-rdf-syntax-ns#"
   xmlns:svg="http://www.w3.org/2000/svg"
   xmlns="http://www.w3.org/2000/svg"
   xmlns:xlink="http://www.w3.org/1999/xlink"
   xmlns:sodipodi="http://sodipodi.sourceforge.net/DTD/sodipodi-0.dtd"
   xmlns:inkscape="http://www.inkscape.org/namespaces/inkscape"
   width="128"
   height="128"
   id="svg8156"
   version="1.1"
   inkscape:version="0.48.3.1 r9886"
   sodipodi:docname="start-here-symbolic.svg">
  <defs
     id="defs8158">
    <linearGradient
       gradientTransform="matrix(2.6666667,0,0,2.6666667,-1667.3528,-1420.8175)"
       inkscape:collect="always"
       xlink:href="#linearGradient9863"
       id="linearGradient7873"
       x1="644.40491"
       y1="926.25873"
       x2="652.68567"
       y2="883.30194"
       gradientUnits="userSpaceOnUse" />
    <linearGradient
       id="linearGradient9863">
      <stop
         style="stop-color:#2f445a;stop-opacity:1;"
         offset="0"
         id="stop9865" />
      <stop
         style="stop-color:#415f7c;stop-opacity:1"
         offset="1"
         id="stop9867" />
    </linearGradient>
    <linearGradient
       inkscape:collect="always"
       xlink:href="#linearGradient12578"
       id="linearGradient7416"
       gradientUnits="userSpaceOnUse"
       x1="9.5300207"
       y1="9.6453409"
       x2="13.114401"
       y2="15.088529" />
    <linearGradient
       id="linearGradient12578">
      <stop
         style="stop-color:#e9b551;stop-opacity:1;"
         offset="0"
         id="stop12580" />
      <stop
         style="stop-color:#b48739;stop-opacity:1;"
         offset="1"
         id="stop12582" />
    </linearGradient>
    <linearGradient
       inkscape:collect="always"
       xlink:href="#linearGradient3249"
       id="linearGradient7414"
       gradientUnits="userSpaceOnUse"
       x1="504.90103"
       y1="978.02399"
       x2="504.0184"
       y2="974.03284"
       gradientTransform="matrix(2.6666667,0,0,2.6666667,-1294.0195,-1580.8175)" />
    <linearGradient
       id="linearGradient3249">
      <stop
         style="stop-color:#000000;stop-opacity:1;"
         offset="0"
         id="stop3251" />
      <stop
         style="stop-color:#000000;stop-opacity:0;"
         offset="1"
         id="stop3253-2" />
    </linearGradient>
    <linearGradient
       inkscape:collect="always"
       xlink:href="#linearGradient9495"
       id="linearGradient7412"
       gradientUnits="userSpaceOnUse"
       x1="504.91241"
       y1="965.13464"
       x2="502.77573"
       y2="971.09668"
       gradientTransform="matrix(2.6666667,0,0,2.6666667,-1294.0195,-1580.8175)" />
    <linearGradient
       inkscape:collect="always"
       id="linearGradient9495">
      <stop
         style="stop-color:#ffffff;stop-opacity:1;"
         offset="0"
         id="stop9497" />
      <stop
         style="stop-color:#ffffff;stop-opacity:0;"
         offset="1"
         id="stop9499" />
    </linearGradient>
    <linearGradient
       inkscape:collect="always"
       xlink:href="#linearGradient12578"
       id="linearGradient7410"
       gradientUnits="userSpaceOnUse"
       x1="503.58203"
       y1="968.48517"
       x2="503.85971"
       y2="975.43262"
       gradientTransform="matrix(2.6666667,0,0,2.6666667,-1294.0195,-1580.8175)" />
    <linearGradient
       id="linearGradient7902">
      <stop
         style="stop-color:#e9b551;stop-opacity:1;"
         offset="0"
         id="stop7904" />
      <stop
         style="stop-color:#b48739;stop-opacity:1;"
         offset="1"
         id="stop7906" />
    </linearGradient>
    <linearGradient
       inkscape:collect="always"
       xlink:href="#linearGradient5316"
       id="linearGradient7406"
       gradientUnits="userSpaceOnUse"
       x1="499.41898"
       y1="944.26801"
       x2="517.93237"
       y2="972.64899"
       gradientTransform="matrix(2.6666667,0,0,2.6666667,-1294.0195,-1580.8175)" />
    <linearGradient
       id="linearGradient5316">
      <stop
         style="stop-color:#b995da;stop-opacity:1;"
         offset="0"
         id="stop5320" />
      <stop
         style="stop-color:#766287;stop-opacity:1;"
         offset="1"
         id="stop5322" />
    </linearGradient>
    <linearGradient
       inkscape:collect="always"
       xlink:href="#linearGradient3249"
       id="linearGradient7404"
       gradientUnits="userSpaceOnUse"
       x1="517.75867"
       y1="983.15723"
       x2="529.18732"
       y2="974.53223"
       gradientTransform="matrix(2.6666667,0,0,2.6666667,-1294.0195,-1580.8175)" />
    <linearGradient
       id="linearGradient7913">
      <stop
         style="stop-color:#000000;stop-opacity:1;"
         offset="0"
         id="stop7915" />
      <stop
         style="stop-color:#000000;stop-opacity:0;"
         offset="1"
         id="stop7917" />
    </linearGradient>
    <linearGradient
       inkscape:collect="always"
       xlink:href="#linearGradient3249"
       id="linearGradient7402"
       gradientUnits="userSpaceOnUse"
       x1="501.06546"
       y1="973.474"
       x2="492.28647"
       y2="967.55103"
       gradientTransform="matrix(2.6666667,0,0,2.6666667,-1294.0195,-1580.8175)" />
    <linearGradient
       id="linearGradient7920">
      <stop
         style="stop-color:#000000;stop-opacity:1;"
         offset="0"
         id="stop7922" />
      <stop
         style="stop-color:#000000;stop-opacity:0;"
         offset="1"
         id="stop7924" />
    </linearGradient>
    <linearGradient
       inkscape:collect="always"
       xlink:href="#linearGradient3249"
       id="linearGradient7400"
       gradientUnits="userSpaceOnUse"
       x1="501.25372"
       y1="966.9411"
       x2="498.23135"
       y2="959.27612"
       gradientTransform="matrix(2.6666667,0,0,2.6666667,-1294.0195,-1580.8175)" />
    <linearGradient
       id="linearGradient7927">
      <stop
         style="stop-color:#000000;stop-opacity:1;"
         offset="0"
         id="stop7929" />
      <stop
         style="stop-color:#000000;stop-opacity:0;"
         offset="1"
         id="stop7931" />
    </linearGradient>
    <linearGradient
       inkscape:collect="always"
       xlink:href="#linearGradient3249"
       id="linearGradient7398"
       gradientUnits="userSpaceOnUse"
       x1="503.51712"
       y1="962.07922"
       x2="502.30066"
       y2="954.48389"
       gradientTransform="matrix(2.6666667,0,0,2.6666667,-1294.0195,-1580.8175)" />
    <linearGradient
       id="linearGradient7934">
      <stop
         style="stop-color:#000000;stop-opacity:1;"
         offset="0"
         id="stop7936" />
      <stop
         style="stop-color:#000000;stop-opacity:0;"
         offset="1"
         id="stop7938" />
    </linearGradient>
    <linearGradient
       inkscape:collect="always"
       xlink:href="#linearGradient3249"
       id="linearGradient7396"
       gradientUnits="userSpaceOnUse"
       x1="504.51901"
       y1="962.52405"
       x2="508.2655"
       y2="952.21112"
       gradientTransform="matrix(2.6666667,0,0,2.6666667,-1294.0195,-1580.8175)" />
    <linearGradient
       id="linearGradient7941">
      <stop
         style="stop-color:#000000;stop-opacity:1;"
         offset="0"
         id="stop7943" />
      <stop
         style="stop-color:#000000;stop-opacity:0;"
         offset="1"
         id="stop7945" />
    </linearGradient>
    <linearGradient
       inkscape:collect="always"
       xlink:href="#linearGradient3249"
       id="linearGradient7394"
       gradientUnits="userSpaceOnUse"
       x1="508.13217"
       y1="962.60834"
       x2="516.60168"
       y2="953.75873"
       gradientTransform="matrix(2.6666667,0,0,2.6666667,-1294.0195,-1580.8175)" />
    <linearGradient
       id="linearGradient7948">
      <stop
         style="stop-color:#000000;stop-opacity:1;"
         offset="0"
         id="stop7950" />
      <stop
         style="stop-color:#000000;stop-opacity:0;"
         offset="1"
         id="stop7952" />
    </linearGradient>
    <linearGradient
       inkscape:collect="always"
       xlink:href="#linearGradient3249"
       id="linearGradient7392"
       gradientUnits="userSpaceOnUse"
       x1="512.58618"
       y1="966.49304"
       x2="523.43536"
       y2="959.52484"
       gradientTransform="matrix(2.6666667,0,0,2.6666667,-1294.0195,-1580.8175)" />
    <linearGradient
       id="linearGradient7955">
      <stop
         style="stop-color:#000000;stop-opacity:1;"
         offset="0"
         id="stop7957" />
      <stop
         style="stop-color:#000000;stop-opacity:0;"
         offset="1"
         id="stop7959" />
    </linearGradient>
    <linearGradient
       inkscape:collect="always"
       xlink:href="#linearGradient3249"
       id="linearGradient7390"
       gradientUnits="userSpaceOnUse"
       x1="515.26477"
       y1="970.04193"
       x2="525.87769"
       y2="966.90625"
       gradientTransform="matrix(2.6666667,0,0,2.6666667,-1294.0195,-1580.8175)" />
    <linearGradient
       id="linearGradient7962">
      <stop
         style="stop-color:#000000;stop-opacity:1;"
         offset="0"
         id="stop7964" />
      <stop
         style="stop-color:#000000;stop-opacity:0;"
         offset="1"
         id="stop7966" />
    </linearGradient>
    <linearGradient
       inkscape:collect="always"
       xlink:href="#linearGradient9495"
       id="linearGradient7388"
       gradientUnits="userSpaceOnUse"
       x1="533.7652"
       y1="960.7713"
       x2="525.43396"
       y2="967.87891"
       gradientTransform="matrix(2.6666667,0,0,2.6666667,-1294.0195,-1580.8175)" />
    <linearGradient
       inkscape:collect="always"
       xlink:href="#linearGradient9495"
       id="linearGradient7386"
       gradientUnits="userSpaceOnUse"
       x1="530.06799"
       y1="948.79803"
       x2="524.05096"
       y2="960.78333"
       gradientTransform="matrix(2.6666667,0,0,2.6666667,-1294.0195,-1580.8175)" />
    <linearGradient
       inkscape:collect="always"
       xlink:href="#linearGradient9495"
       id="linearGradient7382"
       gradientUnits="userSpaceOnUse"
       x1="521.33777"
       y1="941.61536"
       x2="518.71277"
       y2="954.92456"
       gradientTransform="matrix(2.6666667,0,0,2.6666667,-1294.0195,-1580.8175)" />
    <linearGradient
       inkscape:collect="always"
       xlink:href="#linearGradient9495"
       id="linearGradient7372"
       gradientUnits="userSpaceOnUse"
       x1="510.21683"
       y1="939.59192"
       x2="510.09769"
       y2="952.90118"
       gradientTransform="matrix(2.6666667,0,0,2.6666667,-1294.0195,-1580.8175)" />
    <linearGradient
       inkscape:collect="always"
       xlink:href="#linearGradient9495"
       id="linearGradient7370"
       gradientUnits="userSpaceOnUse"
       x1="494.897"
       y1="939.91022"
       x2="501.27188"
       y2="952.3136"
       gradientTransform="matrix(2.6666667,0,0,2.6666667,-1294.0195,-1580.8175)" />
    <linearGradient
       inkscape:collect="always"
       xlink:href="#linearGradient9495"
       id="linearGradient7368"
       gradientUnits="userSpaceOnUse"
       x1="486.55066"
       y1="948.86316"
       x2="496.47592"
       y2="960.15161"
       gradientTransform="matrix(2.6666667,0,0,2.6666667,-1294.0195,-1580.8175)" />
    <linearGradient
       inkscape:collect="always"
       xlink:href="#linearGradient9495"
       id="linearGradient7366"
       gradientUnits="userSpaceOnUse"
       x1="484.07101"
       y1="960.50787"
       x2="493.65625"
       y2="966.77924"
       gradientTransform="matrix(2.6666667,0,0,2.6666667,-1294.0195,-1580.8175)" />
    <linearGradient
       inkscape:collect="always"
       xlink:href="#linearGradient5316"
       id="linearGradient7364"
       gradientUnits="userSpaceOnUse"
       x1="522.14795"
       y1="956.44171"
       x2="523.64545"
       y2="958.39282"
       gradientTransform="matrix(2.6666667,0,0,2.6666667,-1294.0195,-1580.8175)" />
    <linearGradient
       id="linearGradient8018">
      <stop
         style="stop-color:#b995da;stop-opacity:1;"
         offset="0"
         id="stop8020" />
      <stop
         style="stop-color:#766287;stop-opacity:1;"
         offset="1"
         id="stop8022" />
    </linearGradient>
    <linearGradient
       inkscape:collect="always"
       xlink:href="#linearGradient3249"
       id="linearGradient7360"
       gradientUnits="userSpaceOnUse"
       x1="503.88083"
       y1="965.2442"
       x2="519.55634"
       y2="973.9162"
       gradientTransform="matrix(2.6666667,0,0,2.6666667,-1294.0195,-1580.8175)" />
    <linearGradient
       id="linearGradient8025">
      <stop
         style="stop-color:#000000;stop-opacity:1;"
         offset="0"
         id="stop8027" />
      <stop
         style="stop-color:#000000;stop-opacity:0;"
         offset="1"
         id="stop8029" />
    </linearGradient>
    <linearGradient
       inkscape:collect="always"
       xlink:href="#linearGradient5316"
       id="linearGradient7358"
       gradientUnits="userSpaceOnUse"
       x1="526.14325"
       y1="963.68213"
       x2="527.8717"
       y2="966.60876"
       gradientTransform="matrix(2.6666667,0,0,2.6666667,-1294.0195,-1580.8175)" />
    <linearGradient
       id="linearGradient8032">
      <stop
         style="stop-color:#b995da;stop-opacity:1;"
         offset="0"
         id="stop8034" />
      <stop
         style="stop-color:#766287;stop-opacity:1;"
         offset="1"
         id="stop8036" />
    </linearGradient>
    <linearGradient
       inkscape:collect="always"
       xlink:href="#linearGradient5316"
       id="linearGradient7356"
       gradientUnits="userSpaceOnUse"
       x1="514.25336"
       y1="952.99561"
       x2="516.48315"
       y2="955.15576"
       gradientTransform="matrix(2.6666667,0,0,2.6666667,-1294.0195,-1580.8175)" />
    <linearGradient
       id="linearGradient8039">
      <stop
         style="stop-color:#b995da;stop-opacity:1;"
         offset="0"
         id="stop8041" />
      <stop
         style="stop-color:#766287;stop-opacity:1;"
         offset="1"
         id="stop8043" />
    </linearGradient>
    <linearGradient
       inkscape:collect="always"
       xlink:href="#linearGradient5316"
       id="linearGradient7354"
       gradientUnits="userSpaceOnUse"
       x1="507.50449"
       y1="948.90527"
       x2="510.01953"
       y2="950.08984"
       gradientTransform="matrix(2.6666667,0,0,2.6666667,-1294.0195,-1580.8175)" />
    <linearGradient
       id="linearGradient8046">
      <stop
         style="stop-color:#b995da;stop-opacity:1;"
         offset="0"
         id="stop8048" />
      <stop
         style="stop-color:#766287;stop-opacity:1;"
         offset="1"
         id="stop8050" />
    </linearGradient>
    <linearGradient
       inkscape:collect="always"
       xlink:href="#linearGradient5316"
       id="linearGradient7352"
       gradientUnits="userSpaceOnUse"
       x1="498.38791"
       y1="951.03802"
       x2="501.2634"
       y2="951.73486"
       gradientTransform="matrix(2.6666667,0,0,2.6666667,-1294.0195,-1580.8175)" />
    <linearGradient
       id="linearGradient8053">
      <stop
         style="stop-color:#b995da;stop-opacity:1;"
         offset="0"
         id="stop8055" />
      <stop
         style="stop-color:#766287;stop-opacity:1;"
         offset="1"
         id="stop8057" />
    </linearGradient>
    <linearGradient
       inkscape:collect="always"
       xlink:href="#linearGradient5316"
       id="linearGradient7350"
       gradientUnits="userSpaceOnUse"
       x1="491.08978"
       y1="958.44739"
       x2="493.50464"
       y2="957.82025"
       gradientTransform="matrix(2.6666667,0,0,2.6666667,-1294.0195,-1580.8175)" />
    <linearGradient
       id="linearGradient8060">
      <stop
         style="stop-color:#b995da;stop-opacity:1;"
         offset="0"
         id="stop8062" />
      <stop
         style="stop-color:#766287;stop-opacity:1;"
         offset="1"
         id="stop8064" />
    </linearGradient>
    <linearGradient
       inkscape:collect="always"
       xlink:href="#linearGradient5316"
       id="linearGradient7348"
       gradientUnits="userSpaceOnUse"
       x1="490.69354"
       y1="968.67584"
       x2="492.09064"
       y2="967.83966"
       gradientTransform="matrix(2.6666667,0,0,2.6666667,-1294.0195,-1580.8175)" />
    <linearGradient
       id="linearGradient8067">
      <stop
         style="stop-color:#b995da;stop-opacity:1;"
         offset="0"
         id="stop8069" />
      <stop
         style="stop-color:#766287;stop-opacity:1;"
         offset="1"
         id="stop8071" />
    </linearGradient>
    <linearGradient
       inkscape:collect="always"
       xlink:href="#linearGradient3249"
       id="linearGradient7346"
       gradientUnits="userSpaceOnUse"
       x1="505.95053"
       y1="966.20435"
       x2="498.86234"
       y2="956.56519"
       gradientTransform="matrix(2.6666667,0,0,2.6666667,-1294.0195,-1580.8175)" />
    <linearGradient
       id="linearGradient8074">
      <stop
         style="stop-color:#000000;stop-opacity:1;"
         offset="0"
         id="stop8076" />
      <stop
         style="stop-color:#000000;stop-opacity:0;"
         offset="1"
         id="stop8078" />
    </linearGradient>
    <linearGradient
       inkscape:collect="always"
       xlink:href="#linearGradient5316"
       id="linearGradient7344"
       gradientUnits="userSpaceOnUse"
       x1="511.6962"
       y1="974.53223"
       x2="529.18732"
       y2="974.53223"
       gradientTransform="matrix(2.6666667,0,0,2.6666667,-1294.0195,-1580.8175)" />
    <linearGradient
       id="linearGradient8081">
      <stop
         style="stop-color:#b995da;stop-opacity:1;"
         offset="0"
         id="stop8083" />
      <stop
         style="stop-color:#766287;stop-opacity:1;"
         offset="1"
         id="stop8085" />
    </linearGradient>
    <linearGradient
       inkscape:collect="always"
       xlink:href="#linearGradient5316"
       id="linearGradient7342"
       gradientUnits="userSpaceOnUse"
       x1="498.49457"
       y1="962.30219"
       x2="507.29385"
       y2="963.46375"
       gradientTransform="matrix(2.6666667,0,0,2.6666667,-1294.0195,-1580.8175)" />
    <linearGradient
       id="linearGradient8088">
      <stop
         style="stop-color:#b995da;stop-opacity:1;"
         offset="0"
         id="stop8090" />
      <stop
         style="stop-color:#766287;stop-opacity:1;"
         offset="1"
         id="stop8092" />
    </linearGradient>
    <linearGradient
       inkscape:collect="always"
       xlink:href="#linearGradient3249"
       id="linearGradient7340"
       gradientUnits="userSpaceOnUse"
       x1="490.08923"
       y1="994.99048"
       x2="499.6041"
       y2="982.93817"
       gradientTransform="matrix(2.6666667,0,0,2.6666667,-1294.0195,-1580.8175)" />
    <linearGradient
       id="linearGradient8095">
      <stop
         style="stop-color:#000000;stop-opacity:1;"
         offset="0"
         id="stop8097" />
      <stop
         style="stop-color:#000000;stop-opacity:0;"
         offset="1"
         id="stop8099" />
    </linearGradient>
    <linearGradient
       inkscape:collect="always"
       xlink:href="#linearGradient5316"
       id="linearGradient7338"
       gradientUnits="userSpaceOnUse"
       x1="498"
       y1="972.89343"
       x2="501.0625"
       y2="984.70593"
       gradientTransform="matrix(2.6666667,0,0,2.6666667,-1294.0195,-1580.8175)" />
    <linearGradient
       id="linearGradient8102">
      <stop
         style="stop-color:#b995da;stop-opacity:1;"
         offset="0"
         id="stop8104" />
      <stop
         style="stop-color:#766287;stop-opacity:1;"
         offset="1"
         id="stop8106" />
    </linearGradient>
    <linearGradient
       inkscape:collect="always"
       xlink:href="#linearGradient9590"
       id="linearGradient7336"
       gradientUnits="userSpaceOnUse"
       gradientTransform="matrix(2.6666667,0,0,2.6666667,-1303.3528,-1582.7341)"
       x1="502.91904"
       y1="981.9881"
       x2="504.20029"
       y2="976.3974" />
    <linearGradient
       id="linearGradient9590">
      <stop
         style="stop-color:#ffffff;stop-opacity:0.0000000;"
         offset="0.0000000"
         id="stop9591" />
      <stop
         style="stop-color:#fff;stop-opacity:1;"
         offset="1"
         id="stop9592" />
    </linearGradient>
    <linearGradient
       inkscape:collect="always"
       xlink:href="#linearGradient5316"
       id="linearGradient7334"
       gradientUnits="userSpaceOnUse"
       gradientTransform="matrix(2.6666667,0,0,2.6666667,-1303.3528,-2507.0963)"
       x1="503.75873"
       y1="980.04358"
       x2="501.0625"
       y2="984.70593" />
    <linearGradient
       id="linearGradient8113">
      <stop
         style="stop-color:#b995da;stop-opacity:1;"
         offset="0"
         id="stop8115" />
      <stop
         style="stop-color:#766287;stop-opacity:1;"
         offset="1"
         id="stop8117" />
    </linearGradient>
    <linearGradient
       inkscape:collect="always"
       xlink:href="#linearGradient5316"
       id="linearGradient3431"
       gradientUnits="userSpaceOnUse"
       gradientTransform="matrix(2.6666667,0,0,2.6666667,-1303.3528,-2507.0963)"
       x1="493.72034"
       y1="944.05688"
       x2="533.07172"
       y2="985.46356" />
  </defs>
  <sodipodi:namedview
     id="base"
     pagecolor="#ffffff"
     bordercolor="#666666"
     borderopacity="1.0"
     inkscape:pageopacity="0.0"
     inkscape:pageshadow="2"
     inkscape:zoom="1.979899"
     inkscape:cx="118.39372"
     inkscape:cy="61.610158"
     inkscape:document-units="px"
     inkscape:current-layer="layer1"
     showgrid="false"
     inkscape:window-width="1366"
     inkscape:window-height="717"
     inkscape:window-x="0"
     inkscape:window-y="0"
     inkscape:window-maximized="1" />
  <metadata
     id="metadata8161">
    <rdf:RDF>
      <cc:Work
         rdf:about="">
        <dc:format>image/svg+xml</dc:format>
        <dc:type
           rdf:resource="http://purl.org/dc/dcmitype/StillImage" />
        <dc:title />
      </cc:Work>
    </rdf:RDF>
  </metadata>
  <g
     inkscape:label="Capa 1"
     inkscape:groupmode="layer"
     id="layer1"
     transform="translate(0,-924.36218)">
    <path
       style="fill:url(#linearGradient3431);stroke:none;display:inline"
       d="M 40.0625 8.65625 C 40.029837 8.6560873 39.999181 8.6778384 39.96875 8.6875 C 39.960813 8.6883526 39.945494 8.6866396 39.9375 8.6875 C 39.907783 8.7001919 39.871007 8.6959689 39.84375 8.71875 C 37.423737 8.9807652 32.629774 9.5707396 32.1875 9.65625 C 31.635687 9.76295 31.418954 11.02115 32.0625 14.71875 C 32.499975 17.23233 33.803512 27.024864 35.3125 38.3125 C 36.02226 43.62157 36.663923 48.72802 37.46875 54.5625 C 37.469586 54.568729 37.566287 54.587698 37.59375 54.59375 C 37.110458 54.923094 36.602937 55.26122 36.125 55.625 C 30.335131 48.051406 24.155933 42.217304 20.3125 38.15625 C 17.516368 35.201831 15.264043 33.180661 14.6875 33.46875 C 12.11006 33.53408 7.57966 33.60275 7.1875 33.71875 C 6.7023 33.86216 7.177534 35.33001 9.125 38.6875 C 13.39014 45.94522 17.76636 52.949176 21.8125 60.25 C 21.995042 60.579388 22.162613 60.919558 22.34375 61.25 C 22.831812 62.140314 23.303969 63.037528 23.78125 63.9375 C 24.412504 65.127892 25.046062 66.318476 25.65625 67.53125 C 25.538642 67.718911 25.429174 67.902817 25.3125 68.09375 C 24.992276 68.617002 24.656681 69.139404 24.34375 69.6875 C 24.295945 69.771355 24.23513 69.853061 24.1875 69.9375 C 21.510341 68.544474 19.016422 67.358634 16.65625 66.15625 C 13.445369 64.52048 10.752978 63.405477 9.78125 63.46875 C 9.7728814 63.467965 9.7580064 63.469204 9.75 63.46875 C 8.157013 63.37846 2.16498 62.58692 1.5625 62.90625 C 1.104793 63.14889 2.639563 65.1874 5.09375 67.90625 C 6.6382056 69.617244 9.7013759 73.184343 15.40625 77.96875 C 15.40462 77.97879 15.407877 77.98996 15.40625 78 C 15.929242 78.438445 16.462614 78.854333 17.03125 79.3125 C 17.651194 79.81345 18.292035 80.31987 18.96875 80.84375 C 19.031058 80.891816 19.093452 80.951752 19.15625 81 L 19.375 81.15625 C 19.925397 81.577235 20.474254 82.003211 21.0625 82.4375 C 21.656419 82.877449 22.30374 83.359742 22.9375 83.8125 C 23.13301 83.951671 23.33188 84.078401 23.53125 84.21875 C 25.078802 85.311944 26.678786 86.406198 28.46875 87.5625 L 36.40625 88.65625 L 36.40625 88.625 L 36.4375 88.625 L 36.46875 88.65625 C 36.72075 87.51055 37.004873 86.3638 37.3125 85.3125 C 37.7093 83.9564 38.08114 82.7034 38.5625 81.5 C 42.718485 71.109725 49.858307 66.29146 57.0625 65.5 C 57.324248 65.572367 57.585064 65.668045 57.84375 65.75 C 57.884351 65.762874 57.928229 65.768142 57.96875 65.78125 C 58.070556 65.814148 58.179963 65.840634 58.28125 65.875 C 58.855323 66.069981 59.413463 66.290231 59.96875 66.53125 C 60.062455 66.571857 60.156888 66.614364 60.25 66.65625 C 60.292637 66.675467 60.33249 66.699266 60.375 66.71875 C 60.652312 66.84565 60.915863 66.955638 61.1875 67.09375 C 61.423319 67.213524 61.675026 67.3407 61.90625 67.46875 C 61.97921 67.509251 62.052518 67.552435 62.125 67.59375 C 62.359788 67.727343 62.582931 67.857982 62.8125 68 C 62.88774 68.046531 62.956594 68.108827 63.03125 68.15625 C 63.256621 68.299437 63.498903 68.442538 63.71875 68.59375 C 63.781421 68.636955 63.844046 68.674901 63.90625 68.71875 C 64.134207 68.87907 64.341013 69.049909 64.5625 69.21875 C 64.905454 69.48022 65.236143 69.749923 65.5625 70.03125 C 65.775059 70.214299 65.982431 70.402528 66.1875 70.59375 C 66.497268 70.88267 66.802117 71.161732 67.09375 71.46875 C 67.773921 72.18547 68.398722 72.972069 68.96875 73.78125 C 69.006364 73.834563 69.056651 73.883804 69.09375 73.9375 C 69.257069 74.174372 69.409438 74.41208 69.5625 74.65625 C 69.595252 74.708419 69.623977 74.760003 69.65625 74.8125 C 69.811245 75.064798 69.981327 75.334021 70.125 75.59375 C 70.147626 75.634759 70.165163 75.67756 70.1875 75.71875 C 70.334995 75.990084 70.45904 76.252166 70.59375 76.53125 C 70.614256 76.573793 70.636048 76.613531 70.65625 76.65625 C 70.724817 76.801017 70.77871 76.946976 70.84375 77.09375 C 70.921173 77.268331 71.021419 77.447633 71.09375 77.625 C 71.212195 77.91635 71.333183 78.232605 71.4375 78.53125 C 71.451655 78.571805 71.454861 78.615563 71.46875 78.65625 C 71.571822 78.957985 71.66182 79.253667 71.75 79.5625 C 71.761857 79.603984 71.769667 79.645891 71.78125 79.6875 C 71.867626 79.998035 71.960408 80.307635 72.03125 80.625 C 72.040596 80.66673 72.053428 80.708154 72.0625 80.75 C 72.131417 81.068899 72.197253 81.393296 72.25 81.71875 C 72.274729 81.871901 72.291433 82.032943 72.3125 82.1875 C 72.392879 82.77501 72.443123 83.361878 72.46875 83.96875 C 72.470095 84.000307 72.467557 84.030893 72.46875 84.0625 C 72.481958 84.415488 72.474828 84.765919 72.46875 85.125 C 72.468245 85.156376 72.469405 85.187329 72.46875 85.21875 C 72.468084 85.249622 72.469561 85.281584 72.46875 85.3125 C 72.44187 86.364078 72.32666 87.433158 72.125 88.53125 C 72.11164 88.604205 72.107915 88.676857 72.09375 88.75 C 72.091722 88.760432 72.095794 88.770814 72.09375 88.78125 C 72.015656 89.181526 71.915094 89.563077 71.8125 89.96875 C 71.807566 89.988346 71.817492 90.011642 71.8125 90.03125 C 71.604655 90.844406 71.341628 91.667434 71.03125 92.5 C 71.027821 92.509215 71.034692 92.522032 71.03125 92.53125 C 70.875191 92.948455 70.682835 93.359728 70.5 93.78125 L 81.6875 96.28125 C 89.632562 97.836843 97.522492 99.157997 103.9375 99.78125 C 106.0531 100.10533 108.12833 100.39481 110.125 100.625 C 113.80108 101.039 117.05798 101.24695 119.65625 101.15625 C 124.79236 100.97705 128.4213 100.4226 119.8125 98 C 111.48447 95.6564 107.75636 93.5841 92.5625 88.25 C 92.81663 86.5721 92.96622 84.9526 92.96875 83.3125 C 104.65046 79.6846 115.5299 74.54999 120.40625 71.3125 C 124.3037 68.724972 127.19434 65.395542 125.53125 64.8125 C 125.52653 64.792203 125.52227 64.761273 125.5 64.75 C 125.47889 64.729027 125.46337 64.721143 125.40625 64.71875 C 124.5493 64.68282 122.83225 64.584187 121.21875 64.5 C 119.59873 64.4065 118.05882 64.31917 117.5625 64.3125 C 116.7712 64.302525 115.08061 64.797862 113 65.59375 C 112.98669 65.598833 112.98209 65.619892 112.96875 65.625 C 112.28568 65.88687 111.56281 66.179587 110.8125 66.5 C 110.79935 66.505607 110.79442 66.525628 110.78125 66.53125 C 110.21485 66.76975 109.21097 67.051678 107.96875 67.40625 C 107.32468 67.594617 106.61139 67.78871 105.8125 68 C 105.16232 68.170387 104.61673 68.324739 103.90625 68.5 C 103.81547 68.522235 103.74828 68.54012 103.65625 68.5625 C 102.00814 68.970877 100.09306 69.403384 98.09375 69.84375 C 95.810124 70.339217 93.385713 70.825276 90.84375 71.3125 C 90.380633 70.051707 89.832389 68.846479 89.21875 67.65625 C 101.87091 59.79668 112.88537 49.81114 117.65625 44.5625 C 120.74911 41.160007 122.82064 37.45606 121.8125 36.75 C 121.7564 36.672176 121.6539 36.630267 121.5 36.625 C 121.39876 36.612828 121.28669 36.60737 121.15625 36.625 C 119.55693 36.592551 114.34336 36.677829 113.6875 36.71875 C 113.57222 36.725936 113.43189 36.747509 113.28125 36.78125 C 113.23361 36.790892 113.17643 36.79996 113.125 36.8125 C 112.8511 36.885087 112.54081 36.984788 112.15625 37.15625 C 112.14266 37.162007 112.13873 37.181604 112.125 37.1875 C 112.01029 37.239163 111.87496 37.313307 111.75 37.375 C 110.63436 37.904068 109.10463 38.810232 107.0625 40.40625 C 105.17575 41.88083 100.23301 44.92469 93.46875 48.75 C 90.171211 50.621334 86.443509 52.680597 82.34375 54.84375 C 89.499458 45.07835 93.103171 35.252058 99.8125 24.8125 C 102.67871 20.352747 104.48058 15.473825 102.6875 16.09375 C 102.42413 16.10586 101.57403 16.167229 100.90625 16.21875 C 100.08192 16.283192 99.711126 16.324784 98.71875 16.40625 C 97.055481 16.540138 95.385795 16.639195 95.25 16.625 C 94.990451 16.597869 94.599606 16.757924 94.03125 17.15625 C 93.466948 17.553687 92.758182 18.187878 91.84375 19.15625 C 91.543302 19.471381 91.214238 19.802575 90.875 20.1875 C 90.869586 20.193667 90.880425 20.212565 90.875 20.21875 C 90.540002 20.599247 90.154828 21.016007 89.78125 21.46875 C 89.023405 22.387198 87.755935 23.982406 86.03125 26.09375 C 83.047898 29.729079 79.122715 34.447218 73.71875 40.5 C 73.606819 40.625242 73.48777 40.749165 73.375 40.875 C 72.634536 41.698463 71.931549 42.497835 71.15625 43.34375 C 71.109892 43.394517 71.077728 43.449162 71.03125 43.5 C 70.672471 43.891024 70.272067 44.292466 69.90625 44.6875 C 69.728734 44.879884 69.554122 45.088023 69.375 45.28125 C 73.506793 32.71509 73.919367 22.720001 74.5625 16.25 C 74.920732 12.645822 74.857897 9.939745 74.34375 9.03125 C 74.317887 8.9524756 74.265171 8.893948 74.21875 8.84375 C 74.186406 8.8069755 74.160176 8.7748881 74.125 8.75 C 74.116272 8.745363 74.102971 8.7539451 74.09375 8.75 C 73.966193 8.6693291 73.820167 8.668991 73.65625 8.75 C 71.391671 8.9833249 66.614793 9.63008 66.15625 9.5 C 65.512037 9.3172 64.443444 10.6456 62.96875 14.6875 C 61.670027 18.247086 57.45124 28.554168 52.21875 43.90625 C 49.018331 31.734582 45.304004 21.545946 43.40625 15.25 C 42.238783 11.3768 40.83666 8.6614 40.0625 8.65625 z M 53.46875 76.84375 C 53.157493 76.838 52.872993 76.8465 52.5625 76.875 C 52.132071 76.914578 51.699601 76.981139 51.28125 77.0625 C 51.027478 77.11176 50.779641 77.185902 50.53125 77.25 C 50.256495 77.320912 49.986004 77.411454 49.71875 77.5 C 49.637269 77.527033 49.549475 77.533861 49.46875 77.5625 C 49.013264 77.723831 48.584804 77.914181 48.15625 78.125 C 47.995654 78.203635 47.843861 78.289693 47.6875 78.375 C 47.549412 78.450559 47.415835 78.544339 47.28125 78.625 C 47.004606 78.79071 46.729459 78.93839 46.46875 79.125 C 46.156343 79.34778 45.880964 79.592391 45.59375 79.84375 C 45.554926 79.877777 45.507085 79.902966 45.46875 79.9375 C 45.146042 80.227817 44.817218 80.518766 44.53125 80.84375 C 44.490999 80.889633 44.476976 80.953454 44.4375 81 C 44.34124 81.113051 44.247817 81.22683 44.15625 81.34375 C 44.10635 81.407694 44.048461 81.466173 44 81.53125 C 43.887174 81.682232 43.792346 81.843032 43.6875 82 C 43.511169 82.264511 43.339965 82.531716 43.1875 82.8125 C 42.342729 84.36396 41.869144 86.162505 41.90625 88.125 C 41.935006 89.646181 42.2444 91.09517 42.8125 92.40625 C 42.803115 92.406185 42.790618 92.406318 42.78125 92.40625 C 42.842669 92.548256 42.932123 92.674253 43 92.8125 C 43.07727 92.970511 43.133023 93.128485 43.21875 93.28125 C 43.24408 93.32633 43.286431 93.361649 43.3125 93.40625 C 43.458963 93.656858 43.611344 93.89052 43.78125 94.125 C 43.81682 94.174206 43.838395 94.232798 43.875 94.28125 C 43.883771 94.292834 43.897419 94.30096 43.90625 94.3125 C 43.933004 94.347537 43.972699 94.371619 44 94.40625 C 44.139795 94.583303 44.283351 94.771582 44.4375 94.9375 C 44.487752 94.991533 44.541968 95.040957 44.59375 95.09375 C 44.810497 95.314766 45.037563 95.520738 45.28125 95.71875 C 45.355519 95.779266 45.423209 95.847999 45.5 95.90625 C 45.658679 96.026478 45.830523 96.139823 46 96.25 C 46.114189 96.324281 46.224636 96.39923 46.34375 96.46875 C 46.351526 96.473287 46.367203 96.464233 46.375 96.46875 C 46.570152 96.581813 46.760389 96.712733 46.96875 96.8125 C 47.020216 96.837078 47.072727 96.851259 47.125 96.875 C 47.298667 96.954128 47.473629 97.024115 47.65625 97.09375 C 48.039726 97.240346 48.451722 97.366657 48.875 97.46875 C 49.178211 97.541282 49.488758 97.608073 49.8125 97.65625 C 50.832367 97.808069 54.161748 98.430421 56.1875 98.78125 C 56.196813 98.782863 56.209505 98.779652 56.21875 98.78125 C 56.239312 98.784804 56.26103 98.809022 56.28125 98.8125 C 56.906643 98.974744 57.561631 99.053716 58.21875 99.09375 C 59.795821 99.285532 60.634949 99.265754 60.96875 98.875 C 61.104166 98.846384 61.239467 98.846731 61.375 98.8125 C 67.068582 97.374484 70.671634 91.47194 69.40625 85.65625 L 69.34375 85.4375 C 68.371277 81.390101 65.286215 78.516474 61.5625 77.6875 C 61.405577 77.631908 61.250772 77.584537 61.0625 77.5625 C 61.027727 77.558429 60.972999 77.566563 60.9375 77.5625 C 60.85426 77.549354 60.771249 77.54234 60.6875 77.53125 C 60.631304 77.525081 60.55764 77.506149 60.5 77.5 C 58.496298 77.286246 55.709298 77.099586 54.40625 76.9375 C 54.096784 76.899 53.780007 76.8495 53.46875 76.84375 z M 39.71875 103.375 C 39.58101 103.67203 39.436719 103.93982 39.28125 104.21875 C 39.148903 104.4562 39.019663 104.68139 38.875 104.90625 C 38.849726 104.94554 38.838141 104.99234 38.8125 105.03125 C 38.72977 105.15721 38.649013 105.28416 38.5625 105.40625 C 38.466685 105.54131 38.350334 105.68206 38.25 105.8125 C 38.120778 105.98036 37.980232 106.15207 37.84375 106.3125 C 37.785667 106.38059 37.71561 106.43322 37.65625 106.5 C 37.465753 106.71478 37.297015 106.9233 37.09375 107.125 C 37.07312 107.14551 37.052008 107.16712 37.03125 107.1875 C 36.943249 107.27373 36.840266 107.35359 36.75 107.4375 C 36.61664 107.56166 36.481926 107.69328 36.34375 107.8125 C 36.310824 107.84088 36.283193 107.87815 36.25 107.90625 C 36.050585 108.07513 35.865027 108.21574 35.65625 108.375 C 35.555352 108.45226 35.446761 108.51866 35.34375 108.59375 C 35.192734 108.70363 35.030398 108.83213 34.875 108.9375 C 34.824704 108.97158 34.769492 108.99763 34.71875 109.03125 C 34.288954 109.31621 33.866103 109.5898 33.40625 109.84375 C 33.364757 109.86666 33.322972 109.88357 33.28125 109.90625 C 32.722557 110.20992 32.127553 110.4853 31.53125 110.75 C 31.446028 110.78778 31.367164 110.83794 31.28125 110.875 C 31.087484 110.9587 30.884645 111.01357 30.6875 111.09375 C 30.127692 111.32142 29.552503 111.54739 28.96875 111.75 C 28.577344 111.88571 28.181576 112.02995 27.78125 112.15625 C 20.155822 114.5654 11.069386 115.38156 5.53125 119.71875 C 8.7175585 120.72489 10.500721 121.24379 13.84375 122.125 C 13.855233 122.12803 13.863481 122.12196 13.875 122.125 C 19.778126 123.96652 28.409502 123.21922 38.71875 120.875 C 39.735953 120.53008 40.628187 120.13849 41.4375 119.71875 C 41.695888 119.58506 41.94706 119.4538 42.1875 119.3125 C 42.33058 119.22852 42.456584 119.14917 42.59375 119.0625 C 42.933855 118.84827 43.25523 118.63696 43.5625 118.40625 C 43.58072 118.39255 43.606886 118.38876 43.625 118.375 C 43.972995 118.11107 44.281105 117.81658 44.59375 117.53125 C 44.646612 117.48306 44.698026 117.4238 44.75 117.375 C 44.759908 117.3768 44.771344 117.37321 44.78125 117.375 C 47.837081 114.49051 49.387574 110.54165 53.0625 105.53125 C 51.109113 105.67285 49.443397 105.4343 48.15625 104.6875 C 48.130607 104.7428 48.088774 104.78904 48.0625 104.84375 C 45.047894 104.43323 42.064528 103.99428 39.71875 103.375 z "
       transform="translate(0,924.36218)"
       id="path7264" />
  </g>
</svg>
