<?xml version="1.0" encoding="UTF-8" standalone="no"?>
<!-- Created with Inkscape (http://www.inkscape.org/) -->

<svg
   xmlns:dc="http://purl.org/dc/elements/1.1/"
   xmlns:cc="http://creativecommons.org/ns#"
   xmlns:rdf="http://www.w3.org/1999/02/22-rdf-syntax-ns#"
   xmlns:svg="http://www.w3.org/2000/svg"
   xmlns="http://www.w3.org/2000/svg"
   xmlns:xlink="http://www.w3.org/1999/xlink"
   xmlns:sodipodi="http://sodipodi.sourceforge.net/DTD/sodipodi-0.dtd"
   xmlns:inkscape="http://www.inkscape.org/namespaces/inkscape"
   width="128"
   height="128"
   id="svg12387"
   version="1.1"
   inkscape:version="0.48.3.1 r9886"
   sodipodi:docname="audio-headset-symbolic.svg">
  <defs
     id="defs12389">
    <linearGradient
       inkscape:collect="always"
       xlink:href="#linearGradient8702-9"
       id="linearGradient12412"
       gradientUnits="userSpaceOnUse"
       gradientTransform="translate(-167.5,-78)"
       x1="500.56628"
       y1="969.16504"
       x2="529.625"
       y2="969.16504" />
    <linearGradient
       id="linearGradient8702-9">
      <stop
         id="stop8704-1"
         offset="0"
         style="stop-color:#ff6e00;stop-opacity:1;" />
      <stop
         id="stop8706-9"
         offset="1"
         style="stop-color:#eb2600;stop-opacity:1;" />
    </linearGradient>
    <linearGradient
       inkscape:collect="always"
       xlink:href="#linearGradient8702-9"
       id="linearGradient12449"
       x1="1.8125"
       y1="5.2121449"
       x2="124.32589"
       y2="123.06929"
       gradientUnits="userSpaceOnUse" />
  </defs>
  <sodipodi:namedview
     id="base"
     pagecolor="#ffffff"
     bordercolor="#666666"
     borderopacity="1.0"
     inkscape:pageopacity="0.0"
     inkscape:pageshadow="2"
     inkscape:zoom="0.7"
     inkscape:cx="418.72536"
     inkscape:cy="65.000966"
     inkscape:document-units="px"
     inkscape:current-layer="layer1"
     showgrid="false"
     inkscape:window-width="1366"
     inkscape:window-height="717"
     inkscape:window-x="0"
     inkscape:window-y="0"
     inkscape:window-maximized="1" />
  <metadata
     id="metadata12392">
    <rdf:RDF>
      <cc:Work
         rdf:about="">
        <dc:format>image/svg+xml</dc:format>
        <dc:type
           rdf:resource="http://purl.org/dc/dcmitype/StillImage" />
        <dc:title></dc:title>
      </cc:Work>
    </rdf:RDF>
  </metadata>
  <g
     inkscape:label="Capa 1"
     inkscape:groupmode="layer"
     id="layer1"
     transform="translate(0,-924.36218)">
    <path
       style="fill:url(#linearGradient12449);fill-opacity:1;stroke:none;display:inline"
       d="M 69.375 8.09375 C 67.352038 8.117098 65.20807 8.3350853 62.96875 8.78125 L 51.65625 16.4375 C 60.21396 14.93086 68.9639 16.67982 74.21875 22.21875 C 82.38531 30.97529 87.70584 47.40367 89.96875 64.125 C 94.91933 60.25567 100.16855 57.2879 107.3125 60.4375 C 98.799943 27.094505 88.930301 7.8680567 69.375 8.09375 z M 61.96875 8.125 L 39.65625 10.78125 C 22.52225 13.89261 7.9889299 41.59778 13.3125 68.78125 C 18.66367 62.17618 28.33949 59.87856 34.96875 64.4375 C 27.67989 34.9071 43.2696 14.76449 61.96875 8.125 z M 100.40625 61.46875 C 91.969274 61.958258 84.28125 71.305506 84.28125 84.625 C 84.28125 98.8325 92.734524 110.08805 101.65625 112.53125 C 112.0626 115.38115 121.46875 105.4575 121.46875 91.25 C 121.46875 77.0426 114.27087 62.5216 102.09375 61.5 C 101.5266 61.45242 100.96872 61.43612 100.40625 61.46875 z M 26.46875 65.71875 C 26.140398 65.713095 25.826311 65.731187 25.5 65.75 C 15.710656 66.314391 6.8125 77.108 6.8125 92.46875 C 6.8125 108.85335 16.61696 121.8074 26.96875 124.625 C 32.372507 126.09566 37.527104 124.61023 41.59375 121.0625 C 32.691617 116.35683 24.322253 111.1319 20.59375 103.625 C 28.657616 108.5844 36.962644 114.6283 47.34375 117 L 47.34375 117.03125 L 73.03125 122.625 C 82.324999 125.18193 88.219968 126.67818 94.78125 125.9375 C 103.40595 125.78623 101.57468 117.10866 96.09375 115.375 C 90.054524 113.57727 83.15742 115.14674 74.09375 114.4375 L 48.53125 109.96875 C 49.461743 106.97754 49.96875 103.65216 49.96875 100.09375 C 49.96875 83.70915 41.59768 66.95939 27.46875 65.78125 C 27.13972 65.75381 26.797102 65.72441 26.46875 65.71875 z "
       transform="translate(0,924.36218)"
       id="path12352" />
  </g>
</svg>
