<?xml version="1.0" encoding="UTF-8" standalone="no"?>
<!-- Created with Inkscape (http://www.inkscape.org/) -->

<svg
   xmlns:dc="http://purl.org/dc/elements/1.1/"
   xmlns:cc="http://creativecommons.org/ns#"
   xmlns:rdf="http://www.w3.org/1999/02/22-rdf-syntax-ns#"
   xmlns:svg="http://www.w3.org/2000/svg"
   xmlns="http://www.w3.org/2000/svg"
   xmlns:xlink="http://www.w3.org/1999/xlink"
   xmlns:sodipodi="http://sodipodi.sourceforge.net/DTD/sodipodi-0.dtd"
   xmlns:inkscape="http://www.inkscape.org/namespaces/inkscape"
   width="128"
   height="128"
   id="svg52672"
   sodipodi:version="0.32"
   inkscape:version="0.48.3.1 r9886"
   version="1.0"
   sodipodi:docname="computer-symbolic.svg"
   inkscape:output_extension="org.inkscape.output.svg.inkscape">
  <defs
     id="defs52674">
    <linearGradient
       inkscape:collect="always"
       xlink:href="#linearGradient5316"
       id="linearGradient7155"
       gradientUnits="userSpaceOnUse"
       gradientTransform="matrix(-1.8569961,-0.1174335,0,2.0457044,1139.2178,-1852.8853)"
       x1="498.60016"
       y1="946.49426"
       x2="522.5636"
       y2="973.81616" />
    <linearGradient
       inkscape:collect="always"
       xlink:href="#linearGradient5362"
       id="linearGradient7157"
       gradientUnits="userSpaceOnUse"
       gradientTransform="matrix(-1.8569961,-0.1174335,0,2.0457044,1030.3234,-1827.0759)"
       x1="502.38962"
       y1="924.50549"
       x2="477.1254"
       y2="983.39539" />
    <linearGradient
       inkscape:collect="always"
       xlink:href="#linearGradient5439"
       id="linearGradient7183"
       gradientUnits="userSpaceOnUse"
       gradientTransform="matrix(3.102517,0,0,3.102517,-1530.0643,-2940.8474)"
       x1="493.45328"
       y1="964.76178"
       x2="537.78333"
       y2="999.99316" />
    <linearGradient
       inkscape:collect="always"
       xlink:href="#linearGradient5439"
       id="linearGradient7185"
       gradientUnits="userSpaceOnUse"
       gradientTransform="matrix(3.1005198,-0.1113041,0.1113041,3.1005198,-1638.9676,-2879.7187)"
       x1="498.13345"
       y1="980.80957"
       x2="521.78833"
       y2="992.88416" />
    <linearGradient
       inkscape:collect="always"
       xlink:href="#linearGradient5439"
       id="linearGradient7187"
       gradientUnits="userSpaceOnUse"
       gradientTransform="matrix(3.1005198,-0.1113041,0.1113041,3.1005198,-1639.0268,-2881.3658)"
       x1="510.11899"
       y1="987.46198"
       x2="509.47601"
       y2="983.22491" />
    <linearGradient
       inkscape:collect="always"
       xlink:href="#linearGradient5439"
       id="linearGradient7189"
       gradientUnits="userSpaceOnUse"
       gradientTransform="matrix(3.102517,0,0,3.102517,-1529.6529,-2935.8745)"
       x1="510.99878"
       y1="984.02551"
       x2="506.48749"
       y2="984.24017" />
    <linearGradient
       inkscape:collect="always"
       xlink:href="#linearGradient5439"
       id="linearGradient7191"
       gradientUnits="userSpaceOnUse"
       gradientTransform="matrix(3.102517,0,0,3.102517,-1530.0643,-2940.8474)"
       x1="493.26483"
       y1="953.70477"
       x2="549.66443"
       y2="1010.7368" />
    <linearGradient
       inkscape:collect="always"
       xlink:href="#linearGradient5439"
       id="linearGradient7193"
       gradientUnits="userSpaceOnUse"
       gradientTransform="matrix(3.102517,0,0,3.102517,-1530.0643,-2940.6419)"
       x1="524.6441"
       y1="985.29364"
       x2="482.33151"
       y2="952.13416" />
    <linearGradient
       inkscape:collect="always"
       xlink:href="#linearGradient5316"
       id="linearGradient7199"
       x1="532.4613"
       y1="730.67334"
       x2="526.32294"
       y2="741.11426"
       gradientUnits="userSpaceOnUse"
       gradientTransform="matrix(2.6765239,0,0,2.6765239,-1299.4682,-1926.0677)" />
    <linearGradient
       inkscape:collect="always"
       xlink:href="#linearGradient5439"
       id="linearGradient7159"
       gradientUnits="userSpaceOnUse"
       gradientTransform="matrix(-1.7762577,-0.1123278,0,1.9567617,988.27557,-1762.3658)"
       x1="496.4892"
       y1="949.46588"
       x2="469.63275"
       y2="915.52936" />
    <linearGradient
       inkscape:collect="always"
       xlink:href="#linearGradient5439"
       id="linearGradient7161"
       gradientUnits="userSpaceOnUse"
       gradientTransform="matrix(-1.7762577,-0.1123278,0,1.9567617,988.27557,-1762.4739)"
       x1="495.70264"
       y1="953.7829"
       x2="467.08371"
       y2="917.90753" />
    <linearGradient
       inkscape:collect="always"
       xlink:href="#linearGradient5439"
       id="linearGradient7163"
       gradientUnits="userSpaceOnUse"
       gradientTransform="matrix(-1.7762577,-0.1123278,0,1.9567617,988.27557,-1762.6412)"
       x1="495.70264"
       y1="957.15552"
       x2="472.7067"
       y2="924.98712" />
    <linearGradient
       inkscape:collect="always"
       xlink:href="#linearGradient5439"
       id="linearGradient7165"
       gradientUnits="userSpaceOnUse"
       gradientTransform="matrix(-1.7762577,-0.1123278,0,1.9567617,988.27557,-1762.6412)"
       x1="494.21844"
       y1="963.11328"
       x2="466.59161"
       y2="929.26068" />
    <linearGradient
       inkscape:collect="always"
       xlink:href="#linearGradient5439"
       id="linearGradient7167"
       gradientUnits="userSpaceOnUse"
       gradientTransform="matrix(-1.8569961,-0.1174335,0,2.0457044,1028.5556,-1844.7536)"
       x1="483.72665"
       y1="981.46326"
       x2="485.16864"
       y2="996.6402" />
    <linearGradient
       inkscape:collect="always"
       xlink:href="#linearGradient5316"
       id="linearGradient7171"
       gradientUnits="userSpaceOnUse"
       gradientTransform="matrix(-1.2887851,-8.1500755e-2,0,1.4197517,748.75103,-1254.0556)"
       x1="489.21515"
       y1="967.22699"
       x2="489.86557"
       y2="972.28607" />
    <linearGradient
       inkscape:collect="always"
       xlink:href="#linearGradient5362"
       id="linearGradient7173"
       gradientUnits="userSpaceOnUse"
       gradientTransform="matrix(-1.4829447,-9.3779095e-2,0,1.6336415,845.02694,-1456.3337)"
       x1="489.41556"
       y1="968.39825"
       x2="491.43222"
       y2="972.57013" />
    <linearGradient
       inkscape:collect="always"
       xlink:href="#linearGradient5316"
       id="linearGradient7175"
       gradientUnits="userSpaceOnUse"
       gradientTransform="matrix(-1.1041745,-6.9826272e-2,0,1.2163811,658.55967,-1062.216)"
       x1="489.21515"
       y1="967.22699"
       x2="489.86557"
       y2="972.28607" />
    <linearGradient
       inkscape:collect="always"
       xlink:href="#linearGradient5439"
       id="linearGradient7179"
       gradientUnits="userSpaceOnUse"
       gradientTransform="matrix(-0.4645626,-2.9378222e-2,0,0.5117717,345.07893,-387.73477)"
       x1="486.55191"
       y1="963.77484"
       x2="494.77527"
       y2="979.01587" />
    <linearGradient
       inkscape:collect="always"
       xlink:href="#linearGradient5439"
       id="linearGradient7181"
       gradientUnits="userSpaceOnUse"
       gradientTransform="matrix(-1.8569961,-0.1174335,0,2.0457044,1028.5556,-1844.618)"
       x1="492.4425"
       y1="968.6897"
       x2="484.23508"
       y2="947.95209" />
    <linearGradient
       inkscape:collect="always"
       xlink:href="#linearGradient9863"
       id="linearGradient10076"
       x1="811.05188"
       y1="98.332428"
       x2="811.05188"
       y2="51.711639"
       gradientUnits="userSpaceOnUse"
       gradientTransform="matrix(2.6765239,0,0,2.6765239,-2101.6337,-138.14979)" />
    <linearGradient
       id="linearGradient9863">
      <stop
         style="stop-color:#2f445a;stop-opacity:1;"
         offset="0"
         id="stop9865" />
      <stop
         style="stop-color:#415f7c;stop-opacity:1"
         offset="1"
         id="stop9867" />
    </linearGradient>
    <linearGradient
       inkscape:collect="always"
       xlink:href="#linearGradient5344"
       id="linearGradient58832"
       gradientUnits="userSpaceOnUse"
       gradientTransform="translate(-184,-280)"
       x1="519.31262"
       y1="723.67017"
       x2="511.42725"
       y2="667.20789" />
    <linearGradient
       inkscape:collect="always"
       xlink:href="#linearGradient5362"
       id="linearGradient58830"
       gradientUnits="userSpaceOnUse"
       gradientTransform="translate(-184,-280)"
       x1="504.91962"
       y1="635.44617"
       x2="504.48212"
       y2="641.10242" />
    <linearGradient
       inkscape:collect="always"
       xlink:href="#linearGradient5451"
       id="linearGradient58828"
       gradientUnits="userSpaceOnUse"
       gradientTransform="translate(-184,-280)"
       x1="484.70901"
       y1="674.9306"
       x2="533.03339"
       y2="674.9306" />
    <linearGradient
       id="linearGradient5316">
      <stop
         style="stop-color:#ff6e00;stop-opacity:1;"
         offset="0"
         id="stop5320" />
      <stop
         style="stop-color:#eb2600;stop-opacity:1;"
         offset="1"
         id="stop5322" />
    </linearGradient>
    <linearGradient
       id="linearGradient5451">
      <stop
         style="stop-color:#000000;stop-opacity:0.35099337;"
         offset="0"
         id="stop5453" />
      <stop
         id="stop5459"
         offset="0.45549738"
         style="stop-color:#000000;stop-opacity:0.29139072;" />
      <stop
         style="stop-color:#000000;stop-opacity:0;"
         offset="1"
         id="stop5455" />
    </linearGradient>
    <linearGradient
       id="linearGradient5439">
      <stop
         style="stop-color:#ffffff;stop-opacity:1;"
         offset="0"
         id="stop5441" />
      <stop
         style="stop-color:#000000;stop-opacity:1;"
         offset="1"
         id="stop5443" />
    </linearGradient>
    <linearGradient
       id="linearGradient5362">
      <stop
         style="stop-color:#ffffff;stop-opacity:1;"
         offset="0"
         id="stop5364" />
      <stop
         style="stop-color:#ffffff;stop-opacity:0;"
         offset="1"
         id="stop5366" />
    </linearGradient>
    <linearGradient
       id="linearGradient8702">
      <stop
         id="stop8704"
         offset="0"
         style="stop-color:#ff6e00;stop-opacity:1;" />
      <stop
         id="stop8706"
         offset="1"
         style="stop-color:#eb2600;stop-opacity:1;" />
    </linearGradient>
    <linearGradient
       id="linearGradient5344">
      <stop
         style="stop-color:#000000;stop-opacity:1;"
         offset="0"
         id="stop5346" />
      <stop
         style="stop-color:#000000;stop-opacity:0;"
         offset="1"
         id="stop5348" />
    </linearGradient>
    <linearGradient
       inkscape:collect="always"
       xlink:href="#linearGradient5316"
       id="linearGradient4194"
       gradientUnits="userSpaceOnUse"
       gradientTransform="matrix(2.6765239,0,0,2.6765239,-1239.4682,-1926.0677)"
       x1="532.4613"
       y1="730.67334"
       x2="526.32294"
       y2="741.11426" />
    <linearGradient
       inkscape:collect="always"
       xlink:href="#linearGradient8702"
       id="linearGradient4204"
       x1="1.2303932"
       y1="1.3850172"
       x2="120.32386"
       y2="122.30028"
       gradientUnits="userSpaceOnUse" />
  </defs>
  <sodipodi:namedview
     id="base"
     pagecolor="#ffffff"
     bordercolor="#666666"
     borderopacity="1.0"
     inkscape:pageopacity="0.0"
     inkscape:pageshadow="2"
     inkscape:zoom="2.8284271"
     inkscape:cx="76.196625"
     inkscape:cy="70.446491"
     inkscape:document-units="px"
     inkscape:current-layer="layer1"
     showgrid="false"
     inkscape:window-width="1024"
     inkscape:window-height="712"
     inkscape:window-x="0"
     inkscape:window-y="0"
     showguides="true"
     inkscape:guide-bbox="true"
     inkscape:window-maximized="0" />
  <metadata
     id="metadata52677">
    <rdf:RDF>
      <cc:Work
         rdf:about="">
        <dc:format>image/svg+xml</dc:format>
        <dc:type
           rdf:resource="http://purl.org/dc/dcmitype/StillImage" />
      </cc:Work>
    </rdf:RDF>
  </metadata>
  <g
     inkscape:label="Capa 1"
     inkscape:groupmode="layer"
     id="layer1">
    <g
       inkscape:export-ydpi="89.986237"
       inkscape:export-xdpi="89.986237"
       inkscape:export-filename="/home/dafeba/DCV/tallerD/elementos.png"
       transform="translate(424,80)"
       id="g58804">
      <rect
         style="opacity:1;fill:#f2f2f2;fill-opacity:1;stroke:none;stroke-width:0.1;stroke-linecap:round;stroke-linejoin:round;stroke-miterlimit:4;stroke-dasharray:none;stroke-opacity:0.30041151"
         id="rect58806"
         width="47.823223"
         height="48"
         x="301.18933"
         y="351.1709" />
      <path
         style="fill:url(#linearGradient58828);fill-rule:evenodd;stroke:none;stroke-width:1px;stroke-linecap:butt;stroke-linejoin:miter;stroke-opacity:1"
         d="M 313.09207,399.15115 L 301.20351,395.7431 L 336.08403,390.7653 L 349.00384,390.68796 L 349.03336,399.15114 L 313.09207,399.15115 z"
         id="path58808"
         sodipodi:nodetypes="cccccc" />
      <path
         style="fill:#f2f2f2;fill-rule:evenodd;stroke:none;stroke-width:0.5;stroke-linecap:round;stroke-linejoin:round;stroke-miterlimit:4;stroke-dasharray:none;stroke-opacity:1"
         d="M 301.48601,353.22699 C 305.08831,353.57311 306.6134,357.74996 306.61071,360.86425 L 306.56413,389.36485 C 306.59506,392.86249 308.42012,396.3398 313.14348,398.87602 L 346.05226,393.25994 C 342.15451,392.5412 339.36778,388.67929 339.39934,385.53974 L 339.4778,361.97786 C 339.51198,358.9412 337.51957,355.88584 333.82005,355.55785 L 301.48601,353.22699 z"
         id="path58810"
         sodipodi:nodetypes="ccccccccc" />
      <path
         sodipodi:nodetypes="ccccc"
         id="path58812"
         d="M 301.48601,353.22699 C 305.08831,353.57311 306.6134,357.74996 306.61071,360.86425 L 339.4778,361.97786 C 339.51198,358.9412 337.51957,355.88584 333.82005,355.55785 L 301.48601,353.22699 z"
         style="fill:url(#linearGradient58830);fill-rule:evenodd;stroke:none;stroke-width:0.5;stroke-linecap:round;stroke-linejoin:round;stroke-miterlimit:4;stroke-dasharray:none;stroke-opacity:1" />
      <path
         sodipodi:nodetypes="ccccc"
         id="path58814"
         d="M 306.56413,389.36485 C 306.59506,392.86249 308.42012,396.3398 313.14348,398.87602 L 346.05226,393.25994 C 342.15451,392.5412 339.36778,388.67929 339.39934,385.53974 L 306.56413,389.36485 z"
         style="fill:url(#linearGradient58832);fill-rule:evenodd;stroke:none;stroke-width:0.5;stroke-linecap:round;stroke-linejoin:round;stroke-miterlimit:4;stroke-dasharray:none;stroke-opacity:1" />
      <path
         sodipodi:nodetypes="ccccccccc"
         id="path58816"
         d="M 301.48601,353.22699 C 305.08831,353.57311 306.6134,357.74996 306.61071,360.86425 L 306.56413,389.36485 C 306.59506,392.86249 308.42012,396.3398 313.14348,398.87602 L 346.05226,393.25994 C 342.15451,392.5412 339.36778,388.67929 339.39934,385.53974 L 339.4778,361.97786 C 339.51198,358.9412 337.51957,355.88584 333.82005,355.55785 L 301.48601,353.22699 z"
         style="fill:none;fill-rule:evenodd;stroke:#000000;stroke-width:0.5;stroke-linecap:round;stroke-linejoin:round;stroke-miterlimit:4;stroke-dasharray:none;stroke-opacity:1" />
    </g>
    <path
       sodipodi:nodetypes="ccccc"
       id="path58818"
       d="M 740.12551,445.55112 L 757.25142,445.69471 L 757.28066,447.8612 L 740.12588,448.00172 L 740.12551,445.55112 z"
       style="fill:#000000;fill-rule:evenodd;stroke:none;stroke-width:1px;stroke-linecap:butt;stroke-linejoin:miter;stroke-opacity:1" />
    <path
       style="fill:#000000;fill-rule:evenodd;stroke:none;stroke-width:1px;stroke-linecap:butt;stroke-linejoin:miter;stroke-opacity:1"
       d="M 744.24688,449.98324 L 754.3118,449.81922 L 754.31233,452.041 L 744.12653,452.24935 L 744.24688,449.98324 z"
       id="path58820"
       sodipodi:nodetypes="ccccc" />
    <path
       sodipodi:nodetypes="ccccc"
       id="path58822"
       d="M 737.18797,454.68729 L 758.68836,453.88522 L 758.75025,455.99227 L 737.18522,457.06633 L 737.18797,454.68729 z"
       style="fill:#000000;fill-rule:evenodd;stroke:none;stroke-width:1px;stroke-linecap:butt;stroke-linejoin:miter;stroke-opacity:1" />
    <path
       style="fill:#000000;fill-rule:evenodd;stroke:none;stroke-width:1px;stroke-linecap:butt;stroke-linejoin:miter;stroke-opacity:1"
       d="M 747.11973,459.21937 L 751.38008,458.93979 L 751.25403,461.03473 L 746.94583,461.39831 L 747.11973,459.21937 z"
       id="path58824"
       sodipodi:nodetypes="ccccc" />
    <path
       sodipodi:nodetypes="ccccc"
       id="path58826"
       d="M 742.54569,464.13694 L 754.55952,462.8959 L 754.44101,465.07791 L 742.37806,466.57431 L 742.54569,464.13694 z"
       style="fill:#000000;fill-rule:evenodd;stroke:none;stroke-width:1px;stroke-linecap:butt;stroke-linejoin:miter;stroke-opacity:1" />
    <path
       sodipodi:nodetypes="cccccc"
       id="path7111"
       d="M 94.185878,19.467226 L 94.138343,114.03872 L 39.705127,100.54585 L 39.705127,20.676988 L 89.934568,19.384816 C 91.35168,19.380051 92.768792,19.31362 94.185878,19.467226 z"
       style="fill:none;fill-rule:evenodd;stroke:none;stroke-width:0.5;stroke-linecap:butt;stroke-linejoin:miter;stroke-miterlimit:4;stroke-dasharray:none;stroke-opacity:1;display:inline"
       inkscape:export-filename="/home/dafeba/DCV/tallerD/bocetos/compu.png"
       inkscape:export-xdpi="180.6653"
       inkscape:export-ydpi="180.6653" />
    <path
       style="fill:url(#linearGradient4204);fill-rule:evenodd;stroke:none;stroke-width:0.50000000000000000;stroke-linecap:butt;stroke-linejoin:miter;stroke-miterlimit:4;stroke-dasharray:none;stroke-opacity:1;display:inline"
       d="M 101.59375 21.71875 L 43.125 25.40625 C 40.620282 25.61981 39.68441 27.382941 39.71875 30.375 L 39.71875 49.625 L 67.9375 48.90625 C 67.956603 48.905356 67.980708 48.907121 68 48.90625 C 68.386065 48.888827 68.821445 48.876379 69.25 48.875 C 69.688212 48.873623 70.15746 48.880012 70.65625 48.9375 C 70.689441 48.941325 70.716536 48.933279 70.75 48.9375 L 77.75 49.5625 L 77.8125 49.5625 L 78.21875 49.59375 C 78.253024 49.596737 78.238389 49.590108 78.28125 49.59375 C 78.300136 49.595406 78.291763 49.591913 78.3125 49.59375 C 80.540243 49.791185 82.602348 50.738459 83.96875 52.375 C 85.335152 54.011541 85.9375 56.176402 85.9375 58.5 L 85.875 100.84375 C 85.875097 100.85408 85.874926 100.86467 85.875 100.875 C 85.893328 103.42782 85.210478 105.97794 83.75 108.09375 C 83.038185 109.12497 82.123922 110.03386 81.03125 110.75 L 102 115.5625 C 104.28864 116.11486 105.65673 116.07336 108 115.375 L 123.1875 112.4375 C 125.47039 111.96426 126.42487 110.13592 126.40625 106.875 C 126.04708 83.710252 126.70439 53.143177 126.6875 30 C 126.66756 27.190587 125.90393 23.504117 123.25 22.875 L 109.5625 21.96875 C 107.13245 21.785516 104.05848 21.710185 101.59375 21.71875 z M 107.34375 27.34375 L 125.625 28.5 L 125.6875 58.53125 L 107.15625 59.1875 L 107.34375 27.34375 z M 69.25 51.34375 C 68.845858 51.345022 68.434109 51.357605 68.0625 51.375 L 10.5 52.84375 C 5.770475 53.247903 2.15415 57.062376 2.1875 61.21875 L 1.9375 108.375 C 2.010275 112.33465 3.560696 116.23419 6.78125 117.15625 L 16.90625 119.90625 L 17.0625 119.875 C 17.801072 120.05535 18.614613 120.10613 19.5 119.96875 L 76.6875 109.84375 C 81.117121 109.20861 83.445649 105.07046 83.40625 100.875 L 83.46875 58.5 C 83.46875 54.696912 81.523067 52.366425 78.09375 52.0625 C 78.083851 52.061623 78.072424 52.063343 78.0625 52.0625 L 77.59375 52.03125 L 70.4375 51.40625 C 70.044987 51.356735 69.654142 51.342478 69.25 51.34375 z M 78.875 54.875 L 78.75 104.3125 L 15.90625 114.5 L 16.28125 57.90625 L 78.875 54.875 z M 123.5625 70.15625 L 123.8125 108.65625 C 123.70946 109.97572 123.24942 111.23061 122.21875 112.40625 L 108.96875 114.6875 C 109.97039 113.90341 110.6349 112.35392 110.71875 110.5625 L 110.71875 70.46875 L 123.5625 70.15625 z M 117.1875 78.4375 C 115.12733 78.645618 114.15625 81.038641 114.15625 83.59375 C 114.15625 86.255152 115.38243 88.957642 117.65625 88.6875 C 119.63725 88.452207 120.6875 85.649325 120.6875 83.4375 C 120.6875 81.225647 119.37057 78.508856 117.625 78.4375 C 117.47786 78.431361 117.32484 78.423625 117.1875 78.4375 z M 117.5 92.5 C 116.57596 92.461404 116.15625 93.46147 116.15625 94.53125 C 116.15625 95.57587 116.60752 96.637347 117.5 96.53125 C 118.27753 96.43891 118.6875 95.305658 118.6875 94.4375 C 118.6875 93.56937 118.18517 92.527996 117.5 92.5 z M 68.4375 113.8125 L 28.3125 120.90625 L 28.3125 121 C 28.501061 121.36535 29.002828 121.66402 29.875 121.90625 C 37.202707 124.10528 50.317258 123.20466 58.90625 121.125 C 64.783415 119.70189 68.71332 117.79094 68.78125 116.21875 L 68.71875 114.3125 C 68.711231 114.30204 68.695549 114.29156 68.6875 114.28125 C 68.647815 114.12302 68.564692 113.96038 68.4375 113.8125 z "
       id="path7139" />
  </g>
</svg>
