<?xml version="1.0" encoding="UTF-8" standalone="no"?>
<!-- Created with Inkscape (http://www.inkscape.org/) -->

<svg
   xmlns:dc="http://purl.org/dc/elements/1.1/"
   xmlns:cc="http://creativecommons.org/ns#"
   xmlns:rdf="http://www.w3.org/1999/02/22-rdf-syntax-ns#"
   xmlns:svg="http://www.w3.org/2000/svg"
   xmlns="http://www.w3.org/2000/svg"
   xmlns:xlink="http://www.w3.org/1999/xlink"
   xmlns:sodipodi="http://sodipodi.sourceforge.net/DTD/sodipodi-0.dtd"
   xmlns:inkscape="http://www.inkscape.org/namespaces/inkscape"
   width="128"
   height="128"
   id="svg2"
   sodipodi:version="0.32"
   inkscape:version="0.48.3.1 r9886"
   version="1.0"
   sodipodi:docname="drive-harddisk-system-symbolic.svg"
   inkscape:output_extension="org.inkscape.output.svg.inkscape">
  <defs
     id="defs4">
    <linearGradient
       id="linearGradient8702">
      <stop
         id="stop8704"
         offset="0"
         style="stop-color:#ff6e00;stop-opacity:1;" />
      <stop
         id="stop8706"
         offset="1"
         style="stop-color:#eb2600;stop-opacity:1;" />
    </linearGradient>
    <linearGradient
       inkscape:collect="always"
       xlink:href="#linearGradient8702"
       id="linearGradient4228"
       x1="16.54705"
       y1="10.225347"
       x2="100.17935"
       y2="106.87752"
       gradientUnits="userSpaceOnUse" />
  </defs>
  <sodipodi:namedview
     id="base"
     pagecolor="#ffffff"
     bordercolor="#666666"
     borderopacity="1.0"
     inkscape:pageopacity="0.0"
     inkscape:pageshadow="2"
     inkscape:zoom="1.7692308"
     inkscape:cx="106.47415"
     inkscape:cy="72.806915"
     inkscape:document-units="px"
     inkscape:current-layer="layer1"
     showgrid="false"
     inkscape:showpageshadow="false"
     inkscape:window-width="1024"
     inkscape:window-height="713"
     inkscape:window-x="0"
     inkscape:window-y="0"
     showguides="true"
     inkscape:guide-bbox="true"
     inkscape:window-maximized="0" />
  <metadata
     id="metadata7">
    <rdf:RDF>
      <cc:Work
         rdf:about="">
        <dc:format>image/svg+xml</dc:format>
        <dc:type
           rdf:resource="http://purl.org/dc/dcmitype/StillImage" />
      </cc:Work>
    </rdf:RDF>
  </metadata>
  <g
     inkscape:label="Capa 1"
     inkscape:groupmode="layer"
     id="layer1">
    <path
       style="fill:url(#linearGradient4228);fill-rule:evenodd;stroke:none;display:inline"
       d="M 24.125 2.78125 C 23.203939 2.767077 22.293775 2.77995 21.40625 2.8125 C 16.09332 3.0073668 11.45651 4.0870373 7.75 5.78125 C 7.741 5.78515 7.72735 5.77735 7.71875 5.78125 C 3.39058 7.6383749 0.29675 11.442457 0.15625 16.59375 A 1.3383958 1.3383958 0 0 0 0.15625 16.625 L 0.15625 103.875 C 0.13735 107.37566 0.6486 110.4256 1.84375 112.90625 C 3.0389 115.3869 5.00706 117.25851 7.625 118.09375 A 1.3383958 1.3383958 0 0 0 7.625 118.125 C 12.36387 119.5954 17.79306 121.23958 22.03125 121.625 A 1.3383958 1.3383958 0 0 0 22.0625 121.625 C 23.62644 121.74051 25.34847 121.6604 27.21875 121.34375 L 27.25 121.34375 L 118.125 107.125 A 1.3383958 1.3383958 0 0 0 118.15625 107.125 C 122.04157 106.47595 124.66057 104.40963 126.09375 101.6875 C 127.52693 98.965366 127.875 95.674583 127.875 92.3125 L 127.8125 21.71875 C 127.8095 19.308452 127.61838 16.692687 126.40625 14.4375 C 125.19412 12.182313 122.81704 10.482027 119.21875 10.125 L 26.9375 2.90625 C 25.97802 2.836641 25.046061 2.7954233 24.125 2.78125 z M 53.375 7.71875 C 54.045441 7.728818 54.702649 7.753061 55.375 7.8125 C 62.09571 8.4066403 68.491655 11.49722 73.96875 16.5625 C 75.741478 17.967991 78.072714 17.898233 79.71875 16.59375 L 83.75 13.3125 C 85.484387 11.767745 88.115705 11.004807 90.625 11.3125 L 114.71875 13.28125 C 116.55741 13.435096 117.92297 14.318479 118.84375 15.84375 L 123.34375 22.84375 C 124.07501 23.928438 124.7209 25.660202 124.625 27.3125 L 124.625 50.34375 C 124.7178 51.852882 123.99707 52.56058 123.03125 52.96875 L 118.25 55 C 117.30535 55.366496 116.85826 56.019173 116.84375 56.96875 L 116.78125 60.0625 C 116.78525 60.794878 117.07125 61.635742 118.0625 61.8125 L 122 62.96875 C 123.31754 63.275212 124.63659 64.735733 124.625 66.3125 L 124.625 90.6875 C 124.7085 92.27243 124.41617 93.336247 123.65625 94.5 L 117.9375 101.6875 C 116.78122 103.12864 115.57675 104.21417 113.5625 104.4375 L 87.15625 108.96875 C 85.578145 109.19855 84.321765 108.62624 83.59375 107.90625 L 79 103.3125 C 78.11565 102.2701 76.751936 102.32131 75.875 103.28125 L 75.875 103.25 C 70.09717 109.08026 63.0112 112.84336 55.25 114.125 C 33.11223 117.78073 13 96.915948 13 63.28125 C 13 30.58086 32.591328 7.4066461 53.375 7.71875 z M 55.28125 14.375 C 36.414556 14.167341 19.4375 35.184155 19.4375 64.9375 C 19.4375 95.540955 36.857364 114.51375 57 111.1875 C 64.119108 110.01189 70.626029 106.56624 75.90625 101.1875 C 77.283375 99.805604 79.280996 99.568134 80.59375 101 L 85.09375 105.8125 C 86.072742 106.96873 87.323359 107.06429 88.75 106.78125 L 113.1875 103.15625 C 114.71315 102.88308 115.88044 102.05426 116.625 101 L 122.5 93.4375 C 123.0466 92.679401 123.34321 91.814375 123.28125 90.53125 L 123.28125 66.78125 C 123.28125 65.757534 122.72077 64.925883 121.78125 64.65625 L 117.3125 63.5625 C 116.25332 63.23773 115.84375 62.499869 115.84375 61.5 L 115.90625 56.4375 C 115.94675 55.567148 116.3537 54.831889 117.125 54.5 L 122.0625 52.3125 C 122.77204 52.047096 123.3051 51.380288 123.28125 50.625 L 123.28125 29.375 C 123.22455 27.968192 122.77649 26.750838 122.125 25.59375 L 117.34375 18.5 C 116.60476 17.499381 115.67028 16.62936 113.375 16.5625 L 91.84375 15.0625 C 89.713987 14.909938 88.125534 15.399523 86.78125 16.5625 L 80 21.875 C 78.59356 22.859138 75.890701 23.352482 74.09375 22.0625 C 74.04115 22.02474 73.988474 21.97832 73.9375 21.9375 C 73.86486 21.87282 73.791781 21.813918 73.71875 21.75 C 73.600577 21.639403 73.48137 21.536215 73.375 21.40625 L 73.375 21.46875 C 68.635206 17.430276 63.117667 14.970864 57.125 14.46875 C 56.513 14.41747 55.889853 14.3817 55.28125 14.375 z M 91.34375 18.25 L 111.40625 19.6875 C 112.99463 19.893244 113.74129 21.879043 113.71875 23.5 L 113.71875 96.09375 C 113.80155 98.059228 112.9966 99.879675 110.59375 100.1875 L 91.40625 102.9375 C 88.832504 103.32388 87.71875 101.14606 87.71875 99.28125 L 87.6875 22.09375 C 87.6944 19.845791 89.22017 18.144679 91.34375 18.25 z M 55.90625 39.84375 C 56.199687 39.84135 56.515116 39.85542 56.8125 39.875 C 64.924134 40.416809 71.9375 51.405699 71.9375 62.8125 C 71.9375 74.295966 65.061869 85.930158 57.09375 87.09375 C 47.605259 88.479333 39.6875 77.96601 39.6875 64.03125 C 39.6875 50.457699 46.809691 39.919636 55.90625 39.84375 z M 55.46875 43.125 C 55.221707 43.12509 54.986931 43.13831 54.75 43.15625 C 47.642069 43.69441 42.1875 52.199532 42.1875 62.96875 C 42.1875 74.393101 48.68966 83.010994 56.46875 81.875 C 63.001384 80.921055 68.71875 71.477183 68.71875 62.0625 C 68.71875 52.710674 63.359056 43.696893 56.21875 43.15625 C 55.975105 43.13795 55.715793 43.12491 55.46875 43.125 z "
       id="path8898" />
  </g>
</svg>
