<?xml version="1.0" encoding="UTF-8" standalone="no"?>
<!-- Created with Inkscape (http://www.inkscape.org/) -->

<svg
   xmlns:dc="http://purl.org/dc/elements/1.1/"
   xmlns:cc="http://creativecommons.org/ns#"
   xmlns:rdf="http://www.w3.org/1999/02/22-rdf-syntax-ns#"
   xmlns:svg="http://www.w3.org/2000/svg"
   xmlns="http://www.w3.org/2000/svg"
   xmlns:xlink="http://www.w3.org/1999/xlink"
   xmlns:sodipodi="http://sodipodi.sourceforge.net/DTD/sodipodi-0.dtd"
   xmlns:inkscape="http://www.inkscape.org/namespaces/inkscape"
   width="128"
   height="128"
   id="svg36172"
   version="1.1"
   inkscape:version="0.48.3.1 r9886"
   sodipodi:docname="mate-about-me.svg">
  <defs
     id="defs36174">
    <linearGradient
       id="linearGradient75909">
      <stop
         id="stop75911"
         offset="0"
         style="stop-color:#ff6e00;stop-opacity:1;" />
      <stop
         id="stop75913"
         offset="1"
         style="stop-color:#eb2600;stop-opacity:1;" />
    </linearGradient>
    <linearGradient
       inkscape:collect="always"
       xlink:href="#linearGradient5316"
       id="linearGradient45824"
       gradientUnits="userSpaceOnUse"
       x1="711.65729"
       y1="1018.0814"
       x2="700.65753"
       y2="1005.1875" />
    <linearGradient
       id="linearGradient5316">
      <stop
         style="stop-color:#ff6e00;stop-opacity:1;"
         offset="0"
         id="stop5320" />
      <stop
         style="stop-color:#eb2600;stop-opacity:1;"
         offset="1"
         id="stop5322" />
    </linearGradient>
    <linearGradient
       inkscape:collect="always"
       xlink:href="#linearGradient5344"
       id="linearGradient45822"
       gradientUnits="userSpaceOnUse"
       x1="730.97162"
       y1="982.93317"
       x2="694.29047"
       y2="1023.0615" />
    <linearGradient
       id="linearGradient5344">
      <stop
         style="stop-color:#000000;stop-opacity:1;"
         offset="0"
         id="stop5346" />
      <stop
         style="stop-color:#000000;stop-opacity:0;"
         offset="1"
         id="stop5348" />
    </linearGradient>
    <linearGradient
       inkscape:collect="always"
       xlink:href="#linearGradient9121"
       id="linearGradient49227"
       gradientUnits="userSpaceOnUse"
       gradientTransform="matrix(2.6666667,0,0,2.6666667,-1294.0057,-1580.8075)"
       x1="498.85938"
       y1="985.16748"
       x2="498.85938"
       y2="945.0625" />
    <linearGradient
       id="linearGradient9121">
      <stop
         id="stop9123"
         offset="0"
         style="stop-color:#2f445a;stop-opacity:1" />
      <stop
         id="stop9125"
         offset="1"
         style="stop-color:#415f7c;stop-opacity:1" />
    </linearGradient>
    <linearGradient
       inkscape:collect="always"
       xlink:href="#linearGradient5344"
       id="linearGradient49230"
       gradientUnits="userSpaceOnUse"
       gradientTransform="matrix(2.6666667,0,0,2.6666667,-1294.0057,-1580.8076)"
       x1="538.70038"
       y1="961.08887"
       x2="501.34375"
       y2="963.18353" />
    <linearGradient
       inkscape:collect="always"
       xlink:href="#linearGradient5165-9"
       id="linearGradient49233"
       gradientUnits="userSpaceOnUse"
       gradientTransform="matrix(2.6666667,0,0,2.6666667,-1454.0057,-1740.8076)"
       x1="536.125"
       y1="1009.125"
       x2="560.34888"
       y2="1024.5" />
    <linearGradient
       id="linearGradient5165-9">
      <stop
         id="stop5167-6"
         style="stop-color:#ffffff;stop-opacity:1"
         offset="0" />
      <stop
         id="stop5169-7"
         style="stop-color:#ffffff;stop-opacity:0"
         offset="1" />
    </linearGradient>
    <linearGradient
       inkscape:collect="always"
       xlink:href="#linearGradient75909"
       id="linearGradient49236"
       gradientUnits="userSpaceOnUse"
       gradientTransform="matrix(3.5509045,0,0,6.1826896,-1731.9966,-4847.1873)"
       x1="491.92484"
       y1="945.52692"
       x2="498.68216"
       y2="947.94556" />
  </defs>
  <sodipodi:namedview
     id="base"
     pagecolor="#ffffff"
     bordercolor="#666666"
     borderopacity="1.0"
     inkscape:pageopacity="0.0"
     inkscape:pageshadow="2"
     inkscape:zoom="1.979899"
     inkscape:cx="156.43311"
     inkscape:cy="72.716226"
     inkscape:document-units="px"
     inkscape:current-layer="layer1"
     showgrid="false"
     inkscape:window-width="1366"
     inkscape:window-height="717"
     inkscape:window-x="0"
     inkscape:window-y="0"
     inkscape:window-maximized="1" />
  <metadata
     id="metadata36177">
    <rdf:RDF>
      <cc:Work
         rdf:about="">
        <dc:format>image/svg+xml</dc:format>
        <dc:type
           rdf:resource="http://purl.org/dc/dcmitype/StillImage" />
        <dc:title />
      </cc:Work>
    </rdf:RDF>
  </metadata>
  <g
     inkscape:label="Capa 1"
     inkscape:groupmode="layer"
     id="layer1"
     transform="translate(0,-924.36218)">
    <g
       id="g35723"
       transform="matrix(0.98291411,0,0,0.98291411,-774.01699,-379.02252)" />
    <g
       transform="matrix(0.11995763,0,0,0.11995763,-130.94161,417.3491)"
       id="g35727" />
    <path
       inkscape:connector-curvature="0"
       id="path9720"
       d="m 36.244382,940.69245 c -13.5315,0 -24.5003,10.9688 -24.5003,24.49998 0,9.3027 5.19227,17.4307 12.8336,21.5835 -12.24426,4.5621 -20.9167997,18.63167 -20.9167997,54.91647 18.4999997,9.0776 43.9077597,7.9134 65.2501597,1.1667 0,-36.6827 -8.76213,-51.25567 -21.08346,-55.99997 7.73013,-4.1256 13,-12.2979 13,-21.6667 0,-13.53118 -11.052,-24.49998 -24.5832,-24.49998 z"
       style="fill:url(#linearGradient49236);fill-opacity:1;stroke:none;display:inline" />
    <path
       inkscape:connector-curvature="0"
       style="fill:url(#linearGradient49233);fill-opacity:1;stroke:none;display:inline"
       d="m 36.244382,940.69245 c -13.5315,0 -24.5003,10.9688 -24.5003,24.49998 0,9.3027 5.19227,17.4307 12.8336,21.5835 -12.24426,4.5621 -20.9167997,18.63167 -20.9167997,54.91647 9.0965397,-31.5738 21.2122697,-47.75197 32.5000297,-54.83327 -23.61976,-2.4704 -14.35096,-44.28748 11.09707,-43.56615 -3.3168,-1.66373 -7.05947,-2.60053 -11.0136,-2.60053 z"
       id="path9722"
       sodipodi:nodetypes="csccccc" />
    <path
       inkscape:connector-curvature="0"
       id="path9724"
       d="m 36.244382,940.69245 c -9.42134,1.76213 -2.95707,41.30908 4.49973,45.91658 -3.47253,7.0602 -0.9864,60.81537 15.95467,59.39567 4.16373,-0.8371 8.2576,-1.8955 12.21226,-3.1456 0,-36.6827 -8.76213,-51.25567 -21.08346,-55.99997 7.73013,-4.1256 13,-12.2979 13,-21.6667 0,-13.53118 -11.052,-24.49998 -24.5832,-24.49998 z"
       style="fill:url(#linearGradient49230);fill-opacity:1;stroke:none;display:inline"
       sodipodi:nodetypes="cccccsc" />
    <path
       inkscape:connector-curvature="0"
       style="fill:none;stroke:url(#linearGradient49227);stroke-width:2.66666675;stroke-linecap:round;stroke-linejoin:round;stroke-miterlimit:4;stroke-opacity:1;stroke-dasharray:none;stroke-dashoffset:0;display:inline"
       d="m 36.244382,940.69245 c -13.5315,0 -24.5003,10.9688 -24.5003,24.49998 0,9.3027 5.19227,17.4307 12.8336,21.5835 -12.24426,4.5621 -20.9167997,18.63167 -20.9167997,54.91647 18.4999997,9.0776 43.9077597,7.9134 65.2501597,1.1667 0,-36.6827 -8.76213,-51.25567 -21.08346,-55.99997 7.73013,-4.1256 13,-12.2979 13,-21.6667 0,-13.53118 -11.052,-24.49998 -24.5832,-24.49998 z"
       id="path9726" />
    <path
       sodipodi:type="arc"
       style="fill:url(#linearGradient45822);fill-opacity:1;stroke:none;display:inline"
       id="path15355"
       sodipodi:cx="706.17871"
       sodipodi:cy="1011.3942"
       sodipodi:rx="10.739184"
       sodipodi:ry="10.739184"
       d="m 716.9179,1011.3942 c 0,5.9311 -4.8081,10.7392 -10.73919,10.7392 -5.93109,0 -10.73918,-4.8081 -10.73918,-10.7392 0,-5.9311 4.80809,-10.7392 10.73918,-10.7392 5.93109,0 10.73919,4.8081 10.73919,10.7392 z"
       transform="matrix(2.8197821,0,0,2.8197821,-1905.7808,-1885.7625)" />
    <path
       transform="matrix(-2.8197821,4.4872632e-8,-4.4872632e-8,-2.8197821,2083.4886,3810.5831)"
       d="m 716.9179,1011.3942 c 0,5.9311 -4.8081,10.7392 -10.73919,10.7392 -5.93109,0 -10.73918,-4.8081 -10.73918,-10.7392 0,-5.9311 4.80809,-10.7392 10.73918,-10.7392 5.93109,0 10.73919,4.8081 10.73919,10.7392 z"
       sodipodi:ry="10.739184"
       sodipodi:rx="10.739184"
       sodipodi:cy="1011.3942"
       sodipodi:cx="706.17871"
       id="path15357"
       style="fill:url(#linearGradient45824);fill-opacity:1;stroke:#000000;stroke-width:0.9996044;stroke-linecap:round;stroke-linejoin:round;stroke-miterlimit:4;stroke-opacity:1;stroke-dasharray:none;stroke-dashoffset:0;display:inline"
       sodipodi:type="arc" />
    <path
       inkscape:connector-curvature="0"
       id="path15367"
       d="m 81.945442,945.52578 c -2.18986,0.3288 -3.72266,2.29654 -3.5,4.5 0.22134,2.2032 2.12187,3.86587 4.33334,3.75014 l 5.74986,0 0,20.16641 -6,0 c -0.13866,0 -0.27786,0 -0.41653,0 -2.30107,0.1147 -4.11493,2.0325 -4,4.3333 0.11467,2.3011 2.11573,4.115 4.41653,4 l 18.916798,0 c 2.30107,3e-4 4.16667,-1.8656 4.16667,-4.1664 0,-2.301 -1.8656,-4.1669 -4.16667,-4.1669 l -4.583458,0 0,-24.33335 c -0.0373,-2.27173 -1.8944,-4.092 -4.1664,-4.0832 l -9.9168,0 c -0.27707,-0.0293 -0.55627,-0.0293 -0.83334,0 z"
       style="fill:#ffffff;fill-opacity:1;fill-rule:evenodd;stroke:#000000;stroke-width:0.80000001;stroke-linecap:round;stroke-linejoin:round;stroke-miterlimit:4;stroke-opacity:1;stroke-dasharray:none;display:inline" />
    <path
       transform="matrix(-1.6071573,3.4836712e-8,-3.4836712e-8,-1.6071573,1876.9667,2005.9802)"
       d="m 1113.875,664.86218 c 0,1.86396 -1.511,3.375 -3.375,3.375 -1.864,0 -3.375,-1.51104 -3.375,-3.375 0,-1.86396 1.511,-3.375 3.375,-3.375 1.864,0 3.375,1.51104 3.375,3.375 z"
       sodipodi:ry="3.375"
       sodipodi:rx="3.375"
       sodipodi:cy="664.86218"
       sodipodi:cx="1110.5"
       id="path15371"
       style="fill:#ffffff;fill-opacity:1;stroke:#000000;stroke-width:0.5;stroke-linecap:round;stroke-linejoin:round;stroke-miterlimit:4;stroke-opacity:1;stroke-dasharray:none;stroke-dashoffset:0;display:inline"
       sodipodi:type="arc" />
  </g>
</svg>
