<?xml version="1.0" encoding="UTF-8" standalone="no"?>
<!-- Created with Inkscape (http://www.inkscape.org/) -->

<svg
   xmlns:dc="http://purl.org/dc/elements/1.1/"
   xmlns:cc="http://creativecommons.org/ns#"
   xmlns:rdf="http://www.w3.org/1999/02/22-rdf-syntax-ns#"
   xmlns:svg="http://www.w3.org/2000/svg"
   xmlns="http://www.w3.org/2000/svg"
   xmlns:xlink="http://www.w3.org/1999/xlink"
   xmlns:sodipodi="http://sodipodi.sourceforge.net/DTD/sodipodi-0.dtd"
   xmlns:inkscape="http://www.inkscape.org/namespaces/inkscape"
   width="128"
   height="128"
   id="svg12240"
   version="1.1"
   inkscape:version="0.48.3.1 r9886"
   sodipodi:docname="mouse.svg">
  <defs
     id="defs12242">
    <linearGradient
       inkscape:collect="always"
       xlink:href="#linearGradient9863-8"
       id="linearGradient12139"
       x1="459.84491"
       y1="942.87683"
       x2="466.87732"
       y2="982.82837"
       gradientUnits="userSpaceOnUse"
       gradientTransform="matrix(2.6666667,0,0,2.6666667,-1187.3677,-1580.8333)" />
    <linearGradient
       id="linearGradient9863-8">
      <stop
         style="stop-color:#2f445a;stop-opacity:1;"
         offset="0"
         id="stop9865-04" />
      <stop
         style="stop-color:#415f7c;stop-opacity:1"
         offset="1"
         id="stop9867-8" />
    </linearGradient>
    <linearGradient
       gradientTransform="matrix(2.6666667,0,0,2.6666667,-1294.0343,-1580.8333)"
       inkscape:collect="always"
       xlink:href="#linearGradient75162"
       id="linearGradient12125"
       x1="515.16742"
       y1="948.25494"
       x2="509.84052"
       y2="950.64142"
       gradientUnits="userSpaceOnUse" />
    <linearGradient
       id="linearGradient75162">
      <stop
         style="stop-color:#000000;stop-opacity:1;"
         offset="0"
         id="stop75164" />
      <stop
         style="stop-color:#000000;stop-opacity:0;"
         offset="1"
         id="stop75166" />
    </linearGradient>
    <linearGradient
       gradientTransform="matrix(2.6666667,0,0,2.6666667,-1294.0343,-1580.8333)"
       inkscape:collect="always"
       xlink:href="#linearGradient75909-6"
       id="linearGradient12121"
       x1="514.64691"
       y1="944.17529"
       x2="522.3208"
       y2="967.68658"
       gradientUnits="userSpaceOnUse" />
    <linearGradient
       id="linearGradient75909-6">
      <stop
         id="stop75911-6"
         offset="0"
         style="stop-color:#ff6e00;stop-opacity:1;" />
      <stop
         id="stop75913-2"
         offset="1"
         style="stop-color:#eb2600;stop-opacity:1;" />
    </linearGradient>
    <linearGradient
       gradientTransform="matrix(2.6666667,0,0,2.6666667,-1294.0343,-1580.8333)"
       inkscape:collect="always"
       xlink:href="#linearGradient75909-6"
       id="linearGradient12054-1"
       x1="496.68445"
       y1="943.20258"
       x2="502.89938"
       y2="969.36554"
       gradientUnits="userSpaceOnUse" />
    <linearGradient
       id="linearGradient12214">
      <stop
         id="stop12216"
         offset="0"
         style="stop-color:#ff6e00;stop-opacity:1;" />
      <stop
         id="stop12218"
         offset="1"
         style="stop-color:#eb2600;stop-opacity:1;" />
    </linearGradient>
    <linearGradient
       gradientTransform="matrix(2.6666667,0,0,2.6666667,-1294.0343,-1580.8333)"
       inkscape:collect="always"
       xlink:href="#linearGradient75902"
       id="linearGradient12135"
       x1="482.63162"
       y1="952.1438"
       x2="512.67865"
       y2="978.23993"
       gradientUnits="userSpaceOnUse" />
    <linearGradient
       id="linearGradient75902">
      <stop
         style="stop-color:#ffffff;stop-opacity:1;"
         offset="0"
         id="stop75904" />
      <stop
         style="stop-color:#ffffff;stop-opacity:0;"
         offset="1"
         id="stop75906" />
    </linearGradient>
    <linearGradient
       gradientTransform="matrix(2.6666667,0,0,2.6666667,-1294.0343,-1580.8333)"
       inkscape:collect="always"
       xlink:href="#linearGradient68668-1"
       id="linearGradient12127"
       x1="512.26898"
       y1="949.19604"
       x2="508.47342"
       y2="951.9361"
       gradientUnits="userSpaceOnUse" />
    <linearGradient
       id="linearGradient68668-1">
      <stop
         style="stop-color:#ffffff;stop-opacity:1;"
         offset="0"
         id="stop68670-5" />
      <stop
         style="stop-color:#000000;stop-opacity:1;"
         offset="1"
         id="stop68672-7" />
    </linearGradient>
    <linearGradient
       gradientTransform="matrix(2.6666667,0,0,2.6666667,-1294.0343,-1580.8333)"
       inkscape:collect="always"
       xlink:href="#linearGradient68675-6"
       id="linearGradient12133"
       x1="535.69507"
       y1="923.84344"
       x2="468.34003"
       y2="1048.4125"
       gradientUnits="userSpaceOnUse" />
    <linearGradient
       id="linearGradient68675-6">
      <stop
         style="stop-color:#ffffff;stop-opacity:1;"
         offset="0"
         id="stop68677-1" />
      <stop
         style="stop-color:#000000;stop-opacity:1;"
         offset="1"
         id="stop68679-9" />
    </linearGradient>
    <linearGradient
       inkscape:collect="always"
       xlink:href="#linearGradient75162-9"
       id="linearGradient12461"
       gradientUnits="userSpaceOnUse"
       gradientTransform="matrix(2.6666667,0,0,2.6666667,-1294.0342,-1580.8333)"
       x1="529.12805"
       y1="1015.0681"
       x2="505.125"
       y2="949.86218" />
    <linearGradient
       id="linearGradient75162-9">
      <stop
         style="stop-color:#000000;stop-opacity:1;"
         offset="0"
         id="stop75164-2" />
      <stop
         style="stop-color:#000000;stop-opacity:0;"
         offset="1"
         id="stop75166-6" />
    </linearGradient>
    <linearGradient
       inkscape:collect="always"
       xlink:href="#linearGradient9863-8-3"
       id="linearGradient12139-1"
       x1="459.84491"
       y1="942.87683"
       x2="466.87732"
       y2="982.82837"
       gradientUnits="userSpaceOnUse"
       gradientTransform="matrix(2.6666667,0,0,2.6666667,-1187.3675,-1580.8333)" />
    <linearGradient
       id="linearGradient9863-8-3">
      <stop
         style="stop-color:#2f445a;stop-opacity:1;"
         offset="0"
         id="stop9865-04-2" />
      <stop
         style="stop-color:#415f7c;stop-opacity:1"
         offset="1"
         id="stop9867-8-8" />
    </linearGradient>
    <linearGradient
       gradientTransform="matrix(2.6666667,0,0,2.6666667,-1294.0342,-1580.8333)"
       inkscape:collect="always"
       xlink:href="#linearGradient75162-9"
       id="linearGradient12125-0"
       x1="515.16742"
       y1="948.25494"
       x2="509.84052"
       y2="950.64142"
       gradientUnits="userSpaceOnUse" />
    <linearGradient
       id="linearGradient12482">
      <stop
         style="stop-color:#000000;stop-opacity:1;"
         offset="0"
         id="stop12484" />
      <stop
         style="stop-color:#000000;stop-opacity:0;"
         offset="1"
         id="stop12486" />
    </linearGradient>
    <linearGradient
       gradientTransform="matrix(2.6666667,0,0,2.6666667,-1294.0342,-1580.8333)"
       inkscape:collect="always"
       xlink:href="#linearGradient75909-6-0"
       id="linearGradient12121-6"
       x1="514.64691"
       y1="944.17529"
       x2="522.3208"
       y2="967.68658"
       gradientUnits="userSpaceOnUse" />
    <linearGradient
       id="linearGradient75909-6-0">
      <stop
         id="stop75911-6-9"
         offset="0"
         style="stop-color:#ff6e00;stop-opacity:1;" />
      <stop
         id="stop75913-2-9"
         offset="1"
         style="stop-color:#eb2600;stop-opacity:1;" />
    </linearGradient>
    <linearGradient
       gradientTransform="matrix(2.6666667,0,0,2.6666667,-1294.0342,-1580.8333)"
       inkscape:collect="always"
       xlink:href="#linearGradient75909-6-0"
       id="linearGradient12054-1-0"
       x1="496.68445"
       y1="943.20258"
       x2="502.89938"
       y2="969.36554"
       gradientUnits="userSpaceOnUse" />
    <linearGradient
       id="linearGradient12493">
      <stop
         id="stop12495"
         offset="0"
         style="stop-color:#ff6e00;stop-opacity:1;" />
      <stop
         id="stop12497"
         offset="1"
         style="stop-color:#eb2600;stop-opacity:1;" />
    </linearGradient>
    <linearGradient
       gradientTransform="matrix(2.6666667,0,0,2.6666667,-1294.0342,-1580.8333)"
       inkscape:collect="always"
       xlink:href="#linearGradient75902-4"
       id="linearGradient12135-7"
       x1="482.63162"
       y1="952.1438"
       x2="512.67865"
       y2="978.23993"
       gradientUnits="userSpaceOnUse" />
    <linearGradient
       id="linearGradient75902-4">
      <stop
         style="stop-color:#ffffff;stop-opacity:1;"
         offset="0"
         id="stop75904-5" />
      <stop
         style="stop-color:#ffffff;stop-opacity:0;"
         offset="1"
         id="stop75906-9" />
    </linearGradient>
    <linearGradient
       gradientTransform="matrix(2.6666667,0,0,2.6666667,-1294.0342,-1580.8333)"
       inkscape:collect="always"
       xlink:href="#linearGradient68668-1-5"
       id="linearGradient12127-5"
       x1="512.26898"
       y1="949.19604"
       x2="508.47342"
       y2="951.9361"
       gradientUnits="userSpaceOnUse" />
    <linearGradient
       id="linearGradient68668-1-5">
      <stop
         style="stop-color:#ffffff;stop-opacity:1;"
         offset="0"
         id="stop68670-5-6" />
      <stop
         style="stop-color:#000000;stop-opacity:1;"
         offset="1"
         id="stop68672-7-8" />
    </linearGradient>
    <linearGradient
       gradientTransform="matrix(2.6666667,0,0,2.6666667,-1294.0342,-1580.8333)"
       inkscape:collect="always"
       xlink:href="#linearGradient68675-6-3"
       id="linearGradient12133-3"
       x1="535.69507"
       y1="923.84344"
       x2="468.34003"
       y2="1048.4125"
       gradientUnits="userSpaceOnUse" />
    <linearGradient
       id="linearGradient68675-6-3">
      <stop
         style="stop-color:#ffffff;stop-opacity:1;"
         offset="0"
         id="stop68677-1-7" />
      <stop
         style="stop-color:#000000;stop-opacity:1;"
         offset="1"
         id="stop68679-9-1" />
    </linearGradient>
  </defs>
  <sodipodi:namedview
     id="base"
     pagecolor="#ffffff"
     bordercolor="#666666"
     borderopacity="1.0"
     inkscape:pageopacity="0.0"
     inkscape:pageshadow="2"
     inkscape:zoom="1.4"
     inkscape:cx="200.29855"
     inkscape:cy="10.505514"
     inkscape:document-units="px"
     inkscape:current-layer="layer1"
     showgrid="false"
     inkscape:showpageshadow="false"
     inkscape:window-width="1366"
     inkscape:window-height="721"
     inkscape:window-x="0"
     inkscape:window-y="0"
     inkscape:window-maximized="1" />
  <metadata
     id="metadata12245">
    <rdf:RDF>
      <cc:Work
         rdf:about="">
        <dc:format>image/svg+xml</dc:format>
        <dc:type
           rdf:resource="http://purl.org/dc/dcmitype/StillImage" />
        <dc:title></dc:title>
      </cc:Work>
    </rdf:RDF>
  </metadata>
  <g
     inkscape:label="Capa 1"
     inkscape:groupmode="layer"
     id="layer1"
     transform="translate(0,-924.36218)">
    <path
       style="fill:url(#linearGradient12133-3);stroke:none;display:inline"
       d="m 14.820463,1038.7897 c -2.39331,-27.7803 -11.1490204,-93.17798 -4.9497404,-102.0591 6.5098404,-9.54499 22.2240004,-8.07157 33.2384304,-7.37683 11.71904,0.73918 23.18747,2.7315 34.40811,5.96259 9.33482,3.25264 34.174957,31.84987 34.873757,61.28845 0.42042,17.71009 -10.63944,45.72289 -36.052237,49.96299 -25.46102,3.4453 -42.2495,3.0186 -61.51832,-7.7781 z"
       id="path12040"
       inkscape:connector-curvature="0"
       sodipodi:nodetypes="ccscscc" />
    <path
       style="fill:url(#linearGradient12127-5);stroke:none;display:inline"
       d="m 56.068383,946.15868 c 5.29445,6.72635 9.86842,14.17323 13.90642,22.15603 2.29502,4.65933 11.03003,4.59722 10.60662,-2.12134 -1.13931,-10.88152 -3.41728,-18.50306 -10.13523,-23.80592 -6.86827,-6.23498 -18.51821,-1.04504 -14.37781,3.77123 z"
       id="path12050"
       inkscape:connector-curvature="0"
       sodipodi:nodetypes="ccccc" />
    <path
       style="fill:url(#linearGradient12135-7);stroke:none;display:inline"
       d="m 14.965823,1038.4659 c 20.19306,8.6307 31.2825,-14.9779 30.01586,-36.1113 -1.37946,-9.7732 -3.96722,-20.55448 -8.14109,-29.81587 -5.25224,-11.65413 -12.62003,-20.77658 -14.70811,-26.15621 -2.14805,-5.31285 -0.66466,-11.67645 6.16667,-13.58333 16.5,-2.64534 30.66667,-0.16667 47.16667,1.5 -17.43483,-4.4859 -35.15046,-7.3571 -53.83334,-4.66667 -12.5187204,0.90051 -14.0357004,8.50939 -13.8333304,17.16667 -0.44203,31.32762 4.5418904,61.17541 7.1666704,91.66671 z"
       id="path12129"
       inkscape:connector-curvature="0"
       sodipodi:nodetypes="ccscccccc" />
    <path
       style="fill:url(#linearGradient12054-1-0);stroke:none;display:inline"
       d="m 46.375983,1002.8249 c -1.41987,-12.96467 -5.34726,-25.49198 -10.31214,-35.61625 -4.28496,-8.73773 -8.32488,-14.03672 -11.59141,-19.54997 -4.06643,-6.78981 -0.58411,-12.94419 6.50277,-14.38747 6.79467,-1.1528 14.8083,-0.99384 21.37718,-0.60176 l 4.98536,6.17496 c -3.84926,1.33048 -5.28616,3.52208 -3.26302,7.00238 l 15.62123,25.44333 c 1.66216,1.91827 4.24288,2.52659 7.6808,1.89224 3.75541,12.27483 7.18579,22.76075 7.27816,34.73034 -14.04349,1.5277 -24.78979,-6.9647 -38.27893,-5.0878 z"
       id="path12052"
       inkscape:connector-curvature="0"
       sodipodi:nodetypes="csccccccccc" />
    <path
       style="fill:url(#linearGradient12121-6);stroke:none;display:inline"
       d="m 56.319363,933.36404 3.97979,4.43515 c 5.16667,-0.36683 9,1.14552 12.5,4.41666 5.32491,4.98246 8.00112,12.92376 8.96339,19.52963 0.76093,5.2236 0.69994,9.64339 -1.71339,10.88704 3.65939,11.17371 6.92704,24.39344 7.08333,34.58328 7.88888,-1.1958 14.444457,-9.18899 22.583337,-9.99995 -0.28336,-10.578 -2.57179,-22.21821 -14.749997,-41.16666 -5.34931,-6.56731 -10.85603,-15.18803 -18.08334,-18.41667 -6.76378,-2.46536 -11.92448,-2.90717 -20.56312,-4.26848 z"
       id="path12119"
       inkscape:connector-curvature="0"
       sodipodi:nodetypes="cccscccccc" />
    <path
       sodipodi:nodetypes="ccccc"
       inkscape:connector-curvature="0"
       id="path12123"
       d="m 76.527263,971.49036 c 0,0 4.22965,-0.48309 4.05416,-5.29699 -1.13931,-10.88152 -3.41728,-18.50306 -10.13523,-23.80592 -3.72496,-3.38149 -8.85637,-3.4025 -12.11256,-1.9452 10.05968,-0.2104 19.45656,16.11062 18.19363,31.04811 z"
       style="fill:url(#linearGradient12125-0);stroke:none;display:inline" />
    <path
       sodipodi:nodetypes="ccscscc"
       inkscape:connector-curvature="0"
       id="path12137"
       d="m 14.820463,1038.7897 c -2.39331,-27.7803 -11.1490204,-93.17798 -4.9497404,-102.0591 6.5098404,-9.54499 22.2240004,-8.07157 33.2384304,-7.37683 11.71904,0.73918 23.18747,2.7315 34.40811,5.96259 9.33482,3.25264 34.174957,31.84987 34.873757,61.28845 0.42042,17.71009 -10.63944,45.72289 -36.052237,49.96299 -25.46102,3.4453 -42.2495,3.0186 -61.51832,-7.7781 z"
       style="fill:none;stroke:url(#linearGradient12139-1);stroke-width:2.66666675px;stroke-linecap:butt;stroke-linejoin:miter;stroke-opacity:1;display:inline" />
    <path
       inkscape:connector-curvature="0"
       id="path12459"
       d="m 41.715823,932.41671 c -3.67384,0.0555 -7.35267,0.25706 -10.75,0.83333 -7.08688,1.44328 -10.56643,7.62685 -6.5,14.41667 3.26653,5.51325 7.29837,10.8456 11.58333,19.58333 4.96488,10.12427 8.91347,22.61869 10.33333,35.58336 13.48915,-1.8769 24.20651,6.611 38.25,5.0833 -0.0923,-11.96959 -3.49458,-22.47517 -7.25,-34.74999 -3.43792,0.63434 -6.0045,0.002 -7.66666,-1.91667 l -15.66667,-25.41667 c -2.02315,-3.48029 -0.59925,-5.66952 3.25,-7 l -4.91667,-6.16666 c -3.28445,-0.196 -6.99282,-0.30536 -10.66666,-0.24987 z m 14.58333,0.91666 4,4.5 c 5.16667,-0.36682 9,1.14552 12.5,4.41667 5.32491,4.98245 8.03773,12.89413 9,19.5 0.76093,5.2236 0.66333,9.67301 -1.75,10.91667 3.65939,11.1737 6.92704,24.39344 7.08333,34.58329 7.88888,-1.1958 14.444457,-9.189 22.583337,-9.99996 -0.28336,-10.578 -2.57179,-22.21821 -14.749997,-41.16667 -5.34931,-6.5673 -10.85603,-15.18802 -18.08334,-18.41666 -6.76378,-2.46536 -11.94469,-2.97203 -20.58333,-4.33334 z"
       style="fill:url(#linearGradient12461);fill-opacity:1;stroke:none;display:inline" />
  </g>
</svg>
