<?xml version="1.0" encoding="UTF-8" standalone="no"?>
<!-- Created with Inkscape (http://www.inkscape.org/) -->

<svg
   xmlns:dc="http://purl.org/dc/elements/1.1/"
   xmlns:cc="http://creativecommons.org/ns#"
   xmlns:rdf="http://www.w3.org/1999/02/22-rdf-syntax-ns#"
   xmlns:svg="http://www.w3.org/2000/svg"
   xmlns="http://www.w3.org/2000/svg"
   xmlns:xlink="http://www.w3.org/1999/xlink"
   xmlns:sodipodi="http://sodipodi.sourceforge.net/DTD/sodipodi-0.dtd"
   xmlns:inkscape="http://www.inkscape.org/namespaces/inkscape"
   width="128"
   height="128"
   id="svg2"
   sodipodi:version="0.32"
   inkscape:version="0.48.3.1 r9886"
   version="1.0"
   sodipodi:docname="phone-apple-iphone-symbolic.svg"
   inkscape:output_extension="org.inkscape.output.svg.inkscape">
  <defs
     id="defs4">
    <linearGradient
       inkscape:collect="always"
       xlink:href="#linearGradient5316"
       id="linearGradient9191"
       x1="488.62631"
       y1="943.60614"
       x2="488.62631"
       y2="982.23425"
       gradientUnits="userSpaceOnUse"
       gradientTransform="matrix(2.6765239,0,0,2.6765239,-1298.7888,-2514.903)" />
    <linearGradient
       inkscape:collect="always"
       xlink:href="#linearGradient5362"
       id="linearGradient9260"
       x1="489.71628"
       y1="927.97607"
       x2="489.71628"
       y2="971.55139"
       gradientUnits="userSpaceOnUse"
       gradientTransform="matrix(2.6765239,0,0,2.6765239,-1338.7888,-2514.903)" />
    <linearGradient
       inkscape:collect="always"
       xlink:href="#linearGradient5316"
       id="linearGradient9189"
       x1="490.07397"
       y1="949.56885"
       x2="511.07742"
       y2="972.36957"
       gradientUnits="userSpaceOnUse"
       gradientTransform="matrix(2.6765239,0,0,2.6765239,-1298.7888,-2514.903)" />
    <linearGradient
       inkscape:collect="always"
       xlink:href="#linearGradient9863"
       id="linearGradient9282"
       gradientUnits="userSpaceOnUse"
       gradientTransform="matrix(2.6578158,0,0,2.6578158,-1409.4546,-2494.8403)"
       x1="498.76901"
       y1="982.02686"
       x2="498.76901"
       y2="941.93231" />
    <linearGradient
       inkscape:collect="always"
       xlink:href="#linearGradient5344"
       id="linearGradient9280"
       gradientUnits="userSpaceOnUse"
       x1="521.4234"
       y1="1030.1816"
       x2="509.91653"
       y2="963.55237"
       gradientTransform="matrix(2.6765239,0,0,2.6765239,-1298.7888,-2514.903)" />
    <linearGradient
       inkscape:collect="always"
       xlink:href="#linearGradient5439"
       id="linearGradient9186"
       x1="554.63837"
       y1="1030.316"
       x2="494.10025"
       y2="942.75275"
       gradientUnits="userSpaceOnUse"
       gradientTransform="matrix(2.6765239,0,0,2.6765239,-1298.7888,-2514.903)" />
    <linearGradient
       id="linearGradient5316">
      <stop
         style="stop-color:#ff6e00;stop-opacity:1;"
         offset="0"
         id="stop5320" />
      <stop
         style="stop-color:#eb2600;stop-opacity:1;"
         offset="1"
         id="stop5322" />
    </linearGradient>
    <linearGradient
       id="linearGradient9863">
      <stop
         style="stop-color:#2f445a;stop-opacity:1;"
         offset="0"
         id="stop9865" />
      <stop
         style="stop-color:#415f7c;stop-opacity:1"
         offset="1"
         id="stop9867" />
    </linearGradient>
    <linearGradient
       id="linearGradient5362">
      <stop
         style="stop-color:#ffffff;stop-opacity:1;"
         offset="0"
         id="stop5364" />
      <stop
         style="stop-color:#ffffff;stop-opacity:0;"
         offset="1"
         id="stop5366" />
    </linearGradient>
    <linearGradient
       id="linearGradient5439">
      <stop
         style="stop-color:#ffffff;stop-opacity:1;"
         offset="0"
         id="stop5441" />
      <stop
         style="stop-color:#000000;stop-opacity:1;"
         offset="1"
         id="stop5443" />
    </linearGradient>
    <linearGradient
       id="linearGradient5344">
      <stop
         style="stop-color:#000000;stop-opacity:1;"
         offset="0"
         id="stop5346" />
      <stop
         style="stop-color:#000000;stop-opacity:0;"
         offset="1"
         id="stop5348" />
    </linearGradient>
    <linearGradient
       inkscape:collect="always"
       xlink:href="#linearGradient5316"
       id="linearGradient3331"
       gradientUnits="userSpaceOnUse"
       gradientTransform="matrix(2.6765239,0,0,2.6765239,-1298.7888,-2514.903)"
       x1="488.62631"
       y1="943.60614"
       x2="488.62631"
       y2="982.23425" />
    <linearGradient
       inkscape:collect="always"
       xlink:href="#linearGradient5316"
       id="linearGradient3335"
       gradientUnits="userSpaceOnUse"
       gradientTransform="matrix(2.6765239,0,0,2.6765239,-1298.7888,-2514.903)"
       x1="488.62631"
       y1="943.60614"
       x2="488.62631"
       y2="982.23425" />
    <linearGradient
       inkscape:collect="always"
       xlink:href="#linearGradient5316"
       id="linearGradient3338"
       gradientUnits="userSpaceOnUse"
       gradientTransform="matrix(2.6765239,0,0,2.6765239,-1298.7888,-2514.903)"
       x1="488.62631"
       y1="943.60614"
       x2="488.62631"
       y2="982.23425" />
    <linearGradient
       inkscape:collect="always"
       xlink:href="#linearGradient5316"
       id="linearGradient3341"
       gradientUnits="userSpaceOnUse"
       gradientTransform="matrix(2.6765239,0,0,2.6765239,-1298.7888,-2514.903)"
       x1="488.62631"
       y1="943.60614"
       x2="488.62631"
       y2="982.23425" />
    <linearGradient
       inkscape:collect="always"
       xlink:href="#linearGradient5316"
       id="linearGradient3344"
       gradientUnits="userSpaceOnUse"
       gradientTransform="matrix(2.6765239,0,0,2.6765239,-1298.7888,-2514.903)"
       x1="488.62631"
       y1="943.60614"
       x2="513.56342"
       y2="981.78625" />
  </defs>
  <sodipodi:namedview
     id="base"
     pagecolor="#ffffff"
     bordercolor="#666666"
     borderopacity="1.0"
     inkscape:pageopacity="0.0"
     inkscape:pageshadow="2"
     inkscape:zoom="1.2510351"
     inkscape:cx="35.71457"
     inkscape:cy="56.174248"
     inkscape:document-units="px"
     inkscape:current-layer="layer1"
     showgrid="false"
     inkscape:showpageshadow="false"
     inkscape:window-width="1014"
     inkscape:window-height="713"
     inkscape:window-x="0"
     inkscape:window-y="0"
     showguides="true"
     inkscape:guide-bbox="true"
     inkscape:window-maximized="0" />
  <metadata
     id="metadata7">
    <rdf:RDF>
      <cc:Work
         rdf:about="">
        <dc:format>image/svg+xml</dc:format>
        <dc:type
           rdf:resource="http://purl.org/dc/dcmitype/StillImage" />
        <dc:title />
      </cc:Work>
    </rdf:RDF>
  </metadata>
  <g
     inkscape:label="Capa 1"
     inkscape:groupmode="layer"
     id="layer1">
    <path
       style="fill:url(#linearGradient3344);fill-rule:evenodd;stroke:none;display:inline"
       d="m 22.25,3.46875 c -0.219609,-0.006 -0.524738,0.0032 -0.90625,0.03125 -0.09681,0.00624 -0.185554,0.023071 -0.28125,0.03125 -2.779943,0.2327326 -8.485709,1.1244257 -9.6875,1.5625 -4.770637,1.7391517 -7.33873,5.873993 -7.3125,11.875 l 0,87.78125 c -0.130347,5.51005 1.320783,10.91605 6.3125,12.59375 1.112932,0.37404 4.197096,1.32567 7.03125,1.875 0.04335,0.008 0.08178,0.023 0.125,0.0313 0.04949,0.0119 0.105952,0.0201 0.15625,0.0313 0.280207,0.063 0.575155,0.11466 0.875,0.15625 0.08516,0.0114 0.163688,0.0212 0.25,0.0313 0.08043,0.0113 0.170761,0.021 0.25,0.0313 0.03162,0.003 0.06192,-0.003 0.09375,0 1.018075,0.12598 1.954202,0.15544 2.625,0.0313 l 1.03125,-0.21875 0.25,-0.0313 c 0.169139,-0.0272 0.326693,-0.0304 0.5,-0.0625 l 42,-6.15625 c 0.95746,-0.13178 1.849305,-0.31145 2.6875,-0.5625 1.256666,-0.37651 2.388746,-0.885 3.375,-1.53125 0.6651,-0.43536 1.239211,-0.94158 1.78125,-1.5 0.262884,-0.27002 0.516129,-0.54473 0.75,-0.84375 0.0051,-0.007 -0.0051,-0.0247 0,-0.0313 0.952655,-1.22373 1.689529,-2.66481 2.15625,-4.375 0.234077,-0.85517 0.388306,-1.77245 0.5,-2.75 0.111276,-0.97751 0.167458,-2.02455 0.15625,-3.125 l 0,-50.0625 0,-27.4375 C 77.233726,11.251382 73.188947,7.5961698 66.09375,7.28125 l -43.375,-3.8125 c -0.136496,-0.00373 -0.271696,1.058e-4 -0.40625,0 z m -3.875,5.75 53.28125,4.125 -0.5,82 L 18.375,102.125 z m 2.8125,16.0625 0,12.90625 12.875,0.40625 0,-12.875 z m 19.59375,0.625 0,11.8125 11.78125,0.375 0,-11.78125 z m 17.375,0.59375 0,11 11,0.375 0,-11 z M 34.375,45.65625 21.1875,45.875 l 0,13.1875 13.1875,-0.21875 z m 18.1875,0.3125 -11.78125,0.1875 0,11.78125 L 52.5625,57.75 z M 69.15625,46.1875 58.25,46.34375 58.25,57.25 69.15625,57.0625 z m 0,18.48913 -10.8125,0.720553 0,10.78125 10.8125,-0.720553 z m -16.59375,0.521644 -11.78125,0.791614 0,11.78125 11.78125,-0.791614 z m -18.3125,0.724333 -13.0625,0.865436 0,13.0625 13.0625,-0.865436 z m 10.875,35.046143 c 0.187666,-0.008 0.366863,0.0159 0.5625,0.0313 2.464965,0.19365 4.15625,2.2784 4.15625,5.40625 -0.0738,2.97626 -1.686916,5.23696 -4.125,5.65625 -3.259858,0.56066 -5.309537,-2.1468 -5.3125,-5.25 -0.0029,-3.02661 1.903763,-5.72238 4.71875,-5.84375 z m -0.3125,2.375 c -1.451791,0.24507 -2.407738,1.70837 -2.40625,3.34375 0.0017,1.79652 1.175257,3.38709 3.0625,3.0625 1.411427,-0.24272 2.33232,-1.55822 2.375,-3.28125 0,-1.81079 -0.947996,-3.01293 -2.375,-3.125 -0.226518,-0.0178 -0.448851,-0.035 -0.65625,0 z"
       id="path9173"
       inkscape:connector-curvature="0"
       sodipodi:nodetypes="ccccccsccccccccccccccccccccccccccccccccccccccccccccccccccccccccccccccccccccccccccccssccsssccccs" />
  </g>
</svg>
