<?xml version="1.0" encoding="UTF-8" standalone="no"?>
<!-- Created with Inkscape (http://www.inkscape.org/) -->

<svg
   xmlns:dc="http://purl.org/dc/elements/1.1/"
   xmlns:cc="http://creativecommons.org/ns#"
   xmlns:rdf="http://www.w3.org/1999/02/22-rdf-syntax-ns#"
   xmlns:svg="http://www.w3.org/2000/svg"
   xmlns="http://www.w3.org/2000/svg"
   xmlns:xlink="http://www.w3.org/1999/xlink"
   xmlns:sodipodi="http://sodipodi.sourceforge.net/DTD/sodipodi-0.dtd"
   xmlns:inkscape="http://www.inkscape.org/namespaces/inkscape"
   width="128"
   height="128"
   id="svg31057"
   version="1.1"
   inkscape:version="0.48.3.1 r9886"
   sodipodi:docname="Documento nuevo 6">
  <defs
     id="defs31059">
    <linearGradient
       inkscape:collect="always"
       xlink:href="#linearGradient9863"
       id="linearGradient30979"
       x1="551.59247"
       y1="973.48254"
       x2="543.00793"
       y2="956.33521"
       gradientUnits="userSpaceOnUse"
       gradientTransform="matrix(3.4770305,0,0,3.4770305,-1828.223,-2361.3237)" />
    <linearGradient
       id="linearGradient9863">
      <stop
         style="stop-color:#2f445a;stop-opacity:1;"
         offset="0"
         id="stop9865" />
      <stop
         style="stop-color:#415f7c;stop-opacity:1"
         offset="1"
         id="stop9867" />
    </linearGradient>
    <linearGradient
       gradientTransform="matrix(3.4770304,0,0,3.4770304,-1689.1416,-2361.3237)"
       inkscape:collect="always"
       xlink:href="#linearGradient13598"
       id="linearGradient30959"
       gradientUnits="userSpaceOnUse"
       x1="510.5625"
       y1="945.61218"
       x2="513.6875"
       y2="955.92468" />
    <linearGradient
       id="linearGradient13598">
      <stop
         id="stop13600"
         offset="0"
         style="stop-color:#ffffff;stop-opacity:1;" />
      <stop
         id="stop13602"
         offset="1"
         style="stop-color:#ffffff;stop-opacity:0;" />
    </linearGradient>
    <linearGradient
       gradientTransform="matrix(3.4770304,0,0,3.4770304,-1689.1416,-2361.3237)"
       inkscape:collect="always"
       xlink:href="#linearGradient13598"
       id="linearGradient30951"
       gradientUnits="userSpaceOnUse"
       x1="494"
       y1="960.20593"
       x2="496.75"
       y2="972.70593" />
    <linearGradient
       gradientTransform="matrix(3.4770304,0,0,3.4770304,-1689.1416,-2361.3237)"
       inkscape:collect="always"
       xlink:href="#linearGradient13628"
       id="linearGradient30947"
       x1="508.625"
       y1="949.73718"
       x2="515.125"
       y2="955.17468"
       gradientUnits="userSpaceOnUse" />
    <linearGradient
       id="linearGradient13628">
      <stop
         style="stop-color:#ff6e00;stop-opacity:1;"
         offset="0"
         id="stop13630" />
      <stop
         style="stop-color:#eb2600;stop-opacity:1;"
         offset="1"
         id="stop13632" />
    </linearGradient>
    <linearGradient
       gradientTransform="matrix(3.4770304,0,0,3.4770304,-1689.1416,-2361.3237)"
       inkscape:collect="always"
       xlink:href="#linearGradient13628"
       id="linearGradient30943"
       x1="492.1875"
       y1="966.08093"
       x2="498"
       y2="977.58093"
       gradientUnits="userSpaceOnUse" />
    <linearGradient
       gradientTransform="matrix(3.4770304,0,0,3.4770304,-1689.1416,-2361.3237)"
       inkscape:collect="always"
       xlink:href="#linearGradient13628"
       id="linearGradient30939"
       x1="495.07501"
       y1="963.39343"
       x2="521.36945"
       y2="963.39343"
       gradientUnits="userSpaceOnUse" />
    <linearGradient
       gradientTransform="matrix(3.4770304,0,0,3.4770304,-1689.1416,-2361.3237)"
       inkscape:collect="always"
       xlink:href="#linearGradient13620"
       id="linearGradient30955"
       x1="511.95337"
       y1="967.79749"
       x2="504.7265"
       y2="960.85999"
       gradientUnits="userSpaceOnUse" />
    <linearGradient
       id="linearGradient13620">
      <stop
         id="stop13622"
         offset="0"
         style="stop-color:#000000;stop-opacity:1;" />
      <stop
         id="stop13624"
         offset="1"
         style="stop-color:#000000;stop-opacity:0;" />
    </linearGradient>
    <linearGradient
       gradientTransform="matrix(3.4770304,0,0,3.4770304,-1689.1416,-2361.3237)"
       inkscape:collect="always"
       xlink:href="#linearGradient13628"
       id="linearGradient30945"
       x1="509.75"
       y1="958.58093"
       x2="510.625"
       y2="953.58093"
       gradientUnits="userSpaceOnUse" />
    <linearGradient
       gradientTransform="matrix(3.4770304,0,0,3.4770304,-1689.1416,-2361.3237)"
       inkscape:collect="always"
       xlink:href="#linearGradient13628"
       id="linearGradient30941"
       x1="487.12839"
       y1="963.48499"
       x2="518.11407"
       y2="963.48499"
       gradientUnits="userSpaceOnUse" />
  </defs>
  <sodipodi:namedview
     id="base"
     pagecolor="#ffffff"
     bordercolor="#666666"
     borderopacity="1.0"
     inkscape:pageopacity="0.0"
     inkscape:pageshadow="2"
     inkscape:zoom="2.8"
     inkscape:cx="73.420374"
     inkscape:cy="43.995372"
     inkscape:document-units="px"
     inkscape:current-layer="layer1"
     showgrid="false"
     inkscape:window-width="1366"
     inkscape:window-height="717"
     inkscape:window-x="0"
     inkscape:window-y="0"
     inkscape:window-maximized="1" />
  <metadata
     id="metadata31062">
    <rdf:RDF>
      <cc:Work
         rdf:about="">
        <dc:format>image/svg+xml</dc:format>
        <dc:type
           rdf:resource="http://purl.org/dc/dcmitype/StillImage" />
        <dc:title></dc:title>
      </cc:Work>
    </rdf:RDF>
  </metadata>
  <g
     inkscape:label="Capa 1"
     inkscape:groupmode="layer"
     id="layer1"
     transform="translate(0,-924.36218)">
    <path
       sodipodi:nodetypes="cccccccsccc"
       inkscape:connector-curvature="0"
       id="path30925"
       d="m 86.118596,940.50656 -17.935739,17.81977 5.865402,7.54836 c -2.03674,14.29127 -12.246414,27.32432 -27.854594,35.73651 L 29.144847,999.39876 5.3140114,1024.227 c 5.6706546,4.8463 13.3391406,7.3293 20.8424326,9.0727 8.195325,2.005 22.786752,4.9866 32.640205,3.8715 13.481557,-1.5255 23.068813,-20.6509 31.158645,-30.1664 13.705616,-19.1237 24.143386,-51.50354 24.530926,-67.3675 z"
       style="fill:url(#linearGradient30941);stroke:none;display:inline" />
    <path
       style="fill:url(#linearGradient30945);stroke:none;display:inline"
       d="m 74.147459,965.93235 29.554761,-0.86927 -6.519432,-7.606 -29.337446,0.86925 z"
       id="path30937"
       inkscape:connector-curvature="0" />
    <path
       style="fill:url(#linearGradient30955);stroke:none;display:inline"
       d="m 86.118596,940.50656 -17.935739,17.81977 5.865402,7.54836 c -2.03674,14.29127 -12.246414,27.32432 -27.854594,35.73651 L 29.144847,999.39876 5.3683574,1024.2814 c 5.6706546,4.8464 13.2847946,7.2749 20.7880866,9.0183 8.195325,2.005 22.786752,4.9866 32.640205,3.8715 13.481557,-1.5255 23.068813,-20.6509 31.158645,-30.1664 13.705616,-19.1237 24.143386,-51.50354 24.530926,-67.3675 z"
       id="path30953"
       inkscape:connector-curvature="0"
       sodipodi:nodetypes="cccccccsccc" />
    <path
       style="fill:url(#linearGradient30939);stroke:none;display:inline"
       d="m 114.56793,939.20267 -17.385142,18.25441 6.250332,7.54836 C 94.268302,985.2977 86.00757,1001.847 65.454882,1009.6126 l -7.823318,-6.5195 -24.33921,25.6431 c 5.917799,4.8464 11.141169,8.0357 22.166067,8.91 17.212794,-3.2973 36.025823,-14.319 49.764999,-31.5107 12.73039,-19.12367 17.80659,-37.37808 17.38516,-53.24202 -0.17317,-4.73367 -3.88764,-9.27546 -8.04065,-13.69081 z"
       id="path30923"
       inkscape:connector-curvature="0"
       sodipodi:nodetypes="cccccccccc" />
    <path
       style="fill:url(#linearGradient30943);stroke:none;display:inline"
       d="m 57.196936,1002.8758 -28.902814,-3.25975 -23.035325,24.55655 28.468186,4.781 z"
       id="path30933"
       inkscape:connector-curvature="0" />
    <path
       style="fill:url(#linearGradient30947);stroke:none;display:inline"
       d="m 68.497284,957.89171 29.120129,-0.65194 17.222147,-17.81979 -28.848472,1.30389 z"
       id="path30935"
       inkscape:connector-curvature="0"
       sodipodi:nodetypes="ccccc" />
    <path
       inkscape:connector-curvature="0"
       id="path30949"
       d="m 57.196936,1002.8758 -28.902814,-3.25975 -23.035325,24.55655 28.468186,4.781 z"
       style="fill:url(#linearGradient30951);stroke:none;display:inline" />
    <path
       sodipodi:nodetypes="ccccc"
       inkscape:connector-curvature="0"
       id="path30957"
       d="m 68.497284,957.89171 29.120129,-0.65194 17.222147,-17.81979 -28.848472,1.30389 z"
       style="fill:url(#linearGradient30959);stroke:none;display:inline" />
    <path
       style="fill:none;stroke:url(#linearGradient30979);stroke-width:3.47746491;stroke-linecap:round;stroke-linejoin:round;stroke-miterlimit:4;stroke-opacity:1;stroke-dasharray:none;display:inline"
       d="m 114.56793,939.24724 -0.43462,0.43465 -28.033555,0.86924 -17.928442,17.81979 5.867489,7.49734 C 72.002061,980.15952 61.83074,993.20425 46.222558,1001.6165 L 29.16338,999.44334 5.3674539,1024.3258 c 5.6706541,4.8466 13.2502321,7.2752 20.7535251,9.0186 10.27195,2.4582 19.922278,4.1237 29.337442,4.3461 19.067995,-3.6751 39.633892,-19.113 49.765179,-31.5123 12.73038,-19.12369 17.8066,-37.3781 17.38514,-53.24205 -0.17316,-4.73366 -3.88762,-9.27546 -8.04064,-13.69081 z"
       id="path30961"
       inkscape:connector-curvature="0"
       sodipodi:nodetypes="cccccccccccccc" />
  </g>
</svg>
