<?xml version="1.0" encoding="UTF-8" standalone="no"?>
<!-- Created with Inkscape (http://www.inkscape.org/) -->

<svg
   xmlns:dc="http://purl.org/dc/elements/1.1/"
   xmlns:cc="http://creativecommons.org/ns#"
   xmlns:rdf="http://www.w3.org/1999/02/22-rdf-syntax-ns#"
   xmlns:svg="http://www.w3.org/2000/svg"
   xmlns="http://www.w3.org/2000/svg"
   xmlns:xlink="http://www.w3.org/1999/xlink"
   xmlns:sodipodi="http://sodipodi.sourceforge.net/DTD/sodipodi-0.dtd"
   xmlns:inkscape="http://www.inkscape.org/namespaces/inkscape"
   width="128"
   height="128"
   id="svg2"
   sodipodi:version="0.32"
   inkscape:version="0.48.3.1 r9886"
   version="1.0"
   sodipodi:docname="document-save-as.svg"
   inkscape:output_extension="org.inkscape.output.svg.inkscape">
  <defs
     id="defs4">
    <linearGradient
       id="linearGradient9863">
      <stop
         style="stop-color:#2f445a;stop-opacity:1;"
         offset="0"
         id="stop9865" />
      <stop
         style="stop-color:#415f7c;stop-opacity:1"
         offset="1"
         id="stop9867" />
    </linearGradient>
    <linearGradient
       id="linearGradient5362">
      <stop
         style="stop-color:#ffffff;stop-opacity:1;"
         offset="0"
         id="stop5364" />
      <stop
         style="stop-color:#ffffff;stop-opacity:0;"
         offset="1"
         id="stop5366" />
    </linearGradient>
    <linearGradient
       id="linearGradient5439">
      <stop
         style="stop-color:#ffffff;stop-opacity:1;"
         offset="0"
         id="stop5441" />
      <stop
         style="stop-color:#000000;stop-opacity:1;"
         offset="1"
         id="stop5443" />
    </linearGradient>
    <linearGradient
       id="linearGradient5344">
      <stop
         style="stop-color:#000000;stop-opacity:1;"
         offset="0"
         id="stop5346" />
      <stop
         style="stop-color:#000000;stop-opacity:0;"
         offset="1"
         id="stop5348" />
    </linearGradient>
    <linearGradient
       id="linearGradient8702">
      <stop
         id="stop8704"
         offset="0"
         style="stop-color:#ff6e00;stop-opacity:1;" />
      <stop
         id="stop8706"
         offset="1"
         style="stop-color:#eb2600;stop-opacity:1;" />
    </linearGradient>
    <linearGradient
       inkscape:collect="always"
       xlink:href="#linearGradient8702"
       id="linearGradient12747"
       gradientUnits="userSpaceOnUse"
       gradientTransform="matrix(0,-6.4509326,6.464982,0,-726.43749,2462.5392)"
       x1="380.76138"
       y1="123.43055"
       x2="373.55405"
       y2="128.4248" />
    <linearGradient
       inkscape:collect="always"
       xlink:href="#linearGradient5344"
       id="linearGradient12750"
       gradientUnits="userSpaceOnUse"
       gradientTransform="matrix(0,-2.6666667,2.6724744,0,-584.10693,1264.0416)"
       x1="488.26089"
       y1="284.3316"
       x2="434.36459"
       y2="233.29637" />
    <linearGradient
       inkscape:collect="always"
       xlink:href="#linearGradient9863"
       id="linearGradient12753"
       gradientUnits="userSpaceOnUse"
       gradientTransform="matrix(2.6724744,0,0,2.6666667,-1136.3076,-136.45574)"
       x1="448.61356"
       y1="98.163681"
       x2="448.61356"
       y2="51.040291" />
    <linearGradient
       inkscape:collect="always"
       xlink:href="#linearGradient5439"
       id="linearGradient12756"
       gradientUnits="userSpaceOnUse"
       gradientTransform="matrix(2.5929477,0,0,2.5467438,-1253.6197,-1603.2437)"
       x1="485.01462"
       y1="633.39752"
       x2="594.81787"
       y2="707.73212" />
    <linearGradient
       inkscape:collect="always"
       xlink:href="#linearGradient5439"
       id="linearGradient12759"
       gradientUnits="userSpaceOnUse"
       gradientTransform="matrix(2.7004998,0,0,2.6523792,-1308.1376,-1672.2418)"
       x1="511.00421"
       y1="661.83636"
       x2="484.41125"
       y2="630.4527" />
    <linearGradient
       inkscape:collect="always"
       xlink:href="#linearGradient5439"
       id="linearGradient12762"
       gradientUnits="userSpaceOnUse"
       gradientTransform="matrix(2.6724744,0,0,2.6666667,-1296.1836,-1683.3724)"
       x1="513.53632"
       y1="643.15497"
       x2="572.04932"
       y2="698.16571" />
    <linearGradient
       inkscape:collect="always"
       xlink:href="#linearGradient5439"
       id="linearGradient12765"
       gradientUnits="userSpaceOnUse"
       gradientTransform="matrix(2.4555547,0,0,2.4508294,-1182.6426,-1541.5864)"
       x1="482.04404"
       y1="629.51166"
       x2="600.66217"
       y2="711.91254" />
    <linearGradient
       inkscape:collect="always"
       xlink:href="#linearGradient5439"
       id="linearGradient12768"
       gradientUnits="userSpaceOnUse"
       gradientTransform="matrix(2.4316246,0,0,2.4263403,-1173.0757,-1524.0986)"
       x1="484.04169"
       y1="629.66498"
       x2="598.57666"
       y2="708.88654" />
    <linearGradient
       inkscape:collect="always"
       xlink:href="#linearGradient5439"
       id="linearGradient12771"
       gradientUnits="userSpaceOnUse"
       gradientTransform="matrix(2.6724744,0,0,2.6666667,-1296.6561,-1683.1224)"
       x1="494.96805"
       y1="639.71228"
       x2="531.75"
       y2="670.73663" />
    <linearGradient
       inkscape:collect="always"
       xlink:href="#linearGradient5439"
       id="linearGradient12774"
       gradientUnits="userSpaceOnUse"
       gradientTransform="matrix(2.6724744,0,0,2.6666667,-1296.6561,-1683.1224)"
       x1="495.35397"
       y1="640.05084"
       x2="531.08636"
       y2="670.77136" />
    <linearGradient
       inkscape:collect="always"
       xlink:href="#linearGradient5439"
       id="linearGradient12777"
       gradientUnits="userSpaceOnUse"
       gradientTransform="matrix(2.6724744,0,0,2.6666667,-1296.6561,-1683.1224)"
       x1="485.65756"
       y1="629.86298"
       x2="594.2511"
       y2="706.58405" />
    <linearGradient
       inkscape:collect="always"
       xlink:href="#linearGradient5362"
       id="linearGradient12780"
       gradientUnits="userSpaceOnUse"
       gradientTransform="matrix(2.6724744,0,0,2.6666667,-1296.6561,-1683.1224)"
       x1="491.02121"
       y1="633.16431"
       x2="485.68814"
       y2="640.88721" />
    <linearGradient
       inkscape:collect="always"
       xlink:href="#linearGradient5439"
       id="linearGradient12783"
       gradientUnits="userSpaceOnUse"
       gradientTransform="matrix(2.6724744,0,0,2.6666667,-1296.6561,-1683.1224)"
       x1="490.27121"
       y1="632.72681"
       x2="449.2301"
       y2="708.07471" />
  </defs>
  <sodipodi:namedview
     id="base"
     pagecolor="#ffffff"
     bordercolor="#666666"
     borderopacity="1.0"
     inkscape:pageopacity="0.0"
     inkscape:pageshadow="2"
     inkscape:zoom="1.7692308"
     inkscape:cx="62.054697"
     inkscape:cy="76.499368"
     inkscape:document-units="px"
     inkscape:current-layer="layer1"
     showgrid="false"
     inkscape:showpageshadow="false"
     inkscape:window-width="1024"
     inkscape:window-height="713"
     inkscape:window-x="0"
     inkscape:window-y="0"
     showguides="true"
     inkscape:guide-bbox="true"
     inkscape:window-maximized="0" />
  <metadata
     id="metadata7">
    <rdf:RDF>
      <cc:Work
         rdf:about="">
        <dc:format>image/svg+xml</dc:format>
        <dc:type
           rdf:resource="http://purl.org/dc/dcmitype/StillImage" />
      </cc:Work>
    </rdf:RDF>
  </metadata>
  <g
     inkscape:label="Capa 1"
     inkscape:groupmode="layer"
     id="layer1">
    <path
       inkscape:export-ydpi="57.964222"
       inkscape:export-xdpi="57.964222"
       inkscape:export-filename="/home/dafeba/DCV/tallerD/bocetos/08-09-22-hastaahora.png"
       style="fill:url(#linearGradient12783);fill-rule:evenodd;stroke:none;stroke-width:0.5;stroke-linecap:round;stroke-linejoin:round;stroke-miterlimit:4;stroke-dasharray:none;stroke-opacity:1;display:inline"
       d="M 19.245298,119.33786 L 7.9707964,116.33786 C 3.4471525,114.89778 1.3558344,110.1841 1.3921533,103.48012 L 1.3330916,16.577988 C 1.5310952,9.3326283 8.3371125,5.421375 15.693526,5.638895 L 26.833682,4.1573483 L 19.245298,119.33786 z"
       id="path7556"
       sodipodi:nodetypes="ccccccc" />
    <path
       inkscape:export-ydpi="57.964222"
       inkscape:export-xdpi="57.964222"
       inkscape:export-filename="/home/dafeba/DCV/tallerD/bocetos/08-09-22-hastaahora.png"
       sodipodi:nodetypes="ccccccc"
       id="path7558"
       d="M 19.245298,119.33786 L 7.9707964,116.33786 C 3.4471525,114.89778 1.3558344,110.1841 1.3921533,103.48012 L 1.3330916,16.577988 C 1.5310952,9.3326283 8.3371125,5.421375 15.693526,5.638895 L 26.833682,4.1573483 L 19.245298,119.33786 z"
       style="fill:url(#linearGradient12780);fill-rule:evenodd;stroke:none;stroke-width:0.5;stroke-linecap:round;stroke-linejoin:round;stroke-miterlimit:4;stroke-dasharray:none;stroke-opacity:1;display:inline" />
    <path
       inkscape:export-ydpi="57.964222"
       inkscape:export-xdpi="57.964222"
       inkscape:export-filename="/home/dafeba/DCV/tallerD/bocetos/08-09-22-hastaahora.png"
       sodipodi:nodetypes="ccccccccc"
       id="path7560"
       d="M 11.202834,105.96804 L 11.397871,15.841242 C 11.397871,8.6894817 19.559688,3.9068416 26.804899,4.172015 L 118.90459,11.410922 C 125.43321,12.057322 126.87685,15.717082 127.05877,21.629535 L 127.05877,91.962843 C 127.01307,99.340069 125.18678,104.18631 117.73622,105.36916 L 26.928982,119.58463 C 15.151227,121.58914 11.213523,113.89956 11.202834,105.96804 z"
       style="fill:url(#linearGradient12777);fill-rule:evenodd;stroke:none;stroke-width:0.5;stroke-linecap:round;stroke-linejoin:round;stroke-miterlimit:4;stroke-dasharray:none;stroke-opacity:1;display:inline" />
    <path
       inkscape:export-ydpi="57.964222"
       inkscape:export-xdpi="57.964222"
       inkscape:export-filename="/home/dafeba/DCV/tallerD/bocetos/08-09-22-hastaahora.png"
       style="fill:url(#linearGradient12774);fill-opacity:1;stroke:none;stroke-width:0.5;stroke-linecap:round;stroke-linejoin:round;stroke-miterlimit:4;stroke-opacity:0.30041151;display:inline"
       d="M 90.766913,60.540096 C 91.001262,90.310016 75.358147,110.34831 55.173456,113.67426 C 33.069179,117.31652 12.991895,96.534789 12.991895,63.023962 C 12.991895,29.393029 33.813063,5.863775 55.295748,7.758815 C 74.143614,9.4214283 90.530693,30.534495 90.766913,60.540096 z"
       id="path7562"
       sodipodi:nodetypes="cszsz" />
    <path
       inkscape:export-ydpi="57.964222"
       inkscape:export-xdpi="57.964222"
       inkscape:export-filename="/home/dafeba/DCV/tallerD/bocetos/08-09-22-hastaahora.png"
       sodipodi:nodetypes="ccccccccccccccccccccccccc"
       id="path7564"
       d="M 90.483524,11.253935 L 114.56027,13.212628 C 116.39616,13.365908 117.74402,14.232682 118.6634,15.752335 L 123.16914,22.732149 C 123.89929,23.812842 124.52796,25.538362 124.43221,27.184575 L 124.43221,50.129536 C 124.52483,51.633109 123.8053,52.337509 122.84094,52.744176 L 118.07051,54.761962 C 117.12729,55.127109 116.66685,55.787749 116.65237,56.733829 L 116.60528,59.825509 C 116.60891,60.555189 116.89505,61.385002 117.8848,61.561109 L 121.80567,62.719989 C 123.12122,63.025322 124.44378,64.468096 124.43221,66.039056 L 124.43221,90.337883 C 124.51559,91.916976 124.24219,92.963216 123.48342,94.122683 L 117.77189,101.29535 C 116.61736,102.73119 115.38978,103.81503 113.37859,104.03754 L 87.014064,108.55039 C 85.438346,108.77935 84.201365,108.20719 83.474452,107.48986 L 78.875016,102.90074 C 77.992004,101.86218 76.627252,101.92308 75.751642,102.87954 L 73.559385,16.241482 C 75.360873,17.907935 77.851325,17.877508 79.590171,16.502468 L 83.620235,13.228442 C 85.351999,11.689375 87.978026,10.947375 90.483524,11.253935 z"
       style="fill:url(#linearGradient12771);fill-rule:evenodd;stroke:none;stroke-width:0.1;stroke-linecap:butt;stroke-linejoin:miter;stroke-miterlimit:4;stroke-dasharray:none;stroke-opacity:1;display:inline" />
    <path
       inkscape:export-ydpi="57.964222"
       inkscape:export-xdpi="57.964222"
       inkscape:export-filename="/home/dafeba/DCV/tallerD/bocetos/08-09-22-hastaahora.png"
       sodipodi:nodetypes="cszsz"
       id="path7566"
       d="M 89.309319,62.420816 C 89.522555,89.507803 75.289224,107.7402 56.923632,110.76642 C 36.811472,114.08042 19.403295,95.171589 19.403295,64.680842 C 19.403295,34.080815 37.480553,12.761455 57.034914,14.396308 C 75.129009,15.909082 89.094398,35.119402 89.309319,62.420816 z"
       style="fill:url(#linearGradient12768);fill-opacity:1;stroke:none;stroke-width:0.5;stroke-linecap:round;stroke-linejoin:round;stroke-miterlimit:4;stroke-opacity:0.30041151;display:inline" />
    <path
       inkscape:export-ydpi="57.964222"
       inkscape:export-xdpi="57.964222"
       inkscape:export-filename="/home/dafeba/DCV/tallerD/bocetos/08-09-22-hastaahora.png"
       style="fill:url(#linearGradient12765);fill-rule:evenodd;stroke:none;stroke-width:0.1;stroke-linecap:butt;stroke-linejoin:miter;stroke-miterlimit:4;stroke-dasharray:none;stroke-opacity:1;display:inline"
       d="M 91.693032,14.983802 L 113.2065,16.459882 C 115.49831,16.526495 116.43483,17.404522 117.1727,18.401455 L 121.94464,25.470309 C 122.59515,26.623135 123.04207,27.845429 123.0987,29.247055 L 123.0987,50.400362 C 123.12251,51.152869 122.57313,51.839082 121.86465,52.103509 L 116.95347,54.266016 C 116.18335,54.596682 115.77494,55.324522 115.7345,56.191669 L 115.6752,61.233616 C 115.6752,62.229802 116.07305,62.969376 117.13063,63.292949 L 121.58752,64.398309 C 122.52561,64.666949 123.0987,65.484576 123.0987,66.504522 L 123.0987,90.171216 C 123.16056,91.449616 122.8454,92.317403 122.29963,93.072709 L 116.43378,100.59812 C 115.69036,101.6485 114.53088,102.49207 113.00754,102.76423 L 88.626341,106.35447 C 87.201859,106.63647 85.937752,106.53924 84.960241,105.38727 L 80.466635,100.6018 C 79.155867,99.175216 77.154237,99.401589 75.779195,100.77839 L 73.267203,21.287002 C 74.966549,23.358789 78.278146,22.902255 79.883074,21.781669 L 86.653814,16.463802 C 87.996065,15.305108 89.566491,14.831802 91.693032,14.983802 z"
       id="path7568"
       sodipodi:nodetypes="ccccccccccccccccccccccccc" />
    <path
       inkscape:export-ydpi="57.964222"
       inkscape:export-xdpi="57.964222"
       inkscape:export-filename="/home/dafeba/DCV/tallerD/bocetos/08-09-22-hastaahora.png"
       sodipodi:nodetypes="ccccccccc"
       id="path7570"
       d="M 91.208726,18.171615 L 111.24341,19.580388 C 112.82939,19.785375 113.57357,21.784122 113.55107,23.399109 L 113.55107,95.700709 C 113.63378,97.658949 112.82522,99.493909 110.42601,99.800603 L 91.262764,102.53844 C 88.692912,102.9234 87.574455,100.74042 87.574455,98.882469 L 87.567346,21.984869 C 87.574188,19.745188 89.088358,18.066682 91.208726,18.171615 z"
       style="fill:url(#linearGradient12762);fill-rule:evenodd;stroke:none;stroke-width:1px;stroke-linecap:butt;stroke-linejoin:miter;stroke-opacity:1;display:inline" />
    <path
       style="fill:url(#linearGradient12759);fill-opacity:1;stroke:none;stroke-width:0.5;stroke-linecap:round;stroke-linejoin:round;stroke-miterlimit:4;stroke-opacity:0.30041151;display:inline"
       d="M 71.829145,62.558389 C 71.829145,73.999562 64.972885,85.589429 57.016822,86.748736 C 47.542686,88.129216 39.639378,77.654923 39.639378,63.771482 C 39.639378,49.811669 47.212048,39.074575 56.713923,39.698655 C 64.813285,40.238469 71.829145,51.193589 71.829145,62.558389 z"
       id="path7572"
       sodipodi:nodetypes="cszsz"
       inkscape:export-filename="/home/dafeba/DCV/tallerD/bocetos/08-09-22-hastaahora.png"
       inkscape:export-xdpi="57.964222"
       inkscape:export-ydpi="57.964222" />
    <path
       sodipodi:nodetypes="cszsz"
       id="path7574"
       d="M 69.609842,61.783936 C 69.609842,71.870522 63.460157,81.984843 56.446061,83.006869 C 48.093643,84.223936 41.126075,74.989723 41.126075,62.750042 C 41.126075,50.443056 47.807715,40.900042 56.179001,41.527402 C 63.845555,42.106629 69.609842,51.764682 69.609842,61.783936 z"
       style="fill:url(#linearGradient12756);fill-opacity:1;stroke:none;stroke-width:0.5;stroke-linecap:round;stroke-linejoin:round;stroke-miterlimit:4;stroke-opacity:0.30041151;display:inline"
       inkscape:export-filename="/home/dafeba/DCV/tallerD/bocetos/08-09-22-hastaahora.png"
       inkscape:export-xdpi="57.964222"
       inkscape:export-ydpi="57.964222" />
    <path
       inkscape:export-ydpi="57.964222"
       inkscape:export-xdpi="57.964222"
       inkscape:export-filename="/home/dafeba/DCV/tallerD/bocetos/08-09-22-hastaahora.png"
       sodipodi:nodetypes="cccccccccccc"
       id="path9900"
       d="M 8.2669333,6.9454817 C 4.302959,8.633775 1.6059512,11.899242 1.478982,16.544255 L 1.4983841,103.46092 C 1.4620652,110.1649 3.4888965,114.93748 8.0125405,116.37759 C 12.736486,117.84018 18.139588,119.46588 22.119811,119.82706 C 23.566074,119.93364 25.180543,119.84887 26.970406,119.54426 L 117.75102,105.37759 C 124.84727,104.19474 126.35305,98.454656 126.35305,91.960923 L 126.283,21.627589 C 126.27824,16.982042 125.44887,12.023962 118.92023,11.377588 L 26.803376,4.2109216 C 19.328064,3.6697749 12.951834,4.8026283 8.2669333,6.9454817 z"
       style="fill:none;fill-rule:evenodd;stroke:url(#linearGradient12753);stroke-width:2.66956902;stroke-linecap:round;stroke-linejoin:round;stroke-miterlimit:4;stroke-dasharray:none;stroke-opacity:1;display:inline" />
    <path
       inkscape:export-ydpi="57.964222"
       inkscape:export-xdpi="57.964222"
       inkscape:export-filename="/home/dafeba/DCV/tallerD/bocetos/08-09-22-hastaahora.png"
       sodipodi:nodetypes="cccccccc"
       id="path14748"
       d="M 44.283791,42.581589 L 84.481734,85.520576 L 122.04713,42.581589 L 103.87668,42.581589 L 103.87668,10.983775 L 62.460358,10.983775 L 62.460358,42.581589 L 44.283791,42.581589 z"
       style="fill:url(#linearGradient12750);fill-opacity:1;fill-rule:evenodd;stroke:none;stroke-width:1.20954967;stroke-linecap:round;stroke-linejoin:round;stroke-miterlimit:4;stroke-dasharray:none;stroke-opacity:1;display:inline" />
    <path
       inkscape:export-ydpi="57.964222"
       inkscape:export-xdpi="57.964222"
       inkscape:export-filename="/home/dafeba/DCV/tallerD/bocetos/08-09-22-hastaahora.png"
       style="fill:url(#linearGradient12747);fill-opacity:1;fill-rule:evenodd;stroke:#000000;stroke-width:1.33478451;stroke-linecap:round;stroke-linejoin:round;stroke-miterlimit:4;stroke-dasharray:none;stroke-opacity:1;display:inline"
       d="M 49.568555,33.762975 L 89.766499,76.701963 L 127.33189,33.762975 L 109.16145,33.762975 L 109.16145,2.1651616 L 67.745123,2.1651616 L 67.745123,33.762975 L 49.568555,33.762975 z"
       id="path14750"
       sodipodi:nodetypes="cccccccc" />
  </g>
</svg>
