<?xml version="1.0" encoding="UTF-8" standalone="no"?>
<!-- Created with Inkscape (http://www.inkscape.org/) -->

<svg
   xmlns:dc="http://purl.org/dc/elements/1.1/"
   xmlns:cc="http://creativecommons.org/ns#"
   xmlns:rdf="http://www.w3.org/1999/02/22-rdf-syntax-ns#"
   xmlns:svg="http://www.w3.org/2000/svg"
   xmlns="http://www.w3.org/2000/svg"
   xmlns:xlink="http://www.w3.org/1999/xlink"
   xmlns:sodipodi="http://sodipodi.sourceforge.net/DTD/sodipodi-0.dtd"
   xmlns:inkscape="http://www.inkscape.org/namespaces/inkscape"
   width="128"
   height="128"
   id="svg6934"
   sodipodi:version="0.32"
   inkscape:version="0.48.3.1 r9886"
   version="1.0"
   sodipodi:docname="view-grid-symbolic.svg"
   inkscape:output_extension="org.inkscape.output.svg.inkscape">
  <defs
     id="defs6936">
    <linearGradient
       id="linearGradient5344">
      <stop
         style="stop-color:#000000;stop-opacity:1;"
         offset="0"
         id="stop5346" />
      <stop
         style="stop-color:#000000;stop-opacity:0;"
         offset="1"
         id="stop5348" />
    </linearGradient>
    <linearGradient
       id="linearGradient5165-7-9-8-2">
      <stop
         id="stop5167-4-8-6-9"
         style="stop-color:#ffffff;stop-opacity:1"
         offset="0" />
      <stop
         id="stop5169-5-5-2-9"
         style="stop-color:#ffffff;stop-opacity:0"
         offset="1" />
    </linearGradient>
    <linearGradient
       id="linearGradient5316-39">
      <stop
         style="stop-color:#ff6e00;stop-opacity:1;"
         offset="0"
         id="stop5320-84" />
      <stop
         style="stop-color:#eb2600;stop-opacity:1;"
         offset="1"
         id="stop5322-5" />
    </linearGradient>
    <linearGradient
       inkscape:collect="always"
       xlink:href="#linearGradient5316-39"
       id="linearGradient3783"
       x1="-129.59248"
       y1="66.129272"
       x2="-41.395626"
       y2="66.129272"
       gradientUnits="userSpaceOnUse"
       gradientTransform="translate(146.5,0)" />
    <linearGradient
       inkscape:collect="always"
       xlink:href="#linearGradient5165-7-9-8-2"
       id="linearGradient3785"
       gradientUnits="userSpaceOnUse"
       gradientTransform="translate(-40,140)"
       x1="22.933788"
       y1="-144.76825"
       x2="18.618809"
       y2="-96.331688" />
    <linearGradient
       inkscape:collect="always"
       xlink:href="#linearGradient5344"
       id="linearGradient3787"
       gradientUnits="userSpaceOnUse"
       gradientTransform="translate(-40,140)"
       x1="7.9531264"
       y1="2.2416961"
       x2="13.667412"
       y2="-64.464973" />
    <linearGradient
       inkscape:collect="always"
       xlink:href="#linearGradient5344"
       id="linearGradient3789"
       gradientUnits="userSpaceOnUse"
       gradientTransform="matrix(5.3340639,0,0,5.3340639,-1451.4802,-5984.5574)"
       x1="305.23422"
       y1="1137.0681"
       x2="283.35095"
       y2="1104.2024" />
    <linearGradient
       inkscape:collect="always"
       xlink:href="#linearGradient5316-39"
       id="linearGradient3791"
       gradientUnits="userSpaceOnUse"
       gradientTransform="translate(0,-120)"
       x1="6.5963445"
       y1="25.086559"
       x2="117.48683"
       y2="107.41399" />
    <linearGradient
       inkscape:collect="always"
       xlink:href="#linearGradient5316-39"
       id="linearGradient2999"
       x1="4.2849631"
       y1="9.7007008"
       x2="122.91039"
       y2="130.41499"
       gradientUnits="userSpaceOnUse" />
    <linearGradient
       inkscape:collect="always"
       xlink:href="#linearGradient5316-39"
       id="linearGradient3771"
       gradientUnits="userSpaceOnUse"
       x1="4.2849631"
       y1="9.7007008"
       x2="122.91039"
       y2="130.41499"
       gradientTransform="translate(-2,0)" />
    <linearGradient
       inkscape:collect="always"
       xlink:href="#linearGradient5316-39"
       id="linearGradient3051"
       x1="142.625"
       y1="4.3708882"
       x2="260.875"
       y2="126.51375"
       gradientUnits="userSpaceOnUse"
       gradientTransform="matrix(1.0784977,0,0,1.0784977,-166.60406,-3.3557036)" />
  </defs>
  <sodipodi:namedview
     id="base"
     pagecolor="#ffffff"
     bordercolor="#666666"
     borderopacity="1.0"
     inkscape:pageopacity="0.0"
     inkscape:pageshadow="2"
     inkscape:zoom="2.8"
     inkscape:cx="75.246903"
     inkscape:cy="61.300936"
     inkscape:document-units="px"
     inkscape:current-layer="layer1"
     showgrid="false"
     inkscape:window-width="1366"
     inkscape:window-height="716"
     inkscape:window-x="0"
     inkscape:window-y="0"
     inkscape:window-maximized="1" />
  <metadata
     id="metadata6939">
    <rdf:RDF>
      <cc:Work
         rdf:about="">
        <dc:format>image/svg+xml</dc:format>
        <dc:type
           rdf:resource="http://purl.org/dc/dcmitype/StillImage" />
        <dc:title />
      </cc:Work>
    </rdf:RDF>
  </metadata>
  <g
     inkscape:label="Capa 1"
     inkscape:groupmode="layer"
     id="layer1">
    <path
       inkscape:connector-curvature="0"
       id="path3053"
       d="m 33.00761,8.4066619 c -7.3179,0.209557 -12.73976,5.8649091 -12.73976,13.7171441 0,8.947676 6.14484,14.829171 14.15528,14.79564 6.87222,-0.02877 12.97569,-5.673609 12.97569,-13.413815 0,-7.740206 -6.01622,-14.5782282 -12.90828,-15.065266 C 33.98697,8.404771 33.49546,8.392699 33.00761,8.406664 z m 36.73632,2.3592151 c -6.26163,0.307492 -10.85238,5.573893 -10.85238,12.672348 0,8.088741 4.97614,13.457915 12.03199,13.58233 5.78365,0.101973 11.18942,-5.574058 11.18942,-12.571239 0,-6.997181 -5.01003,-13.306215 -11.08831,-13.649736 -0.43165,-0.02439 -0.86327,-0.0542 -1.28072,-0.0337 z m 31.9505,2.156995 c -5.69968,0.156146 -9.53796,5.269448 -9.53796,11.796069 0,7.437136 4.65216,12.851713 10.68387,12.773457 5.18883,-0.06731 9.74018,-5.497375 9.74018,-11.930881 0,-6.433507 -3.85288,-12.091169 -9.74018,-12.604942 -0.39614,-0.03456 -0.76593,-0.04412 -1.14591,-0.0337 z m 1.38183,35.725237 c -6.84346,0.02207 -10.91979,5.343623 -10.91979,12.706052 0,7.86524 4.92305,12.420646 10.91979,12.099397 5.61549,-0.3008 9.50426,-5.902256 9.50426,-12.706052 0,-6.803828 -4.33958,-12.116081 -9.50426,-12.099397 z m -31.9842,0.53925 c -7.2481,-0.06459 -12.26792,6.248236 -12.26792,13.514924 0,7.762941 5.05629,13.269844 12.16681,12.874567 5.95316,-0.33094 11.39163,-7.102922 11.39163,-13.818252 0,-6.715359 -5.3314,-12.518124 -11.29052,-12.571239 z m -36.66893,0.370733 c -8.23696,-0.01201 -14.15528,6.352506 -14.15528,14.728235 0,8.947678 6.18547,14.399918 14.15528,13.851955 7.05197,-0.484863 12.97569,-6.988015 12.97569,-14.728235 0,-7.740191 -6.10683,-13.841925 -12.97569,-13.851955 z m 69.15868,34.815255 c -0.35258,-0.01003 -0.71414,-0.0014 -1.07851,0.0337 -6.81324,0.656331 -10.48164,6.983377 -10.48164,13.986767 0,7.481646 4.44236,11.467966 11.122,10.549056 5.74621,-0.79053 9.60537,-6.77331 9.60537,-13.2453 0,-6.06752 -3.87865,-11.173581 -9.16722,-11.324226 z m -31.41125,2.729947 c -0.37327,-0.01024 -0.76088,-0.004 -1.14591,0.0337 -7.31107,0.715288 -12.30161,6.667033 -12.30161,15.200086 0,8.02948 5.06542,12.37787 12.23421,11.39162 6.16702,-0.84839 10.98719,-7.61376 10.98719,-14.559715 0,-6.511808 -4.17482,-11.912517 -9.77388,-12.065694 z m -36.39931,3.336603 c -0.41712,-0.01372 -0.85727,-0.0027 -1.28071,0.0337 -8.15597,0.700361 -14.22269,7.666922 -14.22269,16.042663 0,8.94766 6.16678,13.5354 14.15528,12.43642 6.87222,-0.94543 12.97569,-7.62837 12.97569,-15.3686 0,-7.256425 -5.3708,-12.93847 -11.62757,-13.144186 z"
       style="fill:#000000;stroke:#000000;stroke-width:5;stroke-miterlimit:4;stroke-dasharray:none;display:inline" />
    <path
       style="fill:url(#linearGradient3051);stroke:none;display:inline"
       d="m 35.00761,8.4066619 c -7.3179,0.209557 -12.73976,5.8649091 -12.73976,13.7171441 0,8.947676 6.14484,14.829171 14.15528,14.79564 6.87222,-0.02877 12.97569,-5.673609 12.97569,-13.413815 0,-7.740206 -6.01622,-14.5782282 -12.90828,-15.065266 C 35.98697,8.404771 35.49546,8.392699 35.00761,8.406664 z m 36.73632,2.3592151 c -6.26163,0.307492 -10.85238,5.573893 -10.85238,12.672348 0,8.088741 4.97614,13.457915 12.03199,13.58233 5.78365,0.101973 11.18942,-5.574058 11.18942,-12.571239 0,-6.997181 -5.01003,-13.306215 -11.08831,-13.649736 -0.43165,-0.02439 -0.86327,-0.0542 -1.28072,-0.0337 z m 31.9505,2.156995 c -5.69968,0.156146 -9.53796,5.269448 -9.53796,11.796069 0,7.437136 4.65216,12.851713 10.68387,12.773457 5.18883,-0.06731 9.74018,-5.497375 9.74018,-11.930881 0,-6.433507 -3.85288,-12.091169 -9.74018,-12.604942 -0.39614,-0.03456 -0.76593,-0.04412 -1.14591,-0.0337 z m 1.38183,35.725237 c -6.84346,0.02207 -10.91979,5.343623 -10.91979,12.706052 0,7.86524 4.92305,12.420646 10.91979,12.099397 5.61549,-0.3008 9.50426,-5.902256 9.50426,-12.706052 0,-6.803828 -4.33958,-12.116081 -9.50426,-12.099397 z m -31.9842,0.53925 c -7.2481,-0.06459 -12.26792,6.248236 -12.26792,13.514924 0,7.762941 5.05629,13.269844 12.16681,12.874567 5.95316,-0.33094 11.39163,-7.102922 11.39163,-13.818252 0,-6.715359 -5.3314,-12.518124 -11.29052,-12.571239 z m -36.66893,0.370733 c -8.23696,-0.01201 -14.15528,6.352506 -14.15528,14.728235 0,8.947678 6.18547,14.399918 14.15528,13.851955 7.05197,-0.484863 12.97569,-6.988015 12.97569,-14.728235 0,-7.740191 -6.10683,-13.841925 -12.97569,-13.851955 z m 69.15868,34.815255 c -0.35258,-0.01003 -0.71414,-0.0014 -1.07851,0.0337 -6.81324,0.656331 -10.48164,6.983377 -10.48164,13.986767 0,7.481646 4.44236,11.467966 11.122,10.549056 5.74621,-0.79053 9.60537,-6.77331 9.60537,-13.2453 0,-6.06752 -3.87865,-11.173581 -9.16722,-11.324226 z m -31.41125,2.729947 c -0.37327,-0.01024 -0.76088,-0.004 -1.14591,0.0337 -7.31107,0.715288 -12.30161,6.667033 -12.30161,15.200086 0,8.02948 5.06542,12.37787 12.23421,11.39162 6.16702,-0.84839 10.98719,-7.61376 10.98719,-14.559715 0,-6.511808 -4.17482,-11.912517 -9.77388,-12.065694 z m -36.39931,3.336603 c -0.41712,-0.01372 -0.85727,-0.0027 -1.28071,0.0337 -8.15597,0.700361 -14.22269,7.666922 -14.22269,16.042663 0,8.94766 6.16678,13.5354 14.15528,12.43642 6.87222,-0.94543 12.97569,-7.62837 12.97569,-15.3686 0,-7.256425 -5.3708,-12.93847 -11.62757,-13.144186 z"
       id="path6206"
       inkscape:connector-curvature="0" />
  </g>
</svg>
