<?xml version="1.0" encoding="UTF-8" standalone="no"?>
<!-- Created with Inkscape (http://www.inkscape.org/) -->

<svg
   xmlns:dc="http://purl.org/dc/elements/1.1/"
   xmlns:cc="http://creativecommons.org/ns#"
   xmlns:rdf="http://www.w3.org/1999/02/22-rdf-syntax-ns#"
   xmlns:svg="http://www.w3.org/2000/svg"
   xmlns="http://www.w3.org/2000/svg"
   xmlns:xlink="http://www.w3.org/1999/xlink"
   xmlns:sodipodi="http://sodipodi.sourceforge.net/DTD/sodipodi-0.dtd"
   xmlns:inkscape="http://www.inkscape.org/namespaces/inkscape"
   width="136.53334"
   height="136.53334"
   id="svg6934"
   sodipodi:version="0.32"
   inkscape:version="0.91 r13725"
   version="1.0"
   sodipodi:docname="start-here-jacaranda.svg"
   inkscape:output_extension="org.inkscape.output.svg.inkscape">
  <defs
     id="defs6936">
    <linearGradient
       inkscape:collect="always"
       xlink:href="#linearGradient5316-7"
       id="linearGradient7791"
       gradientUnits="userSpaceOnUse"
       gradientTransform="matrix(1.0666667,0,0,1.0666667,483.58991,41.65317)"
       x1="6.5963445"
       y1="25.086559"
       x2="117.48683"
       y2="107.41399" />
    <linearGradient
       id="linearGradient5316-7">
      <stop
         id="stop5320-3"
         offset="0"
         style="stop-color:#b995da;stop-opacity:1;" />
      <stop
         id="stop5322-6"
         offset="1"
         style="stop-color:#766287;stop-opacity:1;" />
    </linearGradient>
    <linearGradient
       inkscape:collect="always"
       xlink:href="#linearGradient5344"
       id="linearGradient7793"
       gradientUnits="userSpaceOnUse"
       gradientTransform="matrix(5.6896682,0,0,5.6896682,-1064.6556,-6213.8747)"
       x1="305.23422"
       y1="1137.0681"
       x2="283.35095"
       y2="1104.2024" />
    <linearGradient
       id="linearGradient5344">
      <stop
         id="stop5346"
         offset="0"
         style="stop-color:#000000;stop-opacity:1;" />
      <stop
         id="stop5348"
         offset="1"
         style="stop-color:#000000;stop-opacity:0;" />
    </linearGradient>
    <linearGradient
       inkscape:collect="always"
       xlink:href="#linearGradient5362"
       id="linearGradient7795"
       gradientUnits="userSpaceOnUse"
       gradientTransform="matrix(1.0666667,0,0,1.0666667,483.58991,190.9865)"
       x1="22.933788"
       y1="-144.76825"
       x2="18.618809"
       y2="-96.331688" />
    <linearGradient
       id="linearGradient5362">
      <stop
         id="stop5364"
         offset="0"
         style="stop-color:#ffffff;stop-opacity:1;" />
      <stop
         id="stop5366"
         offset="1"
         style="stop-color:#ffffff;stop-opacity:0;" />
    </linearGradient>
    <linearGradient
       inkscape:collect="always"
       xlink:href="#linearGradient5344"
       id="linearGradient7797"
       gradientUnits="userSpaceOnUse"
       gradientTransform="matrix(1.0666667,0,0,1.0666667,483.58991,190.9865)"
       x1="7.9531264"
       y1="2.2416961"
       x2="13.667412"
       y2="-64.464973" />
    <inkscape:path-effect
       fuse_tolerance="0"
       vertical_pattern="false"
       prop_units="false"
       tang_offset="0"
       normal_offset="0"
       spacing="0"
       scale_y_rel="false"
       prop_scale="1"
       copytype="single_stretched"
       pattern="m 63.889845,205.89056 1,0"
       is_visible="true"
       id="path-effect7646"
       effect="skeletal" />
    <inkscape:path-effect
       fuse_tolerance="0"
       vertical_pattern="false"
       prop_units="false"
       tang_offset="0"
       normal_offset="0"
       spacing="0"
       scale_y_rel="false"
       prop_scale="1"
       copytype="single_stretched"
       pattern="m 71.289516,206.28002 1,0"
       is_visible="true"
       id="path-effect7650"
       effect="skeletal" />
    <inkscape:path-effect
       fuse_tolerance="0"
       vertical_pattern="false"
       prop_units="false"
       tang_offset="0"
       normal_offset="0"
       spacing="0"
       scale_y_rel="false"
       prop_scale="1"
       copytype="single_stretched"
       pattern="m 63.889845,205.89056 1,0"
       is_visible="true"
       id="path-effect7654"
       effect="skeletal" />
  </defs>
  <sodipodi:namedview
     id="base"
     pagecolor="#ffffff"
     bordercolor="#666666"
     borderopacity="1.0"
     inkscape:pageopacity="0.0"
     inkscape:pageshadow="2"
     inkscape:zoom="2.8003061"
     inkscape:cx="72.505589"
     inkscape:cy="60.894529"
     inkscape:document-units="px"
     inkscape:current-layer="layer1"
     showgrid="false"
     inkscape:window-width="1600"
     inkscape:window-height="852"
     inkscape:window-x="0"
     inkscape:window-y="0"
     inkscape:window-maximized="1" />
  <metadata
     id="metadata6939">
    <rdf:RDF>
      <cc:Work
         rdf:about="">
        <dc:format>image/svg+xml</dc:format>
        <dc:type
           rdf:resource="http://purl.org/dc/dcmitype/StillImage" />
        <dc:title />
      </cc:Work>
    </rdf:RDF>
  </metadata>
  <g
     inkscape:label="Capa 1"
     inkscape:groupmode="layer"
     id="layer1">
    <g
       id="g7731"
       transform="translate(-483.5899,-41.65317)"
       inkscape:export-xdpi="153.72714"
       inkscape:export-ydpi="153.72714">
      <path
         inkscape:connector-curvature="0"
         id="path7733"
         d="m 520.08991,47.053173 c -1.41789,0.05909 -2.72059,0.298304 -3.9,0.666667 l -19.56667,2.9 -0.53333,0 0,0.2 c -6.09653,1.119008 -9.23333,5.964779 -9.23333,11.9 l 0,90.33333 c -0.0749,6.02908 2.18677,10.76821 6.73333,12.26667 l 20.23333,6.33333 c 0.0223,0.0109 0.0443,0.0226 0.0667,0.0334 2.01891,0.96994 4.44206,1.31466 7.23334,0.86666 l 83.49999,-12.6 c 6.10189,-0.66105 10.09792,-6.46819 9.76667,-14.53333 l 0.43333,-79.233383 c 0.23732,-6.36303 -2.98846,-11.707968 -9.96666,-12.766667 l -83.03334,-6.333343 c -0.59339,-0.02912 -1.1766,-0.05653 -1.73333,-0.03339 z"
         style="fill:url(#linearGradient7791);fill-opacity:1;fill-rule:evenodd;stroke:none;stroke-width:1.06666672" />
      <path
         sodipodi:nodetypes="ccccccccccccc"
         inkscape:connector-curvature="0"
         id="path7735"
         d="m 514.78991,59.486507 -0.0333,102.833333 c 0.47861,3.68883 1.50138,8.66619 4.63333,10.4 0.56227,-0.0244 1.13867,-0.0713 1.73334,-0.16667 l 83.49999,-12.6 c 6.10189,-0.66106 10.09792,-6.46819 9.76667,-14.53333 l 0.43333,-79.23333 c 0.23728,-6.363033 -2.98846,-11.707971 -9.96666,-12.76667 l -81.07632,-6.184064 c -4.23602,-0.448715 -8.97655,5.099275 -8.99035,12.250731 z m 0.96667,112.833333 c 0.69116,0.18296 1.40232,0.34791 2.16666,0.4 z"
         style="fill:url(#linearGradient7793);fill-rule:evenodd;stroke:none;stroke-width:1.06666672" />
      <path
         inkscape:connector-curvature="0"
         id="path7737"
         d="m 520.68991,47.31984 -24.06667,3.3 -0.53333,0 0,0.2 c -6.09653,1.119008 -9.23333,5.964779 -9.23333,11.9 l 0,26.666667 27.93333,0 0,-29.9 c 0.37019,-5.244566 2.42567,-10.628033 5.9,-12.166667 z"
         style="display:inline;fill:url(#linearGradient7795);fill-rule:evenodd;stroke:none;stroke-width:1.06666672" />
      <path
         inkscape:connector-curvature="0"
         id="path7739"
         d="m 486.85658,114.61984 0,38.43333 c -0.0749,6.02908 2.18677,10.76821 6.73333,12.26667 l 18.83333,6.43333 8,1.4 c -3.95823,-1.11454 -5.13861,-6.76345 -5.66666,-10.83333 l 0,-47.7 z"
         style="display:inline;fill:url(#linearGradient7797);fill-rule:evenodd;stroke:none;stroke-width:1.06666672" />
      <path
         sodipodi:nodetypes="ccccccccccccc"
         style="display:inline;fill:none;stroke:#344b63;stroke-width:2.84483409;stroke-linecap:butt;stroke-linejoin:miter;stroke-miterlimit:4;stroke-dasharray:none;stroke-opacity:1"
         d="m 521.80326,47.076565 c -1.85,-0.09099 -3.48543,0.142219 -4.97846,0.534752 l -20.80285,3.200576 c -6.09653,1.119008 -9.24571,5.977312 -9.24571,11.912537 l 0,90.32366 c -0.0749,6.02908 2.20993,10.77021 6.75648,12.26866 l 20.98065,6.57806 c 1.91172,0.78962 4.02665,1.12128 6.57868,0.71168 l 83.567,-12.62421 c 6.10189,-0.66048 10.11037,-6.51435 9.77912,-14.57949 l 0.35561,-79.30029 c 0.23728,-6.363033 -2.97871,-11.564953 -9.95692,-12.623652 l -83.0336,-6.401141 z"
         id="path7741"
         inkscape:connector-curvature="0" />
    </g>
    <g
       style="fill:#000000;fill-opacity:0.54441259;stroke:#000000;stroke-width:9.96300983;stroke-miterlimit:4;stroke-dasharray:none;stroke-opacity:0.45558741"
       id="g7759"
       transform="matrix(0.40986624,-0.2896023,0.2896023,0.40986624,-181.8531,189.90383)"
       inkscape:export-xdpi="153.72714"
       inkscape:export-ydpi="153.72714">
      <path
         style="fill:#000000;fill-opacity:0.54441259;fill-rule:evenodd;stroke:#000000;stroke-width:9.96300983;stroke-linecap:butt;stroke-linejoin:miter;stroke-miterlimit:4;stroke-dasharray:none;stroke-opacity:0.45558741"
         d="m 564.53363,51.703219 c 2.01199,2.454547 3.07502,5.579652 3.46474,8.729419 0.41913,3.387518 0.17866,6.822486 -0.19928,10.214847 -0.3825,3.433252 -0.94288,6.845812 -1.27402,10.284397 0,8e-6 0,1.5e-5 0,2.3e-5 -0.28697,2.979835 -0.45479,6.026275 0.2405,8.938033 0,3e-6 0,7e-6 0,1.1e-5 0.32263,1.351106 0.81267,2.656295 1.28572,3.962358 0.70566,1.948297 1.46278,3.877925 2.2658,5.788158 0,4e-6 0,7e-6 0,1.1e-5 0.78129,1.858544 1.5979,3.704474 2.53599,5.489014 0,0 10e-6,2e-5 10e-6,2e-5 0.35353,0.67253 0.72275,1.33825 1.14746,1.96825 0,0 0,1e-5 0,1e-5 0.27149,0.40272 0.55054,0.81865 0.94881,1.09663 2.6959,1.88165 6.19573,2.03239 9.29976,3.11565 0.62655,0.21866 1.1559,0.64398 1.68993,1.03791 0.51111,0.37702 1.03634,0.7792 1.65798,0.90937 0,0 10e-6,0 10e-6,0 0.6818,0.14276 1.38564,0.095 2.08196,0.11389 0.71714,0.0195 1.42165,0.25442 2.00993,0.66502 0,0 2e-5,1e-5 2e-5,1e-5 0.11046,0.0771 0.18951,0.19098 0.27397,0.29592 0,0 10e-6,1e-5 10e-6,1e-5 0.16373,0.20344 0.31804,0.41429 0.47085,0.62605 0.48983,0.6788 0.95867,1.37249 1.42521,2.06751 1.37001,2.04097 2.70473,4.10541 4.03513,6.17242 2.28864,3.5558 4.54319,7.13345 6.81448,10.70036 10e-6,0 10e-6,1e-5 2e-5,1e-5 1.16346,1.82715 3.1487,2.9814 5.17587,3.74474 0,0 10e-6,0 10e-6,0 2.4645,0.92802 5.10046,1.34096 7.73048,1.47504 2.69806,0.13755 5.41589,-0.0265 8.06611,-0.55067 2.17528,-0.43022 4.36449,-1.06326 6.1828,-2.33238 2.21454,-1.54568 3.55923,-4.19991 5.95185,-5.45239 0.96282,-0.50402 2.1099,-0.50904 3.18072,-0.32352 0,0 0,0 1e-5,0 1.14999,0.19923 2.27969,0.53724 3.44447,0.61126 1.37661,0.0875 2.77142,-0.26783 3.94477,-0.99307 1.9865,-1.22785 3.42727,-3.16663 4.68162,-5.13651 0,0 10e-6,-1e-5 10e-6,-1e-5 1.03267,-1.62173 1.30728,-3.61562 1.35385,-5.53766 0.0469,-1.93407 -0.16053,-3.87484 -0.60987,-5.75657 0,-1e-5 0,-2e-5 0,-2e-5 -0.30327,-1.27011 0.30329,-2.62444 0,-3.89455 -0.22219,-0.93051 -0.84287,-1.71285 -1.45232,-2.45028 -0.82966,-1.00387 -1.76383,-1.91722 -2.73134,-2.78901 -0.97931,-0.88244 -1.99942,-1.71978 -3.05744,-2.50611 -0.77943,-0.57928 -1.57028,-1.15116 -2.43064,-1.60154 0,-10e-6 -10e-6,-10e-6 -10e-6,-10e-6 -1.04732,-0.548247 -2.31818,-0.2972 -3.48469,-0.10564 -1.19117,0.19561 -2.4434,0.50338 -3.58312,0.10564 0,0 -1e-5,0 -1e-5,0 -1.51555,-0.528911 -2.97105,-1.216794 -4.40798,-1.932255 -1.42384,-0.70894 -2.8435,-1.441414 -4.14779,-2.351766 -0.26803,-0.187076 -0.41849,-0.517512 -0.40375,-0.844039 0.017,-0.376863 0.17676,-0.733744 0.36719,-1.059402 0,0 10e-6,-10e-6 10e-6,-10e-6 0.37561,-0.642349 0.86525,-1.256543 1.52449,-1.601648 0,0 2e-5,-1.1e-5 2e-5,-1.1e-5 1.39601,-0.730779 3.02017,-0.96841 4.5862,-0.793981 10e-6,3e-6 10e-6,2e-6 2e-5,10e-7 1.56794,0.174644 3.0774,0.683386 4.56531,1.207893 0,2e-6 10e-6,4e-6 2e-5,6e-6 1.48703,0.524202 2.96896,1.088262 4.51647,1.390387 1.47452,0.287876 3.03562,0.287854 4.43975,-0.246476 1.55874,-0.593165 3.24085,-0.773866 4.88094,-1.076553 2.17453,-0.401322 4.35193,-0.831735 6.44631,-1.541133 1.90842,-0.646414 3.8323,-1.516343 5.13224,-3.055851 0.58578,-0.693725 1.00419,-1.532087 1.17353,-2.424111 0,-8e-6 0,-1.6e-5 0,-2.3e-5 0.20114,-1.059509 0.0675,-2.161363 -0.23477,-3.196569 0,-7e-6 -10e-6,-1.4e-5 -10e-6,-2.2e-5 -0.29932,-1.025129 -0.78429,-1.985134 -1.19883,-2.969333 -0.38962,-0.925052 -0.84801,-1.868729 -0.84801,-2.872485 0,-0.112142 0.0867,-0.205736 0.18239,-0.264285 0,0 2e-5,-1.2e-5 2e-5,-1.2e-5 0.14699,-0.08997 0.31716,-0.13437 0.48555,-0.171031 0,0 10e-6,-3e-6 10e-6,-3e-6 0.4953,-0.107833 1.00486,-0.131471 1.51129,-0.153472 0,0 2e-5,-10e-7 2e-5,-10e-7 0.53834,-0.02339 1.07734,-0.0293 1.61563,-0.0538 0.33131,-0.01508 0.69306,0.02809 0.98109,-0.136317 1.03701,-0.59194 1.87733,-1.475694 2.66587,-2.372349 0.82468,-0.937761 1.60912,-1.936142 2.11012,-3.080041 0.40013,-0.913591 0.36305,-1.965967 0.13248,-2.936321 -0.2677,-1.126587 -0.76452,-2.186144 -1.31491,-3.204935 0,-7e-6 0,-1.4e-5 -10e-6,-2e-5 -0.56455,-1.045009 -1.20146,-2.048891 -1.83239,-3.055209 -0.50754,-0.809496 -1.03672,-1.612021 -1.42003,-2.487205 0,-7e-6 -10e-6,-1.4e-5 -10e-6,-2.1e-5 -0.84865,-1.937678 -1.62602,-3.9103 -2.60132,-5.787421 0,0 -1e-5,-2e-5 -1e-5,-2e-5 -0.26694,-0.51376 -0.55023,-1.024628 -0.9244,-1.466443 -0.25129,-0.296712 -0.55759,-0.560167 -0.9254,-0.686249 -0.85229,-0.292153 -1.77421,0.115921 -2.60924,0.454268 -1.6333,0.661801 -3.23254,1.406723 -4.8796,2.033496 -10e-6,10e-7 -2e-5,3e-6 -2e-5,4e-6 -1.13739,0.432822 -2.37791,0.505506 -3.59086,0.604151 -1e-5,-1e-6 -2e-5,0 -3e-5,2e-6 -1.74191,0.141663 -3.49019,0.189678 -5.23768,0.214144 -1e-5,0 -2e-5,0 -3e-5,0 -3.08376,0.04317 -6.16786,-0.03939 -9.25192,-0.03939 -0.89543,0 -1.71499,-0.559674 -2.19649,-1.314625 -0.54438,-0.853549 -0.84495,-1.835609 -1.22181,-2.775225 -0.36772,-0.916812 -0.79092,-1.861242 -1.55862,-2.482853 -0.87225,-0.706271 -2.12111,-0.721694 -3.20687,-0.437507 -1e-5,3e-6 -1e-5,5e-6 -2e-5,8e-6 -1.47721,0.386643 -2.89302,0.975769 -4.3106,1.543318 -1.91555,0.766923 -3.8162,1.570452 -5.72255,2.359984 -10e-6,3e-6 -10e-6,6e-6 -2e-5,9e-6 -1.80533,0.747695 -3.61186,1.494654 -5.44883,2.160873 -0.69118,0.250676 -1.38657,0.491656 -2.09501,0.688352 -0.45664,0.126782 -0.92057,0.257666 -1.39448,0.257666 -0.0821,0 -0.10962,-0.109806 -0.11654,-0.19162 -0.0143,-0.169347 0.0127,-0.33945 0.0406,-0.507089 0.0878,-0.52664 0.23405,-1.041746 0.38466,-1.55397 0.15755,-0.535787 0.32882,-1.067493 0.50929,-1.595998 0,0 10e-6,-2.2e-5 10e-6,-2.2e-5 0.0639,-0.187083 0.12888,-0.373794 0.19638,-0.559602 0.0323,-0.08896 0.0608,-0.179762 0.10156,-0.265169 0.89491,-1.873841 0.92157,-4.041826 0.93992,-6.118314 0,-7e-6 0,-1.5e-5 0,-2.3e-5 0.0188,-2.127449 -0.0738,-4.27492 -0.56792,-6.344273 -0.95354,-3.993239 -1.1862,-8.140928 -2.2832,-12.097164 -0.51822,-1.868937 -1.25213,-3.696187 -2.36346,-5.285657 -10e-6,-5e-6 -10e-6,-1.2e-5 -10e-6,-1.9e-5 -1.18832,-1.699572 -2.8158,-3.075482 -4.65309,-4.03726 -10e-6,-1e-6 -2e-5,-2e-6 -2e-5,-3e-6 -0.72913,-0.381678 -1.59513,-0.364211 -2.41513,-0.2942 -10e-6,0 -2e-5,0 -2e-5,0 -0.81117,0.06926 -1.65205,0.172995 -2.42071,-0.09526 -1.65219,-0.576585 -3.0774,-1.643804 -4.55152,-2.586756 -1.43699,-0.919197 -3.04241,-1.697264 -4.74824,-1.697264 -2.86428,0 -5.673,0.902193 -8.26434,2.122446 -2.67556,1.259907 -5.34079,2.998038 -6.61527,5.666684 -0.50458,1.056554 -0.23975,2.291154 -0.12663,3.456536 0,4e-6 0,8e-6 0,1.1e-5 0.0535,0.551677 0.0558,1.120784 -0.12429,1.644971 -0.21592,0.628369 -0.69221,1.138961 -1.23705,1.519242 -1.51133,1.054863 -3.32822,1.559558 -5.11483,2.012166 -1.71493,0.434447 -3.47822,0.869861 -4.92891,1.882394 0,0 -2e-5,1.3e-5 -2e-5,1.3e-5 -0.39936,0.278748 -0.66793,0.707891 -0.89022,1.141223 -0.30926,0.60288 -0.52665,1.248905 -0.71053,1.901051 0,8e-6 0,1.5e-5 0,2.3e-5 -0.47443,1.682593 -0.72313,3.421566 -0.89206,5.161582 -0.1755,1.807556 -0.25255,3.625648 -0.20364,5.441045 0.0352,1.305735 0.0683,2.635956 0.46453,3.880603 0.61468,1.930624 2.12635,3.42219 3.7199,4.67348 z"
         id="path7761"
         inkscape:path-effect="#path-effect7646"
         inkscape:original-d="m 564.53363,51.703219 c 8.21311,10.01966 -0.2492,27.77614 2.23194,38.16673 0.74539,3.12151 5.9974,16.778411 8.18379,18.304451 2.76867,1.93244 6.33077,2.07952 9.29976,3.11565 1.16381,0.40615 2.2267,1.71251 3.34792,1.94728 1.64127,0.34367 2.54667,-0.2996 4.09189,0.77891 0.88881,0.62036 11.31847,17.19066 13.01967,19.86228 4.21195,6.61459 21.1533,6.52594 27.15529,2.33674 2.01338,-1.40528 3.83865,-4.34618 5.95185,-5.45239 4.17028,-2.18305 8.41304,4.89764 15.2516,-5.84185 1.85353,-2.91082 1.50875,-8.09154 0.74398,-11.29423 -0.29175,-1.22183 0.29176,-2.67274 0,-3.89457 -0.66023,-2.76492 -7.27227,-8.09088 -9.67175,-9.34695 -1.87687,-0.982501 -5.0597,0.7008 -7.06782,0 -2.29667,-0.801511 -6.60603,-2.923161 -8.55577,-4.284021 -1.22148,-0.85255 0.62802,-3.05495 1.48796,-3.50511 6.11648,-3.20183 12.25167,3.78632 18.10777,1.55783 4.18459,-1.59241 20.22198,-1.62334 17.39825,-11.29424 -0.46777,-1.60203 -2.04685,-4.36897 -2.04685,-5.84184 0,-0.84932 4.21935,-0.46118 4.776,-0.77892 1.53901,-0.87849 3.97797,-3.63031 4.77599,-5.45239 1.55484,-3.5501 -3.22969,-8.93202 -4.43486,-11.68369 -4.64098,-10.59652 -3.24874,-8.75976 -11.93998,-5.45239 -3.00516,1.14359 -14.51091,0.77891 -18.08054,0.77891 -4.1613,0 -2.22625,-8.56953 -8.18379,-7.01021 -4.05702,1.06188 -16.37426,7.01021 -18.97151,7.01021 -0.55762,0 1.00892,-4.44932 1.11597,-4.67347 1.29234,-2.70603 1.09011,-9.45527 0.372,-12.46261 -1.91105,-8.0031 -1.07756,-17.11597 -9.29976,-21.4201 -1.53511,-0.80359 -3.29333,0.14887 -4.83588,-0.38946 -3.39843,-1.18599 -5.63905,-4.28402 -9.29976,-4.28402 -4.45562,0 -12.62276,3.06348 -14.87961,7.78913 -1.10235,2.30822 1.26065,4.70232 -1.48797,6.62076 -3.16048,2.20592 -7.13116,1.86167 -10.04374,3.89456 -2.61584,1.82578 -3.28774,14.20942 -2.23194,17.52554 0.68683,2.15723 2.04065,3.3549 3.7199,4.67348 z"
         inkscape:connector-curvature="0"
         sodipodi:nodetypes="cssssssssssssssssssssssssssssssssssc" />
      <path
         style="fill:#000000;fill-opacity:0.54441259;fill-rule:evenodd;stroke:#000000;stroke-width:9.96300983;stroke-linecap:butt;stroke-linejoin:miter;stroke-miterlimit:4;stroke-dasharray:none;stroke-opacity:0.45558741"
         d="m 522.11707,42.813499 c 1.92723,-0.553304 3.96336,-0.614652 5.96731,-0.547251 2.46243,0.08282 4.91322,0.417977 7.32419,0.925571 4.46377,0.93978 9.07372,2.2323 12.50687,5.23595 0,2e-6 10e-6,4e-6 10e-6,6e-6 1.39331,1.219 3.03041,2.117562 4.58804,3.118095 1.5887,1.020495 3.097,2.227786 4.14089,3.801209 1.11212,1.676257 1.50577,3.722397 1.80345,5.711875 0,3e-6 0,4e-6 0,6e-6 0.38729,2.588383 0.52887,5.206423 0.70635,7.817595 0.19186,2.822709 0.39615,5.649003 0.84398,8.442557 0.4186,2.611214 1.03894,5.218777 2.21634,7.586767 1.1942,2.40177 2.9935,4.463042 4.97594,6.269839 1.98201,1.806394 4.20862,3.423178 6.75079,4.276871 0.61064,0.20506 1.25297,0.300356 1.88066,0.445006 0.98283,0.226488 1.96317,0.469217 2.92135,0.784061 10e-6,10e-7 10e-6,10e-7 10e-6,2e-6 0.80872,0.265731 1.65085,0.537412 2.28592,1.104258 0.19623,0.175146 0.37263,0.403416 0.38089,0.666309 0.009,0.290311 -0.18962,0.546085 -0.40651,0.739276 0,0 -10e-6,8e-6 -10e-6,8e-6 -0.32682,0.291111 -0.7314,0.479736 -1.1337,0.652103 -0.60465,0.259068 -1.2323,0.460968 -1.86386,0.644958 -1.80445,0.52569 -3.64961,0.89983 -5.49775,1.24154 -5.00877,0.92607 -10.06785,1.55765 -15.13249,2.10066 -5.00284,0.53639 -10.01749,0.97408 -15.04244,1.23114 0,0 0,0 -10e-6,0 -1.79368,0.0918 -3.58919,0.1656 -5.38519,0.15461 0,0 0,0 -10e-6,0 -0.59735,-0.004 -1.1951,-0.0155 -1.79069,-0.0615 -0.35363,-0.0273 -0.71305,-0.0502 -1.04928,-0.16308 -0.57158,-0.19194 -1.05703,-0.57648 -1.53712,-0.94126 -0.77203,-0.58661 -1.50228,-1.22626 -2.22162,-1.87642 -1.90556,-1.72229 -3.7251,-3.537294 -5.53032,-5.364475 -1e-5,-2e-6 -1e-5,-3e-6 -1e-5,-4e-6 -1.80462,-1.826576 -3.58499,-3.676919 -5.36897,-5.523668 0,-2e-6 0,-5e-6 0,-8e-6 -0.67072,-0.694315 -1.34132,-1.388785 -2.01993,-2.075385 0,-10e-7 0,-3e-6 0,-4e-6 -0.41011,-0.414944 -0.81565,-0.835682 -1.25474,-1.219837 -1.76173,-1.541331 -2.65152,-3.826432 -3.44469,-6.028764 -0.80097,-2.223991 -1.54797,-4.551656 -3.12023,-6.316786 -2.06118,-2.314031 -4.38461,-4.405864 -6.20459,-6.914019 -10e-6,-3e-6 -10e-6,-6e-6 -10e-6,-1e-5 -0.92936,-1.280765 -1.73401,-2.668405 -2.21626,-4.175556 -0.4848,-1.515136 -0.60374,-3.151458 -0.28828,-4.710675 0.34125,-1.686702 1.42285,-3.149098 2.73827,-4.258641 1e-5,0 1e-5,-2e-6 1e-5,-4e-6 1.46081,-1.232174 3.17577,-2.125924 4.9168,-2.913966 1.72892,-0.782555 3.50961,-1.444085 5.26284,-2.170524 1.32542,-0.549175 2.70506,-1.074064 3.77638,-2.028315 1.80633,-1.608964 3.03204,-3.753953 4.52142,-5.66009 z"
         id="path7763"
         inkscape:path-effect="#path-effect7650"
         inkscape:original-d="m 522.11707,42.813499 c 6.36159,-1.8264 20.48295,0.96383 25.79837,5.61427 2.8614,2.50343 6.46375,3.50507 8.72894,6.91931 3.68476,5.55392 1.15133,20.67175 5.57012,29.5588 2.06041,4.14389 7.29986,9.06011 11.72673,10.54671 1.06881,0.35892 9.38247,1.67229 7.06231,3.73892 -3.91243,3.484931 -43.46322,6.952971 -46.89542,5.800401 -2.97152,-0.99787 -15.82176,-15.154201 -17.93271,-17.001061 -3.51017,-3.07104 -3.48737,-8.89048 -6.56492,-12.34555 -3.5867,-4.0267 -10.05584,-9.14393 -8.70914,-15.80026 1.38424,-6.84186 13.46455,-8.49462 16.6943,-11.37145 1.69533,-1.51009 3.14804,-3.90241 4.52142,-5.66009 z"
         inkscape:connector-curvature="0"
         sodipodi:nodetypes="cssssssssssc" />
      <path
         style="fill:#000000;fill-opacity:0.54441259;fill-rule:evenodd;stroke:#000000;stroke-width:9.96300983;stroke-linecap:butt;stroke-linejoin:miter;stroke-miterlimit:4;stroke-dasharray:none;stroke-opacity:0.45558741"
         d="m 470.45899,142.85898 c 0.57709,-1.46363 1.62988,-2.72622 2.94403,-3.59124 1.33745,-0.88036 2.8936,-1.38697 4.47022,-1.66636 3.20193,-0.56739 6.51826,-0.30864 9.68265,0.44031 1.78963,0.42356 3.23122,1.7119 4.57767,2.9646 0,1e-5 1e-5,1e-5 1e-5,1e-5 1.34577,1.25208 2.66792,2.62337 4.37784,3.29788 5.75578,2.27048 11.97785,3.06194 17.91104,4.81731 5.14616,1.52251 10.5856,1.89015 15.94258,1.56802 5.79056,-0.3482 11.51751,-1.49604 17.07583,-3.15644 10.83403,-3.23637 21.20027,-8.26868 30.0773,-15.27215 4.4103,-3.47946 8.57728,-7.28083 12.34205,-11.45024 0,0 0,0 0,0 2.16926,-2.40241 4.23949,-4.93536 5.73216,-7.8075 0.59502,-1.14493 1.09635,-2.35269 1.31867,-3.6237 0.18303,-1.04643 0.15282,-2.15343 -0.26063,-3.13199 -0.39399,-0.93249 -0.81868,-1.85442 -1.33383,-2.72584 -0.4895,-0.82804 -1.02791,-1.73848 -1.9227,-2.09146 -10e-6,0 -2e-5,-1e-5 -2e-5,-1e-5 -0.58874,-0.23224 -1.19892,-0.40552 -1.80589,-0.58479 -1.01524,-0.29985 -2.03626,-0.57975 -3.05912,-0.852448 -2.72009,-0.725187 -5.45471,-1.395753 -8.20042,-2.016896 -2.71154,-0.613412 -5.43315,-1.191446 -8.18081,-1.614587 -1.00674,-0.155037 -2.01753,-0.293788 -3.03461,-0.349562 -0.59443,-0.0326 -1.21778,-0.0992 -1.77157,0.119252 -1.80743,0.712977 -3.44339,1.790866 -5.15616,2.708239 0,2e-6 -1e-5,3e-6 -1e-5,5e-6 -1.683,0.901432 -3.51842,1.627327 -5.42763,1.627327 -2.05529,0 -4.10369,-0.2259 -6.14715,-0.44607 -10e-6,0 -10e-6,0 -2e-5,0 -2.57159,-0.277082 -5.13774,-0.602183 -7.70654,-0.904033 -2.3925,-0.281133 -4.78693,-0.557812 -7.19104,-0.710707 -0.91673,-0.0583 -1.83544,-0.100249 -2.75379,-0.07933 -0.62113,0.01415 -1.25104,0.03697 -1.84681,0.21323 -3.22302,0.953533 -5.9639,3.066011 -8.54715,5.216351 -2.64784,2.2041 -5.1777,4.59077 -8.14269,6.34517 -4.91884,2.9105 -10.14272,5.27891 -15.06155,8.18942 -2.61201,1.54554 -5.64216,2.22844 -8.63975,2.70354 -3.54544,0.56193 -7.13435,0.78862 -10.71515,1.04118 -10e-6,0 -10e-6,0 -2e-5,0 -3.61331,0.25484 -7.23414,0.5014 -10.80734,1.09574 -3.09686,0.5151 -6.21453,1.26852 -8.91638,2.86722 -2.61393,1.54668 -4.66475,3.97783 -5.90228,6.75152 -10e-6,10e-6 -10e-6,10e-6 -10e-6,2e-5 -1.13056,2.53392 -1.64815,5.37519 -1.25606,8.12204 0.33108,2.31941 1.43957,4.64842 3.44256,5.86387 0,0 1e-5,0 1e-5,0 2.42062,1.46887 5.55963,1.01596 8.19353,-0.023 0,0 10e-6,0 10e-6,0 1.10968,-0.43774 2.35658,-0.36085 3.49866,-0.70532 0.50913,-0.15356 0.97348,-0.45788 1.29788,-0.87925 0.50057,-0.65023 0.73282,-1.46642 0.90243,-2.26929 z"
         id="path7765"
         inkscape:path-effect="#path-effect7654"
         inkscape:original-d="m 470.45899,142.85898 c 2.48164,-6.29399 11.59074,-6.1205 17.0969,-4.81729 3.48225,0.82417 5.73969,4.99394 8.95552,6.26249 5.70704,2.25126 12.05903,3.08596 17.91104,4.81731 19.67082,5.81967 47.34638,-4.43526 63.09571,-16.86057 4.23661,-3.34243 22.29811,-18.52041 19.13225,-26.01343 -0.58589,-1.38669 -1.88547,-4.27645 -3.25655,-4.81731 -2.77196,-1.09345 -23.38506,-6.351231 -26.05242,-5.299031 -3.65354,1.44121 -6.56828,4.335571 -10.5838,4.335571 -6.23441,0 -22.16036,-2.957971 -25.64535,-1.926911 -6.16582,1.824161 -11.0633,8.232261 -16.68984,11.561521 -4.90478,2.90218 -10.19097,5.30746 -15.06155,8.18942 -9.25466,5.47603 -29.3322,1.94065 -39.07864,7.70768 -10.94391,6.47557 -9.6376,26.2825 4.47776,20.71441 2.63925,-1.04111 4.79085,0.44487 5.69897,-3.85386 z"
         inkscape:connector-curvature="0" />
    </g>
    <g
       transform="matrix(0.40986624,-0.2896023,0.2896023,0.40986624,-179.8531,189.90383)"
       id="g7767"
       inkscape:export-xdpi="153.72714"
       inkscape:export-ydpi="153.72714">
      <path
         sodipodi:nodetypes="cssssssssssssssssssssssssssssssssssc"
         inkscape:connector-curvature="0"
         inkscape:original-d="m 564.53363,51.703219 c 8.21311,10.01966 -0.2492,27.77614 2.23194,38.16673 0.74539,3.12151 5.9974,16.778411 8.18379,18.304451 2.76867,1.93244 6.33077,2.07952 9.29976,3.11565 1.16381,0.40615 2.2267,1.71251 3.34792,1.94728 1.64127,0.34367 2.54667,-0.2996 4.09189,0.77891 0.88881,0.62036 11.31847,17.19066 13.01967,19.86228 4.21195,6.61459 21.1533,6.52594 27.15529,2.33674 2.01338,-1.40528 3.83865,-4.34618 5.95185,-5.45239 4.17028,-2.18305 8.41304,4.89764 15.2516,-5.84185 1.85353,-2.91082 1.50875,-8.09154 0.74398,-11.29423 -0.29175,-1.22183 0.29176,-2.67274 0,-3.89457 -0.66023,-2.76492 -7.27227,-8.09088 -9.67175,-9.34695 -1.87687,-0.982501 -5.0597,0.7008 -7.06782,0 -2.29667,-0.801511 -6.60603,-2.923161 -8.55577,-4.284021 -1.22148,-0.85255 0.62802,-3.05495 1.48796,-3.50511 6.11648,-3.20183 12.25167,3.78632 18.10777,1.55783 4.18459,-1.59241 20.22198,-1.62334 17.39825,-11.29424 -0.46777,-1.60203 -2.04685,-4.36897 -2.04685,-5.84184 0,-0.84932 4.21935,-0.46118 4.776,-0.77892 1.53901,-0.87849 3.97797,-3.63031 4.77599,-5.45239 1.55484,-3.5501 -3.22969,-8.93202 -4.43486,-11.68369 -4.64098,-10.59652 -3.24874,-8.75976 -11.93998,-5.45239 -3.00516,1.14359 -14.51091,0.77891 -18.08054,0.77891 -4.1613,0 -2.22625,-8.56953 -8.18379,-7.01021 -4.05702,1.06188 -16.37426,7.01021 -18.97151,7.01021 -0.55762,0 1.00892,-4.44932 1.11597,-4.67347 1.29234,-2.70603 1.09011,-9.45527 0.372,-12.46261 -1.91105,-8.0031 -1.07756,-17.11597 -9.29976,-21.4201 -1.53511,-0.80359 -3.29333,0.14887 -4.83588,-0.38946 -3.39843,-1.18599 -5.63905,-4.28402 -9.29976,-4.28402 -4.45562,0 -12.62276,3.06348 -14.87961,7.78913 -1.10235,2.30822 1.26065,4.70232 -1.48797,6.62076 -3.16048,2.20592 -7.13116,1.86167 -10.04374,3.89456 -2.61584,1.82578 -3.28774,14.20942 -2.23194,17.52554 0.68683,2.15723 2.04065,3.3549 3.7199,4.67348 z"
         inkscape:path-effect="#path-effect7646"
         id="path7769"
         d="m 564.53363,51.703219 c 2.01199,2.454547 3.07502,5.579652 3.46474,8.729419 0.41913,3.387518 0.17866,6.822486 -0.19928,10.214847 -0.3825,3.433252 -0.94288,6.845812 -1.27402,10.284397 0,8e-6 0,1.5e-5 0,2.3e-5 -0.28697,2.979835 -0.45479,6.026275 0.2405,8.938033 0,3e-6 0,7e-6 0,1.1e-5 0.32263,1.351106 0.81267,2.656295 1.28572,3.962358 0.70566,1.948297 1.46278,3.877925 2.2658,5.788158 0,4e-6 0,7e-6 0,1.1e-5 0.78129,1.858544 1.5979,3.704474 2.53599,5.489014 0,0 10e-6,2e-5 10e-6,2e-5 0.35353,0.67253 0.72275,1.33825 1.14746,1.96825 0,0 0,1e-5 0,1e-5 0.27149,0.40272 0.55054,0.81865 0.94881,1.09663 2.6959,1.88165 6.19573,2.03239 9.29976,3.11565 0.62655,0.21866 1.1559,0.64398 1.68993,1.03791 0.51111,0.37702 1.03634,0.7792 1.65798,0.90937 0,0 10e-6,0 10e-6,0 0.6818,0.14276 1.38564,0.095 2.08196,0.11389 0.71714,0.0195 1.42165,0.25442 2.00993,0.66502 0,0 2e-5,1e-5 2e-5,1e-5 0.11046,0.0771 0.18951,0.19098 0.27397,0.29592 0,0 10e-6,1e-5 10e-6,1e-5 0.16373,0.20344 0.31804,0.41429 0.47085,0.62605 0.48983,0.6788 0.95867,1.37249 1.42521,2.06751 1.37001,2.04097 2.70473,4.10541 4.03513,6.17242 2.28864,3.5558 4.54319,7.13345 6.81448,10.70036 10e-6,0 10e-6,1e-5 2e-5,1e-5 1.16346,1.82715 3.1487,2.9814 5.17587,3.74474 0,0 10e-6,0 10e-6,0 2.4645,0.92802 5.10046,1.34096 7.73048,1.47504 2.69806,0.13755 5.41589,-0.0265 8.06611,-0.55067 2.17528,-0.43022 4.36449,-1.06326 6.1828,-2.33238 2.21454,-1.54568 3.55923,-4.19991 5.95185,-5.45239 0.96282,-0.50402 2.1099,-0.50904 3.18072,-0.32352 0,0 0,0 1e-5,0 1.14999,0.19923 2.27969,0.53724 3.44447,0.61126 1.37661,0.0875 2.77142,-0.26783 3.94477,-0.99307 1.9865,-1.22785 3.42727,-3.16663 4.68162,-5.13651 0,0 10e-6,-1e-5 10e-6,-1e-5 1.03267,-1.62173 1.30728,-3.61562 1.35385,-5.53766 0.0469,-1.93407 -0.16053,-3.87484 -0.60987,-5.75657 0,-1e-5 0,-2e-5 0,-2e-5 -0.30327,-1.27011 0.30329,-2.62444 0,-3.89455 -0.22219,-0.93051 -0.84287,-1.71285 -1.45232,-2.45028 -0.82966,-1.00387 -1.76383,-1.91722 -2.73134,-2.78901 -0.97931,-0.88244 -1.99942,-1.71978 -3.05744,-2.50611 -0.77943,-0.57928 -1.57028,-1.15116 -2.43064,-1.60154 0,-10e-6 -10e-6,-10e-6 -10e-6,-10e-6 -1.04732,-0.548247 -2.31818,-0.2972 -3.48469,-0.10564 -1.19117,0.19561 -2.4434,0.50338 -3.58312,0.10564 0,0 -1e-5,0 -1e-5,0 -1.51555,-0.528911 -2.97105,-1.216794 -4.40798,-1.932255 -1.42384,-0.70894 -2.8435,-1.441414 -4.14779,-2.351766 -0.26803,-0.187076 -0.41849,-0.517512 -0.40375,-0.844039 0.017,-0.376863 0.17676,-0.733744 0.36719,-1.059402 0,0 10e-6,-10e-6 10e-6,-10e-6 0.37561,-0.642349 0.86525,-1.256543 1.52449,-1.601648 0,0 2e-5,-1.1e-5 2e-5,-1.1e-5 1.39601,-0.730779 3.02017,-0.96841 4.5862,-0.793981 10e-6,3e-6 10e-6,2e-6 2e-5,10e-7 1.56794,0.174644 3.0774,0.683386 4.56531,1.207893 0,2e-6 10e-6,4e-6 2e-5,6e-6 1.48703,0.524202 2.96896,1.088262 4.51647,1.390387 1.47452,0.287876 3.03562,0.287854 4.43975,-0.246476 1.55874,-0.593165 3.24085,-0.773866 4.88094,-1.076553 2.17453,-0.401322 4.35193,-0.831735 6.44631,-1.541133 1.90842,-0.646414 3.8323,-1.516343 5.13224,-3.055851 0.58578,-0.693725 1.00419,-1.532087 1.17353,-2.424111 0,-8e-6 0,-1.6e-5 0,-2.3e-5 0.20114,-1.059509 0.0675,-2.161363 -0.23477,-3.196569 0,-7e-6 -10e-6,-1.4e-5 -10e-6,-2.2e-5 -0.29932,-1.025129 -0.78429,-1.985134 -1.19883,-2.969333 -0.38962,-0.925052 -0.84801,-1.868729 -0.84801,-2.872485 0,-0.112142 0.0867,-0.205736 0.18239,-0.264285 0,0 2e-5,-1.2e-5 2e-5,-1.2e-5 0.14699,-0.08997 0.31716,-0.13437 0.48555,-0.171031 0,0 10e-6,-3e-6 10e-6,-3e-6 0.4953,-0.107833 1.00486,-0.131471 1.51129,-0.153472 0,0 2e-5,-10e-7 2e-5,-10e-7 0.53834,-0.02339 1.07734,-0.0293 1.61563,-0.0538 0.33131,-0.01508 0.69306,0.02809 0.98109,-0.136317 1.03701,-0.59194 1.87733,-1.475694 2.66587,-2.372349 0.82468,-0.937761 1.60912,-1.936142 2.11012,-3.080041 0.40013,-0.913591 0.36305,-1.965967 0.13248,-2.936321 -0.2677,-1.126587 -0.76452,-2.186144 -1.31491,-3.204935 0,-7e-6 0,-1.4e-5 -10e-6,-2e-5 -0.56455,-1.045009 -1.20146,-2.048891 -1.83239,-3.055209 -0.50754,-0.809496 -1.03672,-1.612021 -1.42003,-2.487205 0,-7e-6 -10e-6,-1.4e-5 -10e-6,-2.1e-5 -0.84865,-1.937678 -1.62602,-3.9103 -2.60132,-5.787421 0,0 -1e-5,-2e-5 -1e-5,-2e-5 -0.26694,-0.51376 -0.55023,-1.024628 -0.9244,-1.466443 -0.25129,-0.296712 -0.55759,-0.560167 -0.9254,-0.686249 -0.85229,-0.292153 -1.77421,0.115921 -2.60924,0.454268 -1.6333,0.661801 -3.23254,1.406723 -4.8796,2.033496 -10e-6,10e-7 -2e-5,3e-6 -2e-5,4e-6 -1.13739,0.432822 -2.37791,0.505506 -3.59086,0.604151 -1e-5,-1e-6 -2e-5,0 -3e-5,2e-6 -1.74191,0.141663 -3.49019,0.189678 -5.23768,0.214144 -1e-5,0 -2e-5,0 -3e-5,0 -3.08376,0.04317 -6.16786,-0.03939 -9.25192,-0.03939 -0.89543,0 -1.71499,-0.559674 -2.19649,-1.314625 -0.54438,-0.853549 -0.84495,-1.835609 -1.22181,-2.775225 -0.36772,-0.916812 -0.79092,-1.861242 -1.55862,-2.482853 -0.87225,-0.706271 -2.12111,-0.721694 -3.20687,-0.437507 -1e-5,3e-6 -1e-5,5e-6 -2e-5,8e-6 -1.47721,0.386643 -2.89302,0.975769 -4.3106,1.543318 -1.91555,0.766923 -3.8162,1.570452 -5.72255,2.359984 -10e-6,3e-6 -10e-6,6e-6 -2e-5,9e-6 -1.80533,0.747695 -3.61186,1.494654 -5.44883,2.160873 -0.69118,0.250676 -1.38657,0.491656 -2.09501,0.688352 -0.45664,0.126782 -0.92057,0.257666 -1.39448,0.257666 -0.0821,0 -0.10962,-0.109806 -0.11654,-0.19162 -0.0143,-0.169347 0.0127,-0.33945 0.0406,-0.507089 0.0878,-0.52664 0.23405,-1.041746 0.38466,-1.55397 0.15755,-0.535787 0.32882,-1.067493 0.50929,-1.595998 0,0 10e-6,-2.2e-5 10e-6,-2.2e-5 0.0639,-0.187083 0.12888,-0.373794 0.19638,-0.559602 0.0323,-0.08896 0.0608,-0.179762 0.10156,-0.265169 0.89491,-1.873841 0.92157,-4.041826 0.93992,-6.118314 0,-7e-6 0,-1.5e-5 0,-2.3e-5 0.0188,-2.127449 -0.0738,-4.27492 -0.56792,-6.344273 -0.95354,-3.993239 -1.1862,-8.140928 -2.2832,-12.097164 -0.51822,-1.868937 -1.25213,-3.696187 -2.36346,-5.285657 -10e-6,-5e-6 -10e-6,-1.2e-5 -10e-6,-1.9e-5 -1.18832,-1.699572 -2.8158,-3.075482 -4.65309,-4.03726 -10e-6,-1e-6 -2e-5,-2e-6 -2e-5,-3e-6 -0.72913,-0.381678 -1.59513,-0.364211 -2.41513,-0.2942 -10e-6,0 -2e-5,0 -2e-5,0 -0.81117,0.06926 -1.65205,0.172995 -2.42071,-0.09526 -1.65219,-0.576585 -3.0774,-1.643804 -4.55152,-2.586756 -1.43699,-0.919197 -3.04241,-1.697264 -4.74824,-1.697264 -2.86428,0 -5.673,0.902193 -8.26434,2.122446 -2.67556,1.259907 -5.34079,2.998038 -6.61527,5.666684 -0.50458,1.056554 -0.23975,2.291154 -0.12663,3.456536 0,4e-6 0,8e-6 0,1.1e-5 0.0535,0.551677 0.0558,1.120784 -0.12429,1.644971 -0.21592,0.628369 -0.69221,1.138961 -1.23705,1.519242 -1.51133,1.054863 -3.32822,1.559558 -5.11483,2.012166 -1.71493,0.434447 -3.47822,0.869861 -4.92891,1.882394 0,0 -2e-5,1.3e-5 -2e-5,1.3e-5 -0.39936,0.278748 -0.66793,0.707891 -0.89022,1.141223 -0.30926,0.60288 -0.52665,1.248905 -0.71053,1.901051 0,8e-6 0,1.5e-5 0,2.3e-5 -0.47443,1.682593 -0.72313,3.421566 -0.89206,5.161582 -0.1755,1.807556 -0.25255,3.625648 -0.20364,5.441045 0.0352,1.305735 0.0683,2.635956 0.46453,3.880603 0.61468,1.930624 2.12635,3.42219 3.7199,4.67348 z"
         style="fill:#ffffff;fill-rule:evenodd;stroke:none;stroke-width:1px;stroke-linecap:butt;stroke-linejoin:miter;stroke-opacity:1" />
      <path
         sodipodi:nodetypes="cssssssssssc"
         inkscape:connector-curvature="0"
         inkscape:original-d="m 522.11707,42.813499 c 6.36159,-1.8264 20.48295,0.96383 25.79837,5.61427 2.8614,2.50343 6.46375,3.50507 8.72894,6.91931 3.68476,5.55392 1.15133,20.67175 5.57012,29.5588 2.06041,4.14389 7.29986,9.06011 11.72673,10.54671 1.06881,0.35892 9.38247,1.67229 7.06231,3.73892 -3.91243,3.484931 -43.46322,6.952971 -46.89542,5.800401 -2.97152,-0.99787 -15.82176,-15.154201 -17.93271,-17.001061 -3.51017,-3.07104 -3.48737,-8.89048 -6.56492,-12.34555 -3.5867,-4.0267 -10.05584,-9.14393 -8.70914,-15.80026 1.38424,-6.84186 13.46455,-8.49462 16.6943,-11.37145 1.69533,-1.51009 3.14804,-3.90241 4.52142,-5.66009 z"
         inkscape:path-effect="#path-effect7650"
         id="path7771"
         d="m 522.11707,42.813499 c 1.92723,-0.553304 3.96336,-0.614652 5.96731,-0.547251 2.46243,0.08282 4.91322,0.417977 7.32419,0.925571 4.46377,0.93978 9.07372,2.2323 12.50687,5.23595 0,2e-6 10e-6,4e-6 10e-6,6e-6 1.39331,1.219 3.03041,2.117562 4.58804,3.118095 1.5887,1.020495 3.097,2.227786 4.14089,3.801209 1.11212,1.676257 1.50577,3.722397 1.80345,5.711875 0,3e-6 0,4e-6 0,6e-6 0.38729,2.588383 0.52887,5.206423 0.70635,7.817595 0.19186,2.822709 0.39615,5.649003 0.84398,8.442557 0.4186,2.611214 1.03894,5.218777 2.21634,7.586767 1.1942,2.40177 2.9935,4.463042 4.97594,6.269839 1.98201,1.806394 4.20862,3.423178 6.75079,4.276871 0.61064,0.20506 1.25297,0.300356 1.88066,0.445006 0.98283,0.226488 1.96317,0.469217 2.92135,0.784061 10e-6,10e-7 10e-6,10e-7 10e-6,2e-6 0.80872,0.265731 1.65085,0.537412 2.28592,1.104258 0.19623,0.175146 0.37263,0.403416 0.38089,0.666309 0.009,0.290311 -0.18962,0.546085 -0.40651,0.739276 0,0 -10e-6,8e-6 -10e-6,8e-6 -0.32682,0.291111 -0.7314,0.479736 -1.1337,0.652103 -0.60465,0.259068 -1.2323,0.460968 -1.86386,0.644958 -1.80445,0.52569 -3.64961,0.89983 -5.49775,1.24154 -5.00877,0.92607 -10.06785,1.55765 -15.13249,2.10066 -5.00284,0.53639 -10.01749,0.97408 -15.04244,1.23114 0,0 0,0 -10e-6,0 -1.79368,0.0918 -3.58919,0.1656 -5.38519,0.15461 0,0 0,0 -10e-6,0 -0.59735,-0.004 -1.1951,-0.0155 -1.79069,-0.0615 -0.35363,-0.0273 -0.71305,-0.0502 -1.04928,-0.16308 -0.57158,-0.19194 -1.05703,-0.57648 -1.53712,-0.94126 -0.77203,-0.58661 -1.50228,-1.22626 -2.22162,-1.87642 -1.90556,-1.72229 -3.7251,-3.537294 -5.53032,-5.364475 -1e-5,-2e-6 -1e-5,-3e-6 -1e-5,-4e-6 -1.80462,-1.826576 -3.58499,-3.676919 -5.36897,-5.523668 0,-2e-6 0,-5e-6 0,-8e-6 -0.67072,-0.694315 -1.34132,-1.388785 -2.01993,-2.075385 0,-10e-7 0,-3e-6 0,-4e-6 -0.41011,-0.414944 -0.81565,-0.835682 -1.25474,-1.219837 -1.76173,-1.541331 -2.65152,-3.826432 -3.44469,-6.028764 -0.80097,-2.223991 -1.54797,-4.551656 -3.12023,-6.316786 -2.06118,-2.314031 -4.38461,-4.405864 -6.20459,-6.914019 -10e-6,-3e-6 -10e-6,-6e-6 -10e-6,-1e-5 -0.92936,-1.280765 -1.73401,-2.668405 -2.21626,-4.175556 -0.4848,-1.515136 -0.60374,-3.151458 -0.28828,-4.710675 0.34125,-1.686702 1.42285,-3.149098 2.73827,-4.258641 1e-5,0 1e-5,-2e-6 1e-5,-4e-6 1.46081,-1.232174 3.17577,-2.125924 4.9168,-2.913966 1.72892,-0.782555 3.50961,-1.444085 5.26284,-2.170524 1.32542,-0.549175 2.70506,-1.074064 3.77638,-2.028315 1.80633,-1.608964 3.03204,-3.753953 4.52142,-5.66009 z"
         style="fill:#ffffff;fill-rule:evenodd;stroke:none;stroke-width:1px;stroke-linecap:butt;stroke-linejoin:miter;stroke-opacity:1" />
      <path
         inkscape:connector-curvature="0"
         inkscape:original-d="m 470.45899,142.85898 c 2.48164,-6.29399 11.59074,-6.1205 17.0969,-4.81729 3.48225,0.82417 5.73969,4.99394 8.95552,6.26249 5.70704,2.25126 12.05903,3.08596 17.91104,4.81731 19.67082,5.81967 47.34638,-4.43526 63.09571,-16.86057 4.23661,-3.34243 22.29811,-18.52041 19.13225,-26.01343 -0.58589,-1.38669 -1.88547,-4.27645 -3.25655,-4.81731 -2.77196,-1.09345 -23.38506,-6.351231 -26.05242,-5.299031 -3.65354,1.44121 -6.56828,4.335571 -10.5838,4.335571 -6.23441,0 -22.16036,-2.957971 -25.64535,-1.926911 -6.16582,1.824161 -11.0633,8.232261 -16.68984,11.561521 -4.90478,2.90218 -10.19097,5.30746 -15.06155,8.18942 -9.25466,5.47603 -29.3322,1.94065 -39.07864,7.70768 -10.94391,6.47557 -9.6376,26.2825 4.47776,20.71441 2.63925,-1.04111 4.79085,0.44487 5.69897,-3.85386 z"
         inkscape:path-effect="#path-effect7654"
         id="path7773"
         d="m 470.45899,142.85898 c 0.57709,-1.46363 1.62988,-2.72622 2.94403,-3.59124 1.33745,-0.88036 2.8936,-1.38697 4.47022,-1.66636 3.20193,-0.56739 6.51826,-0.30864 9.68265,0.44031 1.78963,0.42356 3.23122,1.7119 4.57767,2.9646 0,1e-5 1e-5,1e-5 1e-5,1e-5 1.34577,1.25208 2.66792,2.62337 4.37784,3.29788 5.75578,2.27048 11.97785,3.06194 17.91104,4.81731 5.14616,1.52251 10.5856,1.89015 15.94258,1.56802 5.79056,-0.3482 11.51751,-1.49604 17.07583,-3.15644 10.83403,-3.23637 21.20027,-8.26868 30.0773,-15.27215 4.4103,-3.47946 8.57728,-7.28083 12.34205,-11.45024 0,0 0,0 0,0 2.16926,-2.40241 4.23949,-4.93536 5.73216,-7.8075 0.59502,-1.14493 1.09635,-2.35269 1.31867,-3.6237 0.18303,-1.04643 0.15282,-2.15343 -0.26063,-3.13199 -0.39399,-0.93249 -0.81868,-1.85442 -1.33383,-2.72584 -0.4895,-0.82804 -1.02791,-1.73848 -1.9227,-2.09146 -10e-6,0 -2e-5,-1e-5 -2e-5,-1e-5 -0.58874,-0.23224 -1.19892,-0.40552 -1.80589,-0.58479 -1.01524,-0.29985 -2.03626,-0.57975 -3.05912,-0.852448 -2.72009,-0.725187 -5.45471,-1.395753 -8.20042,-2.016896 -2.71154,-0.613412 -5.43315,-1.191446 -8.18081,-1.614587 -1.00674,-0.155037 -2.01753,-0.293788 -3.03461,-0.349562 -0.59443,-0.0326 -1.21778,-0.0992 -1.77157,0.119252 -1.80743,0.712977 -3.44339,1.790866 -5.15616,2.708239 0,2e-6 -1e-5,3e-6 -1e-5,5e-6 -1.683,0.901432 -3.51842,1.627327 -5.42763,1.627327 -2.05529,0 -4.10369,-0.2259 -6.14715,-0.44607 -10e-6,0 -10e-6,0 -2e-5,0 -2.57159,-0.277082 -5.13774,-0.602183 -7.70654,-0.904033 -2.3925,-0.281133 -4.78693,-0.557812 -7.19104,-0.710707 -0.91673,-0.0583 -1.83544,-0.100249 -2.75379,-0.07933 -0.62113,0.01415 -1.25104,0.03697 -1.84681,0.21323 -3.22302,0.953533 -5.9639,3.066011 -8.54715,5.216351 -2.64784,2.2041 -5.1777,4.59077 -8.14269,6.34517 -4.91884,2.9105 -10.14272,5.27891 -15.06155,8.18942 -2.61201,1.54554 -5.64216,2.22844 -8.63975,2.70354 -3.54544,0.56193 -7.13435,0.78862 -10.71515,1.04118 -10e-6,0 -10e-6,0 -2e-5,0 -3.61331,0.25484 -7.23414,0.5014 -10.80734,1.09574 -3.09686,0.5151 -6.21453,1.26852 -8.91638,2.86722 -2.61393,1.54668 -4.66475,3.97783 -5.90228,6.75152 -10e-6,10e-6 -10e-6,10e-6 -10e-6,2e-5 -1.13056,2.53392 -1.64815,5.37519 -1.25606,8.12204 0.33108,2.31941 1.43957,4.64842 3.44256,5.86387 0,0 1e-5,0 1e-5,0 2.42062,1.46887 5.55963,1.01596 8.19353,-0.023 0,0 10e-6,0 10e-6,0 1.10968,-0.43774 2.35658,-0.36085 3.49866,-0.70532 0.50913,-0.15356 0.97348,-0.45788 1.29788,-0.87925 0.50057,-0.65023 0.73282,-1.46642 0.90243,-2.26929 z"
         style="fill:#ffffff;fill-rule:evenodd;stroke:none;stroke-width:1px;stroke-linecap:butt;stroke-linejoin:miter;stroke-opacity:1" />
    </g>
  </g>
</svg>
