<?xml version="1.0" encoding="UTF-8" standalone="no"?>
<!-- Created with Inkscape (http://www.inkscape.org/) -->

<svg
   xmlns:dc="http://purl.org/dc/elements/1.1/"
   xmlns:cc="http://creativecommons.org/ns#"
   xmlns:rdf="http://www.w3.org/1999/02/22-rdf-syntax-ns#"
   xmlns:svg="http://www.w3.org/2000/svg"
   xmlns="http://www.w3.org/2000/svg"
   xmlns:xlink="http://www.w3.org/1999/xlink"
   xmlns:sodipodi="http://sodipodi.sourceforge.net/DTD/sodipodi-0.dtd"
   xmlns:inkscape="http://www.inkscape.org/namespaces/inkscape"
   width="136.53334"
   height="136.53334"
   id="svg6934"
   sodipodi:version="0.32"
   inkscape:version="0.91 r13725"
   version="1.0"
   sodipodi:docname="start-here-symbolic.svg"
   inkscape:output_extension="org.inkscape.output.svg.inkscape">
  <defs
     id="defs6936">
    <linearGradient
       inkscape:collect="always"
       xlink:href="#jaca"
       id="linearGradient874"
       x1="9.495225"
       y1="-3.1310093"
       x2="75.466797"
       y2="104.28125"
       gradientUnits="userSpaceOnUse" />
    <linearGradient
       id="jaca">
      <stop
         id="stop8362"
         offset="0"
         style="stop-color:#b995da;stop-opacity:1" />
      <stop
         id="stop8364"
         offset="1"
         style="stop-color:#766287;stop-opacity:1" />
    </linearGradient>
    <inkscape:path-effect
       fuse_tolerance="0"
       vertical_pattern="false"
       prop_units="false"
       tang_offset="0"
       normal_offset="0"
       spacing="0"
       scale_y_rel="false"
       prop_scale="1"
       copytype="single_stretched"
       pattern="m 63.889845,205.89056 1,0"
       is_visible="true"
       id="path-effect7646"
       effect="skeletal" />
    <inkscape:path-effect
       fuse_tolerance="0"
       vertical_pattern="false"
       prop_units="false"
       tang_offset="0"
       normal_offset="0"
       spacing="0"
       scale_y_rel="false"
       prop_scale="1"
       copytype="single_stretched"
       pattern="m 71.289516,206.28002 1,0"
       is_visible="true"
       id="path-effect7650"
       effect="skeletal" />
    <inkscape:path-effect
       fuse_tolerance="0"
       vertical_pattern="false"
       prop_units="false"
       tang_offset="0"
       normal_offset="0"
       spacing="0"
       scale_y_rel="false"
       prop_scale="1"
       copytype="single_stretched"
       pattern="m 63.889845,205.89056 1,0"
       is_visible="true"
       id="path-effect7654"
       effect="skeletal" />
  </defs>
  <sodipodi:namedview
     id="base"
     pagecolor="#ffffff"
     bordercolor="#666666"
     borderopacity="1.0"
     inkscape:pageopacity="0.0"
     inkscape:pageshadow="2"
     inkscape:zoom="3.3299619"
     inkscape:cx="81.811253"
     inkscape:cy="56.065239"
     inkscape:document-units="px"
     inkscape:current-layer="layer1"
     showgrid="false"
     inkscape:window-width="1600"
     inkscape:window-height="852"
     inkscape:window-x="0"
     inkscape:window-y="0"
     inkscape:window-maximized="1"
     inkscape:snap-global="false"
     showguides="false" />
  <metadata
     id="metadata6939">
    <rdf:RDF>
      <cc:Work
         rdf:about="">
        <dc:format>image/svg+xml</dc:format>
        <dc:type
           rdf:resource="http://purl.org/dc/dcmitype/StillImage" />
        <dc:title />
      </cc:Work>
    </rdf:RDF>
  </metadata>
  <g
     inkscape:label="Capa 1"
     inkscape:groupmode="layer"
     id="layer1">
    <path
       style="fill:url(#linearGradient874);fill-opacity:1;fill-rule:evenodd;stroke:none;stroke-width:1.06666672"
       d="M 40.699219 5.6191406 C 40.088527 5.6255499 39.539057 5.7928535 39.007812 6.0273438 C 37.335996 6.9022574 35.946203 8.2533693 34.833984 9.9316406 C 33.138518 12.489996 32.181612 15.774889 32.148438 17.265625 L 32.519531 120.53125 C 33.019162 125.90816 34.479176 128.75318 36.732422 131 C 36.995926 130.9744 37.2623 130.94379 37.533203 130.90039 L 121.0332 118.30078 C 123.70278 118.01157 125.96908 116.7361 127.64648 114.71875 C 128.12574 114.14236 128.55681 113.50653 128.93555 112.81445 C 130.26114 110.39219 130.9457 107.29608 130.80078 103.76758 L 131.23242 24.533203 C 131.46974 18.170173 128.24578 12.826277 121.26758 11.767578 L 41.332031 5.6699219 C 41.113242 5.6329417 40.902783 5.6170042 40.699219 5.6191406 z M 32.652344 6.0429688 L 12.5 8.9667969 L 11.996094 8.9667969 L 11.996094 9.1660156 C 6.2324133 10.285024 3.265625 15.131185 3.265625 21.066406 L 3.265625 72.966797 L 3.265625 104.98438 L 3.265625 111.40039 C 3.194793 117.42947 5.334487 122.16756 9.6328125 123.66602 L 27.4375 130.09961 L 31.572266 130.86523 C 29.970653 128.33071 28.81841 125.13168 28.427734 120.85156 L 28.419922 120.76367 L 28.056641 17.697266 C 28.098311 15.802149 29.23588 10.95571 31.416016 7.6660156 C 31.790508 7.1009284 32.211266 6.5638331 32.652344 6.0429688 z M 107.51953 18.505859 C 110.89516 20.961925 118.86879 21.608458 116.11523 27.628906 C 111.82366 29.652229 117.87275 30.491844 118.10742 32.972656 C 117.58345 37.076363 113.74068 40.756378 110.19336 42.595703 C 106.76033 41.91323 102.19184 48.542481 107.98242 47.074219 C 111.99256 45.516176 117.82951 41.951511 121.0293 47.130859 C 125.11507 49.677471 125.23963 57.039675 119.94922 58.166016 C 118.86503 62.670201 116.72302 67.302023 111.83398 69.009766 C 106.73536 71.65786 101.95299 66.880961 97.095703 65.751953 C 96.496254 78.833349 89.949695 91.752291 79.300781 99.478516 C 75.215129 102.05795 70.497938 103.42343 66.003906 105.11133 C 62.067501 105.00822 57.510149 104.95486 55.097656 108.83984 C 54.135049 112.18603 54.63016 116.37566 50.292969 117.74023 C 46.0419 118.18302 43.865768 112.8046 44.925781 109.27539 C 47.298328 102.97694 54.390732 100.46774 58.216797 95.244141 C 60.424918 90.855085 63.168869 86.590331 64.212891 81.720703 C 65.97926 78.400753 65.121827 77.219421 61.386719 77.244141 C 56.325848 77.364698 52.911193 73.242969 48.066406 72.742188 C 43.776259 72.581296 40.658382 67.757995 43.841797 64.212891 C 47.502735 60.605191 45.15404 54.108824 51.330078 52.892578 C 55.639237 50.869916 61.285001 50.024823 65.613281 52.15625 C 69.840814 56.00884 72.708762 62.575957 79.130859 63.125 C 75.453461 60.218683 74.367768 55.342216 71.650391 51.683594 C 69.675777 47.045094 63.498936 48.59366 61.529297 44.189453 C 57.955687 40.733473 60.268361 37.163598 62.541016 33.990234 C 59.764169 30.881214 61.737895 26.515072 64.560547 24.111328 C 68.027272 23.289765 71.515302 21.313042 75.087891 21.923828 C 79.367913 24.154182 82.963091 28.020686 85.400391 32.162109 C 86.106948 38.675981 89.354275 30.608539 90.929688 28.662109 C 92.300069 23.642467 96.080401 28.739943 98.585938 26.621094 C 102.28216 24.700508 104.88113 21.263352 107.51953 18.505859 z "
       id="path30949" />
  </g>
</svg>
