<?xml version="1.0" encoding="UTF-8" standalone="no"?>
<!-- Created with Inkscape (http://www.inkscape.org/) -->
<svg
   xmlns:dc="http://purl.org/dc/elements/1.1/"
   xmlns:cc="http://creativecommons.org/ns#"
   xmlns:rdf="http://www.w3.org/1999/02/22-rdf-syntax-ns#"
   xmlns:svg="http://www.w3.org/2000/svg"
   xmlns="http://www.w3.org/2000/svg"
   xmlns:xlink="http://www.w3.org/1999/xlink"
   xmlns:sodipodi="http://sodipodi.sourceforge.net/DTD/sodipodi-0.dtd"
   xmlns:inkscape="http://www.inkscape.org/namespaces/inkscape"
   width="48px"
   height="48px"
   id="svg17121"
   sodipodi:version="0.32"
   inkscape:version="0.46"
   sodipodi:docname="emblem-people.svg"
   inkscape:output_extension="org.inkscape.output.svg.inkscape">
  <defs
     id="defs17123">
    <linearGradient
       inkscape:collect="always"
       xlink:href="#linearGradient2818"
       id="linearGradient16247"
       gradientUnits="userSpaceOnUse"
       gradientTransform="matrix(0.9803922,0,0,0.9803922,0.470588,0.4706089)"
       x1="22.5"
       y1="-0.00033215381"
       x2="22.5"
       y2="48.001324" />
    <linearGradient
       inkscape:collect="always"
       xlink:href="#linearGradient2818"
       id="linearGradient15984"
       gradientUnits="userSpaceOnUse"
       gradientTransform="matrix(0.9803922,0,0,0.9803922,0.4706438,0.4705713)"
       x1="22.5"
       y1="-0.00033215381"
       x2="22.5"
       y2="48.001324" />
    <linearGradient
       inkscape:collect="always"
       xlink:href="#linearGradient2818"
       id="linearGradient16395"
       gradientUnits="userSpaceOnUse"
       gradientTransform="matrix(0.9803922,0,0,0.9803922,0.4705638,0.4706088)"
       x1="22.5"
       y1="-0.00033215381"
       x2="22.5"
       y2="48.001324" />
    <clipPath
       clipPathUnits="userSpaceOnUse"
       id="clipPath4871">
      <rect
         ry="2.8540657"
         rx="2.8540657"
         y="719.51721"
         x="318.22049"
         height="47.171574"
         width="47.171574"
         id="rect4873"
         style="fill:url(#linearGradient4875);fill-opacity:1;stroke:none" />
    </clipPath>
    <linearGradient
       id="linearGradient2818">
      <stop
         style="stop-color:#aac736;stop-opacity:1;"
         offset="0"
         id="stop2820" />
      <stop
         style="stop-color:#5d8b2c;stop-opacity:1;"
         offset="1"
         id="stop2822" />
    </linearGradient>
    <inkscape:perspective
       sodipodi:type="inkscape:persp3d"
       inkscape:vp_x="0 : 24 : 1"
       inkscape:vp_y="0 : 1000 : 0"
       inkscape:vp_z="48 : 24 : 1"
       inkscape:persp3d-origin="24 : 16 : 1"
       id="perspective17129" />
  </defs>
  <sodipodi:namedview
     id="base"
     pagecolor="#ffffff"
     bordercolor="#666666"
     borderopacity="1.0"
     inkscape:pageopacity="0.0"
     inkscape:pageshadow="2"
     inkscape:zoom="4"
     inkscape:cx="27.215972"
     inkscape:cy="24.91415"
     inkscape:current-layer="layer1"
     showgrid="true"
     inkscape:grid-bbox="true"
     inkscape:document-units="px"
     inkscape:window-width="1024"
     inkscape:window-height="731"
     inkscape:window-x="0"
     inkscape:window-y="6" />
  <metadata
     id="metadata17126">
    <rdf:RDF>
      <cc:Work
         rdf:about="">
        <dc:format>image/svg+xml</dc:format>
        <dc:type
           rdf:resource="http://purl.org/dc/dcmitype/StillImage" />
      </cc:Work>
    </rdf:RDF>
  </metadata>
  <g
     id="layer1"
     inkscape:label="Layer 1"
     inkscape:groupmode="layer">
    <rect
       style="fill:url(#linearGradient16247);fill-opacity:1;stroke:none"
       id="rect16243"
       width="47.058823"
       height="47.058823"
       x="0.47058824"
       y="0.47058824"
       rx="2.8472438"
       ry="2.8472438" />
    <rect
       style="fill:none;stroke:#344b63;stroke-width:0.94117647;stroke-miterlimit:4;stroke-dasharray:none;stroke-opacity:1"
       id="rect16245"
       width="47.058823"
       height="47.058823"
       x="0.47058824"
       y="0.47058824"
       rx="2.8472438"
       ry="2.8472438" />
    <path
       id="path4649"
       d="M 25.169591,4.8348254 C 22.331388,4.8348254 20.033082,7.1542607 20.033082,9.9924631 C 20.033082,11.544783 20.719944,12.917687 21.808678,13.860689 C 20.812518,14.573912 19.937732,15.56852 19.3144,16.693169 L 19.3144,23.605254 C 19.308536,25.956115 31.010372,26.080642 31.024781,23.605254 L 31.024781,16.693169 C 30.409656,15.576463 29.549704,14.578703 28.551652,13.860689 C 29.633252,12.917865 30.306089,11.53892 30.306089,9.9924631 C 30.306089,7.1542607 28.007802,4.834816 25.169591,4.8348254 z"
       style="opacity:1;fill:#ffffff;fill-opacity:1;stroke:none;stroke-width:1;stroke-linecap:round;stroke-linejoin:round;stroke-miterlimit:4;stroke-dasharray:none;stroke-dashoffset:0;stroke-opacity:1" />
    <path
       style="opacity:1;fill:#ffffff;fill-opacity:1;stroke:none;stroke-width:1;stroke-linecap:round;stroke-linejoin:round;stroke-miterlimit:4;stroke-dasharray:none;stroke-dashoffset:0;stroke-opacity:1"
       d="M 10.571266,12.175475 C 6.5069738,12.175475 3.2158115,15.496905 3.2158209,19.561178 C 3.2158209,21.784105 4.199388,23.750082 5.7584468,25.100472 C 4.3319621,26.12179 3.0792656,27.546063 2.1866632,29.156557 L 2.1866632,39.054628 C 2.1782585,42.421037 18.935228,42.599371 18.955868,39.054628 L 18.955868,29.156557 C 18.075021,27.557442 16.843558,26.128661 15.414353,25.100472 C 16.963209,23.750345 17.926711,21.77571 17.926711,19.561178 C 17.926711,15.496896 14.635576,12.175465 10.571266,12.175475 z"
       id="path4653" />
    <path
       style="opacity:1;fill:#ffffff;fill-opacity:1;stroke:none;stroke-width:1;stroke-linecap:round;stroke-linejoin:round;stroke-miterlimit:4;stroke-dasharray:none;stroke-dashoffset:0;stroke-opacity:1"
       d="M 38.665487,13.07012 C 35.226984,13.07012 32.442569,15.880134 32.442569,19.318637 C 32.442569,21.199287 33.274711,22.862562 34.593713,24.005018 C 33.386861,24.869103 32.327049,26.074063 31.571878,27.436595 L 31.571878,35.810628 C 31.564772,38.658712 45.741638,38.809574 45.759096,35.810628 L 45.759096,27.436595 C 45.013864,26.083691 43.972028,24.874901 42.76288,24.005018 C 44.073252,22.862788 44.888386,21.192181 44.888386,19.318637 C 44.888386,15.880134 42.104,13.07011 38.665487,13.07012 z"
       id="path4655" />
  </g>
</svg>
