<?xml version="1.0" encoding="UTF-8" standalone="no"?>
<!-- Created with Inkscape (http://www.inkscape.org/) -->

<svg
   xmlns:dc="http://purl.org/dc/elements/1.1/"
   xmlns:cc="http://creativecommons.org/ns#"
   xmlns:rdf="http://www.w3.org/1999/02/22-rdf-syntax-ns#"
   xmlns:svg="http://www.w3.org/2000/svg"
   xmlns="http://www.w3.org/2000/svg"
   xmlns:xlink="http://www.w3.org/1999/xlink"
   xmlns:sodipodi="http://sodipodi.sourceforge.net/DTD/sodipodi-0.dtd"
   xmlns:inkscape="http://www.inkscape.org/namespaces/inkscape"
   width="48"
   height="48"
   viewBox="0 0 48 48.000001"
   id="svg10223"
   version="1.1"
   inkscape:version="0.91 r13725"
   sodipodi:docname="emblem-noread.svg">
  <defs
     id="defs10225">
    <linearGradient
       id="linearGradient9863">
      <stop
         id="stop9865"
         offset="0"
         style="stop-color:#2f445a;stop-opacity:1;" />
      <stop
         id="stop9867"
         offset="1"
         style="stop-color:#415f7c;stop-opacity:1" />
    </linearGradient>
    <linearGradient
       id="linearGradient26351">
      <stop
         id="stop26353"
         offset="0"
         style="stop-color:#aac736;stop-opacity:1;" />
      <stop
         id="stop26355"
         offset="1"
         style="stop-color:#5d8b2c;stop-opacity:1;" />
    </linearGradient>
    <linearGradient
       id="linearGradient3737-0">
      <stop
         offset="0"
         style="stop-color:#ffffff;stop-opacity:1"
         id="stop3739-6" />
      <stop
         offset="1"
         style="stop-color:#ffffff;stop-opacity:0"
         id="stop3741-0" />
    </linearGradient>
    <linearGradient
       id="linearGradient5439">
      <stop
         id="stop5441"
         offset="0"
         style="stop-color:#ffffff;stop-opacity:1;" />
      <stop
         id="stop5443"
         offset="1"
         style="stop-color:#000000;stop-opacity:1;" />
    </linearGradient>
    <linearGradient
       id="linearGradient12578">
      <stop
         style="stop-color:#e9b551;stop-opacity:1;"
         offset="0"
         id="stop12580" />
      <stop
         style="stop-color:#b48739;stop-opacity:1;"
         offset="1"
         id="stop12582" />
    </linearGradient>
    <linearGradient
       id="linearGradient12336">
      <stop
         style="stop-color:#ff6e00;stop-opacity:1;"
         offset="0"
         id="stop12338" />
      <stop
         style="stop-color:#eb2600;stop-opacity:1;"
         offset="1"
         id="stop12340" />
    </linearGradient>
    <inkscape:path-effect
       effect="spiro"
       id="path-effect8644"
       is_visible="true" />
    <linearGradient
       id="linearGradient5316-0">
      <stop
         id="stop5320-2"
         offset="0"
         style="stop-color:#aac736;stop-opacity:1;" />
      <stop
         id="stop5322-4"
         offset="1"
         style="stop-color:#5d8b2f;stop-opacity:0.94117647;" />
    </linearGradient>
    <linearGradient
       id="linearGradient5316-2">
      <stop
         id="stop5320-9"
         offset="0"
         style="stop-color:#b995da;stop-opacity:1;" />
      <stop
         id="stop5322-1"
         offset="1"
         style="stop-color:#766287;stop-opacity:1;" />
    </linearGradient>
    <linearGradient
       id="linearGradient5316">
      <stop
         id="stop5320"
         offset="0"
         style="stop-color:#87c7ff;stop-opacity:1;" />
      <stop
         id="stop5322"
         offset="1"
         style="stop-color:#74aadb;stop-opacity:1;" />
    </linearGradient>
    <linearGradient
       inkscape:collect="always"
       xlink:href="#linearGradient9863"
       id="linearGradient6031"
       x1="158.29205"
       y1="176.64915"
       x2="141.88419"
       y2="155.0824"
       gradientUnits="userSpaceOnUse"
       gradientTransform="matrix(1.1035261,0,0,1.1033723,-146.11515,845.02282)" />
    <linearGradient
       inkscape:collect="always"
       xlink:href="#linearGradient12336"
       id="linearGradient5763"
       x1="51.443352"
       y1="-324.49976"
       x2="89.274307"
       y2="-278.28528"
       gradientUnits="userSpaceOnUse"
       gradientTransform="matrix(0.71203137,0,0,0.71335806,-25.470307,1240.2278)" />
  </defs>
  <sodipodi:namedview
     id="base"
     pagecolor="#ffffff"
     bordercolor="#666666"
     borderopacity="1.0"
     inkscape:pageopacity="0.0"
     inkscape:pageshadow="2"
     inkscape:zoom="11.2"
     inkscape:cx="30.361493"
     inkscape:cy="24.845683"
     inkscape:document-units="px"
     inkscape:current-layer="layer1"
     showgrid="false"
     units="px"
     borderlayer="true"
     inkscape:showpageshadow="false"
     inkscape:window-width="1600"
     inkscape:window-height="847"
     inkscape:window-x="0"
     inkscape:window-y="0"
     inkscape:window-maximized="1" />
  <metadata
     id="metadata10228">
    <rdf:RDF>
      <cc:Work
         rdf:about="">
        <dc:format>image/svg+xml</dc:format>
        <dc:type
           rdf:resource="http://purl.org/dc/dcmitype/StillImage" />
        <dc:title></dc:title>
      </cc:Work>
    </rdf:RDF>
  </metadata>
  <g
     inkscape:label="Capa 1"
     inkscape:groupmode="layer"
     id="layer1"
     transform="translate(0,-1004.3622)">
    <path
       inkscape:connector-curvature="0"
       inkscape:export-ydpi="57.964222"
       inkscape:export-xdpi="57.964222"
       inkscape:export-filename="/home/dafeba/DCV/tallerD/bocetos/08-09-22-hastaahora.png"
       style="display:inline;fill:#000000;fill-opacity:0.43921569;fill-rule:evenodd;stroke:none;stroke-width:3.16552567;stroke-linecap:round;stroke-linejoin:miter;stroke-miterlimit:4;stroke-dasharray:none;stroke-opacity:1"
       d="m 4.2097827,1014.1701 c -1.23684,1.5525 -1.09716,3.7916 0.323,5.1775 l 11.9508103,11.9731 -12.0047103,12.0271 c -1.5162,1.519 -1.5162,3.9821 0,5.5011 1.51621,1.5191 3.97469,1.5193 5.49089,0 l 12.0047203,-12.0271 11.95079,11.9731 c 0.94207,1.1037 2.4127,1.5799 3.82217,1.2407 1.40926,-0.3395 2.51432,-1.4466 2.85294,-2.8585 0.33862,-1.4121 -0.13648,-2.8855 -1.23813,-3.8293 l -11.95079,-11.9731 12.0047,-12.0271 c 1.51621,-1.519 1.51621,-3.982 0,-5.5011 -1.51619,-1.519 -3.97468,-1.519 -5.49089,0 l -12.0047,12.0271 -11.9508103,-11.9731 c -0.76943,-0.7904 -1.8599599,-1.1843 -2.96075,-1.1326 -1.10079,0.051 -2.10681,0.5435 -2.79924,1.4022 z"
       id="path15480" />
    <path
       inkscape:connector-curvature="0"
       id="path15482"
       d="m 7.3518227,1008.2421 c -1.23684,1.5525 -1.09714,3.7917 0.323,5.1775 l 11.9508203,11.9732 -12.0047203,12.027 c -1.51619,1.519 -1.51619,3.9821 0,5.501 1.5162,1.5192 3.9746803,1.5194 5.4909003,0 l 12.00469,-12.027 11.95082,11.9732 c 0.94207,1.1035 2.41271,1.5799 3.82216,1.2405 1.40925,-0.3394 2.51433,-1.4465 2.85296,-2.8584 0.33862,-1.4121 -0.13648,-2.8856 -1.23812,-3.8293 l -11.95081,-11.973 12.00472,-12.0272 c 1.51619,-1.519 1.51619,-3.9821 0,-5.501 -1.51622,-1.519 -3.9747,-1.519 -5.49091,0 l -12.00472,12.027 -11.95079,-11.973 c -0.76945,-0.7904 -1.85996,-1.1844 -2.96076,-1.1327 -1.1007803,0.051 -2.1067902,0.5435 -2.7992403,1.4022 z"
       style="display:inline;fill:url(#linearGradient5763);fill-opacity:1;fill-rule:evenodd;stroke:none;stroke-width:3.16552567;stroke-linecap:round;stroke-linejoin:miter;stroke-miterlimit:4;stroke-dasharray:none;stroke-opacity:1"
       inkscape:export-filename="/home/dafeba/DCV/tallerD/bocetos/08-09-22-hastaahora.png"
       inkscape:export-xdpi="57.964222"
       inkscape:export-ydpi="57.964222" />
    <path
       inkscape:connector-curvature="0"
       style="display:inline;fill:none;fill-opacity:1;fill-rule:evenodd;stroke:url(#linearGradient6031);stroke-width:1;stroke-linecap:round;stroke-linejoin:miter;stroke-miterlimit:4;stroke-dasharray:none;stroke-opacity:1"
       d="m 7.3518227,1008.2421 c -1.23684,1.5525 -1.09714,3.7917 0.323,5.1775 l 11.9508203,11.9732 -12.0047203,12.027 c -1.51619,1.519 -1.51619,3.9821 0,5.501 1.51621,1.5192 3.9746803,1.5194 5.4909003,0 l 12.00469,-12.027 11.95082,11.9732 c 0.94207,1.1035 2.41271,1.5799 3.82216,1.2405 1.40925,-0.3394 2.51433,-1.4465 2.85296,-2.8584 0.33862,-1.4121 -0.13648,-2.8856 -1.23812,-3.8293 l -11.95081,-11.973 12.00472,-12.0272 c 1.51618,-1.519 1.51618,-3.9821 0,-5.501 -1.51622,-1.519 -3.9747,-1.519 -5.49091,0 l -12.00472,12.027 -11.95079,-11.973 c -0.76945,-0.7904 -1.85996,-1.1844 -2.96076,-1.1326 -1.1007803,0.051 -2.1068002,0.5434 -2.7992403,1.4021 z"
       id="path15478"
       inkscape:export-filename="/home/dafeba/DCV/tallerD/bocetos/08-09-22-hastaahora.png"
       inkscape:export-xdpi="57.964222"
       inkscape:export-ydpi="57.964222" />
  </g>
</svg>
