<?xml version="1.0" encoding="UTF-8" standalone="no"?>
<!-- Created with Inkscape (http://www.inkscape.org/) -->

<svg
   xmlns:dc="http://purl.org/dc/elements/1.1/"
   xmlns:cc="http://creativecommons.org/ns#"
   xmlns:rdf="http://www.w3.org/1999/02/22-rdf-syntax-ns#"
   xmlns:svg="http://www.w3.org/2000/svg"
   xmlns="http://www.w3.org/2000/svg"
   xmlns:xlink="http://www.w3.org/1999/xlink"
   xmlns:sodipodi="http://sodipodi.sourceforge.net/DTD/sodipodi-0.dtd"
   xmlns:inkscape="http://www.inkscape.org/namespaces/inkscape"
   width="48"
   height="48"
   viewBox="0 0 48 48.000001"
   id="svg10223"
   version="1.1"
   inkscape:version="0.91 r13725"
   sodipodi:docname="emblem-art.svg">
  <defs
     id="defs10225">
    <linearGradient
       gradientTransform="translate(2.9090109,761.68552)"
       inkscape:collect="always"
       xlink:href="#linearGradient9863"
       id="linearGradient9241"
       x1="184.02223"
       y1="298.2402"
       x2="197.63118"
       y2="298.2402"
       gradientUnits="userSpaceOnUse" />
    <linearGradient
       id="linearGradient9863">
      <stop
         id="stop9865"
         offset="0"
         style="stop-color:#2f445a;stop-opacity:1;" />
      <stop
         id="stop9867"
         offset="1"
         style="stop-color:#415f7c;stop-opacity:1" />
    </linearGradient>
    <linearGradient
       inkscape:collect="always"
       xlink:href="#linearGradient26351"
       id="linearGradient8622"
       gradientUnits="userSpaceOnUse"
       gradientTransform="matrix(1.5840688,0,0,0.81800935,-618.90093,267.55402)"
       x1="512.35559"
       y1="964.68097"
       x2="512.54663"
       y2="972.63593" />
    <linearGradient
       id="linearGradient26351">
      <stop
         id="stop26353"
         offset="0"
         style="stop-color:#aac736;stop-opacity:1;" />
      <stop
         id="stop26355"
         offset="1"
         style="stop-color:#5d8b2c;stop-opacity:1;" />
    </linearGradient>
    <linearGradient
       gradientTransform="translate(-3.1838407,760.64602)"
       inkscape:collect="always"
       xlink:href="#linearGradient9863"
       id="linearGradient9239"
       x1="179.44432"
       y1="286.31873"
       x2="197.57341"
       y2="286.31873"
       gradientUnits="userSpaceOnUse" />
    <linearGradient
       y2="972.63593"
       x2="512.54663"
       y1="964.68097"
       x1="512.35559"
       gradientUnits="userSpaceOnUse"
       id="linearGradient11439"
       xlink:href="#linearGradient26351"
       inkscape:collect="always"
       gradientTransform="matrix(2.1523725,0,0,1.1632911,-918.85499,-79.866984)" />
    <linearGradient
       inkscape:collect="always"
       xlink:href="#linearGradient9863"
       id="linearGradient9233"
       x1="292.21265"
       y1="295.55887"
       x2="280.28827"
       y2="274.52243"
       gradientUnits="userSpaceOnUse"
       gradientTransform="translate(-250,750.00002)" />
    <linearGradient
       gradientTransform="matrix(1.2739297,0,0,1.2739297,-788.56981,50.456626)"
       y2="782.79968"
       x2="634.29822"
       y1="778.92468"
       x1="631.375"
       gradientUnits="userSpaceOnUse"
       id="linearGradient11412"
       xlink:href="#linearGradient3737-0"
       inkscape:collect="always" />
    <linearGradient
       id="linearGradient3737-0">
      <stop
         offset="0"
         style="stop-color:#ffffff;stop-opacity:1"
         id="stop3739-6" />
      <stop
         offset="1"
         style="stop-color:#ffffff;stop-opacity:0"
         id="stop3741-0" />
    </linearGradient>
    <linearGradient
       gradientTransform="matrix(1.2739297,0,0,1.2739297,-788.56981,50.456626)"
       y2="784.05188"
       x2="635.04688"
       y1="782.05188"
       x1="632.92462"
       gradientUnits="userSpaceOnUse"
       id="linearGradient11415"
       xlink:href="#linearGradient26351"
       inkscape:collect="always" />
    <linearGradient
       y2="974.72223"
       x2="504.2373"
       y1="971.91095"
       x1="498.17926"
       gradientTransform="matrix(1.2739297,0,0,1.2739297,-610.21968,-204.32927)"
       gradientUnits="userSpaceOnUse"
       id="linearGradient11421"
       xlink:href="#linearGradient5439"
       inkscape:collect="always" />
    <linearGradient
       id="linearGradient5439">
      <stop
         id="stop5441"
         offset="0"
         style="stop-color:#ffffff;stop-opacity:1;" />
      <stop
         id="stop5443"
         offset="1"
         style="stop-color:#000000;stop-opacity:1;" />
    </linearGradient>
    <linearGradient
       y2="968.28442"
       x2="509.26093"
       y1="964.40942"
       x1="503.67981"
       gradientTransform="matrix(1.2739297,0,0,1.2739297,-610.21968,-204.32927)"
       gradientUnits="userSpaceOnUse"
       id="linearGradient11424"
       xlink:href="#linearGradient12578"
       inkscape:collect="always" />
    <linearGradient
       id="linearGradient12578">
      <stop
         style="stop-color:#e9b551;stop-opacity:1;"
         offset="0"
         id="stop12580" />
      <stop
         style="stop-color:#b48739;stop-opacity:1;"
         offset="1"
         id="stop12582" />
    </linearGradient>
    <linearGradient
       y2="982.72101"
       x2="505.05417"
       y1="976.02527"
       x1="495.24738"
       gradientTransform="matrix(1.2739297,0,0,1.2739297,-610.21968,-204.32927)"
       gradientUnits="userSpaceOnUse"
       id="linearGradient11427"
       xlink:href="#linearGradient5439"
       inkscape:collect="always" />
  </defs>
  <sodipodi:namedview
     id="base"
     pagecolor="#ffffff"
     bordercolor="#666666"
     borderopacity="1.0"
     inkscape:pageopacity="0.0"
     inkscape:pageshadow="2"
     inkscape:zoom="3.959798"
     inkscape:cx="11.895147"
     inkscape:cy="22.948902"
     inkscape:document-units="px"
     inkscape:current-layer="layer1"
     showgrid="false"
     units="px"
     borderlayer="true"
     inkscape:showpageshadow="false"
     inkscape:window-width="1600"
     inkscape:window-height="847"
     inkscape:window-x="0"
     inkscape:window-y="0"
     inkscape:window-maximized="1" />
  <metadata
     id="metadata10228">
    <rdf:RDF>
      <cc:Work
         rdf:about="">
        <dc:format>image/svg+xml</dc:format>
        <dc:type
           rdf:resource="http://purl.org/dc/dcmitype/StillImage" />
        <dc:title></dc:title>
      </cc:Work>
    </rdf:RDF>
  </metadata>
  <g
     inkscape:label="Capa 1"
     inkscape:groupmode="layer"
     id="layer1"
     transform="translate(0,-1004.3622)">
    <path
       inkscape:connector-curvature="0"
       style="display:inline;fill:#000000;fill-opacity:0.43921569;fill-rule:evenodd;stroke:none;stroke-width:0.93739629px;stroke-linecap:butt;stroke-linejoin:miter;stroke-opacity:1"
       d="m 22.51746,1033.9858 c -0.0759,0 -0.17047,-0.033 -0.23867,-0.021 l -0.81101,1.5082 c 0.0378,0 0.0809,0.013 0.11939,0.011 -1.21804,0.9029 -2.78217,0.5265 -3.38615,2.162 -1.56816,4.2467 -1.4802,11.3998 -7.49626,11.2795 8.43776,2.2164 14.04571,0.3274 16.34887,-5.3852 0.34981,-0.8677 0.17337,-3.7256 0.29033,-5.1044 0.0121,0.015 0.0355,0.028 0.0471,0.043 l 0.74165,-1.6687 c -0.0394,-0.06 -0.104,-0.1088 -0.1489,-0.1678 3.25267,-8.3407 9.13474,-17.6289 11.23982,-22.9499 1.50638,-3.9549 1.90653,-5.1017 0.89275,-5.8379 -1.4828,-0.7382 -3.6862,2.14 -5.23342,4.6025 -4.76764,7.6089 -8.44405,13.99 -12.36552,21.5293 z"
       id="path9380"
       sodipodi:nodetypes="ccccscsccccccccc" />
    <path
       inkscape:connector-curvature="0"
       style="display:inline;fill:url(#linearGradient11427);fill-rule:evenodd;stroke:none;stroke-width:0.93739629px;stroke-linecap:butt;stroke-linejoin:miter;stroke-opacity:1"
       d="m 11.36196,1049.809 c 8.16505,1.4983 14.2408,-0.9845 17.68044,-7.0951 0.57182,-1.0159 1.00541,-4.4862 1.42102,-5.701 1.68265,-2.4093 -0.8903,-2.5288 -4.48269,-3.0248 -1.64606,2.253 -3.65577,1.348 -4.79836,3.4948 -2.41039,4.5291 -3.71895,11.8877 -9.82041,12.3261 z"
       id="path9330"
       sodipodi:nodetypes="csccsc" />
    <path
       inkscape:connector-curvature="0"
       style="display:inline;fill:url(#linearGradient11424);fill-rule:evenodd;stroke:none;stroke-width:1px;stroke-linecap:butt;stroke-linejoin:miter;stroke-opacity:1"
       d="m 25.54106,1034.3317 10.5925,-16.7671 c 1.54807,-2.7476 5.01657,-7.9475 6.63263,-9.9415 1.14699,-1.6184 2.4596,-1.5186 3.03977,-1.1675 0.75273,0.4555 0.43805,2.3122 -0.0155,3.4007 -0.78689,1.5332 -4.26527,8.1092 -5.86818,10.8165 l -9.48698,16.2299 c 0.18924,-1.9293 -3.43634,-2.9419 -4.89429,-2.571 z"
       id="path9332"
       sodipodi:nodetypes="cccsccccc" />
    <path
       inkscape:connector-curvature="0"
       style="display:inline;fill:url(#linearGradient11421);fill-rule:evenodd;stroke:none;stroke-width:1px;stroke-linecap:butt;stroke-linejoin:miter;stroke-opacity:1"
       d="m 26.01981,1033.3123 -1.11645,1.6208 c 2.01751,-0.3994 4.42759,0.8595 5.44469,2.5216 l 1.07852,-1.76 c -0.788,-1.5954 -3.87109,-2.7816 -5.40676,-2.3824 z"
       id="path9334"
       sodipodi:nodetypes="ccccc" />
    <path
       inkscape:connector-curvature="0"
       sodipodi:nodetypes="cccc"
       id="path9360"
       d="m 11.36196,1049.809 c 7.12515,1.3075 12.65929,-0.4166 16.23908,-4.9376 -1.28025,-3.5636 -8.71475,-0.076 -7.80837,-4.3412 -1.75548,4.1998 -3.57587,8.93 -8.43071,9.2788 z"
       style="display:inline;fill:url(#linearGradient11415);fill-rule:evenodd;stroke:none;stroke-width:0.93739629px;stroke-linecap:butt;stroke-linejoin:miter;stroke-opacity:1" />
    <path
       inkscape:connector-curvature="0"
       style="display:inline;fill:url(#linearGradient11412);fill-opacity:1;fill-rule:evenodd;stroke:none;stroke-width:0.93739629px;stroke-linecap:butt;stroke-linejoin:miter;stroke-opacity:1"
       d="m 11.36196,1049.809 c 7.12515,1.3075 12.65929,-0.4166 16.23908,-4.9376 -1.28025,-3.5636 -8.71475,-0.076 -7.80837,-4.3412 -1.75548,4.1998 -3.57587,8.93 -8.43071,9.2788 z"
       id="path9505"
       sodipodi:nodetypes="cccc" />
    <path
       style="display:inline;fill:none;fill-rule:evenodd;stroke:url(#linearGradient9233);stroke-width:1;stroke-linecap:butt;stroke-linejoin:miter;stroke-miterlimit:4;stroke-dasharray:none;stroke-opacity:1"
       d="m 42.76562,1007.6231 c -1.33481,1.6815 -5.08474,7.1939 -6.63281,9.9414 l -9.93359,15.7266 c -0.0575,0.01 -0.12586,0.01 -0.17969,0.022 l -1.11523,1.6211 c 0.0479,-0.01 0.0982,-0.01 0.14648,-0.014 -1.42103,1.0698 -2.93479,0.8069 -3.86914,2.5625 -2.41039,4.5291 -3.71885,11.8877 -9.82031,12.3262 8.16505,1.4983 14.242,-0.9851 17.68164,-7.0957 0.52307,-0.9293 0.92872,-3.8379 1.3125,-5.2696 l 1.07031,-1.748 c -0.0383,-0.078 -0.10552,-0.1491 -0.1543,-0.2246 l 8.6504,-14.7988 c 1.60291,-2.7073 5.08225,-9.2832 5.86914,-10.8165 0.45355,-1.0884 0.8621,-2.7573 -0.26565,-3.2753 -1.26639,-0.4945 -2.20686,0.2846 -2.75975,1.0429 z"
       id="path9220"
       inkscape:connector-curvature="0"
       sodipodi:nodetypes="ccccccsccccccccc" />
    <ellipse
       cy="1049.6903"
       cx="185.02943"
       style="display:inline;fill:#000000;fill-opacity:0.43921569;stroke:none;stroke-width:1.00707233;stroke-linecap:round;stroke-linejoin:round;stroke-miterlimit:4;stroke-dasharray:none;stroke-dashoffset:0;stroke-opacity:1"
       id="ellipse4682"
       transform="matrix(1,0,-0.16672165,0.986004,0,0)"
       rx="8.5610094"
       ry="4.6269622" />
    <ellipse
       ry="3.2536123"
       rx="6.3005948"
       transform="matrix(1,0,-0.17449329,0.98465836,0,0)"
       id="ellipse4684"
       style="display:inline;fill:#000000;fill-opacity:0.43921569;stroke:none;stroke-width:1.00776029;stroke-linecap:round;stroke-linejoin:round;stroke-miterlimit:4;stroke-dasharray:none;stroke-dashoffset:0;stroke-opacity:1"
       cx="193.46199"
       cy="1062.655" />
    <ellipse
       cy="1046.9647"
       cx="185.32501"
       style="display:inline;fill:url(#linearGradient11439);fill-opacity:1;stroke:none;stroke-width:0.5;stroke-linecap:round;stroke-linejoin:round;stroke-miterlimit:4;stroke-dasharray:none;stroke-dashoffset:0;stroke-opacity:1"
       id="path9407"
       transform="matrix(1,0,-0.16672165,0.986004,0,0)"
       rx="8.5610094"
       ry="4.6269622" />
    <ellipse
       ry="4.6269622"
       rx="8.5610094"
       transform="matrix(1,0,-0.16672165,0.986004,0,0)"
       id="ellipse9235"
       style="display:inline;fill:none;fill-opacity:1;stroke:url(#linearGradient9239);stroke-width:1.00707233;stroke-linecap:round;stroke-linejoin:round;stroke-miterlimit:4;stroke-dasharray:none;stroke-dashoffset:0;stroke-opacity:1"
       cx="185.32501"
       cy="1046.9647" />
    <ellipse
       ry="3.2536123"
       rx="6.3005948"
       transform="matrix(1,0,-0.17449329,0.98465836,0,0)"
       id="ellipse8620"
       style="display:inline;fill:url(#linearGradient8622);fill-opacity:1;stroke:none;stroke-width:0.5;stroke-linecap:round;stroke-linejoin:round;stroke-miterlimit:4;stroke-dasharray:none;stroke-dashoffset:0;stroke-opacity:1"
       cx="193.73573"
       cy="1059.9257" />
    <ellipse
       cy="1059.9257"
       cx="193.73573"
       style="display:inline;fill:none;fill-opacity:1;stroke:url(#linearGradient9241);stroke-width:1.00776029;stroke-linecap:round;stroke-linejoin:round;stroke-miterlimit:4;stroke-dasharray:none;stroke-dashoffset:0;stroke-opacity:1"
       id="ellipse9237"
       transform="matrix(1,0,-0.17449329,0.98465836,0,0)"
       rx="6.3005948"
       ry="3.2536123" />
  </g>
</svg>
