<?xml version="1.0" encoding="UTF-8" standalone="no"?>
<!-- Created with Inkscape (http://www.inkscape.org/) -->

<svg
   xmlns:dc="http://purl.org/dc/elements/1.1/"
   xmlns:cc="http://creativecommons.org/ns#"
   xmlns:rdf="http://www.w3.org/1999/02/22-rdf-syntax-ns#"
   xmlns:svg="http://www.w3.org/2000/svg"
   xmlns="http://www.w3.org/2000/svg"
   xmlns:xlink="http://www.w3.org/1999/xlink"
   xmlns:sodipodi="http://sodipodi.sourceforge.net/DTD/sodipodi-0.dtd"
   xmlns:inkscape="http://www.inkscape.org/namespaces/inkscape"
   width="48"
   height="48"
   viewBox="0 0 48 48.000001"
   id="svg6401"
   version="1.1"
   inkscape:version="0.91 r13725"
   sodipodi:docname="emblem-shared.svg">
  <defs
     id="defs6403">
    <linearGradient
       id="linearGradient12336">
      <stop
         style="stop-color:#ff6e00;stop-opacity:1;"
         offset="0"
         id="stop12338" />
      <stop
         style="stop-color:#eb2600;stop-opacity:1;"
         offset="1"
         id="stop12340" />
    </linearGradient>
    <inkscape:path-effect
       effect="skeletal"
       id="path-effect19024"
       is_visible="true"
       pattern="m -103.85343,584.9996 1,0"
       copytype="single_stretched"
       prop_scale="1"
       scale_y_rel="false"
       spacing="0"
       normal_offset="0"
       tang_offset="0"
       prop_units="false"
       vertical_pattern="false"
       fuse_tolerance="0" />
    <inkscape:path-effect
       effect="skeletal"
       id="path-effect19020"
       is_visible="true"
       pattern="m -104.16593,585.3746 1,0"
       copytype="single_stretched"
       prop_scale="1"
       scale_y_rel="false"
       spacing="0"
       normal_offset="0"
       tang_offset="0"
       prop_units="false"
       vertical_pattern="false"
       fuse_tolerance="0" />
    <linearGradient
       id="linearGradient9863">
      <stop
         id="stop9865"
         offset="0"
         style="stop-color:#2f445a;stop-opacity:1;" />
      <stop
         id="stop9867"
         offset="1"
         style="stop-color:#415f7c;stop-opacity:1" />
    </linearGradient>
    <linearGradient
       gradientTransform="translate(-184.30552,529.99998)"
       inkscape:collect="always"
       xlink:href="#linearGradient9863"
       id="linearGradient7065"
       x1="188.49091"
       y1="497.17987"
       x2="230.66335"
       y2="497.17987"
       gradientUnits="userSpaceOnUse" />
  </defs>
  <sodipodi:namedview
     id="base"
     pagecolor="#ffffff"
     bordercolor="#666666"
     borderopacity="1.0"
     inkscape:pageopacity="0.0"
     inkscape:pageshadow="2"
     inkscape:zoom="7.9195959"
     inkscape:cx="14.393662"
     inkscape:cy="20.272644"
     inkscape:document-units="px"
     inkscape:current-layer="layer1"
     showgrid="false"
     units="px"
     inkscape:showpageshadow="false"
     borderlayer="true"
     inkscape:window-width="1600"
     inkscape:window-height="847"
     inkscape:window-x="0"
     inkscape:window-y="0"
     inkscape:window-maximized="1" />
  <metadata
     id="metadata6406">
    <rdf:RDF>
      <cc:Work
         rdf:about="">
        <dc:format>image/svg+xml</dc:format>
        <dc:type
           rdf:resource="http://purl.org/dc/dcmitype/StillImage" />
        <dc:title></dc:title>
      </cc:Work>
    </rdf:RDF>
  </metadata>
  <g
     inkscape:label="Capa 1"
     inkscape:groupmode="layer"
     id="layer1"
     transform="translate(0,-1004.3622)">
    <path
       id="path7057"
       d="m 35.105205,1008.855 a 7.9111886,7.9111886 0 0 0 -7.91149,7.9114 7.9111886,7.9111886 0 0 0 0.004,0.096 l -12.64804,6.4727 a 7.9111886,7.9111886 0 0 0 -4.7940899,-1.6306 7.9111886,7.9111886 0 0 0 -7.9114798,7.9096 7.9111886,7.9111886 0 0 0 7.9114798,7.9115 7.9111886,7.9111886 0 0 0 3.8962799,-1.036 l 9.48843,5.878 a 7.9111886,7.9111886 0 0 0 -0.0269,0.5295 7.9111886,7.9111886 0 0 0 7.9115,7.9115 7.9111886,7.9111886 0 0 0 7.91149,-7.9115 7.9111886,7.9111886 0 0 0 -7.91149,-7.9096 7.9111886,7.9111886 0 0 0 -4.48139,1.4005 l -8.98004,-5.5634 a 7.9111886,7.9111886 0 0 0 0.10167,-1.2105 7.9111886,7.9111886 0 0 0 -0.006,-0.1477 l 12.60966,-6.4516 a 7.9111886,7.9111886 0 0 0 4.8363,1.6632 7.9111886,7.9111886 0 0 0 7.91148,-7.9115 7.9111886,7.9111886 0 0 0 -7.91148,-7.9115 z"
       style="color:#000000;font-style:normal;font-variant:normal;font-weight:normal;font-stretch:normal;font-size:medium;line-height:normal;font-family:sans-serif;text-indent:0;text-align:start;text-decoration:none;text-decoration-line:none;text-decoration-style:solid;text-decoration-color:#000000;letter-spacing:normal;word-spacing:normal;text-transform:none;direction:ltr;block-progression:tb;writing-mode:lr-tb;baseline-shift:baseline;text-anchor:start;white-space:normal;clip-rule:nonzero;display:inline;overflow:visible;visibility:visible;opacity:1;isolation:auto;mix-blend-mode:normal;color-interpolation:sRGB;color-interpolation-filters:linearRGB;solid-color:#000000;solid-opacity:1;fill:#000000;fill-opacity:0.43921569;fill-rule:evenodd;stroke:none;stroke-width:7;stroke-linecap:round;stroke-linejoin:round;stroke-miterlimit:4;stroke-dasharray:none;stroke-dashoffset:0;stroke-opacity:1;color-rendering:auto;image-rendering:auto;shape-rendering:auto;text-rendering:auto;enable-background:accumulate"
       inkscape:connector-curvature="0" />
    <path
       style="color:#000000;font-style:normal;font-variant:normal;font-weight:normal;font-stretch:normal;font-size:medium;line-height:normal;font-family:sans-serif;text-indent:0;text-align:start;text-decoration:none;text-decoration-line:none;text-decoration-style:solid;text-decoration-color:#000000;letter-spacing:normal;word-spacing:normal;text-transform:none;direction:ltr;block-progression:tb;writing-mode:lr-tb;baseline-shift:baseline;text-anchor:start;white-space:normal;clip-rule:nonzero;display:inline;overflow:visible;visibility:visible;opacity:1;isolation:auto;mix-blend-mode:normal;color-interpolation:sRGB;color-interpolation-filters:linearRGB;solid-color:#000000;solid-opacity:1;fill:#ffffff;fill-opacity:1;fill-rule:evenodd;stroke:url(#linearGradient7065);stroke-width:1;stroke-linecap:round;stroke-linejoin:round;stroke-miterlimit:4;stroke-dasharray:none;stroke-dashoffset:0;stroke-opacity:1;color-rendering:auto;image-rendering:auto;shape-rendering:auto;text-rendering:auto;enable-background:accumulate"
       d="m 37.94648,1006.2031 a 7.9111886,7.9111886 0 0 0 -7.91149,7.9115 7.9111886,7.9111886 0 0 0 0.004,0.096 l -12.64804,6.4727 a 7.9111886,7.9111886 0 0 0 -4.79409,-1.6307 7.9111886,7.9111886 0 0 0 -7.9114802,7.9096 7.9111886,7.9111886 0 0 0 7.9114802,7.9115 7.9111886,7.9111886 0 0 0 3.89628,-1.0359 l 9.48842,5.878 a 7.9111886,7.9111886 0 0 0 -0.0269,0.5294 7.9111886,7.9111886 0 0 0 7.91149,7.9115 7.9111886,7.9111886 0 0 0 7.9115,-7.9115 7.9111886,7.9111886 0 0 0 -7.9115,-7.9095 7.9111886,7.9111886 0 0 0 -4.48138,1.4004 l -8.98005,-5.5634 a 7.9111886,7.9111886 0 0 0 0.10168,-1.2105 7.9111886,7.9111886 0 0 0 -0.006,-0.1477 l 12.60966,-6.4516 a 7.9111886,7.9111886 0 0 0 4.83629,1.6633 7.9111886,7.9111886 0 0 0 7.91148,-7.9115 7.9111886,7.9111886 0 0 0 -7.91148,-7.9115 z"
       id="path7041"
       inkscape:connector-curvature="0" />
  </g>
</svg>
