<?xml version="1.0" encoding="UTF-8" standalone="no"?>
<!-- Created with Inkscape (http://www.inkscape.org/) -->
<svg
   xmlns:dc="http://purl.org/dc/elements/1.1/"
   xmlns:cc="http://creativecommons.org/ns#"
   xmlns:rdf="http://www.w3.org/1999/02/22-rdf-syntax-ns#"
   xmlns:svg="http://www.w3.org/2000/svg"
   xmlns="http://www.w3.org/2000/svg"
   xmlns:xlink="http://www.w3.org/1999/xlink"
   xmlns:sodipodi="http://sodipodi.sourceforge.net/DTD/sodipodi-0.dtd"
   xmlns:inkscape="http://www.inkscape.org/namespaces/inkscape"
   width="48px"
   height="48px"
   id="svg17121"
   sodipodi:version="0.32"
   inkscape:version="0.46"
   sodipodi:docname="emblem-distinguished.svg"
   inkscape:output_extension="org.inkscape.output.svg.inkscape">
  <defs
     id="defs17123">
    <linearGradient
       inkscape:collect="always"
       xlink:href="#linearGradient2818"
       id="linearGradient16138"
       gradientUnits="userSpaceOnUse"
       gradientTransform="matrix(0.9803922,0,0,0.9803922,0.470578,0.4706276)"
       x1="22.5"
       y1="-0.00033215381"
       x2="22.5"
       y2="48.001324" />
    <linearGradient
       inkscape:collect="always"
       xlink:href="#linearGradient2818"
       id="linearGradient16197"
       gradientUnits="userSpaceOnUse"
       gradientTransform="matrix(1.0416667,0,0,1.0416667,196.35216,1007.1291)"
       x1="22.5"
       y1="-0.00033215381"
       x2="22.5"
       y2="48.001324" />
    <linearGradient
       id="linearGradient2818">
      <stop
         style="stop-color:#aac736;stop-opacity:1;"
         offset="0"
         id="stop2820" />
      <stop
         style="stop-color:#5d8b2c;stop-opacity:1;"
         offset="1"
         id="stop2822" />
    </linearGradient>
    <inkscape:perspective
       sodipodi:type="inkscape:persp3d"
       inkscape:vp_x="0 : 24 : 1"
       inkscape:vp_y="0 : 1000 : 0"
       inkscape:vp_z="48 : 24 : 1"
       inkscape:persp3d-origin="24 : 16 : 1"
       id="perspective17129" />
  </defs>
  <sodipodi:namedview
     id="base"
     pagecolor="#ffffff"
     bordercolor="#666666"
     borderopacity="1.0"
     inkscape:pageopacity="0.0"
     inkscape:pageshadow="2"
     inkscape:zoom="4"
     inkscape:cx="38.794462"
     inkscape:cy="21.451686"
     inkscape:current-layer="layer1"
     showgrid="true"
     inkscape:grid-bbox="true"
     inkscape:document-units="px"
     inkscape:window-width="1024"
     inkscape:window-height="731"
     inkscape:window-x="0"
     inkscape:window-y="6" />
  <metadata
     id="metadata17126">
    <rdf:RDF>
      <cc:Work
         rdf:about="">
        <dc:format>image/svg+xml</dc:format>
        <dc:type
           rdf:resource="http://purl.org/dc/dcmitype/StillImage" />
      </cc:Work>
    </rdf:RDF>
  </metadata>
  <g
     id="layer1"
     inkscape:label="Layer 1"
     inkscape:groupmode="layer">
    <rect
       ry="2.8472438"
       rx="2.8472438"
       y="0.47058824"
       x="0.47058824"
       height="47.058823"
       width="47.058823"
       id="rect6746"
       style="fill:url(#linearGradient16138);fill-opacity:1;stroke:none" />
    <path
       style="font-size:53.57947922px;font-style:normal;font-variant:normal;font-weight:normal;font-stretch:normal;text-indent:0;text-align:start;text-decoration:none;line-height:normal;letter-spacing:normal;word-spacing:normal;text-transform:none;direction:ltr;block-progression:tb;writing-mode:lr-tb;text-anchor:start;fill:#ffffff;fill-opacity:1;fill-rule:nonzero;stroke:none;stroke-width:3;marker:none;visibility:visible;display:inline;overflow:visible;enable-background:accumulate;font-family:Bitstream Vera Sans;-inkscape-font-specification:Bitstream Vera Sans"
       d="M 21.760413,4.6778652 C 21.712093,4.6853946 21.66415,4.6944299 21.616856,4.7065711 L 13.031792,6.4293193 C 12.41983,6.5597288 11.940074,7.1531029 11.940714,7.7788064 L 11.940714,12.200548 C 11.943256,13.007362 12.784799,13.701225 13.577336,13.550035 L 20.554484,12.171832 L 20.554484,36.491371 L 14.266437,36.491371 C 14.096206,36.458807 13.919839,36.458807 13.749608,36.491371 C 13.740037,36.491277 13.730465,36.491277 13.720893,36.491371 C 13.632187,36.511418 13.545496,36.540312 13.462484,36.577489 C 13.371538,36.615889 13.284733,36.664171 13.204065,36.721056 C 13.174098,36.748444 13.145354,36.777244 13.117928,36.807174 C 13.066634,36.851409 13.018606,36.899409 12.974371,36.950741 C 12.955011,36.960152 12.935867,36.969376 12.91695,36.979447 C 12.916846,36.988952 12.916846,36.998552 12.91695,37.008058 C 12.886983,37.035447 12.858239,37.064247 12.830813,37.094176 C 12.83071,37.103776 12.83071,37.113282 12.830813,37.122882 C 12.810597,37.150835 12.791444,37.179541 12.773392,37.209 C 12.751585,37.255776 12.732404,37.303682 12.715971,37.352557 C 12.667416,37.481244 12.638277,37.617254 12.629834,37.754534 C 12.62174,37.840463 12.62174,37.92707 12.629834,38.012952 L 12.629834,41.946571 C 12.6299,42.668181 13.286427,43.324698 14.008037,43.324774 L 34.681081,43.324774 C 35.402681,43.324698 36.059199,42.668181 36.059274,41.946571 L 36.059274,37.869385 C 36.059199,37.147776 35.402681,36.491258 34.681081,36.491183 L 28.134616,36.491183 L 28.134616,6.0558699 C 28.13454,5.3342605 27.478023,4.6777335 26.756413,4.6776676 L 21.90399,4.6776676 C 21.856178,4.674844 21.808234,4.674844 21.760423,4.6776676 L 21.760423,4.6780346 L 21.760413,4.6778652 z"
       id="text6756"
       sodipodi:nodetypes="cccccccccsssssssssssssccccccccccccc" />
    <rect
       ry="2.8472438"
       rx="2.8472438"
       y="0.47058824"
       x="0.47058824"
       height="47.058823"
       width="47.058823"
       id="rect4228-4"
       style="fill:none;stroke:#344b63;stroke-width:0.94117647;stroke-miterlimit:4;stroke-dasharray:none;stroke-opacity:1" />
  </g>
</svg>
