<?xml version="1.0" encoding="UTF-8" standalone="no"?>
<!-- Created with Inkscape (http://www.inkscape.org/) -->
<svg
   xmlns:dc="http://purl.org/dc/elements/1.1/"
   xmlns:cc="http://creativecommons.org/ns#"
   xmlns:rdf="http://www.w3.org/1999/02/22-rdf-syntax-ns#"
   xmlns:svg="http://www.w3.org/2000/svg"
   xmlns="http://www.w3.org/2000/svg"
   xmlns:xlink="http://www.w3.org/1999/xlink"
   xmlns:sodipodi="http://sodipodi.sourceforge.net/DTD/sodipodi-0.dtd"
   xmlns:inkscape="http://www.inkscape.org/namespaces/inkscape"
   width="48px"
   height="48px"
   id="svg17121"
   sodipodi:version="0.32"
   inkscape:version="0.46"
   sodipodi:docname="emblem-OK.svg"
   inkscape:output_extension="org.inkscape.output.svg.inkscape">
  <defs
     id="defs17123">
    <linearGradient
       inkscape:collect="always"
       xlink:href="#linearGradient2818"
       id="linearGradient16265"
       gradientUnits="userSpaceOnUse"
       gradientTransform="matrix(0.9803922,0,0,0.9803922,0.4705641,0.4706088)"
       x1="22.5"
       y1="-0.00033215381"
       x2="22.5"
       y2="48.001324" />
    <linearGradient
       inkscape:collect="always"
       xlink:href="#linearGradient2818"
       id="linearGradient16035"
       gradientUnits="userSpaceOnUse"
       gradientTransform="matrix(0.9803922,0,0,0.9803922,0.4705826,0.4705805)"
       x1="22.5"
       y1="-0.00033215381"
       x2="22.5"
       y2="48.001324" />
    <linearGradient
       inkscape:collect="always"
       xlink:href="#linearGradient2818"
       id="linearGradient16395"
       gradientUnits="userSpaceOnUse"
       gradientTransform="matrix(0.9803922,0,0,0.9803922,0.4705638,0.4706088)"
       x1="22.5"
       y1="-0.00033215381"
       x2="22.5"
       y2="48.001324" />
    <clipPath
       clipPathUnits="userSpaceOnUse"
       id="clipPath4871">
      <rect
         ry="2.8540657"
         rx="2.8540657"
         y="719.51721"
         x="318.22049"
         height="47.171574"
         width="47.171574"
         id="rect4873"
         style="fill:url(#linearGradient4875);fill-opacity:1;stroke:none" />
    </clipPath>
    <linearGradient
       id="linearGradient2818">
      <stop
         style="stop-color:#aac736;stop-opacity:1;"
         offset="0"
         id="stop2820" />
      <stop
         style="stop-color:#5d8b2c;stop-opacity:1;"
         offset="1"
         id="stop2822" />
    </linearGradient>
    <inkscape:perspective
       sodipodi:type="inkscape:persp3d"
       inkscape:vp_x="0 : 24 : 1"
       inkscape:vp_y="0 : 1000 : 0"
       inkscape:vp_z="48 : 24 : 1"
       inkscape:persp3d-origin="24 : 16 : 1"
       id="perspective17129" />
  </defs>
  <sodipodi:namedview
     id="base"
     pagecolor="#ffffff"
     bordercolor="#666666"
     borderopacity="1.0"
     inkscape:pageopacity="0.0"
     inkscape:pageshadow="2"
     inkscape:zoom="4"
     inkscape:cx="27.215972"
     inkscape:cy="24.91415"
     inkscape:current-layer="layer1"
     showgrid="true"
     inkscape:grid-bbox="true"
     inkscape:document-units="px"
     inkscape:window-width="1024"
     inkscape:window-height="731"
     inkscape:window-x="0"
     inkscape:window-y="6" />
  <metadata
     id="metadata17126">
    <rdf:RDF>
      <cc:Work
         rdf:about="">
        <dc:format>image/svg+xml</dc:format>
        <dc:type
           rdf:resource="http://purl.org/dc/dcmitype/StillImage" />
      </cc:Work>
    </rdf:RDF>
  </metadata>
  <g
     id="layer1"
     inkscape:label="Layer 1"
     inkscape:groupmode="layer">
    <rect
       style="fill:url(#linearGradient16265);fill-opacity:1;stroke:none"
       id="rect16261"
       width="47.058823"
       height="47.058823"
       x="0.47058824"
       y="0.47058824"
       rx="2.8472438"
       ry="2.8472438" />
    <rect
       style="fill:none;stroke:#344b63;stroke-width:0.94117647;stroke-miterlimit:4;stroke-dasharray:none;stroke-opacity:1"
       id="rect16263"
       width="47.058823"
       height="47.058823"
       x="0.47058824"
       y="0.47058824"
       rx="2.8472438"
       ry="2.8472438" />
    <path
       style="fill:#ffffff;stroke:none;stroke-width:1.99999988;stroke-linecap:round;stroke-linejoin:round;stroke-miterlimit:4;stroke-dasharray:none;stroke-opacity:1"
       d="M 19.581171,4.3482464 L 17.181171,11.689423 L 9.7270532,9.7411878 L 11.675288,17.195305 L 4.3623477,19.56707 L 10.009406,24.7906 L 5.1529359,30.748247 L 12.74823,32.075305 L 11.872936,39.72707 L 18.959994,36.762364 L 22.376465,43.651776 L 26.7247,37.298835 L 33.331759,41.280011 L 33.557641,33.571776 L 41.265877,33.345894 L 37.312936,26.738835 L 43.637641,22.3906 L 36.74823,18.974129 L 39.741171,11.88707 L 32.089406,12.734129 L 30.762347,5.1670699 L 24.776465,10.023541 L 19.581171,4.3482464 z M 33.247053,15.6706 L 30.959994,21.374129 L 36.381171,26.795305 L 32.90823,27.72707 L 29.350583,23.8306 L 28.757641,25.214129 L 29.661171,28.602364 L 26.696465,29.392952 L 23.703524,18.240011 L 26.66823,17.421188 L 27.938818,22.164717 L 27.967053,22.164717 C 28.08806,21.688256 28.236926,21.212877 28.362347,20.752952 L 29.576465,16.658835 L 33.247053,15.6706 z M 17.915288,19.708247 C 20.821077,19.520717 22.862978,21.502882 23.562347,24.112952 C 24.525924,27.709047 22.983336,30.591428 19.552936,31.5106 C 16.089425,32.438647 13.46566,30.345988 12.635288,27.24707 C 11.764964,23.998976 13.214319,20.85331 16.6447,19.934129 C 17.094216,19.813687 17.500183,19.735042 17.915288,19.708247 z M 17.745877,22.249423 C 17.571053,22.249508 17.391693,22.257047 17.209406,22.305894 C 15.767656,22.692209 15.278103,24.404651 15.797641,26.343541 C 16.318366,28.353169 17.574714,29.496896 19.016465,29.1106 L 19.0447,29.1106 C 20.48646,28.724284 20.969961,27.094731 20.42823,25.072952 C 19.977528,23.39092 18.969623,22.248877 17.745877,22.249423 z"
       id="path6529" />
  </g>
</svg>
