<?xml version="1.0" encoding="UTF-8" standalone="no"?>
<!-- Created with Inkscape (http://www.inkscape.org/) -->

<svg
   xmlns:dc="http://purl.org/dc/elements/1.1/"
   xmlns:cc="http://creativecommons.org/ns#"
   xmlns:rdf="http://www.w3.org/1999/02/22-rdf-syntax-ns#"
   xmlns:svg="http://www.w3.org/2000/svg"
   xmlns="http://www.w3.org/2000/svg"
   xmlns:xlink="http://www.w3.org/1999/xlink"
   xmlns:sodipodi="http://sodipodi.sourceforge.net/DTD/sodipodi-0.dtd"
   xmlns:inkscape="http://www.inkscape.org/namespaces/inkscape"
   width="128"
   height="128"
   id="svg6934"
   sodipodi:version="0.32"
   inkscape:version="0.48.3.1 r9886"
   version="1.0"
   sodipodi:docname="aaa-generic.svg"
   inkscape:output_extension="org.inkscape.output.svg.inkscape">
  <defs
     id="defs6936">
    <linearGradient
       id="linearGradient5344">
      <stop
         style="stop-color:#000000;stop-opacity:1;"
         offset="0"
         id="stop5346" />
      <stop
         style="stop-color:#000000;stop-opacity:0;"
         offset="1"
         id="stop5348" />
    </linearGradient>
    <linearGradient
       id="linearGradient5165-7-9-8-2">
      <stop
         id="stop5167-4-8-6-9"
         style="stop-color:#ffffff;stop-opacity:1"
         offset="0" />
      <stop
         id="stop5169-5-5-2-9"
         style="stop-color:#ffffff;stop-opacity:0"
         offset="1" />
    </linearGradient>
    <linearGradient
       inkscape:collect="always"
       xlink:href="#linearGradient5344"
       id="linearGradient3107"
       gradientUnits="userSpaceOnUse"
       gradientTransform="matrix(5.3340639,0,0,5.3340639,-1451.4802,-5864.5574)"
       x1="305.23422"
       y1="1137.0681"
       x2="283.35095"
       y2="1104.2024" />
    <linearGradient
       inkscape:collect="always"
       xlink:href="#linearGradient5165-7-9-8-2"
       id="linearGradient3092"
       gradientUnits="userSpaceOnUse"
       gradientTransform="translate(-40,140)"
       x1="22.933788"
       y1="-144.76825"
       x2="18.618809"
       y2="-96.331688" />
    <linearGradient
       inkscape:collect="always"
       xlink:href="#linearGradient5344"
       id="linearGradient3094"
       gradientUnits="userSpaceOnUse"
       gradientTransform="translate(-40,140)"
       x1="7.9531264"
       y1="2.2416961"
       x2="13.667412"
       y2="-64.464973" />
    <linearGradient
       id="linearGradient5316-39">
      <stop
         style="stop-color:#ff6e00;stop-opacity:1;"
         offset="0"
         id="stop5320-84" />
      <stop
         style="stop-color:#eb2600;stop-opacity:1;"
         offset="1"
         id="stop5322-5" />
    </linearGradient>
  </defs>
  <sodipodi:namedview
     id="base"
     pagecolor="#ffffff"
     bordercolor="#666666"
     borderopacity="1.0"
     inkscape:pageopacity="0.0"
     inkscape:pageshadow="2"
     inkscape:zoom="3.959798"
     inkscape:cx="101.05539"
     inkscape:cy="59.15965"
     inkscape:document-units="px"
     inkscape:current-layer="layer1"
     showgrid="false"
     inkscape:window-width="1360"
     inkscape:window-height="719"
     inkscape:window-x="0"
     inkscape:window-y="25"
     inkscape:window-maximized="1" />
  <metadata
     id="metadata6939">
    <rdf:RDF>
      <cc:Work
         rdf:about="">
        <dc:format>image/svg+xml</dc:format>
        <dc:type
           rdf:resource="http://purl.org/dc/dcmitype/StillImage" />
        <dc:title></dc:title>
      </cc:Work>
    </rdf:RDF>
  </metadata>
  <g
     inkscape:label="Capa 1"
     inkscape:groupmode="layer"
     id="layer1">
    <path
       style="fill:#f2f2f2;fill-opacity:1;fill-rule:evenodd;stroke:none"
       d="m 34.21875,5.0624987 c -1.32927,0.0554 -2.550557,0.27966 -3.65625,0.625 l -18.34375,2.71875 -0.5,0 0,0.1875 C 6.0032494,9.6428187 3.0625,14.185729 3.0625,19.749999 l 0,84.687501 c -0.07024,5.65226 2.0501037,10.0952 6.3125,11.5 l 18.96875,5.9375 c 0.02087,0.0102 0.04153,0.0212 0.0625,0.0313 1.892721,0.90932 4.164425,1.2325 6.78125,0.8125 l 78.28125,-11.8125 c 5.72052,-0.61974 9.4668,-6.06393 9.15625,-13.625004 l 0.40625,-74.281297 c 0.22248,-5.96534 -2.80168,-10.97622 -9.34375,-11.96875 L 35.84375,5.0937487 c -0.55631,-0.0273 -1.103066,-0.053 -1.625,-0.0313 z"
       id="path30949"
       inkscape:connector-curvature="0" />
    <path
       style="fill:url(#linearGradient3107);fill-rule:evenodd;stroke:none"
       d="M 29.25,16.718753 29.2187,113.125 c 0.4487,3.45828 1.40755,8.12456 4.34375,9.75 0.52713,-0.0229 1.0675,-0.0668 1.625,-0.15625 l 78.28125,-11.8125 c 5.72052,-0.61974 9.4668,-6.06393 9.15625,-13.625 l 0.40625,-74.281247 c 0.22245,-5.96534 -2.80168,-10.97622 -9.34375,-11.96875 L 37.6784,5.233693 c -3.97126,-0.42067 -8.41551,4.78057 -8.42845,11.48506 z M 30.15625,122.5 c 0.64796,0.17153 1.31467,0.32617 2.03125,0.375 z"
       id="path30953"
       inkscape:connector-curvature="0"
       sodipodi:nodetypes="ccccccccccccc" />
    <g
       id="g3087"
       transform="translate(40,0)">
      <path
         inkscape:connector-curvature="0"
         id="path3073"
         d="m -5.21875,5.312503 -22.5625,3.09375 -0.5,0 0,0.1875 c -5.715501,1.04907 -8.65625,5.59198 -8.65625,11.15625 l 0,25 26.1875,0 0,-28.03125 c 0.347051,-4.91678 2.274064,-9.96378 5.53125,-11.40625 z"
         style="fill:url(#linearGradient3092);fill-rule:evenodd;stroke:none;display:inline" />
      <path
         inkscape:connector-curvature="0"
         id="path3081"
         d="m -36.9375,68.406253 0,36.031247 c -0.07024,5.65226 2.050104,10.0952 6.3125,11.5 l 17.65625,6.03125 7.5,1.3125 c -3.710844,-1.04488 -4.81745,-6.34073 -5.3125,-10.15625 l 0,-44.718747 -26.15625,0 z"
         style="fill:url(#linearGradient3094);fill-rule:evenodd;stroke:none;display:inline" />
    </g>
    <path
       inkscape:connector-curvature="0"
       id="path30957"
       d="m 35.825012,5.0844328 c -1.734374,-0.0853 -3.26759,0.13333 -4.667303,0.50133 L 11.65504,8.5863028 C 5.9395447,9.6353728 2.9871862,14.190033 2.9871862,19.754303 l 0,84.678437 c -0.07024,5.65226 2.0718035,10.09707 6.3341998,11.50187 l 19.669357,6.16693 c 1.792241,0.74027 3.774988,1.0512 6.167512,0.6672 l 78.344065,-11.8352 c 5.72052,-0.6192 9.47847,-6.1072 9.16792,-13.66827 l 0.33339,-74.344027 c 0.22245,-5.96534 -2.79254,-10.84214 -9.33461,-11.83467 L 35.825018,5.0855028 z"
       style="fill:none;stroke:#344b63;stroke-width:2.667032;stroke-linecap:butt;stroke-linejoin:miter;stroke-miterlimit:4;stroke-opacity:1;stroke-dasharray:none;display:inline"
       sodipodi:nodetypes="ccccccccccccc" />
    <path
       d="m 80.833753,55.642428 c 0,4.12266 0.09609,7.557262 -1.916557,11.226951 -1.629537,2.983537 -4.220134,4.810741 -7.097744,4.810741 -3.92755,0 -6.232976,-3.096309 -6.232976,-7.67386 0,-9.009862 7.836591,-10.647842 15.245429,-10.647842 l 0,2.28401 z m 10.33087,25.794865 c -0.675946,0.634577 -1.659159,0.672825 -2.420223,0.252275 -3.403512,-2.920464 -4.01273,-4.264105 -5.877433,-7.052688 -5.620051,5.913558 -9.606855,7.689151 -16.893468,7.689151 -8.634689,0 -15.33984,-5.496893 -15.33984,-16.492582 0,-8.581734 4.505288,-14.418826 10.923424,-17.287682 5.564493,-2.517136 13.336262,-2.973941 19.27667,-3.658178 l 0,-1.446875 c 0,-2.509536 0.19256,-5.493712 -1.24253,-7.676311 -1.248071,-1.959646 -3.64423,-2.770527 -5.751511,-2.784402 -3.909041,-0.02574 -7.38847,2.011738 -8.240267,6.29317 -0.179605,0.95062 -0.851854,1.888479 -1.781372,1.93206 l -9.93275,-1.175816 C 53.040882,39.828901 52.111351,39.132869 52.35207,37.811778 54.635279,25.382356 65.516114,21.700211 75.272953,21.764452 c 4.986755,0.03283 11.508594,1.44999 15.434298,5.371064 4.986739,4.839738 4.503428,11.2174 4.503428,18.203184 l 0,16.481119 c 0,4.961733 2.001747,7.132964 3.872005,9.801136 0.655572,0.961367 0.803682,2.108159 -0.0335,2.815336 -2.094307,1.813823 -5.812606,5.147136 -7.858774,7.025935 l -0.02511,-0.02535 z"
       inkscape:connector-curvature="0"
       id="path3039"
       style="fill:#000000;fill-rule:evenodd;display:inline"
       sodipodi:nodetypes="ccssccccccssccscsccccscssccccc" />
    <path
       style="fill:#000000;fill-rule:evenodd"
       id="path3043"
       inkscape:connector-curvature="0"
       d="m 111.33367,89.150655 c -9.8122,8.461624 -24.040765,13.796945 -36.294422,14.931435 -17.167786,1.58945 -32.631715,-3.59799 -44.332854,-13.535071 -0.918033,-0.782053 -0.09825,-2.042265 1.003976,-1.471364 12.626716,6.496493 28.238006,9.664255 44.36214,8.171434 10.878499,-1.007173 22.833701,-4.467871 33.83593,-10.355773 1.65946,-0.885703 3.04971,0.859594 1.42523,2.259339 z" />
    <path
       style="fill:#000000;fill-rule:evenodd"
       id="path3045"
       inkscape:connector-curvature="0"
       d="m 115.41664,83.909271 c -1.25333,-1.558946 -8.2982,-0.02587 -11.45841,0.664781 -0.96054,0.204216 -1.10788,-0.651174 -0.24463,-1.368575 5.61777,-4.636629 14.82265,-4.29764 15.89369,-3.020355 1.07764,1.294404 -0.28241,11.046557 -5.54787,16.124492 -0.80942,0.784344 -1.58011,0.482294 -1.22217,-0.485897 1.18346,-3.199419 3.83742,-10.354934 2.57939,-11.914433 z" />
  </g>
</svg>
