<?xml version="1.0" encoding="UTF-8" standalone="no"?>
<!-- Created with Inkscape (http://www.inkscape.org/) -->

<svg
   xmlns:dc="http://purl.org/dc/elements/1.1/"
   xmlns:cc="http://creativecommons.org/ns#"
   xmlns:rdf="http://www.w3.org/1999/02/22-rdf-syntax-ns#"
   xmlns:svg="http://www.w3.org/2000/svg"
   xmlns="http://www.w3.org/2000/svg"
   xmlns:xlink="http://www.w3.org/1999/xlink"
   xmlns:sodipodi="http://sodipodi.sourceforge.net/DTD/sodipodi-0.dtd"
   xmlns:inkscape="http://www.inkscape.org/namespaces/inkscape"
   width="128"
   height="128"
   id="svg6934"
   sodipodi:version="0.32"
   inkscape:version="0.48.3.1 r9886"
   version="1.0"
   sodipodi:docname="huayra-tda-icon.svg"
   inkscape:output_extension="org.inkscape.output.svg.inkscape">
  <defs
     id="defs6936">
    <linearGradient
       id="linearGradient5165-7-9-8-2">
      <stop
         id="stop5167-4-8-6-9"
         style="stop-color:#ffffff;stop-opacity:1"
         offset="0" />
      <stop
         id="stop5169-5-5-2-9"
         style="stop-color:#ffffff;stop-opacity:0"
         offset="1" />
    </linearGradient>
    <linearGradient
       id="linearGradient5344">
      <stop
         style="stop-color:#000000;stop-opacity:1;"
         offset="0"
         id="stop5346" />
      <stop
         style="stop-color:#000000;stop-opacity:0;"
         offset="1"
         id="stop5348" />
    </linearGradient>
    <linearGradient
       inkscape:collect="always"
       xlink:href="#linearGradient5165-7-9-8-2"
       id="linearGradient3103"
       x1="22.933788"
       y1="-144.76825"
       x2="18.618809"
       y2="-96.331688"
       gradientUnits="userSpaceOnUse"
       gradientTransform="translate(0,140)" />
    <linearGradient
       inkscape:collect="always"
       xlink:href="#linearGradient5344"
       id="linearGradient3105"
       x1="7.9531264"
       y1="2.2416961"
       x2="13.667412"
       y2="-64.464973"
       gradientUnits="userSpaceOnUse"
       gradientTransform="translate(0,140)" />
    <linearGradient
       inkscape:collect="always"
       xlink:href="#linearGradient5344"
       id="linearGradient3107"
       gradientUnits="userSpaceOnUse"
       gradientTransform="matrix(5.3340639,0,0,5.3340639,-1451.4802,-5864.5574)"
       x1="305.23422"
       y1="1137.0681"
       x2="283.35095"
       y2="1104.2024" />
  </defs>
  <sodipodi:namedview
     id="base"
     pagecolor="#ffffff"
     bordercolor="#666666"
     borderopacity="1.0"
     inkscape:pageopacity="0.0"
     inkscape:pageshadow="2"
     inkscape:zoom="3.5803238"
     inkscape:cx="71.795506"
     inkscape:cy="63.519903"
     inkscape:document-units="px"
     inkscape:current-layer="layer1"
     showgrid="false"
     inkscape:window-width="1280"
     inkscape:window-height="713"
     inkscape:window-x="0"
     inkscape:window-y="0"
     inkscape:window-maximized="0"
     inkscape:snap-global="false" />
  <metadata
     id="metadata6939">
    <rdf:RDF>
      <cc:Work
         rdf:about="">
        <dc:format>image/svg+xml</dc:format>
        <dc:type
           rdf:resource="http://purl.org/dc/dcmitype/StillImage" />
        <dc:title></dc:title>
      </cc:Work>
    </rdf:RDF>
  </metadata>
  <g
     inkscape:label="Capa 1"
     inkscape:groupmode="layer"
     id="layer1">
    <path
       style="fill:#aa0000;fill-opacity:1;fill-rule:evenodd;stroke:none"
       d="m 34.21875,5.0625 c -1.32927,0.0554 -2.550557,0.27966 -3.65625,0.625 l -18.34375,2.71875 -0.5,0 0,0.1875 C 6.0032494,9.64282 3.0625,14.18573 3.0625,19.75 l 0,84.6875 c -0.07024,5.65226 2.0501037,10.0952 6.3125,11.5 l 18.96875,5.9375 c 0.02087,0.0102 0.04153,0.0212 0.0625,0.0313 1.892721,0.90932 4.164425,1.2325 6.78125,0.8125 l 78.28125,-11.8125 c 5.72052,-0.61974 9.4668,-6.06393 9.15625,-13.625 L 123.03125,23 c 0.22248,-5.96534 -2.80168,-10.97622 -9.34375,-11.96875 L 35.84375,5.09375 c -0.55631,-0.0273 -1.103066,-0.053 -1.625,-0.0313 z"
       id="path30949"
       inkscape:connector-curvature="0" />
    <path
       style="fill:url(#linearGradient3107);fill-rule:evenodd;stroke:none"
       d="M 29.25,16.71875 29.21875,113.125 c 0.448699,3.45828 1.407546,8.12456 4.34375,9.75 0.527128,-0.0229 1.067503,-0.0668 1.625,-0.15625 l 78.28125,-11.8125 c 5.72052,-0.61974 9.4668,-6.06393 9.15625,-13.625 L 123.03125,23 C 123.2537,17.03466 120.22957,12.02378 113.6875,11.03125 L 37.678453,5.23369 C 33.707189,4.81302 29.262938,10.01426 29.25,16.71875 z M 30.15625,122.5 c 0.647964,0.17153 1.314675,0.32617 2.03125,0.375 z"
       id="path30953"
       inkscape:connector-curvature="0"
       sodipodi:nodetypes="ccccccccccccc" />
    <path
       style="fill:url(#linearGradient3103);fill-rule:evenodd;stroke:none;display:inline"
       d="m 34.78125,5.3125 -22.5625,3.09375 -0.5,0 0,0.1875 C 6.003249,9.64282 3.0625,14.18573 3.0625,19.75 l 0,25 26.1875,0 0,-28.03125 C 29.597051,11.80197 31.524064,6.75497 34.78125,5.3125 z"
       id="path3073"
       inkscape:connector-curvature="0" />
    <path
       style="fill:url(#linearGradient3105);fill-rule:evenodd;stroke:none;display:inline"
       d="m 3.0625,68.40625 0,36.03125 c -0.07024,5.65226 2.050104,10.0952 6.3125,11.5 l 17.65625,6.03125 7.5,1.3125 c -3.710844,-1.04488 -4.81745,-6.34073 -5.3125,-10.15625 l 0,-44.71875 -26.15625,0 z"
       id="path3081"
       inkscape:connector-curvature="0" />
    <path
       inkscape:connector-curvature="0"
       id="path30957"
       d="m 35.825012,5.08443 c -1.734374,-0.0853 -3.26759,0.13333 -4.667303,0.50133 L 11.65504,8.5863 C 5.9395447,9.63537 2.9871862,14.19003 2.9871862,19.7543 l 0,84.67844 c -0.07024,5.65226 2.0718035,10.09707 6.3341998,11.50187 l 19.669357,6.16693 c 1.792241,0.74027 3.774988,1.0512 6.167512,0.6672 l 78.344065,-11.8352 c 5.72052,-0.6192 9.47847,-6.1072 9.16792,-13.66827 l 0.33339,-74.34403 C 123.22608,16.9559 120.21109,12.0791 113.66902,11.08657 L 35.825018,5.0855 z"
       style="fill:none;stroke:#344b63;stroke-width:2.667032;stroke-linecap:butt;stroke-linejoin:miter;stroke-miterlimit:4;stroke-opacity:1;stroke-dasharray:none;display:inline"
       sodipodi:nodetypes="ccccccccccccc" />
    <path
       sodipodi:nodetypes="sssscssscssssscssscssssscssscssssscssscssssscssscs"
       inkscape:connector-curvature="0"
       id="path4474"
       d="m 44.882038,13.840168 c -2.629655,-0.07926 -5.219859,1.189007 -7.039355,3.44676 -1.819498,2.257754 -2.845877,5.477183 -2.789381,8.749391 0.05649,3.272209 1.195174,6.556899 3.094568,8.926748 1.899395,2.369848 4.536114,3.795672 7.165769,3.874935 2.629159,0.1485 5.24182,-1.049125 7.100641,-3.254889 1.85882,-2.205761 2.940923,-5.392514 2.940923,-8.660896 0,-3.26838 -1.082103,-6.578169 -2.940923,-8.995278 -1.858821,-2.417112 -4.471482,-3.911799 -7.100641,-4.062234 -0.143845,-0.01201 -0.287757,-0.0202 -0.431601,-0.02454 z m 59.445082,5.487216 c -2.50116,-0.07191 -4.964813,1.078621 -6.695403,3.126766 -1.730596,2.048148 -2.706827,4.968691 -2.653092,7.937113 0.05374,2.968424 1.136774,5.948169 2.943362,8.098007 1.80658,2.149837 4.314483,3.443291 6.815643,3.515196 2.50069,0.134715 4.9857,-0.951727 6.7537,-2.952711 1.76798,-2.000984 2.79721,-4.891884 2.79721,-7.856835 0,-2.964951 -1.02923,-5.967464 -2.79721,-8.160174 -1.768,-2.192712 -4.25301,-3.548635 -6.7537,-3.685103 -0.13681,-0.01091 -0.27369,-0.01834 -0.41051,-0.02226 z M 75.015659,50.07636 c -2.629654,0.06631 -5.219859,1.402755 -7.039355,3.632036 -1.819497,2.229283 -2.845877,5.323947 -2.78938,8.410319 0.05649,3.086372 1.195173,6.126442 3.094568,8.261949 1.899395,2.135507 4.536115,3.340151 7.165769,3.273843 2.629159,-9.14e-4 5.24182,-1.271867 7.100641,-3.454173 1.85882,-2.182307 2.940924,-5.249109 2.940924,-8.334901 0,-3.085791 -1.082104,-6.152593 -2.940924,-8.3349 -1.858821,-2.182307 -4.471482,-3.453259 -7.100641,-3.454173 -0.143845,-0.0036 -0.287756,-0.0036 -0.431602,0 z M 44.882038,84.360726 c -2.629655,0.413126 -5.219859,2.286937 -7.039357,5.092424 -1.819496,2.805488 -2.845877,6.5081 -2.78938,10.062531 0.05649,3.554429 1.195174,6.916899 3.094569,9.138139 1.899395,2.22125 4.536114,3.27389 7.165769,2.86076 2.629654,-0.3366 5.243116,-2.13734 7.102562,-4.89384 1.859445,-2.75649 2.941974,-6.43479 2.941974,-9.996452 0,-3.561663 -1.082529,-6.962825 -2.941974,-9.243286 -1.859446,-2.28046 -4.472908,-3.41213 -7.102562,-3.075524 -0.143845,0.01423 -0.287757,0.03265 -0.431601,0.05525 z m 59.429342,-5.815149 c -2.62966,0.361646 -5.219863,2.001964 -7.039363,4.457866 -1.819497,2.455901 -2.845878,5.69714 -2.789383,8.808661 0.05649,3.111521 1.195173,6.055007 3.094573,7.999467 1.89939,1.944449 4.536103,2.865929 7.165763,2.504279 2.62966,-0.29466 5.24312,-1.87101 7.10257,-4.284025 1.85944,-2.413013 2.94197,-5.632967 2.94197,-8.75082 0,-3.117852 -1.08253,-6.095204 -2.94197,-8.091501 -1.85945,-1.996297 -4.47291,-2.986952 -7.10257,-2.692289 -0.14384,0.01246 -0.28774,0.02858 -0.43159,0.04836 z"
       style="color:#000000;fill:#000000;fill-opacity:0.4647303;fill-rule:nonzero;stroke:#000000;stroke-width:5;stroke-miterlimit:4;stroke-opacity:0.57261412;stroke-dasharray:none;marker:none;visibility:visible;display:inline;overflow:visible;enable-background:accumulate" />
    <path
       style="color:#000000;fill:#ffffff;fill-opacity:1;fill-rule:nonzero;stroke:none;stroke-width:1.5;marker:none;visibility:visible;display:inline;overflow:visible;enable-background:accumulate"
       d="m 47.76482,13.840168 c -2.629655,-0.07926 -5.219859,1.189007 -7.039355,3.44676 -1.819498,2.257754 -2.845877,5.477183 -2.789381,8.749391 0.05649,3.272209 1.195174,6.556899 3.094568,8.926748 1.899395,2.369848 4.536114,3.795672 7.165769,3.874935 2.629159,0.1485 5.24182,-1.049125 7.100641,-3.254889 1.85882,-2.205761 2.940923,-5.392514 2.940923,-8.660896 0,-3.26838 -1.082103,-6.578169 -2.940923,-8.995278 -1.858821,-2.417112 -4.471482,-3.911799 -7.100641,-4.062234 -0.143845,-0.01201 -0.287757,-0.0202 -0.431601,-0.02454 z m 59.44509,5.487216 c -2.50116,-0.07191 -4.96481,1.078621 -6.69541,3.126766 -1.730597,2.048148 -2.706828,4.968691 -2.653093,7.937113 0.05374,2.968424 1.136775,5.948169 2.943363,8.098007 1.80659,2.149837 4.31449,3.443291 6.81565,3.515196 2.50069,0.134715 4.9857,-0.951727 6.7537,-2.952711 1.76798,-2.000984 2.79721,-4.891884 2.79721,-7.856835 0,-2.964951 -1.02923,-5.967464 -2.79721,-8.160174 -1.768,-2.192712 -4.25301,-3.548635 -6.7537,-3.685103 -0.13681,-0.01091 -0.27369,-0.01834 -0.41051,-0.02226 z M 77.898441,50.07636 c -2.629654,0.06631 -5.219859,1.402755 -7.039355,3.632036 -1.819497,2.229283 -2.845877,5.323947 -2.78938,8.410319 0.05649,3.086372 1.195173,6.126442 3.094568,8.261949 1.899395,2.135507 4.536115,3.340151 7.165769,3.273843 2.629159,-9.14e-4 5.24182,-1.271867 7.100641,-3.454173 1.85882,-2.182307 2.940924,-5.249109 2.940924,-8.334901 0,-3.085791 -1.082104,-6.152593 -2.940924,-8.3349 -1.858821,-2.182307 -4.471482,-3.453259 -7.100641,-3.454173 -0.143845,-0.0036 -0.287756,-0.0036 -0.431602,0 z M 47.76482,84.360726 c -2.629655,0.413126 -5.219859,2.286937 -7.039357,5.092424 -1.819496,2.805488 -2.845877,6.5081 -2.78938,10.062531 0.05649,3.554429 1.195174,6.916899 3.094569,9.138139 1.899395,2.22125 4.536114,3.27389 7.165769,2.86076 2.629654,-0.3366 5.243116,-2.13734 7.102562,-4.89384 1.859445,-2.75649 2.941974,-6.43479 2.941974,-9.996452 0,-3.561663 -1.082529,-6.962825 -2.941974,-9.243286 -1.859446,-2.28046 -4.472908,-3.41213 -7.102562,-3.075524 -0.143845,0.01423 -0.287757,0.03265 -0.431601,0.05525 z m 59.42935,-5.815149 c -2.62966,0.361646 -5.21986,2.001964 -7.03937,4.457866 -1.819498,2.455901 -2.845879,5.69714 -2.789384,8.808661 0.05649,3.111521 1.195173,6.055007 3.094574,7.999467 1.8994,1.944449 4.53611,2.865929 7.16577,2.504279 2.62966,-0.29466 5.24312,-1.87101 7.10257,-4.284025 1.85944,-2.413013 2.94197,-5.632967 2.94197,-8.75082 0,-3.117852 -1.08253,-6.095204 -2.94197,-8.091501 -1.85945,-1.996297 -4.47291,-2.986952 -7.10257,-2.692289 -0.14384,0.01246 -0.28774,0.02858 -0.43159,0.04836 z"
       id="path3746"
       inkscape:connector-curvature="0"
       sodipodi:nodetypes="sssscssscssssscssscssssscssscssssscssscssssscssscs" />
  </g>
</svg>
