<?xml version="1.0" encoding="UTF-8" standalone="no"?>
<!-- Creator: CorelDRAW -->

<svg
   xmlns:dc="http://purl.org/dc/elements/1.1/"
   xmlns:cc="http://creativecommons.org/ns#"
   xmlns:rdf="http://www.w3.org/1999/02/22-rdf-syntax-ns#"
   xmlns:svg="http://www.w3.org/2000/svg"
   xmlns="http://www.w3.org/2000/svg"
   xmlns:xlink="http://www.w3.org/1999/xlink"
   xmlns:sodipodi="http://sodipodi.sourceforge.net/DTD/sodipodi-0.dtd"
   xmlns:inkscape="http://www.inkscape.org/namespaces/inkscape"
   xml:space="preserve"
   width="128"
   height="128"
   style="fill-rule:evenodd"
   viewBox="0 0 36.124445 36.124446"
   id="svg2"
   version="1.1"
   inkscape:version="0.48.3.1 r9886"
   sodipodi:docname="huayra-motion.svg"
   inkscape:export-filename="/home/alumno/.icons/huayra-dev/22x22/all/start-here.png"
   inkscape:export-xdpi="123"
   inkscape:export-ydpi="123"><metadata
   id="metadata336"><rdf:RDF><cc:Work
       rdf:about=""><dc:format>image/svg+xml</dc:format><dc:type
         rdf:resource="http://purl.org/dc/dcmitype/StillImage" /><dc:title /></cc:Work></rdf:RDF></metadata><sodipodi:namedview
   pagecolor="#9b9b9b"
   bordercolor="#666666"
   borderopacity="1"
   objecttolerance="10"
   gridtolerance="10"
   guidetolerance="10"
   inkscape:pageopacity="0"
   inkscape:pageshadow="2"
   inkscape:window-width="1366"
   inkscape:window-height="717"
   id="namedview334"
   showgrid="false"
   inkscape:zoom="2.4502196"
   inkscape:cx="81.002655"
   inkscape:cy="68.944986"
   inkscape:window-x="0"
   inkscape:window-y="0"
   inkscape:window-maximized="1"
   inkscape:current-layer="svg2"
   inkscape:snap-global="false" />
 <defs
   id="defs4"><linearGradient
     id="linearGradient5245"><stop
       id="stop5247"
       offset="0"
       style="stop-color:#e1f2f7;stop-opacity:1;" /><stop
       id="stop5249"
       offset="1"
       style="stop-color:#287d91;stop-opacity:1;" /></linearGradient><linearGradient
     id="linearGradient5154"><stop
       style="stop-color:#f0f8fb;stop-opacity:1;"
       offset="0"
       id="stop5156" /><stop
       style="stop-color:#c4e5ef;stop-opacity:0;"
       offset="1"
       id="stop5158" /></linearGradient><linearGradient
     id="linearGradient5063"><stop
       style="stop-color:#d8eef4;stop-opacity:1;"
       offset="0"
       id="stop5065" /><stop
       style="stop-color:#e1f2f7;stop-opacity:0;"
       offset="1"
       id="stop5067" /></linearGradient><linearGradient
     id="linearGradient4985"><stop
       style="stop-color:#e9f6f9;stop-opacity:1;"
       offset="0"
       id="stop4987" /><stop
       style="stop-color:#6ac2d6;stop-opacity:0;"
       offset="1"
       id="stop4989" /></linearGradient><linearGradient
     id="linearGradient4975"><stop
       style="stop-color:#73c5d9;stop-opacity:1;"
       offset="0"
       id="stop4977" /><stop
       style="stop-color:#236e80;stop-opacity:1;"
       offset="1"
       id="stop4979" /></linearGradient><inkscape:path-effect
     effect="skeletal"
     id="path-effect3279"
     is_visible="true"
     pattern="M 0,5 C 0,2.24 2.24,0 5,0 7.76,0 10,2.24 10,5 10,7.76 7.76,10 5,10 2.24,10 0,7.76 0,5 z"
     copytype="single_stretched"
     prop_scale="1"
     scale_y_rel="false"
     spacing="0"
     normal_offset="0"
     tang_offset="0"
     prop_units="false"
     vertical_pattern="false"
     fuse_tolerance="0" /><inkscape:path-effect
     effect="skeletal"
     id="path-effect3245"
     is_visible="true"
     pattern="M 0,5 C 0,2.24 2.24,0 5,0 7.76,0 10,2.24 10,5 10,7.76 7.76,10 5,10 2.24,10 0,7.76 0,5 z"
     copytype="single"
     prop_scale="0.07"
     scale_y_rel="true"
     spacing="0.3"
     normal_offset="0"
     tang_offset="0"
     prop_units="false"
     vertical_pattern="false"
     fuse_tolerance="0" /><style
     type="text/css"
     id="style6">
   
    .fil0 {fill:#99AE6A}
    .fil4 {fill:#73A848}
    .fil8 {fill:#6F448A;fill-rule:nonzero}
    .fil1 {fill:#99AE6A;fill-rule:nonzero}
    .fil3 {fill:#ABA0C0;fill-rule:nonzero}
    .fil2 {fill:#BA8FBA;fill-rule:nonzero}
    .fil5 {fill:#73A848;fill-rule:nonzero}
    .fil6 {fill:#98227A;fill-rule:nonzero}
    .fil9 {fill:#B299BF;fill-rule:nonzero}
    .fil7 {fill:#D189B2;fill-rule:nonzero}
   
  </style><linearGradient
     inkscape:collect="always"
     xlink:href="#linearGradient4975"
     id="linearGradient4981"
     x1="150.12842"
     y1="343.41885"
     x2="141.27963"
     y2="313.30615"
     gradientUnits="userSpaceOnUse" /><linearGradient
     inkscape:collect="always"
     xlink:href="#linearGradient4985"
     id="linearGradient4991"
     x1="209.90964"
     y1="125.00735"
     x2="228.37466"
     y2="159.5919"
     gradientUnits="userSpaceOnUse" /><linearGradient
     inkscape:collect="always"
     xlink:href="#linearGradient5154"
     id="linearGradient5160"
     x1="40.254642"
     y1="37.115364"
     x2="61.34063"
     y2="66.417572"
     gradientUnits="userSpaceOnUse"
     gradientTransform="matrix(1.2321225,0,0,1.2321225,-113.7956,-49.163671)" /><linearGradient
     inkscape:collect="always"
     xlink:href="#linearGradient4975"
     id="linearGradient5257"
     x1="59.446133"
     y1="38.337811"
     x2="49.868595"
     y2="31.196501"
     gradientUnits="userSpaceOnUse"
     gradientTransform="matrix(1.215279,0.20303425,-0.20303425,1.215279,-99.938611,-58.799947)" /><linearGradient
     inkscape:collect="always"
     xlink:href="#linearGradient4975"
     id="linearGradient5265"
     x1="53.646587"
     y1="47.038986"
     x2="44.327694"
     y2="40.473587"
     gradientUnits="userSpaceOnUse"
     gradientTransform="matrix(1.215211,0.20344032,-0.20344032,1.215211,-101.91452,-57.321933)" /><linearGradient
     inkscape:collect="always"
     xlink:href="#linearGradient4975"
     id="linearGradient5273"
     x1="49.176533"
     y1="58.161556"
     x2="42.248756"
     y2="53.55426"
     gradientUnits="userSpaceOnUse"
     gradientTransform="matrix(1.2321225,0,0,1.2321225,-113.39638,-47.124744)" /><linearGradient
     inkscape:collect="always"
     xlink:href="#linearGradient4975"
     id="linearGradient5281"
     x1="47.042896"
     y1="66.222923"
     x2="35.628872"
     y2="57.929787"
     gradientUnits="userSpaceOnUse"
     gradientTransform="matrix(1.2321225,0,0,1.2321225,-113.34492,-48.925866)" /><linearGradient
     inkscape:collect="always"
     xlink:href="#linearGradient4975"
     id="linearGradient5289"
     x1="34.375187"
     y1="50.968788"
     x2="42.396248"
     y2="50.968788"
     gradientUnits="userSpaceOnUse"
     gradientTransform="matrix(1.2636709,0,0,1.2636709,-113.72767,-50.969327)" /><linearGradient
     inkscape:collect="always"
     xlink:href="#linearGradient4975"
     id="linearGradient5297"
     x1="39.856121"
     y1="34.569763"
     x2="41.74371"
     y2="34.569763"
     gradientUnits="userSpaceOnUse" /><linearGradient
     inkscape:collect="always"
     xlink:href="#linearGradient4975"
     id="linearGradient5305"
     x1="39.856121"
     y1="34.569763"
     x2="41.74371"
     y2="34.569763"
     gradientUnits="userSpaceOnUse" /><linearGradient
     inkscape:collect="always"
     xlink:href="#linearGradient5316-76"
     id="linearGradient31057"
     gradientUnits="userSpaceOnUse"
     gradientTransform="translate(-274.43625,37.414147)"
     x1="275.29071"
     y1="1103.7349"
     x2="275.29071"
     y2="1121.6162" /><linearGradient
     id="linearGradient5316-76"><stop
       style="stop-color:#aac736;stop-opacity:1;"
       offset="0"
       id="stop5320-4" /><stop
       style="stop-color:#5d8b2c;stop-opacity:1;"
       offset="1"
       id="stop5322-6" /></linearGradient><linearGradient
     inkscape:collect="always"
     xlink:href="#linearGradient5165-7-9-8-2-67"
     id="linearGradient31059"
     gradientUnits="userSpaceOnUse"
     gradientTransform="translate(-274.43625,37.414147)"
     x1="275.29071"
     y1="1094.0099"
     x2="275.29071"
     y2="1117.1519" /><linearGradient
     id="linearGradient5165-7-9-8-2-67"><stop
       id="stop5167-4-8-6-9-1"
       style="stop-color:#ffffff;stop-opacity:1"
       offset="0" /><stop
       id="stop5169-5-5-2-9-1"
       style="stop-color:#ffffff;stop-opacity:0"
       offset="1" /></linearGradient><linearGradient
     inkscape:collect="always"
     xlink:href="#linearGradient5316-76"
     id="linearGradient31061"
     gradientUnits="userSpaceOnUse"
     gradientTransform="translate(-274.43625,37.414147)"
     x1="280.65372"
     y1="1100.6647"
     x2="292.69617"
     y2="1118.8726" /><linearGradient
     id="linearGradient11847"><stop
       style="stop-color:#aac736;stop-opacity:1;"
       offset="0"
       id="stop11849" /><stop
       style="stop-color:#5d8b2c;stop-opacity:1;"
       offset="1"
       id="stop11851" /></linearGradient><linearGradient
     inkscape:collect="always"
     xlink:href="#linearGradient5344-0"
     id="linearGradient31063"
     gradientUnits="userSpaceOnUse"
     gradientTransform="translate(-274.43625,37.414147)"
     x1="317.94461"
     y1="1142.4757"
     x2="283.81964"
     y2="1103.8007" /><linearGradient
     id="linearGradient5344-0"><stop
       style="stop-color:#000000;stop-opacity:1;"
       offset="0"
       id="stop5346-9" /><stop
       style="stop-color:#000000;stop-opacity:0;"
       offset="1"
       id="stop5348-5" /></linearGradient><linearGradient
     inkscape:collect="always"
     xlink:href="#linearGradient5344-0"
     id="linearGradient11925"
     gradientUnits="userSpaceOnUse"
     gradientTransform="matrix(1.505182,0,0,1.5053886,-409.59803,-1655.0993)"
     x1="317.94461"
     y1="1142.4757"
     x2="283.81964"
     y2="1103.8007" /><linearGradient
     inkscape:collect="always"
     xlink:href="#linearGradient5316-76"
     id="linearGradient11928"
     gradientUnits="userSpaceOnUse"
     gradientTransform="matrix(1.505182,0,0,1.5053886,-409.59803,-1655.0993)"
     x1="280.65372"
     y1="1100.6647"
     x2="292.69617"
     y2="1118.8726" /><linearGradient
     inkscape:collect="always"
     xlink:href="#linearGradient5165-7-9-8-2-67"
     id="linearGradient11931"
     gradientUnits="userSpaceOnUse"
     gradientTransform="matrix(1.505182,0,0,1.5053886,-409.59803,-1655.0993)"
     x1="275.29071"
     y1="1094.0099"
     x2="275.29071"
     y2="1117.1519" /><linearGradient
     inkscape:collect="always"
     xlink:href="#linearGradient5316-76"
     id="linearGradient11934"
     gradientUnits="userSpaceOnUse"
     gradientTransform="matrix(1.505182,0,0,1.5053886,-409.59803,-1655.0993)"
     x1="275.29071"
     y1="1103.7349"
     x2="275.29071"
     y2="1121.6162" /><linearGradient
     inkscape:collect="always"
     xlink:href="#linearGradient5344"
     id="linearGradient3105"
     x1="7.9531264"
     y1="2.2416961"
     x2="13.667412"
     y2="-64.464973"
     gradientUnits="userSpaceOnUse"
     gradientTransform="matrix(0.28222223,0,0,0.28222223,-5.3300216e-7,39.511113)" /><linearGradient
     id="linearGradient5344"><stop
       style="stop-color:#000000;stop-opacity:1;"
       offset="0"
       id="stop5346" /><stop
       style="stop-color:#000000;stop-opacity:0;"
       offset="1"
       id="stop5348" /></linearGradient><linearGradient
     inkscape:collect="always"
     xlink:href="#linearGradient5165-7-9-8-2"
     id="linearGradient3103"
     x1="22.933788"
     y1="-144.76825"
     x2="18.618809"
     y2="-96.331688"
     gradientUnits="userSpaceOnUse"
     gradientTransform="matrix(0.28222223,0,0,0.28222223,-5.3300216e-7,39.511113)" /><linearGradient
     id="linearGradient5165-7-9-8-2"><stop
       id="stop5167-4-8-6-9"
       style="stop-color:#ffffff;stop-opacity:1"
       offset="0" /><stop
       id="stop5169-5-5-2-9"
       style="stop-color:#ffffff;stop-opacity:0"
       offset="1" /></linearGradient><linearGradient
     inkscape:collect="always"
     xlink:href="#linearGradient5344"
     id="linearGradient3107"
     gradientUnits="userSpaceOnUse"
     gradientTransform="matrix(1.5053914,0,0,1.5053914,-409.63999,-1655.1085)"
     x1="305.23422"
     y1="1137.0681"
     x2="283.35095"
     y2="1104.2024" /><linearGradient
     id="linearGradient3245"><stop
       style="stop-color:#000000;stop-opacity:1;"
       offset="0"
       id="stop3247" /><stop
       style="stop-color:#000000;stop-opacity:0;"
       offset="1"
       id="stop3249" /></linearGradient></defs>
 
<path
   style="fill:#2a7fff;fill-opacity:1;fill-rule:evenodd;stroke:none"
   d="M 9.6572916,1.4287508 C 9.282142,1.4443859 8.9374677,1.5076771 8.6254166,1.6051397 l -5.1770142,0.7672917 -0.1411111,0 0,0.052917 C 1.6942499,2.721419 0.86430509,4.0035293 0.86430509,5.57389 l 0,23.900694 c -0.0198233,1.595194 0.57858481,2.84909 1.78152781,3.245556 l 5.3534031,1.675695 c 0.00589,0.0029 0.011721,0.006 0.017639,0.0088 0.5341679,0.25663 1.1752933,0.347839 1.9138195,0.229306 L 32.023403,31.300223 C 33.63786,31.125319 34.695144,29.588848 34.6075,27.454946 L 34.722153,6.4911122 C 34.784941,4.8075606 33.931456,3.3933788 32.085139,3.1132648 L 10.115903,1.4375703 c -0.1570033,-0.00771 -0.31131,-0.014958 -0.4586114,-0.00883 z"
   id="path30949"
   inkscape:connector-curvature="0" /><path
   style="fill:url(#linearGradient3107);fill-rule:evenodd;stroke:none"
   d="M 8.2549999,4.7184038 8.2461799,31.92639 c 0.1266329,0.976003 0.3972408,2.292931 1.2259029,2.751667 0.1487672,-0.0065 0.301273,-0.01885 0.4586111,-0.0441 L 32.023403,31.300209 C 33.63786,31.125305 34.695144,29.588833 34.6075,27.454931 L 34.722153,6.4911122 C 34.784933,4.8075606 33.931456,3.3933788 32.085139,3.1132648 L 10.633696,1.4770645 C 9.5129177,1.358342 8.2586513,2.8262476 8.2549999,4.7184038 z M 8.5107638,34.572223 c 0.1828698,0.04841 0.3710305,0.09205 0.5732639,0.105834 z"
   id="path30953"
   inkscape:connector-curvature="0"
   sodipodi:nodetypes="ccccccccccccc" /><path
   style="fill:url(#linearGradient3103);fill-rule:evenodd;stroke:none;display:inline"
   d="m 9.8160416,1.4993064 -6.3676392,0.873125 -0.1411111,0 0,0.052917 C 1.6942498,2.721419 0.86430509,4.0035293 0.86430509,5.57389 l 0,7.055556 7.39069481,0 0,-7.9110422 C 8.3529454,3.3307791 8.8967913,1.9064035 9.8160416,1.4993064 z"
   id="path3073"
   inkscape:connector-curvature="0" /><path
   style="fill:url(#linearGradient3105);fill-rule:evenodd;stroke:none;display:inline"
   d="m 0.86430509,19.305765 0,10.168819 C 0.84448179,31.069778 1.44289,32.323674 2.6458329,32.72014 L 7.6288193,34.422293 9.745486,34.79271 C 8.6982034,34.497821 8.3858945,33.003215 8.2461804,31.92639 l 0,-12.620625 -7.38187531,0 z"
   id="path3081"
   inkscape:connector-curvature="0" /><path
   inkscape:connector-curvature="0"
   id="path30957"
   d="M 10.110614,1.43494 C 9.6211355,1.4108664 9.1884279,1.4725687 8.7933978,1.5764265 L 3.2893109,2.4232455 C 1.676271,2.7193164 0.84304986,4.0047428 0.84304986,5.5751035 l 0,23.8981375 c -0.0198233,1.595193 0.58470904,2.849618 1.78765194,3.246083 l 5.55113,1.740445 c 0.5058102,0.208921 1.0653855,0.296672 1.740609,0.188299 L 32.032877,31.307911 c 1.614458,-0.174752 2.675035,-1.723587 2.587391,-3.857489 L 34.714358,6.4688844 C 34.777138,4.7853328 33.926241,3.4089914 32.079923,3.1288773 L 10.110616,1.435242 z"
   style="fill:none;stroke:#344b63;stroke-width:0.75269574;stroke-linecap:butt;stroke-linejoin:miter;stroke-miterlimit:4;stroke-opacity:1;stroke-dasharray:none;display:inline"
   sodipodi:nodetypes="ccccccccccccc" /><path
   style="fill:#000000;fill-opacity:0.54771788;fill-rule:evenodd;stroke:#000000;stroke-width:0.98944962;stroke-opacity:0.53941914"
   d="m 29.232661,3.8479741 c -0.15691,-3.262e-4 -0.314968,0.010325 -0.474682,0.026471 -2.55545,0.2583657 -4.449467,2.5735868 -4.228993,5.1704302 0.22047,2.5968417 2.476186,4.4847087 5.031639,4.2263407 2.555452,-0.258365 4.449466,-2.573586 4.228992,-5.1704289 -0.206692,-2.4345399 -2.203291,-4.24792 -4.556956,-4.2528111 z m -5.886067,7.6850599 c -0.493985,0.200634 -0.932347,0.46099 -1.28596,0.917618 -1.060745,1.36977 -0.840568,3.35025 0.491945,4.411631 1.33252,1.061388 3.297709,0.813907 4.358452,-0.555865 0.475958,-0.614617 0.602897,-1.344423 0.578249,-2.064644 -0.905898,0.152015 -1.964425,-0.07647 -2.865358,-0.794093 -0.661436,-0.526851 -1.052953,-1.226982 -1.277328,-1.914647 z M 9.5203761,16.712287 c -0.4718617,0.0477 -0.8260946,0.473405 -0.7853846,0.952913 0.040709,0.479508 0.4602429,0.824152 0.9321047,0.776446 C 10.138958,18.393948 10.48456,17.96824 10.44385,17.488734 10.40314,17.009225 9.9922375,16.664581 9.5203761,16.712287 z m 11.2025159,0.679391 c -0.234728,0.0433 -0.702245,0.209346 -0.932104,0.317637 -0.34501,0.161922 -0.632084,0.382448 -0.932106,0.688215 -1.199709,1.223789 -1.418036,3.194632 -0.491944,4.314573 0.926153,1.119887 2.640905,0.95909 3.840616,-0.264697 1.031435,-1.052218 1.247243,-2.526486 0.724971,-3.652829 -0.908189,0.06342 -1.620662,-0.589288 -2.209433,-1.402899 z m -8.302635,0.652921 c -0.05458,-1.13e-4 -0.108427,0.0032 -0.163982,0.0088 -0.888887,0.08986 -1.552521,0.896658 -1.475832,1.799944 0.0767,0.903285 0.863125,1.563355 1.752012,1.473485 0.88889,-0.08986 1.543889,-0.89666 1.4672,-1.799945 -0.0719,-0.84683 -0.760717,-1.48062 -1.579398,-1.482308 z m 2.89125,3.467541 c -0.121001,-3.45e-4 -0.255636,0.01217 -0.397007,0.02648 l 0,-0.0088 c -1.292443,0.130671 -2.295058,1.368775 -2.183542,2.682271 0.111505,1.313374 1.296751,2.204137 2.589179,2.073465 0.07637,-0.0077 0.159807,-0.0034 0.233026,-0.01764 0.0091,-0.0016 -0.01774,-0.112459 -0.0086,-0.114702 0.03916,-0.354127 -0.127323,-1.054216 0.155351,-1.755829 0.282701,-0.701618 0.561698,-1.286824 1.096085,-1.561717 -0.262808,-0.939646 -0.637451,-1.321071 -1.484462,-1.323489 z m 2.235325,2.664624 c -0.0313,0.02368 -0.06472,0.02714 -0.09493,0.05294 -0.427301,0.364517 -0.823821,0.958877 -1.027042,1.747006 -0.406209,1.576408 0.02577,3.259416 0.923474,3.723416 0.897661,0.463947 1.941283,-0.39116 2.347523,-1.967589 0.282324,-1.095788 0.176884,-2.272527 -0.215764,-3.017553 -0.668733,0.138722 -1.369194,-0.123029 -1.933254,-0.53822 z m 3.210582,5.426306 c -0.213843,0.0064 -0.435639,0.0195 -0.664557,0.04412 -0.625046,0.981443 -1.862389,1.452239 -2.59781,1.367606 -0.735416,-0.08464 -1.152497,-0.715577 -1.372264,-1.129378 -0.13533,0.02325 -0.289378,0.03013 -0.43153,0.04412 -0.04738,0.0047 -0.09565,0.0087 -0.13809,0.01765 -1.533861,0.325861 -2.559952,0.807349 -2.537395,1.305842 0.0303,0.664636 1.955883,1.082745 4.332559,0.855856 3.693981,-0.318173 6.03696,-1.161889 6.006897,-1.826414 -0.01671,-0.357076 -1.100904,-0.72435 -2.59781,-0.679391 z"
   id="path11965"
   inkscape:connector-curvature="0" /><path
   style="fill:#ffffff;fill-rule:evenodd;stroke:none"
   d="m 29.353327,3.8479741 c -0.156911,-3.262e-4 -0.314966,0.010325 -0.474682,0.026471 -2.55545,0.2583667 -4.449466,2.5735868 -4.228993,5.1704302 0.22047,2.5968427 2.476187,4.4847087 5.031638,4.2263407 2.555453,-0.258365 4.449467,-2.573587 4.228993,-5.1704289 -0.206692,-2.4345399 -2.20329,-4.24792 -4.556956,-4.2528111 z m -5.601258,7.6850599 c -0.493984,0.200634 -0.932347,0.46099 -1.285958,0.917618 -1.060747,1.369771 -0.84057,3.35025 0.491944,4.411631 1.33252,1.061388 3.297709,0.813907 4.358451,-0.555865 0.475959,-0.614617 0.602898,-1.344423 0.578251,-2.064644 -0.905902,0.152015 -1.964426,-0.07647 -2.865358,-0.794093 -0.661439,-0.526851 -1.052953,-1.226982 -1.27733,-1.914647 z M 9.9172224,16.712287 c -0.4718628,0.0477 -0.8174646,0.473405 -0.7767543,0.952913 0.040709,0.479507 0.4516128,0.824153 0.9234729,0.776446 0.471863,-0.0477 0.826095,-0.473405 0.785385,-0.952912 -0.04071,-0.479508 -0.460243,-0.824153 -0.9321036,-0.776447 z m 11.2111466,0.679391 c -0.23473,0.0433 -0.702246,0.209346 -0.932105,0.317637 -0.345009,0.161922 -0.632083,0.382448 -0.932105,0.688215 -1.19971,1.223789 -1.418036,3.194632 -0.491944,4.314573 0.92615,1.119887 2.640905,0.959089 3.840616,-0.264697 1.031435,-1.052218 1.247242,-2.526486 0.724969,-3.652829 -0.908188,0.06342 -1.620661,-0.589288 -2.209431,-1.402899 z m -8.302637,0.652921 c -0.05458,-1.13e-4 -0.108425,0.0032 -0.163981,0.0088 -0.888887,0.08986 -1.552522,0.896658 -1.475832,1.799944 0.07669,0.903285 0.863125,1.563355 1.752012,1.473485 0.888889,-0.08986 1.543888,-0.89666 1.467201,-1.799945 -0.07191,-0.846831 -0.760719,-1.48062 -1.5794,-1.482308 z m 2.891252,3.467541 c -0.121003,-3.46e-4 -0.255636,0.01217 -0.39701,0.02648 l 0,-0.0088 c -1.292441,0.130671 -2.295057,1.368775 -2.18354,2.682271 0.111505,1.313374 1.296749,2.204137 2.58918,2.073465 0.07637,-0.0077 0.159807,-0.0034 0.233025,-0.01764 0.0091,-0.0016 -0.01774,-0.112459 -0.0086,-0.114702 0.03915,-0.354127 -0.127324,-1.054216 0.155351,-1.755829 0.2827,-0.701618 0.561697,-1.286824 1.096085,-1.561717 -0.262808,-0.939646 -0.637452,-1.321072 -1.484462,-1.323489 z m 2.373414,2.664624 c -0.0313,0.02368 -0.06472,0.02714 -0.09493,0.05294 -0.4273,0.364517 -0.82382,0.958877 -1.02704,1.747006 -0.40621,1.576408 0.02577,3.259416 0.923474,3.723416 0.897659,0.463947 1.941282,-0.39116 2.347522,-1.967589 0.282325,-1.095788 0.176884,-2.272527 -0.215765,-3.017553 -0.668732,0.138722 -1.369193,-0.123029 -1.933253,-0.53822 z m 3.072492,5.426306 c -0.213844,0.0064 -0.435639,0.0195 -0.664556,0.04412 -0.625048,0.981443 -1.862389,1.452239 -2.59781,1.367606 -0.735418,-0.08464 -1.152498,-0.715577 -1.372264,-1.129378 -0.135332,0.02325 -0.289379,0.03013 -0.431531,0.04412 -0.04738,0.0047 -0.09565,0.0087 -0.13809,0.01765 -1.533861,0.325861 -2.559953,0.807349 -2.537395,1.305842 0.0303,0.664636 1.955884,1.082745 4.33256,0.855856 3.693979,-0.318173 6.02833,-1.161889 5.998265,-1.826414 -0.01671,-0.357076 -1.092271,-0.72435 -2.589179,-0.679391 z"
   id="path5408-0-1-9-5"
   inkscape:connector-curvature="0" /></svg>