<?xml version="1.0" encoding="UTF-8" standalone="no"?>
<!-- Created with Inkscape (http://www.inkscape.org/) -->

<svg
   xmlns:dc="http://purl.org/dc/elements/1.1/"
   xmlns:cc="http://creativecommons.org/ns#"
   xmlns:rdf="http://www.w3.org/1999/02/22-rdf-syntax-ns#"
   xmlns:svg="http://www.w3.org/2000/svg"
   xmlns="http://www.w3.org/2000/svg"
   xmlns:xlink="http://www.w3.org/1999/xlink"
   xmlns:sodipodi="http://sodipodi.sourceforge.net/DTD/sodipodi-0.dtd"
   xmlns:inkscape="http://www.inkscape.org/namespaces/inkscape"
   width="128"
   height="128"
   id="svg6934"
   sodipodi:version="0.32"
   inkscape:version="0.48.3.1 r9886"
   version="1.0"
   sodipodi:docname="liferea.svg"
   inkscape:output_extension="org.inkscape.output.svg.inkscape">
  <defs
     id="defs6936">
    <linearGradient
       id="linearGradient5165-7-9-8-2">
      <stop
         id="stop5167-4-8-6-9"
         style="stop-color:#ffffff;stop-opacity:1"
         offset="0" />
      <stop
         id="stop5169-5-5-2-9"
         style="stop-color:#ffffff;stop-opacity:0"
         offset="1" />
    </linearGradient>
    <linearGradient
       id="linearGradient5344">
      <stop
         style="stop-color:#000000;stop-opacity:1;"
         offset="0"
         id="stop5346" />
      <stop
         style="stop-color:#000000;stop-opacity:0;"
         offset="1"
         id="stop5348" />
    </linearGradient>
    <linearGradient
       inkscape:collect="always"
       xlink:href="#linearGradient5165-7-9-8-2"
       id="linearGradient3103"
       x1="22.933788"
       y1="-144.76825"
       x2="18.618809"
       y2="-96.331688"
       gradientUnits="userSpaceOnUse"
       gradientTransform="translate(0,140)" />
    <linearGradient
       inkscape:collect="always"
       xlink:href="#linearGradient5344"
       id="linearGradient3105"
       x1="7.9531264"
       y1="2.2416961"
       x2="13.667412"
       y2="-64.464973"
       gradientUnits="userSpaceOnUse"
       gradientTransform="translate(0,140)" />
    <linearGradient
       inkscape:collect="always"
       xlink:href="#linearGradient5344"
       id="linearGradient3107"
       gradientUnits="userSpaceOnUse"
       gradientTransform="matrix(5.3340639,0,0,5.3340639,-1451.4802,-5864.5574)"
       x1="305.23422"
       y1="1137.0681"
       x2="283.35095"
       y2="1104.2024" />
  </defs>
  <sodipodi:namedview
     id="base"
     pagecolor="#ffffff"
     bordercolor="#666666"
     borderopacity="1.0"
     inkscape:pageopacity="0.0"
     inkscape:pageshadow="2"
     inkscape:zoom="1.979899"
     inkscape:cx="96.362758"
     inkscape:cy="64.298291"
     inkscape:document-units="px"
     inkscape:current-layer="layer1"
     showgrid="false"
     inkscape:window-width="1280"
     inkscape:window-height="713"
     inkscape:window-x="0"
     inkscape:window-y="0"
     inkscape:window-maximized="0" />
  <metadata
     id="metadata6939">
    <rdf:RDF>
      <cc:Work
         rdf:about="">
        <dc:format>image/svg+xml</dc:format>
        <dc:type
           rdf:resource="http://purl.org/dc/dcmitype/StillImage" />
        <dc:title />
      </cc:Work>
    </rdf:RDF>
  </metadata>
  <g
     inkscape:label="Capa 1"
     inkscape:groupmode="layer"
     id="layer1">
    <path
       style="fill:#ff761a;fill-opacity:1;fill-rule:evenodd;stroke:none"
       d="m 34.21875,5.0625 c -1.32927,0.0554 -2.550557,0.27966 -3.65625,0.625 l -18.34375,2.71875 -0.5,0 0,0.1875 C 6.0032494,9.64282 3.0625,14.18573 3.0625,19.75 l 0,84.6875 c -0.07024,5.65226 2.0501037,10.0952 6.3125,11.5 l 18.96875,5.9375 c 0.02087,0.0102 0.04153,0.0212 0.0625,0.0313 1.892721,0.90932 4.164425,1.2325 6.78125,0.8125 l 78.28125,-11.8125 c 5.72052,-0.61974 9.4668,-6.06393 9.15625,-13.625 L 123.03125,23 c 0.22248,-5.96534 -2.80168,-10.97622 -9.34375,-11.96875 L 35.84375,5.09375 c -0.55631,-0.0273 -1.103066,-0.053 -1.625,-0.0313 z"
       id="path30949"
       inkscape:connector-curvature="0" />
    <path
       style="fill:url(#linearGradient3107);fill-rule:evenodd;stroke:none"
       d="M 29.25,16.71875 29.21875,113.125 c 0.448699,3.45828 1.407546,8.12456 4.34375,9.75 0.527128,-0.0229 1.067503,-0.0668 1.625,-0.15625 l 78.28125,-11.8125 c 5.72052,-0.61974 9.4668,-6.06393 9.15625,-13.625 L 123.03125,23 C 123.2537,17.03466 120.22957,12.02378 113.6875,11.03125 L 37.678453,5.23369 C 33.707189,4.81302 29.262938,10.01426 29.25,16.71875 z M 30.15625,122.5 c 0.647964,0.17153 1.314675,0.32617 2.03125,0.375 z"
       id="path30953"
       inkscape:connector-curvature="0"
       sodipodi:nodetypes="ccccccccccccc" />
    <path
       style="fill:url(#linearGradient3103);fill-rule:evenodd;stroke:none;display:inline"
       d="m 34.78125,5.3125 -22.5625,3.09375 -0.5,0 0,0.1875 C 6.003249,9.64282 3.0625,14.18573 3.0625,19.75 l 0,25 26.1875,0 0,-28.03125 C 29.597051,11.80197 31.524064,6.75497 34.78125,5.3125 z"
       id="path3073"
       inkscape:connector-curvature="0" />
    <path
       style="fill:url(#linearGradient3105);fill-rule:evenodd;stroke:none;display:inline"
       d="m 3.0625,68.40625 0,36.03125 c -0.07024,5.65226 2.050104,10.0952 6.3125,11.5 l 17.65625,6.03125 7.5,1.3125 c -3.710844,-1.04488 -4.81745,-6.34073 -5.3125,-10.15625 l 0,-44.71875 -26.15625,0 z"
       id="path3081"
       inkscape:connector-curvature="0" />
    <path
       inkscape:connector-curvature="0"
       id="path30957"
       d="m 35.825012,5.08443 c -1.734374,-0.0853 -3.26759,0.13333 -4.667303,0.50133 L 11.65504,8.5863 C 5.9395447,9.63537 2.9871862,14.19003 2.9871862,19.7543 l 0,84.67844 c -0.07024,5.65226 2.0718035,10.09707 6.3341998,11.50187 l 19.669357,6.16693 c 1.792241,0.74027 3.774988,1.0512 6.167512,0.6672 l 78.344065,-11.8352 c 5.72052,-0.6192 9.47847,-6.1072 9.16792,-13.66827 l 0.33339,-74.34403 C 123.22608,16.9559 120.21109,12.0791 113.66902,11.08657 L 35.825018,5.0855 z"
       style="fill:none;stroke:#344b63;stroke-width:2.667032;stroke-linecap:butt;stroke-linejoin:miter;stroke-miterlimit:4;stroke-opacity:1;stroke-dasharray:none;display:inline"
       sodipodi:nodetypes="ccccccccccccc" />
    <path
       inkscape:connector-curvature="0"
       id="path3824"
       d="m 48.491569,14.677347 c -2.365822,-0.01519 -4.785658,0.0826 -7.254516,0.28125 a 7.8003491,8.0989642 13.900217 1 0 0.495627,15.84375 c 21.770367,-1.751624 36.424089,5.977808 46.14951,17.9375 9.725421,11.959692 14.06548,28.600638 12.79809,43.71875 a 7.9258055,8.2292234 13.900217 1 0 15.86597,0.5625 c 1.59463,-19.021533 -3.59842,-39.254952 -16.12249,-54.65625 -10.958566,-13.476136 -27.883561,-22.896382 -49.589445,-23.625 -0.77521,-0.02602 -1.554139,-0.05744 -2.342746,-0.0625 z m -3.250218,31.15625 c -1.780858,0.03057 -3.57687,0.19961 -5.414278,0.5 a 7.8003487,8.0989637 13.900216 1 0 1.779385,15.6875 c 8.618427,-1.408991 16.241833,2.214063 21.9795,9.0625 5.737669,6.848437 8.871733,16.763735 7.742329,25.78125 a 7.912153,8.2150482 13.900216 0 0 15.792932,1.21875 C 88.857405,84.221352 84.382252,70.588626 75.973789,60.552347 68.616384,51.770603 57.707353,45.619614 45.241351,45.833597 z m 1.277161,33.34375 c -7.07338,0 -12.919832,6.685223 -13.052324,14.9375 -0.132491,8.252273 5.499297,14.937503 12.572677,14.937503 7.073381,0 12.919832,-6.68523 13.052323,-14.937503 0.132492,-8.252277 -5.499295,-14.9375 -12.572676,-14.9375 z"
       style="fill:#000000;fill-opacity:0.2033195;stroke:#000000;stroke-width:5;stroke-miterlimit:4;stroke-dasharray:none;stroke-opacity:0.59336102000000002" />
    <path
       style="fill:#ffffff;fill-opacity:1;stroke:none"
       d="m 50.491569,14.677347 c -2.365822,-0.01519 -4.785658,0.0826 -7.254516,0.28125 a 7.8003491,8.0989642 13.900217 1 0 0.495627,15.84375 c 21.770367,-1.751624 36.424089,5.977808 46.14951,17.9375 9.725421,11.959692 14.06548,28.600638 12.79809,43.71875 a 7.9258055,8.2292234 13.900217 1 0 15.86597,0.5625 c 1.59463,-19.021533 -3.59842,-39.254952 -16.12249,-54.65625 -10.958566,-13.476136 -27.883561,-22.896382 -49.589445,-23.625 -0.77521,-0.02602 -1.554139,-0.05744 -2.342746,-0.0625 z m -3.250218,31.15625 c -1.780858,0.03057 -3.57687,0.19961 -5.414278,0.5 a 7.8003487,8.0989637 13.900216 1 0 1.779385,15.6875 c 8.618427,-1.408991 16.241833,2.214063 21.9795,9.0625 5.737669,6.848437 8.871733,16.763735 7.742329,25.78125 a 7.912153,8.2150482 13.900216 0 0 15.792932,1.21875 C 90.857405,84.221352 86.382252,70.588626 77.973789,60.552347 70.616384,51.770603 59.707353,45.619614 47.241351,45.833597 z m 1.277161,33.34375 c -7.07338,0 -12.919832,6.685223 -13.052324,14.9375 -0.132491,8.252273 5.499297,14.937503 12.572677,14.937503 7.073381,0 12.919832,-6.68523 13.052323,-14.937503 0.132492,-8.252277 -5.499295,-14.9375 -12.572676,-14.9375 z"
       id="path3040"
       inkscape:connector-curvature="0" />
  </g>
</svg>
