<?xml version="1.0" encoding="UTF-8" standalone="no"?>
<!-- Created with Inkscape (http://www.inkscape.org/) -->

<svg
   xmlns:dc="http://purl.org/dc/elements/1.1/"
   xmlns:cc="http://creativecommons.org/ns#"
   xmlns:rdf="http://www.w3.org/1999/02/22-rdf-syntax-ns#"
   xmlns:svg="http://www.w3.org/2000/svg"
   xmlns="http://www.w3.org/2000/svg"
   xmlns:xlink="http://www.w3.org/1999/xlink"
   xmlns:sodipodi="http://sodipodi.sourceforge.net/DTD/sodipodi-0.dtd"
   xmlns:inkscape="http://www.inkscape.org/namespaces/inkscape"
   width="128"
   height="128"
   id="svg2"
   sodipodi:version="0.32"
   inkscape:version="0.48.3.1 r9886"
   version="1.0"
   sodipodi:docname="drive-removable-media-symbolic.svg"
   inkscape:output_extension="org.inkscape.output.svg.inkscape">
  <defs
     id="defs4">
    <linearGradient
       id="linearGradient8702">
      <stop
         id="stop8704"
         offset="0"
         style="stop-color:#c0bfbb;stop-opacity:1;" />
      <stop
         id="stop8706"
         offset="1"
         style="stop-color:#798088;stop-opacity:1;" />
    </linearGradient>
    <linearGradient
       inkscape:collect="always"
       xlink:href="#linearGradient8702"
       id="linearGradient4743"
       x1="12.145817"
       y1="9.0693588"
       x2="118.68261"
       y2="116.58033"
       gradientUnits="userSpaceOnUse" />
  </defs>
  <sodipodi:namedview
     id="base"
     pagecolor="#ffffff"
     bordercolor="#666666"
     borderopacity="1.0"
     inkscape:pageopacity="0.0"
     inkscape:pageshadow="2"
     inkscape:zoom="2.5020702"
     inkscape:cx="83.468236"
     inkscape:cy="85.608921"
     inkscape:document-units="px"
     inkscape:current-layer="layer1"
     showgrid="false"
     inkscape:showpageshadow="false"
     inkscape:window-width="1024"
     inkscape:window-height="713"
     inkscape:window-x="0"
     inkscape:window-y="0"
     showguides="true"
     inkscape:guide-bbox="true"
     inkscape:window-maximized="0" />
  <metadata
     id="metadata7">
    <rdf:RDF>
      <cc:Work
         rdf:about="">
        <dc:format>image/svg+xml</dc:format>
        <dc:type
           rdf:resource="http://purl.org/dc/dcmitype/StillImage" />
      </cc:Work>
    </rdf:RDF>
  </metadata>
  <g
     inkscape:label="Capa 1"
     inkscape:groupmode="layer"
     id="layer1">
    <path
       style="fill:url(#linearGradient4743);fill-rule:evenodd;stroke:none;stroke-width:0.50000000000000000;stroke-linecap:round;stroke-linejoin:round;stroke-miterlimit:4;stroke-dasharray:none;stroke-opacity:1;display:inline"
       d="M 24.125 2.78125 C 23.203939 2.7670767 22.293775 2.7799475 21.40625 2.8125 C 16.09332 3.0073668 11.45651 4.0870373 7.75 5.78125 C 7.741 5.78515 7.72735 5.77735 7.71875 5.78125 C 3.39058 7.6383749 0.29675 11.442457 0.15625 16.59375 A 1.3383958 1.3383958 0 0 0 0.15625 16.625 L 0.15625 103.875 C 0.13735 107.37566 0.6486 110.4256 1.84375 112.90625 C 3.0389 115.3869 5.00706 117.25851 7.625 118.09375 A 1.3383958 1.3383958 0 0 0 7.625 118.125 C 12.36387 119.5954 17.79306 121.23958 22.03125 121.625 A 1.3383958 1.3383958 0 0 0 22.0625 121.625 C 23.62644 121.74051 25.34847 121.6604 27.21875 121.34375 L 27.25 121.34375 L 118.125 107.125 A 1.3383958 1.3383958 0 0 0 118.15625 107.125 C 122.04157 106.47595 124.66057 104.40963 126.09375 101.6875 C 127.52693 98.965365 127.875 95.674583 127.875 92.3125 L 127.8125 21.71875 C 127.80985 19.587925 127.65342 17.310894 126.78125 15.25 L 126.78125 71.53125 C 126.78125 73.176004 125.92875 74.611569 124.625 75.40625 L 124.625 90.6875 C 124.70851 92.27243 124.41617 93.336247 123.65625 94.5 L 117.9375 101.6875 C 116.78122 103.12864 115.57675 104.21417 113.5625 104.4375 L 87.15625 108.96875 C 85.578145 109.19855 84.321765 108.62624 83.59375 107.90625 L 79 103.3125 C 78.11565 102.2701 76.751936 102.32126 75.875 103.28125 L 75.875 103.25 C 70.09717 109.08016 63.0112 112.84336 55.25 114.125 C 33.11223 117.78073 13 96.915948 13 63.28125 C 13 31.388536 31.641812 8.5688334 51.84375 7.75 L 51.84375 5.65625 C 51.84375 5.3851 51.892302 5.1328111 51.9375 4.875 L 26.9375 2.90625 C 25.97802 2.8366407 25.046061 2.7954233 24.125 2.78125 z M 59.03125 4.125 C 56.720182 4.125 54.84375 6.0014318 54.84375 8.3125 L 54.84375 68.90625 C 54.84375 71.217318 56.720182 73.09375 59.03125 73.09375 L 119.625 73.09375 C 121.93607 73.09375 123.8125 71.217318 123.8125 68.90625 L 123.8125 8.3125 C 123.8125 6.0014318 121.93607 4.125 119.625 4.125 L 59.03125 4.125 z M 51.78125 14.59375 C 34.370418 16.84058 19.4375 37.043739 19.4375 64.9375 C 19.4375 95.540955 36.857364 114.51375 57 111.1875 C 64.119108 110.01189 70.626029 106.56624 75.90625 101.1875 C 77.283375 99.805603 79.280996 99.568133 80.59375 101 L 85.09375 105.8125 C 86.072742 106.96873 87.323359 107.06429 88.75 106.78125 L 113.1875 103.15625 C 114.71315 102.88308 115.88044 102.05426 116.625 101 L 122.5 93.4375 C 123.0466 92.679401 123.34321 91.814375 123.28125 90.53125 L 123.28125 75.96875 C 122.95536 76.042665 122.59889 76.0625 122.25 76.0625 L 68.96875 76.0625 C 66.221539 81.96967 61.855472 86.398391 57.09375 87.09375 C 47.605259 88.479333 39.6875 77.96601 39.6875 64.03125 C 39.6875 52.563546 44.780721 43.280727 51.84375 40.625 L 51.84375 14.59375 C 51.823251 14.596345 51.801742 14.591106 51.78125 14.59375 z M 96.28125 24.09375 C 98.65793 24.09375 100.625 25.960273 100.625 28.21875 C 100.625 30.477226 98.65793 32.3125 96.28125 32.3125 C 94.36217 32.3125 92.74836 31.123123 92.1875 29.46875 L 86.46875 29.5 C 85.82631 29.5 85.02839 29.846604 84.09375 30.625 C 83.15911 31.403397 82.14635 32.540224 81.09375 33.75 C 80.05006 34.949528 78.99471 36.242612 77.8125 37.34375 L 113.0625 37.59375 L 113.0625 34.84375 A 1.3035511 1.2277935 0 0 1 114.28125 33.59375 A 1.3035511 1.2277935 0 0 1 115.03125 33.78125 L 118.71875 35.78125 L 122.375 37.75 A 1.3035511 1.2277935 0 0 1 122.375 39.90625 L 118.71875 41.875 L 115.03125 43.875 A 1.3035511 1.2277935 0 0 1 113.0625 42.84375 L 113.0625 40.09375 L 86.59375 39.9375 C 87.54725 40.887207 88.55532 41.94857 89.59375 43.0625 C 90.82098 44.378945 92.04905 45.696944 93.125 46.625 C 94.20094 47.553056 95.2296 47.96875 95.3125 47.96875 L 101.3125 47.96875 L 101.3125 46.125 A 1.2651054 1.2651054 0 0 1 102.46875 44.875 A 1.2651054 1.2651054 0 0 1 102.59375 44.875 L 108.59375 44.875 A 1.2651054 1.2651054 0 0 1 109.8125 46.125 L 109.8125 51.84375 A 1.2651054 1.2651054 0 0 1 108.59375 53.125 L 102.59375 53.125 A 1.2651054 1.2651054 0 0 1 101.3125 51.84375 L 101.3125 50.5 L 95.3125 50.5 C 93.81617 50.5 92.72555 49.588351 91.5 48.53125 C 90.27444 47.47415 88.99027 46.142931 87.75 44.8125 C 86.50974 43.482069 85.29858 42.161147 84.3125 41.21875 C 83.81946 40.747552 83.38768 40.350022 83.0625 40.125 C 82.81865 39.956236 82.619 39.9432 82.625 39.9375 L 79.25 39.9375 L 79.25 39.875 L 68.75 39.8125 C 68.13049 42.673282 65.438 44.84375 62.25 44.84375 C 58.60658 44.84375 55.625 42.024722 55.625 38.5625 C 55.625 35.100277 58.60658 32.25 62.25 32.25 C 65.438 32.25 68.13049 34.420468 68.75 37.28125 L 73.1875 37.3125 C 74.96717 36.825682 77.11582 34.541933 79.21875 32.125 C 80.28035 30.904893 81.30805 29.654158 82.46875 28.6875 C 83.62945 27.720842 84.94185 26.96875 86.46875 26.96875 L 92.1875 26.9375 C 92.75678 25.296661 94.37238 24.09375 96.28125 24.09375 z M 51.84375 43.84375 C 46.201549 46.136754 42.1875 53.715999 42.1875 62.96875 C 42.1875 74.393101 48.68966 83.010994 56.46875 81.875 C 59.454648 81.438976 62.260352 79.232406 64.4375 76.0625 L 56.375 76.0625 C 53.862983 76.0625 51.84375 74.043267 51.84375 71.53125 L 51.84375 43.84375 z "
       id="path8898" />
  </g>
</svg>
