<?xml version="1.0" encoding="UTF-8" standalone="no"?>
<!-- Created with Inkscape (http://www.inkscape.org/) -->

<svg
   xmlns:dc="http://purl.org/dc/elements/1.1/"
   xmlns:cc="http://creativecommons.org/ns#"
   xmlns:rdf="http://www.w3.org/1999/02/22-rdf-syntax-ns#"
   xmlns:svg="http://www.w3.org/2000/svg"
   xmlns="http://www.w3.org/2000/svg"
   xmlns:xlink="http://www.w3.org/1999/xlink"
   xmlns:sodipodi="http://sodipodi.sourceforge.net/DTD/sodipodi-0.dtd"
   xmlns:inkscape="http://www.inkscape.org/namespaces/inkscape"
   width="128"
   height="128"
   id="svg31057"
   version="1.1"
   inkscape:version="0.48.3.1 r9886"
   sodipodi:docname="phone-symbolic.svg">
  <defs
     id="defs31059">
    <linearGradient
       id="linearGradient9863">
      <stop
         style="stop-color:#2f445a;stop-opacity:1;"
         offset="0"
         id="stop9865" />
      <stop
         style="stop-color:#415f7c;stop-opacity:1"
         offset="1"
         id="stop9867" />
    </linearGradient>
    <linearGradient
       id="linearGradient13598">
      <stop
         id="stop13600"
         offset="0"
         style="stop-color:#ffffff;stop-opacity:1;" />
      <stop
         id="stop13602"
         offset="1"
         style="stop-color:#ffffff;stop-opacity:0;" />
    </linearGradient>
    <linearGradient
       gradientTransform="matrix(3.4770304,0,0,3.4770304,-1689.1416,-2361.3237)"
       inkscape:collect="always"
       xlink:href="#linearGradient13598"
       id="linearGradient30951"
       gradientUnits="userSpaceOnUse"
       x1="494"
       y1="960.20593"
       x2="496.75"
       y2="972.70593" />
    <linearGradient
       gradientTransform="matrix(3.4770304,0,0,3.4770304,-1689.1416,-2361.3237)"
       inkscape:collect="always"
       xlink:href="#linearGradient13628"
       id="linearGradient30947"
       x1="508.625"
       y1="949.73718"
       x2="515.125"
       y2="955.17468"
       gradientUnits="userSpaceOnUse" />
    <linearGradient
       id="linearGradient13628">
      <stop
         style="stop-color:#c0bfbb;stop-opacity:1;"
         offset="0"
         id="stop13630" />
      <stop
         style="stop-color:#798088;stop-opacity:1;"
         offset="1"
         id="stop13632" />
    </linearGradient>
    <linearGradient
       gradientTransform="matrix(3.4770304,0,0,3.4770304,-1689.1416,-2361.3237)"
       inkscape:collect="always"
       xlink:href="#linearGradient13628"
       id="linearGradient30943"
       x1="492.1875"
       y1="966.08093"
       x2="498"
       y2="977.58093"
       gradientUnits="userSpaceOnUse" />
    <linearGradient
       gradientTransform="matrix(3.4770304,0,0,3.4770304,-1689.1416,-2361.3237)"
       inkscape:collect="always"
       xlink:href="#linearGradient13628"
       id="linearGradient30939"
       x1="495.07501"
       y1="963.39343"
       x2="521.36945"
       y2="963.39343"
       gradientUnits="userSpaceOnUse" />
    <linearGradient
       gradientTransform="matrix(3.4770304,0,0,3.4770304,-1689.1416,-2361.3237)"
       inkscape:collect="always"
       xlink:href="#linearGradient13620"
       id="linearGradient30955"
       x1="511.95337"
       y1="967.79749"
       x2="504.7265"
       y2="960.85999"
       gradientUnits="userSpaceOnUse" />
    <linearGradient
       id="linearGradient13620">
      <stop
         id="stop13622"
         offset="0"
         style="stop-color:#000000;stop-opacity:1;" />
      <stop
         id="stop13624"
         offset="1"
         style="stop-color:#000000;stop-opacity:0;" />
    </linearGradient>
    <linearGradient
       gradientTransform="matrix(3.4770304,0,0,3.4770304,-1689.1416,-2361.3237)"
       inkscape:collect="always"
       xlink:href="#linearGradient13628"
       id="linearGradient30945"
       x1="509.75"
       y1="958.58093"
       x2="510.625"
       y2="953.58093"
       gradientUnits="userSpaceOnUse" />
    <linearGradient
       gradientTransform="matrix(3.4770304,0,0,3.4770304,-1689.1416,-3285.6859)"
       inkscape:collect="always"
       xlink:href="#linearGradient13628"
       id="linearGradient30941"
       x1="487.12839"
       y1="963.48499"
       x2="518.11407"
       y2="963.48499"
       gradientUnits="userSpaceOnUse" />
    <linearGradient
       inkscape:collect="always"
       xlink:href="#linearGradient9863"
       id="linearGradient3016"
       gradientUnits="userSpaceOnUse"
       gradientTransform="matrix(3.4770305,0,0,3.4770305,-1828.223,-2361.3237)"
       x1="551.59247"
       y1="973.48254"
       x2="543.00793"
       y2="956.33521" />
    <linearGradient
       inkscape:collect="always"
       xlink:href="#linearGradient13628"
       id="linearGradient3795"
       gradientUnits="userSpaceOnUse"
       gradientTransform="matrix(3.4770304,0,0,3.4770304,-1689.1416,-3285.6859)"
       x1="487.12839"
       y1="963.48499"
       x2="518.11407"
       y2="963.48499" />
    <linearGradient
       inkscape:collect="always"
       xlink:href="#linearGradient13628"
       id="linearGradient3811"
       gradientUnits="userSpaceOnUse"
       gradientTransform="matrix(3.4770304,0,0,3.4770304,-1689.1416,-3285.6859)"
       x1="487.12839"
       y1="963.48499"
       x2="518.11407"
       y2="963.48499" />
  </defs>
  <sodipodi:namedview
     id="base"
     pagecolor="#ffffff"
     bordercolor="#666666"
     borderopacity="1.0"
     inkscape:pageopacity="0.0"
     inkscape:pageshadow="2"
     inkscape:zoom="0.7"
     inkscape:cx="75.294995"
     inkscape:cy="71.861558"
     inkscape:document-units="px"
     inkscape:current-layer="layer1"
     showgrid="false"
     inkscape:window-width="1366"
     inkscape:window-height="717"
     inkscape:window-x="0"
     inkscape:window-y="0"
     inkscape:window-maximized="1" />
  <metadata
     id="metadata31062">
    <rdf:RDF>
      <cc:Work
         rdf:about="">
        <dc:format>image/svg+xml</dc:format>
        <dc:type
           rdf:resource="http://purl.org/dc/dcmitype/StillImage" />
        <dc:title />
      </cc:Work>
    </rdf:RDF>
  </metadata>
  <g
     inkscape:label="Capa 1"
     inkscape:groupmode="layer"
     id="layer1"
     transform="translate(0,-924.36218)">
    <path
       style="fill:url(#linearGradient3811);stroke:none;display:inline"
       d="M 113.34375 13.59375 L 86.03125 14.4375 A 1.7389063 1.7389063 0 0 0 84.875 14.9375 L 66.9375 32.75 A 1.7389063 1.7389063 0 0 0 66.53125 33.40625 L 95.40625 32.375 A 1.90019 1.90019 0 0 1 95.8125 31.75 L 113.34375 13.59375 z M 117.1875 15.125 L 99.84375 33.09375 A 1.80018 1.80018 0 0 1 100.0625 33.53125 L 100.0625 33.5625 L 104.90625 39.40625 A 1.90019 1.90019 0 0 1 105.15625 41.40625 C 95.974648 61.73567 87.355135 78.9784 66.125 87 A 1.90019 1.90019 0 0 1 64.25 86.6875 L 57.78125 81.3125 L 36.1875 104.03125 C 41.377441 107.74113 50.854869 112.38715 59.4375 114.21875 C 78.020222 109.34436 96.788509 94.868275 106.5625 82.90625 A 1.7389063 1.7389063 0 0 0 106.65625 82.78125 C 119.55131 63.41023 124.77599 44.76987 124.34375 28.5 C 124.16078 23.498206 120.88297 19.175867 117.1875 15.125 z M 97.0625 35.90625 L 68.28125 36.96875 L 72.15625 41.9375 C 70.252933 53.659323 62.595419 64.578878 50.65625 72.53125 L 60.78125 73.78125 A 1.80018 1.80018 0 0 1 61.875 76.8125 L 60.3125 78.46875 L 65.75 83.03125 C 84.511693 75.51254 92.408769 60.27434 101.1875 40.90625 L 97.0625 35.90625 z M 28.65625 73.40625 A 1.7389063 1.7389063 0 0 0 27.90625 73.875 L 4.125 98.75 A 1.7389063 1.7389063 0 0 0 4.25 101.28125 C 10.28429 106.43865 18.12016 108.89075 25.71875 110.65625 C 33.241287 112.45649 40.464257 113.84976 47.53125 114.5625 C 41.215633 111.99646 35.560933 108.68318 32.09375 105.84375 A 1.90019 1.90019 0 0 1 31.90625 103.0625 L 56.25 77.40625 A 1.90019 1.90019 0 0 1 56.625 77.09375 L 56.6875 77.0625 L 56.8125 76.90625 L 28.65625 73.40625 z "
       transform="translate(0,924.36218)"
       id="path30925" />
  </g>
</svg>
