<?xml version="1.0" encoding="UTF-8" standalone="no"?>
<!-- Created with Inkscape (http://www.inkscape.org/) -->

<svg
   xmlns:dc="http://purl.org/dc/elements/1.1/"
   xmlns:cc="http://creativecommons.org/ns#"
   xmlns:rdf="http://www.w3.org/1999/02/22-rdf-syntax-ns#"
   xmlns:svg="http://www.w3.org/2000/svg"
   xmlns="http://www.w3.org/2000/svg"
   xmlns:xlink="http://www.w3.org/1999/xlink"
   xmlns:sodipodi="http://sodipodi.sourceforge.net/DTD/sodipodi-0.dtd"
   xmlns:inkscape="http://www.inkscape.org/namespaces/inkscape"
   width="128"
   height="128"
   id="svg2"
   sodipodi:version="0.32"
   inkscape:version="0.48.3.1 r9886"
   version="1.0"
   sodipodi:docname="printer-network-symbolic.svg"
   inkscape:output_extension="org.inkscape.output.svg.inkscape">
  <defs
     id="defs4">
    <linearGradient
       inkscape:collect="always"
       xlink:href="#linearGradient5362"
       id="linearGradient6586"
       x1="519.8905"
       y1="987.91498"
       x2="516.83636"
       y2="977.53998"
       gradientUnits="userSpaceOnUse"
       gradientTransform="matrix(2.6765239,0,0,2.6765239,-1298.8019,-2514.903)" />
    <linearGradient
       inkscape:collect="always"
       xlink:href="#linearGradient5362"
       id="linearGradient6584"
       x1="530.70715"
       y1="987.82306"
       x2="527.51965"
       y2="974.76056"
       gradientUnits="userSpaceOnUse"
       gradientTransform="matrix(2.6765239,0,0,2.6765239,-1298.8019,-2514.903)" />
    <linearGradient
       inkscape:collect="always"
       xlink:href="#linearGradient5316"
       id="linearGradient6588"
       x1="521.3006"
       y1="987.46643"
       x2="517.81042"
       y2="981.65393"
       gradientUnits="userSpaceOnUse"
       gradientTransform="matrix(2.6765239,0,0,2.6765239,-1204.48,-2482.9295)" />
    <linearGradient
       inkscape:collect="always"
       xlink:href="#linearGradient9863"
       id="linearGradient10090"
       x1="1172.1902"
       y1="99.328629"
       x2="1172.1902"
       y2="52.357536"
       gradientUnits="userSpaceOnUse"
       gradientTransform="matrix(2.6765239,0,0,2.6765239,-2925.1822,-138.14979)" />
    <linearGradient
       id="linearGradient5316">
      <stop
         style="stop-color:#c0bfbb;stop-opacity:1;"
         offset="0"
         id="stop5320" />
      <stop
         style="stop-color:#798088;stop-opacity:1;"
         offset="1"
         id="stop5322" />
    </linearGradient>
    <linearGradient
       id="linearGradient9863">
      <stop
         style="stop-color:#2f445a;stop-opacity:1;"
         offset="0"
         id="stop9865" />
      <stop
         style="stop-color:#415f7c;stop-opacity:1"
         offset="1"
         id="stop9867" />
    </linearGradient>
    <linearGradient
       id="linearGradient5362">
      <stop
         style="stop-color:#ffffff;stop-opacity:1;"
         offset="0"
         id="stop5364" />
      <stop
         style="stop-color:#ffffff;stop-opacity:0;"
         offset="1"
         id="stop5366" />
    </linearGradient>
    <linearGradient
       id="linearGradient8702">
      <stop
         id="stop8704"
         offset="0"
         style="stop-color:#c0bfbb;stop-opacity:1;" />
      <stop
         id="stop8706"
         offset="1"
         style="stop-color:#798088;stop-opacity:1;" />
    </linearGradient>
    <linearGradient
       inkscape:collect="always"
       xlink:href="#linearGradient8702"
       id="linearGradient3323"
       x1="12.047645"
       y1="13.900783"
       x2="116.1711"
       y2="110.62069"
       gradientUnits="userSpaceOnUse" />
  </defs>
  <sodipodi:namedview
     id="base"
     pagecolor="#ffffff"
     bordercolor="#666666"
     borderopacity="1.0"
     inkscape:pageopacity="0.0"
     inkscape:pageshadow="2"
     inkscape:zoom="1.2510351"
     inkscape:cx="92.734554"
     inkscape:cy="39.717012"
     inkscape:document-units="px"
     inkscape:current-layer="layer1"
     showgrid="false"
     inkscape:showpageshadow="false"
     inkscape:window-width="1024"
     inkscape:window-height="713"
     inkscape:window-x="0"
     inkscape:window-y="0"
     showguides="true"
     inkscape:guide-bbox="true"
     inkscape:window-maximized="0" />
  <metadata
     id="metadata7">
    <rdf:RDF>
      <cc:Work
         rdf:about="">
        <dc:format>image/svg+xml</dc:format>
        <dc:type
           rdf:resource="http://purl.org/dc/dcmitype/StillImage" />
      </cc:Work>
    </rdf:RDF>
  </metadata>
  <g
     inkscape:label="Capa 1"
     inkscape:groupmode="layer"
     id="layer1">
    <path
       style="fill:url(#linearGradient3323);fill-rule:evenodd;stroke:none;stroke-width:1px;stroke-linecap:butt;stroke-linejoin:miter;stroke-opacity:1;display:inline"
       d="M 30.71875 16.90625 L 35.28125 70.625 L 89.5625 66.9375 C 89.746518 66.945537 89.949587 66.980987 90.15625 67 L 88.15625 46.46875 L 88.03125 46.46875 L 86.5625 46.125 L 79.53125 46.375 L 76.75 18.53125 L 30.71875 16.90625 z M 30.4375 48.1875 L 20.78125 48.53125 L 22.5625 71.5 L 32.53125 70.8125 L 30.4375 48.1875 z M 22.5625 71.5 L 12.9375 72.0625 C 10.868616 72.194675 8.8404193 72.40378 6.96875 73.34375 C 6.9485287 73.340228 6.9264808 73.347239 6.90625 73.34375 C 6.8820641 73.359904 6.8680381 73.390011 6.84375 73.40625 C 4.5946724 74.909968 1.9316346 76.763882 1.65625 83.875 L 1.65625 117.9375 L 31.53125 125.96875 L 31.53125 126 L 31.625 125.96875 L 31.6875 126 L 31.6875 125.96875 L 64.625 120.46875 L 78.40625 124.71875 C 86.372924 127.72885 108.36782 125.91634 115.90625 123.4375 C 121.96082 121.4126 127.56534 116.27363 122.875 115 L 113.6875 112.3125 L 126.5625 110.15625 L 126.5625 83.1875 C 126.53439 74.465003 116.47276 68.578442 99.1875 67.03125 L 22.5625 71.5 z M 91.4375 67.53125 C 93.760723 67.632717 96.16993 68.056888 98.0625 69.03125 L 24.28125 74.53125 C 22.875004 73.391506 21.131891 72.165786 18.46875 71.78125 L 91.4375 67.53125 z M 113.53125 91.84375 C 119.0318 91.858246 118.96875 97.947162 118.96875 110.1875 L 110.9375 111.5 L 100.5 108.4375 L 49.625 115.875 L 61.59375 119.5625 L 43.53125 122.5 C 43.660794 108.16583 44.847175 100.12103 50.375 99.25 L 112.34375 91.9375 C 112.76147 91.884466 113.16455 91.842784 113.53125 91.84375 z "
       id="path6551" />
  </g>
</svg>
