<?xml version="1.0" encoding="UTF-8" standalone="no"?>
<!-- Created with Inkscape (http://www.inkscape.org/) -->

<svg
   xmlns:dc="http://purl.org/dc/elements/1.1/"
   xmlns:cc="http://creativecommons.org/ns#"
   xmlns:rdf="http://www.w3.org/1999/02/22-rdf-syntax-ns#"
   xmlns:svg="http://www.w3.org/2000/svg"
   xmlns="http://www.w3.org/2000/svg"
   xmlns:xlink="http://www.w3.org/1999/xlink"
   xmlns:sodipodi="http://sodipodi.sourceforge.net/DTD/sodipodi-0.dtd"
   xmlns:inkscape="http://www.inkscape.org/namespaces/inkscape"
   width="128"
   height="128"
   id="svg13482"
   version="1.1"
   inkscape:version="0.48.3.1 r9886"
   sodipodi:docname="microphone-sensitivity-low-symbolic.svg">
  <defs
     id="defs13484">
    <linearGradient
       gradientTransform="matrix(2.6666667,0,0,2.6666667,-1454.0195,-1580.8175)"
       inkscape:collect="always"
       xlink:href="#linearGradient9863-0"
       id="linearGradient13477"
       x1="562.74487"
       y1="982.92633"
       x2="562.74487"
       y2="945.78613"
       gradientUnits="userSpaceOnUse" />
    <linearGradient
       id="linearGradient9863-0">
      <stop
         style="stop-color:#2f445a;stop-opacity:1;"
         offset="0"
         id="stop9865-15" />
      <stop
         style="stop-color:#415f7c;stop-opacity:1"
         offset="1"
         id="stop9867-56" />
    </linearGradient>
    <linearGradient
       gradientTransform="matrix(2.6666667,0,0,2.6666667,-1454.0195,-1580.8175)"
       inkscape:collect="always"
       xlink:href="#linearGradient5362-5"
       id="linearGradient12663"
       x1="551.97925"
       y1="947.44897"
       x2="559.7901"
       y2="948.69897"
       gradientUnits="userSpaceOnUse" />
    <linearGradient
       id="linearGradient5362-5">
      <stop
         style="stop-color:#ffffff;stop-opacity:1;"
         offset="0"
         id="stop5364-5" />
      <stop
         style="stop-color:#ffffff;stop-opacity:0;"
         offset="1"
         id="stop5366-6" />
    </linearGradient>
    <linearGradient
       gradientTransform="matrix(2.6666667,0,0,2.6666667,-1454.0195,-1580.8175)"
       inkscape:collect="always"
       xlink:href="#linearGradient5344-3"
       id="linearGradient12647"
       gradientUnits="userSpaceOnUse"
       x1="576.25"
       y1="952.36218"
       x2="562"
       y2="951.98718" />
    <linearGradient
       id="linearGradient5344-3">
      <stop
         style="stop-color:#000000;stop-opacity:1;"
         offset="0"
         id="stop5346-1" />
      <stop
         style="stop-color:#000000;stop-opacity:0;"
         offset="1"
         id="stop5348-6" />
    </linearGradient>
    <linearGradient
       gradientTransform="matrix(2.6666667,0,0,2.6666667,-1454.0195,-1580.8175)"
       inkscape:collect="always"
       xlink:href="#linearGradient19268"
       id="linearGradient12665"
       x1="559.45197"
       y1="963.72443"
       x2="563.50922"
       y2="970.09943"
       gradientUnits="userSpaceOnUse" />
    <linearGradient
       id="linearGradient19268">
      <stop
         style="stop-color:#ffffff;stop-opacity:1;"
         offset="0"
         id="stop19270" />
      <stop
         style="stop-color:#000000;stop-opacity:1;"
         offset="1"
         id="stop19272" />
    </linearGradient>
    <linearGradient
       gradientTransform="matrix(2.6666667,0,0,2.6666667,-1454.0195,-1580.8175)"
       inkscape:collect="always"
       xlink:href="#linearGradient19268"
       id="linearGradient12667"
       x1="558.62079"
       y1="979.65247"
       x2="561.80341"
       y2="968.46497"
       gradientUnits="userSpaceOnUse" />
    <linearGradient
       id="linearGradient13517">
      <stop
         style="stop-color:#ffffff;stop-opacity:1;"
         offset="0"
         id="stop13519" />
      <stop
         style="stop-color:#000000;stop-opacity:1;"
         offset="1"
         id="stop13521" />
    </linearGradient>
    <linearGradient
       gradientTransform="matrix(2.6666667,0,0,2.6666667,-1454.0195,-1580.8175)"
       inkscape:collect="always"
       xlink:href="#linearGradient19268"
       id="linearGradient12669"
       x1="559.19025"
       y1="974.71429"
       x2="563.17841"
       y2="969.15179"
       gradientUnits="userSpaceOnUse" />
    <linearGradient
       id="linearGradient13524">
      <stop
         style="stop-color:#ffffff;stop-opacity:1;"
         offset="0"
         id="stop13526" />
      <stop
         style="stop-color:#000000;stop-opacity:1;"
         offset="1"
         id="stop13528" />
    </linearGradient>
    <linearGradient
       gradientTransform="matrix(2.6666667,0,0,2.6666667,-1454.0195,-1580.8175)"
       inkscape:collect="always"
       xlink:href="#linearGradient8702-9"
       id="linearGradient12643"
       x1="554.22925"
       y1="963.65765"
       x2="567.44678"
       y2="963.65765"
       gradientUnits="userSpaceOnUse" />
    <linearGradient
       id="linearGradient8702-9">
      <stop
         id="stop8704-1"
         offset="0"
         style="stop-color:#ff6e00;stop-opacity:1;" />
      <stop
         id="stop8706-9"
         offset="1"
         style="stop-color:#eb2600;stop-opacity:1;" />
    </linearGradient>
    <linearGradient
       inkscape:collect="always"
       xlink:href="#linearGradient9863-0"
       id="linearGradient13688"
       x1="86.572006"
       y1="124.13161"
       x2="86.572006"
       y2="8.7853603"
       gradientUnits="userSpaceOnUse"
       gradientTransform="translate(0,924.36218)" />
    <linearGradient
       id="linearGradient5344">
      <stop
         style="stop-color:#000000;stop-opacity:1;"
         offset="0"
         id="stop5346" />
      <stop
         style="stop-color:#000000;stop-opacity:0;"
         offset="1"
         id="stop5348" />
    </linearGradient>
    <linearGradient
       inkscape:collect="always"
       xlink:href="#linearGradient5344"
       id="linearGradient13720"
       gradientUnits="userSpaceOnUse"
       gradientTransform="matrix(2.6765239,0,0,2.6765239,-1233.9167,-1600.9831)"
       x1="547.44275"
       y1="910.30841"
       x2="470.46945"
       y2="984.93726" />
    <linearGradient
       inkscape:collect="always"
       xlink:href="#linearGradient8702-9"
       id="linearGradient13727"
       gradientUnits="userSpaceOnUse"
       x1="517.60215"
       y1="947.75458"
       x2="530.59524"
       y2="947.75458" />
    <linearGradient
       inkscape:collect="always"
       xlink:href="#linearGradient8702-9"
       id="linearGradient13729"
       gradientUnits="userSpaceOnUse"
       x1="517.60215"
       y1="947.75458"
       x2="530.59524"
       y2="947.75458" />
    <linearGradient
       inkscape:collect="always"
       xlink:href="#linearGradient8702-9"
       id="linearGradient13731"
       gradientUnits="userSpaceOnUse"
       x1="517.60215"
       y1="947.75458"
       x2="530.59524"
       y2="947.75458" />
  </defs>
  <sodipodi:namedview
     id="base"
     pagecolor="#ffffff"
     bordercolor="#666666"
     borderopacity="1.0"
     inkscape:pageopacity="0.0"
     inkscape:pageshadow="2"
     inkscape:zoom="1.979899"
     inkscape:cx="19.739809"
     inkscape:cy="78.791899"
     inkscape:document-units="px"
     inkscape:current-layer="layer1"
     showgrid="false"
     inkscape:window-width="1366"
     inkscape:window-height="717"
     inkscape:window-x="0"
     inkscape:window-y="0"
     inkscape:window-maximized="1" />
  <metadata
     id="metadata13487">
    <rdf:RDF>
      <cc:Work
         rdf:about="">
        <dc:format>image/svg+xml</dc:format>
        <dc:type
           rdf:resource="http://purl.org/dc/dcmitype/StillImage" />
        <dc:title></dc:title>
      </cc:Work>
    </rdf:RDF>
  </metadata>
  <g
     inkscape:label="Capa 1"
     inkscape:groupmode="layer"
     id="layer1"
     transform="translate(0,-924.36218)">
    <path
       transform="matrix(2.6666667,0,0,2.6666667,-1233.3309,-1581.2889)"
       d="m 530.59524,947.75458 a 6.4965434,6.4965434 0 1 1 -12.99309,0 6.4965434,6.4965434 0 1 1 12.99309,0 z"
       sodipodi:ry="6.4965434"
       sodipodi:rx="6.4965434"
       sodipodi:cy="947.75458"
       sodipodi:cx="524.09869"
       id="path12613"
       style="fill:url(#linearGradient13727);fill-opacity:1;stroke:none;display:inline"
       sodipodi:type="arc" />
    <path
       sodipodi:type="arc"
       style="fill:url(#linearGradient13729);fill-opacity:1;stroke:none;display:inline"
       id="path12615"
       sodipodi:cx="524.09869"
       sodipodi:cy="947.75458"
       sodipodi:rx="6.4965434"
       sodipodi:ry="6.4965434"
       d="m 530.59524,947.75458 a 6.4965434,6.4965434 0 1 1 -12.99309,0 6.4965434,6.4965434 0 1 1 12.99309,0 z"
       transform="matrix(2.6666667,0,0,2.6666667,-1233.3309,-1538.6223)" />
    <path
       transform="matrix(2.6666667,0,0,2.6666667,-1293.3309,-1495.9556)"
       d="m 530.59524,947.75458 a 6.4965434,6.4965434 0 1 1 -12.99309,0 6.4965434,6.4965434 0 1 1 12.99309,0 z"
       sodipodi:ry="6.4965434"
       sodipodi:rx="6.4965434"
       sodipodi:cy="947.75458"
       sodipodi:cx="524.09869"
       id="path12617"
       style="fill:url(#linearGradient13731);fill-opacity:1;stroke:none;display:inline"
       sodipodi:type="arc" />
    <path
       style="font-size:medium;font-style:normal;font-variant:normal;font-weight:normal;font-stretch:normal;text-indent:0;text-align:start;text-decoration:none;line-height:normal;letter-spacing:normal;word-spacing:normal;text-transform:none;direction:ltr;block-progression:tb;writing-mode:lr-tb;text-anchor:start;baseline-shift:baseline;color:#000000;fill:url(#linearGradient13688);fill-opacity:1;fill-rule:nonzero;stroke:none;stroke-width:1;marker:none;visibility:visible;display:inline;overflow:visible;enable-background:accumulate;font-family:Sans;-inkscape-font-specification:Sans"
       d="m 104.28125,927.36218 c -10.28843,0 -18.6875,8.39924 -18.6875,18.6875 0,10.28854 8.39907,18.65625 18.6875,18.65625 10.28843,0 18.65625,-8.36771 18.65625,-18.65625 0,-10.28826 -8.36782,-18.6875 -18.65625,-18.6875 z m 0,2.6875 c 8.84725,0 16,7.1528 16,16 0,8.8472 -7.15275,16 -16,16 -8.84725,0 -16,-7.1528 -16,-16 0,-8.8472 7.15275,-16 16,-16 z m 0,40 c -10.28843,0 -18.6875,8.36805 -18.6875,18.65625 0,10.2886 8.39907,18.65627 18.6875,18.65627 10.28843,0 18.65625,-8.36767 18.65625,-18.65627 0,-10.2882 -8.36782,-18.65625 -18.65625,-18.65625 z m 0,2.65625 c 8.84725,0 16,7.1528 16,16 0,8.8472 -7.15275,15.99997 -16,15.99997 -8.84725,0 -16,-7.15277 -16,-15.99997 0,-8.8472 7.15275,-16 16,-16 z m 0,39.99997 c -10.28843,0 -18.6875,8.368 -18.6875,18.6563 0,10.2885 8.39907,18.6875 18.6875,18.6875 10.28843,0 18.65625,-8.399 18.65625,-18.6875 0,-10.2883 -8.36782,-18.6563 -18.65625,-18.6563 z m 0,2.6563 c 8.84725,0 16,7.1528 16,16 0,8.8472 -7.15275,16 -16,16 -8.84725,0 -16,-7.1528 -16,-16 0,-8.8472 7.15275,-16 16,-16 z"
       id="path12607"
       inkscape:connector-curvature="0" />
    <path
       style="fill:url(#linearGradient12643);fill-opacity:1;stroke:none;display:inline"
       d="m 41.65059,930.35663 c -9.8209,0 -17.76949,7.90427 -17.72522,17.72507 l 0.0864,17.2928 4.23674,67.8747 c 0.50024,7.9082 6.42899,14.2666 14.3531,14.2666 l 7.86826,0 c 7.92414,0 13.85192,-6.3584 14.3531,-14.2666 l 3.71797,-59.4011 0.51864,-7.7816 0.0864,-17.9848 c 0.53605,-9.80614 -7.90429,-17.72507 -17.7252,-17.72507 l -9.77048,0 z"
       id="path12637"
       inkscape:connector-curvature="0" />
    <path
       style="fill:url(#linearGradient12669);fill-opacity:1;stroke:none;display:inline"
       d="m 39.83483,992.6974 c 0.21787,-0.029 0.46211,-0.027 0.69171,0 l 3.97736,0.1387 c 1.83688,0.128 3.28565,1.7037 3.28565,3.5451 l 0,14.9936 c 0,1.8413 -1.44877,3.2397 -3.28565,3.1128 l -3.97736,-0.3459 c -1.83685,-0.128 -3.37211,-1.7037 -3.37211,-3.5451 l 0,-14.7853 c 0,-1.6112 1.156,-2.9051 2.6804,-3.1128 z"
       id="path12635"
       inkscape:connector-curvature="0"
       sodipodi:nodetypes="cccssccssc" />
    <path
       sodipodi:nodetypes="cccssccssc"
       inkscape:connector-curvature="0"
       id="path12641"
       d="m 40.31966,992.6964 c 0.20453,-0.027 0.43395,-0.027 0.64955,0 l 3.73493,0.1306 c 1.72493,0.12 3.08541,1.6 3.08541,3.3288 l 0,14.08 c 0,1.7291 -1.36048,3.0424 -3.08541,2.923 l -3.73493,-0.3248 c -1.72491,-0.12 -3.16659,-1.5998 -3.16659,-3.3288 l 0,-13.8843 c 0,-1.5131 1.08555,-2.728 2.51704,-2.9232 z"
       style="fill:url(#linearGradient12667);fill-opacity:1;stroke:none;display:inline" />
    <path
       style="fill:url(#linearGradient12665);fill-opacity:1;stroke:none;display:inline"
       d="m 40.69947,993.735 c -1.478,-0.1013 -2.6804,0.9395 -2.6804,2.4208 l 0,6.2256 c 0,1.4816 1.2024,2.751 2.6804,2.8534 l 3.45859,0.2586 c 1.478,0.1014 2.6804,-1.0258 2.6804,-2.5074 l 0,-6.3475 c 0,-1.4816 -1.2024,-2.7509 -2.6804,-2.8533 l -3.45859,-0.051 z"
       id="path12631"
       inkscape:connector-curvature="0"
       sodipodi:nodetypes="cssccssccc" />
    <path
       inkscape:connector-curvature="0"
       id="path12639"
       d="m 41.65059,930.35663 c -9.8209,0 -17.76949,7.90427 -17.72522,17.72507 l 0.0864,17.2928 c 17.58432,5.36746 31.83445,4.0664 45.04781,0.692 l 0.0864,-17.9848 c 0.53605,-9.80614 -7.90429,-17.72507 -17.7252,-17.72507 l -9.77048,0 z"
       style="fill:#808080;fill-opacity:1;stroke:none;display:inline"
       sodipodi:nodetypes="cccccscc" />
    <path
       inkscape:connector-curvature="0"
       id="path12645"
       d="m 42.60161,1047.5158 7.86826,0 c 7.92414,0 13.85192,-6.3584 14.3531,-14.2666 l 3.71797,-59.4011 0.51864,-7.7816 0.0864,-17.9848 c 0.53605,-9.80614 -7.90429,-17.72507 -17.7252,-17.72507 l -9.68077,0 z"
       style="fill:url(#linearGradient12647);fill-opacity:1;stroke:none;display:inline"
       sodipodi:nodetypes="csccccscc" />
    <path
       sodipodi:nodetypes="cccccc"
       style="fill:url(#linearGradient12663);fill-opacity:1;stroke:none;display:inline"
       d="m 23.92537,948.0817 0.0864,17.2928 c 4.88653,1.49173 9.51557,2.46826 13.93645,3.02853 -1.46427,-17.43227 3.48211,-31.31147 13.47256,-38.0464 l -14.6808,0 c -4.91029,0 -12.85888,7.90427 -12.81461,17.72507 z"
       id="path12661"
       inkscape:connector-curvature="0" />
    <path
       sodipodi:nodetypes="ccccssccccscc"
       inkscape:connector-curvature="0"
       id="path12671"
       d="m 41.65059,930.35663 c -9.8209,0 -17.76949,7.90427 -17.72522,17.72507 l 0.0864,17.2928 4.23674,67.8747 c 0.50024,7.9082 6.42899,14.2666 14.3531,14.2666 l 7.86826,0 c 7.92414,0 13.85192,-6.3584 14.3531,-14.2666 l 3.71797,-59.4011 0.51864,-7.7816 0.0864,-17.9848 c 0.53605,-9.80614 -7.90429,-17.72507 -17.7252,-17.72507 l -9.77048,0 z"
       style="fill:none;stroke:url(#linearGradient13477);stroke-width:2.66666675;display:inline" />
  </g>
</svg>
