<?xml version="1.0" encoding="UTF-8" standalone="no"?>
<!-- Created with Inkscape (http://www.inkscape.org/) -->

<svg
   xmlns:dc="http://purl.org/dc/elements/1.1/"
   xmlns:cc="http://creativecommons.org/ns#"
   xmlns:rdf="http://www.w3.org/1999/02/22-rdf-syntax-ns#"
   xmlns:svg="http://www.w3.org/2000/svg"
   xmlns="http://www.w3.org/2000/svg"
   xmlns:xlink="http://www.w3.org/1999/xlink"
   xmlns:sodipodi="http://sodipodi.sourceforge.net/DTD/sodipodi-0.dtd"
   xmlns:inkscape="http://www.inkscape.org/namespaces/inkscape"
   width="16"
   height="16"
   id="svg2"
   sodipodi:version="0.32"
   inkscape:version="0.48.3.1 r9886"
   version="1.0"
   sodipodi:docname="audio-volume-muted-symbolic.svg"
   inkscape:output_extension="org.inkscape.output.svg.inkscape">
  <defs
     id="defs4">
    <linearGradient
       inkscape:collect="always"
       xlink:href="#linearGradient5316"
       id="linearGradient8447"
       gradientUnits="userSpaceOnUse"
       gradientTransform="matrix(2.1481476,0,0,2.2660452,-1072.5125,-1414.5137)"
       x1="505.28644"
       y1="645.81702"
       x2="504.58081"
       y2="659.34265" />
    <linearGradient
       inkscape:collect="always"
       xlink:href="#linearGradient5362"
       id="linearGradient8449"
       gradientUnits="userSpaceOnUse"
       gradientTransform="matrix(2.1481476,0,0,2.2660452,-1072.5125,-1414.5137)"
       x1="508.48956"
       y1="642.86359"
       x2="506.59845"
       y2="653.34991" />
    <linearGradient
       inkscape:collect="always"
       xlink:href="#linearGradient7210"
       id="linearGradient8453"
       gradientUnits="userSpaceOnUse"
       gradientTransform="matrix(2.4865983,0,0,2.4864923,-1202.2427,-1557.6523)"
       x1="494.4577"
       y1="637.09772"
       x2="515.29169"
       y2="668.90833" />
    <linearGradient
       inkscape:collect="always"
       xlink:href="#linearGradient5439"
       id="linearGradient8455"
       gradientUnits="userSpaceOnUse"
       gradientTransform="matrix(2.2024173,0,0,2.2023236,-1059.2662,-1371.7939)"
       x1="523.76074"
       y1="673.95343"
       x2="490.40436"
       y2="648.80872" />
    <linearGradient
       inkscape:collect="always"
       xlink:href="#linearGradient5439"
       id="linearGradient8457"
       gradientUnits="userSpaceOnUse"
       gradientTransform="matrix(3.1132681,0.09494446,-0.09345971,3.0643206,-1468.494,-1984.6058)"
       x1="494.64386"
       y1="641.93042"
       x2="509.46909"
       y2="661.21436" />
    <radialGradient
       inkscape:collect="always"
       xlink:href="#linearGradient5439"
       id="radialGradient8459"
       gradientUnits="userSpaceOnUse"
       gradientTransform="matrix(4.9397802,0,0,5.7128195,-2434.1566,-3693.5548)"
       cx="502.22336"
       cy="657.59094"
       fx="502.22336"
       fy="657.59094"
       r="5.6949959" />
    <linearGradient
       inkscape:collect="always"
       xlink:href="#linearGradient5344"
       id="linearGradient8463"
       gradientUnits="userSpaceOnUse"
       gradientTransform="matrix(2.1481476,0,0,2.2660452,-1072.5125,-1414.5137)"
       x1="504.64963"
       y1="667.4726"
       x2="503.15131"
       y2="654.14331" />
    <linearGradient
       inkscape:collect="always"
       xlink:href="#linearGradient5344"
       id="linearGradient8465"
       gradientUnits="userSpaceOnUse"
       gradientTransform="matrix(2.7642986,0,0,2.8210385,-1342.4466,-1789.1735)"
       x1="497.4556"
       y1="669.95612"
       x2="504.83231"
       y2="649.57263" />
    <linearGradient
       inkscape:collect="always"
       xlink:href="#linearGradient9863"
       id="linearGradient10955"
       gradientUnits="userSpaceOnUse"
       gradientTransform="matrix(2.6765239,0,0,2.6765239,-977.438,-940.39043)"
       x1="392.3085"
       y1="398.4826"
       x2="392.3085"
       y2="352.06906" />
    <linearGradient
       id="linearGradient7210">
      <stop
         id="stop7212"
         offset="0"
         style="stop-color:#eb2600;stop-opacity:1;" />
      <stop
         id="stop8994"
         offset="0.5"
         style="stop-color:#ff6e00;stop-opacity:1;" />
      <stop
         id="stop7214"
         offset="1"
         style="stop-color:#eb2600;stop-opacity:1;" />
    </linearGradient>
    <linearGradient
       id="linearGradient5316">
      <stop
         style="stop-color:#ff6e00;stop-opacity:1;"
         offset="0"
         id="stop5320" />
      <stop
         style="stop-color:#eb2600;stop-opacity:1;"
         offset="1"
         id="stop5322" />
    </linearGradient>
    <linearGradient
       id="linearGradient9863">
      <stop
         style="stop-color:#2f445a;stop-opacity:1;"
         offset="0"
         id="stop9865" />
      <stop
         style="stop-color:#415f7c;stop-opacity:1"
         offset="1"
         id="stop9867" />
    </linearGradient>
    <linearGradient
       id="linearGradient5362">
      <stop
         style="stop-color:#ffffff;stop-opacity:1;"
         offset="0"
         id="stop5364" />
      <stop
         style="stop-color:#ffffff;stop-opacity:0;"
         offset="1"
         id="stop5366" />
    </linearGradient>
    <linearGradient
       id="linearGradient5439">
      <stop
         style="stop-color:#ffffff;stop-opacity:1;"
         offset="0"
         id="stop5441" />
      <stop
         style="stop-color:#000000;stop-opacity:1;"
         offset="1"
         id="stop5443" />
    </linearGradient>
    <linearGradient
       id="linearGradient5344">
      <stop
         style="stop-color:#000000;stop-opacity:1;"
         offset="0"
         id="stop5346" />
      <stop
         style="stop-color:#000000;stop-opacity:0;"
         offset="1"
         id="stop5348" />
    </linearGradient>
    <linearGradient
       id="linearGradient8702">
      <stop
         id="stop8704"
         offset="0"
         style="stop-color:#ff6e00;stop-opacity:1;" />
      <stop
         id="stop8706"
         offset="1"
         style="stop-color:#eb2600;stop-opacity:1;" />
    </linearGradient>
    <linearGradient
       gradientTransform="translate(0,2.003384e-6)"
       y2="125.78591"
       x2="124.26582"
       y1="5.9313111"
       x1="8.7566776"
       gradientUnits="userSpaceOnUse"
       id="linearGradient4495"
       xlink:href="#linearGradient8702"
       inkscape:collect="always" />
    <linearGradient
       inkscape:collect="always"
       xlink:href="#linearGradient8702"
       id="linearGradient4515"
       gradientUnits="userSpaceOnUse"
       gradientTransform="matrix(0.125,0,0,0.125,0,112)"
       x1="8.7566776"
       y1="5.9313111"
       x2="124.26582"
       y2="125.78591" />
  </defs>
  <sodipodi:namedview
     id="base"
     pagecolor="#ffffff"
     bordercolor="#666666"
     borderopacity="1.0"
     inkscape:pageopacity="0.0"
     inkscape:pageshadow="2"
     inkscape:zoom="32.625"
     inkscape:cx="8"
     inkscape:cy="8"
     inkscape:document-units="px"
     inkscape:current-layer="layer1"
     showgrid="false"
     inkscape:showpageshadow="false"
     inkscape:window-width="1366"
     inkscape:window-height="716"
     inkscape:window-x="0"
     inkscape:window-y="0"
     showguides="true"
     inkscape:guide-bbox="true"
     inkscape:window-maximized="1" />
  <metadata
     id="metadata7">
    <rdf:RDF>
      <cc:Work
         rdf:about="">
        <dc:format>image/svg+xml</dc:format>
        <dc:type
           rdf:resource="http://purl.org/dc/dcmitype/StillImage" />
      </cc:Work>
    </rdf:RDF>
  </metadata>
  <g
     inkscape:label="Capa 1"
     inkscape:groupmode="layer"
     id="layer1"
     transform="translate(0,-112)">
    <path
       style="fill:url(#linearGradient4515);stroke:none;display:inline"
       d="m 15.046875,112.33594 c -0.155414,0 -0.311118,0.0611 -0.429688,0.17969 l -1.878906,1.875 -1.871094,-1.86719 c -0.120343,-0.12339 -0.28877,-0.18383 -0.460937,-0.17578 -0.172167,0.008 -0.329201,0.0847 -0.4375,0.21875 -0.1934459,0.24235 -0.1713369,0.5883 0.050781,0.80468 l 1.867188,1.8711 -1.875,1.8789 c -0.2371403,0.23716 -0.2371403,0.62223 0,0.85938 0.23714,0.23715 0.618328,0.23715 0.855468,0 l 1.878907,-1.87891 1.871093,1.86719 c 0.147343,0.17229 0.377212,0.24828 0.597657,0.19531 0.220411,-0.053 0.392351,-0.22488 0.445312,-0.44531 0.05296,-0.22043 -0.02301,-0.4503 -0.195312,-0.59766 l -1.867188,-1.87109 1.878906,-1.87891 c 0.23714,-0.23715 0.23714,-0.61831 0,-0.85546 -0.11857,-0.11858 -0.274273,-0.17969 -0.429687,-0.17969 z m -8.3203125,1.85937 c -0.080271,-0.001 -0.1595663,-8.5e-4 -0.2421875,0.004 -1.29654,0.0745 -2.5141288,0.88399 -3.3710938,2.17969 -0.00476,0.007 -0.010887,0.0123 -0.015625,0.0195 l -1.4140625,1.57422 -0.2226562,0.008 -0.00391,0 c -0.4867887,0.004 -0.8544887,0.30966 -1.07031245,0.75391 -0.21642375,0.44547 -0.30859625,1.03729 -0.30859375,1.6914 0,0.65416 0.0932875,1.23285 0.296875,1.67578 0.19975875,0.43461 0.52764875,0.74166 0.9609375,0.80078 l 0,0.004 c 0.00796,0.001 0.015401,0.003 0.023438,0.004 l 0.2304687,0.0586 1.2109375,1.67578 c 0.1498438,0.26091 0.3193825,0.50001 0.5,0.72266 6.25e-4,8.7e-4 -6.25e-4,0.003 0,0.004 a 0.16732924,0.16732924 0 0 0 0.03125,0.0547 c 0.942375,1.12872 2.2653538,1.68413 3.640625,1.45703 2.440735,-0.40303 4.301158,-2.83451 4.273438,-6.36328 -0.0063,-0.80128 -0.110134,-1.55052 -0.292969,-2.23437 -0.214419,0.14885 -0.480651,0.18908 -0.726563,0.1289 0.180758,0.63869 0.283031,1.349 0.289063,2.11719 0.02412,3.07326 -1.5886452,5.14102 -3.667969,5.48438 -2.2770425,0.376 -4.2460937,-1.76712 -4.2460937,-5.22657 0,-3.36335 1.92187,-5.74222 4.0546875,-5.71875 0.0688,7.6e-4 0.1378462,0.006 0.2070312,0.0117 1.1513563,0.0965 2.1581214,0.82446 2.8203125,1.9961 0.035162,-0.0567 0.075999,-0.11116 0.125,-0.16016 l 0.4101565,-0.41016 c -0.7909792,-1.34274 -1.9625267,-2.18697 -3.2500002,-2.30078 -0.080666,-0.007 -0.1619163,-0.0104 -0.2421875,-0.0117 z m -0.085938,1.78907 c -1.0972675,-0.0121 -2.1294925,0.73468 -2.7578125,1.96875 0.454925,-0.55638 1.0512737,-0.86722 1.6992187,-0.80469 1.16479,0.11356 2.1281763,1.72986 2.078125,3.37109 -0.050386,1.65227 -1.0905787,3.29333 -2.2421875,3.42578 -0.6856837,0.0789 -1.3013087,-0.26897 -1.7382812,-0.88672 0.6075625,1.47411 1.8017625,2.27255 3.1210937,2.05469 1.734515,-0.28641 3.0787175,-2.01449 3.0585938,-4.57812 -0.020289,-2.58393 -1.3380338,-4.3998 -3.046875,-4.54297 -0.057711,-0.005 -0.1144838,-0.007 -0.171875,-0.008 z m -1.1484375,1.98437 c -0.9375775,0.0432 -1.6911488,1.16304 -1.734375,2.60938 -0.045851,1.53432 0.7724912,2.71835 1.8007812,2.59765 0.863545,-0.10136 1.65361,-1.34495 1.6914063,-2.60937 0.037529,-1.25598 -0.6328113,-2.48799 -1.5703125,-2.58985 -0.063981,-0.007 -0.124995,-0.0107 -0.1875,-0.008 z"
       id="path5245"
       inkscape:connector-curvature="0" />
  </g>
</svg>
