<?xml version="1.0" encoding="UTF-8" standalone="no"?>
<!-- Created with Inkscape (http://www.inkscape.org/) -->

<svg
   xmlns:dc="http://purl.org/dc/elements/1.1/"
   xmlns:cc="http://creativecommons.org/ns#"
   xmlns:rdf="http://www.w3.org/1999/02/22-rdf-syntax-ns#"
   xmlns:svg="http://www.w3.org/2000/svg"
   xmlns="http://www.w3.org/2000/svg"
   xmlns:xlink="http://www.w3.org/1999/xlink"
   xmlns:sodipodi="http://sodipodi.sourceforge.net/DTD/sodipodi-0.dtd"
   xmlns:inkscape="http://www.inkscape.org/namespaces/inkscape"
   width="128"
   height="128"
   id="svg17172"
   version="1.1"
   inkscape:version="0.48.3.1 r9886"
   sodipodi:docname="gpm-battery-060.svg">
  <defs
     id="defs17174">
    <linearGradient
       id="linearGradient17149">
      <stop
         style="stop-color:#ff6e00;stop-opacity:0;"
         offset="0"
         id="stop17151" />
      <stop
         style="stop-color:#eb2600;stop-opacity:1;"
         offset="1"
         id="stop17153" />
    </linearGradient>
    <linearGradient
       inkscape:collect="always"
       xlink:href="#linearGradient13604-6-4"
       id="linearGradient19009"
       gradientUnits="userSpaceOnUse"
       gradientTransform="matrix(2.1337987,0,0,2.1337987,-1039.4316,-1067.9622)"
       x1="515.5863"
       y1="952.8299"
       x2="528.09021"
       y2="990.23395" />
    <linearGradient
       id="linearGradient13604-6-4">
      <stop
         id="stop13606-2-6"
         offset="0"
         style="stop-color:#ffffff;stop-opacity:1;" />
      <stop
         id="stop13608-7-0"
         offset="1"
         style="stop-color:#000000;stop-opacity:1;" />
    </linearGradient>
    <linearGradient
       inkscape:collect="always"
       xlink:href="#linearGradient13604-6-4"
       id="linearGradient19012"
       gradientUnits="userSpaceOnUse"
       gradientTransform="matrix(2.2994784,1.2917573,-1.0266714,2.8932024,-137.0889,-2469.3318)"
       x1="506.53442"
       y1="958.87305"
       x2="530.64825"
       y2="952.20062" />
    <linearGradient
       inkscape:collect="always"
       xlink:href="#linearGradient13604-6-4"
       id="linearGradient19016"
       gradientUnits="userSpaceOnUse"
       gradientTransform="matrix(2.6666667,0,0,2.6666667,-1315.3389,-1580.8075)"
       x1="514.4931"
       y1="950.51849"
       x2="517.49799"
       y2="967.01849" />
    <linearGradient
       inkscape:collect="always"
       xlink:href="#linearGradient5316-0-0"
       id="linearGradient19035"
       gradientUnits="userSpaceOnUse"
       gradientTransform="matrix(2.6666667,0,0,2.6666667,-194.16037,-1582.6931)"
       x1="79.374985"
       y1="968.60938"
       x2="88.53125"
       y2="968.60938" />
    <linearGradient
       id="linearGradient5316-0-0">
      <stop
         style="stop-color:#ff6e00;stop-opacity:1;"
         offset="0"
         id="stop5320-8-15" />
      <stop
         style="stop-color:#eb2600;stop-opacity:1;"
         offset="1"
         id="stop5322-1-1" />
    </linearGradient>
    <linearGradient
       inkscape:collect="always"
       xlink:href="#linearGradient5316-0-0"
       id="linearGradient19039"
       gradientUnits="userSpaceOnUse"
       gradientTransform="matrix(2.6666667,0,0,2.6666667,-194.16037,-1582.6931)"
       x1="79.71875"
       y1="953.51562"
       x2="90.96875"
       y2="953.51562" />
    <linearGradient
       inkscape:collect="always"
       xlink:href="#linearGradient17149"
       id="linearGradient19042"
       gradientUnits="userSpaceOnUse"
       gradientTransform="matrix(2.6666667,0,0,2.6666667,-194.16037,-1582.6931)"
       x1="100.05357"
       y1="947.58112"
       x2="88.571426"
       y2="951.45618" />
    <linearGradient
       inkscape:collect="always"
       xlink:href="#linearGradient13604-6-4"
       id="linearGradient19134"
       gradientUnits="userSpaceOnUse"
       gradientTransform="matrix(2.6666667,0,0,2.6666667,-462.00554,-1580.8075)"
       x1="200.4375"
       y1="989.04968"
       x2="189.375"
       y2="972.42468" />
    <linearGradient
       inkscape:collect="always"
       xlink:href="#linearGradient9863-4-4"
       id="linearGradient19137"
       gradientUnits="userSpaceOnUse"
       gradientTransform="matrix(2.6666667,0,0,2.6666667,-760.67221,-1367.4741)"
       x1="308.6875"
       y1="907.00311"
       x2="308.6875"
       y2="859.37317" />
    <linearGradient
       id="linearGradient9863-4-4">
      <stop
         style="stop-color:#2f445a;stop-opacity:1;"
         offset="0"
         id="stop9865-0-4" />
      <stop
         style="stop-color:#415f7c;stop-opacity:1"
         offset="1"
         id="stop9867-6-0" />
    </linearGradient>
    <linearGradient
       inkscape:collect="always"
       xlink:href="#linearGradient13604-6-4"
       id="linearGradient19140"
       gradientUnits="userSpaceOnUse"
       gradientTransform="matrix(2.7368318,0,0,2.6844299,-1349.6143,-1598.2652)"
       x1="585.32428"
       y1="1057.6436"
       x2="492.58313"
       y2="945.6142" />
    <linearGradient
       inkscape:collect="always"
       xlink:href="#linearGradient5439-3-0"
       id="linearGradient19143"
       gradientUnits="userSpaceOnUse"
       gradientTransform="matrix(2.7150286,0,0,2.7149163,-1316.8507,-1627.5885)"
       x1="535.57587"
       y1="1000.2343"
       x2="496.84631"
       y2="946.46552" />
    <linearGradient
       id="linearGradient5439-3-0">
      <stop
         style="stop-color:#ffffff;stop-opacity:1;"
         offset="0"
         id="stop5441-29-2" />
      <stop
         style="stop-color:#000000;stop-opacity:1;"
         offset="1"
         id="stop5443-3-7" />
    </linearGradient>
    <linearGradient
       inkscape:collect="always"
       xlink:href="#linearGradient5344-50-5"
       id="linearGradient19146"
       gradientUnits="userSpaceOnUse"
       gradientTransform="matrix(2.7150286,0,0,2.7149163,-1316.8507,-1627.5885)"
       x1="504.93024"
       y1="992.24542"
       x2="497.81961"
       y2="968.64575" />
    <linearGradient
       id="linearGradient5344-50-5">
      <stop
         style="stop-color:#000000;stop-opacity:1;"
         offset="0"
         id="stop5346-2-7" />
      <stop
         style="stop-color:#000000;stop-opacity:0;"
         offset="1"
         id="stop5348-5-3" />
    </linearGradient>
    <linearGradient
       inkscape:collect="always"
       xlink:href="#linearGradient13604-6-4"
       id="linearGradient19149"
       gradientUnits="userSpaceOnUse"
       gradientTransform="matrix(2.7150286,0,0,2.7149163,-1316.8507,-1627.5885)"
       x1="506.14658"
       y1="891.09094"
       x2="484.66602"
       y2="986.18469" />
  </defs>
  <sodipodi:namedview
     id="base"
     pagecolor="#ffffff"
     bordercolor="#666666"
     borderopacity="1.0"
     inkscape:pageopacity="0.0"
     inkscape:pageshadow="2"
     inkscape:zoom="2.8"
     inkscape:cx="101.43576"
     inkscape:cy="67.186095"
     inkscape:document-units="px"
     inkscape:current-layer="layer1"
     showgrid="false"
     inkscape:showpageshadow="false"
     inkscape:window-width="1366"
     inkscape:window-height="716"
     inkscape:window-x="0"
     inkscape:window-y="0"
     inkscape:window-maximized="1" />
  <metadata
     id="metadata17177">
    <rdf:RDF>
      <cc:Work
         rdf:about="">
        <dc:format>image/svg+xml</dc:format>
        <dc:type
           rdf:resource="http://purl.org/dc/dcmitype/StillImage" />
        <dc:title />
      </cc:Work>
    </rdf:RDF>
  </metadata>
  <g
     inkscape:label="Capa 1"
     inkscape:groupmode="layer"
     id="layer1"
     transform="translate(0,-924.36217)">
    <path
       inkscape:connector-curvature="0"
       inkscape:export-ydpi="90.041016"
       inkscape:export-xdpi="90.041016"
       inkscape:export-filename="/home/dafeba/DCV/tallerD/bocetos/bateria.png"
       sodipodi:nodetypes="csssssc"
       id="path66258"
       d="m 101.51047,984.37098 c -0.76027,29.84982 -15.579736,58.68802 -41.050669,58.85702 -10.748267,0.072 -22.628,-2.5464 -30.310134,-6.7064 -15.876533,-8.5976 -25.1000003,-27.3744 -25.1181333,-48.34872 -0.02133,-25.1323 12.9768003,-47.92964 33.4490673,-55.72138 5.9776,-2.27493 17.686933,-4.2192 25.983733,-4.13333 21.62773,0.22133 37.046136,24.68213 37.046136,56.05281 z"
       style="fill:url(#linearGradient19149);fill-opacity:1;stroke:none;display:inline" />
    <path
       inkscape:connector-curvature="0"
       inkscape:export-ydpi="90.041016"
       inkscape:export-xdpi="90.041016"
       inkscape:export-filename="/home/dafeba/DCV/tallerD/bocetos/bateria.png"
       style="fill:url(#linearGradient19146);fill-opacity:1;stroke:none;display:inline"
       d="m 61.419801,1043.228 c -7.946667,1.1422 -19.007467,-1.8752 -25.378134,-4.1018 -15.685867,-5.4824 -26.2160003,-19.991 -29.7237333,-37.6894 -0.845067,-4.26342 20.7952003,-1.033 34.4701333,0.6542 32.236534,-1.9118 73.085333,26.0818 20.631734,41.137 z"
       id="path66262"
       sodipodi:nodetypes="csscc" />
    <path
       inkscape:connector-curvature="0"
       inkscape:export-ydpi="90.041016"
       inkscape:export-xdpi="90.041016"
       inkscape:export-filename="/home/dafeba/DCV/tallerD/bocetos/bateria.png"
       style="fill:url(#linearGradient19143);fill-opacity:1;stroke:none;display:inline"
       d="m 110.1558,984.60588 c -0.76053,30.66162 -17.145866,53.86642 -42.262932,58.18592 -33.583468,5.776 -54.720001,-22.0712 -54.750134,-54.04052 -0.0312,-33.2592 22.08,-62.53738 54.327467,-60.00324 25.393863,1.99493 42.685599,23.6344 42.685599,55.85784 z"
       id="path66264"
       sodipodi:nodetypes="csssc" />
    <path
       inkscape:connector-curvature="0"
       style="fill:url(#linearGradient19140);fill-opacity:1;stroke:none;display:inline"
       d="m 106.83671,985.18938 c -0.72059,28.50082 -16.248566,50.07042 -40.051602,54.08562 -31.826348,5.3688 -51.856934,-20.516 -51.885388,-50.23252 -0.02987,-30.9155 20.924427,-58.13071 51.484721,-55.77471 24.065493,1.85413 40.452269,21.96881 40.452269,51.92161 z"
       id="path66266"
       sodipodi:nodetypes="csssc"
       inkscape:export-filename="/home/dafeba/DCV/tallerD/bocetos/bateria.png"
       inkscape:export-xdpi="90.041016"
       inkscape:export-ydpi="90.041016" />
    <path
       inkscape:connector-curvature="0"
       inkscape:export-ydpi="90.041016"
       inkscape:export-xdpi="90.041016"
       inkscape:export-filename="/home/dafeba/DCV/tallerD/bocetos/bateria.png"
       sodipodi:nodetypes="csssccccc"
       id="path66268"
       d="m 61.244601,928.35924 c -7.881334,0.3456 -17.519734,2.09253 -22.750134,4.08346 -20.472533,7.79174 -33.5216003,30.61758 -33.5000003,55.74988 0.01867,20.97442 9.2901333,39.73542 25.1666673,48.33332 3.781066,2.0475 8.817067,4.0219 13.990933,5.1701 7.0264,1.6736 15.632001,2.1568 23.759201,1.08 25.117066,-4.3197 41.489332,-27.5053 42.249862,-58.16692 0,-30.63891 -15.571196,-52.01624 -38.937596,-55.72904 -3.3016,-0.54614 -6.6464,-0.5208 -9.978933,-0.5208 z"
       style="fill:none;stroke:url(#linearGradient19137);stroke-width:2.66666675;stroke-linecap:round;stroke-linejoin:round;stroke-miterlimit:4;stroke-opacity:1;stroke-dasharray:none;stroke-dashoffset:0;display:inline" />
    <path
       style="font-size:medium;font-style:normal;font-variant:normal;font-weight:normal;font-stretch:normal;text-indent:0;text-align:start;text-decoration:none;line-height:normal;letter-spacing:normal;word-spacing:normal;text-transform:none;direction:ltr;block-progression:tb;writing-mode:lr-tb;text-anchor:start;baseline-shift:baseline;color:#000000;fill:url(#linearGradient19134);fill-opacity:1;fill-rule:nonzero;stroke:none;stroke-width:0.92859286px;marker:none;visibility:visible;display:inline;overflow:visible;enable-background:accumulate;font-family:Bitstream Vera Sans;-inkscape-font-specification:Bitstream Vera Sans"
       d="m 52.577801,1010.4424 0,0.083 c -0.68456,0.152 -1.275067,0.5678 -1.583334,1.0832 -0.29688,0.4966 -0.37568,1.0227 -0.333333,1.5835 l -0.0832,0 0,4.3333 c -0.390693,0.035 -0.775947,0.1307 -1.166667,0.1654 7.47e-4,-1.4312 0.01067,-2.891 0,-4.3334 l 0,-0.083 c -0.102933,-2.0394 -2.596186,-2.9424 -4.083333,-1.5832 l -0.0832,0 c -0.564133,0.5526 -0.807813,1.3142 -0.833333,1.8334 -0.02667,0.5389 0.01333,0.9821 0,1.1666 l 0,0.083 0,3.3334 c -0.442827,0.029 -0.832374,0.077 -1.333334,0.1653 l -0.0832,0 -0.0832,0 c -0.87824,0.264 -1.411973,1.0885 -1.583333,1.7501 -0.162933,0.6283 -0.129067,1.1486 -0.0832,1.5832 0.0011,0.027 -0.0012,0.056 0,0.083 0.1208,2.6926 0.7248,5.7598 3,7.9168 l 0,0.083 c 2.669227,2.5038 6.737147,2.4648 9.666667,0.6667 2.92808,-1.7355 4.3508,-4.9045 4.833333,-7.9168 l 0,-0.083 c 0.141867,-1.024 0.30712,-2.1403 0.166667,-3.4165 l 0,-0.083 0,-0.083 c -0.186133,-0.7435 -0.74896,-1.3115 -1.333334,-1.5832 -0.50616,-0.2347 -1.05704,-0.3254 -1.583333,-0.2507 l -0.249867,0 -0.166666,0 c 0.0027,-1.4181 0.02853,-2.8891 0,-4.3333 l 0,-0.083 c -0.2,-1.3827 -1.481014,-2.3107 -2.833334,-2.0835 -0.05947,0 -0.106933,0 -0.166666,0 z m 3.75,8.9168 c 0.04053,0 0.12,0 0.166666,0 -0.016,0 -0.0664,0.085 -0.0832,0.083 0.02667,0 0.06213,0 0.0832,0 0.04693,0.776 -0.03227,1.6131 -0.166666,2.5835 -0.229067,1.4296 -0.834907,2.7376 -1.583334,3.9165 l 0,-0.1653 c 0.98344,-1.4896 1.547574,-3.3403 1.583334,-4.9165 l 0.0832,-1.4168 -0.166667,0 0.0832,-0.083 z m -0.166667,0.083 -1.25,0.1654 c -0.152267,0.027 -0.373573,0.067 -0.666667,0.083 -0.240266,0 -0.49744,0.048 -0.75,0.083 -0.05547,0 -0.1064,0 -0.166666,0 -0.0824,0 -0.167467,0 -0.249867,0 l 0,-0.083 1.333333,-0.1654 1.75,-0.083 z m -12.5,1.2502 c 0.04693,0 0.1184,0 0.166667,0 l 0.0832,1.1666 c 0.109866,1.2206 0.3396,2.535 0.75,3.8334 -0.546907,-1.2795 -0.93792,-2.6723 -1,-4.1667 l 0,-0.083 c -0.03173,-0.2928 -0.02667,-0.5965 0,-0.7499 z m 9.75,1.5 c -0.2456,1.0493 -0.42904,2.3106 -0.833333,2.7498 l -0.0832,0.083 c -0.708294,1.0352 -2.042747,1.6478 -3.333334,1.5835 l -0.0832,0 c -0.893093,0.027 -1.850133,-0.7088 -2.083333,-1.5835 -0.2184,-0.6722 -0.318133,-1.4906 -0.416667,-2.2498 0.427414,-0.04 0.82216,-0.035 1.25,-0.083 l 0,0.083 c 1.88496,-0.1574 3.751894,-0.4384 5.583334,-0.5835 z m -8.666667,3.5832 c 0.2536,0.8594 0.765814,1.6005 1.416667,2.1666 -0.06773,-0.056 -0.1856,-0.027 -0.249867,-0.083 -0.569546,-0.54 -0.836,-1.3408 -1.166666,-2.0834 z m 8.416667,1.9168 c -0.188267,0.1466 -0.29456,0.3781 -0.5,0.5 l 0,0.083 c -0.07387,0.045 -0.1736,0.04 -0.249867,0.083 0.292747,-0.1547 0.484667,-0.4648 0.75,-0.6667 z"
       id="path66270"
       inkscape:connector-curvature="0"
       inkscape:export-filename="/home/dafeba/DCV/tallerD/bocetos/bateria.png"
       inkscape:export-xdpi="90.041016"
       inkscape:export-ydpi="90.041016" />
    <path
       style="font-size:medium;font-style:normal;font-variant:normal;font-weight:normal;font-stretch:normal;text-indent:0;text-align:start;text-decoration:none;line-height:normal;letter-spacing:normal;word-spacing:normal;text-transform:none;direction:ltr;block-progression:tb;writing-mode:lr-tb;text-anchor:start;baseline-shift:baseline;color:#000000;fill:#1a1a1a;fill-opacity:1;stroke:none;stroke-width:0.92859286px;marker:none;visibility:visible;display:inline;overflow:visible;enable-background:accumulate;font-family:Bitstream Vera Sans;-inkscape-font-specification:Bitstream Vera Sans"
       d="m 52.411134,1011.9424 c -0.719333,0.1147 -1.0908,0.8686 -1,1.5408 0,1.8198 0,3.6395 0,5.4592 -1.222213,0.112 -2.444453,0.2214 -3.666667,0.3334 -0.0053,-1.8747 0.008,-3.7502 -0.0053,-5.6246 -0.0496,-0.9816 -1.377067,-1.4978 -2.076613,-0.8074 -0.625494,0.5648 -0.35968,1.452 -0.417147,2.1912 0,1.497 0,2.9938 0,4.4909 -0.801227,0.083 -1.615893,0.08 -2.407653,0.2213 -0.910374,0.2747 -0.90768,1.3374 -0.824054,2.1072 0.1064,2.5614 0.685814,5.343 2.618667,7.1755 2.18536,2.0499 5.724587,2.0677 8.202427,0.5469 2.492346,-1.477 3.79936,-4.3184 4.24272,-7.0861 0.144533,-1.0437 0.318853,-2.1147 0.2032,-3.1656 -0.1816,-0.7256 -0.986907,-1.0123 -1.658214,-0.8589 -0.57016,0.048 -1.140293,0.096 -1.710453,0.1413 -0.01067,-1.8875 0.02133,-3.7773 -0.016,-5.6635 -0.09813,-0.6781 -0.81712,-1.1645 -1.483253,-1.0032 z m 0.666667,14.0835 c -0.974214,1.4237 -2.701414,2.2051 -4.409654,2.1197 -1.502826,0.032 -2.9012,-1.0482 -3.286826,-2.4944 -0.380534,-1.1717 -0.526934,-2.4029 -0.636854,-3.6253 0.847254,-0.077 1.704,-0.1493 2.540134,-0.2427 1.94488,-0.1626 3.89752,-0.38 5.836,-0.528 0.31008,-0.059 1.0872,-0.064 1.569386,-0.1333 -0.036,1.5869 -0.59256,3.7981 -1.612186,4.9059 z"
       id="path66274"
       inkscape:connector-curvature="0"
       sodipodi:nodetypes="ccccccccccccccccccccccccccc"
       inkscape:export-filename="/home/dafeba/DCV/tallerD/bocetos/bateria.png"
       inkscape:export-xdpi="90.041016"
       inkscape:export-ydpi="90.041016" />
    <path
       inkscape:export-ydpi="90.041016"
       inkscape:export-xdpi="90.041016"
       inkscape:export-filename="/home/dafeba/DCV/tallerD/bocetos/bateria.png"
       inkscape:connector-curvature="0"
       style="fill:#000000;fill-opacity:1;stroke:none;display:inline"
       d="m 60.006308,933.7235 c -0.741174,0.032 -1.43944,0.096 -2.166667,0.16534 l 2.75,20.08346 c 0.478213,-0.0267 0.928107,-0.0933 1.416667,-0.0827 0.51112,0 0.9784,0.04 1.5,0.0827 1.782586,0.144 3.472506,0.47174 5.083333,0.99998 l 4.166667,-19.75011 c -2.415467,-0.6912 -4.95808,-1.12347 -7.583334,-1.33333 -0.884,-0.072 -1.800346,-0.152 -2.666666,-0.16534 -0.839254,-0.0267 -1.678,-0.0347 -2.5,0 z m -4.833334,0.5 c -4.744267,0.78774 -9.17384,2.42107 -13.166667,4.75014 l 0.0832,0.16533 8.666667,17.50001 c 2.197173,-1.1891 4.616693,-1.99734 7.166667,-2.41681 l -2.75,-20 z m 20.083334,1.83334 -4.166667,20.00004 c 2.26352,1.0837 4.36336,2.5154 6.166667,4.3333 l 10.083336,-17.00001 c -3.53816,-3.20667 -7.5796,-5.69147 -12.083336,-7.33333 z"
       id="path5291" />
    <path
       id="path66518"
       d="m 60.006308,933.7235 c -0.741174,0.032 -1.43944,0.096 -2.166667,0.16534 l 2.75,20.08346 c 0.478213,-0.0267 0.928107,-0.0933 1.416667,-0.0827 0.51112,0 0.9784,0.04 1.5,0.0827 1.782586,0.144 3.472506,0.47174 5.083333,0.99998 l 4.166667,-19.75011 c -2.415467,-0.6912 -4.95808,-1.12347 -7.583334,-1.33333 -0.884,-0.072 -1.800346,-0.152 -2.666666,-0.16534 -0.839254,-0.0267 -1.678,-0.0347 -2.5,0 z m -4.833334,0.5 c -4.744267,0.78774 -9.17384,2.42107 -13.166667,4.75014 l 0.0832,0.16533 8.666667,17.50001 c 2.197173,-1.1891 4.616693,-1.99734 7.166667,-2.41681 l -2.75,-20 z m 20.083334,1.83334 -4.166667,20.00004 c 2.26352,1.0837 4.36336,2.5154 6.166667,4.3333 l 10.083336,-17.00001 c -3.53816,-3.20667 -7.5796,-5.69147 -12.083336,-7.33333 z"
       style="fill:url(#linearGradient19042);fill-opacity:1;stroke:none;display:inline"
       inkscape:connector-curvature="0"
       inkscape:export-filename="/home/dafeba/DCV/tallerD/bocetos/bateria.png"
       inkscape:export-xdpi="90.041016"
       inkscape:export-ydpi="90.041016" />
    <path
       id="path66520"
       d="m 39.756307,940.47364 c -3.49808,2.36693 -6.661867,5.31253 -9.416667,8.66666 l 13.083334,13.58318 c 1.491733,-1.7837 3.152053,-3.3717 5,-4.6666 L 39.756307,940.47364 z M 28.672974,951.2235 c -2.51952,3.43894 -4.543467,7.38188 -6.25,11.49998 l 16,8.3334 c 0.916187,-2.2094 2.033707,-4.2824 3.333333,-6.1667 L 28.672974,951.2235 z m -7.333334,13.99998 c -1.287226,3.5595 -2.274986,7.2928 -2.916666,11.1667 l 17.583333,3.1667 c 0.341627,-2.0752 0.8576,-4.0683 1.5,-6 l -16.166667,-8.3334 z"
       style="fill:url(#linearGradient19039);fill-opacity:1;stroke:none;display:inline"
       inkscape:connector-curvature="0"
       inkscape:export-filename="/home/dafeba/DCV/tallerD/bocetos/bateria.png"
       inkscape:export-xdpi="90.041016"
       inkscape:export-ydpi="90.041016" />
    <path
       id="path66522"
       d="m 89.339644,945.30697 -10.25,17.16671 c 1.25514,1.6021 2.33328,3.433 3.25,5.4165 l 14.16666,-12.0832 c -1.98464,-3.96828 -4.32528,-7.52268 -7.16666,-10.50001 z m 8.41666,13.00001 -14.33333,12.2499 c 0.76563,2.1666 1.39125,4.4882 1.75,7 l 16.583336,-5 c -0.79006,-5.187 -2.155946,-9.9672 -4.000006,-14.2499 z m 4.333336,17 -16.583336,5.0832 c 0.0896,1.1701 0.0832,2.3517 0.0832,3.5835 -0.0301,1.2658 -0.12666,2.5336 -0.24986,3.7498 l 16.833326,2.4168 c 0.22454,-2.0904 0.3635,-4.2368 0.41667,-6.4168 0,-2.9194 -0.19707,-5.7021 -0.5,-8.4165 z"
       style="fill:#000000;fill-opacity:1;stroke:none;display:inline"
       inkscape:connector-curvature="0"
       inkscape:export-filename="/home/dafeba/DCV/tallerD/bocetos/bateria.png"
       inkscape:export-xdpi="90.041016"
       inkscape:export-ydpi="90.041016" />
    <path
       id="path66524"
       d="m 18.006307,979.05688 c -0.33936,2.7381 -0.502613,5.5106 -0.5,8.3333 0.0017,1.616 0.0472,3.2456 0.166667,4.8333 l 17.833333,-3.0832 c -0.07227,-0.9685 -0.0824,-1.9309 -0.0832,-2.9168 -0.0012,-1.3448 0.04053,-2.6853 0.166667,-4 l -17.583334,-3.1666 z m 17.833333,12.7501 -17.833333,3.0832 c 0.476347,4.0256 1.291307,7.89252 2.5,11.58342 l 16.666667,-8.66662 c -0.614694,-1.9128 -1.036667,-3.9333 -1.333334,-6 z m 2.250001,8.50002 -16.666667,8.6666 c 1.744986,4.5771 4.006906,8.828 6.833333,12.5 l 13.666667,-14.5 c -1.52856,-1.9882 -2.82464,-4.216 -3.833333,-6.6666 z"
       style="fill:url(#linearGradient19035);fill-opacity:1;stroke:none;display:inline"
       inkscape:connector-curvature="0"
       inkscape:export-filename="/home/dafeba/DCV/tallerD/bocetos/bateria.png"
       inkscape:export-xdpi="90.041016"
       inkscape:export-ydpi="90.041016" />
    <path
       sodipodi:nodetypes="csssc"
       id="path66580"
       d="m 69.155801,985.84808 c -0.1176,4.7448 -2.653387,8.336 -6.54032,9.0042 -5.197174,0.8939 -8.468107,-3.4154 -8.472774,-8.3629 -0.0053,-5.1469 3.41696,-9.6779 8.407361,-9.2856 3.929786,0.3088 6.605733,3.6576 6.605733,8.6443 z"
       style="fill:url(#linearGradient19016);fill-opacity:1;stroke:none;display:inline"
       inkscape:export-filename="/home/dafeba/DCV/tallerD/bocetos/bateria.png"
       inkscape:export-xdpi="90.041016"
       inkscape:export-ydpi="90.041016"
       inkscape:connector-curvature="0" />
    <path
       style="fill:#000000;fill-opacity:0.37004406;stroke:none;display:inline"
       d="m 63.470334,938.05417 c -1.814373,-0.21867 -2.173946,3.648 -2.477306,7.2808 l -3.271707,39.17891 c -0.385094,4.3878 3.559227,6.4616 5.68,6.3286 2.515627,-0.1574 6.15856,-2.3806 5.778373,-7.359 l -3.594746,-37.98851 c -0.184534,-3.5928 -0.391707,-7.14427 -2.114694,-7.4408 z"
       id="path66582"
       inkscape:connector-curvature="0"
       sodipodi:nodetypes="cccsccc"
       inkscape:transform-center-x="1.2097574"
       inkscape:transform-center-y="-6.9745875"
       inkscape:export-filename="/home/dafeba/DCV/tallerD/bocetos/bateria.png"
       inkscape:export-xdpi="90.041016"
       inkscape:export-ydpi="90.041016" />
    <path
       inkscape:export-ydpi="90.041016"
       inkscape:export-xdpi="90.041016"
       inkscape:export-filename="/home/dafeba/DCV/tallerD/bocetos/bateria.png"
       inkscape:transform-center-y="-6.9533755"
       inkscape:transform-center-x="1.2301621"
       sodipodi:nodetypes="csccscc"
       inkscape:connector-curvature="0"
       id="path66584"
       d="m 63.924521,940.50164 c 0.01333,-1.59734 -0.68824,-2.62934 -1.634533,-2.82054 -0.930694,-0.18666 -1.9424,0.50987 -2.128454,2.57094 l -3.765733,43.12804 c -0.385094,4.3877 3.559227,6.4616 5.68,6.3282 2.515627,-0.1573 5.247467,-2.5072 4.86728,-7.4853 z"
       style="fill:url(#linearGradient19012);stroke:none;display:inline" />
    <path
       inkscape:connector-curvature="0"
       inkscape:export-ydpi="90.041016"
       inkscape:export-xdpi="90.041016"
       inkscape:export-filename="/home/dafeba/DCV/tallerD/bocetos/bateria.png"
       style="fill:url(#linearGradient19009);fill-opacity:1;stroke:none;display:inline"
       d="m 68.405801,985.80988 c -0.09413,3.7968 -2.123173,6.6704 -5.233387,7.2054 -4.158666,0.7152 -6.775973,-2.7331 -6.779707,-6.692 -0.0053,-4.1184 2.734161,-7.744 6.727361,-7.4302 3.144506,0.248 5.285733,2.9267 5.285733,6.9168 z"
       id="path66586"
       sodipodi:nodetypes="csssc" />
  </g>
</svg>
