<?xml version="1.0" encoding="UTF-8" standalone="no"?>
<!-- Created with Inkscape (http://www.inkscape.org/) -->

<svg
   xmlns:dc="http://purl.org/dc/elements/1.1/"
   xmlns:cc="http://creativecommons.org/ns#"
   xmlns:rdf="http://www.w3.org/1999/02/22-rdf-syntax-ns#"
   xmlns:svg="http://www.w3.org/2000/svg"
   xmlns="http://www.w3.org/2000/svg"
   xmlns:xlink="http://www.w3.org/1999/xlink"
   xmlns:sodipodi="http://sodipodi.sourceforge.net/DTD/sodipodi-0.dtd"
   xmlns:inkscape="http://www.inkscape.org/namespaces/inkscape"
   width="128"
   height="128"
   id="svg70569"
   version="1.1"
   inkscape:version="0.48.3.1 r9886"
   sodipodi:docname="Documento nuevo 16">
  <defs
     id="defs70571">
    <linearGradient
       id="linearGradient5316">
      <stop
         style="stop-color:#87c7ff;stop-opacity:1;"
         offset="0"
         id="stop5320" />
      <stop
         style="stop-color:#74aadb;stop-opacity:1;"
         offset="1"
         id="stop5322" />
    </linearGradient>
    <linearGradient
       id="linearGradient5362-5">
      <stop
         style="stop-color:#ffffff;stop-opacity:1;"
         offset="0"
         id="stop5364-9" />
      <stop
         style="stop-color:#ffffff;stop-opacity:0;"
         offset="1"
         id="stop5366-1" />
    </linearGradient>
    <linearGradient
       id="linearGradient70361">
      <stop
         style="stop-color:#87c7ff;stop-opacity:1;"
         offset="0"
         id="stop70363" />
      <stop
         style="stop-color:#74aadb;stop-opacity:1;"
         offset="1"
         id="stop70365" />
    </linearGradient>
    <linearGradient
       id="linearGradient70056">
      <stop
         id="stop70058"
         offset="0"
         style="stop-color:#c3c3c3;stop-opacity:1;" />
      <stop
         id="stop70060"
         offset="1"
         style="stop-color:#6e6e6e;stop-opacity:1;" />
    </linearGradient>
    <linearGradient
       id="linearGradient70372">
      <stop
         id="stop70374"
         offset="0"
         style="stop-color:#c3c3c3;stop-opacity:1;" />
      <stop
         id="stop70376"
         offset="1"
         style="stop-color:#6e6e6e;stop-opacity:1;" />
    </linearGradient>
    <linearGradient
       id="linearGradient70379">
      <stop
         id="stop70381"
         offset="0"
         style="stop-color:#c3c3c3;stop-opacity:1;" />
      <stop
         id="stop70383"
         offset="1"
         style="stop-color:#6e6e6e;stop-opacity:1;" />
    </linearGradient>
    <linearGradient
       id="linearGradient70386">
      <stop
         id="stop70388"
         offset="0"
         style="stop-color:#c3c3c3;stop-opacity:1;" />
      <stop
         id="stop70390"
         offset="1"
         style="stop-color:#6e6e6e;stop-opacity:1;" />
    </linearGradient>
    <linearGradient
       id="linearGradient70393">
      <stop
         id="stop70395"
         offset="0"
         style="stop-color:#c3c3c3;stop-opacity:1;" />
      <stop
         id="stop70397"
         offset="1"
         style="stop-color:#6e6e6e;stop-opacity:1;" />
    </linearGradient>
    <linearGradient
       id="linearGradient70400">
      <stop
         id="stop70402"
         offset="0"
         style="stop-color:#c3c3c3;stop-opacity:1;" />
      <stop
         id="stop70404"
         offset="1"
         style="stop-color:#6e6e6e;stop-opacity:1;" />
    </linearGradient>
    <linearGradient
       id="linearGradient70407">
      <stop
         id="stop70409"
         offset="0"
         style="stop-color:#c3c3c3;stop-opacity:1;" />
      <stop
         id="stop70411"
         offset="1"
         style="stop-color:#6e6e6e;stop-opacity:1;" />
    </linearGradient>
    <linearGradient
       id="linearGradient70414">
      <stop
         id="stop70416"
         offset="0"
         style="stop-color:#c3c3c3;stop-opacity:1;" />
      <stop
         id="stop70418"
         offset="1"
         style="stop-color:#6e6e6e;stop-opacity:1;" />
    </linearGradient>
    <linearGradient
       id="linearGradient70421">
      <stop
         style="stop-color:#ffffff;stop-opacity:1;"
         offset="0"
         id="stop70423" />
      <stop
         style="stop-color:#ffffff;stop-opacity:0;"
         offset="1"
         id="stop70425" />
    </linearGradient>
    <linearGradient
       id="linearGradient70428">
      <stop
         style="stop-color:#ffffff;stop-opacity:1;"
         offset="0"
         id="stop70430" />
      <stop
         style="stop-color:#ffffff;stop-opacity:0;"
         offset="1"
         id="stop70432" />
    </linearGradient>
    <linearGradient
       id="linearGradient70435">
      <stop
         style="stop-color:#ffffff;stop-opacity:1;"
         offset="0"
         id="stop70437" />
      <stop
         style="stop-color:#ffffff;stop-opacity:0;"
         offset="1"
         id="stop70439" />
    </linearGradient>
    <linearGradient
       id="linearGradient70442">
      <stop
         style="stop-color:#ffffff;stop-opacity:1;"
         offset="0"
         id="stop70444" />
      <stop
         style="stop-color:#ffffff;stop-opacity:0;"
         offset="1"
         id="stop70446" />
    </linearGradient>
    <linearGradient
       id="linearGradient70449">
      <stop
         style="stop-color:#ffffff;stop-opacity:1;"
         offset="0"
         id="stop70451" />
      <stop
         style="stop-color:#ffffff;stop-opacity:0;"
         offset="1"
         id="stop70453" />
    </linearGradient>
    <linearGradient
       id="linearGradient70456">
      <stop
         style="stop-color:#ffffff;stop-opacity:1;"
         offset="0"
         id="stop70458" />
      <stop
         style="stop-color:#ffffff;stop-opacity:0;"
         offset="1"
         id="stop70460" />
    </linearGradient>
    <linearGradient
       id="linearGradient70463">
      <stop
         style="stop-color:#ffffff;stop-opacity:1;"
         offset="0"
         id="stop70465" />
      <stop
         style="stop-color:#ffffff;stop-opacity:0;"
         offset="1"
         id="stop70467" />
    </linearGradient>
    <linearGradient
       id="linearGradient70470">
      <stop
         id="stop70472"
         offset="0"
         style="stop-color:#c3c3c3;stop-opacity:1;" />
      <stop
         id="stop70474"
         offset="1"
         style="stop-color:#6e6e6e;stop-opacity:1;" />
    </linearGradient>
    <linearGradient
       id="linearGradient70477">
      <stop
         id="stop70479"
         offset="0"
         style="stop-color:#c3c3c3;stop-opacity:1;" />
      <stop
         id="stop70481"
         offset="1"
         style="stop-color:#6e6e6e;stop-opacity:1;" />
    </linearGradient>
    <linearGradient
       id="linearGradient70484">
      <stop
         id="stop70486"
         offset="0"
         style="stop-color:#c3c3c3;stop-opacity:1;" />
      <stop
         id="stop70488"
         offset="1"
         style="stop-color:#6e6e6e;stop-opacity:1;" />
    </linearGradient>
    <linearGradient
       id="linearGradient70491">
      <stop
         id="stop70493"
         offset="0"
         style="stop-color:#c3c3c3;stop-opacity:1;" />
      <stop
         id="stop70495"
         offset="1"
         style="stop-color:#6e6e6e;stop-opacity:1;" />
    </linearGradient>
    <linearGradient
       id="linearGradient70498">
      <stop
         id="stop70500"
         offset="0"
         style="stop-color:#c3c3c3;stop-opacity:1;" />
      <stop
         id="stop70502"
         offset="1"
         style="stop-color:#6e6e6e;stop-opacity:1;" />
    </linearGradient>
    <linearGradient
       id="linearGradient70505">
      <stop
         id="stop70507"
         offset="0"
         style="stop-color:#c3c3c3;stop-opacity:1;" />
      <stop
         id="stop70509"
         offset="1"
         style="stop-color:#6e6e6e;stop-opacity:1;" />
    </linearGradient>
    <linearGradient
       id="linearGradient70512">
      <stop
         style="stop-color:#87c7ff;stop-opacity:1;"
         offset="0"
         id="stop70514" />
      <stop
         style="stop-color:#74aadb;stop-opacity:1;"
         offset="1"
         id="stop70516" />
    </linearGradient>
    <linearGradient
       id="linearGradient70519">
      <stop
         id="stop70521"
         offset="0"
         style="stop-color:#c3c3c3;stop-opacity:1;" />
      <stop
         id="stop70523"
         offset="1"
         style="stop-color:#6e6e6e;stop-opacity:1;" />
    </linearGradient>
    <linearGradient
       id="linearGradient70526">
      <stop
         id="stop70528"
         offset="0"
         style="stop-color:#c3c3c3;stop-opacity:1;" />
      <stop
         id="stop70530"
         offset="1"
         style="stop-color:#6e6e6e;stop-opacity:1;" />
    </linearGradient>
    <linearGradient
       id="linearGradient9863">
      <stop
         style="stop-color:#2f445a;stop-opacity:1;"
         offset="0"
         id="stop9865" />
      <stop
         style="stop-color:#415f7c;stop-opacity:1"
         offset="1"
         id="stop9867" />
    </linearGradient>
    <linearGradient
       inkscape:collect="always"
       xlink:href="#linearGradient70056-9"
       id="linearGradient72715"
       gradientUnits="userSpaceOnUse"
       gradientTransform="matrix(2.6666667,0,0,2.6666667,-1294.0251,-1580.8227)"
       x1="495.84396"
       y1="952.03333"
       x2="525.43182"
       y2="980.05243" />
    <linearGradient
       id="linearGradient70056-9">
      <stop
         id="stop70058-7"
         offset="0"
         style="stop-color:#c3c3c3;stop-opacity:1;" />
      <stop
         id="stop70060-1"
         offset="1"
         style="stop-color:#6e6e6e;stop-opacity:1;" />
    </linearGradient>
    <linearGradient
       inkscape:collect="always"
       xlink:href="#linearGradient70056-9"
       id="linearGradient72713"
       gradientUnits="userSpaceOnUse"
       gradientTransform="matrix(2.6666667,0,0,2.6666667,-1294.0251,-1580.8227)"
       x1="495.84396"
       y1="952.03333"
       x2="525.43182"
       y2="980.05243" />
    <linearGradient
       id="linearGradient73080">
      <stop
         id="stop73082"
         offset="0"
         style="stop-color:#c3c3c3;stop-opacity:1;" />
      <stop
         id="stop73084"
         offset="1"
         style="stop-color:#6e6e6e;stop-opacity:1;" />
    </linearGradient>
    <linearGradient
       inkscape:collect="always"
       xlink:href="#linearGradient70056-9"
       id="linearGradient72711"
       gradientUnits="userSpaceOnUse"
       gradientTransform="matrix(2.6666667,0,0,2.6666667,-1294.0251,-1580.8227)"
       x1="495.84396"
       y1="952.03333"
       x2="525.43182"
       y2="980.05243" />
    <linearGradient
       id="linearGradient73087">
      <stop
         id="stop73089"
         offset="0"
         style="stop-color:#c3c3c3;stop-opacity:1;" />
      <stop
         id="stop73091"
         offset="1"
         style="stop-color:#6e6e6e;stop-opacity:1;" />
    </linearGradient>
    <linearGradient
       inkscape:collect="always"
       xlink:href="#linearGradient70056-9"
       id="linearGradient72709"
       gradientUnits="userSpaceOnUse"
       gradientTransform="matrix(2.6666667,0,0,2.6666667,-1294.0251,-1580.8227)"
       x1="495.84396"
       y1="952.03333"
       x2="525.43182"
       y2="980.05243" />
    <linearGradient
       id="linearGradient73094">
      <stop
         id="stop73096"
         offset="0"
         style="stop-color:#c3c3c3;stop-opacity:1;" />
      <stop
         id="stop73098"
         offset="1"
         style="stop-color:#6e6e6e;stop-opacity:1;" />
    </linearGradient>
    <linearGradient
       inkscape:collect="always"
       xlink:href="#linearGradient70056-9"
       id="linearGradient72707"
       gradientUnits="userSpaceOnUse"
       gradientTransform="matrix(2.6666667,0,0,2.6666667,-1294.0251,-1580.8227)"
       x1="495.84396"
       y1="952.03333"
       x2="525.43182"
       y2="980.05243" />
    <linearGradient
       id="linearGradient73101">
      <stop
         id="stop73103"
         offset="0"
         style="stop-color:#c3c3c3;stop-opacity:1;" />
      <stop
         id="stop73105"
         offset="1"
         style="stop-color:#6e6e6e;stop-opacity:1;" />
    </linearGradient>
    <linearGradient
       inkscape:collect="always"
       xlink:href="#linearGradient70056-9"
       id="linearGradient72705"
       gradientUnits="userSpaceOnUse"
       gradientTransform="matrix(2.6666667,0,0,2.6666667,-1294.0251,-1580.8227)"
       x1="495.84396"
       y1="952.03333"
       x2="525.43182"
       y2="980.05243" />
    <linearGradient
       id="linearGradient73108">
      <stop
         id="stop73110"
         offset="0"
         style="stop-color:#c3c3c3;stop-opacity:1;" />
      <stop
         id="stop73112"
         offset="1"
         style="stop-color:#6e6e6e;stop-opacity:1;" />
    </linearGradient>
    <linearGradient
       inkscape:collect="always"
       xlink:href="#linearGradient70056-9"
       id="linearGradient72703"
       gradientUnits="userSpaceOnUse"
       gradientTransform="matrix(2.6666667,0,0,2.6666667,-1294.0251,-1580.8227)"
       x1="495.84396"
       y1="952.03333"
       x2="525.43182"
       y2="980.05243" />
    <linearGradient
       id="linearGradient73115">
      <stop
         id="stop73117"
         offset="0"
         style="stop-color:#c3c3c3;stop-opacity:1;" />
      <stop
         id="stop73119"
         offset="1"
         style="stop-color:#6e6e6e;stop-opacity:1;" />
    </linearGradient>
    <linearGradient
       inkscape:collect="always"
       xlink:href="#linearGradient70056-9"
       id="linearGradient72701"
       gradientUnits="userSpaceOnUse"
       gradientTransform="matrix(2.6666667,0,0,2.6666667,-1294.0251,-1580.8227)"
       x1="495.84396"
       y1="952.03333"
       x2="525.43182"
       y2="980.05243" />
    <linearGradient
       id="linearGradient73122">
      <stop
         id="stop73124"
         offset="0"
         style="stop-color:#c3c3c3;stop-opacity:1;" />
      <stop
         id="stop73126"
         offset="1"
         style="stop-color:#6e6e6e;stop-opacity:1;" />
    </linearGradient>
    <linearGradient
       inkscape:collect="always"
       xlink:href="#linearGradient70056-9"
       id="linearGradient72699"
       gradientUnits="userSpaceOnUse"
       gradientTransform="matrix(2.6666667,0,0,2.6666667,-1294.0251,-1580.8227)"
       x1="495.84396"
       y1="952.03333"
       x2="525.43182"
       y2="980.05243" />
    <linearGradient
       id="linearGradient73129">
      <stop
         id="stop73131"
         offset="0"
         style="stop-color:#c3c3c3;stop-opacity:1;" />
      <stop
         id="stop73133"
         offset="1"
         style="stop-color:#6e6e6e;stop-opacity:1;" />
    </linearGradient>
    <linearGradient
       inkscape:collect="always"
       xlink:href="#linearGradient5362-5-7"
       id="linearGradient72697"
       gradientUnits="userSpaceOnUse"
       gradientTransform="matrix(2.6666667,0,0,2.6666667,-1454.0251,-1580.8227)"
       x1="563.46381"
       y1="966.29388"
       x2="560.87317"
       y2="973.58594" />
    <linearGradient
       id="linearGradient5362-5-7">
      <stop
         style="stop-color:#ffffff;stop-opacity:1;"
         offset="0"
         id="stop5364-9-9" />
      <stop
         style="stop-color:#ffffff;stop-opacity:0;"
         offset="1"
         id="stop5366-1-0" />
    </linearGradient>
    <linearGradient
       inkscape:collect="always"
       xlink:href="#linearGradient5362-5-7"
       id="linearGradient72695"
       gradientUnits="userSpaceOnUse"
       gradientTransform="matrix(2.6666667,0,0,2.6666667,-1454.0251,-1580.8227)"
       x1="569.9176"
       y1="968.8996"
       x2="570.15814"
       y2="977.42908" />
    <linearGradient
       id="linearGradient73140">
      <stop
         style="stop-color:#ffffff;stop-opacity:1;"
         offset="0"
         id="stop73142" />
      <stop
         style="stop-color:#ffffff;stop-opacity:0;"
         offset="1"
         id="stop73144" />
    </linearGradient>
    <linearGradient
       inkscape:collect="always"
       xlink:href="#linearGradient5362-5-7"
       id="linearGradient72693"
       gradientUnits="userSpaceOnUse"
       gradientTransform="matrix(2.6666667,0,0,2.6666667,-1454.0251,-1580.8227)"
       x1="573.33215"
       y1="965.76404"
       x2="578.60663"
       y2="972.12799" />
    <linearGradient
       id="linearGradient73147">
      <stop
         style="stop-color:#ffffff;stop-opacity:1;"
         offset="0"
         id="stop73149" />
      <stop
         style="stop-color:#ffffff;stop-opacity:0;"
         offset="1"
         id="stop73151" />
    </linearGradient>
    <linearGradient
       inkscape:collect="always"
       xlink:href="#linearGradient5362-5-7"
       id="linearGradient72691"
       gradientUnits="userSpaceOnUse"
       gradientTransform="matrix(2.6666667,0,0,2.6666667,-1454.0251,-1580.8227)"
       x1="579.84863"
       y1="958.64478"
       x2="580.14661"
       y2="963.46198" />
    <linearGradient
       id="linearGradient73154">
      <stop
         style="stop-color:#ffffff;stop-opacity:1;"
         offset="0"
         id="stop73156" />
      <stop
         style="stop-color:#ffffff;stop-opacity:0;"
         offset="1"
         id="stop73158" />
    </linearGradient>
    <linearGradient
       inkscape:collect="always"
       xlink:href="#linearGradient5362-5-7"
       id="linearGradient72689"
       gradientUnits="userSpaceOnUse"
       gradientTransform="matrix(2.6666667,0,0,2.6666667,-1454.0251,-1580.8227)"
       x1="553.27618"
       y1="959.94855"
       x2="553.66211"
       y2="965.25183" />
    <linearGradient
       id="linearGradient73161">
      <stop
         style="stop-color:#ffffff;stop-opacity:1;"
         offset="0"
         id="stop73163" />
      <stop
         style="stop-color:#ffffff;stop-opacity:0;"
         offset="1"
         id="stop73165" />
    </linearGradient>
    <linearGradient
       inkscape:collect="always"
       xlink:href="#linearGradient5362-5-7"
       id="linearGradient72687"
       gradientUnits="userSpaceOnUse"
       gradientTransform="matrix(2.6666667,0,0,2.6666667,-1454.0251,-1580.8227)"
       x1="570.07867"
       y1="957.39148"
       x2="569.13593"
       y2="964.28577" />
    <linearGradient
       id="linearGradient73168">
      <stop
         style="stop-color:#ffffff;stop-opacity:1;"
         offset="0"
         id="stop73170" />
      <stop
         style="stop-color:#ffffff;stop-opacity:0;"
         offset="1"
         id="stop73172" />
    </linearGradient>
    <linearGradient
       inkscape:collect="always"
       xlink:href="#linearGradient5362-5-7"
       id="linearGradient72685"
       gradientUnits="userSpaceOnUse"
       gradientTransform="matrix(2.6666667,0,0,2.6666667,-1454.0251,-1580.8227)"
       x1="566.54944"
       y1="943.39459"
       x2="568.38373"
       y2="950.64246" />
    <linearGradient
       id="linearGradient73175">
      <stop
         style="stop-color:#ffffff;stop-opacity:1;"
         offset="0"
         id="stop73177" />
      <stop
         style="stop-color:#ffffff;stop-opacity:0;"
         offset="1"
         id="stop73179" />
    </linearGradient>
    <linearGradient
       inkscape:collect="always"
       xlink:href="#linearGradient5362-5-7"
       id="linearGradient72683"
       gradientUnits="userSpaceOnUse"
       gradientTransform="matrix(2.6666667,0,0,2.6666667,-1454.0251,-1580.8227)"
       x1="582.08319"
       y1="947.46552"
       x2="579.84314"
       y2="954.625" />
    <linearGradient
       id="linearGradient73182">
      <stop
         style="stop-color:#ffffff;stop-opacity:1;"
         offset="0"
         id="stop73184" />
      <stop
         style="stop-color:#ffffff;stop-opacity:0;"
         offset="1"
         id="stop73186" />
    </linearGradient>
    <linearGradient
       inkscape:collect="always"
       xlink:href="#linearGradient70056-9"
       id="linearGradient72681"
       gradientUnits="userSpaceOnUse"
       gradientTransform="matrix(2.6666667,0,0,2.6666667,-1454.0251,-1580.8227)"
       x1="553.10724"
       y1="948.68689"
       x2="558.46014"
       y2="955.84637" />
    <linearGradient
       id="linearGradient73189">
      <stop
         id="stop73191"
         offset="0"
         style="stop-color:#c3c3c3;stop-opacity:1;" />
      <stop
         id="stop73193"
         offset="1"
         style="stop-color:#6e6e6e;stop-opacity:1;" />
    </linearGradient>
    <linearGradient
       inkscape:collect="always"
       xlink:href="#linearGradient70056-9"
       id="linearGradient72679"
       gradientUnits="userSpaceOnUse"
       gradientTransform="matrix(2.6666667,0,0,2.6666667,-1294.0251,-1580.8227)"
       x1="515.4292"
       y1="963.63873"
       x2="517.66461"
       y2="966.63873" />
    <linearGradient
       id="linearGradient73196">
      <stop
         id="stop73198"
         offset="0"
         style="stop-color:#c3c3c3;stop-opacity:1;" />
      <stop
         id="stop73200"
         offset="1"
         style="stop-color:#6e6e6e;stop-opacity:1;" />
    </linearGradient>
    <linearGradient
       inkscape:collect="always"
       xlink:href="#linearGradient70056-9"
       id="linearGradient72677"
       gradientUnits="userSpaceOnUse"
       gradientTransform="matrix(2.6666667,0,0,2.6666667,-1294.0251,-1580.8227)"
       x1="513.24377"
       y1="971.68604"
       x2="516.78125"
       y2="974.87354" />
    <linearGradient
       id="linearGradient73203">
      <stop
         id="stop73205"
         offset="0"
         style="stop-color:#c3c3c3;stop-opacity:1;" />
      <stop
         id="stop73207"
         offset="1"
         style="stop-color:#6e6e6e;stop-opacity:1;" />
    </linearGradient>
    <linearGradient
       inkscape:collect="always"
       xlink:href="#linearGradient70056-9"
       id="linearGradient72675"
       gradientUnits="userSpaceOnUse"
       gradientTransform="matrix(2.6666667,0,0,2.6666667,-1294.0251,-1580.8227)"
       x1="513.82202"
       y1="955.75"
       x2="516"
       y2="959.0625" />
    <linearGradient
       id="linearGradient73210">
      <stop
         id="stop73212"
         offset="0"
         style="stop-color:#c3c3c3;stop-opacity:1;" />
      <stop
         id="stop73214"
         offset="1"
         style="stop-color:#6e6e6e;stop-opacity:1;" />
    </linearGradient>
    <linearGradient
       inkscape:collect="always"
       xlink:href="#linearGradient70056-9"
       id="linearGradient72673"
       gradientUnits="userSpaceOnUse"
       gradientTransform="matrix(2.6666667,0,0,2.6666667,-1294.0251,-1580.8227)"
       x1="506.0285"
       y1="977.3407"
       x2="508.40887"
       y2="981.9657" />
    <linearGradient
       id="linearGradient73217">
      <stop
         id="stop73219"
         offset="0"
         style="stop-color:#c3c3c3;stop-opacity:1;" />
      <stop
         id="stop73221"
         offset="1"
         style="stop-color:#6e6e6e;stop-opacity:1;" />
    </linearGradient>
    <linearGradient
       inkscape:collect="always"
       xlink:href="#linearGradient70056-9"
       id="linearGradient72671"
       gradientUnits="userSpaceOnUse"
       gradientTransform="matrix(2.6666667,0,0,2.6666667,-1294.0251,-1580.8227)"
       x1="494.44818"
       y1="973.71851"
       x2="496.84381"
       y2="978.84351" />
    <linearGradient
       id="linearGradient73224">
      <stop
         id="stop73226"
         offset="0"
         style="stop-color:#c3c3c3;stop-opacity:1;" />
      <stop
         id="stop73228"
         offset="1"
         style="stop-color:#6e6e6e;stop-opacity:1;" />
    </linearGradient>
    <linearGradient
       inkscape:collect="always"
       xlink:href="#linearGradient5316-7"
       id="linearGradient72669"
       gradientUnits="userSpaceOnUse"
       gradientTransform="matrix(2.6666667,0,0,2.6666667,-1294.0251,-1580.8227)"
       x1="497.20895"
       y1="956.96875"
       x2="501.71875"
       y2="958.78125" />
    <linearGradient
       id="linearGradient5316-7">
      <stop
         style="stop-color:#87c7ff;stop-opacity:1;"
         offset="0"
         id="stop5320-6" />
      <stop
         style="stop-color:#74aadb;stop-opacity:1;"
         offset="1"
         id="stop5322-7" />
    </linearGradient>
    <linearGradient
       inkscape:collect="always"
       xlink:href="#linearGradient70056-9"
       id="linearGradient72667"
       gradientUnits="userSpaceOnUse"
       gradientTransform="matrix(2.6666667,0,0,2.6666667,-1294.0251,-1580.8227)"
       x1="507.74323"
       y1="953.01746"
       x2="510.35046"
       y2="956.45496" />
    <linearGradient
       id="linearGradient73235">
      <stop
         id="stop73237"
         offset="0"
         style="stop-color:#c3c3c3;stop-opacity:1;" />
      <stop
         id="stop73239"
         offset="1"
         style="stop-color:#6e6e6e;stop-opacity:1;" />
    </linearGradient>
    <linearGradient
       inkscape:collect="always"
       xlink:href="#linearGradient70056-9"
       id="linearGradient72665"
       gradientUnits="userSpaceOnUse"
       gradientTransform="matrix(2.6666667,0,0,2.6666667,-1294.0251,-1580.8227)"
       x1="504.64279"
       y1="963.93219"
       x2="507.48212"
       y2="966.18219" />
    <linearGradient
       id="linearGradient73242">
      <stop
         id="stop73244"
         offset="0"
         style="stop-color:#c3c3c3;stop-opacity:1;" />
      <stop
         id="stop73246"
         offset="1"
         style="stop-color:#6e6e6e;stop-opacity:1;" />
    </linearGradient>
    <linearGradient
       inkscape:collect="always"
       xlink:href="#linearGradient70056-9"
       id="linearGradient72663"
       gradientUnits="userSpaceOnUse"
       gradientTransform="matrix(2.6666667,0,0,2.6666667,-1294.0251,-1580.8227)"
       x1="488.76834"
       y1="964.76569"
       x2="491.40625"
       y2="967.89069" />
    <linearGradient
       id="linearGradient73249">
      <stop
         id="stop73251"
         offset="0"
         style="stop-color:#c3c3c3;stop-opacity:1;" />
      <stop
         id="stop73253"
         offset="1"
         style="stop-color:#6e6e6e;stop-opacity:1;" />
    </linearGradient>
    <linearGradient
       inkscape:collect="always"
       xlink:href="#linearGradient9863-0"
       id="linearGradient72661"
       gradientUnits="userSpaceOnUse"
       gradientTransform="matrix(2.6666667,0,0,2.6666667,-1134.0251,-1420.8226)"
       x1="428.26834"
       y1="904.04584"
       x2="469.82092"
       y2="904.04584" />
    <linearGradient
       id="linearGradient9863-0">
      <stop
         style="stop-color:#2f445a;stop-opacity:1;"
         offset="0"
         id="stop9865-4" />
      <stop
         style="stop-color:#415f7c;stop-opacity:1"
         offset="1"
         id="stop9867-8" />
    </linearGradient>
  </defs>
  <sodipodi:namedview
     id="base"
     pagecolor="#ffffff"
     bordercolor="#666666"
     borderopacity="1.0"
     inkscape:pageopacity="0.0"
     inkscape:pageshadow="2"
     inkscape:zoom="1.4"
     inkscape:cx="206.85029"
     inkscape:cy="25.050763"
     inkscape:document-units="px"
     inkscape:current-layer="layer1"
     showgrid="false"
     inkscape:window-width="1366"
     inkscape:window-height="721"
     inkscape:window-x="0"
     inkscape:window-y="24"
     inkscape:window-maximized="1" />
  <metadata
     id="metadata70574">
    <rdf:RDF>
      <cc:Work
         rdf:about="">
        <dc:format>image/svg+xml</dc:format>
        <dc:type
           rdf:resource="http://purl.org/dc/dcmitype/StillImage" />
        <dc:title></dc:title>
      </cc:Work>
    </rdf:RDF>
  </metadata>
  <g
     inkscape:label="Capa 1"
     inkscape:groupmode="layer"
     id="layer1"
     transform="translate(0,-924.36218)">
    <path
       style="fill:none;stroke:url(#linearGradient72661);stroke-width:5.33333349;stroke-linecap:round;stroke-linejoin:round;stroke-miterlimit:4;stroke-dasharray:none;display:inline"
       d="m 71.808273,937.26042 c -0.30731,0.027 -0.61832,0 -0.91667,0.083 l -7.5,0.5835 c -4.86581,0.3144 -8.55867,7.9805 -8.25,17.1666 0.0752,2.2371 0.43016,4.3272 0.91667,6.2499 -0.78048,-1.1469 -1.67078,-2.2256 -2.66667,-3.3333 -4.96029,-5.5168 -11.09907,-8.7344 -15.58333,-8.5 l -7.66667,0.5 c -1.29523,0.1226 -2.41909,0.504 -3.33333,1.2501 -4.06158,3.3144 -2.0804,11.8437 4.41666,19 4.84872,5.3405 10.83072,8.4037 15.25,8.2499 l 7.58334,0.168 c 1.4756,-0.069 2.81536,-0.4944 3.83333,-1.3334 2.14856,-1.7704 2.5552,-4.956 1.58333,-8.6666 1.46011,1.7061 3.17531,2.6181 5,2.5 l 7.83334,0 c 1.22917,-0.059 2.44869,-0.5904 3.5,-1.5 -0.83152,2.9245 -0.61059,5.489 0.83333,7 0.78469,0.8213 1.81027,1.3256 3.08333,1.4168 l 7.91667,0.2506 c 3.76045,0.208 9.15171,-2.5666 13.833327,-7.5 6.34464,-6.6858 8.94598,-14.7738 5.83334,-18.0834 -0.8568,-0.911 -1.9923,-1.3782 -3.41667,-1.4166 -0.46877,0 -0.98739,0 -1.5,0.083 l -6.416667,0.3333 c -3.71704,-0.1173 -9.01333,2.5934 -13.58333,7.3334 -0.90579,0.9394 -1.67179,1.94 -2.41667,2.9165 0.66656,-2.4637 1.04784,-5.2763 1,-8.2499 -0.15066,-9.3674 -4.24992,-16.736 -9.16666,-16.5 z m -8.91667,39.6667 c -5.23264,0.4904 -9.42651,4.3248 -10.75,9.2501 -2.8936,-2.2669 -7.86421,-3.8085 -13.75,-3.9168 -2.40053,-0.056 -6.69267,-0.1546 -8.83333,-0.168 -10.50238,0.2507 -19.541473,4.6646 -20.1666738,9.9168 -0.37899,3.1838 2.4018408,5.9718 7.0000008,7.5832 2.199073,0.77098 4.802453,1.24478 7.666673,1.41678 2.42464,0.2267 4.63458,0.4715 6.91666,0.5832 1.14992,0.083 2.35635,0.112 3.58334,0.083 8.11877,-0.1947 15.26968,-2.91948 18.5,-6.58318 1.87992,3.676 5.50781,6.24798 9.66666,6.58318 l 6.58334,0.7501 c 0.98757,0.1654 2.03754,0.1814 3.08333,0.083 1.24323,-0.1173 2.39661,-0.4512 3.5,-0.9168 -0.076,0.091 -0.18,0.152 -0.24987,0.2507 -2.84072,3.9565 0.47542,10.6509 7.41667,15 3.37141,2.1125 7.02523,3.3176 10.16667,3.5 l 4.66666,0.6666 c 1.34038,0.3272 2.611097,0.567 3.833337,0.5835 3.05746,0.04 5.62616,-0.8917 7,-2.8333 2.86768,-4.0526 -0.49294,-10.9616 -7.5,-15.4168 -3.596267,-2.2864 -7.457417,-3.50558 -10.749997,-3.58318 l -5.08334,-0.4168 c -0.86216,-0.1574 -1.69229,-0.224 -2.5,-0.2507 -1.31458,-0.043 -2.48933,0.1093 -3.58333,0.4168 1.62224,-1.4384 2.84293,-3.3224 3.58333,-5.4168 1.8788,1.5832 4.67758,2.7235 8.08334,3.0835 l 8.33333,0.5832 c 0.880477,0.075 1.810987,0.112 2.749997,0.083 8.07304,-0.248 14.97323,-4.3922 15.41667,-9.2498 0.4224,-4.6272 -5.15744,-8.216 -12.66667,-8.3334 -0.374,0 -0.78368,0 -1.16667,0 l -6.499997,-0.2506 c -0.46157,0 -0.94088,0 -1.41666,0 -5.44254,0.1653 -10.29,2.1088 -13,4.8333 -1.8071,-4.4296 -5.95214,-7.4627 -10.75,-7.5835 -0.47003,0 -1.01963,-0.045 -1.5,0 l -4.91667,-0.2506 c -0.33568,-0.043 -0.65691,-0.069 -1,-0.083 -0.53064,-0.027 -1.12229,-0.051 -1.66667,0 z m -16.08333,24.33328 c -3.84915,-0.069 -9.19075,2.4816 -14,7.0835 -6.98235,6.6811 -10.19032,15.0971 -7.16667,18.8333 0.58376,0.7214 1.33171,1.2219 2.25,1.5 l 7,1.5832 c 3.87696,1.4342 10.59965,-1.237 16.5,-6.9165 2.03037,-1.9544 3.73648,-4.072 5.08333,-6.1667 -0.70202,2.4638 -1.14832,5.2099 -1.08333,8.1667 0.18533,8.4363 3.85021,15.0291 8.33333,15.5 l 7.25,1.8333 1.33334,0 c 4.9569,-0.4525 8.7836,-8.3029 8.58333,-17.5834 -0.18827,-8.7302 -3.85072,-15.5952 -8.41667,-16 l -7.75,-0.9166 c -0.25333,-0.027 -0.49186,-0.027 -0.75,0 -1.74472,0.1574 -3.32024,1.2766 -4.66666,3 0.84568,-2.9341 0.75277,-5.5058 -0.58334,-7.1666 -0.90992,-1.1312 -2.26634,-1.7475 -3.91666,-1.8334 l -6.41667,-0.7501 c -0.49515,-0.1253 -1.01693,-0.1547 -1.58333,-0.168 z m 18.91666,7.0835 5.83334,0.7499 -5.66667,-0.6667 -0.16667,-0.083 z"
       id="path72121"
       inkscape:connector-curvature="0" />
    <path
       style="fill:url(#linearGradient72663);fill-opacity:1;stroke:none;display:inline"
       d="m 29.558273,982.09382 c -10.50238,0.2506 -19.541473,4.6645 -20.1666738,9.9168 -0.37899,3.1837 2.4018408,5.9717 7.0000008,7.5832 2.199073,0.77088 4.790113,1.27298 7.654323,1.44498 3.42973,0.3214 6.38163,0.6472 9.804,0.6384 -15.604373,-0.8096 12.07976,-2.27138 13.54168,-10.58338 -1.53843,-5.4702 -7.40552,-8.3616 -8.99235,-8.8038 -2.40053,-0.056 -6.70032,-0.184 -8.84098,-0.1946 z"
       id="path72123"
       inkscape:connector-curvature="0"
       sodipodi:nodetypes="cssccccc" />
    <path
       id="path72125"
       d="m 62.891603,976.92712 c -6.66768,0.6248 -11.67795,6.6755 -11.16667,13.5 0.4576,6.1085 5.23566,10.78528 11,11.25008 l 6.58334,0.7499 -1.41667,-1.5832 c 4.99672,-1.92028 8.42581,-6.98318 8,-12.66668 -0.32688,-4.3632 -2.8328,-7.9469 -6.33333,-9.8333 l 0.91666,-1.0835 -4.91666,-0.2506 c -0.33568,-0.043 -0.65691,-0.069 -1,-0.083 -0.53064,-0.027 -1.1223,-0.051 -1.66667,0 z"
       style="fill:url(#linearGradient72665);fill-opacity:1;stroke:none;display:inline"
       inkscape:connector-curvature="0" />
    <path
       id="path72127"
       d="m 71.808273,937.26042 -8.41667,0.6667 c -4.86581,0.3147 -8.55867,7.9808 -8.25,17.1667 0.30864,9.1861 4.46752,16.3978 9.33333,16.0834 l 7.83334,0 -2.33334,-4.2501 c 1.83792,-3.1763 2.9227,-7.8597 2.75,-13 l -0.24986,-3.1667 c -0.4928,-3.5672 -1.57467,-6.5858 -3,-8.8333 l 2.33333,-4.6667 z"
       style="fill:url(#linearGradient72667);fill-opacity:1;stroke:none;display:inline"
       inkscape:connector-curvature="0" />
    <path
       id="path72129"
       d="m 37.808273,949.51062 -7.66667,0.5 c -1.29523,0.1226 -2.41909,0.504 -3.33333,1.2498 -4.06158,3.3147 -2.0804,11.844 4.41666,19 4.84872,5.3408 10.83072,8.404 15.25,8.2502 l 7.58334,0.168 -3.41667,-1.8334 c 3.60035,-3.5064 1.63995,-11.637 -4.66667,-18.5834 -3.45776,-3.8083 -7.52952,-6.424 -11.16666,-7.5832 l 3,-1.1667 z"
       style="fill:url(#linearGradient72669);fill-opacity:1;stroke:none;display:inline"
       inkscape:connector-curvature="0" />
    <path
       id="path72131"
       d="m 46.808273,1001.2604 c -3.84915,-0.069 -9.19075,2.4816 -14,7.0835 -6.98235,6.6811 -10.19032,15.0971 -7.16667,18.8333 0.58376,0.7214 1.33171,1.2219 2.25,1.5 l 7,1.5832 -2,-1.5 0.0835,-0.3333 c 3.33584,-0.9211 7.16976,-3.1573 10.75,-6.5832 6.49336,-6.2133 9.76165,-13.9416 7.75,-18 l 1.25,-0.5835 6,0.7502 -3.91667,-1.8334 -6.41667,-0.7501 c -0.49514,-0.1253 -1.01693,-0.1547 -1.58333,-0.168 z"
       style="fill:url(#linearGradient72671);fill-opacity:1;stroke:none;display:inline"
       inkscape:connector-curvature="0" />
    <path
       style="fill:url(#linearGradient72673);fill-opacity:1;stroke:none;display:inline"
       d="m 63.974933,1008.1772 c -4.91032,0.44 -8.78173,8.1411 -8.58333,17.1667 0.18533,8.4363 3.85021,15.0291 8.33333,15.5 l 7.25,1.8333 1.33334,0 -1.5,-0.3333 -2,-3.9168 c 2.69904,-3.0208 4.55253,-8.4771 4.41666,-14.6667 -0.10346,-4.7098 -1.36674,-8.8397 -3.16666,-11.6666 l 1.5,-3 -5.66667,-0.6667 -0.16667,-0.083 5.83334,0.7499 0.91666,0 -7.75,-0.9165 c -0.25333,-0.027 -0.49186,-0.027 -0.75,0 z"
       id="path72133"
       inkscape:connector-curvature="0" />
    <path
       style="fill:url(#linearGradient72675);fill-opacity:1;stroke:none;display:inline"
       d="m 103.8916,951.34392 -7.916667,0.4165 c -3.71704,-0.1173 -9.01333,2.5934 -13.58333,7.3334 -6.28501,6.5192 -8.83339,14.3568 -5.75,17.5834 0.78469,0.8211 1.81027,1.3254 3.08333,1.4166 l 7.91667,0.2506 -2.91667,-1.2501 c 2.86366,-1.1757 5.96115,-3.3541 8.83334,-6.3333 5.97864,-6.2011 8.660897,-13.6774 6.25,-17.1667 l 0.999997,-0.5832 6.5,-0.2507 -3.41667,-1.4165 z"
       id="path72135"
       inkscape:connector-curvature="0" />
    <path
       id="path72137"
       d="m 82.891603,999.09382 c -3.15499,-0.1014 -5.84651,0.7954 -7.25,2.75008 -2.84072,3.9563 0.47541,10.6507 7.41667,15 3.37141,2.1125 7.02522,3.3173 10.16666,3.5 l 8.499997,1.2499 7,-2.8334 -7.91666,-1.1666 c 2.84072,-3.9563 -0.47544,-10.7339 -7.416667,-15.0832 -1.46629,-0.9187 -3.00277,-1.6099 -4.5,-2.1667 l 1.58333,-0.58348 -5.08333,-0.4165 c -0.86216,-0.1573 -1.69229,-0.224 -2.5,-0.2507 z"
       style="fill:url(#linearGradient72677);fill-opacity:1;stroke:none;display:inline"
       inkscape:connector-curvature="0" />
    <path
       style="fill:url(#linearGradient72679);fill-opacity:1;stroke:none;display:inline"
       d="m 95.724933,980.01062 c -7.9972,0.2426 -14.81074,4.3178 -15.25,9.0832 -0.37866,4.1085 4.12747,7.4101 10.5,8.0834 l 8.33334,0.5832 -1.25,-0.9165 c 6.184737,-1.2051 10.968767,-4.7115 11.333327,-8.6667 0.3012,-3.268 -2.47357,-5.9224 -6.83333,-7.2501 l 1.08333,-0.6667 -5.749997,-0.168 c -0.252,-0.027 -0.49307,-0.077 -0.75,-0.083 -0.46157,0 -0.94088,0 -1.41667,0 z"
       id="path72139"
       inkscape:connector-curvature="0" />
    <path
       inkscape:connector-curvature="0"
       style="fill:url(#linearGradient72681);fill-opacity:1;stroke:none;display:inline"
       d="m 37.808273,949.51062 -7.66667,0.5 c -1.29523,0.1226 -2.41909,0.504 -3.33333,1.2498 -4.06158,3.3147 -2.0804,11.844 4.41666,19 19.61752,17.8619 30.85038,6.3166 14.75,-12 -3.45776,-3.8082 -7.52952,-6.424 -11.16666,-7.5832 z"
       id="path72141"
       sodipodi:nodetypes="ccscccc" />
    <path
       inkscape:connector-curvature="0"
       id="path72143"
       d="m 103.8916,951.34392 -7.916667,0.4165 c -3.71704,-0.1173 -9.01333,2.5934 -13.58333,7.3334 l 11.16667,11.6666 c 5.97864,-6.201 8.660897,-13.6773 6.25,-17.1666 l 0.999997,-0.5832 6.5,-0.2507 z"
       style="fill:url(#linearGradient72683);fill-opacity:1;stroke:none;display:inline"
       sodipodi:nodetypes="cccccccc" />
    <path
       inkscape:connector-curvature="0"
       style="fill:url(#linearGradient72685);fill-opacity:1;stroke:none;display:inline"
       d="m 71.808273,937.26042 -8.41667,0.6667 c -4.86581,0.3147 -8.55867,7.9808 -8.25,17.1667 l 17.58333,-1.1667 -0.24986,-3.1667 c -0.4928,-3.5672 -1.57467,-6.5858 -3,-8.8333 l 2.33333,-4.6667 z"
       id="path72145"
       sodipodi:nodetypes="cccccccc" />
    <path
       inkscape:connector-curvature="0"
       style="fill:url(#linearGradient72687);fill-opacity:1;stroke:none;display:inline"
       d="m 62.891603,976.92712 c -6.66768,0.6248 -11.67795,6.6755 -11.16667,13.5 0.0672,0.8963 0.25734,1.7579 0.5,2.5835 l 23.5,-5.8334 c -0.61152,-3.8994 -2.94285,-7.096 -6.16666,-8.8333 l 0.91666,-1.0835 -4.91666,-0.2506 c -0.33568,-0.043 -0.65691,-0.069 -1,-0.083 -0.53064,-0.027 -1.1223,-0.051 -1.66667,0 z"
       id="path72147" />
    <path
       inkscape:connector-curvature="0"
       style="fill:url(#linearGradient72689);fill-opacity:1;stroke:none;display:inline"
       d="m 29.558273,982.09382 c -10.50238,0.2506 -19.541473,4.6645 -20.1666738,9.9168 -0.0675,0.5669 -0.0419,1.1293 0.0835,1.6666 l 37.8332038,-2.3333 c 0.0213,-0.085 0.068,-0.1627 0.0835,-0.2507 -1.53842,-5.4701 -7.41317,-8.3912 -9,-8.8333 -2.40053,-0.056 -6.69266,-0.1547 -8.83333,-0.168 z"
       id="path72149" />
    <path
       inkscape:connector-curvature="0"
       style="fill:url(#linearGradient72691);fill-opacity:1;stroke:none;display:inline"
       d="m 95.724933,980.01062 c -7.9972,0.2426 -14.81074,4.3178 -15.25,9.0832 -0.005,0.056 0.003,0.1093 0,0.168 l 28.916667,-1.7499 c -0.12133,-2.9496 -2.78499,-5.3507 -6.83333,-6.5835 l 1.08333,-0.6666 -5.749997,-0.168 c -0.252,-0.027 -0.49307,-0.077 -0.75,-0.083 -0.46157,0 -0.94088,0 -1.41667,0 z"
       id="path72151" />
    <path
       inkscape:connector-curvature="0"
       style="fill:url(#linearGradient72693);fill-opacity:1;stroke:none;display:inline"
       d="m 82.891603,999.09382 c -3.15499,-0.1014 -5.84651,0.7954 -7.25,2.75008 -2.84072,3.9563 0.47541,10.6507 7.41667,15 0.21306,0.1333 0.45154,0.208 0.66666,0.3333 l 10.75,-13.9168 c -0.36056,-0.2533 -0.70026,-0.5098 -1.08333,-0.7498 -1.46629,-0.9187 -3.00277,-1.6099 -4.5,-2.1667 l 1.58333,-0.58348 -5.08333,-0.4165 c -0.86216,-0.1573 -1.69229,-0.224 -2.5,-0.2507 z"
       id="path72153" />
    <path
       inkscape:connector-curvature="0"
       style="fill:url(#linearGradient72695);fill-opacity:1;stroke:none;display:inline"
       d="m 63.974933,1008.1772 c -4.80298,0.4304 -8.60474,7.8144 -8.58333,16.5832 l 12.58333,1.7502 5.25,-2 c 0.001,-0.256 0.005,-0.492 0,-0.7502 -0.10346,-4.7098 -1.36674,-8.8397 -3.16666,-11.6666 l 1.5,-3 -5.66667,-0.6667 -0.16667,-0.083 5.83334,0.7499 0.91666,0 -7.75,-0.9165 c -0.25333,-0.027 -0.49186,-0.027 -0.75,0 z"
       id="path72155" />
    <path
       inkscape:connector-curvature="0"
       style="fill:url(#linearGradient72697);fill-opacity:1;stroke:none;display:inline"
       d="m 46.808273,1001.2604 c -3.84915,-0.069 -9.19075,2.4816 -14,7.0835 -0.75656,0.724 -1.41854,1.4936 -2.08334,2.2499 6.10443,3.6165 13.33334,8.0834 13.33334,8.0834 l 1.66666,1 c 5.10619,-5.7629 7.5371,-12.228 5.75,-15.8333 l 1.25,-0.5835 6,0.7502 -3.91666,-1.8334 -6.41667,-0.7501 c -0.49515,-0.1253 -1.01693,-0.1547 -1.58333,-0.168 z"
       id="path72157" />
    <path
       inkscape:connector-curvature="0"
       style="fill:url(#linearGradient72699);fill-opacity:1;stroke:none;display:inline"
       d="m 71.808273,937.26042 c -4.91678,0.2347 -8.81734,7.9659 -8.66667,17.3334 0.15067,9.3677 4.24992,16.8194 9.16667,16.5834 4.91674,-0.2346 8.81733,-8.049 8.66666,-17.4168 -0.15066,-9.3674 -4.24992,-16.7357 -9.16666,-16.5 z"
       id="path72159" />
    <path
       inkscape:connector-curvature="0"
       style="fill:url(#linearGradient72701);fill-opacity:1;stroke:none;display:inline"
       d="m 37.808273,949.51062 c -1.45755,0.077 -2.74211,0.5861 -3.75,1.4165 -4.10883,3.3859 -2.07256,12.0235 4.5,19.3333 4.94424,5.499 11.01954,8.6286 15.5,8.4168 1.4756,-0.069 2.81536,-0.4944 3.83333,-1.3333 4.1088,-3.3856 2.07256,-12.0235 -4.5,-19.3333 -4.96029,-5.5168 -11.09907,-8.7344 -15.58333,-8.5 z"
       id="path72161" />
    <path
       inkscape:connector-curvature="0"
       style="fill:url(#linearGradient72703);fill-opacity:1;stroke:none;display:inline"
       d="m 103.8916,951.34392 c -3.75016,-0.1013 -9.068507,2.6547 -13.666667,7.5 -6.34464,6.6859 -8.94594,14.7739 -5.83333,18.0832 0.81587,0.8675 1.91419,1.3424 3.25,1.4168 3.76045,0.208 9.15171,-2.5667 13.833327,-7.5 6.34464,-6.6859 8.94598,-14.7739 5.83334,-18.0835 -0.8568,-0.9109 -1.9923,-1.3781 -3.41667,-1.4165 z"
       id="path72163" />
    <path
       inkscape:connector-curvature="0"
       style="fill:url(#linearGradient72705);fill-opacity:1;stroke:none;display:inline"
       d="m 70.474933,977.26042 c -6.7309,0.6384 -11.76616,6.8603 -11.25,13.8334 0.43595,5.8898 4.71472,10.43728 10.08334,11.33328 0.98757,0.1653 2.03754,0.1813 3.08333,0.083 6.73091,-0.6382 11.76613,-6.77678 11.25,-13.74988 -0.47931,-6.4755 -5.55093,-11.3461 -11.66667,-11.5 -0.47002,0 -1.01962,-0.045 -1.5,0 z"
       id="path72165" />
    <path
       inkscape:connector-curvature="0"
       style="fill:url(#linearGradient72707);fill-opacity:1;stroke:none;display:inline"
       d="m 103.6416,980.26042 c -8.073037,0.248 -14.973227,4.3926 -15.416667,9.2502 -0.39184,4.2925 4.39414,7.6845 11.08334,8.2498 0.880477,0.075 1.810977,0.112 2.749997,0.083 8.07304,-0.248 14.97322,-4.3923 15.41666,-9.2499 0.4224,-4.6272 -5.15744,-8.216 -12.66666,-8.3333 -0.374,0 -0.78368,0 -1.16667,0 z"
       id="path72167" />
    <path
       inkscape:connector-curvature="0"
       style="fill:url(#linearGradient72709);fill-opacity:1;stroke:none;display:inline"
       d="m 36.808273,982.26042 c -10.60198,0.256 -19.702223,4.8131 -20.333343,10.1667 -0.53848,4.5677 5.283043,8.25968 13.583343,9.08348 1.42842,0.144 2.94336,0.2053 4.5,0.168 10.60197,-0.256 19.70221,-4.81308 20.33333,-10.16668 0.63112,-5.3536 -7.48136,-9.5051 -18.08333,-9.2501 z"
       id="path72169" />
    <path
       inkscape:connector-curvature="0"
       style="fill:url(#linearGradient72711);fill-opacity:1;stroke:none;display:inline"
       d="m 90.474933,999.76042 c -3.12277,-0.075 -5.68746,0.86078 -7.08333,2.83338 -2.86765,4.0525 0.49293,10.9616 7.5,15.4168 3.65011,2.3208 7.50885,3.5384 10.833327,3.5832 3.05747,0.04 5.62616,-0.8918 7,-2.8334 2.86768,-4.0522 -0.49293,-10.9613 -7.5,-15.4165 -3.596257,-2.2864 -7.457407,-3.50588 -10.749997,-3.58348 z"
       id="path72171" />
    <path
       inkscape:connector-curvature="0"
       style="fill:url(#linearGradient72713);fill-opacity:1;stroke:none;display:inline"
       d="m 54.808273,1002.1772 c -3.94494,-0.2053 -9.56067,2.4155 -14.58334,7.2499 -7.12394,6.8573 -10.41829,15.4987 -7.33333,19.3333 0.52981,0.6587 1.19608,1.2027 2,1.5 3.87696,1.4342 10.59965,-1.237 16.5,-6.9165 7.12397,-6.8571 10.41829,-15.4987 7.33333,-19.3333 -0.90992,-1.1312 -2.26634,-1.7475 -3.91666,-1.8334 z"
       id="path72173" />
    <path
       inkscape:connector-curvature="0"
       style="fill:url(#linearGradient72715);fill-opacity:1;stroke:none;display:inline"
       d="m 71.558273,1009.0938 c -4.95691,0.4525 -8.7836,8.3029 -8.58334,17.5834 0.18267,8.4606 3.62886,15.2259 8,16 0.4236,0.075 0.89539,0.04 1.33334,0 4.9569,-0.4525 8.7836,-8.3029 8.58333,-17.5834 -0.18827,-8.7302 -3.85072,-15.5952 -8.41667,-16 -0.2877,-0.027 -0.62285,-0.027 -0.91666,0 z"
       id="path72175" />
    <path
       style="fill:#000000;fill-opacity:0.3;stroke:none;display:inline"
       inkscape:connector-curvature="0"
       d="m 102.04269,997.85142 -7.897377,-0.5659 -3.18971,-0.1147 8.35413,0.6104 2.732957,0.069"
       id="path72177" />
    <path
       style="fill:#000000;fill-opacity:0.3;stroke:none;display:inline"
       inkscape:connector-curvature="0"
       d="m 103.64851,980.26022 -7.912477,-0.232 1.40653,0 7.641647,0.2266 -1.1357,0"
       id="path72179" />
    <path
       style="fill:#000000;fill-opacity:0.3;stroke:none;display:inline"
       inkscape:connector-curvature="0"
       d="m 102.04269,997.85142 -7.897377,-0.5662 0,3e-4 7.897377,0.5659 0,0"
       id="path72181" />
    <path
       style="fill:#000000;fill-opacity:0.3;stroke:none;display:inline"
       inkscape:connector-curvature="0"
       d="m 102.04269,997.85142 -7.897377,-0.5659 0,0 7.897377,0.5659 0,0"
       id="path72183" />
  </g>
</svg>
