<?xml version="1.0" encoding="UTF-8" standalone="no"?>
<!-- Created with Inkscape (http://www.inkscape.org/) -->

<svg
   xmlns:dc="http://purl.org/dc/elements/1.1/"
   xmlns:cc="http://creativecommons.org/ns#"
   xmlns:rdf="http://www.w3.org/1999/02/22-rdf-syntax-ns#"
   xmlns:svg="http://www.w3.org/2000/svg"
   xmlns="http://www.w3.org/2000/svg"
   xmlns:xlink="http://www.w3.org/1999/xlink"
   xmlns:sodipodi="http://sodipodi.sourceforge.net/DTD/sodipodi-0.dtd"
   xmlns:inkscape="http://www.inkscape.org/namespaces/inkscape"
   width="128"
   height="128"
   id="svg2"
   sodipodi:version="0.32"
   inkscape:version="0.48.3.1 r9886"
   version="1.0"
   sodipodi:docname="folder-remote-symbolic.svg"
   inkscape:output_extension="org.inkscape.output.svg.inkscape">
  <defs
     id="defs4">
    <linearGradient
       inkscape:collect="always"
       xlink:href="#linearGradient5316"
       id="linearGradient6183"
       gradientUnits="userSpaceOnUse"
       gradientTransform="matrix(2.6419626,0,0,2.6419626,-1281.2983,-1666.3441)"
       x1="506.875"
       y1="671.74292"
       x2="506.59363"
       y2="634.74292" />
    <linearGradient
       inkscape:collect="always"
       xlink:href="#linearGradient5344"
       id="linearGradient6185"
       gradientUnits="userSpaceOnUse"
       gradientTransform="matrix(2.6419626,0,0,2.6419626,-1281.2983,-1666.3441)"
       x1="492.58792"
       y1="636.94122"
       x2="474.76993"
       y2="649.21399" />
    <linearGradient
       inkscape:collect="always"
       xlink:href="#linearGradient5316"
       id="linearGradient6187"
       gradientUnits="userSpaceOnUse"
       gradientTransform="matrix(2.6419626,0,0,2.6419626,-1281.2983,-1666.3441)"
       x1="505.92102"
       y1="635.54803"
       x2="508.99728"
       y2="673.02472" />
    <linearGradient
       inkscape:collect="always"
       xlink:href="#linearGradient5344"
       id="linearGradient6189"
       gradientUnits="userSpaceOnUse"
       gradientTransform="matrix(2.6419626,0,0,2.6419626,-1281.2983,-1666.3441)"
       x1="537.08398"
       y1="731.19934"
       x2="502.27975"
       y2="637.1001" />
    <linearGradient
       inkscape:collect="always"
       xlink:href="#linearGradient5439"
       id="linearGradient6192"
       gradientUnits="userSpaceOnUse"
       gradientTransform="matrix(2.6419626,0,0,2.6419626,-1281.2983,-1507.8263)"
       x1="494.88635"
       y1="579.75201"
       x2="514.15509"
       y2="638.97217" />
    <linearGradient
       inkscape:collect="always"
       xlink:href="#linearGradient5439"
       id="linearGradient6194"
       gradientUnits="userSpaceOnUse"
       gradientTransform="matrix(2.6419626,0,0,2.6419626,-1281.2983,-1507.8263)"
       x1="495.64603"
       y1="577.02094"
       x2="510.03174"
       y2="626.15326" />
    <linearGradient
       inkscape:collect="always"
       xlink:href="#linearGradient5439"
       id="linearGradient6196"
       gradientUnits="userSpaceOnUse"
       gradientTransform="matrix(2.6419626,0,0,2.6419626,-1281.2983,-1507.8263)"
       x1="501.65167"
       y1="578.54364"
       x2="517.6955"
       y2="644.08337" />
    <linearGradient
       inkscape:collect="always"
       xlink:href="#linearGradient5439"
       id="linearGradient6200"
       gradientUnits="userSpaceOnUse"
       gradientTransform="matrix(2.6419626,0,0,2.6419626,-1281.2983,-1507.8263)"
       x1="497.42068"
       y1="575.9082"
       x2="510.12534"
       y2="627.35168" />
    <linearGradient
       inkscape:collect="always"
       xlink:href="#linearGradient5439"
       id="linearGradient6202"
       gradientUnits="userSpaceOnUse"
       gradientTransform="matrix(2.6419626,0,0,2.6419626,-1281.2983,-1507.8263)"
       x1="500.92007"
       y1="580.97955"
       x2="509.07632"
       y2="655.40179" />
    <linearGradient
       inkscape:collect="always"
       xlink:href="#linearGradient5316"
       id="linearGradient6204"
       gradientUnits="userSpaceOnUse"
       gradientTransform="matrix(2.6419626,0,0,2.6419626,-1281.2983,-1666.3441)"
       x1="516.58734"
       y1="643.28003"
       x2="518.94879"
       y2="670.57684" />
    <linearGradient
       inkscape:collect="always"
       xlink:href="#linearGradient5344"
       id="linearGradient6206"
       gradientUnits="userSpaceOnUse"
       gradientTransform="matrix(2.6419626,0,0,2.6419626,-1281.2983,-1666.3441)"
       x1="528.61981"
       y1="704.3277"
       x2="520.89331"
       y2="663.72803" />
    <linearGradient
       inkscape:collect="always"
       xlink:href="#linearGradient9863"
       id="linearGradient10466"
       gradientUnits="userSpaceOnUse"
       gradientTransform="matrix(2.6419626,0,0,2.6419626,-171.75281,-292.54419)"
       x1="90.376579"
       y1="158.70711"
       x2="92.053268"
       y2="111.14841" />
    <linearGradient
       id="linearGradient5316">
      <stop
         style="stop-color:#87c7ff;stop-opacity:1;"
         offset="0"
         id="stop5320" />
      <stop
         style="stop-color:#74aadb;stop-opacity:1;"
         offset="1"
         id="stop5322" />
    </linearGradient>
    <linearGradient
       id="linearGradient9863">
      <stop
         style="stop-color:#2f445a;stop-opacity:1;"
         offset="0"
         id="stop9865" />
      <stop
         style="stop-color:#415f7c;stop-opacity:1"
         offset="1"
         id="stop9867" />
    </linearGradient>
    <linearGradient
       id="linearGradient5439">
      <stop
         style="stop-color:#ffffff;stop-opacity:1;"
         offset="0"
         id="stop5441" />
      <stop
         style="stop-color:#000000;stop-opacity:1;"
         offset="1"
         id="stop5443" />
    </linearGradient>
    <linearGradient
       id="linearGradient5344">
      <stop
         style="stop-color:#000000;stop-opacity:1;"
         offset="0"
         id="stop5346" />
      <stop
         style="stop-color:#000000;stop-opacity:0;"
         offset="1"
         id="stop5348" />
    </linearGradient>
    <linearGradient
       id="linearGradient5316-9">
      <stop
         style="stop-color:#87c7ff;stop-opacity:1;"
         offset="0"
         id="stop5320-5" />
      <stop
         style="stop-color:#74aadb;stop-opacity:1;"
         offset="1"
         id="stop5322-0" />
    </linearGradient>
    <linearGradient
       y2="677.00159"
       x2="528.8429"
       y1="633.81464"
       x1="489.25479"
       gradientTransform="matrix(2.6765239,0,0,2.6765239,-1298.6209,-1689.8172)"
       gradientUnits="userSpaceOnUse"
       id="linearGradient3042"
       xlink:href="#linearGradient5316-9"
       inkscape:collect="always" />
  </defs>
  <sodipodi:namedview
     id="base"
     pagecolor="#ffffff"
     bordercolor="#666666"
     borderopacity="1.0"
     inkscape:pageopacity="0.0"
     inkscape:pageshadow="2"
     inkscape:zoom="1.2510351"
     inkscape:cx="105.04553"
     inkscape:cy="61.904635"
     inkscape:document-units="px"
     inkscape:current-layer="layer1"
     showgrid="false"
     inkscape:showpageshadow="false"
     inkscape:window-width="1024"
     inkscape:window-height="713"
     inkscape:window-x="0"
     inkscape:window-y="0"
     showguides="true"
     inkscape:guide-bbox="true"
     inkscape:window-maximized="0" />
  <metadata
     id="metadata7">
    <rdf:RDF>
      <cc:Work
         rdf:about="">
        <dc:format>image/svg+xml</dc:format>
        <dc:type
           rdf:resource="http://purl.org/dc/dcmitype/StillImage" />
      </cc:Work>
    </rdf:RDF>
  </metadata>
  <g
     inkscape:label="Capa 1"
     inkscape:groupmode="layer"
     id="layer1">
    <path
       style="fill:url(#linearGradient3042);fill-rule:evenodd;stroke:none;display:inline"
       d="M 4.34375 4.5 C 1.642602 5.2549939 1.1290407 7.5040698 0.84375 9.90625 L 0.90625 118.71875 L 10.1875 117.375 L 7.03125 13.9375 C 7.143498 4.9802626 5.6906145 5.0673406 4.34375 4.5 z M 4.78125 4.5 C 7.2825151 4.835422 8.1911151 6.5989131 8.75 8.65625 L 13 116.34375 C 13.160244 119.82139 14.962294 123.00135 17.25 123.75 C 17.976408 123.97763 19.237839 124.2975 19.84375 124.34375 L 20.59375 124.21875 C 21.669154 124.16885 22.755089 123.94068 24.09375 123.6875 L 114.0625 109.5 C 115.50788 109.32964 117.3373 108.01879 117.5625 105.75 L 127.3125 26.96875 L 123.53125 26.84375 L 120.5 30.0625 L 40.90625 27.6875 L 38.96875 23.46875 L 32.03125 23.21875 L 23.25 119.21875 C 23.20695 119.99562 22.996936 120.69289 22.6875 121.28125 L 21.71875 121.4375 L 21.78125 120.40625 L 19.96875 120.6875 L 20 119.8125 L 18.03125 120.09375 L 18.03125 119.5 L 16.53125 119.71875 L 16.53125 119.1875 L 15.3125 119.375 L 11.28125 19.3125 L 14.75 19.4375 L 14.75 18.84375 L 19.375 19.03125 L 19.375 18.96875 L 35.15625 19.71875 L 41.9375 20.03125 L 42.125 17.5625 L 54.6875 18.34375 L 56.1875 20.65625 L 56.375 20.65625 L 56.4375 16.46875 L 67.75 17.15625 L 70.5625 21.28125 L 71.625 21.3125 L 71.78125 16.90625 L 81.5 17.59375 L 84.90625 21.90625 L 85.6875 21.9375 L 85.5625 18.0625 L 94.09375 18.59375 L 97 22.4375 L 97.15625 22.4375 L 97.1875 22.4375 L 97.375 19.21875 L 104.96875 19.59375 L 107.4375 22.875 L 108.75 22.9375 L 108.59375 15.0625 C 108.53155 13.207267 107.43527 11.822578 105.125 11.5625 L 4.78125 4.5 z M 81.625 41.84375 C 81.756992 41.82275 81.926043 41.84675 82.0625 41.84375 C 82.184215 41.84175 82.28155 41.83045 82.40625 41.84375 L 108.4375 44.53125 C 108.5511 44.54385 108.61188 44.605 108.71875 44.625 L 108.8125 44.625 L 109.375 44.65625 C 109.386 44.67775 109.34075 44.7216 109.34375 44.75 C 109.34415 44.754 109.40607 44.746 109.40625 44.75 C 110.65062 45.24265 111.28242 46.38758 111.09375 47.96875 L 108.78125 66.875 C 108.56825 68.81185 106.95246 70.48287 104.875 70.78125 L 79.0625 71.59375 C 78.915422 71.59365 78.792311 71.5189 78.65625 71.5 C 78.602301 71.5 78.52473 71.50053 78.46875 71.5 C 76.675306 71.48407 73.879439 71.25786 72.75 70.78125 C 71.343789 70.12491 71.252615 69.58046 71.4375 67.75 L 71.8125 64.78125 L 62.78125 64.78125 L 61.4375 76 L 80.6875 75.03125 C 81.04612 75.01465 81.472766 74.98365 81.84375 75.03125 L 85.46875 75.34375 C 87.106 75.48436 87.874608 76.57648 87.65625 78.40625 L 85.25 98.75 C 85.028709 100.76296 83.630378 102.7578 81.46875 103.0625 L 53.46875 107.90625 C 53.060725 107.96837 52.704135 107.9492 52.375 107.875 L 52.21875 107.90625 L 47.53125 106.59375 C 46.038911 106.15135 45.52697 104.27473 45.71875 102.375 L 48.46875 80.4375 C 48.690701 78.44334 50.645201 76.60011 52.9375 76.40625 L 56.15625 76.28125 L 57.53125 64.78125 C 57.71669 61.88975 60.789544 59.38855 63.40625 59.46875 L 72.4375 59.46875 L 74.09375 45.3125 C 74.326851 43.52809 75.435857 42.85314 76.59375 42.625 C 77.766755 42.37999 79.974676 42.01497 81.21875 41.875 C 81.426725 41.8516 81.479454 41.85375 81.625 41.84375 z "
       id="path7475" />
  </g>
</svg>
