<?xml version="1.0" encoding="UTF-8" standalone="no"?>
<!-- Created with Inkscape (http://www.inkscape.org/) -->

<svg
   xmlns:dc="http://purl.org/dc/elements/1.1/"
   xmlns:cc="http://creativecommons.org/ns#"
   xmlns:rdf="http://www.w3.org/1999/02/22-rdf-syntax-ns#"
   xmlns:svg="http://www.w3.org/2000/svg"
   xmlns="http://www.w3.org/2000/svg"
   xmlns:xlink="http://www.w3.org/1999/xlink"
   xmlns:sodipodi="http://sodipodi.sourceforge.net/DTD/sodipodi-0.dtd"
   xmlns:inkscape="http://www.inkscape.org/namespaces/inkscape"
   width="128"
   height="128"
   id="svg2"
   sodipodi:version="0.32"
   inkscape:version="0.48.3.1 r9886"
   version="1.0"
   sodipodi:docname="folder-saved-search-symbolic.svg"
   inkscape:output_extension="org.inkscape.output.svg.inkscape">
  <defs
     id="defs4">
    <linearGradient
       y2="962.34821"
       x2="501.80923"
       y1="923.1084"
       x1="477.42725"
       gradientTransform="matrix(2.6666667,0,0,2.6666667,-1293.8937,-2496.503)"
       gradientUnits="userSpaceOnUse"
       id="linearGradient9311"
       xlink:href="#linearGradient12594"
       inkscape:collect="always" />
    <linearGradient
       y2="974.45569"
       x2="517.47424"
       y1="971.45569"
       x1="519.5"
       gradientTransform="matrix(2.6666667,0,0,2.6666667,-1293.8937,-2496.503)"
       gradientUnits="userSpaceOnUse"
       id="linearGradient9315"
       xlink:href="#linearGradient5316"
       inkscape:collect="always" />
    <linearGradient
       y2="968.36829"
       x2="507.65265"
       y1="962.74329"
       x1="510.59622"
       gradientTransform="matrix(2.6666667,0,0,2.6666667,-1293.8937,-2496.503)"
       gradientUnits="userSpaceOnUse"
       id="linearGradient9317"
       xlink:href="#linearGradient5316"
       inkscape:collect="always" />
    <linearGradient
       gradientUnits="userSpaceOnUse"
       y2="289.67157"
       x2="453.09924"
       y1="336.99588"
       x1="453.09924"
       id="linearGradient10594"
       xlink:href="#linearGradient9863"
       inkscape:collect="always"
       gradientTransform="matrix(2.6666667,0,0,2.6666667,-1133.8937,-771.83628)" />
    <linearGradient
       id="linearGradient12594">
      <stop
         id="stop12596"
         offset="0"
         style="stop-color:#e9b551;stop-opacity:1;" />
      <stop
         id="stop12598"
         offset="1"
         style="stop-color:#e9b551;stop-opacity:0;" />
    </linearGradient>
    <linearGradient
       id="linearGradient5316">
      <stop
         style="stop-color:#87c7ff;stop-opacity:1;"
         offset="0"
         id="stop5320" />
      <stop
         style="stop-color:#74aadb;stop-opacity:1;"
         offset="1"
         id="stop5322" />
    </linearGradient>
    <linearGradient
       id="linearGradient9863">
      <stop
         style="stop-color:#2f445a;stop-opacity:1;"
         offset="0"
         id="stop9865" />
      <stop
         style="stop-color:#415f7c;stop-opacity:1"
         offset="1"
         id="stop9867" />
    </linearGradient>
    <linearGradient
       id="linearGradient8702">
      <stop
         id="stop8704"
         offset="0"
         style="stop-color:#87c7ff;stop-opacity:1;" />
      <stop
         id="stop8706"
         offset="1"
         style="stop-color:#74aadb;stop-opacity:1;" />
    </linearGradient>
    <linearGradient
       inkscape:collect="always"
       xlink:href="#linearGradient8702"
       id="linearGradient3068"
       x1="6.7377715"
       y1="7.4387603"
       x2="119.0354"
       y2="116.52572"
       gradientUnits="userSpaceOnUse" />
  </defs>
  <sodipodi:namedview
     id="base"
     pagecolor="#ffffff"
     bordercolor="#666666"
     borderopacity="1.0"
     inkscape:pageopacity="0.0"
     inkscape:pageshadow="2"
     inkscape:zoom="3.5384616"
     inkscape:cx="94.175194"
     inkscape:cy="61.737098"
     inkscape:document-units="px"
     inkscape:current-layer="layer1"
     showgrid="false"
     inkscape:showpageshadow="false"
     inkscape:window-width="1366"
     inkscape:window-height="717"
     inkscape:window-x="0"
     inkscape:window-y="0"
     showguides="true"
     inkscape:guide-bbox="true"
     inkscape:window-maximized="1" />
  <metadata
     id="metadata7">
    <rdf:RDF>
      <cc:Work
         rdf:about="">
        <dc:format>image/svg+xml</dc:format>
        <dc:type
           rdf:resource="http://purl.org/dc/dcmitype/StillImage" />
      </cc:Work>
    </rdf:RDF>
  </metadata>
  <g
     inkscape:label="Capa 1"
     inkscape:groupmode="layer"
     id="layer1">
    <path
       style="fill:url(#linearGradient3068);fill-opacity:1;stroke:none;stroke-width:0.50000000000000000;stroke-linecap:round;stroke-linejoin:round;stroke-miterlimit:4;stroke-dashoffset:0;stroke-opacity:1;display:inline"
       d="M 37.5 9.34375 C 33.308945 9.4213166 29.080455 10.018327 25.09375 10.9375 C 25.08385 10.9398 25.07235 10.9352 25.0625 10.9375 C 18.251894 12.388798 12.631684 17.431683 8.78125 24.5 C 4.9253688 31.578316 2.78125 40.747863 2.78125 50.75 C 2.78125 60.380585 4.7900006 69.262158 8.375 76.25 C 11.959999 83.237842 17.156475 88.37872 23.5625 90.28125 A 1.3334667 1.3334667 0 0 0 23.65625 90.3125 C 29.546176 91.571761 34.41847 92.744684 39.1875 92.15625 C 44.783604 91.427866 49.854264 88.538756 54.03125 84.1875 L 58.6875 87.875 A 1.3334667 1.3334667 0 0 0 58.75 87.90625 C 60.894221 89.468055 63.2495 89.61816 65.40625 89.03125 L 103.25 120.84375 A 1.3334667 1.3334667 0 0 0 103.40625 120.96875 C 105.38613 122.18065 107.54733 122.23849 109.3125 121.46875 C 111.07767 120.69901 112.48987 119.2267 113.46875 117.5 C 115.42652 114.0466 115.92882 109.28797 113.09375 106.25 A 1.3334667 1.3334667 0 0 0 112.96875 106.15625 L 74.65625 73.9375 C 74.470559 71.590781 73.699244 69.273074 71.84375 67.59375 L 64.71875 60.9375 C 65.206568 57.847713 65.53125 54.64685 65.53125 51.25 C 65.53125 40.009998 62.886291 29.973822 58.3125 22.5 C 53.738709 15.026178 47.150519 10.08654 39.40625 9.34375 A 1.3334667 1.3334667 0 0 0 39.28125 9.34375 C 38.684279 9.3330972 38.098722 9.3326691 37.5 9.34375 z M 38.59375 15.875 C 38.980618 15.872624 39.38342 15.86709 39.78125 15.90625 C 42.983069 16.221386 45.91538 17.505119 48.53125 19.53125 C 48.815058 19.751074 49.099236 19.981071 49.375 20.21875 C 49.649256 20.455128 49.921421 20.683903 50.1875 20.9375 C 49.920878 20.686306 49.649834 20.452766 49.375 20.21875 C 49.100166 19.984734 48.81408 19.747672 48.53125 19.53125 C 46.834272 18.23272 44.988921 17.26882 43.03125 16.65625 C 51.37685 21.673503 56.84375 33.96456 56.84375 49 C 56.84375 67.894 47.59658 81.336437 35.84375 82.90625 C 33.67311 83.19617 31.59172 82.899237 29.59375 82.15625 C 30.728691 82.95999 31.921639 83.609585 33.15625 84.09375 C 23.627618 80.452005 16.53125 66.209501 16.53125 50.59375 C 16.53125 32.796496 25.79633 16.795983 37.4375 15.90625 C 37.82554 15.876595 38.206882 15.877376 38.59375 15.875 z M 50.96875 21.71875 C 51.47914 22.254632 51.992616 22.838352 52.46875 23.4375 C 51.987361 22.837052 51.48514 22.254658 50.96875 21.71875 z M 53.15625 24.34375 C 53.622036 24.982497 54.072194 25.645049 54.5 26.34375 C 54.074347 25.65275 53.619491 24.975216 53.15625 24.34375 z "
       id="path9293" />
  </g>
</svg>
