<?xml version="1.0" encoding="UTF-8" standalone="no"?>
<!-- Created with Inkscape (http://www.inkscape.org/) -->

<svg
   xmlns:dc="http://purl.org/dc/elements/1.1/"
   xmlns:cc="http://creativecommons.org/ns#"
   xmlns:rdf="http://www.w3.org/1999/02/22-rdf-syntax-ns#"
   xmlns:svg="http://www.w3.org/2000/svg"
   xmlns="http://www.w3.org/2000/svg"
   xmlns:xlink="http://www.w3.org/1999/xlink"
   xmlns:sodipodi="http://sodipodi.sourceforge.net/DTD/sodipodi-0.dtd"
   xmlns:inkscape="http://www.inkscape.org/namespaces/inkscape"
   width="128"
   height="128"
   id="svg2"
   sodipodi:version="0.32"
   inkscape:version="0.48.3.1 r9886"
   version="1.0"
   sodipodi:docname="applications-accessories.svg"
   inkscape:output_extension="org.inkscape.output.svg.inkscape">
  <defs
     id="defs4">
    <linearGradient
       id="linearGradient12594">
      <stop
         id="stop12596"
         offset="0"
         style="stop-color:#e9b551;stop-opacity:1;" />
      <stop
         id="stop12598"
         offset="1"
         style="stop-color:#e9b551;stop-opacity:0;" />
    </linearGradient>
    <linearGradient
       id="linearGradient5316">
      <stop
         style="stop-color:#ff6e00;stop-opacity:1;"
         offset="0"
         id="stop5320" />
      <stop
         style="stop-color:#eb2600;stop-opacity:1;"
         offset="1"
         id="stop5322" />
    </linearGradient>
    <linearGradient
       id="linearGradient9863">
      <stop
         style="stop-color:#2f445a;stop-opacity:1;"
         offset="0"
         id="stop9865" />
      <stop
         style="stop-color:#415f7c;stop-opacity:1"
         offset="1"
         id="stop9867" />
    </linearGradient>
    <linearGradient
       id="linearGradient5439">
      <stop
         style="stop-color:#ffffff;stop-opacity:1;"
         offset="0"
         id="stop5441" />
      <stop
         style="stop-color:#000000;stop-opacity:1;"
         offset="1"
         id="stop5443" />
    </linearGradient>
    <linearGradient
       inkscape:collect="always"
       xlink:href="#linearGradient9863"
       id="linearGradient11632"
       gradientUnits="userSpaceOnUse"
       gradientTransform="matrix(2.6666667,0,0,2.6666667,-1513.2271,-1971.8363)"
       x1="594.35663"
       y1="786.3808"
       x2="594.35663"
       y2="740.23712" />
    <linearGradient
       inkscape:collect="always"
       xlink:href="#linearGradient5316"
       id="linearGradient11635"
       gradientUnits="userSpaceOnUse"
       gradientTransform="matrix(2.6666667,0,0,2.6666667,-1299.8937,-2505.1696)"
       x1="492.75"
       y1="955.375"
       x2="495.25"
       y2="983.5" />
    <linearGradient
       inkscape:collect="always"
       xlink:href="#linearGradient5439"
       id="linearGradient11638"
       gradientUnits="userSpaceOnUse"
       gradientTransform="matrix(2.6666667,0,0,2.6666667,-1299.8937,-2505.1696)"
       x1="530.13092"
       y1="974.43781"
       x2="530.375"
       y2="981.59723" />
    <linearGradient
       inkscape:collect="always"
       xlink:href="#linearGradient5439"
       id="linearGradient11641"
       gradientUnits="userSpaceOnUse"
       gradientTransform="matrix(2.6666667,0,0,2.6666667,-1299.8937,-2505.1696)"
       x1="530.08667"
       y1="970.19861"
       x2="530.43256"
       y2="978.31836" />
    <linearGradient
       inkscape:collect="always"
       xlink:href="#linearGradient5316"
       id="linearGradient11644"
       gradientUnits="userSpaceOnUse"
       gradientTransform="matrix(2.6666667,0,0,2.6666667,-1299.8937,-2505.1696)"
       x1="529.60907"
       y1="964.95947"
       x2="527.80566"
       y2="971.14667" />
    <linearGradient
       inkscape:collect="always"
       xlink:href="#linearGradient5439"
       id="linearGradient11647"
       gradientUnits="userSpaceOnUse"
       gradientTransform="matrix(2.6666667,0,0,2.6666667,-1299.8937,-2505.1696)"
       x1="525.96436"
       y1="975.14563"
       x2="525.96375"
       y2="982.52234" />
    <linearGradient
       inkscape:collect="always"
       xlink:href="#linearGradient5439"
       id="linearGradient11650"
       gradientUnits="userSpaceOnUse"
       gradientTransform="matrix(2.6666667,0,0,2.6666667,-1299.8937,-2505.1696)"
       x1="526.22955"
       y1="972.20367"
       x2="526.9317"
       y2="983.0517" />
    <linearGradient
       inkscape:collect="always"
       xlink:href="#linearGradient5439"
       id="linearGradient11653"
       gradientUnits="userSpaceOnUse"
       gradientTransform="matrix(2.6666667,0,0,2.6666667,-1299.8937,-2505.1696)"
       x1="525.87598"
       y1="968.21368"
       x2="526.13623"
       y2="978.47015" />
    <linearGradient
       inkscape:collect="always"
       xlink:href="#linearGradient5439"
       id="linearGradient11656"
       gradientUnits="userSpaceOnUse"
       gradientTransform="matrix(2.6666667,0,0,2.6666667,-1299.8937,-2505.1696)"
       x1="526.49469"
       y1="964.33539"
       x2="526.35724"
       y2="974.94196" />
    <linearGradient
       inkscape:collect="always"
       xlink:href="#linearGradient5439"
       id="linearGradient11659"
       gradientUnits="userSpaceOnUse"
       gradientTransform="matrix(2.6666667,0,0,2.6666667,-1299.8937,-2505.1696)"
       x1="521.6333"
       y1="975.11652"
       x2="521.62836"
       y2="983.46924" />
    <linearGradient
       inkscape:collect="always"
       xlink:href="#linearGradient5439"
       id="linearGradient11662"
       gradientUnits="userSpaceOnUse"
       gradientTransform="matrix(2.6666667,0,0,2.6666667,-1299.8937,-2505.1696)"
       x1="521.85431"
       y1="972.64069"
       x2="521.98187"
       y2="982.86859" />
    <linearGradient
       inkscape:collect="always"
       xlink:href="#linearGradient5439"
       id="linearGradient11665"
       gradientUnits="userSpaceOnUse"
       gradientTransform="matrix(2.6666667,0,0,2.6666667,-1299.8937,-2505.1696)"
       x1="521.41235"
       y1="968.52002"
       x2="521.58417"
       y2="978.48749" />
    <linearGradient
       inkscape:collect="always"
       xlink:href="#linearGradient5439"
       id="linearGradient11668"
       gradientUnits="userSpaceOnUse"
       gradientTransform="matrix(2.6666667,0,0,2.6666667,-1299.8937,-2505.1696)"
       x1="521.07843"
       y1="964.35101"
       x2="521.34363"
       y2="975.77557" />
    <linearGradient
       inkscape:collect="always"
       xlink:href="#linearGradient5439"
       id="linearGradient11671"
       gradientUnits="userSpaceOnUse"
       gradientTransform="matrix(2.6666667,0,0,2.6666667,-1299.8937,-2505.1696)"
       x1="516.84137"
       y1="977.48767"
       x2="516.92273"
       y2="985.66547" />
    <linearGradient
       inkscape:collect="always"
       xlink:href="#linearGradient5439"
       id="linearGradient11674"
       gradientUnits="userSpaceOnUse"
       gradientTransform="matrix(2.6666667,0,0,2.6666667,-1299.8937,-2505.1696)"
       x1="517.52258"
       y1="973.11267"
       x2="517.41205"
       y2="982.87146" />
    <linearGradient
       inkscape:collect="always"
       xlink:href="#linearGradient5439"
       id="linearGradient11677"
       gradientUnits="userSpaceOnUse"
       gradientTransform="matrix(2.6666667,0,0,2.6666667,-1299.8937,-2505.1696)"
       x1="517.65515"
       y1="968.8783"
       x2="517.67712"
       y2="979.75732" />
    <linearGradient
       inkscape:collect="always"
       xlink:href="#linearGradient5439"
       id="linearGradient11680"
       gradientUnits="userSpaceOnUse"
       gradientTransform="matrix(2.6666667,0,0,2.6666667,-1299.8937,-2505.1696)"
       x1="516.38452"
       y1="964.58142"
       x2="516.7381"
       y2="976.00641" />
    <linearGradient
       inkscape:collect="always"
       xlink:href="#linearGradient5439"
       id="linearGradient11684"
       gradientUnits="userSpaceOnUse"
       gradientTransform="matrix(2.6666667,0,0,2.6666667,-1299.8937,-2505.1696)"
       x1="533.37451"
       y1="954.98785"
       x2="488.8353"
       y2="1024.0167" />
    <linearGradient
       inkscape:collect="always"
       xlink:href="#linearGradient5439"
       id="linearGradient11687"
       gradientUnits="userSpaceOnUse"
       gradientTransform="matrix(2.6666667,0,0,2.6666667,-1299.8937,-2505.1696)"
       x1="515.13"
       y1="961.03949"
       x2="509.17841"
       y2="991.79669" />
    <linearGradient
       inkscape:collect="always"
       xlink:href="#linearGradient5316"
       id="linearGradient11690"
       gradientUnits="userSpaceOnUse"
       gradientTransform="matrix(2.6666667,0,0,2.6666667,-1299.8937,-2505.1696)"
       x1="499.129"
       y1="964.88595"
       x2="519.01638"
       y2="964.88595" />
    <linearGradient
       inkscape:collect="always"
       xlink:href="#linearGradient5316"
       id="linearGradient11693"
       gradientUnits="userSpaceOnUse"
       gradientTransform="matrix(2.6666667,0,0,2.6666667,-1299.8937,-2505.1696)"
       x1="499.129"
       y1="962.58907"
       x2="519.01638"
       y2="962.58907" />
    <linearGradient
       inkscape:collect="always"
       xlink:href="#linearGradient5316"
       id="linearGradient11696"
       gradientUnits="userSpaceOnUse"
       gradientTransform="matrix(2.6666667,0,0,2.6666667,-1299.8937,-2505.1696)"
       x1="499.129"
       y1="960.43282"
       x2="519.01638"
       y2="960.43282" />
    <linearGradient
       inkscape:collect="always"
       xlink:href="#linearGradient5316"
       id="linearGradient11699"
       gradientUnits="userSpaceOnUse"
       gradientTransform="matrix(2.6666667,0,0,2.6666667,-1299.8937,-2505.1696)"
       x1="499.129"
       y1="958.33907"
       x2="519.01638"
       y2="958.33907" />
    <linearGradient
       inkscape:collect="always"
       xlink:href="#linearGradient5316"
       id="linearGradient11702"
       gradientUnits="userSpaceOnUse"
       gradientTransform="matrix(2.6666667,0,0,2.6666667,-1299.8937,-2505.1696)"
       x1="499.129"
       y1="956.32824"
       x2="519.01638"
       y2="956.32824" />
    <linearGradient
       inkscape:collect="always"
       xlink:href="#linearGradient5316"
       id="linearGradient11705"
       gradientUnits="userSpaceOnUse"
       gradientTransform="matrix(2.6666667,0,0,2.6666667,-1299.8937,-2505.1696)"
       x1="499.129"
       y1="954.07434"
       x2="519.01638"
       y2="954.07434" />
    <linearGradient
       inkscape:collect="always"
       xlink:href="#linearGradient5316"
       id="linearGradient11708"
       gradientUnits="userSpaceOnUse"
       gradientTransform="matrix(2.6666667,0,0,2.6666667,-1299.8937,-2505.1696)"
       x1="499.129"
       y1="952.0856"
       x2="519.01638"
       y2="952.0856" />
    <linearGradient
       inkscape:collect="always"
       xlink:href="#linearGradient5316"
       id="linearGradient11711"
       gradientUnits="userSpaceOnUse"
       gradientTransform="matrix(2.6666667,0,0,2.6666667,-1299.8937,-2505.1696)"
       x1="499.129"
       y1="950.11895"
       x2="519.01638"
       y2="950.11895" />
    <linearGradient
       inkscape:collect="always"
       xlink:href="#linearGradient5316"
       id="linearGradient11714"
       gradientUnits="userSpaceOnUse"
       gradientTransform="matrix(2.6666667,0,0,2.6666667,-1299.8937,-2505.1696)"
       x1="499.129"
       y1="948.13022"
       x2="519.01638"
       y2="948.13022" />
    <linearGradient
       inkscape:collect="always"
       xlink:href="#linearGradient5316"
       id="linearGradient11717"
       gradientUnits="userSpaceOnUse"
       gradientTransform="matrix(2.6666667,0,0,2.6666667,-1299.8937,-2505.1696)"
       x1="499.129"
       y1="946.0752"
       x2="519.01638"
       y2="946.0752" />
    <linearGradient
       inkscape:collect="always"
       xlink:href="#linearGradient12594"
       id="linearGradient11720"
       gradientUnits="userSpaceOnUse"
       gradientTransform="matrix(2.5964912,0,0,2.5964912,-1264.4288,-2436.9503)"
       x1="492.75"
       y1="955.375"
       x2="495.25"
       y2="983.5" />
    <linearGradient
       inkscape:collect="always"
       xlink:href="#linearGradient5316"
       id="linearGradient11725"
       gradientUnits="userSpaceOnUse"
       gradientTransform="matrix(2.6666667,0,0,2.6666667,-1299.8937,-2505.1696)"
       x1="498.33191"
       y1="954.42908"
       x2="496.21301"
       y2="954.42908" />
  </defs>
  <sodipodi:namedview
     id="base"
     pagecolor="#ffffff"
     bordercolor="#666666"
     borderopacity="1.0"
     inkscape:pageopacity="0.0"
     inkscape:pageshadow="2"
     inkscape:zoom="2.5020702"
     inkscape:cx="59.047796"
     inkscape:cy="76.998335"
     inkscape:document-units="px"
     inkscape:current-layer="layer1"
     showgrid="false"
     inkscape:showpageshadow="false"
     inkscape:window-width="1024"
     inkscape:window-height="713"
     inkscape:window-x="0"
     inkscape:window-y="0"
     showguides="true"
     inkscape:guide-bbox="true"
     inkscape:window-maximized="0" />
  <metadata
     id="metadata7">
    <rdf:RDF>
      <cc:Work
         rdf:about="">
        <dc:format>image/svg+xml</dc:format>
        <dc:type
           rdf:resource="http://purl.org/dc/dcmitype/StillImage" />
      </cc:Work>
    </rdf:RDF>
  </metadata>
  <g
     inkscape:label="Capa 1"
     inkscape:groupmode="layer"
     id="layer1">
    <path
       sodipodi:nodetypes="ccccc"
       id="path8403"
       d="m 23.341003,95.433309 0,-87.1062677 63.766668,3.9718137 0.33472,76.499681 -64.101388,6.634773 z"
       style="fill:url(#linearGradient11725);fill-rule:evenodd;stroke:none;display:inline"
       inkscape:connector-curvature="0" />
    <path
       style="fill:#999999;fill-rule:evenodd;stroke:none;display:inline"
       d="M 25.130923,95.800189 25.32815,7.712188 88.444524,11.750455 88.556097,89.279763 25.130923,95.800189 z"
       id="path8405"
       sodipodi:nodetypes="ccccc"
       inkscape:connector-curvature="0" />
    <path
       style="fill:#f2f2f2;fill-opacity:1;fill-rule:evenodd;stroke:none;display:inline"
       d="m 27.759137,96.113896 0,-89.1460814 61.85536,4.4391464 -0.0013,78.293442 -61.854027,6.413493 z"
       id="path8407"
       sodipodi:nodetypes="ccccc"
       inkscape:connector-curvature="0" />
    <path
       sodipodi:nodetypes="cccccccccccccccccccc"
       style="opacity:0.60147603;fill:url(#linearGradient11720);fill-rule:evenodd;stroke:none;display:inline"
       d="m 10.77295,28.163735 0,94.701765 48.333334,-7.45614 L 10.77295,28.163735 z m 12.45176,46.157894 2.930107,5.872533 c 2.048106,-1.467466 3.998693,1.646214 1.765146,3.419094 l 9.36496,18.887844 c 1.881947,-1.24688 4.33144,2.04421 1.882454,3.7728 l 0.767866,1.53896 -1.355466,0.1725 c 0.01259,3.39336 -3.985894,3.14278 -3.936747,0.50107 l -4.589333,0.58411 c -0.01072,3.14693 -3.976054,3.64552 -4.01688,0.51125 l -2.728774,0.34731 -0.005,-2.13432 c -2.985494,0.42005 -3.126854,-3.69192 -0.0095,-4.066 L 23.24471,82.515469 c -2.875813,0.146667 -2.392187,-3.75792 -0.01061,-3.888853 l -0.0094,-4.304987 z"
       id="path8409"
       inkscape:connector-curvature="0" />
    <path
       sodipodi:nodetypes="ccccc"
       id="path8411"
       d="m 31.11695,14.987015 0,2.828427 53.033014,2.59272 0,-2.357014 -53.033014,-3.064133 z"
       style="fill:url(#linearGradient11717);fill-opacity:1;fill-rule:evenodd;stroke:none;display:inline"
       inkscape:connector-curvature="0" />
    <path
       style="fill:url(#linearGradient11714);fill-opacity:1;fill-rule:evenodd;stroke:none;display:inline"
       d="m 31.11695,20.761708 0,2.828427 53.033014,2.003467 0,-2.357014 -53.033014,-2.47488 z"
       id="path8413"
       sodipodi:nodetypes="ccccc"
       inkscape:connector-curvature="0" />
    <path
       sodipodi:nodetypes="ccccc"
       id="path8415"
       d="m 31.11695,26.182855 0,2.828427 53.033014,1.76776 0,-2.357013 -53.033014,-2.239174 z"
       style="fill:url(#linearGradient11711);fill-opacity:1;fill-rule:evenodd;stroke:none;display:inline"
       inkscape:connector-curvature="0" />
    <path
       style="fill:url(#linearGradient11708);fill-opacity:1;fill-rule:evenodd;stroke:none;display:inline"
       d="m 31.11695,31.721869 0,2.828426 53.033014,1.178507 0,-2.357013 -53.033014,-1.64992 z"
       id="path8417"
       sodipodi:nodetypes="ccccc"
       inkscape:connector-curvature="0" />
    <path
       sodipodi:nodetypes="ccccc"
       id="path8419"
       d="m 31.11695,37.378722 0,2.828427 53.033014,0.471386 0,-2.357013 -53.033014,-0.9428 z"
       style="fill:url(#linearGradient11705);fill-opacity:1;fill-rule:evenodd;stroke:none;display:inline"
       inkscape:connector-curvature="0" />
    <path
       style="fill:url(#linearGradient11702);fill-opacity:1;fill-rule:evenodd;stroke:none;display:inline"
       d="m 31.11695,43.624829 0,2.828426 53.033014,-0.471413 0,-2.357013 -53.033014,0 z"
       id="path8421"
       sodipodi:nodetypes="ccccc"
       inkscape:connector-curvature="0" />
    <path
       sodipodi:nodetypes="ccccc"
       id="path8423"
       d="m 31.11695,49.281682 0,2.828427 53.033014,-1.060667 0,-2.357013 -53.033014,0.589253 z"
       style="fill:url(#linearGradient11699);fill-opacity:1;fill-rule:evenodd;stroke:none;display:inline"
       inkscape:connector-curvature="0" />
    <path
       style="fill:url(#linearGradient11696);fill-opacity:1;fill-rule:evenodd;stroke:none;display:inline"
       d="m 31.11695,55.115016 0,2.828426 53.033014,-1.560666 0,-2.357014 -53.033014,1.089254 z"
       id="path8426"
       sodipodi:nodetypes="ccccc"
       inkscape:connector-curvature="0" />
    <path
       sodipodi:nodetypes="ccccc"
       id="path8428"
       d="m 31.11695,61.281682 0,2.828427 53.033014,-2.394 0,-2.357013 -53.033014,1.922586 z"
       style="fill:url(#linearGradient11693);fill-opacity:1;fill-rule:evenodd;stroke:none;display:inline"
       inkscape:connector-curvature="0" />
    <path
       style="fill:url(#linearGradient11690);fill-opacity:1;fill-rule:evenodd;stroke:none;display:inline"
       d="m 31.11695,67.865016 0,2.828426 53.033014,-3.310666 0,-2.357014 -53.033014,2.839254 z"
       id="path8430"
       sodipodi:nodetypes="ccccc"
       inkscape:connector-curvature="0" />
    <path
       style="fill:url(#linearGradient11687);fill-rule:evenodd;stroke:none;display:inline"
       d="m 107.69554,112.90104 c -11.65747,2.23622 -21.563789,4.59744 -33.368269,6.83366 -0.831654,0.17485 -1.663334,0.17645 -2.495014,0.0459 -1.392693,-0.2704 -4.008373,-0.92013 -5.127653,-1.20485 -1.52496,-0.35896 -2.638027,-1.6943 -2.66096,-3.40456 L 64.22239,53.796216 c 0.150107,-3.175361 1.78848,-4.560401 4.494134,-4.680214 l 3.47088,-0.264853 36.196056,-0.591894 c 2.32114,0.174187 3.47064,1.858374 3.58122,4.537014 l -0.0176,54.499971 c -0.0753,3.07766 -1.2889,5.0532 -4.25154,5.6048 z"
       id="path8434"
       sodipodi:nodetypes="cccccccccccc"
       inkscape:connector-curvature="0" />
    <path
       sodipodi:nodetypes="ccccccccc"
       id="path8436"
       d="m 115.00231,112.90104 -41.014479,6.87336 c -3.495307,0.65616 -6.168934,-1.75226 -6.206027,-4.51989 l -0.0026,-61.458294 c 0.150106,-3.175361 1.78848,-4.855041 4.494133,-4.974854 l 43.416933,-0.562107 c 2.32115,0.174187 3.47064,1.858374 3.58123,4.537014 l -0.0176,54.499971 c -0.0753,3.07766 -1.28891,5.0532 -4.25155,5.6048 z"
       style="fill:url(#linearGradient11684);fill-rule:evenodd;stroke:none;display:inline"
       inkscape:connector-curvature="0" />
    <path
       sodipodi:nodetypes="ccccc"
       id="path8438"
       d="m 117.00274,50.879549 0,11.5 -46.382163,2.25 0.08333,-12.833334 46.298833,-0.916666 z"
       style="fill:#4d4d4d;fill-rule:evenodd;stroke:none;display:inline"
       inkscape:connector-curvature="0" />
    <path
       sodipodi:nodetypes="ccccccccc"
       id="path8440"
       d="m 72.234204,67.610456 9.79504,-0.560987 c 0.7492,-0.04248 1.37792,0.614533 1.37792,1.37792 l 0,8.1488 c 0,0.763387 -0.61456,1.377947 -1.37792,1.377947 l -9.79504,0.765013 c -0.76336,0 -1.37792,-0.61456 -1.37792,-1.377947 l 0,-8.352826 c 0,-0.763387 0.61456,-1.37792 1.37792,-1.37792 z"
       style="fill:url(#linearGradient11680);fill-opacity:1;stroke:none;display:inline"
       inkscape:connector-curvature="0" />
    <path
       style="fill:url(#linearGradient11677);fill-opacity:1;stroke:none;display:inline"
       d="m 72.234204,79.235469 9.79504,-0.727653 c 0.7492,-0.04248 1.37792,0.614533 1.37792,1.37792 l 0,7.85712 c 0,0.763387 -0.61456,1.377947 -1.37792,1.377947 l -9.79504,0.97336 c -0.76336,0 -1.37792,-0.61456 -1.37792,-1.377947 l 0,-8.102827 c 0,-0.763387 0.61456,-1.37792 1.37792,-1.37792 z"
       id="path8442"
       sodipodi:nodetypes="ccccccccc"
       inkscape:connector-curvature="0" />
    <path
       sodipodi:nodetypes="ccccccccc"
       id="path8444"
       d="m 72.234204,90.735469 9.79504,-0.936 c 0.7492,-0.04248 1.37792,0.614534 1.37792,1.37792 l 0,8.19048 c 0,0.763391 -0.61456,1.377951 -1.37792,1.377951 l -9.79504,1.26501 c -0.76336,0 -1.37792,-0.61456 -1.37792,-1.37795 l 0,-8.519491 c 0,-0.763386 0.697893,-1.294586 1.37792,-1.37792 z"
       style="fill:url(#linearGradient11674);fill-opacity:1;stroke:none;display:inline"
       inkscape:connector-curvature="0" />
    <path
       style="fill:url(#linearGradient11671);fill-opacity:1;stroke:none;display:inline"
       d="m 72.234204,102.7355 9.79504,-1.26934 c 0.7492,-0.0425 1.37792,0.61454 1.37792,1.37792 l 0,8.1488 c 0,0.76339 -0.61456,1.37795 -1.37792,1.37795 l -9.79504,1.59835 c -0.76336,0 -1.37792,-0.61456 -1.37792,-1.37795 l 0,-8.47781 c 0,-0.76339 0.61456,-1.37792 1.37792,-1.37792 z"
       id="path8447"
       sodipodi:nodetypes="ccccccccc"
       inkscape:connector-curvature="0" />
    <path
       style="fill:url(#linearGradient11668);fill-opacity:1;stroke:none;display:inline"
       d="m 85.193191,66.861842 8.911249,-0.427013 c 0.68158,-0.03867 1.25355,0.559067 1.25355,1.253573 l 0,7.999574 c 0,0.694533 -0.55912,1.253626 -1.25355,1.253626 l -8.911249,0.68944 c -0.694454,0 -1.253574,-0.55912 -1.253574,-1.253573 l 0,-8.262 c 0,-0.694533 0.55912,-1.253627 1.253574,-1.253627 z"
       id="path8449"
       sodipodi:nodetypes="ccccccccc"
       inkscape:connector-curvature="0" />
    <path
       sodipodi:nodetypes="ccccccccc"
       id="path8451"
       d="m 85.193191,78.155256 8.911249,-0.603067 c 0.68158,-0.03861 1.25355,0.559093 1.25355,1.253627 l 0,7.72744 c 0,0.694507 -0.55912,1.253627 -1.25355,1.253627 l -8.911249,0.9684 c -0.694454,0 -1.253574,-0.559094 -1.253574,-1.2536 l 0,-8.092827 c 0,-0.694507 0.55912,-1.2536 1.253574,-1.2536 z"
       style="fill:url(#linearGradient11665);fill-opacity:1;stroke:none;display:inline"
       inkscape:connector-curvature="0" />
    <path
       style="fill:url(#linearGradient11662);fill-opacity:1;stroke:none;display:inline"
       d="m 85.281591,89.487043 8.822849,-0.9464 c 0.68158,-0.03867 1.25355,0.559093 1.25355,1.253573 l 0,8.144133 c 0,0.694534 -0.55912,1.253627 -1.25355,1.253627 l -8.911249,1.233784 c -0.694454,0 -1.253574,-0.559117 -1.253574,-1.253624 l 0.0884,-8.431493 c 0,-0.69448 0.634907,-1.177787 1.253574,-1.2536 z"
       id="path8453"
       sodipodi:nodetypes="ccccccccc"
       inkscape:connector-curvature="0" />
    <path
       sodipodi:nodetypes="ccccccccc"
       id="path8455"
       d="m 85.193191,101.08502 8.911249,-1.154777 c 0.68158,-0.03864 1.25355,0.559067 1.25355,1.253577 l 0,7.95242 c 0,0.69451 -0.55912,1.2536 -1.25355,1.2536 l -8.911249,1.41267 c -0.694454,0 -1.253574,-0.55912 -1.253574,-1.2536 l 0,-8.21029 c 0,-0.69451 0.55912,-1.2536 1.253574,-1.2536 z"
       style="fill:url(#linearGradient11659);fill-opacity:1;stroke:none;display:inline"
       inkscape:connector-curvature="0" />
    <path
       sodipodi:nodetypes="ccccccccc"
       id="path8457"
       d="m 97.09759,66.294136 8.08347,-0.492427 c 0.61826,-0.03504 1.13712,0.507147 1.13712,1.137147 l 0,7.904533 c 0,0.63 -0.5072,1.137147 -1.13712,1.137147 l -8.08347,0.665813 c -0.62997,0 -1.13715,-0.507173 -1.13715,-1.13712 l 0,-8.07792 c 0,-0.630027 0.50718,-1.137173 1.13715,-1.137173 z"
       style="fill:url(#linearGradient11656);fill-opacity:1;stroke:none;display:inline"
       inkscape:connector-curvature="0" />
    <path
       style="fill:url(#linearGradient11653);fill-opacity:1;stroke:none;display:inline"
       d="m 97.09759,77.335682 8.08347,-0.600506 c 0.61826,-0.03504 1.13712,0.507173 1.13712,1.137173 l 0,7.52968 c 0,0.629974 -0.5072,1.137174 -1.13712,1.137174 l -8.08347,0.81952 c -0.62997,0 -1.13715,-0.507147 -1.13715,-1.137174 l 0,-7.74872 c 0,-0.629973 0.50718,-1.137147 1.13715,-1.137147 z"
       id="path8459"
       sodipodi:nodetypes="ccccccccc"
       inkscape:connector-curvature="0" />
    <path
       sodipodi:nodetypes="ccccccccc"
       id="path8461"
       d="m 97.09759,88.260403 8.08347,-0.885227 c 0.61826,-0.03507 1.13712,0.507147 1.13712,1.13712 l 0,8.069227 c 0,0.630026 -0.5072,1.1372 -1.13712,1.1372 l -8.08347,1.077493 c -0.62997,0 -1.13715,-0.5072 -1.13715,-1.137173 l 0,-8.26152 c 0,-0.629947 0.57592,-1.068347 1.13715,-1.13712 z"
       style="fill:url(#linearGradient11650);fill-opacity:1;stroke:none;display:inline"
       inkscape:connector-curvature="0" />
    <path
       style="fill:url(#linearGradient11647);fill-opacity:1;stroke:none;display:inline"
       d="m 97.09759,99.560883 8.08347,-1.00584 c 0.61826,-0.03504 1.13712,0.507146 1.13712,1.13712 l 0,7.922077 c 0,0.62998 -0.5072,1.13715 -1.13712,1.13715 l -8.08347,1.28144 c -0.62997,0 -1.13715,-0.50717 -1.13715,-1.13715 l 0,-8.19762 c 0,-0.63 0.50718,-1.137177 1.13715,-1.137177 z"
       id="path8463"
       sodipodi:nodetypes="ccccccccc"
       inkscape:connector-curvature="0" />
    <path
       style="fill:url(#linearGradient11644);fill-opacity:1;stroke:none;display:inline"
       d="m 107.90143,65.641256 7.57739,-0.46344 c 0.57957,-0.03283 1.06594,0.475386 1.06594,1.065946 l 0,18.140081 c 0,0.59056 -0.47546,1.065973 -1.06594,1.065973 l -7.57739,0.806 c -0.59053,0 -1.06597,-0.475413 -1.06597,-1.06592 l 0,-18.482667 c 0,-0.590587 0.47544,-1.065973 1.06597,-1.065973 z"
       id="path8465"
       sodipodi:nodetypes="ccccccccc"
       inkscape:connector-curvature="0" />
    <path
       style="fill:url(#linearGradient11641);fill-opacity:1;stroke:none;display:inline"
       d="m 107.89418,87.095016 7.52584,-0.82416 c 0.5756,-0.03264 1.05869,0.47216 1.05869,1.058693 l 0,8.019787 c 0,0.58656 -0.47224,1.058747 -1.05869,1.058747 l -7.52584,0.875306 c -0.58651,0 -1.05872,-0.472213 -1.05872,-1.058746 l 0,-8.07096 c 0,-0.58648 0.53621,-0.99464 1.05872,-1.058667 z"
       id="path8467"
       sodipodi:nodetypes="ccccccccc"
       inkscape:connector-curvature="0" />
    <path
       sodipodi:nodetypes="ccccccccc"
       id="path8469"
       d="m 107.87655,98.039203 7.5256,-0.87568 c 0.56603,-0.03208 1.04107,0.464293 1.04107,1.041066 l 0,7.937651 c 0,0.57678 -0.46438,1.04107 -1.04107,1.04107 l -7.5256,1.1732 c -0.57675,0 -1.04109,-0.46432 -1.04109,-1.04107 l 0,-8.235144 c 0,-0.576773 0.46434,-1.041093 1.04109,-1.041093 z"
       style="fill:url(#linearGradient11638);fill-opacity:1;stroke:none;display:inline"
       inkscape:connector-curvature="0" />
    <path
       id="path8471"
       d="m 9.77295,23.830402 0,99.999998 50.666667,-8 L 9.77295,23.830402 z m 14.5,54.166667 14.166667,28.833331 -14.166667,1.91667 0,-30.750001 z"
       style="opacity:0.87912089;fill:url(#linearGradient11635);fill-rule:evenodd;stroke:none;display:inline"
       inkscape:connector-curvature="0" />
    <path
       id="path8473"
       d="m 27.77295,6.997068 0,0.9166667 -2.416667,-0.1666667 0,0.75 -2,-0.1666667 0,40.2500007 -13.583333,-24.75 0,99.999998 50.666667,-8 -12.083333,-21.916664 15.75,-1.583333 -0.08333,22.833337 c 0.02293,1.71026 1.141707,3.05776 2.666667,3.41666 0.956933,0.24342 2.971573,0.68814 4.416667,1 0.5664,0.18928 1.172026,0.34523 1.833333,0.33334 0.47032,0.004 0.9464,-0.0678 1.416667,-0.16667 0.530453,-0.10048 0.97688,-0.23237 1.5,-0.33333 l 39.166662,-6.5 c 2.96264,-0.5516 4.17469,-2.50566 4.25,-5.58334 l 0,-54.499998 c -0.11059,-2.67864 -1.26221,-4.409173 -3.58333,-4.583333 l -6.83334,0.08333 c -0.16,-0.02955 -0.32704,-0.07035 -0.5,-0.08333 l -18.749992,0.333333 0,-37.166667 L 27.77295,6.997068 z m -2.666667,88.250001 0,0.583334 2.666667,-0.25 0,0.5 5.083333,-0.5 5.583334,11.249997 -14.166667,1.91667 0,-13.416667 0.833333,-0.08333 z"
       style="fill:none;stroke:url(#linearGradient11632);stroke-width:2.66666675;stroke-linecap:round;stroke-linejoin:round;stroke-miterlimit:4;stroke-opacity:1;stroke-dasharray:none;display:inline"
       inkscape:connector-curvature="0" />
  </g>
</svg>
