<?xml version="1.0" encoding="UTF-8" standalone="no"?>
<!-- Created with Inkscape (http://www.inkscape.org/) -->

<svg
   xmlns:dc="http://purl.org/dc/elements/1.1/"
   xmlns:cc="http://creativecommons.org/ns#"
   xmlns:rdf="http://www.w3.org/1999/02/22-rdf-syntax-ns#"
   xmlns:svg="http://www.w3.org/2000/svg"
   xmlns="http://www.w3.org/2000/svg"
   xmlns:xlink="http://www.w3.org/1999/xlink"
   xmlns:sodipodi="http://sodipodi.sourceforge.net/DTD/sodipodi-0.dtd"
   xmlns:inkscape="http://www.inkscape.org/namespaces/inkscape"
   width="128"
   height="128"
   id="svg6934"
   sodipodi:version="0.32"
   inkscape:version="0.48.3.1 r9886"
   version="1.0"
   sodipodi:docname="florence.svg"
   inkscape:output_extension="org.inkscape.output.svg.inkscape">
  <defs
     id="defs6936">
    <linearGradient
       id="linearGradient5344">
      <stop
         style="stop-color:#000000;stop-opacity:1;"
         offset="0"
         id="stop5346" />
      <stop
         style="stop-color:#000000;stop-opacity:0;"
         offset="1"
         id="stop5348" />
    </linearGradient>
    <linearGradient
       id="linearGradient5165-7-9-8-2">
      <stop
         id="stop5167-4-8-6-9"
         style="stop-color:#ffffff;stop-opacity:1"
         offset="0" />
      <stop
         id="stop5169-5-5-2-9"
         style="stop-color:#ffffff;stop-opacity:0"
         offset="1" />
    </linearGradient>
    <linearGradient
       inkscape:collect="always"
       xlink:href="#linearGradient5344"
       id="linearGradient3107"
       gradientUnits="userSpaceOnUse"
       gradientTransform="matrix(5.3340639,0,0,5.3340639,-1451.4802,-5864.5574)"
       x1="305.23422"
       y1="1137.0681"
       x2="283.35095"
       y2="1104.2024" />
    <linearGradient
       inkscape:collect="always"
       xlink:href="#linearGradient5165-7-9-8-2"
       id="linearGradient3092"
       gradientUnits="userSpaceOnUse"
       gradientTransform="translate(-40,140)"
       x1="22.933788"
       y1="-144.76825"
       x2="18.618809"
       y2="-96.331688" />
    <linearGradient
       inkscape:collect="always"
       xlink:href="#linearGradient5344"
       id="linearGradient3094"
       gradientUnits="userSpaceOnUse"
       gradientTransform="translate(-40,140)"
       x1="7.9531264"
       y1="2.2416961"
       x2="13.667412"
       y2="-64.464973" />
    <linearGradient
       id="linearGradient5316-39">
      <stop
         style="stop-color:#ff6e00;stop-opacity:1;"
         offset="0"
         id="stop5320-84" />
      <stop
         style="stop-color:#eb2600;stop-opacity:1;"
         offset="1"
         id="stop5322-5" />
    </linearGradient>
    <linearGradient
       gradientTransform="translate(0,-4.295418e-6)"
       y2="107.41399"
       x2="117.48683"
       y1="25.086559"
       x1="6.5963445"
       gradientUnits="userSpaceOnUse"
       id="linearGradient3047"
       xlink:href="#linearGradient5316-39"
       inkscape:collect="always" />
  </defs>
  <sodipodi:namedview
     id="base"
     pagecolor="#ffffff"
     bordercolor="#666666"
     borderopacity="1.0"
     inkscape:pageopacity="0.0"
     inkscape:pageshadow="2"
     inkscape:zoom="1.979899"
     inkscape:cx="83.213419"
     inkscape:cy="76.758515"
     inkscape:document-units="px"
     inkscape:current-layer="layer1"
     showgrid="false"
     inkscape:window-width="1366"
     inkscape:window-height="718"
     inkscape:window-x="0"
     inkscape:window-y="0"
     inkscape:window-maximized="1" />
  <metadata
     id="metadata6939">
    <rdf:RDF>
      <cc:Work
         rdf:about="">
        <dc:format>image/svg+xml</dc:format>
        <dc:type
           rdf:resource="http://purl.org/dc/dcmitype/StillImage" />
        <dc:title></dc:title>
      </cc:Work>
    </rdf:RDF>
  </metadata>
  <g
     inkscape:label="Capa 1"
     inkscape:groupmode="layer"
     id="layer1">
    <path
       style="fill:url(#linearGradient3047);fill-opacity:1;fill-rule:evenodd;stroke:none"
       d="m 34.21875,5.0624987 c -1.32927,0.0554 -2.550557,0.27966 -3.65625,0.625 l -18.34375,2.71875 -0.5,0 0,0.1875 C 6.0032494,9.6428187 3.0625,14.185729 3.0625,19.749999 l 0,84.687501 c -0.07024,5.65226 2.0501037,10.0952 6.3125,11.5 l 18.96875,5.9375 c 0.02087,0.0102 0.04153,0.0212 0.0625,0.0313 1.892721,0.90932 4.164425,1.2325 6.78125,0.8125 l 78.28125,-11.8125 c 5.72052,-0.61974 9.4668,-6.06393 9.15625,-13.625004 l 0.40625,-74.281297 c 0.22248,-5.96534 -2.80168,-10.97622 -9.34375,-11.96875 L 35.84375,5.0937487 c -0.55631,-0.0273 -1.103066,-0.053 -1.625,-0.0313 z"
       id="path30949"
       inkscape:connector-curvature="0" />
    <path
       style="fill:url(#linearGradient3107);fill-rule:evenodd;stroke:none"
       d="M 29.25,16.718753 29.2187,113.125 c 0.4487,3.45828 1.40755,8.12456 4.34375,9.75 0.52713,-0.0229 1.0675,-0.0668 1.625,-0.15625 l 78.28125,-11.8125 c 5.72052,-0.61974 9.4668,-6.06393 9.15625,-13.625 l 0.40625,-74.281247 c 0.22245,-5.96534 -2.80168,-10.97622 -9.34375,-11.96875 L 37.6784,5.233693 c -3.97126,-0.42067 -8.41551,4.78057 -8.42845,11.48506 z M 30.15625,122.5 c 0.64796,0.17153 1.31467,0.32617 2.03125,0.375 z"
       id="path30953"
       inkscape:connector-curvature="0"
       sodipodi:nodetypes="ccccccccccccc" />
    <g
       id="g3087"
       transform="translate(40,0)">
      <path
         inkscape:connector-curvature="0"
         id="path3073"
         d="m -5.21875,5.312503 -22.5625,3.09375 -0.5,0 0,0.1875 c -5.715501,1.04907 -8.65625,5.59198 -8.65625,11.15625 l 0,25 26.1875,0 0,-28.03125 c 0.347051,-4.91678 2.274064,-9.96378 5.53125,-11.40625 z"
         style="fill:url(#linearGradient3092);fill-rule:evenodd;stroke:none;display:inline" />
      <path
         inkscape:connector-curvature="0"
         id="path3081"
         d="m -36.9375,68.406253 0,36.031247 c -0.07024,5.65226 2.050104,10.0952 6.3125,11.5 l 17.65625,6.03125 7.5,1.3125 c -3.710844,-1.04488 -4.81745,-6.34073 -5.3125,-10.15625 l 0,-44.718747 -26.15625,0 z"
         style="fill:url(#linearGradient3094);fill-rule:evenodd;stroke:none;display:inline" />
    </g>
    <path
       inkscape:connector-curvature="0"
       id="path30957"
       d="m 35.825012,5.0844328 c -1.734374,-0.0853 -3.26759,0.13333 -4.667303,0.50133 L 11.65504,8.5863028 C 5.9395447,9.6353728 2.9871862,14.190033 2.9871862,19.754303 l 0,84.678437 c -0.07024,5.65226 2.0718035,10.09707 6.3341998,11.50187 l 19.669357,6.16693 c 1.792241,0.74027 3.774988,1.0512 6.167512,0.6672 l 78.344065,-11.8352 c 5.72052,-0.6192 9.47847,-6.1072 9.16792,-13.66827 l 0.33339,-74.344027 c 0.22245,-5.96534 -2.79254,-10.84214 -9.33461,-11.83467 L 35.825018,5.0855028 z"
       style="fill:none;stroke:#344b63;stroke-width:2.667032;stroke-linecap:butt;stroke-linejoin:miter;stroke-miterlimit:4;stroke-opacity:1;stroke-dasharray:none;display:inline"
       sodipodi:nodetypes="ccccccccccccc" />
    <path
       style="font-size:medium;font-style:normal;font-variant:normal;font-weight:normal;font-stretch:normal;text-indent:0;text-align:start;text-decoration:none;line-height:normal;letter-spacing:normal;word-spacing:normal;text-transform:none;direction:ltr;block-progression:tb;writing-mode:lr-tb;text-anchor:start;baseline-shift:baseline;color:#000000;fill:#000000;fill-opacity:0.19105691;stroke:#000000;stroke-width:5;stroke-miterlimit:4;stroke-opacity:0.55691056;stroke-dasharray:none;marker:none;visibility:visible;display:inline;overflow:visible;enable-background:accumulate;font-family:Sans;-inkscape-font-specification:Sans"
       d="m 41.875,14.3125 c -2.28546,-0.02273 -4.565267,1.000409 -6.195793,2.780578 -1.630526,1.780168 -2.59169,4.29544 -2.612143,6.835712 -0.02045,2.540272 0.900057,5.07426 2.501658,6.886579 1.601601,1.812318 3.864568,2.880648 6.150028,2.903381 L 45.9375,34 c 2.292088,0.170739 4.633362,-0.714043 6.356801,-2.402275 1.723439,-1.688232 2.807399,-4.158711 2.943066,-6.707608 0.135667,-2.548898 -0.678662,-5.144201 -2.210991,-7.046519 -1.53233,-1.902319 -3.763414,-3.08776 -6.057626,-3.218598 l -4.25,-0.28125 C 42.438173,14.318217 42.156484,14.307784 41.875,14.3125 z m 24.316307,1.65625 c -4.278949,0.259238 -7.119886,4.572199 -7.080148,9.221531 0.03974,4.649331 2.953754,8.886613 7.236398,9.059719 l 3.9375,0.15625 c 3.626472,0.284284 4.142546,-0.70109 5.809654,-2.327892 1.667108,-1.626802 2.695674,-4.000021 2.787083,-6.430648 0.09141,-2.430627 -0.755538,-4.886866 -2.294951,-6.655604 C 75.047431,17.223368 73.214497,16.165267 70.972557,16.125 l -3.90625,-0.15625 c -0.291405,-0.01642 -0.583595,-0.01642 -0.875,0 z m 21.683693,1.75 c -3.748965,0.0032 -7.16847,3.898574 -7.217133,8.221487 -0.04866,4.322912 3.282003,8.319337 7.029633,8.434763 l 2.96875,0.1875 c 1.909768,0.179868 3.872285,-0.561153 5.319963,-2.008748 1.447679,-1.447596 2.361738,-3.582987 2.477823,-5.78859 C 98.57012,24.55956 97.886723,22.312359 96.601491,20.673481 95.316258,19.034603 93.445863,18.025309 91.53125,17.9375 l -2.9375,-0.21875 c -0.239385,-0.01375 -0.479365,-0.01375 -0.71875,0 z m 19.03125,2.125 c -3.2406,0.121155 -6.10738,3.720981 -6.0506,7.597768 0.0568,3.876787 3.02719,7.354356 6.26935,7.339732 l 2.21875,0.1875 c 1.64385,0.197587 3.34597,-0.425168 4.61601,-1.688863 1.27004,-1.263695 2.09165,-3.152075 2.22816,-5.121138 0.27303,-3.938124 -2.51568,-7.807252 -5.81292,-8.064999 L 108.15625,19.875 c -0.20772,-0.0229 -0.4164,-0.03333 -0.625,-0.03125 -0.20816,-0.01247 -0.41684,-0.01247 -0.625,0 z m -56.6875,20.6875 c -2.27146,0 -4.528934,1.045736 -6.135098,2.84198 -1.606164,1.796243 -2.541238,4.320873 -2.541238,6.861145 0,2.540272 0.935074,5.064902 2.541238,6.861145 1.606164,1.796244 3.863638,2.84198 6.135098,2.84198 l 3.78125,0 c 2.27146,0 4.528934,-1.045736 6.135098,-2.84198 1.606164,-1.796243 2.541238,-4.320873 2.541238,-6.861145 0,-2.540272 -0.935074,-5.064902 -2.541238,-6.861145 C 58.528934,41.576986 56.27146,40.53125 54,40.53125 z m 24.0625,0.65625 c -3.964957,0.176089 -7.468644,4.339527 -7.468644,8.875 0,4.535473 3.503687,8.698911 7.468644,8.875 l 3.78125,0 c 3.964957,-0.176089 7.468644,-4.339527 7.468644,-8.875 0,-4.535473 -3.503687,-8.698911 -7.468644,-8.875 z m 24.736607,0.677419 -2.53125,-0.01498 c -1.848104,-0.02308 -3.654411,0.86375 -4.875,2.417915 -1.220589,1.554164 -1.983848,3.830803 -1.861607,6.044643 0.122241,2.213841 0.856567,4.741383 2.25,6.25 1.393433,1.508617 3.308234,2.361969 5.15625,2.28125 l 2.5,-0.125 c 1.84731,-0.08044 3.65531,-1.066009 4.875,-2.6875 1.21969,-1.621492 1.84094,-3.849521 1.71875,-6.0625 -0.12219,-2.212979 -0.71462,-3.984889 -2.10714,-5.570421 -1.39251,-1.585532 -3.27763,-2.510584 -5.125003,-2.53341 z M 111.25,65.96457 c -0.14607,-2.3e-5 -0.29202,0.006 -0.4375,0.018 l -2.46875,0.112752 c -1.73903,-0.06245 -3.46897,0.77305 -4.66327,2.252085 -1.19429,1.479036 -1.83564,3.580218 -1.72884,5.664003 0.10681,2.083784 0.96022,4.119981 2.30048,5.488823 1.34027,1.368844 3.14796,2.050501 4.87288,1.837493 l 2.46875,-0.0815 c 3.28445,-0.101469 6.13982,-3.715298 6.05118,-7.658531 -0.0886,-3.943232 -3.10622,-7.545074 -6.39493,-7.633125 z m -20.375,0.59793 -3.21875,0.25 c -3.773727,0.283163 -6.976527,4.374342 -6.722909,8.587675 0.126809,2.106667 1.029587,4.142078 2.453468,5.531604 1.423881,1.389525 3.351328,2.116052 5.238191,1.974471 l 3.1875,-0.21875 c 3.781054,-0.274028 6.997965,-4.36434 6.752528,-8.585855 C 98.44231,71.990887 97.542089,69.949531 96.11851,68.553883 94.694931,67.158236 92.765527,66.425486 90.875,66.5625 z m -21.1875,0.25 -3.40625,0.25 c -2.149836,0.09077 -4.250787,1.154986 -5.695226,2.884869 -1.444439,1.729883 -2.213626,4.102986 -2.085104,6.432974 0.128522,2.329987 1.153087,4.58663 2.777377,6.117273 1.62429,1.530643 3.827233,2.315428 5.971703,2.127384 l 3.40625,-0.21875 c 2.122761,-0.137577 4.180248,-1.222374 5.591598,-2.948134 1.41135,-1.72576 2.159182,-4.07123 2.032373,-6.374247 -0.12681,-2.303016 -1.126698,-4.535216 -2.717383,-6.066413 C 73.972153,67.486259 71.810261,66.674923 69.6875,66.8125 z m -23.03125,0.71875 c -0.198159,0.0029 -0.396229,0.01335 -0.59375,0.03125 l -4.4375,0.21875 c -2.314551,0.07056 -4.587573,1.21507 -6.161621,3.102496 -1.574047,1.887426 -2.428696,4.493277 -2.316752,7.063841 0.111944,2.570563 1.189028,5.072486 2.919721,6.782116 1.730694,1.709629 4.092541,2.604783 6.402402,2.426547 L 46.875,86.9375 c 2.289906,-0.02426 4.5566,-1.098314 6.157922,-2.917875 1.601322,-1.819562 2.5174,-4.362055 2.488711,-6.907184 -0.02869,-2.54513 -1.00179,-5.061314 -2.643623,-6.835712 -1.641833,-1.774399 -3.932026,-2.784993 -6.22176,-2.745479 z m 62.875,22.4375 c -0.40869,-0.0051 -0.81518,0.02912 -1.21875,0.09375 l -68.15625,5.125 c -2.372489,0.221577 -4.645672,1.44451 -6.125,3.3125 -1.479328,1.86799 -2.140435,4.35861 -1.8125,6.71875 0.327936,2.36014 1.661189,4.54357 3.59375,5.9375 1.932561,1.39391 4.438224,1.96488 6.78125,1.53125 l 67.6875,-8.46875 c 3.53278,-0.45647 6.4048,-3.91146 6.21875,-7.46875 -0.18605,-3.557287 -3.40762,-6.695798 -6.96875,-6.78125 z"
       id="path3011"
       inkscape:connector-curvature="0"
       sodipodi:nodetypes="csssccsssccccsccsssccccsccsssccccsccssccccssssssssssscsccsccccsssccsssccccsssccscccssccsscccsssccsssccccsssccsssccccsssccsc" />
    <path
       inkscape:connector-curvature="0"
       id="path3861"
       d="m 43.875,14.3125 c -2.28546,-0.02273 -4.565267,1.000409 -6.195793,2.780578 -1.630526,1.780168 -2.59169,4.29544 -2.612143,6.835712 -0.02045,2.540272 0.900057,5.07426 2.501658,6.886579 1.601601,1.812318 3.864568,2.880648 6.150028,2.903381 L 47.9375,34 c 2.292088,0.170739 4.633362,-0.714043 6.356801,-2.402275 1.723439,-1.688232 2.807399,-4.158711 2.943066,-6.707608 0.135667,-2.548898 -0.678662,-5.144201 -2.210991,-7.046519 -1.53233,-1.902319 -3.763414,-3.08776 -6.057626,-3.218598 l -4.25,-0.28125 C 44.438173,14.318217 44.156484,14.307784 43.875,14.3125 z m 24.316307,1.65625 c -4.278949,0.259238 -8.00377,4.572199 -7.964032,9.221531 0.03974,4.649331 3.837638,8.886613 8.120282,9.059719 l 3.9375,0.15625 c 2.237512,0.158015 4.142546,-0.70109 5.809654,-2.327892 1.667108,-1.626802 2.695674,-4.000021 2.787083,-6.430648 0.09141,-2.430627 -0.755538,-4.886866 -2.294951,-6.655604 C 77.047431,17.223368 75.214497,16.165267 72.972557,16.125 l -3.90625,-0.15625 c -0.291405,-0.01642 -0.583595,-0.01642 -0.875,0 z m 21.683693,1.75 c -3.748965,0.0032 -7.16847,3.898574 -7.217133,8.221487 -0.04866,4.322912 3.282003,8.319337 7.029633,8.434763 l 2.96875,0.1875 c 1.909768,0.179868 3.872285,-0.561153 5.319963,-2.008748 1.447679,-1.447596 2.361737,-3.582987 2.477827,-5.78859 0.11608,-2.205602 -0.567317,-4.452803 -1.852549,-6.091681 C 97.316258,19.034603 95.445863,18.025309 93.53125,17.9375 l -2.9375,-0.21875 c -0.239385,-0.01375 -0.479365,-0.01375 -0.71875,0 z m 19.03125,2.125 c -3.2406,0.121155 -6.10738,3.720981 -6.0506,7.597768 0.0568,3.876787 3.02719,7.354356 6.26935,7.339732 l 2.21875,0.1875 c 1.64385,0.197587 3.34597,-0.425168 4.61601,-1.688863 1.27004,-1.263695 2.09165,-3.152075 2.22816,-5.121138 0.27303,-3.938124 -2.51568,-7.807252 -5.81292,-8.064999 L 110.15625,19.875 c -0.20772,-0.0229 -0.4164,-0.03333 -0.625,-0.03125 -0.20816,-0.01247 -0.41684,-0.01247 -0.625,0 z m -56.6875,20.6875 c -2.27146,0 -4.528934,1.045736 -6.135098,2.84198 -1.606164,1.796243 -2.541238,4.320873 -2.541238,6.861145 0,2.540272 0.935074,5.064902 2.541238,6.861145 1.606164,1.796244 3.863638,2.84198 6.135098,2.84198 l 3.78125,0 c 2.27146,0 4.528934,-1.045736 6.135098,-2.84198 1.606164,-1.796243 2.541238,-4.320873 2.541238,-6.861145 0,-2.540272 -0.935074,-5.064902 -2.541238,-6.861145 C 60.528934,41.576986 58.27146,40.53125 56,40.53125 z m 24.0625,0.65625 c -3.964957,0.176089 -7.468644,4.339527 -7.468644,8.875 0,4.535473 3.503687,8.698911 7.468644,8.875 l 3.78125,0 c 3.964957,-0.176089 7.468644,-4.339527 7.468644,-8.875 0,-4.535473 -3.503687,-8.698911 -7.468644,-8.875 z m 24.73661,0.788018 -2.531253,-0.01498 c -1.848104,-0.02308 -3.654411,0.86375 -4.875,2.417915 C 92.391018,45.93262 91.627759,48.09866 91.75,50.3125 c 0.122241,2.213841 0.856567,4.741383 2.25,6.25 1.393433,1.508617 3.308234,2.361969 5.15625,2.28125 l 2.5,-0.125 c 1.84731,-0.08044 3.65531,-1.066009 4.875,-2.6875 1.21969,-1.621492 1.84094,-3.849521 1.71875,-6.0625 -0.12219,-2.212979 -0.71462,-3.87429 -2.10714,-5.459821 -1.39251,-1.585533 -3.27763,-2.510585 -5.125,-2.533411 z M 113.25,66.025125 c -0.14607,-2.2e-5 -0.29202,0.006 -0.4375,0.018 l -2.46875,0.112752 c -1.73903,-0.06245 -3.46897,0.77305 -4.66327,2.252085 -1.19429,1.479035 -1.83564,3.580218 -1.72884,5.664002 0.10681,2.083784 0.96022,4.119982 2.30048,5.488824 1.34027,1.368843 3.14796,2.0505 4.87288,1.837493 l 2.46875,-0.0815 c 3.28445,-0.101469 6.13982,-3.715297 6.05118,-7.65853 -0.0886,-3.943233 -3.10622,-7.545075 -6.39493,-7.633126 z m -20.375,0.537375 -3.21875,0.25 c -3.773727,0.283163 -6.976527,4.374342 -6.722909,8.587675 0.126809,2.106667 1.029587,4.142078 2.453468,5.531604 1.423881,1.389525 3.351328,2.116052 5.238191,1.974471 l 3.1875,-0.21875 c 3.781054,-0.274028 6.99797,-4.36434 6.75253,-8.585855 -0.12272,-2.110758 -1.022941,-4.152114 -2.44652,-5.547762 C 96.694931,67.158236 94.765527,66.425486 92.875,66.5625 z m -21.1875,0.25 -3.40625,0.25 c -2.149836,0.09077 -4.250787,1.154986 -5.695226,2.884869 -1.444439,1.729883 -2.213626,4.102986 -2.085104,6.432974 0.128522,2.329987 1.153087,4.58663 2.777377,6.117273 1.62429,1.530643 3.827233,2.315428 5.971703,2.127384 l 3.40625,-0.21875 c 2.122761,-0.137577 4.180248,-1.222374 5.591598,-2.948134 1.41135,-1.72576 2.159182,-4.07123 2.032373,-6.374247 -0.12681,-2.303016 -1.126698,-4.535216 -2.717383,-6.066413 C 75.972153,67.486259 73.810261,66.674923 71.6875,66.8125 z m -23.03125,0.71875 c -0.198159,0.0029 -0.396229,0.01335 -0.59375,0.03125 l -4.4375,0.21875 c -2.314551,0.07056 -4.587573,1.21507 -6.161621,3.102496 -1.574047,1.887426 -2.428696,4.493277 -2.316752,7.063841 0.111944,2.570563 1.189028,5.072486 2.919721,6.782116 1.730694,1.709629 4.092541,2.604783 6.402402,2.426547 L 48.875,86.9375 c 2.289906,-0.02426 4.5566,-1.098314 6.157922,-2.917875 1.601322,-1.819562 2.5174,-4.362055 2.488711,-6.907184 -0.02869,-2.54513 -1.00179,-5.061314 -2.643623,-6.835712 -1.641833,-1.774399 -3.932026,-2.784993 -6.22176,-2.745479 z m 62.875,22.4375 c -0.40869,-0.0051 -0.81518,0.02912 -1.21875,0.09375 l -68.15625,5.125 c -2.372489,0.221577 -4.645672,1.44451 -6.125,3.3125 -1.479328,1.86799 -2.140435,4.35861 -1.8125,6.71875 0.327936,2.36014 1.661189,4.54357 3.59375,5.9375 1.932561,1.39391 4.438224,1.96488 6.78125,1.53125 l 67.6875,-8.46875 c 3.53278,-0.45647 6.4048,-3.91146 6.21875,-7.46875 -0.18605,-3.557287 -3.40762,-6.695798 -6.96875,-6.78125 z"
       style="font-size:medium;font-style:normal;font-variant:normal;font-weight:normal;font-stretch:normal;text-indent:0;text-align:start;text-decoration:none;line-height:normal;letter-spacing:normal;word-spacing:normal;text-transform:none;direction:ltr;block-progression:tb;writing-mode:lr-tb;text-anchor:start;baseline-shift:baseline;color:#000000;fill:#ffffff;fill-opacity:1;stroke:none;stroke-width:5;marker:none;visibility:visible;display:inline;overflow:visible;enable-background:accumulate;font-family:Sans;-inkscape-font-specification:Sans"
       sodipodi:nodetypes="csssccsssccccsccsssccccsccsssccccsccssccccssssssssssscsccsccccsssccsssccccsssccscccssccsscccsssccsssccccsssccsssccccsssccsc" />
  </g>
</svg>
