<?xml version="1.0" encoding="UTF-8" standalone="no"?>
<!-- Created with Inkscape (http://www.inkscape.org/) -->

<svg
   xmlns:dc="http://purl.org/dc/elements/1.1/"
   xmlns:cc="http://creativecommons.org/ns#"
   xmlns:rdf="http://www.w3.org/1999/02/22-rdf-syntax-ns#"
   xmlns:svg="http://www.w3.org/2000/svg"
   xmlns="http://www.w3.org/2000/svg"
   xmlns:xlink="http://www.w3.org/1999/xlink"
   xmlns:sodipodi="http://sodipodi.sourceforge.net/DTD/sodipodi-0.dtd"
   xmlns:inkscape="http://www.inkscape.org/namespaces/inkscape"
   width="128"
   height="128"
   id="svg6934"
   sodipodi:version="0.32"
   inkscape:version="0.48.3.1 r9886"
   version="1.0"
   sodipodi:docname="aaa-generic.svg"
   inkscape:output_extension="org.inkscape.output.svg.inkscape">
  <defs
     id="defs6936">
    <linearGradient
       id="linearGradient5344">
      <stop
         style="stop-color:#000000;stop-opacity:1;"
         offset="0"
         id="stop5346" />
      <stop
         style="stop-color:#000000;stop-opacity:0;"
         offset="1"
         id="stop5348" />
    </linearGradient>
    <linearGradient
       id="linearGradient5165-7-9-8-2">
      <stop
         id="stop5167-4-8-6-9"
         style="stop-color:#ffffff;stop-opacity:1"
         offset="0" />
      <stop
         id="stop5169-5-5-2-9"
         style="stop-color:#ffffff;stop-opacity:0"
         offset="1" />
    </linearGradient>
    <linearGradient
       inkscape:collect="always"
       xlink:href="#linearGradient5344"
       id="linearGradient3107"
       gradientUnits="userSpaceOnUse"
       gradientTransform="matrix(5.3340639,0,0,5.3340639,-1451.4802,-5864.5574)"
       x1="305.23422"
       y1="1137.0681"
       x2="283.35095"
       y2="1104.2024" />
    <linearGradient
       inkscape:collect="always"
       xlink:href="#linearGradient5344-50"
       id="linearGradient13031-7"
       gradientUnits="userSpaceOnUse"
       gradientTransform="matrix(2.3371908,-0.19593194,0,2.3371908,-1123.3759,-2035.152)"
       x1="516.625"
       y1="949.4657"
       x2="516.625"
       y2="953.45752" />
    <linearGradient
       id="linearGradient5344-50">
      <stop
         style="stop-color:#000000;stop-opacity:1;"
         offset="0"
         id="stop5346-2" />
      <stop
         style="stop-color:#000000;stop-opacity:0;"
         offset="1"
         id="stop5348-5" />
    </linearGradient>
    <linearGradient
       inkscape:collect="always"
       xlink:href="#linearGradient5316-0"
       id="linearGradient13027-1"
       gradientUnits="userSpaceOnUse"
       gradientTransform="matrix(3.6383072,-0.24094751,0,3.6383072,-1797.8001,-3254.4436)"
       x1="516.625"
       y1="951.58276"
       x2="516.84595"
       y2="953.33002" />
    <linearGradient
       id="linearGradient5316-0">
      <stop
         style="stop-color:#aac736;stop-opacity:1;"
         offset="0"
         id="stop5320-8" />
      <stop
         style="stop-color:#5d8b2c;stop-opacity:1;"
         offset="1"
         id="stop5322-1" />
    </linearGradient>
    <linearGradient
       inkscape:collect="always"
       xlink:href="#linearGradient13604-6"
       id="linearGradient13023-1"
       gradientUnits="userSpaceOnUse"
       gradientTransform="matrix(3.6383072,0,0,3.6383072,-1871.8013,-3376.2301)"
       x1="532.71075"
       y1="943.25812"
       x2="540.65033"
       y2="973.31165" />
    <linearGradient
       id="linearGradient13604-6">
      <stop
         id="stop13606-2"
         offset="0"
         style="stop-color:#ffffff;stop-opacity:1;" />
      <stop
         id="stop13608-7"
         offset="1"
         style="stop-color:#000000;stop-opacity:1;" />
    </linearGradient>
    <linearGradient
       inkscape:collect="always"
       xlink:href="#linearGradient13620-8"
       id="linearGradient13021-7"
       gradientUnits="userSpaceOnUse"
       gradientTransform="matrix(3.6383072,0,0,3.6383072,-1811.8986,-3430.9797)"
       x1="508.00168"
       y1="976.56775"
       x2="507.60999"
       y2="969.06256" />
    <linearGradient
       id="linearGradient13620-8">
      <stop
         id="stop13622-7"
         offset="0"
         style="stop-color:#000000;stop-opacity:1;" />
      <stop
         id="stop13624-6"
         offset="1"
         style="stop-color:#000000;stop-opacity:0;" />
    </linearGradient>
    <linearGradient
       inkscape:collect="always"
       xlink:href="#linearGradient13604-6"
       id="linearGradient13015-1"
       gradientUnits="userSpaceOnUse"
       gradientTransform="matrix(3.6383072,0,0,3.6383072,-1811.8986,-3430.9797)"
       x1="507.15793"
       y1="956.94275"
       x2="506.35999"
       y2="981.68756" />
    <linearGradient
       inkscape:collect="always"
       xlink:href="#linearGradient5165-7-9-8-2"
       id="linearGradient3092"
       gradientUnits="userSpaceOnUse"
       gradientTransform="translate(-40,140)"
       x1="22.933788"
       y1="-144.76825"
       x2="18.618809"
       y2="-96.331688" />
    <linearGradient
       inkscape:collect="always"
       xlink:href="#linearGradient5344"
       id="linearGradient3094"
       gradientUnits="userSpaceOnUse"
       gradientTransform="translate(-40,140)"
       x1="7.9531264"
       y1="2.2416961"
       x2="13.667412"
       y2="-64.464973" />
  </defs>
  <sodipodi:namedview
     id="base"
     pagecolor="#ffffff"
     bordercolor="#666666"
     borderopacity="1.0"
     inkscape:pageopacity="0.0"
     inkscape:pageshadow="2"
     inkscape:zoom="3.959798"
     inkscape:cx="78.054655"
     inkscape:cy="58.4732"
     inkscape:document-units="px"
     inkscape:current-layer="layer1"
     showgrid="false"
     inkscape:window-width="1366"
     inkscape:window-height="717"
     inkscape:window-x="0"
     inkscape:window-y="0"
     inkscape:window-maximized="1"
     inkscape:snap-global="false" />
  <metadata
     id="metadata6939">
    <rdf:RDF>
      <cc:Work
         rdf:about="">
        <dc:format>image/svg+xml</dc:format>
        <dc:type
           rdf:resource="http://purl.org/dc/dcmitype/StillImage" />
        <dc:title></dc:title>
      </cc:Work>
    </rdf:RDF>
  </metadata>
  <g
     inkscape:label="Capa 1"
     inkscape:groupmode="layer"
     id="layer1">
    <path
       style="fill:#472178;fill-opacity:1;fill-rule:evenodd;stroke:none"
       d="m 34.21875,5.062503 c -1.32927,0.0554 -2.55056,0.27966 -3.65625,0.625 l -18.34375,2.71875 -0.5,0 0,0.1875 c -5.7155,1.04907 -8.65625,5.59198 -8.65625,11.15625 l 0,84.687497 c -0.0702,5.65226 2.0501,10.0952 6.3125,11.5 l 18.96875,5.9375 c 0.0209,0.0102 0.0415,0.0212 0.0625,0.0313 1.89272,0.90932 4.16442,1.2325 6.78125,0.8125 l 78.28125,-11.8125 c 5.72052,-0.61974 9.4668,-6.06393 9.15625,-13.625 l 0.40625,-74.281297 c 0.22248,-5.96534 -2.80168,-10.97622 -9.34375,-11.96875 l -77.84375,-5.9375 c -0.55631,-0.0273 -1.10307,-0.053 -1.625,-0.0313 z"
       id="path30949"
       inkscape:connector-curvature="0" />
    <path
       style="fill:url(#linearGradient3107);fill-rule:evenodd;stroke:none"
       d="M 29.25,16.718753 29.2187,113.125 c 0.4487,3.45828 1.40755,8.12456 4.34375,9.75 0.52713,-0.0229 1.0675,-0.0668 1.625,-0.15625 l 78.28125,-11.8125 c 5.72052,-0.61974 9.4668,-6.06393 9.15625,-13.625 l 0.40625,-74.281247 c 0.22245,-5.96534 -2.80168,-10.97622 -9.34375,-11.96875 L 37.6784,5.233693 c -3.97126,-0.42067 -8.41551,4.78057 -8.42845,11.48506 z M 30.15625,122.5 c 0.64796,0.17153 1.31467,0.32617 2.03125,0.375 z"
       id="path30953"
       inkscape:connector-curvature="0"
       sodipodi:nodetypes="ccccccccccccc" />
    <g
       id="g3087"
       transform="translate(40,0)">
      <path
         inkscape:connector-curvature="0"
         id="path3073"
         d="m -5.21875,5.312503 -22.5625,3.09375 -0.5,0 0,0.1875 c -5.715501,1.04907 -8.65625,5.59198 -8.65625,11.15625 l 0,25 26.1875,0 0,-28.03125 c 0.347051,-4.91678 2.274064,-9.96378 5.53125,-11.40625 z"
         style="fill:url(#linearGradient3092);fill-rule:evenodd;stroke:none;display:inline" />
      <path
         inkscape:connector-curvature="0"
         id="path3081"
         d="m -36.9375,68.406253 0,36.031247 c -0.07024,5.65226 2.050104,10.0952 6.3125,11.5 l 17.65625,6.03125 7.5,1.3125 c -3.710844,-1.04488 -4.81745,-6.34073 -5.3125,-10.15625 l 0,-44.718747 -26.15625,0 z"
         style="fill:url(#linearGradient3094);fill-rule:evenodd;stroke:none;display:inline" />
    </g>
    <path
       inkscape:connector-curvature="0"
       id="path30957"
       d="m 35.825012,5.0844328 c -1.734374,-0.0853 -3.26759,0.13333 -4.667303,0.50133 L 11.65504,8.5863028 C 5.9395447,9.6353728 2.9871862,14.190033 2.9871862,19.754303 l 0,84.678437 c -0.07024,5.65226 2.0718035,10.09707 6.3341998,11.50187 l 19.669357,6.16693 c 1.792241,0.74027 3.774988,1.0512 6.167512,0.6672 l 78.344065,-11.8352 c 5.72052,-0.6192 9.47847,-6.1072 9.16792,-13.66827 l 0.33339,-74.344027 c 0.22245,-5.96534 -2.79254,-10.84214 -9.33461,-11.83467 L 35.825018,5.0855028 z"
       style="fill:none;stroke:#344b63;stroke-width:2.667032;stroke-linecap:butt;stroke-linejoin:miter;stroke-miterlimit:4;stroke-opacity:1;stroke-dasharray:none;display:inline"
       sodipodi:nodetypes="ccccccccccccc" />
    <path
       inkscape:connector-curvature="0"
       id="path3044"
       d="m 107.86367,14.859637 c -10.741956,1.671109 -21.993032,5.19877 -32.640575,11.767785 l 3.277035,2.725872 c 9.355835,-6.809983 19.558654,-11.316221 30.20714,-13.629357 l -0.8436,-0.8643 z m 1.68718,1.761843 C 98.965446,18.847324 88.885263,23.390507 79.635738,30.284079 l 11.096498,9.27461 C 98.482439,32.009683 106.99285,26.637542 116.26716,23.668855 L 109.55085,16.62148 z M 58.31878,16.75445 41.803816,32.876981 92.127409,78.784641 106.0467,56.778217 58.31878,16.75445 z m 58.75953,7.745463 c -9.19633,2.869363 -17.607267,8.287382 -25.242914,15.956319 L 95.372,43.4148 c 7.02613,-7.93234 14.82066,-13.825008 23.52328,-16.986831 l -1.81697,-1.928056 z M 52.705639,47.13794 C 44.765584,57.459602 37.909118,70.782219 32.881192,87.926282 L 37.391174,92.1813 C 42.472746,75.862739 49.20534,62.257651 57.150727,51.193505 L 52.705639,47.13794 z m 5.807815,5.285531 C 50.668699,63.604515 43.99341,77.312096 38.91613,93.643962 L 54.035921,107.97141 C 59.076477,91.363656 65.042259,76.854661 71.913613,64.689892 L 58.513454,52.423471 z M 73.341232,65.986343 C 66.5969,78.290688 60.723735,92.90842 55.690662,109.5338 l 4.445088,4.18854 C 65.262857,98.000827 71.075999,83.070073 77.78632,70.041907 l -4.445088,-4.055564 z"
       style="fill:#000000;stroke:#000000;stroke-width:5.05437421999999970;stroke-linecap:round;stroke-linejoin:round;stroke-miterlimit:4;stroke-dasharray:none;fill-opacity:0.54771787000000005;stroke-opacity:0.56846476" />
    <path
       style="fill:#ffffff;stroke:none"
       d="m 109.86106,14.859637 c -10.741962,1.671109 -21.993038,5.19877 -32.640581,11.767785 l 3.277035,2.725872 C 89.853349,22.543311 100.05617,18.037073 110.70464,15.723937 l -0.84358,-0.8643 z m 1.68719,1.761843 c -10.58543,2.225844 -20.665604,6.769027 -29.915129,13.662599 l 11.096499,9.27461 c 7.75021,-7.549006 16.26061,-12.921147 25.53493,-15.889834 l -6.7163,-7.047375 z M 60.316163,16.75445 43.8012,32.876981 94.124793,78.784641 108.04409,56.778217 60.316163,16.75445 z m 58.759537,7.745463 c -9.19635,2.869363 -17.60727,8.287382 -25.24292,15.956319 L 97.369384,43.4148 C 104.39552,35.48246 112.19005,29.589792 120.89267,26.427969 L 119.0757,24.499913 z M 54.703023,47.13794 C 46.762968,57.459602 39.906502,70.782219 34.878576,87.926282 L 39.388558,92.1813 C 44.47013,75.862739 51.202724,62.257651 59.148111,51.193505 L 54.703023,47.13794 z m 5.807815,5.285531 C 52.666082,63.604515 45.990794,77.312096 40.913513,93.643962 l 15.11979,14.327448 C 61.073861,91.363656 67.039643,76.854661 73.910997,64.689892 L 60.510838,52.423471 z M 75.338615,65.986343 C 68.594284,78.290688 62.721119,92.90842 57.688046,109.5338 l 4.445088,4.18854 C 67.260241,98.000827 73.073382,83.070073 79.783704,70.041907 l -4.445089,-4.055564 z"
       id="path3022"
       inkscape:connector-curvature="0" />
  </g>
</svg>
