<?xml version="1.0" encoding="UTF-8" standalone="no"?>
<!-- Created with Inkscape (http://www.inkscape.org/) -->

<svg
   xmlns:dc="http://purl.org/dc/elements/1.1/"
   xmlns:cc="http://creativecommons.org/ns#"
   xmlns:rdf="http://www.w3.org/1999/02/22-rdf-syntax-ns#"
   xmlns:svg="http://www.w3.org/2000/svg"
   xmlns="http://www.w3.org/2000/svg"
   xmlns:xlink="http://www.w3.org/1999/xlink"
   xmlns:sodipodi="http://sodipodi.sourceforge.net/DTD/sodipodi-0.dtd"
   xmlns:inkscape="http://www.inkscape.org/namespaces/inkscape"
   width="128"
   height="128"
   id="svg6934"
   sodipodi:version="0.32"
   inkscape:version="0.48.3.1 r9886"
   version="1.0"
   sodipodi:docname="kompozer.svg"
   inkscape:output_extension="org.inkscape.output.svg.inkscape">
  <defs
     id="defs6936">
    <linearGradient
       inkscape:collect="always"
       xlink:href="#linearGradient5316-39"
       id="linearGradient31113"
       gradientUnits="userSpaceOnUse"
       gradientTransform="translate(-112.78663,-33.91079)"
       x1="275.29071"
       y1="1103.7349"
       x2="275.29071"
       y2="1121.6162" />
    <linearGradient
       id="linearGradient5316-39">
      <stop
         style="stop-color:#aac736;stop-opacity:1;"
         offset="0"
         id="stop5320-84" />
      <stop
         style="stop-color:#5d8b2c;stop-opacity:1;"
         offset="1"
         id="stop5322-5" />
    </linearGradient>
    <linearGradient
       inkscape:collect="always"
       xlink:href="#linearGradient5165-7-9-8-2-1"
       id="linearGradient31115"
       gradientUnits="userSpaceOnUse"
       gradientTransform="translate(-112.78663,-33.91079)"
       x1="275.29071"
       y1="1094.0099"
       x2="275.29071"
       y2="1117.1519" />
    <linearGradient
       id="linearGradient5165-7-9-8-2-1">
      <stop
         id="stop5167-4-8-6-9-4"
         style="stop-color:#ffffff;stop-opacity:1"
         offset="0" />
      <stop
         id="stop5169-5-5-2-9-90"
         style="stop-color:#ffffff;stop-opacity:0"
         offset="1" />
    </linearGradient>
    <linearGradient
       inkscape:collect="always"
       xlink:href="#linearGradient5316-39"
       id="linearGradient31117"
       gradientUnits="userSpaceOnUse"
       gradientTransform="translate(-112.78663,-33.91079)"
       x1="280.65372"
       y1="1100.6647"
       x2="292.69617"
       y2="1118.8726" />
    <linearGradient
       inkscape:collect="always"
       xlink:href="#linearGradient5344-4"
       id="linearGradient31119"
       gradientUnits="userSpaceOnUse"
       gradientTransform="translate(-112.78663,-33.91079)"
       x1="317.94461"
       y1="1142.4757"
       x2="283.81964"
       y2="1103.8007" />
    <linearGradient
       id="linearGradient5344-4">
      <stop
         style="stop-color:#000000;stop-opacity:1;"
         offset="0"
         id="stop5346-96" />
      <stop
         style="stop-color:#000000;stop-opacity:0;"
         offset="1"
         id="stop5348-31" />
    </linearGradient>
    <linearGradient
       inkscape:collect="always"
       xlink:href="#linearGradient5344-4"
       id="linearGradient3133"
       gradientUnits="userSpaceOnUse"
       gradientTransform="matrix(5.334059,0,0,5.334059,-1451.5327,-5864.5296)"
       x1="317.94461"
       y1="1142.4757"
       x2="283.81964"
       y2="1103.8007" />
    <linearGradient
       inkscape:collect="always"
       xlink:href="#linearGradient5316-39"
       id="linearGradient3136"
       gradientUnits="userSpaceOnUse"
       gradientTransform="matrix(5.334059,0,0,5.334059,-1451.5327,-5864.5296)"
       x1="280.65372"
       y1="1100.6647"
       x2="292.69617"
       y2="1118.8726" />
    <linearGradient
       inkscape:collect="always"
       xlink:href="#linearGradient5165-7-9-8-2-1"
       id="linearGradient3139"
       gradientUnits="userSpaceOnUse"
       gradientTransform="matrix(5.334059,0,0,5.334059,-1451.5327,-5864.5296)"
       x1="275.29071"
       y1="1094.0099"
       x2="275.29071"
       y2="1117.1519" />
    <linearGradient
       inkscape:collect="always"
       xlink:href="#linearGradient5316-39"
       id="linearGradient3142"
       gradientUnits="userSpaceOnUse"
       gradientTransform="matrix(5.334059,0,0,5.334059,-1451.5327,-5864.5296)"
       x1="275.29071"
       y1="1103.7349"
       x2="275.29071"
       y2="1121.6162" />
    <linearGradient
       inkscape:collect="always"
       xlink:href="#linearGradient5344"
       id="linearGradient3105"
       x1="7.9531264"
       y1="2.2416961"
       x2="13.667412"
       y2="-64.464973"
       gradientUnits="userSpaceOnUse"
       gradientTransform="translate(-4.0351795e-8,140)" />
    <linearGradient
       id="linearGradient5344">
      <stop
         style="stop-color:#000000;stop-opacity:1;"
         offset="0"
         id="stop5346" />
      <stop
         style="stop-color:#000000;stop-opacity:0;"
         offset="1"
         id="stop5348" />
    </linearGradient>
    <linearGradient
       inkscape:collect="always"
       xlink:href="#linearGradient5165-7-9-8-2"
       id="linearGradient3103"
       x1="22.933788"
       y1="-144.76825"
       x2="18.618809"
       y2="-96.331688"
       gradientUnits="userSpaceOnUse"
       gradientTransform="translate(-4.0351795e-8,140)" />
    <linearGradient
       id="linearGradient5165-7-9-8-2">
      <stop
         id="stop5167-4-8-6-9"
         style="stop-color:#ffffff;stop-opacity:1"
         offset="0" />
      <stop
         id="stop5169-5-5-2-9"
         style="stop-color:#ffffff;stop-opacity:0"
         offset="1" />
    </linearGradient>
    <linearGradient
       inkscape:collect="always"
       xlink:href="#linearGradient5344"
       id="linearGradient3107"
       gradientUnits="userSpaceOnUse"
       gradientTransform="matrix(5.3340639,0,0,5.3340639,-1451.4802,-5864.5574)"
       x1="305.23422"
       y1="1137.0681"
       x2="283.35095"
       y2="1104.2024" />
    <linearGradient
       id="linearGradient3069">
      <stop
         style="stop-color:#000000;stop-opacity:1;"
         offset="0"
         id="stop3071" />
      <stop
         style="stop-color:#000000;stop-opacity:0;"
         offset="1"
         id="stop3073" />
    </linearGradient>
  </defs>
  <sodipodi:namedview
     id="base"
     pagecolor="#ffffff"
     bordercolor="#666666"
     borderopacity="1.0"
     inkscape:pageopacity="0.0"
     inkscape:pageshadow="2"
     inkscape:zoom="3.959798"
     inkscape:cx="103.33104"
     inkscape:cy="53.617995"
     inkscape:document-units="px"
     inkscape:current-layer="layer1"
     showgrid="false"
     inkscape:window-width="1366"
     inkscape:window-height="717"
     inkscape:window-x="0"
     inkscape:window-y="0"
     inkscape:window-maximized="1" />
  <metadata
     id="metadata6939">
    <rdf:RDF>
      <cc:Work
         rdf:about="">
        <dc:format>image/svg+xml</dc:format>
        <dc:type
           rdf:resource="http://purl.org/dc/dcmitype/StillImage" />
        <dc:title />
      </cc:Work>
    </rdf:RDF>
  </metadata>
  <g
     inkscape:label="Capa 1"
     inkscape:groupmode="layer"
     id="layer1">
    <path
       style="fill:#ffba00;fill-opacity:1;fill-rule:evenodd;stroke:none"
       d="m 34.21875,5.062503 c -1.32927,0.0554 -2.550557,0.27966 -3.65625,0.625 l -18.34375,2.71875 -0.5,0 0,0.1875 C 6.0032494,9.642823 3.0625,14.185733 3.0625,19.750003 l 0,84.687497 c -0.07024,5.65226 2.0501037,10.0952 6.3125,11.5 l 18.96875,5.9375 c 0.02087,0.0102 0.04153,0.0212 0.0625,0.0313 1.892721,0.90932 4.164425,1.2325 6.78125,0.8125 l 78.28125,-11.8125 c 5.72052,-0.61974 9.4668,-6.06393 9.15625,-13.625 l 0.40625,-74.281297 c 0.22248,-5.96534 -2.80168,-10.97622 -9.34375,-11.96875 l -77.84375,-5.9375 c -0.55631,-0.0273 -1.103066,-0.053 -1.625,-0.0313 z"
       id="path30949"
       inkscape:connector-curvature="0" />
    <path
       style="fill:url(#linearGradient3107);fill-rule:evenodd;stroke:none"
       d="M 29.25,16.718753 29.21875,113.125 c 0.448699,3.45828 1.407546,8.12456 4.34375,9.75 0.527128,-0.0229 1.067503,-0.0668 1.625,-0.15625 l 78.28125,-11.8125 c 5.72052,-0.61974 9.4668,-6.06393 9.15625,-13.625 l 0.40625,-74.281247 c 0.22245,-5.96534 -2.80168,-10.97622 -9.34375,-11.96875 L 37.678453,5.233693 C 33.707189,4.813023 29.262938,10.014263 29.25,16.718753 z M 30.15625,122.5 c 0.647964,0.17153 1.314675,0.32617 2.03125,0.375 z"
       id="path30953"
       inkscape:connector-curvature="0"
       sodipodi:nodetypes="ccccccccccccc" />
    <path
       style="fill:url(#linearGradient3103);fill-rule:evenodd;stroke:none;display:inline"
       d="m 34.78125,5.312503 -22.5625,3.09375 -0.5,0 0,0.1875 C 6.003249,9.642823 3.0625,14.185733 3.0625,19.750003 l 0,25 26.1875,0 0,-28.03125 c 0.347051,-4.91678 2.274064,-9.96378 5.53125,-11.40625 z"
       id="path3073"
       inkscape:connector-curvature="0" />
    <path
       style="fill:url(#linearGradient3105);fill-rule:evenodd;stroke:none;display:inline"
       d="m 3.0625,68.406253 0,36.031247 c -0.07024,5.65226 2.050104,10.0952 6.3125,11.5 l 17.65625,6.03125 7.5,1.3125 c -3.710844,-1.04488 -4.81745,-6.34073 -5.3125,-10.15625 l 0,-44.718747 -26.15625,0 z"
       id="path3081"
       inkscape:connector-curvature="0" />
    <path
       inkscape:connector-curvature="0"
       id="path30957"
       d="m 35.825012,5.084433 c -1.734374,-0.0853 -3.26759,0.13333 -4.667303,0.50133 L 11.65504,8.586303 c -5.7154953,1.04907 -8.6678538,5.60373 -8.6678538,11.168 l 0,84.678437 c -0.07024,5.65226 2.0718035,10.09707 6.3341998,11.50187 l 19.669357,6.16693 c 1.792241,0.74027 3.774988,1.0512 6.167512,0.6672 l 78.344065,-11.8352 c 5.72052,-0.6192 9.47847,-6.1072 9.16792,-13.66827 l 0.33339,-74.344027 c 0.22245,-5.96534 -2.79254,-10.84214 -9.33461,-11.83467 L 35.825018,5.085503 z"
       style="fill:none;stroke:#344b63;stroke-width:2.667032;stroke-linecap:butt;stroke-linejoin:miter;stroke-miterlimit:4;stroke-opacity:1;stroke-dasharray:none;display:inline"
       sodipodi:nodetypes="ccccccccccccc" />
    <path
       inkscape:connector-curvature="0"
       d="m 71.924299,15.99307 c 4.396545,1.46846 8.786475,3.41913 12.627318,5.78905 4.913415,2.96787 5.555476,3.76371 4.010626,9.39648 -0.562904,2.06428 -1.508526,4.07522 -2.757229,6.07763 -0.943168,1.24017 -1.421207,0.47473 -1.81742,-0.76544 -0.763464,-2.2371 -4.533097,-5.69944 -6.17268,-6.01789 -3.015824,-0.59154 -4.941472,1.35219 -5.592974,3.54289 -0.965465,3.26017 -0.775679,8.511555 -0.516871,12.345677 0.251234,2.03441 0.500868,4.072554 0.751996,6.10163 -0.201628,0.59368 -0.158955,0.93026 -0.877399,0.474731 -1.082921,-1.523407 -2.185844,-3.049482 -2.929626,-4.725443 -0.919005,-0.605949 -1.142342,-0.66409 -2.130636,0 -4.94878,5.299388 -7.458081,11.763734 -7.614049,18.527321 0.02667,4.164833 -0.273104,8.396875 1.723381,12.177123 -0.251234,0.213362 -0.500868,0.426725 -0.751996,0.641154 -3.424306,-0.400055 -5.616871,-3.465005 -5.765424,-6.318193 -0.567491,-0.549942 -1.117806,-0.298707 -1.613606,0.234698 -2.61961,2.836653 -0.38832,9.35434 -0.516871,14.111787 0,0.937728 0.141886,2.887326 -1.096629,2.15656 -1.646197,-0.978266 -2.879378,-2.981206 -4.966382,-2.925731 -2.816277,0.07468 0.0049,3.908798 0.861664,4.911601 2.075055,2.410995 5.435139,3.861326 8.585381,5.592761 -6.93417,5.242314 -14.594039,10.225394 -22.904716,14.701204 0,0 9.901347,-0.86786 9.901347,-0.86786 3.517652,-1.4978 9.416481,-5.31859 16.074027,-10.70652 0.02134,0 0.03734,0.0533 0.06241,0.0693 5.122777,-0.46939 10.121484,-0.0587 15.149741,0.0907 1.693191,0.12802 5.640768,0.11202 3.070658,-0.978263 -0.768051,-0.330712 -1.534929,-0.664091 -2.30298,-0.996402 -0.863691,-0.378719 -0.669104,-1.130288 0.43846,-1.153757 2.930158,-0.06401 4.972036,0.828912 7.15964,1.896791 1.493323,0.726501 1.815874,0.748901 1.598031,-0.607549 -0.08054,-0.501402 -0.193626,-0.991602 -0.376051,-1.471667 -0.449661,-1.247103 0.528072,-1.656226 2.224729,-1.903726 3.022545,-0.442727 6.063225,-0.901989 9.03963,-1.672227 1.146983,-0.373384 0.940128,-0.775573 -0.17229,-0.877453 -1.471187,-0.138686 -2.931119,-0.282705 -4.402359,-0.426725 -1.344076,-0.22403 -2.69786,-0.442727 -4.042043,-0.672091 -0.762877,-0.128018 -0.792001,-0.778239 0.09388,-0.906257 3.031079,-0.437393 6.162652,-0.781973 9.164927,-1.530875 4.6082,-1.2247 8.546336,-3.413264 9.540976,-6.930009 0.2923,-1.029474 -0.25444,-1.139355 -1.44126,-0.978267 -1.52346,0.208029 -3.04873,0.405389 -4.574703,0.575012 -0.771038,0.08535 -1.034381,-0.160022 0.06294,-0.36805 3.198943,-0.606483 5.592443,-2.045612 7.864643,-3.748243 4.30832,-3.223372 6.78551,-7.261255 8.30342,-11.400485 0.15629,-0.42139 0.58291,-1.653025 -0.8774,-1.306311 -2.13272,0.51207 -4.23284,0.88332 -6.42338,1.036941 -1.52437,0.106681 -1.85566,-0.304041 -0.84593,-1.474867 3.42169,-3.920533 6.20762,-7.888006 7.56701,-12.217129 1.13546,-3.762112 0.8615,-7.898674 -1.73907,-11.327941 -0.59896,-0.756369 -1.10303,-0.975066 -1.73895,-0.266703 -0.51687,0.577145 -1.03406,1.161758 -1.55104,1.742637 -0.52967,0.596348 -0.81222,0.464063 -0.84598,-0.05334 -0.0533,-0.783574 -0.10455,-1.573014 -0.15683,-2.357121 C 107.39024,26.70011 88.664818,17.61567 71.924033,16.00212 c 0,0 2.67e-4,0 2.67e-4,0 0,0 0,0 0,0"
       id="path31003"
       style="fill:#000000;fill-opacity:0.57647059;stroke:#000000;stroke-width:5.33405876;stroke-linecap:round;stroke-linejoin:round;stroke-opacity:0.57647059" />
    <path
       inkscape:connector-curvature="0"
       style="fill:#ffffff;fill-opacity:1;stroke:none"
       id="path31005"
       d="m 73.338732,15.99307 c 4.396544,1.46846 8.786475,3.41913 12.627317,5.78905 4.913416,2.96787 5.555476,3.76371 4.010626,9.39648 -0.562903,2.06428 -1.508525,4.07522 -2.757228,6.07763 -0.943169,1.24017 -1.421207,0.47473 -1.817421,-0.76544 -0.763464,-2.2371 -4.533097,-5.69944 -6.17268,-6.01789 -3.015823,-0.59154 -4.941472,1.35219 -5.592974,3.54289 -0.965465,3.26017 -0.775679,8.511555 -0.51687,12.345677 0.251234,2.03441 0.500868,4.072554 0.751995,6.10163 -0.201627,0.59368 -0.158955,0.93026 -0.877399,0.474731 -1.082921,-1.523407 -2.185844,-3.049482 -2.929625,-4.725443 -0.919005,-0.605949 -1.142342,-0.66409 -2.130637,0 -4.94878,5.299388 -7.458081,11.763734 -7.614049,18.527321 0.02667,4.164833 -0.273104,8.396875 1.723381,12.177123 -0.251234,0.213362 -0.500868,0.426725 -0.751995,0.641154 -3.424306,-0.400055 -5.616871,-3.465005 -5.765425,-6.318193 -0.56749,-0.549942 -1.117805,-0.298707 -1.613606,0.234698 -2.61961,2.836653 -0.387786,9.35434 -0.51687,14.111787 0,0.937728 0.141886,2.887326 -1.09663,2.15656 -1.646197,-0.978266 -2.879378,-2.981206 -4.966382,-2.925731 -2.816276,0.07468 0.0049,3.908798 0.861664,4.911601 2.075056,2.410995 5.435139,3.861326 8.585381,5.592761 -6.93417,5.242314 -14.594038,10.225394 -22.904716,14.701204 0,0 9.901347,-0.86786 9.901347,-0.86786 3.517652,-1.4978 9.416481,-5.31859 16.074027,-10.70652 0.02134,0 0.03734,0.0533 0.06241,0.0693 5.122777,-0.46939 10.121483,-0.0587 15.149741,0.0907 1.69319,0.12802 5.640767,0.11202 3.070657,-0.978263 -0.768051,-0.330712 -1.534928,-0.664091 -2.30298,-0.996402 -0.86369,-0.378719 -0.669104,-1.130288 0.43846,-1.153757 2.930159,-0.06401 4.972036,0.828912 7.159641,1.896791 1.493323,0.726501 1.815873,0.748901 1.598031,-0.607549 -0.08055,-0.501402 -0.193627,-0.991602 -0.376052,-1.471667 -0.449661,-1.247103 0.528072,-1.656226 2.22473,-1.903726 3.022544,-0.442727 6.063225,-0.901989 9.039629,-1.672227 1.146983,-0.373384 0.940128,-0.775573 -0.17229,-0.877453 -1.471186,-0.138686 -2.931118,-0.282705 -4.402359,-0.426725 -1.344076,-0.22403 -2.69786,-0.442727 -4.042043,-0.672091 -0.762877,-0.128018 -0.792001,-0.778239 0.09388,-0.906257 3.031079,-0.437393 6.162651,-0.781973 9.164926,-1.530875 4.608206,-1.2247 8.546336,-3.413264 9.540976,-6.930009 0.29231,-1.029474 -0.25443,-1.139355 -1.44126,-0.978267 -1.52346,0.208029 -3.04873,0.405389 -4.5747,0.575012 -0.771041,0.08535 -1.034383,-0.160022 0.0629,-0.36805 3.19894,-0.606483 5.59244,-2.045612 7.86464,-3.748243 4.30832,-3.223372 6.78551,-7.261255 8.30342,-11.400485 0.15629,-0.42139 0.58291,-1.653025 -0.8774,-1.306311 -2.13271,0.51207 -4.23284,0.88332 -6.42338,1.036941 -1.52436,0.106681 -1.85566,-0.304041 -0.84592,-1.474867 3.42169,-3.920533 6.20761,-7.888006 7.567,-12.217129 1.13546,-3.762112 0.8615,-7.898674 -1.73907,-11.327941 -0.59896,-0.756369 -1.10303,-0.975066 -1.73895,-0.266703 -0.51687,0.577145 -1.03406,1.161758 -1.55104,1.742637 -0.52967,0.596348 -0.81222,0.464063 -0.84598,-0.05334 -0.0533,-0.783574 -0.10455,-1.573014 -0.15682,-2.357121 C 108.80468,26.70013 90.079249,17.61569 73.338465,16.00214 c 0,0 2.67e-4,0 2.67e-4,0 0,0 0,0 0,0" />
  </g>
</svg>
