<?xml version="1.0" encoding="UTF-8" standalone="no"?>
<!-- Created with Inkscape (http://www.inkscape.org/) -->

<svg
   xmlns:dc="http://purl.org/dc/elements/1.1/"
   xmlns:cc="http://creativecommons.org/ns#"
   xmlns:rdf="http://www.w3.org/1999/02/22-rdf-syntax-ns#"
   xmlns:svg="http://www.w3.org/2000/svg"
   xmlns="http://www.w3.org/2000/svg"
   xmlns:xlink="http://www.w3.org/1999/xlink"
   xmlns:sodipodi="http://sodipodi.sourceforge.net/DTD/sodipodi-0.dtd"
   xmlns:inkscape="http://www.inkscape.org/namespaces/inkscape"
   width="128"
   height="128"
   id="svg6934"
   sodipodi:version="0.32"
   inkscape:version="0.48.3.1 r9886"
   version="1.0"
   sodipodi:docname="aaa-generic.svg"
   inkscape:output_extension="org.inkscape.output.svg.inkscape">
  <defs
     id="defs6936">
    <linearGradient
       id="linearGradient5344">
      <stop
         style="stop-color:#000000;stop-opacity:1;"
         offset="0"
         id="stop5346" />
      <stop
         style="stop-color:#000000;stop-opacity:0;"
         offset="1"
         id="stop5348" />
    </linearGradient>
    <linearGradient
       id="linearGradient5165-7-9-8-2">
      <stop
         id="stop5167-4-8-6-9"
         style="stop-color:#ffffff;stop-opacity:1"
         offset="0" />
      <stop
         id="stop5169-5-5-2-9"
         style="stop-color:#ffffff;stop-opacity:0"
         offset="1" />
    </linearGradient>
    <linearGradient
       inkscape:collect="always"
       xlink:href="#linearGradient5344"
       id="linearGradient3107"
       gradientUnits="userSpaceOnUse"
       gradientTransform="matrix(5.3340639,0,0,5.3340639,-1451.4802,-5864.5574)"
       x1="305.23422"
       y1="1137.0681"
       x2="283.35095"
       y2="1104.2024" />
    <linearGradient
       inkscape:collect="always"
       xlink:href="#linearGradient5165-7-9-8-2"
       id="linearGradient3092"
       gradientUnits="userSpaceOnUse"
       gradientTransform="translate(-40,140)"
       x1="22.933788"
       y1="-144.76825"
       x2="18.618809"
       y2="-96.331688" />
    <linearGradient
       inkscape:collect="always"
       xlink:href="#linearGradient5344"
       id="linearGradient3094"
       gradientUnits="userSpaceOnUse"
       gradientTransform="translate(-40,140)"
       x1="7.9531264"
       y1="2.2416961"
       x2="13.667412"
       y2="-64.464973" />
    <linearGradient
       id="linearGradient5316-39">
      <stop
         style="stop-color:#ff6e00;stop-opacity:1;"
         offset="0"
         id="stop5320-84" />
      <stop
         style="stop-color:#eb2600;stop-opacity:1;"
         offset="1"
         id="stop5322-5" />
    </linearGradient>
    <linearGradient
       gradientTransform="translate(0,-4.295418e-6)"
       y2="107.41399"
       x2="117.48683"
       y1="25.086559"
       x1="6.5963445"
       gradientUnits="userSpaceOnUse"
       id="linearGradient3047"
       xlink:href="#linearGradient5316-39"
       inkscape:collect="always" />
  </defs>
  <sodipodi:namedview
     id="base"
     pagecolor="#ffffff"
     bordercolor="#666666"
     borderopacity="1.0"
     inkscape:pageopacity="0.0"
     inkscape:pageshadow="2"
     inkscape:zoom="1.4"
     inkscape:cx="12.376273"
     inkscape:cy="80.17198"
     inkscape:document-units="px"
     inkscape:current-layer="layer1"
     showgrid="false"
     inkscape:window-width="1366"
     inkscape:window-height="720"
     inkscape:window-x="0"
     inkscape:window-y="0"
     inkscape:window-maximized="1" />
  <metadata
     id="metadata6939">
    <rdf:RDF>
      <cc:Work
         rdf:about="">
        <dc:format>image/svg+xml</dc:format>
        <dc:type
           rdf:resource="http://purl.org/dc/dcmitype/StillImage" />
        <dc:title></dc:title>
      </cc:Work>
    </rdf:RDF>
  </metadata>
  <g
     inkscape:label="Capa 1"
     inkscape:groupmode="layer"
     id="layer1">
    <path
       style="fill:url(#linearGradient3047);fill-opacity:1;fill-rule:evenodd;stroke:none"
       d="m 34.21875,5.0624987 c -1.32927,0.0554 -2.550557,0.27966 -3.65625,0.625 l -18.34375,2.71875 -0.5,0 0,0.1875 C 6.0032494,9.6428187 3.0625,14.185729 3.0625,19.749999 l 0,84.687501 c -0.07024,5.65226 2.0501037,10.0952 6.3125,11.5 l 18.96875,5.9375 c 0.02087,0.0102 0.04153,0.0212 0.0625,0.0313 1.892721,0.90932 4.164425,1.2325 6.78125,0.8125 l 78.28125,-11.8125 c 5.72052,-0.61974 9.4668,-6.06393 9.15625,-13.625004 l 0.40625,-74.281297 c 0.22248,-5.96534 -2.80168,-10.97622 -9.34375,-11.96875 L 35.84375,5.0937487 c -0.55631,-0.0273 -1.103066,-0.053 -1.625,-0.0313 z"
       id="path30949"
       inkscape:connector-curvature="0" />
    <path
       style="fill:url(#linearGradient3107);fill-rule:evenodd;stroke:none"
       d="M 29.25,16.718753 29.2187,113.125 c 0.4487,3.45828 1.40755,8.12456 4.34375,9.75 0.52713,-0.0229 1.0675,-0.0668 1.625,-0.15625 l 78.28125,-11.8125 c 5.72052,-0.61974 9.4668,-6.06393 9.15625,-13.625 l 0.40625,-74.281247 c 0.22245,-5.96534 -2.80168,-10.97622 -9.34375,-11.96875 L 37.6784,5.233693 c -3.97126,-0.42067 -8.41551,4.78057 -8.42845,11.48506 z M 30.15625,122.5 c 0.64796,0.17153 1.31467,0.32617 2.03125,0.375 z"
       id="path30953"
       inkscape:connector-curvature="0"
       sodipodi:nodetypes="ccccccccccccc" />
    <g
       id="g3087"
       transform="translate(40,0)">
      <path
         inkscape:connector-curvature="0"
         id="path3073"
         d="m -5.21875,5.312503 -22.5625,3.09375 -0.5,0 0,0.1875 c -5.715501,1.04907 -8.65625,5.59198 -8.65625,11.15625 l 0,25 26.1875,0 0,-28.03125 c 0.347051,-4.91678 2.274064,-9.96378 5.53125,-11.40625 z"
         style="fill:url(#linearGradient3092);fill-rule:evenodd;stroke:none;display:inline" />
      <path
         inkscape:connector-curvature="0"
         id="path3081"
         d="m -36.9375,68.406253 0,36.031247 c -0.07024,5.65226 2.050104,10.0952 6.3125,11.5 l 17.65625,6.03125 7.5,1.3125 c -3.710844,-1.04488 -4.81745,-6.34073 -5.3125,-10.15625 l 0,-44.718747 -26.15625,0 z"
         style="fill:url(#linearGradient3094);fill-rule:evenodd;stroke:none;display:inline" />
    </g>
    <path
       inkscape:connector-curvature="0"
       id="path30957"
       d="m 35.825012,5.0844328 c -1.734374,-0.0853 -3.26759,0.13333 -4.667303,0.50133 L 11.65504,8.5863028 C 5.9395447,9.6353728 2.9871862,14.190033 2.9871862,19.754303 l 0,84.678437 c -0.07024,5.65226 2.0718035,10.09707 6.3341998,11.50187 l 19.669357,6.16693 c 1.792241,0.74027 3.774988,1.0512 6.167512,0.6672 l 78.344065,-11.8352 c 5.72052,-0.6192 9.47847,-6.1072 9.16792,-13.66827 l 0.33339,-74.344027 c 0.22245,-5.96534 -2.79254,-10.84214 -9.33461,-11.83467 L 35.825018,5.0855028 z"
       style="fill:none;stroke:#344b63;stroke-width:2.667032;stroke-linecap:butt;stroke-linejoin:miter;stroke-miterlimit:4;stroke-opacity:1;stroke-dasharray:none;display:inline"
       sodipodi:nodetypes="ccccccccccccc" />
    <path
       id="path3120"
       d="m 108.82196,19.337031 c -4.87715,0.0032 -8.3709,4.98422 -8.3709,10.709837 0,0.664672 0.0311,1.324762 0.1231,1.969625 l -9.694251,7.07834 c -1.610583,-2.676004 -4.113841,-4.513801 -7.109115,-4.708635 -0.179786,-0.01169 -0.346521,-0.03089 -0.523182,-0.03078 -4.047418,0.0027 -7.246269,3.042625 -8.647885,7.232217 l -7.539971,-3.015988 c -0.08742,-6.867376 -4.306044,-12.91045 -10.21743,-13.294969 -0.203173,-0.01322 -0.415865,-0.0309 -0.615508,-0.03078 -6.189026,0.004 -10.648285,6.337019 -10.648285,13.602724 0,1.899421 0.328854,3.739708 0.892486,5.447244 L 31.668056,58.360228 31.421853,70.547283 50.07174,50.112423 c 1.853572,1.7017 4.175363,2.636515 6.770586,2.308154 4.147975,-0.524826 7.505574,-3.644451 9.140291,-7.8785 l 7.878501,2.769785 c 0.372553,6.26587 4.459527,11.768723 9.909676,11.079141 5.199073,-0.657816 9.07874,-5.908189 9.07874,-12.063953 0,-0.63106 -0.07714,-1.234855 -0.153877,-1.846524 l 9.786573,-7.293768 c 1.59429,2.414888 4.01725,3.926101 6.83214,3.569946 4.63002,-0.585816 8.06315,-5.258624 8.06315,-10.740612 0,-5.481989 -3.35578,-10.342084 -8.06315,-10.648285 -0.1601,-0.01041 -0.33507,-0.03088 -0.49241,-0.03078 z m -38.469237,44.74742 c -5.61612,0.0036 -9.632697,5.747807 -9.632697,12.340932 0,0.883445 0.07541,1.76496 0.215427,2.615908 l -10.032777,8.093928 c -1.886356,-2.352738 -4.441426,-3.930358 -7.41687,-4.123903 -0.214825,-0.01389 -0.435182,-1.37e-4 -0.646283,0 -6.544099,0.0042 -11.233018,6.689569 -11.233018,14.372108 0,7.930366 5.046814,15.205816 11.879301,14.341336 6.212477,-0.78605 10.802163,-7.07802 10.802163,-14.433662 0,-1.018542 -0.0811,-2.012845 -0.246203,-2.985213 l 9.694248,-8.740211 c 1.809397,2.237986 4.298469,3.564045 7.170666,3.200641 3.724755,-0.471277 6.749793,-3.262298 8.247805,-7.047565 l 15.880102,6.524383 c -7.61e-4,0.06149 0,0.122995 0,0.184652 0,6.28432 4.002958,12.071945 9.417273,11.386895 4.92301,-0.622884 8.55556,-5.619557 8.55556,-11.448445 0,-0.634966 -0.0414,-1.263517 -0.12311,-1.877299 l 6.09353,-4.000801 0.15388,-4.985614 -7.5092,4.831737 c -1.4803,-2.977677 -4.03359,-5.08931 -7.17066,-5.293368 -0.17024,-0.01103 -0.35589,-1.09e-4 -0.52318,0 -3.61492,0.0024 -6.511829,2.562869 -7.940056,6.185854 L 80.170073,76.57926 c 0.0011,-0.07238 0,-0.1428 0,-0.215428 0,-6.31258 -3.842783,-11.896012 -9.263393,-12.248606 -0.184362,-0.01197 -0.37279,-0.03089 -0.553957,-0.03078 z"
       style="fill:#000000;fill-opacity:0.20731707;stroke:#000000;stroke-width:4.92400000000000038;stroke-miterlimit:4;stroke-opacity:0.39024388999999998;stroke-dasharray:none;stroke-linejoin:round;stroke-linecap:round"
       inkscape:connector-curvature="0" />
    <path
       style="fill:#ffffff;fill-opacity:1;stroke:none"
       d="m 110.79159,19.337031 c -4.87716,0.0032 -8.37091,4.98422 -8.37091,10.709837 0,0.664672 0.0311,1.324762 0.1231,1.969625 l -9.694246,7.07834 c -1.610583,-2.676004 -4.113841,-4.513801 -7.109115,-4.708635 -0.179786,-0.01169 -0.346521,-0.03089 -0.523182,-0.03078 -4.047418,0.0026 -7.246269,3.042625 -8.647885,7.232217 l -7.539971,-3.015988 c -0.08742,-6.867376 -4.306044,-12.91045 -10.21743,-13.294969 -0.203173,-0.01322 -0.415865,-0.0309 -0.615508,-0.03078 -6.189026,0.004 -10.648285,6.337019 -10.648285,13.602724 0,1.899421 0.328854,3.739708 0.892486,5.447244 L 33.637681,58.360228 33.391478,70.547283 52.041365,50.112423 c 1.853572,1.7017 4.175363,2.636515 6.770586,2.308154 4.147975,-0.524826 7.505574,-3.644451 9.140292,-7.8785 l 7.8785,2.769785 c 0.372553,6.26587 4.459527,11.768723 9.909676,11.079141 5.199073,-0.657816 9.07874,-5.908189 9.07874,-12.063953 0,-0.63106 -0.07714,-1.234855 -0.153877,-1.846524 l 9.786578,-7.293768 c 1.59428,2.414888 4.01724,3.926101 6.83213,3.569946 4.63002,-0.585816 8.06316,-5.258624 8.06316,-10.740612 0,-5.481989 -3.35578,-10.342084 -8.06316,-10.648285 -0.1601,-0.01041 -0.33507,-0.03088 -0.4924,-0.03078 z m -38.469242,44.74742 c -5.61612,0.0037 -9.632697,5.747807 -9.632697,12.340932 0,0.883445 0.07541,1.76496 0.215427,2.615908 l -10.032777,8.093928 c -1.886356,-2.352738 -4.441426,-3.930358 -7.41687,-4.123903 -0.214825,-0.01389 -0.435181,-1.37e-4 -0.646283,0 -6.544099,0.0043 -11.233018,6.689569 -11.233018,14.372108 0,7.930366 5.046814,15.205816 11.879301,14.341336 6.212477,-0.78605 10.802163,-7.07802 10.802163,-14.433662 0,-1.018542 -0.0811,-2.012845 -0.246203,-2.985213 l 9.694248,-8.740211 c 1.809397,2.237986 4.298469,3.564045 7.170666,3.200641 3.724755,-0.471277 6.749793,-3.262298 8.247805,-7.047565 l 15.880102,6.524383 c -7.61e-4,0.06149 0,0.122995 0,0.184652 0,6.28432 4.002958,12.071945 9.417268,11.386895 4.92301,-0.622884 8.55556,-5.619557 8.55556,-11.448445 0,-0.634966 -0.0414,-1.263517 -0.1231,-1.877299 l 6.09353,-4.000801 0.15387,-4.985614 -7.50919,4.831737 c -1.4803,-2.977677 -4.0336,-5.08931 -7.17067,-5.293368 -0.17023,-0.01103 -0.35589,-1.09e-4 -0.52318,0 -3.61491,0.0024 -6.511824,2.562869 -7.940051,6.185854 L 82.139698,76.57926 c 0.001,-0.07238 0,-0.1428 0,-0.215428 0,-6.31258 -3.842783,-11.896012 -9.263393,-12.248606 -0.184362,-0.01197 -0.37279,-0.03089 -0.553957,-0.03078 z"
       id="path3101"
       inkscape:connector-curvature="0" />
  </g>
</svg>
