<?xml version="1.0" encoding="UTF-8" standalone="no"?>
<!-- Created with Inkscape (http://www.inkscape.org/) -->

<svg
   xmlns:dc="http://purl.org/dc/elements/1.1/"
   xmlns:cc="http://creativecommons.org/ns#"
   xmlns:rdf="http://www.w3.org/1999/02/22-rdf-syntax-ns#"
   xmlns:svg="http://www.w3.org/2000/svg"
   xmlns="http://www.w3.org/2000/svg"
   xmlns:xlink="http://www.w3.org/1999/xlink"
   xmlns:sodipodi="http://sodipodi.sourceforge.net/DTD/sodipodi-0.dtd"
   xmlns:inkscape="http://www.inkscape.org/namespaces/inkscape"
   width="128"
   height="128"
   id="svg19069"
   version="1.1"
   inkscape:version="0.48.3.1 r9886"
   sodipodi:docname="mdmflexiserver.svg">
  <defs
     id="defs19071">
    <linearGradient
       inkscape:collect="always"
       xlink:href="#linearGradient9863-5"
       id="linearGradient19010"
       x1="519.49597"
       y1="978.7666"
       x2="518.81677"
       y2="973.10974"
       gradientUnits="userSpaceOnUse"
       gradientTransform="matrix(2.3633385,0,0,2.3633385,-1136.7592,-1284.8416)" />
    <linearGradient
       id="linearGradient9863-5">
      <stop
         style="stop-color:#2f445a;stop-opacity:1;"
         offset="0"
         id="stop9865-3" />
      <stop
         style="stop-color:#415f7c;stop-opacity:1"
         offset="1"
         id="stop9867-5" />
    </linearGradient>
    <linearGradient
       inkscape:collect="always"
       xlink:href="#linearGradient5344-7"
       id="linearGradient18988"
       gradientUnits="userSpaceOnUse"
       gradientTransform="matrix(2.6666667,0,0,2.6666667,-1613.8936,-1260.8074)"
       x1="722.87909"
       y1="935.69928"
       x2="630.75"
       y2="840.94702" />
    <linearGradient
       id="linearGradient5344-7">
      <stop
         style="stop-color:#000000;stop-opacity:1;"
         offset="0"
         id="stop5346-23" />
      <stop
         style="stop-color:#000000;stop-opacity:0;"
         offset="1"
         id="stop5348-2" />
    </linearGradient>
    <linearGradient
       inkscape:collect="always"
       xlink:href="#linearGradient9863-5"
       id="linearGradient18990"
       gradientUnits="userSpaceOnUse"
       gradientTransform="matrix(2.6666667,0,0,2.6666667,-1453.8936,467.1926)"
       x1="569.73407"
       y1="217.89694"
       x2="569.73407"
       y2="171.59375" />
    <linearGradient
       inkscape:collect="always"
       xlink:href="#linearGradient5362-82"
       id="linearGradient18993"
       gradientUnits="userSpaceOnUse"
       gradientTransform="matrix(2.6666667,0,0,2.6666667,-1293.8936,-1580.8074)"
       x1="489.84824"
       y1="937.34814"
       x2="496.19485"
       y2="976.84546" />
    <linearGradient
       id="linearGradient5362-82">
      <stop
         style="stop-color:#ffffff;stop-opacity:1;"
         offset="0"
         id="stop5364-1" />
      <stop
         style="stop-color:#ffffff;stop-opacity:0;"
         offset="1"
         id="stop5366-5" />
    </linearGradient>
    <linearGradient
       inkscape:collect="always"
       xlink:href="#linearGradient75909"
       id="linearGradient18996"
       gradientUnits="userSpaceOnUse"
       gradientTransform="matrix(2.6666667,0,0,2.6666667,-1293.8936,-1580.8074)"
       x1="496.84607"
       y1="947.62549"
       x2="520.83765"
       y2="980.38678" />
    <linearGradient
       id="linearGradient75909">
      <stop
         id="stop75911"
         offset="0"
         style="stop-color:#ff6e00;stop-opacity:1;" />
      <stop
         id="stop75913"
         offset="1"
         style="stop-color:#eb2600;stop-opacity:1;" />
    </linearGradient>
    <linearGradient
       inkscape:collect="always"
       xlink:href="#linearGradient75909"
       id="linearGradient18999"
       gradientUnits="userSpaceOnUse"
       gradientTransform="matrix(2.6666667,0,0,2.6666667,-1293.8936,-1580.8074)"
       x1="494.25031"
       y1="944.67139"
       x2="493.5791"
       y2="981.54218" />
    <linearGradient
       id="linearGradient12578">
      <stop
         style="stop-color:#e9b551;stop-opacity:1;"
         offset="0"
         id="stop12580" />
      <stop
         style="stop-color:#b48739;stop-opacity:1;"
         offset="1"
         id="stop12582" />
    </linearGradient>
    <linearGradient
       y2="979.33771"
       x2="519.22742"
       y1="949.08014"
       x1="496.11346"
       gradientTransform="matrix(2.7250645,0,0,2.7249519,-1191.1075,-1653.804)"
       gradientUnits="userSpaceOnUse"
       id="linearGradient3130"
       xlink:href="#linearGradient12578"
       inkscape:collect="always" />
    <linearGradient
       inkscape:collect="always"
       xlink:href="#linearGradient12578"
       id="linearGradient3812"
       x1="130.08289"
       y1="922.00708"
       x2="160.10631"
       y2="947.56342"
       gradientUnits="userSpaceOnUse" />
  </defs>
  <sodipodi:namedview
     id="base"
     pagecolor="#ffffff"
     bordercolor="#666666"
     borderopacity="1.0"
     inkscape:pageopacity="0.0"
     inkscape:pageshadow="2"
     inkscape:zoom="2.8"
     inkscape:cx="155.13037"
     inkscape:cy="62.465984"
     inkscape:document-units="px"
     inkscape:current-layer="layer1"
     showgrid="false"
     inkscape:window-width="1366"
     inkscape:window-height="717"
     inkscape:window-x="0"
     inkscape:window-y="0"
     inkscape:window-maximized="1" />
  <metadata
     id="metadata19074">
    <rdf:RDF>
      <cc:Work
         rdf:about="">
        <dc:format>image/svg+xml</dc:format>
        <dc:type
           rdf:resource="http://purl.org/dc/dcmitype/StillImage" />
        <dc:title />
      </cc:Work>
    </rdf:RDF>
  </metadata>
  <g
     inkscape:label="Capa 1"
     inkscape:groupmode="layer"
     id="layer1"
     transform="translate(0,-924.36218)">
    <path
       inkscape:connector-curvature="0"
       sodipodi:nodetypes="ccccccc"
       id="path5575"
       d="m 31.695843,1050.5374 -15.17744,-4.4429 0,-117.47494 15.177466,-2.5096 23.644027,3.9352 0.02133,114.61334 -23.666666,5.8789 z"
       style="fill:url(#linearGradient18999);fill-rule:evenodd;stroke:none;display:inline"
       inkscape:export-filename="/home/dafeba/DCV/tallerD/bocetos/08-09-22-hastaahora.png"
       inkscape:export-xdpi="57.964222"
       inkscape:export-ydpi="57.964222" />
    <path
       inkscape:connector-curvature="0"
       sodipodi:nodetypes="ccccc"
       id="path5577"
       d="m 31.695843,1050.5188 0,-124.18564 87.956827,7.3928 0.0341,102.08614 -87.990851,14.7067 z"
       style="fill:url(#linearGradient18996);fill-rule:evenodd;stroke:none;display:inline"
       inkscape:export-filename="/home/dafeba/DCV/tallerD/bocetos/08-09-22-hastaahora.png"
       inkscape:export-xdpi="57.964222"
       inkscape:export-ydpi="57.964222" />
    <path
       inkscape:connector-curvature="0"
       style="fill:url(#linearGradient18993);fill-rule:evenodd;stroke:none;display:inline"
       d="m 31.695843,1036.4172 -15.17744,-0.2 0,-107.59737 15.177466,-2.5096 0,110.30717 z"
       id="path5579"
       sodipodi:nodetypes="ccccc"
       inkscape:export-filename="/home/dafeba/DCV/tallerD/bocetos/08-09-22-hastaahora.png"
       inkscape:export-xdpi="57.964222"
       inkscape:export-ydpi="57.964222" />
    <path
       inkscape:connector-curvature="0"
       id="path5581"
       d="m 31.689656,926.10916 -15.166666,2.5 0,117.50004 15.166666,4.4168 88.000004,-14.7502 0,-102.08317 -88.000004,-7.58347 z"
       style="fill:url(#linearGradient18988);fill-rule:evenodd;stroke:url(#linearGradient18990);stroke-width:2.66666675;stroke-linecap:butt;stroke-linejoin:miter;stroke-miterlimit:4;stroke-opacity:1;stroke-dasharray:none;display:inline"
       inkscape:export-filename="/home/dafeba/DCV/tallerD/bocetos/08-09-22-hastaahora.png"
       inkscape:export-xdpi="57.964222"
       inkscape:export-ydpi="57.964222"
       sodipodi:nodetypes="ccccccc" />
    <path
       style="font-size:medium;font-style:normal;font-variant:normal;font-weight:normal;font-stretch:normal;text-indent:0;text-align:start;text-decoration:none;line-height:normal;letter-spacing:normal;word-spacing:normal;text-transform:none;direction:ltr;block-progression:tb;writing-mode:lr-tb;text-anchor:start;baseline-shift:baseline;color:#000000;fill:#ececec;fill-opacity:1;stroke:#000000;stroke-width:2.39999986;stroke-miterlimit:4;stroke-dasharray:none;marker:none;visibility:visible;display:inline;overflow:visible;enable-background:accumulate;font-family:Sans;-inkscape-font-specification:Sans"
       d="m 106.05544,977.15156 -61.991624,0.86427 c -5.866933,-0.24267 -10.034,5.09147 -9.80392,10.95867 0.230133,5.86746 4.807333,10.99253 10.637253,10.2912 l 61.876401,-3.80214 c 5.05579,0.208 9.76387,-4.48906 9.5656,-9.54533 -0.1984,-5.05627 -5.25981,-9.3712 -10.28371,-8.76667 z"
       id="path18423"
       inkscape:connector-curvature="0"
       sodipodi:nodetypes="ccsccsc" />
    <path
       sodipodi:type="arc"
       style="fill:#000000;fill-opacity:1;stroke:none"
       id="path18967"
       sodipodi:cx="485.96875"
       sodipodi:cy="963.64667"
       sodipodi:rx="1.21875"
       sodipodi:ry="1.9719789"
       d="m 487.1875,963.64667 c 0,1.08909 -0.54565,1.97198 -1.21875,1.97198 -0.6731,0 -1.21875,-0.88289 -1.21875,-1.97198 0,-1.0891 0.54565,-1.97198 1.21875,-1.97198 0.6731,0 1.21875,0.88288 1.21875,1.97198 z"
       transform="matrix(4.5409205,0,0,3.8499112,-2156.8976,-2721.7138)" />
    <path
       transform="matrix(4.4169472,0,0,3.7448035,-2081.942,-2621.052)"
       d="m 487.1875,963.64667 c 0,1.08909 -0.54565,1.97198 -1.21875,1.97198 -0.6731,0 -1.21875,-0.88289 -1.21875,-1.97198 0,-1.0891 0.54565,-1.97198 1.21875,-1.97198 0.6731,0 1.21875,0.88288 1.21875,1.97198 z"
       sodipodi:ry="1.9719789"
       sodipodi:rx="1.21875"
       sodipodi:cy="963.64667"
       sodipodi:cx="485.96875"
       id="path18969"
       style="fill:#000000;fill-opacity:1;stroke:none"
       sodipodi:type="arc" />
    <path
       sodipodi:type="arc"
       style="fill:#000000;fill-opacity:1;stroke:none"
       id="path18971"
       sodipodi:cx="485.96875"
       sodipodi:cy="963.64667"
       sodipodi:rx="1.21875"
       sodipodi:ry="1.9719789"
       d="m 487.1875,963.64667 c 0,1.08909 -0.54565,1.97198 -1.21875,1.97198 -0.6731,0 -1.21875,-0.88289 -1.21875,-1.97198 0,-1.0891 0.54565,-1.97198 1.21875,-1.97198 0.6731,0 1.21875,0.88288 1.21875,1.97198 z"
       transform="matrix(4.130664,0,0,3.5020851,-1928.9841,-2387.824)" />
    <path
       transform="matrix(4.0258288,0,0,3.4132029,-1865.0738,-2302.6152)"
       d="m 487.1875,963.64667 c 0,1.08909 -0.54565,1.97198 -1.21875,1.97198 -0.6731,0 -1.21875,-0.88289 -1.21875,-1.97198 0,-1.0891 0.54565,-1.97198 1.21875,-1.97198 0.6731,0 1.21875,0.88288 1.21875,1.97198 z"
       sodipodi:ry="1.9719789"
       sodipodi:rx="1.21875"
       sodipodi:cy="963.64667"
       sodipodi:cx="485.96875"
       id="path18973"
       style="fill:#000000;fill-opacity:1;stroke:none"
       sodipodi:type="arc" />
    <path
       style="font-size:medium;font-style:normal;font-variant:normal;font-weight:normal;font-stretch:normal;text-indent:0;text-align:start;text-decoration:none;line-height:normal;letter-spacing:normal;word-spacing:normal;text-transform:none;direction:ltr;block-progression:tb;writing-mode:lr-tb;text-anchor:start;baseline-shift:baseline;color:#000000;fill:url(#linearGradient19010);fill-opacity:1;stroke:#ffffff;stroke-width:1.89067078;stroke-miterlimit:4;stroke-dasharray:none;marker:none;visibility:visible;display:inline;overflow:visible;enable-background:accumulate;font-family:Sans;-inkscape-font-specification:Sans"
       d="m 105.24899,1010.7377 -31.535787,2.9891 c -4.65976,0.6573 -9.113734,4.5349 -9.047147,10.3026 0.0544,4.7056 5.4952,8.3014 10.15496,7.6438 l 30.582424,-4.1358 c 9.74486,-1.5741 8.83856,-18.0032 -0.1544,-16.7997 z"
       id="path18975"
       inkscape:connector-curvature="0"
       sodipodi:nodetypes="ccsccc" />
    <path
       sodipodi:type="star"
       style="fill:#000000;fill-opacity:0.43983403;stroke:none;display:inline"
       id="path13522"
       sodipodi:sides="7"
       sodipodi:cx="142.99593"
       sodipodi:cy="932.80035"
       sodipodi:r1="25.473122"
       sodipodi:r2="18.17729"
       sodipodi:arg1="0.69233443"
       sodipodi:arg2="1.1411334"
       inkscape:flatsided="false"
       inkscape:rounded="0.010368286"
       inkscape:randomized="0"
       d="m 162.60406,949.06076 c -0.0797,0.0961 -11.92264,0.21268 -12.03612,0.26468 -0.11348,0.052 -7.93464,8.94576 -8.05944,8.94337 -0.1248,-0.002 -7.59993,-9.18889 -7.71134,-9.2452 -0.1114,-0.0563 -11.94124,-0.62595 -12.01718,-0.72502 -0.0759,-0.0991 2.44569,-11.67104 2.42025,-11.79325 -0.0255,-0.1222 -6.95585,-9.72631 -6.92575,-9.84745 0.0301,-0.12115 10.64965,-5.36467 10.72933,-5.46075 0.0797,-0.0961 3.26744,-11.50256 3.38092,-11.55456 0.11348,-0.052 10.83421,4.98142 10.95902,4.98381 0.1248,0.002 11.03027,-4.61714 11.14168,-4.56084 0.11141,0.0563 2.86039,11.5764 2.93633,11.67546 0.076,0.0991 10.4871,5.74508 10.51254,5.86728 0.0254,0.12221 -7.26737,9.45411 -7.29747,9.57525 -0.0301,0.12114 2.04691,11.78114 1.96723,11.87722 z"
       transform="matrix(1.0766937,0,0,1.0760557,-58.731123,-50.341372)" />
    <path
       transform="matrix(1.0766937,0,0,1.0760557,-54.381551,-52.514911)"
       d="m 162.60406,949.06076 c -0.0797,0.0961 -11.92264,0.21268 -12.03612,0.26468 -0.11348,0.052 -7.93464,8.94576 -8.05944,8.94337 -0.1248,-0.002 -7.59993,-9.18889 -7.71134,-9.2452 -0.1114,-0.0563 -11.94124,-0.62595 -12.01718,-0.72502 -0.0759,-0.0991 2.44569,-11.67104 2.42025,-11.79325 -0.0255,-0.1222 -6.95585,-9.72631 -6.92575,-9.84745 0.0301,-0.12115 10.64965,-5.36467 10.72933,-5.46075 0.0797,-0.0961 3.26744,-11.50256 3.38092,-11.55456 0.11348,-0.052 10.83421,4.98142 10.95902,4.98381 0.1248,0.002 11.03027,-4.61714 11.14168,-4.56084 0.11141,0.0563 2.86039,11.5764 2.93633,11.67546 0.076,0.0991 10.4871,5.74508 10.51254,5.86728 0.0254,0.12221 -7.26737,9.45411 -7.29747,9.57525 -0.0301,0.12114 2.04691,11.78114 1.96723,11.87722 z"
       inkscape:randomized="0"
       inkscape:rounded="0.010368286"
       inkscape:flatsided="false"
       sodipodi:arg2="1.1411334"
       sodipodi:arg1="0.69233443"
       sodipodi:r2="18.17729"
       sodipodi:r1="25.473122"
       sodipodi:cy="932.80035"
       sodipodi:cx="142.99593"
       sodipodi:sides="7"
       id="path12049"
       style="fill:url(#linearGradient3812);fill-opacity:1;stroke:#000000;stroke-width:0.92904454000000003;stroke-linecap:round;stroke-linejoin:round;stroke-miterlimit:4;stroke-opacity:1;stroke-dasharray:none;stroke-dashoffset:0;display:inline"
       sodipodi:type="star" />
  </g>
</svg>
