<?xml version="1.0" encoding="UTF-8" standalone="no"?>
<!-- Created with Inkscape (http://www.inkscape.org/) -->

<svg
   xmlns:dc="http://purl.org/dc/elements/1.1/"
   xmlns:cc="http://creativecommons.org/ns#"
   xmlns:rdf="http://www.w3.org/1999/02/22-rdf-syntax-ns#"
   xmlns:svg="http://www.w3.org/2000/svg"
   xmlns="http://www.w3.org/2000/svg"
   xmlns:xlink="http://www.w3.org/1999/xlink"
   xmlns:sodipodi="http://sodipodi.sourceforge.net/DTD/sodipodi-0.dtd"
   xmlns:inkscape="http://www.inkscape.org/namespaces/inkscape"
   width="128"
   height="128"
   id="svg6934"
   sodipodi:version="0.32"
   inkscape:version="0.48.3.1 r9886"
   version="1.0"
   sodipodi:docname="msn.svg"
   inkscape:output_extension="org.inkscape.output.svg.inkscape">
  <defs
     id="defs6936">
    <inkscape:perspective
       sodipodi:type="inkscape:persp3d"
       inkscape:vp_x="0 : 526.18109 : 1"
       inkscape:vp_y="0 : 1000 : 0"
       inkscape:vp_z="744.09448 : 526.18109 : 1"
       inkscape:persp3d-origin="372.04724 : 350.78739 : 1"
       id="perspective6942" />
    <inkscape:perspective
       id="perspective6952"
       inkscape:persp3d-origin="0.5 : 0.33333333 : 1"
       inkscape:vp_z="1 : 0.5 : 1"
       inkscape:vp_y="0 : 1000 : 0"
       inkscape:vp_x="0 : 0.5 : 1"
       sodipodi:type="inkscape:persp3d" />
    <linearGradient
       inkscape:collect="always"
       xlink:href="#linearGradient5316"
       id="linearGradient6899"
       gradientUnits="userSpaceOnUse"
       gradientTransform="matrix(1.0001366,0,0,1.0001366,-195.82932,269.25819)"
       x1="275.29071"
       y1="1103.7349"
       x2="275.29071"
       y2="1121.6162" />
    <linearGradient
       id="linearGradient5316">
      <stop
         style="stop-color:#ff6e00;stop-opacity:1;"
         offset="0"
         id="stop5320" />
      <stop
         style="stop-color:#eb2600;stop-opacity:1;"
         offset="1"
         id="stop5322" />
    </linearGradient>
    <linearGradient
       inkscape:collect="always"
       xlink:href="#linearGradient5165-7-9-8-2"
       id="linearGradient6896"
       gradientUnits="userSpaceOnUse"
       gradientTransform="matrix(1.0001366,0,0,1.0001366,-195.82932,269.25819)"
       x1="275.29071"
       y1="1094.0099"
       x2="275.29071"
       y2="1117.1519" />
    <linearGradient
       id="linearGradient5165-7-9-8-2">
      <stop
         id="stop5167-4-8-6-9"
         style="stop-color:#ffffff;stop-opacity:1"
         offset="0" />
      <stop
         id="stop5169-5-5-2-9"
         style="stop-color:#ffffff;stop-opacity:0"
         offset="1" />
    </linearGradient>
    <linearGradient
       inkscape:collect="always"
       xlink:href="#linearGradient5316"
       id="linearGradient6893"
       gradientUnits="userSpaceOnUse"
       gradientTransform="matrix(1.0001366,0,0,1.0001366,-195.82932,269.25819)"
       x1="280.65372"
       y1="1100.6647"
       x2="292.69617"
       y2="1118.8726" />
    <linearGradient
       id="linearGradient6965">
      <stop
         style="stop-color:#ff6e00;stop-opacity:1;"
         offset="0"
         id="stop6967" />
      <stop
         style="stop-color:#eb2600;stop-opacity:1;"
         offset="1"
         id="stop6969" />
    </linearGradient>
    <linearGradient
       inkscape:collect="always"
       xlink:href="#linearGradient5344"
       id="linearGradient6889"
       gradientUnits="userSpaceOnUse"
       gradientTransform="matrix(1.0001366,0,0,1.0001366,-195.82932,269.25819)"
       x1="322.44461"
       y1="1153.7257"
       x2="283.81964"
       y2="1103.8007" />
    <linearGradient
       id="linearGradient5344">
      <stop
         style="stop-color:#000000;stop-opacity:1;"
         offset="0"
         id="stop5346" />
      <stop
         style="stop-color:#000000;stop-opacity:0;"
         offset="1"
         id="stop5348" />
    </linearGradient>
    <inkscape:perspective
       id="perspective7046"
       inkscape:persp3d-origin="0.5 : 0.33333333 : 1"
       inkscape:vp_z="1 : 0.5 : 1"
       inkscape:vp_y="0 : 1000 : 0"
       inkscape:vp_x="0 : 0.5 : 1"
       sodipodi:type="inkscape:persp3d" />
    <linearGradient
       id="linearGradient5316-7">
      <stop
         style="stop-color:#ff6e00;stop-opacity:1;"
         offset="0"
         id="stop5320-8" />
      <stop
         style="stop-color:#eb2600;stop-opacity:1;"
         offset="1"
         id="stop5322-4" />
    </linearGradient>
    <linearGradient
       id="linearGradient5165-7-9-8-2-6">
      <stop
         id="stop5167-4-8-6-9-3"
         style="stop-color:#ffffff;stop-opacity:1"
         offset="0" />
      <stop
         id="stop5169-5-5-2-9-0"
         style="stop-color:#ffffff;stop-opacity:0"
         offset="1" />
    </linearGradient>
    <linearGradient
       id="linearGradient7059">
      <stop
         style="stop-color:#ff6e00;stop-opacity:1;"
         offset="0"
         id="stop7061" />
      <stop
         style="stop-color:#eb2600;stop-opacity:1;"
         offset="1"
         id="stop7063" />
    </linearGradient>
    <linearGradient
       id="linearGradient5344-7">
      <stop
         style="stop-color:#000000;stop-opacity:1;"
         offset="0"
         id="stop5346-7" />
      <stop
         style="stop-color:#000000;stop-opacity:0;"
         offset="1"
         id="stop5348-0" />
    </linearGradient>
    <inkscape:perspective
       id="perspective7210"
       inkscape:persp3d-origin="0.5 : 0.33333333 : 1"
       inkscape:vp_z="1 : 0.5 : 1"
       inkscape:vp_y="0 : 1000 : 0"
       inkscape:vp_x="0 : 0.5 : 1"
       sodipodi:type="inkscape:persp3d" />
    <linearGradient
       inkscape:collect="always"
       xlink:href="#linearGradient5316-3"
       id="linearGradient6914"
       gradientUnits="userSpaceOnUse"
       gradientTransform="matrix(1.0001368,0,0,1.0001368,-167.83943,269.26222)"
       x1="275.29071"
       y1="1103.7349"
       x2="275.29071"
       y2="1121.6162" />
    <linearGradient
       id="linearGradient5316-3">
      <stop
         style="stop-color:#ff6e00;stop-opacity:1;"
         offset="0"
         id="stop5320-1" />
      <stop
         style="stop-color:#eb2600;stop-opacity:1;"
         offset="1"
         id="stop5322-49" />
    </linearGradient>
    <linearGradient
       inkscape:collect="always"
       xlink:href="#linearGradient5165-7-9-8-2-0"
       id="linearGradient6911"
       gradientUnits="userSpaceOnUse"
       gradientTransform="matrix(1.0001368,0,0,1.0001368,-167.83943,269.26222)"
       x1="275.29071"
       y1="1094.0099"
       x2="275.29071"
       y2="1117.1519" />
    <linearGradient
       id="linearGradient5165-7-9-8-2-0">
      <stop
         id="stop5167-4-8-6-9-2"
         style="stop-color:#ffffff;stop-opacity:1"
         offset="0" />
      <stop
         id="stop5169-5-5-2-9-9"
         style="stop-color:#ffffff;stop-opacity:0"
         offset="1" />
    </linearGradient>
    <linearGradient
       inkscape:collect="always"
       xlink:href="#linearGradient5316-3"
       id="linearGradient6908"
       gradientUnits="userSpaceOnUse"
       gradientTransform="matrix(1.0001368,0,0,1.0001368,-167.83943,269.26222)"
       x1="280.65372"
       y1="1100.6647"
       x2="292.69617"
       y2="1118.8726" />
    <linearGradient
       id="linearGradient7223">
      <stop
         style="stop-color:#ff6e00;stop-opacity:1;"
         offset="0"
         id="stop7225" />
      <stop
         style="stop-color:#eb2600;stop-opacity:1;"
         offset="1"
         id="stop7227" />
    </linearGradient>
    <linearGradient
       inkscape:collect="always"
       xlink:href="#linearGradient5344-1"
       id="linearGradient6905"
       gradientUnits="userSpaceOnUse"
       gradientTransform="matrix(1.0001368,0,0,1.0001368,-167.83943,269.26222)"
       x1="317.94461"
       y1="1142.4757"
       x2="283.81964"
       y2="1103.8007" />
    <linearGradient
       id="linearGradient5344-1">
      <stop
         style="stop-color:#000000;stop-opacity:1;"
         offset="0"
         id="stop5346-1" />
      <stop
         style="stop-color:#000000;stop-opacity:0;"
         offset="1"
         id="stop5348-6" />
    </linearGradient>
  </defs>
  <sodipodi:namedview
     id="base"
     pagecolor="#ffffff"
     bordercolor="#666666"
     borderopacity="1.0"
     inkscape:pageopacity="0.0"
     inkscape:pageshadow="2"
     inkscape:zoom="1.979899"
     inkscape:cx="143.32618"
     inkscape:cy="96.89407"
     inkscape:document-units="px"
     inkscape:current-layer="layer1"
     showgrid="false"
     inkscape:window-width="1280"
     inkscape:window-height="717"
     inkscape:window-x="0"
     inkscape:window-y="24"
     inkscape:window-maximized="0" />
  <metadata
     id="metadata6939">
    <rdf:RDF>
      <cc:Work
         rdf:about="">
        <dc:format>image/svg+xml</dc:format>
        <dc:type
           rdf:resource="http://purl.org/dc/dcmitype/StillImage" />
        <dc:title />
      </cc:Work>
    </rdf:RDF>
  </metadata>
  <g
     inkscape:label="Capa 1"
     inkscape:groupmode="layer"
     id="layer1">
    <g
       transform="matrix(5.3333353,0,0,5.3333353,-556.39013,-7300.602)"
       style="display:inline"
       id="g6925">
      <path
         style="fill:url(#linearGradient6914);fill-rule:evenodd;stroke:none;display:inline"
         d="m 110.16735,1369.9128 -3.56298,0.5312 -0.0937,0 0,0.031 c -1.07165,0.1967 -1.62522,1.0507 -1.62522,2.094 l 0,15.8772 c -0.0132,1.0598 0.38846,1.8933 1.18766,2.1566 l 3.68801,1.1564 0.0312,-1.5002 10.2514,-1.5628 c 0.95297,-0.1032 1.58323,-0.9908 1.53146,-2.2503 l 0.0625,-13.0642 c 0.037,-0.9937 -0.47284,-1.8037 -1.56271,-1.969 l -9.90761,-0.7501 0,-0.7501 z"
         id="path30865"
         inkscape:connector-curvature="0" />
      <path
         id="path30867"
         d="m 110.16735,1369.9128 -3.56298,0.5312 -0.0937,0 0,0.031 c -1.07165,0.1967 -1.62522,1.0507 -1.62522,2.094 l 0,14.0207 16.68978,-0.1438 0.0625,-13.0642 c 0.037,-0.9937 -0.47284,-1.8037 -1.56271,-1.969 l -9.90761,-1.5002 z"
         style="fill:url(#linearGradient6911);fill-rule:evenodd;stroke:none;display:inline"
         sodipodi:nodetypes="cccccccccc"
         inkscape:connector-curvature="0" />
      <path
         inkscape:export-ydpi="57.964222"
         inkscape:export-xdpi="57.964222"
         inkscape:export-filename="/home/dafeba/DCV/tallerD/bocetos/08-09-22-hastaahora.png"
         sodipodi:nodetypes="ccccccccc"
         id="path30869"
         d="m 108.51839,1372.2459 -0.002,17.1243 c -0.1154,1.5666 0.82665,2.7575 2.39674,2.5055 l 14.67791,-2.2164 c 1.0726,-0.1162 1.77232,-1.134 1.7141,-2.5517 l 0.079,-13.9302 c 0.0417,-1.1184 -0.53062,-2.0546 -1.75726,-2.2407 l -14.59504,-1.1174 c -1.66893,-0.082 -2.51345,1.0439 -2.51345,2.4266 z"
         style="fill:url(#linearGradient6908);fill-rule:evenodd;stroke:none"
         inkscape:connector-curvature="0" />
      <path
         style="fill:url(#linearGradient6905);fill-rule:evenodd;stroke:none"
         d="m 108.51839,1372.2459 -0.002,17.1243 c -0.1154,1.5666 0.82665,2.7575 2.39674,2.5055 l 14.67791,-2.2164 c 1.0726,-0.1162 1.77232,-1.134 1.7141,-2.5517 l 0.079,-13.9302 c 0.0417,-1.1184 -0.53062,-2.0546 -1.75726,-2.2407 l -14.59504,-1.1174 c -1.66893,-0.082 -2.51345,1.0439 -2.51345,2.4266 z"
         id="path30871"
         sodipodi:nodetypes="ccccccccc"
         inkscape:export-filename="/home/dafeba/DCV/tallerD/bocetos/08-09-22-hastaahora.png"
         inkscape:export-xdpi="57.964222"
         inkscape:export-ydpi="57.964222"
         inkscape:connector-curvature="0" />
      <path
         style="fill:none;stroke:#344b63;stroke-width:0.50006843;stroke-linecap:butt;stroke-linejoin:miter;stroke-miterlimit:4;stroke-opacity:1;stroke-dasharray:none;display:inline"
         d="m 111.0403,1369.8156 c -0.32519,-0.016 -0.61267,0.025 -0.87512,0.094 l -3.65675,0.5626 c -1.07165,0.1967 -1.62522,1.0507 -1.62522,2.094 l 0,15.8772 c -0.0132,1.0598 0.38846,1.8933 1.18766,2.1566 l 3.68801,1.1563 c 0.33604,0.1388 0.7078,0.1971 1.15641,0.1251 l 14.6895,-2.2191 c 1.0726,-0.1161 1.77722,-1.1451 1.71899,-2.5628 l 0.0625,-13.9395 c 0.0417,-1.1184 -0.5236,-2.0329 -1.75024,-2.219 l -14.59575,-1.1252 z"
         id="path30873"
         sodipodi:nodetypes="ccccccccccccc"
         inkscape:connector-curvature="0" />
      <path
         clip-path="none"
         style="fill:#ffffff;fill-opacity:1;fill-rule:evenodd;stroke:#344b63;stroke-width:1.00013685;stroke-linecap:round;stroke-linejoin:round;stroke-opacity:1;overflow:visible"
         id="path30875"
         d="m 122.33324,1372.3006 c -1.4766,-0.1175 -2.675,1.1321 -2.675,2.7896 0,1.193 0.62264,2.2277 1.5214,2.7086 -1.64704,0.8486 -2.26358,3.3958 -2.26957,5.5146 1.45216,0.9831 4.99611,0.6314 6.68747,-0.5206 0.0123,-1.9331 -0.6643,-4.195 -2.12745,-4.9826 0.90788,-0.4481 1.53812,-1.4027 1.53812,-2.5149 0,-1.5354 -1.1984,-2.8771 -2.67497,-2.9947 0,0 0,0 0,0 0,0 0,0 0,0 m -7.80346,-0.4306 c -2.05626,-0.1588 -3.72408,1.8125 -3.72408,4.4015 0,1.8526 0.8546,3.434 2.09402,4.1483 -2.27766,1.4138 -3.12645,5.4213 -3.13475,8.7292 2.02223,1.4237 6.9569,0.5833 9.31229,-1.3177 0.0172,-2.9446 -0.91646,-6.348 -2.93829,-7.5002 1.25115,-0.7358 2.11491,-2.2196 2.11491,-3.9128 0,-2.3527 -1.66783,-4.3896 -3.7241,-4.5483 0,0 0,0 0,0 0,0 0,0 0,0"
         inkscape:connector-curvature="0" />
      <path
         d="m 122.59844,1372.3006 c -1.47659,-0.1175 -2.67499,1.1321 -2.67499,2.7896 0,1.193 0.62263,2.2277 1.5214,2.7086 -1.64704,0.8486 -2.26358,3.3958 -2.26958,5.5146 1.45216,0.9831 4.99612,0.6314 6.68748,-0.5206 0.0123,-1.9331 -0.6643,-4.195 -2.12745,-4.9826 0.90787,-0.4481 1.53812,-1.4027 1.53812,-2.5149 0,-1.5354 -1.1984,-2.8771 -2.67498,-2.9947 0,0 0,0 0,0 0,0 0,0 0,0 m -7.80345,-0.4306 c -2.05627,-0.1588 -3.72408,1.8125 -3.72408,4.4015 0,1.8526 0.85459,3.434 2.09401,4.1483 -2.27766,1.4138 -3.12644,5.4213 -3.13475,8.7292 2.02224,1.4237 6.95691,0.5833 9.3123,-1.3177 0.0172,-2.9446 -0.91647,-6.348 -2.93829,-7.5002 1.25115,-0.7358 2.11491,-2.2196 2.11491,-3.9128 0,-2.3527 -1.66783,-4.3896 -3.7241,-4.5483 0,0 0,0 0,0 0,0 0,0 0,0"
         id="path30877"
         style="fill:#ffffff;fill-opacity:1;fill-rule:evenodd;stroke:none;overflow:visible"
         clip-path="none"
         inkscape:connector-curvature="0" />
    </g>
  </g>
</svg>
