<?xml version="1.0" encoding="UTF-8" standalone="no"?>
<!-- Created with Inkscape (http://www.inkscape.org/) -->

<svg
   xmlns:dc="http://purl.org/dc/elements/1.1/"
   xmlns:cc="http://creativecommons.org/ns#"
   xmlns:rdf="http://www.w3.org/1999/02/22-rdf-syntax-ns#"
   xmlns:svg="http://www.w3.org/2000/svg"
   xmlns="http://www.w3.org/2000/svg"
   xmlns:xlink="http://www.w3.org/1999/xlink"
   xmlns:sodipodi="http://sodipodi.sourceforge.net/DTD/sodipodi-0.dtd"
   xmlns:inkscape="http://www.inkscape.org/namespaces/inkscape"
   width="128"
   height="128"
   id="svg6934"
   sodipodi:version="0.32"
   inkscape:version="0.48.3.1 r9886"
   version="1.0"
   sodipodi:docname="openjdk-6.svg"
   inkscape:output_extension="org.inkscape.output.svg.inkscape">
  <defs
     id="defs6936">
    <linearGradient
       id="linearGradient5165-7-9-8-2">
      <stop
         id="stop5167-4-8-6-9"
         style="stop-color:#ffffff;stop-opacity:1"
         offset="0" />
      <stop
         id="stop5169-5-5-2-9"
         style="stop-color:#ffffff;stop-opacity:0"
         offset="1" />
    </linearGradient>
    <linearGradient
       id="linearGradient5344">
      <stop
         style="stop-color:#000000;stop-opacity:1;"
         offset="0"
         id="stop5346" />
      <stop
         style="stop-color:#000000;stop-opacity:0;"
         offset="1"
         id="stop5348" />
    </linearGradient>
    <linearGradient
       inkscape:collect="always"
       xlink:href="#linearGradient5165-7-9-8-2"
       id="linearGradient3103"
       x1="22.933788"
       y1="-144.76825"
       x2="18.618809"
       y2="-96.331688"
       gradientUnits="userSpaceOnUse"
       gradientTransform="translate(0,140)" />
    <linearGradient
       inkscape:collect="always"
       xlink:href="#linearGradient5344"
       id="linearGradient3105"
       x1="7.9531264"
       y1="2.2416961"
       x2="13.667412"
       y2="-64.464973"
       gradientUnits="userSpaceOnUse"
       gradientTransform="translate(0,140)" />
    <linearGradient
       inkscape:collect="always"
       xlink:href="#linearGradient5344"
       id="linearGradient3107"
       gradientUnits="userSpaceOnUse"
       gradientTransform="matrix(5.3340639,0,0,5.3340639,-1451.4802,-5864.5574)"
       x1="305.23422"
       y1="1137.0681"
       x2="283.35095"
       y2="1104.2024" />
  </defs>
  <sodipodi:namedview
     id="base"
     pagecolor="#ffffff"
     bordercolor="#666666"
     borderopacity="1.0"
     inkscape:pageopacity="0.0"
     inkscape:pageshadow="2"
     inkscape:zoom="2.8"
     inkscape:cx="45.751454"
     inkscape:cy="56.621418"
     inkscape:document-units="px"
     inkscape:current-layer="layer1"
     showgrid="false"
     inkscape:window-width="1280"
     inkscape:window-height="713"
     inkscape:window-x="0"
     inkscape:window-y="0"
     inkscape:window-maximized="0" />
  <metadata
     id="metadata6939">
    <rdf:RDF>
      <cc:Work
         rdf:about="">
        <dc:format>image/svg+xml</dc:format>
        <dc:type
           rdf:resource="http://purl.org/dc/dcmitype/StillImage" />
        <dc:title></dc:title>
      </cc:Work>
    </rdf:RDF>
  </metadata>
  <g
     inkscape:label="Capa 1"
     inkscape:groupmode="layer"
     id="layer1">
    <path
       style="fill:#ff6600;fill-opacity:1;fill-rule:evenodd;stroke:none"
       d="m 34.21875,5.0625 c -1.32927,0.0554 -2.550557,0.27966 -3.65625,0.625 l -18.34375,2.71875 -0.5,0 0,0.1875 C 6.0032494,9.64282 3.0625,14.18573 3.0625,19.75 l 0,84.6875 c -0.07024,5.65226 2.0501037,10.0952 6.3125,11.5 l 18.96875,5.9375 c 0.02087,0.0102 0.04153,0.0212 0.0625,0.0313 1.892721,0.90932 4.164425,1.2325 6.78125,0.8125 l 78.28125,-11.8125 c 5.72052,-0.61974 9.4668,-6.06393 9.15625,-13.625 L 123.03125,23 c 0.22248,-5.96534 -2.80168,-10.97622 -9.34375,-11.96875 L 35.84375,5.09375 c -0.55631,-0.0273 -1.103066,-0.053 -1.625,-0.0313 z"
       id="path30949"
       inkscape:connector-curvature="0" />
    <path
       style="fill:url(#linearGradient3107);fill-rule:evenodd;stroke:none"
       d="M 29.25,16.71875 29.21875,113.125 c 0.448699,3.45828 1.407546,8.12456 4.34375,9.75 0.527128,-0.0229 1.067503,-0.0668 1.625,-0.15625 l 78.28125,-11.8125 c 5.72052,-0.61974 9.4668,-6.06393 9.15625,-13.625 L 123.03125,23 C 123.2537,17.03466 120.22957,12.02378 113.6875,11.03125 L 37.678453,5.23369 C 33.707189,4.81302 29.262938,10.01426 29.25,16.71875 z M 30.15625,122.5 c 0.647964,0.17153 1.314675,0.32617 2.03125,0.375 z"
       id="path30953"
       inkscape:connector-curvature="0"
       sodipodi:nodetypes="ccccccccccccc" />
    <path
       style="fill:url(#linearGradient3103);fill-rule:evenodd;stroke:none;display:inline"
       d="m 34.78125,5.3125 -22.5625,3.09375 -0.5,0 0,0.1875 C 6.003249,9.64282 3.0625,14.18573 3.0625,19.75 l 0,25 26.1875,0 0,-28.03125 C 29.597051,11.80197 31.524064,6.75497 34.78125,5.3125 z"
       id="path3073"
       inkscape:connector-curvature="0" />
    <path
       style="fill:url(#linearGradient3105);fill-rule:evenodd;stroke:none;display:inline"
       d="m 3.0625,68.40625 0,36.03125 c -0.07024,5.65226 2.050104,10.0952 6.3125,11.5 l 17.65625,6.03125 7.5,1.3125 c -3.710844,-1.04488 -4.81745,-6.34073 -5.3125,-10.15625 l 0,-44.71875 -26.15625,0 z"
       id="path3081"
       inkscape:connector-curvature="0" />
    <path
       inkscape:connector-curvature="0"
       id="path30957"
       d="m 35.825012,5.08443 c -1.734374,-0.0853 -3.26759,0.13333 -4.667303,0.50133 L 11.65504,8.5863 C 5.939545,9.63537 2.987186,14.19003 2.987186,19.7543 l 0,84.67844 c -0.07024,5.65226 2.071804,10.09707 6.3342,11.50187 l 19.669357,6.16693 c 1.792241,0.74027 3.774988,1.0512 6.167512,0.6672 l 78.344065,-11.8352 c 5.72052,-0.6192 9.47847,-6.1072 9.16792,-13.66827 l 0.33339,-74.34403 C 123.22608,16.9559 120.21109,12.0791 113.66902,11.08657 L 35.825018,5.0855 z"
       style="fill:none;stroke:#344b63;stroke-width:2.667032;stroke-linecap:butt;stroke-linejoin:miter;stroke-miterlimit:4;stroke-opacity:1;stroke-dasharray:none;display:inline"
       sodipodi:nodetypes="ccccccccccccc" />
    <path
       sodipodi:nodetypes="ccccccccccscccccssccccccsccccccccccsccccccsccccc"
       id="path3998"
       d="m 82.083026,13.902886 c 3.937767,15.021219 -13.853854,19.551953 -20.288063,28.906804 -4.381556,6.373833 1.771108,16.067164 11.073463,23.737716 -3.627553,-7.76253 -15.295334,-16.981411 -0.0396,-28.648857 19.02367,-14.539177 9.254204,-23.995663 9.254204,-23.995663 z m 12.76645,17.243531 c 2.17e-4,0 -33.156545,9.126052 -17.793974,26.267455 4.535166,5.054907 -1.02701,11.002741 -1.02701,11.002741 0,0 11.338842,-7.156909 6.054534,-14.362996 -4.937173,-6.716999 -8.637834,-10.494083 12.76645,-22.9072 z m 5.437174,33.163463 c -1.029059,0.10482 -2.104239,0.369647 -3.206539,0.812727 -1.031079,0.417103 -1.580033,1.288148 -1.580033,1.288148 0,0 0.637852,-0.286601 2.091221,-0.663392 5.943301,-1.538921 14.465181,7.221674 -3.950083,17.719498 -0.08533,0.232285 -0.371992,0.529995 -0.371773,0.529984 C 115.55414,77.01197 110.23424,63.296648 100.28665,64.30988 z m -39.872604,2.94541 c -2.347824,0.180127 -7.83272,0.977136 -14.220299,4.390238 -10.075223,5.381035 24.915725,5.828851 43.03267,0.147826 1.883471,-1.38055 4.507742,-2.644435 4.507742,-2.644435 0,0 -7.441216,0.878682 -14.82443,1.498329 -9.036761,0.758164 -17.874354,2.509988 -22.740334,2.104885 -11.520776,-0.957717 5.499384,-5.560283 5.499384,-5.560283 0,0 -0.472125,0.0034 -1.254733,0.06344 z m -2.927708,11.301201 c -16.619936,6.356337 9.255358,11.2989 32.483624,3.330071 -2.467947,-0.745198 -4.043026,-2.258576 -4.043026,-2.258576 -11.357069,2.759916 -17.900754,3.017625 -26.209963,2.57992 -6.423997,-0.339136 -2.230635,-3.651415 -2.230635,-3.651415 z m 2.37005,10.615101 c -15.091013,4.979599 9.17923,12.461868 28.394126,3.258008 -3.147083,-1.063892 -5.390702,-2.329852 -5.390702,-2.329852 -8.56866,2.052915 -12.576616,2.360369 -20.354545,1.865625 -6.419222,-0.411679 -2.648879,-2.793781 -2.648879,-2.793781 z m -9.759029,7.271112 c -6.485063,0.31686 -21.213076,8.084746 -8.643711,9.026806 39.173843,2.92863 71.409422,-9.647532 61.249522,-12.830945 0,0 2.76415,2.079045 -3.067119,4.357354 -11.088284,4.326911 -46.164216,8.408241 -55.905297,5.021721 -3.499243,-1.21855 3.092712,-3.913418 5.158344,-4.539985 2.153779,-0.654021 3.392424,-0.714511 3.392424,-0.714511 -0.486799,-0.300285 -1.257725,-0.365706 -2.184163,-0.32044 z m 58.833001,0.670959 c 0,0 -1.22039,3.260617 -14.592071,6.943887 -15.08537,4.15751 -33.71855,5.46358 -44.752117,4.60535 0,0 2.280211,1.65574 13.894998,1.38893 17.67251,-0.41351 44.80675,-4.51901 45.44919,-12.938167 z"
       style="fill:#000000;fill-rule:evenodd;stroke:#000000;stroke-width:5;stroke-linecap:round;stroke-linejoin:round;stroke-miterlimit:4;stroke-dasharray:none;stroke-opacity:0.58506227000000000;fill-opacity:0.54356849"
       inkscape:connector-curvature="0" />
    <path
       inkscape:connector-curvature="0"
       style="fill:#ffffff;fill-rule:evenodd;stroke:#ffffff;stroke-linejoin:round;stroke-linecap:round;stroke-width:1.1;stroke-miterlimit:4;stroke-dasharray:none"
       d="M 84.209295,13.902886 C 88.147062,28.924105 70.355441,33.454839 63.921232,42.80969 59.539676,49.183523 65.69234,58.876854 74.994695,66.547406 71.367142,58.784876 59.699361,49.565995 74.955091,37.898549 93.978761,23.359372 84.209295,13.902886 84.209295,13.902886 z m 12.76645,17.243531 c 2.17e-4,0 -33.156545,9.126052 -17.793974,26.267455 4.535166,5.054907 -1.02701,11.002741 -1.02701,11.002741 0,0 11.338842,-7.156909 6.054534,-14.362996 -4.937173,-6.716999 -8.637834,-10.494083 12.76645,-22.9072 z m 5.437175,33.163463 c -1.02906,0.10482 -2.10424,0.369647 -3.20654,0.812727 -1.031079,0.417103 -1.580033,1.288148 -1.580033,1.288148 0,0 0.637852,-0.286601 2.091221,-0.663392 5.943302,-1.538921 14.465182,7.221674 -3.950083,17.719498 -0.08533,0.232285 -0.371992,0.529995 -0.371773,0.529984 C 117.68041,77.01197 112.36051,63.296648 102.41292,64.30988 z m -39.872605,2.94541 c -2.347824,0.180127 -7.83272,0.977136 -14.220299,4.390238 -10.075223,5.381035 24.915725,5.828851 43.03267,0.147826 1.883471,-1.38055 4.507742,-2.644435 4.507742,-2.644435 0,0 -7.441216,0.878682 -14.82443,1.498329 -9.036761,0.758164 -17.874354,2.509988 -22.740334,2.104885 -11.520776,-0.957717 5.499384,-5.560283 5.499384,-5.560283 0,0 -0.472125,0.0034 -1.254733,0.06344 z m -2.927708,11.301201 c -16.619936,6.356337 9.255358,11.2989 32.483624,3.330071 -2.467947,-0.745198 -4.043026,-2.258576 -4.043026,-2.258576 -11.357069,2.759916 -17.900754,3.017625 -26.209963,2.57992 -6.423997,-0.339136 -2.230635,-3.651415 -2.230635,-3.651415 z m 2.37005,10.615101 c -15.091013,4.979599 9.17923,12.461868 28.394126,3.258008 -3.147083,-1.063892 -5.390702,-2.329852 -5.390702,-2.329852 -8.56866,2.052915 -12.576616,2.360369 -20.354545,1.865625 -6.419222,-0.411679 -2.648879,-2.793781 -2.648879,-2.793781 z m -9.759029,7.271112 c -6.485063,0.31686 -21.213076,8.084746 -8.643711,9.026806 39.173843,2.92863 71.409423,-9.647532 61.249523,-12.830945 0,0 2.76415,2.079045 -3.06712,4.357354 -11.088284,4.326911 -46.164216,8.408241 -55.905297,5.021721 -3.499243,-1.21855 3.092712,-3.913418 5.158344,-4.539985 2.153779,-0.654021 3.392424,-0.714511 3.392424,-0.714511 -0.486799,-0.300285 -1.257725,-0.365706 -2.184163,-0.32044 z m 58.833002,0.670959 c 0,0 -1.22039,3.260617 -14.592072,6.943887 -15.08537,4.15751 -33.71855,5.46358 -44.752117,4.60535 0,0 2.280211,1.65574 13.894998,1.38893 17.67251,-0.41351 44.806751,-4.51901 45.449191,-12.938167 z"
       id="path3616"
       sodipodi:nodetypes="ccccccccccscccccssccccccsccccccccccsccccccsccccc" />
  </g>
</svg>
