<?xml version="1.0" encoding="UTF-8" standalone="no"?>
<!-- Created with Inkscape (http://www.inkscape.org/) -->

<svg
   xmlns:dc="http://purl.org/dc/elements/1.1/"
   xmlns:cc="http://creativecommons.org/ns#"
   xmlns:rdf="http://www.w3.org/1999/02/22-rdf-syntax-ns#"
   xmlns:svg="http://www.w3.org/2000/svg"
   xmlns="http://www.w3.org/2000/svg"
   xmlns:xlink="http://www.w3.org/1999/xlink"
   xmlns:sodipodi="http://sodipodi.sourceforge.net/DTD/sodipodi-0.dtd"
   xmlns:inkscape="http://www.inkscape.org/namespaces/inkscape"
   width="128"
   height="128"
   id="svg2"
   sodipodi:version="0.32"
   inkscape:version="0.48.3.1 r9886"
   version="1.0"
   sodipodi:docname="mate-panel-clock.svg"
   inkscape:output_extension="org.inkscape.output.svg.inkscape">
  <defs
     id="defs4">
    <linearGradient
       y2="976.64746"
       x2="492.41547"
       y1="945.42371"
       x1="495.48636"
       gradientTransform="matrix(2.7250645,0,0,2.7249519,-1319.8258,-2559.9643)"
       gradientUnits="userSpaceOnUse"
       id="linearGradient6339"
       xlink:href="#linearGradient8702"
       inkscape:collect="always" />
    <linearGradient
       y2="956.01135"
       x2="499.43576"
       y1="937.77661"
       x1="502.97885"
       gradientTransform="matrix(2.7250645,0,0,2.7249519,-1319.8258,-2559.9643)"
       gradientUnits="userSpaceOnUse"
       id="linearGradient6341"
       xlink:href="#linearGradient5362"
       inkscape:collect="always" />
    <linearGradient
       y2="968.64575"
       x2="497.81961"
       y1="992.24542"
       x1="504.93024"
       gradientTransform="matrix(2.7250645,0,0,2.7249519,-1319.8258,-2559.9643)"
       gradientUnits="userSpaceOnUse"
       id="linearGradient6343"
       xlink:href="#linearGradient5344"
       inkscape:collect="always" />
    <linearGradient
       y2="977.25409"
       x2="520.09509"
       y1="949.08014"
       x1="496.11346"
       gradientTransform="matrix(2.7250645,0,0,2.7249519,-1319.8258,-2559.9643)"
       gradientUnits="userSpaceOnUse"
       id="linearGradient6345"
       xlink:href="#linearGradient8702"
       inkscape:collect="always" />
    <linearGradient
       gradientUnits="userSpaceOnUse"
       y2="172.15631"
       x2="990.38104"
       y1="218.56348"
       x1="990.38104"
       id="linearGradient10504"
       xlink:href="#linearGradient9863"
       inkscape:collect="always"
       gradientTransform="matrix(2.6765239,0,0,2.6765239,-2583.5203,-459.33265)" />
    <linearGradient
       id="linearGradient9863">
      <stop
         style="stop-color:#2f445a;stop-opacity:1;"
         offset="0"
         id="stop9865" />
      <stop
         style="stop-color:#415f7c;stop-opacity:1"
         offset="1"
         id="stop9867" />
    </linearGradient>
    <linearGradient
       id="linearGradient5362">
      <stop
         style="stop-color:#ffffff;stop-opacity:1;"
         offset="0"
         id="stop5364" />
      <stop
         style="stop-color:#ffffff;stop-opacity:0;"
         offset="1"
         id="stop5366" />
    </linearGradient>
    <linearGradient
       id="linearGradient5344">
      <stop
         style="stop-color:#000000;stop-opacity:1;"
         offset="0"
         id="stop5346" />
      <stop
         style="stop-color:#000000;stop-opacity:0;"
         offset="1"
         id="stop5348" />
    </linearGradient>
    <linearGradient
       id="linearGradient8702">
      <stop
         id="stop8704"
         offset="0"
         style="stop-color:#ff6e00;stop-opacity:1;" />
      <stop
         id="stop8706"
         offset="1"
         style="stop-color:#eb2600;stop-opacity:1;" />
    </linearGradient>
    <linearGradient
       inkscape:collect="always"
       xlink:href="#linearGradient8702"
       id="linearGradient3082"
       x1="48.811115"
       y1="44.991241"
       x2="84.945694"
       y2="85.68689"
       gradientUnits="userSpaceOnUse" />
  </defs>
  <sodipodi:namedview
     id="base"
     pagecolor="#ffffff"
     bordercolor="#666666"
     borderopacity="1.0"
     inkscape:pageopacity="0.0"
     inkscape:pageshadow="2"
     inkscape:zoom="2.8284271"
     inkscape:cx="54.827326"
     inkscape:cy="65.108966"
     inkscape:document-units="px"
     inkscape:current-layer="layer1"
     showgrid="false"
     inkscape:showpageshadow="false"
     inkscape:window-width="1024"
     inkscape:window-height="713"
     inkscape:window-x="0"
     inkscape:window-y="0"
     showguides="true"
     inkscape:guide-bbox="true"
     inkscape:window-maximized="0" />
  <metadata
     id="metadata7">
    <rdf:RDF>
      <cc:Work
         rdf:about="">
        <dc:format>image/svg+xml</dc:format>
        <dc:type
           rdf:resource="http://purl.org/dc/dcmitype/StillImage" />
      </cc:Work>
    </rdf:RDF>
  </metadata>
  <g
     inkscape:label="Capa 1"
     inkscape:groupmode="layer"
     id="layer1">
    <path
       inkscape:export-ydpi="57.964222"
       inkscape:export-xdpi="57.964222"
       inkscape:export-filename="/home/dafeba/DCV/tallerD/bocetos/08-09-22-hastaahora.png"
       sodipodi:nodetypes="csssssc"
       id="path6322"
       d="M 103.77827,61.650016 C 103.01519,91.610222 88.140943,120.55498 62.575858,120.7247 C 51.78786,120.79552 39.864214,118.16899 32.153684,113.99354 C 16.218463,105.36402 6.9609018,86.517921 6.9427015,65.466043 C 6.920754,40.240935 19.96747,17.359359 40.515412,9.5387969 C 46.515108,7.2552938 58.267725,5.3039741 66.595194,5.3900778 C 88.302873,5.612042 103.77827,30.163421 103.77827,61.650016 z"
       style="fill:url(#linearGradient6339);fill-opacity:1;stroke:none;stroke-width:7.4000001;stroke-linecap:round;stroke-linejoin:round;stroke-miterlimit:4;stroke-dashoffset:0;stroke-opacity:1;display:inline" />
    <path
       inkscape:export-ydpi="57.964222"
       inkscape:export-xdpi="57.964222"
       inkscape:export-filename="/home/dafeba/DCV/tallerD/bocetos/08-09-22-hastaahora.png"
       style="fill:url(#linearGradient6341);fill-opacity:1;stroke:none;stroke-width:7.4000001;stroke-linecap:round;stroke-linejoin:round;stroke-miterlimit:4;stroke-dashoffset:0;stroke-opacity:1;display:inline"
       d="M 56.334472,64.103559 L 9.6569644,45.684182 C 14.220705,29.70073 24.333416,16.51422 38.426385,10.384552 C 44.96433,7.5409324 55.369585,5.2526116 63.464196,5.8717718 C 114.50952,-0.65857178 87.522666,64.997678 56.334472,64.103559 z"
       id="path6324"
       sodipodi:nodetypes="ccscc" />
    <path
       inkscape:export-ydpi="57.964222"
       inkscape:export-xdpi="57.964222"
       inkscape:export-filename="/home/dafeba/DCV/tallerD/bocetos/08-09-22-hastaahora.png"
       style="fill:url(#linearGradient6343);fill-opacity:1;stroke:none;stroke-width:7.4000001;stroke-linecap:round;stroke-linejoin:round;stroke-miterlimit:4;stroke-dashoffset:0;stroke-opacity:1;display:inline"
       d="M 63.539406,120.7247 C 55.563365,121.87105 44.461679,118.84249 38.067463,116.60767 C 22.323614,111.10506 11.754556,96.542815 8.2338566,78.77902 C 7.3856662,74.49982 29.106194,77.742241 42.831408,79.435571 C 75.187103,77.516637 116.1869,105.61396 63.539406,120.7247 z"
       id="path6326"
       sodipodi:nodetypes="csscc" />
    <path
       inkscape:export-ydpi="57.964222"
       inkscape:export-xdpi="57.964222"
       inkscape:export-filename="/home/dafeba/DCV/tallerD/bocetos/08-09-22-hastaahora.png"
       style="fill:url(#linearGradient6345);fill-opacity:1;stroke:none;display:inline"
       d="M 112.45556,61.885952 C 111.69221,92.660731 95.24631,115.95131 70.0364,120.28695 36.328794,126.08409 15.114129,98.133981 15.083884,66.046581 15.052569,32.664445 37.245503,3.2779525 69.612171,5.8216673 95.09991,7.8237607 112.45556,29.54327 112.45556,61.885952 z"
       id="path6328"
       sodipodi:nodetypes="csssc"
       inkscape:connector-curvature="0" />
    <path
       inkscape:export-ydpi="57.964222"
       inkscape:export-xdpi="57.964222"
       inkscape:export-filename="/home/dafeba/DCV/tallerD/bocetos/08-09-22-hastaahora.png"
       sodipodi:nodetypes="csssccccc"
       id="path6334"
       d="M 63.363559,5.4312963 C 55.453092,5.7783076 45.779064,7.5315914 40.52933,9.5297235 19.98112,17.350286 6.883818,40.260715 6.905498,65.485796 c 0.0182,21.051878 9.324474,39.882484 25.259695,48.511994 3.795043,2.05514 8.849659,4.03682 14.04265,5.18917 7.052373,1.67994 15.689783,2.16472 23.847025,1.08393 C 95.26478,115.93525 111.69757,92.663996 112.46091,61.889217 112.46091,31.137007 96.83215,9.6805992 73.379379,5.9540482 70.065574,5.4058158 66.708411,5.4312963 63.363559,5.4312963 z"
       style="fill:none;stroke:url(#linearGradient10504);stroke-width:2.67652392;stroke-linecap:round;stroke-linejoin:round;stroke-miterlimit:4;stroke-opacity:1;stroke-dasharray:none;stroke-dashoffset:0;display:inline"
       inkscape:connector-curvature="0" />
    <path
       id="path3172"
       d="m 61.043384,12.195652 -1.59375,43.15625 c 1.662556,-1.187352 3.679443,-1.804918 5.96875,-1.625 1.254998,0.09858 2.411096,0.44397 3.4375,1 l -1.78125,-42.53125 -6.03125,0 z m 3.21875,45.15625 c -3.890027,0.167695 -6.503937,3.880012 -6.5,8.0625 0.004,4.288286 2.838934,8.024752 7.34375,7.25 3.369152,-0.579433 5.585482,-3.699638 5.6875,-7.8125 0,-4.322403 -2.312468,-7.232433 -5.71875,-7.5 -0.270351,-0.02125 -0.553165,-0.01118 -0.8125,0 z m -9.5625,8.09375 -16.9375,23.6875 6.84375,6.625 20.28125,-19.40625 c -6.27079,0.697408 -10.181735,-4.664525 -10.1875,-10.78125 -4e-5,-0.04212 -3.19e-4,-0.08295 0,-0.125 z"
       style="fill:#000000;fill-opacity:0.23236515;stroke:#000000;stroke-width:5;stroke-linecap:round;stroke-linejoin:round;stroke-miterlimit:4;stroke-opacity:0.50622409000000002;stroke-dasharray:none"
       inkscape:connector-curvature="0" />
    <path
       style="fill:#ffffff;stroke:#ffffff;stroke-width:1px;stroke-linecap:butt;stroke-linejoin:miter;stroke-opacity:1"
       d="m 62.743632,12.195652 -1.59375,43.15625 c 1.662556,-1.187352 3.679443,-1.804918 5.96875,-1.625 1.254998,0.09858 2.411096,0.44397 3.4375,1 l -1.78125,-42.53125 -6.03125,0 z m 3.21875,45.15625 c -3.890027,0.167695 -6.503937,3.880012 -6.5,8.0625 0.004,4.288286 2.838934,8.024752 7.34375,7.25 3.369152,-0.579433 5.585482,-3.699638 5.6875,-7.8125 0,-4.322403 -2.312468,-7.232433 -5.71875,-7.5 -0.270351,-0.02125 -0.553165,-0.01118 -0.8125,0 z m -9.5625,8.09375 -16.9375,23.6875 6.84375,6.625 20.28125,-19.40625 c -6.27079,0.697408 -10.181735,-4.664525 -10.1875,-10.78125 -4e-5,-0.04212 -3.19e-4,-0.08295 0,-0.125 z"
       id="path3076"
       inkscape:connector-curvature="0" />
  </g>
</svg>
