<?xml version="1.0" encoding="UTF-8" standalone="no"?>
<!-- Created with Inkscape (http://www.inkscape.org/) -->

<svg
   xmlns:dc="http://purl.org/dc/elements/1.1/"
   xmlns:cc="http://creativecommons.org/ns#"
   xmlns:rdf="http://www.w3.org/1999/02/22-rdf-syntax-ns#"
   xmlns:svg="http://www.w3.org/2000/svg"
   xmlns="http://www.w3.org/2000/svg"
   xmlns:xlink="http://www.w3.org/1999/xlink"
   xmlns:sodipodi="http://sodipodi.sourceforge.net/DTD/sodipodi-0.dtd"
   xmlns:inkscape="http://www.inkscape.org/namespaces/inkscape"
   width="128"
   height="128"
   id="svg52672"
   sodipodi:version="0.32"
   inkscape:version="0.48.3.1 r9886"
   version="1.0"
   sodipodi:docname="preferences-desktop-screensaver-symbolic.svg"
   inkscape:output_extension="org.inkscape.output.svg.inkscape">
  <defs
     id="defs52674">
    <linearGradient
       inkscape:collect="always"
       xlink:href="#linearGradient5439"
       id="linearGradient7103"
       gradientUnits="userSpaceOnUse"
       gradientTransform="matrix(4.6816014,4.7195002e-2,0,4.6816014,-2309.4144,-4525.3689)"
       x1="493.79773"
       y1="966.80334"
       x2="479.87286"
       y2="1015.4691" />
    <linearGradient
       inkscape:collect="always"
       xlink:href="#linearGradient5439"
       id="linearGradient7105"
       gradientUnits="userSpaceOnUse"
       gradientTransform="matrix(4.6785879,-0.1207899,0.1679545,4.680281,-2474.6334,-4434.0154)"
       x1="515.25647"
       y1="980.49353"
       x2="497.72803"
       y2="991.33789" />
    <linearGradient
       inkscape:collect="always"
       xlink:href="#linearGradient5439"
       id="linearGradient7107"
       gradientUnits="userSpaceOnUse"
       gradientTransform="matrix(4.6785879,-0.1207899,0.1679545,4.680281,-2474.6635,-4437.1225)"
       x1="510.13104"
       y1="987.76733"
       x2="509.42908"
       y2="983.16199" />
    <linearGradient
       inkscape:collect="always"
       xlink:href="#linearGradient5439"
       id="linearGradient7109"
       gradientUnits="userSpaceOnUse"
       gradientTransform="matrix(2.6765239,0,0,2.6765239,-1299.0906,-2514.9622)"
       x1="520.0495"
       y1="980.01654"
       x2="505.46637"
       y2="979.97235" />
    <linearGradient
       inkscape:collect="always"
       xlink:href="#linearGradient5439"
       id="linearGradient7111"
       gradientUnits="userSpaceOnUse"
       gradientTransform="matrix(4.6816014,4.7195002e-2,0,4.6816014,-2309.4144,-4525.3689)"
       x1="491.99448"
       y1="955.10822"
       x2="556.50537"
       y2="1020.8551" />
    <linearGradient
       inkscape:collect="always"
       xlink:href="#linearGradient5439"
       id="linearGradient7113"
       gradientUnits="userSpaceOnUse"
       gradientTransform="matrix(4.6816014,4.7195002e-2,0,4.6816014,-2309.4144,-4525.0584)"
       x1="528.23529"
       y1="987.03857"
       x2="489.7879"
       y2="956.6394" />
    <linearGradient
       inkscape:collect="always"
       xlink:href="#linearGradient5439"
       id="linearGradient7115"
       gradientUnits="userSpaceOnUse"
       gradientTransform="matrix(4.5487676,4.5855905e-2,0,4.5487676,-2243.2237,-4396.1442)"
       x1="473.4021"
       y1="939.6684"
       x2="515.30975"
       y2="978.38062" />
    <linearGradient
       inkscape:collect="always"
       xlink:href="#linearGradient9863"
       id="linearGradient8831"
       gradientUnits="userSpaceOnUse"
       gradientTransform="matrix(2.6765239,0,0,2.6765239,-2101.6337,-775.16245)"
       x1="810.84375"
       y1="336.11224"
       x2="811.0625"
       y2="289.8125" />
    <linearGradient
       id="linearGradient9863">
      <stop
         style="stop-color:#2f445a;stop-opacity:1;"
         offset="0"
         id="stop9865" />
      <stop
         style="stop-color:#415f7c;stop-opacity:1"
         offset="1"
         id="stop9867" />
    </linearGradient>
    <linearGradient
       id="linearGradient5439">
      <stop
         style="stop-color:#ffffff;stop-opacity:1;"
         offset="0"
         id="stop5441" />
      <stop
         style="stop-color:#000000;stop-opacity:1;"
         offset="1"
         id="stop5443" />
    </linearGradient>
  </defs>
  <sodipodi:namedview
     id="base"
     pagecolor="#ffffff"
     bordercolor="#666666"
     borderopacity="1.0"
     inkscape:pageopacity="0.0"
     inkscape:pageshadow="2"
     inkscape:zoom="2.8284271"
     inkscape:cx="97.403069"
     inkscape:cy="62.738341"
     inkscape:document-units="px"
     inkscape:current-layer="layer1"
     showgrid="false"
     inkscape:window-width="1024"
     inkscape:window-height="713"
     inkscape:window-x="0"
     inkscape:window-y="0"
     inkscape:window-maximized="0" />
  <metadata
     id="metadata52677">
    <rdf:RDF>
      <cc:Work
         rdf:about="">
        <dc:format>image/svg+xml</dc:format>
        <dc:type
           rdf:resource="http://purl.org/dc/dcmitype/StillImage" />
      </cc:Work>
    </rdf:RDF>
  </metadata>
  <g
     inkscape:label="Capa 1"
     inkscape:groupmode="layer"
     id="layer1">
    <path
       id="path7081"
       d="M 121.16834,83.441739 C 121.22605,89.584521 117.82266,95.605362 111.33774,96.469826 L 24.899102,116.73293 L 9.6592964,112.43877 C 4.7995855,110.99837 2.4596344,105.11294 2.3497898,99.137062 L 2.698541,15.704863 C 2.6481955,9.4324292 8.1101779,3.7393023 15.246834,3.2016957 L 26.029479,1.8794661 L 102.12059,7.4215836 C 103.24208,7.3806327 104.52839,7.3372731 105.71297,7.4988013 L 117.20406,8.588655 C 119.16122,8.8935914 116.27847,21.436184 116.27847,22.89141 L 121.16834,83.441739 z"
       style="fill:url(#linearGradient7103);fill-rule:evenodd;stroke:none;stroke-width:0.09701986;stroke-linecap:butt;stroke-linejoin:miter;stroke-miterlimit:4;stroke-dasharray:none;stroke-opacity:1;display:inline"
       sodipodi:nodetypes="ccccccccccccc"
       inkscape:export-filename="/home/dafeba/DCV/tallerD/bocetos/08-09-22-hastaahora.png"
       inkscape:export-xdpi="57.964222"
       inkscape:export-ydpi="57.964222" />
    <path
       style="fill:url(#linearGradient7105);fill-rule:evenodd;stroke:none;stroke-width:1px;stroke-linecap:butt;stroke-linejoin:miter;stroke-opacity:1;display:inline"
       d="M 43.583595,120.74908 C 55.11406,124.88854 74.425287,123.0021 87.385792,119.99462 C 96.254266,117.93667 100.6151,114.91356 100.71756,112.54203 L 100.60613,109.08913 C 89.919657,106.56557 73.395441,108.35803 61.622161,110.1387 C 54.789558,111.08678 44.807863,113.19146 41.022723,115.55052 L 41.000642,119.12307 C 41.285183,119.67681 42.267575,120.37043 43.583595,120.74908 z"
       id="path7083"
       sodipodi:nodetypes="cscccccc"
       inkscape:export-filename="/home/dafeba/DCV/tallerD/bocetos/08-09-22-hastaahora.png"
       inkscape:export-xdpi="57.964222"
       inkscape:export-ydpi="57.964222" />
    <path
       sodipodi:nodetypes="csccc"
       id="path7085"
       d="M 43.553591,117.64164 C 56.385168,122.19507 74.395149,119.89471 87.355788,116.88723 C 100.40566,113.85901 104.76628,108.33585 96.539129,106.07964 C 85.852705,103.55614 73.365356,105.25067 61.592024,107.03128 C 49.162648,108.75601 35.31616,115.2716 43.553591,117.64164 z"
       style="fill:url(#linearGradient7107);fill-rule:evenodd;stroke:none;stroke-width:1px;stroke-linecap:butt;stroke-linejoin:miter;stroke-opacity:1;display:inline"
       inkscape:export-filename="/home/dafeba/DCV/tallerD/bocetos/08-09-22-hastaahora.png"
       inkscape:export-xdpi="57.964222"
       inkscape:export-ydpi="57.964222" />
    <path
       sodipodi:nodetypes="cccccc"
       id="path7087"
       d="M 63.778931,102.39908 L 81.481273,100.38301 L 81.348303,110.97241 C 81.245364,112.80733 68.612894,115.05004 63.778931,113.15736 C 63.424613,112.99776 63.215496,112.74135 63.026159,112.47177 L 63.778931,102.39908 z"
       style="fill:url(#linearGradient7109);fill-opacity:1;stroke:none;stroke-width:0.1;stroke-linecap:round;stroke-miterlimit:4;stroke-opacity:1;display:inline"
       inkscape:export-filename="/home/dafeba/DCV/tallerD/bocetos/08-09-22-hastaahora.png"
       inkscape:export-xdpi="57.964222"
       inkscape:export-ydpi="57.964222" />
    <path
       sodipodi:nodetypes="ccccccccc"
       style="fill:url(#linearGradient7111);fill-rule:evenodd;stroke:none;stroke-width:0.1;stroke-linecap:butt;stroke-linejoin:miter;stroke-miterlimit:4;stroke-dasharray:none;stroke-opacity:1;display:inline"
       d="M 125.25272,89.05374 C 125.31216,95.385245 121.80426,101.59095 115.12012,102.48197 L 28.80929,116.85594 C 21.174907,117.96344 17.129823,110.55161 16.990028,102.94388 L 17.948277,14.697071 C 17.896299,8.2319815 22.07727,1.5163956 29.192862,2.0879673 L 115.3564,8.2182777 C 121.70137,8.8226635 125.36419,11.667889 125.36419,18.073292 L 125.25272,89.05374 z"
       id="path7089"
       inkscape:export-filename="/home/dafeba/DCV/tallerD/bocetos/08-09-22-hastaahora.png"
       inkscape:export-xdpi="57.964222"
       inkscape:export-ydpi="57.964222" />
    <path
       sodipodi:nodetypes="cccccc"
       id="path7091"
       d="M 24.001691,25.634499 L 24.042374,111.32919 L 120.99413,96.359259 L 121.22019,15.063568 L 118.41326,14.930009 L 24.001691,25.634499 z"
       style="fill:url(#linearGradient7113);fill-opacity:1;fill-rule:evenodd;stroke:none;stroke-width:1px;stroke-linecap:butt;stroke-linejoin:miter;stroke-opacity:1;display:inline"
       inkscape:export-filename="/home/dafeba/DCV/tallerD/bocetos/08-09-22-hastaahora.png"
       inkscape:export-xdpi="57.964222"
       inkscape:export-ydpi="57.964222" />
    <path
       style="fill:url(#linearGradient7115);fill-opacity:1;fill-rule:evenodd;stroke:none;stroke-width:1px;stroke-linecap:butt;stroke-linejoin:miter;stroke-opacity:1;display:inline"
       d="M 24.08295,8.4369764 L 24.082093,108.57748 L 118.22532,94.147192 L 118.44495,14.845164 L 24.08295,8.4369764 z"
       id="path7094"
       sodipodi:nodetypes="ccccc"
       inkscape:export-filename="/home/dafeba/DCV/tallerD/bocetos/08-09-22-hastaahora.png"
       inkscape:export-xdpi="57.964222"
       inkscape:export-ydpi="57.964222" />
    <path
       style="fill:none;fill-rule:evenodd;stroke:url(#linearGradient8831);stroke-width:2.67652392;stroke-linecap:round;stroke-linejoin:round;stroke-miterlimit:4;stroke-dasharray:none;stroke-opacity:1;display:inline"
       d="M 24.167421,1.4578065 L 15.413047,2.5350003 C 8.2763901,3.0726069 1.8964134,9.3942084 1.9467856,15.666696 L 2.3649925,99.140782 C 2.474837,105.11666 4.7821078,110.99936 9.641792,112.43976 L 22.764923,116.67592 C 24.644404,117.27198 27.91956,117.42642 29.387098,117.22761 L 39.658071,115.51147 C 40.237966,115.41782 41.02805,115.3208 41.007173,116.01544 L 40.965339,119.44473 C 41.250121,119.99848 42.284142,120.34161 43.600189,120.72026 C 55.130654,124.8598 74.384229,122.97496 87.34476,119.96748 C 96.213155,117.90956 101.41953,114.8531 101.52204,112.48157 L 101.6473,109.97235 C 101.43826,106.81529 99.198014,106.07188 96.545311,106.08302 L 114.69536,103.23921 C 122.3834,102.09727 126.13,96.690023 126.07058,90.358438 L 125.69721,18.092296 C 125.69721,11.686892 122.89221,8.5313507 116.54724,7.9268845 L 108.79148,7.2476095 L 41.676437,2.3677176 L 29.297514,1.5313039 C 27.587483,1.4527479 25.877452,1.3817397 24.167421,1.4578065 z"
       id="path8828"
       sodipodi:nodetypes="cccccccccccsccccccccccc"
       inkscape:export-filename="/home/dafeba/DCV/tallerD/bocetos/08-09-22-hastaahora.png"
       inkscape:export-xdpi="57.964222"
       inkscape:export-ydpi="57.964222" />
    <g
       transform="translate(-3.7679983e-7,-924.36218)"
       id="g3138">
      <path
         inkscape:export-ydpi="57.964222"
         inkscape:export-xdpi="57.964222"
         inkscape:export-filename="/home/dafeba/DCV/tallerD/bocetos/08-09-22-hastaahora.png"
         transform="matrix(6.1741036,0,0,6.1741036,-5759.395,-1349.7096)"
         d="m 940.5,381.61218 c 0,0.55229 -0.44772,1 -1,1 -0.55228,0 -1,-0.44771 -1,-1 0,-0.55228 0.44772,-1 1,-1 0.55228,0 1,0.44772 1,1 z"
         sodipodi:ry="1"
         sodipodi:rx="1"
         sodipodi:cy="381.61218"
         sodipodi:cx="939.5"
         id="path7118-6"
         style="fill:#ff6464;fill-opacity:1;stroke:#d60000;stroke-width:0.69999999;stroke-linecap:round;stroke-linejoin:round;stroke-miterlimit:4;stroke-opacity:0.52032519;stroke-dasharray:none;stroke-dashoffset:0;display:inline"
         sodipodi:type="arc" />
      <path
         inkscape:export-ydpi="57.964222"
         inkscape:export-xdpi="57.964222"
         inkscape:export-filename="/home/dafeba/DCV/tallerD/bocetos/08-09-22-hastaahora.png"
         sodipodi:type="arc"
         style="fill:#ff6464;fill-opacity:1;stroke:#d60000;stroke-width:0.69999999;stroke-linecap:round;stroke-linejoin:round;stroke-miterlimit:4;stroke-opacity:0.52032519;stroke-dasharray:none;stroke-dashoffset:0;display:inline"
         id="path7120-6"
         sodipodi:cx="939.5"
         sodipodi:cy="381.61218"
         sodipodi:rx="1"
         sodipodi:ry="1"
         d="m 940.5,381.61218 c 0,0.55229 -0.44772,1 -1,1 -0.55228,0 -1,-0.44771 -1,-1 0,-0.55228 0.44772,-1 1,-1 0.55228,0 1,0.44772 1,1 z"
         transform="matrix(4.1846627,0,0,4.1846627,-3825.2537,-648.31064)" />
      <path
         inkscape:export-ydpi="57.964222"
         inkscape:export-xdpi="57.964222"
         inkscape:export-filename="/home/dafeba/DCV/tallerD/bocetos/08-09-22-hastaahora.png"
         sodipodi:type="arc"
         style="fill:#ff6464;fill-opacity:1;stroke:#d60000;stroke-width:0.69999999;stroke-linecap:round;stroke-linejoin:round;stroke-miterlimit:4;stroke-opacity:0.52032519;stroke-dasharray:none;stroke-dashoffset:0;display:inline"
         id="path7122-2"
         sodipodi:cx="939.5"
         sodipodi:cy="381.61218"
         sodipodi:rx="1"
         sodipodi:ry="1"
         d="m 940.5,381.61218 c 0,0.55229 -0.44772,1 -1,1 -0.55228,0 -1,-0.44771 -1,-1 0,-0.55228 0.44772,-1 1,-1 0.55228,0 1,0.44772 1,1 z"
         transform="matrix(5.0170822,0,0,5.0170822,-4640.6947,-904.73634)" />
      <path
         inkscape:export-ydpi="57.964222"
         inkscape:export-xdpi="57.964222"
         inkscape:export-filename="/home/dafeba/DCV/tallerD/bocetos/08-09-22-hastaahora.png"
         transform="matrix(4.5176303,0,0,4.5176303,-4161.6168,-770.66814)"
         d="m 940.5,381.61218 c 0,0.55229 -0.44772,1 -1,1 -0.55228,0 -1,-0.44771 -1,-1 0,-0.55228 0.44772,-1 1,-1 0.55228,0 1,0.44772 1,1 z"
         sodipodi:ry="1"
         sodipodi:rx="1"
         sodipodi:cy="381.61218"
         sodipodi:cx="939.5"
         id="path7124-6"
         style="fill:#ff6464;fill-opacity:1;stroke:#d60000;stroke-width:0.69999999;stroke-linecap:round;stroke-linejoin:round;stroke-miterlimit:4;stroke-opacity:0.52032519;stroke-dasharray:none;stroke-dashoffset:0;display:inline"
         sodipodi:type="arc" />
      <path
         inkscape:export-ydpi="57.964222"
         inkscape:export-xdpi="57.964222"
         inkscape:export-filename="/home/dafeba/DCV/tallerD/bocetos/08-09-22-hastaahora.png"
         sodipodi:type="arc"
         style="fill:#ff6464;fill-opacity:1;stroke:#d60000;stroke-width:0.69999999;stroke-linecap:round;stroke-linejoin:round;stroke-miterlimit:4;stroke-opacity:0.52032519;stroke-dasharray:none;stroke-dashoffset:0;display:inline"
         id="path7126-5"
         sodipodi:cx="939.5"
         sodipodi:cy="381.61218"
         sodipodi:rx="1"
         sodipodi:ry="1"
         d="m 940.5,381.61218 c 0,0.55229 -0.44772,1 -1,1 -0.55228,0 -1,-0.44771 -1,-1 0,-0.55228 0.44772,-1 1,-1 0.55228,0 1,0.44772 1,1 z"
         transform="matrix(5.1835663,0,0,5.1835663,-4805.6941,-1002.9307)" />
      <path
         inkscape:export-ydpi="57.964222"
         inkscape:export-xdpi="57.964222"
         inkscape:export-filename="/home/dafeba/DCV/tallerD/bocetos/08-09-22-hastaahora.png"
         transform="matrix(4.1846627,0,0,4.1846627,-3836.0802,-595.84084)"
         d="m 940.5,381.61218 c 0,0.55229 -0.44772,1 -1,1 -0.55228,0 -1,-0.44771 -1,-1 0,-0.55228 0.44772,-1 1,-1 0.55228,0 1,0.44772 1,1 z"
         sodipodi:ry="1"
         sodipodi:rx="1"
         sodipodi:cy="381.61218"
         sodipodi:cx="939.5"
         id="path7128-6"
         style="fill:#ff6464;fill-opacity:1;stroke:#d60000;stroke-width:0.69999999;stroke-linecap:round;stroke-linejoin:round;stroke-miterlimit:4;stroke-opacity:0.52032519;stroke-dasharray:none;stroke-dashoffset:0;display:inline"
         sodipodi:type="arc" />
      <path
         inkscape:export-ydpi="57.964222"
         inkscape:export-xdpi="57.964222"
         inkscape:export-filename="/home/dafeba/DCV/tallerD/bocetos/08-09-22-hastaahora.png"
         sodipodi:type="arc"
         style="fill:#ff6464;fill-opacity:1;stroke:#d60000;stroke-width:0.69999999;stroke-linecap:round;stroke-linejoin:round;stroke-miterlimit:4;stroke-opacity:0.52032519;stroke-dasharray:none;stroke-dashoffset:0;display:inline"
         id="path7130-8"
         sodipodi:cx="939.5"
         sodipodi:cy="381.61218"
         sodipodi:rx="1"
         sodipodi:ry="1"
         d="m 940.5,381.61218 c 0,0.55229 -0.44772,1 -1,1 -0.55228,0 -1,-0.44771 -1,-1 0,-0.55228 0.44772,-1 1,-1 0.55228,0 1,0.44772 1,1 z"
         transform="matrix(6.0076198,0,0,6.0076198,-5601.8915,-1345.0085)" />
      <path
         inkscape:export-ydpi="57.964222"
         inkscape:export-xdpi="57.964222"
         inkscape:export-filename="/home/dafeba/DCV/tallerD/bocetos/08-09-22-hastaahora.png"
         transform="matrix(4.1846627,0,0,4.1846627,-3830.163,-620.39024)"
         d="m 940.5,381.61218 c 0,0.55229 -0.44772,1 -1,1 -0.55228,0 -1,-0.44771 -1,-1 0,-0.55228 0.44772,-1 1,-1 0.55228,0 1,0.44772 1,1 z"
         sodipodi:ry="1"
         sodipodi:rx="1"
         sodipodi:cy="381.61218"
         sodipodi:cx="939.5"
         id="path7132-5"
         style="fill:#ff6464;fill-opacity:1;stroke:#d60000;stroke-width:0.69999999;stroke-linecap:round;stroke-linejoin:round;stroke-miterlimit:4;stroke-opacity:0.52032519;stroke-dasharray:none;stroke-dashoffset:0;display:inline"
         sodipodi:type="arc" />
    </g>
  </g>
</svg>
