<?xml version="1.0" encoding="UTF-8" standalone="no"?>
<!-- Created with Inkscape (http://www.inkscape.org/) -->

<svg
   xmlns:dc="http://purl.org/dc/elements/1.1/"
   xmlns:cc="http://creativecommons.org/ns#"
   xmlns:rdf="http://www.w3.org/1999/02/22-rdf-syntax-ns#"
   xmlns:svg="http://www.w3.org/2000/svg"
   xmlns="http://www.w3.org/2000/svg"
   xmlns:xlink="http://www.w3.org/1999/xlink"
   xmlns:sodipodi="http://sodipodi.sourceforge.net/DTD/sodipodi-0.dtd"
   xmlns:inkscape="http://www.inkscape.org/namespaces/inkscape"
   width="128"
   height="128"
   id="svg24493"
   version="1.1"
   inkscape:version="0.48.3.1 r9886"
   sodipodi:docname="synapse.svg">
  <defs
     id="defs24495">
    <linearGradient
       inkscape:collect="always"
       id="linearGradient3062">
      <stop
         style="stop-color:#000000;stop-opacity:1;"
         offset="0"
         id="stop3064" />
      <stop
         style="stop-color:#000000;stop-opacity:0;"
         offset="1"
         id="stop3066" />
    </linearGradient>
    <linearGradient
       inkscape:collect="always"
       id="linearGradient3054">
      <stop
         style="stop-color:#ffffff;stop-opacity:1;"
         offset="0"
         id="stop3056" />
      <stop
         style="stop-color:#ffffff;stop-opacity:0;"
         offset="1"
         id="stop3058" />
    </linearGradient>
    <linearGradient
       inkscape:collect="always"
       xlink:href="#linearGradient9863-0"
       id="linearGradient24463"
       x1="499.90402"
       y1="926.66156"
       x2="500.3945"
       y2="878.5188"
       gradientUnits="userSpaceOnUse"
       gradientTransform="matrix(2.600838,0,0,2.600838,-1259.9966,-1360.7093)" />
    <linearGradient
       id="linearGradient9863-0">
      <stop
         style="stop-color:#2f445a;stop-opacity:1;"
         offset="0"
         id="stop9865-15" />
      <stop
         style="stop-color:#415f7c;stop-opacity:1"
         offset="1"
         id="stop9867-56" />
    </linearGradient>
    <linearGradient
       inkscape:collect="always"
       xlink:href="#linearGradient18340"
       id="linearGradient24451"
       x1="497.28485"
       y1="893.09821"
       x2="514.71661"
       y2="914.48822"
       gradientUnits="userSpaceOnUse"
       gradientTransform="matrix(2.6187015,0,0,2.6187015,-1268.6813,-1537.2839)" />
    <linearGradient
       id="linearGradient18340">
      <stop
         style="stop-color:#ff6e00;stop-opacity:1;"
         offset="0"
         id="stop18342" />
      <stop
         style="stop-color:#eb2600;stop-opacity:1;"
         offset="1"
         id="stop18344" />
    </linearGradient>
    <linearGradient
       inkscape:collect="always"
       xlink:href="#linearGradient9863-3-0-3"
       id="linearGradient24453"
       x1="511.2113"
       y1="917.12885"
       x2="508.49344"
       y2="888.49103"
       gradientUnits="userSpaceOnUse"
       gradientTransform="matrix(2.600838,0,0,2.600838,-1259.9966,-1360.7093)" />
    <linearGradient
       id="linearGradient9863-3-0-3">
      <stop
         style="stop-color:#2f445a;stop-opacity:1;"
         offset="0"
         id="stop9865-1-3-0" />
      <stop
         style="stop-color:#415f7c;stop-opacity:1"
         offset="1"
         id="stop9867-1-0-5" />
    </linearGradient>
    <linearGradient
       inkscape:collect="always"
       xlink:href="#linearGradient18340"
       id="linearGradient2999"
       gradientUnits="userSpaceOnUse"
       gradientTransform="matrix(2.600838,0,0,2.600838,-1259.9966,-1360.7093)"
       x1="497.28485"
       y1="893.09821"
       x2="514.71661"
       y2="914.48822" />
    <linearGradient
       inkscape:collect="always"
       xlink:href="#linearGradient3054"
       id="linearGradient3060"
       x1="69.82679"
       y1="921.4212"
       x2="61.998112"
       y2="939.98273"
       gradientUnits="userSpaceOnUse"
       gradientTransform="matrix(0.99317849,0,0,0.99317849,0.03040835,7.1794116)" />
    <linearGradient
       inkscape:collect="always"
       xlink:href="#linearGradient3062"
       id="linearGradient3068"
       x1="21.59201"
       y1="973.19147"
       x2="20.581858"
       y2="958.79681"
       gradientUnits="userSpaceOnUse"
       gradientTransform="matrix(0.99317849,0,0,0.99317849,0.03040835,7.1794116)" />
    <linearGradient
       inkscape:collect="always"
       xlink:href="#linearGradient3062"
       id="linearGradient3070"
       x1="111.06616"
       y1="987.58972"
       x2="105.54338"
       y2="943.26929"
       gradientUnits="userSpaceOnUse"
       gradientTransform="matrix(0.99317849,0,0,0.99317849,0.03040835,7.1794116)" />
    <linearGradient
       inkscape:collect="always"
       xlink:href="#linearGradient3062"
       id="linearGradient3072"
       x1="82.036057"
       y1="999.61029"
       x2="35.415283"
       y2="967.03284"
       gradientUnits="userSpaceOnUse"
       gradientTransform="matrix(0.99317849,0,0,0.99317849,0.03040835,7.1794116)" />
    <linearGradient
       inkscape:collect="always"
       xlink:href="#linearGradient3062"
       id="linearGradient3074"
       x1="74.571709"
       y1="1026.5024"
       x2="57.744755"
       y2="1002.2588"
       gradientUnits="userSpaceOnUse"
       gradientTransform="matrix(0.99317849,0,0,0.99317849,0.03040835,7.1794116)" />
    <linearGradient
       inkscape:collect="always"
       xlink:href="#linearGradient3054"
       id="linearGradient3076"
       x1="38.941319"
       y1="993.79962"
       x2="37.44273"
       y2="1006.0477"
       gradientUnits="userSpaceOnUse"
       gradientTransform="matrix(0.99317849,0,0,0.99317849,0.03040835,7.1794116)" />
    <linearGradient
       inkscape:collect="always"
       xlink:href="#linearGradient3054"
       id="linearGradient3078"
       x1="16.346569"
       y1="1000.5446"
       x2="15.150691"
       y2="1017.7253"
       gradientUnits="userSpaceOnUse"
       gradientTransform="matrix(0.99317849,0,0,0.99317849,0.03040835,7.1794116)" />
    <linearGradient
       inkscape:collect="always"
       xlink:href="#linearGradient3062"
       id="linearGradient3080"
       x1="75.312744"
       y1="1056.5237"
       x2="65.585968"
       y2="1017.8111"
       gradientUnits="userSpaceOnUse"
       gradientTransform="matrix(0.99317849,0,0,0.99317849,0.03040835,7.1794116)" />
    <linearGradient
       inkscape:collect="always"
       xlink:href="#linearGradient3054"
       id="linearGradient3082"
       x1="61.591572"
       y1="945.99695"
       x2="59.903915"
       y2="969.89331"
       gradientUnits="userSpaceOnUse"
       gradientTransform="matrix(0.99317849,0,0,0.99317849,0.03040835,7.1794116)" />
    <linearGradient
       inkscape:collect="always"
       xlink:href="#linearGradient3062"
       id="linearGradient3086"
       x1="357.42224"
       y1="1264.6361"
       x2="27.427252"
       y2="950.45721"
       gradientUnits="userSpaceOnUse"
       gradientTransform="matrix(0.99317849,0,0,0.99317849,2.01677,7.1794116)" />
    <linearGradient
       inkscape:collect="always"
       xlink:href="#linearGradient3054"
       id="linearGradient3088"
       x1="116.26254"
       y1="989.53357"
       x2="108.70621"
       y2="1019.7131"
       gradientUnits="userSpaceOnUse"
       gradientTransform="matrix(0.99317849,0,0,0.99317849,0.03040835,7.1794116)" />
    <linearGradient
       inkscape:collect="always"
       xlink:href="#linearGradient3062"
       id="linearGradient3860"
       x1="87.120102"
       y1="64.318718"
       x2="73.124992"
       y2="85.857147"
       gradientUnits="userSpaceOnUse" />
  </defs>
  <sodipodi:namedview
     id="base"
     pagecolor="#ffffff"
     bordercolor="#666666"
     borderopacity="1.0"
     inkscape:pageopacity="0.0"
     inkscape:pageshadow="2"
     inkscape:zoom="1.4"
     inkscape:cx="173.78881"
     inkscape:cy="46.74212"
     inkscape:document-units="px"
     inkscape:current-layer="layer1"
     showgrid="false"
     inkscape:window-width="1366"
     inkscape:window-height="717"
     inkscape:window-x="0"
     inkscape:window-y="0"
     inkscape:window-maximized="1" />
  <metadata
     id="metadata24498">
    <rdf:RDF>
      <cc:Work
         rdf:about="">
        <dc:format>image/svg+xml</dc:format>
        <dc:type
           rdf:resource="http://purl.org/dc/dcmitype/StillImage" />
        <dc:title />
      </cc:Work>
    </rdf:RDF>
  </metadata>
  <g
     inkscape:label="Capa 1"
     inkscape:groupmode="layer"
     id="layer1"
     transform="translate(0,-924.36218)">
    <path
       sodipodi:nodetypes="cccccscccccccccsccccsccccccccscccccccccccsccsccccccsccsccscccsccc"
       inkscape:connector-curvature="0"
       id="path24455"
       d="m 65.21163,927.13405 -7.883772,1.05658 c -3.481398,0.12579 -6.509977,2.22966 -6.420829,5.60806 l 0,1.70679 C 33.25088,936.6042 16.04058,945.07149 7.50555,960.61983 c -1.91077,3.01569 -0.70206,7.52186 2.51955,9.1842 0.84605,0.43655 1.78245,0.64626 2.73055,0.66133 2.76233,0.21929 7.24972,0.008 9.36737,-0.0564 2.5344,0.0212 5.13171,-1.27805 6.18922,-3.61207 6.15993,-11.56796 20.054973,-17.83105 34.948757,-17.79948 0.218768,4.8e-4 0.431358,-0.003 0.650205,0 0.02731,4e-4 0.05403,-4.6e-4 0.08154,0 12.236356,1.95775 23.504462,8.04861 29.909669,17.7182 1.052392,1.60296 2.894728,2.5862 4.831823,2.82661 2.511286,0.32181 4.523676,0.57406 7.009326,0.70192 1.76116,0.10065 3.56914,-0.46835 4.864,-1.67315 2.1864,-2.03429 2.6703,-5.65823 1.0943,-8.19493 -8.94481,-13.92018 -24.065035,-21.7106 -39.744036,-23.81391 l 0,-2.92595 c -1.160221,-3.5996 -3.678365,-6.51015 -6.746065,-6.50209 z m -11.297396,29.09687 c -16.639314,0.83024 -31.259984,13.62341 -33.810894,31.61641 -0.39295,2.73628 1.39922,5.49366 3.91273,6.72846 2.98907,1.36822 7.16216,1.39137 11.77372,1.31791 l 40.231724,-1.46297 c -3.691019,6.41177 -10.017884,11.00257 -17.149303,11.54117 -2.947724,-0.8357 -5.999622,-2.4572 -9.590578,-5.5267 -1.087471,-0.91443 -2.485231,-1.40919 -3.902457,-1.47244 -2.415986,-0.38856 -5.826036,-0.50684 -8.237946,-0.61863 -2.13181,-0.15176 -4.35494,0.59575 -5.74037,2.17227 -2.28105,2.5958 -1.86288,6.9713 0.81277,9.1843 5.39961,4.4773 10.968,7.0788 16.366104,8.3584 4.123011,1.148 12.445053,1.9054 18.338842,1.6385 17.086295,-0.8562 29.887065,-15.1281 32.347903,-31.45386 0.521538,-3.74344 -2.887289,-7.52638 -6.664625,-7.39613 -2.057181,-0.36992 -5.119458,-0.43684 -7.071034,-0.65023 l -40.55696,1.38171 c 3.780117,-7.04693 10.404032,-11.3359 17.555662,-11.7038 3.907561,0.8621 7.696815,2.61402 10.891006,5.77063 1.122133,1.22596 2.733039,1.91538 4.397904,2.05167 2.81427,0.29247 4.700773,0.85739 7.346392,0.80161 2.056783,0.17321 4.208773,-0.55477 5.568126,-2.12127 2.234393,-2.57484 1.924303,-6.95066 -0.65081,-9.18475 -7.814428,-7.96082 -17.858561,-10.38668 -26.333502,-10.32204 -3.412353,-0.60748 -6.744983,-0.80436 -9.834404,-0.65022 z m 44.945757,46.97758 c -2.368056,0.1751 -4.624935,1.697 -5.608072,3.82 -6.161888,12.8103 -21.206139,20.4278 -37.955975,19.4251 -9.197389,-2.0297 -18.546984,-6.8716 -26.902444,-15.1986 -0.97872,-1.0816 -2.34226,-1.7548 -3.77927,-1.9842 -2.55028,-0.7083 -6.20991,-0.963 -9.12424,-1.29 -2.05686,-0.2617 -4.24262,0.3077 -5.70871,1.73 -2.5628,2.4861 -2.36557,7.0725 0.3251,9.428 12.19867,11.7933 26.60304,18.697 40.800649,20.2378 l 0,2.8447 c 0,2.7384 2.065782,5.288 4.698926,6.1732 3.322699,0.7433 5.465074,1.324 8.656802,1.8144 1.177701,0.2255 2.412738,0.1428 3.532776,-0.2892 2.459348,-0.9486 4.197361,-3.5185 4.162033,-6.1542 l 0,-3.6574 c 17.390764,-1.8357 32.666054,-11.3853 39.906594,-26.9024 1.00404,-2.0473 0.82318,-4.6265 -0.45675,-6.5136 -0.89437,-1.3186 -2.30115,-2.2636 -3.84318,-2.6533 -2.79772,-0.5668 -5.75551,-0.7759 -8.704239,-0.8301 z"
       style="font-size:medium;font-style:normal;font-variant:normal;font-weight:normal;font-stretch:normal;text-indent:0;text-align:start;text-decoration:none;line-height:normal;letter-spacing:normal;word-spacing:normal;text-transform:none;direction:ltr;block-progression:tb;writing-mode:lr-tb;text-anchor:start;baseline-shift:baseline;color:#000000;fill:none;stroke:url(#linearGradient24463);stroke-width:4.27066755;stroke-linecap:round;stroke-linejoin:round;stroke-miterlimit:4;stroke-opacity:1;stroke-dasharray:none;marker:none;visibility:visible;display:inline;overflow:visible;enable-background:accumulate;font-family:Sans;-inkscape-font-specification:Sans" />
    <path
       style="font-size:medium;font-style:normal;font-variant:normal;font-weight:normal;font-stretch:normal;text-indent:0;text-align:start;text-decoration:none;line-height:normal;letter-spacing:normal;word-spacing:normal;text-transform:none;direction:ltr;block-progression:tb;writing-mode:lr-tb;text-anchor:start;baseline-shift:baseline;color:#000000;fill:url(#linearGradient24453);fill-opacity:1;stroke:none;stroke-width:5;marker:none;visibility:visible;display:inline;overflow:visible;enable-background:accumulate;font-family:Sans;-inkscape-font-specification:Sans"
       d="m 65.211631,927.13405 -7.883772,1.05658 c -3.481398,0.12579 -6.509977,2.22966 -6.420829,5.60806 l 0,1.70679 c -17.656151,1.09872 -34.866444,9.56601 -43.4014825,25.11435 -1.9107662,3.01569 -0.7020581,7.52186 2.5195545,9.1842 0.846049,0.43655 1.782448,0.64626 2.730546,0.66133 2.762337,0.21929 7.249726,0.008 9.367371,-0.0564 2.534403,0.0212 5.131714,-1.27805 6.18922,-3.61207 6.159932,-11.56796 20.054975,-17.83105 34.948759,-17.79948 0.218768,4.8e-4 0.431358,-0.003 0.650205,0 0.02731,4e-4 0.05403,-4.6e-4 0.08154,0 12.236356,1.95775 23.504462,8.04861 29.909669,17.7182 1.052392,1.60296 2.894728,2.5862 4.831823,2.82661 2.511285,0.32181 4.523675,0.57406 7.009325,0.70192 1.76116,0.10065 3.56914,-0.46835 4.864,-1.67315 2.1864,-2.03429 2.6703,-5.65823 1.0943,-8.19493 -8.94481,-13.92018 -24.065034,-21.7106 -39.744035,-23.81391 l 0,-2.92595 c -1.160221,-3.5996 -3.678365,-6.51015 -6.746065,-6.50209 z m -11.297396,29.09687 c -16.639315,0.83024 -31.259984,13.62341 -33.810894,31.61641 -0.392951,2.73628 1.39922,5.49366 3.912726,6.72846 2.98907,1.36822 7.162168,1.39137 11.773724,1.31791 l 40.231724,-1.46297 c -3.691019,6.41177 -10.017884,11.00257 -17.149303,11.54117 -2.947724,-0.8357 -5.999622,-2.4572 -9.590578,-5.5267 -1.087471,-0.91443 -2.485231,-1.40919 -3.902457,-1.47244 -2.415986,-0.38856 -5.826034,-0.50684 -8.237948,-0.61863 -2.131808,-0.15176 -4.354939,0.59575 -5.740363,2.17227 -2.281053,2.5958 -1.862885,6.9713 0.812767,9.1843 5.399604,4.4773 10.967998,7.0788 16.366102,8.3584 4.123011,1.148 12.445053,1.9054 18.338842,1.6385 17.086295,-0.8562 29.887065,-15.1281 32.347903,-31.45386 0.521537,-3.74344 -2.887289,-7.52638 -6.664625,-7.39613 -2.057181,-0.36992 -5.119458,-0.43684 -7.071034,-0.65023 l -40.55696,1.38171 c 3.780117,-7.04693 10.404032,-11.3359 17.555662,-11.7038 3.907561,0.8621 7.696815,2.61402 10.891006,5.77063 1.122133,1.22596 2.733039,1.91538 4.397904,2.05167 2.81427,0.29247 4.700773,0.85739 7.346392,0.80161 2.056783,0.17321 4.208773,-0.55477 5.568126,-2.12127 2.234393,-2.57484 1.924303,-6.95066 -0.65081,-9.18475 -7.814428,-7.96082 -17.858561,-10.38668 -26.333502,-10.32204 -3.412353,-0.60748 -6.744983,-0.80436 -9.834404,-0.65022 z m 44.945757,46.97758 c -2.368056,0.1751 -4.624935,1.697 -5.608072,3.82 -6.161888,12.8103 -21.206139,20.4278 -37.955975,19.4251 -9.197389,-2.0297 -18.546982,-6.8716 -26.902444,-15.1986 -0.978718,-1.0816 -2.342262,-1.7548 -3.779272,-1.9842 -2.550274,-0.7083 -6.209908,-0.963 -9.124242,-1.29 -2.056852,-0.2617 -4.24262,0.3077 -5.7087101,1.73 -2.5627978,2.4861 -2.3655624,7.0725 0.3251071,9.428 12.198665,11.7933 26.60304,18.697 40.800646,20.2378 l 0,2.8447 c 0,2.7384 2.065782,5.288 4.698926,6.1732 3.322699,0.7433 5.465074,1.324 8.656802,1.8144 1.177701,0.2255 2.412738,0.1428 3.532776,-0.2892 2.459348,-0.9486 4.197361,-3.5185 4.162033,-6.1542 l 0,-3.6574 c 17.390764,-1.8357 32.666053,-11.3853 39.906593,-26.9024 1.00404,-2.0473 0.82318,-4.6265 -0.45675,-6.5136 -0.89437,-1.3186 -2.30115,-2.2636 -3.84318,-2.6533 -2.79772,-0.5668 -5.75551,-0.7759 -8.704238,-0.8301 z"
       id="path7906"
       inkscape:connector-curvature="0"
       sodipodi:nodetypes="cccccscccccccccsccccsccccccccscccccccccccsccsccccccsccsccscccsccc" />
    <path
       style="font-size:medium;font-style:normal;font-variant:normal;font-weight:normal;font-stretch:normal;text-indent:0;text-align:start;text-decoration:none;line-height:normal;letter-spacing:normal;word-spacing:normal;text-transform:none;direction:ltr;block-progression:tb;writing-mode:lr-tb;text-anchor:start;baseline-shift:baseline;color:#000000;fill:url(#linearGradient3070);fill-opacity:1;stroke:none;stroke-width:5;marker:none;visibility:visible;display:inline;overflow:visible;enable-background:accumulate;font-family:Sans;-inkscape-font-specification:Sans"
       d="m 86.592121,940.35098 -16.759887,9.93178 c 9.912295,2.74896 18.714023,8.31086 24.084578,16.41848 1.052392,1.60296 2.873613,2.61498 4.810708,2.85539 2.51128,0.32181 4.52868,0.55495 7.01432,0.68281 1.76116,0.10065 3.57792,-0.47119 4.87279,-1.67599 2.18639,-2.03428 2.66229,-5.65701 1.08628,-8.19372 -6.09223,-9.48092 -15.061742,-16.085 -25.108789,-20.01875 z"
       id="path3052"
       inkscape:connector-curvature="0" />
    <path
       style="font-size:medium;font-style:normal;font-variant:normal;font-weight:normal;font-stretch:normal;text-indent:0;text-align:start;text-decoration:none;line-height:normal;letter-spacing:normal;word-spacing:normal;text-transform:none;direction:ltr;block-progression:tb;writing-mode:lr-tb;text-anchor:start;baseline-shift:baseline;color:#000000;fill:url(#linearGradient3068);fill-opacity:1;stroke:none;stroke-width:5;marker:none;visibility:visible;display:inline;overflow:visible;enable-background:accumulate;font-family:Sans;-inkscape-font-specification:Sans"
       d="m 38.671259,955.74524 -30.6333491,3.94168 c -0.1812054,0.31118 -0.3535715,0.61402 -0.5276261,0.93111 -1.9107661,3.01568 -0.7076297,7.52455 2.5139832,9.1869 0.846049,0.43655 1.783143,0.6367 2.731241,0.65177 2.762337,0.21929 7.255476,0.002 9.373122,-0.0621 2.534402,0.0212 5.118822,-1.26626 6.176328,-3.60028 2.405845,-4.51801 6.00196,-8.20846 10.366301,-11.04911 z"
       id="path3050"
       inkscape:connector-curvature="0" />
    <path
       style="font-size:medium;font-style:normal;font-variant:normal;font-weight:normal;font-stretch:normal;text-indent:0;text-align:start;text-decoration:none;line-height:normal;letter-spacing:normal;word-spacing:normal;text-transform:none;direction:ltr;block-progression:tb;writing-mode:lr-tb;text-anchor:start;baseline-shift:baseline;color:#000000;fill:url(#linearGradient3072);fill-opacity:1;stroke:none;stroke-width:5;marker:none;visibility:visible;display:inline;overflow:visible;enable-background:accumulate;font-family:Sans;-inkscape-font-specification:Sans"
       d="m 23.990839,975.67089 c -1.920673,3.6795 -3.255739,7.76597 -3.879603,12.16643 -0.392951,2.73628 1.397134,5.5002 3.91064,6.735 2.98907,1.36822 7.151402,1.40804 11.762958,1.33458 l 37.399377,-1.39666 1.27251,-13.93553 -29.484986,1.02421 c 0.849199,-1.58309 1.83852,-3.02259 2.948498,-4.31412 l -23.929394,-1.61391 z"
       id="path3048"
       inkscape:connector-curvature="0" />
    <path
       style="font-size:medium;font-style:normal;font-variant:normal;font-weight:normal;font-stretch:normal;text-indent:0;text-align:start;text-decoration:none;line-height:normal;letter-spacing:normal;word-spacing:normal;text-transform:none;direction:ltr;block-progression:tb;writing-mode:lr-tb;text-anchor:start;baseline-shift:baseline;color:#000000;fill:url(#linearGradient3074);fill-opacity:1;stroke:none;stroke-width:5;marker:none;visibility:visible;display:inline;overflow:visible;enable-background:accumulate;font-family:Sans;-inkscape-font-specification:Sans"
       d="m 29.94991,1005.0007 c 0.09651,1.7832 0.861138,3.5559 2.265689,4.7176 5.399603,4.4774 10.958304,7.0694 16.356408,8.3489 4.123011,1.148 12.448976,1.9118 18.342765,1.645 10.325155,-0.5175 19.094396,-5.9411 24.953609,-13.7494 -0.875587,-0.014 -13.501253,1.9032 -28.285146,1.6774 -0.982903,0.2368 -3.685719,-1.7545 -4.707001,-1.6774 -0.53146,-0.1507 -1.073135,-0.322 -1.613915,-0.5276 -13.455114,-0.205 -24.653485,-0.4009 -27.312409,-0.4345 z"
       id="path3046"
       inkscape:connector-curvature="0"
       sodipodi:nodetypes="ccccccccc" />
    <path
       style="font-size:medium;font-style:normal;font-variant:normal;font-weight:normal;font-stretch:normal;text-indent:0;text-align:start;text-decoration:none;line-height:normal;letter-spacing:normal;word-spacing:normal;text-transform:none;direction:ltr;block-progression:tb;writing-mode:lr-tb;text-anchor:start;baseline-shift:baseline;color:#000000;fill:url(#linearGradient3080);fill-opacity:1;stroke:none;stroke-width:5;marker:none;visibility:visible;display:inline;overflow:visible;enable-background:accumulate;font-family:Sans;-inkscape-font-specification:Sans"
       d="m 18.031768,1025.8884 c 10.295829,7.6968 21.636668,12.2822 32.868001,13.5011 l 0,2.8243 c 0,2.7384 2.084453,5.2913 4.717598,6.1764 3.322698,0.7433 5.467547,1.3407 8.659275,1.8311 1.177701,0.2255 2.387124,0.1217 3.507161,-0.3104 2.459348,-0.9485 4.194262,-3.5095 4.158935,-6.1452 l 0,-3.6624 c 10.527473,-1.1112 20.300187,-5.0442 27.964182,-11.4215 -16.257752,0.2425 -52.719293,2.3588 -53.693712,2.3588 -1.000889,0 -19.704229,-3.4775 -28.18144,-5.1522 z"
       id="path3001"
       inkscape:connector-curvature="0" />
    <path
       style="font-size:medium;font-style:normal;font-variant:normal;font-weight:normal;font-stretch:normal;text-indent:0;text-align:start;text-decoration:none;line-height:normal;letter-spacing:normal;word-spacing:normal;text-transform:none;direction:ltr;block-progression:tb;writing-mode:lr-tb;text-anchor:start;baseline-shift:baseline;color:#000000;fill:url(#linearGradient3060);fill-opacity:1;stroke:none;stroke-width:5;marker:none;visibility:visible;display:inline;overflow:visible;enable-background:accumulate;font-family:Sans;-inkscape-font-specification:Sans"
       d="m 65.207746,927.12929 -7.883354,1.05525 c -3.481398,0.1258 -6.513771,2.23927 -6.424623,5.61767 l 0,1.67599 24.581167,7.72817 0.465553,-5.95908 c -1.323083,-0.26173 -2.669108,-0.50377 -4.003751,-0.68281 l 0,-2.91746 c -1.160221,-3.59959 -3.667292,-6.52579 -6.734992,-6.51773 z"
       id="path3030"
       inkscape:connector-curvature="0" />
    <path
       style="font-size:medium;font-style:normal;font-variant:normal;font-weight:normal;font-stretch:normal;text-indent:0;text-align:start;text-decoration:none;line-height:normal;letter-spacing:normal;word-spacing:normal;text-transform:none;direction:ltr;block-progression:tb;writing-mode:lr-tb;text-anchor:start;baseline-shift:baseline;color:#000000;fill:url(#linearGradient3082);fill-opacity:1;stroke:none;stroke-width:5;marker:none;visibility:visible;display:inline;overflow:visible;enable-background:accumulate;font-family:Sans;-inkscape-font-specification:Sans"
       d="m 56.26914,956.17976 c -0.800204,-0.006 -1.586444,0.0235 -2.358799,0.0621 -10.970977,0.54741 -21.070679,6.29099 -27.405519,15.30116 l 25.54331,1.98636 c 3.125314,-2.18034 6.741467,-3.43846 10.490447,-3.63131 2.930671,0.64657 5.783497,1.76647 8.379944,3.63131 l 5.027966,-0.27934 7.976465,-10.98703 c -6.533993,-4.06581 -13.798795,-5.418 -20.173938,-5.36937 -2.559262,-0.45561 -5.079274,-0.69503 -7.479876,-0.71385 z"
       id="path3028"
       inkscape:connector-curvature="0" />
    <path
       style="font-size:medium;font-style:normal;font-variant:normal;font-weight:normal;font-stretch:normal;text-indent:0;text-align:start;text-decoration:none;line-height:normal;letter-spacing:normal;word-spacing:normal;text-transform:none;direction:ltr;block-progression:tb;writing-mode:lr-tb;text-anchor:start;baseline-shift:baseline;color:#000000;fill:url(#linearGradient3076);fill-opacity:1;stroke:none;stroke-width:5;marker:none;visibility:visible;display:inline;overflow:visible;enable-background:accumulate;font-family:Sans;-inkscape-font-specification:Sans"
       d="m 36.343497,998.32777 c -1.872608,0.063 -3.722612,0.82412 -4.934856,2.20363 -1.242228,1.4136 -1.684113,3.3506 -1.396657,5.1831 l 19.149723,2.6692 2.979535,-5.7108 c -0.919157,-0.641 -1.863084,-1.3864 -2.855388,-2.2347 -1.087471,-0.91435 -2.493414,-1.39541 -3.91064,-1.45866 -2.415987,-0.38856 -5.812846,-0.50894 -8.22476,-0.62073 -0.266479,-0.019 -0.539445,-0.04 -0.806957,-0.0311 z"
       id="path3026"
       inkscape:connector-curvature="0" />
    <path
       style="fill:url(#linearGradient3860);stroke:none"
       d="M 75.982143,70.053571 C 72.015085,77.241373 67.08536,79.729152 61.696429,81.125 l 16.517857,6.607143 C 86.639675,84.166913 93.148684,76.860292 96.339286,69.25 z"
       id="path3858"
       inkscape:connector-curvature="0"
       transform="translate(0,924.36218)"
       sodipodi:nodetypes="ccccc" />
    <path
       style="font-size:medium;font-style:normal;font-variant:normal;font-weight:normal;font-stretch:normal;text-indent:0;text-align:start;text-decoration:none;line-height:normal;letter-spacing:normal;word-spacing:normal;text-transform:none;direction:ltr;block-progression:tb;writing-mode:lr-tb;text-anchor:start;baseline-shift:baseline;color:#000000;fill:url(#linearGradient3088);fill-opacity:1;stroke:none;stroke-width:5;marker:none;visibility:visible;display:inline;overflow:visible;enable-background:accumulate;font-family:Sans;-inkscape-font-specification:Sans"
       d="m 98.851668,1003.2006 c -2.368056,0.1751 -4.603492,1.6944 -5.586629,3.8175 -3.695091,7.6819 -10.614009,13.4896 -19.149723,16.6978 l 21.011932,8.442 c 7.163722,-4.5855 13.007062,-10.9874 16.728852,-18.9635 1.00403,-2.0472 0.84541,-4.6306 -0.43452,-6.5177 -0.89436,-1.3185 -2.30653,-2.2485 -3.84856,-2.6382 -2.79772,-0.5668 -5.77263,-0.7837 -8.721352,-0.8379 z"
       id="path3024"
       inkscape:connector-curvature="0" />
    <path
       style="font-size:medium;font-style:normal;font-variant:normal;font-weight:normal;font-stretch:normal;text-indent:0;text-align:start;text-decoration:none;line-height:normal;letter-spacing:normal;word-spacing:normal;text-transform:none;direction:ltr;block-progression:tb;writing-mode:lr-tb;text-anchor:start;baseline-shift:baseline;color:#000000;fill:url(#linearGradient3078);fill-opacity:1;stroke:none;stroke-width:5;marker:none;visibility:visible;display:inline;overflow:visible;enable-background:accumulate;font-family:Sans;-inkscape-font-specification:Sans"
       d="m 14.710828,1007.9182 c -1.816345,-0.047 -3.652027,0.5557 -4.9348558,1.8001 -1.9047574,1.8477 -2.2765339,4.8417 -1.2414731,7.2315 l 29.6401709,10.056 5.245223,-4.7797 c -5.190509,-2.6057 -10.26431,-6.2146 -15.021824,-10.956 -0.978718,-1.0815 -2.349483,-1.7569 -3.786493,-1.9863 -2.550274,-0.7082 -6.210494,-0.9766 -9.124827,-1.3036 -0.257105,-0.033 -0.516443,-0.056 -0.775921,-0.063 z"
       id="path3005"
       inkscape:connector-curvature="0" />
    <path
       inkscape:connector-curvature="0"
       style="font-size:medium;font-style:normal;font-variant:normal;font-weight:normal;font-stretch:normal;text-indent:0;text-align:start;text-decoration:none;line-height:normal;letter-spacing:normal;word-spacing:normal;text-transform:none;direction:ltr;block-progression:tb;writing-mode:lr-tb;text-anchor:start;baseline-shift:baseline;color:#000000;fill:url(#linearGradient2999);fill-opacity:1;stroke:none;stroke-width:5;marker:none;visibility:visible;display:inline;overflow:visible;enable-background:accumulate;font-family:Sans;-inkscape-font-specification:Sans"
       d="m 65.21163,927.13405 a 6.5027451,6.5027451 0 0 0 -6.25827,6.66464 l 0,2.35701 c -17.12754,1.09873 -33.82157,8.99704 -42.10105,24.54542 a 6.5027451,6.5027451 0 1 0 11.45993,6.09571 c 6.15993,-11.56797 20.05497,-17.83105 34.94876,-17.79949 14.89381,0.0315 29.80484,6.44218 37.46831,18.3684 a 6.5047754,6.5047754 0 1 0 10.97232,-6.98975 C 102.7568,946.45582 87.6366,938.6654 71.95757,936.56209 l 0,-2.92596 a 6.5027451,6.5027451 0 0 0 -6.74594,-6.50208 z m -3.33231,29.74709 c -16.14117,0.83025 -30.27976,13.62339 -32.75431,31.61642 a 6.5027451,6.5027451 0 0 0 6.66465,7.39614 l 48.1155,-1.7881 c -3.56154,7.0807 -10.16546,12.2234 -17.63695,12.5978 -5.69152,0.2853 -10.41672,-0.6422 -16.98672,-6.2582 a 6.5147821,6.5147821 0 1 0 -8.45271,9.9156 c 8.74503,7.4754 17.96379,9.754 26.08966,9.3468 17.0863,-0.8562 29.88707,-15.1281 32.3479,-31.45386 a 6.5027451,6.5027451 0 0 0 -6.66462,-7.39613 l -48.19678,1.70678 c 3.66742,-7.64541 10.63927,-12.29404 18.12458,-12.6791 6.22954,-0.32038 13.08553,1.12182 18.28714,6.42083 a 6.5027451,6.5027451 0 1 0 9.26548,-9.10294 C 81.69347,958.65739 70.70256,956.42727 61.87932,956.88114 z m 43.6453,46.97766 a 6.5027451,6.5027451 0 0 0 -5.44548,3.8199 c -10.23028,21.9245 -45.80555,29.3684 -71.68564,3.5763 a 6.5027451,6.5027451 0 1 0 -9.18418,9.1841 c 11.83347,11.7934 25.97152,18.0468 39.74404,19.5875 l 0,3.9013 a 6.5027451,6.5027451 0 1 0 13.00421,-0.1623 l 0,-3.6575 c 17.39076,-1.8357 32.66605,-11.3852 39.90659,-26.9024 a 6.5027451,6.5027451 0 0 0 -6.33954,-9.3467 z"
       id="path2997" />
    <path
       id="path3084"
       d="m 65.21163,927.13405 a 6.5027451,6.5027451 0 0 0 -6.25827,6.66464 l 0,2.35701 c -17.12754,1.09873 -33.82157,8.99704 -42.10105,24.54542 a 6.5027451,6.5027451 0 1 0 11.45993,6.09571 c 6.15993,-11.56797 20.05497,-17.83105 34.94876,-17.79949 14.89381,0.0315 29.80484,6.44218 37.46831,18.3684 a 6.5047754,6.5047754 0 1 0 10.97232,-6.98975 C 102.7568,946.45582 87.6366,938.6654 71.95757,936.56209 l 0,-2.92596 a 6.5027451,6.5027451 0 0 0 -6.74594,-6.50208 z m -3.33231,29.74709 c -16.14117,0.83025 -30.27976,13.62339 -32.75431,31.61642 a 6.5027451,6.5027451 0 0 0 6.66465,7.39614 l 48.1155,-1.7881 c -3.56154,7.0807 -10.16546,12.2234 -17.63695,12.5978 -5.69152,0.2853 -10.41672,-0.6422 -16.98672,-6.2582 a 6.5147821,6.5147821 0 1 0 -8.45271,9.9156 c 8.74503,7.4754 17.96379,9.754 26.08966,9.3468 17.0863,-0.8562 29.88707,-15.1281 32.3479,-31.45386 a 6.5027451,6.5027451 0 0 0 -6.66462,-7.39613 l -48.19678,1.70678 c 3.66742,-7.64541 10.63927,-12.29404 18.12458,-12.6791 6.22954,-0.32038 13.08553,1.12182 18.28714,6.42083 a 6.5027451,6.5027451 0 1 0 9.26548,-9.10294 C 81.69347,958.65739 70.70256,956.42727 61.87932,956.88114 z m 43.6453,46.97766 a 6.5027451,6.5027451 0 0 0 -5.44548,3.8199 c -10.23028,21.9245 -45.80555,29.3684 -71.68564,3.5763 a 6.5027451,6.5027451 0 1 0 -9.18418,9.1841 c 11.83347,11.7934 25.97152,18.0468 39.74404,19.5875 l 0,3.9013 a 6.5027451,6.5027451 0 1 0 13.00421,-0.1623 l 0,-3.6575 c 17.39076,-1.8357 32.66605,-11.3852 39.90659,-26.9024 a 6.5027451,6.5027451 0 0 0 -6.33954,-9.3467 z"
       style="font-size:medium;font-style:normal;font-variant:normal;font-weight:normal;font-stretch:normal;text-indent:0;text-align:start;text-decoration:none;line-height:normal;letter-spacing:normal;word-spacing:normal;text-transform:none;direction:ltr;block-progression:tb;writing-mode:lr-tb;text-anchor:start;baseline-shift:baseline;color:#000000;fill:url(#linearGradient3086);fill-opacity:1;stroke:none;stroke-width:5;marker:none;visibility:visible;display:inline;overflow:visible;enable-background:accumulate;font-family:Sans;-inkscape-font-specification:Sans"
       inkscape:connector-curvature="0" />
  </g>
</svg>
