<?xml version="1.0" encoding="UTF-8" standalone="no"?>
<!-- Created with Inkscape (http://www.inkscape.org/) -->

<svg
   xmlns:dc="http://purl.org/dc/elements/1.1/"
   xmlns:cc="http://creativecommons.org/ns#"
   xmlns:rdf="http://www.w3.org/1999/02/22-rdf-syntax-ns#"
   xmlns:svg="http://www.w3.org/2000/svg"
   xmlns="http://www.w3.org/2000/svg"
   xmlns:xlink="http://www.w3.org/1999/xlink"
   xmlns:sodipodi="http://sodipodi.sourceforge.net/DTD/sodipodi-0.dtd"
   xmlns:inkscape="http://www.inkscape.org/namespaces/inkscape"
   version="1.1"
   width="128"
   height="128"
   id="svg2"
   inkscape:version="0.48.3.1 r9886"
   sodipodi:docname="tda.svg">
  <sodipodi:namedview
     pagecolor="#ffffff"
     bordercolor="#666666"
     borderopacity="1"
     objecttolerance="10"
     gridtolerance="10"
     guidetolerance="10"
     inkscape:pageopacity="0"
     inkscape:pageshadow="2"
     inkscape:window-width="1366"
     inkscape:window-height="717"
     id="namedview37168"
     showgrid="false"
     inkscape:zoom="1.7383042"
     inkscape:cx="85.319736"
     inkscape:cy="91.264411"
     inkscape:window-x="0"
     inkscape:window-y="0"
     inkscape:window-maximized="1"
     inkscape:current-layer="svg2" />
  <defs
     id="defs4">
    <linearGradient
       id="linearGradient4267">
      <stop
         style="stop-color:#c8edff;stop-opacity:0.96855348;"
         offset="0"
         id="stop4269" />
      <stop
         style="stop-color:#0f5ca2;stop-opacity:0.56603771;"
         offset="1"
         id="stop4271" />
    </linearGradient>
    <linearGradient
       inkscape:collect="always"
       xlink:href="#linearGradient4119"
       id="linearGradient4117"
       x1="348.56787"
       y1="127.42867"
       x2="471.33572"
       y2="116.79466"
       gradientUnits="userSpaceOnUse" />
    <linearGradient
       id="linearGradient4119">
      <stop
         id="stop4121"
         offset="0"
         style="stop-color:#edfafe;stop-opacity:1;" />
      <stop
         id="stop4123"
         offset="1"
         style="stop-color:#86c0f4;stop-opacity:0;" />
    </linearGradient>
    <radialGradient
       inkscape:collect="always"
       xlink:href="#linearGradient4267"
       id="radialGradient4265"
       cx="444.12881"
       cy="231.53154"
       fx="444.12881"
       fy="231.53154"
       r="121.43729"
       gradientTransform="matrix(2.3657917,0.22289952,-0.15821366,1.6792341,-570.17638,-253.3382)"
       gradientUnits="userSpaceOnUse" />
    <linearGradient
       inkscape:collect="always"
       xlink:href="#linearGradient5344"
       id="linearGradient3105"
       x1="7.9531264"
       y1="2.2416961"
       x2="13.667412"
       y2="-64.464973"
       gradientUnits="userSpaceOnUse"
       gradientTransform="translate(-0.87077853,166.03196)" />
    <linearGradient
       id="linearGradient5344">
      <stop
         style="stop-color:#000000;stop-opacity:1;"
         offset="0"
         id="stop5346" />
      <stop
         style="stop-color:#000000;stop-opacity:0;"
         offset="1"
         id="stop5348" />
    </linearGradient>
    <linearGradient
       inkscape:collect="always"
       xlink:href="#linearGradient5165-7-9-8-2"
       id="linearGradient3103"
       x1="22.933788"
       y1="-144.76825"
       x2="18.618809"
       y2="-96.331688"
       gradientUnits="userSpaceOnUse"
       gradientTransform="translate(-0.87077853,166.03196)" />
    <linearGradient
       id="linearGradient5165-7-9-8-2">
      <stop
         id="stop5167-4-8-6-9"
         style="stop-color:#ffffff;stop-opacity:1"
         offset="0" />
      <stop
         id="stop5169-5-5-2-9"
         style="stop-color:#ffffff;stop-opacity:0"
         offset="1" />
    </linearGradient>
    <linearGradient
       inkscape:collect="always"
       xlink:href="#linearGradient5344"
       id="linearGradient3107"
       gradientUnits="userSpaceOnUse"
       gradientTransform="matrix(5.3340639,0,0,5.3340639,-1452.351,-5838.5255)"
       x1="305.23422"
       y1="1137.0681"
       x2="283.35095"
       y2="1104.2024" />
    <linearGradient
       inkscape:collect="always"
       xlink:href="#linearGradient5344-6"
       id="linearGradient3105-3"
       x1="7.9531264"
       y1="2.2416961"
       x2="13.667412"
       y2="-64.464973"
       gradientUnits="userSpaceOnUse"
       gradientTransform="translate(-4.0351795e-8,140)" />
    <linearGradient
       id="linearGradient5344-6">
      <stop
         style="stop-color:#000000;stop-opacity:1;"
         offset="0"
         id="stop5346-4" />
      <stop
         style="stop-color:#000000;stop-opacity:0;"
         offset="1"
         id="stop5348-0" />
    </linearGradient>
    <linearGradient
       inkscape:collect="always"
       xlink:href="#linearGradient5165-7-9-8-2-3"
       id="linearGradient3103-4"
       x1="22.933788"
       y1="-144.76825"
       x2="18.618809"
       y2="-96.331688"
       gradientUnits="userSpaceOnUse"
       gradientTransform="translate(-4.0351795e-8,140)" />
    <linearGradient
       id="linearGradient5165-7-9-8-2-3">
      <stop
         id="stop5167-4-8-6-9-3"
         style="stop-color:#ffffff;stop-opacity:1"
         offset="0" />
      <stop
         id="stop5169-5-5-2-9-3"
         style="stop-color:#ffffff;stop-opacity:0"
         offset="1" />
    </linearGradient>
    <linearGradient
       inkscape:collect="always"
       xlink:href="#linearGradient5344-6"
       id="linearGradient3107-9"
       gradientUnits="userSpaceOnUse"
       gradientTransform="matrix(5.3340639,0,0,5.3340639,-1451.4802,-5864.5574)"
       x1="305.23422"
       y1="1137.0681"
       x2="283.35095"
       y2="1104.2024" />
  </defs>
  <metadata
     id="metadata7">
    <rdf:RDF>
      <cc:Work
         rdf:about="">
        <dc:format>image/svg+xml</dc:format>
        <dc:type
           rdf:resource="http://purl.org/dc/dcmitype/StillImage" />
        <dc:title />
      </cc:Work>
    </rdf:RDF>
  </metadata>
  <path
     style="fill:#2e6fbd;fill-opacity:1;fill-rule:evenodd;stroke:none"
     d="m 34.21875,5.0625028 c -1.32927,0.0554 -2.550557,0.27966 -3.65625,0.625 l -18.34375,2.71875 -0.5,0 0,0.1875 C 6.0032494,9.6428228 3.0625,14.185733 3.0625,19.750003 l 0,84.687497 c -0.07024,5.65226 2.0501037,10.0952 6.3125,11.5 l 18.96875,5.9375 c 0.02087,0.0102 0.04153,0.0212 0.0625,0.0313 1.892721,0.90932 4.164425,1.2325 6.78125,0.8125 l 78.28125,-11.8125 c 5.72052,-0.61974 9.4668,-6.06393 9.15625,-13.624997 l 0.40625,-74.2813 c 0.22248,-5.96534 -2.80168,-10.97622 -9.34375,-11.96875 L 35.84375,5.0937528 c -0.55631,-0.0273 -1.103066,-0.053 -1.625,-0.0313 z"
     id="path30949"
     inkscape:connector-curvature="0" />
  <path
     style="fill:url(#linearGradient3107-9);fill-rule:evenodd;stroke:none"
     d="M 29.25,16.718753 29.21875,113.125 c 0.448699,3.45828 1.407546,8.12456 4.34375,9.75 0.527128,-0.0229 1.067503,-0.0668 1.625,-0.15625 l 78.28125,-11.8125 c 5.72052,-0.61974 9.4668,-6.06393 9.15625,-13.624997 l 0.40625,-74.28125 c 0.22245,-5.96534 -2.80168,-10.97622 -9.34375,-11.96875 L 37.678453,5.2336928 C 33.707189,4.8130228 29.262938,10.014263 29.25,16.718753 z M 30.15625,122.5 c 0.647964,0.17153 1.314675,0.32617 2.03125,0.375 z"
     id="path30953"
     inkscape:connector-curvature="0"
     sodipodi:nodetypes="ccccccccccccc" />
  <path
     style="fill:url(#linearGradient3103-4);fill-rule:evenodd;stroke:none;display:inline"
     d="m 34.78125,5.3125028 -22.5625,3.09375 -0.5,0 0,0.1875 C 6.003249,9.6428228 3.0625,14.185733 3.0625,19.750003 l 0,25 26.1875,0 0,-28.03125 c 0.347051,-4.91678 2.274064,-9.9637802 5.53125,-11.4062502 z"
     id="path3073"
     inkscape:connector-curvature="0" />
  <path
     style="fill:url(#linearGradient3105-3);fill-rule:evenodd;stroke:none;display:inline"
     d="m 3.0625,68.406253 0,36.031247 c -0.07024,5.65226 2.050104,10.0952 6.3125,11.5 l 17.65625,6.03125 7.5,1.3125 c -3.710844,-1.04488 -4.81745,-6.34073 -5.3125,-10.15625 l 0,-44.718747 -26.15625,0 z"
     id="path3081"
     inkscape:connector-curvature="0" />
  <path
     inkscape:connector-curvature="0"
     id="path30957"
     d="m 35.825012,5.0844328 c -1.734374,-0.0853 -3.26759,0.13333 -4.667303,0.50133 L 11.65504,8.5863028 C 5.9395447,9.6353728 2.9871862,14.190033 2.9871862,19.754303 l 0,84.678437 c -0.07024,5.65226 2.0718035,10.09707 6.3341998,11.50187 l 19.669357,6.16693 c 1.792241,0.74027 3.774988,1.0512 6.167512,0.6672 l 78.344065,-11.8352 c 5.72052,-0.6192 9.47847,-6.1072 9.16792,-13.668267 l 0.33339,-74.34403 c 0.22245,-5.96534 -2.79254,-10.84214 -9.33461,-11.83467 L 35.825018,5.0855028 z"
     style="fill:none;stroke:#344b63;stroke-width:2.667032;stroke-linecap:butt;stroke-linejoin:miter;stroke-miterlimit:4;stroke-opacity:1;stroke-dasharray:none;display:inline"
     sodipodi:nodetypes="ccccccccccccc" />
  <path
     inkscape:connector-curvature="0"
     style="fill:#000000;fill-opacity:0.56431538;stroke:#000000;stroke-width:5.00000047999999975;stroke-miterlimit:4;stroke-dasharray:none;stroke-linejoin:round;stroke-linecap:round;stroke-opacity:0.57254905000000000"
     d="m 72.552236,50.099814 -0.06447,11.630724 c 0,0 -1.88689,-2.148321 -5.995881,-1.903418 -5.359558,0.319438 -10.122082,5.205694 -10.122082,10.873701 0,5.668005 4.906231,11.781739 10.44444,11.314685 5.538207,-0.467053 9.864194,-5.102734 9.864194,-9.293661 l 0,-22.867959 z m -33.71878,2.397254 -4.190671,0.378959 0,4.198596 -2.256515,0.134491 0,3.811033 2.12757,-0.126806 0,15.384368 c 0,3.536949 3.352995,7.920642 10.37997,7.328038 7.026971,-0.592605 9.993137,-7.772022 9.993137,-11.113164 -1.440336,0.121472 -3.932784,0.267074 -3.932784,0.267074 0,0 -0.468003,6.24047 -5.351164,6.652281 -5.478658,0.462032 -7.027431,-2.859414 -7.027431,-4.768641 l 0,-13.927446 12.50754,-0.745468 0,-3.74644 -12.249652,0.730098 z m 49.965687,6.388066 c -4.814936,0.286978 -10.508913,4.16468 -10.508913,11.025946 0,6.861285 7.352732,10.322764 10.508913,10.056594 3.156182,-0.26617 5.609051,-2.475434 5.609051,-2.475434 l 0.128944,1.991533 4.19067,-0.159631 c 0,0 0.0049,-5.733168 0.06447,-12.120672 0.05956,-6.387524 -5.082454,-8.611019 -9.993135,-8.318336 z m -0.257888,3.503435 c 3.047233,-0.18162 6.511658,1.016236 6.511658,5.683711 0,4.892384 -3.469655,7.973836 -6.447187,8.165266 -2.97753,0.191375 -6.392554,-3.194005 -6.511656,-7.005336 -0.119082,-3.811356 3.405612,-6.662358 6.447185,-6.843641 z m -22.113846,1.640988 c 2.834609,-0.196858 6.060354,1.464658 6.060354,5.581421 0,5.250369 -4.075502,8.006574 -5.802467,8.152214 -1.726969,0.14564 -6.253769,-1.875106 -6.253769,-7.304456 0,-3.699125 3.161273,-6.232389 5.995882,-6.429179 z"
     id="path3212"
     sodipodi:nodetypes="ccssssccccccccssccsscccccssscccsssscsscsssc" />
  <path
     inkscape:connector-curvature="0"
     style="fill:#000000;fill-opacity:0.56431538;stroke:#000000;stroke-width:5.00000047999999975;stroke-miterlimit:4;stroke-dasharray:none;stroke-linejoin:round;stroke-linecap:round;stroke-opacity:0.57254905000000000"
     d="m 95.791058,34.819827 c -6.312767,0.596595 -12.305408,4.344617 -16.919222,10.0526 5.531678,-3.562342 19.199332,-10.945647 29.049994,-3.522309 11.50257,8.667994 9.06123,22.04292 6.12922,31.887307 6.67796,-9.920148 7.80663,-26.384714 -3.44769,-34.243277 -4.80166,-3.352949 -9.90237,-4.63834 -14.812302,-4.174321 z m -1.532306,9.109294 c -5.916752,-0.103607 -11.62507,3.17803 -15.833837,8.641639 5.608504,-4.363064 15.992403,-9.241151 24.197675,-3.057736 9.58128,7.220233 5.97804,18.136991 5.1077,26.758118 4.28534,-7.51713 6.5014,-22.175472 -2.87308,-28.721426 -3.42825,-2.393861 -7.048408,-3.558431 -10.598458,-3.620595 z m -4.213845,8.076931 c -4.934904,0.215712 -9.535091,3.118504 -11.364608,6.239327 3.677706,-2.368352 12.41314,-6.789867 18.962297,-1.854548 7.647434,5.762958 5.029204,12.37853 4.852304,19.243352 3.42041,-6.13449 3.7793,-15.959887 -3.703074,-21.184617 -2.736308,-1.910678 -5.785976,-2.57294 -8.746919,-2.443514 z m -1.46846,13.321197 c -1.713546,0.244157 -3.182503,1.920286 -3.192306,3.642529 0,1.824338 1.657692,4.099793 3.479614,3.946144 1.821921,-0.153648 3.479613,-2.536587 3.479613,-4.360925 -0.01087,-1.913034 -1.862282,-3.499446 -3.766921,-3.227748 z"
     id="path3214"
     sodipodi:nodetypes="scsccsscscssscscssccscc" />
  <path
     id="path3208"
     d="m 97.487921,34.760024 c -6.374635,0.60271 -12.426008,4.324924 -17.08504,10.091944 5.585891,-3.599097 19.387497,-10.994226 29.334689,-3.49379 11.61531,8.758017 9.15004,22.224786 6.18929,32.171187 6.74342,-10.022852 7.88316,-26.611371 -3.48147,-34.551559 -4.84873,-3.387775 -9.99943,-4.686556 -14.957469,-4.217782 z m -1.547323,9.203742 c -5.97474,-0.104749 -11.739002,3.146229 -15.989019,8.666353 5.663471,-4.40812 16.149139,-9.272078 24.434821,-3.024444 9.67519,7.29522 6.03664,18.278196 5.15776,26.988707 4.32734,-7.594979 6.56512,-22.358405 -2.90124,-28.97235 -3.46185,-2.418725 -7.11748,-3.595418 -10.702322,-3.658266 z m -4.255142,8.160644 c -4.983271,0.217891 -9.628542,3.086061 -11.475989,6.239186 3.713748,-2.392788 12.534796,-6.795423 19.148139,-1.808846 7.722374,5.822809 5.078494,12.961203 4.899864,19.890189 3.45394,-6.062232 3.81633,-16.572576 -3.73938,-21.851573 -2.763116,-1.930525 -5.842673,-2.599691 -8.832634,-2.468956 z m -1.482854,13.394832 c -1.73034,0.246631 -3.213693,1.940093 -3.223592,3.680196 0,1.843257 1.673939,4.095112 3.513716,3.939958 1.839777,-0.155154 3.513716,-2.515547 3.513716,-4.358804 -0.01098,-1.932874 -1.880534,-3.535802 -3.80384,-3.26135 z"
     style="fill:#ffffff;fill-opacity:1;stroke:none"
     inkscape:connector-curvature="0"
     sodipodi:nodetypes="sccccsscscssscscssccscc" />
  <path
     id="path3206"
     d="m 74.035788,50.011395 -0.06447,11.630725 c 0,0 -1.88689,-2.148322 -5.995882,-1.903419 -5.359556,0.319438 -10.12208,5.205695 -10.12208,10.873702 0,5.668006 4.906231,11.745048 10.44444,11.277996 5.538205,-0.467054 9.864192,-5.102735 9.864192,-9.293662 l 0,-22.83127 z m -33.718777,2.397254 -4.190671,0.378958 0,4.198596 -2.256514,0.134492 0,3.811033 2.127571,-0.126807 0,15.347678 c 0,3.536949 3.352994,7.920645 10.379967,7.328039 7.026972,-0.592605 9.993138,-7.77202 9.993138,-11.113162 -1.440337,0.121472 -3.932784,0.267072 -3.932784,0.267072 0,0 -0.468004,6.240471 -5.351164,6.652282 -5.478656,0.462031 -7.027431,-2.859412 -7.027431,-4.76864 l 0,-13.890756 12.507539,-0.745469 0,-3.74644 -12.249651,0.730098 z m 49.965683,6.388066 c -4.814936,0.286978 -10.50891,4.164681 -10.50891,11.025948 0,6.861284 7.35273,10.286073 10.50891,10.019903 3.156184,-0.26617 5.609051,-2.475433 5.609051,-2.475433 l 0.128944,1.991532 4.190671,-0.159631 c 0,0 0.005,-5.696485 0.0645,-12.083984 0.0596,-6.387527 -5.082456,-8.611021 -9.993139,-8.318336 z m -0.257888,3.503435 c 3.047233,-0.18162 6.511658,1.016237 6.511658,5.683712 0,4.892385 -3.469653,7.937148 -6.447185,8.128576 -2.977532,0.191375 -6.392555,-3.157313 -6.511657,-6.968646 -0.119083,-3.811356 3.405613,-6.662359 6.447184,-6.843642 z m -22.113843,1.640988 c 2.834609,-0.196856 6.060353,1.464659 6.060353,5.581422 0,5.250369 -4.075502,7.969883 -5.802467,8.115524 -1.726969,0.14564 -6.253769,-1.838416 -6.253769,-7.267766 0,-3.699126 3.161273,-6.23239 5.995883,-6.42918 z"
     style="fill:#ffffff;fill-opacity:1;stroke:none"
     inkscape:connector-curvature="0"
     sodipodi:nodetypes="ccssssccccccccssccssccccccssccccccsscsscsssc" />
</svg>
