<?xml version="1.0" encoding="UTF-8" standalone="no"?>
<!-- Created with Inkscape (http://www.inkscape.org/) -->

<svg
   xmlns:dc="http://purl.org/dc/elements/1.1/"
   xmlns:cc="http://creativecommons.org/ns#"
   xmlns:rdf="http://www.w3.org/1999/02/22-rdf-syntax-ns#"
   xmlns:svg="http://www.w3.org/2000/svg"
   xmlns="http://www.w3.org/2000/svg"
   xmlns:xlink="http://www.w3.org/1999/xlink"
   xmlns:sodipodi="http://sodipodi.sourceforge.net/DTD/sodipodi-0.dtd"
   xmlns:inkscape="http://www.inkscape.org/namespaces/inkscape"
   version="1.1"
   width="128"
   height="128"
   id="svg2"
   inkscape:version="0.48.3.1 r9886"
   sodipodi:docname="vim.svg">
  <sodipodi:namedview
     pagecolor="#ffffff"
     bordercolor="#666666"
     borderopacity="1"
     objecttolerance="10"
     gridtolerance="10"
     guidetolerance="10"
     inkscape:pageopacity="0"
     inkscape:pageshadow="2"
     inkscape:window-width="1366"
     inkscape:window-height="717"
     id="namedview37168"
     showgrid="false"
     inkscape:zoom="3.4766084"
     inkscape:cx="34.701773"
     inkscape:cy="67.296276"
     inkscape:window-x="0"
     inkscape:window-y="0"
     inkscape:window-maximized="1"
     inkscape:current-layer="svg2" />
  <defs
     id="defs4">
    <linearGradient
       inkscape:collect="always"
       xlink:href="#linearGradient5344-6"
       id="linearGradient3105-3"
       x1="7.9531264"
       y1="2.2416961"
       x2="13.667412"
       y2="-64.464973"
       gradientUnits="userSpaceOnUse"
       gradientTransform="translate(-4.0351795e-8,140)" />
    <linearGradient
       id="linearGradient5344-6">
      <stop
         style="stop-color:#000000;stop-opacity:1;"
         offset="0"
         id="stop5346-4" />
      <stop
         style="stop-color:#000000;stop-opacity:0;"
         offset="1"
         id="stop5348-0" />
    </linearGradient>
    <linearGradient
       inkscape:collect="always"
       xlink:href="#linearGradient5165-7-9-8-2-3"
       id="linearGradient3103-4"
       x1="22.933788"
       y1="-144.76825"
       x2="18.618809"
       y2="-96.331688"
       gradientUnits="userSpaceOnUse"
       gradientTransform="translate(-4.0351795e-8,140)" />
    <linearGradient
       id="linearGradient5165-7-9-8-2-3">
      <stop
         id="stop5167-4-8-6-9-3"
         style="stop-color:#ffffff;stop-opacity:1"
         offset="0" />
      <stop
         id="stop5169-5-5-2-9-3"
         style="stop-color:#ffffff;stop-opacity:0"
         offset="1" />
    </linearGradient>
    <linearGradient
       inkscape:collect="always"
       xlink:href="#linearGradient5344-6"
       id="linearGradient3107-9"
       gradientUnits="userSpaceOnUse"
       gradientTransform="matrix(5.3340639,0,0,5.3340639,-1451.4802,-5864.5574)"
       x1="305.23422"
       y1="1137.0681"
       x2="283.35095"
       y2="1104.2024" />
  </defs>
  <metadata
     id="metadata7">
    <rdf:RDF>
      <cc:Work
         rdf:about="">
        <dc:format>image/svg+xml</dc:format>
        <dc:type
           rdf:resource="http://purl.org/dc/dcmitype/StillImage" />
        <dc:title />
      </cc:Work>
    </rdf:RDF>
  </metadata>
  <path
     style="fill:#269a26;fill-opacity:1;fill-rule:evenodd;stroke:none"
     d="m 34.21875,5.0625028 c -1.32927,0.0554 -2.550557,0.27966 -3.65625,0.625 l -18.34375,2.71875 -0.5,0 0,0.1875 C 6.0032494,9.6428228 3.0625,14.185733 3.0625,19.750003 l 0,84.687497 c -0.07024,5.65226 2.0501037,10.0952 6.3125,11.5 l 18.96875,5.9375 c 0.02087,0.0102 0.04153,0.0212 0.0625,0.0313 1.892721,0.90932 4.164425,1.2325 6.78125,0.8125 l 78.28125,-11.8125 c 5.72052,-0.61974 9.4668,-6.06393 9.15625,-13.624997 l 0.40625,-74.2813 c 0.22248,-5.96534 -2.80168,-10.97622 -9.34375,-11.96875 L 35.84375,5.0937528 c -0.55631,-0.0273 -1.103066,-0.053 -1.625,-0.0313 z"
     id="path30949"
     inkscape:connector-curvature="0" />
  <path
     style="fill:url(#linearGradient3107-9);fill-rule:evenodd;stroke:none"
     d="M 29.25,16.718753 29.21875,113.125 c 0.448699,3.45828 1.407546,8.12456 4.34375,9.75 0.527128,-0.0229 1.067503,-0.0668 1.625,-0.15625 l 78.28125,-11.8125 c 5.72052,-0.61974 9.4668,-6.06393 9.15625,-13.624997 l 0.40625,-74.28125 c 0.22245,-5.96534 -2.80168,-10.97622 -9.34375,-11.96875 L 37.678453,5.2336928 C 33.707189,4.8130228 29.262938,10.014263 29.25,16.718753 z M 30.15625,122.5 c 0.647964,0.17153 1.314675,0.32617 2.03125,0.375 z"
     id="path30953"
     inkscape:connector-curvature="0"
     sodipodi:nodetypes="ccccccccccccc" />
  <path
     style="fill:url(#linearGradient3103-4);fill-rule:evenodd;stroke:none;display:inline"
     d="m 34.78125,5.3125028 -22.5625,3.09375 -0.5,0 0,0.1875 C 6.003249,9.6428228 3.0625,14.185733 3.0625,19.750003 l 0,25 26.1875,0 0,-28.03125 c 0.347051,-4.91678 2.274064,-9.9637802 5.53125,-11.4062502 z"
     id="path3073"
     inkscape:connector-curvature="0" />
  <path
     style="fill:url(#linearGradient3105-3);fill-rule:evenodd;stroke:none;display:inline"
     d="m 3.0625,68.406253 0,36.031247 c -0.07024,5.65226 2.050104,10.0952 6.3125,11.5 l 17.65625,6.03125 7.5,1.3125 c -3.710844,-1.04488 -4.81745,-6.34073 -5.3125,-10.15625 l 0,-44.718747 -26.15625,0 z"
     id="path3081"
     inkscape:connector-curvature="0" />
  <path
     inkscape:connector-curvature="0"
     id="path30957"
     d="m 35.825012,5.0844328 c -1.734374,-0.0853 -3.26759,0.13333 -4.667303,0.50133 L 11.65504,8.5863028 C 5.9395447,9.6353728 2.9871862,14.190033 2.9871862,19.754303 l 0,84.678437 c -0.07024,5.65226 2.0718035,10.09707 6.3341998,11.50187 l 19.669357,6.16693 c 1.792241,0.74027 3.774988,1.0512 6.167512,0.6672 l 78.344065,-11.8352 c 5.72052,-0.6192 9.47847,-6.1072 9.16792,-13.668267 l 0.33339,-74.34403 c 0.22245,-5.96534 -2.79254,-10.84214 -9.33461,-11.83467 L 35.825018,5.0855028 z"
     style="fill:none;stroke:#344b63;stroke-width:2.667032;stroke-linecap:butt;stroke-linejoin:miter;stroke-miterlimit:4;stroke-opacity:1;stroke-dasharray:none;display:inline"
     sodipodi:nodetypes="ccccccccccccc" />
  <path
     id="path3023"
     d="m 86.686535,24.676765 c -0.950145,0.05451 -1.705418,0.680432 -1.588574,1.760012 l 0,2.742118 c 0.0446,1.676747 1.311617,2.00139 2.224004,2.018749 l 3.216865,0.21831 c 0.845631,0.413691 1.186628,0.963749 1.231146,1.991112 -0.104594,2.101803 -0.170816,2.044695 -2.184291,3.945071 l -30.341783,33.1929 -0.119079,-40.585371 3.494865,0.237176 c 0.645342,-0.02291 1.477298,-0.687723 1.588575,-1.481827 l 0,-4.133048 c -0.02224,-0.780856 -0.512576,-1.3685 -1.469432,-1.411168 L 35.335913,21.311124 c -1.001387,-0.112568 -1.695036,0.728486 -1.62829,1.757317 l -0.03978,3.017604 c -0.0038,1.024087 0.733375,1.908015 1.668004,2.060499 l 4.328866,0.293775 -0.07943,78.771761 c -0.06672,0.72552 0.06164,1.05453 0.595716,1.19591 l 5.758584,-1.11687 c 0.756632,-0.21345 1.770727,-1.32842 2.660863,-2.50312 L 71.634787,76.576981 c 0.105989,0.141326 0.236051,0.273274 0.35743,0.398263 0.113234,0.115638 0.232008,0.218475 0.357429,0.318783 0.02834,0.02275 0.05058,0.04889 0.07943,0.07085 0.766951,0.580325 1.723731,0.885473 2.780006,0.770557 2.480541,-0.269866 4.487725,-2.678312 4.487725,-5.376357 0,-1.064942 -0.302198,-2.025782 -0.834003,-2.770607 -0.144954,-0.203012 -0.300685,-0.374133 -0.476571,-0.544266 -0.01309,-0.01283 -0.02643,-0.0228 -0.03978,-0.03541 -0.05935,-0.05585 -0.09646,-0.129507 -0.158857,-0.181421 L 113.57317,35.443091 c 0.7121,-0.731061 1.49168,-1.583314 1.46943,-2.364211 l -0.11908,-5.293613 c 0,-0.690314 -0.52212,-1.232453 -1.39,-1.246815 l -26.449777,-1.83473 c -0.141866,-0.01523 -0.261403,-0.03475 -0.397144,-0.02695 z m -1.628289,53.261433 c -1.166458,0.139623 -2.330057,0.397253 -3.415436,0.649763 -0.849481,0.03052 -1.182637,1.435621 -0.873717,2.360282 l 0.913432,1.688964 c 0.01448,0.180325 0.06201,0.342008 0.07943,0.547729 0.0012,0.01322 -0.0011,0.02632 0,0.03974 0.01576,0.196956 0.01271,0.411613 0,0.675594 -6.35e-4,0.01515 7.75e-4,0.0243 0,0.03974 -0.01436,0.272475 -0.04473,0.740191 -0.11908,1.128871 -0.235502,1.207263 -0.846341,2.430606 -2.263719,5.721972 -0.943143,2.196723 -2.246296,5.025132 -4.050866,8.654348 -0.07574,0.181241 -0.119461,0.37534 -0.158858,0.547441 -0.02669,0.125608 -0.07079,0.253468 -0.07943,0.373078 -0.0064,0.0692 -1.14e-4,0.13214 0,0.1987 6.35e-4,0.11089 0.02389,0.20668 0.03978,0.31021 0.0038,0.0255 -0.0051,0.0547 0,0.0795 0.02402,0.12453 0.07397,0.22372 0.119079,0.33459 0.01017,0.026 0.02783,0.0466 0.03978,0.0718 0.04486,0.0963 0.05871,0.21163 0.119079,0.29484 0.06113,0.083 0.162161,0.12437 0.238286,0.19222 0.01945,0.0178 0.01932,0.055 0.03978,0.0718 0.02656,0.0211 0.05134,0.0447 0.07943,0.0641 0.351191,0.24907 0.80809,0.36527 1.350289,0.25474 l 6.394014,-1.31961 c 0.740366,-0.16099 2.039387,-2.099446 1.469305,-3.18604 l -1.350288,-1.407319 c -0.614677,-0.947388 0.705581,-3.512429 2.26372,-6.923727 2.252573,-3.275099 4.824882,-3.825682 6.473443,-4.08606 0.491707,0.04341 0.688411,0.603201 0.834001,1.194621 -0.20837,0.601416 -0.408174,1.220186 -0.675144,1.922653 -0.267173,0.701382 -0.568468,0.231173 -0.953145,1.145951 -0.770676,1.841285 -1.846776,4.151682 -3.455151,7.386324 -0.07689,0.18392 -0.118317,0.372056 -0.158858,0.547442 -0.0026,0.01331 0.0026,0.02648 0,0.03974 -0.04092,0.189275 -0.07816,0.357608 -0.07943,0.532035 -9.04e-4,0.09677 0.02923,0.179126 0.03978,0.270469 0.0077,0.06681 0.02618,0.127583 0.03978,0.190995 0.01677,0.07835 0.01436,0.158065 0.03978,0.230735 0.01284,0.03711 0.02466,0.07612 0.03978,0.111435 0.03266,0.07637 0.07689,0.146837 0.11908,0.215354 0.07079,0.114681 0.141891,0.222151 0.238285,0.311445 0.02504,0.02304 0.05275,0.04287 0.07943,0.06409 0.0136,0.01086 0.02568,0.02172 0.03978,0.03208 0.09569,0.07044 0.203921,0.13129 0.317715,0.17681 0.01538,0.006 0.02402,0.02604 0.03978,0.03208 0.282271,0.102513 0.62248,0.12138 0.992859,0.04589 l 6.433729,-1.327315 c 0.740492,-0.161017 2.079254,-2.107179 1.509147,-3.193776 L 96.45659,93.837304 c -0.623585,-0.961103 0.713982,-2.893196 2.303434,-6.357464 2.083116,-3.279183 4.621966,-3.149761 6.195446,-3.320945 0.49193,0.09787 0.65327,0.0024 0.71485,0.604362 0.0171,0.166624 0.0397,0.334018 0.0398,0.511055 -0.21742,0.604634 -0.42412,1.208672 -0.67514,1.882911 -0.50168,1.346449 -1.14314,1.054361 -2.18429,3.333687 -0.52076,1.140691 -1.14939,2.463941 -1.90629,3.98614 -0.0757,0.181233 -0.1187,0.375193 -0.15886,0.547441 -0.0277,0.125804 -0.0693,0.253176 -0.0794,0.373072 -0.006,0.06907 4.9e-4,0.132026 0,0.198701 -0.001,0.111216 0.0259,0.206309 0.0398,0.310213 0.004,0.02542 -0.005,0.05457 0,0.0795 0.0114,0.06639 0.0224,0.128385 0.0398,0.19098 0.0186,0.06329 0.0548,0.124352 0.0794,0.183311 0.27949,0.687233 0.93475,1.099266 1.82686,0.917392 l 6.3543,-1.311909 c 0.74048,-0.161015 2.11899,-2.114846 1.54886,-3.201482 l -1.35031,-1.407234 c -1.27235,-1.960932 3.82916,-6.120549 5.32172,-10.310287 0.43468,-1.395659 -0.032,-2.627626 -0.83399,-3.565425 -0.0305,-0.02013 -0.0487,-0.05138 -0.0794,-0.07085 -0.40501,-0.454764 -0.85949,-0.860141 -1.35029,-1.164545 -0.0794,-0.04908 -0.1587,-0.08829 -0.23828,-0.13304 -0.24023,-0.136173 -0.48358,-0.264382 -0.71487,-0.359377 -0.0279,-0.01137 -0.0517,-0.02036 -0.0794,-0.0311 -0.25365,-0.100035 -0.49475,-0.154807 -0.71486,-0.200414 l -4.84566,0.447685 c -0.21862,0.07368 -0.37122,0.148622 -0.51629,0.254874 -0.32378,0.236948 -0.49743,0.577028 -0.63543,1.02291 -0.0503,0.157265 -0.11082,0.305541 -0.15886,0.494172 l -3.29629,0.318875 c 0.0349,-0.458538 -0.0114,-0.814818 -0.15886,-1.05572 -0.12903,-0.206266 -0.35092,-0.331075 -0.63543,-0.328277 l -5.083436,0.473554 c -0.614537,0.05427 -0.972106,0.187818 -1.191431,0.368065 -0.07421,0.05869 -0.111201,0.103757 -0.158858,0.176245 -0.0929,0.147915 -0.16037,0.335171 -0.198572,0.538235 -0.04003,0.200865 -0.06659,0.430842 -0.119079,0.688548 l -4.964298,0.540083 c 0.177082,-0.364849 0.256231,-0.790903 0.198572,-1.134346 -0.0077,-0.05653 -0.02669,-0.102977 -0.03978,-0.154636 -0.01144,-0.03853 -0.02453,-0.08003 -0.03978,-0.114895 -0.03151,-0.08279 -0.06736,-0.168018 -0.119079,-0.22549 -1.178037,-0.08521 -2.368121,-0.03323 -3.53458,0.106353 z m -9.968308,1.958784 -3.415436,0.451067 c -0.563754,0.04976 -1.032586,0.132308 -1.390003,0.270446 -1.047455,0.420523 -1.311248,1.293275 -1.231146,2.796576 0.01664,0.549182 0.161209,1.581035 0,2.662268 -0.0051,0.03128 0.0051,0.04727 0,0.07949 -0.313165,1.950399 -1.635965,5.858593 -6.394014,15.427591 -0.07574,0.18124 -0.119716,0.37426 -0.158858,0.54744 -0.0051,0.0243 0.0051,0.0553 0,0.0795 -0.07091,0.36279 -0.07282,0.69415 0,0.99352 0.01525,0.0627 0.01881,0.13204 0.03978,0.19099 0.02338,0.0658 0.04944,0.12247 0.07943,0.1833 0.09633,0.20022 0.234803,0.38295 0.397144,0.51908 0.03342,0.0272 0.08336,0.0321 0.119079,0.0564 0.342154,0.23788 0.78027,0.33146 1.310574,0.22271 l 6.394015,-1.27992 c 0.740492,-0.16041 2.079254,-2.14695 1.509146,-3.233514 L 70.99936,98.456697 c -1.272321,-1.960917 5.424438,-14.074931 6.314586,-16.576203 0.127506,-0.375378 0.204317,-0.702275 0.198572,-0.975382 -7.24e-4,-0.02854 0.0025,-0.0521 0,-0.07949 -0.0051,-0.07188 -0.02478,-0.130079 -0.03978,-0.194377 -0.01728,-0.06958 -0.01017,-0.133882 -0.03978,-0.194376 -0.01144,-0.02491 -0.02669,-0.05171 -0.03978,-0.07516 -0.107255,-0.174245 -0.291878,-0.332722 -0.516287,-0.420721 -0.122765,-0.04829 -0.278064,-0.08938 -0.436858,-0.111437 -0.01144,-0.0017 -0.02758,0.0058 -0.03978,0.0043 -0.07028,-0.0087 -0.161183,-0.01011 -0.238287,-0.01382 -0.0225,-0.0011 -0.05642,0.0091 -0.07943,0.0086 -0.289769,-0.0076 -0.610432,0.0097 -0.992859,0.06828 z"
     style="fill:#000000;fill-opacity:0.19502075;fill-rule:evenodd;stroke:#000000;stroke-width:5;stroke-miterlimit:4;stroke-dasharray:none;stroke-opacity:0.58506227000000000"
     inkscape:connector-curvature="0"
     sodipodi:nodetypes="ccccccccccccccccccccccccccsssccccccccccccccccccccccccccccccccccccccccccccccccccccccccccccccccccccccccccccccccccccccccccccccccccccccccccccccccccccccccccccccccccccccc" />
  <path
     inkscape:connector-curvature="0"
     style="fill:#ffffff;fill-opacity:1;fill-rule:evenodd;stroke-width:0.25"
     d="m 89.228261,24.849256 c -0.950146,0.05451 -1.705418,0.680432 -1.588575,1.760012 l 0,2.742117 c 0.0446,1.676748 1.311616,2.00139 2.224005,2.01875 l 3.216865,0.21831 c 0.845631,0.41369 1.186627,0.963748 1.231146,1.991112 -0.104594,2.101802 -0.170816,2.044696 -2.184291,3.945071 l -30.341784,32.606961 -0.11908,-39.999433 3.494865,0.237176 c 0.645343,-0.02292 1.477298,-0.687722 1.588575,-1.481826 l 0,-4.133047 c -0.02224,-0.780858 -0.512576,-1.368502 -1.469431,-1.411171 L 37.877635,21.483614 c -1.001387,-0.112568 -1.695036,0.728486 -1.62829,1.757319 l -0.03978,3.017603 c -0.0038,1.024085 0.733376,1.908014 1.668004,2.060499 l 4.328867,0.293774 -0.07943,78.106301 c -0.06672,0.72552 0.06164,1.05454 0.595716,1.19592 l 5.758585,-1.11688 c 0.756632,-0.21344 1.770728,-1.32842 2.660864,-2.50312 L 74.176515,76.300456 c 0.105989,0.141325 0.236049,0.273274 0.357429,0.398264 0.113233,0.115638 0.232008,0.218474 0.35743,0.318782 0.02833,0.02275 0.05058,0.04889 0.07943,0.07085 0.766952,0.580325 1.723732,0.885472 2.780007,0.770556 2.480541,-0.269866 4.487725,-2.678312 4.487725,-5.376358 0,-1.064941 -0.302198,-2.025781 -0.834002,-2.770606 -0.144954,-0.203013 -0.300685,-0.374132 -0.476573,-0.544265 -0.01309,-0.01283 -0.02643,-0.0228 -0.03978,-0.03541 -0.05935,-0.05586 -0.09646,-0.129507 -0.158858,-0.181421 L 116.11489,35.615582 c 0.71211,-0.731061 1.49169,-1.583313 1.46943,-2.364211 l -0.11907,-5.293613 c 0,-0.690314 -0.52213,-1.232455 -1.39001,-1.246816 L 89.625469,24.876213 c -0.141866,-0.01523 -0.261403,-0.03475 -0.397144,-0.02695 z m -1.628289,52.812417 c -1.166459,0.139623 -2.330059,0.397253 -3.415437,0.649763 -0.84948,0.03052 -1.182637,1.43562 -0.873716,2.360282 l 0.91343,1.688963 c 0.01449,0.180327 0.06202,0.342007 0.07943,0.547731 0.0012,0.01322 -0.0011,0.02632 0,0.03974 0.01576,0.196954 0.01271,0.411611 0,0.675594 -6.35e-4,0.01515 7.76e-4,0.0243 0,0.03974 -0.01436,0.272474 -0.04473,0.660671 -0.119079,1.049351 -0.235504,1.207264 -0.846342,2.293683 -2.26372,5.585049 -0.943143,2.196723 -2.246296,5.025132 -4.050867,8.654347 -0.07574,0.181242 -0.11946,0.37534 -0.158857,0.547441 -0.02669,0.125608 -0.07079,0.253465 -0.07943,0.373078 -0.0064,0.06915 -1.15e-4,0.132148 0,0.198708 6.35e-4,0.11089 0.02389,0.20668 0.03978,0.3102 0.0038,0.0255 -0.0051,0.0547 0,0.0795 0.02402,0.12452 0.07397,0.22371 0.11908,0.33458 0.01017,0.026 0.02783,0.0466 0.03978,0.0718 0.04486,0.0963 0.05872,0.21163 0.11908,0.29484 0.06113,0.083 0.162162,0.12436 0.238286,0.19222 0.01944,0.0178 0.01931,0.055 0.03978,0.0718 0.02656,0.0211 0.05134,0.0447 0.07943,0.0641 0.351189,0.24906 0.808089,0.36527 1.350289,0.25475 l 6.394014,-1.31961 c 0.740365,-0.16099 2.039387,-2.099446 1.469305,-3.186059 l -1.350289,-1.407228 c -0.614677,-0.947387 0.705581,-3.375506 2.263719,-6.786804 2.252574,-3.275097 4.824884,-3.825681 6.473444,-4.08606 0.491708,0.04341 0.688412,0.603202 0.834002,1.194623 -0.20837,0.601416 -0.408175,1.220186 -0.675145,1.922652 -0.267172,0.701382 -0.568467,1.464946 -0.953145,2.359002 -0.770675,1.799768 -1.846776,2.801709 -3.45515,6.03635 -0.07689,0.183919 -0.118317,0.372057 -0.158858,0.547441 -0.0025,0.01329 0.0026,0.02647 0,0.03974 -0.04093,0.189277 -0.07816,0.357609 -0.07943,0.532041 -9.02e-4,0.09678 0.02923,0.179124 0.03978,0.270478 0.0076,0.06682 0.02618,0.127562 0.03978,0.190984 0.01677,0.07835 0.01436,0.158075 0.03978,0.230725 0.01284,0.03711 0.02466,0.07612 0.03978,0.111445 0.03266,0.07646 0.07689,0.146837 0.11908,0.215354 0.07079,0.114681 0.141891,0.222161 0.238286,0.311455 0.02504,0.02294 0.05275,0.04287 0.07943,0.06409 0.0136,0.01086 0.02568,0.02172 0.03978,0.03208 0.09569,0.07044 0.203922,0.13129 0.317715,0.17683 0.01538,0.006 0.02402,0.02604 0.03978,0.03208 0.282271,0.102503 0.622479,0.12137 0.992859,0.04587 l 6.43373,-1.327315 c 0.740492,-0.161018 2.079252,-2.107178 1.509152,-3.193791 l -1.350295,-1.407227 c -0.623585,-0.961103 0.713982,-2.756272 2.303435,-6.22054 2.08312,-3.279183 4.62197,-3.070242 6.19544,-3.241425 0.49194,0.09787 0.65328,-0.07708 0.71486,0.524842 0.017,0.166638 0.0397,0.334019 0.0398,0.511056 -0.21743,0.604634 -0.42413,1.208672 -0.67515,1.882912 -0.50168,1.346447 -1.14313,0.917435 -2.18428,3.196761 -0.52076,1.14069 -1.14939,2.463939 -1.90629,3.986139 -0.0757,0.181233 -0.1187,0.375193 -0.15886,0.547442 -0.0277,0.125802 -0.0693,0.253175 -0.0794,0.373072 -0.006,0.06907 4.9e-4,0.132018 0,0.198705 -0.001,0.111212 0.0259,0.206294 0.0398,0.310198 0.004,0.02542 -0.005,0.05447 0,0.0795 0.0114,0.06639 0.0224,0.128386 0.0398,0.190991 0.0186,0.06329 0.0548,0.124352 0.0794,0.183301 0.27948,0.687245 0.93475,1.099266 1.82686,0.917382 l 6.3543,-1.311909 c 0.74048,-0.161015 2.11899,-2.114856 1.54886,-3.201484 l -1.35029,-1.407228 c -1.27235,-1.960931 3.82916,-5.904102 5.32172,-10.093841 0.43468,-1.395658 -0.032,-2.627625 -0.834,-3.565423 -0.0305,-0.02013 -0.0487,-0.05138 -0.0794,-0.07085 -0.40501,-0.454765 -0.85949,-0.860142 -1.35029,-1.164545 -0.0794,-0.04908 -0.15869,-0.08829 -0.23828,-0.133041 -0.24024,-0.136172 -0.48358,-0.264383 -0.71487,-0.359376 -0.0279,-0.01138 -0.0517,-0.02036 -0.0794,-0.0311 -0.25365,-0.100035 -0.49476,-0.154806 -0.71486,-0.200413 l -4.84566,0.447686 c -0.21862,0.07368 -0.37122,0.14862 -0.51628,0.254871 -0.32379,0.236949 -0.49744,0.577031 -0.63544,1.022912 -0.0503,0.157264 -0.11081,0.30554 -0.15885,0.494172 l -3.2963,0.318875 c 0.0348,-0.458586 -0.0115,-0.814866 -0.15897,-1.055767 -0.12903,-0.206265 -0.35092,-0.331074 -0.63543,-0.328276 l -5.08344,0.473554 c -0.614537,0.05427 -0.972106,0.187818 -1.191431,0.368063 -0.07421,0.05869 -0.1112,0.103758 -0.158858,0.176246 -0.0929,0.147916 -0.16037,0.335171 -0.198571,0.538234 -0.04003,0.200866 -0.06659,0.430844 -0.11908,0.68855 l -4.964297,0.540083 c 0.177082,-0.36485 0.25623,-0.790904 0.198571,-1.134347 -0.0076,-0.05655 -0.02669,-0.102977 -0.03978,-0.154636 -0.01144,-0.03852 -0.02453,-0.08003 -0.03978,-0.114895 -0.03152,-0.08279 -0.06736,-0.168018 -0.11908,-0.225489 -1.178036,-0.08521 -2.368121,-0.03323 -3.534579,0.106353 z m -9.968309,1.958785 -3.415436,0.451066 c -0.563754,0.04976 -1.032587,0.132309 -1.390004,0.270445 -1.047455,0.420524 -1.311248,1.293276 -1.231145,2.796577 0.01664,0.549181 0.161208,1.501516 0,2.582748 -0.0051,0.03128 0.0051,0.04728 0,0.07949 -0.313166,1.950401 -1.635966,5.721671 -6.394015,15.290666 -0.07574,0.18125 -0.119715,0.37427 -0.158857,0.54744 -0.0051,0.0243 0.0051,0.0553 0,0.0795 -0.07091,0.36279 -0.07282,0.69415 0,0.99353 0.01525,0.0627 0.01881,0.13205 0.03978,0.19099 0.02338,0.0658 0.04944,0.12247 0.07943,0.1833 0.09633,0.20021 0.234805,0.38295 0.397144,0.51908 0.03342,0.0272 0.08336,0.0322 0.11908,0.0564 0.342153,0.23788 0.780269,0.33145 1.310574,0.2227 l 6.394014,-1.27991 c 0.740492,-0.16042 2.079255,-2.14696 1.509147,-3.233523 l -1.350294,-1.407238 c -1.272322,-1.960917 5.424438,-13.858488 6.314587,-16.35976 0.127504,-0.375378 0.204315,-0.702276 0.198571,-0.975385 -7.25e-4,-0.02854 0.0025,-0.0521 0,-0.07949 -0.0051,-0.07188 -0.02478,-0.130078 -0.03978,-0.194376 -0.01728,-0.06958 -0.01017,-0.133882 -0.03978,-0.194376 -0.01144,-0.0249 -0.02669,-0.05171 -0.03978,-0.07516 -0.107265,-0.174243 -0.291878,-0.332722 -0.516286,-0.420721 -0.122766,-0.04829 -0.278065,-0.08938 -0.436859,-0.111436 -0.01144,-0.0017 -0.02758,0.0058 -0.03978,0.0043 -0.07028,-0.0087 -0.161183,-0.01011 -0.238286,-0.01382 -0.0225,-0.0011 -0.05642,0.0091 -0.07943,0.0086 -0.289768,-0.0076 -0.610432,0.0097 -0.992859,0.06828 z"
     id="path3105"
     sodipodi:nodetypes="ccccccccccccccccccccccccccsssccccccccccccccccccccccccccccccccccccccccccccccccccccccccccccccccccccccccccccccccccccccccccccccccccccccccccccccccccccccccccccccccccccccc" />
</svg>
