<?xml version="1.0" encoding="UTF-8" standalone="no"?>
<!-- Created with Inkscape (http://www.inkscape.org/) -->

<svg
   xmlns:dc="http://purl.org/dc/elements/1.1/"
   xmlns:cc="http://creativecommons.org/ns#"
   xmlns:rdf="http://www.w3.org/1999/02/22-rdf-syntax-ns#"
   xmlns:svg="http://www.w3.org/2000/svg"
   xmlns="http://www.w3.org/2000/svg"
   xmlns:xlink="http://www.w3.org/1999/xlink"
   xmlns:sodipodi="http://sodipodi.sourceforge.net/DTD/sodipodi-0.dtd"
   xmlns:inkscape="http://www.inkscape.org/namespaces/inkscape"
   width="136.53334"
   height="136.53334"
   id="svg6934"
   sodipodi:version="0.32"
   inkscape:version="0.92.1 r15371"
   version="1.0"
   sodipodi:docname="start-here-symbolic.svg"
   inkscape:output_extension="org.inkscape.output.svg.inkscape">
  <defs
     id="defs6936">
    <linearGradient
       inkscape:collect="always"
       xlink:href="#linearGradient5316-39"
       id="linearGradient31113"
       gradientUnits="userSpaceOnUse"
       gradientTransform="translate(-112.78663,-33.91079)"
       x1="275.29071"
       y1="1103.7349"
       x2="275.29071"
       y2="1121.6162" />
    <linearGradient
       id="linearGradient5316-39">
      <stop
         style="stop-color:#aac736;stop-opacity:1;"
         offset="0"
         id="stop5320-84" />
      <stop
         style="stop-color:#5d8b2c;stop-opacity:1;"
         offset="1"
         id="stop5322-5" />
    </linearGradient>
    <linearGradient
       inkscape:collect="always"
       xlink:href="#linearGradient5165-7-9-8-2-1"
       id="linearGradient31115"
       gradientUnits="userSpaceOnUse"
       gradientTransform="translate(-112.78663,-33.91079)"
       x1="275.29071"
       y1="1094.0099"
       x2="275.29071"
       y2="1117.1519" />
    <linearGradient
       id="linearGradient5165-7-9-8-2-1">
      <stop
         id="stop5167-4-8-6-9-4"
         style="stop-color:#ffffff;stop-opacity:1"
         offset="0" />
      <stop
         id="stop5169-5-5-2-9-90"
         style="stop-color:#ffffff;stop-opacity:0"
         offset="1" />
    </linearGradient>
    <linearGradient
       inkscape:collect="always"
       xlink:href="#linearGradient5316-39"
       id="linearGradient31117"
       gradientUnits="userSpaceOnUse"
       gradientTransform="translate(-112.78663,-33.91079)"
       x1="280.65372"
       y1="1100.6647"
       x2="292.69617"
       y2="1118.8726" />
    <linearGradient
       inkscape:collect="always"
       xlink:href="#linearGradient5344-4"
       id="linearGradient31119"
       gradientUnits="userSpaceOnUse"
       gradientTransform="translate(-112.78663,-33.91079)"
       x1="317.94461"
       y1="1142.4757"
       x2="283.81964"
       y2="1103.8007" />
    <linearGradient
       id="linearGradient5344-4">
      <stop
         style="stop-color:#000000;stop-opacity:1;"
         offset="0"
         id="stop5346-96" />
      <stop
         style="stop-color:#000000;stop-opacity:0;"
         offset="1"
         id="stop5348-31" />
    </linearGradient>
    <linearGradient
       inkscape:collect="always"
       xlink:href="#linearGradient5344-4"
       id="linearGradient3133"
       gradientUnits="userSpaceOnUse"
       gradientTransform="matrix(5.334059,0,0,5.334059,-1451.5327,-5864.5296)"
       x1="317.94461"
       y1="1142.4757"
       x2="283.81964"
       y2="1103.8007" />
    <linearGradient
       inkscape:collect="always"
       xlink:href="#linearGradient5316-39"
       id="linearGradient3136"
       gradientUnits="userSpaceOnUse"
       gradientTransform="matrix(5.334059,0,0,5.334059,-1451.5327,-5864.5296)"
       x1="280.65372"
       y1="1100.6647"
       x2="292.69617"
       y2="1118.8726" />
    <linearGradient
       inkscape:collect="always"
       xlink:href="#linearGradient5165-7-9-8-2-1"
       id="linearGradient3139"
       gradientUnits="userSpaceOnUse"
       gradientTransform="matrix(5.334059,0,0,5.334059,-1451.5327,-5864.5296)"
       x1="275.29071"
       y1="1094.0099"
       x2="275.29071"
       y2="1117.1519" />
    <linearGradient
       inkscape:collect="always"
       xlink:href="#linearGradient5316-39"
       id="linearGradient3142"
       gradientUnits="userSpaceOnUse"
       gradientTransform="matrix(5.334059,0,0,5.334059,-1451.5327,-5864.5296)"
       x1="275.29071"
       y1="1103.7349"
       x2="275.29071"
       y2="1121.6162" />
    <linearGradient
       id="linearGradient5344">
      <stop
         style="stop-color:#000000;stop-opacity:1;"
         offset="0"
         id="stop5346" />
      <stop
         style="stop-color:#000000;stop-opacity:0;"
         offset="1"
         id="stop5348" />
    </linearGradient>
    <linearGradient
       id="linearGradient5165-7-9-8-2">
      <stop
         id="stop5167-4-8-6-9"
         style="stop-color:#ffffff;stop-opacity:1"
         offset="0" />
      <stop
         id="stop5169-5-5-2-9"
         style="stop-color:#ffffff;stop-opacity:0"
         offset="1" />
    </linearGradient>
    <linearGradient
       id="linearGradient3069">
      <stop
         style="stop-color:#000000;stop-opacity:1;"
         offset="0"
         id="stop3071" />
      <stop
         style="stop-color:#000000;stop-opacity:0;"
         offset="1"
         id="stop3073" />
    </linearGradient>
    <linearGradient
       inkscape:collect="always"
       xlink:href="#linearGradient14753-0"
       id="linearGradient6334"
       gradientUnits="userSpaceOnUse"
       gradientTransform="matrix(2.6666651,0,0,2.6666651,-1276.4123,-2513.1937)"
       x1="490.625"
       y1="954.61218"
       x2="541.625"
       y2="962.61218" />
    <linearGradient
       id="linearGradient14753-0">
      <stop
         style="stop-color:#ffffff;stop-opacity:1;"
         offset="0"
         id="stop14755-1" />
      <stop
         style="stop-color:#000000;stop-opacity:1;"
         offset="1"
         id="stop14757-7" />
    </linearGradient>
    <linearGradient
       inkscape:collect="always"
       xlink:href="#linearGradient14753-0"
       id="linearGradient6337"
       gradientUnits="userSpaceOnUse"
       gradientTransform="matrix(2.6666651,0,0,2.6666651,-1270.4019,-2513.1937)"
       x1="500.54321"
       y1="947.93134"
       x2="510.08917"
       y2="961.54315" />
    <linearGradient
       id="linearGradient3108">
      <stop
         style="stop-color:#ffffff;stop-opacity:1;"
         offset="0"
         id="stop3110" />
      <stop
         style="stop-color:#000000;stop-opacity:1;"
         offset="1"
         id="stop3112" />
    </linearGradient>
    <linearGradient
       inkscape:collect="always"
       xlink:href="#linearGradient14705-0"
       id="linearGradient6340"
       gradientUnits="userSpaceOnUse"
       gradientTransform="matrix(2.6666651,0,0,2.6666651,-1294.0188,-1580.8161)"
       x1="501.25"
       y1="961.11218"
       x2="501.25"
       y2="977.98718" />
    <linearGradient
       id="linearGradient14705-0">
      <stop
         style="stop-color:#e9b551;stop-opacity:1;"
         offset="0"
         id="stop14707-7" />
      <stop
         style="stop-color:#b48739;stop-opacity:1;"
         offset="1"
         id="stop14709-0" />
    </linearGradient>
    <linearGradient
       y2="977.98718"
       x2="501.25"
       y1="961.11218"
       x1="501.25"
       gradientTransform="matrix(2.6666651,0,0,2.6666651,-1276.4123,-2513.1937)"
       gradientUnits="userSpaceOnUse"
       id="linearGradient3121"
       xlink:href="#linearGradient14705-0"
       inkscape:collect="always" />
    <linearGradient
       inkscape:collect="always"
       xlink:href="#linearGradient5316-39"
       id="linearGradient1428"
       x1="9.495225"
       y1="-3.1310093"
       x2="75.466797"
       y2="104.28125"
       gradientUnits="userSpaceOnUse" />
    <linearGradient
       inkscape:collect="always"
       xlink:href="#linearGradient5316-39"
       id="linearGradient1459"
       gradientUnits="userSpaceOnUse"
       x1="9.495225"
       y1="-3.1310093"
       x2="75.466797"
       y2="104.28125" />
  </defs>
  <sodipodi:namedview
     id="base"
     pagecolor="#ffffff"
     bordercolor="#666666"
     borderopacity="1.0"
     inkscape:pageopacity="0.0"
     inkscape:pageshadow="2"
     inkscape:zoom="2.9706337"
     inkscape:cx="8.7601496"
     inkscape:cy="54.24255"
     inkscape:document-units="px"
     inkscape:current-layer="layer1"
     showgrid="false"
     inkscape:window-width="1366"
     inkscape:window-height="714"
     inkscape:window-x="0"
     inkscape:window-y="26"
     inkscape:window-maximized="1" />
  <metadata
     id="metadata6939">
    <rdf:RDF>
      <cc:Work
         rdf:about="">
        <dc:format>image/svg+xml</dc:format>
        <dc:type
           rdf:resource="http://purl.org/dc/dcmitype/StillImage" />
        <dc:title></dc:title>
      </cc:Work>
    </rdf:RDF>
  </metadata>
  <g
     inkscape:label="Capa 1"
     inkscape:groupmode="layer"
     id="layer1">
    <path
       style="fill:url(#linearGradient1459);fill-opacity:1;fill-rule:evenodd;stroke:none;stroke-width:1.06666672"
       d="M 39.998047 5.578125 C 37.878341 6.396493 36.158816 7.9325495 34.833984 9.9316406 C 33.132418 13.192557 32.103944 16.146676 32.117188 19.480469 L 32.519531 120.53125 C 33.019162 125.90816 34.479176 128.75318 36.732422 131 C 36.995926 130.9744 37.2623 130.94379 37.533203 130.90039 L 121.0332 118.30078 C 123.70278 118.01157 125.96908 116.7361 127.64648 114.71875 C 128.12574 114.14236 128.55681 113.50653 128.93555 112.81445 C 130.26114 110.39219 130.9457 107.29608 130.80078 103.76758 L 131.23242 24.533203 C 131.46974 18.170173 128.24578 12.826277 121.26758 11.767578 L 41.521484 5.6835938 L 40.189453 5.5820312 C 40.184953 5.5815516 40.180351 5.5824974 40.175781 5.5820312 C 40.116851 5.5759713 40.05714 5.5819012 39.998047 5.578125 z M 32.966797 5.9472656 C 25.957636 6.7107112 16.045752 8.3556349 11.996094 8.9667969 C 5.8826774 10.186574 3.367109 15.777336 3.265625 21.066406 L 3.265625 72.966797 L 3.265625 104.98438 L 3.265625 111.40039 C 3.194793 117.42947 5.334487 122.16756 9.6328125 123.66602 L 27.4375 130.09961 L 31.572266 130.86523 C 29.970653 128.33071 28.81841 125.13168 28.427734 120.85156 L 28.419922 120.76367 L 28.015625 18.691406 L 28.015625 18.664062 C 28.098955 14.901174 29.23588 10.95571 31.416016 7.6660156 C 31.790508 7.1009284 32.746264 6.2076947 32.966797 5.9472656 z M 108.46484 20.339844 C 112.21996 20.448904 115.54207 24.363926 115.40234 29.566406 C 115.32718 32.365236 114.40079 34.608206 112.9082 36.134766 C 112.7507 36.295846 112.58596 36.44899 112.41602 36.59375 C 112.39842 36.60885 112.38108 36.621819 112.36328 36.636719 C 112.19947 36.773599 112.03004 36.903861 111.85547 37.025391 C 111.85047 37.029391 111.8468 37.033109 111.8418 37.037109 C 111.8327 37.043509 111.82345 37.048687 111.81445 37.054688 C 111.64108 37.173547 111.46453 37.287135 111.28125 37.390625 C 111.24714 37.410025 111.21213 37.426412 111.17773 37.445312 C 111.00504 37.539163 110.82921 37.628884 110.64844 37.708984 C 110.61124 37.725584 110.57276 37.739859 110.53516 37.755859 C 110.36237 37.829049 110.18741 37.900337 110.00781 37.960938 C 109.92672 37.988537 109.84217 38.010256 109.75977 38.035156 C 109.60799 38.080726 109.45691 38.125509 109.30078 38.162109 C 109.21715 38.181809 109.12972 38.195791 109.04492 38.212891 C 108.88918 38.244091 108.73579 38.278481 108.57617 38.300781 C 108.32777 38.335781 108.07377 38.358194 107.81641 38.371094 C 106.04933 38.459654 104.43828 37.591184 103.13477 35.902344 C 101.83126 34.213504 100.98293 31.740888 101.05273 29.142578 C 101.06495 28.687298 101.11398 28.249229 101.17578 27.818359 C 101.18798 27.734209 101.19694 27.649606 101.21094 27.566406 C 101.28286 27.135346 101.37458 26.716643 101.49219 26.314453 C 101.49255 26.313453 101.49183 26.311547 101.49219 26.310547 C 102.56386 22.650517 105.43661 20.251944 108.46484 20.339844 z M 85.800781 21.998047 C 86.481721 22.011437 87.166346 22.048475 87.853516 22.109375 C 91.264036 22.411445 94.491369 23.210756 97.511719 24.416016 C 97.009169 25.859316 96.705409 27.410338 96.662109 29.023438 C 96.565519 32.619658 97.671707 36.019221 99.654297 38.587891 C 101.63689 41.156561 104.64346 42.929836 108.03711 42.759766 C 110.88642 42.616966 113.42988 41.483435 115.41797 39.671875 C 119.70197 46.399295 122.27972 54.477582 122.69141 62.882812 L 109.22656 62.882812 C 108.6275 49.544273 99.086991 38.393965 86.457031 37.890625 C 82.923121 37.650135 79.788953 38.518012 77.064453 40.164062 L 68.751953 26.708984 C 73.303473 23.976254 78.409521 22.285534 83.769531 22.027344 C 84.443131 21.995444 85.119841 21.984647 85.800781 21.998047 z M 64.320312 29.841797 L 72.847656 43.646484 C 67.353996 49.528554 64.319089 58.887859 63.912109 66.943359 C 63.996829 73.485419 66.64392 81.921586 71.78125 87.541016 L 62.902344 101.91797 C 61.759434 100.95356 60.669231 99.921413 59.650391 98.814453 C 55.037051 93.802213 51.617452 87.430213 49.732422 80.189453 C 56.668502 78.925063 61.437297 72.252516 61.341797 64.134766 C 61.291197 59.834176 59.892304 55.916156 57.552734 53.003906 C 55.901064 50.947936 53.725648 49.399525 51.267578 48.671875 C 53.225488 43.365985 56.014832 38.590556 59.476562 34.572266 C 60.959392 32.851026 62.582892 31.268577 64.320312 29.841797 z M 48.121094 52.601562 C 48.738574 52.594462 49.342951 52.68295 49.931641 52.84375 C 50.277581 52.93824 50.614516 53.064504 50.947266 53.214844 C 51.009696 53.242844 51.072866 53.268828 51.134766 53.298828 C 51.267016 53.363198 51.399507 53.430806 51.529297 53.503906 C 51.633007 53.561976 51.733928 53.625853 51.835938 53.689453 C 51.944707 53.757593 52.055319 53.824038 52.162109 53.898438 C 52.474239 54.115767 52.774749 54.365396 53.068359 54.634766 C 53.140029 54.700266 53.21085 54.765384 53.28125 54.833984 C 53.57295 55.118704 53.857183 55.420049 54.126953 55.755859 C 55.786563 57.821709 56.907566 60.81774 56.947266 64.1875 C 56.952066 64.59547 56.941922 64.993776 56.919922 65.384766 C 56.919922 65.388766 56.918199 65.392484 56.917969 65.396484 C 56.907069 65.587504 56.886241 65.770181 56.869141 65.957031 C 56.850341 66.163251 56.832941 66.373219 56.806641 66.574219 C 56.785841 66.734189 56.755869 66.886359 56.730469 67.042969 C 56.694869 67.260869 56.663441 67.480166 56.619141 67.691406 C 56.583071 67.864126 56.537894 68.029076 56.496094 68.197266 C 56.451844 68.375116 56.409875 68.555836 56.359375 68.728516 C 56.307385 68.906626 56.246 69.07749 56.1875 69.25 C 56.1336 69.40873 56.082738 69.568776 56.023438 69.722656 C 55.952388 69.907646 55.873522 70.083839 55.794922 70.261719 C 55.741192 70.383049 55.689912 70.50705 55.632812 70.625 C 55.537163 70.82285 55.433145 71.011039 55.328125 71.199219 C 55.276355 71.291769 55.225875 71.386363 55.171875 71.476562 C 55.052025 71.677193 54.925392 71.869944 54.794922 72.058594 C 54.751352 72.121494 54.708863 72.186547 54.664062 72.248047 C 54.521372 72.444677 54.370917 72.62994 54.216797 72.8125 C 54.172847 72.86448 54.130837 72.91795 54.085938 72.96875 C 53.927187 73.14889 53.761537 73.320988 53.591797 73.486328 C 53.547547 73.529298 53.503984 73.571281 53.458984 73.613281 C 53.283684 73.777331 53.101986 73.931808 52.916016 74.080078 C 52.868966 74.117578 52.821137 74.156859 52.773438 74.193359 C 52.579888 74.341389 52.381814 74.478465 52.177734 74.609375 C 52.137854 74.634875 52.096941 74.660747 52.056641 74.685547 C 51.842661 74.817947 51.624941 74.941288 51.400391 75.054688 C 51.363991 75.073087 51.327716 75.091475 51.291016 75.109375 C 51.064276 75.219905 50.832313 75.319256 50.595703 75.410156 C 50.554633 75.425956 50.514056 75.441831 50.472656 75.457031 C 50.225156 75.547841 49.972134 75.628266 49.714844 75.697266 C 49.698344 75.701266 49.682616 75.704984 49.666016 75.708984 C 49.387596 75.781944 49.105286 75.843725 48.816406 75.890625 C 48.815406 75.890735 48.81315 75.890525 48.8125 75.890625 C 48.61319 75.922825 48.416811 75.958916 48.212891 75.978516 C 46.086901 76.182756 44.083059 75.144068 42.417969 73.023438 C 40.752889 70.902797 39.610013 67.751766 39.570312 64.384766 C 39.530663 61.014936 40.579363 57.995448 42.189453 55.892578 C 43.799533 53.789708 45.871434 52.627463 48.121094 52.601562 z M 109.12109 66.970703 L 122.72461 66.970703 C 122.44871 75.166993 120.19893 82.979935 116.32227 89.640625 C 114.33238 87.858075 111.79193 86.743696 108.95312 86.603516 C 105.56746 86.436326 102.5618 88.181033 100.57227 90.720703 C 98.582716 93.260373 97.469306 96.62659 97.566406 100.18945 C 97.623026 102.2674 98.114148 104.24261 98.929688 106.00391 C 95.704617 107.56192 92.211699 108.70287 88.474609 109.33398 C 80.941319 110.60619 73.549387 108.87527 67.304688 105.09375 L 75.966797 91.072266 C 79.154807 93.065616 82.965364 94.062385 87.396484 93.453125 C 98.263804 91.617875 107.89297 79.854943 109.12109 66.970703 z M 108.73828 90.992188 C 108.99858 91.005088 109.25291 91.029653 109.50391 91.064453 C 109.50711 91.064453 109.51067 91.065946 109.51367 91.066406 C 109.62224 91.081506 109.72723 91.103947 109.83398 91.123047 C 109.98042 91.149447 110.12864 91.173131 110.27148 91.207031 C 110.47678 91.255441 110.67549 91.315406 110.87305 91.378906 C 110.89785 91.387006 110.92452 91.392391 110.94922 91.400391 C 110.95022 91.400391 110.95212 91.401884 110.95312 91.402344 C 111.1504 91.468124 111.34233 91.546253 111.53125 91.626953 C 111.56734 91.642453 111.60483 91.653822 111.64062 91.669922 C 111.8398 91.758712 112.03163 91.859644 112.2207 91.964844 C 112.2337 91.972144 112.24872 91.977375 112.26172 91.984375 C 112.26472 91.985375 112.26653 91.987281 112.26953 91.988281 C 112.4739 92.103941 112.66964 92.230734 112.86133 92.365234 C 113.05551 92.501474 113.24341 92.647664 113.42383 92.802734 C 113.60416 92.957704 113.77559 93.121652 113.94141 93.294922 C 115.37663 94.794662 116.26068 96.964474 116.33398 99.652344 C 116.47317 104.7589 113.17005 108.62023 109.38672 108.72852 C 106.63755 108.80718 104.04232 106.88948 102.77148 103.87891 C 102.65318 103.59867 102.54537 103.31028 102.45117 103.01172 C 102.44917 103.00622 102.44731 103.00109 102.44531 102.99609 C 102.35499 102.7083 102.27518 102.41281 102.20898 102.10938 C 102.20498 102.09258 102.20127 102.07549 102.19727 102.05859 C 102.13495 101.76636 102.08527 101.4695 102.04688 101.16406 C 102.04287 101.13636 102.0362 101.10983 102.0332 101.08203 C 101.9942 100.7513 101.96798 100.41296 101.95898 100.06836 C 101.88947 97.518296 102.73157 95.093181 104.0332 93.431641 C 105.33483 91.770111 106.95535 90.904188 108.73828 90.992188 z "
       id="path4493" />
  </g>
</svg>
