<?xml version="1.0" encoding="UTF-8" standalone="no"?>
<!-- Created with Inkscape (http://www.inkscape.org/) -->

<svg
   xmlns:dc="http://purl.org/dc/elements/1.1/"
   xmlns:cc="http://creativecommons.org/ns#"
   xmlns:rdf="http://www.w3.org/1999/02/22-rdf-syntax-ns#"
   xmlns:svg="http://www.w3.org/2000/svg"
   xmlns="http://www.w3.org/2000/svg"
   xmlns:xlink="http://www.w3.org/1999/xlink"
   xmlns:sodipodi="http://sodipodi.sourceforge.net/DTD/sodipodi-0.dtd"
   xmlns:inkscape="http://www.inkscape.org/namespaces/inkscape"
   width="136.53334"
   height="136.53334"
   id="svg6934"
   sodipodi:version="0.32"
   inkscape:version="0.92.1 r15371"
   version="1.0"
   sodipodi:docname="start-here.svg"
   inkscape:output_extension="org.inkscape.output.svg.inkscape">
  <defs
     id="defs6936">
    <linearGradient
       id="linearGradient5165-7-9-8-2-1">
      <stop
         id="stop5167-4-8-6-9-4"
         style="stop-color:#ffffff;stop-opacity:1"
         offset="0" />
      <stop
         id="stop5169-5-5-2-9-90"
         style="stop-color:#ffffff;stop-opacity:0"
         offset="1" />
    </linearGradient>
    <linearGradient
       id="linearGradient5344-4">
      <stop
         style="stop-color:#000000;stop-opacity:1;"
         offset="0"
         id="stop5346-96" />
      <stop
         style="stop-color:#000000;stop-opacity:0;"
         offset="1"
         id="stop5348-31" />
    </linearGradient>
    <linearGradient
       id="linearGradient5316">
      <stop
         id="stop5320"
         offset="0"
         style="stop-color:#87c7ff;stop-opacity:1;" />
      <stop
         id="stop5322"
         offset="1"
         style="stop-color:#74aadb;stop-opacity:1;" />
    </linearGradient>
    <linearGradient
       inkscape:collect="always"
       xlink:href="#linearGradient5316"
       id="linearGradient5339"
       gradientUnits="userSpaceOnUse"
       gradientTransform="scale(1.0666667)"
       x1="6.5963445"
       y1="25.086559"
       x2="117.48683"
       y2="107.41399" />
    <linearGradient
       inkscape:collect="always"
       xlink:href="#linearGradient5344-4"
       id="linearGradient5341"
       gradientUnits="userSpaceOnUse"
       gradientTransform="matrix(5.6896682,0,0,5.6896682,-1548.2455,-6255.5279)"
       x1="305.23422"
       y1="1137.0681"
       x2="283.35095"
       y2="1104.2024" />
    <linearGradient
       inkscape:collect="always"
       xlink:href="#linearGradient5344-4"
       id="linearGradient5345"
       gradientUnits="userSpaceOnUse"
       gradientTransform="matrix(1.0666667,0,0,1.0666667,0,149.33333)"
       x1="7.9531264"
       y1="2.2416961"
       x2="13.667412"
       y2="-64.464973" />
    <linearGradient
       inkscape:collect="always"
       xlink:href="#linearGradient5165-7-9-8-2-1"
       id="linearGradient5343"
       gradientUnits="userSpaceOnUse"
       gradientTransform="matrix(1.0666667,0,0,1.0666667,0,149.33333)"
       x1="22.933788"
       y1="-144.76825"
       x2="18.618809"
       y2="-96.331688" />
  </defs>
  <sodipodi:namedview
     id="base"
     pagecolor="#ffffff"
     bordercolor="#666666"
     borderopacity="1.0"
     inkscape:pageopacity="0.0"
     inkscape:pageshadow="2"
     inkscape:zoom="1.0310413"
     inkscape:cx="488.18665"
     inkscape:cy="144.55646"
     inkscape:document-units="px"
     inkscape:current-layer="layer2"
     showgrid="false"
     inkscape:window-width="1366"
     inkscape:window-height="714"
     inkscape:window-x="0"
     inkscape:window-y="26"
     inkscape:window-maximized="1"
     inkscape:snap-global="false" />
  <metadata
     id="metadata6939">
    <rdf:RDF>
      <cc:Work
         rdf:about="">
        <dc:format>image/svg+xml</dc:format>
        <dc:type
           rdf:resource="http://purl.org/dc/dcmitype/StillImage" />
        <dc:title></dc:title>
      </cc:Work>
    </rdf:RDF>
  </metadata>
  <g
     inkscape:label="Capa 1"
     inkscape:groupmode="layer"
     id="layer1">
    <path
       inkscape:connector-curvature="0"
       id="path5325"
       d="m 36.5,5.4 c -1.41789,0.0591 -2.72059,0.29831 -3.9,0.66667 l -19.56667,2.9 H 12.5 v 0.2 c -6.09653,1.11901 -9.23333,5.96478 -9.23333,11.9 V 111.4 C 3.19177,117.42908 5.45344,122.16821 10,123.66667 L 30.23333,130 c 0.0223,0.0109 0.0443,0.0226 0.0667,0.0334 2.01891,0.96994 4.44206,1.31466 7.23334,0.86666 l 83.49999,-12.6 c 6.10189,-0.66105 10.09792,-6.46819 9.76667,-14.53333 l 0.43333,-79.23338 C 131.47068,18.17032 128.2449,12.82538 121.2667,11.76668 L 38.23336,5.43334 c -0.59339,-0.0291 -1.1766,-0.0565 -1.73333,-0.0334 z"
       style="fill:url(#linearGradient5339);fill-opacity:1;fill-rule:evenodd;stroke:none;stroke-width:1.06666672" />
  </g>
  <g
     inkscape:groupmode="layer"
     id="layer3"
     inkscape:label="som"
     style="display:inline">
    <path
       sodipodi:nodetypes="ccccccccccccc"
       inkscape:connector-curvature="0"
       id="path5327"
       d="m 31.2,17.83334 -0.0333,102.83333 c 0.47861,3.68883 1.50138,8.66619 4.63333,10.4 0.56227,-0.0244 1.13867,-0.0713 1.73334,-0.16667 l 83.49999,-12.6 c 6.10189,-0.66106 10.09792,-6.46819 9.76667,-14.53333 l 0.43333,-79.23333 C 131.47064,18.17031 128.2449,12.82537 121.2667,11.76667 L 40.19038,5.5826105 C 35.95437,5.1338905 31.21383,10.68188 31.20003,17.83334 Z m 0.96667,112.83333 c 0.69116,0.18296 1.40232,0.34791 2.16666,0.4 z"
       style="fill:url(#linearGradient5341);fill-rule:evenodd;stroke:none;stroke-width:1.06666672" />
    <path
       inkscape:connector-curvature="0"
       id="path5329"
       d="m 37.1,5.6666705 -24.06667,3.3 H 12.5 v 0.2 C 6.40347,10.28568 3.26667,15.13145 3.26667,21.06667 V 47.73334 H 31.2 v -29.9 C 31.57019,12.58877 33.62567,7.2053005 37.1,5.6666705 Z"
       style="display:inline;fill:url(#linearGradient5343);fill-rule:evenodd;stroke:none;stroke-width:1.06666672" />
    <path
       inkscape:connector-curvature="0"
       id="path5331"
       d="M 3.26667,72.96667 V 111.4 C 3.19177,117.42908 5.45344,122.16821 10,123.66667 l 18.83333,6.43333 8,1.4 c -3.95823,-1.11454 -5.13861,-6.76345 -5.66666,-10.83333 v -47.7 z"
       style="display:inline;fill:url(#linearGradient5345);fill-rule:evenodd;stroke:none;stroke-width:1.06666672" />
  </g>
  <g
     inkscape:groupmode="layer"
     id="layer2"
     inkscape:label="top"
     style="display:inline">
    <path
       sodipodi:nodetypes="ccccccccccccc"
       style="display:inline;fill:none;stroke:#344b63;stroke-width:2.84483409;stroke-linecap:butt;stroke-linejoin:miter;stroke-miterlimit:4;stroke-dasharray:none;stroke-opacity:1"
       d="m 38.21335,5.4233905 c -1.85,-0.091 -3.48543,0.14222 -4.97846,0.53476 l -20.80285,3.20057 C 6.33551,10.27773 3.18633,15.13603 3.18633,21.07126 v 90.32366 c -0.0749,6.02908 2.20993,10.77021 6.75648,12.26866 l 20.98065,6.57806 c 1.91172,0.78962 4.02665,1.12128 6.57868,0.71168 l 83.567,-12.62421 c 6.10189,-0.66048 10.11037,-6.51435 9.77912,-14.57949 l 0.35561,-79.30029 c 0.23728,-6.36303 -2.97871,-11.56495 -9.95692,-12.62365 L 38.21335,5.4245405 Z"
       id="path5333"
       inkscape:connector-curvature="0" />
    <path
       style="color:#000000;font-style:normal;font-variant:normal;font-weight:normal;font-stretch:normal;font-size:medium;line-height:normal;font-family:sans-serif;font-variant-ligatures:normal;font-variant-position:normal;font-variant-caps:normal;font-variant-numeric:normal;font-variant-alternates:normal;font-feature-settings:normal;text-indent:0;text-align:start;text-decoration:none;text-decoration-line:none;text-decoration-style:solid;text-decoration-color:#000000;letter-spacing:normal;word-spacing:normal;text-transform:none;writing-mode:lr-tb;direction:ltr;text-orientation:mixed;dominant-baseline:auto;baseline-shift:baseline;text-anchor:start;white-space:normal;shape-padding:0;clip-rule:nonzero;display:inline;overflow:visible;visibility:visible;opacity:1;isolation:auto;mix-blend-mode:normal;color-interpolation:sRGB;color-interpolation-filters:linearRGB;solid-color:#000000;solid-opacity:1;vector-effect:none;fill:#000000;fill-opacity:0.5533981;fill-rule:nonzero;stroke:#000000;stroke-width:3.20000005;stroke-linecap:round;stroke-linejoin:bevel;stroke-miterlimit:4;stroke-dasharray:none;stroke-dashoffset:0;stroke-opacity:0.48058256;color-rendering:auto;image-rendering:auto;shape-rendering:auto;text-rendering:auto;enable-background:accumulate"
       d="m 45.62824,19.09244 c -3.75607,0.17991 -6.69962,3.29446 -6.66601,7.05469 0.0336,3.76022 3.03232,6.82277 6.79101,6.93554 l 69.67578,2.85743 c 3.55148,0.19595 6.57531,-2.55156 6.7207,-6.10547 0.14539,-3.55391 -2.64555,-6.53997 -6.20117,-6.63477 L 46.32746,19.09439 c -0.23289,-0.0123 -0.46626,-0.0129 -0.69922,-0.002 z m 70.34765,33.33984 -70.00195,0.0234 c -3.9202,-0.0401 -7.10945,3.14618 -7.07226,7.06641 0.0372,3.92023 3.28634,7.04614 7.20508,6.93164 l 69.99218,-1.31441 c 3.53552,0.003 6.39341,-2.88066 6.35938,-6.41602 -0.034,-3.53536 -2.94761,-6.36167 -6.48243,-6.29101 z m -0.0469,31.5586 c -0.14904,0.004 -0.29885,0.0113 -0.44726,0.0254 l -70.0039,5.00976 c -3.89077,0.26584 -6.81532,3.65965 -6.50195,7.54688 0.31337,3.88723 3.74384,6.76907 7.62695,6.4082 l 69.90624,-6.20898 c 3.47854,-0.22548 6.13658,-3.19354 5.97852,-6.67578 -0.15807,-3.48225 -3.07394,-6.19607 -6.5586,-6.10547 z"
       id="path5359"
       inkscape:connector-curvature="0" />
    <path
       style="color:#000000;font-style:normal;font-variant:normal;font-weight:normal;font-stretch:normal;font-size:medium;line-height:normal;font-family:sans-serif;font-variant-ligatures:normal;font-variant-position:normal;font-variant-caps:normal;font-variant-numeric:normal;font-variant-alternates:normal;font-feature-settings:normal;text-indent:0;text-align:start;text-decoration:none;text-decoration-line:none;text-decoration-style:solid;text-decoration-color:#000000;letter-spacing:normal;word-spacing:normal;text-transform:none;writing-mode:lr-tb;direction:ltr;text-orientation:mixed;dominant-baseline:auto;baseline-shift:baseline;text-anchor:start;white-space:normal;shape-padding:0;clip-rule:nonzero;display:inline;overflow:visible;visibility:visible;opacity:1;isolation:auto;mix-blend-mode:normal;color-interpolation:sRGB;color-interpolation-filters:linearRGB;solid-color:#000000;solid-opacity:1;vector-effect:none;fill:#ffffff;fill-opacity:1;fill-rule:nonzero;stroke:none;stroke-width:14;stroke-linecap:round;stroke-linejoin:bevel;stroke-miterlimit:4;stroke-dasharray:none;stroke-dashoffset:0;stroke-opacity:1;color-rendering:auto;image-rendering:auto;shape-rendering:auto;text-rendering:auto;enable-background:accumulate"
       d="m 47.62743,19.09244 c -3.75607,0.17991 -6.69907,3.295 -6.66547,7.05523 0.0336,3.76023 3.03178,6.82223 6.79047,6.935 l 69.67578,2.85743 c 3.55149,0.19595 6.5766,-2.55183 6.72199,-6.10574 0.14539,-3.55391 -2.64516,-6.53961 -6.20078,-6.6344 L 48.32665,19.09439 c -0.23289,-0.0123 -0.46626,-0.013 -0.69922,-0.002 z"
       id="path5347"
       inkscape:connector-curvature="0"
       sodipodi:nodetypes="csccscccc" />
    <path
       style="color:#000000;font-style:normal;font-variant:normal;font-weight:normal;font-stretch:normal;font-size:medium;line-height:normal;font-family:sans-serif;font-variant-ligatures:normal;font-variant-position:normal;font-variant-caps:normal;font-variant-numeric:normal;font-variant-alternates:normal;font-feature-settings:normal;text-indent:0;text-align:start;text-decoration:none;text-decoration-line:none;text-decoration-style:solid;text-decoration-color:#000000;letter-spacing:normal;word-spacing:normal;text-transform:none;writing-mode:lr-tb;direction:ltr;text-orientation:mixed;dominant-baseline:auto;baseline-shift:baseline;text-anchor:start;white-space:normal;shape-padding:0;clip-rule:nonzero;display:inline;overflow:visible;visibility:visible;opacity:1;isolation:auto;mix-blend-mode:normal;color-interpolation:sRGB;color-interpolation-filters:linearRGB;solid-color:#000000;solid-opacity:1;vector-effect:none;fill:#ffffff;fill-opacity:1;fill-rule:nonzero;stroke:none;stroke-width:14;stroke-linecap:round;stroke-linejoin:bevel;stroke-miterlimit:4;stroke-dasharray:none;stroke-dashoffset:0;stroke-opacity:1;color-rendering:auto;image-rendering:auto;shape-rendering:auto;text-rendering:auto;enable-background:accumulate"
       d="m 117.97624,52.43141 -70.0031,0.0243 c -3.9202,-0.0401 -7.10922,3.14652 -7.07203,7.06675 0.0372,3.92023 3.2861,7.04579 7.20484,6.9313 l 69.99262,-1.31358 c 3.53553,0.003 6.39343,-2.88084 6.3594,-6.4162 -0.034,-3.53536 -2.94691,-6.36324 -6.48173,-6.29258 z"
       id="path5349"
       inkscape:connector-curvature="0"
       sodipodi:nodetypes="ccsccsc" />
    <path
       style="color:#000000;font-style:normal;font-variant:normal;font-weight:normal;font-stretch:normal;font-size:medium;line-height:normal;font-family:sans-serif;font-variant-ligatures:normal;font-variant-position:normal;font-variant-caps:normal;font-variant-numeric:normal;font-variant-alternates:normal;font-feature-settings:normal;text-indent:0;text-align:start;text-decoration:none;text-decoration-line:none;text-decoration-style:solid;text-decoration-color:#000000;letter-spacing:normal;word-spacing:normal;text-transform:none;writing-mode:lr-tb;direction:ltr;text-orientation:mixed;dominant-baseline:auto;baseline-shift:baseline;text-anchor:start;white-space:normal;shape-padding:0;clip-rule:nonzero;display:inline;overflow:visible;visibility:visible;opacity:1;isolation:auto;mix-blend-mode:normal;color-interpolation:sRGB;color-interpolation-filters:linearRGB;solid-color:#000000;solid-opacity:1;vector-effect:none;fill:#ffffff;fill-opacity:1;fill-rule:nonzero;stroke:none;stroke-width:14;stroke-linecap:round;stroke-linejoin:bevel;stroke-miterlimit:4;stroke-dasharray:none;stroke-dashoffset:0;stroke-opacity:1;color-rendering:auto;image-rendering:auto;shape-rendering:auto;text-rendering:auto;enable-background:accumulate"
       d="m 117.92842,83.99016 c -0.14904,0.004 -0.29791,0.0127 -0.44632,0.0268 l -70.00506,5.00909 c -3.89077,0.26584 -6.81422,3.65973 -6.50085,7.54696 0.31337,3.88723 3.74274,6.76899 7.62585,6.40812 l 69.9066,-6.20826 c 3.47854,-0.22547 6.13669,-3.19364 5.97863,-6.67589 -0.15807,-3.48225 -3.07419,-6.19739 -6.55885,-6.1068 z"
       id="path5351"
       inkscape:connector-curvature="0"
       sodipodi:nodetypes="cccsccscc" />
  </g>
</svg>
