<?xml version="1.0" encoding="UTF-8" standalone="no"?>
<!-- Created with Inkscape (http://www.inkscape.org/) -->
<svg
   xmlns:dc="http://purl.org/dc/elements/1.1/"
   xmlns:cc="http://creativecommons.org/ns#"
   xmlns:rdf="http://www.w3.org/1999/02/22-rdf-syntax-ns#"
   xmlns:svg="http://www.w3.org/2000/svg"
   xmlns="http://www.w3.org/2000/svg"
   xmlns:xlink="http://www.w3.org/1999/xlink"
   xmlns:sodipodi="http://sodipodi.sourceforge.net/DTD/sodipodi-0.dtd"
   xmlns:inkscape="http://www.inkscape.org/namespaces/inkscape"
   width="128"
   height="128"
   id="svg52672"
   sodipodi:version="0.32"
   inkscape:version="0.46"
   version="1.0"
   sodipodi:docname="applications-games.svg"
   inkscape:output_extension="org.inkscape.output.svg.inkscape">
  <defs
     id="defs52674">
    <linearGradient
       inkscape:collect="always"
       xlink:href="#linearGradient9863"
       id="linearGradient10531"
       x1="529.84375"
       y1="986.14581"
       x2="529.84375"
       y2="944.4375"
       gradientUnits="userSpaceOnUse"
       gradientTransform="matrix(2.8480457,0,0,2.8480457,-1439.7458,-2685.2638)" />
    <linearGradient
       inkscape:collect="always"
       xlink:href="#linearGradient5316"
       id="linearGradient10417"
       x1="500.57245"
       y1="974.04547"
       x2="514.35596"
       y2="977.04547"
       gradientUnits="userSpaceOnUse"
       gradientTransform="matrix(2.8480457,0,0,2.8480457,-1382.7849,-2685.7978)" />
    <linearGradient
       inkscape:collect="always"
       xlink:href="#linearGradient5344"
       id="linearGradient10533"
       x1="505.96286"
       y1="972.7179"
       x2="508.1875"
       y2="978.34192"
       gradientUnits="userSpaceOnUse" />
    <linearGradient
       inkscape:collect="always"
       xlink:href="#linearGradient5439"
       id="linearGradient10447"
       x1="502.66058"
       y1="971.21332"
       x2="520.07703"
       y2="971.33832"
       gradientUnits="userSpaceOnUse"
       gradientTransform="matrix(2.8480457,0,0,2.8480457,-1382.7849,-2685.7978)" />
    <linearGradient
       inkscape:collect="always"
       xlink:href="#linearGradient5439"
       id="linearGradient10449"
       x1="514.28558"
       y1="969.8905"
       x2="499.72308"
       y2="959.7655"
       gradientUnits="userSpaceOnUse"
       gradientTransform="matrix(2.8480457,0,0,2.8480457,-1382.7849,-2684.2244)" />
    <linearGradient
       inkscape:collect="always"
       xlink:href="#linearGradient5439"
       id="linearGradient10445"
       x1="506.49796"
       y1="961.93228"
       x2="519.68951"
       y2="959.74481"
       gradientUnits="userSpaceOnUse"
       gradientTransform="matrix(2.8480457,0,0,2.8480457,-1382.7849,-2685.7978)" />
    <linearGradient
       inkscape:collect="always"
       xlink:href="#linearGradient5439"
       id="linearGradient10451"
       x1="500.59207"
       y1="945.4798"
       x2="514.125"
       y2="958.36218"
       gradientUnits="userSpaceOnUse" />
    <linearGradient
       inkscape:collect="always"
       xlink:href="#linearGradient5362"
       id="linearGradient10453"
       x1="502.625"
       y1="948.06799"
       x2="511.73331"
       y2="956.19971"
       gradientUnits="userSpaceOnUse" />
    <linearGradient
       inkscape:collect="always"
       xlink:href="#linearGradient5439"
       id="linearGradient10463"
       x1="493.60324"
       y1="975.55829"
       x2="500.74399"
       y2="975.55829"
       gradientUnits="userSpaceOnUse"
       gradientTransform="matrix(2.5071888,0,0,3.3151473,-1220.8198,-3142.6089)" />
    <linearGradient
       inkscape:collect="always"
       xlink:href="#linearGradient5439"
       id="linearGradient10461"
       x1="493.59659"
       y1="975.55829"
       x2="501.69333"
       y2="975.55829"
       gradientUnits="userSpaceOnUse"
       gradientTransform="matrix(2.6475417,0,0,3.5007303,-1262.4324,-3317.9485)" />
    <linearGradient
       inkscape:collect="always"
       xlink:href="#linearGradient5316"
       id="linearGradient10432"
       x1="511.93539"
       y1="980.66925"
       x2="480.09647"
       y2="979.79425"
       gradientUnits="userSpaceOnUse"
       gradientTransform="matrix(2.8480457,0,0,2.8480457,-1382.7849,-2685.7978)" />
    <linearGradient
       inkscape:collect="always"
       xlink:href="#linearGradient5316"
       id="linearGradient10429"
       x1="502.77698"
       y1="977.26727"
       x2="512.01746"
       y2="981.01727"
       gradientUnits="userSpaceOnUse"
       gradientTransform="matrix(2.8480457,0,0,2.8480457,-1382.7849,-2685.7978)" />
    <linearGradient
       inkscape:collect="always"
       xlink:href="#linearGradient5362"
       id="linearGradient10440"
       x1="485.18539"
       y1="980.04425"
       x2="502.22147"
       y2="980.66925"
       gradientUnits="userSpaceOnUse"
       gradientTransform="matrix(2.8480457,0,0,2.8480457,-1382.7849,-2685.7978)" />
    <linearGradient
       inkscape:collect="always"
       xlink:href="#linearGradient5344"
       id="linearGradient10443"
       x1="544"
       y1="977.01727"
       x2="503.90198"
       y2="981.86218"
       gradientUnits="userSpaceOnUse"
       gradientTransform="matrix(2.8480457,0,0,2.8480457,-1382.7849,-2685.7978)" />
    <linearGradient
       inkscape:collect="always"
       xlink:href="#linearGradient12336"
       id="linearGradient10457"
       x1="497.47302"
       y1="975.71014"
       x2="500.86392"
       y2="975.29254"
       gradientUnits="userSpaceOnUse" />
    <linearGradient
       inkscape:collect="always"
       xlink:href="#linearGradient12336"
       id="linearGradient10455"
       x1="497.84039"
       y1="975.55829"
       x2="500.07587"
       y2="975.03357"
       gradientUnits="userSpaceOnUse" />
    <radialGradient
       inkscape:collect="always"
       xlink:href="#linearGradient5316"
       id="radialGradient7380"
       gradientUnits="userSpaceOnUse"
       gradientTransform="matrix(0.6127634,-5.6312102e-3,6.8728264e-3,0.7478704,188.71409,244.05514)"
       cx="500.15683"
       cy="981.91858"
       fx="500.15683"
       fy="981.91858"
       r="22.125" />
    <radialGradient
       inkscape:collect="always"
       xlink:href="#linearGradient5439"
       id="radialGradient7382"
       gradientUnits="userSpaceOnUse"
       gradientTransform="matrix(-6.2664022e-5,38.356922,-38.951923,-1.2008047e-4,37830.872,-19222.135)"
       cx="502.11728"
       cy="970.2926"
       fx="502.11728"
       fy="970.2926"
       r="6.8295703" />
    <linearGradient
       inkscape:collect="always"
       xlink:href="#linearGradient9863"
       id="linearGradient11175"
       x1="531.37335"
       y1="959.14435"
       x2="487.92111"
       y2="970.78735"
       gradientUnits="userSpaceOnUse" />
    <radialGradient
       inkscape:collect="always"
       xlink:href="#linearGradient5560"
       id="radialGradient7384"
       gradientUnits="userSpaceOnUse"
       gradientTransform="matrix(4.0396448,0,0,4.9303383,-1518.5155,-3865.6042)"
       cx="500.15683"
       cy="981.91858"
       fx="500.15683"
       fy="981.91858"
       r="22.125" />
    <linearGradient
       id="linearGradient12594">
      <stop
         id="stop12596"
         offset="0"
         style="stop-color:#e9b551;stop-opacity:1;" />
      <stop
         id="stop12598"
         offset="1"
         style="stop-color:#e9b551;stop-opacity:0;" />
    </linearGradient>
    <linearGradient
       id="linearGradient9863">
      <stop
         style="stop-color:#2f445a;stop-opacity:1;"
         offset="0"
         id="stop9865" />
      <stop
         style="stop-color:#415f7c;stop-opacity:1"
         offset="1"
         id="stop9867" />
    </linearGradient>
    <linearGradient
       inkscape:collect="always"
       xlink:href="#linearGradient5316"
       id="linearGradient12556"
       gradientUnits="userSpaceOnUse"
       gradientTransform="matrix(2.6765254,0,0,2.6850288,-1298.6216,-1373.1119)"
       x1="512.41168"
       y1="519.06995"
       x2="507.51178"
       y2="537.49438" />
    <linearGradient
       inkscape:collect="always"
       xlink:href="#linearGradient5439"
       id="linearGradient12560"
       gradientUnits="userSpaceOnUse"
       gradientTransform="matrix(2.6765254,0,0,2.6850288,-816.84705,-621.30381)"
       x1="308.78922"
       y1="224.23021"
       x2="341.08148"
       y2="350.66373" />
    <linearGradient
       inkscape:collect="always"
       xlink:href="#linearGradient5362"
       id="linearGradient12562"
       gradientUnits="userSpaceOnUse"
       gradientTransform="matrix(2.6765254,0,0,2.6850288,-1298.6216,-1373.1119)"
       x1="485.44086"
       y1="511.1637"
       x2="501.83148"
       y2="538.1637" />
    <linearGradient
       inkscape:collect="always"
       xlink:href="#linearGradient5316"
       id="linearGradient6342"
       gradientUnits="userSpaceOnUse"
       gradientTransform="matrix(2.6765254,0,0,2.6850288,-1298.6216,-1373.1119)"
       x1="516.89862"
       y1="513.79053"
       x2="529.97729"
       y2="549.49445" />
    <linearGradient
       inkscape:collect="always"
       xlink:href="#linearGradient5316"
       id="linearGradient12566"
       gradientUnits="userSpaceOnUse"
       gradientTransform="matrix(2.6765254,0,0,2.6850288,-1298.6216,-1373.1119)"
       x1="512.41168"
       y1="519.06995"
       x2="507.51178"
       y2="537.49438" />
    <linearGradient
       inkscape:collect="always"
       xlink:href="#linearGradient5344"
       id="linearGradient12568"
       gradientUnits="userSpaceOnUse"
       gradientTransform="matrix(2.6765254,0,0,2.6850288,-1298.6216,-1373.1119)"
       x1="510.48071"
       y1="531.75934"
       x2="507.97995"
       y2="531.75934" />
    <linearGradient
       inkscape:collect="always"
       xlink:href="#linearGradient5362"
       id="linearGradient12572"
       gradientUnits="userSpaceOnUse"
       gradientTransform="matrix(2.6765254,0,0,2.6850288,-1298.6216,-1373.1119)"
       x1="518.28668"
       y1="504.69495"
       x2="505.92706"
       y2="537.36938" />
    <linearGradient
       inkscape:collect="always"
       xlink:href="#linearGradient5344"
       id="linearGradient4344"
       gradientUnits="userSpaceOnUse"
       gradientTransform="matrix(2.6765254,0,0,2.6850288,-1298.6216,-1373.1119)"
       x1="584.78088"
       y1="621.27075"
       x2="523.33765"
       y2="537.91589" />
    <linearGradient
       inkscape:collect="always"
       xlink:href="#linearGradient5344"
       id="linearGradient58832"
       gradientUnits="userSpaceOnUse"
       gradientTransform="translate(-184,-280)"
       x1="519.31262"
       y1="723.67017"
       x2="511.42725"
       y2="667.20789" />
    <linearGradient
       inkscape:collect="always"
       xlink:href="#linearGradient5362"
       id="linearGradient58830"
       gradientUnits="userSpaceOnUse"
       gradientTransform="translate(-184,-280)"
       x1="504.91962"
       y1="635.44617"
       x2="504.48212"
       y2="641.10242" />
    <linearGradient
       inkscape:collect="always"
       xlink:href="#linearGradient5451"
       id="linearGradient58828"
       gradientUnits="userSpaceOnUse"
       gradientTransform="translate(-184,-280)"
       x1="484.70901"
       y1="674.9306"
       x2="533.03339"
       y2="674.9306" />
    <linearGradient
       id="linearGradient5560">
      <stop
         id="stop5562"
         offset="0"
         style="stop-color:#000000;stop-opacity:0;" />
      <stop
         id="stop5564"
         offset="1"
         style="stop-color:#000000;stop-opacity:0.48344371;" />
    </linearGradient>
    <linearGradient
       id="linearGradient2481">
      <stop
         id="stop2483"
         offset="0"
         style="stop-color:#87c6ff;stop-opacity:1;" />
      <stop
         style="stop-color:#75aadb;stop-opacity:1;"
         offset="0.5"
         id="stop3944" />
      <stop
         id="stop2485"
         offset="1"
         style="stop-color:#75aadb;stop-opacity:1;" />
    </linearGradient>
    <linearGradient
       inkscape:collect="always"
       xlink:href="#linearGradient5344"
       id="linearGradient3853"
       gradientUnits="userSpaceOnUse"
       gradientTransform="translate(-499.9792,-219.99219)"
       x1="546.65106"
       y1="741.80438"
       x2="519.12555"
       y2="661.56122" />
    <linearGradient
       inkscape:collect="always"
       xlink:href="#linearGradient5316"
       id="linearGradient3851"
       gradientUnits="userSpaceOnUse"
       gradientTransform="translate(-499.9792,-219.99219)"
       x1="516.58734"
       y1="643.28003"
       x2="518.94879"
       y2="670.57684" />
    <linearGradient
       inkscape:collect="always"
       xlink:href="#linearGradient5439"
       id="linearGradient3849"
       gradientUnits="userSpaceOnUse"
       gradientTransform="translate(-499.9792,-159.99219)"
       x1="500.92007"
       y1="580.97955"
       x2="509.07632"
       y2="655.40179" />
    <linearGradient
       inkscape:collect="always"
       xlink:href="#linearGradient5439"
       id="linearGradient3847"
       gradientUnits="userSpaceOnUse"
       gradientTransform="translate(-499.9792,-159.99219)"
       x1="497.42068"
       y1="575.9082"
       x2="510.12534"
       y2="627.35168" />
    <linearGradient
       inkscape:collect="always"
       xlink:href="#linearGradient5439"
       id="linearGradient3845"
       gradientUnits="userSpaceOnUse"
       gradientTransform="translate(-499.9792,-159.99219)"
       x1="501.65167"
       y1="578.54364"
       x2="517.6955"
       y2="644.08337" />
    <linearGradient
       inkscape:collect="always"
       xlink:href="#linearGradient5439"
       id="linearGradient3843"
       gradientUnits="userSpaceOnUse"
       gradientTransform="translate(-499.9792,-159.99219)"
       x1="495.64603"
       y1="577.02094"
       x2="510.03174"
       y2="626.15326" />
    <linearGradient
       inkscape:collect="always"
       xlink:href="#linearGradient5439"
       id="linearGradient3841"
       gradientUnits="userSpaceOnUse"
       gradientTransform="translate(-499.9792,-159.99219)"
       x1="494.88635"
       y1="579.75201"
       x2="514.15509"
       y2="638.97217" />
    <linearGradient
       inkscape:collect="always"
       xlink:href="#linearGradient5344"
       id="linearGradient3839"
       gradientUnits="userSpaceOnUse"
       gradientTransform="translate(-499.9792,-219.99219)"
       x1="537.08398"
       y1="731.19934"
       x2="502.27975"
       y2="637.1001" />
    <linearGradient
       inkscape:collect="always"
       xlink:href="#linearGradient5316"
       id="linearGradient3837"
       gradientUnits="userSpaceOnUse"
       gradientTransform="translate(-499.9792,-219.99219)"
       x1="505.92102"
       y1="635.54803"
       x2="508.99728"
       y2="673.02472" />
    <linearGradient
       inkscape:collect="always"
       xlink:href="#linearGradient5344"
       id="linearGradient3835"
       gradientUnits="userSpaceOnUse"
       gradientTransform="translate(-499.9792,-219.99219)"
       x1="514.15466"
       y1="627.21851"
       x2="480.25"
       y2="649.92108" />
    <linearGradient
       inkscape:collect="always"
       xlink:href="#linearGradient5316"
       id="linearGradient3833"
       gradientUnits="userSpaceOnUse"
       gradientTransform="translate(-499.9792,-219.99219)"
       x1="506.875"
       y1="671.74292"
       x2="506.59363"
       y2="634.74292" />
    <linearGradient
       inkscape:collect="always"
       xlink:href="#linearGradient5451"
       id="linearGradient3831"
       gradientUnits="userSpaceOnUse"
       gradientTransform="translate(-499.9792,-219.99219)"
       x1="485"
       y1="674.51233"
       x2="533.00031"
       y2="674.51233" />
    <linearGradient
       inkscape:collect="always"
       xlink:href="#linearGradient5362"
       id="linearGradient3799"
       gradientUnits="userSpaceOnUse"
       gradientTransform="translate(-451.51485,-605.893)"
       x1="482.22729"
       y1="627.89056"
       x2="545.375"
       y2="689.41541" />
    <linearGradient
       id="linearGradient12336">
      <stop
         id="stop12338"
         offset="0"
         style="stop-color:#ff6e00;stop-opacity:1;" />
      <stop
         id="stop12340"
         offset="1"
         style="stop-color:#eb2600;stop-opacity:1;" />
    </linearGradient>
    <linearGradient
       inkscape:collect="always"
       xlink:href="#linearGradient5451"
       id="linearGradient6195"
       gradientUnits="userSpaceOnUse"
       gradientTransform="matrix(2.6753679,0,0,2.6874427,-1298.0601,-1697.0166)"
       x1="484.70901"
       y1="674.9306"
       x2="533.03339"
       y2="674.9306" />
    <linearGradient
       id="linearGradient5316">
      <stop
         style="stop-color:#aac736;stop-opacity:1;"
         offset="0"
         id="stop5320" />
      <stop
         style="stop-color:#5d8b2c;stop-opacity:1;"
         offset="1"
         id="stop5322" />
    </linearGradient>
    <linearGradient
       id="linearGradient5451">
      <stop
         style="stop-color:#000000;stop-opacity:0.35099337;"
         offset="0"
         id="stop5453" />
      <stop
         id="stop5459"
         offset="0.45549738"
         style="stop-color:#000000;stop-opacity:0.29139072;" />
      <stop
         style="stop-color:#000000;stop-opacity:0;"
         offset="1"
         id="stop5455" />
    </linearGradient>
    <linearGradient
       id="linearGradient5439">
      <stop
         style="stop-color:#ffffff;stop-opacity:1;"
         offset="0"
         id="stop5441" />
      <stop
         style="stop-color:#000000;stop-opacity:1;"
         offset="1"
         id="stop5443" />
    </linearGradient>
    <linearGradient
       id="linearGradient5362">
      <stop
         style="stop-color:#ffffff;stop-opacity:1;"
         offset="0"
         id="stop5364" />
      <stop
         style="stop-color:#ffffff;stop-opacity:0;"
         offset="1"
         id="stop5366" />
    </linearGradient>
    <linearGradient
       id="linearGradient8702">
      <stop
         id="stop8704"
         offset="0"
         style="stop-color:#aac736;stop-opacity:1;" />
      <stop
         id="stop8706"
         offset="1"
         style="stop-color:#5d8b2c;stop-opacity:1;" />
    </linearGradient>
    <linearGradient
       id="linearGradient5344">
      <stop
         style="stop-color:#000000;stop-opacity:1;"
         offset="0"
         id="stop5346" />
      <stop
         style="stop-color:#000000;stop-opacity:0;"
         offset="1"
         id="stop5348" />
    </linearGradient>
    <inkscape:perspective
       sodipodi:type="inkscape:persp3d"
       inkscape:vp_x="0 : 526.18109 : 1"
       inkscape:vp_y="0 : 1000 : 0"
       inkscape:vp_z="744.09448 : 526.18109 : 1"
       inkscape:persp3d-origin="372.04724 : 350.78739 : 1"
       id="perspective52680" />
    <linearGradient
       inkscape:collect="always"
       xlink:href="#linearGradient5344"
       id="linearGradient52740"
       gradientUnits="userSpaceOnUse"
       gradientTransform="matrix(2.6765239,0,0,2.6666667,-1298.6208,-1683.1224)"
       x1="538.97754"
       y1="661.90076"
       x2="514.36121"
       y2="633.4823" />
    <linearGradient
       inkscape:collect="always"
       xlink:href="#linearGradient5344"
       id="linearGradient52743"
       gradientUnits="userSpaceOnUse"
       gradientTransform="matrix(2.6765239,0,0,2.6666667,-1298.6208,-1683.1224)"
       x1="510.00351"
       y1="631.06866"
       x2="523.99396"
       y2="656.27454" />
    <linearGradient
       inkscape:collect="always"
       xlink:href="#linearGradient5344"
       id="linearGradient52746"
       gradientUnits="userSpaceOnUse"
       gradientTransform="matrix(2.6765239,0,0,2.6666667,-1298.6208,-1683.1224)"
       x1="550.91907"
       y1="746.92621"
       x2="514.25153"
       y2="653.76154" />
    <linearGradient
       inkscape:collect="always"
       xlink:href="#linearGradient8702"
       id="linearGradient52749"
       gradientUnits="userSpaceOnUse"
       gradientTransform="matrix(2.4993378,-5.778967e-2,4.3271185e-2,2.489879,-1237.5897,-1536.5838)"
       x1="507.57828"
       y1="652.32129"
       x2="520.39868"
       y2="671.72296" />
    <linearGradient
       inkscape:collect="always"
       xlink:href="#linearGradient5362"
       id="linearGradient52753"
       gradientUnits="userSpaceOnUse"
       gradientTransform="matrix(2.6765239,0,0,2.6666667,-1298.6208,-1683.1224)"
       x1="482.22797"
       y1="626.58459"
       x2="506.50647"
       y2="658.15997" />
    <linearGradient
       inkscape:collect="always"
       xlink:href="#linearGradient5439"
       id="linearGradient52756"
       gradientUnits="userSpaceOnUse"
       gradientTransform="matrix(2.6765239,0,0,2.6666667,-1298.6208,-1683.1224)"
       x1="492.65778"
       y1="626.40784"
       x2="586.93988"
       y2="745.66449" />
    <inkscape:perspective
       id="perspective53831"
       inkscape:persp3d-origin="64 : 42.666667 : 1"
       inkscape:vp_z="128 : 64 : 1"
       inkscape:vp_y="0 : 1000 : 0"
       inkscape:vp_x="0 : 64 : 1"
       sodipodi:type="inkscape:persp3d" />
    <linearGradient
       inkscape:collect="always"
       xlink:href="#linearGradient5451"
       id="linearGradient54347"
       gradientUnits="userSpaceOnUse"
       gradientTransform="translate(-499.9792,-219.99219)"
       x1="485"
       y1="674.51233"
       x2="533.00031"
       y2="674.51233" />
    <linearGradient
       inkscape:collect="always"
       xlink:href="#linearGradient5316"
       id="linearGradient54349"
       gradientUnits="userSpaceOnUse"
       gradientTransform="translate(-499.9792,-219.99219)"
       x1="506.875"
       y1="671.74292"
       x2="506.59363"
       y2="634.74292" />
    <linearGradient
       inkscape:collect="always"
       xlink:href="#linearGradient5344"
       id="linearGradient54351"
       gradientUnits="userSpaceOnUse"
       gradientTransform="translate(-499.9792,-219.99219)"
       x1="514.15466"
       y1="627.21851"
       x2="480.25"
       y2="649.92108" />
    <linearGradient
       inkscape:collect="always"
       xlink:href="#linearGradient5316"
       id="linearGradient54353"
       gradientUnits="userSpaceOnUse"
       gradientTransform="translate(-499.9792,-219.99219)"
       x1="505.92102"
       y1="635.54803"
       x2="508.99728"
       y2="673.02472" />
    <linearGradient
       inkscape:collect="always"
       xlink:href="#linearGradient5344"
       id="linearGradient54355"
       gradientUnits="userSpaceOnUse"
       gradientTransform="translate(-499.9792,-219.99219)"
       x1="537.08398"
       y1="731.19934"
       x2="502.27975"
       y2="637.1001" />
    <linearGradient
       inkscape:collect="always"
       xlink:href="#linearGradient5439"
       id="linearGradient54357"
       gradientUnits="userSpaceOnUse"
       gradientTransform="translate(-499.9792,-159.99219)"
       x1="494.88635"
       y1="579.75201"
       x2="514.15509"
       y2="638.97217" />
    <linearGradient
       inkscape:collect="always"
       xlink:href="#linearGradient5439"
       id="linearGradient54359"
       gradientUnits="userSpaceOnUse"
       gradientTransform="translate(-499.9792,-159.99219)"
       x1="495.64603"
       y1="577.02094"
       x2="510.03174"
       y2="626.15326" />
    <linearGradient
       inkscape:collect="always"
       xlink:href="#linearGradient5439"
       id="linearGradient54361"
       gradientUnits="userSpaceOnUse"
       gradientTransform="translate(-499.9792,-159.99219)"
       x1="501.65167"
       y1="578.54364"
       x2="517.6955"
       y2="644.08337" />
    <linearGradient
       inkscape:collect="always"
       xlink:href="#linearGradient5439"
       id="linearGradient54363"
       gradientUnits="userSpaceOnUse"
       gradientTransform="translate(-499.9792,-159.99219)"
       x1="497.42068"
       y1="575.9082"
       x2="510.12534"
       y2="627.35168" />
    <linearGradient
       inkscape:collect="always"
       xlink:href="#linearGradient5439"
       id="linearGradient54365"
       gradientUnits="userSpaceOnUse"
       gradientTransform="translate(-499.9792,-159.99219)"
       x1="500.92007"
       y1="580.97955"
       x2="509.07632"
       y2="655.40179" />
    <linearGradient
       inkscape:collect="always"
       xlink:href="#linearGradient5316"
       id="linearGradient54367"
       gradientUnits="userSpaceOnUse"
       gradientTransform="translate(-499.9792,-219.99219)"
       x1="516.58734"
       y1="643.28003"
       x2="518.94879"
       y2="670.57684" />
    <linearGradient
       inkscape:collect="always"
       xlink:href="#linearGradient5344"
       id="linearGradient54369"
       gradientUnits="userSpaceOnUse"
       gradientTransform="translate(-499.9792,-219.99219)"
       x1="546.65106"
       y1="741.80438"
       x2="519.12555"
       y2="661.56122" />
    <linearGradient
       inkscape:collect="always"
       xlink:href="#linearGradient5362"
       id="linearGradient54371"
       gradientUnits="userSpaceOnUse"
       gradientTransform="translate(-451.51485,-605.893)"
       x1="482.22729"
       y1="627.89056"
       x2="545.375"
       y2="689.41541" />
    <linearGradient
       inkscape:collect="always"
       xlink:href="#linearGradient5451"
       id="linearGradient54391"
       gradientUnits="userSpaceOnUse"
       gradientTransform="translate(-499.9792,-219.99219)"
       x1="485"
       y1="674.51233"
       x2="533.00031"
       y2="674.51233" />
    <linearGradient
       inkscape:collect="always"
       xlink:href="#linearGradient5316"
       id="linearGradient54393"
       gradientUnits="userSpaceOnUse"
       gradientTransform="translate(-499.9792,-219.99219)"
       x1="506.875"
       y1="671.74292"
       x2="506.59363"
       y2="634.74292" />
    <linearGradient
       inkscape:collect="always"
       xlink:href="#linearGradient5344"
       id="linearGradient54395"
       gradientUnits="userSpaceOnUse"
       gradientTransform="translate(-499.9792,-219.99219)"
       x1="514.15466"
       y1="627.21851"
       x2="480.25"
       y2="649.92108" />
    <linearGradient
       inkscape:collect="always"
       xlink:href="#linearGradient5316"
       id="linearGradient54397"
       gradientUnits="userSpaceOnUse"
       gradientTransform="translate(-499.9792,-219.99219)"
       x1="505.92102"
       y1="635.54803"
       x2="508.99728"
       y2="673.02472" />
    <linearGradient
       inkscape:collect="always"
       xlink:href="#linearGradient5344"
       id="linearGradient54399"
       gradientUnits="userSpaceOnUse"
       gradientTransform="translate(-499.9792,-219.99219)"
       x1="537.08398"
       y1="731.19934"
       x2="502.27975"
       y2="637.1001" />
    <linearGradient
       inkscape:collect="always"
       xlink:href="#linearGradient5439"
       id="linearGradient54401"
       gradientUnits="userSpaceOnUse"
       gradientTransform="translate(-499.9792,-159.99219)"
       x1="494.88635"
       y1="579.75201"
       x2="514.15509"
       y2="638.97217" />
    <linearGradient
       inkscape:collect="always"
       xlink:href="#linearGradient5439"
       id="linearGradient54403"
       gradientUnits="userSpaceOnUse"
       gradientTransform="translate(-499.9792,-159.99219)"
       x1="495.64603"
       y1="577.02094"
       x2="510.03174"
       y2="626.15326" />
    <linearGradient
       inkscape:collect="always"
       xlink:href="#linearGradient5439"
       id="linearGradient54405"
       gradientUnits="userSpaceOnUse"
       gradientTransform="translate(-499.9792,-159.99219)"
       x1="501.65167"
       y1="578.54364"
       x2="517.6955"
       y2="644.08337" />
    <linearGradient
       inkscape:collect="always"
       xlink:href="#linearGradient5439"
       id="linearGradient54407"
       gradientUnits="userSpaceOnUse"
       gradientTransform="translate(-499.9792,-159.99219)"
       x1="497.42068"
       y1="575.9082"
       x2="510.12534"
       y2="627.35168" />
    <linearGradient
       inkscape:collect="always"
       xlink:href="#linearGradient5439"
       id="linearGradient54409"
       gradientUnits="userSpaceOnUse"
       gradientTransform="translate(-499.9792,-159.99219)"
       x1="500.92007"
       y1="580.97955"
       x2="509.07632"
       y2="655.40179" />
    <linearGradient
       inkscape:collect="always"
       xlink:href="#linearGradient5316"
       id="linearGradient54411"
       gradientUnits="userSpaceOnUse"
       gradientTransform="translate(-499.9792,-219.99219)"
       x1="516.58734"
       y1="643.28003"
       x2="518.94879"
       y2="670.57684" />
    <linearGradient
       inkscape:collect="always"
       xlink:href="#linearGradient5344"
       id="linearGradient54413"
       gradientUnits="userSpaceOnUse"
       gradientTransform="translate(-499.9792,-219.99219)"
       x1="546.65106"
       y1="741.80438"
       x2="519.12555"
       y2="661.56122" />
    <linearGradient
       inkscape:collect="always"
       xlink:href="#linearGradient5451"
       id="linearGradient54450"
       gradientUnits="userSpaceOnUse"
       gradientTransform="matrix(2.6765239,0,0,2.6666667,-1298.6209,-1683.1224)"
       x1="485"
       y1="674.51233"
       x2="533.00031"
       y2="674.51233" />
  </defs>
  <sodipodi:namedview
     id="base"
     pagecolor="#ffffff"
     bordercolor="#666666"
     borderopacity="1.0"
     inkscape:pageopacity="0.0"
     inkscape:pageshadow="2"
     inkscape:zoom="2"
     inkscape:cx="140.43952"
     inkscape:cy="73.716595"
     inkscape:document-units="px"
     inkscape:current-layer="layer1"
     showgrid="false"
     inkscape:window-width="1024"
     inkscape:window-height="713"
     inkscape:window-x="0"
     inkscape:window-y="6"
     showguides="true"
     inkscape:guide-bbox="true" />
  <metadata
     id="metadata52677">
    <rdf:RDF>
      <cc:Work
         rdf:about="">
        <dc:format>image/svg+xml</dc:format>
        <dc:type
           rdf:resource="http://purl.org/dc/dcmitype/StillImage" />
      </cc:Work>
    </rdf:RDF>
  </metadata>
  <g
     inkscape:label="Capa 1"
     inkscape:groupmode="layer"
     id="layer1">
    <g
       inkscape:export-ydpi="89.986237"
       inkscape:export-xdpi="89.986237"
       inkscape:export-filename="/home/dafeba/DCV/tallerD/elementos.png"
       transform="translate(424,80)"
       id="g58804">
      <rect
         style="opacity:1;fill:#f2f2f2;fill-opacity:1;stroke:none;stroke-width:0.1;stroke-linecap:round;stroke-linejoin:round;stroke-miterlimit:4;stroke-dasharray:none;stroke-opacity:0.30041151"
         id="rect58806"
         width="47.823223"
         height="48"
         x="301.18933"
         y="351.1709" />
      <path
         style="fill:url(#linearGradient58828);fill-rule:evenodd;stroke:none;stroke-width:1px;stroke-linecap:butt;stroke-linejoin:miter;stroke-opacity:1"
         d="M 313.09207,399.15115 L 301.20351,395.7431 L 336.08403,390.7653 L 349.00384,390.68796 L 349.03336,399.15114 L 313.09207,399.15115 z"
         id="path58808"
         sodipodi:nodetypes="cccccc" />
      <path
         style="fill:#f2f2f2;fill-rule:evenodd;stroke:none;stroke-width:0.5;stroke-linecap:round;stroke-linejoin:round;stroke-miterlimit:4;stroke-dasharray:none;stroke-opacity:1"
         d="M 301.48601,353.22699 C 305.08831,353.57311 306.6134,357.74996 306.61071,360.86425 L 306.56413,389.36485 C 306.59506,392.86249 308.42012,396.3398 313.14348,398.87602 L 346.05226,393.25994 C 342.15451,392.5412 339.36778,388.67929 339.39934,385.53974 L 339.4778,361.97786 C 339.51198,358.9412 337.51957,355.88584 333.82005,355.55785 L 301.48601,353.22699 z"
         id="path58810"
         sodipodi:nodetypes="ccccccccc" />
      <path
         sodipodi:nodetypes="ccccc"
         id="path58812"
         d="M 301.48601,353.22699 C 305.08831,353.57311 306.6134,357.74996 306.61071,360.86425 L 339.4778,361.97786 C 339.51198,358.9412 337.51957,355.88584 333.82005,355.55785 L 301.48601,353.22699 z"
         style="fill:url(#linearGradient58830);fill-rule:evenodd;stroke:none;stroke-width:0.5;stroke-linecap:round;stroke-linejoin:round;stroke-miterlimit:4;stroke-dasharray:none;stroke-opacity:1" />
      <path
         sodipodi:nodetypes="ccccc"
         id="path58814"
         d="M 306.56413,389.36485 C 306.59506,392.86249 308.42012,396.3398 313.14348,398.87602 L 346.05226,393.25994 C 342.15451,392.5412 339.36778,388.67929 339.39934,385.53974 L 306.56413,389.36485 z"
         style="fill:url(#linearGradient58832);fill-rule:evenodd;stroke:none;stroke-width:0.5;stroke-linecap:round;stroke-linejoin:round;stroke-miterlimit:4;stroke-dasharray:none;stroke-opacity:1" />
      <path
         sodipodi:nodetypes="ccccccccc"
         id="path58816"
         d="M 301.48601,353.22699 C 305.08831,353.57311 306.6134,357.74996 306.61071,360.86425 L 306.56413,389.36485 C 306.59506,392.86249 308.42012,396.3398 313.14348,398.87602 L 346.05226,393.25994 C 342.15451,392.5412 339.36778,388.67929 339.39934,385.53974 L 339.4778,361.97786 C 339.51198,358.9412 337.51957,355.88584 333.82005,355.55785 L 301.48601,353.22699 z"
         style="fill:none;fill-rule:evenodd;stroke:#000000;stroke-width:0.5;stroke-linecap:round;stroke-linejoin:round;stroke-miterlimit:4;stroke-dasharray:none;stroke-opacity:1" />
    </g>
    <path
       sodipodi:nodetypes="ccccc"
       id="path58818"
       d="M 740.12551,445.55112 L 757.25142,445.69471 L 757.28066,447.8612 L 740.12588,448.00172 L 740.12551,445.55112 z"
       style="fill:#000000;fill-rule:evenodd;stroke:none;stroke-width:1px;stroke-linecap:butt;stroke-linejoin:miter;stroke-opacity:1" />
    <path
       style="fill:#000000;fill-rule:evenodd;stroke:none;stroke-width:1px;stroke-linecap:butt;stroke-linejoin:miter;stroke-opacity:1"
       d="M 744.24688,449.98324 L 754.3118,449.81922 L 754.31233,452.041 L 744.12653,452.24935 L 744.24688,449.98324 z"
       id="path58820"
       sodipodi:nodetypes="ccccc" />
    <path
       sodipodi:nodetypes="ccccc"
       id="path58822"
       d="M 737.18797,454.68729 L 758.68836,453.88522 L 758.75025,455.99227 L 737.18522,457.06633 L 737.18797,454.68729 z"
       style="fill:#000000;fill-rule:evenodd;stroke:none;stroke-width:1px;stroke-linecap:butt;stroke-linejoin:miter;stroke-opacity:1" />
    <path
       style="fill:#000000;fill-rule:evenodd;stroke:none;stroke-width:1px;stroke-linecap:butt;stroke-linejoin:miter;stroke-opacity:1"
       d="M 747.11973,459.21937 L 751.38008,458.93979 L 751.25403,461.03473 L 746.94583,461.39831 L 747.11973,459.21937 z"
       id="path58824"
       sodipodi:nodetypes="ccccc" />
    <path
       sodipodi:nodetypes="ccccc"
       id="path58826"
       d="M 742.54569,464.13694 L 754.55952,462.8959 L 754.44101,465.07791 L 742.37806,466.57431 L 742.54569,464.13694 z"
       style="fill:#000000;fill-rule:evenodd;stroke:none;stroke-width:1px;stroke-linecap:butt;stroke-linejoin:miter;stroke-opacity:1" />
    <path
       style="fill:url(#linearGradient10531);fill-opacity:1;fill-rule:evenodd;stroke:none;stroke-width:2;stroke-linecap:round;stroke-linejoin:round;stroke-miterlimit:4;stroke-dasharray:none;stroke-opacity:1;display:inline"
       d="M 65.090339,4.5374925 C 53.723678,4.5374925 44.442028,13.819035 44.442028,25.185831 C 44.442028,33.61838 49.616819,40.761246 56.902317,43.965125 L 56.902317,68.974538 C 55.500087,69.198376 54.052622,69.280036 52.808306,69.953557 C 51.856267,70.45843 51.270644,71.457308 51.295268,72.534582 C 51.290985,72.623523 51.290985,72.712652 51.295268,72.801592 L 51.295268,83.125748 L 17.296724,86.685819 C 15.397195,86.868439 13.95214,87.079509 12.757607,87.486823 C 12.160207,87.690479 11.601081,87.950156 10.977451,88.465842 C 10.429567,88.918977 9.9643867,90.030377 9.909518,91.135888 L 9.7315291,91.135888 L 9.7315291,91.491893 L 9.7315291,110.80521 C 9.7200201,110.9533 9.7200201,111.10211 9.7315291,111.25021 C 9.9817841,112.89183 11.146875,114.21256 12.223641,114.89927 C 13.300138,115.58599 14.390019,115.89047 15.338579,116.1453 C 27.307725,119.39717 39.489388,122.66341 51.02815,125.84644 C 51.057057,125.87677 51.086766,125.90642 51.117279,125.93544 C 51.345854,126.02523 51.585135,126.08505 51.829234,126.11345 C 55.904242,126.96742 60.935839,127.08032 65.802295,125.75745 L 66.069412,125.66845 L 111.01521,117.4803 C 113.74366,116.97625 116.56632,116.1328 118.49127,113.65324 C 118.89516,113.14786 119.11464,112.52008 119.11437,111.87322 L 119.11437,92.381917 C 119.05495,90.085995 117.76781,89.093433 115.99916,88.287853 C 114.49897,87.628785 112.69473,87.120085 110.39211,86.774814 L 78.70769,81.879746 L 78.70769,72.979581 C 78.70769,72.979126 78.706084,72.910982 78.70769,72.890587 C 78.707422,72.891925 78.700463,72.737142 78.70769,72.623577 C 78.708225,72.593921 78.708225,72.564265 78.70769,72.534582 C 78.709564,72.475271 78.709564,72.415905 78.70769,72.356594 C 78.704746,72.272765 78.710099,72.291688 78.70769,72.267572 C 78.645862,71.354503 78.1491,70.526681 77.37264,70.042551 C 76.150271,69.266975 74.661589,69.218423 73.278629,68.974538 L 73.278629,43.965125 C 80.564127,40.761246 85.738651,33.618326 85.738651,25.185831 C 85.738651,13.819115 76.457269,4.537439 65.090339,4.5374925 z M 65.090339,10.23359 C 73.375252,10.233537 80.04274,16.901026 80.04274,25.185831 C 80.04274,31.886321 75.579369,37.516014 69.540596,39.426062 C 68.353022,39.816513 67.559165,40.935434 67.582451,42.185103 L 67.582451,71.110565 C 67.576027,72.584794 68.695617,73.820277 70.163423,73.9586 C 71.67325,74.12227 72.265297,74.365512 73.011512,74.581615 L 73.011512,84.371777 C 72.994382,85.786079 74.017617,86.998812 75.414495,87.219813 L 109.50217,92.470912 C 111.37065,92.751063 112.68241,93.067669 113.41819,93.360909 L 113.41819,110.36021 C 112.72551,110.98124 111.78685,111.62232 109.94701,111.96222 L 64.734362,120.23937 C 64.645501,120.23516 64.556373,120.23516 64.467512,120.23937 C 60.868391,121.2577 56.999208,121.25781 53.787111,120.68436 C 53.702533,120.66924 53.604037,120.61127 53.520262,120.59537 C 53.43274,120.5613 53.343611,120.53162 53.253145,120.50635 C 41.504008,117.26114 28.923542,113.9312 16.762757,110.62719 C 16.063649,110.43946 15.637279,110.21337 15.427707,110.0932 L 15.427707,92.826916 C 16.001286,92.689798 16.586642,92.501504 17.83069,92.381917 L 54.410206,88.554836 C 55.878012,88.416513 56.997602,87.18103 56.991178,85.7068 L 56.991178,74.670609 C 57.83348,74.45539 58.560424,74.224299 60.106384,74.047621 C 61.53886,73.867036 62.609469,72.643303 62.598496,71.199559 L 62.598496,42.185103 C 62.621781,40.935434 61.827657,39.816513 60.640351,39.426062 C 54.601578,37.515987 50.138206,31.886374 50.138206,25.185831 C 50.138206,16.900972 56.805695,10.23359 65.090339,10.23359 z"
       id="path10465"
       sodipodi:nodetypes="csccsscccssccccssscsccccsccccccssssssccsccscccscccccccccssssccccccscccsc" />
    <path
       sodipodi:nodetypes="cccccccc"
       id="path10380"
       d="M 48.756317,99.774182 L 17.146036,93.054099 C 11.548889,91.975808 10.496212,90.258711 17.602651,89.575502 L 72.446498,83.837382 L 109.94781,89.626168 C 117.59464,90.772818 119.2142,93.299001 109.92158,94.534645 L 65.835484,100.07077 C 59.611763,101.03362 54.033887,100.70409 48.756317,99.774182 z"
       style="fill:url(#linearGradient10417);fill-rule:evenodd;stroke:none;stroke-width:1px;stroke-linecap:round;stroke-linejoin:round;stroke-opacity:1;display:inline" />
    <path
       sodipodi:type="arc"
       style="opacity:1;fill:url(#linearGradient10533);fill-opacity:1;stroke:none;stroke-width:1;stroke-linecap:round;stroke-linejoin:round;stroke-miterlimit:4;stroke-dasharray:none;stroke-dashoffset:0;stroke-opacity:1;display:inline"
       id="path10434"
       sodipodi:cx="508.1875"
       sodipodi:cy="974.61218"
       sodipodi:rx="4.9375"
       sodipodi:ry="0.75"
       d="M 513.125,974.61218 A 4.9375,0.75 0 1 1 503.25,974.61218 A 4.9375,0.75 0 1 1 513.125,974.61218 z"
       transform="matrix(2.9742251,0,0,4.3907371,-1446.2846,-4189.5906)" />
    <path
       style="fill:url(#linearGradient10447);fill-opacity:1;stroke:none;stroke-width:0.99999994;stroke-linecap:round;stroke-linejoin:round;stroke-miterlimit:4;stroke-dashoffset:0;stroke-opacity:1;display:inline"
       d="M 54.155669,72.766316 C 60.45005,70.269199 70.912582,70.376876 75.886634,72.499306 L 75.886634,89.435707 C 69.226907,91.87319 60.111202,91.695897 54.155669,89.435707 L 54.155669,72.766316 z"
       id="rect10398"
       sodipodi:nodetypes="ccccc" />
    <path
       sodipodi:nodetypes="ccsc"
       id="path10401"
       d="M 54.155669,72.470721 C 57.957938,70.412982 72.247632,70.161871 75.886634,72.470721 C 73.281306,73.966924 67.645884,74.968265 65.022623,74.980015 C 62.252689,74.992354 56.997602,74.218062 54.155669,72.470721 z"
       style="fill:url(#linearGradient10449);fill-opacity:1;stroke:none;stroke-width:0.99999994;stroke-linecap:round;stroke-linejoin:round;stroke-miterlimit:4;stroke-dashoffset:0;stroke-opacity:1;display:inline" />
    <path
       style="fill:url(#linearGradient10445);fill-opacity:1;stroke:none;stroke-width:1;stroke-linecap:round;stroke-linejoin:round;stroke-miterlimit:4;stroke-dashoffset:0;stroke-opacity:1;display:inline"
       d="M 59.744518,37.833932 L 70.436161,37.833932 L 70.436161,72.031048 C 67.148319,73.41995 63.033431,73.40646 59.744518,72.031048 L 59.744518,37.833932 z"
       id="rect10394"
       sodipodi:nodetypes="ccccc" />
    <path
       sodipodi:type="arc"
       style="opacity:1;fill:url(#linearGradient10451);fill-opacity:1;stroke:none;stroke-width:2;stroke-linecap:round;stroke-linejoin:round;stroke-miterlimit:4;stroke-dasharray:none;stroke-dashoffset:0;stroke-opacity:1;display:inline"
       id="path10390"
       sodipodi:cx="508.375"
       sodipodi:cy="952.61218"
       sodipodi:rx="5.75"
       sodipodi:ry="5.75"
       d="M 514.125,952.61218 A 5.75,5.75 0 1 1 502.625,952.61218 A 5.75,5.75 0 1 1 514.125,952.61218 z"
       transform="matrix(3.0957018,0,0,3.0957018,-1508.6871,-2923.8542)" />
    <path
       transform="matrix(1.0525387,0,0,1.0525387,-474.97802,-982.8519)"
       d="M 514.125,952.61218 A 5.75,5.75 0 1 1 502.625,952.61218 A 5.75,5.75 0 1 1 514.125,952.61218 z"
       sodipodi:ry="5.75"
       sodipodi:rx="5.75"
       sodipodi:cy="952.61218"
       sodipodi:cx="508.375"
       id="path10392"
       style="opacity:1;fill:url(#linearGradient10453);fill-opacity:1;stroke:none;stroke-width:2;stroke-linecap:round;stroke-linejoin:round;stroke-miterlimit:4;stroke-dasharray:none;stroke-dashoffset:0;stroke-opacity:1;display:inline"
       sodipodi:type="arc" />
    <path
       style="fill:url(#linearGradient10463);fill-opacity:1;stroke:none;stroke-width:1;stroke-linecap:round;stroke-linejoin:round;stroke-miterlimit:4;stroke-dashoffset:0;stroke-opacity:1;display:inline"
       d="M 37.017351,91.510548 C 37.017351,92.470831 33.492101,93.250128 29.148103,93.250128 C 24.804106,93.250128 21.278589,92.470831 21.278589,91.510548 C 21.278589,91.439781 21.264135,91.036268 21.301607,90.967722 C 21.769195,90.105882 25.124218,89.770968 29.148103,89.770968 C 33.176807,89.770968 36.568498,90.096433 37.029663,90.959746 C 37.065796,91.027302 37.017351,91.440851 37.017351,91.510548 z"
       id="path10404"
       sodipodi:nodetypes="csssssc" />
    <path
       style="fill:url(#linearGradient10461);fill-opacity:1;stroke:none;stroke-width:1;stroke-linecap:round;stroke-linejoin:round;stroke-miterlimit:4;stroke-dashoffset:0;stroke-opacity:1;display:inline"
       d="M 65.818889,97.217941 C 65.818889,98.231969 62.095844,99.054946 57.508818,99.054946 C 52.921791,99.054946 49.198746,98.231969 49.198746,97.217941 C 49.198746,97.157532 49.178672,96.686196 49.204367,96.627286 C 49.612002,95.697167 53.195064,95.380989 57.508818,95.380989 C 61.845054,95.380989 65.431329,95.682499 65.808183,96.61955 C 65.829863,96.67375 65.818889,97.162483 65.818889,97.217941 z"
       id="path10407"
       sodipodi:nodetypes="csssssc" />
    <path
       style="fill:url(#linearGradient10432);fill-rule:evenodd;stroke:none;stroke-width:1px;stroke-linecap:round;stroke-linejoin:round;stroke-opacity:1;display:inline"
       d="M 12.573462,91.081394 L 12.573462,110.84252 C 12.80284,112.34635 14.367001,112.88893 16.055084,113.34239 C 28.252806,116.65638 40.746284,120.05795 52.501577,123.30506 L 56.108996,111.21729 L 52.377921,100.22898 L 16.451745,92.965533 C 14.918097,92.464247 13.048813,92.139719 12.573462,91.081394 z"
       id="path10410"
       sodipodi:nodetypes="cccccccc" />
    <path
       sodipodi:nodetypes="ccccccccc"
       id="path10412"
       d="M 116.30991,92.421449 L 116.30991,111.86787 C 115.04284,113.50009 112.90028,114.25669 110.45314,114.70878 L 65.231125,122.96423 C 60.831722,124.20889 56.144861,124.17739 52.414055,123.3955 L 52.351156,100.23596 C 56.498162,100.67001 60.811648,100.81321 65.626179,100.07949 L 110.72748,94.320149 C 112.93642,94.134773 114.92748,93.669191 116.30991,92.421449 z"
       style="fill:url(#linearGradient10429);fill-rule:evenodd;stroke:none;stroke-width:1px;stroke-linecap:round;stroke-linejoin:round;stroke-opacity:1;display:inline" />
    <path
       sodipodi:nodetypes="cccccccc"
       id="path10421"
       d="M 12.573462,91.081394 L 12.573462,110.84252 C 12.80284,112.34635 14.367001,112.88893 16.055084,113.34239 C 28.252806,116.65638 40.746284,120.05795 52.501577,123.30506 L 56.108996,111.21729 L 52.377921,100.22898 L 16.451745,92.965533 C 14.918097,92.464247 13.048813,92.139719 12.573462,91.081394 z"
       style="fill:url(#linearGradient10440);fill-rule:evenodd;stroke:none;stroke-width:1px;stroke-linecap:round;stroke-linejoin:round;stroke-opacity:1;display:inline" />
    <path
       style="fill:url(#linearGradient10443);fill-opacity:1;fill-rule:evenodd;stroke:none;stroke-width:1px;stroke-linecap:round;stroke-linejoin:round;stroke-opacity:1;display:inline"
       d="M 116.30991,92.421449 L 116.30991,111.86787 C 115.04284,113.50009 112.90028,114.25669 110.45314,114.70878 L 65.231125,122.96423 C 60.831722,124.20889 56.144861,124.17739 52.414055,123.3955 L 52.351156,100.23596 C 56.498162,100.67001 60.811648,100.81321 65.626179,100.07949 L 110.72748,94.320149 C 112.93642,94.134773 114.92748,93.669191 116.30991,92.421449 z"
       id="path10423"
       sodipodi:nodetypes="ccccccccc" />
    <path
       transform="matrix(2.5071888,0,0,3.3151473,-1220.8198,-3143.1429)"
       d="M 501.69226,975.55829 A 3.1387637,0.52474278 0 1 1 495.41473,975.55829 A 3.1387637,0.52474278 0 1 1 501.69226,975.55829 z"
       sodipodi:ry="0.52474278"
       sodipodi:rx="3.1387637"
       sodipodi:cy="975.55829"
       sodipodi:cx="498.5535"
       id="path10436"
       style="opacity:1;fill:url(#linearGradient10457);fill-opacity:1;stroke:none;stroke-width:1;stroke-linecap:round;stroke-linejoin:round;stroke-miterlimit:4;stroke-dasharray:none;stroke-dashoffset:0;stroke-opacity:1;display:inline"
       sodipodi:type="arc" />
    <path
       sodipodi:type="arc"
       style="opacity:1;fill:url(#linearGradient10455);fill-opacity:1;stroke:none;stroke-width:1;stroke-linecap:round;stroke-linejoin:round;stroke-miterlimit:4;stroke-dasharray:none;stroke-dashoffset:0;stroke-opacity:1;display:inline"
       id="path10438"
       sodipodi:cx="498.5535"
       sodipodi:cy="975.55829"
       sodipodi:rx="3.1387637"
       sodipodi:ry="0.52474278"
       d="M 501.69226,975.55829 A 3.1387637,0.52474278 0 1 1 495.41473,975.55829 A 3.1387637,0.52474278 0 1 1 501.69226,975.55829 z"
       transform="matrix(2.6475417,0,0,3.5007303,-1262.4324,-3318.4825)" />
  </g>
</svg>
