<?xml version="1.0" encoding="UTF-8" standalone="no"?>
<!-- Created with Inkscape (http://www.inkscape.org/) -->

<svg
   xmlns:dc="http://purl.org/dc/elements/1.1/"
   xmlns:cc="http://creativecommons.org/ns#"
   xmlns:rdf="http://www.w3.org/1999/02/22-rdf-syntax-ns#"
   xmlns:svg="http://www.w3.org/2000/svg"
   xmlns="http://www.w3.org/2000/svg"
   xmlns:xlink="http://www.w3.org/1999/xlink"
   xmlns:sodipodi="http://sodipodi.sourceforge.net/DTD/sodipodi-0.dtd"
   xmlns:inkscape="http://www.inkscape.org/namespaces/inkscape"
   width="128"
   height="128"
   id="svg2"
   sodipodi:version="0.32"
   inkscape:version="0.48.3.1 r9886"
   version="1.0"
   sodipodi:docname="document-print-preview.svg"
   inkscape:output_extension="org.inkscape.output.svg.inkscape">
  <defs
     id="defs4">
    <linearGradient
       id="linearGradient12594">
      <stop
         id="stop12596"
         offset="0"
         style="stop-color:#e9b551;stop-opacity:1;" />
      <stop
         id="stop12598"
         offset="1"
         style="stop-color:#e9b551;stop-opacity:0;" />
    </linearGradient>
    <linearGradient
       id="linearGradient5316">
      <stop
         style="stop-color:#aac736;stop-opacity:1;"
         offset="0"
         id="stop5320" />
      <stop
         style="stop-color:#5d8b2c;stop-opacity:1;"
         offset="1"
         id="stop5322" />
    </linearGradient>
    <linearGradient
       id="linearGradient9863">
      <stop
         style="stop-color:#2f445a;stop-opacity:1;"
         offset="0"
         id="stop9865" />
      <stop
         style="stop-color:#415f7c;stop-opacity:1"
         offset="1"
         id="stop9867" />
    </linearGradient>
    <linearGradient
       id="linearGradient5362">
      <stop
         style="stop-color:#ffffff;stop-opacity:1;"
         offset="0"
         id="stop5364" />
      <stop
         style="stop-color:#ffffff;stop-opacity:0;"
         offset="1"
         id="stop5366" />
    </linearGradient>
    <linearGradient
       id="linearGradient5439">
      <stop
         style="stop-color:#ffffff;stop-opacity:1;"
         offset="0"
         id="stop5441" />
      <stop
         style="stop-color:#000000;stop-opacity:1;"
         offset="1"
         id="stop5443" />
    </linearGradient>
    <linearGradient
       id="linearGradient5344">
      <stop
         style="stop-color:#000000;stop-opacity:1;"
         offset="0"
         id="stop5346" />
      <stop
         style="stop-color:#000000;stop-opacity:0;"
         offset="1"
         id="stop5348" />
    </linearGradient>
    <linearGradient
       inkscape:collect="always"
       xlink:href="#linearGradient12594"
       id="linearGradient11669"
       gradientUnits="userSpaceOnUse"
       x1="1194.4072"
       y1="306.77557"
       x2="1202.3015"
       y2="316.06638" />
    <linearGradient
       inkscape:collect="always"
       xlink:href="#linearGradient5439"
       id="linearGradient11674"
       gradientUnits="userSpaceOnUse"
       gradientTransform="matrix(2.6765239,0,0,2.6562477,-2101.6336,-933.00786)"
       x1="815.53125"
       y1="354.75"
       x2="841.96875"
       y2="379.125" />
    <linearGradient
       inkscape:collect="always"
       xlink:href="#linearGradient5316"
       id="linearGradient11677"
       gradientUnits="userSpaceOnUse"
       gradientTransform="matrix(3.0367227,0,0,3.0136668,-3560.7518,-938.0559)"
       x1="1196.1906"
       y1="321.07474"
       x2="1203.3486"
       y2="327.61548" />
    <linearGradient
       inkscape:collect="always"
       xlink:href="#linearGradient5344"
       id="linearGradient11680"
       gradientUnits="userSpaceOnUse"
       gradientTransform="matrix(2.6765239,0,0,2.6562477,-3124.0657,-826.75795)"
       x1="1240.4443"
       y1="290.34167"
       x2="1183.4896"
       y2="344.66345" />
    <linearGradient
       inkscape:collect="always"
       xlink:href="#linearGradient9863"
       id="linearGradient11683"
       gradientUnits="userSpaceOnUse"
       gradientTransform="matrix(2.6765239,0,0,2.6562477,-3065.1821,-136.13355)"
       x1="1172.1902"
       y1="99.328629"
       x2="1172.1902"
       y2="52.357536" />
    <linearGradient
       inkscape:collect="always"
       xlink:href="#linearGradient5344"
       id="linearGradient11686"
       gradientUnits="userSpaceOnUse"
       gradientTransform="matrix(2.6765239,0,0,2.6562477,-1298.8019,-2494.8815)"
       x1="510.8006"
       y1="971.34143"
       x2="521.81042"
       y2="986.15393" />
    <linearGradient
       inkscape:collect="always"
       xlink:href="#linearGradient5344"
       id="linearGradient11689"
       gradientUnits="userSpaceOnUse"
       gradientTransform="matrix(2.6765239,0,0,2.6562477,-2958.1212,-667.38309)"
       x1="1129.8333"
       y1="279.14658"
       x2="1129.6968"
       y2="277.33365" />
    <linearGradient
       inkscape:collect="always"
       xlink:href="#linearGradient5316"
       id="linearGradient11692"
       gradientUnits="userSpaceOnUse"
       gradientTransform="matrix(2.6765239,0,0,2.6562477,-1298.8019,-2494.8815)"
       x1="521.3006"
       y1="987.46643"
       x2="517.81042"
       y2="981.65393" />
    <linearGradient
       inkscape:collect="always"
       xlink:href="#linearGradient5362"
       id="linearGradient11695"
       gradientUnits="userSpaceOnUse"
       gradientTransform="matrix(2.6765239,0,0,2.6562477,-1298.8019,-2494.8815)"
       x1="530.70715"
       y1="987.82306"
       x2="527.51965"
       y2="974.76056" />
    <linearGradient
       inkscape:collect="always"
       xlink:href="#linearGradient5362"
       id="linearGradient11698"
       gradientUnits="userSpaceOnUse"
       gradientTransform="matrix(2.6765239,0,0,2.6562477,-1298.8019,-2494.8815)"
       x1="519.8905"
       y1="987.91498"
       x2="516.83636"
       y2="977.53998" />
    <linearGradient
       inkscape:collect="always"
       xlink:href="#linearGradient5439"
       id="linearGradient11701"
       gradientUnits="userSpaceOnUse"
       gradientTransform="matrix(2.6765239,0,0,2.6562477,-2958.1212,-667.38309)"
       x1="1123.3315"
       y1="257.92944"
       x2="1152.9561"
       y2="395.60709" />
    <linearGradient
       inkscape:collect="always"
       xlink:href="#linearGradient5439"
       id="linearGradient11704"
       gradientUnits="userSpaceOnUse"
       gradientTransform="matrix(2.6765239,0,0,2.6562477,-2958.1212,-667.38309)"
       x1="1126.8752"
       y1="264.99054"
       x2="1112.0474"
       y2="321.77481" />
    <linearGradient
       inkscape:collect="always"
       xlink:href="#linearGradient5439"
       id="linearGradient11707"
       gradientUnits="userSpaceOnUse"
       gradientTransform="matrix(2.6765239,0,0,2.6562477,-1297.6309,-2495.2135)"
       x1="460.05701"
       y1="938.95984"
       x2="578.43964"
       y2="1001.9598" />
    <linearGradient
       inkscape:collect="always"
       xlink:href="#linearGradient5439"
       id="linearGradient11710"
       gradientUnits="userSpaceOnUse"
       gradientTransform="matrix(2.6765239,0,0,2.6562477,-1297.6309,-2495.2135)"
       x1="495.14523"
       y1="952.63599"
       x2="490.30273"
       y2="974.92358" />
    <linearGradient
       inkscape:collect="always"
       xlink:href="#linearGradient5439"
       id="linearGradient11715"
       gradientUnits="userSpaceOnUse"
       gradientTransform="matrix(2.6765239,0,0,2.6562477,-1298.8019,-2494.8815)"
       x1="518.11029"
       y1="962.73602"
       x2="521.13147"
       y2="992.92078" />
    <linearGradient
       inkscape:collect="always"
       xlink:href="#linearGradient5439"
       id="linearGradient11718"
       gradientUnits="userSpaceOnUse"
       gradientTransform="matrix(2.6765239,0,0,2.6562477,-1298.8019,-2494.8815)"
       x1="523.25903"
       y1="955.53271"
       x2="528.47394"
       y2="1007.3283" />
    <linearGradient
       inkscape:collect="always"
       xlink:href="#linearGradient5439"
       id="linearGradient11721"
       gradientUnits="userSpaceOnUse"
       gradientTransform="matrix(2.6765239,0,0,2.6562477,-1298.8019,-2494.8815)"
       x1="486.89792"
       y1="969.32477"
       x2="503.62073"
       y2="1000.8342" />
  </defs>
  <sodipodi:namedview
     id="base"
     pagecolor="#ffffff"
     bordercolor="#666666"
     borderopacity="1.0"
     inkscape:pageopacity="0.0"
     inkscape:pageshadow="2"
     inkscape:zoom="2.5020702"
     inkscape:cx="99.78684"
     inkscape:cy="65.872458"
     inkscape:document-units="px"
     inkscape:current-layer="layer1"
     showgrid="false"
     inkscape:showpageshadow="false"
     inkscape:window-width="1024"
     inkscape:window-height="713"
     inkscape:window-x="0"
     inkscape:window-y="0"
     showguides="true"
     inkscape:guide-bbox="true"
     inkscape:window-maximized="0" />
  <metadata
     id="metadata7">
    <rdf:RDF>
      <cc:Work
         rdf:about="">
        <dc:format>image/svg+xml</dc:format>
        <dc:type
           rdf:resource="http://purl.org/dc/dcmitype/StillImage" />
      </cc:Work>
    </rdf:RDF>
  </metadata>
  <g
     inkscape:label="Capa 1"
     inkscape:groupmode="layer"
     id="layer1">
    <path
       inkscape:export-ydpi="57.964222"
       inkscape:export-xdpi="57.964222"
       inkscape:export-filename="/home/dafeba/DCV/tallerD/bocetos/08-09-22-hastaahora.png"
       sodipodi:nodetypes="cccccc"
       id="path10871"
       d="M 6.9119,73.742532 C 20.377492,76.047013 31.749239,85.772811 31.805981,92.906403 L 31.687679,126.01058 L 1.6428951,118.02803 L 1.6428951,84.218003 C 1.9212536,77.084544 4.6480961,75.243126 6.9119,73.742532 z"
       style="fill:url(#linearGradient11721);fill-rule:evenodd;stroke:none;stroke-width:1px;stroke-linecap:butt;stroke-linejoin:miter;stroke-opacity:1;display:inline" />
    <path
       inkscape:export-ydpi="57.964222"
       inkscape:export-xdpi="57.964222"
       inkscape:export-filename="/home/dafeba/DCV/tallerD/bocetos/08-09-22-hastaahora.png"
       style="fill:url(#linearGradient11718);fill-rule:evenodd;stroke:none;stroke-width:1px;stroke-linecap:butt;stroke-linejoin:miter;stroke-opacity:1;display:inline"
       d="M 126.55359,83.51516 L 126.37828,82.684684 L 31.451074,92.671618 L 31.520396,126.01058 L 126.55359,110.28023 L 126.55359,83.51516 z"
       id="path10873"
       sodipodi:nodetypes="cccccc" />
    <path
       inkscape:export-ydpi="57.964222"
       inkscape:export-xdpi="57.964222"
       inkscape:export-filename="/home/dafeba/DCV/tallerD/bocetos/08-09-22-hastaahora.png"
       sodipodi:nodetypes="cccccc"
       id="path10875"
       d="M 126.55359,83.51516 L 31.451074,92.906403 C 31.451074,84.00298 12.813368,75.553934 6.8286601,73.807371 C 8.7340775,72.819672 10.828457,72.61384 12.943714,72.479726 L 99.185329,67.481279 C 116.47059,69.016749 126.52549,74.858741 126.55359,83.51516 z"
       style="fill:url(#linearGradient11715);fill-rule:evenodd;stroke:none;stroke-width:1px;stroke-linecap:butt;stroke-linejoin:miter;stroke-opacity:1;display:inline" />
    <path
       inkscape:export-ydpi="57.964222"
       inkscape:export-xdpi="57.964222"
       inkscape:export-filename="/home/dafeba/DCV/tallerD/bocetos/08-09-22-hastaahora.png"
       sodipodi:nodetypes="ccccc"
       id="path10877"
       d="M 43.516309,123.66278 C 43.645852,109.43719 44.849217,100.34469 50.377042,99.480271 L 112.35918,92.202073 C 119.04273,91.359963 118.98331,98.496689 118.98331,111.45413 L 43.516309,123.66278 z"
       style="fill:#000000;fill-rule:evenodd;stroke:none;stroke-width:1px;stroke-linecap:butt;stroke-linejoin:miter;stroke-opacity:1;display:inline" />
    <path
       inkscape:export-ydpi="57.964222"
       inkscape:export-xdpi="57.964222"
       inkscape:export-filename="/home/dafeba/DCV/tallerD/bocetos/08-09-22-hastaahora.png"
       sodipodi:nodetypes="ccccc"
       id="path10879"
       d="M 18.471271,72.191895 C 21.134413,72.573518 22.872815,73.789973 24.279061,74.921083 L 98.068148,69.476944 C 96.175578,68.509964 93.766439,68.090648 91.443216,67.98995 L 18.471271,72.191895 z"
       style="fill:#1a1a1a;fill-rule:evenodd;stroke:none;stroke-width:1px;stroke-linecap:butt;stroke-linejoin:miter;stroke-opacity:1;display:inline" />
    <path
       inkscape:export-ydpi="57.964222"
       inkscape:export-xdpi="57.964222"
       inkscape:export-filename="/home/dafeba/DCV/tallerD/bocetos/08-09-22-hastaahora.png"
       sodipodi:nodetypes="ccccccc"
       id="path10881"
       d="M 22.588033,72.143524 L 20.793424,49.139835 L 86.560166,46.736887 L 88.137977,47.106557 L 89.065125,68.541254 L 24.15139,73.263239 L 22.588033,72.143524 z"
       style="fill:url(#linearGradient11710);fill-rule:evenodd;stroke:none;stroke-width:1px;stroke-linecap:butt;stroke-linejoin:miter;stroke-opacity:1;display:inline" />
    <path
       inkscape:export-ydpi="57.964222"
       inkscape:export-xdpi="57.964222"
       inkscape:export-filename="/home/dafeba/DCV/tallerD/bocetos/08-09-22-hastaahora.png"
       style="fill:url(#linearGradient11707);fill-rule:evenodd;stroke:none;stroke-width:1px;stroke-linecap:butt;stroke-linejoin:miter;stroke-opacity:1;display:inline"
       d="M 24.093578,73.305633 L 22.04791,49.554874 L 88.170363,47.089663 L 90.319879,68.956293 L 24.093578,73.305633 z"
       id="path10883"
       sodipodi:nodetypes="ccccc" />
    <path
       inkscape:export-ydpi="57.964222"
       inkscape:export-xdpi="57.964222"
       inkscape:export-filename="/home/dafeba/DCV/tallerD/bocetos/08-09-22-hastaahora.png"
       style="fill:url(#linearGradient11704);fill-rule:evenodd;stroke:none;stroke-width:1px;stroke-linecap:butt;stroke-linejoin:miter;stroke-opacity:1;display:inline"
       d="M 32.783715,74.269373 L 27.705814,19.235559 L 30.424092,17.714911 L 73.55788,19.520123 L 81.228798,70.665854 L 35.838967,74.096902 L 32.783715,74.269373 z"
       id="path10885"
       sodipodi:nodetypes="ccccccc" />
    <path
       inkscape:export-ydpi="57.964222"
       inkscape:export-xdpi="57.964222"
       inkscape:export-filename="/home/dafeba/DCV/tallerD/bocetos/08-09-22-hastaahora.png"
       sodipodi:nodetypes="ccccc"
       id="path10887"
       d="M 35.543747,74.061867 L 30.716904,17.74142 L 76.736253,19.354108 L 81.897929,70.665854 L 35.543747,74.061867 z"
       style="fill:url(#linearGradient11701);fill-rule:evenodd;stroke:none;stroke-width:1px;stroke-linecap:butt;stroke-linejoin:miter;stroke-opacity:1;display:inline" />
    <path
       inkscape:export-ydpi="57.964222"
       inkscape:export-xdpi="57.964222"
       inkscape:export-filename="/home/dafeba/DCV/tallerD/bocetos/08-09-22-hastaahora.png"
       style="fill:url(#linearGradient11698);fill-rule:evenodd;stroke:none;stroke-width:1px;stroke-linecap:butt;stroke-linejoin:miter;stroke-opacity:1;display:inline"
       d="M 43.516309,123.66278 C 43.537988,121.28047 43.589913,119.0421 43.687071,116.96223 L 107.00613,107.64151 L 118.98331,111.45413 L 43.516309,123.66278 z"
       id="path10889"
       sodipodi:nodetypes="ccccc" />
    <path
       inkscape:export-ydpi="57.964222"
       inkscape:export-xdpi="57.964222"
       inkscape:export-filename="/home/dafeba/DCV/tallerD/bocetos/08-09-22-hastaahora.png"
       style="fill:url(#linearGradient11695);fill-rule:evenodd;stroke:none;stroke-width:1px;stroke-linecap:butt;stroke-linejoin:miter;stroke-opacity:1;display:inline"
       d="M 107.25103,107.72529 L 107.50049,92.772608 L 112.35918,92.202073 C 119.04273,91.359963 118.98331,98.496689 118.98331,111.45413 L 107.25103,107.72529 z"
       id="path10891"
       sodipodi:nodetypes="ccccc" />
    <path
       inkscape:export-ydpi="57.964222"
       inkscape:export-xdpi="57.964222"
       inkscape:export-filename="/home/dafeba/DCV/tallerD/bocetos/08-09-22-hastaahora.png"
       sodipodi:nodetypes="cccccc"
       id="path10893"
       d="M 122.88327,115.11338 C 127.57361,116.37735 121.97406,121.47004 115.91949,123.4796 C 108.38106,125.93966 86.374147,127.7267 78.407474,124.73941 L 49.632433,115.97586 L 100.50753,108.59574 L 122.88327,115.11338 z"
       style="fill:url(#linearGradient11692);fill-opacity:1;fill-rule:evenodd;stroke:none;stroke-width:1px;stroke-linecap:butt;stroke-linejoin:miter;stroke-opacity:1;display:inline" />
    <path
       inkscape:export-ydpi="57.964222"
       inkscape:export-xdpi="57.964222"
       inkscape:export-filename="/home/dafeba/DCV/tallerD/bocetos/08-09-22-hastaahora.png"
       style="fill:url(#linearGradient11689);fill-rule:evenodd;stroke:none;stroke-width:1px;stroke-linecap:butt;stroke-linejoin:miter;stroke-opacity:1;display:inline"
       d="M 18.471271,72.191895 C 21.134413,72.573518 22.872815,73.789973 24.279061,74.921083 L 98.068148,69.476944 C 96.175578,68.509964 91.873869,67.503697 89.550646,67.402999 L 18.471271,72.191895 z"
       id="path10895"
       sodipodi:nodetypes="ccccc" />
    <path
       style="fill:url(#linearGradient11686);fill-opacity:1;fill-rule:evenodd;stroke:none;stroke-width:1px;stroke-linecap:butt;stroke-linejoin:miter;stroke-opacity:1;display:inline"
       d="M 122.88327,115.11338 C 127.57361,116.37735 121.97406,121.47004 115.91949,123.4796 C 108.38106,125.93966 86.374147,127.7267 78.407474,124.73941 L 49.632433,115.97586 L 100.50753,108.59574 L 122.88327,115.11338 z"
       id="path10897"
       sodipodi:nodetypes="cccccc"
       inkscape:export-filename="/home/dafeba/DCV/tallerD/bocetos/08-09-22-hastaahora.png"
       inkscape:export-xdpi="57.964222"
       inkscape:export-ydpi="57.964222" />
    <path
       sodipodi:nodetypes="cccccccccccccccccccccccc"
       inkscape:export-ydpi="57.964222"
       inkscape:export-xdpi="57.964222"
       inkscape:export-filename="/home/dafeba/DCV/tallerD/bocetos/08-09-22-hastaahora.png"
       id="path10899"
       d="M 30.426768,17.679662 L 27.666737,19.256942 L 30.426768,48.807698 L 20.808144,49.139729 L 22.564479,71.88385 L 12.945856,72.464771 C 10.830599,72.598912 8.7453189,72.805036 6.8399015,73.792895 C 4.5945656,75.283581 1.9290155,77.212814 1.6541365,84.252136 L 1.6541365,118.03615 L 31.51424,126.0049 L 64.636223,120.52639 L 78.436916,124.75991 C 86.403589,127.74713 108.37009,125.97462 115.90825,123.51466 C 121.96308,121.50521 127.54096,116.39486 122.85062,115.13102 L 113.65007,112.47477 L 126.35338,110.34565 L 126.41254,83.534285 C 126.38417,74.877839 116.41225,68.948966 99.126987,67.413655 L 91.294937,67.670946 L 88.612524,46.008146 L 80.234202,46.218494 L 76.764088,19.339817 L 39.627319,18.094834 L 30.426768,17.679662 z"
       style="fill:none;fill-rule:evenodd;stroke:url(#linearGradient11683);stroke-width:2.66636658;stroke-linecap:round;stroke-linejoin:round;stroke-miterlimit:4;stroke-dasharray:none;stroke-opacity:1;display:inline" />
    <path
       sodipodi:nodetypes="csccccccccccssc"
       style="fill:url(#linearGradient11680);fill-opacity:1;stroke:none;stroke-width:0.49999997;stroke-linecap:round;stroke-linejoin:round;stroke-miterlimit:4;stroke-dasharray:none;stroke-opacity:1;display:inline"
       d="M 91.876278,10.706693 C 80.063707,10.706693 70.429559,20.173401 70.429559,31.896537 C 70.429559,35.637384 71.468318,39.202334 73.181561,42.25601 L 67.772574,47.6241 C 66.757636,48.631084 66.229023,49.983034 66.254182,51.297 L 53.940299,63.256995 C 52.526559,64.660158 52.526023,66.939404 53.940299,68.342567 L 55.458691,69.849403 C 56.87243,71.252566 59.169156,71.252539 60.582896,69.849403 L 72.80203,57.889409 C 74.157154,57.940462 75.464101,57.413887 76.503127,56.382572 L 82.10188,50.826127 C 85.025982,52.314821 88.366017,53.180546 91.876278,53.180546 C 103.68912,53.180546 113.22825,43.619701 113.22825,31.896537 C 113.22825,20.173401 103.68938,10.706693 91.876278,10.706693 z"
       id="path9475"
       inkscape:export-filename="/home/dafeba/DCV/tallerD/bocetos/08-09-22-hastaahora.png"
       inkscape:export-xdpi="57.964222"
       inkscape:export-ydpi="57.964222" />
    <path
       style="fill:url(#linearGradient11677);fill-opacity:1;stroke:none;stroke-width:0.5;stroke-linecap:round;stroke-linejoin:round;stroke-miterlimit:4;stroke-dasharray:none;stroke-opacity:1;display:inline"
       d="M 98.973616,2.0198071 C 87.161313,2.0198071 77.527165,11.486514 77.527165,23.209651 C 77.527165,26.950525 78.565657,30.515448 80.279167,33.569123 L 74.87018,38.937214 C 73.855242,39.944224 73.326093,41.296148 73.351788,42.610141 L 61.079658,54.528618 C 59.665651,55.931781 59.665115,58.211001 61.079658,59.614163 L 62.59805,61.121 C 64.011523,62.524162 66.308783,62.524136 67.722255,61.121 L 79.899369,49.202522 C 81.25476,49.253576 82.561172,48.727001 83.600733,47.695686 L 89.199486,42.139241 C 92.123588,43.627935 95.46389,44.493686 98.973616,44.493686 C 110.78672,44.493686 120.32585,34.932814 120.32585,23.209651 C 120.32585,11.486514 110.78726,2.0198071 98.973616,2.0198071 z M 97.265994,7.1053792 C 97.813611,7.0500761 98.411278,7.1053792 98.973616,7.1053792 C 107.97664,7.1054058 115.29613,14.275282 115.29613,23.209651 C 115.29613,32.14402 107.97664,39.408114 98.973616,39.408114 C 89.971128,39.408087 82.65137,32.14402 82.65137,23.209651 C 82.651638,14.833679 89.044783,7.9347394 97.265994,7.1053792 z"
       id="rect9460"
       sodipodi:nodetypes="csccccccccccssccssssc"
       inkscape:export-filename="/home/dafeba/DCV/tallerD/bocetos/08-09-22-hastaahora.png"
       inkscape:export-xdpi="57.964222"
       inkscape:export-ydpi="57.964222" />
    <path
       style="fill:url(#linearGradient11674);fill-opacity:1;stroke:none;stroke-width:0.627451;stroke-linecap:round;stroke-linejoin:round;stroke-miterlimit:4;stroke-dasharray:none;stroke-opacity:1;display:inline"
       d="M 98.97094,1.9083243 C 87.105615,1.9083243 77.475161,11.466115 77.475107,23.241314 C 77.475107,35.016539 87.105641,44.57433 98.97094,44.574303 C 110.83626,44.574303 120.46672,35.016566 120.46677,23.241314 C 120.46677,11.466088 110.83626,1.9083509 98.97094,1.9083243 z M 98.97094,7.0548043 C 107.97367,7.0548308 115.28101,14.306945 115.28101,23.241314 C 115.28106,32.175709 107.97367,39.427823 98.97094,39.427823 C 89.968237,39.42785 82.660872,32.175683 82.660872,23.241314 C 82.660845,14.306971 89.968211,7.0548043 98.97094,7.0548043 z"
       id="path7088"
       inkscape:export-filename="/home/dafeba/DCV/tallerD/bocetos/08-09-22-hastaahora.png"
       inkscape:export-xdpi="57.964222"
       inkscape:export-ydpi="57.964222" />
    <path
       id="path9468"
       d="M 98.973616,2.0197805 C 87.161046,2.0197805 77.526898,11.486488 77.526898,23.209625 C 77.526898,26.950471 78.565657,30.515421 80.2789,33.569097 L 74.869912,38.937188 C 73.854975,39.944171 73.326361,41.296121 73.35152,42.610088 L 61.037637,54.570082 C 59.623897,55.973245 59.623362,58.252491 61.037637,59.655654 L 62.556029,61.16249 C 63.969769,62.565653 66.266494,62.565627 67.680234,61.16249 L 79.899369,49.202496 C 81.254493,49.253549 82.561439,48.726974 83.600466,47.69566 L 89.199218,42.139215 C 92.123321,43.627909 95.463355,44.493633 98.973616,44.493633 C 110.78645,44.493633 120.32559,34.932788 120.32559,23.209625 C 120.32559,11.486488 110.78672,2.0197805 98.973616,2.0197805 z"
       style="fill:none;fill-opacity:1;stroke:#000000;stroke-width:1.33318317;stroke-linecap:round;stroke-linejoin:round;stroke-miterlimit:4;stroke-dasharray:none;stroke-opacity:1;display:inline"
       sodipodi:nodetypes="csccccccccccssc"
       inkscape:export-filename="/home/dafeba/DCV/tallerD/bocetos/08-09-22-hastaahora.png"
       inkscape:export-xdpi="57.964222"
       inkscape:export-ydpi="57.964222" />
    <path
       sodipodi:type="arc"
       style="fill:url(#linearGradient11669);fill-opacity:1;stroke:none;stroke-width:0.627451;stroke-linecap:round;stroke-linejoin:round;stroke-miterlimit:4;stroke-dasharray:none;stroke-opacity:1;display:inline"
       id="path9464"
       sodipodi:cx="1199.8972"
       sodipodi:cy="314.76477"
       sodipodi:rx="6.4069266"
       sodipodi:ry="6.4069266"
       d="M 1206.3041,314.76477 A 6.4069266,6.4069266 0 1 1 1193.4903,314.76477 A 6.4069266,6.4069266 0 1 1 1206.3041,314.76477 z"
       transform="matrix(2.5455699,0,0,2.526243,-2955.4685,-771.92569)"
       inkscape:export-filename="/home/dafeba/DCV/tallerD/bocetos/08-09-22-hastaahora.png"
       inkscape:export-xdpi="57.964222"
       inkscape:export-ydpi="57.964222" />
  </g>
</svg>
