<?xml version="1.0" encoding="UTF-8" standalone="no"?>
<!-- Created with Inkscape (http://www.inkscape.org/) -->

<svg
   xmlns:dc="http://purl.org/dc/elements/1.1/"
   xmlns:cc="http://creativecommons.org/ns#"
   xmlns:rdf="http://www.w3.org/1999/02/22-rdf-syntax-ns#"
   xmlns:svg="http://www.w3.org/2000/svg"
   xmlns="http://www.w3.org/2000/svg"
   xmlns:xlink="http://www.w3.org/1999/xlink"
   xmlns:sodipodi="http://sodipodi.sourceforge.net/DTD/sodipodi-0.dtd"
   xmlns:inkscape="http://www.inkscape.org/namespaces/inkscape"
   width="128"
   height="128"
   id="svg2"
   sodipodi:version="0.32"
   inkscape:version="0.48.3.1 r9886"
   version="1.0"
   sodipodi:docname="edit-clear.svg"
   inkscape:output_extension="org.inkscape.output.svg.inkscape">
  <defs
     id="defs4">
    <linearGradient
       inkscape:collect="always"
       xlink:href="#linearGradient5362"
       id="linearGradient14088"
       gradientUnits="userSpaceOnUse"
       x1="504.91962"
       y1="635.44617"
       x2="504.48212"
       y2="641.10242"
       gradientTransform="matrix(2.6666667,0,0,2.6666667,-1293.8382,-1683.1223)" />
    <linearGradient
       inkscape:collect="always"
       xlink:href="#linearGradient5344"
       id="linearGradient14090"
       gradientUnits="userSpaceOnUse"
       x1="519.31262"
       y1="723.67017"
       x2="511.42725"
       y2="667.20789"
       gradientTransform="matrix(2.6666667,0,0,2.6666667,-1293.8382,-1683.1223)" />
    <linearGradient
       inkscape:collect="always"
       xlink:href="#linearGradient9863"
       id="linearGradient14092"
       gradientUnits="userSpaceOnUse"
       gradientTransform="matrix(2.6666667,0,0,2.6666667,-2413.8382,-1096.6223)"
       x1="927.93488"
       y1="459.10907"
       x2="927.93488"
       y2="410.98141" />
    <linearGradient
       inkscape:collect="always"
       xlink:href="#linearGradient5344"
       id="linearGradient14102"
       gradientUnits="userSpaceOnUse"
       x1="730.97162"
       y1="982.93317"
       x2="694.29047"
       y2="1023.0615" />
    <linearGradient
       inkscape:collect="always"
       xlink:href="#linearGradient5316"
       id="linearGradient14104"
       gradientUnits="userSpaceOnUse"
       x1="710.35773"
       y1="1017.5231"
       x2="701.44391"
       y2="1003.6443" />
    <linearGradient
       id="linearGradient5165-9">
      <stop
         offset="0"
         style="stop-color:#ffffff;stop-opacity:1"
         id="stop5167-6" />
      <stop
         offset="1"
         style="stop-color:#ffffff;stop-opacity:0"
         id="stop5169-7" />
    </linearGradient>
    <linearGradient
       id="linearGradient9121">
      <stop
         style="stop-color:#2f445a;stop-opacity:1"
         offset="0"
         id="stop9123" />
      <stop
         style="stop-color:#415f7c;stop-opacity:1"
         offset="1"
         id="stop9125" />
    </linearGradient>
    <linearGradient
       id="linearGradient12594">
      <stop
         id="stop12596"
         offset="0"
         style="stop-color:#e9b551;stop-opacity:1;" />
      <stop
         id="stop12598"
         offset="1"
         style="stop-color:#e9b551;stop-opacity:0;" />
    </linearGradient>
    <linearGradient
       id="linearGradient5316">
      <stop
         style="stop-color:#aac736;stop-opacity:1;"
         offset="0"
         id="stop5320" />
      <stop
         style="stop-color:#5d8b2c;stop-opacity:1;"
         offset="1"
         id="stop5322" />
    </linearGradient>
    <linearGradient
       id="linearGradient9863">
      <stop
         style="stop-color:#2f445a;stop-opacity:1;"
         offset="0"
         id="stop9865" />
      <stop
         style="stop-color:#415f7c;stop-opacity:1"
         offset="1"
         id="stop9867" />
    </linearGradient>
    <linearGradient
       id="linearGradient12336">
      <stop
         id="stop12338"
         offset="0"
         style="stop-color:#ff6e00;stop-opacity:1;" />
      <stop
         id="stop12340"
         offset="1"
         style="stop-color:#eb2600;stop-opacity:1;" />
    </linearGradient>
    <linearGradient
       id="linearGradient5362">
      <stop
         style="stop-color:#ffffff;stop-opacity:1;"
         offset="0"
         id="stop5364" />
      <stop
         style="stop-color:#ffffff;stop-opacity:0;"
         offset="1"
         id="stop5366" />
    </linearGradient>
    <linearGradient
       id="linearGradient5439">
      <stop
         style="stop-color:#ffffff;stop-opacity:1;"
         offset="0"
         id="stop5441" />
      <stop
         style="stop-color:#000000;stop-opacity:1;"
         offset="1"
         id="stop5443" />
    </linearGradient>
    <linearGradient
       inkscape:collect="always"
       xlink:href="#linearGradient5439"
       id="linearGradient13309"
       gradientUnits="userSpaceOnUse"
       x1="499.90704"
       y1="953.39532"
       x2="652.75177"
       y2="1116.9413"
       gradientTransform="matrix(2.6765239,0,0,2.6765239,-1298.6765,-2514.903)" />
    <linearGradient
       inkscape:collect="always"
       id="linearGradient5398">
      <stop
         style="stop-color:#87c6ff;stop-opacity:1;"
         offset="0"
         id="stop5400" />
      <stop
         style="stop-color:#87c6ff;stop-opacity:0"
         offset="1"
         id="stop5402" />
    </linearGradient>
    <linearGradient
       inkscape:collect="always"
       xlink:href="#linearGradient5398"
       id="linearGradient13322"
       gradientUnits="userSpaceOnUse"
       x1="500.87799"
       y1="948.11993"
       x2="500.87799"
       y2="953.17468"
       gradientTransform="matrix(2.6765239,0,0,2.6765239,-1298.6765,-2514.903)" />
    <linearGradient
       id="linearGradient5344">
      <stop
         style="stop-color:#000000;stop-opacity:1;"
         offset="0"
         id="stop5346" />
      <stop
         style="stop-color:#000000;stop-opacity:0;"
         offset="1"
         id="stop5348" />
    </linearGradient>
    <linearGradient
       inkscape:collect="always"
       xlink:href="#linearGradient5344"
       id="linearGradient13314"
       gradientUnits="userSpaceOnUse"
       x1="544.89001"
       y1="919.05762"
       x2="506.01498"
       y2="969.80762"
       gradientTransform="translate(-485.21014,-859.4386)" />
    <linearGradient
       id="linearGradient8702">
      <stop
         id="stop8704"
         offset="0"
         style="stop-color:#aac736;stop-opacity:1;" />
      <stop
         id="stop8706"
         offset="1"
         style="stop-color:#5d8b2c;stop-opacity:1;" />
    </linearGradient>
    <linearGradient
       inkscape:collect="always"
       xlink:href="#linearGradient8702"
       id="linearGradient13316"
       gradientUnits="userSpaceOnUse"
       gradientTransform="matrix(2.6765239,0,0,2.6765239,-1779.5422,-994.63744)"
       x1="700.13062"
       y1="378.86951"
       x2="707.80457"
       y2="395.74899" />
    <inkscape:perspective
       sodipodi:type="inkscape:persp3d"
       inkscape:vp_x="0 : 526.18109 : 1"
       inkscape:vp_y="0 : 1000 : 0"
       inkscape:vp_z="744.09448 : 526.18109 : 1"
       inkscape:persp3d-origin="372.04724 : 350.78739 : 1"
       id="perspective10" />
    <linearGradient
       inkscape:collect="always"
       xlink:href="#linearGradient5344-7"
       id="linearGradient8565"
       gradientUnits="userSpaceOnUse"
       gradientTransform="translate(-460.06433,-862.23137)"
       x1="537.15198"
       y1="910.49524"
       x2="477.61691"
       y2="978.19586" />
    <linearGradient
       id="linearGradient5344-7">
      <stop
         style="stop-color:#000000;stop-opacity:1;"
         offset="0"
         id="stop5346-9" />
      <stop
         style="stop-color:#000000;stop-opacity:0;"
         offset="1"
         id="stop5348-8" />
    </linearGradient>
    <filter
       color-interpolation-filters="sRGB"
       inkscape:collect="always"
       id="filter4494">
      <feGaussianBlur
         inkscape:collect="always"
         stdDeviation="0.43670245"
         id="feGaussianBlur4496" />
    </filter>
  </defs>
  <sodipodi:namedview
     id="base"
     pagecolor="#ffffff"
     bordercolor="#666666"
     borderopacity="1.0"
     inkscape:pageopacity="0.0"
     inkscape:pageshadow="2"
     inkscape:zoom="2.5020702"
     inkscape:cx="60.61826"
     inkscape:cy="52.772796"
     inkscape:document-units="px"
     inkscape:current-layer="layer1"
     showgrid="false"
     inkscape:showpageshadow="false"
     inkscape:window-width="1014"
     inkscape:window-height="715"
     inkscape:window-x="0"
     inkscape:window-y="25"
     showguides="true"
     inkscape:guide-bbox="true"
     inkscape:window-maximized="0" />
  <metadata
     id="metadata7">
    <rdf:RDF>
      <cc:Work
         rdf:about="">
        <dc:format>image/svg+xml</dc:format>
        <dc:type
           rdf:resource="http://purl.org/dc/dcmitype/StillImage" />
        <dc:title></dc:title>
      </cc:Work>
    </rdf:RDF>
  </metadata>
  <g
     inkscape:label="Capa 1"
     inkscape:groupmode="layer"
     id="layer1">
    <path
       inkscape:export-ydpi="57.964222"
       inkscape:export-xdpi="57.964222"
       inkscape:export-filename="/home/dafeba/DCV/tallerD/bocetos/08-09-22-hastaahora.png"
       style="fill:#f2f2f2;fill-rule:evenodd;stroke:none;stroke-width:0.5;stroke-linecap:round;stroke-linejoin:round;stroke-miterlimit:4;stroke-dasharray:none;stroke-opacity:1;display:inline"
       d="M 0.7911536,5.4828509 C 10.397287,6.4060509 14.464194,17.544184 14.45702,25.848984 L 14.332807,101.85058 C 14.415287,111.17752 19.282114,120.45032 31.877742,127.21378 L 119.63448,112.23752 C 109.24048,110.32072 101.80921,100.02232 101.89337,91.650317 L 102.10259,28.818584 C 102.19374,20.720718 96.880648,12.573251 87.015262,11.698584 L 0.7911536,5.4828509 z"
       id="path14074"
       sodipodi:nodetypes="ccccccccc" />
    <path
       inkscape:export-ydpi="57.964222"
       inkscape:export-xdpi="57.964222"
       inkscape:export-filename="/home/dafeba/DCV/tallerD/bocetos/08-09-22-hastaahora.png"
       sodipodi:nodetypes="ccccc"
       id="path14076"
       d="M 0.7911536,5.4828509 C 10.397287,6.4060509 14.464194,17.544184 14.45702,25.848984 L 102.10259,28.818584 C 102.19374,20.720718 96.880648,12.573251 87.015262,11.698584 L 0.7911536,5.4828509 z"
       style="fill:url(#linearGradient14088);fill-rule:evenodd;stroke:none;stroke-width:0.5;stroke-linecap:round;stroke-linejoin:round;stroke-miterlimit:4;stroke-dasharray:none;stroke-opacity:1;display:inline" />
    <path
       inkscape:export-ydpi="57.964222"
       inkscape:export-xdpi="57.964222"
       inkscape:export-filename="/home/dafeba/DCV/tallerD/bocetos/08-09-22-hastaahora.png"
       sodipodi:nodetypes="ccccc"
       id="path14078"
       d="M 14.332807,101.85058 C 14.415287,111.17752 19.282114,120.45032 31.877742,127.21378 L 119.63448,112.23752 C 109.24048,110.32072 101.80921,100.02232 101.89337,91.650317 L 14.332807,101.85058 z"
       style="fill:url(#linearGradient14090);fill-rule:evenodd;stroke:none;stroke-width:0.5;stroke-linecap:round;stroke-linejoin:round;stroke-miterlimit:4;stroke-dasharray:none;stroke-opacity:1;display:inline" />
    <path
       sodipodi:nodetypes="cscccccccccc"
       id="path14080"
       d="M 1.6750469,5.4047179 C 4.9003537,5.7145839 6.6173404,7.0876509 8.6492069,9.2068509 C 12.668994,13.399384 14.461794,20.165784 14.45702,25.682318 L 14.332807,101.68392 C 14.4063,109.99352 18.277154,118.25992 28.027474,124.74712 C 30.4679,126.35698 33.713288,126.35698 37.144382,125.98552 L 119.63448,112.07085 C 109.24048,110.15405 101.80921,99.855651 101.89337,91.483651 L 102.10259,28.651918 C 102.19374,20.554051 96.880648,12.406584 87.015262,11.531918 L 9.8308869,5.9679179 L 1.6750469,5.4047179 z"
       style="fill:none;fill-rule:evenodd;stroke:url(#linearGradient14092);stroke-width:2.66666675;stroke-linecap:round;stroke-linejoin:round;stroke-miterlimit:4;stroke-dasharray:none;stroke-opacity:1;display:inline"
       inkscape:export-filename="/home/dafeba/DCV/tallerD/bocetos/08-09-22-hastaahora.png"
       inkscape:export-xdpi="57.964222"
       inkscape:export-ydpi="57.964222" />
    <path
       inkscape:connector-curvature="0"
       style="fill:#c2e3ff;fill-opacity:1;fill-rule:evenodd;stroke:#000000;stroke-width:3.48441291;stroke-linecap:round;stroke-linejoin:miter;stroke-miterlimit:4;stroke-opacity:1;stroke-dasharray:none;display:inline"
       d="M 65.204943,6.7521312 C 63.190256,9.2761697 63.417788,12.916616 65.731089,15.17016 L 85.197807,34.636911 65.643283,54.191332 c -2.469752,2.469891 -2.469752,6.474318 0,8.944209 2.469751,2.469821 6.474387,2.469856 8.944139,0 L 94.141959,43.581086 113.60868,63.047839 c 1.53454,1.794332 3.93007,2.568499 6.22595,2.016847 2.29554,-0.551792 4.09558,-2.35177 4.64716,-4.647476 0.55158,-2.295739 -0.2223,-4.691239 -2.01678,-6.225878 L 102.99829,34.724614 122.55282,15.17016 c 2.46976,-2.469858 2.46976,-6.4743192 0,-8.944175 -2.46975,-2.4698571 -6.47438,-2.4698571 -8.94414,0 L 94.05415,25.78044 74.587422,6.3136875 c -1.253343,-1.2850162 -3.029697,-1.925278 -4.822777,-1.8414771 -1.793078,0.0838 -3.431797,0.8836113 -4.559702,2.2799208 z"
       id="path8515"
       inkscape:export-filename="/home/dafeba/DCV/tallerD/bocetos/08-09-22-hastaahora.png"
       inkscape:export-xdpi="57.964222"
       inkscape:export-ydpi="57.964222" />
    <path
       inkscape:connector-curvature="0"
       inkscape:export-ydpi="57.964222"
       inkscape:export-xdpi="57.964222"
       inkscape:export-filename="/home/dafeba/DCV/tallerD/bocetos/08-09-22-hastaahora.png"
       style="fill:url(#linearGradient8565);fill-opacity:1;fill-rule:evenodd;stroke:none;display:inline;filter:url(#filter4494)"
       d="m 29.65677,86.239712 c -0.5782,0.72438 -0.5129,1.76916 0.151,2.41591 l 5.5868,5.58681 -5.612,5.61197 c -0.7088,0.708838 -0.7088,1.858078 0,2.566918 0.7088,0.70882 1.8581,0.70883 2.5669,0 l 5.612003,-5.611978 5.5868,5.586808 c 0.4404,0.51496 1.1279,0.73714 1.7868,0.57882 0.6588,-0.15836 1.1754,-0.67494 1.3337,-1.33379 0.1583,-0.65886 -0.0638,-1.34635 -0.5788,-1.786778 l -5.5868,-5.5868 5.612,-5.61198 c 0.7088,-0.70883 0.7088,-1.85808 0,-2.56691 -0.7088,-0.70883 -1.8581,-0.70883 -2.5669,0 l -5.612,5.61198 -5.586803,-5.58681 c -0.3597,-0.36879 -0.8695,-0.55254 -1.3841,-0.52849 -0.5146,0.02405 -0.9849,0.25359 -1.3086,0.65432 z"
       id="path8517"
       transform="matrix(3.4844128,0,0,3.4844128,-42.974916,-280.70962)" />
    <path
       inkscape:connector-curvature="0"
       id="path8519"
       d="M 65.204943,6.7521312 C 63.190256,9.2761697 63.417788,12.916616 65.731089,15.17016 L 85.197807,34.636911 65.643283,54.191332 c -2.469752,2.469891 -2.469752,6.474318 0,8.944209 2.469751,2.469821 6.474387,2.469856 8.944139,0 L 94.141959,43.581086 113.60868,63.047839 c 1.53454,1.794332 3.93007,2.568499 6.22595,2.016847 2.29554,-0.551792 4.09558,-2.35177 4.64716,-4.647476 0.55158,-2.295739 -0.2223,-4.691239 -2.01678,-6.225878 L 102.99829,34.724614 122.55282,15.17016 c 2.46976,-2.469858 2.46976,-6.4743192 0,-8.944175 -2.46975,-2.4698571 -6.47438,-2.4698571 -8.94414,0 L 94.05415,25.78044 74.587422,6.3136875 c -1.253343,-1.2850162 -3.029697,-1.925278 -4.822777,-1.8414771 -1.793078,0.0838 -3.431797,0.8836113 -4.559702,2.2799208 z"
       style="fill:#ff0000;fill-opacity:1;fill-rule:evenodd;stroke:none;display:inline"
       inkscape:export-filename="/home/dafeba/DCV/tallerD/bocetos/08-09-22-hastaahora.png"
       inkscape:export-xdpi="57.964222"
       inkscape:export-ydpi="57.964222" />
  </g>
</svg>
