<?xml version="1.0" encoding="UTF-8" standalone="no"?>
<!-- Created with Inkscape (http://www.inkscape.org/) -->

<svg
   xmlns:dc="http://purl.org/dc/elements/1.1/"
   xmlns:cc="http://creativecommons.org/ns#"
   xmlns:rdf="http://www.w3.org/1999/02/22-rdf-syntax-ns#"
   xmlns:svg="http://www.w3.org/2000/svg"
   xmlns="http://www.w3.org/2000/svg"
   xmlns:xlink="http://www.w3.org/1999/xlink"
   xmlns:sodipodi="http://sodipodi.sourceforge.net/DTD/sodipodi-0.dtd"
   xmlns:inkscape="http://www.inkscape.org/namespaces/inkscape"
   width="128"
   height="128"
   id="svg2"
   sodipodi:version="0.32"
   inkscape:version="0.91 r13725"
   version="1.0"
   sodipodi:docname="filenew-symbolic.svg"
   inkscape:output_extension="org.inkscape.output.svg.inkscape">
  <defs
     id="defs4">
    <linearGradient
       id="linearGradient9863">
      <stop
         style="stop-color:#2f445a;stop-opacity:1;"
         offset="0"
         id="stop9865" />
      <stop
         style="stop-color:#415f7c;stop-opacity:1"
         offset="1"
         id="stop9867" />
    </linearGradient>
    <linearGradient
       id="linearGradient5362">
      <stop
         style="stop-color:#ffffff;stop-opacity:1;"
         offset="0"
         id="stop5364" />
      <stop
         style="stop-color:#ffffff;stop-opacity:0;"
         offset="1"
         id="stop5366" />
    </linearGradient>
    <linearGradient
       id="linearGradient5344">
      <stop
         style="stop-color:#000000;stop-opacity:1;"
         offset="0"
         id="stop5346" />
      <stop
         style="stop-color:#000000;stop-opacity:0;"
         offset="1"
         id="stop5348" />
    </linearGradient>
    <linearGradient
       id="linearGradient8702">
      <stop
         id="stop8704"
         offset="0"
         style="stop-color:#aac736;stop-opacity:1;" />
      <stop
         id="stop8706"
         offset="1"
         style="stop-color:#5d8b2c;stop-opacity:1;" />
    </linearGradient>
    <linearGradient
       inkscape:collect="always"
       xlink:href="#linearGradient8702"
       id="linearGradient4159"
       gradientUnits="userSpaceOnUse"
       gradientTransform="matrix(2.6666667,0,0,2.6666667,-2411.5699,-1097.9463)"
       x1="916.33087"
       y1="421.51871"
       x2="942.64417"
       y2="457.72421" />
  </defs>
  <sodipodi:namedview
     id="base"
     pagecolor="#ffffff"
     bordercolor="#666666"
     borderopacity="1.0"
     inkscape:pageopacity="0.0"
     inkscape:pageshadow="2"
     inkscape:zoom="2.2944712"
     inkscape:cx="98.509915"
     inkscape:cy="74.868939"
     inkscape:document-units="px"
     inkscape:current-layer="layer1"
     showgrid="false"
     inkscape:showpageshadow="false"
     inkscape:window-width="1600"
     inkscape:window-height="852"
     inkscape:window-x="0"
     inkscape:window-y="0"
     showguides="true"
     inkscape:guide-bbox="true"
     inkscape:window-maximized="1" />
  <metadata
     id="metadata7">
    <rdf:RDF>
      <cc:Work
         rdf:about="">
        <dc:format>image/svg+xml</dc:format>
        <dc:type
           rdf:resource="http://purl.org/dc/dcmitype/StillImage" />
        <dc:title></dc:title>
      </cc:Work>
    </rdf:RDF>
  </metadata>
  <g
     inkscape:label="Capa 1"
     inkscape:groupmode="layer"
     id="layer1">
    <path
       style="color:#000000;font-style:normal;font-variant:normal;font-weight:normal;font-stretch:normal;font-size:medium;line-height:normal;font-family:sans-serif;text-indent:0;text-align:start;text-decoration:none;text-decoration-line:none;text-decoration-style:solid;text-decoration-color:#000000;letter-spacing:normal;word-spacing:normal;text-transform:none;direction:ltr;block-progression:tb;writing-mode:lr-tb;baseline-shift:baseline;text-anchor:start;white-space:normal;clip-rule:nonzero;display:inline;overflow:visible;visibility:visible;opacity:1;isolation:auto;mix-blend-mode:normal;color-interpolation:sRGB;color-interpolation-filters:linearRGB;solid-color:#000000;solid-opacity:1;fill:url(#linearGradient4159);fill-opacity:1;fill-rule:evenodd;stroke:none;stroke-width:2.66666675;stroke-linecap:round;stroke-linejoin:round;stroke-miterlimit:4;stroke-dasharray:none;stroke-dashoffset:0;stroke-opacity:1;color-rendering:auto;image-rendering:auto;shape-rendering:auto;text-rendering:auto;enable-background:accumulate"
       d="M 94.363281 1.1738281 C 94.145999 1.1730618 93.928066 1.1837582 93.708984 1.2070312 L 93.705078 1.2070312 L 93.701172 1.2089844 C 90.563602 1.5610739 88.183323 4.2570952 88.224609 7.4140625 L 88.224609 27.205078 L 68.322266 27.205078 C 64.915906 27.205078 62.125 29.996115 62.125 33.402344 C 62.125 36.808769 64.915995 39.597656 68.322266 39.597656 L 88.224609 39.597656 L 88.224609 59.40625 L 88.228516 59.302734 C 88.048719 61.607231 89.181054 63.818902 91.150391 65.025391 C 93.12545 66.23498 95.622633 66.235 97.597656 65.025391 C 99.566952 63.818906 100.69933 61.607257 100.51953 59.302734 L 100.52344 59.40625 L 100.52344 39.597656 L 120.42773 39.597656 C 123.834 39.597656 126.62305 36.808768 126.62305 33.402344 C 126.62305 29.996116 123.83409 27.205078 120.42773 27.205078 L 100.52344 27.205078 L 100.52344 7.4121094 C 100.54564 5.6235783 99.751742 3.9573214 98.466797 2.7871094 C 97.342417 1.7632022 95.884256 1.1791921 94.363281 1.1738281 z M 3.9023438 2.7480469 C 2.2348088 2.8002419 2.1557193 5.248488 3.8164062 5.4082031 C 6.7133062 5.6865189 7.9837781 6.7506202 9.9550781 8.8066406 C 13.615928 12.624824 15.397098 19.130707 15.392578 24.357422 L 15.267578 100.35742 L 15.267578 100.37109 C 15.344678 109.08689 19.506911 117.84679 29.556641 124.5332 L 29.5625 124.53711 C 32.45648 126.44616 36.036101 126.36747 39.556641 125.98633 C 39.583431 125.98433 39.610129 125.98056 39.636719 125.97656 L 123.32617 111.66211 C 124.79932 111.41445 124.81344 109.30251 123.34375 109.03516 C 113.67591 107.25227 106.61724 97.345556 106.69336 89.773438 L 106.95508 63.0625 C 105.16753 63.905895 105.01996 66.749055 102.51172 68.052734 L 102.25195 89.728516 C 102.18085 96.800215 106.18043 104.26687 112.60742 108.98633 L 39.03125 121.57227 C 35.83734 121.91312 33.386899 121.73515 32.011719 120.83008 C 22.964999 114.80865 19.776037 107.69268 19.710938 100.33203 L 19.835938 23.222656 C 19.840225 18.227898 18.341063 12.837406 14.820312 7.96875 L 82.363281 13.082031 L 82.28125 8.6191406 L 12.199219 3.3144531 L 12.191406 3.3144531 L 4.0351562 2.75 C 3.9909463 2.74714 3.9466158 2.7464869 3.9023438 2.7480469 z "
       id="path4157" />
  </g>
</svg>
