<?xml version="1.0" encoding="UTF-8" standalone="no"?>
<!-- Created with Inkscape (http://www.inkscape.org/) -->

<svg
   xmlns:dc="http://purl.org/dc/elements/1.1/"
   xmlns:cc="http://creativecommons.org/ns#"
   xmlns:rdf="http://www.w3.org/1999/02/22-rdf-syntax-ns#"
   xmlns:svg="http://www.w3.org/2000/svg"
   xmlns="http://www.w3.org/2000/svg"
   xmlns:xlink="http://www.w3.org/1999/xlink"
   xmlns:sodipodi="http://sodipodi.sourceforge.net/DTD/sodipodi-0.dtd"
   xmlns:inkscape="http://www.inkscape.org/namespaces/inkscape"
   width="136.53334"
   height="136.53334"
   id="svg2"
   sodipodi:version="0.32"
   inkscape:version="0.92.1 r15371"
   version="1.0"
   sodipodi:docname="stock_new-window.svg"
   inkscape:output_extension="org.inkscape.output.svg.inkscape">
  <defs
     id="defs4">
    <linearGradient
       inkscape:collect="always"
       xlink:href="#linearGradient5439"
       id="linearGradient13414"
       gradientUnits="userSpaceOnUse"
       x1="499.90704"
       y1="953.39532"
       x2="652.75177"
       y2="1116.9413"
       gradientTransform="matrix(2.8549588,0,0,2.8549588,-1385.2549,-2682.5632)" />
    <linearGradient
       inkscape:collect="always"
       xlink:href="#linearGradient7210"
       id="linearGradient13416"
       gradientUnits="userSpaceOnUse"
       x1="486.74878"
       y1="944.19513"
       x2="528.94489"
       y2="947.32013"
       gradientTransform="matrix(2.8549588,0,0,2.8549588,-1385.2549,-2682.5632)" />
    <filter
       inkscape:collect="always"
       id="filter13392">
      <feGaussianBlur
         inkscape:collect="always"
         stdDeviation="0.57866302"
         id="feGaussianBlur13394" />
    </filter>
    <linearGradient
       inkscape:collect="always"
       xlink:href="#linearGradient5344"
       id="linearGradient13418"
       gradientUnits="userSpaceOnUse"
       x1="544.89001"
       y1="919.05762"
       x2="506.01498"
       y2="969.80762"
       gradientTransform="translate(-485.21014,-859.4386)" />
    <linearGradient
       id="linearGradient8702">
      <stop
         id="stop8704"
         offset="0"
         style="stop-color:#aac736;stop-opacity:1;" />
      <stop
         id="stop8706"
         offset="1"
         style="stop-color:#5d8b2c;stop-opacity:1;" />
    </linearGradient>
    <linearGradient
       inkscape:collect="always"
       xlink:href="#linearGradient8702"
       id="linearGradient13420"
       gradientUnits="userSpaceOnUse"
       gradientTransform="matrix(2.8549588,0,0,2.8549588,-1898.1783,-1060.9466)"
       x1="700.13062"
       y1="378.86951"
       x2="707.80457"
       y2="395.74899" />
    <linearGradient
       inkscape:collect="always"
       xlink:href="#linearGradient5439"
       id="linearGradient13585"
       gradientUnits="userSpaceOnUse"
       gradientTransform="matrix(1.6871048,-0.116299,0,1.6888949,-805.49304,-1482.5665)"
       x1="499.90704"
       y1="953.39532"
       x2="652.75177"
       y2="1116.9413" />
    <linearGradient
       inkscape:collect="always"
       xlink:href="#linearGradient7210"
       id="linearGradient13587"
       gradientUnits="userSpaceOnUse"
       gradientTransform="matrix(1.6871048,-0.116299,0,1.6888949,-805.49304,-1482.5665)"
       x1="486.74878"
       y1="944.19513"
       x2="528.94489"
       y2="947.32013" />
    <linearGradient
       id="linearGradient5344">
      <stop
         style="stop-color:#000000;stop-opacity:1;"
         offset="0"
         id="stop5346" />
      <stop
         style="stop-color:#000000;stop-opacity:0;"
         offset="1"
         id="stop5348" />
    </linearGradient>
    <linearGradient
       inkscape:collect="always"
       xlink:href="#linearGradient5344"
       id="linearGradient13589"
       gradientUnits="userSpaceOnUse"
       x1="539.49908"
       y1="929.44275"
       x2="507.09296"
       y2="969.44275"
       gradientTransform="translate(-485.21014,-859.4386)" />
    <linearGradient
       inkscape:collect="always"
       xlink:href="#linearGradient5316"
       id="linearGradient13591"
       gradientUnits="userSpaceOnUse"
       gradientTransform="matrix(5.0665455,0,0,5.0567764,-2570.6451,-4757.3287)"
       x1="526.3382"
       y1="945.72064"
       x2="528.88556"
       y2="948.66046" />
    <linearGradient
       id="linearGradient5316">
      <stop
         style="stop-color:#aac736;stop-opacity:1;"
         offset="0"
         id="stop5320" />
      <stop
         style="stop-color:#5d8b2c;stop-opacity:1;"
         offset="1"
         id="stop5322" />
    </linearGradient>
    <linearGradient
       id="linearGradient5439">
      <stop
         style="stop-color:#ffffff;stop-opacity:1;"
         offset="0"
         id="stop5441" />
      <stop
         style="stop-color:#000000;stop-opacity:1;"
         offset="1"
         id="stop5443" />
    </linearGradient>
    <linearGradient
       id="linearGradient7210">
      <stop
         id="stop7212"
         offset="0"
         style="stop-color:#5d8b2c;stop-opacity:1;" />
      <stop
         id="stop8994"
         offset="0.5"
         style="stop-color:#aac736;stop-opacity:1;" />
      <stop
         id="stop7214"
         offset="1"
         style="stop-color:#5d8b2c;stop-opacity:1;" />
    </linearGradient>
    <inkscape:perspective
       sodipodi:type="inkscape:persp3d"
       inkscape:vp_x="0 : 561.25983 : 1"
       inkscape:vp_y="0 : 1066.6667 : 0"
       inkscape:vp_z="793.70078 : 561.25983 : 1"
       inkscape:persp3d-origin="396.85039 : 374.17322 : 1"
       id="perspective10" />
  </defs>
  <sodipodi:namedview
     id="base"
     pagecolor="#ffffff"
     bordercolor="#666666"
     borderopacity="1.0"
     inkscape:pageopacity="0.0"
     inkscape:pageshadow="2"
     inkscape:zoom="1.7692308"
     inkscape:cx="1.984468"
     inkscape:cy="55.807454"
     inkscape:document-units="px"
     inkscape:current-layer="layer1"
     showgrid="false"
     inkscape:showpageshadow="false"
     inkscape:window-width="1364"
     inkscape:window-height="712"
     inkscape:window-x="0"
     inkscape:window-y="26"
     inkscape:window-maximized="1" />
  <metadata
     id="metadata7">
    <rdf:RDF>
      <cc:Work
         rdf:about="">
        <dc:format>image/svg+xml</dc:format>
        <dc:type
           rdf:resource="http://purl.org/dc/dcmitype/StillImage" />
      </cc:Work>
    </rdf:RDF>
  </metadata>
  <g
     inkscape:label="Capa 1"
     inkscape:groupmode="layer"
     id="layer1">
    <path
       sodipodi:nodetypes="ccccccccc"
       id="path13402"
       d="M 115.73635,115.27854 15.777995,131.45207 C 9.0207063,132.64516 2.1894466,128.51402 2.6118949,119.54227 V 11.767584 C 2.4190139,4.6721833 10.319656,0.40390562 17.603826,1.7989812 l 97.065204,7.6489487 c 7.6705,0.8779851 9.54958,5.7718421 9.45705,11.2414001 l 0.17516,80.18451 c 0.20695,8.92849 -3.49565,13.54181 -8.56489,14.4047 z"
       style="fill:url(#linearGradient13414);fill-rule:evenodd;stroke:none;stroke-width:0.53333336;stroke-linecap:butt;stroke-linejoin:miter;stroke-miterlimit:4;stroke-dasharray:none;stroke-opacity:1"
       inkscape:connector-curvature="0" />
    <path
       style="fill:url(#linearGradient13416);fill-rule:evenodd;stroke:none;stroke-width:0.53333336;stroke-linecap:butt;stroke-linejoin:miter;stroke-miterlimit:4;stroke-dasharray:none;stroke-opacity:1"
       d="M 2.6118949,24.614899 V 11.767584 C 2.4190139,4.6721833 10.319656,0.40390562 17.603826,1.7989812 l 97.065204,7.6489487 c 7.6705,0.8779851 9.54958,5.7718421 9.45705,11.2414001 l 0.021,9.635058 z"
       id="path13404"
       sodipodi:nodetypes="ccccccc"
       inkscape:connector-curvature="0" />
    <path
       style="fill:none;fill-rule:evenodd;stroke:#000000;stroke-width:1.42747939;stroke-linecap:butt;stroke-linejoin:miter;stroke-miterlimit:4;stroke-dasharray:none;stroke-opacity:1"
       d="M 115.73635,115.27854 15.777995,131.45207 C 9.0207063,132.64516 2.1894466,128.51402 2.6118949,119.54227 V 11.767584 C 2.4190139,4.6721833 10.319656,0.40390562 17.603826,1.7989812 l 97.065204,7.6489487 c 7.6705,0.8779851 9.54958,5.7718421 9.45705,11.2414001 l 0.17516,80.18451 c 0.20695,8.92849 -3.49565,13.54181 -8.56489,14.4047 z"
       id="path13406"
       sodipodi:nodetypes="ccccccccc"
       inkscape:connector-curvature="0" />
    <path
       inkscape:export-ydpi="89.986237"
       inkscape:export-xdpi="89.986237"
       inkscape:export-filename="/home/dafeba/DCV/tallerD/elementos.png"
       id="path13408"
       d="M 100.10694,2.7074863 C 97.477325,3.0025748 95.500009,5.2435747 95.534611,7.889465 V 30.446323 H 72.876145 c -2.861925,0 -5.181979,2.320055 -5.181979,5.181979 0,2.861896 2.320054,5.181979 5.181979,5.181979 h 22.658466 v 22.556853 c -0.150485,1.928695 0.788882,3.765091 2.438563,4.775547 1.649767,1.010397 3.735486,1.010426 5.385196,0 1.64965,-1.010485 2.58908,-2.846852 2.43859,-4.775547 V 40.810281 h 22.65846 c 2.86193,0 5.18199,-2.320083 5.18199,-5.181979 0,-2.861924 -2.32006,-5.181979 -5.18199,-5.181979 H 105.79696 V 7.889465 c 0.0183,-1.470675 -0.63991,-2.8707754 -1.72734,-3.8611035 -1.08739,-0.9902995 -2.50011,-1.4762421 -3.96268,-1.3208752 z"
       style="fill:#c2e3ff;fill-opacity:1;fill-rule:evenodd;stroke:#000000;stroke-width:2.85495877;stroke-linecap:round;stroke-linejoin:miter;stroke-miterlimit:4;stroke-dasharray:none;stroke-opacity:1"
       inkscape:connector-curvature="0" />
    <path
       style="fill:url(#linearGradient13418);fill-opacity:1;fill-rule:evenodd;stroke:none;stroke-width:1;stroke-linecap:round;stroke-linejoin:miter;stroke-miterlimit:4;stroke-dasharray:none;stroke-opacity:1;filter:url(#filter13392)"
       d="m 32.157983,83.531372 c -0.92107,0.10336 -1.61366,0.88831 -1.60154,1.81508 v 7.90094 h -7.93653 c -1.00244,0 -1.81508,0.81264 -1.81508,1.81508 0,1.00243 0.81264,1.81508 1.81508,1.81508 h 7.93653 v 7.900938 c -0.05271,0.67556 0.27632,1.31879 0.85415,1.67272 0.57786,0.35391 1.30842,0.35392 1.88626,0 0.57782,-0.35394 0.90687,-0.99716 0.85416,-1.67272 v -7.900938 h 7.93653 c 1.00244,0 1.81508,-0.81265 1.81508,-1.81508 0,-1.00244 -0.81264,-1.81508 -1.81508,-1.81508 h -7.93653 v -7.90094 c 0.0064,-0.51513 -0.22414,-1.00554 -0.60503,-1.35242 -0.38088,-0.34687 -0.87571,-0.51708 -1.388,-0.46266 z"
       id="path13410"
       inkscape:export-filename="/home/dafeba/DCV/tallerD/elementos.png"
       inkscape:export-xdpi="89.986237"
       inkscape:export-ydpi="89.986237"
       transform="matrix(2.8549588,0,0,2.8549588,0,-228.9014)"
       inkscape:connector-curvature="0" />
    <path
       inkscape:export-ydpi="89.986237"
       inkscape:export-xdpi="89.986237"
       inkscape:export-filename="/home/dafeba/DCV/tallerD/elementos.png"
       style="fill:url(#linearGradient13420);fill-opacity:1;fill-rule:evenodd;stroke:none;stroke-width:3.37656069;stroke-linecap:round;stroke-linejoin:miter;stroke-miterlimit:4;stroke-dasharray:none;stroke-opacity:1"
       d="M 100.10694,2.7074863 C 97.477325,3.0025748 95.500009,5.2435747 95.534611,7.889465 V 30.446323 H 72.876145 c -2.861925,0 -5.181979,2.320055 -5.181979,5.181979 0,2.861896 2.320054,5.181979 5.181979,5.181979 h 22.658466 v 22.556853 c -0.150485,1.928695 0.788882,3.765091 2.438563,4.775547 1.649767,1.010397 3.735486,1.010426 5.385196,0 1.64965,-1.010485 2.58908,-2.846852 2.43859,-4.775547 V 40.810281 h 22.65846 c 2.86193,0 5.18199,-2.320083 5.18199,-5.181979 0,-2.861924 -2.32006,-5.181979 -5.18199,-5.181979 H 105.79696 V 7.889465 c 0.0183,-1.470675 -0.63991,-2.8707754 -1.72734,-3.8611035 -1.08739,-0.9902995 -2.50011,-1.4762421 -3.96268,-1.3208752 z"
       id="path13412"
       inkscape:connector-curvature="0" />
  </g>
</svg>
