<?xml version="1.0" encoding="UTF-8" standalone="no"?>
<!-- Created with Inkscape (http://www.inkscape.org/) -->

<svg
   xmlns:dc="http://purl.org/dc/elements/1.1/"
   xmlns:cc="http://creativecommons.org/ns#"
   xmlns:rdf="http://www.w3.org/1999/02/22-rdf-syntax-ns#"
   xmlns:svg="http://www.w3.org/2000/svg"
   xmlns="http://www.w3.org/2000/svg"
   xmlns:xlink="http://www.w3.org/1999/xlink"
   xmlns:sodipodi="http://sodipodi.sourceforge.net/DTD/sodipodi-0.dtd"
   xmlns:inkscape="http://www.inkscape.org/namespaces/inkscape"
   width="128"
   height="128"
   id="svg52672"
   sodipodi:version="0.32"
   inkscape:version="0.48.3.1 r9886"
   version="1.0"
   sodipodi:docname="stock_volume-mute.svg"
   inkscape:output_extension="org.inkscape.output.svg.inkscape">
  <defs
     id="defs52674">
    <filter
       inkscape:collect="always"
       id="filter4494">
      <feGaussianBlur
         inkscape:collect="always"
         stdDeviation="0.43670245"
         id="feGaussianBlur4496" />
    </filter>
    <linearGradient
       inkscape:collect="always"
       xlink:href="#linearGradient5344"
       id="linearGradient8565"
       gradientUnits="userSpaceOnUse"
       gradientTransform="translate(-460.06433,-862.23137)"
       x1="537.15198"
       y1="910.49524"
       x2="477.61691"
       y2="978.19586" />
    <linearGradient
       id="linearGradient5344">
      <stop
         style="stop-color:#000000;stop-opacity:1;"
         offset="0"
         id="stop5346" />
      <stop
         style="stop-color:#000000;stop-opacity:0;"
         offset="1"
         id="stop5348" />
    </linearGradient>
    <linearGradient
       inkscape:collect="always"
       xlink:href="#linearGradient9863-3"
       id="linearGradient10955-8"
       gradientUnits="userSpaceOnUse"
       gradientTransform="matrix(2.6765239,0,0,2.6765239,-977.438,-940.39043)"
       x1="392.3085"
       y1="398.4826"
       x2="392.3085"
       y2="352.06906" />
    <linearGradient
       id="linearGradient9863-3">
      <stop
         style="stop-color:#2f445a;stop-opacity:1;"
         offset="0"
         id="stop9865-0" />
      <stop
         style="stop-color:#415f7c;stop-opacity:1"
         offset="1"
         id="stop9867-0" />
    </linearGradient>
    <linearGradient
       inkscape:collect="always"
       xlink:href="#linearGradient5344-5"
       id="linearGradient8465-9"
       gradientUnits="userSpaceOnUse"
       gradientTransform="matrix(2.7642986,0,0,2.8210385,-1342.4466,-1789.1735)"
       x1="497.4556"
       y1="669.95612"
       x2="504.83231"
       y2="649.57263" />
    <linearGradient
       id="linearGradient5344-5">
      <stop
         style="stop-color:#000000;stop-opacity:1;"
         offset="0"
         id="stop5346-7" />
      <stop
         style="stop-color:#000000;stop-opacity:0;"
         offset="1"
         id="stop5348-5" />
    </linearGradient>
    <linearGradient
       inkscape:collect="always"
       xlink:href="#linearGradient5344-5"
       id="linearGradient8463-9"
       gradientUnits="userSpaceOnUse"
       gradientTransform="matrix(2.1481476,0,0,2.2660452,-1072.5125,-1414.5137)"
       x1="504.64963"
       y1="667.4726"
       x2="503.15131"
       y2="654.14331" />
    <radialGradient
       inkscape:collect="always"
       xlink:href="#linearGradient5439-9"
       id="radialGradient8459-5"
       gradientUnits="userSpaceOnUse"
       gradientTransform="matrix(4.9397802,0,0,5.7128195,-2434.1566,-3693.5548)"
       cx="502.22336"
       cy="657.59094"
       fx="502.22336"
       fy="657.59094"
       r="5.6949959" />
    <linearGradient
       id="linearGradient5439-9">
      <stop
         style="stop-color:#ffffff;stop-opacity:1;"
         offset="0"
         id="stop5441-7" />
      <stop
         style="stop-color:#000000;stop-opacity:1;"
         offset="1"
         id="stop5443-7" />
    </linearGradient>
    <linearGradient
       inkscape:collect="always"
       xlink:href="#linearGradient5439-9"
       id="linearGradient8457-7"
       gradientUnits="userSpaceOnUse"
       gradientTransform="matrix(3.1132681,0.09494446,-0.09345971,3.0643206,-1468.494,-1984.6058)"
       x1="494.64386"
       y1="641.93042"
       x2="509.46909"
       y2="661.21436" />
    <linearGradient
       inkscape:collect="always"
       xlink:href="#linearGradient5439-9"
       id="linearGradient8455-1"
       gradientUnits="userSpaceOnUse"
       gradientTransform="matrix(2.2024173,0,0,2.2023236,-1059.2662,-1371.7939)"
       x1="523.76074"
       y1="673.95343"
       x2="490.40436"
       y2="648.80872" />
    <linearGradient
       inkscape:collect="always"
       xlink:href="#linearGradient7210-5"
       id="linearGradient8453-0"
       gradientUnits="userSpaceOnUse"
       gradientTransform="matrix(2.4865983,0,0,2.4864923,-1202.2427,-1557.6523)"
       x1="494.4577"
       y1="637.09772"
       x2="515.29169"
       y2="668.90833" />
    <linearGradient
       id="linearGradient7210-5">
      <stop
         id="stop7212-1"
         offset="0"
         style="stop-color:#5d8b2c;stop-opacity:1;" />
      <stop
         id="stop8994-7"
         offset="0.5"
         style="stop-color:#aac736;stop-opacity:1;" />
      <stop
         id="stop7214-8"
         offset="1"
         style="stop-color:#5d8b2c;stop-opacity:1;" />
    </linearGradient>
    <linearGradient
       inkscape:collect="always"
       xlink:href="#linearGradient5362-7"
       id="linearGradient8449-8"
       gradientUnits="userSpaceOnUse"
       gradientTransform="matrix(2.1481476,0,0,2.2660452,-1072.5125,-1414.5137)"
       x1="508.48956"
       y1="642.86359"
       x2="506.59845"
       y2="653.34991" />
    <linearGradient
       id="linearGradient5362-7">
      <stop
         style="stop-color:#ffffff;stop-opacity:1;"
         offset="0"
         id="stop5364-2" />
      <stop
         style="stop-color:#ffffff;stop-opacity:0;"
         offset="1"
         id="stop5366-6" />
    </linearGradient>
    <linearGradient
       y2="659.34265"
       x2="504.58081"
       y1="645.81702"
       x1="505.28644"
       gradientTransform="matrix(2.1481476,0,0,2.2660452,-1072.5125,-1414.5137)"
       gradientUnits="userSpaceOnUse"
       id="linearGradient3865"
       xlink:href="#linearGradient5316-5"
       inkscape:collect="always" />
    <linearGradient
       id="linearGradient5316-5">
      <stop
         style="stop-color:#aac736;stop-opacity:1;"
         offset="0"
         id="stop5320-5" />
      <stop
         style="stop-color:#5d8b2c;stop-opacity:1;"
         offset="1"
         id="stop5322-1" />
    </linearGradient>
  </defs>
  <sodipodi:namedview
     id="base"
     pagecolor="#ffffff"
     bordercolor="#666666"
     borderopacity="1.0"
     inkscape:pageopacity="0.0"
     inkscape:pageshadow="2"
     inkscape:zoom="2"
     inkscape:cx="101.62229"
     inkscape:cy="82.231172"
     inkscape:document-units="px"
     inkscape:current-layer="layer1"
     showgrid="false"
     inkscape:window-width="1024"
     inkscape:window-height="713"
     inkscape:window-x="0"
     inkscape:window-y="0"
     inkscape:window-maximized="0" />
  <metadata
     id="metadata52677">
    <rdf:RDF>
      <cc:Work
         rdf:about="">
        <dc:format>image/svg+xml</dc:format>
        <dc:type
           rdf:resource="http://purl.org/dc/dcmitype/StillImage" />
      </cc:Work>
    </rdf:RDF>
  </metadata>
  <g
     inkscape:label="Capa 1"
     inkscape:groupmode="layer"
     id="layer1">
    <path
       inkscape:export-ydpi="57.964222"
       inkscape:export-xdpi="57.964222"
       inkscape:export-filename="/home/dafeba/DCV/tallerD/bocetos/08-09-22-hastaahora.png"
       style="fill:url(#linearGradient3865);fill-opacity:1;stroke:none;display:inline"
       d="m 32.447791,67.680971 c 0,8.97484 1.059529,37.979579 -4.751392,38.888989 L 14.211912,86.531729 10.988923,85.947899 C 4.911982,85.262254 1.910368,77.578569 1.910368,67.37301 c 0,-10.205559 3.032555,-18.138018 9.803705,-18.165747 l 3.037025,-0.12957 17.20523,-20.366233 c 6.351471,0.515204 0.491463,30.054545 0.491463,38.969511 z"
       id="path8425"
       sodipodi:nodetypes="cccczcccz"
       inkscape:connector-curvature="0" />
    <path
       inkscape:connector-curvature="0"
       sodipodi:nodetypes="ccccc"
       id="path8427"
       d="M 27.696399,106.56996 14.211912,86.531729 C 7.3765253,75.613331 8.6946063,57.089377 14.751098,49.077693 L 31.956328,28.71146 c -7.668026,14.663818 -10.548367,63.352242 -4.259929,77.8585 z"
       style="fill:url(#linearGradient8449-8);fill-opacity:1;stroke:none;display:inline"
       inkscape:export-filename="/home/dafeba/DCV/tallerD/bocetos/08-09-22-hastaahora.png"
       inkscape:export-xdpi="57.964222"
       inkscape:export-ydpi="57.964222" />
    <path
       style="fill:url(#linearGradient8453-0);fill-opacity:1;stroke:none;display:inline"
       d="M 88.68199,68.198852 C 88.90012,95.957349 74.34492,114.64179 55.56429,117.743 34.99734,121.13916 16.31646,101.76155 16.31646,70.514901 c 0,-31.358654 19.37303,-53.298174 39.36158,-51.531133 17.53685,1.550269 32.7842,21.236798 33.00395,49.215084 z"
       id="path8431"
       sodipodi:nodetypes="cszsz"
       inkscape:export-filename="/home/dafeba/DCV/tallerD/bocetos/08-09-22-hastaahora.png"
       inkscape:export-xdpi="57.964222"
       inkscape:export-ydpi="57.964222"
       inkscape:connector-curvature="0" />
    <path
       inkscape:connector-curvature="0"
       sodipodi:nodetypes="cszsz"
       id="path8433"
       d="M 84.125472,68.247109 C 84.31845,92.83323 71.426972,109.38237 54.792376,112.12918 36.576035,115.13719 20.808768,97.974083 20.808768,70.298478 c 0,-27.774816 16.373259,-47.125817 34.084513,-45.641925 16.388356,1.37311 29.037608,18.809807 29.232191,43.590556 z"
       style="fill:url(#linearGradient8455-1);fill-opacity:1;stroke:none;display:inline"
       inkscape:export-filename="/home/dafeba/DCV/tallerD/bocetos/08-09-22-hastaahora.png"
       inkscape:export-xdpi="57.964222"
       inkscape:export-ydpi="57.964222" />
    <path
       inkscape:connector-curvature="0"
       style="fill:url(#linearGradient8457-7);fill-opacity:1;stroke:none;display:inline"
       d="M 61.27117,68.143608 C 60.868085,81.361729 52.555338,94.51058 43.342475,95.570216 32.371537,96.83201 23.629289,84.453114 24.118504,68.413428 24.610395,52.28548 33.718846,40.147096 44.651027,41.202128 53.969345,42.110594 61.671578,55.01376 61.27117,68.143608 z"
       id="path8435"
       sodipodi:nodetypes="cszsz"
       inkscape:export-filename="/home/dafeba/DCV/tallerD/bocetos/08-09-22-hastaahora.png"
       inkscape:export-xdpi="57.964222"
       inkscape:export-ydpi="57.964222" />
    <path
       inkscape:connector-curvature="0"
       sodipodi:nodetypes="cszsz"
       id="path8437"
       d="M 59.761878,68.526753 C 59.421692,79.907252 52.296518,91.107809 44.52416,92.020128 35.269008,93.106503 27.893846,82.448531 28.306539,68.638792 28.721534,54.75312 36.414346,44.215359 45.628226,45.210651 c 8.438009,0.916736 14.471429,12.011615 14.133652,23.316102 z"
       style="fill:url(#radialGradient8459-5);fill-opacity:1;stroke:none;display:inline"
       inkscape:export-filename="/home/dafeba/DCV/tallerD/bocetos/08-09-22-hastaahora.png"
       inkscape:export-xdpi="57.964222"
       inkscape:export-ydpi="57.964222" />
    <path
       sodipodi:nodetypes="cczccc"
       id="path8441"
       d="m 14.211912,86.531729 -3.222989,-0.58383 C 4.911982,85.262254 1.910368,77.578569 1.910368,67.37301 c 0,-10.205559 3.032555,-18.138018 9.803705,-18.165747 l 3.037025,-0.12957 c -5.985109,8.190958 -7.501092,26.65568 -0.539186,37.454036 z"
       style="fill:url(#linearGradient8463-9);fill-opacity:1;stroke:none;display:inline"
       inkscape:export-filename="/home/dafeba/DCV/tallerD/bocetos/08-09-22-hastaahora.png"
       inkscape:export-xdpi="57.964222"
       inkscape:export-ydpi="57.964222"
       inkscape:connector-curvature="0" />
    <path
       inkscape:connector-curvature="0"
       inkscape:export-ydpi="57.964222"
       inkscape:export-xdpi="57.964222"
       inkscape:export-filename="/home/dafeba/DCV/tallerD/bocetos/08-09-22-hastaahora.png"
       style="fill:url(#linearGradient8465-9);fill-opacity:1;stroke:none;display:inline"
       d="M 59.761878,68.526753 C 59.421692,79.907252 52.296518,91.107809 44.52416,92.020128 35.269008,93.106503 27.893846,82.448531 28.306539,68.638792 28.721534,54.75312 36.414346,44.215359 45.628226,45.210651 c 8.438009,0.916736 14.471429,12.011615 14.133652,23.316102 z"
       id="path8443"
       sodipodi:nodetypes="cszsz" />
    <path
       sodipodi:nodetypes="ccccscccccsssc"
       id="path10953"
       d="M 51.964093,18.91913 C 42.044949,19.489417 32.568368,25.741 25.887846,35.932106 L 14.063633,49.0979 11.695525,49.18342 c -6.771151,0.0277 -9.746562,8.004244 -9.746535,18.20983 0,10.205559 2.985555,17.866145 9.062549,18.551817 l 2.483199,0.628019 10.084714,13.905664 c 1.244209,2.16646 2.607469,4.18598 4.103779,5.98449 l 0,0.0855 c 7.28622,8.72697 17.347702,12.93727 27.871687,11.19946 C 74.335711,114.64701 88.859868,95.921242 88.641812,68.162692 88.422043,40.184433 73.177419,20.554887 55.640406,19.004645 c -1.249267,-0.110461 -2.43644,-0.156791 -3.676313,-0.08552 z"
       style="fill:none;stroke:url(#linearGradient10955-8);stroke-width:2.67652392;stroke-linecap:round;stroke-linejoin:round;stroke-miterlimit:4;stroke-opacity:1;stroke-dasharray:none;display:inline"
       inkscape:export-filename="/home/dafeba/DCV/tallerD/bocetos/08-09-22-hastaahora.png"
       inkscape:export-xdpi="57.964222"
       inkscape:export-ydpi="57.964222"
       inkscape:connector-curvature="0" />
    <path
       style="fill:#c2e3ff;fill-opacity:1;fill-rule:evenodd;stroke:#000000;stroke-width:2.67652392;stroke-linecap:round;stroke-linejoin:miter;stroke-miterlimit:4;stroke-dasharray:none;stroke-opacity:1;display:inline"
       d="M 77.202378,4.5177987 C 75.654812,6.4566191 75.829589,9.2529977 77.606533,10.98404 L 92.559737,25.93727 L 77.539085,40.957842 C 75.641965,42.855069 75.641965,45.931038 77.539085,47.828265 C 79.436205,49.725438 82.512334,49.725465 84.409454,47.828265 L 99.430114,32.807666 L 114.38332,47.760897 C 115.56206,49.139199 117.40217,49.733869 119.16573,49.310122 C 120.92903,48.886268 122.31172,47.503629 122.73541,45.740201 C 123.1591,43.976747 122.56465,42.136663 121.18624,40.957842 L 106.23304,26.004638 L 121.25369,10.98404 C 123.15081,9.0868391 123.15081,6.010844 121.25369,4.1136436 C 119.35657,2.2164431 116.28044,2.2164431 114.38332,4.1136436 L 99.362666,19.134242 L 84.409454,4.1810117 C 83.446709,3.1939364 82.082217,2.7021252 80.704877,2.7664956 C 79.327538,2.830866 78.068769,3.4452353 77.202378,4.5177987 z"
       id="path8515"
       inkscape:export-filename="/home/dafeba/DCV/tallerD/bocetos/08-09-22-hastaahora.png"
       inkscape:export-xdpi="57.964222"
       inkscape:export-ydpi="57.964222" />
    <path
       inkscape:export-ydpi="57.964222"
       inkscape:export-xdpi="57.964222"
       inkscape:export-filename="/home/dafeba/DCV/tallerD/bocetos/08-09-22-hastaahora.png"
       style="fill:url(#linearGradient8565);fill-opacity:1;fill-rule:evenodd;stroke:none;stroke-width:3.16552567000000007;stroke-linecap:round;stroke-linejoin:miter;stroke-miterlimit:4;stroke-dasharray:none;stroke-opacity:1;display:inline;filter:url(#filter4494)"
       d="M 29.65677,86.239712 C 29.07857,86.964092 29.14387,88.008872 29.80777,88.655622 L 35.39457,94.242432 L 29.78257,99.854402 C 29.07377,100.56324 29.07377,101.71248 29.78257,102.42132 C 30.49137,103.13014 31.64067,103.13015 32.34947,102.42132 L 37.961473,96.809342 L 43.548273,102.39615 C 43.988673,102.91111 44.676173,103.13329 45.335073,102.97497 C 45.993873,102.81661 46.510473,102.30003 46.668773,101.64118 C 46.827073,100.98232 46.604973,100.29483 46.089973,99.854402 L 40.503173,94.267602 L 46.115173,88.655622 C 46.823973,87.946792 46.823973,86.797542 46.115173,86.088712 C 45.406373,85.379882 44.257073,85.379882 43.548273,86.088712 L 37.936273,91.700692 L 32.34947,86.113882 C 31.98977,85.745092 31.47997,85.561342 30.96537,85.585392 C 30.45077,85.609442 29.98047,85.838982 29.65677,86.239712 z"
       id="path8517"
       transform="matrix(2.6765239,0,0,2.6765239,0,-214.59506)" />
    <path
       id="path8519"
       d="M 77.202378,4.5177987 C 75.654812,6.4566191 75.829589,9.2529977 77.606533,10.98404 L 92.559737,25.93727 L 77.539085,40.957842 C 75.641965,42.855069 75.641965,45.931038 77.539085,47.828265 C 79.436205,49.725438 82.512334,49.725465 84.409454,47.828265 L 99.430114,32.807666 L 114.38332,47.760897 C 115.56206,49.139199 117.40217,49.733869 119.16573,49.310122 C 120.92903,48.886268 122.31172,47.503629 122.73541,45.740201 C 123.1591,43.976747 122.56465,42.136663 121.18624,40.957842 L 106.23304,26.004638 L 121.25369,10.98404 C 123.15081,9.0868391 123.15081,6.010844 121.25369,4.1136436 C 119.35657,2.2164431 116.28044,2.2164431 114.38332,4.1136436 L 99.362666,19.134242 L 84.409454,4.1810117 C 83.446709,3.1939364 82.082217,2.7021252 80.704877,2.7664956 C 79.327538,2.830866 78.068769,3.4452353 77.202378,4.5177987 z"
       style="fill:#ff0000;fill-opacity:1;fill-rule:evenodd;stroke:none;stroke-width:3.16552567;stroke-linecap:round;stroke-linejoin:miter;stroke-miterlimit:4;stroke-dasharray:none;stroke-opacity:1;display:inline"
       inkscape:export-filename="/home/dafeba/DCV/tallerD/bocetos/08-09-22-hastaahora.png"
       inkscape:export-xdpi="57.964222"
       inkscape:export-ydpi="57.964222" />
  </g>
</svg>
