<?xml version="1.0" encoding="UTF-8" standalone="no"?>
<!-- Created with Inkscape (http://www.inkscape.org/) -->

<svg
   xmlns:dc="http://purl.org/dc/elements/1.1/"
   xmlns:cc="http://creativecommons.org/ns#"
   xmlns:rdf="http://www.w3.org/1999/02/22-rdf-syntax-ns#"
   xmlns:svg="http://www.w3.org/2000/svg"
   xmlns="http://www.w3.org/2000/svg"
   xmlns:xlink="http://www.w3.org/1999/xlink"
   xmlns:sodipodi="http://sodipodi.sourceforge.net/DTD/sodipodi-0.dtd"
   xmlns:inkscape="http://www.inkscape.org/namespaces/inkscape"
   width="128"
   height="128"
   id="svg52672"
   sodipodi:version="0.32"
   inkscape:version="0.91 r13725"
   version="1.0"
   sodipodi:docname="tab-new-symbolic.svg"
   inkscape:output_extension="org.inkscape.output.svg.inkscape">
  <defs
     id="defs52674">
    <linearGradient
       inkscape:collect="always"
       xlink:href="#linearGradient5344"
       id="linearGradient58832"
       gradientUnits="userSpaceOnUse"
       gradientTransform="translate(-184,-280)"
       x1="519.31262"
       y1="723.67017"
       x2="511.42725"
       y2="667.20789" />
    <linearGradient
       inkscape:collect="always"
       xlink:href="#linearGradient5362"
       id="linearGradient58830"
       gradientUnits="userSpaceOnUse"
       gradientTransform="translate(-184,-280)"
       x1="504.91962"
       y1="635.44617"
       x2="504.48212"
       y2="641.10242" />
    <linearGradient
       inkscape:collect="always"
       xlink:href="#linearGradient5451"
       id="linearGradient58828"
       gradientUnits="userSpaceOnUse"
       gradientTransform="translate(-184,-280)"
       x1="484.70901"
       y1="674.9306"
       x2="533.03339"
       y2="674.9306" />
    <linearGradient
       id="linearGradient5451">
      <stop
         style="stop-color:#000000;stop-opacity:0.35099337;"
         offset="0"
         id="stop5453" />
      <stop
         id="stop5459"
         offset="0.45549738"
         style="stop-color:#000000;stop-opacity:0.29139072;" />
      <stop
         style="stop-color:#000000;stop-opacity:0;"
         offset="1"
         id="stop5455" />
    </linearGradient>
    <linearGradient
       id="linearGradient5362">
      <stop
         style="stop-color:#ffffff;stop-opacity:1;"
         offset="0"
         id="stop5364" />
      <stop
         style="stop-color:#ffffff;stop-opacity:0;"
         offset="1"
         id="stop5366" />
    </linearGradient>
    <linearGradient
       id="linearGradient8702">
      <stop
         id="stop8704"
         offset="0"
         style="stop-color:#aac736;stop-opacity:1;" />
      <stop
         id="stop8706"
         offset="1"
         style="stop-color:#5d8b2c;stop-opacity:1;" />
    </linearGradient>
    <linearGradient
       id="linearGradient5344">
      <stop
         style="stop-color:#000000;stop-opacity:1;"
         offset="0"
         id="stop5346" />
      <stop
         style="stop-color:#000000;stop-opacity:0;"
         offset="1"
         id="stop5348" />
    </linearGradient>
    <linearGradient
       inkscape:collect="always"
       xlink:href="#linearGradient8702"
       id="linearGradient4186"
       x1="18.727461"
       y1="16.771374"
       x2="108.60851"
       y2="106.05833"
       gradientUnits="userSpaceOnUse"
       gradientTransform="translate(0,2)" />
  </defs>
  <sodipodi:namedview
     id="base"
     pagecolor="#ffffff"
     bordercolor="#666666"
     borderopacity="1.0"
     inkscape:pageopacity="0.0"
     inkscape:pageshadow="2"
     inkscape:zoom="1.0414124"
     inkscape:cx="93.579459"
     inkscape:cy="7.2820597"
     inkscape:document-units="px"
     inkscape:current-layer="layer1"
     showgrid="false"
     inkscape:window-width="1024"
     inkscape:window-height="713"
     inkscape:window-x="0"
     inkscape:window-y="0"
     inkscape:window-maximized="0" />
  <metadata
     id="metadata52677">
    <rdf:RDF>
      <cc:Work
         rdf:about="">
        <dc:format>image/svg+xml</dc:format>
        <dc:type
           rdf:resource="http://purl.org/dc/dcmitype/StillImage" />
      </cc:Work>
    </rdf:RDF>
  </metadata>
  <g
     inkscape:label="Capa 1"
     inkscape:groupmode="layer"
     id="layer1">
    <g
       inkscape:export-ydpi="89.986237"
       inkscape:export-xdpi="89.986237"
       inkscape:export-filename="/home/dafeba/DCV/tallerD/elementos.png"
       transform="translate(424,80)"
       id="g58804">
      <rect
         style="opacity:1;fill:#f2f2f2;fill-opacity:1;stroke:none;stroke-width:0.1;stroke-linecap:round;stroke-linejoin:round;stroke-miterlimit:4;stroke-dasharray:none;stroke-opacity:0.30041151"
         id="rect58806"
         width="47.823223"
         height="48"
         x="301.18933"
         y="351.1709" />
      <path
         style="fill:url(#linearGradient58828);fill-rule:evenodd;stroke:none;stroke-width:1px;stroke-linecap:butt;stroke-linejoin:miter;stroke-opacity:1"
         d="M 313.09207,399.15115 L 301.20351,395.7431 L 336.08403,390.7653 L 349.00384,390.68796 L 349.03336,399.15114 L 313.09207,399.15115 z"
         id="path58808"
         sodipodi:nodetypes="cccccc" />
      <path
         style="fill:#f2f2f2;fill-rule:evenodd;stroke:none;stroke-width:0.5;stroke-linecap:round;stroke-linejoin:round;stroke-miterlimit:4;stroke-dasharray:none;stroke-opacity:1"
         d="M 301.48601,353.22699 C 305.08831,353.57311 306.6134,357.74996 306.61071,360.86425 L 306.56413,389.36485 C 306.59506,392.86249 308.42012,396.3398 313.14348,398.87602 L 346.05226,393.25994 C 342.15451,392.5412 339.36778,388.67929 339.39934,385.53974 L 339.4778,361.97786 C 339.51198,358.9412 337.51957,355.88584 333.82005,355.55785 L 301.48601,353.22699 z"
         id="path58810"
         sodipodi:nodetypes="ccccccccc" />
      <path
         sodipodi:nodetypes="ccccc"
         id="path58812"
         d="M 301.48601,353.22699 C 305.08831,353.57311 306.6134,357.74996 306.61071,360.86425 L 339.4778,361.97786 C 339.51198,358.9412 337.51957,355.88584 333.82005,355.55785 L 301.48601,353.22699 z"
         style="fill:url(#linearGradient58830);fill-rule:evenodd;stroke:none;stroke-width:0.5;stroke-linecap:round;stroke-linejoin:round;stroke-miterlimit:4;stroke-dasharray:none;stroke-opacity:1" />
      <path
         sodipodi:nodetypes="ccccc"
         id="path58814"
         d="M 306.56413,389.36485 C 306.59506,392.86249 308.42012,396.3398 313.14348,398.87602 L 346.05226,393.25994 C 342.15451,392.5412 339.36778,388.67929 339.39934,385.53974 L 306.56413,389.36485 z"
         style="fill:url(#linearGradient58832);fill-rule:evenodd;stroke:none;stroke-width:0.5;stroke-linecap:round;stroke-linejoin:round;stroke-miterlimit:4;stroke-dasharray:none;stroke-opacity:1" />
      <path
         sodipodi:nodetypes="ccccccccc"
         id="path58816"
         d="M 301.48601,353.22699 C 305.08831,353.57311 306.6134,357.74996 306.61071,360.86425 L 306.56413,389.36485 C 306.59506,392.86249 308.42012,396.3398 313.14348,398.87602 L 346.05226,393.25994 C 342.15451,392.5412 339.36778,388.67929 339.39934,385.53974 L 339.4778,361.97786 C 339.51198,358.9412 337.51957,355.88584 333.82005,355.55785 L 301.48601,353.22699 z"
         style="fill:none;fill-rule:evenodd;stroke:#000000;stroke-width:0.5;stroke-linecap:round;stroke-linejoin:round;stroke-miterlimit:4;stroke-dasharray:none;stroke-opacity:1" />
    </g>
    <path
       sodipodi:nodetypes="ccccc"
       id="path58818"
       d="M 740.12551,445.55112 L 757.25142,445.69471 L 757.28066,447.8612 L 740.12588,448.00172 L 740.12551,445.55112 z"
       style="fill:#000000;fill-rule:evenodd;stroke:none;stroke-width:1px;stroke-linecap:butt;stroke-linejoin:miter;stroke-opacity:1" />
    <path
       style="fill:#000000;fill-rule:evenodd;stroke:none;stroke-width:1px;stroke-linecap:butt;stroke-linejoin:miter;stroke-opacity:1"
       d="M 744.24688,449.98324 L 754.3118,449.81922 L 754.31233,452.041 L 744.12653,452.24935 L 744.24688,449.98324 z"
       id="path58820"
       sodipodi:nodetypes="ccccc" />
    <path
       sodipodi:nodetypes="ccccc"
       id="path58822"
       d="M 737.18797,454.68729 L 758.68836,453.88522 L 758.75025,455.99227 L 737.18522,457.06633 L 737.18797,454.68729 z"
       style="fill:#000000;fill-rule:evenodd;stroke:none;stroke-width:1px;stroke-linecap:butt;stroke-linejoin:miter;stroke-opacity:1" />
    <path
       style="fill:#000000;fill-rule:evenodd;stroke:none;stroke-width:1px;stroke-linecap:butt;stroke-linejoin:miter;stroke-opacity:1"
       d="M 747.11973,459.21937 L 751.38008,458.93979 L 751.25403,461.03473 L 746.94583,461.39831 L 747.11973,459.21937 z"
       id="path58824"
       sodipodi:nodetypes="ccccc" />
    <path
       sodipodi:nodetypes="ccccc"
       id="path58826"
       d="M 742.54569,464.13694 L 754.55952,462.8959 L 754.44101,465.07791 L 742.37806,466.57431 L 742.54569,464.13694 z"
       style="fill:#000000;fill-rule:evenodd;stroke:none;stroke-width:1px;stroke-linecap:butt;stroke-linejoin:miter;stroke-opacity:1" />
    <path
       style="display:inline;fill:url(#linearGradient4186);fill-rule:evenodd;stroke:none;stroke-width:0.5;stroke-linecap:butt;stroke-linejoin:miter;stroke-miterlimit:4;stroke-dasharray:none;stroke-opacity:1"
       d="m 94.363281,3.173828 c -0.217282,-7.66e-4 -0.435215,0.0099 -0.654297,0.0332 l -0.0039,0 -0.0039,0.002 c -3.13757,0.35209 -5.517849,3.048111 -5.476563,6.205078 l 0,19.791016 -19.902343,0 c -3.40636,0 -6.197266,2.791037 -6.197266,6.197266 0,3.406425 2.790995,6.195312 6.197266,6.195312 l 19.902343,0 0,19.80859 0.0039,-0.10351 c -0.179797,2.3045 0.952538,4.51617 2.921875,5.72266 1.975059,1.20958 4.472242,1.2096 6.447265,0 1.969296,-1.20649 3.101679,-3.41814 2.921879,-5.72266 l 0.004,0.10351 0,-19.80859 19.90429,0 c 3.40627,0 6.19532,-2.788888 6.19532,-6.195312 0,-3.406228 -2.78896,-6.197266 -6.19532,-6.197266 l -19.90429,0 0,-19.792969 c 0.0222,-1.788531 -0.771703,-3.454788 -2.056648,-4.625 C 97.342417,3.763249 95.884256,3.179239 94.363281,3.173875 Z M 14.833984,7.177734 C 7.6705097,7.04083 2.2703459,15.894937 2.4511719,22.546875 l -0.00195,91.523435 c -0.3960453,8.41097 6.0068388,12.28454 12.3417971,11.16602 L 116.86719,107.39648 c 4.75239,-0.80884 8.22331,-5.13334 8.02929,-13.5039 l -0.12304,-50.79883 c -0.99893,0.571716 -2.11427,0.952256 -3.29883,1.095703 l 0.14453,47.937497 c 0.17814,7.68545 -3.00767,11.6558 -7.37109,12.39844 L 15.9375,120.48438 c -5.816458,1.02696 -9.1523438,-1.33483 -9.1523438,-8.67383 l 0,-76.269534 C 6.4399375,29.355882 9.4380358,24.854294 15.935547,25.287109 l 46.769531,1.558594 c 0.0074,-5.27064 1.945076,-15.579819 -6.802734,-16.5625 L 14.833984,7.177734 Z"
       id="path13318"
       inkscape:connector-curvature="0" />
  </g>
</svg>
