<?xml version="1.0" encoding="UTF-8" standalone="no"?>
<!-- Created with Inkscape (http://www.inkscape.org/) -->

<svg
   xmlns:dc="http://purl.org/dc/elements/1.1/"
   xmlns:cc="http://creativecommons.org/ns#"
   xmlns:rdf="http://www.w3.org/1999/02/22-rdf-syntax-ns#"
   xmlns:svg="http://www.w3.org/2000/svg"
   xmlns="http://www.w3.org/2000/svg"
   xmlns:xlink="http://www.w3.org/1999/xlink"
   xmlns:sodipodi="http://sodipodi.sourceforge.net/DTD/sodipodi-0.dtd"
   xmlns:inkscape="http://www.inkscape.org/namespaces/inkscape"
   width="128"
   height="128"
   id="svg6934"
   sodipodi:version="0.32"
   inkscape:version="0.48.3.1 r9886"
   version="1.0"
   sodipodi:docname="blender.svg"
   inkscape:output_extension="org.inkscape.output.svg.inkscape">
  <defs
     id="defs6936">
    <linearGradient
       inkscape:collect="always"
       xlink:href="#linearGradient5316-34"
       id="linearGradient31065"
       gradientUnits="userSpaceOnUse"
       gradientTransform="translate(-229.71403,0.914164)"
       x1="275.29071"
       y1="1103.7349"
       x2="275.29071"
       y2="1121.6162" />
    <linearGradient
       id="linearGradient5316-34">
      <stop
         style="stop-color:#aac736;stop-opacity:1;"
         offset="0"
         id="stop5320-7" />
      <stop
         style="stop-color:#5d8b2c;stop-opacity:1;"
         offset="1"
         id="stop5322-3" />
    </linearGradient>
    <linearGradient
       inkscape:collect="always"
       xlink:href="#linearGradient5165-7-9-8-2-66"
       id="linearGradient31067"
       gradientUnits="userSpaceOnUse"
       gradientTransform="translate(-229.71403,0.914164)"
       x1="275.29071"
       y1="1094.0099"
       x2="275.29071"
       y2="1117.1519" />
    <linearGradient
       id="linearGradient5165-7-9-8-2-66">
      <stop
         id="stop5167-4-8-6-9-23"
         style="stop-color:#ffffff;stop-opacity:1"
         offset="0" />
      <stop
         id="stop5169-5-5-2-9-8"
         style="stop-color:#ffffff;stop-opacity:0"
         offset="1" />
    </linearGradient>
    <linearGradient
       inkscape:collect="always"
       xlink:href="#linearGradient5316-34"
       id="linearGradient31069"
       gradientUnits="userSpaceOnUse"
       gradientTransform="translate(-229.71403,0.914164)"
       x1="280.65372"
       y1="1100.6647"
       x2="292.69617"
       y2="1118.8726" />
    <linearGradient
       inkscape:collect="always"
       xlink:href="#linearGradient5344-07"
       id="linearGradient31071"
       gradientUnits="userSpaceOnUse"
       gradientTransform="translate(-229.71403,0.914164)"
       x1="317.94461"
       y1="1142.4757"
       x2="283.81964"
       y2="1103.8007" />
    <linearGradient
       id="linearGradient5344-07">
      <stop
         style="stop-color:#000000;stop-opacity:1;"
         offset="0"
         id="stop5346-6" />
      <stop
         style="stop-color:#000000;stop-opacity:0;"
         offset="1"
         id="stop5348-3" />
    </linearGradient>
    <linearGradient
       inkscape:collect="always"
       xlink:href="#linearGradient5344-07"
       id="linearGradient3094"
       gradientUnits="userSpaceOnUse"
       gradientTransform="matrix(5.3340457,0,0,5.3340457,-1451.5288,-5864.5156)"
       x1="317.94461"
       y1="1142.4757"
       x2="283.81964"
       y2="1103.8007" />
    <linearGradient
       inkscape:collect="always"
       xlink:href="#linearGradient5316-34"
       id="linearGradient3097"
       gradientUnits="userSpaceOnUse"
       gradientTransform="matrix(5.3340457,0,0,5.3340457,-1451.5288,-5864.5156)"
       x1="280.65372"
       y1="1100.6647"
       x2="292.69617"
       y2="1118.8726" />
    <linearGradient
       inkscape:collect="always"
       xlink:href="#linearGradient5165-7-9-8-2-66"
       id="linearGradient3100"
       gradientUnits="userSpaceOnUse"
       gradientTransform="matrix(5.3340457,0,0,5.3340457,-1451.5288,-5864.5156)"
       x1="275.29071"
       y1="1094.0099"
       x2="275.29071"
       y2="1117.1519" />
    <linearGradient
       inkscape:collect="always"
       xlink:href="#linearGradient5316-34"
       id="linearGradient3103"
       gradientUnits="userSpaceOnUse"
       gradientTransform="matrix(5.3340457,0,0,5.3340457,-1451.5288,-5864.5156)"
       x1="275.29071"
       y1="1103.7349"
       x2="275.29071"
       y2="1121.6162" />
    <linearGradient
       inkscape:collect="always"
       xlink:href="#linearGradient5344"
       id="linearGradient3105"
       x1="7.9531264"
       y1="2.2416961"
       x2="13.667412"
       y2="-64.464973"
       gradientUnits="userSpaceOnUse"
       gradientTransform="translate(-4.0351795e-8,140)" />
    <linearGradient
       id="linearGradient5344">
      <stop
         style="stop-color:#000000;stop-opacity:1;"
         offset="0"
         id="stop5346" />
      <stop
         style="stop-color:#000000;stop-opacity:0;"
         offset="1"
         id="stop5348" />
    </linearGradient>
    <linearGradient
       inkscape:collect="always"
       xlink:href="#linearGradient5165-7-9-8-2"
       id="linearGradient3103-3"
       x1="22.933788"
       y1="-144.76825"
       x2="18.618809"
       y2="-96.331688"
       gradientUnits="userSpaceOnUse"
       gradientTransform="translate(-4.0351795e-8,140)" />
    <linearGradient
       id="linearGradient5165-7-9-8-2">
      <stop
         id="stop5167-4-8-6-9"
         style="stop-color:#ffffff;stop-opacity:1"
         offset="0" />
      <stop
         id="stop5169-5-5-2-9"
         style="stop-color:#ffffff;stop-opacity:0"
         offset="1" />
    </linearGradient>
    <linearGradient
       inkscape:collect="always"
       xlink:href="#linearGradient5344"
       id="linearGradient3107"
       gradientUnits="userSpaceOnUse"
       gradientTransform="matrix(5.3340639,0,0,5.3340639,-1451.4802,-5864.5574)"
       x1="305.23422"
       y1="1137.0681"
       x2="283.35095"
       y2="1104.2024" />
    <linearGradient
       id="linearGradient3069">
      <stop
         style="stop-color:#000000;stop-opacity:1;"
         offset="0"
         id="stop3071" />
      <stop
         style="stop-color:#000000;stop-opacity:0;"
         offset="1"
         id="stop3073" />
    </linearGradient>
  </defs>
  <sodipodi:namedview
     id="base"
     pagecolor="#ffffff"
     bordercolor="#666666"
     borderopacity="1.0"
     inkscape:pageopacity="0.0"
     inkscape:pageshadow="2"
     inkscape:zoom="2.8"
     inkscape:cx="68.645652"
     inkscape:cy="60.446333"
     inkscape:document-units="px"
     inkscape:current-layer="layer1"
     showgrid="false"
     inkscape:window-width="1280"
     inkscape:window-height="713"
     inkscape:window-x="0"
     inkscape:window-y="0"
     inkscape:window-maximized="0" />
  <metadata
     id="metadata6939">
    <rdf:RDF>
      <cc:Work
         rdf:about="">
        <dc:format>image/svg+xml</dc:format>
        <dc:type
           rdf:resource="http://purl.org/dc/dcmitype/StillImage" />
        <dc:title />
      </cc:Work>
    </rdf:RDF>
  </metadata>
  <g
     inkscape:label="Capa 1"
     inkscape:groupmode="layer"
     id="layer1">
    <path
       style="fill:#ff8921;fill-opacity:1;fill-rule:evenodd;stroke:none"
       d="m 34.21875,5.0625028 c -1.32927,0.0554 -2.550557,0.27966 -3.65625,0.625 l -18.34375,2.71875 -0.5,0 0,0.1875 C 6.0032494,9.6428228 3.0625,14.185733 3.0625,19.750003 l 0,84.687497 c -0.07024,5.65226 2.0501037,10.0952 6.3125,11.5 l 18.96875,5.9375 c 0.02087,0.0102 0.04153,0.0212 0.0625,0.0313 1.892721,0.90932 4.164425,1.2325 6.78125,0.8125 l 78.28125,-11.8125 c 5.72052,-0.61974 9.4668,-6.06393 9.15625,-13.624997 l 0.40625,-74.2813 c 0.22248,-5.96534 -2.80168,-10.97622 -9.34375,-11.96875 L 35.84375,5.0937528 c -0.55631,-0.0273 -1.103066,-0.053 -1.625,-0.0313 z"
       id="path30949"
       inkscape:connector-curvature="0" />
    <path
       style="fill:url(#linearGradient3107);fill-rule:evenodd;stroke:none"
       d="M 29.25,16.718753 29.21875,113.125 c 0.448699,3.45828 1.407546,8.12456 4.34375,9.75 0.527128,-0.0229 1.067503,-0.0668 1.625,-0.15625 l 78.28125,-11.8125 c 5.72052,-0.61974 9.4668,-6.06393 9.15625,-13.624997 l 0.40625,-74.28125 c 0.22245,-5.96534 -2.80168,-10.97622 -9.34375,-11.96875 L 37.678453,5.2336928 C 33.707189,4.8130228 29.262938,10.014263 29.25,16.718753 z M 30.15625,122.5 c 0.647964,0.17153 1.314675,0.32617 2.03125,0.375 z"
       id="path30953"
       inkscape:connector-curvature="0"
       sodipodi:nodetypes="ccccccccccccc" />
    <path
       style="fill:url(#linearGradient3103-3);fill-rule:evenodd;stroke:none;display:inline"
       d="m 34.78125,5.3125028 -22.5625,3.09375 -0.5,0 0,0.1875 C 6.003249,9.6428228 3.0625,14.185733 3.0625,19.750003 l 0,25 26.1875,0 0,-28.03125 c 0.347051,-4.91678 2.274064,-9.9637802 5.53125,-11.4062502 z"
       id="path3073"
       inkscape:connector-curvature="0" />
    <path
       style="fill:url(#linearGradient3105);fill-rule:evenodd;stroke:none;display:inline"
       d="m 3.0625,68.406253 0,36.031247 c -0.07024,5.65226 2.050104,10.0952 6.3125,11.5 l 17.65625,6.03125 7.5,1.3125 c -3.710844,-1.04488 -4.81745,-6.34073 -5.3125,-10.15625 l 0,-44.718747 -26.15625,0 z"
       id="path3081"
       inkscape:connector-curvature="0" />
    <path
       inkscape:connector-curvature="0"
       id="path30957"
       d="m 35.825012,5.0844328 c -1.734374,-0.0853 -3.26759,0.13333 -4.667303,0.50133 L 11.65504,8.5863028 C 5.9395447,9.6353728 2.9871862,14.190033 2.9871862,19.754303 l 0,84.678437 c -0.07024,5.65226 2.0718035,10.09707 6.3341998,11.50187 l 19.669357,6.16693 c 1.792241,0.74027 3.774988,1.0512 6.167512,0.6672 l 78.344065,-11.8352 c 5.72052,-0.6192 9.47847,-6.1072 9.16792,-13.668267 l 0.33339,-74.34403 c 0.22245,-5.96534 -2.79254,-10.84214 -9.33461,-11.83467 L 35.825018,5.0855028 z"
       style="fill:none;stroke:#344b63;stroke-width:2.667032;stroke-linecap:butt;stroke-linejoin:miter;stroke-miterlimit:4;stroke-opacity:1;stroke-dasharray:none;display:inline"
       sodipodi:nodetypes="ccccccccccccc" />
    <path
       inkscape:connector-curvature="0"
       d="m 57.714751,13.671172 c 1.200987,0.15469 2.397078,0.43739 3.430885,1.22843 0,0 41.692094,28.291778 41.692094,28.291778 0.5407,0.293372 1.02141,0.665688 1.44335,1.097213 8.87562,6.027471 14.71761,16.02614 14.71761,27.419662 0,18.035475 -14.66101,34.904925 -32.747866,37.651425 -18.078927,2.7449 -32.758658,-12.241098 -32.771609,-33.447664 0,0 -13.013951,11.894389 -13.013951,11.894389 -2.692024,2.541672 -7.16157,2.341646 -8.305301,-1.04174 -1.030133,-3.04734 -0.9251,-7.826111 1.44335,-10.310176 0,0 25.696727,-22.498472 25.696727,-22.498472 0.04587,-0.08001 0.09585,-0.149353 0.141993,-0.22403 0,0 -18.07762,0.240032 -18.07762,0.240032 -3.293122,0.05334 -5.962706,-3.183358 -5.962706,-7.207362 0,-4.024538 2.669584,-7.235633 5.962706,-7.173225 0,0 33.50512,0.633685 33.50512,0.633685 0.0176,0 0.03094,0 0.04747,0 0,0 -19.734011,-13.675955 -19.734011,-13.675955 -2.325122,-1.62209 -3.520993,-4.81825 -2.934019,-7.83038 0.586969,-3.00307 2.815277,-5.05295 5.46585,-5.02148 0,0 -9.1e-5,-0.002 -9.1e-5,-0.002 0,0 0,0 0,0 m 29.080247,36.72811 c -12.206244,0.06934 -22.100072,11.464998 -22.100072,25.418861 0,13.953864 9.893786,24.03041 22.100072,22.508599 C 99.00126,96.829609 108.9188,85.458491 108.9188,72.957088 c 0,-12.50247 -9.91754,-22.603019 -22.123821,-22.533676 0,0 0,0 0,0 m 0,11.745568 c 6.222308,-0.218696 11.286638,4.940393 11.286638,11.495402 0,6.553942 -5.06433,12.347783 -11.286638,12.942529 -6.222266,0.594212 -11.262934,-4.539807 -11.262934,-11.470866 0,-6.932125 5.040668,-12.749436 11.262934,-12.967065 0,0 0,0 0,0 0,0 0,0 0,0"
       id="path30907"
       style="fill:#000000;fill-opacity:0.57254902;stroke:#000000;stroke-width:5.33400011;stroke-linecap:round;stroke-linejoin:round;stroke-miterlimit:4;stroke-opacity:0.57647059;stroke-dasharray:none;overflow:visible"
       sodipodi:nodetypes="ccccssccsccccsccccsccccssscccsssccc" />
    <path
       inkscape:connector-curvature="0"
       sodipodi:nodetypes="ccccssccsccccsccccsccccssscccsssccc"
       style="fill:#ffffff;fill-opacity:1;stroke:none;overflow:visible"
       id="path30909"
       d="m 59.048263,13.671172 c 1.200987,0.15469 2.397077,0.43739 3.430885,1.22843 0,0 41.692092,28.291778 41.692092,28.291778 0.5407,0.293372 1.02141,0.665688 1.44336,1.097213 8.87561,6.027471 14.7176,16.02614 14.7176,27.419662 0,18.035475 -14.661,34.904925 -32.747865,37.651425 -18.078926,2.7449 -32.758657,-12.241098 -32.771609,-33.447664 0,0 -13.013951,11.894389 -13.013951,11.894389 -2.692023,2.541672 -7.16157,2.341646 -8.305301,-1.04174 -1.030132,-3.04734 -0.9251,-7.826111 1.44335,-10.310176 0,0 25.696728,-22.498472 25.696728,-22.498472 0.04587,-0.08001 0.09585,-0.149353 0.141992,-0.22403 0,0 -18.077619,0.240032 -18.077619,0.240032 -3.293123,0.05334 -5.962706,-3.183358 -5.962706,-7.207362 0,-4.024538 2.669583,-7.235633 5.962706,-7.173225 0,0 33.50512,0.633685 33.50512,0.633685 0.0176,0 0.03094,0 0.04747,0 0,0 -19.734012,-13.675955 -19.734012,-13.675955 -2.325121,-1.62209 -3.520993,-4.81825 -2.934018,-7.83038 0.586969,-3.00307 2.815277,-5.05295 5.465849,-5.02148 0,0 -9e-5,-0.002 -9e-5,-0.002 0,0 0,0 0,0 M 88.128493,50.423379 C 75.92225,50.492719 66.028422,61.888377 66.028422,75.84224 c 0,13.953864 9.893785,24.030413 22.100071,22.508602 12.206277,-1.521266 22.123817,-12.892384 22.123817,-25.393787 0,-12.50247 -9.91754,-22.603019 -22.123817,-22.533676 0,0 0,0 0,0 m 0,11.745568 c 6.222309,-0.218696 11.286638,4.940393 11.286638,11.495402 0,6.553942 -5.064329,12.347783 -11.286638,12.942529 C 81.906228,87.20109 76.86556,82.067071 76.86556,75.136012 c 0,-6.932125 5.040668,-12.749436 11.262933,-12.967065 0,0 0,0 0,0 0,0 0,0 0,0" />
  </g>
</svg>
