<?xml version="1.0" encoding="UTF-8" standalone="no"?>
<!-- Created with Inkscape (http://www.inkscape.org/) -->

<svg
   xmlns:dc="http://purl.org/dc/elements/1.1/"
   xmlns:cc="http://creativecommons.org/ns#"
   xmlns:rdf="http://www.w3.org/1999/02/22-rdf-syntax-ns#"
   xmlns:svg="http://www.w3.org/2000/svg"
   xmlns="http://www.w3.org/2000/svg"
   xmlns:xlink="http://www.w3.org/1999/xlink"
   xmlns:sodipodi="http://sodipodi.sourceforge.net/DTD/sodipodi-0.dtd"
   xmlns:inkscape="http://www.inkscape.org/namespaces/inkscape"
   width="128"
   height="128"
   id="svg6934"
   sodipodi:version="0.32"
   inkscape:version="0.48.3.1 r9886"
   version="1.0"
   sodipodi:docname="bluefish-icon.svg"
   inkscape:output_extension="org.inkscape.output.svg.inkscape">
  <defs
     id="defs6936">
    <linearGradient
       id="linearGradient5344">
      <stop
         style="stop-color:#000000;stop-opacity:1;"
         offset="0"
         id="stop5346" />
      <stop
         style="stop-color:#000000;stop-opacity:0;"
         offset="1"
         id="stop5348" />
    </linearGradient>
    <linearGradient
       id="linearGradient5165-7-9-8-2">
      <stop
         id="stop5167-4-8-6-9"
         style="stop-color:#ffffff;stop-opacity:1"
         offset="0" />
      <stop
         id="stop5169-5-5-2-9"
         style="stop-color:#ffffff;stop-opacity:0"
         offset="1" />
    </linearGradient>
    <linearGradient
       inkscape:collect="always"
       xlink:href="#linearGradient5344"
       id="linearGradient3107"
       gradientUnits="userSpaceOnUse"
       gradientTransform="matrix(5.3340639,0,0,5.3340639,-1451.4802,-5864.5574)"
       x1="305.23422"
       y1="1137.0681"
       x2="283.35095"
       y2="1104.2024" />
    <linearGradient
       id="linearGradient5344-50">
      <stop
         style="stop-color:#000000;stop-opacity:1;"
         offset="0"
         id="stop5346-2" />
      <stop
         style="stop-color:#000000;stop-opacity:0;"
         offset="1"
         id="stop5348-5" />
    </linearGradient>
    <linearGradient
       id="linearGradient5316-0">
      <stop
         style="stop-color:#aac736;stop-opacity:1;"
         offset="0"
         id="stop5320-8" />
      <stop
         style="stop-color:#5d8b2c;stop-opacity:1;"
         offset="1"
         id="stop5322-1" />
    </linearGradient>
    <linearGradient
       id="linearGradient13604-6">
      <stop
         id="stop13606-2"
         offset="0"
         style="stop-color:#ffffff;stop-opacity:1;" />
      <stop
         id="stop13608-7"
         offset="1"
         style="stop-color:#000000;stop-opacity:1;" />
    </linearGradient>
    <linearGradient
       id="linearGradient13620-8">
      <stop
         id="stop13622-7"
         offset="0"
         style="stop-color:#000000;stop-opacity:1;" />
      <stop
         id="stop13624-6"
         offset="1"
         style="stop-color:#000000;stop-opacity:0;" />
    </linearGradient>
    <linearGradient
       inkscape:collect="always"
       xlink:href="#linearGradient5165-7-9-8-2"
       id="linearGradient3092"
       gradientUnits="userSpaceOnUse"
       gradientTransform="translate(-40,140)"
       x1="22.933788"
       y1="-144.76825"
       x2="18.618809"
       y2="-96.331688" />
    <linearGradient
       inkscape:collect="always"
       xlink:href="#linearGradient5344"
       id="linearGradient3094"
       gradientUnits="userSpaceOnUse"
       gradientTransform="translate(-40,140)"
       x1="7.9531264"
       y1="2.2416961"
       x2="13.667412"
       y2="-64.464973" />
  </defs>
  <sodipodi:namedview
     id="base"
     pagecolor="#ffffff"
     bordercolor="#666666"
     borderopacity="1.0"
     inkscape:pageopacity="0.0"
     inkscape:pageshadow="2"
     inkscape:zoom="1.979899"
     inkscape:cx="74.416762"
     inkscape:cy="62.795446"
     inkscape:document-units="px"
     inkscape:current-layer="layer1"
     showgrid="false"
     inkscape:window-width="1366"
     inkscape:window-height="718"
     inkscape:window-x="0"
     inkscape:window-y="0"
     inkscape:window-maximized="1" />
  <metadata
     id="metadata6939">
    <rdf:RDF>
      <cc:Work
         rdf:about="">
        <dc:format>image/svg+xml</dc:format>
        <dc:type
           rdf:resource="http://purl.org/dc/dcmitype/StillImage" />
        <dc:title></dc:title>
      </cc:Work>
    </rdf:RDF>
  </metadata>
  <g
     inkscape:label="Capa 1"
     inkscape:groupmode="layer"
     id="layer1">
    <path
       style="fill:#0000ff;fill-opacity:1;fill-rule:evenodd;stroke:none"
       d="m 34.21875,5.062503 c -1.32927,0.0554 -2.55056,0.27966 -3.65625,0.625 l -18.34375,2.71875 -0.5,0 0,0.1875 c -5.7155,1.04907 -8.65625,5.59198 -8.65625,11.15625 l 0,84.687497 c -0.0702,5.65226 2.0501,10.0952 6.3125,11.5 l 18.96875,5.9375 c 0.0209,0.0102 0.0415,0.0212 0.0625,0.0313 1.89272,0.90932 4.16442,1.2325 6.78125,0.8125 l 78.28125,-11.8125 c 5.72052,-0.61974 9.4668,-6.06393 9.15625,-13.625 l 0.40625,-74.281297 c 0.22248,-5.96534 -2.80168,-10.97622 -9.34375,-11.96875 l -77.84375,-5.9375 c -0.55631,-0.0273 -1.10307,-0.053 -1.625,-0.0313 z"
       id="path30949"
       inkscape:connector-curvature="0" />
    <path
       style="fill:url(#linearGradient3107);fill-rule:evenodd;stroke:none"
       d="M 29.25,16.718753 29.2187,113.125 c 0.4487,3.45828 1.40755,8.12456 4.34375,9.75 0.52713,-0.0229 1.0675,-0.0668 1.625,-0.15625 l 78.28125,-11.8125 c 5.72052,-0.61974 9.4668,-6.06393 9.15625,-13.625 l 0.40625,-74.281247 c 0.22245,-5.96534 -2.80168,-10.97622 -9.34375,-11.96875 L 37.6784,5.233693 c -3.97126,-0.42067 -8.41551,4.78057 -8.42845,11.48506 z M 30.15625,122.5 c 0.64796,0.17153 1.31467,0.32617 2.03125,0.375 z"
       id="path30953"
       inkscape:connector-curvature="0"
       sodipodi:nodetypes="ccccccccccccc" />
    <g
       id="g3087"
       transform="translate(40,0)">
      <path
         inkscape:connector-curvature="0"
         id="path3073"
         d="m -5.21875,5.312503 -22.5625,3.09375 -0.5,0 0,0.1875 c -5.715501,1.04907 -8.65625,5.59198 -8.65625,11.15625 l 0,25 26.1875,0 0,-28.03125 c 0.347051,-4.91678 2.274064,-9.96378 5.53125,-11.40625 z"
         style="fill:url(#linearGradient3092);fill-rule:evenodd;stroke:none;display:inline" />
      <path
         inkscape:connector-curvature="0"
         id="path3081"
         d="m -36.9375,68.406253 0,36.031247 c -0.07024,5.65226 2.050104,10.0952 6.3125,11.5 l 17.65625,6.03125 7.5,1.3125 c -3.710844,-1.04488 -4.81745,-6.34073 -5.3125,-10.15625 l 0,-44.718747 -26.15625,0 z"
         style="fill:url(#linearGradient3094);fill-rule:evenodd;stroke:none;display:inline" />
    </g>
    <path
       inkscape:connector-curvature="0"
       id="path30957"
       d="m 35.825012,5.0844328 c -1.734374,-0.0853 -3.26759,0.13333 -4.667303,0.50133 L 11.65504,8.5863028 C 5.9395447,9.6353728 2.9871862,14.190033 2.9871862,19.754303 l 0,84.678437 c -0.07024,5.65226 2.0718035,10.09707 6.3341998,11.50187 l 19.669357,6.16693 c 1.792241,0.74027 3.774988,1.0512 6.167512,0.6672 l 78.344065,-11.8352 c 5.72052,-0.6192 9.47847,-6.1072 9.16792,-13.66827 l 0.33339,-74.344027 c 0.22245,-5.96534 -2.79254,-10.84214 -9.33461,-11.83467 L 35.825018,5.0855028 z"
       style="fill:none;stroke:#344b63;stroke-width:2.667032;stroke-linecap:butt;stroke-linejoin:miter;stroke-miterlimit:4;stroke-opacity:1;stroke-dasharray:none;display:inline"
       sodipodi:nodetypes="ccccccccccccc" />
    <path
       sodipodi:type="arc"
       style="fill:#0000ff;fill-opacity:1;stroke:none"
       id="path3011"
       sodipodi:cx="55.558388"
       sodipodi:cy="63.223969"
       sodipodi:rx="2.0203052"
       sodipodi:ry="3.661803"
       d="m 57.578693,63.223969 a 2.0203052,3.661803 0 1 1 -4.04061,0 2.0203052,3.661803 0 1 1 4.04061,0 z"
       transform="matrix(1.4827586,0,0,1.4827586,-25.340895,-28.754148)" />
    <path
       inkscape:connector-curvature="0"
       id="path3794"
       d="m 118.64865,22.933036 c -7.6834,1.869379 -11.39131,6.167683 -14.31462,11.242053 -2.26623,5.005032 -3.89554,9.978096 -4.934782,14.860184 -4.69676,-5.949714 -10.937591,-11.919826 -17.794471,-15.764717 -0.02559,-0.01427 -0.03816,-0.0503 -0.06375,-0.06461 -1.610106,-1.500668 -3.653708,-2.511341 -6.226311,-2.778208 -2.54507,-0.840759 -5.136463,-1.323114 -7.733209,-1.3568 -5.202885,0.144312 -9.975802,1.447697 -14.202629,3.618132 -1.209358,-0.571935 -2.633303,-0.979203 -4.378261,-1.033752 -7.071918,0 -12.624352,4.791511 -15.01109,10.27291 -1.444448,3.379835 -1.953749,6.154738 -2.023631,10.208301 -0.0586,2.862356 -0.126832,7.36724 2.61971,10.789786 -2.589276,-4.743391 -1.222326,-15.939692 -0.47533,-16.023155 1.630173,-0.182147 3.289405,-0.05673 4.906526,0.258438 -0.545709,1.042305 -1.014747,2.122085 -1.468864,3.230474 -1.736924,0.07414 -3.124715,1.597042 -3.151557,3.424304 -0.01587,1.080106 0.450048,2.036925 1.188667,2.648989 -0.490431,2.08851 -0.820113,4.229162 -0.999442,6.46095 0.01013,0.01447 -0.01109,0.05086 -9.51e-4,0.06472 -0.07697,0.975634 -0.158204,1.973185 -0.172877,2.972037 -0.06832,4.650664 0.71117,9.095652 2.066768,13.244947 -0.02906,-0.06264 -0.114732,-0.141624 -0.126373,-0.193725 -1.513622,1.019238 -2.413671,2.127006 -2.636579,3.553522 -0.0068,0.04073 0.0029,0.08807 -0.0019,0.129219 -0.04071,0.308575 -0.03632,0.628852 -0.01424,0.969143 0.02493,0.385651 0.06117,0.789889 0.175693,1.22758 0.06681,0.223187 0.196617,0.436409 0.313556,0.646095 0.06437,0.107717 0.112358,0.218866 0.18898,0.323047 0.09315,0.132735 0.205401,0.260754 0.317353,0.387657 0.06204,0.06927 0.125295,0.126325 0.190879,0.193726 2.111271,2.159198 6.852028,3.447604 10.927618,3.81196 4.869873,0.784535 20.599838,-1.110043 26.257959,-6.202511 -0.08131,0.131079 -0.109123,0.250601 -0.199419,0.387657 -5.330915,5.341396 -21.364297,8.037504 -26.337754,7.236263 -4.024467,-0.359766 -8.518225,-1.457776 -10.609316,-3.488913 0.135451,0.574973 0.374018,1.231075 0.809552,2.067504 2.257004,3.917444 6.09718,6.468144 11.07589,6.913217 0.730371,0.07567 1.411737,0.167261 2.129268,0.193724 5.145432,4.017326 11.289679,6.427046 17.800973,6.525556 13.683282,0.1898 28.424163,-12.353126 36.08591,-24.293167 0.0276,0.1011 0.0327,0.155889 0.0609,0.258438 4.05324,2.848565 8.87521,7.838073 15.93678,5.879464 -5.26946,-4.896098 -9.24241,-7.977816 -9.32784,-20.351992 0.80907,-6.587481 2.3631,-9.383987 4.2051,-13.567995 1.21469,-9.97027 -1.07911,-18.642755 4.94691,-28.880445 z"
       style="font-size:12px;fill:#000000;fill-opacity:0.49377591;fill-rule:evenodd;stroke:#000000;stroke-width:5;stroke-linecap:round;stroke-linejoin:round;stroke-miterlimit:4;stroke-opacity:0.560166;stroke-dasharray:none"
       sodipodi:nodetypes="ccccccccccccsccscccscccccccccccccccccccccccccc" />
    <path
       style="font-size:12px;fill:#ffffff;fill-rule:evenodd;stroke-width:1pt"
       d="m 120.63475,22.933036 c -7.6834,1.869379 -11.3913,6.167683 -14.31461,11.242053 -2.26623,5.005032 -3.89555,9.978096 -4.93479,14.860184 C 96.688589,43.08556 90.447763,37.115447 83.590882,33.270556 c -0.02563,-0.01427 -0.03813,-0.0503 -0.06377,-0.06461 -1.610105,-1.500669 -3.653707,-2.511342 -6.22631,-2.778209 -2.54507,-0.840759 -5.136463,-1.323114 -7.733209,-1.3568 -5.202885,0.144312 -9.975802,1.447697 -14.202629,3.618133 -1.209358,-0.571936 -2.633303,-0.979204 -4.378261,-1.033753 -7.071918,0 -12.624352,4.791511 -15.01109,10.27291 -1.444449,3.379836 -1.953749,6.154738 -2.023631,10.208302 -0.0586,2.862355 -0.126832,7.36724 2.61971,10.789785 -2.589276,-4.743391 -1.222326,-15.939692 -0.47533,-16.023155 1.630173,-0.182147 3.289405,-0.05673 4.906526,0.258438 -0.545709,1.042305 -1.014748,2.122085 -1.468864,3.230474 -1.736924,0.07414 -3.124715,1.597042 -3.151557,3.424304 -0.01587,1.080106 0.450048,2.036925 1.188667,2.648989 -0.490431,2.088511 -0.820113,4.229162 -0.999442,6.46095 0.01013,0.01447 -0.01109,0.05087 -9.51e-4,0.06472 -0.07697,0.975633 -0.158204,1.973184 -0.172877,2.972036 -0.06832,4.650664 0.71117,9.095653 2.066768,13.244947 -0.02906,-0.06264 -0.114732,-0.141624 -0.126373,-0.193725 -1.513623,1.019238 -2.413671,2.127007 -2.636579,3.553522 -0.0068,0.04073 0.0029,0.08807 -0.0019,0.129219 -0.04071,0.308575 -0.03632,0.628853 -0.01424,0.969143 0.02493,0.385651 0.06117,0.789889 0.175693,1.22758 0.06681,0.223187 0.196617,0.436409 0.313556,0.646096 0.06437,0.107716 0.112358,0.218865 0.188979,0.323047 0.09316,0.132734 0.205402,0.260753 0.317353,0.387657 0.06204,0.06927 0.125296,0.126324 0.19088,0.193725 2.111271,2.159198 6.852028,3.447604 10.927618,3.81196 4.869873,0.784536 20.599838,-1.110042 26.257959,-6.202511 -0.08131,0.131079 -0.109123,0.250602 -0.199419,0.387657 -5.330915,5.341396 -21.364297,8.037504 -26.337754,7.236263 -4.024467,-0.359766 -8.518225,-1.457776 -10.609316,-3.488912 0.135451,0.574972 0.374018,1.231074 0.809552,2.067503 2.257004,3.917445 6.09718,6.468145 11.07589,6.913217 0.730371,0.07567 1.411737,0.167261 2.129268,0.193725 5.145432,4.017327 11.289679,6.427047 17.800973,6.525557 13.683282,0.1898 28.424166,-12.353127 36.085914,-24.293169 0.0276,0.101101 0.0326,0.155889 0.0609,0.258438 4.05325,2.848565 8.87522,7.838073 15.93679,5.879464 -5.26947,-4.896097 -9.24242,-7.977815 -9.32784,-20.351991 0.80905,-6.587482 2.36309,-9.383988 4.20509,-13.567995 1.2147,-9.970271 -1.0791,-18.642756 4.94691,-28.880446 z M 74.29492,45.934018 c 9.251579,0.143877 13.315053,6.347844 15.000935,8.011577 -0.592656,8.635158 -6.207294,15.44167 -12.954903,15.44167 -7.05298,0 -12.683723,-7.417356 -12.548765,-16.604641 0.02531,-1.722615 0.258488,-3.412252 0.654566,-4.974931 2.956669,-1.052364 5.57424,-1.642547 7.908933,-1.809066 0.663537,-0.04733 1.322453,-0.0742 1.939234,-0.06461 z m 7.544197,5.427198 c -1.798707,0 -3.253254,1.550665 -3.280777,3.424303 -0.02752,1.873634 1.382416,3.359694 3.181123,3.359694 1.798708,0 3.316913,-1.48606 3.344436,-3.359694 0.02752,-1.873638 -1.446074,-3.424303 -3.244782,-3.424303 z"
       id="path4087"
       inkscape:connector-curvature="0" />
  </g>
</svg>
