<?xml version="1.0" encoding="UTF-8" standalone="no"?>
<!-- Created with Inkscape (http://www.inkscape.org/) -->

<svg
   xmlns:dc="http://purl.org/dc/elements/1.1/"
   xmlns:cc="http://creativecommons.org/ns#"
   xmlns:rdf="http://www.w3.org/1999/02/22-rdf-syntax-ns#"
   xmlns:svg="http://www.w3.org/2000/svg"
   xmlns="http://www.w3.org/2000/svg"
   xmlns:xlink="http://www.w3.org/1999/xlink"
   xmlns:sodipodi="http://sodipodi.sourceforge.net/DTD/sodipodi-0.dtd"
   xmlns:inkscape="http://www.inkscape.org/namespaces/inkscape"
   width="128"
   height="128"
   id="svg6934"
   sodipodi:version="0.32"
   inkscape:version="0.48.3.1 r9886"
   version="1.0"
   sodipodi:docname="aaa-generic.svg"
   inkscape:output_extension="org.inkscape.output.svg.inkscape">
  <defs
     id="defs6936">
    <linearGradient
       inkscape:collect="always"
       xlink:href="#linearGradient5316-39"
       id="linearGradient31113"
       gradientUnits="userSpaceOnUse"
       gradientTransform="translate(-112.78663,-33.91079)"
       x1="275.29071"
       y1="1103.7349"
       x2="275.29071"
       y2="1121.6162" />
    <linearGradient
       id="linearGradient5316-39">
      <stop
         style="stop-color:#aac736;stop-opacity:1;"
         offset="0"
         id="stop5320-84" />
      <stop
         style="stop-color:#5d8b2c;stop-opacity:1;"
         offset="1"
         id="stop5322-5" />
    </linearGradient>
    <linearGradient
       inkscape:collect="always"
       xlink:href="#linearGradient5165-7-9-8-2-1"
       id="linearGradient31115"
       gradientUnits="userSpaceOnUse"
       gradientTransform="translate(-112.78663,-33.91079)"
       x1="275.29071"
       y1="1094.0099"
       x2="275.29071"
       y2="1117.1519" />
    <linearGradient
       id="linearGradient5165-7-9-8-2-1">
      <stop
         id="stop5167-4-8-6-9-4"
         style="stop-color:#ffffff;stop-opacity:1"
         offset="0" />
      <stop
         id="stop5169-5-5-2-9-90"
         style="stop-color:#ffffff;stop-opacity:0"
         offset="1" />
    </linearGradient>
    <linearGradient
       inkscape:collect="always"
       xlink:href="#linearGradient5316-39"
       id="linearGradient31117"
       gradientUnits="userSpaceOnUse"
       gradientTransform="translate(-112.78663,-33.91079)"
       x1="280.65372"
       y1="1100.6647"
       x2="292.69617"
       y2="1118.8726" />
    <linearGradient
       inkscape:collect="always"
       xlink:href="#linearGradient5344-4"
       id="linearGradient31119"
       gradientUnits="userSpaceOnUse"
       gradientTransform="translate(-112.78663,-33.91079)"
       x1="317.94461"
       y1="1142.4757"
       x2="283.81964"
       y2="1103.8007" />
    <linearGradient
       id="linearGradient5344-4">
      <stop
         style="stop-color:#000000;stop-opacity:1;"
         offset="0"
         id="stop5346-96" />
      <stop
         style="stop-color:#000000;stop-opacity:0;"
         offset="1"
         id="stop5348-31" />
    </linearGradient>
    <linearGradient
       inkscape:collect="always"
       xlink:href="#linearGradient5344-4"
       id="linearGradient3133"
       gradientUnits="userSpaceOnUse"
       gradientTransform="matrix(5.334059,0,0,5.334059,-1451.5327,-5864.5296)"
       x1="317.94461"
       y1="1142.4757"
       x2="283.81964"
       y2="1103.8007" />
    <linearGradient
       inkscape:collect="always"
       xlink:href="#linearGradient5316-39"
       id="linearGradient3136"
       gradientUnits="userSpaceOnUse"
       gradientTransform="matrix(5.334059,0,0,5.334059,-1451.5327,-5864.5296)"
       x1="280.65372"
       y1="1100.6647"
       x2="292.69617"
       y2="1118.8726" />
    <linearGradient
       inkscape:collect="always"
       xlink:href="#linearGradient5165-7-9-8-2-1"
       id="linearGradient3139"
       gradientUnits="userSpaceOnUse"
       gradientTransform="matrix(5.334059,0,0,5.334059,-1451.5327,-5864.5296)"
       x1="275.29071"
       y1="1094.0099"
       x2="275.29071"
       y2="1117.1519" />
    <linearGradient
       inkscape:collect="always"
       xlink:href="#linearGradient5316-39"
       id="linearGradient3142"
       gradientUnits="userSpaceOnUse"
       gradientTransform="matrix(5.334059,0,0,5.334059,-1451.5327,-5864.5296)"
       x1="275.29071"
       y1="1103.7349"
       x2="275.29071"
       y2="1121.6162" />
    <linearGradient
       inkscape:collect="always"
       xlink:href="#linearGradient5344"
       id="linearGradient3105"
       x1="7.9531264"
       y1="2.2416961"
       x2="13.667412"
       y2="-64.464973"
       gradientUnits="userSpaceOnUse"
       gradientTransform="translate(-4.0351795e-8,140)" />
    <linearGradient
       id="linearGradient5344">
      <stop
         style="stop-color:#000000;stop-opacity:1;"
         offset="0"
         id="stop5346" />
      <stop
         style="stop-color:#000000;stop-opacity:0;"
         offset="1"
         id="stop5348" />
    </linearGradient>
    <linearGradient
       inkscape:collect="always"
       xlink:href="#linearGradient5165-7-9-8-2"
       id="linearGradient3103"
       x1="22.933788"
       y1="-144.76825"
       x2="18.618809"
       y2="-96.331688"
       gradientUnits="userSpaceOnUse"
       gradientTransform="translate(-4.0351795e-8,140)" />
    <linearGradient
       id="linearGradient5165-7-9-8-2">
      <stop
         id="stop5167-4-8-6-9"
         style="stop-color:#ffffff;stop-opacity:1"
         offset="0" />
      <stop
         id="stop5169-5-5-2-9"
         style="stop-color:#ffffff;stop-opacity:0"
         offset="1" />
    </linearGradient>
    <linearGradient
       inkscape:collect="always"
       xlink:href="#linearGradient5344"
       id="linearGradient3107"
       gradientUnits="userSpaceOnUse"
       gradientTransform="matrix(5.3340639,0,0,5.3340639,-1451.4802,-5864.5574)"
       x1="305.23422"
       y1="1137.0681"
       x2="283.35095"
       y2="1104.2024" />
    <linearGradient
       id="linearGradient3069">
      <stop
         style="stop-color:#000000;stop-opacity:1;"
         offset="0"
         id="stop3071" />
      <stop
         style="stop-color:#000000;stop-opacity:0;"
         offset="1"
         id="stop3073" />
    </linearGradient>
  </defs>
  <sodipodi:namedview
     id="base"
     pagecolor="#ffffff"
     bordercolor="#666666"
     borderopacity="1.0"
     inkscape:pageopacity="0.0"
     inkscape:pageshadow="2"
     inkscape:zoom="1.979899"
     inkscape:cx="23.786921"
     inkscape:cy="43.514921"
     inkscape:document-units="px"
     inkscape:current-layer="layer1"
     showgrid="false"
     inkscape:window-width="1366"
     inkscape:window-height="717"
     inkscape:window-x="0"
     inkscape:window-y="0"
     inkscape:window-maximized="1" />
  <metadata
     id="metadata6939">
    <rdf:RDF>
      <cc:Work
         rdf:about="">
        <dc:format>image/svg+xml</dc:format>
        <dc:type
           rdf:resource="http://purl.org/dc/dcmitype/StillImage" />
        <dc:title></dc:title>
      </cc:Work>
    </rdf:RDF>
  </metadata>
  <g
     inkscape:label="Capa 1"
     inkscape:groupmode="layer"
     id="layer1">
    <path
       style="fill:#00ff00;fill-opacity:1;fill-rule:evenodd;stroke:none"
       d="m 34.21875,5.062503 c -1.32927,0.0554 -2.550557,0.27966 -3.65625,0.625 l -18.34375,2.71875 -0.5,0 0,0.1875 C 6.0032494,9.642823 3.0625,14.185733 3.0625,19.750003 l 0,84.687497 c -0.07024,5.65226 2.0501037,10.0952 6.3125,11.5 l 18.96875,5.9375 c 0.02087,0.0102 0.04153,0.0212 0.0625,0.0313 1.892721,0.90932 4.164425,1.2325 6.78125,0.8125 l 78.28125,-11.8125 c 5.72052,-0.61974 9.4668,-6.06393 9.15625,-13.625 l 0.40625,-74.281297 c 0.22248,-5.96534 -2.80168,-10.97622 -9.34375,-11.96875 l -77.84375,-5.9375 c -0.55631,-0.0273 -1.103066,-0.053 -1.625,-0.0313 z"
       id="path30949"
       inkscape:connector-curvature="0" />
    <path
       style="fill:url(#linearGradient3107);fill-rule:evenodd;stroke:none"
       d="M 29.25,16.718753 29.21875,113.125 c 0.448699,3.45828 1.407546,8.12456 4.34375,9.75 0.527128,-0.0229 1.067503,-0.0668 1.625,-0.15625 l 78.28125,-11.8125 c 5.72052,-0.61974 9.4668,-6.06393 9.15625,-13.625 l 0.40625,-74.281247 c 0.22245,-5.96534 -2.80168,-10.97622 -9.34375,-11.96875 L 37.678453,5.233693 C 33.707189,4.813023 29.262938,10.014263 29.25,16.718753 z M 30.15625,122.5 c 0.647964,0.17153 1.314675,0.32617 2.03125,0.375 z"
       id="path30953"
       inkscape:connector-curvature="0"
       sodipodi:nodetypes="ccccccccccccc" />
    <path
       style="fill:url(#linearGradient3103);fill-rule:evenodd;stroke:none;display:inline"
       d="m 34.78125,5.312503 -22.5625,3.09375 -0.5,0 0,0.1875 C 6.003249,9.642823 3.0625,14.185733 3.0625,19.750003 l 0,25 26.1875,0 0,-28.03125 c 0.347051,-4.91678 2.274064,-9.96378 5.53125,-11.40625 z"
       id="path3073"
       inkscape:connector-curvature="0" />
    <path
       style="fill:url(#linearGradient3105);fill-rule:evenodd;stroke:none;display:inline"
       d="m 3.0625,68.406253 0,36.031247 c -0.07024,5.65226 2.050104,10.0952 6.3125,11.5 l 17.65625,6.03125 7.5,1.3125 c -3.710844,-1.04488 -4.81745,-6.34073 -5.3125,-10.15625 l 0,-44.718747 -26.15625,0 z"
       id="path3081"
       inkscape:connector-curvature="0" />
    <path
       sodipodi:nodetypes="ccssscccscccc"
       id="path3044"
       d="m 47.290243,11.605206 c -3.935975,-0.132386 -7.418785,13.350808 -1.257969,25.177037 -3.935492,7.480719 -7.510605,16.902724 -7.510605,26.812952 0,27.09478 18.361249,48.624045 39.463021,47.541695 21.101772,-1.08235 38.24227,-20.446915 38.24227,-47.541695 0,-9.910228 -2.31242,-15.077901 -6.24791,-23.02488 6.37807,-11.487636 2.41614,-25.965901 -1.67729,-25.297074 -2.81832,0.889669 -2.49035,9.776519 -5.95439,13.86137 -6.611212,-7.419158 -15.109475,-12.14788 -24.36268,-12.69602 -9.253205,-0.54814 -17.709535,3.176226 -24.320737,9.812118 -3.464038,-4.495257 -3.136067,-13.34325 -5.954387,-14.566822 -0.139444,-0.03931 -0.280524,-0.07401 -0.419323,-0.07867 z"
       style="fill:#000000;fill-opacity:0.77593360000000000;stroke:#000000;stroke-width:5;stroke-miterlimit:4;stroke-opacity:0.64730293;stroke-dasharray:none"
       inkscape:connector-curvature="0" />
    <path
       inkscape:connector-curvature="0"
       id="path30957"
       d="m 35.825012,5.084433 c -1.734374,-0.0853 -3.26759,0.13333 -4.667303,0.50133 L 11.65504,8.586303 c -5.7154953,1.04907 -8.6678538,5.60373 -8.6678538,11.168 l 0,84.678437 c -0.07024,5.65226 2.0718035,10.09707 6.3341998,11.50187 l 19.669357,6.16693 c 1.792241,0.74027 3.774988,1.0512 6.167512,0.6672 l 78.344065,-11.8352 c 5.72052,-0.6192 9.47847,-6.1072 9.16792,-13.66827 l 0.33339,-74.344027 c 0.22245,-5.96534 -2.79254,-10.84214 -9.33461,-11.83467 L 35.825018,5.085503 z"
       style="fill:none;stroke:#344b63;stroke-width:2.667032;stroke-linecap:butt;stroke-linejoin:miter;stroke-miterlimit:4;stroke-opacity:1;stroke-dasharray:none;display:inline"
       sodipodi:nodetypes="ccccccccccccc" />
    <path
       inkscape:connector-curvature="0"
       style="fill:#ffffff;fill-opacity:1;stroke:none"
       d="m 48.974571,11.605206 c -3.935975,-0.132386 -7.418785,13.350808 -1.257969,25.177037 -3.935492,7.480719 -7.510605,16.902724 -7.510605,26.812952 0,27.09478 18.361249,48.624045 39.463021,47.541695 21.101772,-1.08235 38.242262,-20.446915 38.242262,-47.541695 0,-9.910228 -2.31242,-15.077901 -6.24791,-23.02488 6.37807,-11.487636 2.41614,-25.965901 -1.67729,-25.297074 -2.81832,0.889669 -2.49035,9.776519 -5.95439,13.86137 -6.611204,-7.419158 -15.109467,-12.14788 -24.362672,-12.69602 -9.253205,-0.54814 -17.709535,3.176226 -24.320737,9.812118 -3.464038,-4.495257 -3.136067,-13.34325 -5.954387,-14.566822 -0.139444,-0.03931 -0.280524,-0.07401 -0.419323,-0.07867 z m 12.520372,43.534992 c 2.945054,0 5.347117,3.084254 5.347117,6.865721 0,3.781467 -2.402063,6.865721 -5.347117,6.865721 -2.945052,0 -5.347116,-3.084254 -5.347116,-6.865721 0,-3.781467 2.402064,-6.865721 5.347116,-6.865721 z m 37.37726,0.252538 c 2.701317,0 4.904587,2.828999 4.904587,6.297511 0,3.46851 -2.20327,6.29751 -4.904587,6.29751 -2.701319,0 -4.865032,-2.829 -4.865032,-6.29751 0,-3.468512 2.163713,-6.297511 4.865032,-6.297511 z m -48.597731,23.824102 59.082618,-4.545687 0,4.199619 -7.33815,0.564582 c -1.01836,6.429074 -6.665603,11.21799 -8.260667,10.542351 -2.593684,-1.098634 0.179135,-3.510829 0.251594,-9.926151 l -28.17851,2.167992 c 0.07259,6.403726 2.845211,8.389741 0.251594,9.887438 -1.595064,0.92108 -7.284238,-2.995636 -8.302596,-9.268012 l -7.505883,0.577487 z"
       id="path3175"
       sodipodi:nodetypes="ccssscccsccccssssssssssccccsccsccc" />
  </g>
</svg>
