<?xml version="1.0" encoding="UTF-8" standalone="no"?>
<!-- Created with Inkscape (http://www.inkscape.org/) -->

<svg
   xmlns:dc="http://purl.org/dc/elements/1.1/"
   xmlns:cc="http://creativecommons.org/ns#"
   xmlns:rdf="http://www.w3.org/1999/02/22-rdf-syntax-ns#"
   xmlns:svg="http://www.w3.org/2000/svg"
   xmlns="http://www.w3.org/2000/svg"
   xmlns:xlink="http://www.w3.org/1999/xlink"
   xmlns:sodipodi="http://sodipodi.sourceforge.net/DTD/sodipodi-0.dtd"
   xmlns:inkscape="http://www.inkscape.org/namespaces/inkscape"
   width="128"
   height="128"
   id="svg6934"
   sodipodi:version="0.32"
   inkscape:version="0.48.3.1 r9886"
   version="1.0"
   sodipodi:docname="aaa-generic.svg"
   inkscape:output_extension="org.inkscape.output.svg.inkscape">
  <defs
     id="defs6936">
    <linearGradient
       inkscape:collect="always"
       xlink:href="#linearGradient5316-39"
       id="linearGradient31113"
       gradientUnits="userSpaceOnUse"
       gradientTransform="translate(-112.78663,-33.91079)"
       x1="275.29071"
       y1="1103.7349"
       x2="275.29071"
       y2="1121.6162" />
    <linearGradient
       id="linearGradient5316-39">
      <stop
         style="stop-color:#aac736;stop-opacity:1;"
         offset="0"
         id="stop5320-84" />
      <stop
         style="stop-color:#5d8b2c;stop-opacity:1;"
         offset="1"
         id="stop5322-5" />
    </linearGradient>
    <linearGradient
       inkscape:collect="always"
       xlink:href="#linearGradient5165-7-9-8-2-1"
       id="linearGradient31115"
       gradientUnits="userSpaceOnUse"
       gradientTransform="translate(-112.78663,-33.91079)"
       x1="275.29071"
       y1="1094.0099"
       x2="275.29071"
       y2="1117.1519" />
    <linearGradient
       id="linearGradient5165-7-9-8-2-1">
      <stop
         id="stop5167-4-8-6-9-4"
         style="stop-color:#ffffff;stop-opacity:1"
         offset="0" />
      <stop
         id="stop5169-5-5-2-9-90"
         style="stop-color:#ffffff;stop-opacity:0"
         offset="1" />
    </linearGradient>
    <linearGradient
       inkscape:collect="always"
       xlink:href="#linearGradient5316-39"
       id="linearGradient31117"
       gradientUnits="userSpaceOnUse"
       gradientTransform="translate(-112.78663,-33.91079)"
       x1="280.65372"
       y1="1100.6647"
       x2="292.69617"
       y2="1118.8726" />
    <linearGradient
       inkscape:collect="always"
       xlink:href="#linearGradient5344-4"
       id="linearGradient31119"
       gradientUnits="userSpaceOnUse"
       gradientTransform="translate(-112.78663,-33.91079)"
       x1="317.94461"
       y1="1142.4757"
       x2="283.81964"
       y2="1103.8007" />
    <linearGradient
       id="linearGradient5344-4">
      <stop
         style="stop-color:#000000;stop-opacity:1;"
         offset="0"
         id="stop5346-96" />
      <stop
         style="stop-color:#000000;stop-opacity:0;"
         offset="1"
         id="stop5348-31" />
    </linearGradient>
    <linearGradient
       inkscape:collect="always"
       xlink:href="#linearGradient5344-4"
       id="linearGradient3133"
       gradientUnits="userSpaceOnUse"
       gradientTransform="matrix(5.334059,0,0,5.334059,-1451.5327,-5864.5296)"
       x1="317.94461"
       y1="1142.4757"
       x2="283.81964"
       y2="1103.8007" />
    <linearGradient
       inkscape:collect="always"
       xlink:href="#linearGradient5316-39"
       id="linearGradient3136"
       gradientUnits="userSpaceOnUse"
       gradientTransform="matrix(5.334059,0,0,5.334059,-1451.5327,-5864.5296)"
       x1="280.65372"
       y1="1100.6647"
       x2="292.69617"
       y2="1118.8726" />
    <linearGradient
       inkscape:collect="always"
       xlink:href="#linearGradient5165-7-9-8-2-1"
       id="linearGradient3139"
       gradientUnits="userSpaceOnUse"
       gradientTransform="matrix(5.334059,0,0,5.334059,-1451.5327,-5864.5296)"
       x1="275.29071"
       y1="1094.0099"
       x2="275.29071"
       y2="1117.1519" />
    <linearGradient
       inkscape:collect="always"
       xlink:href="#linearGradient5316-39"
       id="linearGradient3142"
       gradientUnits="userSpaceOnUse"
       gradientTransform="matrix(5.334059,0,0,5.334059,-1451.5327,-5864.5296)"
       x1="275.29071"
       y1="1103.7349"
       x2="275.29071"
       y2="1121.6162" />
    <linearGradient
       inkscape:collect="always"
       xlink:href="#linearGradient5344"
       id="linearGradient3105"
       x1="7.9531264"
       y1="2.2416961"
       x2="13.667412"
       y2="-64.464973"
       gradientUnits="userSpaceOnUse"
       gradientTransform="translate(-4.0351795e-8,140)" />
    <linearGradient
       id="linearGradient5344">
      <stop
         style="stop-color:#000000;stop-opacity:1;"
         offset="0"
         id="stop5346" />
      <stop
         style="stop-color:#000000;stop-opacity:0;"
         offset="1"
         id="stop5348" />
    </linearGradient>
    <linearGradient
       inkscape:collect="always"
       xlink:href="#linearGradient5165-7-9-8-2"
       id="linearGradient3103"
       x1="22.933788"
       y1="-144.76825"
       x2="18.618809"
       y2="-96.331688"
       gradientUnits="userSpaceOnUse"
       gradientTransform="translate(-4.0351795e-8,140)" />
    <linearGradient
       id="linearGradient5165-7-9-8-2">
      <stop
         id="stop5167-4-8-6-9"
         style="stop-color:#ffffff;stop-opacity:1"
         offset="0" />
      <stop
         id="stop5169-5-5-2-9"
         style="stop-color:#ffffff;stop-opacity:0"
         offset="1" />
    </linearGradient>
    <linearGradient
       inkscape:collect="always"
       xlink:href="#linearGradient5344"
       id="linearGradient3107"
       gradientUnits="userSpaceOnUse"
       gradientTransform="matrix(5.3340639,0,0,5.3340639,-1451.4802,-5864.5574)"
       x1="305.23422"
       y1="1137.0681"
       x2="283.35095"
       y2="1104.2024" />
    <linearGradient
       id="linearGradient3069">
      <stop
         style="stop-color:#000000;stop-opacity:1;"
         offset="0"
         id="stop3071" />
      <stop
         style="stop-color:#000000;stop-opacity:0;"
         offset="1"
         id="stop3073" />
    </linearGradient>
    <linearGradient
       y2="33.646122"
       x2="-179.48473"
       y1="77.348625"
       x1="-179.48473"
       gradientTransform="matrix(1.634802,0,0,1.634802,361.64231,-85.980271)"
       gradientUnits="userSpaceOnUse"
       id="linearGradient3317-2"
       xlink:href="#linearGradient3890-5-8-6-0-4-5"
       inkscape:collect="always" />
    <linearGradient
       id="linearGradient3890-5-8-6-0-4-5">
      <stop
         id="stop3892-2-9-9-3-3-4"
         offset="0"
         style="stop-color:#ffffff;stop-opacity:1;" />
      <stop
         id="stop3894-3-7-1-5-0-0"
         offset="1"
         style="stop-color:#f0f0f0;stop-opacity:1;" />
    </linearGradient>
    <linearGradient
       y2="33.646122"
       x2="-179.48473"
       y1="77.348625"
       x1="-179.48473"
       gradientTransform="matrix(2.1143546,0,0,2.3773321,465.02345,-70.707107)"
       gradientUnits="userSpaceOnUse"
       id="linearGradient3097"
       xlink:href="#linearGradient3890-5-8-6-0-4-5"
       inkscape:collect="always" />
  </defs>
  <sodipodi:namedview
     id="base"
     pagecolor="#ffffff"
     bordercolor="#666666"
     borderopacity="1.0"
     inkscape:pageopacity="0.0"
     inkscape:pageshadow="2"
     inkscape:zoom="2.8"
     inkscape:cx="28.221114"
     inkscape:cy="58.548725"
     inkscape:document-units="px"
     inkscape:current-layer="layer1"
     showgrid="false"
     inkscape:window-width="1366"
     inkscape:window-height="717"
     inkscape:window-x="0"
     inkscape:window-y="0"
     inkscape:window-maximized="1" />
  <metadata
     id="metadata6939">
    <rdf:RDF>
      <cc:Work
         rdf:about="">
        <dc:format>image/svg+xml</dc:format>
        <dc:type
           rdf:resource="http://purl.org/dc/dcmitype/StillImage" />
        <dc:title></dc:title>
      </cc:Work>
    </rdf:RDF>
  </metadata>
  <g
     inkscape:label="Capa 1"
     inkscape:groupmode="layer"
     id="layer1">
    <path
       style="fill:#0066ff;fill-opacity:1;fill-rule:evenodd;stroke:none"
       d="m 34.21875,5.062503 c -1.32927,0.0554 -2.550557,0.27966 -3.65625,0.625 l -18.34375,2.71875 -0.5,0 0,0.1875 C 6.0032494,9.642823 3.0625,14.185733 3.0625,19.750003 l 0,84.687497 c -0.07024,5.65226 2.0501037,10.0952 6.3125,11.5 l 18.96875,5.9375 c 0.02087,0.0102 0.04153,0.0212 0.0625,0.0313 1.892721,0.90932 4.164425,1.2325 6.78125,0.8125 l 78.28125,-11.8125 c 5.72052,-0.61974 9.4668,-6.06393 9.15625,-13.625 l 0.40625,-74.281297 c 0.22248,-5.96534 -2.80168,-10.97622 -9.34375,-11.96875 l -77.84375,-5.9375 c -0.55631,-0.0273 -1.103066,-0.053 -1.625,-0.0313 z"
       id="path30949"
       inkscape:connector-curvature="0" />
    <path
       style="fill:url(#linearGradient3107);fill-rule:evenodd;stroke:none"
       d="M 29.25,16.718753 29.21875,113.125 c 0.448699,3.45828 1.407546,8.12456 4.34375,9.75 0.527128,-0.0229 1.067503,-0.0668 1.625,-0.15625 l 78.28125,-11.8125 c 5.72052,-0.61974 9.4668,-6.06393 9.15625,-13.625 l 0.40625,-74.281247 c 0.22245,-5.96534 -2.80168,-10.97622 -9.34375,-11.96875 L 37.678453,5.233693 C 33.707189,4.813023 29.262938,10.014263 29.25,16.718753 z M 30.15625,122.5 c 0.647964,0.17153 1.314675,0.32617 2.03125,0.375 z"
       id="path30953"
       inkscape:connector-curvature="0"
       sodipodi:nodetypes="ccccccccccccc" />
    <path
       style="fill:url(#linearGradient3103);fill-rule:evenodd;stroke:none;display:inline"
       d="m 34.78125,5.312503 -22.5625,3.09375 -0.5,0 0,0.1875 C 6.003249,9.642823 3.0625,14.185733 3.0625,19.750003 l 0,25 26.1875,0 0,-28.03125 c 0.347051,-4.91678 2.274064,-9.96378 5.53125,-11.40625 z"
       id="path3073"
       inkscape:connector-curvature="0" />
    <path
       style="fill:url(#linearGradient3105);fill-rule:evenodd;stroke:none;display:inline"
       d="m 3.0625,68.406253 0,36.031247 c -0.07024,5.65226 2.050104,10.0952 6.3125,11.5 l 17.65625,6.03125 7.5,1.3125 c -3.710844,-1.04488 -4.81745,-6.34073 -5.3125,-10.15625 l 0,-44.718747 -26.15625,0 z"
       id="path3081"
       inkscape:connector-curvature="0" />
    <path
       inkscape:connector-curvature="0"
       id="path30957"
       d="m 35.825012,5.084433 c -1.734374,-0.0853 -3.26759,0.13333 -4.667303,0.50133 L 11.65504,8.586303 c -5.7154953,1.04907 -8.6678538,5.60373 -8.6678538,11.168 l 0,84.678437 c -0.07024,5.65226 2.0718035,10.09707 6.3341998,11.50187 l 19.669357,6.16693 c 1.792241,0.74027 3.774988,1.0512 6.167512,0.6672 l 78.344065,-11.8352 c 5.72052,-0.6192 9.47847,-6.1072 9.16792,-13.66827 l 0.33339,-74.344027 c 0.22245,-5.96534 -2.79254,-10.84214 -9.33461,-11.83467 L 35.825018,5.085503 z"
       style="fill:none;stroke:#344b63;stroke-width:2.667032;stroke-linecap:butt;stroke-linejoin:miter;stroke-miterlimit:4;stroke-opacity:1;stroke-dasharray:none;display:inline"
       sodipodi:nodetypes="ccccccccccccc" />
    <path
       sodipodi:nodetypes="scccsssscscccccccccccccccccccccccccccccccccccccccccccccccscsssscccsscscs"
       style="color:#000000;fill:#000000;fill-opacity:0.48962654;fill-rule:nonzero;stroke:#000000;stroke-width:5;stroke-linecap:round;stroke-linejoin:round;stroke-miterlimit:4;stroke-opacity:0.58506224;stroke-dasharray:none;marker:none;visibility:visible;display:inline;overflow:visible;enable-background:accumulate"
       id="path4466"
       d="m 78.070783,12.387353 c -5.722137,0 -10.348439,5.211958 -10.346721,11.633615 -0.0012,4.845279 2.70899,8.846001 6.466701,10.588408 l 0,4.804581 -15.52008,-0.785512 c -0.68703,-0.03478 -1.293339,0.567467 -1.293339,1.388743 l 0,4.362605 c 0,0.821277 0.562504,1.470342 1.293339,1.519661 l 15.52008,0.785512 0.04116,47.987392 c 0.0012,1.494057 -2.087657,0.991895 -3.406723,1.328484 -1.932516,0.234536 -3.10744,-0.18034 -4.956428,-0.529737 -4.175621,-0.86441 -5.852225,-2.408618 -9.678962,-4.261041 -1.611172,-0.817792 -3.183976,-1.614742 -4.617529,-2.760182 -0.61788,-0.52537 -1.336546,-1.30741 -1.270878,-2.31527 0.08346,-0.767286 0.417437,-1.616141 1.143791,-1.847847 0.65466,-0.203024 1.242706,0.124275 1.821594,0.300609 0.499028,0.182777 0.84235,-0.555703 0.762528,-1.021306 -0.08031,-1.243287 -0.45059,-2.356077 -1.016705,-3.368476 -1.177832,-2.071262 -2.990414,-3.491631 -4.871703,-4.67146 -2.008601,-1.213542 -4.149887,-2.556428 -5.422418,-4.746521 -0.253148,-0.402456 -0.534286,-1.086006 -1.101427,-0.781893 -0.788418,0.394632 -1.223624,1.336953 -1.60978,2.15069 -1.086495,2.511509 -1.628275,5.139806 -2.118134,7.80477 -0.402695,2.122048 -0.479562,4.318434 -0.338901,6.409884 0.145623,2.092025 0.271561,4.214573 1.016704,6.089972 0.46927,1.235063 1.295436,2.173258 2.118131,3.081213 0.524958,-0.704168 1.072725,-1.457999 1.609782,-2.150691 0.695969,-0.890918 1.565533,-1.523005 2.584121,-1.498267 1.386351,0.02663 2.638438,0.829557 3.727912,1.610896 1.534598,1.171886 2.969227,2.420257 4.5328,3.548635 2.474152,1.851317 5.203111,3.08872 8.006541,4.26881 5.250099,3.03062 12.954538,5.29521 16.80329,10.39863 0.004,0.0555 -0.004,0.17433 0,0.22722 0.03315,-0.0498 0.08798,-0.0929 0.121252,-0.14217 0.03316,0.0459 0.08821,0.084 0.121251,0.13035 0.02175,-0.11319 -0.02141,-0.24993 0,-0.36355 4.820458,-6.71955 11.134101,-9.01178 17.311749,-13.003729 4.377869,-2.65685 7.372789,-6.188792 10.491859,-9.395599 0.88435,-0.862789 1.9007,-1.773294 3.02602,-2.046048 0.82679,-0.20479 1.53263,0.177381 2.09757,0.811611 0.43593,0.49384 0.88057,1.037888 1.30669,1.543693 0.66779,-0.922642 1.3384,-1.871703 1.71931,-3.009543 0.60486,-1.733651 0.70708,-3.566397 0.82528,-5.376651 0.11419,-1.808867 0.0517,-3.667998 -0.27509,-5.404973 -0.39763,-2.184226 -0.8374,-4.327826 -1.71932,-6.273585 -0.31345,-0.624276 -0.66672,-1.349354 -1.30669,-1.543696 -0.46035,-0.157059 -0.68857,0.47656 -0.89405,0.865415 -1.03292,2.097127 -2.77105,3.628473 -4.40146,5.02559 -1.52708,1.345404 -2.99838,2.883539 -3.95444,4.862259 -0.45952,0.965437 -0.76009,1.981155 -0.82527,3.055866 -0.0649,0.411452 0.21388,0.979285 0.61894,0.733407 0.4699,-0.254776 0.94723,-0.639947 1.47863,-0.584878 0.5896,0.06662 0.86068,0.730228 0.92842,1.369486 0.0534,0.84761 -0.53003,1.64412 -1.03158,2.203576 -3.93633,3.758936 -9.399504,7.050256 -14.102721,9.145216 -1.582295,0.665687 -2.58775,1.262051 -4.241531,1.418665 -1.420896,0.429218 -3.409039,-0.634355 -3.40672,-1.66625 l 0.113174,-47.21622 15.520077,0.785511 c 0.597961,0.03026 1.293341,-0.517395 1.293341,-1.388743 l 0,-4.362605 c 0,-0.846312 -0.60582,-1.496464 -1.293341,-1.519662 l -15.520077,-0.785511 0,-5.197336 C 85.708503,32.866968 88.418799,28.866247 88.4175,24.020968 88.4192,17.599311 83.792896,12.387353 78.070781,12.387353 z m -0.202085,5.680476 c 2.777728,-1e-6 5.052947,2.472279 5.052109,5.589588 8.3e-4,3.117313 -2.27438,5.680476 -5.052109,5.680476 -2.77774,-1e-6 -5.093363,-2.563159 -5.092526,-5.680476 -8.35e-4,-3.117309 2.314786,-5.589588 5.092526,-5.589588 z"
       inkscape:connector-curvature="0" />
    <path
       inkscape:connector-curvature="0"
       d="m 80.070783,12.387353 c -5.722137,0 -10.348439,5.211958 -10.346721,11.633615 -0.0012,4.845279 2.70899,8.846001 6.466701,10.588408 l 0,4.804581 -15.52008,-0.785512 c -0.68703,-0.03478 -1.293339,0.567467 -1.293339,1.388743 l 0,4.362605 c 0,0.821277 0.562504,1.470342 1.293339,1.519661 l 15.52008,0.785512 0.04116,47.987392 c 0.0012,1.494057 -2.087657,0.991895 -3.406723,1.328484 -1.932516,0.234536 -3.10744,-0.18034 -4.956428,-0.529737 -4.175621,-0.86441 -5.852225,-2.408618 -9.678962,-4.261041 -1.611172,-0.817792 -3.183976,-1.614742 -4.617529,-2.760182 -0.61788,-0.52537 -1.336546,-1.30741 -1.270878,-2.31527 0.08346,-0.767286 0.417437,-1.616141 1.143791,-1.847847 0.65466,-0.203024 1.242706,0.124275 1.821594,0.300609 0.499028,0.182777 0.84235,-0.555703 0.762528,-1.021306 -0.08031,-1.243287 -0.45059,-2.356077 -1.016705,-3.368476 -1.177832,-2.071262 -2.990414,-3.491631 -4.871703,-4.67146 -2.008601,-1.213542 -4.149887,-2.556428 -5.422418,-4.746521 -0.253148,-0.402456 -0.534286,-1.086006 -1.101427,-0.781893 -0.788418,0.394632 -1.223624,1.336953 -1.60978,2.15069 -1.086495,2.511509 -1.628275,5.139806 -2.118134,7.80477 -0.402695,2.122048 -0.479562,4.318434 -0.338901,6.409884 0.145623,2.092025 0.271561,4.214573 1.016704,6.089972 0.46927,1.235063 1.295436,2.173258 2.118131,3.081213 0.524958,-0.704168 1.072725,-1.457999 1.609782,-2.150691 0.695969,-0.890918 1.565533,-1.523005 2.584121,-1.498267 1.386351,0.02663 2.638438,0.829557 3.727912,1.610896 1.534598,1.171886 2.969227,2.420257 4.5328,3.548635 2.474152,1.851317 5.203111,3.08872 8.006541,4.26881 5.250099,3.03062 12.954538,5.29521 16.80329,10.39863 0.004,0.0555 -0.004,0.17433 0,0.22722 0.03315,-0.0498 0.08798,-0.0929 0.121252,-0.14217 0.03316,0.0459 0.08821,0.084 0.121251,0.13035 0.02175,-0.11319 -0.02141,-0.24993 0,-0.36355 4.820458,-6.71955 11.134101,-9.01178 17.311749,-13.003729 4.377869,-2.65685 7.372789,-6.188792 10.491859,-9.395599 0.88435,-0.862789 1.9007,-1.773294 3.02602,-2.046048 0.82679,-0.20479 1.53263,0.177381 2.09757,0.811611 0.43593,0.49384 0.88057,1.037888 1.30669,1.543693 0.66779,-0.922642 1.3384,-1.871703 1.71931,-3.009543 0.60486,-1.733651 0.70708,-3.566397 0.82528,-5.376651 0.11419,-1.808867 0.0517,-3.667998 -0.27509,-5.404973 -0.39763,-2.184226 -0.8374,-4.327826 -1.71932,-6.273585 -0.31345,-0.624276 -0.66672,-1.349354 -1.30669,-1.543696 -0.46035,-0.157059 -0.68857,0.47656 -0.89405,0.865415 -1.03292,2.097127 -2.77105,3.628473 -4.40146,5.02559 -1.52708,1.345404 -2.99838,2.883539 -3.95444,4.862259 -0.45952,0.965437 -0.76009,1.981155 -0.82527,3.055866 -0.0649,0.411452 0.21388,0.979285 0.61894,0.733407 0.4699,-0.254776 0.94723,-0.639947 1.47863,-0.584878 0.5896,0.06662 0.86068,0.730228 0.92842,1.369486 0.0534,0.84761 -0.53003,1.64412 -1.03158,2.203576 -3.93633,3.758936 -9.399504,7.050256 -14.102721,9.145216 -1.582295,0.665687 -2.58775,1.262051 -4.241531,1.418665 -1.420896,0.429218 -3.409039,-0.634355 -3.40672,-1.66625 l 0.113174,-47.21622 15.520077,0.785511 c 0.597961,0.03026 1.293341,-0.517395 1.293341,-1.388743 l 0,-4.362605 c 0,-0.846312 -0.60582,-1.496464 -1.293341,-1.519662 l -15.520077,-0.785511 0,-5.197336 C 87.708503,32.866968 90.418799,28.866247 90.4175,24.020968 90.4192,17.599311 85.792896,12.387353 80.070781,12.387353 z m -0.202085,5.680476 c 2.777728,-1e-6 5.052947,2.472279 5.052109,5.589588 8.3e-4,3.117313 -2.27438,5.680476 -5.052109,5.680476 -2.77774,-1e-6 -5.093363,-2.563159 -5.092526,-5.680476 -8.35e-4,-3.117309 2.314786,-5.589588 5.092526,-5.589588 z"
       id="path1919"
       style="color:#000000;fill:url(#linearGradient3097);fill-opacity:1;fill-rule:nonzero;stroke:none;stroke-width:1;marker:none;visibility:visible;display:inline;overflow:visible;enable-background:accumulate"
       sodipodi:nodetypes="scccsssscscccccccccccccccccccccccccccccccccccccccccccccccscsssscccsscscs" />
  </g>
</svg>
