<?xml version="1.0" encoding="UTF-8" standalone="no"?>
<!-- Created with Inkscape (http://www.inkscape.org/) -->

<svg
   xmlns:dc="http://purl.org/dc/elements/1.1/"
   xmlns:cc="http://creativecommons.org/ns#"
   xmlns:rdf="http://www.w3.org/1999/02/22-rdf-syntax-ns#"
   xmlns:svg="http://www.w3.org/2000/svg"
   xmlns="http://www.w3.org/2000/svg"
   xmlns:xlink="http://www.w3.org/1999/xlink"
   xmlns:sodipodi="http://sodipodi.sourceforge.net/DTD/sodipodi-0.dtd"
   xmlns:inkscape="http://www.inkscape.org/namespaces/inkscape"
   width="128"
   height="128"
   id="svg6934"
   sodipodi:version="0.32"
   inkscape:version="0.48.3.1 r9886"
   version="1.0"
   sodipodi:docname="aaa-generic.svg"
   inkscape:output_extension="org.inkscape.output.svg.inkscape">
  <defs
     id="defs6936">
    <linearGradient
       id="linearGradient5344">
      <stop
         style="stop-color:#000000;stop-opacity:1;"
         offset="0"
         id="stop5346" />
      <stop
         style="stop-color:#000000;stop-opacity:0;"
         offset="1"
         id="stop5348" />
    </linearGradient>
    <linearGradient
       id="linearGradient5165-7-9-8-2">
      <stop
         id="stop5167-4-8-6-9"
         style="stop-color:#ffffff;stop-opacity:1"
         offset="0" />
      <stop
         id="stop5169-5-5-2-9"
         style="stop-color:#ffffff;stop-opacity:0"
         offset="1" />
    </linearGradient>
    <linearGradient
       inkscape:collect="always"
       xlink:href="#linearGradient5344"
       id="linearGradient3107"
       gradientUnits="userSpaceOnUse"
       gradientTransform="matrix(5.3340639,0,0,5.3340639,-1451.4802,-5864.5574)"
       x1="305.23422"
       y1="1137.0681"
       x2="283.35095"
       y2="1104.2024" />
    <linearGradient
       inkscape:collect="always"
       xlink:href="#linearGradient5165-7-9-8-2"
       id="linearGradient3092"
       gradientUnits="userSpaceOnUse"
       gradientTransform="translate(-40,140)"
       x1="22.933788"
       y1="-144.76825"
       x2="18.618809"
       y2="-96.331688" />
    <linearGradient
       inkscape:collect="always"
       xlink:href="#linearGradient5344"
       id="linearGradient3094"
       gradientUnits="userSpaceOnUse"
       gradientTransform="translate(-40,140)"
       x1="7.9531264"
       y1="2.2416961"
       x2="13.667412"
       y2="-64.464973" />
    <linearGradient
       id="linearGradient5316">
      <stop
         style="stop-color:#87c7ff;stop-opacity:1;"
         offset="0"
         id="stop5320" />
      <stop
         style="stop-color:#74aadb;stop-opacity:1;"
         offset="1"
         id="stop5322" />
    </linearGradient>
  </defs>
  <sodipodi:namedview
     id="base"
     pagecolor="#ffffff"
     bordercolor="#666666"
     borderopacity="1.0"
     inkscape:pageopacity="0.0"
     inkscape:pageshadow="2"
     inkscape:zoom="1.979899"
     inkscape:cx="177.72775"
     inkscape:cy="59.917245"
     inkscape:document-units="px"
     inkscape:current-layer="layer1"
     showgrid="false"
     inkscape:window-width="1366"
     inkscape:window-height="717"
     inkscape:window-x="0"
     inkscape:window-y="0"
     inkscape:window-maximized="1"
     inkscape:snap-global="false" />
  <metadata
     id="metadata6939">
    <rdf:RDF>
      <cc:Work
         rdf:about="">
        <dc:format>image/svg+xml</dc:format>
        <dc:type
           rdf:resource="http://purl.org/dc/dcmitype/StillImage" />
        <dc:title></dc:title>
      </cc:Work>
    </rdf:RDF>
  </metadata>
  <g
     inkscape:label="Capa 1"
     inkscape:groupmode="layer"
     id="layer1">
    <path
       style="fill:#d4aa00;fill-opacity:1;fill-rule:evenodd;stroke:none"
       d="m 34.21875,5.0624987 c -1.32927,0.0554 -2.550557,0.27966 -3.65625,0.625 l -18.34375,2.71875 -0.5,0 0,0.1875 C 6.0032494,9.6428187 3.0625,14.185729 3.0625,19.749999 l 0,84.687501 c -0.07024,5.65226 2.0501037,10.0952 6.3125,11.5 l 18.96875,5.9375 c 0.02087,0.0102 0.04153,0.0212 0.0625,0.0313 1.892721,0.90932 4.164425,1.2325 6.78125,0.8125 l 78.28125,-11.8125 c 5.72052,-0.61974 9.4668,-6.06393 9.15625,-13.625004 l 0.40625,-74.281297 c 0.22248,-5.96534 -2.80168,-10.97622 -9.34375,-11.96875 L 35.84375,5.0937487 c -0.55631,-0.0273 -1.103066,-0.053 -1.625,-0.0313 z"
       id="path30949"
       inkscape:connector-curvature="0" />
    <path
       style="fill:url(#linearGradient3107);fill-rule:evenodd;stroke:none"
       d="M 29.25,16.718753 29.2187,113.125 c 0.4487,3.45828 1.40755,8.12456 4.34375,9.75 0.52713,-0.0229 1.0675,-0.0668 1.625,-0.15625 l 78.28125,-11.8125 c 5.72052,-0.61974 9.4668,-6.06393 9.15625,-13.625 l 0.40625,-74.281247 c 0.22245,-5.96534 -2.80168,-10.97622 -9.34375,-11.96875 L 37.6784,5.233693 c -3.97126,-0.42067 -8.41551,4.78057 -8.42845,11.48506 z M 30.15625,122.5 c 0.64796,0.17153 1.31467,0.32617 2.03125,0.375 z"
       id="path30953"
       inkscape:connector-curvature="0"
       sodipodi:nodetypes="ccccccccccccc" />
    <g
       id="g3087"
       transform="translate(40,0)">
      <path
         inkscape:connector-curvature="0"
         id="path3073"
         d="m -5.21875,5.312503 -22.5625,3.09375 -0.5,0 0,0.1875 c -5.715501,1.04907 -8.65625,5.59198 -8.65625,11.15625 l 0,25 26.1875,0 0,-28.03125 c 0.347051,-4.91678 2.274064,-9.96378 5.53125,-11.40625 z"
         style="fill:url(#linearGradient3092);fill-rule:evenodd;stroke:none;display:inline" />
      <path
         inkscape:connector-curvature="0"
         id="path3081"
         d="m -36.9375,68.406253 0,36.031247 c -0.07024,5.65226 2.050104,10.0952 6.3125,11.5 l 17.65625,6.03125 7.5,1.3125 c -3.710844,-1.04488 -4.81745,-6.34073 -5.3125,-10.15625 l 0,-44.718747 -26.15625,0 z"
         style="fill:url(#linearGradient3094);fill-rule:evenodd;stroke:none;display:inline" />
    </g>
    <path
       inkscape:connector-curvature="0"
       id="path30957"
       d="m 35.825012,5.0844328 c -1.734374,-0.0853 -3.26759,0.13333 -4.667303,0.50133 L 11.65504,8.5863028 C 5.9395447,9.6353728 2.9871862,14.190033 2.9871862,19.754303 l 0,84.678437 c -0.07024,5.65226 2.0718035,10.09707 6.3341998,11.50187 l 19.669357,6.16693 c 1.792241,0.74027 3.774988,1.0512 6.167512,0.6672 l 78.344065,-11.8352 c 5.72052,-0.6192 9.47847,-6.1072 9.16792,-13.66827 l 0.33339,-74.344027 c 0.22245,-5.96534 -2.79254,-10.84214 -9.33461,-11.83467 L 35.825018,5.0855028 z"
       style="fill:none;stroke:#344b63;stroke-width:2.667032;stroke-linecap:butt;stroke-linejoin:miter;stroke-miterlimit:4;stroke-opacity:1;stroke-dasharray:none;display:inline"
       sodipodi:nodetypes="ccccccccccccc" />
    <path
       sodipodi:nodetypes="ccccccc"
       inkscape:connector-curvature="0"
       id="path3116"
       d="m 39.226851,87.593898 c 22.638404,8.910547 46.289394,17.772522 73.614859,19.319172 2.94698,-1.59782 5.52176,-4.03313 5.80838,-11.616759 l -0.12627,-37.501913 -23.991118,10e-7 C 88.504288,38.274534 81.196075,17.446279 59.177364,16.125606 32.065019,14.828219 26.15694,63.315466 39.226851,87.593898 z"
       style="fill:#000000;fill-opacity:0.2926829;stroke:#000000;stroke-width:5;stroke-miterlimit:4;stroke-opacity:0.5813008;stroke-dasharray:none" />
    <path
       style="fill:#ffffff;stroke:none"
       d="M 59.9375 16.09375 C 33.90053 16.330313 28.353056 63.694669 41.21875 87.59375 C 63.857154 96.504297 87.518285 105.3596 114.84375 106.90625 C 117.79073 105.30843 120.36963 102.86488 120.65625 95.28125 L 120.53125 57.78125 L 96.53125 57.78125 C 90.502836 38.261385 83.206211 17.445673 61.1875 16.125 C 60.76387 16.104728 60.350785 16.089995 59.9375 16.09375 z M 54.03125 48.0625 A 3.4543454 3.4543454 0 0 1 54.375 48.0625 L 79.875 48.59375 A 3.4543454 3.4543454 0 1 1 79.75 55.5 L 56.78125 55.03125 C 54.973391 60.38773 55.482442 65.615972 57 70.75 L 77.59375 70.0625 A 3.4543454 3.4543454 0 0 1 77.65625 70.0625 C 79.148684 70.030736 79.40205 69.170269 79.40625 68.3125 C 79.408363 67.883615 79.29616 67.62664 79.09375 67.4375 C 78.89134 67.24836 78.481588 66.92751 77.15625 67 A 3.4543454 3.4543454 0 0 1 76.96875 67 L 68.15625 67.03125 A 3.46875 3.46875 0 0 1 68.15625 60.09375 L 76.78125 60.09375 L 76.96875 60.09375 L 76.96875 60.125 C 79.65291 60.022742 82.122451 60.795756 83.8125 62.375 C 85.544342 63.993298 86.32287 66.23929 86.3125 68.34375 C 86.291853 72.534625 82.892792 76.825032 77.84375 76.96875 C 77.82201 76.969369 77.80305 76.968286 77.78125 76.96875 L 54.5625 77.75 A 3.4543454 3.4543454 0 0 1 51.1875 75.4375 C 48.656978 68.12653 47.005618 59.189529 51.15625 50.09375 A 3.4543454 3.4543454 0 0 1 54.03125 48.0625 z "
       id="path3114" />
  </g>
</svg>
