<?xml version="1.0" encoding="UTF-8" standalone="no"?>
<!-- Created with Inkscape (http://www.inkscape.org/) -->

<svg
   xmlns:dc="http://purl.org/dc/elements/1.1/"
   xmlns:cc="http://creativecommons.org/ns#"
   xmlns:rdf="http://www.w3.org/1999/02/22-rdf-syntax-ns#"
   xmlns:svg="http://www.w3.org/2000/svg"
   xmlns="http://www.w3.org/2000/svg"
   xmlns:xlink="http://www.w3.org/1999/xlink"
   xmlns:sodipodi="http://sodipodi.sourceforge.net/DTD/sodipodi-0.dtd"
   xmlns:inkscape="http://www.inkscape.org/namespaces/inkscape"
   width="128"
   height="128"
   id="svg6934"
   sodipodi:version="0.32"
   inkscape:version="0.48.3.1 r9886"
   version="1.0"
   sodipodi:docname="kompozer.svg"
   inkscape:output_extension="org.inkscape.output.svg.inkscape">
  <defs
     id="defs6936">
    <linearGradient
       inkscape:collect="always"
       xlink:href="#linearGradient5316-39"
       id="linearGradient31113"
       gradientUnits="userSpaceOnUse"
       gradientTransform="translate(-112.78663,-33.91079)"
       x1="275.29071"
       y1="1103.7349"
       x2="275.29071"
       y2="1121.6162" />
    <linearGradient
       id="linearGradient5316-39">
      <stop
         style="stop-color:#aac736;stop-opacity:1;"
         offset="0"
         id="stop5320-84" />
      <stop
         style="stop-color:#5d8b2c;stop-opacity:1;"
         offset="1"
         id="stop5322-5" />
    </linearGradient>
    <linearGradient
       inkscape:collect="always"
       xlink:href="#linearGradient5165-7-9-8-2-1"
       id="linearGradient31115"
       gradientUnits="userSpaceOnUse"
       gradientTransform="translate(-112.78663,-33.91079)"
       x1="275.29071"
       y1="1094.0099"
       x2="275.29071"
       y2="1117.1519" />
    <linearGradient
       id="linearGradient5165-7-9-8-2-1">
      <stop
         id="stop5167-4-8-6-9-4"
         style="stop-color:#ffffff;stop-opacity:1"
         offset="0" />
      <stop
         id="stop5169-5-5-2-9-90"
         style="stop-color:#ffffff;stop-opacity:0"
         offset="1" />
    </linearGradient>
    <linearGradient
       inkscape:collect="always"
       xlink:href="#linearGradient5316-39"
       id="linearGradient31117"
       gradientUnits="userSpaceOnUse"
       gradientTransform="translate(-112.78663,-33.91079)"
       x1="280.65372"
       y1="1100.6647"
       x2="292.69617"
       y2="1118.8726" />
    <linearGradient
       inkscape:collect="always"
       xlink:href="#linearGradient5344-4"
       id="linearGradient31119"
       gradientUnits="userSpaceOnUse"
       gradientTransform="translate(-112.78663,-33.91079)"
       x1="317.94461"
       y1="1142.4757"
       x2="283.81964"
       y2="1103.8007" />
    <linearGradient
       id="linearGradient5344-4">
      <stop
         style="stop-color:#000000;stop-opacity:1;"
         offset="0"
         id="stop5346-96" />
      <stop
         style="stop-color:#000000;stop-opacity:0;"
         offset="1"
         id="stop5348-31" />
    </linearGradient>
    <linearGradient
       inkscape:collect="always"
       xlink:href="#linearGradient5344-4"
       id="linearGradient3133"
       gradientUnits="userSpaceOnUse"
       gradientTransform="matrix(5.334059,0,0,5.334059,-1451.5327,-5864.5296)"
       x1="317.94461"
       y1="1142.4757"
       x2="283.81964"
       y2="1103.8007" />
    <linearGradient
       inkscape:collect="always"
       xlink:href="#linearGradient5316-39"
       id="linearGradient3136"
       gradientUnits="userSpaceOnUse"
       gradientTransform="matrix(5.334059,0,0,5.334059,-1451.5327,-5864.5296)"
       x1="280.65372"
       y1="1100.6647"
       x2="292.69617"
       y2="1118.8726" />
    <linearGradient
       inkscape:collect="always"
       xlink:href="#linearGradient5165-7-9-8-2-1"
       id="linearGradient3139"
       gradientUnits="userSpaceOnUse"
       gradientTransform="matrix(5.334059,0,0,5.334059,-1451.5327,-5864.5296)"
       x1="275.29071"
       y1="1094.0099"
       x2="275.29071"
       y2="1117.1519" />
    <linearGradient
       inkscape:collect="always"
       xlink:href="#linearGradient5316-39"
       id="linearGradient3142"
       gradientUnits="userSpaceOnUse"
       gradientTransform="matrix(5.334059,0,0,5.334059,-1451.5327,-5864.5296)"
       x1="275.29071"
       y1="1103.7349"
       x2="275.29071"
       y2="1121.6162" />
    <linearGradient
       inkscape:collect="always"
       xlink:href="#linearGradient5344"
       id="linearGradient3105"
       x1="7.9531264"
       y1="2.2416961"
       x2="13.667412"
       y2="-64.464973"
       gradientUnits="userSpaceOnUse"
       gradientTransform="translate(-4.0351795e-8,140)" />
    <linearGradient
       id="linearGradient5344">
      <stop
         style="stop-color:#000000;stop-opacity:1;"
         offset="0"
         id="stop5346" />
      <stop
         style="stop-color:#000000;stop-opacity:0;"
         offset="1"
         id="stop5348" />
    </linearGradient>
    <linearGradient
       inkscape:collect="always"
       xlink:href="#linearGradient5165-7-9-8-2"
       id="linearGradient3103"
       x1="22.933788"
       y1="-144.76825"
       x2="18.618809"
       y2="-96.331688"
       gradientUnits="userSpaceOnUse"
       gradientTransform="translate(-4.0351795e-8,140)" />
    <linearGradient
       id="linearGradient5165-7-9-8-2">
      <stop
         id="stop5167-4-8-6-9"
         style="stop-color:#ffffff;stop-opacity:1"
         offset="0" />
      <stop
         id="stop5169-5-5-2-9"
         style="stop-color:#ffffff;stop-opacity:0"
         offset="1" />
    </linearGradient>
    <linearGradient
       inkscape:collect="always"
       xlink:href="#linearGradient5344"
       id="linearGradient3107"
       gradientUnits="userSpaceOnUse"
       gradientTransform="matrix(5.3340639,0,0,5.3340639,-1451.4802,-5864.5574)"
       x1="305.23422"
       y1="1137.0681"
       x2="283.35095"
       y2="1104.2024" />
    <linearGradient
       id="linearGradient3069">
      <stop
         style="stop-color:#000000;stop-opacity:1;"
         offset="0"
         id="stop3071" />
      <stop
         style="stop-color:#000000;stop-opacity:0;"
         offset="1"
         id="stop3073" />
    </linearGradient>
  </defs>
  <sodipodi:namedview
     id="base"
     pagecolor="#ffffff"
     bordercolor="#666666"
     borderopacity="1.0"
     inkscape:pageopacity="0.0"
     inkscape:pageshadow="2"
     inkscape:zoom="1.979899"
     inkscape:cx="66.223145"
     inkscape:cy="63.623984"
     inkscape:document-units="px"
     inkscape:current-layer="layer1"
     showgrid="false"
     inkscape:window-width="1366"
     inkscape:window-height="717"
     inkscape:window-x="0"
     inkscape:window-y="0"
     inkscape:window-maximized="1" />
  <metadata
     id="metadata6939">
    <rdf:RDF>
      <cc:Work
         rdf:about="">
        <dc:format>image/svg+xml</dc:format>
        <dc:type
           rdf:resource="http://purl.org/dc/dcmitype/StillImage" />
        <dc:title></dc:title>
      </cc:Work>
    </rdf:RDF>
  </metadata>
  <g
     inkscape:label="Capa 1"
     inkscape:groupmode="layer"
     id="layer1">
    <path
       style="fill:#f7ab08;fill-opacity:1;fill-rule:evenodd;stroke:none"
       d="m 34.21875,5.062503 c -1.32927,0.0554 -2.550557,0.27966 -3.65625,0.625 l -18.34375,2.71875 -0.5,0 0,0.1875 C 6.0032494,9.642823 3.0625,14.185733 3.0625,19.750003 l 0,84.687497 c -0.07024,5.65226 2.0501037,10.0952 6.3125,11.5 l 18.96875,5.9375 c 0.02087,0.0102 0.04153,0.0212 0.0625,0.0313 1.892721,0.90932 4.164425,1.2325 6.78125,0.8125 l 78.28125,-11.8125 c 5.72052,-0.61974 9.4668,-6.06393 9.15625,-13.625 l 0.40625,-74.281297 c 0.22248,-5.96534 -2.80168,-10.97622 -9.34375,-11.96875 l -77.84375,-5.9375 c -0.55631,-0.0273 -1.103066,-0.053 -1.625,-0.0313 z"
       id="path30949"
       inkscape:connector-curvature="0" />
    <path
       style="fill:url(#linearGradient3107);fill-rule:evenodd;stroke:none"
       d="M 29.25,16.718753 29.21875,113.125 c 0.448699,3.45828 1.407546,8.12456 4.34375,9.75 0.527128,-0.0229 1.067503,-0.0668 1.625,-0.15625 l 78.28125,-11.8125 c 5.72052,-0.61974 9.4668,-6.06393 9.15625,-13.625 l 0.40625,-74.281247 c 0.22245,-5.96534 -2.80168,-10.97622 -9.34375,-11.96875 L 37.678453,5.233693 C 33.707189,4.813023 29.262938,10.014263 29.25,16.718753 z M 30.15625,122.5 c 0.647964,0.17153 1.314675,0.32617 2.03125,0.375 z"
       id="path30953"
       inkscape:connector-curvature="0"
       sodipodi:nodetypes="ccccccccccccc" />
    <path
       style="fill:url(#linearGradient3103);fill-rule:evenodd;stroke:none;display:inline"
       d="m 34.78125,5.312503 -22.5625,3.09375 -0.5,0 0,0.1875 C 6.003249,9.642823 3.0625,14.185733 3.0625,19.750003 l 0,25 26.1875,0 0,-28.03125 c 0.347051,-4.91678 2.274064,-9.96378 5.53125,-11.40625 z"
       id="path3073"
       inkscape:connector-curvature="0" />
    <path
       style="fill:url(#linearGradient3105);fill-rule:evenodd;stroke:none;display:inline"
       d="m 3.0625,68.406253 0,36.031247 c -0.07024,5.65226 2.050104,10.0952 6.3125,11.5 l 17.65625,6.03125 7.5,1.3125 c -3.710844,-1.04488 -4.81745,-6.34073 -5.3125,-10.15625 l 0,-44.718747 -26.15625,0 z"
       id="path3081"
       inkscape:connector-curvature="0" />
    <path
       sodipodi:nodetypes="cscscscscsccsssssssssccssccsscccssscsscsccccscscscsccssccssccssccs"
       id="path3793"
       d="m 43.941537,14.202528 c -5.403773,-0.13416 -9.819561,4.427808 -9.819561,10.144613 0,1.376717 0.33993,2.644177 0.799267,3.824899 -1.518387,1.509056 -2.626162,3.405895 -2.626162,5.793376 0,2.966813 1.682078,5.242362 3.882153,6.800527 -0.06577,0.364435 -0.285454,0.622785 -0.285454,1.019674 0,0.88532 0.152364,1.7053 0.456725,2.487645 -1.31763,1.001628 -2.28362,2.390005 -2.28362,4.231541 0,2.421408 1.492226,4.509869 3.539609,5.342477 -0.01645,0.215359 -0.05718,0.40947 -0.05718,0.662955 l 0,0.06039 c 1.050537,13.643539 7.6871,34.47303 16.727508,39.465226 -2.107377,1.098437 -3.891908,2.276739 -5.195233,3.568052 -1.467325,1.453793 -2.3978,3.125927 -2.3978,4.838587 0,1.71265 0.930475,3.14516 2.3978,4.22108 1.467325,1.07591 3.529525,1.84736 5.994499,2.42919 4.92995,1.16367 11.614687,1.40352 19.011127,0.45114 7.396441,-0.95241 14.081177,-2.91379 19.011127,-5.34705 2.464975,-1.21663 4.527175,-2.51917 5.994505,-3.97296 1.467323,-1.4538 2.397803,-3.125927 2.397803,-4.838584 0,-1.712656 -0.93048,-3.145159 -2.397803,-4.221077 -1.46733,-1.075914 -3.52953,-1.847367 -5.994505,-2.429198 -0.109065,-0.02574 -0.231814,-0.05187 -0.342542,-0.07669 4.314011,-1.763341 10.62721,-3.195508 16.09951,-5.8781 2.76992,-1.357841 5.33551,-3.045132 7.30759,-5.28959 1.97207,-2.244458 3.34445,-5.108888 3.5967,-8.556419 5.9e-4,-0.0202 5.9e-4,-0.04034 0,-0.06039 l 0,-20.174269 c 0,-7.478396 -5.71937,-13.671078 -12.78827,-13.846578 -6.64626,-0.165008 -11.285958,5.129799 -11.81773,11.906934 -1.030241,-0.884553 -2.181586,-1.71082 -3.482519,-2.441971 -2.936315,-1.650213 -6.521704,-2.937317 -10.504647,-3.703469 -0.348572,-1.146666 -1.089396,-2.196258 -2.055256,-2.950115 -1.336027,-1.042762 -3.082667,-1.646873 -5.023963,-1.69507 -1.941294,-0.04819 -3.687935,0.469187 -5.023961,1.44561 -0.929725,0.679474 -1.63308,1.652737 -1.998167,2.728685 -4.498673,0.506471 -8.523141,1.612685 -11.760637,3.271482 -4.720075,2.41843 -7.878485,6.004728 -7.878485,10.253202 0,1.562756 -0.05207,5.357392 0.17118,9.305494 -1.073629,-0.78765 -1.824775,-1.711907 -2.226528,-2.954367 -0.552818,-1.709696 -0.655343,-3.979463 -0.856356,-6.483815 l -0.05718,-0.846987 -0.856356,-0.02126 -0.456724,-0.01134 c 0.931387,-0.990828 1.541715,-2.376355 1.541715,-3.887573 0,-0.252689 -0.196865,-0.424693 -0.22836,-0.670044 2.26597,-0.939895 3.882151,-3.264546 3.882151,-6.003785 0,-1.400723 -0.492292,-2.63855 -1.198899,-3.714025 0.667274,-1.194735 1.14181,-2.494406 1.14181,-4.018298 0,-0.165364 -0.04822,-0.320394 -0.05718,-0.484602 3.246868,-1.611058 5.537775,-4.964533 5.537775,-9.042963 0,-5.716804 -4.415787,-10.498034 -9.819559,-10.632194 z m 61.200983,28.336019 c 5.09124,0.126401 9.13447,4.389768 9.13447,9.588425 l 0,17.210987 0,0.06039 c -0.16661,2.031793 -0.96182,3.690341 -2.22652,5.178911 -1.27797,1.504174 -3.0325,2.803885 -5.02397,3.908385 -3.84888,2.134651 -8.448833,3.499124 -11.817719,4.601984 0.0091,-0.01606 -0.0091,-0.04428 0,-0.06039 2.773208,-5.380291 3.830359,-12.524292 4.224696,-17.213633 0.394337,-4.689341 0.114177,-9.087382 0.114177,-10.851242 0,-1.221437 -0.315085,-2.398915 -0.79926,-3.52291 0.06178,-2.509986 0.511674,-4.75779 1.427246,-6.306323 0.99058,-1.675335 2.43687,-2.657397 4.96688,-2.594584 z"
       style="color:#000000;fill:#000000;stroke:#000000;stroke-width:5;stroke-miterlimit:4;stroke-dasharray:none;marker:none;visibility:visible;display:inline;overflow:visible;enable-background:accumulate;fill-opacity:0.41493776;stroke-opacity:0.57676351000000003"
       inkscape:connector-curvature="0" />
    <path
       inkscape:connector-curvature="0"
       id="path30957"
       d="m 35.825012,5.084433 c -1.734374,-0.0853 -3.26759,0.13333 -4.667303,0.50133 L 11.65504,8.586303 c -5.7154953,1.04907 -8.6678538,5.60373 -8.6678538,11.168 l 0,84.678437 c -0.07024,5.65226 2.0718035,10.09707 6.3341998,11.50187 l 19.669357,6.16693 c 1.792241,0.74027 3.774988,1.0512 6.167512,0.6672 l 78.344065,-11.8352 c 5.72052,-0.6192 9.47847,-6.1072 9.16792,-13.66827 l 0.33339,-74.344027 c 0.22245,-5.96534 -2.79254,-10.84214 -9.33461,-11.83467 L 35.825018,5.085503 z"
       style="fill:none;stroke:#344b63;stroke-width:2.667032;stroke-linecap:butt;stroke-linejoin:miter;stroke-miterlimit:4;stroke-opacity:1;stroke-dasharray:none;display:inline"
       sodipodi:nodetypes="ccccccccccccc" />
    <path
       inkscape:connector-curvature="0"
       style="color:#000000;fill:#ffffff;stroke:none;stroke-width:0.83333319px;marker:none;visibility:visible;display:inline;overflow:visible;enable-background:accumulate"
       d="m 45.204228,14.202528 c -5.403773,-0.13416 -9.819561,4.427808 -9.819561,10.144613 0,1.376717 0.33993,2.644177 0.799267,3.824899 -1.518387,1.509056 -2.626162,3.405895 -2.626162,5.793376 0,2.966813 1.682078,5.242362 3.882153,6.800527 -0.06577,0.364435 -0.285454,0.622785 -0.285454,1.019674 0,0.88532 0.152364,1.7053 0.456725,2.487645 -1.31763,1.001628 -2.28362,2.390005 -2.28362,4.231541 0,2.421408 1.492226,4.509869 3.539609,5.342477 -0.01645,0.215359 -0.05718,0.40947 -0.05718,0.662955 l 0,0.06039 c 1.050537,13.643539 7.6871,34.47303 16.727508,39.465226 -2.107377,1.098437 -3.891908,2.276739 -5.195233,3.568052 -1.467325,1.453793 -2.3978,3.125927 -2.3978,4.838587 0,1.71265 0.930475,3.14516 2.3978,4.22108 1.467325,1.07591 3.529525,1.84736 5.994499,2.42919 4.92995,1.16367 11.614687,1.40352 19.011127,0.45114 7.396439,-0.95241 14.081179,-2.91379 19.011129,-5.34705 2.46497,-1.21663 4.52717,-2.51917 5.994495,-3.97296 1.46732,-1.4538 2.3978,-3.125927 2.3978,-4.838584 0,-1.712656 -0.93048,-3.145159 -2.3978,-4.221077 -1.467325,-1.075914 -3.529525,-1.847367 -5.994495,-2.429198 -0.10907,-0.02574 -0.23182,-0.05187 -0.34254,-0.07669 4.31401,-1.763341 10.627195,-3.195508 16.099495,-5.8781 2.76992,-1.357841 5.33551,-3.045132 7.30759,-5.28959 1.97207,-2.244458 3.34445,-5.108888 3.5967,-8.556419 5.9e-4,-0.0202 5.9e-4,-0.04034 0,-0.06039 l 0,-20.174269 c 0,-7.478396 -5.71937,-13.671078 -12.78827,-13.846578 -6.64626,-0.165008 -11.285945,5.129799 -11.817715,11.906934 -1.03024,-0.884553 -2.18159,-1.71082 -3.48252,-2.441971 -2.93632,-1.650213 -6.52171,-2.937317 -10.50465,-3.703469 -0.34857,-1.146666 -1.0894,-2.196258 -2.055256,-2.950115 -1.336027,-1.042762 -3.082667,-1.646873 -5.023963,-1.69507 -1.941294,-0.04819 -3.687935,0.469187 -5.023961,1.44561 -0.929725,0.679474 -1.63308,1.652737 -1.998167,2.728685 -4.498673,0.506471 -8.523141,1.612685 -11.760637,3.271482 -4.720075,2.41843 -7.878485,6.004728 -7.878485,10.253202 0,1.562756 -0.05207,5.357392 0.17118,9.305494 -1.073629,-0.78765 -1.824775,-1.711907 -2.226528,-2.954367 -0.552818,-1.709696 -0.655343,-3.979463 -0.856356,-6.483815 l -0.05718,-0.846987 -0.856356,-0.02126 -0.456724,-0.01134 c 0.931387,-0.990828 1.541715,-2.376355 1.541715,-3.887573 0,-0.252689 -0.196865,-0.424693 -0.22836,-0.670044 2.26597,-0.939895 3.882151,-3.264546 3.882151,-6.003785 0,-1.400723 -0.492292,-2.63855 -1.198899,-3.714025 0.667274,-1.194735 1.14181,-2.494406 1.14181,-4.018298 0,-0.165364 -0.04822,-0.320394 -0.05718,-0.484602 3.246868,-1.611058 5.537775,-4.964533 5.537775,-9.042963 0,-5.716804 -4.415787,-10.498034 -9.819559,-10.632194 z m 61.200982,28.336019 c 5.09124,0.126401 9.13447,4.389768 9.13447,9.588425 l 0,17.210987 0,0.06039 c -0.16661,2.031793 -0.96182,3.690341 -2.22652,5.178911 -1.27797,1.504174 -3.0325,2.803885 -5.02397,3.908385 -3.84888,2.134651 -8.448836,3.499124 -11.817715,4.601984 0.009,-0.01606 -0.009,-0.04428 0,-0.06039 2.77321,-5.380291 3.830355,-12.524292 4.224685,-17.213633 0.39434,-4.689341 0.11418,-9.087382 0.11418,-10.851242 0,-1.221437 -0.31508,-2.398915 -0.79926,-3.52291 0.0618,-2.509986 0.51167,-4.75779 1.42725,-6.306323 0.99058,-1.675335 2.43687,-2.657397 4.96688,-2.594584 z"
       id="path3233"
       sodipodi:nodetypes="cscscscscsccsssssssssccssccsscccssscsscsccccscscscsccssccssccssccs" />
  </g>
</svg>
