<?xml version="1.0" encoding="UTF-8" standalone="no"?>
<!-- Created with Inkscape (http://www.inkscape.org/) -->

<svg
   xmlns:dc="http://purl.org/dc/elements/1.1/"
   xmlns:cc="http://creativecommons.org/ns#"
   xmlns:rdf="http://www.w3.org/1999/02/22-rdf-syntax-ns#"
   xmlns:svg="http://www.w3.org/2000/svg"
   xmlns="http://www.w3.org/2000/svg"
   xmlns:xlink="http://www.w3.org/1999/xlink"
   xmlns:sodipodi="http://sodipodi.sourceforge.net/DTD/sodipodi-0.dtd"
   xmlns:inkscape="http://www.inkscape.org/namespaces/inkscape"
   width="128"
   height="128"
   id="svg6934"
   sodipodi:version="0.32"
   inkscape:version="0.48.3.1 r9886"
   version="1.0"
   sodipodi:docname="firefox.svg"
   inkscape:output_extension="org.inkscape.output.svg.inkscape">
  <defs
     id="defs6936">
    <linearGradient
       inkscape:collect="always"
       xlink:href="#linearGradient5316"
       id="linearGradient6899"
       gradientUnits="userSpaceOnUse"
       gradientTransform="matrix(1.0001366,0,0,1.0001366,-195.82932,269.25819)"
       x1="275.29071"
       y1="1103.7349"
       x2="275.29071"
       y2="1121.6162" />
    <linearGradient
       id="linearGradient5316">
      <stop
         style="stop-color:#aac736;stop-opacity:1;"
         offset="0"
         id="stop5320" />
      <stop
         style="stop-color:#5d8b2c;stop-opacity:1;"
         offset="1"
         id="stop5322" />
    </linearGradient>
    <linearGradient
       inkscape:collect="always"
       xlink:href="#linearGradient5165-7-9-8-2"
       id="linearGradient6896"
       gradientUnits="userSpaceOnUse"
       gradientTransform="matrix(1.0001366,0,0,1.0001366,-195.82932,269.25819)"
       x1="275.29071"
       y1="1094.0099"
       x2="275.29071"
       y2="1117.1519" />
    <linearGradient
       id="linearGradient5165-7-9-8-2">
      <stop
         id="stop5167-4-8-6-9"
         style="stop-color:#ffffff;stop-opacity:1"
         offset="0" />
      <stop
         id="stop5169-5-5-2-9"
         style="stop-color:#ffffff;stop-opacity:0"
         offset="1" />
    </linearGradient>
    <linearGradient
       inkscape:collect="always"
       xlink:href="#linearGradient5316"
       id="linearGradient6893"
       gradientUnits="userSpaceOnUse"
       gradientTransform="matrix(1.0001366,0,0,1.0001366,-195.82932,269.25819)"
       x1="280.65372"
       y1="1100.6647"
       x2="292.69617"
       y2="1118.8726" />
    <linearGradient
       inkscape:collect="always"
       xlink:href="#linearGradient5344"
       id="linearGradient6889"
       gradientUnits="userSpaceOnUse"
       gradientTransform="matrix(1.0001366,0,0,1.0001366,-195.82932,269.25819)"
       x1="322.44461"
       y1="1153.7257"
       x2="283.81964"
       y2="1103.8007" />
    <linearGradient
       id="linearGradient5344">
      <stop
         style="stop-color:#000000;stop-opacity:1;"
         offset="0"
         id="stop5346" />
      <stop
         style="stop-color:#000000;stop-opacity:0;"
         offset="1"
         id="stop5348" />
    </linearGradient>
    <linearGradient
       id="linearGradient5344-7">
      <stop
         style="stop-color:#000000;stop-opacity:1;"
         offset="0"
         id="stop5346-7" />
      <stop
         style="stop-color:#000000;stop-opacity:0;"
         offset="1"
         id="stop5348-0" />
    </linearGradient>
    <linearGradient
       inkscape:collect="always"
       xlink:href="#linearGradient5344"
       id="linearGradient3033"
       gradientUnits="userSpaceOnUse"
       gradientTransform="matrix(5.3340639,0,0,5.3340639,-1451.4802,-6004.5574)"
       x1="304.83249"
       y1="1139.1437"
       x2="283.81964"
       y2="1103.8007" />
    <linearGradient
       inkscape:collect="always"
       xlink:href="#linearGradient5316"
       id="linearGradient3036"
       gradientUnits="userSpaceOnUse"
       gradientTransform="matrix(5.3340639,0,0,5.3340639,-1451.4802,-5864.5574)"
       x1="280.65372"
       y1="1100.6647"
       x2="292.69617"
       y2="1118.8726" />
    <linearGradient
       inkscape:collect="always"
       xlink:href="#linearGradient5165-7-9-8-2"
       id="linearGradient3039"
       gradientUnits="userSpaceOnUse"
       gradientTransform="matrix(5.3340639,0,0,5.3340639,-1451.4802,-6004.5574)"
       x1="275.29071"
       y1="1094.0099"
       x2="275.29071"
       y2="1117.1519" />
    <linearGradient
       inkscape:collect="always"
       xlink:href="#linearGradient5316"
       id="linearGradient3042"
       gradientUnits="userSpaceOnUse"
       gradientTransform="matrix(5.3340639,0,0,5.3340639,-1451.4802,-5864.5574)"
       x1="275.29071"
       y1="1103.7349"
       x2="275.29071"
       y2="1121.6162" />
    <linearGradient
       inkscape:collect="always"
       xlink:href="#linearGradient5316"
       id="linearGradient3048"
       gradientUnits="userSpaceOnUse"
       gradientTransform="matrix(5.3340639,0,0,5.3340639,-1271.4802,-5864.5574)"
       x1="275.29071"
       y1="1103.7349"
       x2="275.29071"
       y2="1121.6162" />
    <linearGradient
       inkscape:collect="always"
       xlink:href="#linearGradient5316"
       id="linearGradient3050"
       gradientUnits="userSpaceOnUse"
       gradientTransform="matrix(5.3340639,0,0,5.3340639,-1271.4802,-5864.5574)"
       x1="280.65372"
       y1="1100.6647"
       x2="292.69617"
       y2="1118.8726" />
    <linearGradient
       inkscape:collect="always"
       xlink:href="#linearGradient5316"
       id="linearGradient3055"
       gradientUnits="userSpaceOnUse"
       gradientTransform="matrix(5.3340639,0,0,5.3340639,-1271.4802,-5864.5574)"
       x1="275.29071"
       y1="1103.7349"
       x2="275.29071"
       y2="1121.6162" />
    <linearGradient
       inkscape:collect="always"
       xlink:href="#linearGradient5344-7"
       id="linearGradient3058"
       x1="189.6268"
       y1="139.3264"
       x2="194.20161"
       y2="88.818764"
       gradientUnits="userSpaceOnUse"
       gradientTransform="translate(-180,-140)" />
    <linearGradient
       inkscape:collect="always"
       xlink:href="#linearGradient5316"
       id="linearGradient3065"
       gradientUnits="userSpaceOnUse"
       gradientTransform="matrix(5.3340639,0,0,5.3340639,-1451.4802,-5864.5574)"
       x1="280.65372"
       y1="1100.6647"
       x2="292.69617"
       y2="1118.8726" />
    <linearGradient
       inkscape:collect="always"
       xlink:href="#linearGradient5316"
       id="linearGradient3071"
       gradientUnits="userSpaceOnUse"
       gradientTransform="matrix(5.3340639,0,0,5.3340639,-1451.4802,-6004.5574)"
       x1="275.29071"
       y1="1103.7349"
       x2="275.29071"
       y2="1121.6162" />
    <linearGradient
       inkscape:collect="always"
       xlink:href="#linearGradient5165-7-9-8-2"
       id="linearGradient3103"
       x1="22.933788"
       y1="-144.76825"
       x2="18.618809"
       y2="-96.331688"
       gradientUnits="userSpaceOnUse"
       gradientTransform="translate(0,140)" />
    <linearGradient
       inkscape:collect="always"
       xlink:href="#linearGradient5344"
       id="linearGradient3105"
       x1="7.9531264"
       y1="2.2416961"
       x2="13.667412"
       y2="-64.464973"
       gradientUnits="userSpaceOnUse"
       gradientTransform="translate(0,140)" />
    <linearGradient
       inkscape:collect="always"
       xlink:href="#linearGradient5344"
       id="linearGradient3107"
       gradientUnits="userSpaceOnUse"
       gradientTransform="matrix(5.3340639,0,0,5.3340639,-1451.4802,-5864.5574)"
       x1="305.23422"
       y1="1137.0681"
       x2="283.35095"
       y2="1104.2024" />
  </defs>
  <sodipodi:namedview
     id="base"
     pagecolor="#ffffff"
     bordercolor="#666666"
     borderopacity="1.0"
     inkscape:pageopacity="0.0"
     inkscape:pageshadow="2"
     inkscape:zoom="1.4"
     inkscape:cx="70.324208"
     inkscape:cy="83.866205"
     inkscape:document-units="px"
     inkscape:current-layer="layer1"
     showgrid="false"
     inkscape:window-width="1280"
     inkscape:window-height="713"
     inkscape:window-x="0"
     inkscape:window-y="0"
     inkscape:window-maximized="0" />
  <metadata
     id="metadata6939">
    <rdf:RDF>
      <cc:Work
         rdf:about="">
        <dc:format>image/svg+xml</dc:format>
        <dc:type
           rdf:resource="http://purl.org/dc/dcmitype/StillImage" />
        <dc:title></dc:title>
      </cc:Work>
    </rdf:RDF>
  </metadata>
  <g
     inkscape:label="Capa 1"
     inkscape:groupmode="layer"
     id="layer1">
    <path
       style="fill:#7e3a18;fill-opacity:1;fill-rule:evenodd;stroke:none"
       d="m 34.21875,5.0625 c -1.32927,0.0554 -2.550557,0.27966 -3.65625,0.625 l -18.34375,2.71875 -0.5,0 0,0.1875 C 6.0032494,9.64282 3.0625,14.18573 3.0625,19.75 l 0,84.6875 c -0.07024,5.65226 2.0501037,10.0952 6.3125,11.5 l 18.96875,5.9375 c 0.02087,0.0102 0.04153,0.0212 0.0625,0.0313 1.892721,0.90932 4.164425,1.2325 6.78125,0.8125 l 78.28125,-11.8125 c 5.72052,-0.61974 9.4668,-6.06393 9.15625,-13.625 L 123.03125,23 c 0.22248,-5.96534 -2.80168,-10.97622 -9.34375,-11.96875 L 35.84375,5.09375 c -0.55631,-0.0273 -1.103066,-0.053 -1.625,-0.0313 z"
       id="path30949"
       inkscape:connector-curvature="0" />
    <path
       style="fill:url(#linearGradient3107);fill-rule:evenodd;stroke:none"
       d="M 29.25,16.71875 29.21875,113.125 c 0.448699,3.45828 1.407546,8.12456 4.34375,9.75 0.527128,-0.0229 1.067503,-0.0668 1.625,-0.15625 l 78.28125,-11.8125 c 5.72052,-0.61974 9.4668,-6.06393 9.15625,-13.625 L 123.03125,23 C 123.2537,17.03466 120.22957,12.02378 113.6875,11.03125 L 37.678453,5.23369 C 33.707189,4.81302 29.262938,10.01426 29.25,16.71875 z M 30.15625,122.5 c 0.647964,0.17153 1.314675,0.32617 2.03125,0.375 z"
       id="path30953"
       inkscape:connector-curvature="0"
       sodipodi:nodetypes="ccccccccccccc" />
    <path
       style="fill:url(#linearGradient3103);fill-rule:evenodd;stroke:none;display:inline"
       d="m 34.78125,5.3125 -22.5625,3.09375 -0.5,0 0,0.1875 C 6.003249,9.64282 3.0625,14.18573 3.0625,19.75 l 0,25 26.1875,0 0,-28.03125 C 29.597051,11.80197 31.524064,6.75497 34.78125,5.3125 z"
       id="path3073"
       inkscape:connector-curvature="0" />
    <path
       style="fill:url(#linearGradient3105);fill-rule:evenodd;stroke:none;display:inline"
       d="m 3.0625,68.40625 0,36.03125 c -0.07024,5.65226 2.050104,10.0952 6.3125,11.5 l 17.65625,6.03125 7.5,1.3125 c -3.710844,-1.04488 -4.81745,-6.34073 -5.3125,-10.15625 l 0,-44.71875 -26.15625,0 z"
       id="path3081"
       inkscape:connector-curvature="0" />
    <path
       inkscape:connector-curvature="0"
       id="path30957"
       d="m 35.825012,5.08443 c -1.734374,-0.0853 -3.26759,0.13333 -4.667303,0.50133 L 11.65504,8.5863 C 5.9395447,9.63537 2.9871862,14.19003 2.9871862,19.7543 l 0,84.67844 c -0.07024,5.65226 2.0718035,10.09707 6.3341998,11.50187 l 19.669357,6.16693 c 1.792241,0.74027 3.774988,1.0512 6.167512,0.6672 l 78.344065,-11.8352 c 5.72052,-0.6192 9.47847,-6.1072 9.16792,-13.66827 l 0.33339,-74.34403 C 123.22608,16.9559 120.21109,12.0791 113.66902,11.08657 L 35.825018,5.0855 z"
       style="fill:none;stroke:#344b63;stroke-width:2.667032;stroke-linecap:butt;stroke-linejoin:miter;stroke-miterlimit:4;stroke-opacity:1;stroke-dasharray:none;display:inline"
       sodipodi:nodetypes="ccccccccccccc" />
    <path
       sodipodi:nodetypes="scccccscccccscscccssscsscccscscccccscccccs"
       id="path3793"
       d="m 74.113128,13.68153 c -2.789292,0.285645 -5.182067,3.145317 -5.173516,6.183009 0.02642,2.753374 1.988478,5.309253 4.472027,5.825471 L 68.939612,62.518147 56.926539,28.831904 c 2.107933,-0.917905 3.604875,-3.322413 3.595155,-5.774826 5.42e-4,-3.190867 -2.673195,-6.048183 -5.611952,-5.997266 -2.938758,0.05092 -5.612496,3.000885 -5.611954,6.191735 -0.0094,3.355692 2.969405,6.304093 6.050388,5.988542 l 2.367538,36.519213 c 0,0 -6.427113,-12.505367 -16.046668,-25.428385 1.276959,-1.178621 2.038947,-2.990423 2.016795,-4.795389 2.42e-4,-3.190655 -2.673386,-6.047551 -5.61195,-5.996636 -2.938562,0.05092 -5.612191,3.000459 -5.61195,6.191104 0.01391,2.012215 1.013786,3.968469 2.571793,5.031655 1.558005,1.063185 3.626369,1.200711 5.320012,0.353726 7.458672,18.98875 8.944042,33.929835 8.944042,33.929835 8.426927,4.428904 2.805976,17.203284 2.805976,17.203284 -2.805976,3.370802 -8.417923,4.019033 -8.417923,8.589064 l 0,6.09336 c 0,2.5318 1.894088,4.05554 4.208961,4.08386 23.85079,0.2917 29.462737,-0.35652 53.313538,-6.15819 2.31449,-0.56288 4.20894,-2.52441 4.20894,-5.056201 l 0,-6.093373 c 0,-4.57003 -5.611948,-3.921798 -8.417932,-6.644367 0,0 -5.620946,-8.171628 2.805984,-12.89255 0,0 1.485368,-14.992555 8.944048,-34.239769 1.69364,0.788295 3.76199,0.579096 5.32001,-0.538081 1.558,-1.117174 2.55789,-3.108077 2.5718,-5.120773 0.001,-3.191755 -2.67239,-6.050794 -5.61194,-5.999863 -2.93957,0.05093 -5.61376,3.002637 -5.61197,6.194331 -0.0221,1.805736 0.73985,3.591132 2.0168,4.725503 C 97.814516,52.44781 91.387405,65.175893 91.387405,65.175893 l 2.367548,-36.601254 c 3.080988,0.208783 6.059816,-2.84284 6.050379,-6.198204 0.002,-3.192626 -2.671602,-6.053362 -5.611947,-6.002417 -2.94034,0.05094 -5.61498,3.004364 -5.611949,6.196886 -0.0097,2.452751 1.487222,4.805386 3.595155,5.650243 L 80.163507,62.323679 75.69149,25.745716 c 2.512082,-0.609323 4.485407,-3.290269 4.472017,-6.075645 0.0094,-3.355692 -2.969398,-6.304089 -6.050379,-5.988541 z"
       style="color:#000000;fill:#000000;fill-opacity:0.21576764;fill-rule:nonzero;stroke:#000000;stroke-width:5;stroke-miterlimit:4;stroke-dasharray:none;marker:none;visibility:visible;display:inline;overflow:visible;enable-background:accumulate;stroke-opacity:0.55186725000000003"
       inkscape:connector-curvature="0" />
    <path
       inkscape:connector-curvature="0"
       style="color:#000000;fill:#ffffff;fill-opacity:1;fill-rule:nonzero;stroke:none;stroke-width:1;marker:none;visibility:visible;display:inline;overflow:visible;enable-background:accumulate"
       d="m 76.284783,13.810473 c -2.789293,0.285645 -5.182067,3.145317 -5.173517,6.183009 0.02642,2.753374 1.988479,5.309253 4.472028,5.825471 L 71.111266,62.647089 59.098194,28.960847 c 2.107932,-0.917905 3.604874,-3.322413 3.595154,-5.774826 5.43e-4,-3.190867 -2.673195,-6.048183 -5.611952,-5.997266 -2.938758,0.05092 -5.612495,3.000885 -5.611953,6.191735 -0.0094,3.355692 2.969405,6.304093 6.050388,5.988542 l 2.367537,36.519212 c 0,0 -6.427113,-12.505366 -16.046667,-25.428385 1.276958,-1.178621 2.038947,-2.990422 2.016795,-4.795388 2.41e-4,-3.190655 -2.673386,-6.047551 -5.61195,-5.996636 -2.938563,0.05092 -5.612191,3.000459 -5.61195,6.191104 0.01391,2.012215 1.013785,3.968469 2.571793,5.031655 1.558005,1.063184 3.626369,1.200711 5.320012,0.353726 7.458672,18.98875 8.944042,33.929834 8.944042,33.929834 8.426926,4.428904 2.805976,17.203285 2.805976,17.203285 -2.805976,3.370801 -8.417923,4.019032 -8.417923,8.589061 l 0,6.09337 c 0,2.5318 1.894088,4.05554 4.20896,4.08385 23.850791,0.2917 29.462738,-0.35652 53.313544,-6.15818 2.31449,-0.56289 4.20894,-2.52442 4.20894,-5.056209 l 0,-6.093372 c 0,-4.57003 -5.61195,-3.921798 -8.417936,-6.644368 0,0 -5.620946,-8.171628 2.805986,-12.892549 0,0 1.48537,-14.992556 8.94405,-34.23977 1.69364,0.788296 3.76199,0.579097 5.32001,-0.53808 1.558,-1.117175 2.55788,-3.108077 2.57179,-5.120773 0.001,-3.191755 -2.67238,-6.050794 -5.61194,-5.999863 -2.93956,0.05093 -5.61376,3.002637 -5.61196,6.194331 -0.0221,1.805736 0.73984,3.591132 2.0168,4.725502 -9.619567,13.256364 -16.04668,25.984447 -16.04668,25.984447 l 2.367548,-36.601254 c 3.080989,0.208783 6.059822,-2.84284 6.050382,-6.198204 0.002,-3.192626 -2.671605,-6.053362 -5.61195,-6.002417 -2.94034,0.05094 -5.614979,3.004364 -5.611949,6.196886 -0.0097,2.452751 1.487222,4.805385 3.595156,5.650243 L 82.335162,62.452621 77.863144,25.874659 c 2.512083,-0.609323 4.485408,-3.290269 4.472018,-6.075645 0.0094,-3.355691 -2.969398,-6.304089 -6.050379,-5.988541 z"
       id="path3839"
       sodipodi:nodetypes="scccccscccccscscccssscsscccscscccccscccccs" />
  </g>
</svg>
