<?xml version="1.0" encoding="UTF-8" standalone="no"?>
<!-- Created with Inkscape (http://www.inkscape.org/) -->

<svg
   xmlns:dc="http://purl.org/dc/elements/1.1/"
   xmlns:cc="http://creativecommons.org/ns#"
   xmlns:rdf="http://www.w3.org/1999/02/22-rdf-syntax-ns#"
   xmlns:svg="http://www.w3.org/2000/svg"
   xmlns="http://www.w3.org/2000/svg"
   xmlns:xlink="http://www.w3.org/1999/xlink"
   xmlns:sodipodi="http://sodipodi.sourceforge.net/DTD/sodipodi-0.dtd"
   xmlns:inkscape="http://www.inkscape.org/namespaces/inkscape"
   width="128"
   height="128"
   id="svg6934"
   sodipodi:version="0.32"
   inkscape:version="0.48.3.1 r9886"
   version="1.0"
   sodipodi:docname="aaa-generic.svg"
   inkscape:output_extension="org.inkscape.output.svg.inkscape">
  <defs
     id="defs6936">
    <linearGradient
       id="linearGradient5344">
      <stop
         style="stop-color:#000000;stop-opacity:1;"
         offset="0"
         id="stop5346" />
      <stop
         style="stop-color:#000000;stop-opacity:0;"
         offset="1"
         id="stop5348" />
    </linearGradient>
    <linearGradient
       id="linearGradient5165-7-9-8-2">
      <stop
         id="stop5167-4-8-6-9"
         style="stop-color:#ffffff;stop-opacity:1"
         offset="0" />
      <stop
         id="stop5169-5-5-2-9"
         style="stop-color:#ffffff;stop-opacity:0"
         offset="1" />
    </linearGradient>
    <linearGradient
       inkscape:collect="always"
       xlink:href="#linearGradient5344"
       id="linearGradient3107"
       gradientUnits="userSpaceOnUse"
       gradientTransform="matrix(5.3340639,0,0,5.3340639,-1451.4802,-5864.5574)"
       x1="305.23422"
       y1="1137.0681"
       x2="283.35095"
       y2="1104.2024" />
    <linearGradient
       inkscape:collect="always"
       xlink:href="#linearGradient5344-50"
       id="linearGradient13031-7"
       gradientUnits="userSpaceOnUse"
       gradientTransform="matrix(2.3371908,-0.19593194,0,2.3371908,-1123.3759,-2035.152)"
       x1="516.625"
       y1="949.4657"
       x2="516.625"
       y2="953.45752" />
    <linearGradient
       id="linearGradient5344-50">
      <stop
         style="stop-color:#000000;stop-opacity:1;"
         offset="0"
         id="stop5346-2" />
      <stop
         style="stop-color:#000000;stop-opacity:0;"
         offset="1"
         id="stop5348-5" />
    </linearGradient>
    <linearGradient
       inkscape:collect="always"
       xlink:href="#linearGradient5316-0"
       id="linearGradient13027-1"
       gradientUnits="userSpaceOnUse"
       gradientTransform="matrix(3.6383072,-0.24094751,0,3.6383072,-1797.8001,-3254.4436)"
       x1="516.625"
       y1="951.58276"
       x2="516.84595"
       y2="953.33002" />
    <linearGradient
       id="linearGradient5316-0">
      <stop
         style="stop-color:#aac736;stop-opacity:1;"
         offset="0"
         id="stop5320-8" />
      <stop
         style="stop-color:#5d8b2c;stop-opacity:1;"
         offset="1"
         id="stop5322-1" />
    </linearGradient>
    <linearGradient
       inkscape:collect="always"
       xlink:href="#linearGradient13604-6"
       id="linearGradient13023-1"
       gradientUnits="userSpaceOnUse"
       gradientTransform="matrix(3.6383072,0,0,3.6383072,-1871.8013,-3376.2301)"
       x1="532.71075"
       y1="943.25812"
       x2="540.65033"
       y2="973.31165" />
    <linearGradient
       id="linearGradient13604-6">
      <stop
         id="stop13606-2"
         offset="0"
         style="stop-color:#ffffff;stop-opacity:1;" />
      <stop
         id="stop13608-7"
         offset="1"
         style="stop-color:#000000;stop-opacity:1;" />
    </linearGradient>
    <linearGradient
       inkscape:collect="always"
       xlink:href="#linearGradient13620-8"
       id="linearGradient13021-7"
       gradientUnits="userSpaceOnUse"
       gradientTransform="matrix(3.6383072,0,0,3.6383072,-1811.8986,-3430.9797)"
       x1="508.00168"
       y1="976.56775"
       x2="507.60999"
       y2="969.06256" />
    <linearGradient
       id="linearGradient13620-8">
      <stop
         id="stop13622-7"
         offset="0"
         style="stop-color:#000000;stop-opacity:1;" />
      <stop
         id="stop13624-6"
         offset="1"
         style="stop-color:#000000;stop-opacity:0;" />
    </linearGradient>
    <linearGradient
       inkscape:collect="always"
       xlink:href="#linearGradient13604-6"
       id="linearGradient13015-1"
       gradientUnits="userSpaceOnUse"
       gradientTransform="matrix(3.6383072,0,0,3.6383072,-1811.8986,-3430.9797)"
       x1="507.15793"
       y1="956.94275"
       x2="506.35999"
       y2="981.68756" />
    <linearGradient
       inkscape:collect="always"
       xlink:href="#linearGradient5165-7-9-8-2"
       id="linearGradient3092"
       gradientUnits="userSpaceOnUse"
       gradientTransform="translate(-40,140)"
       x1="22.933788"
       y1="-144.76825"
       x2="18.618809"
       y2="-96.331688" />
    <linearGradient
       inkscape:collect="always"
       xlink:href="#linearGradient5344"
       id="linearGradient3094"
       gradientUnits="userSpaceOnUse"
       gradientTransform="translate(-40,140)"
       x1="7.9531264"
       y1="2.2416961"
       x2="13.667412"
       y2="-64.464973" />
  </defs>
  <sodipodi:namedview
     id="base"
     pagecolor="#ffffff"
     bordercolor="#666666"
     borderopacity="1.0"
     inkscape:pageopacity="0.0"
     inkscape:pageshadow="2"
     inkscape:zoom="1.979899"
     inkscape:cx="133.47155"
     inkscape:cy="60.920461"
     inkscape:document-units="px"
     inkscape:current-layer="layer1"
     showgrid="false"
     inkscape:window-width="1366"
     inkscape:window-height="718"
     inkscape:window-x="0"
     inkscape:window-y="0"
     inkscape:window-maximized="1" />
  <metadata
     id="metadata6939">
    <rdf:RDF>
      <cc:Work
         rdf:about="">
        <dc:format>image/svg+xml</dc:format>
        <dc:type
           rdf:resource="http://purl.org/dc/dcmitype/StillImage" />
        <dc:title></dc:title>
      </cc:Work>
    </rdf:RDF>
  </metadata>
  <g
     inkscape:label="Capa 1"
     inkscape:groupmode="layer"
     id="layer1">
    <path
       style="fill:#2ca05a;fill-opacity:1;fill-rule:evenodd;stroke:none"
       d="m 34.21875,5.062503 c -1.32927,0.0554 -2.55056,0.27966 -3.65625,0.625 l -18.34375,2.71875 -0.5,0 0,0.1875 c -5.7155,1.04907 -8.65625,5.59198 -8.65625,11.15625 l 0,84.687497 c -0.0702,5.65226 2.0501,10.0952 6.3125,11.5 l 18.96875,5.9375 c 0.0209,0.0102 0.0415,0.0212 0.0625,0.0313 1.89272,0.90932 4.16442,1.2325 6.78125,0.8125 l 78.28125,-11.8125 c 5.72052,-0.61974 9.4668,-6.06393 9.15625,-13.625 l 0.40625,-74.281297 c 0.22248,-5.96534 -2.80168,-10.97622 -9.34375,-11.96875 l -77.84375,-5.9375 c -0.55631,-0.0273 -1.10307,-0.053 -1.625,-0.0313 z"
       id="path30949"
       inkscape:connector-curvature="0" />
    <path
       style="fill:url(#linearGradient3107);fill-rule:evenodd;stroke:none"
       d="M 29.25,16.718753 29.2187,113.125 c 0.4487,3.45828 1.40755,8.12456 4.34375,9.75 0.52713,-0.0229 1.0675,-0.0668 1.625,-0.15625 l 78.28125,-11.8125 c 5.72052,-0.61974 9.4668,-6.06393 9.15625,-13.625 l 0.40625,-74.281247 c 0.22245,-5.96534 -2.80168,-10.97622 -9.34375,-11.96875 L 37.6784,5.233693 c -3.97126,-0.42067 -8.41551,4.78057 -8.42845,11.48506 z M 30.15625,122.5 c 0.64796,0.17153 1.31467,0.32617 2.03125,0.375 z"
       id="path30953"
       inkscape:connector-curvature="0"
       sodipodi:nodetypes="ccccccccccccc" />
    <g
       id="g3087"
       transform="translate(40,0)">
      <path
         inkscape:connector-curvature="0"
         id="path3073"
         d="m -5.21875,5.312503 -22.5625,3.09375 -0.5,0 0,0.1875 c -5.715501,1.04907 -8.65625,5.59198 -8.65625,11.15625 l 0,25 26.1875,0 0,-28.03125 c 0.347051,-4.91678 2.274064,-9.96378 5.53125,-11.40625 z"
         style="fill:url(#linearGradient3092);fill-rule:evenodd;stroke:none;display:inline" />
      <path
         inkscape:connector-curvature="0"
         id="path3081"
         d="m -36.9375,68.406253 0,36.031247 c -0.07024,5.65226 2.050104,10.0952 6.3125,11.5 l 17.65625,6.03125 7.5,1.3125 c -3.710844,-1.04488 -4.81745,-6.34073 -5.3125,-10.15625 l 0,-44.718747 -26.15625,0 z"
         style="fill:url(#linearGradient3094);fill-rule:evenodd;stroke:none;display:inline" />
    </g>
    <path
       inkscape:connector-curvature="0"
       id="path30957"
       d="m 35.825012,5.0844328 c -1.734374,-0.0853 -3.26759,0.13333 -4.667303,0.50133 L 11.65504,8.5863028 C 5.9395447,9.6353728 2.9871862,14.190033 2.9871862,19.754303 l 0,84.678437 c -0.07024,5.65226 2.0718035,10.09707 6.3341998,11.50187 l 19.669357,6.16693 c 1.792241,0.74027 3.774988,1.0512 6.167512,0.6672 l 78.344065,-11.8352 c 5.72052,-0.6192 9.47847,-6.1072 9.16792,-13.66827 l 0.33339,-74.344027 c 0.22245,-5.96534 -2.79254,-10.84214 -9.33461,-11.83467 L 35.825018,5.0855028 z"
       style="fill:none;stroke:#344b63;stroke-width:2.667032;stroke-linecap:butt;stroke-linejoin:miter;stroke-miterlimit:4;stroke-opacity:1;stroke-dasharray:none;display:inline"
       sodipodi:nodetypes="ccccccccccccc" />
    <path
       sodipodi:nodetypes="ccsscssccccccccccccsccscccscccscsssccsccsccsssccscccccsccccc"
       id="path3970"
       d="m 44.676977,14.375732 -0.248628,23.878815 c 2.220247,-1.321504 4.815159,-2.156905 7.792049,-2.283752 4.470342,-0.19049 8.061934,1.394038 10.504837,4.139732 2.028354,2.279765 3.238317,5.203186 3.924885,8.34253 4.170749,-0.01949 7.51607,1.517705 9.84107,4.130883 2.442903,2.745696 3.727947,6.874225 4.300057,10.699424 1.005519,6.723041 -0.06917,14.087776 -1.789285,19.659295 0.732651,0.418625 1.483671,0.857021 2.222177,1.32939 0.278501,-3.398827 1.161682,-6.346671 1.991302,-8.198236 L 104.34977,29.459037 93.951153,17.46076 z M 105.167,36.512778 88.612156,73.871158 c 4.210279,-0.312591 9.99278,1.262568 12.023294,5.712569 l 17.28687,-33.629178 c 1.53548,-2.620822 2.73383,-7.695932 -2.42123,-11.159868 -3.26376,-2.288184 -8.4426,-2.322006 -10.33409,1.718097 z M 40.301449,51.719389 c -1.447812,5.919583 -0.401991,16.70574 2.539631,21.799011 0.769582,1.347627 -0.0906,3.628421 -1.529551,4.055704 -2.051892,0.600876 -3.838702,2.354158 -5.627591,5.587172 -1.50807,2.725501 -2.866717,6.601017 -4.1269,11.01999 4.39031,1.408933 8.114352,2.261557 12.496138,2.340247 0.508038,-4.554082 4.453922,-9.063873 7.474596,-11.107572 C 48.943471,79.438574 48.10181,72.171148 49.709627,65.470295 51.27174,58.959934 55.48739,50.990206 62.00375,49.123317 c -0.0093,-0.03404 -0.01986,-0.0649 -0.0289,-0.09878 0.02909,-0.0059 0.05726,0.0053 0.08653,-0.0032 -0.549622,-2.069487 -1.391348,-3.80822 -2.53963,-5.098567 -1.575329,-1.770221 -3.760797,-2.87736 -9.080738,-2.65067 -5.319939,0.226693 -8.691748,4.527694 -10.139557,10.447289 z m 25.713763,1.949084 c -7.13434,0.304 -10.52653,6.705843 -11.976668,12.742126 -1.450139,6.036283 -0.375828,13.568216 2.56849,18.66617 0.790186,1.340054 -0.08051,3.648773 -1.52955,4.055705 -2.058653,0.602855 -3.865716,2.320577 -5.656452,5.556941 -1.511163,2.731088 -2.865387,6.627175 -4.1269,11.053275 13.093479,4.20718 26.092613,2.21367 39.306562,-4.28774 0.09188,-4.770323 -0.844765,-7.524678 -2.366475,-9.501594 -1.708321,-2.21935 -4.31703,-3.623794 -7.157142,-5.267612 -0.93593,-0.53167 -1.345842,-1.98279 -0.894642,-3.167109 1.701747,-4.504821 3.095274,-12.676856 2.164458,-18.900173 -0.465408,-3.111658 -1.479967,-6.481047 -3.059101,-8.255552 -1.579133,-1.774505 -3.756585,-2.844258 -7.27258,-2.694437 z m 20.663362,24.334303 -0.461752,1.04875 c -1.069101,2.38605 -3.094424,10.328443 1.183238,13.202819 4.277671,2.874374 9.144121,-3.201071 10.418259,-5.37583 l 0.865782,-1.496291 C 96.832799,79.193263 91.809204,77.396551 86.678574,78.002776 z m 20.518346,-3.956607 -4.40979,10.499883 c -0.93638,1.598254 -3.96684,8.312698 -6.786956,10.420431 -1.938828,1.449067 -4.434796,2.576826 -6.983986,2.353857 0.764394,2.30105 0.552875,7.31789 -0.808113,8.08407 l 18.408825,-3.70066 0.57998,-27.65758 z"
       style="fill:#000000;fill-opacity:0.06224066;stroke:#000000;stroke-width:5;stroke-linecap:round;stroke-linejoin:round;stroke-miterlimit:4;stroke-opacity:0.60580915000000002;stroke-dasharray:none"
       inkscape:connector-curvature="0" />
    <path
       inkscape:connector-curvature="0"
       style="fill:#ffffff;fill-opacity:1;stroke:none"
       d="m 46.646016,14.375732 -0.248628,23.878815 c 2.220247,-1.321504 4.815159,-2.156905 7.792049,-2.283752 4.470342,-0.19049 8.061934,1.394038 10.504837,4.139732 2.028354,2.279765 3.238316,5.203186 3.924885,8.34253 4.170748,-0.01949 7.51607,1.517705 9.84107,4.130883 2.442903,2.745696 3.727947,6.874225 4.300057,10.699424 1.005518,6.723041 -0.06917,14.087776 -1.789285,19.659295 0.732651,0.418625 1.483671,0.857021 2.222176,1.32939 0.278501,-3.398827 1.161683,-6.346671 1.991302,-8.198236 L 106.31881,29.459037 95.920192,17.46076 z m 60.490024,22.137046 -16.554845,37.35838 c 4.210279,-0.312591 9.992775,1.262568 12.023295,5.712569 l 17.28687,-33.629178 c 1.53548,-2.620822 2.73383,-7.695932 -2.42123,-11.159868 -3.26376,-2.288184 -8.4426,-2.322006 -10.33409,1.718097 z M 42.270488,51.719389 c -1.447812,5.919583 -0.401992,16.70574 2.539631,21.799011 0.769582,1.347627 -0.0906,3.628421 -1.529551,4.055704 -2.051892,0.600876 -3.838702,2.354158 -5.627591,5.587172 -1.50807,2.725501 -2.866717,6.601017 -4.1269,11.01999 4.39031,1.408933 8.114352,2.261557 12.496138,2.340247 0.508037,-4.554082 4.453922,-9.063873 7.474596,-11.107572 -2.584301,-5.975367 -3.425963,-13.242793 -1.818145,-19.943646 1.562113,-6.510361 5.777762,-14.480089 12.294123,-16.346978 -0.0093,-0.03404 -0.01986,-0.0649 -0.02891,-0.09878 0.02909,-0.0059 0.05726,0.0053 0.08653,-0.0032 -0.549622,-2.069487 -1.391348,-3.80822 -2.53963,-5.098567 -1.575329,-1.770221 -3.760797,-2.87736 -9.080738,-2.65067 -5.31994,0.226693 -8.691748,4.527694 -10.139557,10.447289 z m 25.713763,1.949084 c -7.13434,0.304 -10.52653,6.705843 -11.976668,12.742126 -1.450139,6.036283 -0.375829,13.568216 2.56849,18.66617 0.790185,1.340054 -0.08051,3.648773 -1.52955,4.055705 -2.058653,0.602855 -3.865716,2.320577 -5.656452,5.556941 -1.511163,2.731088 -2.865387,6.627175 -4.1269,11.053275 13.093479,4.20718 26.092613,2.21367 39.306562,-4.28774 0.09189,-4.770323 -0.844765,-7.524678 -2.366475,-9.501594 -1.708322,-2.21935 -4.31703,-3.623794 -7.157142,-5.267612 -0.93593,-0.53167 -1.345842,-1.98279 -0.894643,-3.167109 1.701747,-4.504821 3.095275,-12.676856 2.164459,-18.900173 -0.465408,-3.111658 -1.479967,-6.481047 -3.059101,-8.255552 -1.579133,-1.774505 -3.756585,-2.844258 -7.27258,-2.694437 z m 20.663361,24.334303 -0.461751,1.04875 c -1.069102,2.38605 -3.094425,10.328443 1.183238,13.202819 4.27767,2.874374 9.144121,-3.201071 10.418258,-5.37583 l 0.865783,-1.496291 C 98.801837,79.193263 93.778243,77.396551 88.647612,78.002776 z m 20.518348,-3.956607 -4.4098,10.499883 c -0.93637,1.598254 -3.96683,8.312698 -6.786947,10.420431 -1.938828,1.449067 -4.434796,2.576826 -6.983986,2.353857 0.764394,2.30105 0.552875,7.31789 -0.808113,8.08407 l 18.408826,-3.70066 0.57998,-27.65758 z"
       id="path3914"
       sodipodi:nodetypes="ccsscssccccccccccccsccscccscccscsssccsccsccsssccscccccsccccc" />
  </g>
</svg>
