<?xml version="1.0" encoding="UTF-8" standalone="no"?>
<!-- Created with Inkscape (http://www.inkscape.org/) -->

<svg
   xmlns:dc="http://purl.org/dc/elements/1.1/"
   xmlns:cc="http://creativecommons.org/ns#"
   xmlns:rdf="http://www.w3.org/1999/02/22-rdf-syntax-ns#"
   xmlns:svg="http://www.w3.org/2000/svg"
   xmlns="http://www.w3.org/2000/svg"
   xmlns:xlink="http://www.w3.org/1999/xlink"
   xmlns:sodipodi="http://sodipodi.sourceforge.net/DTD/sodipodi-0.dtd"
   xmlns:inkscape="http://www.inkscape.org/namespaces/inkscape"
   width="128"
   height="128"
   id="svg6934"
   sodipodi:version="0.32"
   inkscape:version="0.48.3.1 r9886"
   version="1.0"
   sodipodi:docname="chromium.svg"
   inkscape:output_extension="org.inkscape.output.svg.inkscape">
  <defs
     id="defs6936">
    <linearGradient
       id="linearGradient5316-4">
      <stop
         style="stop-color:#aac736;stop-opacity:1;"
         offset="0"
         id="stop5320-9" />
      <stop
         style="stop-color:#5d8b2c;stop-opacity:1;"
         offset="1"
         id="stop5322-9" />
    </linearGradient>
    <linearGradient
       id="linearGradient5165-7-9-8-2-4">
      <stop
         id="stop5167-4-8-6-9-8"
         style="stop-color:#ffffff;stop-opacity:1"
         offset="0" />
      <stop
         id="stop5169-5-5-2-9-5"
         style="stop-color:#ffffff;stop-opacity:0"
         offset="1" />
    </linearGradient>
    <linearGradient
       id="linearGradient5344-2">
      <stop
         style="stop-color:#000000;stop-opacity:1;"
         offset="0"
         id="stop5346-5" />
      <stop
         style="stop-color:#000000;stop-opacity:0;"
         offset="1"
         id="stop5348-4" />
    </linearGradient>
    <linearGradient
       inkscape:collect="always"
       xlink:href="#linearGradient5344-2"
       id="linearGradient3068"
       gradientUnits="userSpaceOnUse"
       gradientTransform="matrix(5.3340457,0,0,5.3340457,-1451.5289,-5864.5157)"
       x1="317.94461"
       y1="1142.4757"
       x2="283.81964"
       y2="1103.8007" />
    <linearGradient
       inkscape:collect="always"
       xlink:href="#linearGradient5316-4"
       id="linearGradient3071"
       gradientUnits="userSpaceOnUse"
       gradientTransform="matrix(5.3340457,0,0,5.3340457,-1451.5289,-5864.5157)"
       x1="280.65372"
       y1="1100.6647"
       x2="292.69617"
       y2="1118.8726" />
    <linearGradient
       inkscape:collect="always"
       xlink:href="#linearGradient5165-7-9-8-2-4"
       id="linearGradient3074"
       gradientUnits="userSpaceOnUse"
       gradientTransform="matrix(5.3340457,0,0,5.3340457,-1451.5289,-5864.5157)"
       x1="275.29071"
       y1="1094.0099"
       x2="275.29071"
       y2="1117.1519" />
    <linearGradient
       inkscape:collect="always"
       xlink:href="#linearGradient5316-4"
       id="linearGradient3077"
       gradientUnits="userSpaceOnUse"
       gradientTransform="matrix(5.3340457,0,0,5.3340457,-1451.5289,-5864.5157)"
       x1="275.29071"
       y1="1103.7349"
       x2="275.29071"
       y2="1121.6162" />
    <linearGradient
       inkscape:collect="always"
       xlink:href="#linearGradient5344-4"
       id="linearGradient3105"
       x1="7.9531264"
       y1="2.2416961"
       x2="13.667412"
       y2="-64.464973"
       gradientUnits="userSpaceOnUse"
       gradientTransform="translate(-4.0351795e-8,140)" />
    <linearGradient
       id="linearGradient5344-4">
      <stop
         style="stop-color:#000000;stop-opacity:1;"
         offset="0"
         id="stop5346-2" />
      <stop
         style="stop-color:#000000;stop-opacity:0;"
         offset="1"
         id="stop5348-62" />
    </linearGradient>
    <linearGradient
       inkscape:collect="always"
       xlink:href="#linearGradient5165-7-9-8-2-48"
       id="linearGradient3103"
       x1="22.933788"
       y1="-144.76825"
       x2="18.618809"
       y2="-96.331688"
       gradientUnits="userSpaceOnUse"
       gradientTransform="translate(-4.0351795e-8,140)" />
    <linearGradient
       id="linearGradient5165-7-9-8-2-48">
      <stop
         id="stop5167-4-8-6-9-5"
         style="stop-color:#ffffff;stop-opacity:1"
         offset="0" />
      <stop
         id="stop5169-5-5-2-9-4"
         style="stop-color:#ffffff;stop-opacity:0"
         offset="1" />
    </linearGradient>
    <linearGradient
       inkscape:collect="always"
       xlink:href="#linearGradient5344-4"
       id="linearGradient3107"
       gradientUnits="userSpaceOnUse"
       gradientTransform="matrix(5.3340639,0,0,5.3340639,-1451.4802,-5864.5574)"
       x1="305.23422"
       y1="1137.0681"
       x2="283.35095"
       y2="1104.2024" />
  </defs>
  <sodipodi:namedview
     id="base"
     pagecolor="#ffffff"
     bordercolor="#666666"
     borderopacity="1.0"
     inkscape:pageopacity="0.0"
     inkscape:pageshadow="2"
     inkscape:zoom="2.8000001"
     inkscape:cx="51.238802"
     inkscape:cy="54.773671"
     inkscape:document-units="px"
     inkscape:current-layer="layer1"
     showgrid="false"
     inkscape:window-width="1280"
     inkscape:window-height="713"
     inkscape:window-x="0"
     inkscape:window-y="0"
     inkscape:window-maximized="0" />
  <metadata
     id="metadata6939">
    <rdf:RDF>
      <cc:Work
         rdf:about="">
        <dc:format>image/svg+xml</dc:format>
        <dc:type
           rdf:resource="http://purl.org/dc/dcmitype/StillImage" />
        <dc:title />
      </cc:Work>
    </rdf:RDF>
  </metadata>
  <g
     inkscape:label="Capa 1"
     inkscape:groupmode="layer"
     id="layer1">
    <path
       style="fill:#6486ba;fill-opacity:1;fill-rule:evenodd;stroke:none"
       d="m 34.21875,5.0625028 c -1.32927,0.0554 -2.550557,0.27966 -3.65625,0.625 l -18.34375,2.71875 -0.5,0 0,0.1875 C 6.0032494,9.6428228 3.0625,14.185733 3.0625,19.750003 l 0,84.687497 c -0.07024,5.65226 2.0501037,10.0952 6.3125,11.5 l 18.96875,5.9375 c 0.02087,0.0102 0.04153,0.0212 0.0625,0.0313 1.892721,0.90932 4.164425,1.2325 6.78125,0.8125 l 78.28125,-11.8125 c 5.72052,-0.61974 9.4668,-6.06393 9.15625,-13.624997 l 0.40625,-74.2813 c 0.22248,-5.96534 -2.80168,-10.97622 -9.34375,-11.96875 L 35.84375,5.0937528 c -0.55631,-0.0273 -1.103066,-0.053 -1.625,-0.0313 z"
       id="path30949"
       inkscape:connector-curvature="0" />
    <path
       style="fill:url(#linearGradient3107);fill-rule:evenodd;stroke:none"
       d="M 29.25,16.718753 29.21875,113.125 c 0.448699,3.45828 1.407546,8.12456 4.34375,9.75 0.527128,-0.0229 1.067503,-0.0668 1.625,-0.15625 l 78.28125,-11.8125 c 5.72052,-0.61974 9.4668,-6.06393 9.15625,-13.624997 l 0.40625,-74.28125 c 0.22245,-5.96534 -2.80168,-10.97622 -9.34375,-11.96875 L 37.678453,5.2336928 C 33.707189,4.8130228 29.262938,10.014263 29.25,16.718753 z M 30.15625,122.5 c 0.647964,0.17153 1.314675,0.32617 2.03125,0.375 z"
       id="path30953"
       inkscape:connector-curvature="0"
       sodipodi:nodetypes="ccccccccccccc" />
    <path
       style="fill:url(#linearGradient3103);fill-rule:evenodd;stroke:none;display:inline"
       d="m 34.78125,5.3125028 -22.5625,3.09375 -0.5,0 0,0.1875 C 6.003249,9.6428228 3.0625,14.185733 3.0625,19.750003 l 0,25 26.1875,0 0,-28.03125 c 0.347051,-4.91678 2.274064,-9.9637802 5.53125,-11.4062502 z"
       id="path3073"
       inkscape:connector-curvature="0" />
    <path
       style="fill:url(#linearGradient3105);fill-rule:evenodd;stroke:none;display:inline"
       d="m 3.0625,68.406253 0,36.031247 c -0.07024,5.65226 2.050104,10.0952 6.3125,11.5 l 17.65625,6.03125 7.5,1.3125 c -3.710844,-1.04488 -4.81745,-6.34073 -5.3125,-10.15625 l 0,-44.718747 -26.15625,0 z"
       id="path3081"
       inkscape:connector-curvature="0" />
    <path
       inkscape:connector-curvature="0"
       id="path30957"
       d="m 35.825012,5.0844328 c -1.734374,-0.0853 -3.26759,0.13333 -4.667303,0.50133 L 11.65504,8.5863028 C 5.939545,9.6353728 2.987186,14.190033 2.987186,19.754303 l 0,84.678437 c -0.07024,5.65226 2.071804,10.09707 6.3342,11.50187 l 19.669357,6.16693 c 1.792241,0.74027 3.774988,1.0512 6.167512,0.6672 l 78.344065,-11.8352 c 5.72052,-0.6192 9.47847,-6.1072 9.16792,-13.668267 l 0.33339,-74.34403 c 0.22245,-5.96534 -2.79254,-10.84214 -9.33461,-11.83467 L 35.825018,5.0855028 z"
       style="fill:none;stroke:#344b63;stroke-width:2.667032;stroke-linecap:butt;stroke-linejoin:miter;stroke-miterlimit:4;stroke-opacity:1;stroke-dasharray:none;display:inline"
       sodipodi:nodetypes="ccccccccccccc" />
    <path
       id="path3915"
       d="M 76.67849,12.75245 C 59.188968,12.56763 44.009658,25.41368 36.639759,42.176681 L 52.667348,59.958232 C 53.75685,50.909783 58.853345,42.384081 65.97327,37.67081 c 10.845574,-6.7827 26.870894,-2.94437 40.64355,-1.05842 l 7.62066,1.20963 C 107.2202,23.58575 94.23746,14.08741 79.15823,12.87341 78.329895,12.80671 77.497364,12.7611 76.67849,12.75245 z m 2.298295,27.30738 c -11.715598,-0.1201 -21.211348,12.049854 -20.65442,24.041382 0.574892,12.378348 10.146857,21.974965 21.803568,20.261292 9.696348,-1.425482 18.749255,-9.763627 18.749255,-21.985013 0,-12.221386 -8.264884,-21.468517 -18.749255,-22.287421 -0.382289,-0.02986 -0.771226,-0.02637 -1.149148,-0.03024 z m 18.628292,4.354665 c 7.378193,10.657253 8.907143,24.342493 1.300351,37.165861 l -0.03024,0.09072 -0.03024,0.06048 -6.501758,10.856423 -11.249552,18.779501 c 20.264492,-3.99923 38.708142,-22.263023 38.708142,-48.717827 0,-6.076088 -0.87786,-11.833549 -2.50998,-17.116255 L 97.605077,44.414495 z m -63.747465,5.655017 c -1.453667,5.310807 -2.153969,10.838456 -1.905167,16.360237 1.149129,25.50312 18.862306,45.745331 41.429805,45.723991 L 83.119766,90.198965 C 78.136557,91.647964 73.517063,91.241481 68.059881,89.291743 61.731992,86.49809 55.567597,81.242905 51.487959,74.806432 L 33.857612,50.069512 z"
       style="fill:#000000;fill-opacity:0.57647059;stroke:#000000;stroke-width:3.90300012;stroke-linecap:round;stroke-linejoin:round;stroke-miterlimit:4;stroke-opacity:0.560166;stroke-dasharray:none"
       inkscape:connector-curvature="0" />
    <path
       style="fill:#ffffff;stroke:none"
       d="M 77.9004,12.75245 C 60.410879,12.56763 45.231568,25.41368 37.861669,42.176681 l 16.027589,17.781551 c 1.089503,-9.048449 6.185998,-17.574151 13.305923,-22.287422 10.845574,-6.7827 26.870893,-2.94437 40.643549,-1.05842 l 7.62066,1.20963 C 108.44211,23.58575 95.459371,14.08741 80.38014,12.87341 79.551805,12.80671 78.719275,12.7611 77.9004,12.75245 z m 2.298296,27.30738 C 68.483097,39.93973 58.987347,52.109684 59.544275,64.101212 60.119167,76.47956 69.691133,86.076177 81.347844,84.362504 91.044192,82.937022 100.0971,74.598877 100.0971,62.377491 c 0,-12.221386 -8.264885,-21.468517 -18.749256,-22.287421 -0.38229,-0.02986 -0.771226,-0.02637 -1.149148,-0.03024 z m 18.628291,4.354665 c 7.378183,10.657253 8.907143,24.342493 1.300353,37.165861 l -0.0302,0.09072 -0.0302,0.06048 -6.50176,10.856427 -11.249553,18.779497 c 20.264493,-3.99923 38.708143,-22.263019 38.708143,-48.717823 0,-6.076088 -0.87786,-11.833549 -2.50999,-17.116255 L 98.826987,44.414495 z m -63.747465,5.655017 c -1.453667,5.310807 -2.153969,10.838456 -1.905166,16.360237 1.149128,25.50312 18.862305,45.745331 41.429804,45.723991 L 84.341676,90.198965 C 79.358468,91.647964 74.738974,91.241481 69.281791,89.291743 62.953903,86.49809 56.789508,81.242905 52.709869,74.806432 L 35.079522,50.069512 z"
       id="path3886"
       inkscape:connector-curvature="0" />
  </g>
</svg>
