<?xml version="1.0" encoding="UTF-8" standalone="no"?>
<!-- Created with Inkscape (http://www.inkscape.org/) -->

<svg
   xmlns:dc="http://purl.org/dc/elements/1.1/"
   xmlns:cc="http://creativecommons.org/ns#"
   xmlns:rdf="http://www.w3.org/1999/02/22-rdf-syntax-ns#"
   xmlns:svg="http://www.w3.org/2000/svg"
   xmlns="http://www.w3.org/2000/svg"
   xmlns:xlink="http://www.w3.org/1999/xlink"
   xmlns:sodipodi="http://sodipodi.sourceforge.net/DTD/sodipodi-0.dtd"
   xmlns:inkscape="http://www.inkscape.org/namespaces/inkscape"
   width="128"
   height="128"
   id="svg3832"
   version="1.1"
   inkscape:version="0.48.3.1 r9886"
   sodipodi:docname="huayra-compartir.svg"
   inkscape:export-filename="/home/alumno/Dropbox/huayra/logos/compartir-web.png"
   inkscape:export-xdpi="5.527988"
   inkscape:export-ydpi="5.527988">
  <defs
     id="defs3834">
    <linearGradient
       inkscape:collect="always"
       xlink:href="#linearGradient5316-9"
       id="linearGradient9564"
       gradientUnits="userSpaceOnUse"
       gradientTransform="matrix(5.3340589,0,0,5.3340589,-3015.3072,-6081.1141)"
       x1="280.65372"
       y1="1100.6647"
       x2="292.69617"
       y2="1118.8726" />
    <linearGradient
       id="linearGradient5316-9">
      <stop
         style="stop-color:#b995da;stop-opacity:1;"
         offset="0"
         id="stop5320-0" />
      <stop
         style="stop-color:#766287;stop-opacity:1;"
         offset="1"
         id="stop5322-56" />
    </linearGradient>
    <linearGradient
       inkscape:collect="always"
       xlink:href="#linearGradient5165-7-9-8-2-5"
       id="linearGradient9562"
       gradientUnits="userSpaceOnUse"
       gradientTransform="matrix(5.3340589,0,0,5.3340589,-3015.3072,-6081.1141)"
       x1="275.29071"
       y1="1094.0099"
       x2="275.29071"
       y2="1117.1519" />
    <linearGradient
       id="linearGradient5165-7-9-8-2-5">
      <stop
         id="stop5167-4-8-6-9-94"
         style="stop-color:#ffffff;stop-opacity:1"
         offset="0" />
      <stop
         id="stop5169-5-5-2-9-3"
         style="stop-color:#ffffff;stop-opacity:0"
         offset="1" />
    </linearGradient>
    <linearGradient
       inkscape:collect="always"
       xlink:href="#linearGradient5316-9"
       id="linearGradient9560"
       gradientUnits="userSpaceOnUse"
       gradientTransform="matrix(5.3340589,0,0,5.3340589,-3015.3072,-6081.1141)"
       x1="275.29071"
       y1="1103.7349"
       x2="275.29071"
       y2="1121.6162" />
  </defs>
  <sodipodi:namedview
     id="base"
     pagecolor="#e6e7e8"
     bordercolor="#666666"
     borderopacity="1.0"
     inkscape:pageopacity="0"
     inkscape:pageshadow="2"
     inkscape:zoom="1.979899"
     inkscape:cx="206.01851"
     inkscape:cy="44.292851"
     inkscape:document-units="px"
     inkscape:current-layer="layer1"
     showgrid="false"
     showguides="false"
     inkscape:window-width="1366"
     inkscape:window-height="717"
     inkscape:window-x="0"
     inkscape:window-y="0"
     inkscape:window-maximized="1"
     fit-margin-top="0"
     fit-margin-left="0"
     fit-margin-right="0"
     fit-margin-bottom="0"
     showborder="true"
     inkscape:showpageshadow="false" />
  <metadata
     id="metadata3837">
    <rdf:RDF>
      <cc:Work
         rdf:about="">
        <dc:format>image/svg+xml</dc:format>
        <dc:type
           rdf:resource="http://purl.org/dc/dcmitype/StillImage" />
        <dc:title />
      </cc:Work>
    </rdf:RDF>
  </metadata>
  <g
     inkscape:label="Capa 1"
     inkscape:groupmode="layer"
     id="layer1"
     transform="translate(1563.7749,216.58422)">
    <g
       id="g4870"
       transform="translate(-1640,511.42857)">
      <path
         inkscape:transform-center-y="1.4467684"
         inkscape:transform-center-x="-15.417242"
         transform="matrix(-0.07382585,0.66627789,-0.7289839,-0.03741284,-1495.8598,1738.7622)"
         d="m -364.28571,263.79074 c 0,46.54971 -20.46699,84.28571 -45.71429,84.28571 -25.2473,0 -45.71429,-37.736 -45.71429,-84.28571 0,-46.54971 20.46699,-84.28571 45.71429,-84.28571 25.2473,0 45.71429,37.736 45.71429,84.28571 z"
         sodipodi:ry="84.285713"
         sodipodi:rx="45.714287"
         sodipodi:cy="263.79074"
         sodipodi:cx="-410"
         id="path3848-2-9-2-9-8-4-6-3-9"
         style="fill:#cccccc;fill-opacity:0.59215686;stroke:none"
         sodipodi:type="arc" />
      <path
         sodipodi:open="true"
         sodipodi:end="6.0900184"
         sodipodi:start="0"
         d="m -362.85715,420.93362 c 0,34.71505 -28.1421,62.85715 -62.85714,62.85715 -34.71505,0 -62.85715,-28.1421 -62.85715,-62.85715 0,-34.71504 28.1421,-62.85714 62.85715,-62.85714 30.06277,0 55.91699,21.28695 61.68807,50.79059"
         sodipodi:ry="62.857143"
         sodipodi:rx="62.857143"
         sodipodi:cy="420.93362"
         sodipodi:cx="-425.71429"
         id="path3846-7-4-3-2"
         style="fill:#4e4e4e;fill-opacity:0.59215686;stroke:none"
         sodipodi:type="arc"
         transform="matrix(0.66916078,0,0,0.66916078,-1257.8314,1170.2401)" />
      <path
         transform="matrix(0.66916078,0,0,0.66916078,-1270.2586,1166.4163)"
         sodipodi:open="true"
         sodipodi:end="6.0900184"
         sodipodi:start="0"
         d="m -364.28571,263.79074 c 0,46.54971 -20.46699,84.28571 -45.71429,84.28571 -25.2473,0 -45.71429,-37.736 -45.71429,-84.28571 0,-46.54971 20.46699,-84.28571 45.71429,-84.28571 21.86383,0 40.6669,28.54387 44.86406,68.10556"
         sodipodi:ry="84.285713"
         sodipodi:rx="45.714287"
         sodipodi:cy="263.79074"
         sodipodi:cx="-410"
         id="path3848-7-6-4-3"
         style="opacity:0.59080003;fill:#4d4d4d;fill-opacity:1;stroke:none"
         sodipodi:type="arc" />
      <path
         transform="matrix(0.54569345,-0.38729164,0.38729164,0.54569345,-1502.2235,1067.1267)"
         sodipodi:open="true"
         sodipodi:end="6.0900184"
         sodipodi:start="0"
         d="m -364.28571,263.79074 c 0,46.54971 -20.46699,84.28571 -45.71429,84.28571 -25.2473,0 -45.71429,-37.736 -45.71429,-84.28571 0,-46.54971 20.46699,-84.28571 45.71429,-84.28571 21.86383,0 40.6669,28.54387 44.86406,68.10556"
         sodipodi:ry="84.285713"
         sodipodi:rx="45.714287"
         sodipodi:cy="263.79074"
         sodipodi:cx="-410"
         id="path3848-2-6-2-8-5"
         style="opacity:0.59080003;fill:#4d4d4d;stroke:#917c6f"
         sodipodi:type="arc" />
      <path
         inkscape:transform-center-y="8.6079444"
         inkscape:transform-center-x="11.306638"
         transform="matrix(-0.40836126,-0.53079875,0.51145405,-0.43171811,-1927.2952,1429.3614)"
         sodipodi:open="true"
         sodipodi:end="6.0900184"
         sodipodi:start="0"
         d="m -364.28571,263.79074 c 0,46.54971 -20.46699,84.28571 -45.71429,84.28571 -25.2473,0 -45.71429,-37.736 -45.71429,-84.28571 0,-46.54971 20.46699,-84.28571 45.71429,-84.28571 21.86383,0 40.6669,28.54387 44.86406,68.10556"
         sodipodi:ry="84.285713"
         sodipodi:rx="45.714287"
         sodipodi:cy="263.79074"
         sodipodi:cx="-410"
         id="path3848-2-9-2-2-5-3-2"
         style="opacity:0.59080003;fill:#4d4d4d;fill-opacity:1;stroke:none"
         sodipodi:type="arc" />
      <path
         inkscape:transform-center-y="14.211091"
         inkscape:transform-center-x="-0.25261687"
         transform="matrix(-0.66952916,0.01539325,-0.04566812,-0.66774262,-1800.5271,1744.401)"
         sodipodi:open="true"
         sodipodi:end="6.0900184"
         sodipodi:start="0"
         d="m -364.28571,263.79074 c 0,46.54971 -20.46699,84.28571 -45.71429,84.28571 -25.2473,0 -45.71429,-37.736 -45.71429,-84.28571 0,-46.54971 20.46699,-84.28571 45.71429,-84.28571 21.86383,0 40.6669,28.54387 44.86406,68.10556"
         sodipodi:ry="84.285713"
         sodipodi:rx="45.714287"
         sodipodi:cy="263.79074"
         sodipodi:cx="-410"
         id="path3848-2-9-2-9-38-6-9-1"
         style="opacity:0.59080003;fill:#4d4d4d;fill-opacity:1;stroke:none"
         sodipodi:type="arc" />
      <path
         inkscape:transform-center-y="10.433442"
         inkscape:transform-center-x="9.6498688"
         transform="matrix(-0.49396663,-0.45222032,0.42912941,-0.513628,-1775.3756,1315.4436)"
         sodipodi:open="true"
         sodipodi:end="6.0900184"
         sodipodi:start="0"
         d="m -364.28571,263.79074 c 0,46.54971 -20.46699,84.28571 -45.71429,84.28571 -25.2473,0 -45.71429,-37.736 -45.71429,-84.28571 0,-46.54971 20.46699,-84.28571 45.71429,-84.28571 21.86383,0 40.6669,28.54387 44.86406,68.10556"
         sodipodi:ry="84.285713"
         sodipodi:rx="45.714287"
         sodipodi:cy="263.79074"
         sodipodi:cx="-410"
         id="path3848-2-9-2-9-3-5-2-6-5"
         style="opacity:0.59080003;fill:#4d4d4d;fill-opacity:1;stroke:none"
         sodipodi:type="arc" />
      <path
         inkscape:transform-center-y="8.7985371"
         inkscape:transform-center-x="-11.16174"
         transform="matrix(-0.41187846,0.52807421,-0.54585438,-0.38730967,-1479.8009,1841.4917)"
         sodipodi:open="true"
         sodipodi:end="6.0900184"
         sodipodi:start="0"
         d="m -364.28571,263.79074 c 0,46.54971 -20.46699,84.28571 -45.71429,84.28571 -25.2473,0 -45.71429,-37.736 -45.71429,-84.28571 0,-46.54971 20.46699,-84.28571 45.71429,-84.28571 21.86383,0 40.6669,28.54387 44.86406,68.10556"
         sodipodi:ry="84.285713"
         sodipodi:rx="45.714287"
         sodipodi:cy="263.79074"
         sodipodi:cx="-410"
         id="path3848-2-9-2-9-8-7-7-9-5"
         style="opacity:0.59080003;fill:#4d4d4d;fill-opacity:1;stroke:none"
         sodipodi:type="arc" />
      <path
         inkscape:transform-center-y="1.4468098"
         inkscape:transform-center-x="-14.132917"
         transform="matrix(-0.0676758,0.66627789,-0.66825598,-0.03741284,-1279.5174,1732.6787)"
         sodipodi:open="true"
         sodipodi:end="6.0900184"
         sodipodi:start="0"
         d="m -364.28571,263.79074 c 0,46.54971 -20.46699,84.28571 -45.71429,84.28571 -25.2473,0 -45.71429,-37.736 -45.71429,-84.28571 0,-46.54971 20.46699,-84.28571 45.71429,-84.28571 21.86383,0 40.6669,28.54387 44.86406,68.10556"
         sodipodi:ry="84.285713"
         sodipodi:rx="45.714287"
         sodipodi:cy="263.79074"
         sodipodi:cx="-410"
         id="path3848-2-9-2-9-8-4-6-0-4-2"
         style="opacity:0.59080003;fill:#4d4d4d;fill-opacity:1;stroke:none"
         sodipodi:type="arc" />
    </g>
    <g
       id="g4858"
       transform="translate(-1142.8571,897.14286)">
      <g
         id="g4738">
        <path
           sodipodi:type="arc"
           style="opacity:0.59080003;fill:#aad400;fill-opacity:1;stroke:none"
           id="path3848-2-9-2-9-8-4-6-3-9-5"
           sodipodi:cx="-410"
           sodipodi:cy="263.79074"
           sodipodi:rx="45.714287"
           sodipodi:ry="84.285713"
           d="m -364.28571,263.79074 c 0,46.54971 -20.46699,84.28571 -45.71429,84.28571 -25.2473,0 -45.71429,-37.736 -45.71429,-84.28571 0,-46.54971 20.46699,-84.28571 45.71429,-84.28571 25.2473,0 45.71429,37.736 45.71429,84.28571 z"
           transform="matrix(-0.07382585,0.66627789,-0.7289839,-0.03741284,-1502.9512,1365.0058)"
           inkscape:transform-center-x="-15.417242"
           inkscape:transform-center-y="1.4467684" />
        <path
           transform="matrix(0.66916078,0,0,0.66916078,-1264.9228,796.48368)"
           sodipodi:type="arc"
           style="fill:#4d4d4d;fill-opacity:0.59215686;stroke:none"
           id="path3846-7-4-3-2-5"
           sodipodi:cx="-425.71429"
           sodipodi:cy="420.93362"
           sodipodi:rx="62.857143"
           sodipodi:ry="62.857143"
           d="m -362.85715,420.93362 c 0,34.71505 -28.1421,62.85715 -62.85714,62.85715 -34.71505,0 -62.85715,-28.1421 -62.85715,-62.85715 0,-34.71504 28.1421,-62.85714 62.85715,-62.85714 30.06277,0 55.91699,21.28695 61.68807,50.79059"
           sodipodi:start="0"
           sodipodi:end="6.0900184"
           sodipodi:open="true" />
        <path
           sodipodi:type="arc"
           style="opacity:0.59080003;fill:#4d4d4d;fill-opacity:1;stroke:none"
           id="path3848-7-6-4-3-5"
           sodipodi:cx="-410"
           sodipodi:cy="263.79074"
           sodipodi:rx="45.714287"
           sodipodi:ry="84.285713"
           d="m -364.28571,263.79074 c 0,46.54971 -20.46699,84.28571 -45.71429,84.28571 -25.2473,0 -45.71429,-37.736 -45.71429,-84.28571 0,-46.54971 20.46699,-84.28571 45.71429,-84.28571 21.86383,0 40.6669,28.54387 44.86406,68.10556"
           sodipodi:start="0"
           sodipodi:end="6.0900184"
           sodipodi:open="true"
           transform="matrix(0.66916078,0,0,0.66916078,-1277.35,792.65988)" />
        <path
           sodipodi:type="arc"
           style="opacity:0.59080003;fill:#4d4d4d;stroke:#917c6f"
           id="path3848-2-6-2-8-5-3"
           sodipodi:cx="-410"
           sodipodi:cy="263.79074"
           sodipodi:rx="45.714287"
           sodipodi:ry="84.285713"
           d="m -364.28571,263.79074 c 0,46.54971 -20.46699,84.28571 -45.71429,84.28571 -25.2473,0 -45.71429,-37.736 -45.71429,-84.28571 0,-46.54971 20.46699,-84.28571 45.71429,-84.28571 21.86383,0 40.6669,28.54387 44.86406,68.10556"
           sodipodi:start="0"
           sodipodi:end="6.0900184"
           sodipodi:open="true"
           transform="matrix(0.54569345,-0.38729164,0.38729164,0.54569345,-1509.3149,693.37028)" />
        <path
           sodipodi:type="arc"
           style="opacity:0.59080003;fill:#4d4d4d;fill-opacity:1;stroke:none"
           id="path3848-2-9-2-2-5-3-2-2"
           sodipodi:cx="-410"
           sodipodi:cy="263.79074"
           sodipodi:rx="45.714287"
           sodipodi:ry="84.285713"
           d="m -364.28571,263.79074 c 0,46.54971 -20.46699,84.28571 -45.71429,84.28571 -25.2473,0 -45.71429,-37.736 -45.71429,-84.28571 0,-46.54971 20.46699,-84.28571 45.71429,-84.28571 21.86383,0 40.6669,28.54387 44.86406,68.10556"
           sodipodi:start="0"
           sodipodi:end="6.0900184"
           sodipodi:open="true"
           transform="matrix(-0.40836126,-0.53079875,0.51145405,-0.43171811,-1934.3866,1055.605)"
           inkscape:transform-center-x="11.306638"
           inkscape:transform-center-y="8.6079444" />
        <path
           sodipodi:type="arc"
           style="opacity:0.59080003;fill:#4d4d4d;fill-opacity:1;stroke:none"
           id="path3848-2-9-2-9-38-6-9-1-8"
           sodipodi:cx="-410"
           sodipodi:cy="263.79074"
           sodipodi:rx="45.714287"
           sodipodi:ry="84.285713"
           d="m -364.28571,263.79074 c 0,46.54971 -20.46699,84.28571 -45.71429,84.28571 -25.2473,0 -45.71429,-37.736 -45.71429,-84.28571 0,-46.54971 20.46699,-84.28571 45.71429,-84.28571 21.86383,0 40.6669,28.54387 44.86406,68.10556"
           sodipodi:start="0"
           sodipodi:end="6.0900184"
           sodipodi:open="true"
           transform="matrix(-0.66952916,0.01539325,-0.04566812,-0.66774262,-1807.6185,1370.6446)"
           inkscape:transform-center-x="-0.25261687"
           inkscape:transform-center-y="14.211091" />
        <path
           sodipodi:type="arc"
           style="opacity:0.59080003;fill:#4d4d4d;fill-opacity:1;stroke:none"
           id="path3848-2-9-2-9-3-5-2-6-5-6"
           sodipodi:cx="-410"
           sodipodi:cy="263.79074"
           sodipodi:rx="45.714287"
           sodipodi:ry="84.285713"
           d="m -364.28571,263.79074 c 0,46.54971 -20.46699,84.28571 -45.71429,84.28571 -25.2473,0 -45.71429,-37.736 -45.71429,-84.28571 0,-46.54971 20.46699,-84.28571 45.71429,-84.28571 21.86383,0 40.6669,28.54387 44.86406,68.10556"
           sodipodi:start="0"
           sodipodi:end="6.0900184"
           sodipodi:open="true"
           transform="matrix(-0.49396663,-0.45222032,0.42912941,-0.513628,-1782.467,941.68718)"
           inkscape:transform-center-x="9.6498688"
           inkscape:transform-center-y="10.433442" />
        <path
           sodipodi:type="arc"
           style="opacity:0.59080003;fill:#4d4d4d;fill-opacity:1;stroke:none"
           id="path3848-2-9-2-9-8-7-7-9-5-7"
           sodipodi:cx="-410"
           sodipodi:cy="263.79074"
           sodipodi:rx="45.714287"
           sodipodi:ry="84.285713"
           d="m -364.28571,263.79074 c 0,46.54971 -20.46699,84.28571 -45.71429,84.28571 -25.2473,0 -45.71429,-37.736 -45.71429,-84.28571 0,-46.54971 20.46699,-84.28571 45.71429,-84.28571 21.86383,0 40.6669,28.54387 44.86406,68.10556"
           sodipodi:start="0"
           sodipodi:end="6.0900184"
           sodipodi:open="true"
           transform="matrix(-0.41187846,0.52807421,-0.54585438,-0.38730967,-1486.8923,1467.7353)"
           inkscape:transform-center-x="-11.16174"
           inkscape:transform-center-y="8.7985371" />
        <path
           sodipodi:type="arc"
           style="opacity:0.59080003;fill:#4d4d4d;fill-opacity:1;stroke:none"
           id="path3848-2-9-2-9-8-4-6-0-4-2-2"
           sodipodi:cx="-410"
           sodipodi:cy="263.79074"
           sodipodi:rx="45.714287"
           sodipodi:ry="84.285713"
           d="m -364.28571,263.79074 c 0,46.54971 -20.46699,84.28571 -45.71429,84.28571 -25.2473,0 -45.71429,-37.736 -45.71429,-84.28571 0,-46.54971 20.46699,-84.28571 45.71429,-84.28571 21.86383,0 40.6669,28.54387 44.86406,68.10556"
           sodipodi:start="0"
           sodipodi:end="6.0900184"
           sodipodi:open="true"
           transform="matrix(-0.0676758,0.66627789,-0.66825598,-0.03741284,-1286.6088,1358.9223)"
           inkscape:transform-center-x="-14.132917"
           inkscape:transform-center-y="1.4468098" />
      </g>
    </g>
    <path
       sodipodi:type="arc"
       style="opacity:0.59080003;fill:#aad400;fill-opacity:1;stroke:none"
       id="path3848-2-9-2-9-8-4-6-3-9-5-3"
       sodipodi:cx="-410"
       sodipodi:cy="263.79074"
       sodipodi:rx="45.714287"
       sodipodi:ry="84.285713"
       d="m -364.28571,263.79074 c 0,46.54971 -20.46699,84.28571 -45.71429,84.28571 -25.2473,0 -45.71429,-37.736 -45.71429,-84.28571 0,-46.54971 20.46699,-84.28571 45.71429,-84.28571 25.2473,0 45.71429,37.736 45.71429,84.28571 z"
       transform="matrix(-0.07382585,0.66627789,-0.7289839,-0.03741284,-2246.0407,2255.8847)"
       inkscape:transform-center-x="-15.417242"
       inkscape:transform-center-y="1.4467684" />
    <path
       transform="matrix(0.66916078,0,0,0.66916078,-2008.0123,1687.3626)"
       sodipodi:type="arc"
       style="fill:#4d4d4d;fill-opacity:0.59215686;stroke:none"
       id="path3846-7-4-3-2-5-0"
       sodipodi:cx="-425.71429"
       sodipodi:cy="420.93362"
       sodipodi:rx="62.857143"
       sodipodi:ry="62.857143"
       d="m -362.85715,420.93362 c 0,34.71505 -28.1421,62.85715 -62.85714,62.85715 -34.71505,0 -62.85715,-28.1421 -62.85715,-62.85715 0,-34.71504 28.1421,-62.85714 62.85715,-62.85714 30.06277,0 55.91699,21.28695 61.68807,50.79059"
       sodipodi:start="0"
       sodipodi:end="6.0900184"
       sodipodi:open="true" />
    <path
       sodipodi:type="arc"
       style="opacity:0.59080003;fill:#4d4d4d;fill-opacity:1;stroke:none"
       id="path3848-7-6-4-3-5-73"
       sodipodi:cx="-410"
       sodipodi:cy="263.79074"
       sodipodi:rx="45.714287"
       sodipodi:ry="84.285713"
       d="m -364.28571,263.79074 c 0,46.54971 -20.46699,84.28571 -45.71429,84.28571 -25.2473,0 -45.71429,-37.736 -45.71429,-84.28571 0,-46.54971 20.46699,-84.28571 45.71429,-84.28571 21.86383,0 40.6669,28.54387 44.86406,68.10556"
       sodipodi:start="0"
       sodipodi:end="6.0900184"
       sodipodi:open="true"
       transform="matrix(0.66916078,0,0,0.66916078,-2020.4395,1683.5388)" />
    <path
       sodipodi:type="arc"
       style="opacity:0.59080003;fill:#4d4d4d;stroke:#917c6f"
       id="path3848-2-6-2-8-5-3-5"
       sodipodi:cx="-410"
       sodipodi:cy="263.79074"
       sodipodi:rx="45.714287"
       sodipodi:ry="84.285713"
       d="m -364.28571,263.79074 c 0,46.54971 -20.46699,84.28571 -45.71429,84.28571 -25.2473,0 -45.71429,-37.736 -45.71429,-84.28571 0,-46.54971 20.46699,-84.28571 45.71429,-84.28571 21.86383,0 40.6669,28.54387 44.86406,68.10556"
       sodipodi:start="0"
       sodipodi:end="6.0900184"
       sodipodi:open="true"
       transform="matrix(0.54569345,-0.38729164,0.38729164,0.54569345,-2252.4044,1584.2492)" />
    <path
       sodipodi:type="arc"
       style="opacity:0.59080003;fill:#4d4d4d;fill-opacity:1;stroke:none"
       id="path3848-2-9-2-2-5-3-2-2-49"
       sodipodi:cx="-410"
       sodipodi:cy="263.79074"
       sodipodi:rx="45.714287"
       sodipodi:ry="84.285713"
       d="m -364.28571,263.79074 c 0,46.54971 -20.46699,84.28571 -45.71429,84.28571 -25.2473,0 -45.71429,-37.736 -45.71429,-84.28571 0,-46.54971 20.46699,-84.28571 45.71429,-84.28571 21.86383,0 40.6669,28.54387 44.86406,68.10556"
       sodipodi:start="0"
       sodipodi:end="6.0900184"
       sodipodi:open="true"
       transform="matrix(-0.40836126,-0.53079875,0.51145405,-0.43171811,-2677.4761,1946.4839)"
       inkscape:transform-center-x="11.306638"
       inkscape:transform-center-y="8.6079444" />
    <path
       sodipodi:type="arc"
       style="opacity:0.59080003;fill:#4d4d4d;fill-opacity:1;stroke:none"
       id="path3848-2-9-2-9-38-6-9-1-8-41"
       sodipodi:cx="-410"
       sodipodi:cy="263.79074"
       sodipodi:rx="45.714287"
       sodipodi:ry="84.285713"
       d="m -364.28571,263.79074 c 0,46.54971 -20.46699,84.28571 -45.71429,84.28571 -25.2473,0 -45.71429,-37.736 -45.71429,-84.28571 0,-46.54971 20.46699,-84.28571 45.71429,-84.28571 21.86383,0 40.6669,28.54387 44.86406,68.10556"
       sodipodi:start="0"
       sodipodi:end="6.0900184"
       sodipodi:open="true"
       transform="matrix(-0.66952916,0.01539325,-0.04566812,-0.66774262,-2550.708,2261.5235)"
       inkscape:transform-center-x="-0.25261687"
       inkscape:transform-center-y="14.211091" />
    <path
       sodipodi:type="arc"
       style="opacity:0.59080003;fill:#4d4d4d;fill-opacity:1;stroke:none"
       id="path3848-2-9-2-9-3-5-2-6-5-6-8"
       sodipodi:cx="-410"
       sodipodi:cy="263.79074"
       sodipodi:rx="45.714287"
       sodipodi:ry="84.285713"
       d="m -364.28571,263.79074 c 0,46.54971 -20.46699,84.28571 -45.71429,84.28571 -25.2473,0 -45.71429,-37.736 -45.71429,-84.28571 0,-46.54971 20.46699,-84.28571 45.71429,-84.28571 21.86383,0 40.6669,28.54387 44.86406,68.10556"
       sodipodi:start="0"
       sodipodi:end="6.0900184"
       sodipodi:open="true"
       transform="matrix(-0.49396663,-0.45222032,0.42912941,-0.513628,-2525.5565,1832.5661)"
       inkscape:transform-center-x="9.6498688"
       inkscape:transform-center-y="10.433442" />
    <path
       sodipodi:type="arc"
       style="opacity:0.59080003;fill:#4d4d4d;fill-opacity:1;stroke:none"
       id="path3848-2-9-2-9-8-7-7-9-5-7-6"
       sodipodi:cx="-410"
       sodipodi:cy="263.79074"
       sodipodi:rx="45.714287"
       sodipodi:ry="84.285713"
       d="m -364.28571,263.79074 c 0,46.54971 -20.46699,84.28571 -45.71429,84.28571 -25.2473,0 -45.71429,-37.736 -45.71429,-84.28571 0,-46.54971 20.46699,-84.28571 45.71429,-84.28571 21.86383,0 40.6669,28.54387 44.86406,68.10556"
       sodipodi:start="0"
       sodipodi:end="6.0900184"
       sodipodi:open="true"
       transform="matrix(-0.41187846,0.52807421,-0.54585438,-0.38730967,-2229.9818,2358.6142)"
       inkscape:transform-center-x="-11.16174"
       inkscape:transform-center-y="8.7985371" />
    <path
       sodipodi:type="arc"
       style="opacity:0.59080003;fill:#4d4d4d;fill-opacity:1;stroke:none"
       id="path3848-2-9-2-9-8-4-6-0-4-2-2-1"
       sodipodi:cx="-410"
       sodipodi:cy="263.79074"
       sodipodi:rx="45.714287"
       sodipodi:ry="84.285713"
       d="m -364.28571,263.79074 c 0,46.54971 -20.46699,84.28571 -45.71429,84.28571 -25.2473,0 -45.71429,-37.736 -45.71429,-84.28571 0,-46.54971 20.46699,-84.28571 45.71429,-84.28571 21.86383,0 40.6669,28.54387 44.86406,68.10556"
       sodipodi:start="0"
       sodipodi:end="6.0900184"
       sodipodi:open="true"
       transform="matrix(-0.0676758,0.66627789,-0.66825598,-0.03741284,-2029.6983,2249.8012)"
       inkscape:transform-center-x="-14.132917"
       inkscape:transform-center-y="1.4468098" />
    <path
       style="opacity:0.59080003;fill:#4d4d4d;fill-opacity:1;stroke:none"
       d="m -2407.1562,1942.5312 0,61.0313 c 0.1667,0.01 0.3327,0.022 0.5,0.031 l 10.875,0.031 c 26.7213,-1.3164 47.0515,-12.7764 48.5312,-27.3438 1.7086,-16.8217 -22.1116,-31.8521 -53.2188,-33.5937 -2.2539,-0.1262 -4.4886,-0.1731 -6.6874,-0.1563 z"
       id="path3848-2-9-2-9-8-4-6-0-4-2-2-1-8"
       inkscape:connector-curvature="0" />
    <path
       sodipodi:type="arc"
       style="opacity:0.59080003;fill:#aad400;fill-opacity:1;stroke:none"
       id="path3848-2-9-2-9-8-4-6-3-9-5-3-4"
       sodipodi:cx="-410"
       sodipodi:cy="263.79074"
       sodipodi:rx="45.714287"
       sodipodi:ry="84.285713"
       d="m -364.28571,263.79074 c 0,46.54971 -20.46699,84.28571 -45.71429,84.28571 -25.2473,0 -45.71429,-37.736 -45.71429,-84.28571 0,-46.54971 20.46699,-84.28571 45.71429,-84.28571 25.2473,0 45.71429,37.736 45.71429,84.28571 z"
       transform="matrix(-0.07382585,0.66627789,-0.7289839,-0.03741284,-1823.1835,2254.4561)"
       inkscape:transform-center-x="-15.417242"
       inkscape:transform-center-y="1.4467684" />
    <path
       transform="matrix(0.66916078,0,0,0.66916078,-1585.1551,1685.934)"
       sodipodi:type="arc"
       style="fill:#4d4d4d;fill-opacity:0.59215686;stroke:none"
       id="path3846-7-4-3-2-5-0-2"
       sodipodi:cx="-425.71429"
       sodipodi:cy="420.93362"
       sodipodi:rx="62.857143"
       sodipodi:ry="62.857143"
       d="m -362.85715,420.93362 c 0,34.71505 -28.1421,62.85715 -62.85714,62.85715 -34.71505,0 -62.85715,-28.1421 -62.85715,-62.85715 0,-34.71504 28.1421,-62.85714 62.85715,-62.85714 30.06277,0 55.91699,21.28695 61.68807,50.79059"
       sodipodi:start="0"
       sodipodi:end="6.0900184"
       sodipodi:open="true" />
    <path
       sodipodi:type="arc"
       style="opacity:0.59080003;fill:#4d4d4d;fill-opacity:1;stroke:none"
       id="path3848-7-6-4-3-5-73-5"
       sodipodi:cx="-410"
       sodipodi:cy="263.79074"
       sodipodi:rx="45.714287"
       sodipodi:ry="84.285713"
       d="m -364.28571,263.79074 c 0,46.54971 -20.46699,84.28571 -45.71429,84.28571 -25.2473,0 -45.71429,-37.736 -45.71429,-84.28571 0,-46.54971 20.46699,-84.28571 45.71429,-84.28571 21.86383,0 40.6669,28.54387 44.86406,68.10556"
       sodipodi:start="0"
       sodipodi:end="6.0900184"
       sodipodi:open="true"
       transform="matrix(0.66916078,0,0,0.66916078,-1597.5823,1682.1102)" />
    <path
       sodipodi:type="arc"
       style="opacity:0.59080003;fill:#4d4d4d;stroke:#917c6f"
       id="path3848-2-6-2-8-5-3-5-3"
       sodipodi:cx="-410"
       sodipodi:cy="263.79074"
       sodipodi:rx="45.714287"
       sodipodi:ry="84.285713"
       d="m -364.28571,263.79074 c 0,46.54971 -20.46699,84.28571 -45.71429,84.28571 -25.2473,0 -45.71429,-37.736 -45.71429,-84.28571 0,-46.54971 20.46699,-84.28571 45.71429,-84.28571 21.86383,0 40.6669,28.54387 44.86406,68.10556"
       sodipodi:start="0"
       sodipodi:end="6.0900184"
       sodipodi:open="true"
       transform="matrix(0.54569345,-0.38729164,0.38729164,0.54569345,-1829.5472,1582.8206)" />
    <path
       sodipodi:type="arc"
       style="opacity:0.59080003;fill:#4d4d4d;fill-opacity:1;stroke:none"
       id="path3848-2-9-2-2-5-3-2-2-49-0"
       sodipodi:cx="-410"
       sodipodi:cy="263.79074"
       sodipodi:rx="45.714287"
       sodipodi:ry="84.285713"
       d="m -364.28571,263.79074 c 0,46.54971 -20.46699,84.28571 -45.71429,84.28571 -25.2473,0 -45.71429,-37.736 -45.71429,-84.28571 0,-46.54971 20.46699,-84.28571 45.71429,-84.28571 21.86383,0 40.6669,28.54387 44.86406,68.10556"
       sodipodi:start="0"
       sodipodi:end="6.0900184"
       sodipodi:open="true"
       transform="matrix(-0.40836126,-0.53079875,0.51145405,-0.43171811,-2254.6189,1945.0553)"
       inkscape:transform-center-x="11.306638"
       inkscape:transform-center-y="8.6079444" />
    <path
       sodipodi:type="arc"
       style="opacity:0.59080003;fill:#4d4d4d;fill-opacity:1;stroke:none"
       id="path3848-2-9-2-9-38-6-9-1-8-41-2"
       sodipodi:cx="-410"
       sodipodi:cy="263.79074"
       sodipodi:rx="45.714287"
       sodipodi:ry="84.285713"
       d="m -364.28571,263.79074 c 0,46.54971 -20.46699,84.28571 -45.71429,84.28571 -25.2473,0 -45.71429,-37.736 -45.71429,-84.28571 0,-46.54971 20.46699,-84.28571 45.71429,-84.28571 21.86383,0 40.6669,28.54387 44.86406,68.10556"
       sodipodi:start="0"
       sodipodi:end="6.0900184"
       sodipodi:open="true"
       transform="matrix(-0.66952916,0.01539325,-0.04566812,-0.66774262,-2127.8508,2260.0949)"
       inkscape:transform-center-x="-0.25261687"
       inkscape:transform-center-y="14.211091" />
    <path
       sodipodi:type="arc"
       style="opacity:0.59080003;fill:#4d4d4d;fill-opacity:1;stroke:none"
       id="path3848-2-9-2-9-3-5-2-6-5-6-8-8"
       sodipodi:cx="-410"
       sodipodi:cy="263.79074"
       sodipodi:rx="45.714287"
       sodipodi:ry="84.285713"
       d="m -364.28571,263.79074 c 0,46.54971 -20.46699,84.28571 -45.71429,84.28571 -25.2473,0 -45.71429,-37.736 -45.71429,-84.28571 0,-46.54971 20.46699,-84.28571 45.71429,-84.28571 21.86383,0 40.6669,28.54387 44.86406,68.10556"
       sodipodi:start="0"
       sodipodi:end="6.0900184"
       sodipodi:open="true"
       transform="matrix(-0.49396663,-0.45222032,0.42912941,-0.513628,-2102.6993,1831.1375)"
       inkscape:transform-center-x="9.6498688"
       inkscape:transform-center-y="10.433442" />
    <path
       sodipodi:type="arc"
       style="opacity:0.59080003;fill:#4d4d4d;fill-opacity:1;stroke:none"
       id="path3848-2-9-2-9-8-7-7-9-5-7-6-6"
       sodipodi:cx="-410"
       sodipodi:cy="263.79074"
       sodipodi:rx="45.714287"
       sodipodi:ry="84.285713"
       d="m -364.28571,263.79074 c 0,46.54971 -20.46699,84.28571 -45.71429,84.28571 -25.2473,0 -45.71429,-37.736 -45.71429,-84.28571 0,-46.54971 20.46699,-84.28571 45.71429,-84.28571 21.86383,0 40.6669,28.54387 44.86406,68.10556"
       sodipodi:start="0"
       sodipodi:end="6.0900184"
       sodipodi:open="true"
       transform="matrix(-0.41187846,0.52807421,-0.54585438,-0.38730967,-1807.1246,2357.1856)"
       inkscape:transform-center-x="-11.16174"
       inkscape:transform-center-y="8.7985371" />
    <path
       sodipodi:type="arc"
       style="opacity:0.59080003;fill:#4d4d4d;fill-opacity:1;stroke:none"
       id="path3848-2-9-2-9-8-4-6-0-4-2-2-1-6"
       sodipodi:cx="-410"
       sodipodi:cy="263.79074"
       sodipodi:rx="45.714287"
       sodipodi:ry="84.285713"
       d="m -364.28571,263.79074 c 0,46.54971 -20.46699,84.28571 -45.71429,84.28571 -25.2473,0 -45.71429,-37.736 -45.71429,-84.28571 0,-46.54971 20.46699,-84.28571 45.71429,-84.28571 21.86383,0 40.6669,28.54387 44.86406,68.10556"
       sodipodi:start="0"
       sodipodi:end="6.0900184"
       sodipodi:open="true"
       transform="matrix(-0.0676758,0.66627789,-0.66825598,-0.03741284,-1606.8411,2248.3726)"
       inkscape:transform-center-x="-14.132917"
       inkscape:transform-center-y="1.4468098" />
    <path
       style="opacity:0.59080003;fill:#4d4d4d;fill-opacity:1;stroke:none"
       d="m -1952.1562,1946.0938 0,52.75 c 15.9136,-4.6472 26.6864,-13.5297 27.75,-24 1.1977,-11.7926 -10.1404,-22.6793 -27.75,-28.75 z"
       id="path3848-2-9-2-9-8-4-6-0-4-2-2-1-8-2"
       inkscape:connector-curvature="0" />
    <g
       style="font-size:160.8941803px;font-style:normal;font-variant:normal;font-weight:normal;font-stretch:normal;line-height:125%;letter-spacing:0px;word-spacing:0px;fill:#000000;fill-opacity:1;stroke:none;font-family:Nanosecond Thick BRK;-inkscape-font-specification:Nanosecond Thick BRK"
       id="text3978-1-6-2"
       transform="matrix(1.8494298,0,0,1.8494298,-207.45938,-1600.0336)">
      <path
         inkscape:connector-curvature="0"
         d="m -2901.2441,1188.305 c 0,-3.3251 -0.8045,-6.2212 -2.4134,-8.6883 -2.5743,-3.8614 -6.6503,-5.7921 -12.228,-5.7922 -5.4704,10e-5 -9.4391,1.8772 -11.9061,5.6313 -1.7162,2.4671 -2.5744,5.4169 -2.5743,8.8492 l 0,47.4638 c -1e-4,3.5397 0.8044,6.4894 2.4134,8.8491 2.3597,3.8615 6.3821,5.7923 12.067,5.7922 5.5777,10e-5 9.6,-1.877 12.0671,-5.6313 1.7162,-2.467 2.5743,-5.4703 2.5743,-9.01 0,-2.467 0.8581,-4.6123 2.5743,-6.4358 1.7162,-1.8234 3.9151,-2.7352 6.5967,-2.7352 2.467,0 4.6122,0.9118 6.4358,2.7352 1.8234,1.8235 2.7351,4.0224 2.7352,6.5967 -1e-4,8.0447 -2.4135,15.124 -7.2403,21.238 -6.114,7.7229 -14.695,11.5844 -25.7431,11.5844 -10.9408,0 -19.4682,-3.8078 -25.5821,-11.4235 -4.9341,-6.2212 -7.4012,-13.3542 -7.4012,-21.3989 l 0,-47.6247 c 0,-7.9374 2.4671,-15.0167 7.4012,-21.238 6.1139,-7.7229 14.6413,-11.5843 25.5821,-11.5844 11.0481,10e-5 19.5755,3.8079 25.5822,11.4235 4.934,6.2213 7.4011,13.3543 7.4012,21.3989 -1e-4,2.5744 -0.8582,4.7733 -2.5744,6.5966 -1.7162,1.8236 -3.9151,2.7353 -6.5966,2.7352 -2.4671,10e-5 -4.6124,-0.9116 -6.4358,-2.7352 -1.8235,-1.8233 -2.7352,-4.0222 -2.7352,-6.5966"
         id="path4918-4"
         style="fill:#000000" />
      <path
         inkscape:connector-curvature="0"
         d="m -2808.74,1235.9297 c -1e-4,8.0447 -2.4135,15.124 -7.2402,21.238 -6.1141,7.7229 -14.6951,11.5844 -25.7431,11.5844 -10.9408,0 -19.4682,-3.8078 -25.5822,-11.4235 -4.9341,-6.2212 -7.4011,-13.3542 -7.4011,-21.3989 0,-8.0447 2.467,-15.1777 7.4011,-21.399 6.114,-7.7228 14.6414,-11.5843 25.5822,-11.5843 11.048,0 19.5754,3.8078 25.5822,11.4234 4.934,6.2213 7.401,13.4079 7.4011,21.5599 m -18.3419,0 c -10e-5,-3.5397 -0.8045,-6.543 -2.4134,-9.0101 -2.4671,-3.7542 -6.5431,-5.6313 -12.228,-5.6313 -5.4704,0 -9.4391,1.8771 -11.9062,5.6313 -1.7162,2.4671 -2.5743,5.4704 -2.5743,9.0101 0,3.5397 0.8045,6.4894 2.4134,8.8491 2.4671,3.7543 6.4894,5.6314 12.0671,5.6313 5.5776,10e-5 9.6,-1.877 12.0671,-5.6313 1.7161,-2.467 2.5742,-5.4167 2.5743,-8.8491"
         id="path4920-2"
         style="fill:#000000" />
      <path
         inkscape:connector-curvature="0"
         d="m -2702.8817,1259.5811 c -1e-4,2.4671 -0.9118,4.6123 -2.7352,6.4358 -1.8235,1.8234 -3.9688,2.7352 -6.4357,2.7352 -2.5744,0 -4.7733,-0.8581 -6.5967,-2.5743 -1.8235,-1.7162 -2.7353,-3.9151 -2.7352,-6.5967 l 0,-23.6514 c -10e-5,-5.5777 -1.8772,-9.6 -5.6313,-12.0671 -2.4671,-1.7162 -5.4168,-2.5743 -8.8492,-2.5743 l -6.5966,0 0,38.2928 c -10e-5,2.4671 -0.9118,4.6123 -2.7352,6.4358 -1.8236,1.8234 -3.9688,2.7352 -6.4358,2.7352 -2.5744,0 -4.7732,-0.8581 -6.5967,-2.5743 -1.8235,-1.7162 -2.7352,-3.9151 -2.7352,-6.5967 l 0,-38.2928 -6.5966,0 c -5.5777,0 -9.6001,1.8771 -12.0671,5.6313 -1.609,2.4671 -2.4134,5.4704 -2.4134,9.0101 l 0,23.6514 c 0,2.4671 -0.9118,4.6123 -2.7352,6.4358 -1.8235,1.8234 -3.9687,2.7352 -6.4358,2.7352 -2.5743,0 -4.7732,-0.8581 -6.5966,-2.5743 -1.8235,-1.7162 -2.7352,-3.9151 -2.7352,-6.5967 l 0,-23.6514 c 0,-8.0447 2.467,-15.1777 7.4011,-21.399 6.114,-7.7228 14.6413,-11.5843 25.5822,-11.5843 l 7.8838,0 c 2.896,0 5.524,0.59 7.8838,1.7698 2.5743,-1.1798 5.2558,-1.7698 8.0447,-1.7698 l 7.8838,0 c 8.1519,0 15.2849,2.4134 21.399,7.2402 7.7228,6.114 11.5842,14.695 11.5843,25.7431 l 0,23.6514"
         id="path4922-1"
         style="fill:#000000" />
      <path
         inkscape:connector-curvature="0"
         d="m -2628.991,1235.9297 c -1e-4,10.9408 -3.8079,19.4145 -11.4235,25.4212 -6.2213,4.9341 -13.4079,7.4012 -21.5598,7.4012 l -14.4805,0 0,14.6413 c 0,2.4671 -0.8581,4.6123 -2.5743,6.4358 -1.7162,1.8235 -3.9151,2.7352 -6.5967,2.7352 -2.5743,0 -4.7732,-0.9117 -6.5966,-2.7352 -1.8235,-1.8235 -2.7352,-3.9687 -2.7352,-6.4358 l 0,-15.9285 c 0,-2.6815 0.6435,-5.3095 1.9307,-7.8838 -1.2872,-2.5743 -1.9307,-5.2022 -1.9307,-7.8838 l 0,-31.6962 c 0,-4.5049 1.448,-8.3664 4.3441,-11.5843 3.3252,-3.6469 7.6157,-5.4704 12.8716,-5.4704 l 15.7676,0 c 8.1519,0 15.2849,2.4134 21.3989,7.2402 7.7229,6.114 11.5843,14.695 11.5844,25.7431 m -18.3419,0 c -1e-4,-5.5777 -1.8772,-9.6 -5.6313,-12.0671 -2.4671,-1.7162 -5.4705,-2.5743 -9.0101,-2.5743 l -14.4805,0 0,29.1218 14.4805,0 c 3.4323,10e-5 6.3821,-0.8044 8.8492,-2.4134 3.8614,-2.3597 5.7921,-6.3821 5.7922,-12.067"
         id="path4924-0"
         style="fill:#000000" />
      <path
         inkscape:connector-curvature="0"
         d="m -2554.8288,1227.885 c -1e-4,2.7888 -0.5901,5.4704 -1.7699,8.0447 1.1798,2.6816 1.7698,5.3095 1.7699,7.8838 l 0,7.8838 c -1e-4,5.2559 -1.8236,9.4928 -5.4704,12.7106 -3.218,2.8961 -7.0794,4.3442 -11.5844,4.3442 l -23.8124,0 c -8.3665,0 -14.8559,-2.8961 -19.4682,-8.6883 -3.7542,-4.7196 -5.6313,-10.1363 -5.6313,-16.2503 0,-2.5743 0.4827,-4.8804 1.4481,-6.9185 0.9654,-2.1452 2.1989,-3.9687 3.7006,-5.4704 1.6089,-1.6089 3.4324,-2.7888 5.4704,-3.5396 2.1452,-0.8581 4.3441,-1.2872 6.5966,-1.2872 l 30.2481,0 c -0.3218,-2.3597 -1.2872,-3.915 -2.8961,-4.6659 -0.7509,-0.429 -1.9307,-0.6436 -3.5396,-0.6436 l -8.0447,0 c -2.4671,0 -4.6124,-0.8581 -6.4358,-2.5743 -1.8235,-1.7162 -2.7352,-3.9151 -2.7352,-6.5967 0,-2.467 0.9117,-4.6122 2.7352,-6.4357 1.8234,-1.8234 3.9687,-2.7352 6.4358,-2.7352 l 8.0447,0 c 8.1519,0 14.5876,2.8961 19.3073,8.6882 3.7541,4.7197 5.6312,10.1364 5.6313,16.2504 m -18.342,22.5251 0,-5.3095 -28.9609,0 c 0.3217,2.3598 1.2871,3.9151 2.8961,4.666 0.7508,0.429 1.9307,0.6436 3.5396,0.6435 l 22.5252,0"
         id="path4926-4"
         style="fill:#000000" />
      <path
         inkscape:connector-curvature="0"
         d="m -2480.9809,1212.1173 c -1e-4,2.5744 -0.9118,4.7733 -2.7352,6.5967 -1.7163,1.7162 -3.8616,2.5743 -6.4358,2.5743 l -23.8123,0 c -5.4705,0 -9.4392,1.8771 -11.9062,5.6313 -1.7162,2.4671 -2.5743,5.4704 -2.5743,9.0101 l 0,23.6514 c 0,2.5743 -0.9118,4.7732 -2.7352,6.5967 -1.7162,1.7162 -3.8615,2.5743 -6.4358,2.5743 -2.5743,0 -4.7732,-0.8581 -6.5967,-2.5743 -1.8234,-1.7162 -2.7352,-3.9151 -2.7352,-6.5967 l 0,-23.6514 c 0,-8.0447 2.4671,-15.1777 7.4012,-21.399 6.1139,-7.7228 14.6413,-11.5843 25.5822,-11.5843 l 23.8123,0 c 2.5742,0 4.7195,0.9118 6.4358,2.7352 1.8234,1.7162 2.7351,3.8615 2.7352,6.4357"
         id="path4928-9"
         style="fill:#000000" />
      <path
         inkscape:connector-curvature="0"
         d="m -2406.8188,1212.1173 c 0,2.5744 -0.9118,4.7733 -2.7352,6.5967 -1.7162,1.7162 -3.8615,2.5743 -6.4357,2.5743 l -14.4805,0 0,38.2928 c -10e-5,2.4671 -0.9118,4.6123 -2.7352,6.4358 -1.8235,1.8234 -4.0224,2.7352 -6.5967,2.7352 -2.4671,0 -4.6123,-0.8581 -6.4357,-2.5743 -1.8235,-1.7162 -2.7353,-3.9151 -2.7352,-6.5967 l 0,-38.2928 -14.4805,0 c -2.5743,0 -4.7732,-0.8581 -6.5967,-2.5743 -1.8235,-1.7162 -2.7352,-3.9151 -2.7352,-6.5967 0,-2.467 0.9117,-4.6122 2.7352,-6.4357 1.8235,-1.8234 4.0224,-2.7352 6.5967,-2.7352 l 14.4805,0 0,-14.6414 c -1e-4,-2.467 0.9117,-4.6122 2.7352,-6.4358 1.8234,-1.8234 3.9686,-2.7351 6.4357,-2.7352 2.5743,10e-5 4.7732,0.9118 6.5967,2.7352 1.8234,1.8236 2.7351,3.9688 2.7352,6.4358 l 0,14.6414 14.4805,0 c 2.5742,0 4.7195,0.9118 6.4357,2.7352 1.8234,1.7162 2.7352,3.8615 2.7352,6.4357"
         id="path4930-5"
         style="fill:#000000" />
      <path
         inkscape:connector-curvature="0"
         d="m -2380.2813,1259.5811 c 0,2.5743 -0.9117,4.7732 -2.7352,6.5967 -1.7162,1.7162 -3.8615,2.5743 -6.4357,2.5743 -2.5744,0 -4.7732,-0.8581 -6.5967,-2.5743 -1.7162,-1.8235 -2.5743,-4.0224 -2.5743,-6.5967 l 0,-47.4638 c 0,-2.5742 0.8581,-4.7195 2.5743,-6.4357 1.8235,-1.8234 4.0223,-2.7352 6.5967,-2.7352 2.5742,0 4.7195,0.9118 6.4357,2.7352 1.8235,1.7162 2.7352,3.8615 2.7352,6.4357 l 0,47.4638 m 0,-71.2761 c 0,2.5744 -0.8581,4.7733 -2.5743,6.5966 -1.7162,1.8236 -3.9151,2.7353 -6.5966,2.7352 -2.4671,10e-5 -4.6124,-0.9116 -6.4358,-2.7352 -1.8235,-1.8233 -2.7352,-4.0222 -2.7352,-6.5966 0,-2.467 0.8581,-4.6122 2.5743,-6.4358 1.7162,-1.8234 3.9151,-2.7351 6.5967,-2.7352 2.467,10e-5 4.6122,0.9118 6.4357,2.7352 1.8235,1.8236 2.7352,3.9688 2.7352,6.4358"
         id="path4932-9"
         style="fill:#000000" />
      <path
         inkscape:connector-curvature="0"
         d="m -2306.2599,1212.1173 c -1e-4,2.5744 -0.9118,4.7733 -2.7352,6.5967 -1.7163,1.7162 -3.8616,2.5743 -6.4358,2.5743 l -23.8123,0 c -5.4705,0 -9.4392,1.8771 -11.9062,5.6313 -1.7162,2.4671 -2.5743,5.4704 -2.5743,9.0101 l 0,23.6514 c 0,2.5743 -0.9118,4.7732 -2.7352,6.5967 -1.7162,1.7162 -3.8615,2.5743 -6.4358,2.5743 -2.5743,0 -4.7732,-0.8581 -6.5966,-2.5743 -1.8235,-1.7162 -2.7353,-3.9151 -2.7352,-6.5967 l 0,-23.6514 c -10e-5,-8.0447 2.467,-15.1777 7.4011,-21.399 6.1139,-7.7228 14.6413,-11.5843 25.5822,-11.5843 l 23.8123,0 c 2.5742,0 4.7195,0.9118 6.4358,2.7352 1.8234,1.7162 2.7351,3.8615 2.7352,6.4357"
         id="path4934-9"
         style="fill:#000000" />
    </g>
    <path
       inkscape:connector-curvature="0"
       style="fill:url(#linearGradient9560);fill-rule:evenodd;stroke:none;display:inline"
       d="m -1532.6056,-210.98228 -19.0027,2.8336 -0.4997,0 0,0.16534 c -5.7155,1.04853 -8.6677,5.60346 -8.6677,11.16773 l 0,84.6784 c -0.069,5.65227 2.0717,10.09733 6.3341,11.5016 l 19.6693,6.167999 0.1654,-8.001329 54.6741,-8.33494 c 5.0824,-0.5504 8.4437,-5.28453 8.1677,-12.0016 l 0.3334,-69.67546 c 0.1973,-5.3 -2.5219,-9.62 -8.3344,-10.50187 l -52.8406,-4.00053 0,-4.00054 z"
       id="path9545" />
    <path
       inkscape:connector-curvature="0"
       id="path9547"
       d="m -1532.6056,-210.98228 -19.0027,2.8336 -0.4997,0 0,0.16534 c -5.7155,1.04853 -8.6677,5.60346 -8.6677,11.16773 l 0,74.77733 89.012,-0.7672 0.3333,-69.67546 c 0.1973,-5.3 -2.5219,-9.62 -8.3344,-10.50187 l -52.8405,-8.00107 z"
       style="fill:url(#linearGradient9562);fill-rule:evenodd;stroke:none;display:inline"
       sodipodi:nodetypes="cccccccccc" />
    <path
       inkscape:connector-curvature="0"
       inkscape:export-ydpi="57.964222"
       inkscape:export-xdpi="57.964222"
       inkscape:export-filename="/home/dafeba/DCV/tallerD/bocetos/08-09-22-hastaahora.png"
       sodipodi:nodetypes="ccccccccc"
       id="path9549"
       d="m -1541.4,-198.53908 0,91.32987 c -0.6155,8.355199 4.4088,14.706666 12.7827,13.362399 l 78.2821,-11.820799 c 5.7203,-0.6192 9.4523,-6.04773 9.1416,-13.6088 l 0.4216,-74.2944 c 0.2213,-5.96507 -2.8301,-10.9576 -9.3723,-11.9504 l -77.84,-5.9592 c -8.901,-0.43733 -13.405,5.5672 -13.405,12.9416 z"
       style="fill:url(#linearGradient9564);fill-rule:evenodd;stroke:none;display:inline" />
    <path
       inkscape:connector-curvature="0"
       sodipodi:nodetypes="ccccccccccccc"
       style="fill:none;stroke:#344b63;stroke-width:2.66702938;stroke-linecap:butt;stroke-linejoin:miter;stroke-miterlimit:4;stroke-opacity:1;stroke-dasharray:none;display:inline"
       d="m -1527.9499,-211.50014 c -1.7344,-0.0853 -3.2674,0.13333 -4.6672,0.50133 l -19.5026,3.00107 c -5.7155,1.04853 -8.668,5.60346 -8.668,11.16773 l 0,84.6784 c -0.069,5.65227 2.0717,10.09733 6.3341,11.5016 l 19.6693,6.167466 c 1.7923,0.739733 3.7752,1.050667 6.1678,0.666667 l 78.344,-11.835203 c 5.7205,-0.61866 9.4784,-6.10693 9.1677,-13.668 l 0.3333,-74.344 c 0.2214,-5.96506 -2.7925,-10.84213 -9.3344,-11.83466 l -77.844,-6.0008 z"
       id="path9553" />
    <path
       inkscape:connector-curvature="0"
       id="path10041"
       d="m -1509.3189,-200.98521 c -2.6147,0.29813 -5.0947,4.2832 -5.7115,9.34347 -0.6579,5.3984 1.0787,9.952 3.8757,10.172 2.7971,0.22133 5.5982,-3.9296 6.256,-9.32747 l 0.1307,-1.93067 c 0.093,-4.62426 -1.5843,-8.10666 -4.0064,-8.29706 -0.1733,-0.0267 -0.3688,0.0293 -0.5435,0.0373 z m 15.9448,6.69253 c -2.2504,0.22134 -5.164,1.98214 -7.5848,4.84694 -3.5214,4.16773 -4.7126,9.05466 -2.6382,10.928 2.0747,1.87413 6.6328,0.0373 10.1539,-4.1296 l 1.1707,-1.4976 c 2.6477,-3.8536 3.2096,-7.804 1.413,-9.42667 -0.6482,-0.5856 -1.4917,-0.8208 -2.5146,-0.72107 z m -35.6352,2.65227 c -0.8251,0.088 -1.5187,0.37387 -2.0515,0.88427 -2.1304,2.04426 -0.6245,6.948 3.3456,10.9448 3.9699,3.99706 8.9184,5.5896 11.0488,3.5456 2.1307,-2.04347 0.6245,-6.9472 -3.3453,-10.94427 -2.9774,-2.99733 -6.5219,-4.65947 -8.9976,-4.4304 z m 19.4288,13.1072 c -1.795,0.17333 -3.5366,1.05973 -4.8496,2.6136 -2.6262,3.108 -2.4552,7.7352 0.397,10.312 2.8526,2.576 7.256,2.10533 9.8822,-1.00293 l 0.8504,-1.13547 c 1.7576,-3.06987 1.2234,-6.88827 -1.2467,-9.11973 -1.4261,-1.28827 -3.2381,-1.84134 -5.0331,-1.66747 z m 21.7461,-0.62373 c -0.6136,0.0427 -1.2549,0.128 -1.8992,0.25066 l -1.7869,0.46907 c -4.3416,1.32027 -7.3272,4.1008 -7.1187,6.6216 0.24,2.9104 4.6411,4.4512 9.7965,3.46773 5.1558,-0.98293 9.0931,-4.11893 8.8523,-7.0304 -0.2107,-2.54666 -3.5493,-4.09866 -7.844,-3.77946 z m -42.0771,4.4216 c -4.4565,0.53013 -7.8512,2.73493 -8.0669,5.27786 -0.248,2.93627 3.7629,5.3288 8.9581,5.28027 5.195,-0.0453 9.6104,-2.47147 9.8595,-5.40773 0.248,-2.9376 -3.7619,-5.27227 -8.9571,-5.22454 l -1.7936,0.0747 z m 53.7918,-0.136 c -2.707,0.264 -5.0662,4.524 -5.3232,9.768 -0.2667,5.4128 1.76,9.78346 4.576,9.78133 2.8162,-0.002 5.3298,-4.3744 5.5952,-9.788 l 0.027,-1.86613 c -0.2426,-4.60027 -2.2138,-7.9136 -4.6525,-7.9112 -0.088,-0.0267 -0.1307,0 -0.216,0.0267 z m 16.737,5.33573 c -2.3237,0.112 -5.4296,2.17467 -7.8456,5.4872 -3.2216,4.41733 -4.0322,9.39787 -1.8192,11.0952 2.2131,1.69733 6.6459,-0.5384 9.8675,-4.95707 l 1.0067,-1.5424 c 2.3698,-4.03626 2.7301,-8.02613 0.8136,-9.496 -0.5534,-0.42426 -1.2483,-0.62453 -2.023,-0.58693 z m -58.1141,4.91093 c -2.2373,0.18934 -5.1848,2.1368 -7.5227,5.29494 l -1.06,1.60293 c -2.4122,4.0376 -2.809,8.09813 -0.9736,9.6768 2.1195,1.82347 6.4566,-0.26693 9.7094,-4.66213 3.2528,-4.39467 4.2074,-9.4616 2.088,-11.284 -0.5963,-0.51334 -1.3656,-0.6984 -2.2411,-0.62854 z m 19.508,-1.08186 c -0.8205,0.14133 -1.4984,0.5 -1.9944,1.0496 -1.9837,2.19786 -0.1093,6.9472 4.1555,10.60293 4.2653,3.656 9.321,4.82133 11.305,2.62347 1.9838,-2.1984 0.1094,-6.94667 -4.1554,-10.6032 -3.199,-2.74214 -6.8491,-4.096 -9.3107,-3.6728 z m -10.2624,4.1384 c -0.088,0 -0.128,0.048 -0.216,0.072 -2.7843,0.63013 -4.1605,5.3912 -3.0787,10.6216 l 0.4662,1.77386 c 1.3824,4.34054 4.121,7.07734 6.532,6.53094 2.784,-0.63014 4.1605,-5.39094 3.0786,-10.62134 -1.0482,-5.06693 -4.0658,-8.7264 -6.7818,-8.37733 z m 55.8128,6.61333 c -0.8893,0.0907 -1.8101,0.28107 -2.7645,0.5408 l -1.7859,0.5256 c -4.2501,1.65307 -7.0123,4.66267 -6.62,7.15013 0.4531,2.87174 4.9661,4.09787 10.0555,2.71414 5.0896,-1.38374 8.8034,-4.856 8.3506,-7.728 -0.368,-2.3336 -3.3805,-3.564 -7.2357,-3.20267 z m -21.9339,2.3328 c -2.0221,0.17067 -4.0336,1.25173 -5.385,3.10427 -2.4024,3.2944 -1.8875,7.81013 1.1557,10.144 3.0432,2.3336 7.4667,1.55786 9.8691,-1.73627 l 0.741,-1.18427 c 1.5358,-3.18773 0.7387,-6.9384 -1.8968,-8.95893 -1.3312,-1.02107 -2.9109,-1.48933 -4.484,-1.3688 z m -18.9461,5.2224 -1.8443,0.30453 c -4.4226,0.87654 -7.5909,3.32374 -7.6213,5.86667 -0.035,2.93547 4.1272,4.92027 9.3243,4.46213 5.1973,-0.45786 9.4312,-3.17813 9.4666,-6.11413 0.035,-2.936 -4.1282,-4.97707 -9.3253,-4.5192 z m 29.8573,6.0184 c -1.0464,0.10133 -1.9229,0.4536 -2.5365,1.14587 -1.9635,2.21306 -0.4003,6.7704 3.4947,10.14213 l 1.3786,1.0864 c 3.6368,2.49787 7.5088,2.88507 9.2094,0.96773 1.9634,-2.21386 0.4013,-6.71413 -3.4939,-10.08613 -2.6776,-2.31787 -5.7499,-3.47147 -8.0523,-3.256 z m -18.2192,3.2488 c -2.2722,0.208 -5.201,2.44133 -7.4032,5.90747 l -0.9504,1.6512 c -2.1205,4.20053 -2.2189,8.25893 -0.2666,9.68213 2.2546,1.64267 6.4346,-0.75147 9.3706,-5.3728 2.9363,-4.6216 3.5259,-9.69413 1.2712,-11.3376 -0.5637,-0.41067 -1.2642,-0.59787 -2.0218,-0.5304 z m 9.5043,2.30213 c -0.176,0.0373 -0.3699,0.10134 -0.5413,0.152 -2.7411,0.84667 -3.7779,5.6824 -2.3139,10.79227 l 0.628,1.7056 c 1.7,4.2016 4.6384,6.72 7.012,5.98747 2.7411,-0.8456 3.7781,-5.6824 2.3141,-10.79174 -1.3725,-4.79013 -4.4605,-8.14453 -7.0989,-7.84586 z"
       style="fill:#344b63;fill-opacity:1;stroke:#334a62;stroke-width:2.66666675;stroke-miterlimit:4;stroke-opacity:1;stroke-dasharray:none;display:inline" />
    <path
       style="fill:#ffffff;fill-opacity:1;stroke:#334a62;stroke-width:1.54302084;stroke-miterlimit:4;stroke-opacity:1;stroke-dasharray:none;display:inline"
       d="m -1508.0912,-201.40094 c -2.6147,0.29813 -5.0947,4.2832 -5.7115,9.344 -0.6578,5.3984 1.0787,9.95146 3.876,10.17146 2.7971,0.22134 5.5979,-3.9296 6.2558,-9.32746 l 0.1306,-1.9304 c 0.093,-4.62427 -1.5842,-8.1072 -4.0064,-8.29734 -0.176,-0.0267 -0.3688,0.0293 -0.5434,0.0373 z m 15.9448,6.69253 c -2.2504,0.22133 -5.164,1.98213 -7.5848,4.8472 -3.5213,4.1672 -4.7125,9.05467 -2.6381,10.92827 2.0746,1.87413 6.6328,0.0373 10.1538,-4.1304 l 1.1707,-1.49707 c 2.6477,-3.8536 3.2096,-7.804 1.4131,-9.42667 -0.6483,-0.58586 -1.4918,-0.82106 -2.5147,-0.72133 z m -35.6352,2.6528 c -0.8251,0.088 -1.5187,0.3736 -2.0515,0.88373 -2.1304,2.044 -0.6245,6.948 3.3454,10.9448 3.9701,3.99707 8.9186,5.5896 11.049,3.54587 2.1307,-2.04347 0.6246,-6.94747 -3.3453,-10.94427 -2.9773,-2.99706 -6.5216,-4.65946 -8.9976,-4.43013 z m 19.4291,13.10667 c -1.7952,0.17333 -3.5368,1.05973 -4.8499,2.6136 -2.6261,3.10826 -2.4552,7.7352 0.3971,10.31173 2.8525,2.57653 7.256,2.1056 9.8821,-1.0024 l 0.8504,-1.13573 c 1.7576,-3.06934 1.2235,-6.888 -1.2467,-9.11974 -1.4261,-1.288 -3.2378,-1.8416 -5.033,-1.66746 z m 21.7458,-0.62374 c -0.6136,0.0427 -1.2549,0.128 -1.8992,0.25067 l -1.7869,0.46987 c -4.3416,1.31946 -7.3272,4.10053 -7.1187,6.62106 0.24,2.91067 4.6411,4.4512 9.7966,3.468 5.1557,-0.9832 9.093,-4.1192 8.8522,-7.0304 -0.2106,-2.54693 -3.5493,-4.09893 -7.844,-3.77973 z m -42.077,4.42187 c -4.4566,0.52987 -7.8512,2.73467 -8.067,5.27733 -0.248,2.93654 3.763,5.3288 8.9582,5.2808 5.1949,-0.0453 9.6106,-2.47173 9.8594,-5.408 0.248,-2.93706 -3.7616,-5.27253 -8.9568,-5.22426 l -1.7938,0.072 z m 53.7917,-0.136 c -2.7069,0.264 -5.0661,4.52373 -5.3232,9.768 -0.2667,5.4128 1.76,9.78373 4.576,9.78133 2.8163,-0.002 5.3299,-4.3744 5.5952,-9.78773 l 0.027,-1.86613 c -0.2427,-4.60054 -2.2136,-7.91387 -4.6523,-7.9112 -0.088,-0.0267 -0.1307,0 -0.2187,0.0267 z m 16.7371,5.33573 c -2.3238,0.112 -5.4296,2.1744 -7.8456,5.48747 -3.2214,4.41733 -4.0323,9.3976 -1.8192,11.09467 2.213,1.6976 6.6458,-0.5376 9.8674,-4.9568 l 1.0067,-1.5424 c 2.3699,-4.03654 2.7301,-8.02614 0.8136,-9.49574 -0.5533,-0.4248 -1.2483,-0.62506 -2.0229,-0.5872 z m -58.1142,4.9112 c -2.2373,0.192 -5.1848,2.13654 -7.5226,5.2944 l -1.06,1.6032 c -2.412,4.03734 -2.8091,8.09867 -0.9736,9.6768 2.1194,1.82347 6.4565,-0.26693 9.7093,-4.6624 3.2528,-4.39413 4.2075,-9.46106 2.088,-11.28373 -0.5963,-0.51333 -1.3656,-0.69787 -2.2411,-0.62827 z m 19.508,-1.08213 c -0.8205,0.14133 -1.4981,0.5 -1.9944,1.05013 -1.9837,2.1976 -0.1093,6.94667 4.1555,10.6024 4.2653,3.656 9.3211,4.8216 11.3051,2.62347 1.9837,-2.1984 0.1093,-6.94667 -4.1555,-10.60293 -3.1989,-2.74214 -6.8491,-4.096 -9.3107,-3.67307 z m -10.2624,4.13867 c -0.088,0 -0.1306,0.048 -0.216,0.0693 -2.784,0.63066 -4.1605,5.39146 -3.0784,10.6216 l 0.4659,1.7744 c 1.3824,4.34053 4.1213,7.07706 6.5323,6.53066 2.784,-0.6304 4.1602,-5.39093 3.0784,-10.62106 -1.0483,-5.06694 -4.0659,-8.72694 -6.7819,-8.37734 z m 55.8128,6.6136 c -0.8893,0.0907 -1.8101,0.28053 -2.7645,0.54 l -1.7859,0.5256 c -4.2501,1.65333 -7.0122,4.6632 -6.62,7.1504 0.4531,2.87173 4.9662,4.09813 10.0555,2.7144 5.0896,-1.38347 8.8037,-4.856 8.3507,-7.72827 -0.368,-2.3336 -3.3806,-3.56347 -7.2358,-3.20213 z m -21.9338,2.332 c -2.0222,0.17066 -4.0336,1.25226 -5.3851,3.1048 -2.4024,3.29413 -1.8872,7.81013 1.1557,10.14373 3.0432,2.3336 7.4667,1.55813 9.8694,-1.73627 l 0.7408,-1.18426 c 1.536,-3.1872 0.7386,-6.93814 -1.8968,-8.95894 -1.3312,-1.02106 -2.911,-1.48906 -4.484,-1.36906 z m -18.9464,5.22293 -1.844,0.304 c -4.4227,0.87707 -7.591,3.32427 -7.6214,5.86667 -0.035,2.93573 4.1272,4.92053 9.3243,4.4624 5.1973,-0.45814 9.4312,-3.17814 9.4667,-6.11414 0.035,-2.936 -4.1283,-4.97706 -9.3256,-4.51893 z m 29.8576,6.0184 c -1.0464,0.10133 -1.923,0.45333 -2.5366,1.14533 -1.9634,2.21334 -0.4002,6.7704 3.4947,10.14267 l 1.3787,1.08613 c 3.6368,2.49787 7.5088,2.88507 9.2093,0.968 1.9635,-2.2136 0.4013,-6.7144 -3.4936,-10.0864 -2.6779,-2.31786 -5.7499,-3.47093 -8.0525,-3.25573 z m -18.2192,3.24853 c -2.2723,0.208 -5.2011,2.44187 -7.4032,5.90747 l -0.9504,1.65147 c -2.1206,4.20053 -2.219,8.25866 -0.2667,9.68186 2.2547,1.64267 6.4347,-0.75146 9.3707,-5.37253 2.9362,-4.6216 3.5258,-9.69413 1.2712,-11.3376 -0.5638,-0.41067 -1.2643,-0.5984 -2.0219,-0.53067 z m 9.5042,2.30214 c -0.176,0.0373 -0.3698,0.104 -0.541,0.152 -2.7414,0.8464 -3.7782,5.68266 -2.3142,10.792 l 0.628,1.7056 c 1.7,4.2016 4.6384,6.72026 7.012,5.98773 2.7414,-0.84587 3.7782,-5.6824 2.3142,-10.79173 -1.3726,-4.79067 -4.4603,-8.14427 -7.099,-7.84614 z"
       id="path3848-2-9-2-9-8-4-6-3-9-5-0-8-7"
       inkscape:connector-curvature="0" />
  </g>
</svg>
