<?xml version="1.0" encoding="UTF-8" standalone="no"?>
<!-- Created with Inkscape (http://www.inkscape.org/) -->

<svg
   xmlns:dc="http://purl.org/dc/elements/1.1/"
   xmlns:cc="http://creativecommons.org/ns#"
   xmlns:rdf="http://www.w3.org/1999/02/22-rdf-syntax-ns#"
   xmlns:svg="http://www.w3.org/2000/svg"
   xmlns="http://www.w3.org/2000/svg"
   xmlns:xlink="http://www.w3.org/1999/xlink"
   xmlns:sodipodi="http://sodipodi.sourceforge.net/DTD/sodipodi-0.dtd"
   xmlns:inkscape="http://www.inkscape.org/namespaces/inkscape"
   width="128"
   height="128"
   id="svg6934"
   sodipodi:version="0.32"
   inkscape:version="0.48.3.1 r9886"
   version="1.0"
   sodipodi:docname="aaa-generic.svg"
   inkscape:output_extension="org.inkscape.output.svg.inkscape">
  <defs
     id="defs6936">
    <linearGradient
       id="linearGradient5344">
      <stop
         style="stop-color:#000000;stop-opacity:1;"
         offset="0"
         id="stop5346" />
      <stop
         style="stop-color:#000000;stop-opacity:0;"
         offset="1"
         id="stop5348" />
    </linearGradient>
    <linearGradient
       id="linearGradient5165-7-9-8-2">
      <stop
         id="stop5167-4-8-6-9"
         style="stop-color:#ffffff;stop-opacity:1"
         offset="0" />
      <stop
         id="stop5169-5-5-2-9"
         style="stop-color:#ffffff;stop-opacity:0"
         offset="1" />
    </linearGradient>
    <linearGradient
       inkscape:collect="always"
       xlink:href="#linearGradient5344"
       id="linearGradient3107"
       gradientUnits="userSpaceOnUse"
       gradientTransform="matrix(5.3340639,0,0,5.3340639,-1451.4802,-5864.5574)"
       x1="305.23422"
       y1="1137.0681"
       x2="283.35095"
       y2="1104.2024" />
    <linearGradient
       inkscape:collect="always"
       xlink:href="#linearGradient5344-50"
       id="linearGradient13031-7"
       gradientUnits="userSpaceOnUse"
       gradientTransform="matrix(2.3371908,-0.19593194,0,2.3371908,-1123.3759,-2035.152)"
       x1="516.625"
       y1="949.4657"
       x2="516.625"
       y2="953.45752" />
    <linearGradient
       id="linearGradient5344-50">
      <stop
         style="stop-color:#000000;stop-opacity:1;"
         offset="0"
         id="stop5346-2" />
      <stop
         style="stop-color:#000000;stop-opacity:0;"
         offset="1"
         id="stop5348-5" />
    </linearGradient>
    <linearGradient
       inkscape:collect="always"
       xlink:href="#linearGradient5316-0"
       id="linearGradient13027-1"
       gradientUnits="userSpaceOnUse"
       gradientTransform="matrix(3.6383072,-0.24094751,0,3.6383072,-1797.8001,-3254.4436)"
       x1="516.625"
       y1="951.58276"
       x2="516.84595"
       y2="953.33002" />
    <linearGradient
       id="linearGradient5316-0">
      <stop
         style="stop-color:#aac736;stop-opacity:1;"
         offset="0"
         id="stop5320-8" />
      <stop
         style="stop-color:#5d8b2c;stop-opacity:1;"
         offset="1"
         id="stop5322-1" />
    </linearGradient>
    <linearGradient
       inkscape:collect="always"
       xlink:href="#linearGradient13604-6"
       id="linearGradient13023-1"
       gradientUnits="userSpaceOnUse"
       gradientTransform="matrix(3.6383072,0,0,3.6383072,-1871.8013,-3376.2301)"
       x1="532.71075"
       y1="943.25812"
       x2="540.65033"
       y2="973.31165" />
    <linearGradient
       id="linearGradient13604-6">
      <stop
         id="stop13606-2"
         offset="0"
         style="stop-color:#ffffff;stop-opacity:1;" />
      <stop
         id="stop13608-7"
         offset="1"
         style="stop-color:#000000;stop-opacity:1;" />
    </linearGradient>
    <linearGradient
       inkscape:collect="always"
       xlink:href="#linearGradient13620-8"
       id="linearGradient13021-7"
       gradientUnits="userSpaceOnUse"
       gradientTransform="matrix(3.6383072,0,0,3.6383072,-1811.8986,-3430.9797)"
       x1="508.00168"
       y1="976.56775"
       x2="507.60999"
       y2="969.06256" />
    <linearGradient
       id="linearGradient13620-8">
      <stop
         id="stop13622-7"
         offset="0"
         style="stop-color:#000000;stop-opacity:1;" />
      <stop
         id="stop13624-6"
         offset="1"
         style="stop-color:#000000;stop-opacity:0;" />
    </linearGradient>
    <linearGradient
       inkscape:collect="always"
       xlink:href="#linearGradient13604-6"
       id="linearGradient13015-1"
       gradientUnits="userSpaceOnUse"
       gradientTransform="matrix(3.6383072,0,0,3.6383072,-1811.8986,-3430.9797)"
       x1="507.15793"
       y1="956.94275"
       x2="506.35999"
       y2="981.68756" />
    <linearGradient
       inkscape:collect="always"
       xlink:href="#linearGradient5165-7-9-8-2"
       id="linearGradient3092"
       gradientUnits="userSpaceOnUse"
       gradientTransform="translate(-40,140)"
       x1="22.933788"
       y1="-144.76825"
       x2="18.618809"
       y2="-96.331688" />
    <linearGradient
       inkscape:collect="always"
       xlink:href="#linearGradient5344"
       id="linearGradient3094"
       gradientUnits="userSpaceOnUse"
       gradientTransform="translate(-40,140)"
       x1="7.9531264"
       y1="2.2416961"
       x2="13.667412"
       y2="-64.464973" />
  </defs>
  <sodipodi:namedview
     id="base"
     pagecolor="#ffffff"
     bordercolor="#666666"
     borderopacity="1.0"
     inkscape:pageopacity="0.0"
     inkscape:pageshadow="2"
     inkscape:zoom="2.8"
     inkscape:cx="90.880424"
     inkscape:cy="57.18786"
     inkscape:document-units="px"
     inkscape:current-layer="layer1"
     showgrid="false"
     inkscape:window-width="1366"
     inkscape:window-height="717"
     inkscape:window-x="0"
     inkscape:window-y="0"
     inkscape:window-maximized="1" />
  <metadata
     id="metadata6939">
    <rdf:RDF>
      <cc:Work
         rdf:about="">
        <dc:format>image/svg+xml</dc:format>
        <dc:type
           rdf:resource="http://purl.org/dc/dcmitype/StillImage" />
        <dc:title></dc:title>
      </cc:Work>
    </rdf:RDF>
  </metadata>
  <g
     inkscape:label="Capa 1"
     inkscape:groupmode="layer"
     id="layer1">
    <path
       style="fill:#4cce4e;fill-opacity:1;fill-rule:evenodd;stroke:none"
       d="m 34.21875,5.062503 c -1.32927,0.0554 -2.55056,0.27966 -3.65625,0.625 l -18.34375,2.71875 -0.5,0 0,0.1875 c -5.7155,1.04907 -8.65625,5.59198 -8.65625,11.15625 l 0,84.687497 c -0.0702,5.65226 2.0501,10.0952 6.3125,11.5 l 18.96875,5.9375 c 0.0209,0.0102 0.0415,0.0212 0.0625,0.0313 1.89272,0.90932 4.16442,1.2325 6.78125,0.8125 l 78.28125,-11.8125 c 5.72052,-0.61974 9.4668,-6.06393 9.15625,-13.625 l 0.40625,-74.281297 c 0.22248,-5.96534 -2.80168,-10.97622 -9.34375,-11.96875 l -77.84375,-5.9375 c -0.55631,-0.0273 -1.10307,-0.053 -1.625,-0.0313 z"
       id="path30949"
       inkscape:connector-curvature="0" />
    <path
       style="fill:url(#linearGradient3107);fill-rule:evenodd;stroke:none"
       d="M 29.25,16.718753 29.2187,113.125 c 0.4487,3.45828 1.40755,8.12456 4.34375,9.75 0.52713,-0.0229 1.0675,-0.0668 1.625,-0.15625 l 78.28125,-11.8125 c 5.72052,-0.61974 9.4668,-6.06393 9.15625,-13.625 l 0.40625,-74.281247 c 0.22245,-5.96534 -2.80168,-10.97622 -9.34375,-11.96875 L 37.6784,5.233693 c -3.97126,-0.42067 -8.41551,4.78057 -8.42845,11.48506 z M 30.15625,122.5 c 0.64796,0.17153 1.31467,0.32617 2.03125,0.375 z"
       id="path30953"
       inkscape:connector-curvature="0"
       sodipodi:nodetypes="ccccccccccccc" />
    <g
       id="g3087"
       transform="translate(40,0)">
      <path
         inkscape:connector-curvature="0"
         id="path3073"
         d="m -5.21875,5.312503 -22.5625,3.09375 -0.5,0 0,0.1875 c -5.715501,1.04907 -8.65625,5.59198 -8.65625,11.15625 l 0,25 26.1875,0 0,-28.03125 c 0.347051,-4.91678 2.274064,-9.96378 5.53125,-11.40625 z"
         style="fill:url(#linearGradient3092);fill-rule:evenodd;stroke:none;display:inline" />
      <path
         inkscape:connector-curvature="0"
         id="path3081"
         d="m -36.9375,68.406253 0,36.031247 c -0.07024,5.65226 2.050104,10.0952 6.3125,11.5 l 17.65625,6.03125 7.5,1.3125 c -3.710844,-1.04488 -4.81745,-6.34073 -5.3125,-10.15625 l 0,-44.718747 -26.15625,0 z"
         style="fill:url(#linearGradient3094);fill-rule:evenodd;stroke:none;display:inline" />
    </g>
    <path
       inkscape:connector-curvature="0"
       id="path30957"
       d="m 35.825012,5.0844328 c -1.734374,-0.0853 -3.26759,0.13333 -4.667303,0.50133 L 11.65504,8.5863028 C 5.9395447,9.6353728 2.9871862,14.190033 2.9871862,19.754303 l 0,84.678437 c -0.07024,5.65226 2.0718035,10.09707 6.3341998,11.50187 l 19.669357,6.16693 c 1.792241,0.74027 3.774988,1.0512 6.167512,0.6672 l 78.344065,-11.8352 c 5.72052,-0.6192 9.47847,-6.1072 9.16792,-13.66827 l 0.33339,-74.344027 c 0.22245,-5.96534 -2.79254,-10.84214 -9.33461,-11.83467 L 35.825018,5.0855028 z"
       style="fill:none;stroke:#344b63;stroke-width:2.667032;stroke-linecap:butt;stroke-linejoin:miter;stroke-miterlimit:4;stroke-opacity:1;stroke-dasharray:none;display:inline"
       sodipodi:nodetypes="ccccccccccccc" />
    <path
       sodipodi:nodetypes="ccscsscsscscscscscscscscscccscccccscscscsccccscccccsccccccccccc"
       id="path3789"
       d="m 89.296362,25.188946 c -0.246428,-0.0063 -0.415702,0.05454 -0.512977,0.158396 -1.050527,1.121839 6.052051,8.439235 6.04074,19.998687 -0.01287,13.154341 -22.678317,12.499035 -19.408954,29.116694 -2.506225,-0.710596 -3.939675,-3.47491 -3.6024,-9.754825 0.564473,-10.510297 -9.800505,-12.44839 -13.764513,-9.8763 -4.768629,3.094171 -6.608762,8.333841 -6.362077,14.453134 -2.402934,-0.85357 -4.585358,-2.245154 -6.306838,-4.71046 -8.168031,-11.697346 -4.256874,-24.530524 -8.028912,-19.885752 -3.772039,4.644769 -1.807807,12.711103 -1.807807,12.711103 0,0 -1.75036,-8.33555 -3.187686,-3.585324 -1.437315,4.750228 3.070092,11.761779 3.070092,11.761779 0,0 -4.998471,-7.677522 -3.868548,-2.834595 1.129923,4.842926 5.99471,9.720404 5.99471,9.720404 0,0 -4.132163,-4.222998 -3.51485,-0.519783 0.617303,3.703225 7.958599,6.33783 7.958599,6.33783 0,0 -6.002222,1.501339 -1.91614,4.547088 4.086072,3.045741 12.122909,-0.180976 12.122909,-0.180976 0,0 -6.074041,5.474133 0.503142,6.748207 1.885606,0.365265 3.724107,0.286208 5.401812,-0.0057 0.622339,1.113586 1.287524,2.209846 1.97893,3.295231 13.441827,21.101106 44.582176,4.750096 45.543416,-19.340771 4.98668,0.365286 13.22261,-4.952615 13.88766,-7.931741 0.62607,-2.804533 -3.78492,-0.888259 -5.01973,-0.166246 1.14159,-0.716541 5.92534,-3.500719 4.03139,-6.834092 -1.29797,-2.284445 -3.64274,-0.17638 -5.32431,1.907067 -0.96235,1.594022 -1.9873,2.842773 -1.9873,2.842773 0,0 0.83675,-1.417253 1.9873,-2.842773 1.43139,-2.37091 2.67202,-5.52284 -0.0622,-6.582739 -1.74364,-0.675938 -2.99274,0.467386 -3.86028,2.138869 -0.26574,2.872693 -1.7395,5.718714 -1.7395,5.718714 1e-5,-10e-7 0.33206,-3.007056 1.7395,-5.718714 0.17194,-1.858787 -0.22527,-3.413352 -1.90956,-2.862569 -0.65618,0.214571 -1.42594,0.401523 -2.20846,0.616176 0.72848,-1.115904 3.81958,-6.092192 2.46369,-8.960544 -1.52395,-3.223913 -2.44808,2.373523 -2.44808,2.373523 0,0 1.13968,-6.501786 -0.60281,-10.900365 -1.74252,-4.398577 -1.45799,4.349542 -1.45799,4.349542 0,0 -0.31663,-7.942708 -4.001958,-10.817394 -3.685301,-2.874677 -0.514394,4.557926 -0.514394,4.557926 0,0 -2.870645,-7.389661 -8.311319,-8.862066 -0.42503,-0.115001 -0.747911,-0.173243 -0.994341,-0.179529 z M 56.800603,59.114947 c 1.172364,-0.159764 2.245247,1.179329 1.840989,2.297788 -0.260239,0.921793 -1.373345,1.505829 -2.266996,1.189467 -0.893653,-0.316358 -1.376106,-1.465234 -0.982582,-2.339844 0.217177,-0.597963 0.781954,-1.05802 1.408589,-1.147411 z m 10.220914,0.76665 c 0.01077,-6.86e-4 0.02156,-0.0012 0.03232,-0.0018 0.871832,-0.09006 1.743095,0.586628 1.871051,1.453198 0.26314,0.935533 -0.429082,2.03557 -1.388963,2.207256 -0.95988,0.171688 -1.964058,-0.624926 -2.014913,-1.598429 -0.152489,-0.872043 0.475811,-1.818367 1.340503,-2.019019 0.05269,-0.01628 0.106119,-0.03007 0.160045,-0.04129 z m -5.39606,4.090221 c 0.116542,-0.01472 0.252318,0.04535 0.46511,0.298605 0.81075,0.03059 1.491549,0.28705 2.161964,0.659092 -1.776792,0.48608 -1.642677,1.191255 -2.780927,2.390091 -0.53576,-0.969188 -1.52864,-2.033737 -2.814534,-2.373882 0.861217,-0.298948 1.575514,-0.449158 2.241986,-0.544874 0.363986,-0.117245 0.53216,-0.404582 0.726401,-0.429032 z"
       style="fill:#000000;fill-opacity:0.24066389;fill-rule:evenodd;stroke:#000000;stroke-width:5;stroke-miterlimit:4;stroke-opacity:0.60580917;stroke-dasharray:none"
       inkscape:connector-curvature="0" />
    <path
       inkscape:connector-curvature="0"
       style="fill:#ffffff;fill-opacity:1;fill-rule:evenodd;stroke:none"
       d="m 91.249891,25.188946 c -0.246428,-0.0063 -0.415702,0.05454 -0.512977,0.158396 -1.050527,1.121839 6.052051,8.439235 6.04074,19.998687 C 96.76478,58.50037 74.099337,57.845064 77.3687,74.462723 c -2.506225,-0.710596 -3.939675,-3.47491 -3.602401,-9.754825 0.564473,-10.510297 -9.800505,-12.44839 -13.764512,-9.876299 -4.768629,3.09417 -6.608762,8.33384 -6.362077,14.453133 -2.402934,-0.85357 -4.585358,-2.245154 -6.306838,-4.71046 C 39.164841,52.876926 43.075998,40.043748 39.30396,44.68852 c -3.772039,4.644769 -1.807808,12.711103 -1.807808,12.711103 0,0 -1.750359,-8.33555 -3.187685,-3.585324 -1.437315,4.750228 3.070092,11.761779 3.070092,11.761779 0,0 -4.998471,-7.677521 -3.868548,-2.834595 1.129923,4.842926 5.99471,9.720405 5.99471,9.720405 0,0 -4.132163,-4.222999 -3.514851,-0.519784 0.617304,3.703225 7.9586,6.33783 7.9586,6.33783 0,0 -6.002223,1.501339 -1.91614,4.547088 4.086072,3.045742 12.122909,-0.180976 12.122909,-0.180976 0,0 -6.074041,5.474133 0.503142,6.748207 1.885606,0.365265 3.724106,0.286208 5.401811,-0.0057 0.62234,1.113586 1.287525,2.209846 1.978931,3.295232 13.441827,21.10111 44.582177,4.750096 45.543417,-19.340772 4.98668,0.365286 13.22261,-4.952615 13.88766,-7.931741 0.62607,-2.804533 -3.78492,-0.888259 -5.01973,-0.166246 1.14158,-0.716541 5.92534,-3.500718 4.03139,-6.834092 -1.29797,-2.284445 -3.64274,-0.17638 -5.32431,1.907067 -0.96235,1.594022 -1.9873,2.842773 -1.9873,2.842773 0,0 0.83675,-1.417253 1.9873,-2.842773 1.43139,-2.37091 2.67201,-5.52284 -0.0622,-6.582739 -1.74364,-0.675938 -2.99274,0.467386 -3.86028,2.13887 -0.26574,2.872692 -1.7395,5.718713 -1.7395,5.718713 1e-5,-10e-7 0.33206,-3.007055 1.7395,-5.718713 0.17194,-1.858788 -0.22527,-3.413353 -1.90956,-2.86257 -0.65618,0.214571 -1.42595,0.401523 -2.20846,0.616176 0.72848,-1.115904 3.81958,-6.092192 2.46369,-8.960544 -1.52396,-3.223913 -2.44808,2.373523 -2.44808,2.373523 0,0 1.13968,-6.501786 -0.60281,-10.900365 -1.74252,-4.398577 -1.45799,4.349543 -1.45799,4.349543 0,0 -0.31663,-7.942709 -4.00196,-10.817395 -3.6853,-2.874677 -0.51439,4.557926 -0.51439,4.557926 0,0 -2.870648,-7.389661 -8.311322,-8.862066 -0.42503,-0.115001 -0.747912,-0.173243 -0.994341,-0.179529 z m -32.49576,33.926001 c 1.172365,-0.159764 2.245248,1.179329 1.840989,2.297788 -0.260238,0.921793 -1.373344,1.505829 -2.266995,1.189467 -0.893653,-0.316358 -1.376106,-1.465234 -0.982582,-2.339843 0.217177,-0.597964 0.781954,-1.058021 1.408588,-1.147412 z m 10.220915,0.76665 c 0.01077,-6.85e-4 0.02156,-0.0012 0.03232,-0.0018 0.871832,-0.09006 1.743095,0.586628 1.87105,1.453198 0.263141,0.935533 -0.429081,2.03557 -1.388962,2.207256 -0.95988,0.171688 -1.964059,-0.624926 -2.014913,-1.598429 -0.152489,-0.872043 0.47581,-1.818367 1.340503,-2.019019 0.05269,-0.01628 0.106119,-0.03007 0.160044,-0.04129 z m -5.39606,4.090222 c 0.116542,-0.01472 0.252318,0.04535 0.46511,0.298604 0.810749,0.03059 1.491548,0.28705 2.161964,0.659092 -1.776792,0.48608 -1.642677,1.191255 -2.780927,2.390091 -0.53576,-0.969188 -1.52864,-2.033737 -2.814534,-2.373882 0.861217,-0.298948 1.575514,-0.449158 2.241986,-0.544873 0.363985,-0.117246 0.53216,-0.404583 0.726401,-0.429032 z"
       id="path10520"
       sodipodi:nodetypes="ccscsscsscscscscscscscscscccscccccscscscsccccscccccsccccccccccc" />
  </g>
</svg>
