<?xml version="1.0" encoding="UTF-8" standalone="no"?>
<!-- Created with Inkscape (http://www.inkscape.org/) -->

<svg
   xmlns:dc="http://purl.org/dc/elements/1.1/"
   xmlns:cc="http://creativecommons.org/ns#"
   xmlns:rdf="http://www.w3.org/1999/02/22-rdf-syntax-ns#"
   xmlns:svg="http://www.w3.org/2000/svg"
   xmlns="http://www.w3.org/2000/svg"
   xmlns:xlink="http://www.w3.org/1999/xlink"
   xmlns:sodipodi="http://sodipodi.sourceforge.net/DTD/sodipodi-0.dtd"
   xmlns:inkscape="http://www.inkscape.org/namespaces/inkscape"
   width="128"
   height="128"
   id="svg6934"
   sodipodi:version="0.32"
   inkscape:version="0.48.3.1 r9886"
   version="1.0"
   sodipodi:docname="aaa-generic.svg"
   inkscape:output_extension="org.inkscape.output.svg.inkscape">
  <defs
     id="defs6936">
    <linearGradient
       id="linearGradient5344">
      <stop
         style="stop-color:#000000;stop-opacity:1;"
         offset="0"
         id="stop5346" />
      <stop
         style="stop-color:#000000;stop-opacity:0;"
         offset="1"
         id="stop5348" />
    </linearGradient>
    <linearGradient
       id="linearGradient5165-7-9-8-2">
      <stop
         id="stop5167-4-8-6-9"
         style="stop-color:#ffffff;stop-opacity:1"
         offset="0" />
      <stop
         id="stop5169-5-5-2-9"
         style="stop-color:#ffffff;stop-opacity:0"
         offset="1" />
    </linearGradient>
    <linearGradient
       inkscape:collect="always"
       xlink:href="#linearGradient5344"
       id="linearGradient3107"
       gradientUnits="userSpaceOnUse"
       gradientTransform="matrix(5.3340639,0,0,5.3340639,-1451.4802,-5864.5574)"
       x1="305.23422"
       y1="1137.0681"
       x2="283.35095"
       y2="1104.2024" />
    <linearGradient
       inkscape:collect="always"
       xlink:href="#linearGradient5344-50"
       id="linearGradient13031-7"
       gradientUnits="userSpaceOnUse"
       gradientTransform="matrix(2.3371908,-0.19593194,0,2.3371908,-1123.3759,-2035.152)"
       x1="516.625"
       y1="949.4657"
       x2="516.625"
       y2="953.45752" />
    <linearGradient
       id="linearGradient5344-50">
      <stop
         style="stop-color:#000000;stop-opacity:1;"
         offset="0"
         id="stop5346-2" />
      <stop
         style="stop-color:#000000;stop-opacity:0;"
         offset="1"
         id="stop5348-5" />
    </linearGradient>
    <linearGradient
       inkscape:collect="always"
       xlink:href="#linearGradient5316-0"
       id="linearGradient13027-1"
       gradientUnits="userSpaceOnUse"
       gradientTransform="matrix(3.6383072,-0.24094751,0,3.6383072,-1797.8001,-3254.4436)"
       x1="516.625"
       y1="951.58276"
       x2="516.84595"
       y2="953.33002" />
    <linearGradient
       id="linearGradient5316-0">
      <stop
         style="stop-color:#aac736;stop-opacity:1;"
         offset="0"
         id="stop5320-8" />
      <stop
         style="stop-color:#5d8b2c;stop-opacity:1;"
         offset="1"
         id="stop5322-1" />
    </linearGradient>
    <linearGradient
       inkscape:collect="always"
       xlink:href="#linearGradient13604-6"
       id="linearGradient13023-1"
       gradientUnits="userSpaceOnUse"
       gradientTransform="matrix(3.6383072,0,0,3.6383072,-1871.8013,-3376.2301)"
       x1="532.71075"
       y1="943.25812"
       x2="540.65033"
       y2="973.31165" />
    <linearGradient
       id="linearGradient13604-6">
      <stop
         id="stop13606-2"
         offset="0"
         style="stop-color:#ffffff;stop-opacity:1;" />
      <stop
         id="stop13608-7"
         offset="1"
         style="stop-color:#000000;stop-opacity:1;" />
    </linearGradient>
    <linearGradient
       inkscape:collect="always"
       xlink:href="#linearGradient13620-8"
       id="linearGradient13021-7"
       gradientUnits="userSpaceOnUse"
       gradientTransform="matrix(3.6383072,0,0,3.6383072,-1811.8986,-3430.9797)"
       x1="508.00168"
       y1="976.56775"
       x2="507.60999"
       y2="969.06256" />
    <linearGradient
       id="linearGradient13620-8">
      <stop
         id="stop13622-7"
         offset="0"
         style="stop-color:#000000;stop-opacity:1;" />
      <stop
         id="stop13624-6"
         offset="1"
         style="stop-color:#000000;stop-opacity:0;" />
    </linearGradient>
    <linearGradient
       inkscape:collect="always"
       xlink:href="#linearGradient13604-6"
       id="linearGradient13015-1"
       gradientUnits="userSpaceOnUse"
       gradientTransform="matrix(3.6383072,0,0,3.6383072,-1811.8986,-3430.9797)"
       x1="507.15793"
       y1="956.94275"
       x2="506.35999"
       y2="981.68756" />
    <linearGradient
       inkscape:collect="always"
       xlink:href="#linearGradient5165-7-9-8-2"
       id="linearGradient3092"
       gradientUnits="userSpaceOnUse"
       gradientTransform="translate(-40,140)"
       x1="22.933788"
       y1="-144.76825"
       x2="18.618809"
       y2="-96.331688" />
    <linearGradient
       inkscape:collect="always"
       xlink:href="#linearGradient5344"
       id="linearGradient3094"
       gradientUnits="userSpaceOnUse"
       gradientTransform="translate(-40,140)"
       x1="7.9531264"
       y1="2.2416961"
       x2="13.667412"
       y2="-64.464973" />
  </defs>
  <sodipodi:namedview
     id="base"
     pagecolor="#ffffff"
     bordercolor="#666666"
     borderopacity="1.0"
     inkscape:pageopacity="0.0"
     inkscape:pageshadow="2"
     inkscape:zoom="1.979899"
     inkscape:cx="-12.961185"
     inkscape:cy="43.100933"
     inkscape:document-units="px"
     inkscape:current-layer="layer1"
     showgrid="false"
     inkscape:window-width="1366"
     inkscape:window-height="717"
     inkscape:window-x="0"
     inkscape:window-y="0"
     inkscape:window-maximized="1" />
  <metadata
     id="metadata6939">
    <rdf:RDF>
      <cc:Work
         rdf:about="">
        <dc:format>image/svg+xml</dc:format>
        <dc:type
           rdf:resource="http://purl.org/dc/dcmitype/StillImage" />
        <dc:title></dc:title>
      </cc:Work>
    </rdf:RDF>
  </metadata>
  <g
     inkscape:label="Capa 1"
     inkscape:groupmode="layer"
     id="layer1">
    <path
       style="fill:#00ff00;fill-opacity:1;fill-rule:evenodd;stroke:none"
       d="m 34.21875,5.062503 c -1.32927,0.0554 -2.55056,0.27966 -3.65625,0.625 l -18.34375,2.71875 -0.5,0 0,0.1875 c -5.7155,1.04907 -8.65625,5.59198 -8.65625,11.15625 l 0,84.687497 c -0.0702,5.65226 2.0501,10.0952 6.3125,11.5 l 18.96875,5.9375 c 0.0209,0.0102 0.0415,0.0212 0.0625,0.0313 1.89272,0.90932 4.16442,1.2325 6.78125,0.8125 l 78.28125,-11.8125 c 5.72052,-0.61974 9.4668,-6.06393 9.15625,-13.625 l 0.40625,-74.281297 c 0.22248,-5.96534 -2.80168,-10.97622 -9.34375,-11.96875 l -77.84375,-5.9375 c -0.55631,-0.0273 -1.10307,-0.053 -1.625,-0.0313 z"
       id="path30949"
       inkscape:connector-curvature="0" />
    <path
       style="fill:url(#linearGradient3107);fill-rule:evenodd;stroke:none"
       d="M 29.25,16.718753 29.2187,113.125 c 0.4487,3.45828 1.40755,8.12456 4.34375,9.75 0.52713,-0.0229 1.0675,-0.0668 1.625,-0.15625 l 78.28125,-11.8125 c 5.72052,-0.61974 9.4668,-6.06393 9.15625,-13.625 l 0.40625,-74.281247 c 0.22245,-5.96534 -2.80168,-10.97622 -9.34375,-11.96875 L 37.6784,5.233693 c -3.97126,-0.42067 -8.41551,4.78057 -8.42845,11.48506 z M 30.15625,122.5 c 0.64796,0.17153 1.31467,0.32617 2.03125,0.375 z"
       id="path30953"
       inkscape:connector-curvature="0"
       sodipodi:nodetypes="ccccccccccccc" />
    <g
       id="g3087"
       transform="translate(40,0)">
      <path
         inkscape:connector-curvature="0"
         id="path3073"
         d="m -5.21875,5.312503 -22.5625,3.09375 -0.5,0 0,0.1875 c -5.715501,1.04907 -8.65625,5.59198 -8.65625,11.15625 l 0,25 26.1875,0 0,-28.03125 c 0.347051,-4.91678 2.274064,-9.96378 5.53125,-11.40625 z"
         style="fill:url(#linearGradient3092);fill-rule:evenodd;stroke:none;display:inline" />
      <path
         inkscape:connector-curvature="0"
         id="path3081"
         d="m -36.9375,68.406253 0,36.031247 c -0.07024,5.65226 2.050104,10.0952 6.3125,11.5 l 17.65625,6.03125 7.5,1.3125 c -3.710844,-1.04488 -4.81745,-6.34073 -5.3125,-10.15625 l 0,-44.718747 -26.15625,0 z"
         style="fill:url(#linearGradient3094);fill-rule:evenodd;stroke:none;display:inline" />
    </g>
    <path
       inkscape:connector-curvature="0"
       id="path30957"
       d="m 35.825012,5.0844328 c -1.734374,-0.0853 -3.26759,0.13333 -4.667303,0.50133 L 11.65504,8.5863028 C 5.9395447,9.6353728 2.9871862,14.190033 2.9871862,19.754303 l 0,84.678437 c -0.07024,5.65226 2.0718035,10.09707 6.3341998,11.50187 l 19.669357,6.16693 c 1.792241,0.74027 3.774988,1.0512 6.167512,0.6672 l 78.344065,-11.8352 c 5.72052,-0.6192 9.47847,-6.1072 9.16792,-13.66827 l 0.33339,-74.344027 c 0.22245,-5.96534 -2.79254,-10.84214 -9.33461,-11.83467 L 35.825018,5.0855028 z"
       style="fill:none;stroke:#344b63;stroke-width:2.667032;stroke-linecap:butt;stroke-linejoin:miter;stroke-miterlimit:4;stroke-opacity:1;stroke-dasharray:none;display:inline"
       sodipodi:nodetypes="ccccccccccccc" />
    <path
       sodipodi:nodetypes="ccccccccccsccsccsccccccccccsccscccccccccccc"
       id="path3021"
       d="m 34.257395,10.824856 0,12.067669 11.715989,0.792363 0,-12.067669 z m 71.947955,5.742583 0,11.187965 9.97995,0.541018 0,-10.93662 z M 76.352323,14.123431 C 57.454571,12.656559 41.474007,25.809269 36.151666,45.882738 l 10.760516,0.385499 C 51.781749,32.911348 63.121844,25.039721 76.352323,26.066691 91.42902,27.236967 101.87906,35.846908 105.188,52.555936 l 10.08282,0.369476 C 111.80028,29.568124 97.030121,15.728474 76.352323,14.123431 z m -42.094928,34.521748 0,30.672808 20.205565,-2.050967 0,-5.97163 61.47662,-3.478601 0,-11.94326 -61.47662,-0.53285 0,-5.971629 z M 105.188,71.82558 C 101.88782,88.784375 91.437945,97.032109 76.352323,99.193899 63.100965,101.09283 51.742617,93.894309 46.885873,80.804232 l -10.760515,1.092247 c 5.30519,19.766861 21.309016,31.920531 40.226965,29.209571 20.686782,-2.96445 35.458037,-16.717511 38.918497,-40.327319 z m -70.930605,33.24506 0,12.06766 11.715989,-1.46282 0,-12.06766 z m 71.947955,-10.036166 0,11.502136 9.97995,-1.46282 0,-11.062286 z"
       style="fill:#000000;fill-opacity:0.29460581;stroke:#000000;stroke-width:5;stroke-linecap:round;stroke-linejoin:round;stroke-miterlimit:4;stroke-opacity:0.73443986;stroke-dasharray:none"
       inkscape:connector-curvature="0" />
    <path
       inkscape:connector-curvature="0"
       style="fill:#ffffff"
       d="m 36.247812,10.824856 0,12.067669 11.715989,0.792363 0,-12.067669 z m 71.947948,5.742583 0,11.187965 9.97996,0.541018 0,-10.93662 z M 78.34274,14.123431 C 59.444988,12.656559 43.464424,25.809269 38.142084,45.882739 L 48.9026,46.268237 c 4.869566,-13.356889 16.209661,-21.228516 29.44014,-20.201546 15.076698,1.170276 25.52673,9.780217 28.83567,26.489245 l 10.08283,0.369476 C 113.7907,29.568124 99.020538,15.728474 78.34274,14.123431 z m -42.094928,34.521748 0,30.672809 20.205566,-2.050968 0,-5.971629 61.476622,-3.478602 0,-11.94326 -61.476622,-0.532849 0,-5.97163 z M 107.17841,71.82558 C 103.87824,88.784375 93.428363,97.032109 78.34274,99.193899 65.091382,101.09283 53.733034,93.894309 48.87629,80.804232 l -10.760515,1.092247 c 5.30519,19.766861 21.309016,31.920531 40.226965,29.209571 20.686782,-2.96445 35.45804,-16.717511 38.9185,-40.327319 z m -70.930598,33.24506 0,12.06766 11.715989,-1.46282 0,-12.06766 z m 71.947948,-10.036166 0,11.502136 9.97996,-1.46282 0,-11.062286 z"
       id="path3027"
       sodipodi:nodetypes="ccccccccccsccsccsccccccccccsccscccccccccccc" />
  </g>
</svg>
