<?xml version="1.0" encoding="UTF-8" standalone="no"?>
<!-- Created with Inkscape (http://www.inkscape.org/) -->

<svg
   xmlns:dc="http://purl.org/dc/elements/1.1/"
   xmlns:cc="http://creativecommons.org/ns#"
   xmlns:rdf="http://www.w3.org/1999/02/22-rdf-syntax-ns#"
   xmlns:svg="http://www.w3.org/2000/svg"
   xmlns="http://www.w3.org/2000/svg"
   xmlns:xlink="http://www.w3.org/1999/xlink"
   xmlns:sodipodi="http://sodipodi.sourceforge.net/DTD/sodipodi-0.dtd"
   xmlns:inkscape="http://www.inkscape.org/namespaces/inkscape"
   width="128"
   height="128"
   id="svg13792"
   version="1.1"
   inkscape:version="0.48.3.1 r9886"
   sodipodi:docname="Documento nuevo 4">
  <defs
     id="defs13794">
    <linearGradient
       inkscape:collect="always"
       xlink:href="#linearGradient5344"
       id="linearGradient13790"
       gradientUnits="userSpaceOnUse"
       gradientTransform="translate(-367.16459,-121.78503)"
       x1="476.06528"
       y1="920.02252"
       x2="534.03339"
       y2="991.27252" />
    <linearGradient
       id="linearGradient5344">
      <stop
         style="stop-color:#000000;stop-opacity:1;"
         offset="0"
         id="stop5346" />
      <stop
         style="stop-color:#000000;stop-opacity:0;"
         offset="1"
         id="stop5348" />
    </linearGradient>
    <filter
       color-interpolation-filters="sRGB"
       inkscape:collect="always"
       id="filter4494">
      <feGaussianBlur
         inkscape:collect="always"
         stdDeviation="0.43670245"
         id="feGaussianBlur4496" />
    </filter>
    <linearGradient
       inkscape:collect="always"
       xlink:href="#linearGradient8702"
       id="linearGradient13725"
       gradientUnits="userSpaceOnUse"
       gradientTransform="translate(-195.98356,-62.077331)"
       x1="498.56845"
       y1="945.46436"
       x2="513.12256"
       y2="990.0448" />
    <linearGradient
       id="linearGradient8702">
      <stop
         id="stop8704"
         offset="0"
         style="stop-color:#aac736;stop-opacity:1;" />
      <stop
         id="stop8706"
         offset="1"
         style="stop-color:#5d8b2c;stop-opacity:1;" />
    </linearGradient>
    <linearGradient
       inkscape:collect="always"
       xlink:href="#linearGradient14705"
       id="linearGradient13727"
       gradientUnits="userSpaceOnUse"
       gradientTransform="translate(-195.98356,-62.077331)"
       x1="493.28799"
       y1="968.19873"
       x2="509.46121"
       y2="982.60004" />
    <linearGradient
       id="linearGradient14705">
      <stop
         style="stop-color:#e9b551;stop-opacity:1;"
         offset="0"
         id="stop14707" />
      <stop
         style="stop-color:#b48739;stop-opacity:1;"
         offset="1"
         id="stop14709" />
    </linearGradient>
    <linearGradient
       inkscape:collect="always"
       xlink:href="#linearGradient14705"
       id="linearGradient13729"
       gradientUnits="userSpaceOnUse"
       gradientTransform="translate(-195.98356,-62.077331)"
       x1="517.16412"
       y1="967.74622"
       x2="532.38782"
       y2="980.87677" />
    <linearGradient
       id="linearGradient13825">
      <stop
         style="stop-color:#e9b551;stop-opacity:1;"
         offset="0"
         id="stop13827" />
      <stop
         style="stop-color:#b48739;stop-opacity:1;"
         offset="1"
         id="stop13829" />
    </linearGradient>
    <linearGradient
       inkscape:collect="always"
       xlink:href="#linearGradient9590"
       id="linearGradient13731"
       gradientUnits="userSpaceOnUse"
       gradientTransform="translate(-195.98356,-62.077331)"
       x1="511.72726"
       y1="984.45819"
       x2="498.23068"
       y2="939.2326" />
    <linearGradient
       id="linearGradient9590">
      <stop
         style="stop-color:#ffffff;stop-opacity:0.0000000;"
         offset="0.0000000"
         id="stop9591" />
      <stop
         style="stop-color:#fff;stop-opacity:1;"
         offset="1"
         id="stop9592" />
    </linearGradient>
    <linearGradient
       inkscape:collect="always"
       xlink:href="#linearGradient14753"
       id="linearGradient13733"
       gradientUnits="userSpaceOnUse"
       gradientTransform="translate(-195.98356,-62.077331)"
       x1="492.41443"
       y1="955.1969"
       x2="492.30228"
       y2="967.10236" />
    <linearGradient
       id="linearGradient14753">
      <stop
         style="stop-color:#ffffff;stop-opacity:1;"
         offset="0"
         id="stop14755" />
      <stop
         style="stop-color:#000000;stop-opacity:1;"
         offset="1"
         id="stop14757" />
    </linearGradient>
    <linearGradient
       inkscape:collect="always"
       xlink:href="#linearGradient14753"
       id="linearGradient13735"
       gradientUnits="userSpaceOnUse"
       gradientTransform="translate(-195.98356,-62.077331)"
       x1="503.77573"
       y1="955.68188"
       x2="503.77573"
       y2="966.539" />
    <linearGradient
       id="linearGradient13840">
      <stop
         style="stop-color:#ffffff;stop-opacity:1;"
         offset="0"
         id="stop13842" />
      <stop
         style="stop-color:#000000;stop-opacity:1;"
         offset="1"
         id="stop13844" />
    </linearGradient>
    <linearGradient
       inkscape:collect="always"
       xlink:href="#linearGradient14753"
       id="linearGradient13737"
       gradientUnits="userSpaceOnUse"
       gradientTransform="translate(-195.98356,-62.077331)"
       x1="518.70648"
       y1="955.88062"
       x2="518.70648"
       y2="965.88147" />
    <linearGradient
       id="linearGradient13847">
      <stop
         style="stop-color:#ffffff;stop-opacity:1;"
         offset="0"
         id="stop13849" />
      <stop
         style="stop-color:#000000;stop-opacity:1;"
         offset="1"
         id="stop13851" />
    </linearGradient>
    <linearGradient
       inkscape:collect="always"
       xlink:href="#linearGradient14753"
       id="linearGradient13739"
       gradientUnits="userSpaceOnUse"
       gradientTransform="translate(-195.98356,-62.077331)"
       x1="527.19702"
       y1="955.8988"
       x2="527.19702"
       y2="965.60419" />
    <linearGradient
       id="linearGradient13854">
      <stop
         style="stop-color:#ffffff;stop-opacity:1;"
         offset="0"
         id="stop13856" />
      <stop
         style="stop-color:#000000;stop-opacity:1;"
         offset="1"
         id="stop13858" />
    </linearGradient>
    <linearGradient
       inkscape:collect="always"
       xlink:href="#linearGradient14753"
       id="linearGradient13741"
       gradientUnits="userSpaceOnUse"
       gradientTransform="translate(-195.98356,-62.077331)"
       x1="492.81604"
       y1="945.5072"
       x2="494.95023"
       y2="972.76233" />
    <linearGradient
       id="linearGradient13861">
      <stop
         style="stop-color:#ffffff;stop-opacity:1;"
         offset="0"
         id="stop13863" />
      <stop
         style="stop-color:#000000;stop-opacity:1;"
         offset="1"
         id="stop13865" />
    </linearGradient>
    <linearGradient
       inkscape:collect="always"
       xlink:href="#linearGradient14753"
       id="linearGradient13743"
       gradientUnits="userSpaceOnUse"
       gradientTransform="translate(-195.98356,-62.077331)"
       x1="501.63544"
       y1="944.79633"
       x2="508.05038"
       y2="972.65057" />
    <linearGradient
       id="linearGradient13868">
      <stop
         style="stop-color:#ffffff;stop-opacity:1;"
         offset="0"
         id="stop13870" />
      <stop
         style="stop-color:#000000;stop-opacity:1;"
         offset="1"
         id="stop13872" />
    </linearGradient>
    <linearGradient
       inkscape:collect="always"
       xlink:href="#linearGradient14753"
       id="linearGradient13745"
       gradientUnits="userSpaceOnUse"
       gradientTransform="translate(-195.98356,-62.077331)"
       x1="515.69135"
       y1="944.58105"
       x2="521.90485"
       y2="970.7879" />
    <linearGradient
       id="linearGradient13875">
      <stop
         style="stop-color:#ffffff;stop-opacity:1;"
         offset="0"
         id="stop13877" />
      <stop
         style="stop-color:#000000;stop-opacity:1;"
         offset="1"
         id="stop13879" />
    </linearGradient>
    <linearGradient
       inkscape:collect="always"
       xlink:href="#linearGradient14753"
       id="linearGradient13747"
       gradientUnits="userSpaceOnUse"
       gradientTransform="translate(-195.98356,-62.077331)"
       x1="524.37054"
       y1="946.08575"
       x2="530.97644"
       y2="968.09955" />
    <linearGradient
       id="linearGradient13882">
      <stop
         style="stop-color:#ffffff;stop-opacity:1;"
         offset="0"
         id="stop13884" />
      <stop
         style="stop-color:#000000;stop-opacity:1;"
         offset="1"
         id="stop13886" />
    </linearGradient>
    <linearGradient
       inkscape:collect="always"
       xlink:href="#linearGradient9863"
       id="linearGradient13749"
       gradientUnits="userSpaceOnUse"
       gradientTransform="translate(-195.98356,-102.07733)"
       x1="486.07321"
       y1="1003.7836"
       x2="532.50079"
       y2="1003.7836" />
    <linearGradient
       id="linearGradient9863">
      <stop
         style="stop-color:#2f445a;stop-opacity:1;"
         offset="0"
         id="stop9865" />
      <stop
         style="stop-color:#415f7c;stop-opacity:1"
         offset="1"
         id="stop9867" />
    </linearGradient>
    <linearGradient
       y2="1003.7836"
       x2="532.50079"
       y1="1003.7836"
       x1="486.07321"
       gradientTransform="translate(-195.98356,-102.07733)"
       gradientUnits="userSpaceOnUse"
       id="linearGradient13911"
       xlink:href="#linearGradient9863"
       inkscape:collect="always" />
  </defs>
  <sodipodi:namedview
     id="base"
     pagecolor="#ffffff"
     bordercolor="#666666"
     borderopacity="1.0"
     inkscape:pageopacity="0.0"
     inkscape:pageshadow="2"
     inkscape:zoom="1.979899"
     inkscape:cx="110.71811"
     inkscape:cy="73.921666"
     inkscape:document-units="px"
     inkscape:current-layer="layer1"
     showgrid="false"
     inkscape:window-width="1366"
     inkscape:window-height="717"
     inkscape:window-x="0"
     inkscape:window-y="0"
     inkscape:window-maximized="1" />
  <metadata
     id="metadata13797">
    <rdf:RDF>
      <cc:Work
         rdf:about="">
        <dc:format>image/svg+xml</dc:format>
        <dc:type
           rdf:resource="http://purl.org/dc/dcmitype/StillImage" />
        <dc:title></dc:title>
      </cc:Work>
    </rdf:RDF>
  </metadata>
  <g
     inkscape:label="Capa 1"
     inkscape:groupmode="layer"
     id="layer1"
     transform="translate(0,-924.36218)">
    <g
       id="g13709"
       transform="matrix(2.6666667,0,0,2.6666667,-771.51539,-1415.2728)">
      <path
         sodipodi:nodetypes="ccccccccc"
         id="path29052"
         d="m 336.01721,890.11113 -0.1059,19.27235 -19.7129,2.1182 -0.011,-1.6466 -0.6733,0.084 -0.01,1.6281 -24.9152,2.6877 0.1059,-25.09637 45.3217,0.95303 z"
         style="fill:url(#linearGradient13725);fill-rule:evenodd;stroke:none;display:inline"
         inkscape:connector-curvature="0" />
      <path
         sodipodi:nodetypes="ccccc"
         id="path29056"
         d="m 315.49091,911.53308 0.028,-1.2167 -24.8778,2.4709 -0.038,1.4227 24.8872,-2.6769 z"
         style="fill:url(#linearGradient13727);fill-rule:evenodd;stroke:none;display:inline"
         inkscape:connector-curvature="0" />
      <path
         id="path29058"
         d="m 316.17421,910.24148 0.019,1.2542 19.7113,-2.1153 0,-1.067 -19.73,1.9281 z"
         style="fill:url(#linearGradient13729);fill-rule:evenodd;stroke:none;display:inline"
         inkscape:connector-curvature="0" />
      <path
         sodipodi:nodetypes="ccccccccccccccccccccccccc"
         id="path29060"
         d="m 291.03431,912.73118 0.8798,-2.3399 9.734,-0.936 1.3478,-2.0591 5.3162,-0.5242 1.2729,2.3961 3.669,-0.2995 0,-2.8453 -1.3478,-1.7971 0,-1.2729 2.2463,-0.1497 0,-8.01186 1.1232,-1.79704 1.7221,0 0,5.2414 1.5724,-0.075 0,4.4926 -1.5724,1.797 0,3.8936 8.6857,-0.7487 1.4227,-1.7971 6.2897,-0.5241 1.9468,1.4975 0,1.4227 -44.3084,4.4364 z"
         style="fill:url(#linearGradient13731);fill-rule:evenodd;stroke:none;display:inline"
         inkscape:connector-curvature="0" />
      <path
         sodipodi:nodetypes="ccccc"
         id="path29062"
         d="m 292.96241,894.3986 0,12.07288 8.3223,-0.6883 0,-11.48932 -8.3223,0.10474 z"
         style="fill:url(#linearGradient13733);fill-rule:evenodd;stroke:none;display:inline"
         inkscape:connector-curvature="0" />
      <path
         style="fill:url(#linearGradient13735);fill-rule:evenodd;stroke:none;display:inline"
         d="m 303.99401,894.3554 0,11.25008 7.5433,-0.5885 0.053,-10.75918 -7.5963,0.0976 z"
         id="path29064"
         sodipodi:nodetypes="ccccc"
         inkscape:connector-curvature="0" />
      <path
         sodipodi:nodetypes="ccccc"
         id="path29066"
         d="m 319.23131,894.33031 0,10.34207 6.9345,-0.541 0.049,-9.8908 -6.9832,0.0897 z"
         style="fill:url(#linearGradient13737);fill-rule:evenodd;stroke:none;display:inline"
         inkscape:connector-curvature="0" />
      <path
         style="fill:url(#linearGradient13739);fill-rule:evenodd;stroke:none;display:inline"
         d="m 327.91041,894.28854 0,9.78334 6.5599,-0.5118 0.046,-9.35642 -6.606,0.0849 z"
         id="path29068"
         sodipodi:nodetypes="ccccc"
         inkscape:connector-curvature="0" />
      <path
         style="fill:url(#linearGradient13741);fill-rule:evenodd;stroke:none;display:inline"
         d="m 293.43891,894.66333 0,11.78165 8.3223,-0.5824 0,-11.30399 -8.3223,0.10474 z"
         id="path29070"
         sodipodi:nodetypes="ccccc"
         inkscape:connector-curvature="0" />
      <path
         sodipodi:nodetypes="ccccc"
         id="path29072"
         d="m 304.47051,894.62013 0,11.03825 7.5433,-0.562 0.053,-10.57385 -7.5963,0.0976 z"
         style="fill:url(#linearGradient13743);fill-rule:evenodd;stroke:none;display:inline"
         inkscape:connector-curvature="0" />
      <path
         style="fill:url(#linearGradient13745);fill-rule:evenodd;stroke:none;display:inline"
         d="m 319.70781,894.59504 0,10.05084 6.9345,-0.4615 0.049,-9.67907 -6.9832,0.0897 z"
         id="path29074"
         sodipodi:nodetypes="ccccc"
         inkscape:connector-curvature="0" />
      <path
         sodipodi:nodetypes="ccccc"
         id="path29076"
         d="m 328.38691,894.55327 0,9.54501 6.5599,-0.4587 0.046,-9.17119 -6.606,0.0849 z"
         style="fill:url(#linearGradient13747);fill-rule:evenodd;stroke:none;display:inline"
         inkscape:connector-curvature="0" />
      <path
         style="fill:none;stroke:url(#linearGradient13911);stroke-width:1px;stroke-linecap:butt;stroke-linejoin:miter;stroke-opacity:1;display:inline"
         d="m 336.01721,890.11113 -0.1059,19.27235 -19.7129,2.1182 -0.011,-1.6466 -0.6733,0.083 -0.01,1.6281 -24.9152,2.6878 0.1059,-25.09638 45.3217,0.95303 z"
         id="path29100"
         sodipodi:nodetypes="ccccccccc"
         inkscape:connector-curvature="0" />
    </g>
    <path
       inkscape:export-ydpi="57.964222"
       inkscape:export-xdpi="57.964222"
       inkscape:export-filename="/home/dafeba/DCV/tallerD/bocetos/08-09-22-hastaahora.png"
       sodipodi:type="arc"
       style="fill:#c4e5ff;fill-opacity:1;stroke:#004255;stroke-width:0.69999999;stroke-linecap:round;stroke-linejoin:round;stroke-miterlimit:4;stroke-opacity:0.61450381;stroke-dasharray:none;stroke-dashoffset:0;display:inline"
       id="path13778"
       sodipodi:cx="939.5"
       sodipodi:cy="381.61218"
       sodipodi:rx="1"
       sodipodi:ry="1"
       d="m 940.5,381.61218 a 1,1 0 1 1 -2,0 1,1 0 1 1 2,0 z"
       transform="matrix(4.1692512,0,0,4.1692512,-3813.3437,-642.76057)" />
    <path
       inkscape:export-ydpi="57.964222"
       inkscape:export-xdpi="57.964222"
       inkscape:export-filename="/home/dafeba/DCV/tallerD/bocetos/08-09-22-hastaahora.png"
       id="path13784"
       d="m 77.272823,928.9781 c -1.54187,1.93168 -1.36773,4.71776 0.40267,6.44243 l 14.8981,14.89816 -14.9653,14.96525 c -1.89014,1.89024 -1.89014,4.95488 0,6.84512 1.89013,1.89019 4.9549,1.89021 6.84504,0 l 14.96533,-14.96528 14.898127,14.89816 c 1.1744,1.37323 3.00774,1.96571 4.7648,1.54352 1.7568,-0.42229 3.1344,-1.79984 3.55654,-3.55677 0.42213,-1.75696 -0.17014,-3.59027 -1.54347,-4.76475 l -14.89813,-14.89813 14.96533,-14.96528 c 1.89013,-1.89022 1.89013,-4.95488 0,-6.8451 -1.89013,-1.89021 -4.95493,-1.89021 -6.84507,0 l -14.965327,14.96528 -14.89813,-14.89816 c -0.9592,-0.98344 -2.31864,-1.47344 -3.69091,-1.4093 -1.37227,0.0643 -2.6264,0.67624 -3.4896,1.74485 z"
       style="fill:#c2e3ff;fill-opacity:1;fill-rule:evenodd;stroke:#000000;stroke-width:2.66666675;stroke-linecap:round;stroke-linejoin:miter;stroke-miterlimit:4;stroke-opacity:1;stroke-dasharray:none;display:inline"
       inkscape:connector-curvature="0" />
    <path
       transform="matrix(2.6666667,0,0,2.6666667,-252.76538,-1267.3868)"
       id="path13786"
       d="m 122.55652,826.68602 c -0.5782,0.72438 -0.5129,1.76916 0.151,2.41591 l 5.5868,5.58681 -5.612,5.61197 c -0.7088,0.70884 -0.7088,1.85808 0,2.56692 0.7088,0.70882 1.8581,0.70883 2.5669,0 l 5.612,-5.61198 5.5868,5.58681 c 0.4404,0.51496 1.1279,0.73714 1.7868,0.57882 0.6588,-0.15836 1.1754,-0.67494 1.3337,-1.33379 0.1583,-0.65886 -0.0638,-1.34635 -0.5788,-1.78678 l -5.5868,-5.5868 5.612,-5.61198 c 0.7088,-0.70883 0.7088,-1.85808 0,-2.56691 -0.7088,-0.70883 -1.8581,-0.70883 -2.5669,0 l -5.612,5.61198 -5.5868,-5.58681 c -0.3597,-0.36879 -0.8695,-0.55254 -1.3841,-0.52849 -0.5146,0.0241 -0.9849,0.25359 -1.3086,0.65432 z"
       style="fill:url(#linearGradient13790);fill-opacity:1;fill-rule:evenodd;stroke:none;display:inline;filter:url(#filter4494)"
       inkscape:export-filename="/home/dafeba/DCV/tallerD/bocetos/08-09-22-hastaahora.png"
       inkscape:export-xdpi="57.964222"
       inkscape:export-ydpi="57.964222"
       inkscape:connector-curvature="0" />
    <path
       inkscape:export-ydpi="57.964222"
       inkscape:export-xdpi="57.964222"
       inkscape:export-filename="/home/dafeba/DCV/tallerD/bocetos/08-09-22-hastaahora.png"
       style="fill:#ff0000;fill-opacity:1;fill-rule:evenodd;stroke:none;display:inline"
       d="m 77.272823,928.9781 c -1.54187,1.93168 -1.36773,4.71776 0.40267,6.44243 l 14.8981,14.89816 -14.9653,14.96525 c -1.89014,1.89024 -1.89014,4.95488 0,6.84512 1.89013,1.89019 4.9549,1.89021 6.84504,0 l 14.96533,-14.96528 14.898127,14.89816 c 1.1744,1.37323 3.00774,1.96571 4.7648,1.54352 1.7568,-0.42229 3.1344,-1.79984 3.55654,-3.55677 0.42213,-1.75696 -0.17014,-3.59027 -1.54347,-4.76475 l -14.89813,-14.89813 14.96533,-14.96528 c 1.89013,-1.89022 1.89013,-4.95488 0,-6.8451 -1.89013,-1.89021 -4.95493,-1.89021 -6.84507,0 l -14.965327,14.96528 -14.89813,-14.89816 c -0.9592,-0.98344 -2.31864,-1.47344 -3.69091,-1.4093 -1.37227,0.0643 -2.6264,0.67624 -3.4896,1.74485 z"
       id="path13788"
       inkscape:connector-curvature="0" />
  </g>
</svg>
