<?xml version="1.0" encoding="UTF-8" standalone="no"?>
<!-- Created with Inkscape (http://www.inkscape.org/) -->

<svg
   xmlns:dc="http://purl.org/dc/elements/1.1/"
   xmlns:cc="http://creativecommons.org/ns#"
   xmlns:rdf="http://www.w3.org/1999/02/22-rdf-syntax-ns#"
   xmlns:svg="http://www.w3.org/2000/svg"
   xmlns="http://www.w3.org/2000/svg"
   xmlns:xlink="http://www.w3.org/1999/xlink"
   xmlns:sodipodi="http://sodipodi.sourceforge.net/DTD/sodipodi-0.dtd"
   xmlns:inkscape="http://www.inkscape.org/namespaces/inkscape"
   width="128"
   height="128"
   id="svg2"
   sodipodi:version="0.32"
   inkscape:version="0.48.3.1 r9886"
   version="1.0"
   sodipodi:docname="mate-panel-launcher.svg">
  <defs
     id="defs4">
    <linearGradient
       id="linearGradient3071">
      <stop
         style="stop-color:#1a1a1a;stop-opacity:1;"
         offset="0"
         id="stop3073" />
      <stop
         style="stop-color:#ffffff;stop-opacity:1;"
         offset="1"
         id="stop3075" />
    </linearGradient>
    <linearGradient
       inkscape:collect="always"
       id="linearGradient3170">
      <stop
         style="stop-color:black;stop-opacity:1;"
         offset="0"
         id="stop3172" />
      <stop
         style="stop-color:black;stop-opacity:0;"
         offset="1"
         id="stop3174" />
    </linearGradient>
    <linearGradient
       inkscape:collect="always"
       xlink:href="#linearGradient3170"
       id="linearGradient3069"
       x1="67.79348"
       y1="37.955597"
       x2="62.394066"
       y2="23.094162"
       gradientUnits="userSpaceOnUse" />
    <linearGradient
       inkscape:collect="always"
       xlink:href="#linearGradient3071"
       id="linearGradient3077"
       x1="108.5"
       y1="31.625"
       x2="-248.375"
       y2="49.625"
       gradientUnits="userSpaceOnUse" />
    <linearGradient
       inkscape:collect="always"
       xlink:href="#linearGradient3071"
       id="linearGradient3865"
       gradientUnits="userSpaceOnUse"
       x1="108.5"
       y1="31.625"
       x2="-248.375"
       y2="49.625"
       gradientTransform="translate(140,0)" />
    <linearGradient
       inkscape:collect="always"
       xlink:href="#linearGradient3170"
       id="linearGradient3867"
       gradientUnits="userSpaceOnUse"
       x1="83.0214"
       y1="20.060413"
       x2="28.15484"
       y2="57.810413"
       gradientTransform="translate(140,0)" />
    <linearGradient
       gradientTransform="matrix(0.66666667,0,0,0.66666667,-416.8382,434.88802)"
       inkscape:collect="always"
       xlink:href="#linearGradient9863"
       id="linearGradient7873"
       x1="644.40491"
       y1="926.25873"
       x2="652.68567"
       y2="883.30194"
       gradientUnits="userSpaceOnUse" />
    <linearGradient
       id="linearGradient9863">
      <stop
         style="stop-color:#2f445a;stop-opacity:1;"
         offset="0"
         id="stop9865" />
      <stop
         style="stop-color:#415f7c;stop-opacity:1"
         offset="1"
         id="stop9867" />
    </linearGradient>
    <linearGradient
       y2="883.30194"
       x2="652.68567"
       y1="926.25873"
       x1="644.40491"
       gradientTransform="matrix(0.66666667,0,0,0.66666667,-281.45516,-610.63547)"
       gradientUnits="userSpaceOnUse"
       id="linearGradient3945"
       xlink:href="#linearGradient9863"
       inkscape:collect="always" />
    <linearGradient
       inkscape:collect="always"
       xlink:href="#linearGradient9863"
       id="linearGradient3893"
       x1="63.990662"
       y1="47.53933"
       x2="63.990662"
       y2="-76.915947"
       gradientUnits="userSpaceOnUse" />
    <linearGradient
       inkscape:collect="always"
       xlink:href="#linearGradient3071"
       id="linearGradient3905"
       gradientUnits="userSpaceOnUse"
       x1="65.361389"
       y1="-158.1207"
       x2="66.374359"
       y2="126.6293"
       gradientTransform="translate(0,80)" />
    <linearGradient
       inkscape:collect="always"
       xlink:href="#linearGradient3170"
       id="linearGradient3908"
       gradientUnits="userSpaceOnUse"
       gradientTransform="translate(0,80)"
       x1="65.361389"
       y1="-50.717648"
       x2="65.361389"
       y2="-9.8323259" />
  </defs>
  <sodipodi:namedview
     id="base"
     pagecolor="#ffffff"
     bordercolor="#666666"
     borderopacity="1.0"
     inkscape:pageopacity="0.0"
     inkscape:pageshadow="2"
     inkscape:zoom="0.7071068"
     inkscape:cx="140.59121"
     inkscape:cy="9.1675503"
     inkscape:document-units="px"
     inkscape:current-layer="layer2"
     width="48px"
     height="48px"
     inkscape:showpageshadow="false"
     showgrid="false"
     inkscape:window-width="1366"
     inkscape:window-height="717"
     inkscape:window-x="0"
     inkscape:window-y="0"
     inkscape:grid-points="true"
     showguides="true"
     inkscape:guide-bbox="true"
     showborder="true"
     inkscape:window-maximized="1">
    <inkscape:grid
       id="GridFromPre046Settings"
       type="xygrid"
       originx="0px"
       originy="0px"
       spacingx="0.5px"
       spacingy="0.5px"
       color="#3f3fff"
       empcolor="#3f3fff"
       opacity="0.15"
       empopacity="0.38"
       empspacing="2"
       visible="true"
       enabled="true"
       snapvisiblegridlinesonly="true" />
  </sodipodi:namedview>
  <metadata
     id="metadata7">
    <rdf:RDF>
      <cc:Work
         rdf:about="">
        <dc:format>image/svg+xml</dc:format>
        <dc:type
           rdf:resource="http://purl.org/dc/dcmitype/StillImage" />
        <cc:license
           rdf:resource="http://creativecommons.org/licenses/GPL/2.0/" />
        <dc:creator>
          <cc:Agent>
            <dc:title>Lapo Calamandrei</dc:title>
          </cc:Agent>
        </dc:creator>
        <dc:title>Launcher</dc:title>
        <dc:contributor>
          <cc:Agent>
            <dc:title>Jakub Steiner</dc:title>
          </cc:Agent>
        </dc:contributor>
      </cc:Work>
      <cc:License
         rdf:about="http://creativecommons.org/licenses/GPL/2.0/">
        <cc:permits
           rdf:resource="http://web.resource.org/cc/Reproduction" />
        <cc:permits
           rdf:resource="http://web.resource.org/cc/Distribution" />
        <cc:requires
           rdf:resource="http://web.resource.org/cc/Notice" />
        <cc:permits
           rdf:resource="http://web.resource.org/cc/DerivativeWorks" />
        <cc:requires
           rdf:resource="http://web.resource.org/cc/ShareAlike" />
        <cc:requires
           rdf:resource="http://web.resource.org/cc/SourceCode" />
      </cc:License>
    </rdf:RDF>
  </metadata>
  <g
     inkscape:groupmode="layer"
     id="layer4"
     inkscape:label="shadow"
     style="display:inline"
     transform="translate(0,80)" />
  <g
     inkscape:groupmode="layer"
     id="layer3"
     inkscape:label="spring"
     style="display:inline"
     transform="translate(0,80)" />
  <g
     inkscape:groupmode="layer"
     id="layer2"
     inkscape:label="platform"
     style="display:inline"
     transform="translate(0,80)">
    <path
       style="fill:#000000;stroke:none;stroke-width:1px;stroke-linecap:butt;stroke-linejoin:miter;stroke-opacity:1"
       d="m 2.375,34 61.375,0.5 60.5,-0.875 -5.375,-3.5 -76.125,-1.5 z"
       id="path3112"
       inkscape:connector-curvature="0"
       transform="translate(0,-80)" />
    <path
       style="fill:url(#linearGradient3077);stroke:none;stroke-width:2.66666675000000009px;stroke-linecap:round;stroke-linejoin:round;stroke-opacity:1;display:inline;fill-opacity:1"
       d="M 2.2714019,34.5168 39.515241,45.254534 124.56045,31.385067 82.654841,23.866293 z"
       id="path7589"
       inkscape:connector-curvature="0"
       sodipodi:nodetypes="ccccc" />
    <path
       style="font-size:medium;font-style:normal;font-variant:normal;font-weight:normal;font-stretch:normal;text-indent:0;text-align:start;text-decoration:none;line-height:normal;letter-spacing:normal;word-spacing:normal;text-transform:none;direction:ltr;block-progression:tb;writing-mode:lr-tb;text-anchor:start;baseline-shift:baseline;color:#000000;fill:#ff3200;fill-opacity:1;stroke:none;stroke-width:6.66666650999999977;marker:none;visibility:visible;display:inline;overflow:visible;enable-background:accumulate;font-family:Sans;-inkscape-font-specification:Sans"
       d="m 47.048808,-44.389343 c -0.620229,3.294122 -0.60091,6.398203 -0.111308,9.295593 -1.36114,1.358579 -2.602859,2.887709 -3.59375,4.71875 -0.03267,0.05122 -0.06393,0.103325 -0.09375,0.15625 -2.445532,5.139261 -4.134011,12.676129 -4.53125,19.4375 -0.08845,1.5055613 0.02807,2.9465102 0.28125,4.34375 -0.367176,0.4989953 -0.821612,0.9041921 -1.125,1.46875 -0.01064,0.020723 -0.02105,0.041558 -0.03125,0.0625 C 35.549366,-0.42845583 33.264718,7.2722992 32.75,11.5 c -0.352485,2.895184 -0.01134,5.628276 0.78125,8.15625 -0.500762,1.858855 -0.624916,3.837972 -0.4375,5.84375 0.312588,3.34541 1.39273,6.832608 3.0625,10.15625 1.64254,3.269439 3.872774,6.43811 6.643052,8.977463 L 52.959989,43.02332 C 48.613534,41.703378 44.573528,37.529992 42.125,32.65625 41.775528,31.960634 41.559306,31.266012 41.28125,30.5625 c 2.937424,2.372627 6.291235,4.22782 9.78125,5.53125 5.003986,1.868859 10.21567,2.684069 14.8125,2.25 4.557827,-0.430386 9.016147,-2.260825 10.84375,-6.46875 l 0.03125,0 c 0.0087,-0.01919 -0.0085,-0.04325 0,-0.0625 0.005,-0.01129 0.02635,-0.01994 0.03125,-0.03125 0.880932,-2.035448 0.614684,-4.417602 -0.28125,-6.1875 -0.909404,-1.796507 -2.306712,-3.211443 -3.9375,-4.5 -3.261576,-2.577113 -7.630568,-4.665018 -12.3125,-6.25 -4.681932,-1.584982 -9.636528,-2.632769 -14.03125,-2.75 -2.197361,-0.05862 -4.266981,0.116894 -6.1875,0.6875 -0.237821,0.07066 -0.451689,0.2265 -0.6875,0.3125 0.01765,-0.26514 -0.0019,-0.509264 0.03125,-0.78125 0.213132,-1.750587 1.72205,-6.7812213 3.125,-10.65625 0.833282,1.1468906 1.792322,2.2105402 2.8125,3.1875 4.123058,3.9483889 9.509305,6.664007 15,8.40625 5.490695,1.742243 11.080597,2.519357 15.84375,2.1875 2.381576,-0.165928 4.557777,-0.594856 6.5,-1.46875 1.929602,-0.868215 3.737693,-2.331975 4.59375,-4.5 0.0056,-0.01418 0.02573,-0.017007 0.03125,-0.03125 l -0.03125,0 c 0.947003,-2.388165 0.826494,-5.0055569 -0.0625,-7.21875 -0.892649,-2.22229326 -2.416411,-4.1117749 -4.28125,-5.78125 -3.729678,-3.3389502 -8.895705,-5.9188863 -14.5,-7.625 -5.604295,-1.706114 -11.639726,-2.501846 -17.125,-1.8125 -2.004671,0.251931 -3.921075,0.815749 -5.75,1.5625 0.467628,-5.65173 2.030434,-12.248985 3.75,-15.875 0.0033,-0.007 -0.0033,-0.02422 0,-0.03125 0.07964,-0.143268 0.19878,-0.236512 0.28125,-0.375 0.280839,0.501022 0.465502,1.055745 0.78125,1.53125 3.788979,5.706059 9.735529,9.601879 15.96875,12.09375 6.233221,2.491871 12.79378,3.606859 18.375,3.5 2.79061,-0.05343 5.337677,-0.404134 7.5625,-1.1875 2.087472,-0.735005 4.008563,-1.970531 5.15625,-4.03125 l 0.0625,0.0625 c 0.04987,-0.07665 0.04662,-0.172125 0.09375,-0.25 0.03219,-0.06304 0.09436,-0.09158 0.125,-0.15625 L 97.625,-16.1875 c 1.267541,-2.212533 1.572444,-4.843032 0.90625,-7.125 -0.707446,-2.423272 -2.182645,-4.53799 -4.0625,-6.46875 -3.759711,-3.86152 -9.297807,-7.104153 -15.5,-9.28125 -6.202193,-2.177097 -13.078135,-3.253708 -19.53125,-2.21875 -2.149519,0.344742 -4.224969,1.037678 -6.21875,1.9375 0.03507,-2.020012 0.30457,-4.165357 1.09375,-6.625 -1.45638,-0.187037 -5.649971,-0.977712 -7.263692,1.579407 z M 64.375,-35 c 4.011318,-0.0078 8.341045,0.802749 12.375,2.21875 5.378607,1.888001 10.211348,4.856276 12.9375,7.65625 1.363076,1.399987 2.163614,2.749336 2.4375,3.6875 0.273886,0.938164 0.200532,1.338817 -0.25,2.03125 -0.08218,0.13015 -0.155329,0.266 -0.21875,0.40625 0.0092,-0.01938 -0.365557,0.494047 -1.625,0.9375 -1.259443,0.443453 -3.194638,0.768959 -5.46875,0.8125 -4.548224,0.08708 -10.430238,-0.892062 -15.78125,-3.03125 -5.351012,-2.139188 -10.114329,-5.436284 -12.875,-9.59375 -0.578169,-0.870701 -1.022704,-1.795141 -1.4375,-2.75 1.770766,-1.022296 3.782643,-1.733116 6.03125,-2.09375 1.238502,-0.198632 2.537894,-0.278653 3.875,-0.28125 z m -12.25,28.59375 c 4.197429,-0.5275001 9.477142,0.1122103 14.34375,1.59375 4.866608,1.4815397 9.33885,3.83638686 12,6.21875 C 79.799325,2.5974316 80.630055,3.7665041 81,4.6875 81.369945,5.6084959 81.381425,6.2038934 81.0625,7 c -4.9e-5,0.010417 -4.9e-5,0.020833 0,0.03125 C 81.02325,7.1325871 80.815681,7.4658058 79.90625,7.875 78.996819,8.2841942 77.517382,8.6537591 75.6875,8.78125 72.027735,9.0362318 67.062022,8.4133124 62.3125,6.90625 57.562978,5.3991876 53.011484,3.0049341 49.90625,0.03125 c -1.503649,-1.4399487 -2.658425,-2.9704431 -3.4375,-4.625 1.463695,-0.9019879 3.330339,-1.5201976 5.65625,-1.8125 z M 46.0625,18.75 c 3.434052,0.09161 7.878599,1.000447 12.03125,2.40625 4.152651,1.405803 8.045872,3.371847 10.34375,5.1875 1.148939,0.907827 1.844885,1.758372 2.09375,2.25 0.248865,0.491628 0.193712,0.379319 0.125,0.53125 -0.01088,0.03109 -0.0213,0.06235 -0.03125,0.09375 -0.465699,1.110271 -2.09626,2.190395 -5.375,2.5 -3.27874,0.309605 -7.687319,-0.322681 -11.84375,-1.875 -4.156431,-1.552319 -8.044995,-4.006045 -10.625,-7 -0.831553,-0.964972 -1.509765,-1.975991 -2.0625,-3.03125 0.09785,-0.126662 0.3495,-0.397987 1.21875,-0.65625 0.93974,-0.279207 2.407974,-0.452052 4.125,-0.40625 z"
       id="path8403"
       inkscape:connector-curvature="0"
       sodipodi:nodetypes="ccccscccscssccscssccccssssscccsssscccssssccccsssscccccsssscccssssccsssscssssssccsssscsssssccssscss" />
    <path
       sodipodi:nodetypes="ccccc"
       inkscape:connector-curvature="0"
       id="path3067"
       d="m 2.2714019,34.5168 37.2438391,10.737734 42.92021,-7.119467 0.21939,-14.268774 z"
       style="fill:url(#linearGradient3069);stroke:none;display:inline" />
    <path
       style="fill:#aa0000;stroke:none;display:inline"
       d="m 43.472947,-47.816799 -0.117866,-6.30504 -41.3657591,3.71232 0.0632,4.59619 z"
       id="path8391"
       inkscape:connector-curvature="0"
       sodipodi:nodetypes="ccccc" />
    <path
       style="fill:#ff0000;stroke:none;display:inline"
       d="m 124.48085,-46.141729 -0.0443,-5.15107 -81.081606,-2.77011 0.117867,6.26083 z"
       id="path8393"
       inkscape:connector-curvature="0"
       sodipodi:nodetypes="ccccc" />
    <path
       style="font-size:medium;font-style:normal;font-variant:normal;font-weight:normal;font-stretch:normal;text-indent:0;text-align:start;text-decoration:none;line-height:normal;letter-spacing:normal;word-spacing:normal;text-transform:none;direction:ltr;block-progression:tb;writing-mode:lr-tb;text-anchor:start;baseline-shift:baseline;color:#000000;fill:url(#linearGradient3908);fill-opacity:1;stroke:none;stroke-width:6.66666650999999977;marker:none;visibility:visible;display:inline;overflow:visible;enable-background:accumulate;font-family:Sans;-inkscape-font-specification:Sans"
       d="M 50.75 33.78125 C 49.31784 33.879841 47.86936 34.34644 47.0625 35.625 C 46.442271 38.919122 46.447898 42.00886 46.9375 44.90625 C 45.57636 46.264829 44.334641 47.793959 43.34375 49.625 C 43.31108 49.67622 43.27982 49.728325 43.25 49.78125 C 40.804468 54.920511 39.115989 62.457379 38.71875 69.21875 C 38.645223 70.470304 38.735734 71.669488 38.90625 72.84375 L 77.875 72.84375 C 75.024285 71.195179 71.800054 69.845675 68.40625 68.8125 C 62.801955 67.106386 56.766524 66.310654 51.28125 67 C 49.276579 67.251931 47.360175 67.815749 45.53125 68.5625 C 45.998878 62.91077 47.561684 56.313515 49.28125 52.6875 C 49.28455 52.6805 49.27795 52.66328 49.28125 52.65625 C 49.36089 52.512982 49.48003 52.419738 49.5625 52.28125 C 49.843339 52.782272 50.028002 53.336995 50.34375 53.8125 C 54.132729 59.518559 60.079279 63.414379 66.3125 65.90625 C 72.545721 68.398121 79.10628 69.513109 84.6875 69.40625 C 87.47811 69.35282 90.025177 69.002116 92.25 68.21875 C 94.337472 67.483745 96.258563 66.248219 97.40625 64.1875 L 97.46875 64.25 C 97.51862 64.17335 97.51537 64.077875 97.5625 64 C 97.59469 63.93696 97.65686 63.90842 97.6875 63.84375 L 97.625 63.8125 C 98.892541 61.599967 99.197444 58.969468 98.53125 56.6875 C 97.823804 54.264228 96.348605 52.14951 94.46875 50.21875 C 90.709039 46.35723 85.170943 43.114597 78.96875 40.9375 C 72.766557 38.760403 65.890615 37.683792 59.4375 38.71875 C 57.287981 39.063492 55.212531 39.756428 53.21875 40.65625 C 53.25382 38.636238 53.52332 36.490893 54.3125 34.03125 C 53.58431 33.937731 52.18216 33.682659 50.75 33.78125 z M 64.375 45 C 68.386318 44.9922 72.716045 45.802749 76.75 47.21875 C 82.128607 49.106751 86.961348 52.075026 89.6875 54.875 C 91.050576 56.274987 91.851114 57.624336 92.125 58.5625 C 92.398886 59.500664 92.325532 59.901317 91.875 60.59375 C 91.79282 60.7239 91.719671 60.85975 91.65625 61 C 91.66545 60.98062 91.290693 61.494047 90.03125 61.9375 C 88.771807 62.380953 86.836612 62.706459 84.5625 62.75 C 80.014276 62.83708 74.132262 61.857938 68.78125 59.71875 C 63.430238 57.579562 58.666921 54.282466 55.90625 50.125 C 55.328081 49.254299 54.883546 48.329859 54.46875 47.375 C 56.239516 46.352704 58.251393 45.641884 60.5 45.28125 C 61.738502 45.082618 63.037894 45.002597 64.375 45 z "
       transform="translate(0,-80)"
       id="path3897" />
    <path
       style="fill:none;stroke:url(#linearGradient3893);stroke-width:2.59999989999999981;stroke-linejoin:round;stroke-miterlimit:4;stroke-dasharray:none"
       d="M 43.34375,-54.125 2,-50.40625 l 0.0625,4.59375 3.375,-0.15625 41.875,0.34375 c -0.87654,3.752288 -0.92492,7.276888 -0.375,10.53125 -1.36114,1.358579 -2.60286,2.887709 -3.59375,4.71875 -0.0327,0.05122 -0.064,0.103325 -0.0937,0.15625 -2.44553,5.139261 -4.13401,12.676129 -4.53125,19.4375 -0.0884,1.505561 0.0281,2.94651 0.28125,4.34375 -0.36718,0.498995 -0.82161,0.904192 -1.125,1.46875 -0.0106,0.020723 -0.0211,0.041558 -0.0313,0.0625 C 35.54932,-0.428456 33.26472,7.272299 32.75,11.5 c -0.35248,2.895184 -0.0113,5.628276 0.78125,8.15625 -0.50076,1.85886 -0.62492,3.83797 -0.4375,5.84375 0.14762,1.5799 0.46624,3.20151 0.9375,4.8125 L 2.28125,34.53125 39.5,45.25 124.5625,31.375 82.65625,23.875 76,24.75 c -0.88871,-1.40572 -2.07218,-2.57745 -3.4375,-3.65625 -3.26158,-2.577113 -7.63057,-4.665018 -12.3125,-6.25 -4.68193,-1.584982 -9.63653,-2.632769 -14.03125,-2.75 -2.19736,-0.05862 -4.26698,0.116894 -6.1875,0.6875 -0.23782,0.07066 -0.45169,0.2265 -0.6875,0.3125 0.0177,-0.26514 -0.002,-0.509264 0.0313,-0.78125 0.21313,-1.750587 1.72205,-6.781221 3.125,-10.65625 0.83328,1.146891 1.79232,2.21054 2.8125,3.1875 4.12306,3.948389 9.50931,6.664007 15,8.40625 5.4907,1.742243 11.0806,2.519357 15.84375,2.1875 2.38158,-0.165928 4.55778,-0.594856 6.5,-1.46875 1.9296,-0.868215 3.73769,-2.331975 4.59375,-4.5 0.003,-0.00709 -0.006,-0.02699 0,-0.03125 0.947,-2.388165 0.82649,-5.005557 -0.0625,-7.21875 -0.89265,-2.222293 -2.41641,-4.111775 -4.28125,-5.78125 -3.72968,-3.33895 -8.8957,-5.918886 -14.5,-7.625 -5.60429,-1.706114 -11.63973,-2.501846 -17.125,-1.8125 -2.00467,0.251931 -3.92107,0.815749 -5.75,1.5625 0.46763,-5.65173 2.03043,-12.248985 3.75,-15.875 0.003,-0.007 -0.003,-0.02422 0,-0.03125 0.0796,-0.143268 0.19878,-0.236512 0.28125,-0.375 0.28084,0.501022 0.4655,1.055745 0.78125,1.53125 3.78898,5.706059 9.73553,9.601879 15.96875,12.09375 6.23322,2.491871 12.79378,3.606859 18.375,3.5 2.79061,-0.05343 5.33768,-0.404134 7.5625,-1.1875 2.08747,-0.735005 4.00856,-1.970531 5.15625,-4.03125 l 0.0625,0.0625 c 0.0499,-0.07665 0.0466,-0.172125 0.0937,-0.25 0.0322,-0.06304 0.0944,-0.09158 0.125,-0.15625 L 97.625,-16.1875 c 1.26754,-2.212533 1.57244,-4.843032 0.90625,-7.125 -0.70745,-2.423272 -2.18264,-4.53799 -4.0625,-6.46875 -3.75971,-3.86152 -9.29781,-7.104153 -15.5,-9.28125 -6.20219,-2.177097 -13.07814,-3.253708 -19.53125,-2.21875 -2.14952,0.344742 -4.22497,1.037678 -6.21875,1.9375 0.0331,-1.904027 0.28025,-3.933768 0.96875,-6.21875 l 9.5625,0.0625 54.375,-0.78125 6.34375,0.125 -0.0313,-5.125 -81.09375,-2.78125 0,-0.0625 z M 64.375,-35 c 4.01132,-0.0078 8.34104,0.802749 12.375,2.21875 5.37861,1.888001 10.21135,4.856276 12.9375,7.65625 1.36308,1.399987 2.16361,2.749336 2.4375,3.6875 0.27389,0.938164 0.20053,1.338817 -0.25,2.03125 -0.0822,0.13015 -0.15533,0.266 -0.21875,0.40625 0.009,-0.01938 -0.36556,0.494047 -1.625,0.9375 -1.25944,0.443453 -3.19464,0.768959 -5.46875,0.8125 -4.54822,0.08708 -10.43024,-0.892062 -15.78125,-3.03125 -5.35101,-2.139188 -10.11433,-5.436284 -12.875,-9.59375 -0.57817,-0.870701 -1.0227,-1.795141 -1.4375,-2.75 1.77077,-1.022296 3.78264,-1.733116 6.03125,-2.09375 1.2385,-0.198632 2.53789,-0.278653 3.875,-0.28125 z m -8.9375,28.40625 c 3.48383,0.026827 7.38129,0.670095 11.03125,1.78125 4.86661,1.48154 9.33885,3.836387 12,6.21875 C 79.79932,2.597432 80.63006,3.766504 81,4.6875 81.36995,5.608496 81.38142,6.203893 81.0625,7 c -5e-5,0.010417 -5e-5,0.020833 0,0.03125 C 81.0233,7.132587 80.81568,7.465806 79.90625,7.875 78.99682,8.284194 77.51738,8.653759 75.6875,8.78125 72.02774,9.036232 67.06202,8.413312 62.3125,6.90625 57.56298,5.399188 53.01148,3.004934 49.90625,0.03125 c -1.50365,-1.439949 -2.65842,-2.970443 -3.4375,-4.625 1.4637,-0.901988 3.33034,-1.520198 5.65625,-1.8125 1.04936,-0.131875 2.15122,-0.196442 3.3125,-0.1875 z M 44.8125,18.75 c 0.39379,-0.01413 0.82074,-0.01145 1.25,0 3.43405,0.09161 7.8786,1.000447 12.03125,2.40625 3.77309,1.27731 7.31356,3.01822 9.65625,4.6875 l -17.96875,2.375 c -2.73539,-1.44326 -5.19184,-3.27672 -7,-5.375 -0.83155,-0.96497 -1.50977,-1.97599 -2.0625,-3.03125 0.0979,-0.126662 0.3495,-0.397987 1.21875,-0.65625 0.7048,-0.209405 1.69364,-0.363872 2.875,-0.40625 z"
       id="path3853"
       inkscape:connector-curvature="0" />
  </g>
</svg>
