<?xml version="1.0" encoding="UTF-8" standalone="no"?>
<!-- Created with Inkscape (http://www.inkscape.org/) -->

<svg
   xmlns:dc="http://purl.org/dc/elements/1.1/"
   xmlns:cc="http://creativecommons.org/ns#"
   xmlns:rdf="http://www.w3.org/1999/02/22-rdf-syntax-ns#"
   xmlns:svg="http://www.w3.org/2000/svg"
   xmlns="http://www.w3.org/2000/svg"
   xmlns:xlink="http://www.w3.org/1999/xlink"
   xmlns:sodipodi="http://sodipodi.sourceforge.net/DTD/sodipodi-0.dtd"
   xmlns:inkscape="http://www.inkscape.org/namespaces/inkscape"
   width="128"
   height="128"
   id="svg4419"
   version="1.1"
   inkscape:version="0.48.3.1 r9886"
   sodipodi:docname="Documento nuevo 9">
  <defs
     id="defs4421">
    <linearGradient
       inkscape:collect="always"
       xlink:href="#linearGradient9863"
       id="linearGradient9244"
       x1="508.2706"
       y1="986.49957"
       x2="508.2706"
       y2="940.18524"
       gradientUnits="userSpaceOnUse"
       gradientTransform="matrix(2.6765239,0,0,2.6765239,-1298.7888,-2514.0551)" />
    <linearGradient
       id="linearGradient9863">
      <stop
         style="stop-color:#2f445a;stop-opacity:1;"
         offset="0"
         id="stop9865" />
      <stop
         style="stop-color:#415f7c;stop-opacity:1"
         offset="1"
         id="stop9867" />
    </linearGradient>
    <linearGradient
       inkscape:collect="always"
       xlink:href="#linearGradient12578"
       id="linearGradient9154"
       x1="514.13165"
       y1="941.98254"
       x2="519.25122"
       y2="955.88629"
       gradientUnits="userSpaceOnUse"
       gradientTransform="matrix(2.6765239,0,0,2.6765239,-1312.5266,-1589.8722)" />
    <linearGradient
       id="linearGradient12578">
      <stop
         id="stop12580"
         offset="0"
         style="stop-color:#e9b551;stop-opacity:1;" />
      <stop
         id="stop12582"
         offset="1"
         style="stop-color:#b48739;stop-opacity:1;" />
    </linearGradient>
    <linearGradient
       inkscape:collect="always"
       xlink:href="#linearGradient5344"
       id="linearGradient9162"
       x1="529.18103"
       y1="933.3031"
       x2="506.55362"
       y2="966.27191"
       gradientUnits="userSpaceOnUse"
       gradientTransform="matrix(2.6765239,0,0,2.6765239,-1313.2363,-1588.6894)" />
    <linearGradient
       id="linearGradient5344">
      <stop
         style="stop-color:#000000;stop-opacity:1;"
         offset="0"
         id="stop5346" />
      <stop
         style="stop-color:#000000;stop-opacity:0;"
         offset="1"
         id="stop5348" />
    </linearGradient>
    <linearGradient
       inkscape:collect="always"
       xlink:href="#linearGradient5439"
       id="linearGradient9168"
       x1="502.34131"
       y1="945.44263"
       x2="568.39514"
       y2="1015.3275"
       gradientUnits="userSpaceOnUse"
       gradientTransform="matrix(2.6765239,0,0,2.6765239,-1312.1717,-1596.6146)" />
    <linearGradient
       id="linearGradient5439">
      <stop
         style="stop-color:#ffffff;stop-opacity:1;"
         offset="0"
         id="stop5441" />
      <stop
         style="stop-color:#000000;stop-opacity:1;"
         offset="1"
         id="stop5443" />
    </linearGradient>
    <linearGradient
       inkscape:collect="always"
       xlink:href="#linearGradient5362"
       id="linearGradient9199"
       gradientUnits="userSpaceOnUse"
       x1="491.93878"
       y1="970.07208"
       x2="499.21927"
       y2="970.07208"
       gradientTransform="matrix(2.6765239,0,0,2.6765239,-1298.7888,-1589.6929)" />
    <linearGradient
       id="linearGradient5362">
      <stop
         style="stop-color:#ffffff;stop-opacity:1;"
         offset="0"
         id="stop5364" />
      <stop
         style="stop-color:#ffffff;stop-opacity:0;"
         offset="1"
         id="stop5366" />
    </linearGradient>
    <linearGradient
       inkscape:collect="always"
       xlink:href="#linearGradient5362"
       id="linearGradient9193"
       x1="497.64713"
       y1="970.07208"
       x2="487.70358"
       y2="970.07208"
       gradientUnits="userSpaceOnUse"
       gradientTransform="matrix(2.6765239,0,0,2.6765239,-1298.7888,-1589.6929)" />
    <linearGradient
       id="linearGradient4392">
      <stop
         style="stop-color:#ffffff;stop-opacity:1;"
         offset="0"
         id="stop4394" />
      <stop
         style="stop-color:#ffffff;stop-opacity:0;"
         offset="1"
         id="stop4396" />
    </linearGradient>
    <linearGradient
       inkscape:collect="always"
       xlink:href="#linearGradient5344"
       id="linearGradient9237"
       gradientUnits="userSpaceOnUse"
       gradientTransform="matrix(2.6765239,0,0,2.6765239,-1312.1717,-1590.7002)"
       x1="572.28503"
       y1="1003.5607"
       x2="507.11737"
       y2="960.60394" />
    <linearGradient
       id="linearGradient4399">
      <stop
         style="stop-color:#000000;stop-opacity:1;"
         offset="0"
         id="stop4401" />
      <stop
         style="stop-color:#000000;stop-opacity:0;"
         offset="1"
         id="stop4403" />
    </linearGradient>
    <linearGradient
       inkscape:collect="always"
       xlink:href="#linearGradient5316"
       id="linearGradient9143"
       x1="494.14981"
       y1="943.45667"
       x2="530.09833"
       y2="977.9281"
       gradientUnits="userSpaceOnUse"
       gradientTransform="matrix(2.6765239,0,0,2.6765239,-1312.1717,-2515.0625)" />
    <linearGradient
       id="linearGradient5316">
      <stop
         style="stop-color:#b995da;stop-opacity:1;"
         offset="0"
         id="stop5320" />
      <stop
         style="stop-color:#766287;stop-opacity:1;"
         offset="1"
         id="stop5322" />
    </linearGradient>
    <linearGradient
       y2="977.9281"
       x2="530.09833"
       y1="943.45667"
       x1="494.14981"
       gradientTransform="matrix(2.6765239,0,0,2.6765239,-1312.1717,-1590.7002)"
       gradientUnits="userSpaceOnUse"
       id="linearGradient4417"
       xlink:href="#linearGradient5316"
       inkscape:collect="always" />
    <linearGradient
       y2="289.67157"
       x2="453.09924"
       y1="336.99588"
       x1="453.09924"
       gradientTransform="matrix(2.6666667,0,0,2.6666667,-1133.8937,152.52592)"
       gradientUnits="userSpaceOnUse"
       id="linearGradient3158"
       xlink:href="#linearGradient9863-1"
       inkscape:collect="always" />
    <linearGradient
       id="linearGradient9863-1">
      <stop
         style="stop-color:#2f445a;stop-opacity:1;"
         offset="0"
         id="stop9865-5" />
      <stop
         style="stop-color:#415f7c;stop-opacity:1"
         offset="1"
         id="stop9867-5" />
    </linearGradient>
    <linearGradient
       y2="932.31763"
       x2="500.875"
       y1="966.38013"
       x1="504.125"
       gradientTransform="matrix(2.6666667,0,0,2.6666667,-1293.8937,-1572.1408)"
       gradientUnits="userSpaceOnUse"
       id="linearGradient9321"
       xlink:href="#linearGradient5439-9"
       inkscape:collect="always" />
    <linearGradient
       id="linearGradient5439-9">
      <stop
         style="stop-color:#ffffff;stop-opacity:1;"
         offset="0"
         id="stop5441-7" />
      <stop
         style="stop-color:#000000;stop-opacity:1;"
         offset="1"
         id="stop5443-9" />
    </linearGradient>
    <linearGradient
       y2="997.98248"
       x2="525.53125"
       y1="933.60748"
       x1="486.1875"
       gradientTransform="matrix(2.6666667,0,0,2.6666667,-1293.8937,-1572.1408)"
       gradientUnits="userSpaceOnUse"
       id="linearGradient9319"
       xlink:href="#linearGradient5439-9"
       inkscape:collect="always" />
    <linearGradient
       id="linearGradient4533">
      <stop
         style="stop-color:#ffffff;stop-opacity:1;"
         offset="0"
         id="stop4535" />
      <stop
         style="stop-color:#000000;stop-opacity:1;"
         offset="1"
         id="stop4537" />
    </linearGradient>
    <linearGradient
       y2="972.52008"
       x2="504.84015"
       y1="962.74329"
       x1="510.59622"
       gradientTransform="matrix(2.6666667,0,0,2.6666667,-1293.8937,-1572.1408)"
       gradientUnits="userSpaceOnUse"
       id="linearGradient9317"
       xlink:href="#linearGradient4533"
       inkscape:collect="always" />
    <linearGradient
       id="linearGradient5316-8">
      <stop
         style="stop-color:#b995da;stop-opacity:1;"
         offset="0"
         id="stop5320-6" />
      <stop
         style="stop-color:#766287;stop-opacity:1;"
         offset="1"
         id="stop5322-7" />
    </linearGradient>
    <linearGradient
       y2="975.66107"
       x2="515.73315"
       y1="971.45569"
       x1="519.5"
       gradientTransform="matrix(2.6666667,0,0,2.6666667,-1293.8937,-1572.1408)"
       gradientUnits="userSpaceOnUse"
       id="linearGradient9315"
       xlink:href="#linearGradient4533"
       inkscape:collect="always" />
    <linearGradient
       id="linearGradient4544">
      <stop
         style="stop-color:#b995da;stop-opacity:1;"
         offset="0"
         id="stop4546" />
      <stop
         style="stop-color:#766287;stop-opacity:1;"
         offset="1"
         id="stop4548" />
    </linearGradient>
    <linearGradient
       y2="976.41351"
       x2="480.69382"
       y1="941.33264"
       x1="489.50848"
       gradientTransform="matrix(2.6666667,0,0,2.6666667,-1293.8937,-2496.503)"
       gradientUnits="userSpaceOnUse"
       id="linearGradient9313"
       xlink:href="#linearGradient5439-9"
       inkscape:collect="always" />
    <linearGradient
       id="linearGradient4551">
      <stop
         style="stop-color:#ffffff;stop-opacity:1;"
         offset="0"
         id="stop4553" />
      <stop
         style="stop-color:#000000;stop-opacity:1;"
         offset="1"
         id="stop4555" />
    </linearGradient>
    <linearGradient
       y2="976.41351"
       x2="480.69382"
       y1="941.33264"
       x1="489.50848"
       gradientTransform="matrix(2.6666667,0,0,2.6666667,-1293.8937,-1572.1408)"
       gradientUnits="userSpaceOnUse"
       id="linearGradient4563"
       xlink:href="#linearGradient5439-9"
       inkscape:collect="always" />
  </defs>
  <sodipodi:namedview
     id="base"
     pagecolor="#ffffff"
     bordercolor="#666666"
     borderopacity="1.0"
     inkscape:pageopacity="0.0"
     inkscape:pageshadow="2"
     inkscape:zoom="2.8"
     inkscape:cx="64.163471"
     inkscape:cy="49.850572"
     inkscape:document-units="px"
     inkscape:current-layer="layer1"
     showgrid="false"
     inkscape:window-width="1366"
     inkscape:window-height="720"
     inkscape:window-x="0"
     inkscape:window-y="0"
     inkscape:window-maximized="1" />
  <metadata
     id="metadata4424">
    <rdf:RDF>
      <cc:Work
         rdf:about="">
        <dc:format>image/svg+xml</dc:format>
        <dc:type
           rdf:resource="http://purl.org/dc/dcmitype/StillImage" />
        <dc:title></dc:title>
      </cc:Work>
    </rdf:RDF>
  </metadata>
  <g
     inkscape:label="Capa 1"
     inkscape:groupmode="layer"
     id="layer1"
     transform="translate(0,-924.36218)">
    <path
       inkscape:connector-curvature="0"
       style="fill:url(#linearGradient4417);fill-rule:evenodd;stroke:none;display:inline"
       d="M 1.8864902,1042.7663 1.8342177,929.88176 c 6.766199,-3.85315 23.4813053,-4.04179 37.1367683,-2.76016 l 73.437124,6.31282 -0.0448,102.71628 -73.392294,12.3555 c -17.891946,2.3159 -34.4390194,-0.7841 -37.0844958,-5.7399 z"
       id="path9135"
       sodipodi:nodetypes="ccccccc" />
    <path
       inkscape:connector-curvature="0"
       sodipodi:nodetypes="ccccccc"
       id="path9210"
       d="M 1.8864902,1042.7663 1.8342177,929.88176 c 6.766199,-3.85315 23.4813053,-4.04179 37.1367683,-2.76016 l 73.437124,6.31282 -0.0448,102.71628 -73.392294,12.3555 c -17.891946,2.3159 -34.4390194,-0.7841 -37.0844958,-5.7399 z"
       style="fill:url(#linearGradient9237);fill-rule:evenodd;stroke:none;display:inline" />
    <path
       inkscape:connector-curvature="0"
       sodipodi:nodetypes="ccccc"
       id="path9188"
       d="M 1.8864902,1042.7663 1.8342177,929.88176 c 4.293653,-2.41128 12.6852783,-3.38746 21.5381483,-3.46631 l 0.05476,122.80325 c -11.099223,-0.4455 -19.6967268,-2.9982 -21.5406378,-6.4524 z"
       style="fill:url(#linearGradient9193);fill-rule:evenodd;stroke:none;display:inline" />
    <path
       inkscape:connector-curvature="0"
       style="fill:url(#linearGradient9199);fill-rule:evenodd;stroke:none;display:inline"
       d="M 37.379899,1048.5851 36.84711,927.04288 c -3.631561,-0.75526 -9.493496,-0.90343 -13.474744,-0.62743 l 0.05476,122.80325 c 4.039864,0.2654 10.150876,0.019 13.952771,-0.6336 z"
       id="path9196"
       sodipodi:nodetypes="ccccc" />
    <path
       style="fill:#000000;fill-opacity:0.42682928;stroke:none;display:inline"
       d="m 36.772321,939.95593 c -0.47405,0.003 -0.94353,0.0281 -1.40625,0.0625 -0.66599,0.0496 -1.31714,0.15278 -1.96875,0.28125 -3.19152,0.37213 -8.23938,1.09394 -9.125,1.28125 -12.70461,2.68696 -21.2187498,18.94541 -21.2187498,38.5625 0,18.8892 7.8847898,34.64497 19.8124998,38.18747 1.64466,0.4885 10.58689,2.1875 12.375,2.1875 -0.13568,-0.077 -0.27055,-0.1706 -0.40625,-0.25 1.02685,0.071 2.06878,0.075 3.125,-0.063 5.64614,-0.7349 10.80755,-3.6986 14.96875,-8.4062 l 5.46875,4.4062 c 2.14223,1.5604 4.3707,1.6296 6.40625,0.7813 l 25.912421,21.802 c 5.383961,3.8815 13.182558,-7.6625 6.842094,-12.7027 l -25.129515,-22.0368 c -0.04447,-2.3376 -0.80723,-4.50217 -2.53125,-6.06252 l -7.625,-7.1875 c 0.5479,-3.20885 0.84375,-6.61209 0.84375,-10.1875 0,-22.06085 -10.39225,-39.20164 -24.90625,-40.59375 -0.4744,-0.0455 -0.96345,-0.0653 -1.4375,-0.0625 z m 0.75,5.28125 c 0.38687,-0.002 0.78967,-0.008 1.1875,0.0313 6.6485,0.65437 12.22309,5.3751 15.9375,12.59375 0.38659,0.75131 0.74899,1.5082 1.09375,2.3125 0.68923,1.60792 1.30177,3.32572 1.8125,5.125 -0.51108,-1.79216 -1.12327,-3.52471 -1.8125,-5.125 -0.34462,-0.80014 -0.70741,-1.5653 -1.09375,-2.3125 -3.09072,-5.97758 -7.46704,-10.21023 -12.6875,-11.84375 8.3456,5.01725 13.8125,17.30831 13.8125,32.34375 0,18.894 -9.24717,32.33637 -21,33.90617 -2.17064,0.29 -4.25203,-0.01 -6.25,-0.75 1.51326,1.0717 3.13595,1.896 4.8125,2.375 0.41914,0.1199 0.85422,0.2034 1.28125,0.2813 0.30168,0.055 0.60103,0.092 0.90625,0.125 -0.30319,-0.031 -0.60663,-0.073 -0.90625,-0.125 -0.42914,-0.075 -0.86008,-0.1645 -1.28125,-0.2813 -10.15712,-2.8153 -17.875,-17.64082 -17.875,-33.93742 0,-17.79726 9.26508,-33.79777 20.90625,-34.6875 0.38804,-0.0296 0.76938,-0.0289 1.15625,-0.0313 z m 20.0625,20.15625 c 0.24269,0.86205 0.45701,1.75515 0.65625,2.65625 -0.20095,-0.90643 -0.41115,-1.78982 -0.65625,-2.65625 z m 0.75,3.0625 c 0.17246,0.81194 0.33259,1.62813 0.46875,2.46875 0.1487,0.91807 0.27107,1.86289 0.375,2.8125 -0.10474,-0.95947 -0.22448,-1.88571 -0.375,-2.8125 -0.13634,-0.83953 -0.29609,-1.65824 -0.46875,-2.46875 z m 1.125,8.96875 c 0.04118,0.9108 0.0625,1.84886 0.0625,2.78125 0,-0.9314 -0.02144,-1.87187 -0.0625,-2.78125 z"
       id="path4700"
       inkscape:connector-curvature="0"
       sodipodi:nodetypes="cccssccccccccccccssccccsscsscscccccccsccccccscscccc" />
    <path
       style="fill:none;stroke:url(#linearGradient9244);stroke-width:2.67652392000000017px;stroke-linecap:round;stroke-linejoin:round;stroke-opacity:1;display:inline"
       d="M 23 2.0625 C 14.174457 2.1435234 6.0726244 3.1230312 1.84375 5.53125 L 1.875 118.40625 C 4.5204764 123.36205 21.076774 126.47215 38.96875 124.15625 L 97.5 114.28125 L 104.09375 119.84375 C 110.58575 123.81758 116.38873 112.51013 112.375 107.46875 L 112.40625 9.0625 L 38.96875 2.75 C 33.847951 2.2693888 28.295326 2.0138859 23 2.0625 z "
       transform="translate(0,924.36218)"
       id="path9242" />
    <path
       inkscape:connector-curvature="0"
       inkscape:export-ydpi="57.964222"
       inkscape:export-xdpi="57.964222"
       inkscape:export-filename="/home/dafeba/DCV/tallerD/bocetos/08-09-22-hastaahora.png"
       sodipodi:nodetypes="ccssscc"
       id="path9293"
       d="m 13.821634,974.12817 c 0,21.49368 11.32517,35.01903 22.4964,41.38303 -1.78811,0 -10.73779,-1.7013 -12.38245,-2.1898 -11.92771,-3.5425 -19.8178434,-19.30408 -19.8178434,-38.19323 0,-19.61709 8.5099464,-35.86088 21.2145634,-38.54784 1.21533,-0.25704 10.33584,-1.50075 11.62418,-1.50075 -10.2284,4.8319 -23.13485,17.55488 -23.13485,39.04859 z"
       style="fill:url(#linearGradient4563);fill-opacity:1;stroke:none;display:inline" />
    <path
       inkscape:connector-curvature="0"
       inkscape:export-ydpi="57.964222"
       inkscape:export-xdpi="57.964222"
       inkscape:export-filename="/home/dafeba/DCV/tallerD/bocetos/08-09-22-hastaahora.png"
       sodipodi:nodetypes="ccccc"
       id="path9295"
       d="m 51.439614,999.82508 52.666656,44.33332 c 6.63246,4.0598 12.53859,-7.8032 8,-12.6666 l -54.333326,-45.66672 -6.33333,14 z"
       style="fill:url(#linearGradient9315);fill-rule:evenodd;stroke:none;display:inline" />
    <path
       inkscape:connector-curvature="0"
       inkscape:export-ydpi="57.964222"
       inkscape:export-xdpi="57.964222"
       inkscape:export-filename="/home/dafeba/DCV/tallerD/bocetos/08-09-22-hastaahora.png"
       style="fill:url(#linearGradient9317);fill-rule:evenodd;stroke:none;display:inline"
       d="m 51.029534,1004.4203 8.45413,6.7712 c 8.69829,6.3357 18.85272,-11.54989 11.49691,-18.20736 l -10.47064,-9.82925 -9.4804,21.26541 z"
       id="path9297"
       sodipodi:nodetypes="ccccc" />
    <path
       inkscape:connector-curvature="0"
       inkscape:export-ydpi="57.964222"
       inkscape:export-xdpi="57.964222"
       inkscape:export-filename="/home/dafeba/DCV/tallerD/bocetos/08-09-22-hastaahora.png"
       id="path9299"
       d="m 36.439604,935.02593 c -13.88157,1.03392 -24.83333,19.56792 -24.83333,40.25 0,22.06077 12.39488,41.87187 27.41667,39.91667 14.08189,-1.8329 25.16669,-17.52264 25.16667,-39.58334 0,-22.06085 -10.40267,-39.19122 -24.91667,-40.58333 -0.9488,-0.091 -1.9079,-0.0689 -2.83334,0 z m 1,5.25 c 0.77608,-0.0593 1.53768,-0.0783 2.33334,0 12.17155,1.19797 20.83333,15.93299 20.83333,34.91667 0,18.98357 -9.19082,32.5061 -21,34.0833 -12.59731,1.6825 -23.08333,-15.34968 -23.08333,-34.3333 0,-17.79726 9.27549,-33.77694 20.91666,-34.66667 z"
       style="fill:url(#linearGradient9319);fill-opacity:1;stroke:none;display:inline" />
    <path
       inkscape:connector-curvature="0"
       inkscape:export-ydpi="57.964222"
       inkscape:export-xdpi="57.964222"
       inkscape:export-filename="/home/dafeba/DCV/tallerD/bocetos/08-09-22-hastaahora.png"
       id="path9301"
       d="m 43.022944,941.02593 c 8.3456,5.01725 13.83333,17.29789 13.83333,32.33333 0,18.894 -9.24717,32.34684 -21,33.91664 -2.17064,0.29 -4.25203,-0.01 -6.25,-0.75 3.02651,2.1433 6.43891,3.2257 10,2.75 11.80918,-1.5772 21,-15.09973 21,-34.0833 0,-17.24566 -7.14242,-30.89963 -17.58333,-34.16667 z"
       style="fill:url(#linearGradient9321);fill-opacity:1;stroke:none;display:inline" />
  </g>
</svg>
