<?xml version="1.0" encoding="UTF-8" standalone="no"?>
<!-- Created with Inkscape (http://www.inkscape.org/) -->

<svg
   xmlns:dc="http://purl.org/dc/elements/1.1/"
   xmlns:cc="http://creativecommons.org/ns#"
   xmlns:rdf="http://www.w3.org/1999/02/22-rdf-syntax-ns#"
   xmlns:svg="http://www.w3.org/2000/svg"
   xmlns="http://www.w3.org/2000/svg"
   xmlns:xlink="http://www.w3.org/1999/xlink"
   xmlns:sodipodi="http://sodipodi.sourceforge.net/DTD/sodipodi-0.dtd"
   xmlns:inkscape="http://www.inkscape.org/namespaces/inkscape"
   width="128"
   height="128"
   id="svg6934"
   sodipodi:version="0.32"
   inkscape:version="0.48.3.1 r9886"
   version="1.0"
   sodipodi:docname="aaa-generic.svg"
   inkscape:output_extension="org.inkscape.output.svg.inkscape">
  <defs
     id="defs6936">
    <linearGradient
       id="linearGradient5344">
      <stop
         style="stop-color:#000000;stop-opacity:1;"
         offset="0"
         id="stop5346" />
      <stop
         style="stop-color:#000000;stop-opacity:0;"
         offset="1"
         id="stop5348" />
    </linearGradient>
    <linearGradient
       id="linearGradient5165-7-9-8-2">
      <stop
         id="stop5167-4-8-6-9"
         style="stop-color:#ffffff;stop-opacity:1"
         offset="0" />
      <stop
         id="stop5169-5-5-2-9"
         style="stop-color:#ffffff;stop-opacity:0"
         offset="1" />
    </linearGradient>
    <linearGradient
       inkscape:collect="always"
       xlink:href="#linearGradient5344"
       id="linearGradient3107"
       gradientUnits="userSpaceOnUse"
       gradientTransform="matrix(5.3340639,0,0,5.3340639,-1451.4802,-5864.5574)"
       x1="305.23422"
       y1="1137.0681"
       x2="283.35095"
       y2="1104.2024" />
    <linearGradient
       inkscape:collect="always"
       xlink:href="#linearGradient5344-50"
       id="linearGradient13031-7"
       gradientUnits="userSpaceOnUse"
       gradientTransform="matrix(2.3371908,-0.19593194,0,2.3371908,-1123.3759,-2035.152)"
       x1="516.625"
       y1="949.4657"
       x2="516.625"
       y2="953.45752" />
    <linearGradient
       id="linearGradient5344-50">
      <stop
         style="stop-color:#000000;stop-opacity:1;"
         offset="0"
         id="stop5346-2" />
      <stop
         style="stop-color:#000000;stop-opacity:0;"
         offset="1"
         id="stop5348-5" />
    </linearGradient>
    <linearGradient
       inkscape:collect="always"
       xlink:href="#linearGradient5316-0"
       id="linearGradient13027-1"
       gradientUnits="userSpaceOnUse"
       gradientTransform="matrix(3.6383072,-0.24094751,0,3.6383072,-1797.8001,-3254.4436)"
       x1="516.625"
       y1="951.58276"
       x2="516.84595"
       y2="953.33002" />
    <linearGradient
       id="linearGradient5316-0">
      <stop
         style="stop-color:#aac736;stop-opacity:1;"
         offset="0"
         id="stop5320-8" />
      <stop
         style="stop-color:#5d8b2c;stop-opacity:1;"
         offset="1"
         id="stop5322-1" />
    </linearGradient>
    <linearGradient
       inkscape:collect="always"
       xlink:href="#linearGradient13604-6"
       id="linearGradient13023-1"
       gradientUnits="userSpaceOnUse"
       gradientTransform="matrix(3.6383072,0,0,3.6383072,-1871.8013,-3376.2301)"
       x1="532.71075"
       y1="943.25812"
       x2="540.65033"
       y2="973.31165" />
    <linearGradient
       id="linearGradient13604-6">
      <stop
         id="stop13606-2"
         offset="0"
         style="stop-color:#ffffff;stop-opacity:1;" />
      <stop
         id="stop13608-7"
         offset="1"
         style="stop-color:#000000;stop-opacity:1;" />
    </linearGradient>
    <linearGradient
       inkscape:collect="always"
       xlink:href="#linearGradient13620-8"
       id="linearGradient13021-7"
       gradientUnits="userSpaceOnUse"
       gradientTransform="matrix(3.6383072,0,0,3.6383072,-1811.8986,-3430.9797)"
       x1="508.00168"
       y1="976.56775"
       x2="507.60999"
       y2="969.06256" />
    <linearGradient
       id="linearGradient13620-8">
      <stop
         id="stop13622-7"
         offset="0"
         style="stop-color:#000000;stop-opacity:1;" />
      <stop
         id="stop13624-6"
         offset="1"
         style="stop-color:#000000;stop-opacity:0;" />
    </linearGradient>
    <linearGradient
       inkscape:collect="always"
       xlink:href="#linearGradient13604-6"
       id="linearGradient13015-1"
       gradientUnits="userSpaceOnUse"
       gradientTransform="matrix(3.6383072,0,0,3.6383072,-1811.8986,-3430.9797)"
       x1="507.15793"
       y1="956.94275"
       x2="506.35999"
       y2="981.68756" />
    <linearGradient
       inkscape:collect="always"
       xlink:href="#linearGradient5165-7-9-8-2"
       id="linearGradient3092"
       gradientUnits="userSpaceOnUse"
       gradientTransform="translate(-40,140)"
       x1="22.933788"
       y1="-144.76825"
       x2="18.618809"
       y2="-96.331688" />
    <linearGradient
       inkscape:collect="always"
       xlink:href="#linearGradient5344"
       id="linearGradient3094"
       gradientUnits="userSpaceOnUse"
       gradientTransform="translate(-40,140)"
       x1="7.9531264"
       y1="2.2416961"
       x2="13.667412"
       y2="-64.464973" />
  </defs>
  <sodipodi:namedview
     id="base"
     pagecolor="#ffffff"
     bordercolor="#666666"
     borderopacity="1.0"
     inkscape:pageopacity="0.0"
     inkscape:pageshadow="2"
     inkscape:zoom="1.979899"
     inkscape:cx="55.3195"
     inkscape:cy="47.646981"
     inkscape:document-units="px"
     inkscape:current-layer="layer1"
     showgrid="false"
     inkscape:window-width="1366"
     inkscape:window-height="717"
     inkscape:window-x="0"
     inkscape:window-y="0"
     inkscape:window-maximized="1" />
  <metadata
     id="metadata6939">
    <rdf:RDF>
      <cc:Work
         rdf:about="">
        <dc:format>image/svg+xml</dc:format>
        <dc:type
           rdf:resource="http://purl.org/dc/dcmitype/StillImage" />
        <dc:title></dc:title>
      </cc:Work>
    </rdf:RDF>
  </metadata>
  <g
     inkscape:label="Capa 1"
     inkscape:groupmode="layer"
     id="layer1">
    <path
       style="fill:#4584e4;fill-opacity:1;fill-rule:evenodd;stroke:none"
       d="m 34.21875,5.062503 c -1.32927,0.0554 -2.55056,0.27966 -3.65625,0.625 l -18.34375,2.71875 -0.5,0 0,0.1875 c -5.7155,1.04907 -8.65625,5.59198 -8.65625,11.15625 l 0,84.687497 c -0.0702,5.65226 2.0501,10.0952 6.3125,11.5 l 18.96875,5.9375 c 0.0209,0.0102 0.0415,0.0212 0.0625,0.0313 1.89272,0.90932 4.16442,1.2325 6.78125,0.8125 l 78.28125,-11.8125 c 5.72052,-0.61974 9.4668,-6.06393 9.15625,-13.625 l 0.40625,-74.281297 c 0.22248,-5.96534 -2.80168,-10.97622 -9.34375,-11.96875 l -77.84375,-5.9375 c -0.55631,-0.0273 -1.10307,-0.053 -1.625,-0.0313 z"
       id="path30949"
       inkscape:connector-curvature="0" />
    <path
       style="fill:url(#linearGradient3107);fill-rule:evenodd;stroke:none"
       d="M 29.25,16.718753 29.2187,113.125 c 0.4487,3.45828 1.40755,8.12456 4.34375,9.75 0.52713,-0.0229 1.0675,-0.0668 1.625,-0.15625 l 78.28125,-11.8125 c 5.72052,-0.61974 9.4668,-6.06393 9.15625,-13.625 l 0.40625,-74.281247 c 0.22245,-5.96534 -2.80168,-10.97622 -9.34375,-11.96875 L 37.6784,5.233693 c -3.97126,-0.42067 -8.41551,4.78057 -8.42845,11.48506 z M 30.15625,122.5 c 0.64796,0.17153 1.31467,0.32617 2.03125,0.375 z"
       id="path30953"
       inkscape:connector-curvature="0"
       sodipodi:nodetypes="ccccccccccccc" />
    <path
       sodipodi:nodetypes="ccccccccccccccccccccsccccccccccccccccccccccccccccccccccccccccccccccccccccccccccccccc"
       id="path3789"
       d="m 34.505528,12.998078 0,78.863852 17.734507,-2.308967 -12.566874,25.573077 11.893648,-1.54852 12.566875,-25.573065 8.385327,-1.091739 0,17.888704 6.708261,-0.8734 0,-17.888694 8.245571,-1.073544 11.809347,20.963098 11.11054,-1.44656 -11.80933,-20.963091 18.65735,-2.429115 0,-8.680392 -19.07662,-7.015903 C 97.715516,65.229793 97.546384,64.835008 97.255721,64.524 c -0.490725,0.314598 -0.953505,0.695035 -1.467422,0.873992 -2.368513,0.824802 -5.002089,0.272398 -7.476923,-1.343308 -2.070869,-1.351915 -3.420462,-3.612631 -4.33242,-5.492172 -0.611011,-1.259292 -0.928337,-2.191501 -1.118043,-2.801365 -0.802406,0.98485 -2.302541,1.524956 -3.424008,1.317251 -0.14389,0.411864 -0.360037,0.788885 -0.768655,1.000193 -1.725734,1.348945 -4.459657,1.783631 -6.079362,0.446391 -0.07146,-0.05173 -0.14337,-0.128063 -0.209633,-0.184601 -0.869712,3.356951 -1.914395,6.625785 -4.052907,9.568039 -1.269413,2.519132 -3.849278,2.139694 -5.170951,0.617436 -3.01e-4,0.264403 -0.0076,0.504417 0,0.768654 -0.211736,3.09929 -0.546607,6.31338 -1.816822,9.301041 -2.574741,2.348923 -5.937833,-0.692189 -5.310708,-3.558541 0.691998,-4.18041 0.616982,-8.365439 0.768656,-12.530016 -0.701091,4.976392 -0.953731,10.02921 -2.236088,14.941321 -1.234631,2.995632 -5.064959,2.058123 -5.869727,-0.277415 -0.01678,0.215505 -0.04853,0.421313 -0.06987,0.637242 0.193151,0.575999 0.37943,1.119131 0.6289,1.67185 0.03271,3.94328 -6.555108,4.366346 -6.568507,0.574677 C 42.410491,78.7432 42.461467,77.36789 42.54147,76.018448 40.457293,67.334212 40.855101,54.050013 41.353549,44.989104 c 0.240035,-7.288511 0.230903,-14.593844 0.90841,-21.81783 0.512808,-3.155077 3.799094,-4.085889 6.288994,-2.142469 -1.358291,4.470748 -2.114503,9.030881 -2.515597,13.686537 0.801706,-3.969991 1.826997,-7.908311 3.284253,-11.684357 0.679034,-1.862689 1.613887,-5.657815 3.773395,-5.575973 0.49835,0.01888 1.031942,0.221843 1.677067,0.728399 0.46505,0.596737 0.799095,1.269583 1.048165,1.948887 0.220927,0.329411 0.36883,0.702325 0.419267,1.073041 0.0092,0.164698 0.0031,0.325689 0,0.489145 0.317438,1.824092 0.168221,3.767937 0,5.520338 -1.048279,8.850127 -4.98402,16.366437 -3.35413,25.4738 0.192594,1.519844 0.365071,5.850367 0.489143,7.362227 2.266917,-9.128817 4.732829,-19.094501 6.917895,-27.84388 0.379684,-1.912124 0.764265,-3.830525 1.187921,-5.729371 -0.03533,-0.563945 -0.0079,-1.144481 0.209634,-1.664627 -0.807736,-3.750014 5.549021,-3.322166 5.240829,0.380816 1.034719,3.762105 -1.068449,7.249955 -2.096332,10.636794 -0.438325,1.09812 -0.927019,2.180031 -1.397554,3.271211 -1.541146,4.435525 -2.729226,7.531644 -1.956577,12.329029 0.07545,1.212513 0.09771,4.260574 0.139759,5.469258 3.063869,-11.56766 7.053115,-21.957105 12.717745,-31.755973 3.480848,2.443546 3.601114,7.493921 1.746944,10.725061 -2.725003,7.340666 -7.982746,12.9823 -8.175694,21.258265 1.453602,-4.191386 2.616486,-7.098948 4.61193,-10.778413 1.248396,-2.041874 2.849653,-6.150436 5.939606,-3.980019 3.070506,2.109204 1.252947,2.612724 0.279512,5.148668 -0.384877,1.19311 -0.693123,2.463994 -0.978289,3.70352 2.070698,-0.03405 4.279151,0.135492 5.240829,1.867914 l 1.257799,0.548591 c 1.481582,0.637963 2.895756,0.944302 4.472175,0.514168 1.860882,-0.432144 4.199414,-0.984632 6.428746,-0.767621 l 0.06983,-0.0084 0,0.06987 c 3.207346,0.490461 4.670776,2.747759 4.961306,5.067693 0.28094,0.01466 0.54798,-0.06659 0.83855,0.03963 l 16.21162,5.960442 0,-46.606757 -82.735222,-4.908714 z m 15.233345,23.404427 c -0.852097,2.733224 -1.290901,5.566587 -0.978289,8.536919 -0.449637,4.834363 -1.806291,12.52113 -0.838531,17.299545 0.170769,1.947849 0.368958,3.916227 0.559022,5.872857 -0.08344,-5.790018 -0.142955,-15.013138 0.279509,-20.803789 0.240405,-3.947821 0.585801,-6.99433 0.978289,-10.905532 z"
       style="fill:#060606;fill-opacity:0.09543569;stroke:#000000;stroke-width:5;stroke-miterlimit:4;stroke-dasharray:none;stroke-linejoin:round;stroke-linecap:round;stroke-opacity:0.57261413000000005"
       inkscape:connector-curvature="0" />
    <g
       id="g3087"
       transform="translate(40,0)">
      <path
         inkscape:connector-curvature="0"
         id="path3073"
         d="m -5.21875,5.312503 -22.5625,3.09375 -0.5,0 0,0.1875 c -5.715501,1.04907 -8.65625,5.59198 -8.65625,11.15625 l 0,25 26.1875,0 0,-28.03125 c 0.347051,-4.91678 2.274064,-9.96378 5.53125,-11.40625 z"
         style="fill:url(#linearGradient3092);fill-rule:evenodd;stroke:none;display:inline" />
      <path
         inkscape:connector-curvature="0"
         id="path3081"
         d="m -36.9375,68.406253 0,36.031247 c -0.07024,5.65226 2.050104,10.0952 6.3125,11.5 l 17.65625,6.03125 7.5,1.3125 c -3.710844,-1.04488 -4.81745,-6.34073 -5.3125,-10.15625 l 0,-44.718747 -26.15625,0 z"
         style="fill:url(#linearGradient3094);fill-rule:evenodd;stroke:none;display:inline" />
    </g>
    <path
       inkscape:connector-curvature="0"
       id="path30957"
       d="m 35.825012,5.0844328 c -1.734374,-0.0853 -3.26759,0.13333 -4.667303,0.50133 L 11.65504,8.5863028 C 5.9395447,9.6353728 2.9871862,14.190033 2.9871862,19.754303 l 0,84.678437 c -0.07024,5.65226 2.0718035,10.09707 6.3341998,11.50187 l 19.669357,6.16693 c 1.792241,0.74027 3.774988,1.0512 6.167512,0.6672 l 78.344065,-11.8352 c 5.72052,-0.6192 9.47847,-6.1072 9.16792,-13.66827 l 0.33339,-74.344027 c 0.22245,-5.96534 -2.79254,-10.84214 -9.33461,-11.83467 L 35.825018,5.0855028 z"
       style="fill:none;stroke:#344b63;stroke-width:2.667032;stroke-linecap:butt;stroke-linejoin:miter;stroke-miterlimit:4;stroke-opacity:1;stroke-dasharray:none;display:inline"
       sodipodi:nodetypes="ccccccccccccc" />
    <path
       inkscape:connector-curvature="0"
       style="fill:#ffffff;fill-opacity:1;stroke:none"
       d="m 36.505528,12.998078 0,78.863852 17.734507,-2.308967 -12.566874,25.573077 11.893648,-1.54852 12.566875,-25.573065 8.385327,-1.091739 0,17.888704 6.708261,-0.8734 0,-17.888694 8.245571,-1.073544 11.809347,20.963098 11.11054,-1.44656 -11.80933,-20.963091 18.65735,-2.429115 0,-8.680392 -19.07662,-7.015903 C 99.715516,65.229793 99.546384,64.835008 99.255721,64.524 c -0.490725,0.314598 -0.953505,0.695035 -1.467422,0.873992 -2.368513,0.824802 -5.002089,0.272398 -7.476923,-1.343308 -2.070869,-1.351915 -3.420462,-3.612631 -4.33242,-5.492172 -0.611011,-1.259292 -0.928337,-2.191501 -1.118043,-2.801365 -0.802406,0.98485 -2.302541,1.524956 -3.424008,1.317251 -0.14389,0.411864 -0.360037,0.788885 -0.768655,1.000193 -1.725734,1.348945 -4.459657,1.783631 -6.079362,0.446391 -0.07146,-0.05173 -0.14337,-0.128063 -0.209633,-0.184601 -0.869712,3.356951 -1.914395,6.625785 -4.052907,9.568039 -1.269413,2.519132 -3.849278,2.139694 -5.170951,0.617436 -3.01e-4,0.264403 -0.0076,0.504417 0,0.768654 -0.211736,3.09929 -0.546607,6.31338 -1.816822,9.301041 -2.574741,2.348923 -5.937833,-0.692189 -5.310708,-3.558541 0.691998,-4.18041 0.616982,-8.365439 0.768656,-12.530016 -0.701091,4.976392 -0.953731,10.02921 -2.236088,14.941321 -1.234631,2.995632 -5.064959,2.058123 -5.869727,-0.277415 -0.01678,0.215505 -0.04853,0.421313 -0.06987,0.637242 0.193151,0.575999 0.37943,1.119131 0.6289,1.67185 0.03271,3.94328 -6.555108,4.366346 -6.568507,0.574677 C 44.410491,78.7432 44.461467,77.36789 44.54147,76.018448 42.457293,67.334212 42.855101,54.050013 43.353549,44.989104 c 0.240035,-7.288511 0.230903,-14.593844 0.90841,-21.81783 0.512808,-3.155077 3.799094,-4.085889 6.288994,-2.142469 -1.358291,4.470748 -2.114503,9.030881 -2.515597,13.686537 0.801706,-3.969991 1.826997,-7.908311 3.284253,-11.684357 0.679034,-1.862689 1.613887,-5.657815 3.773395,-5.575973 0.49835,0.01888 1.031942,0.221843 1.677067,0.728399 0.46505,0.596737 0.799095,1.269583 1.048165,1.948887 0.220927,0.329411 0.36883,0.702325 0.419267,1.073041 0.0092,0.164698 0.0031,0.325689 0,0.489145 0.317438,1.824092 0.168221,3.767937 0,5.520338 -1.048279,8.850127 -4.98402,16.366437 -3.35413,25.4738 0.192594,1.519844 0.365071,5.850367 0.489143,7.362227 2.266917,-9.128817 4.732829,-19.094501 6.917895,-27.84388 0.379684,-1.912124 0.764265,-3.830525 1.187921,-5.729371 -0.03533,-0.563945 -0.0079,-1.144481 0.209634,-1.664627 -0.807736,-3.750014 5.549021,-3.322166 5.240829,0.380816 1.034719,3.762105 -1.068449,7.249955 -2.096332,10.636794 -0.438325,1.09812 -0.927019,2.180031 -1.397554,3.271211 -1.541146,4.435525 -2.729226,7.531644 -1.956577,12.329029 0.07545,1.212513 0.09771,4.260574 0.139759,5.469258 3.063869,-11.56766 7.053115,-21.957105 12.717745,-31.755973 3.480848,2.443546 3.601114,7.493921 1.746944,10.725061 -2.725003,7.340666 -7.982746,12.9823 -8.175694,21.258265 1.453602,-4.191386 2.616486,-7.098948 4.61193,-10.778413 1.248396,-2.041874 2.849653,-6.150436 5.939606,-3.980019 3.070506,2.109204 1.252947,2.612724 0.279512,5.148668 -0.384877,1.19311 -0.693123,2.463994 -0.978289,3.70352 2.070698,-0.03405 4.279151,0.135492 5.240829,1.867914 l 1.257799,0.548591 c 1.481582,0.637963 2.895756,0.944302 4.472175,0.514168 1.860882,-0.432144 4.199414,-0.984632 6.428746,-0.767621 l 0.06983,-0.0084 0,0.06987 c 3.207346,0.490461 4.670776,2.747759 4.961306,5.067693 0.28094,0.01466 0.54798,-0.06659 0.83855,0.03963 l 16.21162,5.960442 0,-46.606757 -82.735222,-4.908714 z m 15.233345,23.404427 c -0.852097,2.733224 -1.290901,5.566587 -0.978289,8.536919 -0.449637,4.834363 -1.806291,12.52113 -0.838531,17.299545 0.170769,1.947849 0.368958,3.916227 0.559022,5.872857 -0.08344,-5.790018 -0.142955,-15.013138 0.279509,-20.803789 0.240405,-3.947821 0.585801,-6.99433 0.978289,-10.905532 z"
       id="rect5858"
       sodipodi:nodetypes="ccccccccccccccccccccsccccccccccccccccccccccccccccccccccccccccccccccccccccccccccccccc" />
  </g>
</svg>
