<?xml version="1.0" encoding="UTF-8" standalone="no"?>
<!-- Created with Inkscape (http://www.inkscape.org/) -->

<svg
   xmlns:dc="http://purl.org/dc/elements/1.1/"
   xmlns:cc="http://creativecommons.org/ns#"
   xmlns:rdf="http://www.w3.org/1999/02/22-rdf-syntax-ns#"
   xmlns:svg="http://www.w3.org/2000/svg"
   xmlns="http://www.w3.org/2000/svg"
   xmlns:xlink="http://www.w3.org/1999/xlink"
   xmlns:sodipodi="http://sodipodi.sourceforge.net/DTD/sodipodi-0.dtd"
   xmlns:inkscape="http://www.inkscape.org/namespaces/inkscape"
   width="128"
   height="128"
   id="svg6934"
   sodipodi:version="0.32"
   inkscape:version="0.48.3.1 r9886"
   version="1.0"
   sodipodi:docname="aaa-generic.svg"
   inkscape:output_extension="org.inkscape.output.svg.inkscape">
  <defs
     id="defs6936">
    <linearGradient
       id="linearGradient5344">
      <stop
         style="stop-color:#000000;stop-opacity:1;"
         offset="0"
         id="stop5346" />
      <stop
         style="stop-color:#000000;stop-opacity:0;"
         offset="1"
         id="stop5348" />
    </linearGradient>
    <linearGradient
       id="linearGradient5165-7-9-8-2">
      <stop
         id="stop5167-4-8-6-9"
         style="stop-color:#ffffff;stop-opacity:1"
         offset="0" />
      <stop
         id="stop5169-5-5-2-9"
         style="stop-color:#ffffff;stop-opacity:0"
         offset="1" />
    </linearGradient>
    <linearGradient
       inkscape:collect="always"
       xlink:href="#linearGradient5344"
       id="linearGradient3107"
       gradientUnits="userSpaceOnUse"
       gradientTransform="matrix(5.3340639,0,0,5.3340639,-1451.4802,-5864.5574)"
       x1="305.23422"
       y1="1137.0681"
       x2="283.35095"
       y2="1104.2024" />
    <linearGradient
       inkscape:collect="always"
       xlink:href="#linearGradient5344-50"
       id="linearGradient13031-7"
       gradientUnits="userSpaceOnUse"
       gradientTransform="matrix(2.3371908,-0.19593194,0,2.3371908,-1123.3759,-2035.152)"
       x1="516.625"
       y1="949.4657"
       x2="516.625"
       y2="953.45752" />
    <linearGradient
       id="linearGradient5344-50">
      <stop
         style="stop-color:#000000;stop-opacity:1;"
         offset="0"
         id="stop5346-2" />
      <stop
         style="stop-color:#000000;stop-opacity:0;"
         offset="1"
         id="stop5348-5" />
    </linearGradient>
    <linearGradient
       inkscape:collect="always"
       xlink:href="#linearGradient5316-0"
       id="linearGradient13027-1"
       gradientUnits="userSpaceOnUse"
       gradientTransform="matrix(3.6383072,-0.24094751,0,3.6383072,-1797.8001,-3254.4436)"
       x1="516.625"
       y1="951.58276"
       x2="516.84595"
       y2="953.33002" />
    <linearGradient
       id="linearGradient5316-0">
      <stop
         style="stop-color:#aac736;stop-opacity:1;"
         offset="0"
         id="stop5320-8" />
      <stop
         style="stop-color:#5d8b2c;stop-opacity:1;"
         offset="1"
         id="stop5322-1" />
    </linearGradient>
    <linearGradient
       inkscape:collect="always"
       xlink:href="#linearGradient13604-6"
       id="linearGradient13023-1"
       gradientUnits="userSpaceOnUse"
       gradientTransform="matrix(3.6383072,0,0,3.6383072,-1871.8013,-3376.2301)"
       x1="532.71075"
       y1="943.25812"
       x2="540.65033"
       y2="973.31165" />
    <linearGradient
       id="linearGradient13604-6">
      <stop
         id="stop13606-2"
         offset="0"
         style="stop-color:#ffffff;stop-opacity:1;" />
      <stop
         id="stop13608-7"
         offset="1"
         style="stop-color:#000000;stop-opacity:1;" />
    </linearGradient>
    <linearGradient
       inkscape:collect="always"
       xlink:href="#linearGradient13620-8"
       id="linearGradient13021-7"
       gradientUnits="userSpaceOnUse"
       gradientTransform="matrix(3.6383072,0,0,3.6383072,-1811.8986,-3430.9797)"
       x1="508.00168"
       y1="976.56775"
       x2="507.60999"
       y2="969.06256" />
    <linearGradient
       id="linearGradient13620-8">
      <stop
         id="stop13622-7"
         offset="0"
         style="stop-color:#000000;stop-opacity:1;" />
      <stop
         id="stop13624-6"
         offset="1"
         style="stop-color:#000000;stop-opacity:0;" />
    </linearGradient>
    <linearGradient
       inkscape:collect="always"
       xlink:href="#linearGradient13604-6"
       id="linearGradient13015-1"
       gradientUnits="userSpaceOnUse"
       gradientTransform="matrix(3.6383072,0,0,3.6383072,-1811.8986,-3430.9797)"
       x1="507.15793"
       y1="956.94275"
       x2="506.35999"
       y2="981.68756" />
    <linearGradient
       inkscape:collect="always"
       xlink:href="#linearGradient5165-7-9-8-2"
       id="linearGradient3092"
       gradientUnits="userSpaceOnUse"
       gradientTransform="translate(-40,140)"
       x1="22.933788"
       y1="-144.76825"
       x2="18.618809"
       y2="-96.331688" />
    <linearGradient
       inkscape:collect="always"
       xlink:href="#linearGradient5344"
       id="linearGradient3094"
       gradientUnits="userSpaceOnUse"
       gradientTransform="translate(-40,140)"
       x1="7.9531264"
       y1="2.2416961"
       x2="13.667412"
       y2="-64.464973" />
  </defs>
  <sodipodi:namedview
     id="base"
     pagecolor="#ffffff"
     bordercolor="#666666"
     borderopacity="1.0"
     inkscape:pageopacity="0.0"
     inkscape:pageshadow="2"
     inkscape:zoom="2.8"
     inkscape:cx="48.008082"
     inkscape:cy="40.709946"
     inkscape:document-units="px"
     inkscape:current-layer="layer1"
     showgrid="false"
     inkscape:window-width="1366"
     inkscape:window-height="717"
     inkscape:window-x="0"
     inkscape:window-y="0"
     inkscape:window-maximized="1" />
  <metadata
     id="metadata6939">
    <rdf:RDF>
      <cc:Work
         rdf:about="">
        <dc:format>image/svg+xml</dc:format>
        <dc:type
           rdf:resource="http://purl.org/dc/dcmitype/StillImage" />
        <dc:title></dc:title>
      </cc:Work>
    </rdf:RDF>
  </metadata>
  <g
     inkscape:label="Capa 1"
     inkscape:groupmode="layer"
     id="layer1">
    <path
       style="fill:#6b1a80;fill-opacity:1;fill-rule:evenodd;stroke:none"
       d="m 34.21875,5.062503 c -1.32927,0.0554 -2.55056,0.27966 -3.65625,0.625 l -18.34375,2.71875 -0.5,0 0,0.1875 c -5.7155,1.04907 -8.65625,5.59198 -8.65625,11.15625 l 0,84.687497 c -0.0702,5.65226 2.0501,10.0952 6.3125,11.5 l 18.96875,5.9375 c 0.0209,0.0102 0.0415,0.0212 0.0625,0.0313 1.89272,0.90932 4.16442,1.2325 6.78125,0.8125 l 78.28125,-11.8125 c 5.72052,-0.61974 9.4668,-6.06393 9.15625,-13.625 l 0.40625,-74.281297 c 0.22248,-5.96534 -2.80168,-10.97622 -9.34375,-11.96875 l -77.84375,-5.9375 c -0.55631,-0.0273 -1.10307,-0.053 -1.625,-0.0313 z"
       id="path30949"
       inkscape:connector-curvature="0" />
    <path
       style="fill:url(#linearGradient3107);fill-rule:evenodd;stroke:none"
       d="M 29.25,16.718753 29.2187,113.125 c 0.4487,3.45828 1.40755,8.12456 4.34375,9.75 0.52713,-0.0229 1.0675,-0.0668 1.625,-0.15625 l 78.28125,-11.8125 c 5.72052,-0.61974 9.4668,-6.06393 9.15625,-13.625 l 0.40625,-74.281247 c 0.22245,-5.96534 -2.80168,-10.97622 -9.34375,-11.96875 L 37.6784,5.233693 c -3.97126,-0.42067 -8.41551,4.78057 -8.42845,11.48506 z M 30.15625,122.5 c 0.64796,0.17153 1.31467,0.32617 2.03125,0.375 z"
       id="path30953"
       inkscape:connector-curvature="0"
       sodipodi:nodetypes="ccccccccccccc" />
    <g
       id="g3087"
       transform="translate(40,0)">
      <path
         inkscape:connector-curvature="0"
         id="path3073"
         d="m -5.21875,5.312503 -22.5625,3.09375 -0.5,0 0,0.1875 c -5.715501,1.04907 -8.65625,5.59198 -8.65625,11.15625 l 0,25 26.1875,0 0,-28.03125 c 0.347051,-4.91678 2.274064,-9.96378 5.53125,-11.40625 z"
         style="fill:url(#linearGradient3092);fill-rule:evenodd;stroke:none;display:inline" />
      <path
         inkscape:connector-curvature="0"
         id="path3081"
         d="m -36.9375,68.406253 0,36.031247 c -0.07024,5.65226 2.050104,10.0952 6.3125,11.5 l 17.65625,6.03125 7.5,1.3125 c -3.710844,-1.04488 -4.81745,-6.34073 -5.3125,-10.15625 l 0,-44.718747 -26.15625,0 z"
         style="fill:url(#linearGradient3094);fill-rule:evenodd;stroke:none;display:inline" />
    </g>
    <path
       inkscape:connector-curvature="0"
       id="path30957"
       d="m 35.825012,5.0844328 c -1.734374,-0.0853 -3.26759,0.13333 -4.667303,0.50133 L 11.65504,8.5863028 C 5.9395447,9.6353728 2.9871862,14.190033 2.9871862,19.754303 l 0,84.678437 c -0.07024,5.65226 2.0718035,10.09707 6.3341998,11.50187 l 19.669357,6.16693 c 1.792241,0.74027 3.774988,1.0512 6.167512,0.6672 l 78.344065,-11.8352 c 5.72052,-0.6192 9.47847,-6.1072 9.16792,-13.66827 l 0.33339,-74.344027 c 0.22245,-5.96534 -2.79254,-10.84214 -9.33461,-11.83467 L 35.825018,5.0855028 z"
       style="fill:none;stroke:#344b63;stroke-width:2.667032;stroke-linecap:butt;stroke-linejoin:miter;stroke-miterlimit:4;stroke-opacity:1;stroke-dasharray:none;display:inline"
       sodipodi:nodetypes="ccccccccccccc" />
    <path
       sodipodi:nodetypes="sccccscssccccssscccssssssssssssssssssssssscccs"
       id="path3834"
       d="m 64.13671,13.144792 c -1.611139,0.14528 -3.161587,0.642248 -4.521848,1.587999 0,0 8.970385,1.193851 10.630308,6.082969 -3.025582,-2.675742 -12.43302,-4.166306 -15.86613,0.03652 0,0 10.304327,-0.826783 7.219089,3.531328 -11.280821,5.313218 -19.510156,17.113814 -18.404711,30.422433 3.216394,38.722558 -6.497876,33.767511 -7.615742,51.636159 0,5.39266 2.505884,7.63634 7.853734,6.99463 3.014537,-0.36173 61.553,-8.79045 68.38431,-9.61018 5.36689,-0.64401 4.91851,-5.908837 4.91851,-5.908837 0,-6.896713 -11.25813,-9.529167 -15.7881,-14.04808 -4.641586,-4.620651 0.47598,-18.671713 0.47598,-18.671713 0.66687,-1.65048 1.17377,-3.374496 1.58661,-5.142277 0.87633,-0.465639 1.671,-1.069939 2.37993,-1.903825 2.21822,-2.609222 2.71885,-5.999438 2.53857,-9.193179 -0.18029,-3.193739 -1.02259,-6.290782 -3.01456,-8.460337 -1.21499,-1.323303 -2.63209,-2.064429 -4.12519,-2.520546 C 96.724924,29.561051 89.147375,23.523587 80.002838,21.863575 l 0.475985,-0.02073 C 79.409616,18.365869 71.118309,12.515313 64.13671,13.144792 z m -4.283856,28.661784 c 4.941427,-0.215246 10.233653,6.196741 10.233653,10.764285 0,5.781446 -5.358459,9.970614 -8.964362,10.127685 -4.941419,0.215246 -8.964364,-4.301703 -8.964364,-10.083147 0,-5.024165 2.753655,-10.593578 7.695073,-10.808823 z m 37.285405,-1.624131 c 2.02505,-0.16855 4.214721,0.47752 5.870461,2.280868 2.61619,2.849416 3.37353,10.563098 0.47598,13.971381 -2.89753,3.40828 -7.673236,1.957362 -10.550963,-1.176909 -3.311488,-3.606696 -3.61152,-9.325352 -0.713976,-12.733637 1.057212,-1.24356 2.893443,-2.173155 4.918498,-2.341703 z m -0.555315,5.261004 c -2.103024,0.09161 -3.807868,2.573118 -3.807868,5.566335 0,2.993217 1.704844,5.408028 3.807868,5.316421 2.103025,-0.09161 3.807866,-2.654942 3.807866,-5.648159 0,-2.993217 -1.704841,-5.326203 -3.807866,-5.234597 z m -35.460799,1.871953 c -2.153743,0.09382 -3.887202,2.513926 -3.887202,5.406141 0,2.892214 1.733459,5.161305 3.887202,5.067489 2.153741,-0.09381 3.887201,-2.513924 3.887201,-5.406138 0,-2.892215 -1.73346,-5.161307 -3.887201,-5.067492 z m 20.467309,11.873192 c 2.720952,-0.118523 3.243438,15.316345 16.262775,5.019371 C 97.128059,72.307256 87.820243,79.94627 85.159333,82.680585 80.001176,80.041389 67.442002,77.39959 62.312104,65.919723 78.341236,74.813842 78.83054,59.308771 81.589454,59.188594 z"
       style="fill:#000000;fill-opacity:0.16182573;stroke:#000000;stroke-width:5;stroke-miterlimit:4;stroke-dasharray:none;stroke-linejoin:round;stroke-linecap:round;stroke-opacity:0.46473028999999999"
       inkscape:connector-curvature="0" />
    <path
       inkscape:connector-curvature="0"
       style="fill:#ffffff;fill-opacity:1;stroke:none"
       d="m 66.13671,13.144792 c -1.611139,0.14528 -3.161587,0.642248 -4.521848,1.587999 0,0 8.970385,1.193851 10.630308,6.082969 -3.025582,-2.675742 -12.43302,-4.166306 -15.86613,0.03652 0,0 10.304327,-0.826783 7.219089,3.531328 -11.280821,5.313218 -19.510156,17.113814 -18.404711,30.422433 3.216394,38.722558 -6.497876,33.767511 -7.615742,51.636159 0,5.39266 2.505884,7.63634 7.853734,6.99463 3.014537,-0.36173 61.553,-8.79045 68.38431,-9.61018 5.36689,-0.64401 4.91851,-5.908837 4.91851,-5.908837 0,-6.896713 -11.25813,-9.529167 -15.7881,-14.04808 -4.641586,-4.620651 0.47598,-18.671713 0.47598,-18.671713 0.66687,-1.65048 1.17377,-3.374496 1.58661,-5.142277 0.87633,-0.465639 1.671,-1.069939 2.37993,-1.903825 2.21822,-2.609222 2.71885,-5.999438 2.53857,-9.193179 -0.18029,-3.193739 -1.02259,-6.290782 -3.01456,-8.460337 -1.21499,-1.323303 -2.63209,-2.064429 -4.12519,-2.520546 C 98.724924,29.561051 91.147375,23.523587 82.002838,21.863575 l 0.475985,-0.02073 C 81.409616,18.365869 73.118309,12.515313 66.13671,13.144792 z m -4.283856,28.661784 c 4.941427,-0.215246 10.233653,6.196741 10.233653,10.764285 0,5.781446 -5.358459,9.970614 -8.964362,10.127685 -4.941419,0.215246 -8.964364,-4.301703 -8.964364,-10.083147 0,-5.024165 2.753655,-10.593578 7.695073,-10.808823 z m 37.285405,-1.624131 c 2.025051,-0.16855 4.214721,0.47752 5.870461,2.280868 2.61619,2.849416 3.37353,10.563098 0.47598,13.971381 -2.89753,3.40828 -7.673236,1.957362 -10.550963,-1.176909 -3.311488,-3.606696 -3.61152,-9.325352 -0.713976,-12.733637 1.057212,-1.24356 2.893443,-2.173155 4.918498,-2.341703 z m -0.555315,5.261004 c -2.103024,0.09161 -3.807868,2.573118 -3.807868,5.566335 0,2.993217 1.704844,5.408028 3.807868,5.316421 2.103026,-0.09161 3.807866,-2.654942 3.807866,-5.648159 0,-2.993217 -1.70484,-5.326203 -3.807866,-5.234597 z m -35.460799,1.871953 c -2.153743,0.09382 -3.887202,2.513926 -3.887202,5.406141 0,2.892214 1.733459,5.161305 3.887202,5.067489 2.153741,-0.09381 3.887201,-2.513924 3.887201,-5.406138 0,-2.892215 -1.73346,-5.161307 -3.887201,-5.067492 z m 20.467309,11.873192 c 2.720952,-0.118523 3.243438,15.316345 16.262775,5.019371 C 99.128059,72.307256 89.820243,79.94627 87.159333,82.680585 82.001176,80.041389 69.442002,77.39959 64.312104,65.919723 80.341236,74.813842 80.83054,59.308771 83.589454,59.188594 z"
       id="rect5189"
       sodipodi:nodetypes="sccccscssccccssscccssssssssssssssssssssssscccs" />
  </g>
</svg>
