<?xml version="1.0" encoding="UTF-8" standalone="no"?>
<!-- Created with Inkscape (http://www.inkscape.org/) -->

<svg
   xmlns:dc="http://purl.org/dc/elements/1.1/"
   xmlns:cc="http://creativecommons.org/ns#"
   xmlns:rdf="http://www.w3.org/1999/02/22-rdf-syntax-ns#"
   xmlns:svg="http://www.w3.org/2000/svg"
   xmlns="http://www.w3.org/2000/svg"
   xmlns:xlink="http://www.w3.org/1999/xlink"
   xmlns:sodipodi="http://sodipodi.sourceforge.net/DTD/sodipodi-0.dtd"
   xmlns:inkscape="http://www.inkscape.org/namespaces/inkscape"
   width="128"
   height="128"
   id="svg52672"
   sodipodi:version="0.32"
   inkscape:version="0.48.3.1 r9886"
   version="1.0"
   sodipodi:docname="session-halt.svg"
   inkscape:output_extension="org.inkscape.output.svg.inkscape">
  <defs
     id="defs52674">
    <linearGradient
       y2="976.85352"
       x2="489.08588"
       y1="941.43011"
       x1="495.83362"
       gradientTransform="matrix(2.7250645,0,0,2.7249519,-1321.7184,-2561.8569)"
       gradientUnits="userSpaceOnUse"
       id="linearGradient32892"
       xlink:href="#linearGradient12336"
       inkscape:collect="always" />
    <linearGradient
       y2="956.01135"
       x2="499.43576"
       y1="936.30072"
       x1="502.97885"
       gradientTransform="matrix(2.7250645,0,0,2.7249519,-1321.7184,-2561.8569)"
       gradientUnits="userSpaceOnUse"
       id="linearGradient32837"
       xlink:href="#linearGradient5362"
       inkscape:collect="always" />
    <linearGradient
       y2="968.64575"
       x2="497.81961"
       y1="992.24542"
       x1="504.93024"
       gradientTransform="matrix(2.7250645,0,0,2.7249519,-1321.7184,-2561.8569)"
       gradientUnits="userSpaceOnUse"
       id="linearGradient32894"
       xlink:href="#linearGradient5344"
       inkscape:collect="always" />
    <linearGradient
       y2="979.33771"
       x2="519.22742"
       y1="949.08014"
       x1="496.11346"
       gradientTransform="matrix(2.7250645,0,0,2.7249519,-1321.7184,-2561.8569)"
       gradientUnits="userSpaceOnUse"
       id="linearGradient32890"
       xlink:href="#linearGradient12336"
       inkscape:collect="always" />
    <linearGradient
       y2="955.362"
       x2="516.24847"
       y1="976.92877"
       x1="510.04871"
       gradientTransform="matrix(2.6765239,0,0,2.6765239,-1297.6059,-2514.903)"
       gradientUnits="userSpaceOnUse"
       id="linearGradient32843"
       xlink:href="#linearGradient12336"
       inkscape:collect="always" />
    <linearGradient
       gradientTransform="matrix(2.6765239,0,0,2.6765239,-1298.7888,-2514.903)"
       gradientUnits="userSpaceOnUse"
       y2="966.70166"
       x2="504.29877"
       y1="952.66827"
       x1="504.49603"
       id="linearGradient32872"
       xlink:href="#linearGradient12336"
       inkscape:collect="always" />
    <linearGradient
       gradientTransform="matrix(2.6765239,0,0,2.6765239,-1298.7888,-2514.903)"
       gradientUnits="userSpaceOnUse"
       y2="964.35815"
       x2="505.57553"
       y1="980.45544"
       x1="505.57553"
       id="linearGradient32878"
       xlink:href="#linearGradient5344"
       inkscape:collect="always" />
    <linearGradient
       id="linearGradient32882"
       inkscape:collect="always">
      <stop
         id="stop32884"
         offset="0"
         style="stop-color:#ffffff;stop-opacity:1;" />
      <stop
         id="stop32886"
         offset="1"
         style="stop-color:#ffffff;stop-opacity:0;" />
    </linearGradient>
    <linearGradient
       gradientTransform="matrix(2.6765239,0,0,2.6765239,-1298.7888,-2514.903)"
       gradientUnits="userSpaceOnUse"
       y2="959.40625"
       x2="506.37646"
       y1="946.93213"
       x1="507.83936"
       id="linearGradient32888"
       xlink:href="#linearGradient32882"
       inkscape:collect="always" />
    <linearGradient
       gradientTransform="matrix(2.6765239,0,0,2.6765239,-1298.7888,-2514.903)"
       gradientUnits="userSpaceOnUse"
       y2="982.53601"
       x2="521.52777"
       y1="943.5545"
       x1="492.72595"
       id="linearGradient32874"
       xlink:href="#linearGradient12336"
       inkscape:collect="always" />
    <linearGradient
       inkscape:collect="always"
       xlink:href="#linearGradient9863"
       id="linearGradient11238"
       x1="429.05496"
       y1="906.37744"
       x2="429.05496"
       y2="860.13275"
       gradientUnits="userSpaceOnUse"
       gradientTransform="matrix(2.6765239,0,0,2.6765239,-1084.6669,-2300.7811)" />
    <linearGradient
       id="linearGradient9863">
      <stop
         style="stop-color:#2f445a;stop-opacity:1;"
         offset="0"
         id="stop9865" />
      <stop
         style="stop-color:#415f7c;stop-opacity:1"
         offset="1"
         id="stop9867" />
    </linearGradient>
    <linearGradient
       id="linearGradient12336">
      <stop
         id="stop12338"
         offset="0"
         style="stop-color:#ff6e00;stop-opacity:1;" />
      <stop
         id="stop12340"
         offset="1"
         style="stop-color:#eb2600;stop-opacity:1;" />
    </linearGradient>
    <linearGradient
       id="linearGradient5362">
      <stop
         style="stop-color:#ffffff;stop-opacity:1;"
         offset="0"
         id="stop5364" />
      <stop
         style="stop-color:#ffffff;stop-opacity:0;"
         offset="1"
         id="stop5366" />
    </linearGradient>
    <linearGradient
       id="linearGradient5344">
      <stop
         style="stop-color:#000000;stop-opacity:1;"
         offset="0"
         id="stop5346" />
      <stop
         style="stop-color:#000000;stop-opacity:0;"
         offset="1"
         id="stop5348" />
    </linearGradient>
  </defs>
  <sodipodi:namedview
     id="base"
     pagecolor="#ffffff"
     bordercolor="#666666"
     borderopacity="1.0"
     inkscape:pageopacity="0.0"
     inkscape:pageshadow="2"
     inkscape:zoom="2"
     inkscape:cx="93.697845"
     inkscape:cy="89.867876"
     inkscape:document-units="px"
     inkscape:current-layer="layer1"
     showgrid="false"
     inkscape:window-width="1024"
     inkscape:window-height="713"
     inkscape:window-x="0"
     inkscape:window-y="0"
     inkscape:window-maximized="0" />
  <metadata
     id="metadata52677">
    <rdf:RDF>
      <cc:Work
         rdf:about="">
        <dc:format>image/svg+xml</dc:format>
        <dc:type
           rdf:resource="http://purl.org/dc/dcmitype/StillImage" />
      </cc:Work>
    </rdf:RDF>
  </metadata>
  <g
     inkscape:label="Capa 1"
     inkscape:groupmode="layer"
     id="layer1">
    <path
       id="path32809"
       d="M 64.06374,3.7059795 C 55.255487,3.4668857 45.376812,5.1270531 38.636763,7.637124 C 18.088822,15.457659 4.9910118,38.368008 5.0129326,63.593199 C 5.0311329,84.64513 14.337407,103.47579 30.272626,112.1052 C 37.983156,116.28057 49.930088,118.86741 60.718085,118.7965 C 86.283163,118.62681 101.10661,89.705929 101.86963,59.745696 C 101.86963,32.090783 89.957736,9.7955264 72.344236,4.6260346 C 69.796292,4.0864474 66.999833,3.7856864 64.06374,3.7059795 z M 64.732871,18.426861 C 65.447985,18.44011 66.177819,18.535555 66.907547,18.594144 C 85.295927,20.069658 97.854846,36.07586 97.854846,59.912979 C 97.304151,82.594405 85.429967,99.709142 67.242112,102.90464 C 42.923671,107.17726 27.617835,86.573566 27.596102,62.924068 C 27.57402,39.089786 42.56416,18.015934 64.732871,18.426861 z"
       style="fill:url(#linearGradient32892);fill-opacity:1;stroke:none;stroke-width:7.4000001;stroke-linecap:round;stroke-linejoin:round;stroke-miterlimit:4;stroke-dashoffset:0;stroke-opacity:1;display:inline" />
    <path
       inkscape:export-ydpi="57.964222"
       inkscape:export-xdpi="57.964222"
       inkscape:export-filename="/home/dafeba/DCV/tallerD/bocetos/08-09-22-hastaahora.png"
       sodipodi:nodetypes="cccscc"
       id="path32811"
       d="M 60.220466,10.846116 C 42.014134,9.9054245 28.894992,27.667613 17.516956,47.141867 L 7.7643991,43.791475 C 12.32814,27.808077 22.44085,14.621647 36.533818,8.4918719 C 43.071763,5.6483329 53.393376,3.5898184 61.571629,3.7073178 L 60.220466,10.846116 z"
       style="fill:url(#linearGradient32837);fill-opacity:1;stroke:none;stroke-width:7.4000001;stroke-linecap:round;stroke-linejoin:round;stroke-miterlimit:4;stroke-dashoffset:0;stroke-opacity:1;display:inline" />
    <path
       id="path32813"
       d="M 13.293428,74.801143 C 8.8758524,74.76873 6.0331164,75.287441 6.3511945,76.892177 C 9.8718941,94.655999 20.467315,109.19541 36.211163,114.69808 C 42.605379,116.93298 53.662152,119.94283 61.63814,118.7965 C 85.877134,111.83944 90.285851,102.1372 84.806792,93.871376 C 80.027886,98.552964 74.062564,101.70634 67.242112,102.90464 C 47.61104,106.35372 33.854591,93.626902 29.268929,76.139405 C 23.449391,75.44383 17.627952,74.83294 13.293428,74.801143 z"
       style="fill:url(#linearGradient32894);fill-opacity:1;stroke:none;stroke-width:7.4000001;stroke-linecap:round;stroke-linejoin:round;stroke-miterlimit:4;stroke-dashoffset:0;stroke-opacity:1;display:inline" />
    <path
       id="path32815"
       d="M 61.805423,3.7896209 C 32.698038,5.0445894 13.180426,32.883008 13.209787,64.178689 C 13.240032,96.266196 34.454534,124.17573 68.162167,118.3783 C 93.37207,114.04286 109.80502,90.77148 110.56833,59.99662 C 110.56833,27.654043 93.23166,5.9591844 67.74396,3.9569037 C 65.721044,3.7979449 63.745903,3.7059528 61.805423,3.7896209 z M 64.732871,18.426861 C 65.447985,18.44011 66.177819,18.535555 66.907547,18.594144 C 85.295927,20.069658 97.854846,36.07586 97.854846,59.912979 C 97.304151,82.594405 85.429967,99.709142 67.242112,102.90464 C 42.923671,107.17726 27.617835,86.573566 27.596102,62.924068 C 27.57402,39.089786 42.56416,18.015934 64.732871,18.426861 z"
       style="fill:url(#linearGradient32890);fill-opacity:1;stroke:none;stroke-width:7.4000001;stroke-linecap:round;stroke-linejoin:round;stroke-miterlimit:4;stroke-dashoffset:0;stroke-opacity:1;display:inline" />
    <path
       style="fill:url(#linearGradient32843);fill-opacity:1;stroke:none;stroke-width:7.4000001;stroke-linecap:round;stroke-linejoin:round;stroke-miterlimit:4;stroke-dashoffset:0;stroke-opacity:1;display:inline"
       d="M 67.50492,18.677919 C 80.086448,24.108586 88.080689,38.082717 88.080689,57.152947 C 87.542039,79.589177 75.930269,96.56503 58.137086,99.726272 C 53.866639,100.4848 49.926769,100.42832 46.260011,99.726272 C 52.114024,102.98521 59.18813,104.32186 67.253996,102.90464 C 85.441851,99.709142 97.316089,82.594378 97.86673,59.912979 C 97.86673,36.330932 85.571609,20.444425 67.50492,18.677919 z"
       id="path32819" />
    <path
       sodipodi:nodetypes="ccccccccc"
       id="path32864"
       d="M 55.336077,31.866062 C 51.369121,31.866062 48.150467,35.051474 47.975636,38.975579 L 47.975636,80.416223 L 47.975636,80.583505 C 48.069743,84.580733 51.316393,88.338412 55.336077,88.338466 L 64.866858,89.806352 C 64.727812,75.366586 62.624921,53.757991 62.780159,39.310144 L 65.104239,31.431368 L 55.336077,31.866062 z"
       style="opacity:1;fill:url(#linearGradient32872);fill-opacity:1;stroke:none;stroke-width:1;stroke-linecap:round;stroke-linejoin:round;stroke-miterlimit:4;stroke-dasharray:none;stroke-dashoffset:0;stroke-opacity:1;display:inline" />
    <path
       style="opacity:1;fill:url(#linearGradient32878);fill-opacity:1;stroke:none;stroke-width:1;stroke-linecap:round;stroke-linejoin:round;stroke-miterlimit:4;stroke-dasharray:none;stroke-dashoffset:0;stroke-opacity:1;display:inline"
       d="M 47.975636,64.206766 L 47.975636,80.416223 L 47.975636,80.583505 C 48.069743,84.580733 51.316393,88.338412 55.336077,88.338466 L 64.866858,89.806352 C 64.785625,81.370751 64.034164,74.340915 63.454242,63.869095 L 47.975636,64.206766 z"
       id="path32876"
       sodipodi:nodetypes="ccccccc" />
    <path
       style="opacity:1;fill:url(#linearGradient32888);fill-opacity:1;stroke:none;stroke-width:1;stroke-linecap:round;stroke-linejoin:round;stroke-miterlimit:4;stroke-dasharray:none;stroke-dashoffset:0;stroke-opacity:1;display:inline"
       d="M 55.336077,31.866062 C 51.369121,31.866062 48.150467,35.051474 47.975636,38.975579 L 47.975636,52.970694 L 63.26362,56.450868 C 62.946987,50.271018 62.72596,44.354188 62.780159,39.310144 L 65.104239,31.431368 L 55.336077,31.866062 z"
       id="path32880"
       sodipodi:nodetypes="ccccccc" />
    <path
       id="path32856"
       d="M 65.652926,31.223991 C 61.68597,31.223991 58.383674,34.409402 58.208844,38.333508 C 58.203919,38.444209 58.208844,38.556141 58.208844,38.668073 L 58.208844,82.830715 C 58.30295,86.827943 61.633215,90.023819 65.652926,90.023873 C 69.731815,90.023873 73.01334,86.742321 73.013367,82.663432 L 73.013367,38.668073 C 73.013367,38.556141 73.018292,38.444209 73.013367,38.333508 C 72.838536,34.409429 69.619909,31.224044 65.652926,31.223991 z"
       style="opacity:1;fill:url(#linearGradient32874);fill-opacity:1;stroke:none;stroke-width:1;stroke-linecap:round;stroke-linejoin:round;stroke-miterlimit:4;stroke-dasharray:none;stroke-dashoffset:0;stroke-opacity:1;display:inline" />
    <path
       sodipodi:nodetypes="ccsscscccccscscccccccccsccsc"
       id="path32896"
       d="M 60.718085,3.7059795 C 52.83425,3.8978863 44.534296,5.440822 38.636763,7.637124 C 18.088822,15.457659 4.9910118,38.368008 5.0129326,63.593199 C 5.0311329,84.64513 14.337407,103.47579 30.272626,112.1052 C 35.226684,114.7879 41.903915,116.78887 48.924652,117.87645 C 54.755111,119.30365 61.18364,119.57856 68.162167,118.3783 C 93.37207,114.04286 109.80502,90.77148 110.56833,59.99662 C 110.56833,28.662531 94.277752,7.3289491 70.085919,4.2078278 C 66.975985,3.8021738 63.848173,3.6895189 60.718085,3.7059795 z M 64.732871,18.426861 C 78.975209,18.854703 88.364321,40.562865 88.068806,57.152814 C 87.530182,79.589016 75.918385,96.56503 58.125203,99.726272 C 53.854782,100.4848 49.914885,100.42832 46.248128,99.726272 C 34.452232,93.158243 27.610635,78.729584 27.596102,62.924068 C 27.57402,39.089786 42.56416,18.015934 64.732871,18.426861 z M 65.652926,31.223991 C 65.09546,31.223991 64.588124,31.35589 64.06374,31.474915 L 55.365037,31.893122 C 51.398108,31.893175 48.179427,35.078533 48.004596,39.002639 L 48.004596,80.405115 L 48.004596,80.572398 C 48.09873,84.569626 51.345353,88.350992 55.365037,88.351045 L 62.976402,89.522025 C 63.807516,89.840156 64.714162,90.023873 65.652926,90.023873 C 69.731815,90.023873 73.01334,86.742321 73.013367,82.663432 L 73.013367,38.668073 C 73.013367,38.556141 73.018292,38.444209 73.013367,38.333508 C 72.838536,34.409429 69.619909,31.224044 65.652926,31.223991 z"
       style="fill:none;fill-opacity:1;stroke:url(#linearGradient11238);stroke-width:2.67652392;stroke-linecap:round;stroke-linejoin:round;stroke-miterlimit:4;stroke-dasharray:none;stroke-dashoffset:0;stroke-opacity:1;display:inline" />
  </g>
</svg>
