<?xml version="1.0" encoding="UTF-8" standalone="no"?>
<!-- Created with Inkscape (http://www.inkscape.org/) -->

<svg
   xmlns:dc="http://purl.org/dc/elements/1.1/"
   xmlns:cc="http://creativecommons.org/ns#"
   xmlns:rdf="http://www.w3.org/1999/02/22-rdf-syntax-ns#"
   xmlns:svg="http://www.w3.org/2000/svg"
   xmlns="http://www.w3.org/2000/svg"
   xmlns:xlink="http://www.w3.org/1999/xlink"
   xmlns:sodipodi="http://sodipodi.sourceforge.net/DTD/sodipodi-0.dtd"
   xmlns:inkscape="http://www.inkscape.org/namespaces/inkscape"
   width="128"
   height="128"
   id="svg6934"
   sodipodi:version="0.32"
   inkscape:version="0.48.3.1 r9886"
   version="1.0"
   sodipodi:docname="steam.svg"
   inkscape:output_extension="org.inkscape.output.svg.inkscape">
  <defs
     id="defs6936">
    <linearGradient
       id="linearGradient5344">
      <stop
         style="stop-color:#000000;stop-opacity:1;"
         offset="0"
         id="stop5346" />
      <stop
         style="stop-color:#000000;stop-opacity:0;"
         offset="1"
         id="stop5348" />
    </linearGradient>
    <linearGradient
       id="linearGradient5165-7-9-8-2">
      <stop
         id="stop5167-4-8-6-9"
         style="stop-color:#ffffff;stop-opacity:1"
         offset="0" />
      <stop
         id="stop5169-5-5-2-9"
         style="stop-color:#ffffff;stop-opacity:0"
         offset="1" />
    </linearGradient>
    <linearGradient
       inkscape:collect="always"
       xlink:href="#linearGradient5344"
       id="linearGradient3107"
       gradientUnits="userSpaceOnUse"
       gradientTransform="matrix(5.3340639,0,0,5.3340639,-1451.4802,-5864.5574)"
       x1="305.23422"
       y1="1137.0681"
       x2="283.35095"
       y2="1104.2024" />
    <linearGradient
       inkscape:collect="always"
       xlink:href="#linearGradient5344-50"
       id="linearGradient13031-7"
       gradientUnits="userSpaceOnUse"
       gradientTransform="matrix(2.3371908,-0.19593194,0,2.3371908,-1123.3759,-2035.152)"
       x1="516.625"
       y1="949.4657"
       x2="516.625"
       y2="953.45752" />
    <linearGradient
       id="linearGradient5344-50">
      <stop
         style="stop-color:#000000;stop-opacity:1;"
         offset="0"
         id="stop5346-2" />
      <stop
         style="stop-color:#000000;stop-opacity:0;"
         offset="1"
         id="stop5348-5" />
    </linearGradient>
    <linearGradient
       inkscape:collect="always"
       xlink:href="#linearGradient5316-0"
       id="linearGradient13027-1"
       gradientUnits="userSpaceOnUse"
       gradientTransform="matrix(3.6383072,-0.24094751,0,3.6383072,-1797.8001,-3254.4436)"
       x1="516.625"
       y1="951.58276"
       x2="516.84595"
       y2="953.33002" />
    <linearGradient
       id="linearGradient5316-0">
      <stop
         style="stop-color:#aac736;stop-opacity:1;"
         offset="0"
         id="stop5320-8" />
      <stop
         style="stop-color:#5d8b2c;stop-opacity:1;"
         offset="1"
         id="stop5322-1" />
    </linearGradient>
    <linearGradient
       inkscape:collect="always"
       xlink:href="#linearGradient13604-6"
       id="linearGradient13023-1"
       gradientUnits="userSpaceOnUse"
       gradientTransform="matrix(3.6383072,0,0,3.6383072,-1871.8013,-3376.2301)"
       x1="532.71075"
       y1="943.25812"
       x2="540.65033"
       y2="973.31165" />
    <linearGradient
       id="linearGradient13604-6">
      <stop
         id="stop13606-2"
         offset="0"
         style="stop-color:#ffffff;stop-opacity:1;" />
      <stop
         id="stop13608-7"
         offset="1"
         style="stop-color:#000000;stop-opacity:1;" />
    </linearGradient>
    <linearGradient
       inkscape:collect="always"
       xlink:href="#linearGradient13620-8"
       id="linearGradient13021-7"
       gradientUnits="userSpaceOnUse"
       gradientTransform="matrix(3.6383072,0,0,3.6383072,-1811.8986,-3430.9797)"
       x1="508.00168"
       y1="976.56775"
       x2="507.60999"
       y2="969.06256" />
    <linearGradient
       id="linearGradient13620-8">
      <stop
         id="stop13622-7"
         offset="0"
         style="stop-color:#000000;stop-opacity:1;" />
      <stop
         id="stop13624-6"
         offset="1"
         style="stop-color:#000000;stop-opacity:0;" />
    </linearGradient>
    <linearGradient
       inkscape:collect="always"
       xlink:href="#linearGradient13604-6"
       id="linearGradient13015-1"
       gradientUnits="userSpaceOnUse"
       gradientTransform="matrix(3.6383072,0,0,3.6383072,-1811.8986,-3430.9797)"
       x1="507.15793"
       y1="956.94275"
       x2="506.35999"
       y2="981.68756" />
    <linearGradient
       inkscape:collect="always"
       xlink:href="#linearGradient5165-7-9-8-2"
       id="linearGradient3092"
       gradientUnits="userSpaceOnUse"
       gradientTransform="translate(-40,140)"
       x1="22.933788"
       y1="-144.76825"
       x2="18.618809"
       y2="-96.331688" />
    <linearGradient
       inkscape:collect="always"
       xlink:href="#linearGradient5344"
       id="linearGradient3094"
       gradientUnits="userSpaceOnUse"
       gradientTransform="translate(-40,140)"
       x1="7.9531264"
       y1="2.2416961"
       x2="13.667412"
       y2="-64.464973" />
  </defs>
  <sodipodi:namedview
     id="base"
     pagecolor="#ffffff"
     bordercolor="#666666"
     borderopacity="1.0"
     inkscape:pageopacity="0.0"
     inkscape:pageshadow="2"
     inkscape:zoom="1.4"
     inkscape:cx="196.24422"
     inkscape:cy="19.327611"
     inkscape:document-units="px"
     inkscape:current-layer="layer1"
     showgrid="false"
     inkscape:window-width="1366"
     inkscape:window-height="717"
     inkscape:window-x="0"
     inkscape:window-y="0"
     inkscape:window-maximized="1" />
  <metadata
     id="metadata6939">
    <rdf:RDF>
      <cc:Work
         rdf:about="">
        <dc:format>image/svg+xml</dc:format>
        <dc:type
           rdf:resource="http://purl.org/dc/dcmitype/StillImage" />
        <dc:title></dc:title>
      </cc:Work>
    </rdf:RDF>
  </metadata>
  <g
     inkscape:label="Capa 1"
     inkscape:groupmode="layer"
     id="layer1">
    <path
       style="fill:#1a1a1a;fill-opacity:1;fill-rule:evenodd;stroke:none"
       d="m 34.21875,5.062503 c -1.32927,0.0554 -2.55056,0.27966 -3.65625,0.625 l -18.34375,2.71875 -0.5,0 0,0.1875 c -5.7155,1.04907 -8.65625,5.59198 -8.65625,11.15625 l 0,84.687497 c -0.0702,5.65226 2.0501,10.0952 6.3125,11.5 l 18.96875,5.9375 c 0.0209,0.0102 0.0415,0.0212 0.0625,0.0313 1.89272,0.90932 4.16442,1.2325 6.78125,0.8125 l 78.28125,-11.8125 c 5.72052,-0.61974 9.4668,-6.06393 9.15625,-13.625 l 0.40625,-74.281297 c 0.22248,-5.96534 -2.80168,-10.97622 -9.34375,-11.96875 l -77.84375,-5.9375 c -0.55631,-0.0273 -1.10307,-0.053 -1.625,-0.0313 z"
       id="path30949"
       inkscape:connector-curvature="0" />
    <path
       style="fill:url(#linearGradient3107);fill-rule:evenodd;stroke:none"
       d="M 29.25,16.718753 29.2187,113.125 c 0.4487,3.45828 1.40755,8.12456 4.34375,9.75 0.52713,-0.0229 1.0675,-0.0668 1.625,-0.15625 l 78.28125,-11.8125 c 5.72052,-0.61974 9.4668,-6.06393 9.15625,-13.625 l 0.40625,-74.281247 c 0.22245,-5.96534 -2.80168,-10.97622 -9.34375,-11.96875 L 37.6784,5.233693 c -3.97126,-0.42067 -8.41551,4.78057 -8.42845,11.48506 z M 30.15625,122.5 c 0.64796,0.17153 1.31467,0.32617 2.03125,0.375 z"
       id="path30953"
       inkscape:connector-curvature="0"
       sodipodi:nodetypes="ccccccccccccc" />
    <g
       id="g3087"
       transform="translate(40,0)">
      <path
         inkscape:connector-curvature="0"
         id="path3073"
         d="m -5.21875,5.312503 -22.5625,3.09375 -0.5,0 0,0.1875 c -5.715501,1.04907 -8.65625,5.59198 -8.65625,11.15625 l 0,25 26.1875,0 0,-28.03125 c 0.347051,-4.91678 2.274064,-9.96378 5.53125,-11.40625 z"
         style="fill:url(#linearGradient3092);fill-rule:evenodd;stroke:none;display:inline" />
      <path
         inkscape:connector-curvature="0"
         id="path3081"
         d="m -36.9375,68.406253 0,36.031247 c -0.07024,5.65226 2.050104,10.0952 6.3125,11.5 l 17.65625,6.03125 7.5,1.3125 c -3.710844,-1.04488 -4.81745,-6.34073 -5.3125,-10.15625 l 0,-44.718747 -26.15625,0 z"
         style="fill:url(#linearGradient3094);fill-rule:evenodd;stroke:none;display:inline" />
    </g>
    <path
       inkscape:connector-curvature="0"
       id="path30957"
       d="m 35.825012,5.0844328 c -1.734374,-0.0853 -3.26759,0.13333 -4.667303,0.50133 L 11.65504,8.5863028 C 5.9395447,9.6353728 2.9871862,14.190033 2.9871862,19.754303 l 0,84.678437 c -0.07024,5.65226 2.0718035,10.09707 6.3341998,11.50187 l 19.669357,6.16693 c 1.792241,0.74027 3.774988,1.0512 6.167512,0.6672 l 78.344065,-11.8352 c 5.72052,-0.6192 9.47847,-6.1072 9.16792,-13.66827 l 0.33339,-74.344027 c 0.22245,-5.96534 -2.79254,-10.84214 -9.33461,-11.83467 L 35.825018,5.0855028 z"
       style="fill:none;stroke:#344b63;stroke-width:2.667032;stroke-linecap:butt;stroke-linejoin:miter;stroke-miterlimit:4;stroke-opacity:1;stroke-dasharray:none;display:inline"
       sodipodi:nodetypes="ccccccccccccc" />
    <path
       inkscape:connector-curvature="0"
       id="path3817"
       d="m 104.95236,27.625 c -7.834874,0 -14.184064,8.525568 -14.184064,19.051986 0,1.145792 0.07022,2.279193 0.214446,3.369322 l -7.903862,25.943782 -0.03064,0 c -1.73527,0.243479 -3.339955,1.087294 -4.717809,2.327895 L 47.940392,59.143478 c -1.04113,-4.820304 -4.347951,-8.331415 -8.271483,-8.331415 -4.758477,0 -8.60847,5.154411 -8.60847,11.547587 0,6.393176 3.849993,11.578216 8.60847,11.578216 1.734638,0 3.33521,-0.683441 4.687174,-1.868442 l 29.348449,18.561903 c 0.25189,7.470309 4.82419,13.446663 10.446577,13.446663 5.783942,0 10.477213,-6.318974 10.477213,-14.089898 0,-1.303572 -0.151334,-2.538911 -0.398257,-3.736884 l 14.275965,-21.13484 c 6.11006,-2.123738 10.63039,-9.566489 10.63039,-18.439382 0,-10.526418 -6.34919,-19.051986 -14.18406,-19.051986 z m 0,5.972889 c 3.02724,0 5.64347,1.662002 7.4137,4.043187 1.77024,2.381184 2.81843,5.544633 2.81843,9.03591 0,3.491277 -1.04819,6.654725 -2.81843,9.03591 -1.77023,2.381185 -4.38646,4.043186 -7.4137,4.043186 -3.02724,0 -5.643464,-1.662001 -7.413701,-4.043186 -1.77024,-2.381185 -2.818432,-5.544633 -2.818432,-9.03591 0,-3.491277 1.048192,-6.654726 2.818432,-9.03591 1.770237,-2.381185 4.386461,-4.043187 7.413701,-4.043187 z m 0,2.266635 c -1.87971,0 -3.70128,1.02686 -5.146704,2.97113 -1.445418,1.944269 -2.420173,4.73219 -2.420173,7.841332 0,3.109143 0.974755,5.897063 2.420173,7.841332 1.445424,1.944269 3.266994,3.00176 5.146704,3.00176 1.87969,0 3.70128,-1.057491 5.1467,-3.00176 1.44543,-1.944269 2.42017,-4.732189 2.42017,-7.841332 0,-3.109142 -0.97474,-5.897063 -2.42017,-7.841332 -1.44542,-1.94427 -3.26701,-2.97113 -5.1467,-2.97113 z m -65.497897,18.07182 c 0.239464,-0.0088 0.459558,0.0058 0.704608,0.03063 1.733853,0.175585 3.251002,1.159072 4.319552,2.634198 a 0.95989373,0.81383176 0 1 1 -1.623661,0.857645 c -0.851216,-1.175094 -1.906353,-1.766769 -2.910337,-1.868442 -1.148536,-0.116312 -2.259938,0.358649 -3.216688,1.47025 -0.956751,1.1116 -1.667926,2.817526 -1.776837,4.778311 -0.108911,1.960784 0.381095,3.79034 1.225405,5.115244 0.84431,1.324904 2.006882,2.089063 3.155417,2.205375 a 0.96519028,0.81832236 0 1 1 -0.245081,1.6234 c -1.960398,-0.198528 -3.524366,-1.430616 -4.564633,-3.06302 -1.040267,-1.632403 -1.594744,-3.705183 -1.470486,-5.942259 0.124258,-2.237077 0.880393,-4.233526 2.113823,-5.666588 1.079255,-1.253928 2.61267,-2.112994 4.288918,-2.174744 z m 46.565389,26.862688 a 1.1167427,0.94881554 0 0 1 0.12254,0 1.1167427,0.94881554 0 0 1 0.09191,0 1.1167427,0.94881554 0 0 1 0.551432,0.09189 c 2.107607,0.805661 3.597713,2.570051 4.472728,4.686421 0.875016,2.11637 1.131579,4.620961 0.612703,7.106207 -0.518877,2.485246 -1.712719,4.511474 -3.400499,5.789108 -1.68778,1.277638 -3.988783,1.755202 -6.09639,0.949537 -0.910653,-0.348106 -1.742122,-0.892298 -2.45081,-1.592771 a 1.1179668,0.94985557 0 0 1 1.684932,-1.225208 c 0.529169,0.523033 1.120383,0.88688 1.684932,1.102687 1.320522,0.504787 2.513403,0.260194 3.70685,-0.643234 1.193447,-0.903428 2.246297,-2.533028 2.695891,-4.686421 0.449593,-2.153392 0.18544,-4.374426 -0.551432,-6.156671 -0.736873,-1.782244 -1.957436,-3.078947 -3.277959,-3.583733 a 1.1167427,0.94881554 0 0 1 0.153176,-1.837812 z"
       style="fill:#000000;fill-opacity:0.55601661999999996;stroke:#000000;stroke-width:5;stroke-miterlimit:4;stroke-dasharray:none;stroke-opacity:0.53112036" />
    <path
       style="fill:#ffffff;fill-opacity:1;stroke:none"
       d="m 106.91301,27.625 c -7.834876,0 -14.184065,8.525568 -14.184065,19.051986 0,1.145792 0.07022,2.279193 0.214445,3.369322 l -7.903862,25.943782 -0.03064,0 c -1.735269,0.243479 -3.339955,1.087295 -4.717809,2.327895 L 49.901041,59.143478 c -1.041131,-4.820303 -4.347952,-8.331415 -8.271484,-8.331415 -4.758477,0 -8.60847,5.154411 -8.60847,11.547587 0,6.393176 3.849993,11.578216 8.60847,11.578216 1.734638,0 3.33521,-0.68344 4.687174,-1.868442 L 75.66518,90.631327 c 0.251891,7.470309 4.82419,13.446663 10.446578,13.446663 5.783942,0 10.477212,-6.318974 10.477212,-14.089898 0,-1.303572 -0.151333,-2.538911 -0.398256,-3.736884 l 14.275966,-21.13484 c 6.11006,-2.123738 10.63039,-9.566489 10.63039,-18.439382 0,-10.526418 -6.34919,-19.051986 -14.18406,-19.051986 z m 0,5.972889 c 3.02724,0 5.64347,1.662002 7.4137,4.043187 1.77024,2.381184 2.81843,5.544633 2.81843,9.03591 0,3.491277 -1.04819,6.654725 -2.81843,9.03591 -1.77023,2.381185 -4.38646,4.043186 -7.4137,4.043186 -3.02725,0 -5.64347,-1.662001 -7.413703,-4.043186 -1.77024,-2.381185 -2.818431,-5.544633 -2.818431,-9.03591 0,-3.491277 1.048191,-6.654726 2.818431,-9.03591 1.770233,-2.381185 4.386453,-4.043187 7.413703,-4.043187 z m 0,2.266635 c -1.87971,0 -3.70128,1.02686 -5.14671,2.97113 -1.44541,1.944269 -2.420168,4.73219 -2.420168,7.841332 0,3.109143 0.974758,5.897063 2.420168,7.841332 1.44543,1.944269 3.267,3.00176 5.14671,3.00176 1.87969,0 3.70128,-1.057491 5.1467,-3.00176 1.44543,-1.944269 2.42017,-4.732189 2.42017,-7.841332 0,-3.109142 -0.97474,-5.897063 -2.42017,-7.841332 -1.44542,-1.94427 -3.26701,-2.97113 -5.1467,-2.97113 z m -65.497899,18.07182 c 0.239464,-0.0088 0.459558,0.0058 0.704608,0.03063 1.733853,0.175585 3.251002,1.159073 4.319552,2.634198 a 0.95989374,0.81383176 0 1 1 -1.623661,0.857645 c -0.851215,-1.175094 -1.906353,-1.766769 -2.910337,-1.868442 -1.148536,-0.116312 -2.259938,0.358649 -3.216688,1.47025 -0.956751,1.1116 -1.667926,2.817526 -1.776837,4.778311 -0.108911,1.960784 0.381095,3.79034 1.225405,5.115244 0.844311,1.324904 2.006882,2.089063 3.155418,2.205375 a 0.96519028,0.81832236 0 1 1 -0.245081,1.6234 c -1.960398,-0.198527 -3.524367,-1.430616 -4.564634,-3.06302 -1.040267,-1.632403 -1.594744,-3.705183 -1.470486,-5.942259 0.124258,-2.237077 0.880393,-4.233526 2.113824,-5.666588 1.079254,-1.253928 2.612669,-2.112994 4.288917,-2.174744 z M 87.9805,80.799032 a 1.1167427,0.94881554 0 0 1 0.122541,0 1.1167427,0.94881554 0 0 1 0.0919,0 1.1167427,0.94881554 0 0 1 0.551432,0.09189 c 2.107608,0.805661 3.597713,2.570051 4.472729,4.686421 0.875015,2.11637 1.131579,4.620961 0.612702,7.106207 -0.518877,2.485246 -1.712719,4.511474 -3.400499,5.789108 -1.687779,1.277638 -3.988782,1.755202 -6.09639,0.949537 -0.910653,-0.348106 -1.742121,-0.892298 -2.450809,-1.592771 a 1.1179668,0.94985557 0 0 1 1.684931,-1.225208 c 0.529169,0.523033 1.120383,0.88688 1.684932,1.102687 1.320522,0.504787 2.513403,0.260194 3.70685,-0.643234 1.193448,-0.903428 2.246297,-2.533028 2.695891,-4.686421 0.449594,-2.153392 0.18544,-4.374426 -0.551432,-6.156671 -0.736872,-1.782244 -1.957435,-3.078947 -3.277958,-3.583733 A 1.1167427,0.94881554 0 0 1 87.9805,80.799032 z"
       id="path3782"
       inkscape:connector-curvature="0" />
  </g>
</svg>
