<?xml version="1.0" encoding="UTF-8" standalone="no"?>
<!-- Created with Inkscape (http://www.inkscape.org/) -->

<svg
   xmlns:dc="http://purl.org/dc/elements/1.1/"
   xmlns:cc="http://creativecommons.org/ns#"
   xmlns:rdf="http://www.w3.org/1999/02/22-rdf-syntax-ns#"
   xmlns:svg="http://www.w3.org/2000/svg"
   xmlns="http://www.w3.org/2000/svg"
   xmlns:xlink="http://www.w3.org/1999/xlink"
   xmlns:sodipodi="http://sodipodi.sourceforge.net/DTD/sodipodi-0.dtd"
   xmlns:inkscape="http://www.inkscape.org/namespaces/inkscape"
   width="128"
   height="128"
   id="svg6934"
   sodipodi:version="0.32"
   inkscape:version="0.48.3.1 r9886"
   version="1.0"
   sodipodi:docname="aaa-generic.svg"
   inkscape:output_extension="org.inkscape.output.svg.inkscape">
  <defs
     id="defs6936">
    <linearGradient
       id="linearGradient5344">
      <stop
         style="stop-color:#000000;stop-opacity:1;"
         offset="0"
         id="stop5346" />
      <stop
         style="stop-color:#000000;stop-opacity:0;"
         offset="1"
         id="stop5348" />
    </linearGradient>
    <linearGradient
       id="linearGradient5165-7-9-8-2">
      <stop
         id="stop5167-4-8-6-9"
         style="stop-color:#ffffff;stop-opacity:1"
         offset="0" />
      <stop
         id="stop5169-5-5-2-9"
         style="stop-color:#ffffff;stop-opacity:0"
         offset="1" />
    </linearGradient>
    <linearGradient
       inkscape:collect="always"
       xlink:href="#linearGradient5344"
       id="linearGradient3107"
       gradientUnits="userSpaceOnUse"
       gradientTransform="matrix(5.3340639,0,0,5.3340639,-1451.4802,-5864.5574)"
       x1="305.23422"
       y1="1137.0681"
       x2="283.35095"
       y2="1104.2024" />
    <linearGradient
       inkscape:collect="always"
       xlink:href="#linearGradient5344-50"
       id="linearGradient13031-7"
       gradientUnits="userSpaceOnUse"
       gradientTransform="matrix(2.3371908,-0.19593194,0,2.3371908,-1123.3759,-2035.152)"
       x1="516.625"
       y1="949.4657"
       x2="516.625"
       y2="953.45752" />
    <linearGradient
       id="linearGradient5344-50">
      <stop
         style="stop-color:#000000;stop-opacity:1;"
         offset="0"
         id="stop5346-2" />
      <stop
         style="stop-color:#000000;stop-opacity:0;"
         offset="1"
         id="stop5348-5" />
    </linearGradient>
    <linearGradient
       inkscape:collect="always"
       xlink:href="#linearGradient5316-0"
       id="linearGradient13027-1"
       gradientUnits="userSpaceOnUse"
       gradientTransform="matrix(3.6383072,-0.24094751,0,3.6383072,-1797.8001,-3254.4436)"
       x1="516.625"
       y1="951.58276"
       x2="516.84595"
       y2="953.33002" />
    <linearGradient
       id="linearGradient5316-0">
      <stop
         style="stop-color:#aac736;stop-opacity:1;"
         offset="0"
         id="stop5320-8" />
      <stop
         style="stop-color:#5d8b2c;stop-opacity:1;"
         offset="1"
         id="stop5322-1" />
    </linearGradient>
    <linearGradient
       inkscape:collect="always"
       xlink:href="#linearGradient13604-6"
       id="linearGradient13023-1"
       gradientUnits="userSpaceOnUse"
       gradientTransform="matrix(3.6383072,0,0,3.6383072,-1871.8013,-3376.2301)"
       x1="532.71075"
       y1="943.25812"
       x2="540.65033"
       y2="973.31165" />
    <linearGradient
       id="linearGradient13604-6">
      <stop
         id="stop13606-2"
         offset="0"
         style="stop-color:#ffffff;stop-opacity:1;" />
      <stop
         id="stop13608-7"
         offset="1"
         style="stop-color:#000000;stop-opacity:1;" />
    </linearGradient>
    <linearGradient
       inkscape:collect="always"
       xlink:href="#linearGradient13620-8"
       id="linearGradient13021-7"
       gradientUnits="userSpaceOnUse"
       gradientTransform="matrix(3.6383072,0,0,3.6383072,-1811.8986,-3430.9797)"
       x1="508.00168"
       y1="976.56775"
       x2="507.60999"
       y2="969.06256" />
    <linearGradient
       id="linearGradient13620-8">
      <stop
         id="stop13622-7"
         offset="0"
         style="stop-color:#000000;stop-opacity:1;" />
      <stop
         id="stop13624-6"
         offset="1"
         style="stop-color:#000000;stop-opacity:0;" />
    </linearGradient>
    <linearGradient
       inkscape:collect="always"
       xlink:href="#linearGradient13604-6"
       id="linearGradient13015-1"
       gradientUnits="userSpaceOnUse"
       gradientTransform="matrix(3.6383072,0,0,3.6383072,-1811.8986,-3430.9797)"
       x1="507.15793"
       y1="956.94275"
       x2="506.35999"
       y2="981.68756" />
    <linearGradient
       inkscape:collect="always"
       xlink:href="#linearGradient5165-7-9-8-2"
       id="linearGradient3092"
       gradientUnits="userSpaceOnUse"
       gradientTransform="translate(-40,140)"
       x1="22.933788"
       y1="-144.76825"
       x2="18.618809"
       y2="-96.331688" />
    <linearGradient
       inkscape:collect="always"
       xlink:href="#linearGradient5344"
       id="linearGradient3094"
       gradientUnits="userSpaceOnUse"
       gradientTransform="translate(-40,140)"
       x1="7.9531264"
       y1="2.2416961"
       x2="13.667412"
       y2="-64.464973" />
  </defs>
  <sodipodi:namedview
     id="base"
     pagecolor="#ffffff"
     bordercolor="#666666"
     borderopacity="1.0"
     inkscape:pageopacity="0.0"
     inkscape:pageshadow="2"
     inkscape:zoom="1.979899"
     inkscape:cx="-14.344096"
     inkscape:cy="55.264719"
     inkscape:document-units="px"
     inkscape:current-layer="layer1"
     showgrid="false"
     inkscape:window-width="1366"
     inkscape:window-height="717"
     inkscape:window-x="0"
     inkscape:window-y="0"
     inkscape:window-maximized="1" />
  <metadata
     id="metadata6939">
    <rdf:RDF>
      <cc:Work
         rdf:about="">
        <dc:format>image/svg+xml</dc:format>
        <dc:type
           rdf:resource="http://purl.org/dc/dcmitype/StillImage" />
        <dc:title></dc:title>
      </cc:Work>
    </rdf:RDF>
  </metadata>
  <g
     inkscape:label="Capa 1"
     inkscape:groupmode="layer"
     id="layer1">
    <path
       style="fill:#008000;fill-opacity:1;fill-rule:evenodd;stroke:none"
       d="m 34.21875,5.062503 c -1.32927,0.0554 -2.55056,0.27966 -3.65625,0.625 l -18.34375,2.71875 -0.5,0 0,0.1875 c -5.7155,1.04907 -8.65625,5.59198 -8.65625,11.15625 l 0,84.687497 c -0.0702,5.65226 2.0501,10.0952 6.3125,11.5 l 18.96875,5.9375 c 0.0209,0.0102 0.0415,0.0212 0.0625,0.0313 1.89272,0.90932 4.16442,1.2325 6.78125,0.8125 l 78.28125,-11.8125 c 5.72052,-0.61974 9.4668,-6.06393 9.15625,-13.625 l 0.40625,-74.281297 c 0.22248,-5.96534 -2.80168,-10.97622 -9.34375,-11.96875 l -77.84375,-5.9375 c -0.55631,-0.0273 -1.10307,-0.053 -1.625,-0.0313 z"
       id="path30949"
       inkscape:connector-curvature="0" />
    <path
       style="fill:url(#linearGradient3107);fill-rule:evenodd;stroke:none"
       d="M 29.25,16.718753 29.2187,113.125 c 0.4487,3.45828 1.40755,8.12456 4.34375,9.75 0.52713,-0.0229 1.0675,-0.0668 1.625,-0.15625 l 78.28125,-11.8125 c 5.72052,-0.61974 9.4668,-6.06393 9.15625,-13.625 l 0.40625,-74.281247 c 0.22245,-5.96534 -2.80168,-10.97622 -9.34375,-11.96875 L 37.6784,5.233693 c -3.97126,-0.42067 -8.41551,4.78057 -8.42845,11.48506 z M 30.15625,122.5 c 0.64796,0.17153 1.31467,0.32617 2.03125,0.375 z"
       id="path30953"
       inkscape:connector-curvature="0"
       sodipodi:nodetypes="ccccccccccccc" />
    <g
       id="g3087"
       transform="translate(40,0)">
      <path
         inkscape:connector-curvature="0"
         id="path3073"
         d="m -5.21875,5.312503 -22.5625,3.09375 -0.5,0 0,0.1875 c -5.715501,1.04907 -8.65625,5.59198 -8.65625,11.15625 l 0,25 26.1875,0 0,-28.03125 c 0.347051,-4.91678 2.274064,-9.96378 5.53125,-11.40625 z"
         style="fill:url(#linearGradient3092);fill-rule:evenodd;stroke:none;display:inline" />
      <path
         inkscape:connector-curvature="0"
         id="path3081"
         d="m -36.9375,68.406253 0,36.031247 c -0.07024,5.65226 2.050104,10.0952 6.3125,11.5 l 17.65625,6.03125 7.5,1.3125 c -3.710844,-1.04488 -4.81745,-6.34073 -5.3125,-10.15625 l 0,-44.718747 -26.15625,0 z"
         style="fill:url(#linearGradient3094);fill-rule:evenodd;stroke:none;display:inline" />
    </g>
    <path
       inkscape:connector-curvature="0"
       id="path30957"
       d="m 35.825012,5.0844328 c -1.734374,-0.0853 -3.26759,0.13333 -4.667303,0.50133 L 11.65504,8.5863028 C 5.9395447,9.6353728 2.9871862,14.190033 2.9871862,19.754303 l 0,84.678437 c -0.07024,5.65226 2.0718035,10.09707 6.3341998,11.50187 l 19.669357,6.16693 c 1.792241,0.74027 3.774988,1.0512 6.167512,0.6672 l 78.344065,-11.8352 c 5.72052,-0.6192 9.47847,-6.1072 9.16792,-13.66827 l 0.33339,-74.344027 c 0.22245,-5.96534 -2.79254,-10.84214 -9.33461,-11.83467 L 35.825018,5.0855028 z"
       style="fill:none;stroke:#344b63;stroke-width:2.667032;stroke-linecap:butt;stroke-linejoin:miter;stroke-miterlimit:4;stroke-opacity:1;stroke-dasharray:none;display:inline"
       sodipodi:nodetypes="ccccccccccccc" />
    <path
       sodipodi:nodetypes="sssccssscscsscccccccsscscsssccssscsscsscsscccsccccssccccccccsccccccscccccccccsscccsccccccccccccccccccccsccccccccccccccccccccccccccccccccccccccccccccccccccccccccccccccccccccccsscccccccccccccccccsccccccccccscccccccccsccccsscsccscssccccc"
       inkscape:connector-curvature="0"
       id="path5073"
       d="m 59.965316,12.813574 c -1.002669,0.16797 -1.981101,0.433375 -2.975588,0.824705 -7.954503,3.130044 -12.113478,12.36733 -9.279235,20.521428 0.767602,2.208384 1.981849,4.108899 3.481432,5.64638 -0.276091,0.326973 -0.572314,0.630877 -0.836255,0.969184 -1.974624,-1.81667 -4.527172,-2.866936 -7.215453,-2.856937 -1.285614,0.0049 -2.554144,0.22588 -3.83424,0.729579 -5.687582,2.238028 -8.723549,8.828138 -6.697624,14.656747 1.568973,4.513921 5.687008,7.263002 10.112426,7.248964 -0.592503,5.9646 0.05499,12.225761 2.158329,18.277013 1.969391,5.665894 5.044529,10.728515 8.94282,14.842995 -3.137126,3.07011 -4.456644,7.812988 -2.939283,12.178428 2.025947,5.8286 8.324236,8.8131 14.011819,6.57505 3.709047,-1.45946 6.22964,-4.78645 6.993414,-8.53938 4.47547,0.86619 9.022274,0.65827 13.392183,-0.57392 l 2.340676,1.94239 1.237922,1.05798 0.295569,-1.66353 0.615455,-3.01598 c 4.324268,-2.046243 8.17152,-5.113504 11.213717,-8.997076 2.85827,2.215592 6.75803,2.938755 10.39328,1.508303 5.68564,-2.237262 8.71985,-8.887094 6.69277,-14.718969 -1.48369,-4.26856 -5.28746,-6.873971 -9.43465,-7.134223 0.46674,-5.883648 -0.30081,-11.910716 -2.29057,-17.635177 -2.12237,-6.106025 -5.50828,-11.317255 -9.659501,-15.455513 3.228421,-3.065725 4.646381,-7.903582 3.110419,-12.322474 -1.52014,-4.373423 -5.473493,-7.069433 -9.745814,-7.225976 -1.424102,-0.05219 -2.899531,0.160163 -4.321423,0.719665 -3.903109,1.535851 -6.516539,5.1335 -7.130511,9.118995 -0.390092,-0.06763 -0.777726,-0.134883 -1.169828,-0.186885 0.164406,-2.175301 -0.06982,-4.413153 -0.817023,-6.562835 -2.125696,-6.11557 -7.653144,-9.915188 -13.621007,-10.131424 -0.994645,-0.03604 -2.021563,0.0345 -3.024228,0.202485 z m 1.770916,4.765148 c 0.344792,-0.02132 0.693952,0.0019 1.034663,0.01339 4.088364,0.134697 7.832134,2.739129 9.299471,6.960635 0.521462,1.500244 0.546302,3.038385 0.415355,4.535664 -0.951107,0.0368 -1.887787,0.11133 -2.838493,0.245092 -2.173034,0.305765 -4.303633,0.863625 -6.433497,1.701714 -3.151229,1.23999 -5.972084,3.031389 -8.471592,5.185726 -1.062592,-1.067063 -1.952101,-2.319549 -2.491456,-3.871262 -1.956442,-5.628676 0.889459,-11.89716 6.379657,-14.057518 1.029805,-0.405224 2.071537,-0.649394 3.105896,-0.713337 z m 26.883786,7.124312 c 0.415065,-0.06168 0.811824,-0.08102 1.210663,-0.06857 2.392976,0.07516 4.562704,1.576475 5.424288,4.055185 0.94437,2.716947 -0.242371,5.508048 -2.419183,7.164804 -2.877168,-2.175903 -6.000708,-3.931821 -9.274134,-5.080899 0.136733,-2.46101 1.402079,-4.800292 3.806869,-5.746563 0.403051,-0.158613 0.836427,-0.262357 1.251497,-0.323977 z m -18.402814,9.588505 c 12.796965,-1.754525 26.353589,7.071901 31.581986,22.113897 2.01357,5.793051 2.5832,11.977302 1.75767,17.818468 l -0.0914,0.38641 c -0.36458,2.355701 -0.9321,4.627367 -1.72,6.775231 -0.0227,0.06093 -0.0228,0.132474 -0.0457,0.193198 -0.36569,0.967367 -0.79425,1.928544 -1.23783,2.832469 -0.0127,0.02555 -0.0429,0.04326 -0.0553,0.06875 -0.432694,0.875538 -0.881134,1.722864 -1.382706,2.534437 -0.08447,0.136407 -0.185652,0.271302 -0.272266,0.406025 -3.082376,4.805407 -7.328654,8.407349 -12.322235,10.372291 -6.010128,2.364975 -12.698813,2.219615 -18.944699,-0.455382 -0.476931,-0.208783 -0.926043,-0.48931 -1.394474,-0.727261 -0.395044,-0.195644 -0.808586,-0.34398 -1.199014,-0.560209 -0.08691,-0.04814 -0.16925,-0.111414 -0.25575,-0.160503 -1.865434,-1.085534 -3.671902,-2.427891 -5.354279,-3.937282 l -0.847108,-0.723873 c -3.932784,-3.78937 -7.093014,-8.678879 -9.014761,-14.2077 -2.216867,-6.377895 -2.64314,-12.948826 -1.543779,-18.971157 0.0117,-0.06543 0.03361,-0.12788 0.0457,-0.193195 0.774162,-4.112104 2.272497,-7.966274 4.343485,-11.326714 0.07815,-0.126654 0.132205,-0.274369 0.211976,-0.399486 1.123926,-1.764281 2.436635,-3.367326 3.879826,-4.813235 0.219646,-0.218013 0.453697,-0.428433 0.679704,-0.638462 0.348083,-0.325176 0.71805,-0.628292 1.082278,-0.933117 0.337193,-0.282075 0.68146,-0.537879 1.03172,-0.802136 1.073165,-0.809 2.16176,-1.558543 3.355764,-2.183673 0.75747,-0.398059 1.541298,-0.752851 2.348369,-1.070429 1.772168,-0.697339 3.534729,-1.146711 5.362867,-1.397357 z m -28.380862,8.725409 c 2.157489,-0.426228 4.195188,0.601415 5.589548,2.280277 -1.684345,3.038414 -2.963783,6.384233 -3.787299,9.885908 -2.763083,0.382428 -5.507936,-0.814858 -6.485187,-3.626381 -1.148368,-3.303833 0.508407,-6.979703 3.732891,-8.248521 0.314715,-0.123847 0.637809,-0.229608 0.950047,-0.291283 z m 31.792392,0.693519 c -1.624186,0.15646 -2.749022,0.611883 -2.749022,0.611883 l -1.176617,0.504105 0.348166,1.342726 2.666668,10.001704 0.239238,0.727049 0.687509,0.239183 8.129533,2.883304 0.812952,0.288333 0.624278,-0.5697 6.79026,-5.693624 1.137706,-1.00188 -0.941337,-1.152899 c 0,0 -4.202635,-5.384933 -9.996711,-7.324265 -2.69046,-0.901224 -4.948437,-1.012334 -6.572623,-0.855919 z m -5.141167,1.122314 -1.408046,0.654701 c 0,0 -4.465953,1.929718 -7.722777,6.986994 -1.819596,2.82425 -2.654771,5.327037 -3.026942,7.16797 -0.372176,1.840932 -0.243991,3.101184 -0.243991,3.101184 l 0.09242,1.182215 1.104676,0.13119 8.610833,1.262369 0.984095,0.144276 0.484243,-0.805509 4.625589,-7.717844 0.378256,-0.605766 -0.234371,-0.664825 -3.160641,-9.320641 z m 5.314342,1.870877 c 1.280273,-0.123391 3.173683,-0.04379 5.467951,0.724729 3.720226,1.24519 6.462523,4.075925 7.656033,5.381883 l -4.907696,4.108967 -6.694223,-2.411472 -2.059811,-7.683039 c 0.25709,-0.0491 0.165534,-0.08521 0.537746,-0.121053 z m -6.987757,2.389321 2.368049,6.959367 -3.712532,6.175581 -6.396618,-0.93776 c 0.01946,-0.369199 -0.04851,-0.350812 0.09817,-1.077389 0.302172,-1.494679 1.023784,-3.638769 2.622446,-6.120107 1.899857,-2.950148 3.773681,-4.251864 5.020471,-4.999692 z m 24.535306,4.304288 -1.253421,1.077178 -6.655089,5.867211 -0.568853,0.500939 0.05836,0.746664 0.483561,9.297225 0.06323,0.808886 0.697236,0.363628 8.731526,5.139746 1.5948,0.956529 0.522137,-1.87636 c 0,0 1.551959,-5.177022 1.025612,-10.213889 C 95.36484,59.523729 92.245089,54.743369 92.245089,54.743369 z m -18.936824,4.312716 -0.529942,0.998714 -4.126755,7.098997 -0.534806,0.936492 0.670994,0.805723 5.817247,7.526537 0.610702,0.812259 0.945184,-0.353505 6.912877,-2.569449 1.005475,-0.360042 -0.02726,-1.126535 -0.33674,-9.752395 -0.02726,-1.126531 -0.993822,-0.268718 -8.266627,-2.303688 z m 18.13665,0.229275 c 0.812271,1.473526 2.164571,4.237643 2.610225,8.501836 0.294005,2.812777 -0.106698,5.397709 -0.475309,7.14224 l -6.434625,-3.757366 -0.357099,-7.679452 z m -16.829615,3.268443 6.278981,1.76626 0.226793,7.568087 -4.846503,1.780599 -4.600701,-5.964236 z m -18.13654,3.661177 0.150789,1.928879 c 0,0 0.563627,8.230752 4.415189,13.702541 1.371495,1.945597 3.079796,3.563112 4.443131,4.726338 0.681668,0.581614 1.317627,1.05734 1.749426,1.379006 0.215914,0.160843 0.394331,0.297021 0.516369,0.383246 0.06097,0.04312 0.09718,0.08846 0.130296,0.111359 0.0083,0.0055 0.06517,0.05569 0.06517,0.05569 l 1.466574,0.871833 0.660089,-1.667217 3.803814,-10.452446 0.303372,-0.785895 -0.540687,-0.694353 -5.696665,-7.539615 -0.340361,-0.465081 -0.617491,-0.121281 -8.666259,-1.193612 z m 3.376352,3.524295 6.145732,0.839468 4.88077,6.435861 -2.797434,7.77057 C 66.94652,83.245797 66.756171,83.127212 66.476719,82.88878 65.226539,81.822103 63.71988,80.371292 62.564545,78.732352 60.131312,75.275604 59.282374,70.634455 58.959481,68.393173 z m 24.730768,4.471336 -0.648598,0.258592 -8.22953,2.837739 -0.648596,0.258589 -0.247948,0.717135 -3.813543,10.328001 -0.455058,1.178842 1.083295,0.635508 c 0,0 1.280701,0.718135 3.422957,1.009259 2.142252,0.291126 5.277486,0.227621 9.154346,-1.118305 5.768264,-2.003138 9.759969,-8.149176 9.759969,-8.149176 l 0.872225,-1.286832 -1.278757,-0.802558 -8.394106,-5.490086 z m -0.410269,3.307466 6.403519,4.137233 c -1.151794,1.453846 -3.797136,4.602931 -7.267716,5.808154 -3.461781,1.201819 -6.038848,1.202862 -7.767681,0.96792 -0.909418,-0.123591 -0.911017,-0.217454 -1.305,-0.360466 l 3.009413,-8.170059 z m 24.54787,1.353701 c 2.44975,0.0017 4.76396,1.194349 5.64112,3.71792 1.14854,3.304303 -0.51494,6.918149 -3.73775,8.186299 -2.17019,0.853953 -4.27269,0.173565 -5.87348,-1.245495 0.87671,-1.563969 1.7009,-3.173317 2.35313,-4.898659 0.70594,-1.867448 1.20335,-3.80028 1.61698,-5.760065 z M 57.685464,97.207839 c 1.518185,1.205271 3.129434,2.310218 4.81358,3.242921 1.454875,0.80575 2.95793,1.46102 4.475145,2.02462 -0.294501,2.26337 -1.430833,4.35012 -3.664908,5.22919 -3.224487,1.26882 -6.733235,-0.2966 -7.881586,-3.60043 -0.907391,-2.61053 0.25744,-5.21426 2.257769,-6.896301 z m 29.906994,5.353191 0.0098,0.12447 -0.06517,-0.0558 c 0.02258,-0.009 0.03287,-0.0603 0.05543,-0.0688 z"
       style="font-size:medium;font-style:normal;font-variant:normal;font-weight:normal;font-stretch:normal;text-indent:0;text-align:start;text-decoration:none;line-height:normal;letter-spacing:normal;word-spacing:normal;text-transform:none;direction:ltr;block-progression:tb;writing-mode:lr-tb;text-anchor:start;baseline-shift:baseline;color:#000000;fill:#000000;fill-opacity:0.16597511;fill-rule:nonzero;stroke:#000000;stroke-width:5;stroke-linecap:round;stroke-linejoin:round;stroke-miterlimit:4;stroke-opacity:0.58091287;stroke-dasharray:none;marker:none;visibility:visible;display:inline;overflow:visible;enable-background:accumulate;font-family:Sans;-inkscape-font-specification:Sans" />
    <path
       style="font-size:medium;font-style:normal;font-variant:normal;font-weight:normal;font-stretch:normal;text-indent:0;text-align:start;text-decoration:none;line-height:normal;letter-spacing:normal;word-spacing:normal;text-transform:none;direction:ltr;block-progression:tb;writing-mode:lr-tb;text-anchor:start;baseline-shift:baseline;color:#000000;fill:#ffffff;fill-opacity:1;fill-rule:nonzero;stroke:none;stroke-width:1;marker:none;visibility:visible;display:inline;overflow:visible;enable-background:accumulate;font-family:Sans;-inkscape-font-specification:Sans"
       d="m 61.936612,12.813574 c -1.002668,0.16797 -1.9811,0.433374 -2.975587,0.824705 -7.954505,3.130045 -12.113479,12.36733 -9.279236,20.521428 0.767603,2.208384 1.98185,4.108899 3.481432,5.64638 -0.276091,0.326973 -0.572313,0.630876 -0.836255,0.969184 -1.974623,-1.81667 -4.527172,-2.866936 -7.215452,-2.856937 -1.285614,0.0049 -2.554145,0.22588 -3.834241,0.729579 -5.687581,2.238029 -8.723548,8.828137 -6.697624,14.656747 1.568974,4.513921 5.687008,7.263003 10.112427,7.248965 -0.592503,5.964598 0.05499,12.22576 2.158329,18.277011 1.969389,5.665895 5.044528,10.728515 8.942819,14.842995 -3.137125,3.070111 -4.456644,7.812999 -2.939282,12.178429 2.025946,5.8286 8.324236,8.8131 14.011818,6.57505 3.709047,-1.45946 6.22964,-4.78645 6.993415,-8.53938 4.475468,0.86619 9.022272,0.65827 13.392182,-0.57392 l 2.340675,1.94239 1.237924,1.05798 0.295568,-1.66353 0.615454,-3.01598 c 4.32427,-2.046244 8.171522,-5.113505 11.213702,-8.997076 2.85829,2.215592 6.75803,2.938754 10.3933,1.508303 5.68564,-2.237263 8.71985,-8.887094 6.69277,-14.71897 -1.48369,-4.268559 -5.28746,-6.873971 -9.43465,-7.134222 0.46674,-5.883648 -0.30082,-11.910716 -2.29058,-17.635177 -2.12236,-6.106025 -5.50827,-11.317255 -9.659495,-15.455514 3.228415,-3.065725 4.646385,-7.903582 3.110425,-12.322473 -1.52014,-4.373424 -5.473499,-7.069433 -9.74582,-7.225976 -1.424103,-0.05219 -2.899532,0.160163 -4.321423,0.719665 -3.903108,1.535851 -6.516538,5.1335 -7.13051,9.118995 -0.390092,-0.06763 -0.777726,-0.134883 -1.169829,-0.186884 0.164406,-2.175302 -0.06982,-4.413154 -0.817023,-6.562836 -2.125696,-6.11557 -7.653144,-9.915188 -13.621007,-10.131424 -0.994645,-0.03604 -2.021562,0.0345 -3.024228,0.202485 z m 1.770916,4.765148 c 0.344792,-0.02132 0.693952,0.0019 1.034664,0.01339 4.088364,0.134697 7.832134,2.739129 9.299471,6.960635 0.521462,1.500243 0.546302,3.038385 0.415354,4.535664 -0.951107,0.0368 -1.887787,0.11133 -2.838493,0.245092 -2.173033,0.305765 -4.303632,0.863625 -6.433497,1.701714 -3.151229,1.23999 -5.972084,3.031389 -8.471591,5.185725 -1.062593,-1.067062 -1.952101,-2.319548 -2.491456,-3.871261 -1.956442,-5.628676 0.889457,-11.89716 6.379657,-14.057518 1.029805,-0.405224 2.071536,-0.649394 3.105895,-0.713337 z m 26.883785,7.124312 c 0.415067,-0.06168 0.811826,-0.08102 1.210665,-0.06857 2.392975,0.07516 4.562704,1.576475 5.424287,4.055185 0.94437,2.716947 -0.242372,5.508048 -2.419183,7.164803 -2.877167,-2.175902 -6.000707,-3.93182 -9.274134,-5.080898 0.136733,-2.46101 1.402078,-4.800292 3.80687,-5.746563 0.40305,-0.158613 0.836426,-0.262357 1.251495,-0.323977 z m -18.402812,9.588505 c 12.796964,-1.754525 26.353589,7.071901 31.581989,22.113897 2.01357,5.793051 2.5832,11.977302 1.75766,17.818468 l -0.0914,0.38641 c -0.36458,2.355701 -0.93211,4.627367 -1.72,6.775231 -0.0227,0.06093 -0.0228,0.132474 -0.0457,0.193197 -0.36568,0.967367 -0.79424,1.928544 -1.23782,2.832469 -0.0127,0.02555 -0.0429,0.04326 -0.0554,0.06875 -0.43269,0.87554 -0.88113,1.722865 -1.38269,2.534438 -0.0844,0.136406 -0.18565,0.271301 -0.27227,0.406024 -3.082372,4.805408 -7.32865,8.407349 -12.322232,10.372292 -6.010127,2.364973 -12.698811,2.219613 -18.944698,-0.455382 -0.476932,-0.208783 -0.926042,-0.48931 -1.394475,-0.72726 -0.395042,-0.195645 -0.808585,-0.343981 -1.199013,-0.56021 -0.08691,-0.04814 -0.16925,-0.111415 -0.255749,-0.160504 -1.865436,-1.085533 -3.671904,-2.42789 -5.35428,-3.937281 L 60.405346,91.228206 C 56.472561,87.438837 53.312331,82.549328 51.390585,77.020507 49.173717,70.642613 48.747444,64.071681 49.846806,58.04935 c 0.0117,-0.06543 0.03361,-0.127881 0.0457,-0.193195 0.774162,-4.112104 2.272496,-7.966275 4.343484,-11.326713 0.07815,-0.126656 0.132206,-0.27437 0.211977,-0.399487 1.123926,-1.764281 2.436634,-3.367326 3.879826,-4.813236 0.219644,-0.218012 0.453697,-0.428432 0.679704,-0.638462 0.348082,-0.325175 0.718049,-0.628291 1.082278,-0.933116 0.337192,-0.282075 0.681458,-0.537879 1.031718,-0.802136 1.073166,-0.809 2.161761,-1.558543 3.355766,-2.183674 0.75747,-0.398057 1.541297,-0.752849 2.348368,-1.070428 1.772169,-0.697339 3.534729,-1.146711 5.362868,-1.397357 z m -28.380862,8.725409 c 2.157489,-0.426228 4.195188,0.601415 5.589547,2.280276 -1.684344,3.038415 -2.963783,6.384233 -3.787298,9.885909 -2.763085,0.382428 -5.507937,-0.814858 -6.485188,-3.626381 -1.148368,-3.303834 0.508407,-6.979703 3.732891,-8.248522 0.314716,-0.123847 0.63781,-0.229607 0.950048,-0.291282 z m 31.792391,0.693519 c -1.624186,0.15646 -2.749022,0.611883 -2.749022,0.611883 l -1.176616,0.504104 0.348165,1.342727 2.666668,10.001704 0.239238,0.727049 0.68751,0.239184 8.129532,2.883303 0.812952,0.288333 0.624279,-0.5697 6.790259,-5.693624 1.137707,-1.001879 -0.941338,-1.152901 c 0,0 -4.202634,-5.384931 -9.996711,-7.324263 -2.690459,-0.901225 -4.948436,-1.012335 -6.572623,-0.85592 z m -5.141167,1.122314 -1.408045,0.654701 c 0,0 -4.465954,1.929717 -7.722778,6.986994 -1.819596,2.82425 -2.65477,5.327038 -3.026942,7.167969 -0.372176,1.840932 -0.24399,3.101185 -0.24399,3.101185 l 0.09242,1.182215 1.104676,0.131189 8.610833,1.26237 0.984094,0.144276 0.484244,-0.80551 4.625589,-7.717843 0.378255,-0.605767 -0.234371,-0.664824 -3.16064,-9.320641 z m 5.314342,1.870877 c 1.280273,-0.123391 3.173684,-0.04379 5.467951,0.724729 3.720227,1.24519 6.462523,4.075924 7.656032,5.381882 l -4.907694,4.108969 -6.694223,-2.411473 -2.059812,-7.683039 c 0.257091,-0.0491 0.165535,-0.08521 0.537746,-0.121053 z m -6.987757,2.38932 2.368049,6.959368 -3.712531,6.17558 -6.396619,-0.937759 c 0.01946,-0.369198 -0.04852,-0.350811 0.09817,-1.077389 0.302172,-1.494679 1.023784,-3.638769 2.622446,-6.120107 1.899857,-2.950148 3.773681,-4.251864 5.020471,-4.999693 z m 24.535307,4.304289 -1.253421,1.077178 -6.655091,5.867211 -0.568852,0.500938 0.05837,0.746665 0.483562,9.297225 0.06323,0.808885 0.697237,0.36363 8.731525,5.139744 1.594801,0.956529 0.522137,-1.876359 c 0,0 1.551959,-5.177023 1.025611,-10.213889 -0.683717,-6.541295 -3.803468,-11.321655 -3.803468,-11.321655 z m -18.936825,4.312715 -0.529941,0.998715 -4.126756,7.098997 -0.534806,0.936493 0.670994,0.805722 5.817246,7.526537 0.610704,0.812259 0.945183,-0.353506 6.912876,-2.569448 1.005475,-0.360042 -0.02726,-1.126535 -0.33674,-9.752395 -0.02726,-1.126531 -0.99382,-0.268718 -8.266628,-2.303689 z m 18.13665,0.229275 c 0.812271,1.473527 2.164571,4.237644 2.610226,8.501838 0.294004,2.812775 -0.106699,5.397708 -0.47531,7.142239 l -6.434624,-3.757365 -0.3571,-7.679454 z m -16.829616,3.268443 6.278983,1.766261 0.226792,7.568087 -4.846502,1.780599 -4.600701,-5.964236 z m -18.136539,3.661178 0.150788,1.928879 c 0,0 0.563628,8.230752 4.41519,13.702541 1.371495,1.945597 3.079797,3.563111 4.443132,4.726337 0.681667,0.581615 1.317626,1.05734 1.749425,1.379007 0.215914,0.160842 0.394331,0.297021 0.516369,0.383245 0.06097,0.04312 0.09719,0.08846 0.130297,0.111359 0.0083,0.0055 0.06516,0.05569 0.06516,0.05569 l 1.466575,0.871832 0.660089,-1.667217 3.803814,-10.452445 0.303372,-0.785895 -0.540687,-0.694353 -5.696665,-7.539615 -0.340361,-0.465082 -0.617492,-0.121281 -8.666259,-1.193611 z m 3.376352,3.524296 6.145732,0.839467 4.880771,6.43586 -2.797435,7.770571 c -0.242029,-0.193275 -0.432378,-0.31186 -0.711829,-0.550292 -1.25018,-1.066678 -2.75684,-2.517488 -3.912174,-4.156429 -2.433234,-3.456747 -3.282172,-8.097896 -3.605065,-10.339177 z m 24.730767,4.471335 -0.648598,0.258592 -8.229529,2.837739 -0.648595,0.258589 -0.247948,0.717136 -3.813543,10.328 -0.455058,1.178841 1.083295,0.635508 c 0,0 1.280699,0.718136 3.422956,1.00926 2.142253,0.291126 5.277486,0.227621 9.154347,-1.118305 5.768263,-2.003138 9.759968,-8.149176 9.759968,-8.149176 l 0.872225,-1.286832 -1.278757,-0.802558 -8.394106,-5.490086 z m -0.410268,3.307466 6.40352,4.137232 c -1.151795,1.453846 -3.797137,4.602932 -7.267718,5.808155 -3.46178,1.201818 -6.038846,1.202862 -7.76768,0.967919 -0.909418,-0.12359 -0.911017,-0.217453 -1.305,-0.360465 l 3.009413,-8.17006 z m 24.547864,1.353701 c 2.44975,0.0017 4.76397,1.194349 5.64113,3.717919 1.14854,3.304304 -0.51494,6.918149 -3.73776,8.186301 -2.17019,0.853951 -4.27268,0.173564 -5.87347,-1.245497 0.8767,-1.563968 1.7009,-3.173316 2.35312,-4.898658 0.70595,-1.867448 1.20335,-3.800281 1.61698,-5.760065 z M 59.656761,97.207838 c 1.518185,1.205272 3.129433,2.310219 4.81358,3.242922 1.454875,0.80575 2.957928,1.46102 4.475144,2.02462 -0.294501,2.26337 -1.430832,4.35012 -3.664908,5.22919 -3.224486,1.26882 -6.733235,-0.2966 -7.881585,-3.60043 -0.907392,-2.61053 0.257439,-5.21426 2.257769,-6.896302 z m 29.906993,5.353192 0.0098,0.12447 -0.06516,-0.0558 c 0.02258,-0.009 0.03286,-0.0603 0.05542,-0.0688 z"
       id="path4486"
       inkscape:connector-curvature="0"
       sodipodi:nodetypes="sssccssscscsscccccccsscscsssccssscsscsscsscccsccccssccccccccsccccccscccccccccsscccsccccccccccccccccccccsccccccccccccccccccccccccccccccccccccccccccccccccccccccccccccccccccccccsscccccccccccccccccsccccccccccscccccccccsccccsscsccscssccccc" />
  </g>
</svg>
