<?xml version="1.0" encoding="UTF-8" standalone="no"?>
<!-- Created with Inkscape (http://www.inkscape.org/) -->

<svg
   xmlns:dc="http://purl.org/dc/elements/1.1/"
   xmlns:cc="http://creativecommons.org/ns#"
   xmlns:rdf="http://www.w3.org/1999/02/22-rdf-syntax-ns#"
   xmlns:svg="http://www.w3.org/2000/svg"
   xmlns="http://www.w3.org/2000/svg"
   xmlns:xlink="http://www.w3.org/1999/xlink"
   xmlns:sodipodi="http://sodipodi.sourceforge.net/DTD/sodipodi-0.dtd"
   xmlns:inkscape="http://www.inkscape.org/namespaces/inkscape"
   width="128"
   height="128"
   id="svg8156"
   version="1.1"
   inkscape:version="0.48.3.1 r9886"
   sodipodi:docname="start-here.svg">
  <defs
     id="defs8158">
    <linearGradient
       gradientTransform="matrix(2.6666667,0,0,2.6666667,-1667.3528,-1420.8175)"
       inkscape:collect="always"
       xlink:href="#linearGradient9863"
       id="linearGradient7873"
       x1="644.40491"
       y1="926.25873"
       x2="652.68567"
       y2="883.30194"
       gradientUnits="userSpaceOnUse" />
    <linearGradient
       id="linearGradient9863">
      <stop
         style="stop-color:#2f445a;stop-opacity:1;"
         offset="0"
         id="stop9865" />
      <stop
         style="stop-color:#415f7c;stop-opacity:1"
         offset="1"
         id="stop9867" />
    </linearGradient>
    <linearGradient
       inkscape:collect="always"
       xlink:href="#linearGradient12578"
       id="linearGradient7416"
       gradientUnits="userSpaceOnUse"
       x1="9.5300207"
       y1="9.6453409"
       x2="13.114401"
       y2="15.088529" />
    <linearGradient
       id="linearGradient12578">
      <stop
         style="stop-color:#e9b551;stop-opacity:1;"
         offset="0"
         id="stop12580" />
      <stop
         style="stop-color:#b48739;stop-opacity:1;"
         offset="1"
         id="stop12582" />
    </linearGradient>
    <linearGradient
       inkscape:collect="always"
       xlink:href="#linearGradient3249"
       id="linearGradient7414"
       gradientUnits="userSpaceOnUse"
       x1="504.90103"
       y1="978.02399"
       x2="504.0184"
       y2="974.03284"
       gradientTransform="matrix(2.6666667,0,0,2.6666667,-1294.0195,-1580.8175)" />
    <linearGradient
       id="linearGradient3249">
      <stop
         style="stop-color:#000000;stop-opacity:1;"
         offset="0"
         id="stop3251" />
      <stop
         style="stop-color:#000000;stop-opacity:0;"
         offset="1"
         id="stop3253-2" />
    </linearGradient>
    <linearGradient
       inkscape:collect="always"
       xlink:href="#linearGradient9495"
       id="linearGradient7412"
       gradientUnits="userSpaceOnUse"
       x1="504.91241"
       y1="965.13464"
       x2="502.77573"
       y2="971.09668"
       gradientTransform="matrix(2.6666667,0,0,2.6666667,-1294.0195,-1580.8175)" />
    <linearGradient
       inkscape:collect="always"
       id="linearGradient9495">
      <stop
         style="stop-color:#ffffff;stop-opacity:1;"
         offset="0"
         id="stop9497" />
      <stop
         style="stop-color:#ffffff;stop-opacity:0;"
         offset="1"
         id="stop9499" />
    </linearGradient>
    <linearGradient
       inkscape:collect="always"
       xlink:href="#linearGradient12578"
       id="linearGradient7410"
       gradientUnits="userSpaceOnUse"
       x1="503.58203"
       y1="968.48517"
       x2="503.85971"
       y2="975.43262"
       gradientTransform="matrix(2.6666667,0,0,2.6666667,-1294.0195,-1580.8175)" />
    <linearGradient
       id="linearGradient7902">
      <stop
         style="stop-color:#e9b551;stop-opacity:1;"
         offset="0"
         id="stop7904" />
      <stop
         style="stop-color:#b48739;stop-opacity:1;"
         offset="1"
         id="stop7906" />
    </linearGradient>
    <linearGradient
       inkscape:collect="always"
       xlink:href="#linearGradient5316"
       id="linearGradient7406"
       gradientUnits="userSpaceOnUse"
       x1="499.41898"
       y1="944.26801"
       x2="517.93237"
       y2="972.64899"
       gradientTransform="matrix(2.6666667,0,0,2.6666667,-1294.0195,-1580.8175)" />
    <linearGradient
       id="linearGradient5316">
      <stop
         style="stop-color:#c0bfbb;stop-opacity:1;"
         offset="0"
         id="stop5320" />
      <stop
         style="stop-color:#798088;stop-opacity:1;"
         offset="1"
         id="stop5322" />
    </linearGradient>
    <linearGradient
       inkscape:collect="always"
       xlink:href="#linearGradient3249"
       id="linearGradient7404"
       gradientUnits="userSpaceOnUse"
       x1="517.75867"
       y1="983.15723"
       x2="529.18732"
       y2="974.53223"
       gradientTransform="matrix(2.6666667,0,0,2.6666667,-1294.0195,-1580.8175)" />
    <linearGradient
       id="linearGradient7913">
      <stop
         style="stop-color:#000000;stop-opacity:1;"
         offset="0"
         id="stop7915" />
      <stop
         style="stop-color:#000000;stop-opacity:0;"
         offset="1"
         id="stop7917" />
    </linearGradient>
    <linearGradient
       inkscape:collect="always"
       xlink:href="#linearGradient3249"
       id="linearGradient7402"
       gradientUnits="userSpaceOnUse"
       x1="501.06546"
       y1="973.474"
       x2="492.28647"
       y2="967.55103"
       gradientTransform="matrix(2.6666667,0,0,2.6666667,-1294.0195,-1580.8175)" />
    <linearGradient
       id="linearGradient7920">
      <stop
         style="stop-color:#000000;stop-opacity:1;"
         offset="0"
         id="stop7922" />
      <stop
         style="stop-color:#000000;stop-opacity:0;"
         offset="1"
         id="stop7924" />
    </linearGradient>
    <linearGradient
       inkscape:collect="always"
       xlink:href="#linearGradient3249"
       id="linearGradient7400"
       gradientUnits="userSpaceOnUse"
       x1="501.25372"
       y1="966.9411"
       x2="498.23135"
       y2="959.27612"
       gradientTransform="matrix(2.6666667,0,0,2.6666667,-1294.0195,-1580.8175)" />
    <linearGradient
       id="linearGradient7927">
      <stop
         style="stop-color:#000000;stop-opacity:1;"
         offset="0"
         id="stop7929" />
      <stop
         style="stop-color:#000000;stop-opacity:0;"
         offset="1"
         id="stop7931" />
    </linearGradient>
    <linearGradient
       inkscape:collect="always"
       xlink:href="#linearGradient3249"
       id="linearGradient7398"
       gradientUnits="userSpaceOnUse"
       x1="503.51712"
       y1="962.07922"
       x2="502.30066"
       y2="954.48389"
       gradientTransform="matrix(2.6666667,0,0,2.6666667,-1294.0195,-1580.8175)" />
    <linearGradient
       id="linearGradient7934">
      <stop
         style="stop-color:#000000;stop-opacity:1;"
         offset="0"
         id="stop7936" />
      <stop
         style="stop-color:#000000;stop-opacity:0;"
         offset="1"
         id="stop7938" />
    </linearGradient>
    <linearGradient
       inkscape:collect="always"
       xlink:href="#linearGradient3249"
       id="linearGradient7396"
       gradientUnits="userSpaceOnUse"
       x1="504.51901"
       y1="962.52405"
       x2="508.2655"
       y2="952.21112"
       gradientTransform="matrix(2.6666667,0,0,2.6666667,-1294.0195,-1580.8175)" />
    <linearGradient
       id="linearGradient7941">
      <stop
         style="stop-color:#000000;stop-opacity:1;"
         offset="0"
         id="stop7943" />
      <stop
         style="stop-color:#000000;stop-opacity:0;"
         offset="1"
         id="stop7945" />
    </linearGradient>
    <linearGradient
       inkscape:collect="always"
       xlink:href="#linearGradient3249"
       id="linearGradient7394"
       gradientUnits="userSpaceOnUse"
       x1="508.13217"
       y1="962.60834"
       x2="516.60168"
       y2="953.75873"
       gradientTransform="matrix(2.6666667,0,0,2.6666667,-1294.0195,-1580.8175)" />
    <linearGradient
       id="linearGradient7948">
      <stop
         style="stop-color:#000000;stop-opacity:1;"
         offset="0"
         id="stop7950" />
      <stop
         style="stop-color:#000000;stop-opacity:0;"
         offset="1"
         id="stop7952" />
    </linearGradient>
    <linearGradient
       inkscape:collect="always"
       xlink:href="#linearGradient3249"
       id="linearGradient7392"
       gradientUnits="userSpaceOnUse"
       x1="512.58618"
       y1="966.49304"
       x2="523.43536"
       y2="959.52484"
       gradientTransform="matrix(2.6666667,0,0,2.6666667,-1294.0195,-1580.8175)" />
    <linearGradient
       id="linearGradient7955">
      <stop
         style="stop-color:#000000;stop-opacity:1;"
         offset="0"
         id="stop7957" />
      <stop
         style="stop-color:#000000;stop-opacity:0;"
         offset="1"
         id="stop7959" />
    </linearGradient>
    <linearGradient
       inkscape:collect="always"
       xlink:href="#linearGradient3249"
       id="linearGradient7390"
       gradientUnits="userSpaceOnUse"
       x1="515.26477"
       y1="970.04193"
       x2="525.87769"
       y2="966.90625"
       gradientTransform="matrix(2.6666667,0,0,2.6666667,-1294.0195,-1580.8175)" />
    <linearGradient
       id="linearGradient7962">
      <stop
         style="stop-color:#000000;stop-opacity:1;"
         offset="0"
         id="stop7964" />
      <stop
         style="stop-color:#000000;stop-opacity:0;"
         offset="1"
         id="stop7966" />
    </linearGradient>
    <linearGradient
       inkscape:collect="always"
       xlink:href="#linearGradient9495"
       id="linearGradient7388"
       gradientUnits="userSpaceOnUse"
       x1="533.7652"
       y1="960.7713"
       x2="525.43396"
       y2="967.87891"
       gradientTransform="matrix(2.6666667,0,0,2.6666667,-1294.0195,-1580.8175)" />
    <linearGradient
       inkscape:collect="always"
       xlink:href="#linearGradient9495"
       id="linearGradient7386"
       gradientUnits="userSpaceOnUse"
       x1="530.06799"
       y1="948.79803"
       x2="524.05096"
       y2="960.78333"
       gradientTransform="matrix(2.6666667,0,0,2.6666667,-1294.0195,-1580.8175)" />
    <linearGradient
       inkscape:collect="always"
       xlink:href="#linearGradient9495"
       id="linearGradient7382"
       gradientUnits="userSpaceOnUse"
       x1="521.33777"
       y1="941.61536"
       x2="518.71277"
       y2="954.92456"
       gradientTransform="matrix(2.6666667,0,0,2.6666667,-1294.0195,-1580.8175)" />
    <linearGradient
       inkscape:collect="always"
       xlink:href="#linearGradient9495"
       id="linearGradient7372"
       gradientUnits="userSpaceOnUse"
       x1="510.21683"
       y1="939.59192"
       x2="510.09769"
       y2="952.90118"
       gradientTransform="matrix(2.6666667,0,0,2.6666667,-1294.0195,-1580.8175)" />
    <linearGradient
       inkscape:collect="always"
       xlink:href="#linearGradient9495"
       id="linearGradient7370"
       gradientUnits="userSpaceOnUse"
       x1="494.897"
       y1="939.91022"
       x2="501.27188"
       y2="952.3136"
       gradientTransform="matrix(2.6666667,0,0,2.6666667,-1294.0195,-1580.8175)" />
    <linearGradient
       inkscape:collect="always"
       xlink:href="#linearGradient9495"
       id="linearGradient7368"
       gradientUnits="userSpaceOnUse"
       x1="486.55066"
       y1="948.86316"
       x2="496.47592"
       y2="960.15161"
       gradientTransform="matrix(2.6666667,0,0,2.6666667,-1294.0195,-1580.8175)" />
    <linearGradient
       inkscape:collect="always"
       xlink:href="#linearGradient9495"
       id="linearGradient7366"
       gradientUnits="userSpaceOnUse"
       x1="484.07101"
       y1="960.50787"
       x2="493.65625"
       y2="966.77924"
       gradientTransform="matrix(2.6666667,0,0,2.6666667,-1294.0195,-1580.8175)" />
    <linearGradient
       inkscape:collect="always"
       xlink:href="#linearGradient5316"
       id="linearGradient7364"
       gradientUnits="userSpaceOnUse"
       x1="522.14795"
       y1="956.44171"
       x2="523.64545"
       y2="958.39282"
       gradientTransform="matrix(2.6666667,0,0,2.6666667,-1294.0195,-1580.8175)" />
    <linearGradient
       id="linearGradient8018">
      <stop
         style="stop-color:#c0bfbb;stop-opacity:1;"
         offset="0"
         id="stop8020" />
      <stop
         style="stop-color:#798088;stop-opacity:1;"
         offset="1"
         id="stop8022" />
    </linearGradient>
    <linearGradient
       inkscape:collect="always"
       xlink:href="#linearGradient3249"
       id="linearGradient7360"
       gradientUnits="userSpaceOnUse"
       x1="503.88083"
       y1="965.2442"
       x2="519.55634"
       y2="973.9162"
       gradientTransform="matrix(2.6666667,0,0,2.6666667,-1294.0195,-1580.8175)" />
    <linearGradient
       id="linearGradient8025">
      <stop
         style="stop-color:#000000;stop-opacity:1;"
         offset="0"
         id="stop8027" />
      <stop
         style="stop-color:#000000;stop-opacity:0;"
         offset="1"
         id="stop8029" />
    </linearGradient>
    <linearGradient
       inkscape:collect="always"
       xlink:href="#linearGradient5316"
       id="linearGradient7358"
       gradientUnits="userSpaceOnUse"
       x1="526.14325"
       y1="963.68213"
       x2="527.8717"
       y2="966.60876"
       gradientTransform="matrix(2.6666667,0,0,2.6666667,-1294.0195,-1580.8175)" />
    <linearGradient
       id="linearGradient8032">
      <stop
         style="stop-color:#c0bfbb;stop-opacity:1;"
         offset="0"
         id="stop8034" />
      <stop
         style="stop-color:#798088;stop-opacity:1;"
         offset="1"
         id="stop8036" />
    </linearGradient>
    <linearGradient
       inkscape:collect="always"
       xlink:href="#linearGradient5316"
       id="linearGradient7356"
       gradientUnits="userSpaceOnUse"
       x1="514.25336"
       y1="952.99561"
       x2="516.48315"
       y2="955.15576"
       gradientTransform="matrix(2.6666667,0,0,2.6666667,-1294.0195,-1580.8175)" />
    <linearGradient
       id="linearGradient8039">
      <stop
         style="stop-color:#c0bfbb;stop-opacity:1;"
         offset="0"
         id="stop8041" />
      <stop
         style="stop-color:#798088;stop-opacity:1;"
         offset="1"
         id="stop8043" />
    </linearGradient>
    <linearGradient
       inkscape:collect="always"
       xlink:href="#linearGradient5316"
       id="linearGradient7354"
       gradientUnits="userSpaceOnUse"
       x1="507.50449"
       y1="948.90527"
       x2="510.01953"
       y2="950.08984"
       gradientTransform="matrix(2.6666667,0,0,2.6666667,-1294.0195,-1580.8175)" />
    <linearGradient
       id="linearGradient8046">
      <stop
         style="stop-color:#c0bfbb;stop-opacity:1;"
         offset="0"
         id="stop8048" />
      <stop
         style="stop-color:#798088;stop-opacity:1;"
         offset="1"
         id="stop8050" />
    </linearGradient>
    <linearGradient
       inkscape:collect="always"
       xlink:href="#linearGradient5316"
       id="linearGradient7352"
       gradientUnits="userSpaceOnUse"
       x1="498.38791"
       y1="951.03802"
       x2="501.2634"
       y2="951.73486"
       gradientTransform="matrix(2.6666667,0,0,2.6666667,-1294.0195,-1580.8175)" />
    <linearGradient
       id="linearGradient8053">
      <stop
         style="stop-color:#c0bfbb;stop-opacity:1;"
         offset="0"
         id="stop8055" />
      <stop
         style="stop-color:#798088;stop-opacity:1;"
         offset="1"
         id="stop8057" />
    </linearGradient>
    <linearGradient
       inkscape:collect="always"
       xlink:href="#linearGradient5316"
       id="linearGradient7350"
       gradientUnits="userSpaceOnUse"
       x1="491.08978"
       y1="958.44739"
       x2="493.50464"
       y2="957.82025"
       gradientTransform="matrix(2.6666667,0,0,2.6666667,-1294.0195,-1580.8175)" />
    <linearGradient
       id="linearGradient8060">
      <stop
         style="stop-color:#c0bfbb;stop-opacity:1;"
         offset="0"
         id="stop8062" />
      <stop
         style="stop-color:#798088;stop-opacity:1;"
         offset="1"
         id="stop8064" />
    </linearGradient>
    <linearGradient
       inkscape:collect="always"
       xlink:href="#linearGradient5316"
       id="linearGradient7348"
       gradientUnits="userSpaceOnUse"
       x1="490.69354"
       y1="968.67584"
       x2="492.09064"
       y2="967.83966"
       gradientTransform="matrix(2.6666667,0,0,2.6666667,-1294.0195,-1580.8175)" />
    <linearGradient
       id="linearGradient8067">
      <stop
         style="stop-color:#c0bfbb;stop-opacity:1;"
         offset="0"
         id="stop8069" />
      <stop
         style="stop-color:#798088;stop-opacity:1;"
         offset="1"
         id="stop8071" />
    </linearGradient>
    <linearGradient
       inkscape:collect="always"
       xlink:href="#linearGradient3249"
       id="linearGradient7346"
       gradientUnits="userSpaceOnUse"
       x1="505.95053"
       y1="966.20435"
       x2="498.86234"
       y2="956.56519"
       gradientTransform="matrix(2.6666667,0,0,2.6666667,-1294.0195,-1580.8175)" />
    <linearGradient
       id="linearGradient8074">
      <stop
         style="stop-color:#000000;stop-opacity:1;"
         offset="0"
         id="stop8076" />
      <stop
         style="stop-color:#000000;stop-opacity:0;"
         offset="1"
         id="stop8078" />
    </linearGradient>
    <linearGradient
       inkscape:collect="always"
       xlink:href="#linearGradient5316"
       id="linearGradient7344"
       gradientUnits="userSpaceOnUse"
       x1="511.6962"
       y1="974.53223"
       x2="529.18732"
       y2="974.53223"
       gradientTransform="matrix(2.6666667,0,0,2.6666667,-1294.0195,-1580.8175)" />
    <linearGradient
       id="linearGradient8081">
      <stop
         style="stop-color:#c0bfbb;stop-opacity:1;"
         offset="0"
         id="stop8083" />
      <stop
         style="stop-color:#798088;stop-opacity:1;"
         offset="1"
         id="stop8085" />
    </linearGradient>
    <linearGradient
       inkscape:collect="always"
       xlink:href="#linearGradient5316"
       id="linearGradient7342"
       gradientUnits="userSpaceOnUse"
       x1="498.49457"
       y1="962.30219"
       x2="507.29385"
       y2="963.46375"
       gradientTransform="matrix(2.6666667,0,0,2.6666667,-1294.0195,-1580.8175)" />
    <linearGradient
       id="linearGradient8088">
      <stop
         style="stop-color:#c0bfbb;stop-opacity:1;"
         offset="0"
         id="stop8090" />
      <stop
         style="stop-color:#798088;stop-opacity:1;"
         offset="1"
         id="stop8092" />
    </linearGradient>
    <linearGradient
       inkscape:collect="always"
       xlink:href="#linearGradient3249"
       id="linearGradient7340"
       gradientUnits="userSpaceOnUse"
       x1="490.08923"
       y1="994.99048"
       x2="499.6041"
       y2="982.93817"
       gradientTransform="matrix(2.6666667,0,0,2.6666667,-1294.0195,-1580.8175)" />
    <linearGradient
       id="linearGradient8095">
      <stop
         style="stop-color:#000000;stop-opacity:1;"
         offset="0"
         id="stop8097" />
      <stop
         style="stop-color:#000000;stop-opacity:0;"
         offset="1"
         id="stop8099" />
    </linearGradient>
    <linearGradient
       inkscape:collect="always"
       xlink:href="#linearGradient5316"
       id="linearGradient7338"
       gradientUnits="userSpaceOnUse"
       x1="498"
       y1="972.89343"
       x2="501.0625"
       y2="984.70593"
       gradientTransform="matrix(2.6666667,0,0,2.6666667,-1294.0195,-1580.8175)" />
    <linearGradient
       id="linearGradient8102">
      <stop
         style="stop-color:#c0bfbb;stop-opacity:1;"
         offset="0"
         id="stop8104" />
      <stop
         style="stop-color:#798088;stop-opacity:1;"
         offset="1"
         id="stop8106" />
    </linearGradient>
    <linearGradient
       inkscape:collect="always"
       xlink:href="#linearGradient9590"
       id="linearGradient7336"
       gradientUnits="userSpaceOnUse"
       gradientTransform="matrix(2.6666667,0,0,2.6666667,-1303.3528,-1582.7341)"
       x1="502.91904"
       y1="981.9881"
       x2="504.20029"
       y2="976.3974" />
    <linearGradient
       id="linearGradient9590">
      <stop
         style="stop-color:#ffffff;stop-opacity:0.0000000;"
         offset="0.0000000"
         id="stop9591" />
      <stop
         style="stop-color:#fff;stop-opacity:1;"
         offset="1"
         id="stop9592" />
    </linearGradient>
    <linearGradient
       inkscape:collect="always"
       xlink:href="#linearGradient5316"
       id="linearGradient7334"
       gradientUnits="userSpaceOnUse"
       gradientTransform="matrix(2.6666667,0,0,2.6666667,-1303.3528,-1582.7341)"
       x1="503.75873"
       y1="980.04358"
       x2="501.0625"
       y2="984.70593" />
    <linearGradient
       id="linearGradient8113">
      <stop
         style="stop-color:#c0bfbb;stop-opacity:1;"
         offset="0"
         id="stop8115" />
      <stop
         style="stop-color:#798088;stop-opacity:1;"
         offset="1"
         id="stop8117" />
    </linearGradient>
  </defs>
  <sodipodi:namedview
     id="base"
     pagecolor="#ffffff"
     bordercolor="#666666"
     borderopacity="1.0"
     inkscape:pageopacity="0.0"
     inkscape:pageshadow="2"
     inkscape:zoom="1.979899"
     inkscape:cx="155.26429"
     inkscape:cy="51.508633"
     inkscape:document-units="px"
     inkscape:current-layer="layer1"
     showgrid="false"
     inkscape:window-width="1366"
     inkscape:window-height="721"
     inkscape:window-x="0"
     inkscape:window-y="24"
     inkscape:window-maximized="1" />
  <metadata
     id="metadata8161">
    <rdf:RDF>
      <cc:Work
         rdf:about="">
        <dc:format>image/svg+xml</dc:format>
        <dc:type
           rdf:resource="http://purl.org/dc/dcmitype/StillImage" />
        <dc:title />
      </cc:Work>
    </rdf:RDF>
  </metadata>
  <g
     inkscape:label="Capa 1"
     inkscape:groupmode="layer"
     id="layer1"
     transform="translate(0,-924.36218)">
    <path
       style="fill:url(#linearGradient7334);stroke:none;display:inline"
       d="m 48.230467,1029.2317 c -3.403307,7.5637 -10.7432,11.3402 -18.833334,14.0833 -4.742053,1.0783 -11.810746,4.1397 -15.513573,3.1638 -3.3652,-0.8869 -5.1641869,-1.3834 -8.3614399,-2.393 9.3234929,-7.3017 28.7866929,-4.6625 34.2083469,-16.3541 2.38752,0.6303 5.43064,1.0835 8.5,1.5 z"
       id="path7264"
       inkscape:connector-curvature="0"
       sodipodi:nodetypes="ccsccc" />
    <path
       sodipodi:nodetypes="ccccc"
       inkscape:connector-curvature="0"
       id="path7266"
       d="m 48.230467,1029.2317 c -2.1068,4.6823 -5.722134,7.9132 -10.090134,10.3461 -3.5044,-0.2338 -9.17232,-1.4046 -10.357573,-3.0622 5.21992,-1.6468 9.743867,-4.0314 11.947707,-8.7839 2.38752,0.6303 5.43064,1.0835 8.5,1.5 z"
       style="fill:url(#linearGradient7336);stroke:none;display:inline" />
    <path
       sodipodi:nodetypes="ccccc"
       inkscape:connector-curvature="0"
       id="path7268"
       d="m 53.0638,1029.8983 c -5.48664,7.4805 -6.2432,12.5903 -14.333333,15.3334 -10.342587,2.3518 -19.012267,3.1144 -24.916667,1.25 9.323493,-7.3018 28.91168,-5.725 34.333333,-17.4167 1.287147,0.7468 2.96328,0.9749 4.916667,0.8333 z"
       style="fill:url(#linearGradient7338);stroke:none;display:inline" />
    <path
       style="fill:url(#linearGradient7340);stroke:none;display:inline"
       d="m 44.768547,1041.751 c -1.504507,1.417 -3.373547,2.5772 -6.03808,3.4807 -10.342587,2.3518 -19.012267,3.1144 -24.916667,1.25 5.29304,-4.1453 13.89432,-5.4291 21.33368,-7.9036 1.92432,0.9885 5.836187,2.4898 9.621067,3.1729 z"
       id="path7270"
       inkscape:connector-curvature="0"
       sodipodi:nodetypes="ccccc" />
    <path
       sodipodi:nodetypes="ccccc"
       style="fill:url(#linearGradient7342);fill-opacity:1;fill-rule:evenodd;display:inline"
       inkscape:connector-curvature="0"
       d="m 19.13788,1005.3176 9.348053,6.5394 c 8.869387,-39.61909 53.865467,-20.99253 42.02848,6.2973 l 11.603757,2.5574 C 98.92943,983.30399 41.5278,945.06476 19.13788,1005.3176 z"
       class="fil0"
       id="path7272" />
    <path
       sodipodi:nodetypes="cscccczc"
       style="fill:url(#linearGradient7344);fill-opacity:1;fill-rule:evenodd;display:inline"
       inkscape:connector-curvature="0"
       d="m 111.97481,1021.384 c 8.6088,2.38 4.98251,2.9589 -0.1536,3.1349 -6.89336,0.2363 -18.4721,-1.5918 -30.12314,-3.873 l -11.194377,-2.5031 7.514294,1.1227 5.374343,-7.9347 c 16.5419,5.6491 19.9735,7.6733 28.58232,10.0532 z"
       class="fil0"
       id="path7274" />
    <path
       inkscape:connector-curvature="0"
       id="path7276"
       d="m 53.3138,973.84919 c -12.48336,0.13173 -25.770453,8.9052 -34.166667,31.50001 l 9.333334,6.5 c 4.179253,-18.66857 16.42048,-24.42537 26.916666,-22.41668 L 64.8138,976.26585 c -3.625333,-1.54114 -7.517387,-2.45866 -11.5,-2.41666 z"
       style="fill:url(#linearGradient7346);fill-opacity:1;fill-rule:evenodd;display:inline" />
    <path
       sodipodi:nodetypes="zsscccz"
       style="fill:url(#linearGradient7348);fill-opacity:1;fill-rule:evenodd;display:inline"
       inkscape:connector-curvature="0"
       d="m 5.0967871,992.25412 c -2.454187,-2.71885 -3.984507,-4.74443 -3.5268,-4.98707 0.60248,-0.31933 6.579626,0.46342 8.172613,0.55371 1.7540269,0.0995 12.2202669,8.15787 21.6079469,15.41944 l 5.08184,9.7454 -7.951814,-1.0827 C 13.780493,1002.4068 7.5510001,994.97297 5.0967871,992.25412 z"
       class="fil0"
       id="path7278" />
    <path
       sodipodi:nodetypes="cssscccc"
       style="fill:url(#linearGradient7350);fill-opacity:1;fill-rule:evenodd;display:inline"
       inkscape:connector-curvature="0"
       d="m 9.1206531,963.03716 c -1.947466,-3.35749 -2.42424,-4.80283 -1.93904,-4.94624 0.39216,-0.116 4.9429869,-0.2 7.5204269,-0.26533 0.71056,-0.0187 1.443227,1.73018 2.47216,2.79824 4.866907,5.05186 14.343333,21.40634 21.17072,32.00696 L 25.722173,992.03353 C 20.674573,981.98119 14.807507,972.71404 9.1206531,963.03708 z"
       class="fil0"
       id="path7280" />
    <path
       sodipodi:nodetypes="zsssccsz"
       style="fill:url(#linearGradient7352);fill-opacity:1;fill-rule:evenodd;display:inline"
       inkscape:connector-curvature="0"
       d="m 32.070973,939.09212 c -0.643546,-3.6976 -0.441946,-4.97285 0.109867,-5.07955 0.448427,-0.0867 5.414613,-0.6972 7.798773,-0.9533 0.849574,-0.0912 1.481334,4.17914 1.969627,5.77056 2.27336,7.40936 0.764613,21.55229 4.245093,36.71413 l 0.39072,3.82405 c -0.02133,-0.15893 -9.056106,-0.27146 -9.078026,-0.4304 C 34.989,960.68353 32.71452,942.78972 32.070973,939.09212 z"
       class="fil0"
       id="path7282" />
    <path
       sodipodi:nodetypes="zsssccz"
       style="fill:url(#linearGradient7354);fill-opacity:1;fill-rule:evenodd;display:inline"
       inkscape:connector-curvature="0"
       d="m 62.956653,939.05583 c 1.474694,-4.0419 2.559574,-5.36907 3.203787,-5.18627 0.47,0.13333 5.52872,-0.57645 7.71424,-0.79232 1.680907,-0.16587 -1.237813,6.16264 -1.4184,7.94773 -0.76608,7.57179 -6.807387,20.04294 -13.6184,35.8715 l -8.80304,-2.12371 c 6.215947,-18.95496 11.44712,-31.67504 12.921813,-35.71693 z"
       class="fil0"
       id="path7284" />
    <path
       sodipodi:nodetypes="zsssccz"
       style="fill:url(#linearGradient7356);fill-opacity:1;fill-rule:evenodd;display:inline"
       inkscape:connector-curvature="0"
       d="m 89.79201,945.82241 c 3.03139,-3.67378 4.77851,-4.89797 5.47064,-4.82562 0.29368,0.0307 7.05806,-0.5667 7.75582,-0.57334 1.43941,-0.0133 -6.71718,9.85843 -8.72566,12.92854 -8.36592,12.788 -14.22546,20.7245 -25.840743,32.70698 l -7.643094,-7.51549 C 75.33148,964.09913 86.76063,949.4962 89.79201,945.82241 z"
       class="fil0"
       id="path7286" />
    <path
       sodipodi:nodetypes="zsssccz"
       style="fill:url(#linearGradient7358);fill-opacity:1;fill-rule:evenodd;display:inline"
       inkscape:connector-curvature="0"
       d="m 110.7802,990.88601 c 3.05392,-1.30413 5.75203,-2.20434 6.80709,-2.19141 0.99264,0.0133 6.09336,0.30747 7.80726,0.37933 1.3057,0.0547 -7.15126,5.15726 -9.10134,6.42912 -6.30037,4.10915 -11.20744,4.83655 -26.36104,7.92745 -1.14,-1.6851 -4.42528,-3.3144 -7.84672,-6.19323 12.48174,-2.00638 25.64086,-5.0471 28.69475,-6.35126 z"
       class="fil0"
       id="path7288" />
    <path
       id="path7290"
       class="fil0"
       d="m 56.952387,989.82775 c 11.03096,2.98325 19.537093,14.55115 13.562026,28.32655 l 11.603757,2.5574 c 4.49787,-10.0084 3.68331,-20.0764 -0.35173,-28.30163 -9.212027,-14.70275 -31.090533,-7.22214 -24.814053,-2.58232 z"
       inkscape:connector-curvature="0"
       style="fill:url(#linearGradient7360);fill-opacity:1;fill-rule:evenodd;display:inline"
       sodipodi:nodetypes="ccccc" />
    <path
       inkscape:transform-center-x="-0.18302408"
       inkscape:transform-center-y="2.4815684"
       sodipodi:nodetypes="zsssccz"
       style="fill:url(#linearGradient7364);fill-opacity:1;fill-rule:evenodd;display:inline"
       inkscape:connector-curvature="0"
       d="m 107.09679,964.79887 c 3.63682,-2.84235 5.65808,-3.67206 6.58034,-3.72955 0.68438,-0.0427 6.52939,-0.13333 7.83696,-0.0885 1.84683,0.0632 -3.81637,5.7332 -5.75221,7.82533 -5.54912,5.99717 -25.44808,18.364 -40.656053,26.33637 l -4.417734,-9.93661 C 88.79137,976.27879 103.45996,967.64135 107.09679,964.799 z"
       class="fil0"
       id="path7292" />
    <path
       inkscape:connector-curvature="0"
       id="path7294"
       d="m 2.8971331,987.18252 c -0.669973,-0.0299 -1.18272,0.003 -1.333333,0.0835 -0.457707,0.24266 1.045813,2.28114 3.5,5 2.04392,2.26432 6.8401599,7.81078 16.8333329,15.08328 -0.275946,-3.7155 -0.1416,-7.3475 0.5,-10.91662 -6.18352,-4.68488 -11.472106,-8.5156 -12.6666659,-8.58333 -1.194747,-0.0677 -4.823414,-0.57701 -6.833334,-0.66667 z"
       style="fill:url(#linearGradient7366);fill-opacity:1;fill-rule:evenodd;display:inline" />
    <path
       inkscape:connector-curvature="0"
       id="path7296"
       d="m 14.730467,957.84919 c -2.57744,0.0653 -7.1911739,0.13413 -7.5833339,0.24986 -0.4852,0.14347 0.05253,1.55918 2,4.91667 5.1874939,8.82725 10.4380539,17.36437 15.1666669,26.41667 1.33312,-3.75051 3.155547,-7.33744 5.416667,-10.58334 -4.82704,-7.74922 -9.568507,-15.12061 -12.583334,-18.25 -1.028933,-1.06805 -1.706106,-2.76866 -2.416666,-2.75 z"
       style="fill:url(#linearGradient7368);fill-opacity:1;fill-rule:evenodd;display:inline" />
    <path
       inkscape:connector-curvature="0"
       id="path7298"
       d="m 39.980467,933.09919 c -2.38416,0.256 -7.384907,0.83 -7.833334,0.91666 -0.551813,0.10667 -0.72688,1.38574 -0.08347,5.08334 0.546533,3.14021 2.367333,17.02344 4.416666,32.16666 2.44608,-2.19096 5.156214,-4.07493 8.083334,-5.66666 -1.3112,-11.19854 -0.81784,-20.99635 -2.5832,-26.75 -0.488294,-1.59142 -1.150427,-5.8412 -2,-5.75 z"
       style="fill:url(#linearGradient7370);fill-opacity:1;fill-rule:evenodd;display:inline" />
    <path
       inkscape:connector-curvature="0"
       id="path7300"
       d="m 73.897133,933.09919 c -2.18552,0.216 -7.28,0.88333 -7.75,0.75 -0.644213,-0.18267 -1.691973,1.12477 -3.166666,5.16666 -1.106027,3.03142 -4.337254,10.9864 -8.5,22.75 3.852746,-0.95685 7.66152,-1.39864 11.416666,-1.25 3.446827,-8.07304 6.109254,-14.81418 6.583334,-19.5 0.180533,-1.78509 3.097573,-8.08253 1.416666,-7.91666 z"
       style="fill:url(#linearGradient7372);fill-opacity:1;fill-rule:evenodd;display:inline" />
    <path
       inkscape:connector-curvature="0"
       id="path7302"
       d="m 102.98047,940.43252 c -0.69776,0.005 -7.45632,0.614 -7.75,0.58333 -0.69214,-0.0723 -2.38528,1.15955 -5.41667,4.83334 -2.03824,2.47016 -8.0644,10.01829 -16.083333,19 l 12.666663,0 c 2.54411,-3.52176 5.12112,-7.22678 7.91667,-11.5 2.00848,-3.07011 10.10608,-12.93 8.66667,-12.91667 z"
       style="fill:url(#linearGradient7382);fill-opacity:1;fill-rule:evenodd;display:inline" />
    <path
       inkscape:connector-curvature="0"
       id="path7304"
       d="m 121.48047,961.01585 c -1.30758,-0.0448 -7.14896,0.0408 -7.83334,0.0835 -0.92226,0.0576 -2.9465,0.82432 -6.58333,3.66667 -1.88675,1.47458 -6.81907,4.50802 -13.58333,8.33333 2.24842,2.37853 4.17736,5.07109 5.83333,8 7.45392,-4.77613 13.67419,-9.36944 16.41667,-12.33333 1.93584,-2.09214 7.59682,-7.6868 5.75,-7.75 z"
       style="fill:url(#linearGradient7386);fill-opacity:1;fill-rule:evenodd;display:inline" />
    <path
       inkscape:connector-curvature="0"
       id="path7306"
       d="m 117.5638,988.68252 c -1.05507,-0.0133 -3.69608,0.86253 -6.75,2.16667 -1.084,0.4629 -3.76851,1.22341 -6.91667,2 l 0,0.0835 c 0.52686,2.42139 0.8047,4.84395 0.91667,7.25001 4.66547,-1.18454 7.98656,-2.37518 11.5,-4.66667 1.95008,-1.27187 10.38904,-6.362 9.08333,-6.41667 -1.71389,-0.072 -6.84069,-0.40333 -7.83333,-0.41667 z"
       style="fill:url(#linearGradient7388);fill-opacity:1;fill-rule:evenodd;display:inline" />
    <path
       inkscape:connector-curvature="0"
       id="path7308"
       d="m 107.98047,991.76585 c -5.15256,1.50694 -15.59822,3.84136 -25.91667,5.5 3.42144,2.87885 6.69333,4.48155 7.83333,6.16665 8.8975,-1.8148 14.228,-2.8185 18.41667,-4.16665 0.0328,-2.56757 -0.0411,-5.06482 -0.33333,-7.5 z"
       style="fill:url(#linearGradient7390);fill-opacity:1;fill-rule:evenodd;display:inline" />
    <path
       inkscape:connector-curvature="0"
       id="path7310"
       d="m 97.73047,970.68252 c -6.75659,3.97093 -16.12062,9.09405 -27.083337,14.5 l 4.5,10 c 9.153197,-4.79832 19.932907,-11.19811 28.333337,-16.83333 -1.7616,-2.79992 -3.68584,-5.36136 -5.75,-7.66667 z"
       style="fill:url(#linearGradient7392);fill-opacity:1;fill-rule:evenodd;display:inline" />
    <path
       inkscape:connector-curvature="0"
       id="path7312"
       d="m 79.8138,957.93252 c -5.083093,5.96245 -11.630907,13.25389 -19,20.58333 l 7.666667,7.58334 c 8.623413,-8.89603 14.090613,-15.58987 19.750003,-23.66667 -2.70544,-1.79376 -5.46894,-3.33933 -8.41667,-4.5 z"
       style="fill:url(#linearGradient7394);fill-opacity:1;fill-rule:evenodd;display:inline" />
    <path
       inkscape:connector-curvature="0"
       id="path7314"
       d="m 61.897133,954.76585 c -1.654853,0.0349 -3.325306,0.21227 -5,0.41667 -2.01984,5.49157 -4.29752,11.85059 -6.833333,19.58333 l 8.75,2.16667 c 3.554933,-8.26155 6.921733,-15.62029 9.416667,-21.83333 -2.095334,-0.2376 -4.188667,-0.37872 -6.333334,-0.33334 z"
       style="fill:url(#linearGradient7396);fill-opacity:1;fill-rule:evenodd;display:inline" />
    <path
       inkscape:connector-curvature="0"
       id="path7316"
       d="m 43.897133,958.51585 c -1.84736,0.70443 -3.748293,1.42272 -5.583333,2.33334 -1.063467,0.55365 -2.01848,1.15232 -3,1.83333 0.70976,5.30907 1.36184,10.41552 2.166667,16.25 0.02133,0.15893 9.062,0.2576 9.083333,0.41667 l -0.333333,-3.83334 c -1.364027,-5.942 -1.973947,-11.71496 -2.333334,-17 z"
       style="fill:url(#linearGradient7398);fill-opacity:1;fill-rule:evenodd;display:inline" />
    <path
       inkscape:connector-curvature="0"
       id="path7318"
       d="m 25.897133,972.68252 c -2.012773,3.05645 -3.716613,6.42813 -5.166666,10 1.729413,3.06112 3.402986,6.15288 5,9.33333 L 38.3138,992.59919 C 34.52612,986.7182 30.076067,979.19297 25.897133,972.68252 z"
       style="fill:url(#linearGradient7400);fill-opacity:1;fill-rule:evenodd;display:inline" />
    <path
       inkscape:connector-curvature="0"
       id="path7320"
       d="m 17.397133,992.68252 c -0.84384,3.21323 -1.478133,6.44733 -2,9.66668 3.3584,2.8156 7.641467,6.0679 13.083334,9.5833 l 7.916666,1.0833 -5.083333,-9.75 c -4.807173,-3.7184 -9.858507,-7.62261 -13.916667,-10.58328 z"
       style="fill:url(#linearGradient7402);fill-opacity:1;fill-rule:evenodd;display:inline" />
    <path
       id="path7322"
       class="fil0"
       d="m 111.97481,1021.384 c 8.6088,2.38 4.98251,2.9589 -0.1536,3.1349 -6.89336,0.2363 -18.4721,-1.5918 -30.12314,-3.873 l -11.194377,-2.5031 7.514294,1.1227 5.374343,-7.9347 c 16.5419,5.6491 19.9735,7.6733 28.58232,10.0532 z"
       inkscape:connector-curvature="0"
       style="fill:url(#linearGradient7404);fill-opacity:1;fill-rule:evenodd;display:inline"
       sodipodi:nodetypes="cscccczc" />
    <path
       sodipodi:nodetypes="ssccssccsscccccssccccsccssccssccssccssccss"
       inkscape:connector-curvature="0"
       id="path7324"
       d="m 40.0638,933.01585 c -0.602133,-0.003 -0.839813,1.64611 -0.166667,5.58334 1.525254,8.92136 2.913867,22.17442 5.416667,40.66666 -2.04304,1.42987 -3.991387,3.17246 -5.916667,5.25 -6.606933,-9.84154 -14.501333,-17.15856 -19.083333,-22 -4.866907,-5.14242 -8.132293,-7.50357 -3.666667,0.33334 4.403147,7.7273 8.323014,13.63122 16.75,29.66666 -1.01072,1.64987 -1.98048,3.43198 -2.916666,5.33334 -5.269734,-3.24478 -9.724294,-5.24 -13.833334,-7.33334 -6.191866,-3.15442 -10.4597329,-4.39757 -4.166666,1.08334 4.65712,4.0561 7.499066,8.35141 14.583333,14.25001 -0.02133,0.06 -0.06133,0.1064 -0.08347,0.1666 l 3.333334,2.4167 c 0.671066,0.5076 1.343146,1.0529 2.083333,1.5833 l 4.083333,3 c 0.252,-1.1457 0.525707,-2.282 0.833334,-3.3333 0.3968,-1.3561 0.76864,-2.6299 1.25,-3.8333 12.281226,-30.70399 50.650293,-12.55516 39.583333,13.4166 l 7.74888,1.5838 c 8.13821,1.6366 16.696753,3.2716 24.218083,4.1387 3.67608,0.414 6.93477,0.6182 9.53304,0.5275 5.13611,-0.1792 8.77547,-0.744 0.16667,-3.1666 -8.32803,-2.3436 -12.05614,-4.4159 -27.250003,-9.75 0.25413,-1.6779 0.41413,-3.2766 0.41666,-4.9167 11.681713,-3.6279 22.540323,-8.76249 27.416673,-11.99998 5.8652,-3.89392 9.51117,-9.53395 -1.33333,-4.83333 -8.53296,3.69864 -16.1048,4.88501 -27.583343,6.75 -0.60322,-1.94387 -1.33125,-3.80131 -2.25,-5.58334 12.652163,-7.85957 23.645793,-17.83469 28.416673,-23.08333 5.16584,-5.68301 7.55749,-12.30056 -2.66667,-4.16667 -9.30256,7.40067 -17.249223,11.14851 -32.166663,18.58334 -0.68096,-0.68184 -1.35232,-1.38158 -2.08334,-2 8.28131,-10.47715 11.88203,-20.9616 19.08334,-32.16667 4.191443,-6.52179 6.123283,-13.97685 -2.16667,-3.75 -7.73005,9.53616 -13.71576,17.55179 -26.25,30.5 -1.255787,-0.47752 -2.526747,-0.95093 -3.833333,-1.25 5.851013,-14.9536 6.272773,-26.76733 7,-34.08333 0.76608,-7.70755 -0.412587,-11.31128 -3.75,-2 -3.287387,9.17162 -6.627467,16.91624 -12.666667,35.58333 -1.40944,0.17813 -2.839387,0.50003 -4.25,0.91667 -3.46984,-15.17347 -8.256107,-28.05571 -10.5,-35.5 -1.167467,-3.8732 -2.559173,-6.57819 -3.333333,-6.58334 z"
       style="fill:url(#linearGradient7406);fill-opacity:1;fill-rule:evenodd;display:inline" />
    <path
       sodipodi:nodetypes="ssssssss"
       inkscape:connector-curvature="0"
       id="path7326"
       d="m 57.42124,1023.3759 c -1.530267,-0.2237 -6.393227,-1.1803 -7.601733,-1.3602 -5.28784,-0.787 -7.827867,-4.909 -7.91544,-9.5415 -0.1168,-6.1774 4.776373,-10.6829 10.64368,-11.2224 0.620986,-0.057 1.246053,-0.044 1.864986,0.033 1.414907,0.176 4.643734,0.3983 6.64424,0.6325 3.012347,0.3526 1.841814,5.1909 1.935307,8.4117 0.151467,5.2231 -0.206133,13.8316 -5.57104,13.047 z"
       style="fill:url(#linearGradient7410);fill-opacity:1;fill-rule:evenodd;stroke:none;display:inline" />
    <path
       style="fill:url(#linearGradient7412);fill-opacity:1;fill-rule:evenodd;stroke:none;display:inline"
       d="m 42.835533,1007.8595 c 1.679734,-3.7163 5.43744,-6.2146 9.712214,-6.6077 0.620986,-0.057 1.246053,-0.044 1.864986,0.033 1.414907,0.176 4.643734,0.3983 6.64424,0.6325 3.012347,0.3526 1.841814,5.1909 1.935307,8.4117 -7.3632,0.3553 -14.060107,-1.5585 -20.156747,-2.4693 z"
       id="path7328"
       inkscape:connector-curvature="0"
       sodipodi:nodetypes="cssscc" />
    <path
       style="fill:url(#linearGradient7414);fill-opacity:1;fill-rule:evenodd;stroke:none;display:inline"
       d="m 57.42124,1023.3759 c -1.530267,-0.2237 -6.393227,-1.1803 -7.601733,-1.3602 -3.554107,-0.5289 -5.86688,-2.5645 -7.028,-5.2491 6.033093,0.044 15.60304,-0.5288 17.967093,1.0516 0.151467,5.2231 2.027547,6.3422 -3.33736,5.5576 z"
       id="path7330"
       inkscape:connector-curvature="0"
       sodipodi:nodetypes="csccsc" />
    <path
       sodipodi:type="arc"
       style="fill:url(#linearGradient7416);fill-opacity:1;fill-rule:evenodd;stroke:none;display:inline"
       id="path7332"
       sodipodi:cx="11.182829"
       sodipodi:cy="12.753372"
       sodipodi:rx="2.6694496"
       sodipodi:ry="2.6694496"
       d="m 13.844562,12.550547 c 0.112017,1.470034 -0.988873,2.752541 -2.458908,2.864558 -1.4700343,0.112018 -2.7525408,-0.988873 -2.8645582,-2.458907 -0.1120173,-1.470035 0.9888732,-2.752542 2.4589082,-2.864559 1.447376,-0.1102906 2.717609,0.956188 2.859492,2.40081"
       transform="matrix(3.915948,-0.6728508,0.56238827,4.0074301,8.1357201,969.05076)"
       sodipodi:start="6.2071318"
       sodipodi:end="12.46847"
       sodipodi:open="true" />
    <path
       style="fill:none;stroke:url(#linearGradient7873);stroke-width:2.66666675;stroke-linecap:round;stroke-linejoin:round;display:inline"
       d="m 40.0638,933.01585 c -0.0752,-3.4e-4 -0.103733,0.0309 -0.166667,0.0835 -2.412,0.2608 -7.306266,0.83091 -7.75,0.91667 -0.551813,0.10666 -0.72688,1.38573 -0.08347,5.08333 0.643546,3.6976 2.89864,21.57925 5.416666,39.83333 4e-4,0.003 0.160534,-0.003 0.166667,0 -0.487147,0.3312 -0.934933,0.7171 -1.416667,1.08334 -5.80544,-7.60819 -12.06128,-13.42632 -15.916666,-17.5 -2.81368,-2.97296 -5.024587,-4.98598 -5.583334,-4.66667 -2.57744,0.0653 -7.1911729,0.13413 -7.5833329,0.24987 -0.4852,0.14346 0.05253,1.55917 2,4.91666 5.6677599,9.64448 11.4638669,18.90331 16.4999999,28.91667 -0.2192,0.34976 -0.450667,0.72219 -0.666667,1.08333 -0.246133,0.41187 -0.508266,0.8232 -0.75,1.25 -0.01333,0.0213 0.01333,0.0621 0,0.0835 -2.69576,-1.40413 -5.208933,-2.62371 -7.583333,-3.83333 -3.28944,-1.67579 -6.008213,-2.79131 -6.9166669,-2.66667 -1.592986,-0.0904 -7.564186,-0.90267 -8.166666,-0.58333 -0.457707,0.24266 1.045813,2.28114 3.5,5 1.853706,2.05357 5.8988529,6.79306 14.0833329,13.08335 l 1.083333,0.75 0.08347,0.084 c 2.399813,1.8026 5.050107,3.7367 8.166667,5.75 l 7.916666,1.0833 0.08347,0 c 0.252,-1.1457 0.525707,-2.282 0.833333,-3.3333 0.3968,-1.3561 0.76864,-2.6299 1.25,-3.8334 4.158694,-10.397 11.29104,-15.21321 18.5,-15.99996 10.9664,3.03971 19.367787,14.61316 13.416667,28.33336 l 11.249998,2.5 c 2.91275,0.5703 5.75168,1.0948 8.58333,1.5833 2.83166,0.4885 5.64363,0.8937 8.25,1.25 2.03779,0.2786 3.8451,0.4963 5.66667,0.6667 0.0267,0 0.0571,-0 0.0835,0 0.48085,0.044 1.03738,0.1306 1.5,0.1666 1.46136,0.2096 2.93437,0.5054 4.33333,0.6667 3.67608,0.414 6.90173,0.5907 9.5,0.5 5.13611,-0.1792 8.77547,-0.7441 0.16667,-3.1667 -8.32803,-2.3435 -12.05614,-4.4159 -27.25,-9.75 0.25413,-1.6778 0.41413,-3.2765 0.41666,-4.9166 11.68171,-3.628 22.54032,-8.76253 27.41667,-12.00002 3.88064,-2.57638 6.78331,-5.89571 5.16667,-6.5 -0.008,-0.0408 -0.0851,-0.08 -0.16667,-0.0835 -1.71389,-0.072 -6.84069,-0.40333 -7.83333,-0.41667 -1.05507,-0.0133 -3.69608,0.86254 -6.75,2.16667 -2.33784,0.99837 -10.6555,3.04269 -20,4.83333 -0.46032,-1.2496 -0.97486,-2.48642 -1.58334,-3.66666 12.65216,-7.85958 23.64579,-17.8347 28.41667,-23.08334 2.95744,-3.25352 4.95776,-6.74386 4.25,-7.66666 -0.0133,-0.124 -0.11973,-0.212 -0.24987,-0.24987 -0.13413,-0.0453 -0.29373,-0.0277 -0.5,0 -1.60482,-0.0323 -6.84474,0.0424 -7.5,0.0835 -0.92226,0.0576 -2.9465,0.82432 -6.58333,3.66666 -2.81475,2.19987 -12.32432,7.90984 -24.83333,14.5 7.19594,-9.79253 10.85517,-19.61448 17.58333,-30.08333 2.51891,-3.91933 4.17469,-8.11344 3.33333,-8.66667 -0.0107,-0.0435 -0.0469,-0.0656 -0.0835,-0.0835 -0.1208,-0.0288 -0.30731,-0.08 -0.5,0 -1.24051,0.0627 -7.05536,0.61237 -7.33334,0.58333 -0.69213,-0.0723 -2.38528,1.15955 -5.41666,4.83333 -2.40491,2.91454 -10.17288,12.69784 -20.500001,23.83334 4.136933,-12.574 4.606586,-22.61046 5.25,-29.08334 0.37256,-3.74829 0.32192,-6.53957 -0.249867,-7.33333 -0.02133,-0.0403 -0.05573,-0.0536 -0.08347,-0.0835 -0.154133,-0.1752 -0.364773,-0.1912 -0.583333,-0.0835 -2.27344,0.23546 -7.042907,0.87968 -7.5,0.75 -0.644213,-0.18267 -1.691973,1.12477 -3.166667,5.16666 -1.292826,3.54344 -5.55048,14.09659 -10.75,29.33334 -3.20496,-12.20563 -6.9316,-22.4408 -8.833333,-28.75 -1.167467,-3.8732 -2.559173,-6.57819 -3.333333,-6.58334 z m 12.5,68.24995 c -5.867307,0.5395 -10.783467,5.0726 -10.666667,11.25 0.08747,4.6325 2.628827,8.7131 7.916667,9.5 1.11608,0.1662 5.153707,0.948 7,1.25 0.137333,0.029 0.27776,0.06 0.416667,0.083 0.03547,0 0.134133,-0 0.166666,0 0.335307,0.049 0.70272,0.1046 1,0.084 0.981334,0.043 1.99136,0 3,-0.2498 5.693574,-1.4381 9.265387,-7.351 8,-13.1667 l 0,-0.2499 c -1.019066,-4.2413 -4.37192,-7.1746 -8.333333,-7.8333 -2.000507,-0.2341 -5.25176,-0.4907 -6.666667,-0.6667 -0.618933,-0.077 -1.212346,-0.057 -1.833333,0 z m -12.833333,26.5 c -5.421654,11.6917 -24.926507,9.0316 -34.2499999,16.3334 3.197253,1.0096 5.0514659,1.5298 8.4166659,2.4166 5.90272,1.8347 14.534214,1.092 24.833334,-1.25 8.090133,-2.743 8.846693,-7.8528 14.333333,-15.3333 -1.953387,0.1416 -3.62952,-0.087 -4.916667,-0.8333 -0.0272,0.059 -0.05547,0.1085 -0.08347,0.1666 -3.012614,-0.4102 -5.989067,-0.8811 -8.333334,-1.5 z"
       id="path7695"
       inkscape:connector-curvature="0" />
  </g>
</svg>
