<?xml version="1.0" encoding="UTF-8" standalone="no"?>
<!-- Created with Inkscape (http://www.inkscape.org/) -->
<svg
   xmlns:dc="http://purl.org/dc/elements/1.1/"
   xmlns:cc="http://creativecommons.org/ns#"
   xmlns:rdf="http://www.w3.org/1999/02/22-rdf-syntax-ns#"
   xmlns:svg="http://www.w3.org/2000/svg"
   xmlns="http://www.w3.org/2000/svg"
   xmlns:xlink="http://www.w3.org/1999/xlink"
   xmlns:sodipodi="http://sodipodi.sourceforge.net/DTD/sodipodi-0.dtd"
   xmlns:inkscape="http://www.inkscape.org/namespaces/inkscape"
   width="128"
   height="128"
   id="svg2"
   sodipodi:version="0.32"
   inkscape:version="0.46"
   version="1.0"
   sodipodi:docname="stock_lock-ok.svg"
   inkscape:output_extension="org.inkscape.output.svg.inkscape">
  <defs
     id="defs4">
    <linearGradient
       inkscape:collect="always"
       xlink:href="#linearGradient12578"
       id="linearGradient10621"
       gradientUnits="userSpaceOnUse"
       gradientTransform="matrix(2.6666667,0,0,2.6666667,-1293.8938,-2505.1696)"
       x1="492.30246"
       y1="966.60321"
       x2="491.67746"
       y2="983.97821" />
    <linearGradient
       inkscape:collect="always"
       xlink:href="#linearGradient5439"
       id="linearGradient10623"
       gradientUnits="userSpaceOnUse"
       gradientTransform="matrix(2.6666667,0,0,2.6666667,-1293.8938,-2505.1696)"
       x1="499.46854"
       y1="939.90875"
       x2="567.06256"
       y2="1010.736" />
    <linearGradient
       inkscape:collect="always"
       xlink:href="#linearGradient14474"
       id="linearGradient10625"
       gradientUnits="userSpaceOnUse"
       gradientTransform="matrix(2.6666667,0,0,2.6666667,-1293.8938,-2505.1696)"
       x1="500.14951"
       y1="954.06738"
       x2="498.06781"
       y2="979.94238" />
    <linearGradient
       inkscape:collect="always"
       xlink:href="#linearGradient12578"
       id="linearGradient10627"
       gradientUnits="userSpaceOnUse"
       gradientTransform="matrix(2.6666667,0,0,2.6666667,-1293.8938,-2505.1696)"
       x1="498.57062"
       y1="961.28485"
       x2="526.69824"
       y2="979.65985" />
    <linearGradient
       inkscape:collect="always"
       xlink:href="#linearGradient5439"
       id="linearGradient10629"
       gradientUnits="userSpaceOnUse"
       gradientTransform="matrix(2.4050955,0,0,2.4050955,-1159.6147,-2251.016)"
       x1="529.39545"
       y1="984.84515"
       x2="509.94092"
       y2="966.22015" />
    <linearGradient
       inkscape:collect="always"
       xlink:href="#linearGradient9863"
       id="linearGradient10631"
       gradientUnits="userSpaceOnUse"
       gradientTransform="matrix(2.6666667,0,0,2.6666667,-1293.8938,-2126.5029)"
       x1="511.72525"
       y1="844.99249"
       x2="511.72525"
       y2="797.59735" />
    <linearGradient
       inkscape:collect="always"
       xlink:href="#linearGradient5344"
       id="linearGradient10633"
       gradientUnits="userSpaceOnUse"
       gradientTransform="matrix(1.9714832,-1.9718232,1.9714832,1.9718232,-2779.9261,-861.39298)"
       x1="534.40161"
       y1="914.01208"
       x2="477.46484"
       y2="978.89819" />
    <linearGradient
       inkscape:collect="always"
       xlink:href="#linearGradient8702"
       id="linearGradient10635"
       x1="889.77386"
       y1="944.49597"
       x2="873.08368"
       y2="961.18616"
       gradientUnits="userSpaceOnUse"
       gradientTransform="matrix(1.7499552,-1.7502571,1.7499552,1.7502571,-3113.9829,-89.594947)" />
    <linearGradient
       inkscape:collect="always"
       xlink:href="#linearGradient12578"
       id="linearGradient10571"
       gradientUnits="userSpaceOnUse"
       gradientTransform="matrix(2.6666667,0,0,2.6666667,-1293.8937,-2505.1696)"
       x1="492.30246"
       y1="966.60321"
       x2="491.67746"
       y2="983.97821" />
    <linearGradient
       inkscape:collect="always"
       xlink:href="#linearGradient5439"
       id="linearGradient10573"
       gradientUnits="userSpaceOnUse"
       gradientTransform="matrix(2.6666667,0,0,2.6666667,-1293.8937,-2505.1696)"
       x1="499.46854"
       y1="939.90875"
       x2="567.06256"
       y2="1010.736" />
    <linearGradient
       id="linearGradient14474"
       inkscape:collect="always">
      <stop
         id="stop14476"
         offset="0"
         style="stop-color:#ffffff;stop-opacity:1;" />
      <stop
         id="stop14478"
         offset="1"
         style="stop-color:#ffffff;stop-opacity:0;" />
    </linearGradient>
    <linearGradient
       inkscape:collect="always"
       xlink:href="#linearGradient14474"
       id="linearGradient10575"
       gradientUnits="userSpaceOnUse"
       gradientTransform="matrix(2.6666667,0,0,2.6666667,-1293.8937,-2505.1696)"
       x1="500.14951"
       y1="954.06738"
       x2="498.06781"
       y2="979.94238" />
    <linearGradient
       inkscape:collect="always"
       xlink:href="#linearGradient12578"
       id="linearGradient10586"
       gradientUnits="userSpaceOnUse"
       gradientTransform="matrix(2.6666667,0,0,2.6666667,-1293.8937,-2505.1696)"
       x1="498.57062"
       y1="961.28485"
       x2="526.69824"
       y2="979.65985" />
    <linearGradient
       inkscape:collect="always"
       xlink:href="#linearGradient5439"
       id="linearGradient10589"
       gradientUnits="userSpaceOnUse"
       gradientTransform="matrix(2.4050955,0,0,2.4050955,-1159.6146,-2251.016)"
       x1="529.39545"
       y1="984.84515"
       x2="509.94092"
       y2="966.22015" />
    <linearGradient
       inkscape:collect="always"
       xlink:href="#linearGradient9863"
       id="linearGradient10591"
       gradientUnits="userSpaceOnUse"
       gradientTransform="matrix(2.6666667,0,0,2.6666667,-1293.8937,-2126.503)"
       x1="511.72525"
       y1="844.99249"
       x2="511.72525"
       y2="797.59735" />
    <linearGradient
       y2="637.52454"
       x2="518.86896"
       y1="661.19366"
       x1="513.96362"
       gradientTransform="translate(-296.48677,-601.99164)"
       gradientUnits="userSpaceOnUse"
       id="linearGradient10430"
       xlink:href="#linearGradient5344"
       inkscape:collect="always" />
    <linearGradient
       y2="643.21948"
       x2="516.5"
       y1="647.79089"
       x1="519.95825"
       gradientTransform="translate(-296.48677,-601.99164)"
       gradientUnits="userSpaceOnUse"
       id="linearGradient10427"
       xlink:href="#linearGradient5316"
       inkscape:collect="always" />
    <linearGradient
       y2="650.17572"
       x2="519.57452"
       y1="632.9248"
       x1="512.30157"
       gradientTransform="translate(-296.48677,-601.99164)"
       gradientUnits="userSpaceOnUse"
       id="linearGradient10424"
       xlink:href="#linearGradient5344"
       inkscape:collect="always" />
    <linearGradient
       y2="643.65698"
       x2="524.125"
       y1="667.56323"
       x1="526.0625"
       gradientTransform="translate(-296.48677,-601.99164)"
       gradientUnits="userSpaceOnUse"
       id="linearGradient10419"
       xlink:href="#linearGradient5344"
       inkscape:collect="always" />
    <linearGradient
       inkscape:collect="always"
       xlink:href="#linearGradient5439"
       id="linearGradient15562"
       gradientUnits="userSpaceOnUse"
       gradientTransform="matrix(2.6666667,0,0,2.6666667,-1134.9597,-1416.4558)"
       x1="457.89578"
       y1="539.88666"
       x2="457.89578"
       y2="569.06531" />
    <linearGradient
       inkscape:collect="always"
       xlink:href="#linearGradient5439"
       id="linearGradient15559"
       gradientUnits="userSpaceOnUse"
       x1="459.76584"
       y1="546.18964"
       x2="459.76584"
       y2="583.90106"
       gradientTransform="matrix(2.6666667,0,0,2.6666667,-1134.3706,-1416.4558)" />
    <linearGradient
       id="linearGradient4508">
      <stop
         offset="0"
         style="stop-color:#75aadb;stop-opacity:1"
         id="stop4510" />
      <stop
         offset="1"
         style="stop-color:#5a83a9;stop-opacity:1"
         id="stop4512" />
    </linearGradient>
    <linearGradient
       inkscape:collect="always"
       xlink:href="#linearGradient4508"
       id="linearGradient15556"
       gradientUnits="userSpaceOnUse"
       gradientTransform="matrix(2.6666667,0,0,2.6666667,-1134.3706,-1414.3934)"
       x1="456.31311"
       y1="551.46545"
       x2="456.31311"
       y2="554.8988" />
    <linearGradient
       id="linearGradient12578">
      <stop
         id="stop12580"
         offset="0"
         style="stop-color:#e9b551;stop-opacity:1;" />
      <stop
         id="stop12582"
         offset="1"
         style="stop-color:#b48739;stop-opacity:1;" />
    </linearGradient>
    <linearGradient
       id="linearGradient5165-9">
      <stop
         offset="0"
         style="stop-color:#ffffff;stop-opacity:1"
         id="stop5167-6" />
      <stop
         offset="1"
         style="stop-color:#ffffff;stop-opacity:0"
         id="stop5169-7" />
    </linearGradient>
    <linearGradient
       id="linearGradient9121">
      <stop
         style="stop-color:#2f445a;stop-opacity:1"
         offset="0"
         id="stop9123" />
      <stop
         style="stop-color:#415f7c;stop-opacity:1"
         offset="1"
         id="stop9125" />
    </linearGradient>
    <linearGradient
       id="linearGradient12594">
      <stop
         id="stop12596"
         offset="0"
         style="stop-color:#e9b551;stop-opacity:1;" />
      <stop
         id="stop12598"
         offset="1"
         style="stop-color:#e9b551;stop-opacity:0;" />
    </linearGradient>
    <linearGradient
       id="linearGradient5316">
      <stop
         style="stop-color:#87c7ff;stop-opacity:1;"
         offset="0"
         id="stop5320" />
      <stop
         style="stop-color:#74aadb;stop-opacity:1;"
         offset="1"
         id="stop5322" />
    </linearGradient>
    <linearGradient
       id="linearGradient9863">
      <stop
         style="stop-color:#2f445a;stop-opacity:1;"
         offset="0"
         id="stop9865" />
      <stop
         style="stop-color:#415f7c;stop-opacity:1"
         offset="1"
         id="stop9867" />
    </linearGradient>
    <linearGradient
       id="linearGradient12336">
      <stop
         id="stop12338"
         offset="0"
         style="stop-color:#ff6e00;stop-opacity:1;" />
      <stop
         id="stop12340"
         offset="1"
         style="stop-color:#eb2600;stop-opacity:1;" />
    </linearGradient>
    <linearGradient
       id="linearGradient5362">
      <stop
         style="stop-color:#ffffff;stop-opacity:1;"
         offset="0"
         id="stop5364" />
      <stop
         style="stop-color:#ffffff;stop-opacity:0;"
         offset="1"
         id="stop5366" />
    </linearGradient>
    <linearGradient
       id="linearGradient5439">
      <stop
         style="stop-color:#ffffff;stop-opacity:1;"
         offset="0"
         id="stop5441" />
      <stop
         style="stop-color:#000000;stop-opacity:1;"
         offset="1"
         id="stop5443" />
    </linearGradient>
    <linearGradient
       inkscape:collect="always"
       xlink:href="#linearGradient5439"
       id="linearGradient13309"
       gradientUnits="userSpaceOnUse"
       x1="499.90704"
       y1="953.39532"
       x2="652.75177"
       y2="1116.9413"
       gradientTransform="matrix(2.6765239,0,0,2.6765239,-1298.6765,-2514.903)" />
    <linearGradient
       inkscape:collect="always"
       id="linearGradient5398">
      <stop
         style="stop-color:#87c6ff;stop-opacity:1;"
         offset="0"
         id="stop5400" />
      <stop
         style="stop-color:#87c6ff;stop-opacity:0"
         offset="1"
         id="stop5402" />
    </linearGradient>
    <linearGradient
       inkscape:collect="always"
       xlink:href="#linearGradient5398"
       id="linearGradient13322"
       gradientUnits="userSpaceOnUse"
       x1="500.87799"
       y1="948.11993"
       x2="500.87799"
       y2="953.17468"
       gradientTransform="matrix(2.6765239,0,0,2.6765239,-1298.6765,-2514.903)" />
    <linearGradient
       id="linearGradient5344">
      <stop
         style="stop-color:#000000;stop-opacity:1;"
         offset="0"
         id="stop5346" />
      <stop
         style="stop-color:#000000;stop-opacity:0;"
         offset="1"
         id="stop5348" />
    </linearGradient>
    <linearGradient
       inkscape:collect="always"
       xlink:href="#linearGradient5344"
       id="linearGradient13314"
       gradientUnits="userSpaceOnUse"
       x1="544.89001"
       y1="919.05762"
       x2="506.01498"
       y2="969.80762"
       gradientTransform="translate(-485.21014,-859.4386)" />
    <linearGradient
       id="linearGradient8702">
      <stop
         id="stop8704"
         offset="0"
         style="stop-color:#aac736;stop-opacity:1;" />
      <stop
         id="stop8706"
         offset="1"
         style="stop-color:#5d8b2c;stop-opacity:1;" />
    </linearGradient>
    <linearGradient
       inkscape:collect="always"
       xlink:href="#linearGradient8702"
       id="linearGradient13316"
       gradientUnits="userSpaceOnUse"
       gradientTransform="matrix(2.6765239,0,0,2.6765239,-1779.5422,-994.63744)"
       x1="700.13062"
       y1="378.86951"
       x2="707.80457"
       y2="395.74899" />
    <inkscape:perspective
       sodipodi:type="inkscape:persp3d"
       inkscape:vp_x="0 : 526.18109 : 1"
       inkscape:vp_y="0 : 1000 : 0"
       inkscape:vp_z="744.09448 : 526.18109 : 1"
       inkscape:persp3d-origin="372.04724 : 350.78739 : 1"
       id="perspective10" />
  </defs>
  <sodipodi:namedview
     id="base"
     pagecolor="#ffffff"
     bordercolor="#666666"
     borderopacity="1.0"
     inkscape:pageopacity="0.0"
     inkscape:pageshadow="2"
     inkscape:zoom="1.2510351"
     inkscape:cx="98.862601"
     inkscape:cy="30.530396"
     inkscape:document-units="px"
     inkscape:current-layer="layer1"
     showgrid="false"
     inkscape:showpageshadow="false"
     inkscape:window-width="1024"
     inkscape:window-height="713"
     inkscape:window-x="0"
     inkscape:window-y="24"
     showguides="true"
     inkscape:guide-bbox="true" />
  <metadata
     id="metadata7">
    <rdf:RDF>
      <cc:Work
         rdf:about="">
        <dc:format>image/svg+xml</dc:format>
        <dc:type
           rdf:resource="http://purl.org/dc/dcmitype/StillImage" />
      </cc:Work>
    </rdf:RDF>
  </metadata>
  <g
     inkscape:label="Capa 1"
     inkscape:groupmode="layer"
     id="layer1">
    <path
       style="fill:url(#linearGradient10621);fill-rule:evenodd;stroke:none;stroke-width:0.5;stroke-linecap:round;stroke-linejoin:round;stroke-miterlimit:4;stroke-dasharray:none;stroke-opacity:1;display:inline"
       d="M 15.346898,121.52529 C 10.907405,120.58425 8.5575377,117.41353 8.8650847,112.50883 L 9.1007907,61.773955 C 9.2798577,56.120225 14.637085,51.124735 19.451458,51.036115 L 87.444018,49.353795 L 97.255298,49.376705 C 103.1785,49.203555 108.96356,53.538275 109.9537,60.962415 L 92.521911,107.39206 L 29.973831,125.3331 L 27.261591,124.99886 L 15.346898,121.52529 z"
       id="path10603"
       sodipodi:nodetypes="ccccccccccc" />
    <path
       style="fill:url(#linearGradient10623);fill-opacity:1;fill-rule:evenodd;stroke:none;stroke-width:0.5;stroke-linecap:round;stroke-linejoin:round;stroke-miterlimit:4;stroke-dasharray:none;stroke-opacity:1;display:inline"
       d="M 55.606284,1.9970799 C 45.267778,1.2709469 37.004338,5.7813199 32.606285,12.330413 C 28.208231,18.879505 27.022951,26.713745 27.022951,33.913745 L 27.022951,50.913745 C 27.022951,52.131905 29.779485,53.493635 33.026871,53.332515 C 36.291405,53.162865 39.022951,52.234895 39.022951,50.913745 L 39.022951,33.913745 C 39.022951,28.206495 40.261138,22.489215 42.606285,18.997075 C 44.951431,15.504945 47.772258,13.505395 54.772951,13.997075 C 54.800738,13.997265 54.828498,13.997265 54.856284,13.997075 L 84.106285,15.497075 C 92.978391,16.548735 96.280845,25.620435 96.022951,33.997075 L 95.772951,49.830415 C 95.703911,53.144115 97.500898,55.469715 100.8146,55.538755 C 104.12834,55.607775 106.87058,52.977455 106.93962,49.663745 L 107.18962,34.330415 C 107.1898,34.302625 107.1898,34.274865 107.18962,34.247075 C 107.2338,19.753345 100.3765,5.4102269 85.689618,3.9970799 L 55.606284,1.9970799 z"
       id="path10605"
       sodipodi:nodetypes="cscccccssccccsccccc" />
    <path
       sodipodi:nodetypes="ccccccccccc"
       id="path10607"
       d="M 15.346898,121.52529 C 10.907405,120.58425 8.5575377,117.41353 8.8650847,112.50883 L 9.1007907,61.773955 C 9.2798577,56.120225 14.637085,51.124735 19.451458,51.036115 L 87.444018,49.353795 L 97.255298,49.376705 C 103.1785,49.203555 108.96356,53.538275 109.9537,60.962415 L 92.521911,107.39206 L 29.973831,125.3331 L 27.261591,124.99886 L 15.346898,121.52529 z"
       style="fill:url(#linearGradient10625);fill-rule:evenodd;stroke:none;stroke-width:0.5;stroke-linecap:round;stroke-linejoin:round;stroke-miterlimit:4;stroke-dasharray:none;stroke-opacity:1;display:inline" />
    <path
       style="fill:url(#linearGradient10627);fill-rule:evenodd;stroke:none;stroke-width:0.5;stroke-linecap:round;stroke-linejoin:round;stroke-miterlimit:4;stroke-dasharray:none;stroke-opacity:1;display:inline"
       d="M 21.120445,115.52643 L 21.304418,62.127475 C 21.304418,56.566995 26.121565,50.868995 31.607138,50.909475 L 111.19495,49.160865 C 115.56959,49.216945 119.51703,52.351455 119.51703,57.704095 L 119.45002,102.40859 C 119.47047,108.1879 115.74183,111.08081 110.27647,112.17502 L 31.439618,125.05406 C 24.709751,126.54569 21.327725,120.57667 21.120445,115.52643 z"
       id="path10609"
       sodipodi:nodetypes="ccccccccc" />
    <path
       style="fill:url(#linearGradient10629);fill-rule:evenodd;stroke:none;stroke-width:1px;stroke-linecap:butt;stroke-linejoin:miter;stroke-opacity:1;display:inline"
       d="M 84.993325,99.952195 L 65.691218,102.43374 L 70.874045,90.446785 C 68.073618,90.678545 64.258844,88.678895 64.328391,83.842335 L 64.339831,76.933025 C 64.345644,73.436175 66.125405,69.746275 70.675671,69.437555 L 79.526258,68.942975 C 83.656445,68.942975 85.781991,72.451795 85.781991,75.763505 L 85.688391,81.663075 C 85.688391,85.865695 82.865058,89.091105 79.610791,89.505075 L 84.993325,99.952195 z"
       id="path10611"
       sodipodi:nodetypes="ccccscccccc" />
    <path
       style="fill:none;fill-rule:evenodd;stroke:url(#linearGradient10631);stroke-width:2.66666675;stroke-linecap:round;stroke-linejoin:round;stroke-miterlimit:4;stroke-dasharray:none;stroke-opacity:1;display:inline"
       d="M 51.856284,1.9970799 C 43.288498,2.4634799 36.454578,6.5999599 32.606285,12.330413 C 28.208231,18.879505 27.022951,26.713745 27.022951,33.913745 L 27.022951,50.830415 L 19.439618,50.997075 C 14.625245,51.085695 9.2854047,56.093375 9.1062847,61.747075 L 8.8562847,112.49707 C 8.5487377,117.40177 10.916845,120.55609 15.356285,121.49707 L 27.022951,124.91374 L 27.272951,124.99707 C 27.323671,125.01219 27.388285,124.98302 27.439618,124.99707 C 27.959458,125.13934 28.521058,125.22299 29.106285,125.24707 L 29.272951,125.24707 L 29.939618,125.33041 L 30.189618,125.24707 L 30.272951,125.24707 C 30.643218,125.20918 31.046551,125.16753 31.439618,125.08041 L 110.27295,112.16374 C 115.73831,111.06953 119.46004,108.1931 119.43962,102.41374 L 119.52295,57.663745 C 119.52295,52.311105 115.56423,49.219875 111.18962,49.163745 L 106.93962,49.247075 L 107.18962,34.330415 C 107.1898,34.302625 107.1898,34.274865 107.18962,34.247075 C 107.2338,19.753345 100.3765,5.4102269 85.689618,3.9970799 L 55.606284,1.9970799 C 54.313964,1.9063069 53.080258,1.9304399 51.856284,1.9970799 z M 52.356284,13.913745 C 53.107991,13.899295 53.897858,13.935615 54.772951,13.997075 C 54.800738,13.997265 54.828498,13.997265 54.856284,13.997075 L 84.106285,15.497075 C 92.978391,16.548735 96.280845,25.620435 96.022951,33.997075 L 95.772951,49.413745 L 87.439618,49.330415 L 39.022951,50.497075 L 39.022951,33.913745 C 39.022951,28.206495 40.261138,22.489215 42.606285,18.997075 C 44.658285,15.941455 47.094391,14.014835 52.356284,13.913745 z"
       id="path10613" />
    <path
       style="fill:#c2e3ff;fill-opacity:1;fill-rule:evenodd;stroke:#000000;stroke-width:3.0042417;stroke-linecap:round;stroke-linejoin:miter;stroke-miterlimit:4;stroke-dasharray:none;stroke-opacity:1;display:inline"
       d="M 59.057778,35.356355 C 59.345991,37.924865 61.534631,39.856305 64.118311,39.822305 L 86.147005,39.822415 L 86.146951,61.954095 C 86.146898,64.749315 88.412738,67.015535 91.207485,67.015505 C 94.002365,67.015635 96.268365,64.749585 96.268071,61.954015 L 96.268125,39.822335 L 118.29679,39.822435 C 120.18018,39.969375 121.97378,39.052015 122.96058,37.440545 C 123.94722,35.829265 123.94722,33.791935 122.96047,32.180755 C 121.97356,30.569395 120.18018,29.651615 118.29671,29.798785 L 96.268205,29.798865 L 96.268098,7.6669729 C 96.268151,4.8717729 94.002285,2.6055599 91.207565,2.6055869 C 88.412845,2.6056399 86.147005,4.8718529 86.146951,7.6670799 L 86.146898,29.798755 L 64.118418,29.798835 C 62.682178,29.780865 61.314711,30.423615 60.347751,31.485935 C 59.380498,32.547875 58.906018,33.928015 59.057778,35.356355 z"
       id="path10615"
       inkscape:export-filename="/home/dafeba/DCV/tallerD/bocetos/08-09-22-hastaahora.png"
       inkscape:export-xdpi="57.964222"
       inkscape:export-ydpi="57.964222" />
    <path
       inkscape:export-ydpi="57.964222"
       inkscape:export-xdpi="57.964222"
       inkscape:export-filename="/home/dafeba/DCV/tallerD/bocetos/08-09-22-hastaahora.png"
       style="fill:url(#linearGradient10633);fill-opacity:1;fill-rule:evenodd;stroke:none;stroke-width:3.16552567;stroke-linecap:round;stroke-linejoin:miter;stroke-miterlimit:4;stroke-dasharray:none;stroke-opacity:1;display:inline"
       d="M 55.445618,43.180865 C 55.733858,45.749345 57.922391,47.680755 60.506231,47.646835 L 82.534791,47.646835 L 82.534791,69.778575 C 82.534791,72.573855 84.800605,74.840065 87.595378,74.840065 C 90.390151,74.840065 92.656178,72.574035 92.655991,69.778575 L 92.655991,47.646835 L 114.68455,47.646835 C 116.5681,47.793935 118.36156,46.876435 119.3485,45.265075 C 120.335,43.653695 120.335,41.616415 119.34828,40.005235 C 118.36138,38.393855 116.5681,37.476175 114.68455,37.623265 L 92.655991,37.623265 L 92.655991,15.491535 C 92.655991,12.69628 90.390151,10.430067 87.595378,10.430067 C 84.800605,10.430067 82.534791,12.69628 82.534791,15.491535 L 82.534791,37.623265 L 60.506231,37.623265 C 59.069991,37.605315 57.702578,38.248145 56.735564,39.310355 C 55.768364,40.372385 55.293831,41.752465 55.445618,43.180865 z"
       id="path10617" />
    <path
       id="path10619"
       d="M 59.057671,35.356305 C 59.345884,37.924815 61.534524,39.856255 64.118204,39.822255 L 86.146898,39.822355 L 86.146845,61.954035 C 86.146791,64.749235 88.412631,67.015475 91.207351,67.015455 C 94.002258,67.015585 96.268258,64.749535 96.267965,61.953955 L 96.267991,39.822275 L 118.29668,39.822355 C 120.18007,39.969295 121.97367,39.051955 122.96047,37.440465 C 123.94711,35.829185 123.94711,33.791875 122.96036,32.180705 C 121.97346,30.569345 120.18007,29.651555 118.2966,29.798735 L 96.268098,29.798815 L 96.267991,7.6669199 C 96.268018,4.8717199 94.002178,2.6055069 91.207458,2.6055329 C 88.412738,2.6055599 86.146898,4.8717999 86.146845,7.6669999 L 86.146791,29.798705 L 64.118311,29.798785 C 62.682044,29.780815 61.314604,30.423555 60.347644,31.485875 C 59.380391,32.547825 58.905911,33.927935 59.057671,35.356305 z"
       style="fill:url(#linearGradient10635);fill-opacity:1;fill-rule:evenodd;stroke:none;stroke-width:3.16552567;stroke-linecap:round;stroke-linejoin:miter;stroke-miterlimit:4;stroke-dasharray:none;stroke-opacity:1;display:inline"
       inkscape:export-filename="/home/dafeba/DCV/tallerD/bocetos/08-09-22-hastaahora.png"
       inkscape:export-xdpi="57.964222"
       inkscape:export-ydpi="57.964222" />
  </g>
</svg>
