<?xml version="1.0" encoding="UTF-8" standalone="no"?>
<!-- Created with Inkscape (http://www.inkscape.org/) -->

<svg
   xmlns:dc="http://purl.org/dc/elements/1.1/"
   xmlns:cc="http://creativecommons.org/ns#"
   xmlns:rdf="http://www.w3.org/1999/02/22-rdf-syntax-ns#"
   xmlns:svg="http://www.w3.org/2000/svg"
   xmlns="http://www.w3.org/2000/svg"
   xmlns:xlink="http://www.w3.org/1999/xlink"
   xmlns:sodipodi="http://sodipodi.sourceforge.net/DTD/sodipodi-0.dtd"
   xmlns:inkscape="http://www.inkscape.org/namespaces/inkscape"
   width="136.53334"
   height="136.53334"
   id="svg6934"
   sodipodi:version="0.32"
   inkscape:version="0.92.1 r15371"
   version="1.0"
   sodipodi:docname="start-here.svg"
   inkscape:output_extension="org.inkscape.output.svg.inkscape">
  <defs
     id="defs6936">
    <linearGradient
       inkscape:collect="always"
       xlink:href="#linearGradient5344"
       id="linearGradient3105"
       x1="7.9531264"
       y1="2.2416961"
       x2="13.667412"
       y2="-64.464973"
       gradientUnits="userSpaceOnUse"
       gradientTransform="matrix(1.0666667,0,0,1.0666667,-4.3041915e-8,149.33333)" />
    <linearGradient
       id="linearGradient5344">
      <stop
         style="stop-color:#000000;stop-opacity:1;"
         offset="0"
         id="stop5346" />
      <stop
         style="stop-color:#000000;stop-opacity:0;"
         offset="1"
         id="stop5348" />
    </linearGradient>
    <linearGradient
       inkscape:collect="always"
       xlink:href="#linearGradient5165-7-9-8-2"
       id="linearGradient3103"
       x1="22.933788"
       y1="-144.76825"
       x2="18.618809"
       y2="-96.331688"
       gradientUnits="userSpaceOnUse"
       gradientTransform="matrix(1.0666667,0,0,1.0666667,-4.3041915e-8,149.33333)" />
    <linearGradient
       id="linearGradient5165-7-9-8-2">
      <stop
         id="stop5167-4-8-6-9"
         style="stop-color:#ffffff;stop-opacity:1"
         offset="0" />
      <stop
         id="stop5169-5-5-2-9"
         style="stop-color:#ffffff;stop-opacity:0"
         offset="1" />
    </linearGradient>
    <linearGradient
       inkscape:collect="always"
       xlink:href="#linearGradient5344"
       id="linearGradient3107"
       gradientUnits="userSpaceOnUse"
       gradientTransform="matrix(5.6896682,0,0,5.6896682,-1548.2455,-6255.5279)"
       x1="305.23422"
       y1="1137.0681"
       x2="283.35095"
       y2="1104.2024" />
    <linearGradient
       inkscape:collect="always"
       xlink:href="#linearGradient12336"
       id="linearGradient4454"
       x1="6.5963445"
       y1="25.086559"
       x2="117.48683"
       y2="107.41399"
       gradientUnits="userSpaceOnUse"
       gradientTransform="scale(1.0666667)" />
    <linearGradient
       id="linearGradient12336">
      <stop
         id="stop12338"
         offset="0"
         style="stop-color:#ff6e00;stop-opacity:1;" />
      <stop
         id="stop12340"
         offset="1"
         style="stop-color:#eb2600;stop-opacity:1;" />
    </linearGradient>
  </defs>
  <sodipodi:namedview
     id="base"
     pagecolor="#ffffff"
     bordercolor="#666666"
     borderopacity="1.0"
     inkscape:pageopacity="0.0"
     inkscape:pageshadow="2"
     inkscape:zoom="0.9078125"
     inkscape:cx="41.876822"
     inkscape:cy="105.77224"
     inkscape:document-units="px"
     inkscape:current-layer="layer1"
     showgrid="false"
     inkscape:window-width="1366"
     inkscape:window-height="714"
     inkscape:window-x="0"
     inkscape:window-y="26"
     inkscape:window-maximized="1" />
  <metadata
     id="metadata6939">
    <rdf:RDF>
      <cc:Work
         rdf:about="">
        <dc:format>image/svg+xml</dc:format>
        <dc:type
           rdf:resource="http://purl.org/dc/dcmitype/StillImage" />
        <dc:title />
      </cc:Work>
    </rdf:RDF>
  </metadata>
  <g
     inkscape:label="Capa 1"
     inkscape:groupmode="layer"
     id="layer1">
    <path
       style="fill:url(#linearGradient4454);fill-opacity:1;fill-rule:evenodd;stroke:none;stroke-width:1.06666672"
       d="m 36.5,5.4000032 c -1.417888,0.059093 -2.720594,0.298304 -3.9,0.6666667 l -19.566667,2.9 H 12.5 v 0.2 C 6.403466,10.285678 3.2666667,15.131449 3.2666667,21.06667 V 111.4 C 3.191744,117.42908 5.4534439,122.16821 10,123.66667 L 30.233333,130 c 0.02226,0.0109 0.0443,0.0226 0.06667,0.0334 2.018902,0.96994 4.442053,1.31466 7.233333,0.86666 l 83.499994,-12.6 c 6.10189,-0.66105 10.09792,-6.46819 9.76667,-14.53333 l 0.43333,-79.233383 c 0.23732,-6.36303 -2.98846,-11.707968 -9.96666,-12.766667 L 38.233333,5.4333365 C 37.639936,5.4042165 37.05673,5.3768032 36.5,5.3999499 Z"
       id="path30949"
       inkscape:connector-curvature="0" />
    <path
       sodipodi:nodetypes="cccsccccsssscsssccssssccssssssccsccc"
       inkscape:connector-curvature="0"
       id="path4199"
       d="m 37.267274,23.667699 v 68.505512 l 0.0021,0.05332 c 0.09393,4.726558 1.194951,9.521869 4.349319,13.382849 2.121518,2.59676 5.046714,4.54371 8.589852,5.81046 3.089853,1.1182 5.295876,1.51808 8.483199,1.26491 l 40.854592,-4.51996 c 6.834354,-0.4445 14.509154,-2.92706 18.621654,-7.35267 3.37133,-3.746976 4.86553,-8.601463 4.86553,-13.372185 V 52.199571 c 0,-11.776344 -9.38188,-19.451305 -18.68565,-19.873764 -4.651893,-0.21123 -9.49591,1.234496 -13.199411,4.647948 -0.35526,0.327436 -0.693754,0.677324 -1.021737,1.038803 -3.543055,-3.653584 -8.394742,-6.453927 -13.254151,-6.674579 -4.704144,-0.213601 -9.602576,1.248364 -13.34768,4.700161 -3.745103,3.451796 -6.033203,8.820176 -6.033203,15.144483 V 88.77097 c 1.31665,-0.108711 6.70577,-0.517513 10.701008,-0.823984 V 51.182623 c 0,-3.925118 1.159254,-5.962378 2.584119,-7.27565 1.424864,-1.313273 3.421281,-1.976016 5.610426,-1.876612 4.37829,0.198805 8.677718,2.812648 8.677718,9.404635 v 35.217773 c 5.374477,-0.40621 6.585761,-0.472722 10.701586,-0.782768 V 51.950003 c 0,-3.881514 1.146376,-5.896144 2.555411,-7.194828 1.409036,-1.298683 3.381144,-1.956197 5.545974,-1.857899 4.32964,0.196597 8.58344,2.783538 8.58344,9.302295 V 87.7279 c 0,2.685095 -0.71064,4.617077 -2.06267,6.119763 -1.35113,1.501678 -3.58699,2.835162 -7.66409,3.363843 l -45.767047,4.995634 c -3.989633,-0.65151 -5.981219,-1.87319 -7.141552,-3.29345 -1.203059,-1.472557 -1.897547,-3.630496 -1.964554,-6.883401 v -67.94287 z"
       style="color:#000000;font-style:normal;font-variant:normal;font-weight:normal;font-stretch:normal;font-size:medium;line-height:normal;font-family:sans-serif;text-indent:0;text-align:start;text-decoration:none;text-decoration-line:none;text-decoration-style:solid;text-decoration-color:#000000;letter-spacing:normal;word-spacing:normal;text-transform:none;writing-mode:lr-tb;direction:ltr;baseline-shift:baseline;text-anchor:start;white-space:normal;clip-rule:nonzero;display:inline;overflow:visible;visibility:visible;opacity:1;isolation:auto;mix-blend-mode:normal;color-interpolation:sRGB;color-interpolation-filters:linearRGB;solid-color:#000000;solid-opacity:1;fill:#000000;fill-opacity:0.61081082;fill-rule:evenodd;stroke:#000000;stroke-width:2.77333331;stroke-linecap:round;stroke-linejoin:round;stroke-miterlimit:4;stroke-dasharray:none;stroke-dashoffset:0;stroke-opacity:0.46486487;color-rendering:auto;image-rendering:auto;shape-rendering:auto;text-rendering:auto;enable-background:accumulate" />
    <path
       style="fill:url(#linearGradient3107);fill-rule:evenodd;stroke:none;stroke-width:1.06666672"
       d="M 31.2,17.833337 31.16667,120.66667 c 0.478612,3.68883 1.501382,8.66619 4.633333,10.4 0.56227,-0.0244 1.13867,-0.0713 1.733333,-0.16667 l 83.499994,-12.6 c 6.10189,-0.66106 10.09792,-6.46819 9.76667,-14.53333 l 0.43333,-79.233333 c 0.23728,-6.36303 -2.98846,-11.707968 -9.96666,-12.766667 L 40.19035,5.582606 C 35.954335,5.133891 31.213801,10.681881 31.2,17.833337 Z m 0.966667,112.833333 c 0.691161,0.18296 1.40232,0.34791 2.166666,0.4 z"
       id="path30953"
       inkscape:connector-curvature="0"
       sodipodi:nodetypes="ccccccccccccc" />
    <path
       style="display:inline;fill:url(#linearGradient3103);fill-rule:evenodd;stroke:none;stroke-width:1.06666672"
       d="m 37.1,5.6666699 -24.066667,3.3 H 12.5 v 0.2 C 6.4034656,10.285678 3.2666667,15.131449 3.2666667,21.06667 V 47.733337 H 31.2 v -29.9 C 31.570188,12.588771 33.625668,7.2053045 37.1,5.6666699 Z"
       id="path3073"
       inkscape:connector-curvature="0" />
    <path
       style="display:inline;fill:url(#linearGradient3105);fill-rule:evenodd;stroke:none;stroke-width:1.06666672"
       d="M 3.2666667,72.96667 V 111.4 C 3.191744,117.42908 5.4534443,122.16821 10,123.66667 l 18.833333,6.43333 8,1.4 C 32.8751,130.38546 31.69472,124.73655 31.166667,120.66667 v -47.7 z"
       id="path3081"
       inkscape:connector-curvature="0" />
    <path
       inkscape:connector-curvature="0"
       id="path30957"
       d="M 38.213346,5.4233952 C 36.363347,5.3324085 34.727917,5.5656139 33.23489,5.9581472 L 12.432043,9.1587232 C 6.3355143,10.277731 3.1863319,15.136035 3.1863319,21.071257 v 90.323663 c -0.074923,6.02908 2.2099238,10.77021 6.7564798,12.26866 l 20.9806473,6.57806 c 1.911724,0.78962 4.026654,1.12128 6.57868,0.71168 l 83.567001,-12.62421 c 6.10189,-0.66048 10.11037,-6.51435 9.77912,-14.57949 l 0.35561,-79.300294 c 0.23728,-6.363029 -2.97871,-11.564949 -9.95692,-12.623648 L 38.213353,5.4245365 Z"
       style="display:inline;fill:none;stroke:#344b63;stroke-width:2.84483409;stroke-linecap:butt;stroke-linejoin:miter;stroke-miterlimit:4;stroke-dasharray:none;stroke-opacity:1"
       sodipodi:nodetypes="ccccccccccccc" />
    <path
       style="color:#000000;font-style:normal;font-variant:normal;font-weight:normal;font-stretch:normal;font-size:medium;line-height:normal;font-family:sans-serif;text-indent:0;text-align:start;text-decoration:none;text-decoration-line:none;text-decoration-style:solid;text-decoration-color:#000000;letter-spacing:normal;word-spacing:normal;text-transform:none;writing-mode:lr-tb;direction:ltr;baseline-shift:baseline;text-anchor:start;white-space:normal;clip-rule:nonzero;display:inline;overflow:visible;visibility:visible;opacity:1;isolation:auto;mix-blend-mode:normal;color-interpolation:sRGB;color-interpolation-filters:linearRGB;solid-color:#000000;solid-opacity:1;fill:#ffffff;fill-opacity:1;fill-rule:evenodd;stroke:none;stroke-width:10.33623028;stroke-linecap:butt;stroke-linejoin:miter;stroke-miterlimit:4;stroke-dasharray:none;stroke-dashoffset:0;stroke-opacity:1;color-rendering:auto;image-rendering:auto;shape-rendering:auto;text-rendering:auto;enable-background:accumulate"
       d="m 39.400607,23.667699 v 68.505512 l 0.0021,0.05332 c 0.09393,4.726558 1.194952,9.521869 4.34932,13.382849 2.121518,2.59676 5.046713,4.54371 8.589851,5.81046 3.089853,1.1182 5.295877,1.51808 8.483199,1.26491 l 40.854593,-4.51996 c 6.83435,-0.4445 14.50915,-2.92706 18.62165,-7.35267 3.37133,-3.746976 4.86553,-8.601463 4.86553,-13.372185 V 52.199571 c 0,-11.776344 -9.38188,-19.451305 -18.68565,-19.873764 -4.65189,-0.21123 -9.495907,1.234496 -13.199408,4.647948 -0.35526,0.327436 -0.693754,0.677324 -1.021736,1.038803 -3.543055,-3.653584 -8.394743,-6.453927 -13.254152,-6.674579 -4.704144,-0.213601 -9.602576,1.248364 -13.34768,4.700161 -3.745103,3.451796 -6.033203,8.820176 -6.033203,15.144483 V 88.77097 c 1.316651,-0.108711 6.705771,-0.517513 10.701008,-0.823984 V 51.182623 c 0,-3.925118 1.159254,-5.962378 2.584119,-7.27565 1.424864,-1.313273 3.421281,-1.976016 5.610426,-1.876612 4.37829,0.198805 8.677718,2.812648 8.677718,9.404635 v 35.217773 c 5.374477,-0.40621 6.585761,-0.472722 10.701586,-0.782768 V 51.950003 c 0,-3.881514 1.146376,-5.896144 2.555412,-7.194828 1.40904,-1.298683 3.38115,-1.956197 5.54597,-1.857899 4.32964,0.196597 8.58345,2.783538 8.58345,9.302295 V 87.7279 c 0,2.685095 -0.71065,4.617077 -2.06268,6.119763 -1.35113,1.501678 -3.58699,2.835162 -7.66409,3.363843 l -45.767044,4.995634 c -3.989633,-0.65151 -5.981219,-1.87319 -7.141552,-3.29345 -1.203059,-1.472557 -1.897547,-3.630496 -1.964554,-6.883401 v -67.94287 z"
       id="path4185"
       inkscape:connector-curvature="0"
       sodipodi:nodetypes="cccsccccsssscsssccssssccssssssccsccc" />
  </g>
</svg>
