<?xml version="1.0" encoding="UTF-8" standalone="no"?>
<!-- Created with Inkscape (http://www.inkscape.org/) -->

<svg
   xmlns:dc="http://purl.org/dc/elements/1.1/"
   xmlns:cc="http://creativecommons.org/ns#"
   xmlns:rdf="http://www.w3.org/1999/02/22-rdf-syntax-ns#"
   xmlns:svg="http://www.w3.org/2000/svg"
   xmlns="http://www.w3.org/2000/svg"
   xmlns:xlink="http://www.w3.org/1999/xlink"
   xmlns:sodipodi="http://sodipodi.sourceforge.net/DTD/sodipodi-0.dtd"
   xmlns:inkscape="http://www.inkscape.org/namespaces/inkscape"
   width="48"
   height="48"
   viewBox="0 0 48 48.000001"
   id="svg10223"
   version="1.1"
   inkscape:version="0.91 r13725"
   sodipodi:docname="disc.svg">
  <defs
     id="defs10225">
    <linearGradient
       id="linearGradient9863">
      <stop
         id="stop9865"
         offset="0"
         style="stop-color:#2f445a;stop-opacity:1;" />
      <stop
         id="stop9867"
         offset="1"
         style="stop-color:#415f7c;stop-opacity:1" />
    </linearGradient>
    <linearGradient
       id="linearGradient26351">
      <stop
         id="stop26353"
         offset="0"
         style="stop-color:#aac736;stop-opacity:1;" />
      <stop
         id="stop26355"
         offset="1"
         style="stop-color:#5d8b2c;stop-opacity:1;" />
    </linearGradient>
    <linearGradient
       id="linearGradient3737-0">
      <stop
         offset="0"
         style="stop-color:#ffffff;stop-opacity:1"
         id="stop3739-6" />
      <stop
         offset="1"
         style="stop-color:#ffffff;stop-opacity:0"
         id="stop3741-0" />
    </linearGradient>
    <linearGradient
       id="linearGradient5439">
      <stop
         id="stop5441"
         offset="0"
         style="stop-color:#ffffff;stop-opacity:1;" />
      <stop
         id="stop5443"
         offset="1"
         style="stop-color:#000000;stop-opacity:1;" />
    </linearGradient>
    <linearGradient
       id="linearGradient12578">
      <stop
         style="stop-color:#e9b551;stop-opacity:1;"
         offset="0"
         id="stop12580" />
      <stop
         style="stop-color:#b48739;stop-opacity:1;"
         offset="1"
         id="stop12582" />
    </linearGradient>
    <linearGradient
       inkscape:collect="always"
       xlink:href="#linearGradient3737-0"
       id="linearGradient5846"
       x1="-198.48557"
       y1="-20.980415"
       x2="-224.90636"
       y2="-32.523811"
       gradientUnits="userSpaceOnUse"
       gradientTransform="matrix(-0.96375194,0,0,-0.96375472,-194.197,995.27286)" />
    <linearGradient
       inkscape:collect="always"
       xlink:href="#linearGradient3737-0"
       id="linearGradient5844"
       x1="258.14822"
       y1="45.24958"
       x2="229.26311"
       y2="33.706184"
       gradientUnits="userSpaceOnUse"
       gradientTransform="matrix(0.96375194,0,0,0.96375472,-194.197,995.27286)" />
    <linearGradient
       inkscape:collect="always"
       xlink:href="#linearGradient5439"
       id="linearGradient5857"
       x1="223.63097"
       y1="26.131966"
       x2="262.84372"
       y2="101.92303"
       gradientUnits="userSpaceOnUse"
       gradientTransform="matrix(0.96375194,0,0,0.96375472,-194.197,995.27286)" />
    <linearGradient
       inkscape:collect="always"
       xlink:href="#linearGradient26351"
       id="linearGradient5838"
       x1="209.11798"
       y1="20.228693"
       x2="241.91876"
       y2="48.512962"
       gradientUnits="userSpaceOnUse"
       gradientTransform="matrix(0.02942556,0.96330471,-0.96330323,0.02942793,50.04691,806.78028)" />
    <linearGradient
       inkscape:collect="always"
       xlink:href="#linearGradient9863"
       id="linearGradient6045"
       x1="284.1142"
       y1="127.80912"
       x2="250.45248"
       y2="93.68412"
       gradientUnits="userSpaceOnUse"
       gradientTransform="matrix(0.88088835,0.47332411,-0.47332411,0.88088835,-155.44288,802.85644)" />
  </defs>
  <sodipodi:namedview
     id="base"
     pagecolor="#ffffff"
     bordercolor="#666666"
     borderopacity="1.0"
     inkscape:pageopacity="0.0"
     inkscape:pageshadow="2"
     inkscape:zoom="3.959798"
     inkscape:cx="11.895147"
     inkscape:cy="22.948902"
     inkscape:document-units="px"
     inkscape:current-layer="layer1"
     showgrid="false"
     units="px"
     borderlayer="true"
     inkscape:showpageshadow="false"
     inkscape:window-width="1600"
     inkscape:window-height="847"
     inkscape:window-x="0"
     inkscape:window-y="0"
     inkscape:window-maximized="1" />
  <metadata
     id="metadata10228">
    <rdf:RDF>
      <cc:Work
         rdf:about="">
        <dc:format>image/svg+xml</dc:format>
        <dc:type
           rdf:resource="http://purl.org/dc/dcmitype/StillImage" />
        <dc:title></dc:title>
      </cc:Work>
    </rdf:RDF>
  </metadata>
  <g
     inkscape:label="Capa 1"
     inkscape:groupmode="layer"
     id="layer1"
     transform="translate(0,-1004.3622)">
    <path
       id="path4236"
       d="m 22.3564,1008.5928 c -11.794,0 -21.3477605,9.5538 -21.3477605,21.3479 0,11.794 9.5537605,21.3665 21.3477605,21.3665 11.79402,0 21.34779,-9.5725 21.34779,-21.3665 0,-11.7941 -9.55377,-21.3479 -21.34779,-21.3479 z m 0,17.8304 c 1.94686,0 3.51743,1.5706 3.51743,3.5175 0,1.9468 -1.57057,3.5361 -3.51743,3.5361 -1.94684,0 -3.51741,-1.5893 -3.51741,-3.5361 0,-1.9469 1.57057,-3.5175 3.51741,-3.5175 z"
       style="display:inline;fill:#000000;fill-opacity:0.43921569;stroke:none"
       inkscape:connector-curvature="0" />
    <path
       style="display:inline;fill:url(#linearGradient5838);fill-opacity:1;stroke:url(#linearGradient6045);stroke-width:0.99999988;stroke-miterlimit:4;stroke-dasharray:none"
       d="m 46.43964,1026.2841 c -0.36009,-11.7886 -10.2011,-21.0462 -21.98963,-20.6861 -11.78852,0.3602 -21.0648505,10.2018 -20.7047405,21.9903 0.36009,11.7886 10.2198205,21.0456 22.0083405,20.6855 11.7885,-0.3601 21.04614,-10.2012 20.68603,-21.9897 z m -18.09745,0.5528 c 0.0546,1.7872 -1.35427,3.2848 -3.1414,3.3394 -1.78714,0.055 -3.28478,-1.3543 -3.33937,-3.1414 -0.0546,-1.7871 1.35426,-3.2848 3.1414,-3.3394 1.78712,-0.055 3.28478,1.3543 3.33937,3.1414 z"
       id="path3913"
       inkscape:connector-curvature="0"
       sodipodi:nodetypes="ssssssssss" />
    <path
       style="color:#000000;display:inline;overflow:visible;visibility:visible;opacity:0.81229769;fill:url(#linearGradient5857);fill-opacity:0.74285715;fill-rule:nonzero;stroke:none;stroke-width:0.55910611;stroke-miterlimit:4;stroke-dasharray:none;marker:none;enable-background:accumulate"
       d="m 25.09385,1016.0052 c -6.0242,0 -10.92294,4.8988 -10.92294,10.923 0,6.0242 4.89874,10.923 10.92294,10.923 6.02419,0 10.92293,-4.8988 10.92293,-10.923 0,-6.0242 -4.89874,-10.923 -10.92293,-10.923 z m 0,7.223 c 2.04792,0 3.70002,1.6521 3.70002,3.7 0,2.0479 -1.6521,3.7197 -3.70002,3.7197 -2.04793,0 -3.70002,-1.6718 -3.70002,-3.7197 0,-2.0479 1.65209,-3.7 3.70002,-3.7 z"
       id="path3736"
       inkscape:connector-curvature="0" />
    <path
       style="display:inline;fill:url(#linearGradient5844);fill-opacity:1;stroke:none;stroke-width:1.70000005;stroke-linecap:round;stroke-linejoin:round;stroke-miterlimit:4;stroke-dasharray:none;stroke-opacity:1"
       d="m 28.87369,1026.9373 c -0.003,1.0397 -0.42255,2.0536 -1.20873,2.7778 l 11.20789,12.1116 c 4.14877,-3.8397 6.50731,-9.2363 6.50721,-14.8893 z"
       id="path5840"
       inkscape:connector-curvature="0"
       sodipodi:nodetypes="ccccc" />
    <path
       style="display:inline;fill:url(#linearGradient5846);fill-opacity:1;stroke:none;stroke-width:1.70000005;stroke-linecap:round;stroke-linejoin:round;stroke-miterlimit:4;stroke-dasharray:none;stroke-opacity:1"
       d="m 11.31557,1012.0482 c -4.1494605,3.8394 -6.5087005,9.236 -6.5090905,14.8892 l 16.5233105,-10e-5 c 5.1e-4,-1.037 0.41671,-2.0481 1.19657,-2.7738 z"
       id="path5842"
       inkscape:connector-curvature="0"
       sodipodi:nodetypes="ccccc" />
  </g>
</svg>
