<?xml version="1.0" encoding="UTF-8" standalone="no"?>
<!-- Created with Inkscape (http://www.inkscape.org/) -->

<svg
   xmlns:dc="http://purl.org/dc/elements/1.1/"
   xmlns:cc="http://creativecommons.org/ns#"
   xmlns:rdf="http://www.w3.org/1999/02/22-rdf-syntax-ns#"
   xmlns:svg="http://www.w3.org/2000/svg"
   xmlns="http://www.w3.org/2000/svg"
   xmlns:xlink="http://www.w3.org/1999/xlink"
   xmlns:sodipodi="http://sodipodi.sourceforge.net/DTD/sodipodi-0.dtd"
   xmlns:inkscape="http://www.inkscape.org/namespaces/inkscape"
   width="48"
   height="48"
   viewBox="0 0 48 48.000001"
   id="svg10223"
   version="1.1"
   inkscape:version="0.91 r13725"
   sodipodi:docname="emblem-no.svg">
  <defs
     id="defs10225">
    <linearGradient
       id="linearGradient9863">
      <stop
         id="stop9865"
         offset="0"
         style="stop-color:#2f445a;stop-opacity:1;" />
      <stop
         id="stop9867"
         offset="1"
         style="stop-color:#415f7c;stop-opacity:1" />
    </linearGradient>
    <linearGradient
       id="linearGradient26351">
      <stop
         id="stop26353"
         offset="0"
         style="stop-color:#aac736;stop-opacity:1;" />
      <stop
         id="stop26355"
         offset="1"
         style="stop-color:#5d8b2c;stop-opacity:1;" />
    </linearGradient>
    <linearGradient
       id="linearGradient3737-0">
      <stop
         offset="0"
         style="stop-color:#ffffff;stop-opacity:1"
         id="stop3739-6" />
      <stop
         offset="1"
         style="stop-color:#ffffff;stop-opacity:0"
         id="stop3741-0" />
    </linearGradient>
    <linearGradient
       id="linearGradient5439">
      <stop
         id="stop5441"
         offset="0"
         style="stop-color:#ffffff;stop-opacity:1;" />
      <stop
         id="stop5443"
         offset="1"
         style="stop-color:#000000;stop-opacity:1;" />
    </linearGradient>
    <linearGradient
       id="linearGradient12578">
      <stop
         style="stop-color:#e9b551;stop-opacity:1;"
         offset="0"
         id="stop12580" />
      <stop
         style="stop-color:#b48739;stop-opacity:1;"
         offset="1"
         id="stop12582" />
    </linearGradient>
    <linearGradient
       id="linearGradient12336">
      <stop
         style="stop-color:#ff6e00;stop-opacity:1;"
         offset="0"
         id="stop12338" />
      <stop
         style="stop-color:#eb2600;stop-opacity:1;"
         offset="1"
         id="stop12340" />
    </linearGradient>
    <inkscape:path-effect
       effect="spiro"
       id="path-effect8644"
       is_visible="true" />
    <linearGradient
       id="linearGradient5316-0">
      <stop
         id="stop5320-2"
         offset="0"
         style="stop-color:#aac736;stop-opacity:1;" />
      <stop
         id="stop5322-4"
         offset="1"
         style="stop-color:#5d8b2f;stop-opacity:0.94117647;" />
    </linearGradient>
    <linearGradient
       id="linearGradient5316-2">
      <stop
         id="stop5320-9"
         offset="0"
         style="stop-color:#b995da;stop-opacity:1;" />
      <stop
         id="stop5322-1"
         offset="1"
         style="stop-color:#766287;stop-opacity:1;" />
    </linearGradient>
    <linearGradient
       id="linearGradient5316">
      <stop
         id="stop5320"
         offset="0"
         style="stop-color:#87c7ff;stop-opacity:1;" />
      <stop
         id="stop5322"
         offset="1"
         style="stop-color:#74aadb;stop-opacity:1;" />
    </linearGradient>
    <linearGradient
       gradientTransform="translate(-350,695.00003)"
       inkscape:collect="always"
       xlink:href="#linearGradient12336"
       id="linearGradient15315"
       x1="362.26172"
       y1="310.37503"
       x2="382.26077"
       y2="339.01288"
       gradientUnits="userSpaceOnUse" />
    <linearGradient
       gradientTransform="translate(-350,695.00003)"
       inkscape:collect="always"
       xlink:href="#linearGradient9863"
       id="linearGradient15323"
       x1="352.0416"
       y1="330.52759"
       x2="398.04935"
       y2="330.52759"
       gradientUnits="userSpaceOnUse" />
  </defs>
  <sodipodi:namedview
     id="base"
     pagecolor="#ffffff"
     bordercolor="#666666"
     borderopacity="1.0"
     inkscape:pageopacity="0.0"
     inkscape:pageshadow="2"
     inkscape:zoom="11.2"
     inkscape:cx="30.361493"
     inkscape:cy="24.845683"
     inkscape:document-units="px"
     inkscape:current-layer="layer1"
     showgrid="false"
     units="px"
     borderlayer="true"
     inkscape:showpageshadow="false"
     inkscape:window-width="1600"
     inkscape:window-height="847"
     inkscape:window-x="0"
     inkscape:window-y="0"
     inkscape:window-maximized="1" />
  <metadata
     id="metadata10228">
    <rdf:RDF>
      <cc:Work
         rdf:about="">
        <dc:format>image/svg+xml</dc:format>
        <dc:type
           rdf:resource="http://purl.org/dc/dcmitype/StillImage" />
        <dc:title></dc:title>
      </cc:Work>
    </rdf:RDF>
  </metadata>
  <g
     inkscape:label="Capa 1"
     inkscape:groupmode="layer"
     id="layer1"
     transform="translate(0,-1004.3622)">
    <path
       inkscape:connector-curvature="0"
       id="path15313"
       d="m 22.98852,1011.1193 c -2.35783,0 -4.71596,0 -6.5,0.018 -0.89203,0.01 -1.63918,0.014 -2.17969,0.023 -0.27025,0 -0.48736,0.01 -0.6582,0.016 -0.0854,0 -0.15699,0.01 -0.24023,0.014 -0.0416,0 -0.0804,0.01 -0.15821,0.016 -0.0389,0 -0.0858,0.01 -0.17383,0.027 -0.044,0.01 -0.0987,0.022 -0.18359,0.049 -0.0849,0.026 -0.40948,0.1793 -0.41016,0.1797 -6.6e-4,3e-4 -0.2941,0.2033 -0.35937,0.2636 -0.0653,0.06 -0.10078,0.1033 -0.13086,0.1368 -0.0602,0.067 -0.0894,0.1016 -0.11328,0.1328 -0.0476,0.062 -0.0704,0.098 -0.0937,0.1328 -0.0468,0.069 -0.0854,0.1287 -0.13086,0.2011 -0.0909,0.1449 -0.20257,0.3289 -0.3418,0.5606 -0.27846,0.4634 -0.65801,1.1075 -1.10937,1.8769 -0.9027304,1.5389 -2.0886704,3.5772 -3.2675804,5.6192 -1.17891,2.0419 -2.3511,4.0855 -3.23242,5.6367 -0.44065,0.7756 -0.80828,1.4276 -1.07032,1.9004 -0.13103,0.2364 -0.23449,0.427 -0.31445,0.5781 -0.04,0.075 -0.073,0.1378 -0.10937,0.2129 -0.0182,0.037 -0.0362,0.076 -0.0664,0.1485 -0.0151,0.036 -0.0346,0.079 -0.0625,0.164 -0.0139,0.043 -0.0312,0.095 -0.0508,0.1817 -0.0196,0.087 -0.0469,0.4425 -0.0469,0.4433 0,8e-4 0.0292,0.3586 0.0488,0.4453 0.0196,0.087 0.0349,0.1408 0.0488,0.1836 0.0278,0.086 0.0474,0.1259 0.0625,0.1621 0.0302,0.072 0.0482,0.1109 0.0664,0.1485 0.0365,0.075 0.0694,0.1373 0.10937,0.2129 0.08,0.1511 0.18342,0.3417 0.31445,0.5781 0.26205,0.4728 0.62967,1.1248 1.07032,1.9004 0.88132,1.5512 2.05351,3.5948 3.23242,5.6367 1.17891,2.0419 2.36288,4.0803 3.2656204,5.6191 0.45136,0.7694 0.83288,1.4117 1.11133,1.875 0.13923,0.2317 0.25287,0.4177 0.34375,0.5625 0.0454,0.072 0.0821,0.1321 0.12891,0.2012 0.0234,0.035 0.0481,0.069 0.0957,0.1309 0.0238,0.031 0.0512,0.068 0.11133,0.1347 0.0301,0.033 0.0656,0.075 0.13086,0.1348 0.0653,0.06 0.35871,0.2652 0.35937,0.2656 6.7e-4,4e-4 0.32724,0.1533 0.41211,0.1797 0.0849,0.026 0.13961,0.037 0.1836,0.047 0.088,0.019 0.13296,0.024 0.17187,0.029 0.0778,0.01 0.11853,0.013 0.16016,0.016 0.0832,0.01 0.1548,0.011 0.24023,0.014 0.17085,0.01 0.386,0.01 0.65625,0.014 0.54051,0.01 1.28767,0.019 2.17969,0.025 1.78405,0.012 4.14217,0.018 6.5,0.018 2.35782,0 4.71595,-0.01 6.5,-0.018 0.89202,-0.01 1.63918,-0.014 2.17969,-0.023 0.27025,-0.01 0.48735,-0.01 0.6582,-0.016 0.0854,0 0.15699,-0.01 0.24023,-0.014 0.0416,0 0.0804,-0.01 0.15821,-0.016 0.0389,-0.01 0.0858,-0.01 0.17383,-0.027 0.044,-0.01 0.0987,-0.022 0.18359,-0.049 0.0849,-0.026 0.40949,-0.1793 0.41016,-0.1797 6.6e-4,-4e-4 0.2941,-0.2053 0.35937,-0.2656 0.0653,-0.06 0.10079,-0.1013 0.13086,-0.1348 0.0602,-0.067 0.0894,-0.1016 0.11328,-0.1328 0.0476,-0.062 0.0704,-0.098 0.0937,-0.1328 0.0468,-0.069 0.0854,-0.1288 0.13086,-0.2012 0.0909,-0.1448 0.20257,-0.3288 0.3418,-0.5605 0.27847,-0.4634 0.658,-1.1075 1.10937,-1.877 0.90273,-1.5388 2.08866,-3.5772 3.26758,-5.6191 1.17891,-2.0419 2.35111,-4.0855 3.23242,-5.6367 0.44065,-0.7756 0.80827,-1.4276 1.07032,-1.9004 0.13102,-0.2364 0.23448,-0.427 0.31445,-0.5781 0.04,-0.076 0.0729,-0.1379 0.10937,-0.2129 0.0182,-0.037 0.0362,-0.076 0.0664,-0.1485 0.0151,-0.036 0.0346,-0.079 0.0625,-0.164 0.0139,-0.043 0.0312,-0.095 0.0508,-0.1817 0.0196,-0.087 0.0469,-0.4426 0.0469,-0.4433 0,-8e-4 -0.0292,-0.3587 -0.0488,-0.4453 -0.0196,-0.087 -0.0349,-0.1409 -0.0488,-0.1836 -0.0278,-0.085 -0.0474,-0.1279 -0.0625,-0.1641 -0.0302,-0.072 -0.0482,-0.1089 -0.0664,-0.1465 -0.0365,-0.075 -0.0694,-0.1373 -0.10937,-0.2129 -0.08,-0.1511 -0.18343,-0.3417 -0.31445,-0.5781 -0.26205,-0.4728 -0.62967,-1.1248 -1.07032,-1.9004 -0.88132,-1.5512 -2.05352,-3.5948 -3.23242,-5.6367 -1.17891,-2.0419 -2.36288,-4.0803 -3.26562,-5.6192 -0.45136,-0.7694 -0.83288,-1.4116 -1.11133,-1.875 -0.13923,-0.2316 -0.25288,-0.4176 -0.34375,-0.5625 -0.0454,-0.072 -0.0821,-0.132 -0.12891,-0.2011 -0.0234,-0.035 -0.0482,-0.068 -0.0957,-0.1309 -0.0238,-0.031 -0.0512,-0.068 -0.11133,-0.1347 -0.0301,-0.033 -0.0656,-0.074 -0.13086,-0.1348 -0.0653,-0.06 -0.3587,-0.2653 -0.35937,-0.2656 -6.6e-4,-4e-4 -0.32725,-0.1534 -0.41211,-0.1797 -0.0849,-0.026 -0.13962,-0.038 -0.1836,-0.047 -0.088,-0.019 -0.13296,-0.024 -0.17187,-0.029 -0.0778,-0.01 -0.11854,-0.013 -0.16016,-0.016 -0.0832,-0.01 -0.1548,-0.011 -0.24023,-0.014 -0.17085,-0.01 -0.386,-0.011 -0.65625,-0.016 -0.54051,-0.01 -1.28766,-0.017 -2.17969,-0.023 -1.78405,-0.012 -4.14217,-0.018 -6.5,-0.018 z"
       style="color:#000000;font-style:normal;font-variant:normal;font-weight:normal;font-stretch:normal;font-size:medium;line-height:normal;font-family:sans-serif;text-indent:0;text-align:start;text-decoration:none;text-decoration-line:none;text-decoration-style:solid;text-decoration-color:#000000;letter-spacing:normal;word-spacing:normal;text-transform:none;direction:ltr;block-progression:tb;writing-mode:lr-tb;baseline-shift:baseline;text-anchor:start;white-space:normal;clip-rule:nonzero;display:inline;overflow:visible;visibility:visible;opacity:1;isolation:auto;mix-blend-mode:normal;color-interpolation:sRGB;color-interpolation-filters:linearRGB;solid-color:#000000;solid-opacity:1;fill:#000000;fill-opacity:0.43921569;fill-rule:nonzero;stroke:none;stroke-width:4;stroke-linecap:round;stroke-linejoin:round;stroke-miterlimit:4;stroke-dasharray:none;stroke-dashoffset:0;stroke-opacity:1;color-rendering:auto;image-rendering:auto;shape-rendering:auto;text-rendering:auto;enable-background:accumulate" />
    <path
       style="color:#000000;font-style:normal;font-variant:normal;font-weight:normal;font-stretch:normal;font-size:medium;line-height:normal;font-family:sans-serif;text-indent:0;text-align:start;text-decoration:none;text-decoration-line:none;text-decoration-style:solid;text-decoration-color:#000000;letter-spacing:normal;word-spacing:normal;text-transform:none;direction:ltr;block-progression:tb;writing-mode:lr-tb;baseline-shift:baseline;text-anchor:start;white-space:normal;clip-rule:nonzero;display:inline;overflow:visible;visibility:visible;opacity:1;isolation:auto;mix-blend-mode:normal;color-interpolation:sRGB;color-interpolation-filters:linearRGB;solid-color:#000000;solid-opacity:1;fill:url(#linearGradient15315);fill-opacity:1;fill-rule:nonzero;stroke:url(#linearGradient15323);stroke-width:1;stroke-linecap:round;stroke-linejoin:round;stroke-miterlimit:4;stroke-dasharray:none;stroke-dashoffset:0;stroke-opacity:1;color-rendering:auto;image-rendering:auto;shape-rendering:auto;text-rendering:auto;enable-background:accumulate"
       d="m 25.0455,1006.9954 c -2.35783,0 -4.71596,0 -6.5,0.018 -0.89203,0.01 -1.63918,0.014 -2.17969,0.023 -0.27025,0 -0.48736,0.01 -0.6582,0.016 -0.0854,0 -0.15699,0.01 -0.24023,0.014 -0.0416,0 -0.0804,0.01 -0.15821,0.016 -0.0389,0 -0.0858,0.01 -0.17383,0.027 -0.044,0.01 -0.0987,0.022 -0.18359,0.049 -0.0849,0.026 -0.40948,0.1793 -0.41016,0.1796 -6.6e-4,4e-4 -0.2941,0.2034 -0.35937,0.2637 -0.0653,0.06 -0.10078,0.1033 -0.13086,0.1367 -0.0602,0.067 -0.0894,0.1017 -0.11328,0.1328 -0.0476,0.062 -0.0704,0.098 -0.0937,0.1329 -0.0468,0.069 -0.0854,0.1287 -0.13086,0.2011 -0.0909,0.1448 -0.20257,0.3289 -0.3418,0.5606 -0.27846,0.4633 -0.65801,1.1075 -1.10937,1.8769 -0.90273,1.5389 -2.08867,3.5772 -3.2675804,5.6192 -1.17891,2.0419 -2.3511,4.0855 -3.23242,5.6367 -0.44065,0.7756 -0.80828,1.4275 -1.07032,1.9004 -0.13103,0.2364 -0.23449,0.427 -0.31445,0.5781 -0.04,0.076 -0.073,0.1378 -0.10937,0.2129 -0.0182,0.038 -0.0362,0.076 -0.0664,0.1484 -0.0151,0.036 -0.0346,0.079 -0.0625,0.1641 -0.0139,0.043 -0.0312,0.095 -0.0508,0.1816 -0.0196,0.087 -0.0469,0.4426 -0.0469,0.4434 0,8e-4 0.0292,0.3586 0.0488,0.4453 0.0196,0.087 0.0349,0.1408 0.0488,0.1836 0.0278,0.085 0.0474,0.1259 0.0625,0.1621 0.0302,0.072 0.0482,0.1109 0.0664,0.1484 0.0365,0.075 0.0694,0.1374 0.10937,0.2129 0.08,0.1511 0.18342,0.3417 0.31445,0.5782 0.26205,0.4728 0.62967,1.1247 1.07032,1.9004 0.88132,1.5512 2.05351,3.5947 3.23242,5.6367 1.1789104,2.0419 2.3628804,4.0803 3.2656204,5.6191 0.45136,0.7694 0.83288,1.4117 1.11133,1.875 0.13923,0.2317 0.25287,0.4177 0.34375,0.5625 0.0454,0.072 0.0821,0.1321 0.12891,0.2012 0.0234,0.035 0.0481,0.069 0.0957,0.1308 0.0238,0.031 0.0512,0.068 0.11133,0.1348 0.0301,0.033 0.0656,0.074 0.13086,0.1348 0.0653,0.06 0.35871,0.2652 0.35937,0.2656 6.7e-4,4e-4 0.32724,0.1533 0.41211,0.1797 0.0849,0.026 0.13961,0.037 0.1836,0.047 0.088,0.019 0.13296,0.024 0.17187,0.029 0.0778,0.01 0.11853,0.013 0.16016,0.016 0.0832,0.01 0.1548,0.011 0.24023,0.014 0.17085,0.01 0.386,0.01 0.65625,0.014 0.54051,0.01 1.28767,0.019 2.17969,0.025 1.78405,0.012 4.14217,0.018 6.5,0.018 2.35782,0 4.71595,-0.01 6.5,-0.018 0.89202,-0.01 1.63918,-0.014 2.17969,-0.023 0.27025,-0.01 0.48735,-0.01 0.6582,-0.016 0.0854,0 0.15699,-0.01 0.24023,-0.014 0.0416,0 0.0804,-0.01 0.15821,-0.016 0.0389,0 0.0858,-0.01 0.17383,-0.027 0.044,-0.01 0.0987,-0.022 0.18359,-0.049 0.0849,-0.026 0.40949,-0.1793 0.41016,-0.1797 6.6e-4,-4e-4 0.2941,-0.2053 0.35937,-0.2656 0.0653,-0.06 0.10079,-0.1014 0.13086,-0.1348 0.0602,-0.067 0.0894,-0.1016 0.11328,-0.1328 0.0476,-0.062 0.0704,-0.098 0.0937,-0.1328 0.0468,-0.069 0.0854,-0.1288 0.13086,-0.2012 0.0909,-0.1448 0.20257,-0.3289 0.3418,-0.5605 0.27847,-0.4634 0.658,-1.1076 1.10937,-1.877 0.90273,-1.5388 2.08866,-3.5772 3.26758,-5.6191 1.17891,-2.042 2.35111,-4.0855 3.23242,-5.6367 0.44065,-0.7757 0.80827,-1.4276 1.07032,-1.9004 0.13102,-0.2365 0.23448,-0.4271 0.31445,-0.5782 0.04,-0.076 0.0729,-0.1378 0.10937,-0.2129 0.0182,-0.038 0.0362,-0.076 0.0664,-0.1484 0.0151,-0.036 0.0346,-0.079 0.0625,-0.1641 0.0139,-0.043 0.0312,-0.095 0.0508,-0.1816 0.0196,-0.087 0.0469,-0.4426 0.0469,-0.4434 0,-7e-4 -0.0292,-0.3586 -0.0488,-0.4453 -0.0196,-0.087 -0.0349,-0.1408 -0.0488,-0.1836 -0.0278,-0.085 -0.0474,-0.1278 -0.0625,-0.164 -0.0302,-0.072 -0.0482,-0.109 -0.0664,-0.1465 -0.0365,-0.075 -0.0694,-0.1373 -0.10937,-0.2129 -0.08,-0.1511 -0.18343,-0.3417 -0.31445,-0.5781 -0.26205,-0.4729 -0.62967,-1.1248 -1.07032,-1.9004 -0.88132,-1.5512 -2.05352,-3.5948 -3.23242,-5.6367 -1.17891,-2.042 -2.36288,-4.0803 -3.26562,-5.6192 -0.45136,-0.7694 -0.83288,-1.4116 -1.11133,-1.875 -0.13923,-0.2317 -0.25288,-0.4177 -0.34375,-0.5625 -0.0454,-0.072 -0.0821,-0.132 -0.12891,-0.2011 -0.0234,-0.035 -0.0482,-0.068 -0.0957,-0.1309 -0.0238,-0.031 -0.0512,-0.068 -0.11133,-0.1348 -0.0301,-0.033 -0.0656,-0.075 -0.13086,-0.1347 -0.0653,-0.06 -0.3587,-0.2653 -0.35937,-0.2657 -6.6e-4,-3e-4 -0.32725,-0.1533 -0.41211,-0.1796 -0.0849,-0.026 -0.13962,-0.038 -0.1836,-0.047 -0.088,-0.019 -0.13296,-0.024 -0.17187,-0.029 -0.0778,-0.01 -0.11854,-0.013 -0.16016,-0.016 -0.0832,-0.01 -0.1548,-0.011 -0.24023,-0.014 -0.17085,-0.01 -0.386,-0.011 -0.65625,-0.016 -0.54051,-0.01 -1.28766,-0.017 -2.17969,-0.023 -1.78405,-0.012 -4.14217,-0.018 -6.5,-0.018 z"
       id="path15290"
       inkscape:connector-curvature="0" />
    <rect
       style="display:inline;opacity:1;fill:#ffffff;fill-opacity:1;fill-rule:nonzero;stroke:none;stroke-width:1;stroke-linecap:round;stroke-linejoin:round;stroke-miterlimit:4;stroke-dasharray:none;stroke-opacity:1"
       id="rect15325"
       width="31.11269"
       height="12.285954"
       x="9.4891357"
       y="1019.3846"
       rx="2.1213202"
       ry="2.1213202" />
  </g>
</svg>
