<?xml version="1.0" encoding="UTF-8" standalone="no"?>
<!-- Created with Inkscape (http://www.inkscape.org/) -->

<svg
   xmlns:dc="http://purl.org/dc/elements/1.1/"
   xmlns:cc="http://creativecommons.org/ns#"
   xmlns:rdf="http://www.w3.org/1999/02/22-rdf-syntax-ns#"
   xmlns:svg="http://www.w3.org/2000/svg"
   xmlns="http://www.w3.org/2000/svg"
   xmlns:xlink="http://www.w3.org/1999/xlink"
   xmlns:sodipodi="http://sodipodi.sourceforge.net/DTD/sodipodi-0.dtd"
   xmlns:inkscape="http://www.inkscape.org/namespaces/inkscape"
   width="128"
   height="128"
   id="svg2"
   sodipodi:version="0.32"
   inkscape:version="0.48.3.1 r9886"
   version="1.0"
   sodipodi:docname="audio-volume-muted-symbolic.svg"
   inkscape:output_extension="org.inkscape.output.svg.inkscape">
  <defs
     id="defs4">
    <linearGradient
       inkscape:collect="always"
       xlink:href="#linearGradient5316"
       id="linearGradient8447"
       gradientUnits="userSpaceOnUse"
       gradientTransform="matrix(2.1481476,0,0,2.2660452,-1072.5125,-1414.5137)"
       x1="505.28644"
       y1="645.81702"
       x2="504.58081"
       y2="659.34265" />
    <linearGradient
       inkscape:collect="always"
       xlink:href="#linearGradient5362"
       id="linearGradient8449"
       gradientUnits="userSpaceOnUse"
       gradientTransform="matrix(2.1481476,0,0,2.2660452,-1072.5125,-1414.5137)"
       x1="508.48956"
       y1="642.86359"
       x2="506.59845"
       y2="653.34991" />
    <linearGradient
       inkscape:collect="always"
       xlink:href="#linearGradient7210"
       id="linearGradient8453"
       gradientUnits="userSpaceOnUse"
       gradientTransform="matrix(2.4865983,0,0,2.4864923,-1202.2427,-1557.6523)"
       x1="494.4577"
       y1="637.09772"
       x2="515.29169"
       y2="668.90833" />
    <linearGradient
       inkscape:collect="always"
       xlink:href="#linearGradient5439"
       id="linearGradient8455"
       gradientUnits="userSpaceOnUse"
       gradientTransform="matrix(2.2024173,0,0,2.2023236,-1059.2662,-1371.7939)"
       x1="523.76074"
       y1="673.95343"
       x2="490.40436"
       y2="648.80872" />
    <linearGradient
       inkscape:collect="always"
       xlink:href="#linearGradient5439"
       id="linearGradient8457"
       gradientUnits="userSpaceOnUse"
       gradientTransform="matrix(3.1132681,9.4944461e-2,-9.3459708e-2,3.0643206,-1468.494,-1984.6058)"
       x1="494.64386"
       y1="641.93042"
       x2="509.46909"
       y2="661.21436" />
    <radialGradient
       inkscape:collect="always"
       xlink:href="#linearGradient5439"
       id="radialGradient8459"
       gradientUnits="userSpaceOnUse"
       gradientTransform="matrix(4.9397802,0,0,5.7128195,-2434.1566,-3693.5548)"
       cx="502.22336"
       cy="657.59094"
       fx="502.22336"
       fy="657.59094"
       r="5.6949959" />
    <linearGradient
       inkscape:collect="always"
       xlink:href="#linearGradient5344"
       id="linearGradient8463"
       gradientUnits="userSpaceOnUse"
       gradientTransform="matrix(2.1481476,0,0,2.2660452,-1072.5125,-1414.5137)"
       x1="504.64963"
       y1="667.4726"
       x2="503.15131"
       y2="654.14331" />
    <linearGradient
       inkscape:collect="always"
       xlink:href="#linearGradient5344"
       id="linearGradient8465"
       gradientUnits="userSpaceOnUse"
       gradientTransform="matrix(2.7642986,0,0,2.8210385,-1342.4466,-1789.1735)"
       x1="497.4556"
       y1="669.95612"
       x2="504.83231"
       y2="649.57263" />
    <linearGradient
       inkscape:collect="always"
       xlink:href="#linearGradient9863"
       id="linearGradient10955"
       gradientUnits="userSpaceOnUse"
       gradientTransform="matrix(2.6765239,0,0,2.6765239,-977.438,-940.39043)"
       x1="392.3085"
       y1="398.4826"
       x2="392.3085"
       y2="352.06906" />
    <linearGradient
       inkscape:collect="always"
       xlink:href="#linearGradient5344"
       id="linearGradient8565"
       gradientUnits="userSpaceOnUse"
       gradientTransform="translate(-460.06433,-862.23136)"
       x1="547.44275"
       y1="910.30841"
       x2="470.46945"
       y2="984.93726" />
    <linearGradient
       inkscape:collect="always"
       xlink:href="#linearGradient5316"
       id="linearGradient8403"
       gradientUnits="userSpaceOnUse"
       gradientTransform="matrix(2.1481476,0,0,2.2660452,-1072.5125,-1414.5138)"
       x1="505.28644"
       y1="645.81702"
       x2="504.58081"
       y2="659.34265" />
    <linearGradient
       inkscape:collect="always"
       xlink:href="#linearGradient5362"
       id="linearGradient8405"
       gradientUnits="userSpaceOnUse"
       gradientTransform="matrix(2.1481476,0,0,2.2660452,-1072.5125,-1414.5138)"
       x1="508.48956"
       y1="642.86359"
       x2="506.59845"
       y2="653.34991" />
    <linearGradient
       inkscape:collect="always"
       xlink:href="#linearGradient7210"
       id="linearGradient8409"
       gradientUnits="userSpaceOnUse"
       gradientTransform="matrix(2.4865983,0,0,2.4864923,-1202.2427,-1557.6524)"
       x1="494.4577"
       y1="637.09772"
       x2="515.29169"
       y2="668.90833" />
    <linearGradient
       inkscape:collect="always"
       xlink:href="#linearGradient5439"
       id="linearGradient8411"
       gradientUnits="userSpaceOnUse"
       gradientTransform="matrix(2.2024173,0,0,2.2023236,-1059.2662,-1371.7939)"
       x1="523.76074"
       y1="673.95343"
       x2="490.40436"
       y2="648.80872" />
    <linearGradient
       inkscape:collect="always"
       xlink:href="#linearGradient5439"
       id="linearGradient8413"
       gradientUnits="userSpaceOnUse"
       gradientTransform="matrix(3.1132681,9.4944461e-2,-9.3459708e-2,3.0643206,-1468.494,-1984.6059)"
       x1="494.64386"
       y1="641.93042"
       x2="509.46909"
       y2="661.21436" />
    <radialGradient
       inkscape:collect="always"
       xlink:href="#linearGradient5439"
       id="radialGradient8415"
       gradientUnits="userSpaceOnUse"
       gradientTransform="matrix(4.9397802,0,0,5.7128195,-2434.1566,-3693.5548)"
       cx="502.22336"
       cy="657.59094"
       fx="502.22336"
       fy="657.59094"
       r="5.6949959" />
    <linearGradient
       inkscape:collect="always"
       xlink:href="#linearGradient8702"
       id="linearGradient8417"
       gradientUnits="userSpaceOnUse"
       gradientTransform="matrix(2.6765239,0,0,2.6765239,-1994.5171,-1100.9819)"
       x1="775.39929"
       y1="432.39459"
       x2="790.60217"
       y2="425.26035" />
    <linearGradient
       inkscape:collect="always"
       xlink:href="#linearGradient5344"
       id="linearGradient8419"
       gradientUnits="userSpaceOnUse"
       gradientTransform="matrix(2.1481476,0,0,2.2660452,-1072.5125,-1414.5138)"
       x1="504.64963"
       y1="667.4726"
       x2="503.15131"
       y2="654.14331" />
    <linearGradient
       inkscape:collect="always"
       xlink:href="#linearGradient5344"
       id="linearGradient8421"
       gradientUnits="userSpaceOnUse"
       gradientTransform="matrix(2.7642986,0,0,2.8210385,-1342.4466,-1789.1736)"
       x1="497.4556"
       y1="669.95612"
       x2="504.83231"
       y2="649.57263" />
    <linearGradient
       inkscape:collect="always"
       xlink:href="#linearGradient9863"
       id="linearGradient10951"
       gradientUnits="userSpaceOnUse"
       gradientTransform="matrix(2.6765239,0,0,2.6765239,-977.43797,-940.39045)"
       x1="392.3085"
       y1="398.4826"
       x2="392.3085"
       y2="352.06906" />
    <linearGradient
       id="linearGradient7210">
      <stop
         id="stop7212"
         offset="0"
         style="stop-color:#798088;stop-opacity:1;" />
      <stop
         id="stop8994"
         offset="0.5"
         style="stop-color:#c0bfbb;stop-opacity:1;" />
      <stop
         id="stop7214"
         offset="1"
         style="stop-color:#798088;stop-opacity:1;" />
    </linearGradient>
    <linearGradient
       id="linearGradient12594">
      <stop
         id="stop12596"
         offset="0"
         style="stop-color:#e9b551;stop-opacity:1;" />
      <stop
         id="stop12598"
         offset="1"
         style="stop-color:#e9b551;stop-opacity:0;" />
    </linearGradient>
    <linearGradient
       id="linearGradient5316">
      <stop
         style="stop-color:#c0bfbb;stop-opacity:1;"
         offset="0"
         id="stop5320" />
      <stop
         style="stop-color:#798088;stop-opacity:1;"
         offset="1"
         id="stop5322" />
    </linearGradient>
    <linearGradient
       id="linearGradient9863">
      <stop
         style="stop-color:#2f445a;stop-opacity:1;"
         offset="0"
         id="stop9865" />
      <stop
         style="stop-color:#415f7c;stop-opacity:1"
         offset="1"
         id="stop9867" />
    </linearGradient>
    <linearGradient
       id="linearGradient12336">
      <stop
         id="stop12338"
         offset="0"
         style="stop-color:#ff6e00;stop-opacity:1;" />
      <stop
         id="stop12340"
         offset="1"
         style="stop-color:#eb2600;stop-opacity:1;" />
    </linearGradient>
    <linearGradient
       id="linearGradient5362">
      <stop
         style="stop-color:#ffffff;stop-opacity:1;"
         offset="0"
         id="stop5364" />
      <stop
         style="stop-color:#ffffff;stop-opacity:0;"
         offset="1"
         id="stop5366" />
    </linearGradient>
    <linearGradient
       id="linearGradient5439">
      <stop
         style="stop-color:#ffffff;stop-opacity:1;"
         offset="0"
         id="stop5441" />
      <stop
         style="stop-color:#000000;stop-opacity:1;"
         offset="1"
         id="stop5443" />
    </linearGradient>
    <linearGradient
       inkscape:collect="always"
       xlink:href="#linearGradient5439"
       id="linearGradient13309"
       gradientUnits="userSpaceOnUse"
       x1="499.90704"
       y1="953.39532"
       x2="652.75177"
       y2="1116.9413"
       gradientTransform="matrix(2.6765239,0,0,2.6765239,-1298.6765,-2514.903)" />
    <linearGradient
       inkscape:collect="always"
       id="linearGradient5398">
      <stop
         style="stop-color:#87c6ff;stop-opacity:1;"
         offset="0"
         id="stop5400" />
      <stop
         style="stop-color:#87c6ff;stop-opacity:0"
         offset="1"
         id="stop5402" />
    </linearGradient>
    <linearGradient
       inkscape:collect="always"
       xlink:href="#linearGradient5398"
       id="linearGradient13322"
       gradientUnits="userSpaceOnUse"
       x1="500.87799"
       y1="948.11993"
       x2="500.87799"
       y2="953.17468"
       gradientTransform="matrix(2.6765239,0,0,2.6765239,-1298.6765,-2514.903)" />
    <linearGradient
       id="linearGradient5344">
      <stop
         style="stop-color:#000000;stop-opacity:1;"
         offset="0"
         id="stop5346" />
      <stop
         style="stop-color:#000000;stop-opacity:0;"
         offset="1"
         id="stop5348" />
    </linearGradient>
    <linearGradient
       inkscape:collect="always"
       xlink:href="#linearGradient5344"
       id="linearGradient13314"
       gradientUnits="userSpaceOnUse"
       x1="544.89001"
       y1="919.05762"
       x2="506.01498"
       y2="969.80762"
       gradientTransform="translate(-485.21014,-859.4386)" />
    <linearGradient
       id="linearGradient8702">
      <stop
         id="stop8704"
         offset="0"
         style="stop-color:#c0bfbb;stop-opacity:1;" />
      <stop
         id="stop8706"
         offset="1"
         style="stop-color:#798088;stop-opacity:1;" />
    </linearGradient>
    <linearGradient
       inkscape:collect="always"
       xlink:href="#linearGradient8702"
       id="linearGradient13316"
       gradientUnits="userSpaceOnUse"
       gradientTransform="matrix(2.6765239,0,0,2.6765239,-1779.5422,-994.63744)"
       x1="700.13062"
       y1="378.86951"
       x2="707.80457"
       y2="395.74899" />
    <inkscape:perspective
       sodipodi:type="inkscape:persp3d"
       inkscape:vp_x="0 : 526.18109 : 1"
       inkscape:vp_y="0 : 1000 : 0"
       inkscape:vp_z="744.09448 : 526.18109 : 1"
       inkscape:persp3d-origin="372.04724 : 350.78739 : 1"
       id="perspective10" />
    <linearGradient
       inkscape:collect="always"
       xlink:href="#linearGradient8702"
       id="linearGradient3798"
       x1="234.28261"
       y1="51.554348"
       x2="263.10869"
       y2="51.554348"
       gradientUnits="userSpaceOnUse" />
  </defs>
  <sodipodi:namedview
     id="base"
     pagecolor="#ffffff"
     bordercolor="#666666"
     borderopacity="1.0"
     inkscape:pageopacity="0.0"
     inkscape:pageshadow="2"
     inkscape:zoom="3.5384616"
     inkscape:cx="69.345303"
     inkscape:cy="66.151634"
     inkscape:document-units="px"
     inkscape:current-layer="layer1"
     showgrid="false"
     inkscape:showpageshadow="false"
     inkscape:window-width="1024"
     inkscape:window-height="713"
     inkscape:window-x="0"
     inkscape:window-y="0"
     showguides="true"
     inkscape:guide-bbox="true"
     inkscape:window-maximized="0" />
  <metadata
     id="metadata7">
    <rdf:RDF>
      <cc:Work
         rdf:about="">
        <dc:format>image/svg+xml</dc:format>
        <dc:type
           rdf:resource="http://purl.org/dc/dcmitype/StillImage" />
      </cc:Work>
    </rdf:RDF>
  </metadata>
  <g
     inkscape:label="Capa 1"
     inkscape:groupmode="layer"
     id="layer1">
    <path
       inkscape:export-ydpi="57.964222"
       inkscape:export-xdpi="57.964222"
       inkscape:export-filename="/home/dafeba/DCV/tallerD/bocetos/08-09-22-hastaahora.png"
       style="fill:url(#linearGradient8447);fill-opacity:1;stroke:none;display:inline"
       d="m 32.447791,67.680974 c 0,8.97484 1.059529,37.979576 -4.751392,38.888986 L 14.211912,86.531732 10.988923,85.947902 C 4.911982,85.262257 1.910368,77.578572 1.910368,67.373013 c 0,-10.205559 3.032555,-18.138018 9.803705,-18.165747 l 3.037025,-0.12957 17.20523,-20.366233 c 6.351471,0.515204 0.491463,30.054545 0.491463,38.969511 z"
       id="path8425"
       sodipodi:nodetypes="cccczcccz"
       inkscape:connector-curvature="0" />
    <path
       sodipodi:nodetypes="ccccc"
       id="path8427"
       d="M 27.696399,106.56996 L 14.211912,86.531732 C 7.3765253,75.613334 8.6946063,57.08938 14.751098,49.077696 L 31.956328,28.711463 C 24.288302,43.375281 21.407961,92.063705 27.696399,106.56996 z"
       style="fill:url(#linearGradient8449);fill-opacity:1;stroke:none;stroke-width:0.5;stroke-linecap:round;stroke-linejoin:round;stroke-miterlimit:4;stroke-opacity:0.30041151;display:inline"
       inkscape:export-filename="/home/dafeba/DCV/tallerD/bocetos/08-09-22-hastaahora.png"
       inkscape:export-xdpi="57.964222"
       inkscape:export-ydpi="57.964222" />
    <path
       style="fill:url(#linearGradient8453);fill-opacity:1;stroke:none;display:inline"
       d="M 88.68199,68.198855 C 88.90012,95.957352 74.34492,114.64179 55.56429,117.743 34.99734,121.13916 16.31646,101.76155 16.31646,70.514904 c 0,-31.358654 19.37303,-53.298174 39.36158,-51.531133 17.53685,1.550269 32.7842,21.236798 33.00395,49.215084 z"
       id="path8431"
       sodipodi:nodetypes="cszsz"
       inkscape:export-filename="/home/dafeba/DCV/tallerD/bocetos/08-09-22-hastaahora.png"
       inkscape:export-xdpi="57.964222"
       inkscape:export-ydpi="57.964222"
       inkscape:connector-curvature="0" />
    <path
       sodipodi:nodetypes="cszsz"
       id="path8433"
       d="M 84.125472,68.247112 C 84.31845,92.833233 71.426972,109.38237 54.792376,112.12918 C 36.576035,115.13719 20.808768,97.974086 20.808768,70.298481 C 20.808768,42.523665 37.182027,23.172664 54.893281,24.656556 C 71.281637,26.029666 83.930889,43.466363 84.125472,68.247112 z"
       style="fill:url(#linearGradient8455);fill-opacity:1;stroke:none;stroke-width:0.5;stroke-linecap:round;stroke-linejoin:round;stroke-miterlimit:4;stroke-opacity:0.30041151;display:inline"
       inkscape:export-filename="/home/dafeba/DCV/tallerD/bocetos/08-09-22-hastaahora.png"
       inkscape:export-xdpi="57.964222"
       inkscape:export-ydpi="57.964222" />
    <path
       style="fill:url(#linearGradient8457);fill-opacity:1;stroke:none;stroke-width:0.5;stroke-linecap:round;stroke-linejoin:round;stroke-miterlimit:4;stroke-opacity:0.30041151;display:inline"
       d="M 61.27117,68.143611 C 60.868085,81.361732 52.555338,94.510583 43.342475,95.570219 C 32.371537,96.832013 23.629289,84.453117 24.118504,68.413431 C 24.610395,52.285483 33.718846,40.147099 44.651027,41.202131 C 53.969345,42.110597 61.671578,55.013763 61.27117,68.143611 z"
       id="path8435"
       sodipodi:nodetypes="cszsz"
       inkscape:export-filename="/home/dafeba/DCV/tallerD/bocetos/08-09-22-hastaahora.png"
       inkscape:export-xdpi="57.964222"
       inkscape:export-ydpi="57.964222" />
    <path
       sodipodi:nodetypes="cszsz"
       id="path8437"
       d="M 59.761878,68.526756 C 59.421692,79.907255 52.296518,91.107812 44.52416,92.020131 C 35.269008,93.106506 27.893846,82.448534 28.306539,68.638795 C 28.721534,54.753123 36.414346,44.215362 45.628226,45.210654 C 54.066235,46.12739 60.099655,57.222269 59.761878,68.526756 z"
       style="fill:url(#radialGradient8459);fill-opacity:1;stroke:none;stroke-width:0.5;stroke-linecap:round;stroke-linejoin:round;stroke-miterlimit:4;stroke-opacity:0.30041151;display:inline"
       inkscape:export-filename="/home/dafeba/DCV/tallerD/bocetos/08-09-22-hastaahora.png"
       inkscape:export-xdpi="57.964222"
       inkscape:export-ydpi="57.964222" />
    <path
       sodipodi:nodetypes="cczccc"
       id="path8441"
       d="m 14.211912,86.531732 -3.222989,-0.58383 C 4.911982,85.262257 1.910368,77.578572 1.910368,67.373013 c 0,-10.205559 3.032555,-18.138018 9.803705,-18.165747 l 3.037025,-0.12957 c -5.985109,8.190958 -7.501092,26.65568 -0.539186,37.454036 z"
       style="fill:url(#linearGradient8463);fill-opacity:1;stroke:none;display:inline"
       inkscape:export-filename="/home/dafeba/DCV/tallerD/bocetos/08-09-22-hastaahora.png"
       inkscape:export-xdpi="57.964222"
       inkscape:export-ydpi="57.964222"
       inkscape:connector-curvature="0" />
    <path
       inkscape:export-ydpi="57.964222"
       inkscape:export-xdpi="57.964222"
       inkscape:export-filename="/home/dafeba/DCV/tallerD/bocetos/08-09-22-hastaahora.png"
       style="fill:url(#linearGradient8465);fill-opacity:1;stroke:none;stroke-width:0.5;stroke-linecap:round;stroke-linejoin:round;stroke-miterlimit:4;stroke-opacity:0.30041151;display:inline"
       d="M 59.761878,68.526756 C 59.421692,79.907255 52.296518,91.107812 44.52416,92.020131 C 35.269008,93.106506 27.893846,82.448534 28.306539,68.638795 C 28.721534,54.753123 36.414346,44.215362 45.628226,45.210654 C 54.066235,46.12739 60.099655,57.222269 59.761878,68.526756 z"
       id="path8443"
       sodipodi:nodetypes="cszsz" />
    <path
       sodipodi:nodetypes="ccccscccccsssc"
       id="path10953"
       d="m 51.964093,18.919133 c -9.919144,0.570287 -19.395725,6.82187 -26.076247,17.012976 l -11.824213,13.165794 -2.368108,0.08552 c -6.771151,0.0277 -9.746562,8.004244 -9.746535,18.20983 0,10.205559 2.985555,17.866145 9.062549,18.551817 l 2.483199,0.628019 10.084714,13.905661 c 1.244209,2.16646 2.607469,4.18598 4.103779,5.98449 l 0,0.0855 c 7.28622,8.72697 17.347702,12.93727 27.871687,11.19946 C 74.335711,114.64701 88.859868,95.921245 88.641812,68.162695 88.422043,40.184436 73.177419,20.55489 55.640406,19.004648 c -1.249267,-0.110461 -2.43644,-0.156791 -3.676313,-0.08552 z"
       style="fill:none;stroke:url(#linearGradient10955);stroke-width:2.67652392;stroke-linecap:round;stroke-linejoin:round;stroke-miterlimit:4;stroke-opacity:1;stroke-dasharray:none;display:inline"
       inkscape:export-filename="/home/dafeba/DCV/tallerD/bocetos/08-09-22-hastaahora.png"
       inkscape:export-xdpi="57.964222"
       inkscape:export-ydpi="57.964222"
       inkscape:connector-curvature="0" />
    <path
       style="fill:#c2e3ff;fill-opacity:1;fill-rule:evenodd;stroke:#000000;stroke-width:2.67652392;stroke-linecap:round;stroke-linejoin:miter;stroke-miterlimit:4;stroke-dasharray:none;stroke-opacity:1;display:inline"
       d="M 79.745854,4.5178014 C 78.198287,6.4566218 78.373064,9.2530004 80.150009,10.984042 L 95.103212,25.937273 L 80.08256,40.957845 C 78.18544,42.855072 78.18544,45.93104 80.08256,47.828267 C 81.97968,49.725441 85.055809,49.725468 86.952929,47.828267 L 101.97358,32.807669 L 116.92679,47.760899 C 118.10553,49.139202 119.94564,49.733872 121.7092,49.310125 C 123.47249,48.886271 124.85519,47.503632 125.27888,45.740204 C 125.70257,43.976749 125.10812,42.136666 123.72971,40.957845 L 108.7765,26.004641 L 123.79716,10.984042 C 125.69428,9.0868418 125.69428,6.0108467 123.79716,4.1136463 C 121.90004,2.2164458 118.82391,2.2164458 116.92679,4.1136463 L 101.90613,19.134245 L 86.952929,4.1810144 C 85.990184,3.1939391 84.625692,2.7021278 83.248353,2.7664982 C 81.871014,2.8308686 80.612244,3.4452379 79.745854,4.5178014 z"
       id="path8515"
       inkscape:export-filename="/home/dafeba/DCV/tallerD/bocetos/08-09-22-hastaahora.png"
       inkscape:export-xdpi="57.964222"
       inkscape:export-ydpi="57.964222" />
    <path
       inkscape:export-ydpi="57.964222"
       inkscape:export-xdpi="57.964222"
       inkscape:export-filename="/home/dafeba/DCV/tallerD/bocetos/08-09-22-hastaahora.png"
       style="fill:url(#linearGradient8565);fill-opacity:1;fill-rule:evenodd;stroke:none;stroke-width:3.16552567000000007;stroke-linecap:round;stroke-linejoin:miter;stroke-miterlimit:4;stroke-dasharray:none;stroke-opacity:1;display:inline"
       d="M 29.656769,86.239713 C 29.078569,86.964093 29.143869,88.008873 29.807769,88.655623 L 35.394569,94.242433 L 29.782569,99.854403 C 29.073769,100.56324 29.073769,101.71248 29.782569,102.42132 C 30.491369,103.13014 31.640669,103.13015 32.349469,102.42132 L 37.961469,96.809343 L 43.548269,102.39615 C 43.988669,102.91111 44.676169,103.13329 45.335069,102.97497 C 45.993869,102.81661 46.510469,102.30003 46.668769,101.64118 C 46.827069,100.98232 46.604969,100.29483 46.089969,99.854403 L 40.503169,94.267603 L 46.115169,88.655623 C 46.823969,87.946793 46.823969,86.797543 46.115169,86.088713 C 45.406369,85.379883 44.257069,85.379883 43.548269,86.088713 L 37.936269,91.700693 L 32.349469,86.113883 C 31.989769,85.745093 31.479969,85.561343 30.965369,85.585393 C 30.450769,85.609443 29.980469,85.838983 29.656769,86.239713 z"
       id="path8517"
       transform="matrix(2.6765239,0,0,2.6765239,-2.5434782,-217.56245)" />
    <path
       id="path8519"
       d="M 79.745854,4.5178014 C 78.198287,6.4566218 78.373064,9.2530004 80.150009,10.984042 L 95.103212,25.937273 L 80.08256,40.957845 C 78.18544,42.855072 78.18544,45.93104 80.08256,47.828267 C 81.97968,49.725441 85.055809,49.725468 86.952929,47.828267 L 101.97358,32.807669 L 116.92679,47.760899 C 118.10553,49.139202 119.94564,49.733872 121.7092,49.310125 C 123.47249,48.886271 124.85519,47.503632 125.27888,45.740204 C 125.70257,43.976749 125.10812,42.136666 123.72971,40.957845 L 108.7765,26.004641 L 123.79716,10.984042 C 125.69428,9.0868418 125.69428,6.0108467 123.79716,4.1136463 C 121.90004,2.2164458 118.82391,2.2164458 116.92679,4.1136463 L 101.90613,19.134245 L 86.952929,4.1810144 C 85.990184,3.1939391 84.625692,2.7021278 83.248353,2.7664982 C 81.871014,2.8308686 80.612244,3.4452379 79.745854,4.5178014 z"
       style="fill:#ff0000;fill-opacity:1;fill-rule:evenodd;stroke:none;stroke-width:3.16552567;stroke-linecap:round;stroke-linejoin:miter;stroke-miterlimit:4;stroke-dasharray:none;stroke-opacity:1;display:inline"
       inkscape:export-filename="/home/dafeba/DCV/tallerD/bocetos/08-09-22-hastaahora.png"
       inkscape:export-xdpi="57.964222"
       inkscape:export-ydpi="57.964222" />
  </g>
</svg>
