<?xml version="1.0" encoding="UTF-8" standalone="no"?>
<!-- Created with Inkscape (http://www.inkscape.org/) -->

<svg
   xmlns:dc="http://purl.org/dc/elements/1.1/"
   xmlns:cc="http://creativecommons.org/ns#"
   xmlns:rdf="http://www.w3.org/1999/02/22-rdf-syntax-ns#"
   xmlns:svg="http://www.w3.org/2000/svg"
   xmlns="http://www.w3.org/2000/svg"
   xmlns:xlink="http://www.w3.org/1999/xlink"
   xmlns:sodipodi="http://sodipodi.sourceforge.net/DTD/sodipodi-0.dtd"
   xmlns:inkscape="http://www.inkscape.org/namespaces/inkscape"
   width="136.53334"
   height="136.53334"
   id="svg17172"
   version="1.1"
   inkscape:version="0.92.1 r15371"
   sodipodi:docname="battery-caution-symbolic.svg">
  <defs
     id="defs17174">
    <linearGradient
       id="linearGradient5316-0-7-6">
      <stop
         style="stop-color:#c0bfbb;stop-opacity:1;"
         offset="0"
         id="stop5320-8-1-0" />
      <stop
         style="stop-color:#798088;stop-opacity:1;"
         offset="1"
         id="stop5322-1-3-0" />
    </linearGradient>
    <linearGradient
       inkscape:collect="always"
       xlink:href="#linearGradient5316-0-7-6"
       id="linearGradient6375"
       x1="5.7406054"
       y1="6.1640143"
       x2="121.45432"
       y2="122.33156"
       gradientUnits="userSpaceOnUse" />
    <linearGradient
       inkscape:collect="always"
       xlink:href="#linearGradient5316-0-7-6"
       id="linearGradient1026"
       gradientUnits="userSpaceOnUse"
       gradientTransform="translate(0,3e-5)"
       x1="2.6289308"
       y1="1053.908"
       x2="120.98979"
       y2="1077.0596" />
    <linearGradient
       inkscape:collect="always"
       xlink:href="#linearGradient5316-0-7-6"
       id="linearGradient954"
       gradientUnits="userSpaceOnUse"
       gradientTransform="matrix(1.0666667,0,0,1.0666667,0,985.98631)"
       x1="4.5261474"
       y1="3.1567914"
       x2="121.60794"
       y2="122.35479" />
    <linearGradient
       inkscape:collect="always"
       xlink:href="#linearGradient5316-0-7-6"
       id="linearGradient7298"
       x1="71.15234"
       y1="1018.9326"
       x2="135.6875"
       y2="1018.9326"
       gradientUnits="userSpaceOnUse" />
    <linearGradient
       inkscape:collect="always"
       xlink:href="#linearGradient5316-0-7-6"
       id="linearGradient7300"
       x1="92.832806"
       y1="1018.5179"
       x2="116.38837"
       y2="1018.5179"
       gradientUnits="userSpaceOnUse" />
  </defs>
  <sodipodi:namedview
     id="base"
     pagecolor="#ffffff"
     bordercolor="#666666"
     borderopacity="1.0"
     inkscape:pageopacity="0.0"
     inkscape:pageshadow="2"
     inkscape:zoom="1.979899"
     inkscape:cx="53.40652"
     inkscape:cy="68.007261"
     inkscape:document-units="px"
     inkscape:current-layer="layer1"
     showgrid="false"
     inkscape:showpageshadow="false"
     inkscape:window-width="1366"
     inkscape:window-height="714"
     inkscape:window-x="0"
     inkscape:window-y="26"
     inkscape:window-maximized="1"
     showguides="true"
     inkscape:guide-bbox="true" />
  <metadata
     id="metadata17177">
    <rdf:RDF>
      <cc:Work
         rdf:about="">
        <dc:format>image/svg+xml</dc:format>
        <dc:type
           rdf:resource="http://purl.org/dc/dcmitype/StillImage" />
        <dc:title />
      </cc:Work>
    </rdf:RDF>
  </metadata>
  <g
     inkscape:label="Capa 1"
     inkscape:groupmode="layer"
     id="layer1"
     transform="translate(0,-985.98631)">
    <path
       inkscape:connector-curvature="0"
       id="path959"
       d="m 110.80932,993.09493 c -3.87115,-0.89505 -7.73613,1.51398 -8.63512,5.38425 l -3.369977,23.49562 c -0.683854,2.6079 0.898655,5.2718 3.516027,5.9187 2.61736,0.647 5.25686,-0.9734 5.86671,-3.5996 l 7.96411,-22.3601 c 1.02911,-3.92589 -1.38761,-7.92468 -5.34175,-8.83887 z m -8.95976,36.70297 a 7.2718611,7.2718611 0 0 0 -8.804699,5.3148 7.2718611,7.2718611 0 0 0 5.315254,8.8028 7.2718611,7.2718611 0 0 0 8.802395,-5.3133 7.2718611,7.2718611 0 0 0 -5.31295,-8.8043 z"
       style="opacity:1;fill:url(#linearGradient7300);fill-opacity:1;stroke:none;stroke-width:3.39999986;stroke-linecap:round;stroke-linejoin:round;stroke-miterlimit:4;stroke-dasharray:none;stroke-opacity:0.59192822" />
    <path
       inkscape:connector-curvature="0"
       style="color:#000000;font-style:normal;font-variant:normal;font-weight:normal;font-stretch:normal;font-size:medium;line-height:normal;font-family:sans-serif;font-variant-ligatures:normal;font-variant-position:normal;font-variant-caps:normal;font-variant-numeric:normal;font-variant-alternates:normal;font-feature-settings:normal;text-indent:0;text-align:start;text-decoration:none;text-decoration-line:none;text-decoration-style:solid;text-decoration-color:#000000;letter-spacing:normal;word-spacing:normal;text-transform:none;writing-mode:lr-tb;direction:ltr;text-orientation:mixed;dominant-baseline:auto;baseline-shift:baseline;text-anchor:start;white-space:normal;shape-padding:0;clip-rule:nonzero;display:inline;overflow:visible;visibility:visible;opacity:1;isolation:auto;mix-blend-mode:normal;color-interpolation:sRGB;color-interpolation-filters:linearRGB;solid-color:#000000;solid-opacity:1;vector-effect:none;fill:url(#linearGradient1026);fill-opacity:1;fill-rule:nonzero;stroke:none;stroke-width:21;stroke-linecap:butt;stroke-linejoin:miter;stroke-miterlimit:4;stroke-dasharray:none;stroke-dashoffset:0;stroke-opacity:1;color-rendering:auto;image-rendering:auto;shape-rendering:auto;text-rendering:auto;enable-background:accumulate"
       d="m 66.51953,999.3027 c -16.68911,-0.1202 -34.13487,11.3895 -42.64062,28.9765 -4.71744,9.7539 -6.81243,23.8435 -3.78907,39.8985 a 1.70017,1.70017 0 0 0 0.0391,0.168 c 5.0311,17.0445 14.14897,28.6344 29.33203,33.6523 1.23934,0.4096 2.45332,0.7535 3.6582,1.0664 0.51746,0.1373 1.03517,0.2678 1.55469,0.3848 0.37008,0.084 0.73781,0.156 1.10547,0.2304 0.29097,0.057 0.58177,0.1131 0.87304,0.1641 12.12497,2.2122 23.10204,-0.8436 37.54688,-10.4434 a 1.70017,1.70017 0 0 0 0.67187,-0.8867 c 0.0795,-0.055 0.16283,-0.1073 0.24219,-0.1621 l -0.16016,-0.2324 a 1.70017,1.70017 0 0 0 -0.30859,-1.1192 l -12.59375,-17.746 a 1.70017,1.70017 0 1 0 -2.77148,1.9687 l 1.19726,1.6875 c -6.94481,4.6421 -11.35109,6.7647 -17.48828,6.5449 -3.05828,-0.1094 -5.94578,-0.6036 -8.60742,-1.7168 l -2.83984,6.8789 a 1.20012,1.20012 0 0 0 -0.68164,-0.205 1.20012,1.20012 0 0 0 -1.09766,0.7421 l -3.41211,7.9688 c -11.51843,-5.2109 -18.54684,-14.9528 -22.89063,-29.5332 l 7.82227,-2.4336 a 1.20012,1.20012 0 0 0 -0.39453,-2.3496 1.20012,1.20012 0 0 0 -0.31836,0.059 l -7.5293,2.3398 c -2.27717,-14.4271 -0.20508,-26.9567 3.90039,-35.4453 0.0988,-0.2041 0.20529,-0.4032 0.30664,-0.6055 l 7.51368,3.9278 a 1.20012,1.20012 0 1 0 1.11132,-2.127 l -7.50195,-3.9218 c 8.066,-14.3162 22.69343,-23.5859 36.46094,-24.1973 l 0.23437,19.7129 a 1.7003192,1.7003192 0 1 0 3.40039,-0.041 l -0.25781,-21.5254 a 1.70017,1.70017 0 0 0 -1.6875,-1.6797 z"
       id="path1024" />
    <path
       style="color:#000000;font-style:normal;font-variant:normal;font-weight:normal;font-stretch:normal;font-size:medium;line-height:normal;font-family:sans-serif;font-variant-ligatures:normal;font-variant-position:normal;font-variant-caps:normal;font-variant-numeric:normal;font-variant-alternates:normal;font-feature-settings:normal;text-indent:0;text-align:start;text-decoration:none;text-decoration-line:none;text-decoration-style:solid;text-decoration-color:#000000;letter-spacing:normal;word-spacing:normal;text-transform:none;writing-mode:lr-tb;direction:ltr;text-orientation:mixed;dominant-baseline:auto;baseline-shift:baseline;text-anchor:start;white-space:normal;shape-padding:0;clip-rule:nonzero;display:inline;overflow:visible;visibility:visible;opacity:1;isolation:auto;mix-blend-mode:normal;color-interpolation:sRGB;color-interpolation-filters:linearRGB;solid-color:#000000;solid-opacity:1;vector-effect:none;fill:url(#linearGradient7298);fill-opacity:1;fill-rule:nonzero;stroke:none;stroke-width:3.5;stroke-linecap:butt;stroke-linejoin:miter;stroke-miterlimit:4;stroke-dasharray:none;stroke-dashoffset:0;stroke-opacity:1;color-rendering:auto;image-rendering:auto;shape-rendering:auto;text-rendering:auto;enable-background:accumulate"
       d="m 76.5957,986.66602 c -2.98503,0 -5.44336,2.45638 -5.44336,5.4414 v 53.64848 c 0,2.985 2.45833,5.4433 5.44336,5.4433 h 53.64844 c 2.98503,0 5.44336,-2.4583 5.44336,-5.4433 v -53.64848 c 0,-2.98502 -2.45833,-5.4414 -5.44336,-5.4414 z m 0,3.5 h 53.64844 c 1.10663,0 1.94336,0.83489 1.94336,1.9414 v 53.64848 c 0,1.1065 -0.83673,1.9433 -1.94336,1.9433 H 76.5957 c -1.10663,0 -1.94336,-0.8368 -1.94336,-1.9433 v -53.64848 c 0,-1.10651 0.83673,-1.9414 1.94336,-1.9414 z"
       id="rect901"
       inkscape:connector-curvature="0" />
    <path
       inkscape:connector-curvature="0"
       style="display:inline;fill:url(#linearGradient954);fill-opacity:1;stroke:none;stroke-width:1.06666672"
       d="m 65.771484,988.02342 c -0.714869,0.0115 -1.438405,0.0426 -2.171875,0.0957 -4.366249,0.25662 -8.669757,1.13008 -12.824218,2.5586 -3.589627,1.4687 -6.327487,2.73113 -9.742188,3.9414 -21.837088,8.31118 -36.44658,30.35238 -36.423828,57.16018 0.019307,22.3726 10.621665,44.669 27.556641,53.8398 1.33056,0.7206 2.792747,1.3709 4.333984,2 0.03627,0.015 0.06334,0.053 0.09961,0.068 9.943552,6.1794 22.654298,8.4061 37.433594,6 0.05589,-0.011 0.110831,-0.021 0.166016,-0.033 26.47058,-6.1757 44.38657,-29.1434 44.20117,-61.2676 7e-5,-0.011 7e-5,-0.023 0,-0.033 -0.0156,-0.9884 -0.0596,-1.9428 -0.0977,-2.9043 h -5.33398 c 0.0397,0.9696 0.0815,1.9357 0.0977,2.9375 1.9e-4,0.012 -1.8e-4,0.022 0,0.033 0.16129,30.082 -15.820834,50.3061 -39.900393,56 h -0.09961 c -0.02444,0 -0.04195,0.028 -0.06641,0.033 -18.383858,2.9498 -32.135672,-1.6433 -41.566403,-11.9668 -9.460437,-10.3563 -17.137026,-23.8498 -16.892578,-45.0371 0.42436,-23.0325 13.737758,-42.3914 30.02539,-51.84766 6.196045,-3.59729 12.822729,-5.75988 19.333985,-6.14843 2.89048,-0.17503 6.021739,0.0277 9.001953,0.46875 V 992.107 c 0,-1.41711 0.799124,-2.62658 1.964844,-3.24609 -2.994537,-0.55003 -5.966417,-0.88827 -9.095704,-0.83789 z"
       id="path940" />
  </g>
</svg>
