<?xml version="1.0" encoding="UTF-8" standalone="no"?>
<!-- Created with Inkscape (http://www.inkscape.org/) -->

<svg
   xmlns:dc="http://purl.org/dc/elements/1.1/"
   xmlns:cc="http://creativecommons.org/ns#"
   xmlns:rdf="http://www.w3.org/1999/02/22-rdf-syntax-ns#"
   xmlns:svg="http://www.w3.org/2000/svg"
   xmlns="http://www.w3.org/2000/svg"
   xmlns:xlink="http://www.w3.org/1999/xlink"
   xmlns:sodipodi="http://sodipodi.sourceforge.net/DTD/sodipodi-0.dtd"
   xmlns:inkscape="http://www.inkscape.org/namespaces/inkscape"
   width="128"
   height="128"
   id="svg13448"
   version="1.1"
   inkscape:version="0.48.3.1 r9886"
   sodipodi:docname="Documento nuevo 2">
  <defs
     id="defs13450">
    <linearGradient
       id="linearGradient9863">
      <stop
         style="stop-color:#2f445a;stop-opacity:1;"
         offset="0"
         id="stop9865" />
      <stop
         style="stop-color:#415f7c;stop-opacity:1"
         offset="1"
         id="stop9867" />
    </linearGradient>
    <linearGradient
       id="linearGradient14753">
      <stop
         style="stop-color:#ffffff;stop-opacity:1;"
         offset="0"
         id="stop14755" />
      <stop
         style="stop-color:#000000;stop-opacity:1;"
         offset="1"
         id="stop14757" />
    </linearGradient>
    <linearGradient
       id="linearGradient9590">
      <stop
         style="stop-color:#ffffff;stop-opacity:0.0000000;"
         offset="0.0000000"
         id="stop9591" />
      <stop
         style="stop-color:#fff;stop-opacity:1;"
         offset="1"
         id="stop9592" />
    </linearGradient>
    <linearGradient
       id="linearGradient14705">
      <stop
         style="stop-color:#e9b551;stop-opacity:1;"
         offset="0"
         id="stop14707" />
      <stop
         style="stop-color:#b48739;stop-opacity:1;"
         offset="1"
         id="stop14709" />
    </linearGradient>
    <linearGradient
       id="linearGradient8702">
      <stop
         id="stop8704"
         offset="0"
         style="stop-color:#aac736;stop-opacity:1;" />
      <stop
         id="stop8706"
         offset="1"
         style="stop-color:#5d8b2c;stop-opacity:1;" />
    </linearGradient>
    <linearGradient
       inkscape:collect="always"
       xlink:href="#linearGradient5344"
       id="linearGradient53710"
       gradientUnits="userSpaceOnUse"
       gradientTransform="translate(-367.16459,-121.78503)"
       x1="476.06528"
       y1="920.02252"
       x2="534.03339"
       y2="991.27252" />
    <linearGradient
       id="linearGradient5344">
      <stop
         style="stop-color:#000000;stop-opacity:1;"
         offset="0"
         id="stop5346" />
      <stop
         style="stop-color:#000000;stop-opacity:0;"
         offset="1"
         id="stop5348" />
    </linearGradient>
    <filter
       color-interpolation-filters="sRGB"
       inkscape:collect="always"
       id="filter4494">
      <feGaussianBlur
         inkscape:collect="always"
         stdDeviation="0.43670245"
         id="feGaussianBlur4496" />
    </filter>
    <linearGradient
       inkscape:collect="always"
       xlink:href="#linearGradient9863"
       id="linearGradient49915"
       gradientUnits="userSpaceOnUse"
       gradientTransform="matrix(2.6666667,0,0,2.6666667,-2093.8938,152.52595)"
       x1="810.84375"
       y1="336.11224"
       x2="811.0625"
       y2="289.8125" />
    <linearGradient
       inkscape:collect="always"
       xlink:href="#linearGradient5439"
       id="linearGradient52695"
       gradientUnits="userSpaceOnUse"
       gradientTransform="matrix(4.5320152,0.04568701,0,4.5320152,-2234.9623,-3455.1203)"
       x1="473.4021"
       y1="939.6684"
       x2="515.30975"
       y2="978.38062" />
    <linearGradient
       id="linearGradient5439">
      <stop
         style="stop-color:#ffffff;stop-opacity:1;"
         offset="0"
         id="stop5441" />
      <stop
         style="stop-color:#000000;stop-opacity:1;"
         offset="1"
         id="stop5443" />
    </linearGradient>
    <linearGradient
       inkscape:collect="always"
       xlink:href="#linearGradient5439"
       id="linearGradient52698"
       gradientUnits="userSpaceOnUse"
       gradientTransform="matrix(4.6643597,0.0470212,0,4.6643597,-2300.9092,-3583.5598)"
       x1="528.23529"
       y1="987.03857"
       x2="489.7879"
       y2="956.6394" />
    <linearGradient
       inkscape:collect="always"
       xlink:href="#linearGradient5439"
       id="linearGradient52701"
       gradientUnits="userSpaceOnUse"
       gradientTransform="matrix(4.6643597,0.0470212,0,4.6643597,-2300.9092,-3583.8691)"
       x1="491.99448"
       y1="955.10822"
       x2="556.50537"
       y2="1020.8551" />
    <linearGradient
       inkscape:collect="always"
       xlink:href="#linearGradient5439"
       id="linearGradient52704"
       gradientUnits="userSpaceOnUse"
       gradientTransform="matrix(2.6666667,0,0,2.6666667,-1294.3062,-1580.8665)"
       x1="520.0495"
       y1="980.01654"
       x2="505.46637"
       y2="979.97235" />
    <linearGradient
       inkscape:collect="always"
       xlink:href="#linearGradient5439"
       id="linearGradient52707"
       gradientUnits="userSpaceOnUse"
       gradientTransform="matrix(4.6613573,-0.12034501,0.16733592,4.6630443,-2465.5498,-3495.9478)"
       x1="510.13104"
       y1="987.76733"
       x2="509.42908"
       y2="983.16199" />
    <linearGradient
       inkscape:collect="always"
       xlink:href="#linearGradient5439"
       id="linearGradient52710"
       gradientUnits="userSpaceOnUse"
       gradientTransform="matrix(4.6613573,-0.12034501,0.16733592,4.6630443,-2465.5196,-3492.8521)"
       x1="515.25647"
       y1="980.49353"
       x2="497.72803"
       y2="991.33789" />
    <linearGradient
       inkscape:collect="always"
       xlink:href="#linearGradient5439"
       id="linearGradient52713"
       gradientUnits="userSpaceOnUse"
       gradientTransform="matrix(4.6643597,0.0470212,0,4.6643597,-2300.9092,-3583.8691)"
       x1="493.79773"
       y1="966.80334"
       x2="479.87286"
       y2="1015.4691" />
    <linearGradient
       inkscape:collect="always"
       xlink:href="#linearGradient8702"
       id="linearGradient13725"
       gradientUnits="userSpaceOnUse"
       gradientTransform="translate(-195.98356,-62.077331)"
       x1="498.56845"
       y1="945.46436"
       x2="513.12256"
       y2="990.0448" />
    <linearGradient
       inkscape:collect="always"
       xlink:href="#linearGradient14705"
       id="linearGradient13727"
       gradientUnits="userSpaceOnUse"
       gradientTransform="translate(-195.98356,-62.077331)"
       x1="493.28799"
       y1="968.19873"
       x2="509.46121"
       y2="982.60004" />
    <linearGradient
       inkscape:collect="always"
       xlink:href="#linearGradient14705"
       id="linearGradient13729"
       gradientUnits="userSpaceOnUse"
       gradientTransform="translate(-195.98356,-62.077331)"
       x1="517.16412"
       y1="967.74622"
       x2="532.38782"
       y2="980.87677" />
    <linearGradient
       inkscape:collect="always"
       xlink:href="#linearGradient9590"
       id="linearGradient13731"
       gradientUnits="userSpaceOnUse"
       gradientTransform="translate(-195.98356,-62.077331)"
       x1="511.72726"
       y1="984.45819"
       x2="498.23068"
       y2="939.2326" />
    <linearGradient
       inkscape:collect="always"
       xlink:href="#linearGradient14753"
       id="linearGradient13733"
       gradientUnits="userSpaceOnUse"
       gradientTransform="translate(-195.98356,-62.077331)"
       x1="492.41443"
       y1="955.1969"
       x2="492.30228"
       y2="967.10236" />
    <linearGradient
       inkscape:collect="always"
       xlink:href="#linearGradient14753"
       id="linearGradient13735"
       gradientUnits="userSpaceOnUse"
       gradientTransform="translate(-195.98356,-62.077331)"
       x1="503.77573"
       y1="955.68188"
       x2="503.77573"
       y2="966.539" />
    <linearGradient
       inkscape:collect="always"
       xlink:href="#linearGradient14753"
       id="linearGradient13737"
       gradientUnits="userSpaceOnUse"
       gradientTransform="translate(-195.98356,-62.077331)"
       x1="518.70648"
       y1="955.88062"
       x2="518.70648"
       y2="965.88147" />
    <linearGradient
       inkscape:collect="always"
       xlink:href="#linearGradient14753"
       id="linearGradient13739"
       gradientUnits="userSpaceOnUse"
       gradientTransform="translate(-195.98356,-62.077331)"
       x1="527.19702"
       y1="955.8988"
       x2="527.19702"
       y2="965.60419" />
    <linearGradient
       inkscape:collect="always"
       xlink:href="#linearGradient14753"
       id="linearGradient13741"
       gradientUnits="userSpaceOnUse"
       gradientTransform="translate(-195.98356,-62.077331)"
       x1="492.81604"
       y1="945.5072"
       x2="494.95023"
       y2="972.76233" />
    <linearGradient
       inkscape:collect="always"
       xlink:href="#linearGradient14753"
       id="linearGradient13743"
       gradientUnits="userSpaceOnUse"
       gradientTransform="translate(-195.98356,-62.077331)"
       x1="501.63544"
       y1="944.79633"
       x2="508.05038"
       y2="972.65057" />
    <linearGradient
       inkscape:collect="always"
       xlink:href="#linearGradient14753"
       id="linearGradient13745"
       gradientUnits="userSpaceOnUse"
       gradientTransform="translate(-195.98356,-62.077331)"
       x1="515.69135"
       y1="944.58105"
       x2="521.90485"
       y2="970.7879" />
    <linearGradient
       inkscape:collect="always"
       xlink:href="#linearGradient14753"
       id="linearGradient13747"
       gradientUnits="userSpaceOnUse"
       gradientTransform="translate(-195.98356,-62.077331)"
       x1="524.37054"
       y1="946.08575"
       x2="530.97644"
       y2="968.09955" />
    <linearGradient
       inkscape:collect="always"
       xlink:href="#linearGradient9863"
       id="linearGradient13749"
       gradientUnits="userSpaceOnUse"
       gradientTransform="translate(-195.98356,-102.07733)"
       x1="486.07321"
       y1="1003.7836"
       x2="532.50079"
       y2="1003.7836" />
    <linearGradient
       inkscape:collect="always"
       xlink:href="#linearGradient5344"
       id="linearGradient13776"
       gradientUnits="userSpaceOnUse"
       gradientTransform="translate(-367.16459,-121.78503)"
       x1="476.06528"
       y1="920.02252"
       x2="534.03339"
       y2="991.27252" />
    <linearGradient
       inkscape:collect="always"
       xlink:href="#linearGradient5344"
       id="linearGradient13790"
       gradientUnits="userSpaceOnUse"
       gradientTransform="translate(-367.16459,-121.78503)"
       x1="476.06528"
       y1="920.02252"
       x2="534.03339"
       y2="991.27252" />
  </defs>
  <sodipodi:namedview
     id="base"
     pagecolor="#ffffff"
     bordercolor="#666666"
     borderopacity="1.0"
     inkscape:pageopacity="0.0"
     inkscape:pageshadow="2"
     inkscape:zoom="0.7"
     inkscape:cx="361.47034"
     inkscape:cy="113.12659"
     inkscape:document-units="px"
     inkscape:current-layer="layer1"
     showgrid="false"
     inkscape:window-width="1366"
     inkscape:window-height="717"
     inkscape:window-x="0"
     inkscape:window-y="0"
     inkscape:window-maximized="1" />
  <metadata
     id="metadata13453">
    <rdf:RDF>
      <cc:Work
         rdf:about="">
        <dc:format>image/svg+xml</dc:format>
        <dc:type
           rdf:resource="http://purl.org/dc/dcmitype/StillImage" />
        <dc:title></dc:title>
      </cc:Work>
    </rdf:RDF>
  </metadata>
  <g
     inkscape:label="Capa 1"
     inkscape:groupmode="layer"
     id="layer1"
     transform="translate(0,-924.36218)">
    <path
       inkscape:connector-curvature="0"
       id="path7081"
       d="m 120.72211,1007.968 c 0.0576,6.1202 -3.33336,12.1189 -9.7944,12.9801 l -86.120291,20.1885 -15.1836802,-4.2783 c -4.84181,-1.4351 -7.17315,-7.2989 -7.28259,-13.2528 l 0.34747,-83.12489 c -0.0501,-6.24933 5.39171,-11.92149 12.5020802,-12.45712 l 10.74293,-1.31736 75.810881,5.52171 c 1.11736,-0.0408 2.39894,-0.084 3.57915,0.0771 l 11.44877,1.08584 c 1.94995,0.30382 -0.92218,12.80022 -0.92218,14.25008 l 4.87186,60.32734 z"
       style="fill:url(#linearGradient52713);fill-rule:evenodd;stroke:none;display:inline"
       sodipodi:nodetypes="ccccccccccccc"
       inkscape:export-filename="/home/dafeba/DCV/tallerD/bocetos/08-09-22-hastaahora.png"
       inkscape:export-xdpi="57.964222"
       inkscape:export-ydpi="57.964222" />
    <path
       inkscape:connector-curvature="0"
       style="fill:url(#linearGradient52710);fill-rule:evenodd;stroke:none;display:inline"
       d="m 43.423099,1045.138 c 11.488,4.1242 30.72811,2.2447 43.64088,-0.7517 8.83581,-2.0504 13.180591,-5.0624 13.282671,-7.4252 l -0.11094,-3.4401 c -10.647121,-2.5143 -27.110481,-0.7284 -38.840401,1.0457 -6.80744,0.9446 -16.75237,3.0415 -20.52357,5.3919 l -0.0213,3.5593 c 0.28349,0.5518 1.26226,1.2428 2.57344,1.6201 z"
       id="path7083"
       sodipodi:nodetypes="cscccccc"
       inkscape:export-filename="/home/dafeba/DCV/tallerD/bocetos/08-09-22-hastaahora.png"
       inkscape:export-xdpi="57.964222"
       inkscape:export-ydpi="57.964222" />
    <path
       inkscape:connector-curvature="0"
       sodipodi:nodetypes="csccc"
       id="path7085"
       d="m 43.393209,1042.042 c 12.78432,4.5366 30.72797,2.2447 43.64088,-0.7517 13.001811,-3.017 17.346371,-8.5198 9.14952,-10.7677 -10.64707,-2.5143 -23.08843,-0.826 -34.8184,0.9481 -12.3836,1.7184 -26.1791,8.21 -17.972,10.5713 z"
       style="fill:url(#linearGradient52707);fill-rule:evenodd;stroke:none;display:inline"
       inkscape:export-filename="/home/dafeba/DCV/tallerD/bocetos/08-09-22-hastaahora.png"
       inkscape:export-xdpi="57.964222"
       inkscape:export-ydpi="57.964222" />
    <path
       inkscape:connector-curvature="0"
       sodipodi:nodetypes="cccccc"
       id="path7087"
       d="m 63.544059,1026.8555 17.63715,-2.0086 -0.13254,10.5504 c -0.10266,1.8282 -12.6885,4.0626 -17.50466,2.1769 -0.35302,-0.1589 -0.56136,-0.4145 -0.75,-0.6831 l 0.75,-10.0356 z"
       style="fill:url(#linearGradient52704);fill-opacity:1;stroke:none;display:inline"
       inkscape:export-filename="/home/dafeba/DCV/tallerD/bocetos/08-09-22-hastaahora.png"
       inkscape:export-xdpi="57.964222"
       inkscape:export-ydpi="57.964222" />
    <path
       inkscape:connector-curvature="0"
       sodipodi:nodetypes="ccccccccc"
       style="fill:url(#linearGradient52701);fill-rule:evenodd;stroke:none;display:inline"
       d="m 124.79145,1013.5594 c 0.0592,6.3081 -3.43576,12.491 -10.09528,13.3787 l -85.992961,14.3211 c -7.60627,1.1034 -11.63646,-6.2811 -11.77574,-13.8609 l 0.95472,-87.92177 c -0.0517,-6.44128 4.11379,-13.13213 11.20318,-12.56267 l 85.846211,6.10774 c 6.3216,0.60216 9.97093,3.4369 9.97093,9.81872 l -0.1112,70.71908 z"
       id="path7089"
       inkscape:export-filename="/home/dafeba/DCV/tallerD/bocetos/08-09-22-hastaahora.png"
       inkscape:export-xdpi="57.964222"
       inkscape:export-ydpi="57.964222" />
    <path
       inkscape:connector-curvature="0"
       sodipodi:nodetypes="cccccc"
       id="path7091"
       d="m 23.913309,950.37368 0.0405,85.37912 96.594691,-14.9148 0.22533,-80.99632 -2.79658,-0.13307 -94.063871,10.66507 z"
       style="fill:url(#linearGradient52698);fill-opacity:1;fill-rule:evenodd;stroke:none;display:inline"
       inkscape:export-filename="/home/dafeba/DCV/tallerD/bocetos/08-09-22-hastaahora.png"
       inkscape:export-xdpi="57.964222"
       inkscape:export-ydpi="57.964222" />
    <path
       inkscape:connector-curvature="0"
       style="fill:url(#linearGradient52695);fill-opacity:1;fill-rule:evenodd;stroke:none;display:inline"
       d="m 23.994269,933.23949 -8.5e-4,99.77171 93.796511,-14.3771 0.21893,-79.01002 -94.014481,-6.38459 z"
       id="path7094"
       sodipodi:nodetypes="ccccc"
       inkscape:export-filename="/home/dafeba/DCV/tallerD/bocetos/08-09-22-hastaahora.png"
       inkscape:export-xdpi="57.964222"
       inkscape:export-ydpi="57.964222" />
    <path
       sodipodi:type="arc"
       style="fill:#c4e5ff;fill-opacity:1;stroke:#004255;stroke-width:0.69999999;stroke-linecap:round;stroke-linejoin:round;stroke-miterlimit:4;stroke-opacity:0.61450381;stroke-dasharray:none;stroke-dashoffset:0;display:inline"
       id="path7118"
       sodipodi:cx="939.5"
       sodipodi:cy="381.61218"
       sodipodi:rx="1"
       sodipodi:ry="1"
       d="m 940.5,381.61218 a 1,1 0 1 1 -2,0 1,1 0 1 1 2,0 z"
       transform="matrix(6.1513653,0,0,6.1513653,-5738.184,-1340.8631)"
       inkscape:export-filename="/home/dafeba/DCV/tallerD/bocetos/08-09-22-hastaahora.png"
       inkscape:export-xdpi="57.964222"
       inkscape:export-ydpi="57.964222" />
    <path
       transform="matrix(4.1692512,0,0,4.1692512,-3811.1661,-642.04725)"
       d="m 940.5,381.61218 a 1,1 0 1 1 -2,0 1,1 0 1 1 2,0 z"
       sodipodi:ry="1"
       sodipodi:rx="1"
       sodipodi:cy="381.61218"
       sodipodi:cx="939.5"
       id="path7120"
       style="fill:#c4e5ff;fill-opacity:1;stroke:#004255;stroke-width:0.69999999;stroke-linecap:round;stroke-linejoin:round;stroke-miterlimit:4;stroke-opacity:0.61450381;stroke-dasharray:none;stroke-dashoffset:0;display:inline"
       sodipodi:type="arc"
       inkscape:export-filename="/home/dafeba/DCV/tallerD/bocetos/08-09-22-hastaahora.png"
       inkscape:export-xdpi="57.964222"
       inkscape:export-ydpi="57.964222" />
    <path
       transform="matrix(4.9986051,0,0,4.9986051,-4623.6037,-897.52859)"
       d="m 940.5,381.61218 a 1,1 0 1 1 -2,0 1,1 0 1 1 2,0 z"
       sodipodi:ry="1"
       sodipodi:rx="1"
       sodipodi:cy="381.61218"
       sodipodi:cx="939.5"
       id="path7122"
       style="fill:#c4e5ff;fill-opacity:1;stroke:#004255;stroke-width:0.69999999;stroke-linecap:round;stroke-linejoin:round;stroke-miterlimit:4;stroke-opacity:0.61450381;stroke-dasharray:none;stroke-dashoffset:0;display:inline"
       sodipodi:type="arc"
       inkscape:export-filename="/home/dafeba/DCV/tallerD/bocetos/08-09-22-hastaahora.png"
       inkscape:export-xdpi="57.964222"
       inkscape:export-ydpi="57.964222" />
    <path
       sodipodi:type="arc"
       style="fill:#c4e5ff;fill-opacity:1;stroke:#004255;stroke-width:0.69999999;stroke-linecap:round;stroke-linejoin:round;stroke-miterlimit:4;stroke-opacity:0.61450381;stroke-dasharray:none;stroke-dashoffset:0;display:inline"
       id="path7124"
       sodipodi:cx="939.5"
       sodipodi:cy="381.61218"
       sodipodi:rx="1"
       sodipodi:ry="1"
       d="m 940.5,381.61218 a 1,1 0 1 1 -2,0 1,1 0 1 1 2,0 z"
       transform="matrix(4.5009925,0,0,4.5009925,-4146.2901,-763.95419)"
       inkscape:export-filename="/home/dafeba/DCV/tallerD/bocetos/08-09-22-hastaahora.png"
       inkscape:export-xdpi="57.964222"
       inkscape:export-ydpi="57.964222" />
    <path
       transform="matrix(5.164476,0,0,5.164476,-4787.9955,-995.36139)"
       d="m 940.5,381.61218 a 1,1 0 1 1 -2,0 1,1 0 1 1 2,0 z"
       sodipodi:ry="1"
       sodipodi:rx="1"
       sodipodi:cy="381.61218"
       sodipodi:cx="939.5"
       id="path7126"
       style="fill:#c4e5ff;fill-opacity:1;stroke:#004255;stroke-width:0.69999999;stroke-linecap:round;stroke-linejoin:round;stroke-miterlimit:4;stroke-opacity:0.61450381;stroke-dasharray:none;stroke-dashoffset:0;display:inline"
       sodipodi:type="arc"
       inkscape:export-filename="/home/dafeba/DCV/tallerD/bocetos/08-09-22-hastaahora.png"
       inkscape:export-xdpi="57.964222"
       inkscape:export-ydpi="57.964222" />
    <path
       sodipodi:type="arc"
       style="fill:#c4e5ff;fill-opacity:1;stroke:#004255;stroke-width:0.69999999;stroke-linecap:round;stroke-linejoin:round;stroke-miterlimit:4;stroke-opacity:0.61450381;stroke-dasharray:none;stroke-dashoffset:0;display:inline"
       id="path7128"
       sodipodi:cx="939.5"
       sodipodi:cy="381.61218"
       sodipodi:rx="1"
       sodipodi:ry="1"
       d="m 940.5,381.61218 a 1,1 0 1 1 -2,0 1,1 0 1 1 2,0 z"
       transform="matrix(4.1692512,0,0,4.1692512,-3821.9525,-589.77072)"
       inkscape:export-filename="/home/dafeba/DCV/tallerD/bocetos/08-09-22-hastaahora.png"
       inkscape:export-xdpi="57.964222"
       inkscape:export-ydpi="57.964222" />
    <path
       transform="matrix(5.9854947,0,0,5.9854947,-5581.2605,-1336.1794)"
       d="m 940.5,381.61218 a 1,1 0 1 1 -2,0 1,1 0 1 1 2,0 z"
       sodipodi:ry="1"
       sodipodi:rx="1"
       sodipodi:cy="381.61218"
       sodipodi:cx="939.5"
       id="path7130"
       style="fill:#c4e5ff;fill-opacity:1;stroke:#004255;stroke-width:0.69999999;stroke-linecap:round;stroke-linejoin:round;stroke-miterlimit:4;stroke-opacity:0.61450381;stroke-dasharray:none;stroke-dashoffset:0;display:inline"
       sodipodi:type="arc"
       inkscape:export-filename="/home/dafeba/DCV/tallerD/bocetos/08-09-22-hastaahora.png"
       inkscape:export-xdpi="57.964222"
       inkscape:export-ydpi="57.964222" />
    <path
       sodipodi:type="arc"
       style="fill:#c4e5ff;fill-opacity:1;stroke:#004255;stroke-width:0.69999999;stroke-linecap:round;stroke-linejoin:round;stroke-miterlimit:4;stroke-opacity:0.61450381;stroke-dasharray:none;stroke-dashoffset:0;display:inline"
       id="path7132"
       sodipodi:cx="939.5"
       sodipodi:cy="381.61218"
       sodipodi:rx="1"
       sodipodi:ry="1"
       d="m 940.5,381.61218 a 1,1 0 1 1 -2,0 1,1 0 1 1 2,0 z"
       transform="matrix(4.1692512,0,0,4.1692512,-3816.0573,-614.22971)"
       inkscape:export-filename="/home/dafeba/DCV/tallerD/bocetos/08-09-22-hastaahora.png"
       inkscape:export-xdpi="57.964222"
       inkscape:export-ydpi="57.964222" />
    <path
       inkscape:connector-curvature="0"
       style="fill:none;stroke:url(#linearGradient49915);stroke-width:2.66666675;stroke-linecap:round;stroke-linejoin:round;stroke-miterlimit:4;stroke-opacity:1;stroke-dasharray:none;display:inline"
       d="m 24.078429,926.28602 -8.72213,1.07323 C 8.2459288,927.89488 1.8894488,934.1932 1.9396288,940.44258 l 0.41667,83.16672 c 0.10933,5.9538 2.40821,11.8149 7.25,13.25 l 13.0748002,4.2205 c 1.87256,0.5939 5.13565,0.7477 6.59779,0.5497 l 10.23314,-1.7098 c 0.57776,-0.093 1.36494,-0.1899 1.34414,0.5021 l -0.0416,3.4166 c 0.28373,0.5517 1.31394,0.8936 2.62514,1.2709 11.488,4.1242 30.67067,2.2464 43.58347,-0.75 8.83573,-2.0504 14.022931,-5.0956 14.125071,-7.4584 l 0.1248,-2.5 c -0.20827,-3.1454 -2.440271,-3.8861 -5.083201,-3.875 l 18.083201,-2.8333 c 7.65973,-1.1377 11.39253,-6.5251 11.33333,-12.8333 l -0.372,-72.00005 c 0,-6.38181 -2.79467,-9.52573 -9.11627,-10.12797 l -7.7272,-0.67678 -66.867861,-4.86192 -12.33334,-0.83333 c -1.70373,-0.0784 -3.40746,-0.14907 -5.1112,-0.0733 z"
       id="path8828"
       sodipodi:nodetypes="cccccccccccsccccccccccc"
       inkscape:export-filename="/home/dafeba/DCV/tallerD/bocetos/08-09-22-hastaahora.png"
       inkscape:export-xdpi="57.964222"
       inkscape:export-ydpi="57.964222" />
    <path
       inkscape:connector-curvature="0"
       style="fill:#c2e3ff;fill-opacity:1;fill-rule:evenodd;stroke:#000000;stroke-width:2.66666675;stroke-linecap:round;stroke-linejoin:miter;stroke-miterlimit:4;stroke-opacity:1;stroke-dasharray:none;display:inline"
       d="m 79.45049,929.69139 c -1.54187,1.93168 -1.36773,4.71776 0.40267,6.44243 l 14.8981,14.89816 -14.9653,14.96525 c -1.89014,1.89024 -1.89014,4.95488 0,6.84512 1.89013,1.89019 4.9549,1.89021 6.84504,0 l 14.96533,-14.96528 14.89813,14.89816 c 1.1744,1.37323 3.00774,1.96571 4.7648,1.54352 1.7568,-0.42229 3.1344,-1.79984 3.55654,-3.55677 0.42213,-1.75696 -0.17014,-3.59027 -1.54347,-4.76475 L 108.3742,951.0991 123.33953,936.13382 c 1.89013,-1.89022 1.89013,-4.95488 0,-6.8451 -1.89013,-1.89021 -4.95493,-1.89021 -6.84507,0 L 101.52913,944.254 86.631,929.35584 c -0.9592,-0.98344 -2.31864,-1.47344 -3.69091,-1.4093 -1.37227,0.0643 -2.6264,0.67624 -3.4896,1.74485 z"
       id="path8515"
       inkscape:export-filename="/home/dafeba/DCV/tallerD/bocetos/08-09-22-hastaahora.png"
       inkscape:export-xdpi="57.964222"
       inkscape:export-ydpi="57.964222" />
    <path
       inkscape:connector-curvature="0"
       inkscape:export-ydpi="57.964222"
       inkscape:export-xdpi="57.964222"
       inkscape:export-filename="/home/dafeba/DCV/tallerD/bocetos/08-09-22-hastaahora.png"
       style="fill:url(#linearGradient53710);fill-opacity:1;fill-rule:evenodd;stroke:none;display:inline;filter:url(#filter4494)"
       d="m 122.55652,826.68602 c -0.5782,0.72438 -0.5129,1.76916 0.151,2.41591 l 5.5868,5.58681 -5.612,5.61197 c -0.7088,0.70884 -0.7088,1.85808 0,2.56692 0.7088,0.70882 1.8581,0.70883 2.5669,0 l 5.612,-5.61198 5.5868,5.58681 c 0.4404,0.51496 1.1279,0.73714 1.7868,0.57882 0.6588,-0.15836 1.1754,-0.67494 1.3337,-1.33379 0.1583,-0.65886 -0.0638,-1.34635 -0.5788,-1.78678 l -5.5868,-5.5868 5.612,-5.61198 c 0.7088,-0.70883 0.7088,-1.85808 0,-2.56691 -0.7088,-0.70883 -1.8581,-0.70883 -2.5669,0 l -5.612,5.61198 -5.5868,-5.58681 c -0.3597,-0.36879 -0.8695,-0.55254 -1.3841,-0.52849 -0.5146,0.0241 -0.9849,0.25359 -1.3086,0.65432 z"
       id="path8517"
       transform="matrix(2.6666667,0,0,2.6666667,-250.58772,-1266.6735)" />
    <path
       inkscape:connector-curvature="0"
       id="path8519"
       d="m 79.45049,929.69139 c -1.54187,1.93168 -1.36773,4.71776 0.40267,6.44243 l 14.8981,14.89816 -14.9653,14.96525 c -1.89014,1.89024 -1.89014,4.95488 0,6.84512 1.89013,1.89019 4.9549,1.89021 6.84504,0 l 14.96533,-14.96528 14.89813,14.89816 c 1.1744,1.37323 3.00774,1.96571 4.7648,1.54352 1.7568,-0.42229 3.1344,-1.79984 3.55654,-3.55677 0.42213,-1.75696 -0.17014,-3.59027 -1.54347,-4.76475 L 108.3742,951.0991 123.33953,936.13382 c 1.89013,-1.89022 1.89013,-4.95488 0,-6.8451 -1.89013,-1.89021 -4.95493,-1.89021 -6.84507,0 L 101.52913,944.254 86.631,929.35584 c -0.9592,-0.98344 -2.31864,-1.47344 -3.69091,-1.4093 -1.37227,0.0643 -2.6264,0.67624 -3.4896,1.74485 z"
       style="fill:#ff0000;fill-opacity:1;fill-rule:evenodd;stroke:none;display:inline"
       inkscape:export-filename="/home/dafeba/DCV/tallerD/bocetos/08-09-22-hastaahora.png"
       inkscape:export-xdpi="57.964222"
       inkscape:export-ydpi="57.964222" />
  </g>
</svg>
