<?xml version="1.0" encoding="UTF-8" standalone="no"?>
<!-- Created with Inkscape (http://www.inkscape.org/) -->

<svg
   xmlns:dc="http://purl.org/dc/elements/1.1/"
   xmlns:cc="http://creativecommons.org/ns#"
   xmlns:rdf="http://www.w3.org/1999/02/22-rdf-syntax-ns#"
   xmlns:svg="http://www.w3.org/2000/svg"
   xmlns="http://www.w3.org/2000/svg"
   xmlns:xlink="http://www.w3.org/1999/xlink"
   xmlns:sodipodi="http://sodipodi.sourceforge.net/DTD/sodipodi-0.dtd"
   xmlns:inkscape="http://www.inkscape.org/namespaces/inkscape"
   width="128"
   height="128"
   id="svg70569"
   version="1.1"
   inkscape:version="0.48.3.1 r9886"
   sodipodi:docname="hcompartir-share.svg">
  <defs
     id="defs70571">
    <linearGradient
       inkscape:collect="always"
       xlink:href="#linearGradient8702-3"
       id="linearGradient72991"
       gradientUnits="userSpaceOnUse"
       gradientTransform="translate(320,260)"
       x1="488.76834"
       y1="964.76569"
       x2="491.40625"
       y2="967.89069" />
    <linearGradient
       id="linearGradient8702-3">
      <stop
         id="stop8704-0"
         offset="0"
         style="stop-color:#aac736;stop-opacity:1;" />
      <stop
         id="stop8706-1"
         offset="1"
         style="stop-color:#5d8b2c;stop-opacity:1;" />
    </linearGradient>
    <linearGradient
       inkscape:collect="always"
       xlink:href="#linearGradient5362-5-5"
       id="linearGradient72993"
       gradientUnits="userSpaceOnUse"
       gradientTransform="translate(260,260)"
       x1="553.27618"
       y1="959.94855"
       x2="553.66211"
       y2="965.25183" />
    <linearGradient
       id="linearGradient5362-5-5">
      <stop
         style="stop-color:#ffffff;stop-opacity:1;"
         offset="0"
         id="stop5364-9-5" />
      <stop
         style="stop-color:#ffffff;stop-opacity:0;"
         offset="1"
         id="stop5366-1-4" />
    </linearGradient>
    <linearGradient
       inkscape:collect="always"
       xlink:href="#linearGradient8702-3"
       id="linearGradient72995"
       gradientUnits="userSpaceOnUse"
       gradientTransform="translate(320,260)"
       x1="495.84396"
       y1="952.03333"
       x2="525.43182"
       y2="980.05243" />
    <linearGradient
       inkscape:collect="always"
       xlink:href="#linearGradient5316-54"
       id="linearGradient72989"
       gradientUnits="userSpaceOnUse"
       gradientTransform="matrix(2.6666667,0,0,2.6666667,-1294.0251,-1580.8227)"
       x1="495.84396"
       y1="952.03333"
       x2="525.43182"
       y2="980.05243" />
    <linearGradient
       id="linearGradient5316-54">
      <stop
         style="stop-color:#c0bfbb;stop-opacity:1;"
         offset="0"
         id="stop5320-4" />
      <stop
         style="stop-color:#798088;stop-opacity:1;"
         offset="1"
         id="stop5322-9" />
    </linearGradient>
    <linearGradient
       inkscape:collect="always"
       xlink:href="#linearGradient5316-54"
       id="linearGradient72987"
       gradientUnits="userSpaceOnUse"
       gradientTransform="matrix(2.6666667,0,0,2.6666667,-1294.0251,-1580.8227)"
       x1="495.84396"
       y1="952.03333"
       x2="525.43182"
       y2="980.05243" />
    <linearGradient
       inkscape:collect="always"
       xlink:href="#linearGradient5316-54"
       id="linearGradient72985"
       gradientUnits="userSpaceOnUse"
       gradientTransform="matrix(2.6666667,0,0,2.6666667,-1294.0251,-1580.8227)"
       x1="495.84396"
       y1="952.03333"
       x2="525.43182"
       y2="980.05243" />
    <linearGradient
       inkscape:collect="always"
       xlink:href="#linearGradient5316-54"
       id="linearGradient72983"
       gradientUnits="userSpaceOnUse"
       gradientTransform="matrix(2.6666667,0,0,2.6666667,-1294.0251,-1580.8227)"
       x1="495.84396"
       y1="952.03333"
       x2="525.43182"
       y2="980.05243" />
    <linearGradient
       inkscape:collect="always"
       xlink:href="#linearGradient5316-54"
       id="linearGradient72981"
       gradientUnits="userSpaceOnUse"
       gradientTransform="matrix(2.6666667,0,0,2.6666667,-1294.0251,-1580.8227)"
       x1="495.84396"
       y1="952.03333"
       x2="525.43182"
       y2="980.05243" />
    <linearGradient
       inkscape:collect="always"
       xlink:href="#linearGradient12578-6"
       id="linearGradient72979"
       gradientUnits="userSpaceOnUse"
       gradientTransform="matrix(2.6666667,0,0,2.6666667,-1294.0251,-1580.8227)"
       x1="495.84396"
       y1="952.03333"
       x2="525.43182"
       y2="980.05243" />
    <linearGradient
       id="linearGradient12578-6">
      <stop
         style="stop-color:#e9b551;stop-opacity:1;"
         offset="0"
         id="stop12580-0" />
      <stop
         style="stop-color:#b48739;stop-opacity:1;"
         offset="1"
         id="stop12582-9" />
    </linearGradient>
    <linearGradient
       inkscape:collect="always"
       xlink:href="#linearGradient5316-54"
       id="linearGradient72977"
       gradientUnits="userSpaceOnUse"
       gradientTransform="matrix(2.6666667,0,0,2.6666667,-1294.0251,-1580.8227)"
       x1="495.84396"
       y1="952.03333"
       x2="525.43182"
       y2="980.05243" />
    <linearGradient
       inkscape:collect="always"
       xlink:href="#linearGradient5362-5-5"
       id="linearGradient72975"
       gradientUnits="userSpaceOnUse"
       gradientTransform="matrix(2.6666667,0,0,2.6666667,-1454.0251,-1580.8227)"
       x1="570.07867"
       y1="957.39148"
       x2="569.13593"
       y2="964.28577" />
    <linearGradient
       inkscape:collect="always"
       xlink:href="#linearGradient5316-54"
       id="linearGradient72973"
       gradientUnits="userSpaceOnUse"
       gradientTransform="matrix(2.6666667,0,0,2.6666667,-1294.0251,-1580.8227)"
       x1="495.84396"
       y1="952.03333"
       x2="525.43182"
       y2="980.05243" />
    <linearGradient
       inkscape:collect="always"
       xlink:href="#linearGradient5362-5-5"
       id="linearGradient72971"
       gradientUnits="userSpaceOnUse"
       gradientTransform="matrix(2.6666667,0,0,2.6666667,-1454.0251,-1580.8227)"
       x1="563.46381"
       y1="966.29388"
       x2="560.87317"
       y2="973.58594" />
    <linearGradient
       inkscape:collect="always"
       xlink:href="#linearGradient12578-6"
       id="linearGradient72969"
       gradientUnits="userSpaceOnUse"
       gradientTransform="matrix(2.6666667,0,0,2.6666667,-1294.0251,-1580.8227)"
       x1="504.64279"
       y1="963.93219"
       x2="507.48212"
       y2="966.18219" />
    <linearGradient
       inkscape:collect="always"
       xlink:href="#linearGradient5362-5-5"
       id="linearGradient72967"
       gradientUnits="userSpaceOnUse"
       gradientTransform="matrix(2.6666667,0,0,2.6666667,-1454.0251,-1580.8227)"
       x1="569.9176"
       y1="968.8996"
       x2="570.15814"
       y2="977.42908" />
    <linearGradient
       inkscape:collect="always"
       xlink:href="#linearGradient5362-5-5"
       id="linearGradient72965"
       gradientUnits="userSpaceOnUse"
       gradientTransform="matrix(2.6666667,0,0,2.6666667,-1454.0251,-1580.8227)"
       x1="573.33215"
       y1="965.76404"
       x2="578.60663"
       y2="972.12799" />
    <linearGradient
       inkscape:collect="always"
       xlink:href="#linearGradient5362-5-5"
       id="linearGradient72963"
       gradientUnits="userSpaceOnUse"
       gradientTransform="matrix(2.6666667,0,0,2.6666667,-1454.0251,-1580.8227)"
       x1="579.84863"
       y1="958.64478"
       x2="580.14661"
       y2="963.46198" />
    <linearGradient
       inkscape:collect="always"
       xlink:href="#linearGradient5362-5-5"
       id="linearGradient72961"
       gradientUnits="userSpaceOnUse"
       gradientTransform="matrix(2.6666667,0,0,2.6666667,-1454.0251,-1580.8227)"
       x1="566.54944"
       y1="943.39459"
       x2="568.38373"
       y2="950.64246" />
    <linearGradient
       inkscape:collect="always"
       xlink:href="#linearGradient5362-5-5"
       id="linearGradient72959"
       gradientUnits="userSpaceOnUse"
       gradientTransform="matrix(2.6666667,0,0,2.6666667,-1454.0251,-1580.8227)"
       x1="582.08319"
       y1="947.46552"
       x2="579.84314"
       y2="954.625" />
    <linearGradient
       inkscape:collect="always"
       xlink:href="#linearGradient5362-5-5"
       id="linearGradient72957"
       gradientUnits="userSpaceOnUse"
       gradientTransform="matrix(2.6666667,0,0,2.6666667,-1454.0251,-1580.8227)"
       x1="553.10724"
       y1="948.68689"
       x2="558.46014"
       y2="955.84637" />
    <linearGradient
       inkscape:collect="always"
       xlink:href="#linearGradient5316-54"
       id="linearGradient72955"
       gradientUnits="userSpaceOnUse"
       gradientTransform="matrix(2.6666667,0,0,2.6666667,-1294.0251,-1580.8227)"
       x1="515.4292"
       y1="963.63873"
       x2="517.66461"
       y2="966.63873" />
    <linearGradient
       inkscape:collect="always"
       xlink:href="#linearGradient5316-54"
       id="linearGradient72953"
       gradientUnits="userSpaceOnUse"
       gradientTransform="matrix(2.6666667,0,0,2.6666667,-1294.0251,-1580.8227)"
       x1="513.24377"
       y1="971.68604"
       x2="516.78125"
       y2="974.87354" />
    <linearGradient
       inkscape:collect="always"
       xlink:href="#linearGradient5316-54"
       id="linearGradient72951"
       gradientUnits="userSpaceOnUse"
       gradientTransform="matrix(2.6666667,0,0,2.6666667,-1294.0251,-1580.8227)"
       x1="513.82202"
       y1="955.75"
       x2="516"
       y2="959.0625" />
    <linearGradient
       inkscape:collect="always"
       xlink:href="#linearGradient5316-54"
       id="linearGradient72949"
       gradientUnits="userSpaceOnUse"
       gradientTransform="matrix(2.6666667,0,0,2.6666667,-1294.0251,-1580.8227)"
       x1="506.0285"
       y1="977.3407"
       x2="508.40887"
       y2="981.9657" />
    <linearGradient
       inkscape:collect="always"
       xlink:href="#linearGradient5316-54"
       id="linearGradient72947"
       gradientUnits="userSpaceOnUse"
       gradientTransform="matrix(2.6666667,0,0,2.6666667,-1294.0251,-1580.8227)"
       x1="494.44818"
       y1="973.71851"
       x2="496.84381"
       y2="978.84351" />
    <linearGradient
       inkscape:collect="always"
       xlink:href="#linearGradient5316-54"
       id="linearGradient72945"
       gradientUnits="userSpaceOnUse"
       gradientTransform="matrix(2.6666667,0,0,2.6666667,-1294.0251,-1580.8227)"
       x1="497.20895"
       y1="956.96875"
       x2="501.71875"
       y2="958.78125" />
    <linearGradient
       inkscape:collect="always"
       xlink:href="#linearGradient5316-54"
       id="linearGradient72943"
       gradientUnits="userSpaceOnUse"
       gradientTransform="matrix(2.6666667,0,0,2.6666667,-1294.0251,-1580.8227)"
       x1="507.74323"
       y1="953.01746"
       x2="510.35046"
       y2="956.45496" />
    <linearGradient
       inkscape:collect="always"
       xlink:href="#linearGradient9863-6"
       id="linearGradient72941"
       gradientUnits="userSpaceOnUse"
       gradientTransform="matrix(2.6666667,0,0,2.6666667,-1134.025,-1420.8226)"
       x1="428.26834"
       y1="904.04584"
       x2="469.82092"
       y2="904.04584" />
    <linearGradient
       id="linearGradient9863-6">
      <stop
         style="stop-color:#2f445a;stop-opacity:1;"
         offset="0"
         id="stop9865-74" />
      <stop
         style="stop-color:#415f7c;stop-opacity:1"
         offset="1"
         id="stop9867-3" />
    </linearGradient>
  </defs>
  <sodipodi:namedview
     id="base"
     pagecolor="#ffffff"
     bordercolor="#666666"
     borderopacity="1.0"
     inkscape:pageopacity="0.0"
     inkscape:pageshadow="2"
     inkscape:zoom="1.979899"
     inkscape:cx="191.70742"
     inkscape:cy="73.874577"
     inkscape:document-units="px"
     inkscape:current-layer="layer1"
     showgrid="false"
     inkscape:window-width="1366"
     inkscape:window-height="717"
     inkscape:window-x="0"
     inkscape:window-y="0"
     inkscape:window-maximized="1" />
  <metadata
     id="metadata70574">
    <rdf:RDF>
      <cc:Work
         rdf:about="">
        <dc:format>image/svg+xml</dc:format>
        <dc:type
           rdf:resource="http://purl.org/dc/dcmitype/StillImage" />
        <dc:title />
      </cc:Work>
    </rdf:RDF>
  </metadata>
  <g
     inkscape:label="Capa 1"
     inkscape:groupmode="layer"
     id="layer1"
     transform="translate(0,-924.36218)">
    <path
       inkscape:connector-curvature="0"
       id="path72455"
       d="m 71.808301,937.26044 c -0.3072,0.027 -0.6184,0 -0.9168,0.083 l -7.5,0.5835 c -4.8656,0.3144 -8.5587,7.9805 -8.2499,17.1666 0.075,2.2371 0.4301,4.3272 0.9165,6.2499 -0.7802,-1.1469 -1.6706,-2.2256 -2.6666,-3.3333 -4.9603,-5.5168 -11.099,-8.7344 -15.5832,-8.5 l -7.6667,0.5 c -1.2952,0.1226 -2.4191,0.504 -3.3333,1.2501 -4.0616,3.3144 -2.0804,11.8437 4.4166,19 4.8488,5.3405 10.8308,8.4037 15.25,8.2499 l 7.5832,0.168 c 1.4758,-0.069 2.8155,-0.4944 3.8334,-1.3334 2.1488,-1.7704 2.5554,-4.956 1.5834,-8.6666 1.46,1.7061 3.1752,2.6181 5,2.5 l 7.8334,0 c 1.229,-0.059 2.4488,-0.5904 3.5,-1.5 -0.8315,2.9245 -0.6107,5.489 0.8333,7 0.7848,0.8213 1.8101,1.3256 3.0832,1.4168 l 7.9168,0.2506 c 3.7605,0.208 9.151702,-2.5666 13.833299,-7.5 6.3446,-6.6858 8.9459,-14.7738 5.8334,-18.0834 -0.8568,-0.911 -1.9923,-1.3782 -3.4168,-1.4166 -0.4686,0 -0.9872,0 -1.5,0.083 l -6.416597,0.3333 c -3.717002,-0.1173 -9.013302,2.5934 -13.583402,7.3334 -0.9056,0.9394 -1.6718,1.94 -2.4166,2.9165 0.6667,-2.4637 1.0478,-5.2763 1,-8.2499 -0.152,-9.3674 -4.2498,-16.736 -9.1666,-16.5 z m -8.9168,39.6667 c -5.2326,0.4904 -9.4264,4.3248 -10.7499,9.2501 -2.8936,-2.2669 -7.8643,-3.8085 -13.75,-3.9168 -2.4005,-0.056 -6.6927,-0.1546 -8.8333,-0.168 -10.5024,0.2507 -19.5415,4.6646 -20.166701,9.9168 -0.379,3.1838 2.401801,5.9718 7.000001,7.5832 2.1991,0.77096 4.8025,1.24476 7.6667,1.41676 2.4246,0.2267 4.6346,0.4715 6.9166,0.5832 1.15,0.083 2.3564,0.112 3.5834,0.083 8.1188,-0.1947 15.2697,-2.91946 18.4998,-6.58316 1.88,3.676 5.508,6.24796 9.6667,6.58316 l 6.5835,0.7501 c 0.9874,0.1654 2.0376,0.1814 3.0832,0.083 1.2434,-0.1173 2.3968,-0.4512 3.5,-0.9168 -0.077,0.091 -0.1787,0.152 -0.2507,0.2507 -2.8405,3.9565 0.4755,10.6509 7.4168,15 3.3715,2.1125 7.0253,3.3176 10.1667,3.5 l 4.666602,0.6666 c 1.3403,0.3272 2.611197,0.567 3.833397,0.5835 3.0576,0.04 5.6261,-0.8917 7,-2.8333 2.8677,-4.0526 -0.4931,-10.9616 -7.5,-15.4168 -3.596297,-2.2864 -7.457399,-3.50556 -10.750199,-3.58316 l -5.0832,-0.4168 c -0.8621,-0.1574 -1.6922,-0.224 -2.5,-0.2507 -1.3146,-0.043 -2.4893,0.1093 -3.5834,0.4168 1.6224,-1.4384 2.8429,-3.3224 3.5834,-5.4168 1.879,1.5832 4.6776,2.7235 8.0832,3.0835 l 8.333402,0.5832 c 0.880497,0.075 1.811197,0.112 2.750097,0.083 8.0731,-0.248 14.9733,-4.3922 15.4165,-9.2498 0.4227,-4.6272 -5.1573,-8.216 -12.6666,-8.3334 -0.3739,0 -0.7835,0 -1.1667,0 l -6.499997,-0.2506 c -0.4613,0 -0.9408,0 -1.416502,0 -5.4424,0.1653 -10.2902,2.1088 -13,4.8333 -1.8072,-4.4296 -5.952,-7.4627 -10.7502,-7.5835 -0.4698,0 -1.0194,-0.045 -1.5,0 l -4.9165,-0.2506 c -0.3357,-0.043 -0.6568,-0.069 -1,-0.083 -0.5307,-0.027 -1.1224,-0.051 -1.6667,0 z m -16.0832,24.33326 c -3.8491,-0.069 -9.1908,2.4816 -14,7.0835 -6.9824,6.6811 -10.1904,15.0971 -7.1667,18.8333 0.5838,0.7214 1.3317,1.2219 2.25,1.5 l 7,1.5832 c 3.877,1.4342 10.5996,-1.237 16.4999,-6.9165 2.0304,-1.9544 3.7365,-4.072 5.0834,-6.1667 -0.7021,2.4638 -1.1482,5.2099 -1.0834,8.1667 0.184,8.4363 3.8504,15.0291 8.3333,15.5 l 7.2501,1.8333 1.3334,0 c 4.9568,-0.4525 8.7837,-8.3029 8.5832,-17.5834 -0.1894,-8.7302 -3.8507,-15.5952 -8.4166,-16 l -7.7501,-0.9166 c -0.2533,-0.027 -0.4917,-0.027 -0.7499,0 -1.7448,0.1574 -3.3202,1.2766 -4.6666,3 0.8456,-2.9341 0.7528,-5.5058 -0.5835,-7.1666 -0.9099,-1.1312 -2.2661,-1.7475 -3.9165,-1.8334 l -6.4168,-0.7501 c -0.495,-0.1253 -1.0168,-0.1547 -1.5832,-0.168 z m 18.9165,7.0835 5.8333,0.7499 -5.6666,-0.6667 -0.168,-0.083 z"
       style="fill:none;stroke:url(#linearGradient72941);stroke-width:5.33333349;stroke-linecap:round;stroke-linejoin:round;stroke-miterlimit:4;stroke-dasharray:none;display:inline" />
    <path
       inkscape:connector-curvature="0"
       style="fill:url(#linearGradient72943);fill-opacity:1;stroke:none;display:inline"
       d="m 71.808301,937.26044 -8.4168,0.6667 c -4.8656,0.3147 -8.5587,7.9808 -8.2499,17.1667 0.3085,9.1861 4.4675,16.3978 9.3333,16.0834 l 7.8334,0 -2.3334,-4.2501 c 1.8379,-3.1763 2.9227,-7.8597 2.7499,-13 l -0.2507,-3.1667 c -0.4928,-3.5672 -1.5746,-6.5858 -3,-8.8333 l 2.3334,-4.6667 z"
       id="path72457" />
    <path
       inkscape:connector-curvature="0"
       style="fill:url(#linearGradient72945);fill-opacity:1;stroke:none;display:inline"
       d="m 37.808301,949.51064 -7.6667,0.5 c -1.2952,0.1226 -2.4191,0.504 -3.3333,1.2498 -4.0616,3.3147 -2.0804,11.844 4.4166,19 4.8488,5.3408 10.8308,8.404 15.25,8.2502 l 7.5832,0.168 -3.4165,-1.8334 c 3.6003,-3.5064 1.64,-11.637 -4.6667,-18.5834 -3.4578,-3.8083 -7.5295,-6.424 -11.1666,-7.5832 l 3,-1.1667 z"
       id="path72459" />
    <path
       inkscape:connector-curvature="0"
       style="fill:url(#linearGradient72947);fill-opacity:1;stroke:none;display:inline"
       d="m 46.808301,1001.2604 c -3.8491,-0.069 -9.1908,2.4816 -14,7.0835 -6.9824,6.6811 -10.1904,15.0971 -7.1667,18.8333 0.5838,0.7214 1.3317,1.2219 2.25,1.5 l 7,1.5832 -2,-1.5 0.083,-0.3333 c 3.3358,-0.9211 7.1697,-3.1573 10.75,-6.5832 6.4933,-6.2133 9.7616,-13.9416 7.7498,-18 l 1.2502,-0.5835 6,0.7502 -3.9168,-1.8334 -6.4166,-0.7501 c -0.4952,-0.1253 -1.017,-0.1547 -1.5834,-0.168 z"
       id="path72461" />
    <path
       inkscape:connector-curvature="0"
       id="path72463"
       d="m 63.974901,1008.1772 c -4.9104,0.44 -8.7816,8.1411 -8.5834,17.1667 0.184,8.4363 3.8504,15.0291 8.3333,15.5 l 7.2501,1.8333 1.3334,0 -1.5,-0.3333 -2,-3.9168 c 2.6989,-3.0208 4.5525,-8.4771 4.4165,-14.6667 -0.104,-4.7098 -1.3667,-8.8397 -3.1667,-11.6666 l 1.5,-3 -5.6666,-0.6667 -0.168,-0.083 5.8333,0.7499 0.9168,0 -7.7501,-0.9165 c -0.2534,-0.027 -0.4918,-0.027 -0.7499,0 z"
       style="fill:url(#linearGradient72949);fill-opacity:1;stroke:none;display:inline" />
    <path
       inkscape:connector-curvature="0"
       id="path72465"
       d="m 103.8915,951.34394 -7.916597,0.4165 c -3.717002,-0.1173 -9.013302,2.5934 -13.583402,7.3334 -6.2848,6.5192 -8.8334,14.3568 -5.7499,17.5834 0.7848,0.8211 1.8101,1.3254 3.0832,1.4166 l 7.9168,0.2506 -2.9168,-1.2501 c 2.8637,-1.1757 5.9613,-3.3541 8.8333,-6.3333 5.978702,-6.2011 8.661099,-13.6774 6.250202,-17.1667 l 0.999997,-0.5832 6.5,-0.2507 -3.4168,-1.4165 z"
       style="fill:url(#linearGradient72951);fill-opacity:1;stroke:none;display:inline" />
    <path
       inkscape:connector-curvature="0"
       style="fill:url(#linearGradient72953);fill-opacity:1;stroke:none;display:inline"
       d="m 82.891501,999.09384 c -3.155,-0.1014 -5.8464,0.7954 -7.2499,2.75006 -2.8408,3.9563 0.4755,10.6507 7.4165,15 3.3715,2.1125 7.0254,3.3173 10.1667,3.5 l 8.499999,1.2499 7,-2.8334 -7.9165,-1.1666 c 2.8408,-3.9563 -0.4755,-10.7339 -7.416799,-15.0832 -1.4662,-0.9187 -3.0027,-1.6099 -4.5,-2.1667 l 1.5834,-0.58346 -5.0834,-0.4165 c -0.8622,-0.1573 -1.6923,-0.224 -2.5,-0.2507 z"
       id="path72467" />
    <path
       inkscape:connector-curvature="0"
       id="path72469"
       d="m 95.724801,980.01064 c -7.9971,0.2426 -14.8107,4.3178 -15.2499,9.0832 -0.3786,4.1085 4.1275,7.4101 10.5,8.0834 l 8.333402,0.5832 -1.2502,-0.9165 c 6.184797,-1.2051 10.968797,-4.7115 11.333397,-8.6667 0.3013,-3.268 -2.4734,-5.9224 -6.8334,-7.2501 l 1.0835,-0.6667 -5.750097,-0.168 c -0.2534,-0.027 -0.4928,-0.077 -0.7499,-0.083 -0.4616,0 -0.9408,0 -1.416802,0 z"
       style="fill:url(#linearGradient72955);fill-opacity:1;stroke:none;display:inline" />
    <path
       sodipodi:nodetypes="ccscccc"
       id="path72471"
       d="m 37.808301,949.51064 -7.6667,0.5 c -1.2952,0.1226 -2.4191,0.504 -3.3333,1.2498 -4.0616,3.3147 -2.0804,11.844 4.4166,19 19.6175,17.8619 30.8503,6.3166 14.75,-12 -3.4578,-3.8082 -7.5295,-6.424 -11.1666,-7.5832 z"
       style="fill:url(#linearGradient72957);fill-opacity:1;stroke:none;display:inline"
       inkscape:connector-curvature="0" />
    <path
       sodipodi:nodetypes="cccccccc"
       style="fill:url(#linearGradient72959);fill-opacity:1;stroke:none;display:inline"
       d="m 103.8915,951.34394 -7.916597,0.4165 c -3.717002,-0.1173 -9.013302,2.5934 -13.583402,7.3334 l 11.1666,11.6666 c 5.978702,-6.201 8.661099,-13.6773 6.250202,-17.1666 l 0.999997,-0.5832 6.5,-0.2507 z"
       id="path72473"
       inkscape:connector-curvature="0" />
    <path
       sodipodi:nodetypes="cccccccc"
       id="path72475"
       d="m 71.808301,937.26044 -8.4168,0.6667 c -4.8656,0.3147 -8.5587,7.9808 -8.2499,17.1667 l 17.5832,-1.1667 -0.2507,-3.1667 c -0.4928,-3.5672 -1.5746,-6.5858 -3,-8.8333 l 2.3334,-4.6667 z"
       style="fill:url(#linearGradient72961);fill-opacity:1;stroke:none;display:inline"
       inkscape:connector-curvature="0" />
    <path
       id="path72477"
       d="m 95.724801,980.01064 c -7.9971,0.2426 -14.8107,4.3178 -15.2499,9.0832 0,0.056 0,0.1093 0,0.168 l 28.916599,-1.7499 c -0.12,-2.9496 -2.7848,-5.3507 -6.8334,-6.5835 l 1.0835,-0.6666 -5.750097,-0.168 c -0.2534,-0.027 -0.4928,-0.077 -0.7499,-0.083 -0.4616,0 -0.9408,0 -1.416802,0 z"
       style="fill:url(#linearGradient72963);fill-opacity:1;stroke:none;display:inline"
       inkscape:connector-curvature="0" />
    <path
       id="path72479"
       d="m 82.891501,999.09384 c -3.155,-0.1014 -5.8464,0.7954 -7.2499,2.75006 -2.8408,3.9563 0.4755,10.6507 7.4165,15 0.2134,0.1333 0.4518,0.208 0.6667,0.3333 l 10.7501,-13.9168 c -0.3605,-0.2533 -0.7002,-0.5098 -1.0834,-0.7498 -1.4662,-0.9187 -3.0027,-1.6099 -4.5,-2.1667 l 1.5834,-0.58346 -5.0834,-0.4165 c -0.8622,-0.1573 -1.6923,-0.224 -2.5,-0.2507 z"
       style="fill:url(#linearGradient72965);fill-opacity:1;stroke:none;display:inline"
       inkscape:connector-curvature="0" />
    <path
       id="path72481"
       d="m 63.974901,1008.1772 c -4.8029,0.4304 -8.6048,7.8144 -8.5834,16.5832 l 12.5834,1.7502 5.2499,-2 c 0,-0.256 0,-0.492 0,-0.7502 -0.104,-4.7098 -1.3667,-8.8397 -3.1667,-11.6666 l 1.5,-3 -5.6666,-0.6667 -0.168,-0.083 5.8333,0.7499 0.9168,0 -7.7501,-0.9165 c -0.2534,-0.027 -0.4918,-0.027 -0.7499,0 z"
       style="fill:url(#linearGradient72967);fill-opacity:1;stroke:none;display:inline"
       inkscape:connector-curvature="0" />
    <path
       id="path72483"
       d="m 62.891501,976.92714 c -6.6675,0.6248 -11.6779,6.6755 -11.1667,13.5 0.4576,6.1085 5.2357,10.78526 11,11.25006 l 6.5835,0.7499 -1.4168,-1.5832 c 4.9968,-1.92026 8.4258,-6.98316 8,-12.66666 -0.3267,-4.3632 -2.8328,-7.9469 -6.3334,-9.8333 l 0.9168,-1.0835 -4.9168,-0.2506 c -0.3354,-0.043 -0.6568,-0.069 -1,-0.083 -0.5304,-0.027 -1.1221,-0.051 -1.6666,0 z"
       style="fill:url(#linearGradient72969);fill-opacity:1;stroke:none;display:inline"
       inkscape:connector-curvature="0" />
    <path
       id="path72485"
       d="m 46.808301,1001.2604 c -3.8491,-0.069 -9.1908,2.4816 -14,7.0835 -0.7566,0.724 -1.4186,1.4936 -2.0834,2.2499 6.1045,3.6165 13.3332,8.0834 13.3332,8.0834 l 1.6667,1 c 5.1064,-5.7629 7.5373,-12.228 5.7501,-15.8333 l 1.2499,-0.5835 6,0.7502 -3.9165,-1.8334 -6.4168,-0.7501 c -0.495,-0.1253 -1.0168,-0.1547 -1.5832,-0.168 z"
       style="fill:url(#linearGradient72971);fill-opacity:1;stroke:none;display:inline"
       inkscape:connector-curvature="0" />
    <path
       id="path72487"
       d="m 71.808301,937.26044 c -4.9168,0.2347 -8.8174,7.9659 -8.6667,17.3334 0.152,9.3677 4.2499,16.8194 9.1667,16.5834 4.9168,-0.2346 8.8173,-8.049 8.6666,-17.4168 -0.152,-9.3674 -4.2498,-16.7357 -9.1666,-16.5 z"
       style="fill:url(#linearGradient72973);fill-opacity:1;stroke:none;display:inline"
       inkscape:connector-curvature="0" />
    <path
       inkscape:connector-curvature="0"
       style="fill:url(#linearGradient72975);fill-opacity:1;stroke:none;display:inline"
       d="m 62.891501,976.92714 c -6.6675,0.6248 -11.6779,6.6755 -11.1667,13.5 0.067,0.8963 0.256,1.7579 0.5,2.5835 l 23.5,-5.8334 c -0.6115,-3.8994 -2.9427,-7.096 -6.1667,-8.8333 l 0.9168,-1.0835 -4.9168,-0.2506 c -0.3354,-0.043 -0.6568,-0.069 -1,-0.083 -0.5304,-0.027 -1.1221,-0.051 -1.6666,0 z"
       id="path72489" />
    <path
       id="path72491"
       d="m 37.808301,949.51064 c -1.4576,0.077 -2.7421,0.5861 -3.75,1.4165 -4.1089,3.3859 -2.0726,12.0235 4.5,19.3333 4.9441,5.499 11.0196,8.6286 15.4998,8.4168 1.4758,-0.069 2.8155,-0.4944 3.8334,-1.3333 4.1088,-3.3856 2.0728,-12.0235 -4.5,-19.3333 -4.9603,-5.5168 -11.099,-8.7344 -15.5832,-8.5 z"
       style="fill:url(#linearGradient72977);fill-opacity:1;stroke:none;display:inline"
       inkscape:connector-curvature="0" />
    <path
       inkscape:connector-curvature="0"
       style="fill:url(#linearGradient72979);fill-opacity:1;stroke:none;display:inline"
       d="m 70.474901,977.26044 c -6.7309,0.6384 -11.7661,6.8603 -11.2501,13.8334 0.436,5.8898 4.7149,10.43726 10.0835,11.33326 0.9874,0.1653 2.0376,0.1813 3.0832,0.083 6.7309,-0.6382 11.7661,-6.77676 11.2501,-13.74986 -0.4792,-6.4755 -5.5509,-11.3461 -11.6667,-11.5 -0.4701,0 -1.0197,-0.045 -1.5,0 z"
       id="path72493" />
    <path
       id="path72495"
       d="m 103.8915,951.34394 c -3.7502,-0.1013 -9.068299,2.6547 -13.666699,7.5 -6.3445,6.6859 -8.9459,14.7739 -5.8333,18.0832 0.816,0.8675 1.9144,1.3424 3.2501,1.4168 3.7605,0.208 9.151702,-2.5667 13.833299,-7.5 6.3446,-6.6859 8.9459,-14.7739 5.8334,-18.0835 -0.8568,-0.9109 -1.9923,-1.3781 -3.4168,-1.4165 z"
       style="fill:url(#linearGradient72981);fill-opacity:1;stroke:none;display:inline"
       inkscape:connector-curvature="0" />
    <path
       id="path72497"
       d="m 103.6416,980.26044 c -8.073099,0.248 -14.973299,4.3926 -15.416799,9.2502 -0.3917,4.2925 4.3941,7.6845 11.083502,8.2498 0.880497,0.075 1.810897,0.112 2.749797,0.083 8.0731,-0.248 14.9734,-4.3923 15.4168,-9.2499 0.4224,-4.6272 -5.1573,-8.216 -12.6666,-8.3333 -0.3742,0 -0.7838,0 -1.1667,0 z"
       style="fill:url(#linearGradient72983);fill-opacity:1;stroke:none;display:inline"
       inkscape:connector-curvature="0" />
    <path
       id="path72499"
       d="m 90.474901,999.76044 c -3.1226,-0.075 -5.6874,0.86076 -7.0834,2.83336 -2.8675,4.0525 0.493,10.9616 7.5,15.4168 3.6501,2.3208 7.509002,3.5384 10.833299,3.5832 3.0576,0.04 5.6264,-0.8918 7,-2.8334 2.8677,-4.0522 -0.4928,-10.9613 -7.5,-15.4165 -3.596297,-2.2864 -7.457299,-3.50586 -10.749899,-3.58346 z"
       style="fill:url(#linearGradient72985);fill-opacity:1;stroke:none;display:inline"
       inkscape:connector-curvature="0" />
    <path
       id="path72501"
       d="m 54.808301,1002.1772 c -3.9448,-0.2053 -9.5606,2.4155 -14.5835,7.2499 -7.1238,6.8573 -10.4182,15.4987 -7.3332,19.3333 0.5298,0.6587 1.1961,1.2027 2,1.5 3.877,1.4342 10.5996,-1.237 16.4999,-6.9165 7.124,-6.8571 10.4184,-15.4987 7.3333,-19.3333 -0.9099,-1.1312 -2.2661,-1.7475 -3.9165,-1.8334 z"
       style="fill:url(#linearGradient72987);fill-opacity:1;stroke:none;display:inline"
       inkscape:connector-curvature="0" />
    <path
       id="path72503"
       d="m 71.558101,1009.0938 c -4.9568,0.4525 -8.7834,8.3029 -8.5832,17.5834 0.1814,8.4606 3.6288,15.2259 8,16 0.4238,0.075 0.8955,0.04 1.3334,0 4.9568,-0.4525 8.7837,-8.3029 8.5832,-17.5834 -0.1894,-8.7302 -3.8507,-15.5952 -8.4166,-16 -0.2877,-0.027 -0.6229,-0.027 -0.9168,0 z"
       style="fill:url(#linearGradient72989);fill-opacity:1;stroke:none;display:inline"
       inkscape:connector-curvature="0" />
    <path
       id="path72505"
       d="m 102.0427,997.85144 -7.897399,-0.5659 -3.1898,-0.1147 8.354102,0.6104 2.733097,0.069"
       inkscape:connector-curvature="0"
       style="fill:#000000;fill-opacity:0.3;stroke:none;display:inline" />
    <path
       id="path72507"
       d="m 103.6485,980.26024 -7.912499,-0.232 1.406702,0 7.641597,0.2266 -1.1358,0"
       inkscape:connector-curvature="0"
       style="fill:#000000;fill-opacity:0.3;stroke:none;display:inline" />
    <path
       id="path72509"
       d="m 102.0427,997.85144 -7.897399,-0.5662 0,3e-4 7.897399,0.5659 0,0"
       inkscape:connector-curvature="0"
       style="fill:#000000;fill-opacity:0.3;stroke:none;display:inline" />
    <path
       id="path72511"
       d="m 102.0427,997.85144 -7.897399,-0.5659 0,0 7.897399,0.5659 0,0"
       inkscape:connector-curvature="0"
       style="fill:#000000;fill-opacity:0.3;stroke:none;display:inline" />
    <g
       style="display:inline"
       transform="matrix(2.6666667,0,0,2.6666667,-2147.3584,-2274.156)"
       id="g72513">
      <path
         style="fill:url(#linearGradient72991);fill-opacity:1;stroke:none"
         d="m 816.34375,1221.0937 c -3.93839,0.094 -7.32805,1.7492 -7.5625,3.7188 -0.14212,1.1939 0.90069,2.2394 2.625,2.8437 0.82465,0.2891 1.79629,0.4774 2.87037,0.5419 1.28615,0.1205 2.39311,0.2427 3.6765,0.2394 -5.85164,-0.3036 4.52991,-0.8518 5.07813,-3.9688 -0.57691,-2.0513 -2.77707,-3.1356 -3.37213,-3.3014 -0.9002,-0.021 -2.51262,-0.069 -3.31537,-0.073 z"
         id="path72515"
         inkscape:connector-curvature="0"
         sodipodi:nodetypes="cssccccc" />
      <path
         inkscape:connector-curvature="0"
         style="fill:url(#linearGradient72993);fill-opacity:1;stroke:none"
         d="m 816.34375,1221.0937 c -3.93839,0.094 -7.32805,1.7492 -7.5625,3.7188 -0.0253,0.2126 -0.0157,0.4235 0.0313,0.625 L 823,1224.5625 c 0.008,-0.032 0.0255,-0.061 0.0313,-0.094 -0.57691,-2.0513 -2.77994,-3.1467 -3.375,-3.3125 -0.9002,-0.021 -2.50975,-0.058 -3.3125,-0.063 z"
         id="path72517" />
      <path
         inkscape:connector-curvature="0"
         style="fill:url(#linearGradient72995);fill-opacity:1;stroke:none;display:inline"
         d="m 819.0625,1221.1562 c -3.97574,0.096 -7.38833,1.8049 -7.625,3.8125 -0.20193,1.7129 1.98114,3.0974 5.09375,3.4063 0.53566,0.054 1.10376,0.077 1.6875,0.063 3.97574,-0.096 7.38833,-1.8049 7.625,-3.8125 0.23667,-2.0076 -2.80551,-3.5644 -6.78125,-3.4688 z"
         id="path72519" />
    </g>
  </g>
</svg>
