<?xml version="1.0" encoding="UTF-8" standalone="no"?>
<!-- Created with Inkscape (http://www.inkscape.org/) -->

<svg
   xmlns:dc="http://purl.org/dc/elements/1.1/"
   xmlns:cc="http://creativecommons.org/ns#"
   xmlns:rdf="http://www.w3.org/1999/02/22-rdf-syntax-ns#"
   xmlns:svg="http://www.w3.org/2000/svg"
   xmlns="http://www.w3.org/2000/svg"
   xmlns:xlink="http://www.w3.org/1999/xlink"
   xmlns:sodipodi="http://sodipodi.sourceforge.net/DTD/sodipodi-0.dtd"
   xmlns:inkscape="http://www.inkscape.org/namespaces/inkscape"
   width="128"
   height="128"
   id="svg2"
   sodipodi:version="0.32"
   inkscape:version="0.48.3.1 r9886"
   version="1.0"
   sodipodi:docname="network-receive-symbolic.svg"
   inkscape:output_extension="org.inkscape.output.svg.inkscape">
  <defs
     id="defs4">
    <linearGradient
       id="linearGradient5316">
      <stop
         style="stop-color:#c0bfbb;stop-opacity:1;"
         offset="0"
         id="stop5320" />
      <stop
         style="stop-color:#798088;stop-opacity:1;"
         offset="1"
         id="stop5322" />
    </linearGradient>
    <linearGradient
       id="linearGradient9863">
      <stop
         style="stop-color:#2f445a;stop-opacity:1;"
         offset="0"
         id="stop9865" />
      <stop
         style="stop-color:#415f7c;stop-opacity:1"
         offset="1"
         id="stop9867" />
    </linearGradient>
    <linearGradient
       id="linearGradient5362">
      <stop
         style="stop-color:#ffffff;stop-opacity:1;"
         offset="0"
         id="stop5364" />
      <stop
         style="stop-color:#ffffff;stop-opacity:0;"
         offset="1"
         id="stop5366" />
    </linearGradient>
    <linearGradient
       id="linearGradient5439">
      <stop
         style="stop-color:#ffffff;stop-opacity:1;"
         offset="0"
         id="stop5441" />
      <stop
         style="stop-color:#000000;stop-opacity:1;"
         offset="1"
         id="stop5443" />
    </linearGradient>
    <linearGradient
       id="linearGradient5344">
      <stop
         style="stop-color:#000000;stop-opacity:1;"
         offset="0"
         id="stop5346" />
      <stop
         style="stop-color:#000000;stop-opacity:0;"
         offset="1"
         id="stop5348" />
    </linearGradient>
    <linearGradient
       id="linearGradient5316-1">
      <stop
         style="stop-color:#c0bfbb;stop-opacity:1;"
         offset="0"
         id="stop5320-6" />
      <stop
         style="stop-color:#798088;stop-opacity:1;"
         offset="1"
         id="stop5322-1" />
    </linearGradient>
    <linearGradient
       id="linearGradient4401">
      <stop
         style="stop-color:#c0bfbb;stop-opacity:1;"
         offset="0"
         id="stop4403" />
      <stop
         style="stop-color:#798088;stop-opacity:1;"
         offset="1"
         id="stop4405" />
    </linearGradient>
    <linearGradient
       inkscape:collect="always"
       xlink:href="#linearGradient4401"
       id="linearGradient4439"
       x1="160.09868"
       y1="9.8411083"
       x2="266"
       y2="63.796427"
       gradientUnits="userSpaceOnUse"
       gradientTransform="translate(-140,0)" />
    <linearGradient
       inkscape:collect="always"
       xlink:href="#linearGradient4401"
       id="linearGradient4449"
       x1="7.7648849"
       y1="11.731856"
       x2="118.11331"
       y2="120.04217"
       gradientUnits="userSpaceOnUse" />
  </defs>
  <sodipodi:namedview
     id="base"
     pagecolor="#ffffff"
     bordercolor="#666666"
     borderopacity="1.0"
     inkscape:pageopacity="0.0"
     inkscape:pageshadow="2"
     inkscape:zoom="1.2510351"
     inkscape:cx="18.841563"
     inkscape:cy="91.970391"
     inkscape:document-units="px"
     inkscape:current-layer="layer1"
     showgrid="false"
     inkscape:showpageshadow="false"
     inkscape:window-width="1014"
     inkscape:window-height="712"
     inkscape:window-x="0"
     inkscape:window-y="0"
     showguides="true"
     inkscape:guide-bbox="true"
     inkscape:window-maximized="0" />
  <metadata
     id="metadata7">
    <rdf:RDF>
      <cc:Work
         rdf:about="">
        <dc:format>image/svg+xml</dc:format>
        <dc:type
           rdf:resource="http://purl.org/dc/dcmitype/StillImage" />
      </cc:Work>
    </rdf:RDF>
  </metadata>
  <g
     inkscape:label="Capa 1"
     inkscape:groupmode="layer"
     id="layer1">
    <path
       style="fill:url(#linearGradient4439);fill-opacity:1;fill-rule:evenodd;stroke:none;display:inline"
       d="m 71.125,2 c -1.84298,0.1264635 -6.78126,0.9466104 -9.21875,1.46875 -2.06529,0.4166812 -3.96317,1.6466454 -4,4.90625 l 0,24.4375 C 57.34214,32.583327 56.70889,32.46875 56.0625,32.46875 l -21.21875,0 c -5.25123,0.163643 -9.625,4.390273 -9.625,9.71875 l 0,21.15625 c -0.0511,0.655313 0.0184,1.30641 0.21875,1.90625 -3.87466,0.5864 -6.77794,3.799699 -6.75,7.28125 L 18.5,112.625 c 0.0638,3.47012 1.39625,6.87938 4.21875,7.6875 l 8.875,2.40625 0.125,-0.0313 c 0.65048,0.16061 1.34426,0.21493 2.125,0.0937 l 7.8125,-1.375 c -0.20462,0.33192 -0.25389,0.62994 -0.0625,0.90625 l 0,1.375 c 0.16525,0.32001 0.57939,0.6003 1.34375,0.8125 6.42202,1.9272 17.94135,1.10385 25.46875,-0.71875 5.15076,-1.24718 8.56547,-2.90329 8.625,-4.28125 L 77,118 c -3.2e-4,-0.0222 -0.0291,-0.0404 -0.0313,-0.0625 l 0,-0.46875 c -0.0709,-0.016 -0.14671,-0.0159 -0.21875,-0.0313 -0.32483,-0.40181 -0.98179,-0.7689 -2.09375,-1.0625 -0.71749,-0.1622 -1.48385,-0.2977 -2.25,-0.40625 L 84,113.90625 c 3.88211,-0.55661 5.90953,-4.16679 5.875,-7.84375 l 0.0625,-37.15625 c 0,-3.321488 -1.70133,-5.347477 -4.6875,-5.625 -0.0222,-0.0067 -0.0376,-0.02763 -0.0625,-0.03125 l -6.65625,-0.5625 c -0.344,-0.04345 -0.70831,-0.06361 -1.0625,-0.0625 -0.35419,0.0011 -0.70557,0.01606 -1.03125,0.03125 L 34.71875,64.75 c 0.10233,-0.45929 0.16284,-0.921231 0.125,-1.40625 l 0,-21.15625 21.21875,0 c 0.64639,0 1.27964,-0.114575 1.84375,-0.34375 l 0,7.5625 c 0.0613,3.343514 0.35075,4.301096 3.0625,5.5 2.17132,0.872284 7.31526,1.347681 10.59375,1.375 0.35848,0.07241 0.73235,0.124741 1.125,0.125 l 7.5625,-0.25 c -1.07057,0.399709 -1.784,0.826698 -1.78125,1.25 0,0.02895 0.0224,0.06592 0.0313,0.09375 l 0,1.90625 c 2.88096,0.901159 9.29388,1.27761 15.75,1.28125 4.69971,-0.04957 13.25273,-0.261334 17.4375,-2.34375 l 0.0313,-1.8125 c -0.003,-0.01139 -0.024,-0.01984 -0.0313,-0.03125 0.12525,-0.435947 -0.46713,-0.79266 -2.15625,-1.15625 -0.14898,-0.02856 -0.31737,-0.0354 -0.46875,-0.0625 l 10.625,-0.34375 c 3.72976,-0.545101 6.28319,-3.618394 6.25,-7.15625 l 0.0625,-34.5 c 0,-2.904083 -1.34496,-5.014568 -3.75,-5.90625 -0.0106,-0.055895 -0.0363,-0.1145983 -0.0625,-0.15625 l -0.75,-0.0625 C 121.1073,7.076383 120.76846,7.0082777 120.4063,6.96875 L 72.34375,2.0625 c -0.0105,-0.00111 -0.0207,0.00105 -0.0313,0 L 71.71875,2 C 71.59861,1.987303 71.38828,1.981934 71.125,2 z m -1.6875,3.25 52.6875,4.84375 0,39.71875 -53.03125,0.4375 0.34375,-45 z m 16.46875,60.5 -0.125,43.3125 L 30.71875,118 31.0625,69.71875 85.90625,65.75 z"
       id="path7753"
       inkscape:connector-curvature="0" />
    <path
       inkscape:export-ydpi="57.964222"
       inkscape:export-xdpi="57.964222"
       inkscape:export-filename="/home/dafeba/DCV/tallerD/bocetos/08-09-22-hastaahora.png"
       sodipodi:nodetypes="ccccc"
       id="path4441"
       d="m 30.87824,69.517899 -0.33222,48.271561 55.06654,-8.93614 0.127563,-43.311451 -54.861883,3.97603 z"
       style="fill:url(#linearGradient4449);fill-opacity:1;fill-rule:evenodd;stroke:none;display:inline"
       inkscape:connector-curvature="0" />
  </g>
</svg>
