<?xml version="1.0" encoding="UTF-8" standalone="no"?>
<!-- Created with Inkscape (http://www.inkscape.org/) -->

<svg
   xmlns:dc="http://purl.org/dc/elements/1.1/"
   xmlns:cc="http://creativecommons.org/ns#"
   xmlns:rdf="http://www.w3.org/1999/02/22-rdf-syntax-ns#"
   xmlns:svg="http://www.w3.org/2000/svg"
   xmlns="http://www.w3.org/2000/svg"
   xmlns:xlink="http://www.w3.org/1999/xlink"
   xmlns:sodipodi="http://sodipodi.sourceforge.net/DTD/sodipodi-0.dtd"
   xmlns:inkscape="http://www.inkscape.org/namespaces/inkscape"
   width="128"
   height="128"
   id="svg3487"
   version="1.1"
   inkscape:version="0.48.3.1 r9886"
   sodipodi:docname="network-wired-acquiring-symbolic.svg">
  <defs
     id="defs3489">
    <linearGradient
       inkscape:collect="always"
       xlink:href="#linearGradient12578-2-9"
       id="linearGradient3502-8"
       gradientUnits="userSpaceOnUse"
       x1="126.81757"
       y1="921.52106"
       x2="163.21715"
       y2="942.08569" />
    <linearGradient
       id="linearGradient12578-2-9">
      <stop
         style="stop-color:#e9b551;stop-opacity:1;"
         offset="0"
         id="stop12580-04-6" />
      <stop
         style="stop-color:#b48739;stop-opacity:1;"
         offset="1"
         id="stop12582-9-5" />
    </linearGradient>
    <linearGradient
       inkscape:collect="always"
       xlink:href="#linearGradient5344-50-7"
       id="linearGradient3500-1"
       gradientUnits="userSpaceOnUse"
       x1="204.57381"
       y1="874.75006"
       x2="105.384"
       y2="966.40143" />
    <linearGradient
       id="linearGradient5344-50-7">
      <stop
         style="stop-color:#000000;stop-opacity:1;"
         offset="0"
         id="stop5346-2-5" />
      <stop
         style="stop-color:#000000;stop-opacity:0;"
         offset="1"
         id="stop5348-5-7" />
    </linearGradient>
    <filter
       color-interpolation-filters="sRGB"
       inkscape:collect="always"
       id="filter12965-6-5">
      <feGaussianBlur
         inkscape:collect="always"
         stdDeviation="0.73714962"
         id="feGaussianBlur12967-7-4" />
    </filter>
    <linearGradient
       inkscape:collect="always"
       xlink:href="#linearGradient12594-5-8"
       id="linearGradient3496-5"
       gradientUnits="userSpaceOnUse"
       gradientTransform="matrix(1.0867923,0.10225032,0,1.0867923,-523.83903,-81.499932)"
       x1="507.16531"
       y1="964.5368"
       x2="487.82626"
       y2="962.98047" />
    <linearGradient
       id="linearGradient12594-5-8">
      <stop
         id="stop12596-9-4"
         offset="0"
         style="stop-color:#e9b551;stop-opacity:1;" />
      <stop
         id="stop12598-2-0"
         offset="1"
         style="stop-color:#e9b551;stop-opacity:0;" />
    </linearGradient>
    <linearGradient
       inkscape:collect="always"
       xlink:href="#linearGradient12594-5-8"
       id="linearGradient3488-1"
       gradientUnits="userSpaceOnUse"
       gradientTransform="matrix(1.0867923,0.09842648,0,1.0867923,-514.38149,-80.673642)"
       x1="507.16531"
       y1="964.5368"
       x2="487.82626"
       y2="962.98047" />
    <linearGradient
       inkscape:collect="always"
       xlink:href="#linearGradient12594-5-8"
       id="linearGradient3486-9"
       gradientUnits="userSpaceOnUse"
       gradientTransform="matrix(1.0867923,0.09842648,0,1.0867923,-514.38149,-83.381982)"
       x1="507.16531"
       y1="964.5368"
       x2="487.82626"
       y2="962.98047" />
    <linearGradient
       inkscape:collect="always"
       xlink:href="#linearGradient9312-62-5"
       id="linearGradient3464-8"
       gradientUnits="userSpaceOnUse"
       gradientTransform="matrix(2.6666667,0,0,2.6666667,-1080.6722,-1740.8075)"
       x1="427.9429"
       y1="1046.9056"
       x2="427.01163"
       y2="1000.9056" />
    <linearGradient
       id="linearGradient9312-62-5">
      <stop
         id="stop9314-3-0"
         offset="0"
         style="stop-color:#2f445a;stop-opacity:1" />
      <stop
         id="stop9316-7-5"
         offset="1"
         style="stop-color:#415f7c;stop-opacity:1" />
    </linearGradient>
    <linearGradient
       inkscape:collect="always"
       xlink:href="#linearGradient12594-5-8"
       id="linearGradient3462-9"
       gradientUnits="userSpaceOnUse"
       gradientTransform="matrix(2.6666667,0,0,2.6666667,-1294.0055,-1580.8074)"
       x1="520.61182"
       y1="966.24689"
       x2="487.82626"
       y2="962.98047" />
    <linearGradient
       inkscape:collect="always"
       xlink:href="#linearGradient12671-3-6"
       id="linearGradient3460-3"
       gradientUnits="userSpaceOnUse"
       gradientTransform="matrix(2.6666667,0,0,2.6666667,-1294.0055,-1580.8074)"
       x1="482.375"
       y1="952.11218"
       x2="524.3125"
       y2="980.61218" />
    <linearGradient
       inkscape:collect="always"
       id="linearGradient12671-3-6">
      <stop
         style="stop-color:#000000;stop-opacity:1;"
         offset="0"
         id="stop12673-4-6" />
      <stop
         style="stop-color:#000000;stop-opacity:0;"
         offset="1"
         id="stop12675-8-0" />
    </linearGradient>
    <linearGradient
       inkscape:collect="always"
       xlink:href="#linearGradient14753-2-1"
       id="linearGradient3458-9"
       gradientUnits="userSpaceOnUse"
       gradientTransform="matrix(2.6666667,0,0,2.6666667,-1274.0055,-1580.8074)"
       x1="566.72217"
       y1="1008.5345"
       x2="487.38141"
       y2="969.03448" />
    <linearGradient
       id="linearGradient14753-2-1">
      <stop
         style="stop-color:#ffffff;stop-opacity:1;"
         offset="0"
         id="stop14755-0-3" />
      <stop
         style="stop-color:#000000;stop-opacity:1;"
         offset="1"
         id="stop14757-1-4" />
    </linearGradient>
    <linearGradient
       inkscape:collect="always"
       xlink:href="#linearGradient14753-2-1"
       id="linearGradient3456-2"
       gradientUnits="userSpaceOnUse"
       gradientTransform="matrix(2.9282093,0,0,2.9252053,-1427.0583,-1830.3373)"
       x1="503.37485"
       y1="953.7937"
       x2="492.66019"
       y2="1078.48" />
    <linearGradient
       inkscape:collect="always"
       xlink:href="#linearGradient12671-3-6"
       id="linearGradient3454-8"
       gradientUnits="userSpaceOnUse"
       gradientTransform="matrix(2.6666667,0,0,2.6666667,-1126.1291,-1735.2516)"
       x1="442.0679"
       y1="1071.4056"
       x2="428.38663"
       y2="998.65558" />
    <linearGradient
       inkscape:collect="always"
       xlink:href="#linearGradient5316-3"
       id="linearGradient3452-2"
       gradientUnits="userSpaceOnUse"
       gradientTransform="matrix(2.6666667,0,0,2.6666667,-1294.0055,-2505.1696)"
       x1="488.28757"
       y1="939.09247"
       x2="521.72607"
       y2="980.63501" />
    <linearGradient
       id="linearGradient5316-3">
      <stop
         style="stop-color:#c0bfbb;stop-opacity:1;"
         offset="0"
         id="stop5320-6" />
      <stop
         style="stop-color:#798088;stop-opacity:1;"
         offset="1"
         id="stop5322-8" />
    </linearGradient>
    <linearGradient
       inkscape:collect="always"
       xlink:href="#linearGradient12578-2-9"
       id="linearGradient3143"
       gradientUnits="userSpaceOnUse"
       x1="126.81757"
       y1="921.52106"
       x2="163.21715"
       y2="942.08569" />
    <linearGradient
       inkscape:collect="always"
       xlink:href="#linearGradient12578-2-9"
       id="linearGradient3921"
       gradientUnits="userSpaceOnUse"
       x1="126.81757"
       y1="921.52106"
       x2="163.21715"
       y2="942.08569" />
    <linearGradient
       inkscape:collect="always"
       xlink:href="#linearGradient5316-3"
       id="linearGradient3945"
       gradientUnits="userSpaceOnUse"
       gradientTransform="matrix(2.6666667,0,0,2.6666667,-1294.0055,-2505.1696)"
       x1="488.28757"
       y1="939.09247"
       x2="521.72607"
       y2="980.63501" />
  </defs>
  <sodipodi:namedview
     id="base"
     pagecolor="#ffffff"
     bordercolor="#666666"
     borderopacity="1.0"
     inkscape:pageopacity="0.0"
     inkscape:pageshadow="2"
     inkscape:zoom="1.979899"
     inkscape:cx="22.175673"
     inkscape:cy="71.884278"
     inkscape:document-units="px"
     inkscape:current-layer="layer1"
     showgrid="false"
     inkscape:window-width="1366"
     inkscape:window-height="716"
     inkscape:window-x="0"
     inkscape:window-y="0"
     inkscape:window-maximized="1" />
  <metadata
     id="metadata3492">
    <rdf:RDF>
      <cc:Work
         rdf:about="">
        <dc:format>image/svg+xml</dc:format>
        <dc:type
           rdf:resource="http://purl.org/dc/dcmitype/StillImage" />
        <dc:title />
      </cc:Work>
    </rdf:RDF>
  </metadata>
  <g
     inkscape:label="Capa 1"
     inkscape:groupmode="layer"
     id="layer1"
     transform="translate(0,-924.36218)">
    <path
       style="fill:url(#linearGradient3945);stroke:none;display:inline"
       d="M 10.84375 5.78125 L 10.84375 118.6875 L 105.34375 104.78125 L 105.34375 50.46875 C 105.09628 50.737057 104.81691 51.044014 104.4375 51.46875 C 103.55452 52.45721 102.42024 53.77963 101.25 55.09375 C 100.81186 55.585763 100.45789 55.966599 100.03125 56.4375 L 100.03125 99.3125 L 18.8125 110.0625 L 18.8125 35.3125 L 37.6875 35.59375 L 37.8125 27.09375 L 69.03125 27.90625 C 68.244862 26.796974 67.445324 25.668567 66.84375 24.8125 C 66.461061 24.26791 66.103507 23.80463 65.875 23.46875 C 65.760742 23.30082 65.69845 23.17766 65.625 23.0625 C 65.588283 23.00491 65.53991 22.9459 65.5 22.875 C 65.48005 22.83956 65.47494 22.80275 65.4375 22.71875 C 65.41877 22.67676 65.40675 22.64064 65.375 22.53125 C 65.35913 22.47656 65.29526 22.39468 65.28125 22.28125 C 65.26723 22.16783 65.343609 21.71931 65.34375 21.71875 C 65.343892 21.7182 65.49703 21.3437 65.5625 21.25 C 65.627972 21.15631 65.71037 21.1034 65.75 21.0625 C 65.829261 20.98073 65.8388 20.9659 65.875 20.9375 C 65.947402 20.88085 65.99703 20.8345 66.03125 20.8125 C 66.099704 20.76855 66.15933 20.7212 66.21875 20.6875 C 66.33757 20.6201 66.47666 20.56365 66.65625 20.46875 C 67.015419 20.27886 67.500619 20.02093 68.09375 19.71875 C 69.280011 19.11439 70.864306 18.31988 72.4375 17.53125 C 74.010694 16.74263 75.565966 15.97083 76.75 15.375 C 77.342023 15.07708 77.843121 14.80151 78.1875 14.625 C 78.297281 14.25398 78.441722 13.73055 78.625 13.09375 C 78.836306 12.359583 79.128008 11.33801 79.40625 10.40625 L 10.84375 5.78125 z "
       transform="translate(0,924.36218)"
       id="path3380" />
    <path
       sodipodi:type="star"
       style="fill:url(#linearGradient3143);fill-opacity:1;stroke:none;display:inline"
       id="path3917"
       sodipodi:sides="7"
       sodipodi:cx="142.99593"
       sodipodi:cy="932.80035"
       sodipodi:r1="25.473122"
       sodipodi:r2="18.17729"
       sodipodi:arg1="0.69233443"
       sodipodi:arg2="1.1411334"
       inkscape:flatsided="false"
       inkscape:rounded="0.010368286"
       inkscape:randomized="0"
       d="m 162.60406,949.06076 c -0.0797,0.0961 -11.92264,0.21268 -12.03612,0.26468 -0.11348,0.052 -7.93464,8.94576 -8.05944,8.94337 -0.1248,-0.002 -7.59993,-9.18889 -7.71134,-9.2452 -0.1114,-0.0563 -11.94124,-0.62595 -12.01718,-0.72502 -0.0759,-0.0991 2.44569,-11.67104 2.42025,-11.79325 -0.0255,-0.1222 -6.95585,-9.72631 -6.92575,-9.84745 0.0301,-0.12115 10.64965,-5.36467 10.72933,-5.46075 0.0797,-0.0961 3.26744,-11.50256 3.38092,-11.55456 0.11348,-0.052 10.83421,4.98142 10.95902,4.98381 0.1248,0.002 11.03027,-4.61714 11.14168,-4.56084 0.11141,0.0563 2.86039,11.5764 2.93633,11.67546 0.076,0.0991 10.4871,5.74508 10.51254,5.86728 0.0254,0.12221 -7.26737,9.45411 -7.29747,9.57525 -0.0301,0.12114 2.04691,11.78114 1.96723,11.87722 z"
       transform="matrix(1.1784134,0,0,1.1781555,-72.579902,-145.2815)" />
  </g>
</svg>
