<?xml version="1.0" encoding="UTF-8" standalone="no"?>
<!-- Created with Inkscape (http://www.inkscape.org/) -->
<svg
   xmlns:dc="http://purl.org/dc/elements/1.1/"
   xmlns:cc="http://creativecommons.org/ns#"
   xmlns:rdf="http://www.w3.org/1999/02/22-rdf-syntax-ns#"
   xmlns:svg="http://www.w3.org/2000/svg"
   xmlns="http://www.w3.org/2000/svg"
   xmlns:xlink="http://www.w3.org/1999/xlink"
   xmlns:sodipodi="http://sodipodi.sourceforge.net/DTD/sodipodi-0.dtd"
   xmlns:inkscape="http://www.inkscape.org/namespaces/inkscape"
   width="128"
   height="128"
   id="svg2"
   sodipodi:version="0.32"
   inkscape:version="0.46"
   version="1.0"
   sodipodi:docname="user-trash-full.svg"
   inkscape:output_extension="org.inkscape.output.svg.inkscape">
  <defs
     id="defs4">
    <linearGradient
       inkscape:collect="always"
       xlink:href="#linearGradient5439"
       id="linearGradient10401"
       gradientUnits="userSpaceOnUse"
       gradientTransform="matrix(2.6765239,0,0,2.6765239,-1298.6208,-1689.8171)"
       x1="492.65778"
       y1="626.40784"
       x2="586.93988"
       y2="745.66449" />
    <linearGradient
       inkscape:collect="always"
       xlink:href="#linearGradient5344"
       id="linearGradient10394"
       gradientUnits="userSpaceOnUse"
       gradientTransform="matrix(2.6765239,0,0,2.6765239,-1298.6208,-1689.8171)"
       x1="513.96362"
       y1="661.19366"
       x2="518.86896"
       y2="637.52454" />
    <linearGradient
       inkscape:collect="always"
       xlink:href="#linearGradient5316"
       id="linearGradient10391"
       gradientUnits="userSpaceOnUse"
       gradientTransform="matrix(2.6765239,0,0,2.6765239,-1298.6208,-1689.8171)"
       x1="519.95825"
       y1="647.79089"
       x2="516.5"
       y2="643.21948" />
    <linearGradient
       inkscape:collect="always"
       xlink:href="#linearGradient5344"
       id="linearGradient10387"
       gradientUnits="userSpaceOnUse"
       gradientTransform="matrix(2.6765239,0,0,2.6765239,-1298.6208,-1689.8171)"
       x1="512.30157"
       y1="632.9248"
       x2="519.57452"
       y2="650.17572" />
    <linearGradient
       inkscape:collect="always"
       xlink:href="#linearGradient5344"
       id="linearGradient10381"
       gradientUnits="userSpaceOnUse"
       gradientTransform="matrix(2.6765239,0,0,2.6765239,-1298.6208,-1689.8171)"
       x1="526.0625"
       y1="667.56323"
       x2="524.125"
       y2="643.65698" />
    <linearGradient
       inkscape:collect="always"
       xlink:href="#linearGradient5362"
       id="linearGradient10376"
       gradientUnits="userSpaceOnUse"
       gradientTransform="matrix(2.6765239,0,0,2.6765239,-1298.6208,-2514.1865)"
       x1="476.7262"
       y1="940.28815"
       x2="502.00113"
       y2="979.54144" />
    <linearGradient
       inkscape:collect="always"
       xlink:href="#linearGradient5344"
       id="linearGradient10366"
       gradientUnits="userSpaceOnUse"
       gradientTransform="matrix(2.6765239,0,0,2.6765239,-1298.6208,-2514.1865)"
       x1="556.40369"
       y1="975.97461"
       x2="494.40411"
       y2="944.34961" />
    <linearGradient
       inkscape:collect="always"
       xlink:href="#linearGradient5362"
       id="linearGradient10363"
       gradientUnits="userSpaceOnUse"
       gradientTransform="matrix(2.6765239,0,0,2.6765239,-1298.6208,-2514.1865)"
       x1="487.4212"
       y1="938.40631"
       x2="495.68619"
       y2="945.75403" />
    <linearGradient
       inkscape:collect="always"
       xlink:href="#linearGradient9863"
       id="linearGradient10442"
       gradientUnits="userSpaceOnUse"
       x1="509.19516"
       y1="157.46848"
       x2="509.19516"
       y2="112.66784"
       gradientTransform="matrix(2.6765239,0,0,2.6765239,-1298.9218,-298.0247)" />
    <linearGradient
       inkscape:collect="always"
       xlink:href="#linearGradient5316"
       id="linearGradient10679"
       gradientUnits="userSpaceOnUse"
       gradientTransform="matrix(2.4993378,-5.8003287e-2,4.3271185e-2,2.4990827,-1237.5897,-1542.7369)"
       x1="507.57828"
       y1="652.32129"
       x2="520.39868"
       y2="671.72296" />
    <linearGradient
       inkscape:collect="always"
       xlink:href="#linearGradient5344"
       id="linearGradient10701"
       x1="603.46594"
       y1="-107.73232"
       x2="571.42249"
       y2="-143.35732"
       gradientUnits="userSpaceOnUse"
       gradientTransform="matrix(2.6765239,0,0,2.6765239,-1459.5132,451.402)" />
    <linearGradient
       id="linearGradient12594">
      <stop
         id="stop12596"
         offset="0"
         style="stop-color:#e9b551;stop-opacity:1;" />
      <stop
         id="stop12598"
         offset="1"
         style="stop-color:#e9b551;stop-opacity:0;" />
    </linearGradient>
    <linearGradient
       id="linearGradient5316">
      <stop
         style="stop-color:#c0bfbb;stop-opacity:1;"
         offset="0"
         id="stop5320" />
      <stop
         style="stop-color:#798088;stop-opacity:1;"
         offset="1"
         id="stop5322" />
    </linearGradient>
    <linearGradient
       id="linearGradient9863">
      <stop
         style="stop-color:#2f445a;stop-opacity:1;"
         offset="0"
         id="stop9865" />
      <stop
         style="stop-color:#415f7c;stop-opacity:1"
         offset="1"
         id="stop9867" />
    </linearGradient>
    <linearGradient
       id="linearGradient12336">
      <stop
         id="stop12338"
         offset="0"
         style="stop-color:#ff6e00;stop-opacity:1;" />
      <stop
         id="stop12340"
         offset="1"
         style="stop-color:#eb2600;stop-opacity:1;" />
    </linearGradient>
    <linearGradient
       id="linearGradient5362">
      <stop
         style="stop-color:#ffffff;stop-opacity:1;"
         offset="0"
         id="stop5364" />
      <stop
         style="stop-color:#ffffff;stop-opacity:0;"
         offset="1"
         id="stop5366" />
    </linearGradient>
    <linearGradient
       id="linearGradient5439">
      <stop
         style="stop-color:#ffffff;stop-opacity:1;"
         offset="0"
         id="stop5441" />
      <stop
         style="stop-color:#000000;stop-opacity:1;"
         offset="1"
         id="stop5443" />
    </linearGradient>
    <linearGradient
       inkscape:collect="always"
       xlink:href="#linearGradient5439"
       id="linearGradient13309"
       gradientUnits="userSpaceOnUse"
       x1="499.90704"
       y1="953.39532"
       x2="652.75177"
       y2="1116.9413"
       gradientTransform="matrix(2.6765239,0,0,2.6765239,-1298.6765,-2514.903)" />
    <linearGradient
       inkscape:collect="always"
       id="linearGradient5398">
      <stop
         style="stop-color:#87c6ff;stop-opacity:1;"
         offset="0"
         id="stop5400" />
      <stop
         style="stop-color:#87c6ff;stop-opacity:0"
         offset="1"
         id="stop5402" />
    </linearGradient>
    <linearGradient
       inkscape:collect="always"
       xlink:href="#linearGradient5398"
       id="linearGradient13322"
       gradientUnits="userSpaceOnUse"
       x1="500.87799"
       y1="948.11993"
       x2="500.87799"
       y2="953.17468"
       gradientTransform="matrix(2.6765239,0,0,2.6765239,-1298.6765,-2514.903)" />
    <linearGradient
       id="linearGradient5344">
      <stop
         style="stop-color:#000000;stop-opacity:1;"
         offset="0"
         id="stop5346" />
      <stop
         style="stop-color:#000000;stop-opacity:0;"
         offset="1"
         id="stop5348" />
    </linearGradient>
    <linearGradient
       inkscape:collect="always"
       xlink:href="#linearGradient5344"
       id="linearGradient13314"
       gradientUnits="userSpaceOnUse"
       x1="544.89001"
       y1="919.05762"
       x2="506.01498"
       y2="969.80762"
       gradientTransform="translate(-485.21014,-859.4386)" />
    <linearGradient
       id="linearGradient8702">
      <stop
         id="stop8704"
         offset="0"
         style="stop-color:#c0bfbb;stop-opacity:1;" />
      <stop
         id="stop8706"
         offset="1"
         style="stop-color:#798088;stop-opacity:1;" />
    </linearGradient>
    <linearGradient
       inkscape:collect="always"
       xlink:href="#linearGradient8702"
       id="linearGradient13316"
       gradientUnits="userSpaceOnUse"
       gradientTransform="matrix(2.6765239,0,0,2.6765239,-1779.5422,-994.63744)"
       x1="700.13062"
       y1="378.86951"
       x2="707.80457"
       y2="395.74899" />
    <inkscape:perspective
       sodipodi:type="inkscape:persp3d"
       inkscape:vp_x="0 : 526.18109 : 1"
       inkscape:vp_y="0 : 1000 : 0"
       inkscape:vp_z="744.09448 : 526.18109 : 1"
       inkscape:persp3d-origin="372.04724 : 350.78739 : 1"
       id="perspective10" />
    <linearGradient
       inkscape:collect="always"
       xlink:href="#linearGradient5344"
       id="linearGradient11982"
       gradientUnits="userSpaceOnUse"
       gradientTransform="translate(58.38756,-239.79289)"
       x1="493.9072"
       y1="282.77054"
       x2="435.71548"
       y2="231.20738" />
    <linearGradient
       inkscape:collect="always"
       xlink:href="#linearGradient5316"
       id="linearGradient11987"
       gradientUnits="userSpaceOnUse"
       gradientTransform="matrix(0,-6.4509326,6.4649818,0,-726.43747,2464.539)"
       x1="380.45135"
       y1="123.74059"
       x2="373.96744"
       y2="128.94151" />
    <linearGradient
       inkscape:collect="always"
       xlink:href="#linearGradient9863"
       id="linearGradient11991"
       gradientUnits="userSpaceOnUse"
       gradientTransform="matrix(2.6724743,0,0,2.6666667,-1136.3076,-136.45573)"
       x1="448.61356"
       y1="98.163681"
       x2="448.61356"
       y2="51.040291" />
    <linearGradient
       inkscape:collect="always"
       xlink:href="#linearGradient5439"
       id="linearGradient11994"
       gradientUnits="userSpaceOnUse"
       gradientTransform="matrix(2.5929476,0,0,2.5467438,-1253.6197,-1603.2437)"
       x1="485.01462"
       y1="633.39752"
       x2="594.81787"
       y2="707.73212" />
    <linearGradient
       inkscape:collect="always"
       xlink:href="#linearGradient5439"
       id="linearGradient11997"
       gradientUnits="userSpaceOnUse"
       gradientTransform="matrix(2.7004997,0,0,2.6523792,-1308.1375,-1672.2418)"
       x1="511.00421"
       y1="661.83636"
       x2="484.41125"
       y2="630.4527" />
    <linearGradient
       inkscape:collect="always"
       xlink:href="#linearGradient5439"
       id="linearGradient12000"
       gradientUnits="userSpaceOnUse"
       gradientTransform="matrix(2.6724743,0,0,2.6666667,-1296.1836,-1683.3724)"
       x1="513.53632"
       y1="643.15497"
       x2="572.04932"
       y2="698.16571" />
    <linearGradient
       inkscape:collect="always"
       xlink:href="#linearGradient5439"
       id="linearGradient12003"
       gradientUnits="userSpaceOnUse"
       gradientTransform="matrix(2.4555546,0,0,2.4508294,-1182.6426,-1541.5864)"
       x1="482.04404"
       y1="629.51166"
       x2="600.66217"
       y2="711.91254" />
    <linearGradient
       inkscape:collect="always"
       xlink:href="#linearGradient5439"
       id="linearGradient12006"
       gradientUnits="userSpaceOnUse"
       gradientTransform="matrix(2.4316245,0,0,2.4263403,-1173.0757,-1524.0986)"
       x1="484.04169"
       y1="629.66498"
       x2="598.57666"
       y2="708.88654" />
    <linearGradient
       inkscape:collect="always"
       xlink:href="#linearGradient5439"
       id="linearGradient12009"
       gradientUnits="userSpaceOnUse"
       gradientTransform="matrix(2.6724743,0,0,2.6666667,-1296.656,-1683.1224)"
       x1="494.96805"
       y1="639.71228"
       x2="531.75"
       y2="670.73663" />
    <linearGradient
       inkscape:collect="always"
       xlink:href="#linearGradient5439"
       id="linearGradient12012"
       gradientUnits="userSpaceOnUse"
       gradientTransform="matrix(2.6724743,0,0,2.6666667,-1296.656,-1683.1224)"
       x1="495.35397"
       y1="640.05084"
       x2="531.08636"
       y2="670.77136" />
    <linearGradient
       inkscape:collect="always"
       xlink:href="#linearGradient5439"
       id="linearGradient12015"
       gradientUnits="userSpaceOnUse"
       gradientTransform="matrix(2.6724743,0,0,2.6666667,-1296.656,-1683.1224)"
       x1="485.65756"
       y1="629.86298"
       x2="594.2511"
       y2="706.58405" />
    <linearGradient
       inkscape:collect="always"
       xlink:href="#linearGradient5362"
       id="linearGradient12018"
       gradientUnits="userSpaceOnUse"
       gradientTransform="matrix(2.6724743,0,0,2.6666667,-1296.656,-1683.1224)"
       x1="491.02121"
       y1="633.16431"
       x2="485.68814"
       y2="640.88721" />
    <linearGradient
       inkscape:collect="always"
       xlink:href="#linearGradient5439"
       id="linearGradient12021"
       gradientUnits="userSpaceOnUse"
       gradientTransform="matrix(2.6724743,0,0,2.6666667,-1296.656,-1683.1224)"
       x1="490.27121"
       y1="632.72681"
       x2="449.2301"
       y2="708.07471" />
  </defs>
  <sodipodi:namedview
     id="base"
     pagecolor="#ffffff"
     bordercolor="#666666"
     borderopacity="1.0"
     inkscape:pageopacity="0.0"
     inkscape:pageshadow="2"
     inkscape:zoom="1.7692308"
     inkscape:cx="70.353051"
     inkscape:cy="41.218688"
     inkscape:document-units="px"
     inkscape:current-layer="layer1"
     showgrid="false"
     inkscape:showpageshadow="false"
     inkscape:window-width="1014"
     inkscape:window-height="715"
     inkscape:window-x="0"
     inkscape:window-y="6"
     showguides="true"
     inkscape:guide-bbox="true" />
  <metadata
     id="metadata7">
    <rdf:RDF>
      <cc:Work
         rdf:about="">
        <dc:format>image/svg+xml</dc:format>
        <dc:type
           rdf:resource="http://purl.org/dc/dcmitype/StillImage" />
      </cc:Work>
    </rdf:RDF>
  </metadata>
  <g
     inkscape:label="Capa 1"
     inkscape:groupmode="layer"
     id="layer1">
    <path
       style="fill:url(#linearGradient10401);fill-rule:evenodd;stroke:none;stroke-width:1;stroke-linecap:butt;stroke-linejoin:miter;stroke-miterlimit:4;stroke-dasharray:none;stroke-opacity:1;display:inline"
       d="M 6.9456098,9.7660017 L 36.254242,5.5839063 C 40.173128,5.0246467 47.936305,4.6168782 52.091769,4.9817152 L 120.46389,10.5692 C 123.45253,11.063982 126.84577,13.719843 126.15962,17.853922 L 105.88401,104.79863 C 104.9824,109.06662 101.85244,112.84919 97.695106,113.581 L 47.511246,121.51676 C 42.807336,122.53071 38.537102,122.09901 34.500931,120.88722 L 23.643666,117.32517 C 19.871427,115.67153 17.643221,112.99907 16.8719,109.48608 L 2.3060696,16.337189 C 2.3449862,12.768874 3.61944,10.121819 6.9456098,9.7660017 z"
       id="path10169"
       sodipodi:nodetypes="ccccccccccccc"
       inkscape:export-filename="/home/dafeba/DCV/tallerD/bocetos/08-09-22-hastaahora.png"
       inkscape:export-xdpi="57.964222"
       inkscape:export-ydpi="57.964222" />
    <path
       inkscape:export-ydpi="57.964222"
       inkscape:export-xdpi="57.964222"
       inkscape:export-filename="/home/dafeba/DCV/tallerD/bocetos/08-09-22-hastaahora.png"
       sodipodi:nodetypes="cccccccc"
       id="path10173"
       d="M 58.722134,48.579613 L 107.21957,47.971266 C 111.33767,47.855453 112.82943,45.846668 113.27815,42.964962 L 117.83217,18.25184 L 110.94219,42.79966 C 110.45926,44.727854 108.95056,45.387243 107.3728,45.61539 L 54.121216,46.596577 C 54.99842,47.955127 56.456269,48.70003 58.722134,48.579613 z"
       style="fill:url(#linearGradient10394);fill-rule:evenodd;stroke:none;stroke-width:1px;stroke-linecap:butt;stroke-linejoin:miter;stroke-opacity:1;display:inline" />
    <path
       inkscape:export-ydpi="57.964222"
       inkscape:export-xdpi="57.964222"
       inkscape:export-filename="/home/dafeba/DCV/tallerD/bocetos/08-09-22-hastaahora.png"
       style="fill:url(#linearGradient10391);fill-rule:evenodd;stroke:none;stroke-width:1px;stroke-linecap:butt;stroke-linejoin:miter;stroke-opacity:1;display:inline"
       d="M 71.759455,46.997921 L 69.293868,40.739379 L 81.074535,31.373312 L 79.479675,23.411054 L 99.617974,27.625295 L 100.88694,31.215932 L 107.2234,31.942474 L 98.691977,41.979439 L 98.691977,47.165204 L 71.759455,46.997921 z"
       id="path10175"
       sodipodi:nodetypes="cccccccccc" />
    <path
       sodipodi:nodetypes="ccccccc"
       id="path10177"
       d="M 58.722134,48.579613 L 107.21957,47.971266 C 111.33767,47.855453 112.82943,45.846668 113.27815,42.964962 L 117.83217,21.090722 L 53.069262,17.527252 L 53.004678,42.012815 C 53.116931,46.088439 54.549353,48.801363 58.722134,48.579613 z"
       style="fill:url(#linearGradient10387);fill-rule:evenodd;stroke:none;stroke-width:1px;stroke-linecap:butt;stroke-linejoin:miter;stroke-opacity:1;display:inline"
       inkscape:export-filename="/home/dafeba/DCV/tallerD/bocetos/08-09-22-hastaahora.png"
       inkscape:export-xdpi="57.964222"
       inkscape:export-ydpi="57.964222" />
    <path
       inkscape:export-ydpi="57.964222"
       inkscape:export-xdpi="57.964222"
       inkscape:export-filename="/home/dafeba/DCV/tallerD/bocetos/08-09-22-hastaahora.png"
       style="fill:#f2f2f2;fill-rule:evenodd;stroke:none;stroke-width:1px;stroke-linecap:butt;stroke-linejoin:miter;stroke-opacity:1;display:inline"
       d="M 58.837492,48.572761 L 54.253838,36.588973 L 60.261162,30.784637 L 67.921374,31.725997 L 71.439183,45.043577 L 75.71683,36.891661 L 85.309358,38.801067 L 86.694459,34.277741 L 90.32784,32.109757 L 96.448783,34.022696 L 97.688281,39.804763 L 91.666102,42.899494 L 97.437357,48.168901 L 58.837492,48.572761 z"
       id="path10179"
       sodipodi:nodetypes="cccccccccccccc" />
    <path
       inkscape:export-ydpi="57.964222"
       inkscape:export-xdpi="57.964222"
       inkscape:export-filename="/home/dafeba/DCV/tallerD/bocetos/08-09-22-hastaahora.png"
       style="fill:#f2f2f2;fill-rule:evenodd;stroke:none;stroke-width:1px;stroke-linecap:butt;stroke-linejoin:miter;stroke-opacity:1;display:inline"
       d="M 97.730088,48.085259 L 95.680888,42.983135 L 99.770376,39.118984 L 105.96878,37.881012 L 110.40177,30.353288 L 120.94058,35.622695 L 109.06351,45.659659 L 108.05981,47.907511 C 107.5559,47.950389 106.99236,47.978359 106.33094,47.981865 L 97.730088,48.085259 z"
       id="path10181"
       sodipodi:nodetypes="cccccccccc" />
    <path
       inkscape:export-ydpi="57.964222"
       inkscape:export-xdpi="57.964222"
       inkscape:export-filename="/home/dafeba/DCV/tallerD/bocetos/08-09-22-hastaahora.png"
       style="fill:url(#linearGradient10381);fill-rule:evenodd;stroke:none;stroke-width:1px;stroke-linecap:butt;stroke-linejoin:miter;stroke-opacity:1;display:inline"
       d="M 112.57645,42.64857 L 120.94058,35.539053 L 109.23079,42.481287 L 105.80149,37.79737 L 104.93023,38.463905 L 106.2197,45.659659 L 95.670423,43.004039 L 97.718499,48.086865 L 97.388189,48.084884 L 94.104094,45.132197 L 94.623045,47.257062 L 88.645912,48.214964 L 89.324144,46.830639 L 90.704213,43.401342 L 97.668876,39.838702 L 90.802468,40.302972 L 90.32784,32.946171 L 87.316751,42.481287 L 85.309358,38.96835 L 81.127289,45.492377 L 71.62951,45.258448 L 70.119737,39.714591 L 67.086111,46.581829 L 60.921354,46.352183 L 55.332531,39.579454 L 58.781018,48.622705 L 71.42489,48.503466 L 106.41827,47.98604 L 108.04935,47.917976 L 112.57645,42.64857 z"
       id="path10183"
       sodipodi:nodetypes="cccccccccccccccccccccccccccccc" />
    <path
       inkscape:export-ydpi="57.964222"
       inkscape:export-xdpi="57.964222"
       inkscape:export-filename="/home/dafeba/DCV/tallerD/bocetos/08-09-22-hastaahora.png"
       sodipodi:nodetypes="cccccccccc"
       id="path10185"
       d="M 6.9456098,9.5294238 L 39.348972,5.7511891 C 37.412962,6.1956259 36.265885,9.1831083 36.325384,13.534039 L 36.386944,113.67476 C 36.454098,118.34717 38.839202,121.36476 42.515916,122.0488 C 40.279305,121.93074 36.585221,121.51299 34.500931,120.88722 L 23.643666,117.32517 C 19.871427,115.67153 17.643221,112.99907 16.8719,109.48608 L 2.3060696,16.337189 C 2.3449862,12.768874 1.6677186,9.7078141 6.9456098,9.5294238 z"
       style="fill:url(#linearGradient10376);fill-rule:evenodd;stroke:none;stroke-width:1;stroke-linecap:butt;stroke-linejoin:miter;stroke-miterlimit:4;stroke-dasharray:none;stroke-opacity:1;display:inline" />
    <path
       inkscape:export-ydpi="57.964222"
       inkscape:export-xdpi="57.964222"
       inkscape:export-filename="/home/dafeba/DCV/tallerD/bocetos/08-09-22-hastaahora.png"
       sodipodi:nodetypes="ccccccccc"
       id="path10187"
       d="M 2.618634,10.191408 L 36.254242,5.5839063 C 40.173128,5.0246467 47.936305,4.6168782 52.091769,4.9817152 L 125.43195,10.983204 C 128.47971,11.123106 127.61289,17.899048 126.0396,17.833928 L 52.096988,11.89962 C 47.567908,11.56939 42.092543,11.700593 37.090307,12.221525 L 2.2469452,16.278038 C 1.3239727,16.389943 -0.093808804,10.618608 2.618634,10.191408 z"
       style="fill:#b3b3b3;fill-opacity:1;fill-rule:evenodd;stroke:none;stroke-width:1;stroke-linecap:butt;stroke-linejoin:miter;stroke-miterlimit:4;stroke-dasharray:none;stroke-opacity:1;display:inline" />
    <path
       style="fill:url(#linearGradient10366);fill-rule:evenodd;stroke:none;stroke-width:1;stroke-linecap:butt;stroke-linejoin:miter;stroke-miterlimit:4;stroke-dasharray:none;stroke-opacity:1;display:inline"
       d="M 36.421524,9.6823336 C 40.34041,9.1230739 47.852664,8.7153055 52.008128,9.0801425 L 127.35032,15.688346 C 127.13213,16.897814 126.63676,17.858632 126.0396,17.833928 L 52.096988,11.89962 C 47.567908,11.56939 42.092543,11.700593 37.090307,12.221525 L 36.532279,12.226209 C 35.427196,12.350293 35.349122,9.8261432 36.421524,9.6823336 z"
       id="path10189"
       sodipodi:nodetypes="cccccccc"
       inkscape:export-filename="/home/dafeba/DCV/tallerD/bocetos/08-09-22-hastaahora.png"
       inkscape:export-xdpi="57.964222"
       inkscape:export-ydpi="57.964222" />
    <path
       style="fill:url(#linearGradient10363);fill-rule:evenodd;stroke:none;stroke-width:1;stroke-linecap:butt;stroke-linejoin:miter;stroke-miterlimit:4;stroke-dasharray:none;stroke-opacity:1;display:inline"
       d="M 2.618634,10.191408 L 36.254242,5.5839063 C 34.574134,6.4150205 33.929145,8.1087516 33.57737,10.046849 L 1.1031059,13.744146 C 0.80231815,12.191869 1.1682525,10.41985 2.618634,10.191408 z"
       id="path10191"
       sodipodi:nodetypes="ccccc"
       inkscape:export-filename="/home/dafeba/DCV/tallerD/bocetos/08-09-22-hastaahora.png"
       inkscape:export-xdpi="57.964222"
       inkscape:export-ydpi="57.964222" />
    <path
       sodipodi:nodetypes="cccccccccccccc"
       id="path10440"
       d="M 48.373462,4.8720848 C 44.253274,4.8589698 39.184607,5.2055797 36.245463,5.624991 L 2.6216317,10.225133 C 0.4414692,10.53403 1.5415741,16.536617 2.2870663,17.371023 L 16.840665,109.50731 C 17.611986,113.02051 19.843323,115.63253 23.615616,117.28609 L 34.488994,120.88253 C 38.525165,122.09446 42.833137,122.5658 47.537048,121.55167 L 97.721871,113.60587 C 101.87921,112.87411 105.01719,109.09164 105.91873,104.82339 L 124.79965,18.723524 C 126.49375,18.422148 127.74714,11.115344 124.75658,10.978039 L 52.053682,4.95586 C 51.014816,4.8643229 49.746866,4.8763672 48.373462,4.8720848 z"
       style="fill:none;fill-rule:evenodd;stroke:url(#linearGradient10442);stroke-width:2.67652392;stroke-linecap:round;stroke-linejoin:round;stroke-miterlimit:4;stroke-dasharray:none;stroke-opacity:1;display:inline" />
    <path
       inkscape:export-ydpi="208.125"
       inkscape:export-xdpi="208.125"
       inkscape:export-filename="/home/dafeba/DCV/tallerD/bocetos/papelera.png"
       sodipodi:nodetypes="ccccccccccccccccccccccccccccccccccccccc"
       id="path10661"
       d="M 85.226225,58.026833 L 73.27758,58.382248 L 82.261948,71.846073 L 91.320349,67.02635 L 85.226225,58.026833 z M 72.287935,59.88964 L 62.152929,74.734712 L 59.625193,73.152699 L 61.157155,84.914416 L 73.000613,82.998881 L 70.309904,81.030003 L 78.694489,68.881877 L 72.287935,59.88964 z M 87.792449,70.858329 L 85.163246,81.466624 L 87.947955,79.839405 L 93.733743,89.080452 L 104.72617,87.653409 L 96.774783,75.181236 L 99.327866,73.715732 L 87.792449,70.858329 z M 56.06282,84.016977 L 48.616838,96.221471 L 54.570979,106.16179 L 63.429283,89.783762 L 56.06282,84.016977 z M 105.3767,89.122768 L 83.320486,92.369097 L 83.823566,103.37346 L 99.018754,100.98946 L 105.3767,89.122768 z M 72.66048,90.428911 L 72.640487,93.788859 L 62.348316,95.043399 L 55.463921,108.09424 L 72.761171,105.27085 L 72.889323,108.15861 L 81.933886,98.026492 L 72.66048,90.428911 z"
       style="fill:url(#linearGradient10679);fill-rule:evenodd;stroke:none;stroke-width:1px;stroke-linecap:butt;stroke-linejoin:miter;stroke-opacity:1;display:inline" />
    <path
       style="fill:url(#linearGradient10701);fill-rule:evenodd;stroke:none;stroke-width:1px;stroke-linecap:butt;stroke-linejoin:miter;stroke-opacity:1;display:inline"
       d="M 85.226225,58.026833 L 73.27758,58.382248 L 82.261948,71.846073 L 91.320349,67.02635 L 85.226225,58.026833 z M 72.287935,59.88964 L 62.152929,74.734712 L 59.625193,73.152699 L 61.157155,84.914416 L 73.000613,82.998881 L 70.309904,81.030003 L 78.694489,68.881877 L 72.287935,59.88964 z M 87.792449,70.858329 L 85.163246,81.466624 L 87.947955,79.839405 L 93.733743,89.080452 L 104.72617,87.653409 L 96.774783,75.181236 L 99.327866,73.715732 L 87.792449,70.858329 z M 56.06282,84.016977 L 48.616838,96.221471 L 54.570979,106.16179 L 63.429283,89.783762 L 56.06282,84.016977 z M 105.3767,89.122768 L 83.320486,92.369097 L 83.823566,103.37346 L 99.018754,100.98946 L 105.3767,89.122768 z M 72.66048,90.428911 L 72.640487,93.788859 L 62.348316,95.043399 L 55.463921,108.09424 L 72.761171,105.27085 L 72.889323,108.15861 L 81.933886,98.026492 L 72.66048,90.428911 z"
       id="path10697"
       sodipodi:nodetypes="ccccccccccccccccccccccccccccccccccccccc"
       inkscape:export-filename="/home/dafeba/DCV/tallerD/bocetos/papelera.png"
       inkscape:export-xdpi="208.125"
       inkscape:export-ydpi="208.125" />
  </g>
</svg>
