<?xml version="1.0" encoding="UTF-8" standalone="no"?>
<!-- Created with Inkscape (http://www.inkscape.org/) -->

<svg
   xmlns:dc="http://purl.org/dc/elements/1.1/"
   xmlns:cc="http://creativecommons.org/ns#"
   xmlns:rdf="http://www.w3.org/1999/02/22-rdf-syntax-ns#"
   xmlns:svg="http://www.w3.org/2000/svg"
   xmlns="http://www.w3.org/2000/svg"
   xmlns:xlink="http://www.w3.org/1999/xlink"
   xmlns:sodipodi="http://sodipodi.sourceforge.net/DTD/sodipodi-0.dtd"
   xmlns:inkscape="http://www.inkscape.org/namespaces/inkscape"
   width="128"
   height="128"
   id="svg73994"
   version="1.1"
   inkscape:version="0.48.3.1 r9886"
   sodipodi:docname="weather-few-clouds-night-160.svg">
  <defs
     id="defs73996">
    <linearGradient
       inkscape:collect="always"
       xlink:href="#linearGradient9863-1"
       id="linearGradient72466"
       gradientUnits="userSpaceOnUse"
       gradientTransform="matrix(2.2183638,0.04663043,0,2.2183638,-2387.0652,234.1115)"
       x1="1111.3293"
       y1="338.76315"
       x2="1111.3293"
       y2="292.43744" />
    <linearGradient
       id="linearGradient9863-1">
      <stop
         id="stop9865-5"
         offset="0"
         style="stop-color:#2f445a;stop-opacity:1;" />
      <stop
         id="stop9867-6"
         offset="1"
         style="stop-color:#415f7c;stop-opacity:1" />
    </linearGradient>
    <linearGradient
       inkscape:collect="always"
       xlink:href="#linearGradient14753-1"
       id="linearGradient72464"
       gradientUnits="userSpaceOnUse"
       gradientTransform="matrix(2.6666671,0,0,2.6666667,-1294.8238,-1581.2921)"
       x1="502.89264"
       y1="960.06226"
       x2="539.76996"
       y2="1027.2374" />
    <linearGradient
       id="linearGradient14753-1">
      <stop
         id="stop14755-3"
         offset="0"
         style="stop-color:#ffffff;stop-opacity:1;" />
      <stop
         id="stop14757-4"
         offset="1"
         style="stop-color:#000000;stop-opacity:1;" />
    </linearGradient>
    <linearGradient
       inkscape:collect="always"
       xlink:href="#linearGradient14753-1"
       id="linearGradient72462"
       gradientUnits="userSpaceOnUse"
       gradientTransform="matrix(2.6666671,0,0,2.6666667,-1294.8238,-1581.2921)"
       x1="499.93954"
       y1="973.05579"
       x2="494.51364"
       y2="994.60516" />
    <linearGradient
       inkscape:collect="always"
       xlink:href="#linearGradient14753-1"
       id="linearGradient72460"
       gradientUnits="userSpaceOnUse"
       gradientTransform="matrix(2.6666671,0,0,2.6666667,-1294.8238,-1581.2921)"
       x1="504.44736"
       y1="959.78009"
       x2="497.26135"
       y2="993.01416" />
    <linearGradient
       inkscape:collect="always"
       xlink:href="#linearGradient5344-4"
       id="linearGradient72458"
       gradientUnits="userSpaceOnUse"
       gradientTransform="matrix(2.2293577,0.04686149,0,2.2292656,-1060.2509,-1186.2711)"
       x1="504.93024"
       y1="992.24542"
       x2="497.81961"
       y2="968.64575" />
    <linearGradient
       id="linearGradient5344-4">
      <stop
         id="stop5346-0"
         offset="0"
         style="stop-color:#000000;stop-opacity:1;" />
      <stop
         id="stop5348-1"
         offset="1"
         style="stop-color:#000000;stop-opacity:0;" />
    </linearGradient>
    <linearGradient
       id="linearGradient5439-1">
      <stop
         id="stop5441-1"
         offset="0"
         style="stop-color:#ffffff;stop-opacity:1;" />
      <stop
         id="stop5443-9"
         offset="1"
         style="stop-color:#000000;stop-opacity:1;" />
    </linearGradient>
    <linearGradient
       id="linearGradient9312-0">
      <stop
         style="stop-color:#2f445a;stop-opacity:1"
         offset="0"
         id="stop9314-6" />
      <stop
         style="stop-color:#415f7c;stop-opacity:1"
         offset="1"
         id="stop9316-9" />
    </linearGradient>
    <linearGradient
       id="linearGradient5362-2">
      <stop
         id="stop5364-2"
         offset="0"
         style="stop-color:#ffffff;stop-opacity:1;" />
      <stop
         id="stop5366-3"
         offset="1"
         style="stop-color:#ffffff;stop-opacity:0;" />
    </linearGradient>
    <linearGradient
       inkscape:collect="always"
       xlink:href="#linearGradient5439-1"
       id="linearGradient71650"
       gradientUnits="userSpaceOnUse"
       gradientTransform="matrix(2.7150289,0,0,2.7149163,-1310.6644,-1625.0805)"
       x1="506.521"
       y1="945.86438"
       x2="538.38342"
       y2="1017.9187" />
    <linearGradient
       inkscape:collect="always"
       xlink:href="#linearGradient9863-1"
       id="linearGradient71648"
       gradientUnits="userSpaceOnUse"
       gradientTransform="matrix(2.7016395,0,0,2.7016395,-2926.5282,138.70158)"
       x1="1111.3293"
       y1="338.76315"
       x2="1111.3293"
       y2="292.43744" />
    <linearGradient
       inkscape:collect="always"
       xlink:href="#linearGradient9312-0"
       id="linearGradient71646"
       gradientUnits="userSpaceOnUse"
       gradientTransform="matrix(2.7150289,0,0,2.7149163,-1310.6644,-1625.0805)"
       x1="512.19513"
       y1="982.966"
       x2="512.19513"
       y2="941.53302" />
    <linearGradient
       inkscape:collect="always"
       xlink:href="#linearGradient5344-4"
       id="linearGradient71644"
       gradientUnits="userSpaceOnUse"
       gradientTransform="matrix(2.7150289,0,0,2.7149163,-1310.6644,-1625.0805)"
       x1="504.93024"
       y1="992.24542"
       x2="497.81961"
       y2="968.64575" />
    <linearGradient
       inkscape:collect="always"
       xlink:href="#linearGradient5362-2"
       id="linearGradient71642"
       gradientUnits="userSpaceOnUse"
       gradientTransform="matrix(2.7150289,0,0,2.7149163,-1310.6644,-1625.0805)"
       x1="502.97885"
       y1="936.30072"
       x2="499.43576"
       y2="956.01135" />
    <linearGradient
       inkscape:collect="always"
       xlink:href="#linearGradient2740-3"
       id="linearGradient71640"
       gradientUnits="userSpaceOnUse"
       gradientTransform="matrix(2.7150289,0,0,2.7149163,-1310.6644,-1625.0805)"
       x1="495.83362"
       y1="941.43011"
       x2="484.96606"
       y2="973.32123" />
    <linearGradient
       id="linearGradient2740-3">
      <stop
         id="stop2742-4"
         offset="0"
         style="stop-color:#ffffff;stop-opacity:1;" />
      <stop
         id="stop2744-0"
         offset="1"
         style="stop-color:#cccccc;stop-opacity:1" />
    </linearGradient>
  </defs>
  <sodipodi:namedview
     id="base"
     pagecolor="#ffffff"
     bordercolor="#666666"
     borderopacity="1.0"
     inkscape:pageopacity="0.0"
     inkscape:pageshadow="2"
     inkscape:zoom="0.35"
     inkscape:cx="995.79541"
     inkscape:cy="86.093387"
     inkscape:document-units="px"
     inkscape:current-layer="layer1"
     showgrid="false"
     inkscape:window-width="1366"
     inkscape:window-height="717"
     inkscape:window-x="0"
     inkscape:window-y="0"
     inkscape:window-maximized="1" />
  <metadata
     id="metadata73999">
    <rdf:RDF>
      <cc:Work
         rdf:about="">
        <dc:format>image/svg+xml</dc:format>
        <dc:type
           rdf:resource="http://purl.org/dc/dcmitype/StillImage" />
        <dc:title />
      </cc:Work>
    </rdf:RDF>
  </metadata>
  <g
     inkscape:label="Capa 1"
     inkscape:groupmode="layer"
     id="layer1"
     transform="translate(0,-924.36218)">
    <path
       inkscape:export-ydpi="57.964222"
       inkscape:export-xdpi="57.964222"
       inkscape:export-filename="/home/dafeba/DCV/tallerD/bocetos/08-09-22-hastaahora.png"
       sodipodi:nodetypes="csssssc"
       id="path71232"
       d="m 107.69706,986.87881 c -0.76029,29.84989 -15.579733,58.68799 -41.050667,58.85709 -10.748272,0.071 -22.628004,-2.5462 -30.310165,-6.7064 -15.876513,-8.5976 -25.099984,-27.3744 -25.118114,-48.34871 -0.0213,-25.13222 12.976772,-47.92952 33.449045,-55.72128 5.977601,-2.2751 17.686963,-4.21923 25.983765,-4.13344 21.627713,0.22106 37.046136,24.6821 37.046136,56.05274 z"
       style="fill:url(#linearGradient71640);fill-opacity:1;stroke:none;display:inline"
       inkscape:connector-curvature="0" />
    <path
       inkscape:export-ydpi="57.964222"
       inkscape:export-xdpi="57.964222"
       inkscape:export-filename="/home/dafeba/DCV/tallerD/bocetos/08-09-22-hastaahora.png"
       style="fill:url(#linearGradient71642);fill-opacity:1;stroke:none;display:inline"
       d="M 60.427992,989.32332 13.922384,970.97177 c 4.546931,-15.92458 14.622403,-29.06253 28.663465,-35.16962 6.513871,-2.83315 16.880783,-5.11304 24.945604,-4.49616 50.857317,-6.5063 23.969874,58.90816 -7.103461,58.01733 z"
       id="path71234"
       sodipodi:nodetypes="ccscc"
       inkscape:connector-curvature="0" />
    <path
       inkscape:export-ydpi="57.964222"
       inkscape:export-xdpi="57.964222"
       inkscape:export-filename="/home/dafeba/DCV/tallerD/bocetos/08-09-22-hastaahora.png"
       style="fill:url(#linearGradient71644);fill-opacity:1;stroke:none;display:inline"
       d="m 67.606393,1045.7359 c -7.946671,1.1421 -19.007503,-1.8752 -25.378144,-4.1019 -15.685863,-5.4824 -26.216004,-19.9909 -29.723735,-37.6893 -0.84507,-4.26341 20.795204,-1.0329 34.470136,0.6542 32.236515,-1.9119 73.08532,26.082 20.631743,41.137 z"
       id="path71236"
       sodipodi:nodetypes="csscc"
       inkscape:connector-curvature="0" />
    <path
       inkscape:export-ydpi="57.964222"
       inkscape:export-xdpi="57.964222"
       inkscape:export-filename="/home/dafeba/DCV/tallerD/bocetos/08-09-22-hastaahora.png"
       style="fill:url(#linearGradient71646);fill-opacity:1;stroke:none;display:inline"
       d="m 116.34237,987.11388 c -0.76053,30.66142 -17.145872,53.86622 -42.262936,58.18602 -33.583445,5.7757 -54.719989,-22.0715 -54.750119,-54.04071 -0.0312,-33.2592 22.079974,-62.53747 54.327449,-60.00312 25.393894,1.99472 42.685606,23.63424 42.685606,55.85781 z"
       id="path71238"
       sodipodi:nodetypes="csssc"
       inkscape:connector-curvature="0" />
    <path
       sodipodi:nodetypes="csssccccc"
       id="path71240"
       d="m 67.479193,930.11311 c -7.984541,0.35026 -17.749343,2.12 -23.048544,4.13688 -20.740803,7.89394 -33.961065,31.01936 -33.939225,56.48114 0.0187,21.24937 9.412021,40.25677 25.496824,48.96717 3.830671,2.0744 8.932511,4.0746 14.174402,5.2378 7.118401,1.6958 15.837073,2.1851 24.070674,1.0942 25.446374,-4.3763 42.033576,-27.8659 42.803976,-58.92949 0,-31.0408 -15.77546,-52.69853 -39.448265,-56.46005 -3.344781,-0.55339 -6.733581,-0.52765 -10.109842,-0.52765 z"
       style="fill:none;stroke:url(#linearGradient71648);stroke-width:2.66666698;stroke-linecap:round;stroke-linejoin:round;stroke-miterlimit:4;stroke-opacity:1;stroke-dasharray:none;stroke-dashoffset:0;display:inline"
       inkscape:export-filename="/home/dafeba/DCV/tallerD/bocetos/08-09-22-hastaahora.png"
       inkscape:export-xdpi="57.964222"
       inkscape:export-ydpi="57.964222"
       inkscape:connector-curvature="0" />
    <path
       inkscape:connector-curvature="0"
       sodipodi:nodetypes="csssc"
       id="path71242"
       d="m 116.34237,987.11388 c -0.76053,30.66142 -17.145872,53.86622 -42.262936,58.18602 -33.583445,5.7757 -54.719989,-22.0715 -54.750119,-54.04071 -0.0312,-33.2592 22.079974,-62.53747 54.327449,-60.00312 25.393894,1.99472 42.685606,23.63424 42.685606,55.85781 z"
       style="fill:url(#linearGradient71650);fill-opacity:1;stroke:none;display:inline"
       inkscape:export-filename="/home/dafeba/DCV/tallerD/bocetos/08-09-22-hastaahora.png"
       inkscape:export-xdpi="57.964222"
       inkscape:export-ydpi="57.964222" />
    <g
       style="display:inline"
       id="g71244"
       transform="matrix(2.6666671,0,0,2.6666667,-1454.8238,-1154.6254)">
      <path
         id="path71246"
         d="m 563.1875,795.71875 c -2.43993,0.10519 -4.06437,2.40781 -4.0625,5.03125 0.003,2.68981 1.76811,5.04845 4.59375,4.5625 2.11328,-0.36346 3.4985,-2.32648 3.5625,-4.90625 0,-2.71121 -1.45716,-4.51967 -3.59375,-4.6875 -0.16958,-0.0133 -0.33734,-0.007 -0.5,0 z m 16.71875,2.90625 c -2.77337,0.11956 -4.62781,2.76813 -4.625,5.75 0.003,3.0573 2.03832,5.70861 5.25,5.15625 2.40202,-0.41311 3.95845,-2.63027 4.03125,-5.5625 0,-3.08163 -1.63402,-5.15299 -4.0625,-5.34375 -0.19274,-0.0151 -0.40886,-0.008 -0.59375,0 z M 557,802.15625 c -1.58391,-0.12448 -2.65709,1.30388 -2.65625,2.9375 10e-4,1.57024 1.03795,2.93994 2.6875,2.65625 1.23369,-0.21219 2.05645,-1.33773 2.09375,-2.84375 0,-1.58274 -0.8777,-2.652 -2.125,-2.75 z m 10.46875,3.4375 c -4.06797,0.17536 -6.785,4.06365 -6.78125,8.4375 0.004,4.48449 2.97657,8.3727 7.6875,7.5625 3.52331,-0.60596 5.79945,-3.85522 5.90625,-8.15625 0,-4.52016 -2.40661,-7.56395 -5.96875,-7.84375 -0.28272,-0.0222 -0.57255,-0.0117 -0.84375,0 z"
         style="fill:#333333;fill-opacity:0.12448132;stroke:none;display:inline"
         inkscape:connector-curvature="0" />
      <path
         inkscape:export-ydpi="57.964222"
         inkscape:export-xdpi="57.964222"
         inkscape:export-filename="/home/dafeba/DCV/tallerD/bocetos/08-09-22-hastaahora.png"
         style="fill:#ffffff;fill-opacity:0.12448132;stroke:none;display:inline"
         d="m 581.3493,814.02005 c -0.0383,1.54185 -0.8622,2.70873 -2.12525,2.92595 -1.68878,0.29045 -2.75166,-1.10989 -2.75318,-2.7175 -0.002,-1.67247 1.11032,-3.14477 2.73193,-3.01733 1.27696,0.10031 2.1465,1.18848 2.1465,2.80888 z"
         id="path71248"
         sodipodi:nodetypes="csssc"
         inkscape:connector-curvature="0" />
    </g>
    <path
       inkscape:export-ydpi="57.964222"
       inkscape:export-xdpi="57.964222"
       inkscape:export-filename="/home/dafeba/DCV/tallerD/bocetos/08-09-22-hastaahora.png"
       style="fill:url(#linearGradient72458);fill-opacity:1;stroke:none;display:inline"
       d="m 71.471404,1030.5722 c -6.525171,0.8005 -15.607363,-1.868 -20.838434,-3.8064 -12.879942,-4.7723 -21.526423,-16.8672 -24.406664,-31.46027 -0.6939,-3.51546 17.075283,-0.48933 28.304025,1.132 26.469954,-1.01333 60.011609,22.67787 16.941073,34.13437 z"
       id="path72418"
       sodipodi:nodetypes="csscc"
       inkscape:connector-curvature="0" />
    <path
       sodipodi:nodetypes="cccccccccccccc"
       id="path72420"
       d="m 34.183608,1049.8805 58.572039,-11.7854 c 22.251873,-2.6786 29.459253,-30.7826 17.108993,-40.80183 -3.70683,-1.54214 -14.709442,-3.26827 -17.399843,-2.77734 -4.844701,0.0613 -4.642271,0.51174 -11.494272,3.98134 11.803872,-10.68374 7.435172,-21.34062 -1.23597,-25.56544 l -15.136242,-0.57246 c -5.183231,1.96344 -9.256512,6.9323 -9.555042,16.0027 -3.1716,-6.8704 -7.923821,-11.04115 -13.020672,-13.06142 l -13.194162,-0.64872 c -2.732111,0.86443 -5.546611,2.52454 -7.490591,4.39974 -7.695092,7.3072 -9.484402,32.42983 5.532751,34.47173 -14.520213,2.8755 -17.9515234,26.7645 -6.274882,32.8136 1.319951,1.4443 9.320352,3.2027 13.587893,3.5435 z"
       style="fill:url(#linearGradient72460);fill-rule:evenodd;stroke:none;display:inline"
       inkscape:connector-curvature="0" />
    <path
       style="fill:url(#linearGradient72462);fill-rule:evenodd;stroke:none;display:inline"
       d="m 34.183608,1049.8805 2.04608,-34.8054 -9.594802,-1.4338 c -14.520212,2.8754 -17.7158124,26.6466 -6.039171,32.6957 1.319951,1.4443 9.320352,3.2027 13.587893,3.5435 z"
       id="path72422"
       sodipodi:nodetypes="ccccc"
       inkscape:connector-curvature="0" />
    <path
       style="fill:url(#linearGradient72464);fill-rule:evenodd;stroke:none;display:inline"
       d="m 38.779798,1049.409 60.81121,-9.664 c 32.050352,-3.8581 26.043732,-58.75227 -11.785122,-39.5979 24.786434,-22.43431 -24.856404,-42.67138 -25.927254,-10.13517 -7.949601,-17.22053 -25.829364,-17.48053 -34.176835,-9.428 -9.580692,7.4248 -8.423732,33.25467 8.832591,34.35357 -26.228644,5.428 -16.288323,38.8067 2.24541,34.4715 z"
       id="path72424"
       sodipodi:nodetypes="ccccccc"
       inkscape:connector-curvature="0" />
    <path
       style="fill:none;stroke:url(#linearGradient72466);stroke-width:2.66666698;stroke-linecap:round;stroke-linejoin:round;stroke-miterlimit:4;stroke-opacity:1;stroke-dasharray:none;stroke-dashoffset:0;display:inline"
       d="m 25.594566,973.62324 c -0.15813,0.85445 -0.29754,1.71629 -0.41816,2.58469 -1.44994,0.81216 -2.75762,1.79563 -3.83333,2.83334 -7.695122,7.3072 -9.517152,32.45813 5.500001,34.50003 -14.520193,2.8754 -17.9266434,26.7842 -6.250002,32.8333 1.319971,1.4443 9.315792,3.1592 13.583333,3.5 l 0.58334,-0.083 c 1.29133,0.075 2.59845,-0.088 4,-0.4165 l 60.83334,-9.6667 c 23.765152,-2.8611 26.541492,-33.6803 11.000002,-41.66666 -0.1432,-0.136 -0.28187,-0.27414 -0.41667,-0.4168 0.2312,-0.9368 0.44424,-1.8872 0.6375,-2.85094"
       id="path72426"
       inkscape:connector-curvature="0"
       sodipodi:nodetypes="cccccccccccc" />
  </g>
</svg>
