<?xml version="1.0" encoding="UTF-8" standalone="no"?>
<!-- Created with Inkscape (http://www.inkscape.org/) -->

<svg
   xmlns:dc="http://purl.org/dc/elements/1.1/"
   xmlns:cc="http://creativecommons.org/ns#"
   xmlns:rdf="http://www.w3.org/1999/02/22-rdf-syntax-ns#"
   xmlns:svg="http://www.w3.org/2000/svg"
   xmlns="http://www.w3.org/2000/svg"
   xmlns:xlink="http://www.w3.org/1999/xlink"
   xmlns:sodipodi="http://sodipodi.sourceforge.net/DTD/sodipodi-0.dtd"
   xmlns:inkscape="http://www.inkscape.org/namespaces/inkscape"
   width="136.53334"
   height="136.53334"
   id="svg6934"
   sodipodi:version="0.32"
   inkscape:version="0.92.1 r15371"
   version="1.0"
   sodipodi:docname="start-here-symbolic.svg"
   inkscape:output_extension="org.inkscape.output.svg.inkscape">
  <defs
     id="defs6936">
    <linearGradient
       inkscape:collect="always"
       xlink:href="#linearGradient5316"
       id="linearGradient874"
       x1="9.495225"
       y1="-3.1310093"
       x2="75.466797"
       y2="104.28125"
       gradientUnits="userSpaceOnUse" />
    <linearGradient
       id="linearGradient5316">
      <stop
         style="stop-color:#87c7ff;stop-opacity:1;"
         offset="0"
         id="stop5320" />
      <stop
         style="stop-color:#74aadb;stop-opacity:1;"
         offset="1"
         id="stop5322" />
    </linearGradient>
  </defs>
  <sodipodi:namedview
     id="base"
     pagecolor="#ffffff"
     bordercolor="#666666"
     borderopacity="1.0"
     inkscape:pageopacity="0.0"
     inkscape:pageshadow="2"
     inkscape:zoom="2.5676815"
     inkscape:cx="39.417867"
     inkscape:cy="35.966301"
     inkscape:document-units="px"
     inkscape:current-layer="layer1"
     showgrid="false"
     inkscape:window-width="1366"
     inkscape:window-height="714"
     inkscape:window-x="0"
     inkscape:window-y="26"
     inkscape:window-maximized="1"
     inkscape:snap-global="false" />
  <metadata
     id="metadata6939">
    <rdf:RDF>
      <cc:Work
         rdf:about="">
        <dc:format>image/svg+xml</dc:format>
        <dc:type
           rdf:resource="http://purl.org/dc/dcmitype/StillImage" />
        <dc:title />
      </cc:Work>
    </rdf:RDF>
  </metadata>
  <g
     inkscape:label="Capa 1"
     inkscape:groupmode="layer"
     id="layer1">
    <path
       style="fill:url(#linearGradient874);fill-opacity:1;fill-rule:evenodd;stroke:none;stroke-width:1.06666672"
       d="M 39.998047 5.578125 C 37.878341 6.396493 36.158816 7.9325495 34.833984 9.9316406 C 33.138519 12.489996 32.181584 15.774387 32.115234 18.753906 L 32.115234 18.755859 L 32.519531 120.53125 C 33.019162 125.90816 34.479176 128.75318 36.732422 131 C 36.995926 130.97436 37.2623 130.94384 37.533203 130.90039 L 121.0332 118.30078 C 123.70278 118.01157 125.96908 116.7361 127.64648 114.71875 C 128.12574 114.14236 128.55681 113.50653 128.93555 112.81445 C 130.26114 110.39219 130.9457 107.29608 130.80078 103.76758 L 131.23242 24.533203 C 131.46974 18.170173 128.24578 12.826277 121.26758 11.767578 L 40.189453 5.5820312 C 40.184923 5.5815515 40.180312 5.5824974 40.175781 5.5820312 C 40.116856 5.5759693 40.05714 5.5818936 39.998047 5.578125 z M 32.652344 6.0429688 L 12.5 8.9667969 L 11.996094 8.9667969 L 11.996094 9.1660156 C 6.2324135 10.285024 3.265625 15.131185 3.265625 21.066406 L 3.265625 72.966797 L 3.265625 104.98438 L 3.265625 111.40039 C 3.194793 117.42947 5.334487 122.16756 9.6328125 123.66602 L 27.4375 130.09961 L 31.572266 130.86523 C 29.970653 128.33071 28.81841 125.13168 28.427734 120.85156 L 28.419922 120.76367 L 28.015625 18.691406 L 28.015625 18.664062 C 28.098959 14.901173 29.23588 10.95571 31.416016 7.6660156 C 31.790508 7.1009284 32.211266 6.5638331 32.652344 6.0429688 z M 79.753906 14.042969 C 81.216573 14.010257 82.691751 14.050794 84.175781 14.166016 C 85.758754 14.288894 87.394753 14.444521 88.996094 14.746094 C 112.3002 19.134989 128.01365 41.306268 126.60742 69.345703 C 125.59116 89.609253 115.43752 107.06664 101.63672 115.90039 L 97.078125 101.27734 C 106.03391 95.06826 112.70839 82.710411 113.42969 68.328125 C 113.80713 60.802122 112.37221 53.90031 109.89062 48.019531 C 105.84203 38.425117 98.642834 31.635048 89.271484 29.800781 C 72.652955 26.548039 56.983808 39.052952 55.691406 64.822266 C 54.658528 85.416923 62.849647 99.959386 75.466797 104.28125 L 69.863281 120.76953 C 50.433752 115.96684 35.695753 92.762242 37.154297 63.679688 C 38.762527 31.613033 57.813911 14.53364 79.753906 14.042969 z M 86.748047 49.527344 C 87.230279 49.532825 87.715382 49.566185 88.203125 49.625 C 95.758607 50.5338 100.52958 58.819436 100.03516 68.677734 C 99.53521 78.645962 94.184564 87.232217 86.970703 87.386719 C 77.813805 87.582831 71.823442 80.220467 72.466797 67.392578 C 73.069923 55.366793 79.514566 49.445124 86.748047 49.527344 z "
       id="path30949" />
  </g>
</svg>
