<?xml version="1.0" encoding="UTF-8" standalone="no"?>
<!-- Created with Inkscape (http://www.inkscape.org/) -->

<svg
   xmlns:dc="http://purl.org/dc/elements/1.1/"
   xmlns:cc="http://creativecommons.org/ns#"
   xmlns:rdf="http://www.w3.org/1999/02/22-rdf-syntax-ns#"
   xmlns:svg="http://www.w3.org/2000/svg"
   xmlns="http://www.w3.org/2000/svg"
   xmlns:xlink="http://www.w3.org/1999/xlink"
   xmlns:sodipodi="http://sodipodi.sourceforge.net/DTD/sodipodi-0.dtd"
   xmlns:inkscape="http://www.inkscape.org/namespaces/inkscape"
   width="136.53334"
   height="136.53334"
   id="svg6934"
   sodipodi:version="0.32"
   inkscape:version="0.92.1 r15371"
   version="1.0"
   sodipodi:docname="start-here-symbolic.svg"
   inkscape:output_extension="org.inkscape.output.svg.inkscape">
  <defs
     id="defs6936">
    <linearGradient
       inkscape:collect="always"
       xlink:href="#jaca"
       id="linearGradient1459"
       gradientUnits="userSpaceOnUse"
       x1="9.495225"
       y1="-3.1310093"
       x2="75.466797"
       y2="104.28125" />
    <linearGradient
       id="jaca">
      <stop
         id="stop8362"
         offset="0"
         style="stop-color:#b995da;stop-opacity:1" />
      <stop
         id="stop8364"
         offset="1"
         style="stop-color:#766287;stop-opacity:1" />
    </linearGradient>
  </defs>
  <sodipodi:namedview
     id="base"
     pagecolor="#ffffff"
     bordercolor="#666666"
     borderopacity="1.0"
     inkscape:pageopacity="0.0"
     inkscape:pageshadow="2"
     inkscape:zoom="2.9706337"
     inkscape:cx="3.9754199"
     inkscape:cy="54.24255"
     inkscape:document-units="px"
     inkscape:current-layer="layer1"
     showgrid="false"
     inkscape:window-width="1366"
     inkscape:window-height="714"
     inkscape:window-x="0"
     inkscape:window-y="26"
     inkscape:window-maximized="1" />
  <metadata
     id="metadata6939">
    <rdf:RDF>
      <cc:Work
         rdf:about="">
        <dc:format>image/svg+xml</dc:format>
        <dc:type
           rdf:resource="http://purl.org/dc/dcmitype/StillImage" />
        <dc:title />
      </cc:Work>
    </rdf:RDF>
  </metadata>
  <g
     inkscape:label="Capa 1"
     inkscape:groupmode="layer"
     id="layer1">
    <path
       style="fill:url(#linearGradient1459);fill-opacity:1;fill-rule:evenodd;stroke:none;stroke-width:1.06666672"
       d="M 39.998047 5.578125 C 37.878341 6.396493 36.158816 7.9325495 34.833984 9.9316406 C 33.132418 13.192557 32.103944 16.146676 32.117188 19.480469 L 32.519531 120.53125 C 33.019162 125.90816 34.479176 128.75318 36.732422 131 C 36.995926 130.9744 37.2623 130.94379 37.533203 130.90039 L 121.0332 118.30078 C 123.70278 118.01157 125.96908 116.7361 127.64648 114.71875 C 128.12574 114.14236 128.55681 113.50653 128.93555 112.81445 C 130.26114 110.39219 130.9457 107.29608 130.80078 103.76758 L 131.23242 24.533203 C 131.46974 18.170173 128.24578 12.826277 121.26758 11.767578 L 41.521484 5.6835938 L 40.189453 5.5820312 C 40.184953 5.5815516 40.180351 5.5824974 40.175781 5.5820312 C 40.116851 5.5759713 40.05714 5.5819012 39.998047 5.578125 z M 32.966797 5.9472656 C 25.957636 6.7107112 16.045752 8.3556349 11.996094 8.9667969 C 5.8826774 10.186574 3.367109 15.777336 3.265625 21.066406 L 3.265625 72.966797 L 3.265625 104.98438 L 3.265625 111.40039 C 3.194793 117.42947 5.334487 122.16756 9.6328125 123.66602 L 27.4375 130.09961 L 31.572266 130.86523 C 29.970653 128.33071 28.81841 125.13168 28.427734 120.85156 L 28.419922 120.76367 L 28.015625 18.691406 L 28.015625 18.664062 C 28.098955 14.901174 29.23588 10.95571 31.416016 7.6660156 C 31.790508 7.1009284 32.746264 6.2076947 32.966797 5.9472656 z M 47.626953 19.091797 C 47.859913 19.080797 48.093282 19.08145 48.326172 19.09375 L 117.94922 23.199219 C 121.50484 23.294009 124.29578 26.280074 124.15039 29.833984 C 124.005 33.387894 120.97922 36.135403 117.42773 35.939453 L 47.751953 33.082031 C 43.993263 32.969261 40.996491 29.908667 40.962891 26.148438 C 40.929291 22.388208 43.870883 19.271707 47.626953 19.091797 z M 117.97656 52.431641 C 121.51138 52.360981 124.42303 55.189249 124.45703 58.724609 C 124.49106 62.259969 121.63319 65.143625 118.09766 65.140625 L 48.105469 66.453125 C 44.186729 66.567615 40.937591 63.441714 40.900391 59.521484 C 40.863201 55.601254 44.052456 52.414978 47.972656 52.455078 L 117.97656 52.431641 z M 117.92773 83.990234 C 121.41239 83.899644 124.32826 86.615406 124.48633 90.097656 C 124.64439 93.579906 121.98635 96.547967 118.50781 96.773438 L 48.601562 102.98047 C 44.718452 103.34134 41.289932 100.4595 40.976562 96.572266 C 40.663193 92.685036 43.585792 89.291231 47.476562 89.025391 L 117.48242 84.017578 C 117.63083 84.003478 117.77869 83.994234 117.92773 83.990234 z "
       id="path4493" />
  </g>
</svg>
