<?xml version="1.0" encoding="UTF-8" standalone="no"?>
<!-- Created with Inkscape (http://www.inkscape.org/) -->

<svg
   xmlns:dc="http://purl.org/dc/elements/1.1/"
   xmlns:cc="http://creativecommons.org/ns#"
   xmlns:rdf="http://www.w3.org/1999/02/22-rdf-syntax-ns#"
   xmlns:svg="http://www.w3.org/2000/svg"
   xmlns="http://www.w3.org/2000/svg"
   xmlns:xlink="http://www.w3.org/1999/xlink"
   xmlns:sodipodi="http://sodipodi.sourceforge.net/DTD/sodipodi-0.dtd"
   xmlns:inkscape="http://www.inkscape.org/namespaces/inkscape"
   width="128"
   height="128"
   id="svg23697"
   version="1.1"
   inkscape:version="0.48.3.1 r9886"
   sodipodi:docname="Documento nuevo 5">
  <defs
     id="defs23699">
    <linearGradient
       inkscape:collect="always"
       xlink:href="#linearGradient5344"
       id="linearGradient49316"
       gradientUnits="userSpaceOnUse"
       gradientTransform="matrix(2.6666667,0,0,2.6666667,-2627.3389,-1367.474)"
       x1="995.40308"
       y1="853.93726"
       x2="995.40308"
       y2="903.52625" />
    <linearGradient
       id="linearGradient5344">
      <stop
         style="stop-color:#000000;stop-opacity:1;"
         offset="0"
         id="stop5346" />
      <stop
         style="stop-color:#000000;stop-opacity:0;"
         offset="1"
         id="stop5348" />
    </linearGradient>
    <linearGradient
       inkscape:collect="always"
       xlink:href="#linearGradient5398"
       id="linearGradient49322"
       gradientUnits="userSpaceOnUse"
       gradientTransform="matrix(2.6666667,0,0,2.6666667,-1294.0056,-1580.8074)"
       x1="488.83911"
       y1="970.04968"
       x2="486.80615"
       y2="986.17834" />
    <linearGradient
       inkscape:collect="always"
       id="linearGradient5398">
      <stop
         style="stop-color:#87c6ff;stop-opacity:1;"
         offset="0"
         id="stop5400" />
      <stop
         style="stop-color:#87c6ff;stop-opacity:0"
         offset="1"
         id="stop5402" />
    </linearGradient>
    <linearGradient
       inkscape:collect="always"
       xlink:href="#linearGradient9863"
       id="linearGradient49325"
       gradientUnits="userSpaceOnUse"
       gradientTransform="matrix(2.6666667,0,0,2.6666667,-2627.3389,-1367.474)"
       x1="1009.8859"
       y1="906.94275"
       x2="1009.8859"
       y2="859.41876" />
    <linearGradient
       id="linearGradient9863">
      <stop
         style="stop-color:#2f445a;stop-opacity:1;"
         offset="0"
         id="stop9865" />
      <stop
         style="stop-color:#415f7c;stop-opacity:1"
         offset="1"
         id="stop9867" />
    </linearGradient>
    <linearGradient
       inkscape:collect="always"
       xlink:href="#linearGradient5344"
       id="linearGradient49328"
       gradientUnits="userSpaceOnUse"
       gradientTransform="matrix(2.6666667,0,0,2.6666667,-1291.0055,-1580.8074)"
       x1="509.67014"
       y1="990.61609"
       x2="495.89969"
       y2="962.19183" />
    <linearGradient
       id="linearGradient23630">
      <stop
         style="stop-color:#000000;stop-opacity:1;"
         offset="0"
         id="stop23632" />
      <stop
         style="stop-color:#000000;stop-opacity:0;"
         offset="1"
         id="stop23634" />
    </linearGradient>
    <linearGradient
       inkscape:collect="always"
       xlink:href="#linearGradient5165-9"
       id="linearGradient49331"
       gradientUnits="userSpaceOnUse"
       gradientTransform="matrix(2.6666667,0,0,2.6666667,-1291.0055,-1580.8074)"
       x1="483.0965"
       y1="954.914"
       x2="494.30414"
       y2="961.98505" />
    <linearGradient
       id="linearGradient5165-9">
      <stop
         id="stop5167-6"
         style="stop-color:#ffffff;stop-opacity:1"
         offset="0" />
      <stop
         id="stop5169-7"
         style="stop-color:#ffffff;stop-opacity:0"
         offset="1" />
    </linearGradient>
    <linearGradient
       inkscape:collect="always"
       xlink:href="#linearGradient5316"
       id="linearGradient49334"
       gradientUnits="userSpaceOnUse"
       gradientTransform="matrix(2.6666667,0,0,2.6666667,-1291.0055,-1580.8074)"
       x1="492.35342"
       y1="958.84735"
       x2="492.02759"
       y2="965.83002" />
    <linearGradient
       id="linearGradient5316">
      <stop
         style="stop-color:#87c7ff;stop-opacity:1;"
         offset="0"
         id="stop5320" />
      <stop
         style="stop-color:#74aadb;stop-opacity:1;"
         offset="1"
         id="stop5322" />
    </linearGradient>
    <linearGradient
       inkscape:collect="always"
       xlink:href="#linearGradient5316"
       id="linearGradient45716"
       gradientUnits="userSpaceOnUse"
       x1="520.61639"
       y1="953.89056"
       x2="522.26465"
       y2="964.84991" />
    <linearGradient
       id="linearGradient23645">
      <stop
         style="stop-color:#87c7ff;stop-opacity:1;"
         offset="0"
         id="stop23647" />
      <stop
         style="stop-color:#74aadb;stop-opacity:1;"
         offset="1"
         id="stop23649" />
    </linearGradient>
    <linearGradient
       inkscape:collect="always"
       xlink:href="#linearGradient5344"
       id="linearGradient49338"
       gradientUnits="userSpaceOnUse"
       gradientTransform="matrix(3.4141005,0,0,2.881376,-1741.6511,-1785.8658)"
       x1="523.62518"
       y1="985.7196"
       x2="523.62518"
       y2="956.83093" />
    <linearGradient
       id="linearGradient23652">
      <stop
         style="stop-color:#000000;stop-opacity:1;"
         offset="0"
         id="stop23654" />
      <stop
         style="stop-color:#000000;stop-opacity:0;"
         offset="1"
         id="stop23656" />
    </linearGradient>
    <linearGradient
       inkscape:collect="always"
       xlink:href="#linearGradient5316"
       id="linearGradient49344"
       gradientUnits="userSpaceOnUse"
       gradientTransform="matrix(3.4141005,0,0,2.881376,-1741.6511,-1785.8658)"
       x1="526.8338"
       y1="956.83936"
       x2="526.8338"
       y2="964.15143" />
    <linearGradient
       id="linearGradient23659">
      <stop
         style="stop-color:#87c7ff;stop-opacity:1;"
         offset="0"
         id="stop23661" />
      <stop
         style="stop-color:#74aadb;stop-opacity:1;"
         offset="1"
         id="stop23663" />
    </linearGradient>
    <linearGradient
       inkscape:collect="always"
       xlink:href="#linearGradient5439"
       id="linearGradient49351"
       gradientUnits="userSpaceOnUse"
       gradientTransform="matrix(2.6666667,0,0,2.6666667,-1294.0056,-1580.8074)"
       x1="514.13031"
       y1="949.99884"
       x2="580.763"
       y2="1045.4583" />
    <linearGradient
       id="linearGradient5439">
      <stop
         style="stop-color:#ffffff;stop-opacity:1;"
         offset="0"
         id="stop5441" />
      <stop
         style="stop-color:#000000;stop-opacity:1;"
         offset="1"
         id="stop5443" />
    </linearGradient>
    <linearGradient
       inkscape:collect="always"
       xlink:href="#linearGradient9863"
       id="linearGradient49353"
       gradientUnits="userSpaceOnUse"
       gradientTransform="matrix(2.6666667,0,0,2.6666667,-2627.3389,-1367.474)"
       x1="1026.8872"
       y1="907.23352"
       x2="1026.8872"
       y2="859.92407" />
    <linearGradient
       id="linearGradient23670">
      <stop
         style="stop-color:#2f445a;stop-opacity:1;"
         offset="0"
         id="stop23672" />
      <stop
         style="stop-color:#415f7c;stop-opacity:1"
         offset="1"
         id="stop23674" />
    </linearGradient>
  </defs>
  <sodipodi:namedview
     id="base"
     pagecolor="#ffffff"
     bordercolor="#666666"
     borderopacity="1.0"
     inkscape:pageopacity="0.0"
     inkscape:pageshadow="2"
     inkscape:zoom="0.98994949"
     inkscape:cx="257.99456"
     inkscape:cy="112.47057"
     inkscape:document-units="px"
     inkscape:current-layer="layer1"
     showgrid="false"
     inkscape:window-width="1366"
     inkscape:window-height="717"
     inkscape:window-x="0"
     inkscape:window-y="0"
     inkscape:window-maximized="1" />
  <metadata
     id="metadata23702">
    <rdf:RDF>
      <cc:Work
         rdf:about="">
        <dc:format>image/svg+xml</dc:format>
        <dc:type
           rdf:resource="http://purl.org/dc/dcmitype/StillImage" />
        <dc:title></dc:title>
      </cc:Work>
    </rdf:RDF>
  </metadata>
  <g
     inkscape:label="Capa 1"
     inkscape:groupmode="layer"
     id="layer1"
     transform="translate(0,-924.36218)">
    <path
       inkscape:connector-curvature="0"
       sodipodi:nodetypes="ccccc"
       id="path189483"
       d="m 125.14056,1036.43 -46.798664,-8.1854 0,-91.44264 46.771734,-4.0752 0.0267,103.70324 z"
       style="fill:url(#linearGradient49351);fill-rule:evenodd;stroke:url(#linearGradient49353);stroke-width:2.66666675px;stroke-linecap:round;stroke-linejoin:round;stroke-opacity:1;display:inline" />
    <path
       inkscape:connector-curvature="0"
       style="fill:#333333;fill-rule:evenodd;stroke:none;display:inline"
       d="m 72.506163,976.1785 -28.825867,0.5016 3.333067,-6.4864 27.789333,-0.0747 -2.296533,6.06053 z"
       id="path9296"
       sodipodi:nodetypes="ccccc" />
    <path
       inkscape:connector-curvature="0"
       style="fill:#1a1a1a;fill-rule:evenodd;stroke:none;display:inline"
       d="m 35.945629,980.29983 29.94,-2.1552 1.705867,-6.35627 -32.992,0.42347 1.346133,8.088 z"
       id="path9352"
       sodipodi:nodetypes="ccccc" />
    <path
       inkscape:connector-curvature="0"
       sodipodi:nodetypes="ccccc"
       id="path9292"
       d="m 76.486696,976.80303 -27.96,1.10107 -1.1968,-7.37467 27.284267,-0.248 1.872533,6.52053 z"
       style="fill:#b3b3b3;fill-rule:evenodd;stroke:none;display:inline" />
    <path
       inkscape:connector-curvature="0"
       style="fill:#b3b3b3;fill-rule:evenodd;stroke:none;display:inline"
       d="m 67.780563,1002.7188 -21.532267,2.0573 -0.6232,-8.13494 22.4248,-1.224 c 4.7904,2.57734 2.327733,4.94134 -0.269333,7.30164 z"
       id="path9349"
       sodipodi:nodetypes="ccccc" />
    <path
       inkscape:connector-curvature="0"
       sodipodi:nodetypes="csssssc"
       id="path9310"
       d="m 62.310163,984.01343 c 0,14.82507 -7.570134,26.92797 -17.045334,27.53337 -0.248,0.027 -6.711733,0.613 -6.961066,0.613 -9.82,0 -11.57336,-12.9349 -11.57336,-28.14637 0,-15.21173 1.561893,-27.9256 11.381893,-27.9256 0.08,0 6.5704,0.36907 6.651467,0.37093 9.708,0.20267 17.5464,12.46907 17.5464,27.55467 z"
       style="fill:url(#linearGradient49344);fill-opacity:1;stroke:none;display:inline" />
    <path
       inkscape:connector-curvature="0"
       sodipodi:nodetypes="ccccc"
       id="path9359"
       d="m 109.15523,968.44063 5.30773,9.3856 -2.56826,1.6744 -5.47254,-9.4824 2.73307,-1.5776 z"
       style="fill:#000000;fill-rule:evenodd;stroke:#666666;stroke-width:1.91351604;stroke-linecap:round;stroke-linejoin:round;stroke-miterlimit:4;stroke-opacity:1;stroke-dasharray:none;display:inline" />
    <path
       inkscape:connector-curvature="0"
       style="fill:#000000;fill-rule:evenodd;stroke:#666666;stroke-width:1.91351604;stroke-linecap:round;stroke-linejoin:round;stroke-miterlimit:4;stroke-opacity:1;stroke-dasharray:none;display:inline"
       d="m 92.940029,968.1849 -4.9992,8.72533 2.4952,1.62667 5.1592,-8.8192 -2.6552,-1.5328 z"
       id="path9362"
       sodipodi:nodetypes="ccccc" />
    <path
       inkscape:connector-curvature="0"
       sodipodi:nodetypes="ccccc"
       id="path9364"
       d="m 99.052563,988.86356 -0.2,10.16427 3.065337,0.55147 0.29626,-10.66267 -3.162397,-0.0533 z"
       style="fill:#000000;fill-rule:evenodd;stroke:#666666;stroke-width:2.14778662;stroke-linecap:round;stroke-linejoin:round;stroke-miterlimit:4;stroke-opacity:1;stroke-dasharray:none;display:inline" />
    <path
       inkscape:connector-curvature="0"
       style="fill:url(#linearGradient49338);fill-opacity:1;stroke:none;display:inline"
       d="m 62.310163,984.01343 c 0,14.82507 -7.570134,26.92797 -17.045334,27.53337 -0.248,0.027 -6.711733,0.613 -6.961066,0.613 -9.82,0 -11.57336,-12.9349 -11.57336,-28.14637 0,-15.21173 1.561893,-27.9256 11.381893,-27.9256 0.08,0 6.5704,0.36907 6.651467,0.37093 9.708,0.20267 17.5464,12.46907 17.5464,27.55467 z"
       id="path9390"
       sodipodi:nodetypes="csssssc" />
    <path
       transform="matrix(3.4657221,0,0,2.9249427,-1775.389,-1827.6631)"
       d="m 528.38553,961.30426 a 5.2107229,9.5638885 0 1 1 -10.42145,0 5.2107229,9.5638885 0 1 1 10.42145,0 z"
       sodipodi:ry="9.5638885"
       sodipodi:rx="5.2107229"
       sodipodi:cy="961.30426"
       sodipodi:cx="523.1748"
       id="path9374"
       style="fill:url(#linearGradient45716);fill-opacity:1;stroke:none;display:inline"
       sodipodi:type="arc" />
    <path
       inkscape:connector-curvature="0"
       sodipodi:nodetypes="ccccc"
       id="path9381"
       d="m 37.883763,1006.9958 c 13.9608,-1.8816 18.332266,-41.3589 -0.234667,-45.96184 l -25.9272,12.25627 c -6.5777864,3.32507 -6.0767197,21.90613 1.64992,24.2776 l 24.513013,9.42797 z"
       style="fill:url(#linearGradient49334);fill-rule:evenodd;stroke:none;display:inline" />
    <path
       inkscape:connector-curvature="0"
       style="fill:url(#linearGradient49331);fill-rule:evenodd;stroke:none;display:inline"
       d="m 47.126429,969.1465 c -2.002666,-4.00827 -5.104,-7.02827 -9.478133,-8.11254 l -25.927413,12.25627 c -6.5777867,3.32507 -6.0767201,21.90613 1.64992,24.2776 -8.0305067,-18.2344 10.869813,-23.18373 33.755626,-28.42133 z"
       id="path9401"
       sodipodi:nodetypes="ccccc" />
    <path
       inkscape:connector-curvature="0"
       style="fill:url(#linearGradient49328);fill-rule:evenodd;stroke:none;display:inline"
       d="m 37.883763,1006.9958 c 8.988266,-1.2114 14.473066,-18.30104 11.065066,-33.1077 -10.8024,4.8024 -41.7110127,-1.28694 -35.253386,23.80453 l 24.18832,9.30317 z"
       id="path9406"
       sodipodi:nodetypes="cccc" />
    <path
       inkscape:connector-curvature="0"
       sodipodi:nodetypes="cccccsssccccccccccssc"
       id="path9430"
       d="m 37.827763,956.10943 c -6.084534,0 -11.47752,4.68373 -14.750053,11.83333 l -11.333334,5.33334 c -6.5778664,3.3248 -6.0599997,21.96186 1.666667,24.33333 l 10.250133,3.91657 c 3.31032,6.4048 8.462053,10.5832 14.166587,10.5834 0.170666,0 0.323466,0.083 0.5,0.083 0.250666,0 6.6696,-0.6509 6.9168,-0.6667 4.516266,-0.2885 8.629333,-3.1874 11.666666,-7.7501 l 10.833067,-1.0832 c 3.818933,-0.1333 5.315733,-7.80427 0.333333,-7.25014 l -6.499733,0.33334 c 1.8048,-5.7168 1.8944,-10.6112 1.186933,-16.28694 l 4.265867,-0.136 0.250667,-2.07786 6.4704,-0.24534 c 2.8432,-0.0827 2.918933,-7.56213 -1.298134,-7.2552 l -12.208266,0 c -3.0408,-8.12453 -9.0256,-13.19866 -15.500267,-13.33333 -0.08,-0.002 -6.585067,-0.33333 -6.666667,-0.33333 -0.08267,-0.002 -0.165333,0 -0.250666,0 z"
       style="fill:none;stroke:url(#linearGradient49325);stroke-width:2.66666675px;stroke-linecap:round;stroke-linejoin:round;stroke-opacity:1;display:inline" />
    <path
       inkscape:connector-curvature="0"
       style="fill:none;stroke:url(#linearGradient49322);stroke-width:6.4000001;stroke-linecap:round;stroke-linejoin:round;stroke-miterlimit:4;stroke-opacity:1;stroke-dasharray:none;display:inline"
       d="m 8.7861629,988.03343 c -11.4872,3.09733 7.4184801,19.85017 12.7001601,34.47627 7.80144,16.2347 -4.970187,22.0384 -17.8251467,26.6488"
       id="path9418"
       sodipodi:nodetypes="ccc" />
    <path
       inkscape:connector-curvature="0"
       style="fill:#000000;fill-rule:evenodd;stroke:none;display:inline"
       d="m 109.15523,968.44063 5.30773,9.3856 -2.56826,1.6744 -5.47254,-9.4824 2.73307,-1.5776 z"
       id="path9476"
       sodipodi:nodetypes="ccccc" />
    <path
       inkscape:connector-curvature="0"
       sodipodi:nodetypes="ccccc"
       id="path9478"
       d="m 92.940029,968.1849 -4.9992,8.72533 2.4952,1.62667 5.1592,-8.8192 -2.6552,-1.5328 z"
       style="fill:#000000;fill-rule:evenodd;stroke:none;display:inline" />
    <path
       inkscape:connector-curvature="0"
       style="fill:#000000;fill-rule:evenodd;stroke:none;display:inline"
       d="m 99.052563,988.86356 -0.2,10.16427 3.065337,0.55147 0.29626,-10.66267 -3.162397,-0.0533 z"
       id="path9480"
       sodipodi:nodetypes="ccccc" />
    <path
       inkscape:connector-curvature="0"
       sodipodi:nodetypes="ccc"
       id="path9482"
       d="m 8.7861629,988.03343 c -11.4872,3.09733 7.4184801,19.85017 12.7001601,34.47627 7.80144,16.2347 -4.970187,22.0384 -17.8251467,26.6488"
       style="fill:none;stroke:url(#linearGradient49316);stroke-width:6.4000001;stroke-linecap:round;stroke-linejoin:round;stroke-miterlimit:4;stroke-opacity:1;stroke-dasharray:none;display:inline" />
  </g>
</svg>
