<?xml version="1.0" encoding="UTF-8" standalone="no"?>
<!-- Created with Inkscape (http://www.inkscape.org/) -->

<svg
   xmlns:dc="http://purl.org/dc/elements/1.1/"
   xmlns:cc="http://creativecommons.org/ns#"
   xmlns:rdf="http://www.w3.org/1999/02/22-rdf-syntax-ns#"
   xmlns:svg="http://www.w3.org/2000/svg"
   xmlns="http://www.w3.org/2000/svg"
   xmlns:xlink="http://www.w3.org/1999/xlink"
   xmlns:sodipodi="http://sodipodi.sourceforge.net/DTD/sodipodi-0.dtd"
   xmlns:inkscape="http://www.inkscape.org/namespaces/inkscape"
   width="128"
   height="128"
   id="svg2"
   sodipodi:version="0.32"
   inkscape:version="0.48.3.1 r9886"
   version="1.0"
   sodipodi:docname="input-keyboard-symbolic.svg"
   inkscape:output_extension="org.inkscape.output.svg.inkscape">
  <defs
     id="defs4">
    <linearGradient
       id="linearGradient5439">
      <stop
         style="stop-color:#5d8b2c;stop-opacity:1;"
         offset="0"
         id="stop5441" />
      <stop
         style="stop-color:#aac736;stop-opacity:1;"
         offset="1"
         id="stop5443" />
    </linearGradient>
    <linearGradient
       id="linearGradient5344">
      <stop
         style="stop-color:#74aadb;stop-opacity:1;"
         offset="0"
         id="stop5346" />
      <stop
         style="stop-color:#87c7ff;stop-opacity:1;"
         offset="1"
         id="stop5348" />
    </linearGradient>
    <linearGradient
       id="linearGradient8702">
      <stop
         id="stop8704"
         offset="0"
         style="stop-color:#ff6e00;stop-opacity:1;" />
      <stop
         id="stop8706"
         offset="1"
         style="stop-color:#eb2600;stop-opacity:1;" />
    </linearGradient>
    <linearGradient
       inkscape:collect="always"
       xlink:href="#linearGradient5439"
       id="linearGradient3043"
       x1="118.52158"
       y1="120.11967"
       x2="7.1321802"
       y2="11.010031"
       gradientUnits="userSpaceOnUse"
       gradientTransform="translate(-140,0)" />
    <linearGradient
       inkscape:collect="always"
       xlink:href="#linearGradient5344"
       id="linearGradient3084"
       gradientUnits="userSpaceOnUse"
       x1="118.52158"
       y1="120.11967"
       x2="7.1321802"
       y2="11.010031" />
    <linearGradient
       inkscape:collect="always"
       xlink:href="#linearGradient8702"
       id="linearGradient3088"
       gradientUnits="userSpaceOnUse"
       x1="118.52158"
       y1="120.11967"
       x2="7.1321802"
       y2="11.010031"
       gradientTransform="translate(-280,0)" />
  </defs>
  <sodipodi:namedview
     id="base"
     pagecolor="#ffffff"
     bordercolor="#666666"
     borderopacity="1.0"
     inkscape:pageopacity="0.0"
     inkscape:pageshadow="2"
     inkscape:zoom="1.2510351"
     inkscape:cx="90.58854"
     inkscape:cy="61.349782"
     inkscape:document-units="px"
     inkscape:current-layer="layer1"
     showgrid="false"
     inkscape:showpageshadow="false"
     inkscape:window-width="1024"
     inkscape:window-height="713"
     inkscape:window-x="0"
     inkscape:window-y="0"
     showguides="true"
     inkscape:guide-bbox="true"
     inkscape:window-maximized="0" />
  <metadata
     id="metadata7">
    <rdf:RDF>
      <cc:Work
         rdf:about="">
        <dc:format>image/svg+xml</dc:format>
        <dc:type
           rdf:resource="http://purl.org/dc/dcmitype/StillImage" />
        <dc:title></dc:title>
      </cc:Work>
    </rdf:RDF>
  </metadata>
  <g
     inkscape:label="Capa 1"
     inkscape:groupmode="layer"
     id="layer1">
    <path
       style="fill:url(#linearGradient3043);fill-rule:evenodd;stroke:none;display:inline"
       d="m -29.15625,7 c -9.20698,-0.031155 -21.95821,0.6725069 -30.46875,1.125 -4.95158,0.5900397 -9.40369,4.256327 -11.65625,7.625 l -61.28125,89.90625 c -1.86313,2.62027 -2.91038,8.22574 1.375,9.625 l 32.625,10.5625 c 5.80217,1.58407 23.51131,-2.18609 41,-31.65625 5.85891,-10.539108 11.99347,-24.636599 12.4375,-37.5 L -20.03125,16.21875 C -17.2383,9.3773891 -23.64957,6.9713398 -29.15625,7 z m -1.78125,4.5625 -8.53125,15.3125 -31.3125,0.375 10.46875,-15.125 29.375,-0.5625 z m -42.96875,19.90625 11.0625,0.03125 -11.59375,17.75 -11.34375,-0.84375 11.875,-16.9375 z m 31.59375,0.34375 -11.90625,18.9375 -6.84375,-0.59375 4.5,-6.6875 -6.46875,-0.28125 4.5625,-6.53125 5.46875,0.28125 3.5,-4.875 7.1875,-0.25 z m -46.125,20.84375 30.125,3.3125 -38.3125,63.78125 -30.15625,-9.8125 38.34375,-57.28125 z"
       id="path6497"
       inkscape:connector-curvature="0" />
    <path
       id="path3082"
       d="M 110.84375,7 C 101.63677,6.968845 88.88554,7.6725069 80.375,8.125 75.42342,8.7150397 70.97131,12.381327 68.71875,15.75 L 7.4375,105.65625 c -1.86313,2.62027 -2.91038,8.22574 1.375,9.625 l 32.625,10.5625 c 5.80217,1.58407 23.51131,-2.18609 41,-31.65625 5.85891,-10.539108 11.99347,-24.636599 12.4375,-37.5 L 119.96875,16.21875 C 122.7617,9.3773891 116.35043,6.9713398 110.84375,7 z m -1.78125,4.5625 -8.53125,15.3125 -31.3125,0.375 10.46875,-15.125 29.375,-0.5625 z M 66.09375,31.46875 77.15625,31.5 65.5625,49.25 54.21875,48.40625 66.09375,31.46875 z M 97.6875,31.8125 85.78125,50.75 78.9375,50.15625 l 4.5,-6.6875 -6.46875,-0.28125 4.5625,-6.53125 L 87,36.9375 l 3.5,-4.875 7.1875,-0.25 z m -46.125,20.84375 30.125,3.3125 L 43.375,119.75 13.21875,109.9375 51.5625,52.65625 z"
       style="fill:url(#linearGradient3084);fill-rule:evenodd;stroke:none;display:inline"
       inkscape:connector-curvature="0" />
    <path
       id="path3086"
       d="m -169.15625,7 c -9.20698,-0.031155 -21.95821,0.6725069 -30.46875,1.125 -4.95158,0.5900397 -9.40369,4.256327 -11.65625,7.625 l -61.28125,89.90625 c -1.86313,2.62027 -2.91038,8.22574 1.375,9.625 l 32.625,10.5625 c 5.80217,1.58407 23.51131,-2.18609 41,-31.65625 5.85891,-10.539108 11.99347,-24.636599 12.4375,-37.5 l 25.09375,-40.46875 C -157.2383,9.3773891 -163.64957,6.9713398 -169.15625,7 z m -1.78125,4.5625 -8.53125,15.3125 -31.3125,0.375 10.46875,-15.125 29.375,-0.5625 z m -42.96875,19.90625 11.0625,0.03125 -11.59375,17.75 -11.34375,-0.84375 11.875,-16.9375 z m 31.59375,0.34375 -11.90625,18.9375 -6.84375,-0.59375 4.5,-6.6875 -6.46875,-0.28125 4.5625,-6.53125 5.46875,0.28125 3.5,-4.875 7.1875,-0.25 z m -46.125,20.84375 30.125,3.3125 -38.3125,63.78125 -30.15625,-9.8125 38.34375,-57.28125 z"
       style="fill:url(#linearGradient3088);fill-rule:evenodd;stroke:none;display:inline"
       inkscape:connector-curvature="0" />
  </g>
</svg>
