<?xml version="1.0" encoding="UTF-8" standalone="no"?>
<!-- Created with Inkscape (http://www.inkscape.org/) -->

<svg
   xmlns:dc="http://purl.org/dc/elements/1.1/"
   xmlns:cc="http://creativecommons.org/ns#"
   xmlns:rdf="http://www.w3.org/1999/02/22-rdf-syntax-ns#"
   xmlns:svg="http://www.w3.org/2000/svg"
   xmlns="http://www.w3.org/2000/svg"
   xmlns:xlink="http://www.w3.org/1999/xlink"
   xmlns:sodipodi="http://sodipodi.sourceforge.net/DTD/sodipodi-0.dtd"
   xmlns:inkscape="http://www.inkscape.org/namespaces/inkscape"
   width="128"
   height="128"
   id="svg2"
   sodipodi:version="0.32"
   inkscape:version="0.48.3.1 r9886"
   version="1.0"
   sodipodi:docname="audio-speakers-symbolic.svg"
   inkscape:output_extension="org.inkscape.output.svg.inkscape">
  <defs
     id="defs4">
    <linearGradient
       id="linearGradient8702">
      <stop
         id="stop8704"
         offset="0"
         style="stop-color:#b995da;stop-opacity:1;" />
      <stop
         id="stop8706"
         offset="1"
         style="stop-color:#766287;stop-opacity:1;" />
    </linearGradient>
    <linearGradient
       id="linearGradient9863-9">
      <stop
         style="stop-color:#2f445a;stop-opacity:1;"
         offset="0"
         id="stop9865-4" />
      <stop
         style="stop-color:#415f7c;stop-opacity:1"
         offset="1"
         id="stop9867-8" />
    </linearGradient>
    <linearGradient
       id="linearGradient5344-2">
      <stop
         style="stop-color:#000000;stop-opacity:1;"
         offset="0"
         id="stop5346-3" />
      <stop
         style="stop-color:#000000;stop-opacity:0;"
         offset="1"
         id="stop5348-2" />
    </linearGradient>
    <linearGradient
       id="linearGradient5439-5">
      <stop
         style="stop-color:#ffffff;stop-opacity:1;"
         offset="0"
         id="stop5441-1" />
      <stop
         style="stop-color:#000000;stop-opacity:1;"
         offset="1"
         id="stop5443-8" />
    </linearGradient>
    <linearGradient
       id="linearGradient7210-3">
      <stop
         id="stop7212-5"
         offset="0"
         style="stop-color:#766287;stop-opacity:1;" />
      <stop
         id="stop8994-7"
         offset="0.5"
         style="stop-color:#b995da;stop-opacity:1;" />
      <stop
         id="stop7214-6"
         offset="1"
         style="stop-color:#766287;stop-opacity:1;" />
    </linearGradient>
    <linearGradient
       id="linearGradient5362-8">
      <stop
         style="stop-color:#ffffff;stop-opacity:1;"
         offset="0"
         id="stop5364-9" />
      <stop
         style="stop-color:#ffffff;stop-opacity:0;"
         offset="1"
         id="stop5366-3" />
    </linearGradient>
    <linearGradient
       id="linearGradient5316-5">
      <stop
         style="stop-color:#b995da;stop-opacity:1;"
         offset="0"
         id="stop5320-7" />
      <stop
         style="stop-color:#766287;stop-opacity:1;"
         offset="1"
         id="stop5322-4" />
    </linearGradient>
    <linearGradient
       inkscape:collect="always"
       xlink:href="#linearGradient5316-5"
       id="linearGradient8972"
       gradientUnits="userSpaceOnUse"
       gradientTransform="matrix(2.1481476,0,0,2.2660452,-1072.5125,-1414.5137)"
       x1="505.28644"
       y1="645.81702"
       x2="504.58081"
       y2="659.34265" />
    <linearGradient
       inkscape:collect="always"
       xlink:href="#linearGradient5362-8"
       id="linearGradient8974"
       gradientUnits="userSpaceOnUse"
       gradientTransform="matrix(2.1481476,0,0,2.2660452,-1072.5125,-1414.5137)"
       x1="508.48956"
       y1="642.86359"
       x2="506.59845"
       y2="653.34991" />
    <linearGradient
       inkscape:collect="always"
       xlink:href="#linearGradient7210-3"
       id="linearGradient8976"
       gradientUnits="userSpaceOnUse"
       gradientTransform="matrix(2.4865983,0,0,2.4864923,-1202.2427,-1557.6523)"
       x1="494.4577"
       y1="637.09772"
       x2="515.29169"
       y2="668.90833" />
    <linearGradient
       inkscape:collect="always"
       xlink:href="#linearGradient5439-5"
       id="linearGradient8978"
       gradientUnits="userSpaceOnUse"
       gradientTransform="matrix(2.2024173,0,0,2.2023236,-1059.2662,-1371.7939)"
       x1="523.76074"
       y1="673.95343"
       x2="490.40436"
       y2="648.80872" />
    <linearGradient
       inkscape:collect="always"
       xlink:href="#linearGradient5439-5"
       id="linearGradient8980"
       gradientUnits="userSpaceOnUse"
       gradientTransform="matrix(3.1132681,0.09494446,-0.09345971,3.0643206,-1468.494,-1984.6058)"
       x1="494.64386"
       y1="641.93042"
       x2="509.46909"
       y2="661.21436" />
    <radialGradient
       inkscape:collect="always"
       xlink:href="#linearGradient5439-5"
       id="radialGradient8982"
       gradientUnits="userSpaceOnUse"
       gradientTransform="matrix(4.9397802,0,0,5.7128195,-2434.1566,-3693.5548)"
       cx="502.22336"
       cy="657.59094"
       fx="502.22336"
       fy="657.59094"
       r="5.6949959" />
    <linearGradient
       inkscape:collect="always"
       xlink:href="#linearGradient5344-2"
       id="linearGradient8984"
       gradientUnits="userSpaceOnUse"
       gradientTransform="matrix(2.1481476,0,0,2.2660452,-1072.5125,-1414.5137)"
       x1="504.64963"
       y1="667.4726"
       x2="503.15131"
       y2="654.14331" />
    <linearGradient
       inkscape:collect="always"
       xlink:href="#linearGradient5344-2"
       id="linearGradient8986"
       gradientUnits="userSpaceOnUse"
       gradientTransform="matrix(2.7642986,0,0,2.8210385,-1342.4466,-1789.1735)"
       x1="497.4556"
       y1="669.95612"
       x2="504.83231"
       y2="649.57263" />
    <linearGradient
       inkscape:collect="always"
       xlink:href="#linearGradient9863-9"
       id="linearGradient8988"
       gradientUnits="userSpaceOnUse"
       gradientTransform="matrix(2.6765239,0,0,2.6765239,-977.438,-940.39043)"
       x1="392.3085"
       y1="398.4826"
       x2="392.3085"
       y2="352.06906" />
    <linearGradient
       inkscape:collect="always"
       xlink:href="#linearGradient8702"
       id="linearGradient8990"
       gradientUnits="userSpaceOnUse"
       x1="128.86537"
       y1="62.91391"
       x2="84.855629"
       y2="62.91391" />
    <linearGradient
       inkscape:collect="always"
       xlink:href="#linearGradient9863-9"
       id="linearGradient8992"
       gradientUnits="userSpaceOnUse"
       x1="103.76308"
       y1="110.29007"
       x2="104.65604"
       y2="10.941563" />
    <linearGradient
       inkscape:collect="always"
       xlink:href="#linearGradient5316-5"
       id="linearGradient8994"
       gradientUnits="userSpaceOnUse"
       x1="129.57248"
       y1="64.287071"
       x2="86.30394"
       y2="64.287071" />
    <linearGradient
       inkscape:collect="always"
       xlink:href="#linearGradient9863-9"
       id="linearGradient8996"
       gradientUnits="userSpaceOnUse"
       x1="117.90521"
       y1="112.01678"
       x2="115.29675"
       y2="22.921324" />
    <linearGradient
       inkscape:collect="always"
       xlink:href="#linearGradient5316-5"
       id="linearGradient8998"
       gradientUnits="userSpaceOnUse"
       x1="139.85335"
       y1="64.838593"
       x2="95.899979"
       y2="64.838593" />
    <linearGradient
       inkscape:collect="always"
       xlink:href="#linearGradient9863-9"
       id="linearGradient9000"
       gradientUnits="userSpaceOnUse"
       x1="81.135651"
       y1="112.69846"
       x2="78.352371"
       y2="28.906303" />
    <linearGradient
       y2="121.60378"
       x2="116.67544"
       y1="7.0524735"
       x1="6.889451"
       gradientUnits="userSpaceOnUse"
       id="linearGradient3177"
       xlink:href="#linearGradient8702-7"
       inkscape:collect="always" />
    <linearGradient
       id="linearGradient8702-7">
      <stop
         id="stop8704-0"
         offset="0"
         style="stop-color:#b995da;stop-opacity:1;" />
      <stop
         id="stop8706-8"
         offset="1"
         style="stop-color:#766287;stop-opacity:1;" />
    </linearGradient>
    <linearGradient
       inkscape:collect="always"
       xlink:href="#linearGradient8702-7"
       id="linearGradient3565"
       x1="8.7566776"
       y1="5.9313111"
       x2="124.26582"
       y2="125.78591"
       gradientUnits="userSpaceOnUse" />
    <linearGradient
       id="linearGradient3071">
      <stop
         id="stop3073"
         offset="0"
         style="stop-color:#b995da;stop-opacity:1;" />
      <stop
         id="stop3075"
         offset="1"
         style="stop-color:#766287;stop-opacity:1;" />
    </linearGradient>
    <linearGradient
       y2="125.78591"
       x2="124.26582"
       y1="5.9313111"
       x1="8.7566776"
       gradientUnits="userSpaceOnUse"
       id="linearGradient3079"
       xlink:href="#linearGradient8702-7"
       inkscape:collect="always" />
  </defs>
  <sodipodi:namedview
     id="base"
     pagecolor="#ffffff"
     bordercolor="#666666"
     borderopacity="1.0"
     inkscape:pageopacity="0.0"
     inkscape:pageshadow="2"
     inkscape:zoom="0.70710678"
     inkscape:cx="95.071541"
     inkscape:cy="9.0342659"
     inkscape:document-units="px"
     inkscape:current-layer="layer1"
     showgrid="false"
     inkscape:showpageshadow="false"
     inkscape:window-width="1366"
     inkscape:window-height="716"
     inkscape:window-x="0"
     inkscape:window-y="0"
     showguides="true"
     inkscape:guide-bbox="true"
     inkscape:window-maximized="1" />
  <metadata
     id="metadata7">
    <rdf:RDF>
      <cc:Work
         rdf:about="">
        <dc:format>image/svg+xml</dc:format>
        <dc:type
           rdf:resource="http://purl.org/dc/dcmitype/StillImage" />
        <dc:title />
      </cc:Work>
    </rdf:RDF>
  </metadata>
  <g
     inkscape:label="Capa 1"
     inkscape:groupmode="layer"
     id="layer1">
    <path
       style="fill:url(#linearGradient3079);stroke:none;display:inline"
       d="m 53.8125,17.5625 c -0.64217,-0.01086 -1.27653,-0.0068 -1.9375,0.03125 -10.37232,0.596345 -20.11303,7.07192 -26.96875,17.4375 -0.0381,0.05763 -0.0871,0.09839 -0.125,0.15625 l -11.3125,12.59375 -1.78125,0.0625 -0.0313,0 C 7.76189,47.87321 4.82029,50.321053 3.0937,53.875 1.36231,57.438822 0.62493,62.173375 0.62495,67.40625 c 0,5.233302 0.7463,9.862775 2.375,13.40625 1.59807,3.476831 4.22119,5.933266 7.6875,6.40625 l 0,0.03125 c 0.0637,0.0086 0.12321,0.024 0.1875,0.03125 l 1.84375,0.46875 9.6875,13.40625 c 1.19875,2.0873 2.55506,4.00009 4,5.78125 0.005,0.007 -0.005,0.0246 0,0.0313 a 1.3386339,1.3386339 0 0 0 0.25,0.4375 c 7.539,9.02974 18.12283,13.47302 29.125,11.65625 C 75.30708,115.83833 90.19046,96.386432 89.9687,68.1563 89.74515,39.696793 74.2064,19.287827 55.74995,17.6563 55.10462,17.59924 54.45462,17.57341 53.81245,17.56255 z m -0.5625,7 c 0.5504,0.0061 1.10277,0.04738 1.65625,0.09375 C 71.29461,26.02936 83.93042,43.46925 84.125,68.25 84.31798,92.83612 71.41584,109.37819 54.78125,112.125 36.56491,115.13301 20.8125,97.9881 20.8125,70.3125 c 0,-26.906857 15.37496,-45.937772 32.4375,-45.75 z m -0.125,7.3125 c -8.77814,-0.0966 -17.03594,5.877498 -22.0625,15.75 3.6394,-4.450996 8.41019,-6.937749 13.59375,-6.4375 9.31832,0.90846 17.02541,13.8389 16.625,26.96875 -0.40309,13.21812 -8.72463,26.34661 -17.9375,27.40625 -5.48547,0.630895 -10.41047,-2.151789 -13.90625,-7.09375 4.8605,11.79287 14.4141,18.18037 24.96875,16.4375 C 68.28237,102.61494 79.03599,88.790316 78.875,68.28125 78.71269,47.609827 68.17073,33.08291 54.5,31.9375 54.03831,31.89882 53.58413,31.88005 53.125,31.875 z M 43.9375,47.75 C 36.43688,48.095286 30.40831,57.054281 30.0625,68.625 29.69569,80.899611 36.24243,90.371856 44.46875,89.40625 51.37711,88.595346 57.69763,78.646662 58,68.53125 58.30023,58.483408 52.93751,48.627332 45.4375,47.8125 44.92565,47.75721 44.43754,47.72698 43.9375,47.75 z"
       id="path5245"
       inkscape:connector-curvature="0" />
    <path
       inkscape:connector-curvature="0"
       style="fill:url(#linearGradient3177);fill-opacity:1;stroke:none;display:inline"
       d="M 103.6875,3.59375 81.375,26.625 c 8.35501,10.03217 13.55547,24.65976 13.6875,41.46875 0.10994,13.9953 -3.37653,26.31638 -9.40625,35.84375 l 23.28125,21.125 c 11.52339,-15.96917 17.91355,-36.39888 17.75,-57.21875 -0.18772,-23.89783 -8.08354,-47.61397 -23,-64.25 z"
       id="path5247" />
  </g>
</svg>
