<?xml version="1.0" encoding="UTF-8" standalone="no"?>
<!-- Created with Inkscape (http://www.inkscape.org/) -->

<svg
   xmlns:dc="http://purl.org/dc/elements/1.1/"
   xmlns:cc="http://creativecommons.org/ns#"
   xmlns:rdf="http://www.w3.org/1999/02/22-rdf-syntax-ns#"
   xmlns:svg="http://www.w3.org/2000/svg"
   xmlns="http://www.w3.org/2000/svg"
   xmlns:xlink="http://www.w3.org/1999/xlink"
   xmlns:sodipodi="http://sodipodi.sourceforge.net/DTD/sodipodi-0.dtd"
   xmlns:inkscape="http://www.inkscape.org/namespaces/inkscape"
   width="128"
   height="128"
   id="svg2"
   sodipodi:version="0.32"
   inkscape:version="0.48.3.1 r9886"
   version="1.0"
   sodipodi:docname="drive-multidisk-symbolic.svg"
   inkscape:output_extension="org.inkscape.output.svg.inkscape">
  <defs
     id="defs4">
    <linearGradient
       id="linearGradient8702-2">
      <stop
         id="stop8704-4"
         offset="0"
         style="stop-color:#b995da;stop-opacity:1;" />
      <stop
         id="stop8706-8"
         offset="1"
         style="stop-color:#766287;stop-opacity:1;" />
    </linearGradient>
    <linearGradient
       inkscape:collect="always"
       xlink:href="#linearGradient8702-2"
       id="linearGradient4483"
       gradientUnits="userSpaceOnUse"
       gradientTransform="translate(0,1.1001444e-6)"
       x1="12.145817"
       y1="9.0693588"
       x2="118.68261"
       y2="116.58033" />
  </defs>
  <sodipodi:namedview
     id="base"
     pagecolor="#ffffff"
     bordercolor="#666666"
     borderopacity="1.0"
     inkscape:pageopacity="0.0"
     inkscape:pageshadow="2"
     inkscape:zoom="2.5020702"
     inkscape:cx="127.04487"
     inkscape:cy="75.684341"
     inkscape:document-units="px"
     inkscape:current-layer="layer1"
     showgrid="false"
     inkscape:showpageshadow="false"
     inkscape:window-width="1366"
     inkscape:window-height="717"
     inkscape:window-x="0"
     inkscape:window-y="0"
     showguides="true"
     inkscape:guide-bbox="true"
     inkscape:window-maximized="1" />
  <metadata
     id="metadata7">
    <rdf:RDF>
      <cc:Work
         rdf:about="">
        <dc:format>image/svg+xml</dc:format>
        <dc:type
           rdf:resource="http://purl.org/dc/dcmitype/StillImage" />
      </cc:Work>
    </rdf:RDF>
  </metadata>
  <g
     inkscape:label="Capa 1"
     inkscape:groupmode="layer"
     id="layer1">
    <path
       style="fill:url(#linearGradient4483);fill-rule:evenodd;stroke:none;display:inline"
       d="M 24.125,2.78125 C 23.20394,2.767077 22.29377,2.77995 21.40625,2.8125 16.09332,3.0073668 11.45651,4.0870373 7.75,5.78125 c -0.009,0.0039 -0.0225,-0.0039 -0.0313,0 -4.32817,1.8571249 -7.422,5.661207 -7.5625,10.8125 -1.2e-4,0.01042 -1.2e-4,0.02083 0,0.03125 l 0,87.25 c -0.0189,3.50066 0.49235,6.5506 1.6875,9.03125 1.19515,2.48065 3.16331,4.35226 5.78125,5.1875 -1.2e-4,0.0104 -1.2e-4,0.0208 0,0.0313 4.73887,1.4704 10.16806,3.11458 14.40625,3.5 0.0104,1.2e-4 0.0208,1.2e-4 0.0313,0 1.56394,0.11551 3.28597,0.0354 5.15625,-0.28125 l 0.0313,0 90.875,-14.21875 c 0.0104,1.2e-4 0.0208,1.2e-4 0.0313,0 3.88532,-0.64905 6.50432,-2.71537 7.9375,-5.4375 1.43318,-2.722134 1.78125,-6.012917 1.78125,-9.375 L 127.8126,21.7188 c -0.003,-2.130825 -0.15908,-4.407856 -1.03125,-6.46875 l 0,56.28125 c 0,1.644754 -0.8525,3.080319 -2.15625,3.875 l 0,15.28125 c 0.0835,1.58493 -0.20883,2.648747 -0.96875,3.8125 l -5.71875,7.1875 c -1.15628,1.44114 -2.36075,2.52667 -4.375,2.75 l -26.40625,4.53125 c -1.5781,0.2298 -2.83448,-0.34251 -3.5625,-1.0625 L 79,103.3125 c -0.88435,-1.0424 -2.24806,-0.99119 -3.125,-0.0313 l 0,-0.0313 c -5.77783,5.83026 -12.8638,9.59336 -20.625,10.875 C 33.11223,117.78073 13,96.915948 13,63.28125 13,31.388536 31.64181,8.5688334 51.84375,7.75 l 0,-2.09375 c 0,-0.27115 0.0487,-0.5234389 0.0937,-0.78125 l -25,-1.96875 C 25.97797,2.836641 25.04601,2.7954233 24.12495,2.78125 z M 59.03125,4.125 c -2.31107,0 -4.1875,1.8764318 -4.1875,4.1875 l 0,60.59375 c 0,2.311068 1.87643,4.1875 4.1875,4.1875 l 60.59375,0 c 2.31107,0 4.1875,-1.876432 4.1875,-4.1875 l 0,-60.59375 c 0,-2.3110682 -1.87643,-4.1875 -4.1875,-4.1875 l -60.59375,0 z m 0.125,2.59375 c 1.33986,-0.050141 2.59455,1.1591987 2.59375,2.5 0.0422,2.097281 1.64687,3.872799 4.5625,4 0.0225,9.82e-4 0.0398,-7.84e-4 0.0625,0 l 46.1875,0.25 c 0.0312,-5.86e-4 0.0625,-5.86e-4 0.0937,0 1.84431,0.07746 2.69618,-0.400625 3.375,-1.09375 0.67882,-0.693125 1.16711,-1.800645 1.375,-3.15625 0.13529,-1.3443854 1.53915,-2.4216642 2.875,-2.21875 1.33586,0.2029143 2.33252,1.6448308 2.0625,2.96875 -0.31739,2.069694 -1.09322,4.214556 -2.75,5.90625 -1.63811,1.672626 -4.14041,2.6916 -7.0625,2.59375 -0.0332,-0.0011 -0.0603,0.0014 -0.0937,0 l -46.15625,-0.25 c -0.0208,2.6e-4 -0.0417,2.6e-4 -0.0625,0 C 61.02697,18.039082 56.8474,14.157858 56.75,9.3125 56.708,8.0900152 57.69458,6.9175754 58.90625,6.75 c 0.0827,-0.014608 0.1662,-0.02504 0.25,-0.03125 z m -7.375,7.875 C 34.37042,16.84058 19.4375,37.043739 19.4375,64.9375 c 0,30.603455 17.41986,49.57625 37.5625,46.25 7.11911,-1.17561 13.62603,-4.62126 18.90625,-10 1.37713,-1.381896 3.37475,-1.619366 4.6875,-0.1875 l 4.5,4.8125 c 0.97899,1.15623 2.22961,1.25179 3.65625,0.96875 l 24.4375,-3.625 c 1.52565,-0.27317 2.69294,-1.10199 3.4375,-2.15625 l 5.875,-7.5625 c 0.5466,-0.758099 0.84321,-1.623125 0.78125,-2.90625 l 0,-14.5625 c -0.32589,0.07391 -0.68236,0.09375 -1.03125,0.09375 l -53.28125,0 c -2.74721,5.90717 -7.11328,10.335891 -11.875,11.03125 -9.48849,1.385583 -17.40625,-9.12774 -17.40625,-23.0625 0,-11.467704 5.09322,-20.750523 12.15625,-23.40625 l 0,-26.03125 c -0.0205,0.0026 -0.042,-0.0026 -0.0625,0 z m 7.375,5.125 c 1.33986,-0.05014 2.59455,1.159199 2.59375,2.5 0.0422,2.097281 1.64687,3.872799 4.5625,4 0.0225,9.82e-4 0.0398,-7.84e-4 0.0625,0 l 46.1875,0.25 c 0.0312,-5.86e-4 0.0625,-5.86e-4 0.0937,0 1.84431,0.07746 2.69618,-0.400625 3.375,-1.09375 0.67882,-0.693125 1.16711,-1.831895 1.375,-3.1875 0.17484,-1.3185 1.5613,-2.364113 2.875,-2.15625 1.3137,0.207864 2.30326,1.629431 2.0625,2.9375 -0.31739,2.069694 -1.09322,4.214556 -2.75,5.90625 -1.63811,1.672626 -4.14041,2.6916 -7.0625,2.59375 -0.0332,-0.0011 -0.0603,0.0014 -0.0937,0 l -46.15625,-0.25 c -0.0208,2.6e-4 -0.0417,2.6e-4 -0.0625,0 C 61.02697,31.039082 56.8474,27.157858 56.75,22.3125 c -0.0499,-1.309183 1.09701,-2.54544 2.40625,-2.59375 z m 0,13 c 1.32951,-0.04985 2.57795,1.138398 2.59375,2.46875 0.0422,2.097281 1.64687,3.904049 4.5625,4.03125 0.0225,9.82e-4 0.0398,-7.84e-4 0.0625,0 l 46.1875,0.21875 c 0.0312,-5.86e-4 0.0625,-5.86e-4 0.0937,0 1.84431,0.07746 2.69618,-0.369375 3.375,-1.0625 0.67882,-0.693125 1.16711,-1.831895 1.375,-3.1875 0.13529,-1.344385 1.53915,-2.421664 2.875,-2.21875 1.33586,0.202914 2.33252,1.644831 2.0625,2.96875 -0.31739,2.069694 -1.09322,4.245806 -2.75,5.9375 -1.63806,1.672582 -4.14051,2.66029 -7.0625,2.5625 -0.0332,-0.0011 -0.0602,0.0014 -0.0937,0 L 66.28125,44.21875 c -0.0208,2.6e-4 -0.0417,2.6e-4 -0.0625,0 C 61.02697,44.039082 56.8474,40.157858 56.75,35.3125 c -0.0499,-1.309183 1.09701,-2.54544 2.40625,-2.59375 z m -7.3125,11.125 c -5.6422,2.293004 -9.65625,9.872249 -9.65625,19.125 0,11.424351 6.50216,20.042244 14.28125,18.90625 2.9859,-0.436024 5.7916,-2.642594 7.96875,-5.8125 l -8.0625,0 c -2.51202,0 -4.53125,-2.019233 -4.53125,-4.53125 l 0,-27.6875 z m 57.375,3.0625 c 3.14878,0 5.78125,2.507817 5.78125,5.5 0,2.992183 -2.63247,5.46875 -5.78125,5.46875 -3.14878,0 -5.75,-2.476567 -5.75,-5.46875 0,-2.992183 2.60122,-5.5 5.75,-5.5 z M 59.15625,55.5 c 1.32951,-0.04985 2.57795,1.138398 2.59375,2.46875 0.0422,2.097281 1.64687,3.904049 4.5625,4.03125 0.0225,9.82e-4 0.0398,-7.84e-4 0.0625,0 l 46.1875,0.21875 c 0.0312,-5.86e-4 0.0625,-5.86e-4 0.0937,0 1.84431,0.07746 2.69618,-0.369375 3.375,-1.0625 0.67882,-0.693125 1.16711,-1.831895 1.375,-3.1875 0.13529,-1.344385 1.53915,-2.421664 2.875,-2.21875 1.33586,0.202914 2.33252,1.644831 2.0625,2.96875 -0.31739,2.069694 -1.09322,4.245806 -2.75,5.9375 -1.63806,1.672582 -4.14051,2.66029 -7.0625,2.5625 -0.0332,-0.0011 -0.0602,0.0014 -0.0937,0 L 66.28125,67 c -0.0208,2.6e-4 -0.0417,2.6e-4 -0.0625,0 C 61.02697,66.820332 56.8474,62.939108 56.75,58.09375 56.7001,56.784567 57.84701,55.54831 59.15625,55.5 z"
       id="path8898-8"
       inkscape:connector-curvature="0" />
  </g>
</svg>
