<?xml version="1.0" encoding="UTF-8" standalone="no"?>
<!-- Created with Inkscape (http://www.inkscape.org/) -->

<svg
   xmlns:dc="http://purl.org/dc/elements/1.1/"
   xmlns:cc="http://creativecommons.org/ns#"
   xmlns:rdf="http://www.w3.org/1999/02/22-rdf-syntax-ns#"
   xmlns:svg="http://www.w3.org/2000/svg"
   xmlns="http://www.w3.org/2000/svg"
   xmlns:xlink="http://www.w3.org/1999/xlink"
   xmlns:sodipodi="http://sodipodi.sourceforge.net/DTD/sodipodi-0.dtd"
   xmlns:inkscape="http://www.inkscape.org/namespaces/inkscape"
   width="128"
   height="128"
   id="svg2"
   sodipodi:version="0.32"
   inkscape:version="0.48.3.1 r9886"
   version="1.0"
   sodipodi:docname="drive-harddisk-usb-symbolic.svg"
   inkscape:output_extension="org.inkscape.output.svg.inkscape">
  <defs
     id="defs4">
    <linearGradient
       id="linearGradient8702-2">
      <stop
         id="stop8704-8"
         offset="0"
         style="stop-color:#b995da;stop-opacity:1;" />
      <stop
         id="stop8706-2"
         offset="1"
         style="stop-color:#766287;stop-opacity:1;" />
    </linearGradient>
    <linearGradient
       gradientTransform="translate(0,1.1001444e-6)"
       y2="116.58033"
       x2="118.68261"
       y1="9.0693588"
       x1="12.145817"
       gradientUnits="userSpaceOnUse"
       id="linearGradient3657"
       xlink:href="#linearGradient8702-2"
       inkscape:collect="always" />
  </defs>
  <sodipodi:namedview
     id="base"
     pagecolor="#ffffff"
     bordercolor="#666666"
     borderopacity="1.0"
     inkscape:pageopacity="0.0"
     inkscape:pageshadow="2"
     inkscape:zoom="2.5020702"
     inkscape:cx="103.63944"
     inkscape:cy="76.405084"
     inkscape:document-units="px"
     inkscape:current-layer="layer1"
     showgrid="false"
     inkscape:showpageshadow="false"
     inkscape:window-width="1024"
     inkscape:window-height="713"
     inkscape:window-x="0"
     inkscape:window-y="0"
     showguides="true"
     inkscape:guide-bbox="true"
     inkscape:window-maximized="0" />
  <metadata
     id="metadata7">
    <rdf:RDF>
      <cc:Work
         rdf:about="">
        <dc:format>image/svg+xml</dc:format>
        <dc:type
           rdf:resource="http://purl.org/dc/dcmitype/StillImage" />
      </cc:Work>
    </rdf:RDF>
  </metadata>
  <g
     inkscape:label="Capa 1"
     inkscape:groupmode="layer"
     id="layer1">
    <path
       inkscape:connector-curvature="0"
       style="fill:url(#linearGradient3657);fill-rule:evenodd;stroke:none;display:inline"
       d="m 24.125,2.7812511 c -0.921061,-0.014173 -1.831225,-0.0013 -2.71875,0.03125 -5.31293,0.1948668 -9.94974,1.2745373 -13.65625,2.96875 -0.009,0.0039 -0.02265,-0.0039 -0.03125,0 -4.32817,1.8571249 -7.422,5.6612069 -7.5625,10.8124999 a 1.3383958,1.3383958 0 0 0 0,0.03125 l 0,87.249999 c -0.0189,3.50066 0.49235,6.5506 1.6875,9.03125 1.19515,2.48065 3.16331,4.35226 5.78125,5.1875 a 1.3383958,1.3383958 0 0 0 0,0.0313 c 4.73887,1.4704 10.16806,3.11458 14.40625,3.5 a 1.3383958,1.3383958 0 0 0 0.03125,0 c 1.56394,0.11551 3.28597,0.0354 5.15625,-0.28125 l 0.03125,0 90.875,-14.21875 a 1.3383958,1.3383958 0 0 0 0.0313,0 c 3.88532,-0.64905 6.50432,-2.71537 7.9375,-5.4375 1.43318,-2.722134 1.78125,-6.012916 1.78125,-9.374999 l -0.0625,-70.59375 c -0.003,-2.130825 -0.15908,-4.407856 -1.03125,-6.46875 l 0,56.28125 c 0,1.644754 -0.8525,3.080319 -2.15625,3.875 l 0,15.28125 c 0.0835,1.58493 -0.20883,2.648747 -0.96875,3.8125 l -5.71875,7.187499 c -1.15628,1.44114 -2.36075,2.52667 -4.375,2.75 L 87.1563,108.9688 c -1.578105,0.2298 -2.834485,-0.34251 -3.5625,-1.0625 L 79,103.3125 c -0.88435,-1.0424 -2.248064,-0.99124 -3.125,-0.0313 l 0,-0.0313 C 70.09717,109.08016 63.0112,112.84336 55.25,114.125 33.11223,117.78073 13,96.915949 13,63.281251 13,31.388537 31.641812,8.5688345 51.84375,7.7500011 l 0,-2.09375 c 0,-0.27115 0.04855,-0.5234389 0.09375,-0.78125 l -25,-1.96875 c -0.95948,-0.069609 -1.891439,-0.1108267 -2.8125,-0.125 z m 34.90625,1.34375 c -2.311068,0 -4.1875,1.8764318 -4.1875,4.1875 l 0,60.5937499 c 0,2.311068 1.876432,4.1875 4.1875,4.1875 l 60.59375,0 c 2.31107,0 4.1875,-1.876432 4.1875,-4.1875 l 0,-60.5937499 c 0,-2.3110682 -1.87643,-4.1875 -4.1875,-4.1875 l -60.59375,0 z m -7.25,10.4687499 C 34.370418,16.840581 19.4375,37.04374 19.4375,64.937501 c 0,30.603455 17.419864,49.576249 37.5625,46.249999 7.119108,-1.17561 13.626029,-4.62126 18.90625,-10 1.377125,-1.381896 3.374746,-1.619366 4.6875,-0.1875 l 4.5,4.8125 c 0.978992,1.15623 2.229609,1.25179 3.65625,0.96875 l 24.4375,-3.625 c 1.52565,-0.27317 2.69294,-1.10199 3.4375,-2.15625 l 5.875,-7.562499 c 0.5466,-0.758099 0.84321,-1.623125 0.78125,-2.90625 l 0,-14.5625 c -0.32589,0.07391 -0.68236,0.09375 -1.03125,0.09375 l -53.28125,0 c -2.747211,5.90717 -7.113278,10.335891 -11.875,11.03125 -9.488491,1.385583 -17.40625,-9.12774 -17.40625,-23.0625 0,-11.467704 5.093221,-20.750523 12.15625,-23.40625 l 0,-26.03125 c -0.0205,0.0026 -0.04201,-0.0026 -0.0625,0 z m 44.5,9.5 c 2.37668,0 4.34375,1.866523 4.34375,4.125 0,2.258476 -1.96707,4.09375 -4.34375,4.09375 -1.91908,0 -3.53289,-1.189377 -4.09375,-2.84375 l -5.71875,0.03125 c -0.64244,0 -1.44036,0.346604 -2.375,1.125 -0.93464,0.778397 -1.9474,1.915224 -3,3.125 -1.04369,1.199528 -2.09904,2.492612 -3.28125,3.59375 l 35.25,0.25 0,-2.75 a 1.3035511,1.2277935 0 0 1 1.21875,-1.25 1.3035511,1.2277935 0 0 1 0.75,0.1875 l 3.6875,2 3.65625,1.96875 a 1.3035511,1.2277935 0 0 1 0,2.15625 l -3.65625,1.96875 -3.6875,2 a 1.3035511,1.2277935 0 0 1 -1.96875,-1.03125 l 0,-2.75 -26.46875,-0.15625 c 0.9535,0.949707 1.96157,2.01107 3,3.125 1.22723,1.316445 2.4553,2.634444 3.53125,3.5625 1.07594,0.928056 2.1046,1.34375 2.1875,1.34375 l 6,0 0,-1.84375 a 1.2651054,1.2651054 0 0 1 1.15625,-1.25 1.2651054,1.2651054 0 0 1 0.125,0 l 6,0 a 1.2651054,1.2651054 0 0 1 1.21875,1.25 l 0,5.71875 a 1.2651054,1.2651054 0 0 1 -1.21875,1.28125 l -6,0 a 1.2651054,1.2651054 0 0 1 -1.28125,-1.28125 l 0,-1.34375 -6,0 c -1.49633,0 -2.58695,-0.911649 -3.8125,-1.96875 -1.22556,-1.0571 -2.50973,-2.388319 -3.75,-3.71875 -1.24026,-1.330431 -2.45142,-2.651353 -3.4375,-3.59375 -0.49304,-0.471198 -0.92482,-0.868728 -1.25,-1.09375 -0.24385,-0.168764 -0.4435,-0.1818 -0.4375,-0.1875 l -3.375,0 0,-0.0625 -10.5,-0.0625 c -0.61951,2.860782 -3.312,5.03125 -6.5,5.03125 -3.64342,0 -6.625,-2.819028 -6.625,-6.28125 0,-3.462223 2.98158,-6.3125 6.625,-6.3125 3.188,0 5.88049,2.170468 6.5,5.03125 l 4.4375,0.03125 c 1.77967,-0.486818 3.92832,-2.770567 6.03125,-5.1875 1.0616,-1.220107 2.0893,-2.470842 3.25,-3.4375 1.1607,-0.966658 2.4731,-1.71875 4,-1.71875 l 5.71875,-0.03125 c 0.56928,-1.640839 2.18488,-2.84375 4.09375,-2.84375 z m -44.4375,19.75 c -5.642201,2.293004 -9.65625,9.872249 -9.65625,19.125 0,11.424351 6.50216,20.042244 14.28125,18.90625 2.985898,-0.436024 5.791602,-2.642594 7.96875,-5.8125 l -8.0625,0 c -2.512017,0 -4.53125,-2.019233 -4.53125,-4.53125 l 0,-27.6875 z"
       id="path8898" />
  </g>
</svg>
