<?xml version="1.0" encoding="UTF-8" standalone="no"?>
<!-- Created with Inkscape (http://www.inkscape.org/) -->
<svg
   xmlns:dc="http://purl.org/dc/elements/1.1/"
   xmlns:cc="http://creativecommons.org/ns#"
   xmlns:rdf="http://www.w3.org/1999/02/22-rdf-syntax-ns#"
   xmlns:svg="http://www.w3.org/2000/svg"
   xmlns="http://www.w3.org/2000/svg"
   xmlns:xlink="http://www.w3.org/1999/xlink"
   xmlns:sodipodi="http://sodipodi.sourceforge.net/DTD/sodipodi-0.dtd"
   xmlns:inkscape="http://www.inkscape.org/namespaces/inkscape"
   width="128"
   height="128"
   id="svg2"
   sodipodi:version="0.32"
   inkscape:version="0.46"
   version="1.0"
   sodipodi:docname="drive-optical.svg"
   inkscape:output_extension="org.inkscape.output.svg.inkscape">
  <defs
     id="defs4">
    <linearGradient
       inkscape:collect="always"
       xlink:href="#linearGradient5439"
       id="linearGradient8563"
       gradientUnits="userSpaceOnUse"
       gradientTransform="matrix(2.6765239,0,0,2.6765239,-1298.6209,-1368.6343)"
       x1="526.1701"
       y1="503.09528"
       x2="475.61102"
       y2="610.34528" />
    <linearGradient
       inkscape:collect="always"
       xlink:href="#linearGradient5316"
       id="linearGradient8567"
       gradientUnits="userSpaceOnUse"
       gradientTransform="matrix(2.6765239,0,0,2.6765239,-816.84656,-619.20759)"
       x1="313.44086"
       y1="239.28871"
       x2="325.08148"
       y2="277.16373" />
    <linearGradient
       inkscape:collect="always"
       xlink:href="#linearGradient5362"
       id="linearGradient8571"
       gradientUnits="userSpaceOnUse"
       gradientTransform="matrix(2.6765239,0,0,2.6765239,-1298.6209,-1368.6343)"
       x1="485.44086"
       y1="511.1637"
       x2="501.83148"
       y2="538.1637" />
    <linearGradient
       inkscape:collect="always"
       xlink:href="#linearGradient5439"
       id="linearGradient8591"
       gradientUnits="userSpaceOnUse"
       gradientTransform="matrix(2.6765239,0,0,2.6765239,-1298.6209,-1368.6343)"
       x1="508.09534"
       y1="501.59317"
       x2="556.49384"
       y2="608.89142" />
    <linearGradient
       inkscape:collect="always"
       xlink:href="#linearGradient5439"
       id="linearGradient8595"
       gradientUnits="userSpaceOnUse"
       gradientTransform="matrix(2.6765239,0,0,2.6765239,-1298.6209,-1368.6343)"
       x1="526.1701"
       y1="503.09528"
       x2="475.61102"
       y2="610.34528" />
    <linearGradient
       inkscape:collect="always"
       xlink:href="#linearGradient5344"
       id="linearGradient8597"
       gradientUnits="userSpaceOnUse"
       gradientTransform="matrix(2.6765239,0,0,2.6765239,-1298.6209,-1368.6343)"
       x1="510.48071"
       y1="531.75934"
       x2="507.97995"
       y2="531.75934" />
    <linearGradient
       inkscape:collect="always"
       xlink:href="#linearGradient5362"
       id="linearGradient8600"
       gradientUnits="userSpaceOnUse"
       gradientTransform="matrix(2.6765239,0,0,2.6765239,-1298.6209,-1368.6343)"
       x1="518.28668"
       y1="504.69495"
       x2="505.92706"
       y2="537.36938" />
    <linearGradient
       inkscape:collect="always"
       xlink:href="#linearGradient9863"
       id="linearGradient9875"
       gradientUnits="userSpaceOnUse"
       x1="89.357758"
       y1="34.90163"
       x2="89.357758"
       y2="-7.0638566"
       gradientTransform="matrix(2.6765239,0,0,2.6765239,-174.38458,23.158149)" />
    <linearGradient
       inkscape:collect="always"
       xlink:href="#linearGradient5439"
       id="linearGradient9982"
       gradientUnits="userSpaceOnUse"
       gradientTransform="matrix(2.6765239,0,0,2.6765239,-1298.6208,-1689.3176)"
       x1="490.27121"
       y1="632.72681"
       x2="449.2301"
       y2="708.07471" />
    <linearGradient
       inkscape:collect="always"
       xlink:href="#linearGradient5362"
       id="linearGradient9979"
       gradientUnits="userSpaceOnUse"
       gradientTransform="matrix(2.6765239,0,0,2.6765239,-1298.6208,-1689.3176)"
       x1="491.02121"
       y1="633.16431"
       x2="485.68814"
       y2="640.88721" />
    <linearGradient
       inkscape:collect="always"
       xlink:href="#linearGradient5439"
       id="linearGradient9976"
       gradientUnits="userSpaceOnUse"
       gradientTransform="matrix(2.6765239,0,0,2.6765239,-1298.6208,-1689.3176)"
       x1="485.65756"
       y1="629.86298"
       x2="594.2511"
       y2="706.58405" />
    <linearGradient
       inkscape:collect="always"
       xlink:href="#linearGradient5439"
       id="linearGradient9973"
       gradientUnits="userSpaceOnUse"
       gradientTransform="matrix(2.6765239,0,0,2.6765239,-1298.6208,-1689.3176)"
       x1="495.35397"
       y1="640.05084"
       x2="531.08636"
       y2="670.77136" />
    <linearGradient
       inkscape:collect="always"
       xlink:href="#linearGradient5439"
       id="linearGradient9970"
       gradientUnits="userSpaceOnUse"
       gradientTransform="matrix(2.6765239,0,0,2.6765239,-1298.6208,-1689.3176)"
       x1="494.96805"
       y1="639.71228"
       x2="531.75"
       y2="670.73663" />
    <linearGradient
       inkscape:collect="always"
       xlink:href="#linearGradient5439"
       id="linearGradient9967"
       gradientUnits="userSpaceOnUse"
       gradientTransform="matrix(2.4353091,0,0,2.4353091,-1174.8533,-1529.7059)"
       x1="484.04169"
       y1="629.66498"
       x2="598.57666"
       y2="708.88654" />
    <linearGradient
       inkscape:collect="always"
       xlink:href="#linearGradient5439"
       id="linearGradient9964"
       gradientUnits="userSpaceOnUse"
       gradientTransform="matrix(2.4592755,0,0,2.4598887,-1184.4347,-1547.2584)"
       x1="482.04404"
       y1="629.51166"
       x2="600.66217"
       y2="711.91254" />
    <linearGradient
       inkscape:collect="always"
       xlink:href="#linearGradient5439"
       id="linearGradient9961"
       gradientUnits="userSpaceOnUse"
       gradientTransform="matrix(2.6765239,0,0,2.6765239,-1298.1477,-1689.5685)"
       x1="513.53632"
       y1="643.15497"
       x2="572.04932"
       y2="698.16571" />
    <linearGradient
       inkscape:collect="always"
       xlink:href="#linearGradient5439"
       id="linearGradient9958"
       gradientUnits="userSpaceOnUse"
       gradientTransform="matrix(2.7045918,0,0,2.6621836,-1310.1198,-1678.3967)"
       x1="511.00421"
       y1="661.83636"
       x2="484.41125"
       y2="630.4527" />
    <linearGradient
       inkscape:collect="always"
       xlink:href="#linearGradient5439"
       id="linearGradient9955"
       gradientUnits="userSpaceOnUse"
       gradientTransform="matrix(2.5968767,0,0,2.5561577,-1255.5193,-1609.1435)"
       x1="485.01462"
       y1="633.39752"
       x2="594.81787"
       y2="707.73212" />
    <linearGradient
       inkscape:collect="always"
       xlink:href="#linearGradient5316"
       id="linearGradient9951"
       gradientUnits="userSpaceOnUse"
       gradientTransform="matrix(2.9280323,0,0,2.6765239,-2658.5887,-136.93369)"
       x1="938.6817"
       y1="69.827347"
       x2="945.22552"
       y2="86.786987" />
    <linearGradient
       inkscape:collect="always"
       xlink:href="#linearGradient5316"
       id="linearGradient9948"
       gradientUnits="userSpaceOnUse"
       gradientTransform="matrix(2.976494,0,0,2.7208228,-2714.2444,-140.06092)"
       x1="938.6817"
       y1="69.827347"
       x2="945.22552"
       y2="86.786987" />
    <linearGradient
       inkscape:collect="always"
       xlink:href="#linearGradient5316"
       id="linearGradient9945"
       gradientUnits="userSpaceOnUse"
       gradientTransform="matrix(2.7482459,0,0,2.7482459,-2504.5591,-141.9405)"
       x1="938.6817"
       y1="69.827347"
       x2="945.22552"
       y2="86.786987" />
    <linearGradient
       inkscape:collect="always"
       xlink:href="#linearGradient5316"
       id="linearGradient9942"
       gradientUnits="userSpaceOnUse"
       gradientTransform="matrix(2.976494,0,0,2.7208228,-2709.0686,-139.94263)"
       x1="938.6817"
       y1="69.827347"
       x2="945.22552"
       y2="86.786987" />
    <linearGradient
       inkscape:collect="always"
       xlink:href="#linearGradient5316"
       id="linearGradient9939"
       gradientUnits="userSpaceOnUse"
       gradientTransform="matrix(2.9280323,0,0,2.6765239,-2654.6083,-136.80822)"
       x1="938.6817"
       y1="69.827347"
       x2="945.22552"
       y2="86.786987" />
    <linearGradient
       inkscape:collect="always"
       xlink:href="#linearGradient5344"
       id="linearGradient16047"
       gradientUnits="userSpaceOnUse"
       gradientTransform="translate(-424.43933,-452.75668)"
       x1="495.94766"
       y1="486.7771"
       x2="434.51016"
       y2="572.7771" />
    <linearGradient
       inkscape:collect="always"
       xlink:href="#linearGradient9863"
       id="linearGradient9987"
       gradientUnits="userSpaceOnUse"
       gradientTransform="matrix(2.6765239,0,0,2.6765239,-1138.0294,-136.93369)"
       x1="448.61356"
       y1="98.163681"
       x2="448.61356"
       y2="51.040291" />
    <linearGradient
       inkscape:collect="always"
       xlink:href="#linearGradient2481"
       id="linearGradient16039"
       gradientUnits="userSpaceOnUse"
       gradientTransform="matrix(1.5613058,0,0,1.5613058,51.852372,1.1343131)"
       x1="22.5"
       y1="-0.00033215381"
       x2="22.5"
       y2="48.001324" />
    <filter
       inkscape:collect="always"
       id="filter4748">
      <feGaussianBlur
         inkscape:collect="always"
         stdDeviation="0.7328125"
         id="feGaussianBlur4750" />
    </filter>
    <linearGradient
       id="linearGradient2481">
      <stop
         id="stop2483"
         offset="0"
         style="stop-color:#87c6ff;stop-opacity:1;" />
      <stop
         style="stop-color:#75aadb;stop-opacity:1;"
         offset="0.5"
         id="stop3944" />
      <stop
         id="stop2485"
         offset="1"
         style="stop-color:#75aadb;stop-opacity:1;" />
    </linearGradient>
    <linearGradient
       id="linearGradient12594">
      <stop
         id="stop12596"
         offset="0"
         style="stop-color:#e9b551;stop-opacity:1;" />
      <stop
         id="stop12598"
         offset="1"
         style="stop-color:#e9b551;stop-opacity:0;" />
    </linearGradient>
    <linearGradient
       id="linearGradient5316">
      <stop
         style="stop-color:#b995da;stop-opacity:1;"
         offset="0"
         id="stop5320" />
      <stop
         style="stop-color:#766287;stop-opacity:1;"
         offset="1"
         id="stop5322" />
    </linearGradient>
    <linearGradient
       id="linearGradient9863">
      <stop
         style="stop-color:#2f445a;stop-opacity:1;"
         offset="0"
         id="stop9865" />
      <stop
         style="stop-color:#415f7c;stop-opacity:1"
         offset="1"
         id="stop9867" />
    </linearGradient>
    <linearGradient
       id="linearGradient12336">
      <stop
         id="stop12338"
         offset="0"
         style="stop-color:#ff6e00;stop-opacity:1;" />
      <stop
         id="stop12340"
         offset="1"
         style="stop-color:#eb2600;stop-opacity:1;" />
    </linearGradient>
    <linearGradient
       id="linearGradient5362">
      <stop
         style="stop-color:#ffffff;stop-opacity:1;"
         offset="0"
         id="stop5364" />
      <stop
         style="stop-color:#ffffff;stop-opacity:0;"
         offset="1"
         id="stop5366" />
    </linearGradient>
    <linearGradient
       id="linearGradient5439">
      <stop
         style="stop-color:#ffffff;stop-opacity:1;"
         offset="0"
         id="stop5441" />
      <stop
         style="stop-color:#000000;stop-opacity:1;"
         offset="1"
         id="stop5443" />
    </linearGradient>
    <linearGradient
       inkscape:collect="always"
       xlink:href="#linearGradient5439"
       id="linearGradient13309"
       gradientUnits="userSpaceOnUse"
       x1="499.90704"
       y1="953.39532"
       x2="652.75177"
       y2="1116.9413"
       gradientTransform="matrix(2.6765239,0,0,2.6765239,-1298.6765,-2514.903)" />
    <linearGradient
       inkscape:collect="always"
       id="linearGradient5398">
      <stop
         style="stop-color:#87c6ff;stop-opacity:1;"
         offset="0"
         id="stop5400" />
      <stop
         style="stop-color:#87c6ff;stop-opacity:0"
         offset="1"
         id="stop5402" />
    </linearGradient>
    <linearGradient
       inkscape:collect="always"
       xlink:href="#linearGradient5398"
       id="linearGradient13322"
       gradientUnits="userSpaceOnUse"
       x1="500.87799"
       y1="948.11993"
       x2="500.87799"
       y2="953.17468"
       gradientTransform="matrix(2.6765239,0,0,2.6765239,-1298.6765,-2514.903)" />
    <linearGradient
       id="linearGradient5344">
      <stop
         style="stop-color:#000000;stop-opacity:1;"
         offset="0"
         id="stop5346" />
      <stop
         style="stop-color:#000000;stop-opacity:0;"
         offset="1"
         id="stop5348" />
    </linearGradient>
    <linearGradient
       inkscape:collect="always"
       xlink:href="#linearGradient5344"
       id="linearGradient13314"
       gradientUnits="userSpaceOnUse"
       x1="544.89001"
       y1="919.05762"
       x2="506.01498"
       y2="969.80762"
       gradientTransform="translate(-485.21014,-859.4386)" />
    <linearGradient
       id="linearGradient8702">
      <stop
         id="stop8704"
         offset="0"
         style="stop-color:#b995da;stop-opacity:1;" />
      <stop
         id="stop8706"
         offset="1"
         style="stop-color:#766287;stop-opacity:1;" />
    </linearGradient>
    <linearGradient
       inkscape:collect="always"
       xlink:href="#linearGradient8702"
       id="linearGradient13316"
       gradientUnits="userSpaceOnUse"
       gradientTransform="matrix(2.6765239,0,0,2.6765239,-1779.5422,-994.63744)"
       x1="700.13062"
       y1="378.86951"
       x2="707.80457"
       y2="395.74899" />
    <inkscape:perspective
       sodipodi:type="inkscape:persp3d"
       inkscape:vp_x="0 : 526.18109 : 1"
       inkscape:vp_y="0 : 1000 : 0"
       inkscape:vp_z="744.09448 : 526.18109 : 1"
       inkscape:persp3d-origin="372.04724 : 350.78739 : 1"
       id="perspective10" />
  </defs>
  <sodipodi:namedview
     id="base"
     pagecolor="#ffffff"
     bordercolor="#666666"
     borderopacity="1.0"
     inkscape:pageopacity="0.0"
     inkscape:pageshadow="2"
     inkscape:zoom="2.5020702"
     inkscape:cx="95.378057"
     inkscape:cy="81.314279"
     inkscape:document-units="px"
     inkscape:current-layer="layer1"
     showgrid="false"
     inkscape:showpageshadow="false"
     inkscape:window-width="1024"
     inkscape:window-height="713"
     inkscape:window-x="0"
     inkscape:window-y="6"
     showguides="true"
     inkscape:guide-bbox="true" />
  <metadata
     id="metadata7">
    <rdf:RDF>
      <cc:Work
         rdf:about="">
        <dc:format>image/svg+xml</dc:format>
        <dc:type
           rdf:resource="http://purl.org/dc/dcmitype/StillImage" />
      </cc:Work>
    </rdf:RDF>
  </metadata>
  <g
     inkscape:label="Capa 1"
     inkscape:groupmode="layer"
     id="layer1">
    <path
       inkscape:export-ydpi="57.964222"
       inkscape:export-xdpi="57.964222"
       inkscape:export-filename="/home/dafeba/DCV/tallerD/bocetos/08-09-22-hastaahora.png"
       style="fill:url(#linearGradient8563);fill-opacity:1;stroke:none;stroke-width:0.1;stroke-linecap:round;stroke-linejoin:round;stroke-miterlimit:4;stroke-opacity:1;display:inline"
       d="M 57.834441,8.1289059 L 72.051949,6.764521 C 73.837832,6.623147 75.623716,6.4646165 77.4096,6.5430922 L 77.284312,114.8519 C 75.094487,114.80067 72.911621,114.6866 70.776799,114.14018 L 57.305613,111.27711 C 55.990825,111.01497 55.488227,110.29426 55.488227,109.28802 L 55.640655,10.227113 C 55.635462,8.5836473 56.716858,8.216562 57.834441,8.1289059 z"
       id="path8502"
       sodipodi:nodetypes="ccccccccc" />
    <path
       inkscape:export-ydpi="57.964222"
       inkscape:export-xdpi="57.964222"
       inkscape:export-filename="/home/dafeba/DCV/tallerD/bocetos/08-09-22-hastaahora.png"
       style="fill:#b3b3b3;fill-opacity:1;stroke:none;stroke-width:0.50767428;stroke-linecap:round;stroke-linejoin:round;stroke-miterlimit:4;stroke-opacity:1;display:inline"
       d="M 41.66109,5.6771029 C 39.950444,5.560567 38.035016,5.8250879 36.391684,6.0116684 C 16.650365,8.2531769 1.1786381,31.543646 1.1786649,61.214974 C 1.1786649,90.886302 17.076922,113.02129 36.726249,114.66181 C 38.389227,114.80064 40.525843,114.84539 42.24658,114.66181 C 61.982063,112.55662 77.961446,87.700222 77.961446,58.705733 C 77.961446,29.829493 61.178088,7.0065323 41.66109,5.6771029 z M 40.991959,40.471914 C 41.468381,40.433077 41.923363,40.437226 42.413863,40.471914 C 49.564865,40.977616 54.960068,50.305168 54.960068,59.876712 C 54.960042,69.512573 49.20407,79.225196 42.664787,80.201565 C 34.877655,81.364221 28.445753,72.489537 28.445753,60.796767 C 28.445753,49.774494 33.845748,41.054406 40.991959,40.471914 z"
       id="path8504" />
    <path
       inkscape:export-ydpi="57.964222"
       inkscape:export-xdpi="57.964222"
       inkscape:export-filename="/home/dafeba/DCV/tallerD/bocetos/08-09-22-hastaahora.png"
       style="fill:#f2f2f2;fill-opacity:1;stroke:none;stroke-width:0.5;stroke-linecap:round;stroke-linejoin:round;stroke-miterlimit:4;stroke-opacity:0.30041151;display:inline"
       d="M 40.741035,6.597158 C 20.040289,6.7016763 3.3533138,30.646073 3.3533405,61.382257 C 3.3533405,92.936252 21.961686,116.96293 43.417559,113.8254 C 61.435463,111.19057 77.2087,84.876275 77.208673,58.873016 C 77.208673,33.043329 62.451632,8.0453448 42.748428,6.6807994 C 42.072686,6.6340137 41.408801,6.5937856 40.741035,6.597158 z M 40.991959,40.471914 C 41.468381,40.433077 41.923363,40.437226 42.413863,40.471914 C 49.564865,40.977616 54.960068,50.305168 54.960068,59.876712 C 54.960042,69.512573 49.20407,79.225196 42.664787,80.201565 C 34.877655,81.364221 28.445753,72.489537 28.445753,60.796767 C 28.445753,49.774494 33.845748,41.054406 40.991959,40.471914 z"
       id="path8506" />
    <path
       inkscape:export-ydpi="57.964222"
       inkscape:export-xdpi="57.964222"
       inkscape:export-filename="/home/dafeba/DCV/tallerD/bocetos/08-09-22-hastaahora.png"
       style="fill:url(#linearGradient8567);fill-opacity:1;stroke:none;stroke-width:0.5;stroke-linecap:round;stroke-linejoin:round;stroke-miterlimit:4;stroke-opacity:0.30041151;display:inline"
       d="M 40.908318,7.9354199 C 20.823494,8.0372884 4.524293,31.399354 4.5243197,61.382257 C 4.5243197,92.162978 22.690423,115.63141 43.5012,112.57078 C 60.977403,110.00054 76.288592,84.322636 76.288618,58.956657 C 76.288618,33.760021 61.942852,9.3500967 42.832069,8.0190613 C 42.176642,7.9733998 41.556224,7.9321278 40.908318,7.9354199 z M 40.991959,40.471914 C 41.468381,40.433077 41.923363,40.437226 42.413863,40.471914 C 49.564865,40.977616 54.960068,50.305168 54.960068,59.876712 C 54.960042,69.512573 49.20407,79.225196 42.664787,80.201565 C 34.877655,81.364221 28.445753,72.489537 28.445753,60.796767 C 28.445753,49.774494 33.845748,41.054406 40.991959,40.471914 z"
       id="path8508" />
    <path
       inkscape:export-ydpi="57.964222"
       inkscape:export-xdpi="57.964222"
       inkscape:export-filename="/home/dafeba/DCV/tallerD/bocetos/08-09-22-hastaahora.png"
       style="fill:#b3b3b3;fill-opacity:1;stroke:none;stroke-width:0.5;stroke-linecap:round;stroke-linejoin:round;stroke-miterlimit:4;stroke-opacity:0.30041151;display:inline"
       d="M 40.991959,40.471914 C 33.845748,41.054406 28.445753,49.774494 28.445753,60.796767 C 28.445753,72.489537 34.877655,81.364221 42.664787,80.201565 C 49.20407,79.225196 54.960042,69.512573 54.960068,59.876712 C 54.960068,50.305168 49.564865,40.977616 42.413863,40.471914 C 41.923363,40.437226 41.468381,40.433077 40.991959,40.471914 z M 41.159242,42.395665 C 41.582374,42.360522 41.978205,42.36427 42.413863,42.395665 C 48.765147,42.853217 53.538165,51.214758 53.538165,59.876712 C 53.538165,68.596988 48.472817,77.477908 42.664787,78.361455 C 35.748595,79.413677 29.951298,71.294763 29.951298,60.713126 C 29.951271,50.738283 34.812214,42.922753 41.159242,42.395665 z"
       id="path8510" />
    <path
       inkscape:export-ydpi="57.964222"
       inkscape:export-xdpi="57.964222"
       inkscape:export-filename="/home/dafeba/DCV/tallerD/bocetos/08-09-22-hastaahora.png"
       style="fill:#ececec;fill-opacity:0.56870231;stroke:none;stroke-width:0.5;stroke-linecap:round;stroke-linejoin:round;stroke-miterlimit:4;stroke-opacity:0.30041151;display:inline"
       d="M 41.159242,42.395665 C 34.812214,42.922753 29.951271,50.738283 29.951298,60.713126 C 29.951298,71.294763 35.748595,79.413677 42.664787,78.361455 C 48.472817,77.477908 53.538165,68.596988 53.538165,59.876712 C 53.538165,51.214758 48.765147,42.853217 42.413863,42.395665 C 41.978205,42.36427 41.582374,42.360522 41.159242,42.395665 z M 41.744732,53.938175 C 44.096406,54.109954 45.843159,57.293304 45.843159,60.545843 C 45.843132,63.820329 43.978933,67.072654 41.828373,67.404436 C 39.267475,67.799598 37.144456,64.770174 37.144456,60.796767 C 37.144456,56.801547 39.163786,53.74956 41.744732,53.938175 z"
       id="path8512" />
    <path
       inkscape:export-ydpi="57.964222"
       inkscape:export-xdpi="57.964222"
       inkscape:export-filename="/home/dafeba/DCV/tallerD/bocetos/08-09-22-hastaahora.png"
       style="fill:#666666;fill-opacity:1;stroke:none;stroke-width:0.5;stroke-linecap:round;stroke-linejoin:round;stroke-miterlimit:4;stroke-opacity:0.30041151;display:inline"
       d="M 42.162939,53.269044 C 40.595084,53.204834 39.264665,54.17395 38.315435,55.694643 C 39.167908,54.566301 40.305029,53.848805 41.577449,53.938175 C 44.024729,54.109954 45.843159,57.293304 45.843159,60.545843 C 45.843132,63.820329 43.899012,67.072654 41.66109,67.404436 C 41.087083,67.489549 40.503467,67.444878 39.988263,67.237153 C 40.687157,67.65453 41.504085,67.873015 42.330221,67.822642 C 44.759167,67.67455 46.846829,63.987719 46.846855,60.462202 C 46.846855,56.960238 44.823243,53.378005 42.162939,53.269044 z"
       id="path8514" />
    <path
       inkscape:export-ydpi="57.964222"
       inkscape:export-xdpi="57.964222"
       inkscape:export-filename="/home/dafeba/DCV/tallerD/bocetos/08-09-22-hastaahora.png"
       style="fill:#000000;fill-opacity:0.15686275;fill-rule:evenodd;stroke:none;stroke-width:1px;stroke-linecap:butt;stroke-linejoin:miter;stroke-opacity:1;display:inline"
       d="M 53.2036,69.077263 C 52.405915,71.223969 51.412416,73.173415 50.19251,74.848518 L 63.742413,98.351743 C 66.938771,93.743706 69.828186,88.927408 71.771984,83.379938 L 53.2036,69.077263 z"
       id="path8516" />
    <path
       inkscape:export-ydpi="57.964222"
       inkscape:export-xdpi="57.964222"
       inkscape:export-filename="/home/dafeba/DCV/tallerD/bocetos/08-09-22-hastaahora.png"
       style="fill:#000000;fill-opacity:0.15686275;fill-rule:evenodd;stroke:none;stroke-width:1px;stroke-linecap:butt;stroke-linejoin:miter;stroke-opacity:1;display:inline"
       d="M 52.450827,70.917373 C 52.090112,71.699989 51.703274,72.462397 51.279848,73.17569 C 51.267402,73.196674 51.292347,73.238428 51.279848,73.259332 L 66.586219,93.91875 C 67.75048,92.199887 68.879733,90.208526 69.764591,88.063854 L 52.450827,70.917373 z"
       id="path8518" />
    <path
       inkscape:export-ydpi="57.964222"
       inkscape:export-xdpi="57.964222"
       inkscape:export-filename="/home/dafeba/DCV/tallerD/bocetos/08-09-22-hastaahora.png"
       style="fill:#000000;fill-opacity:0.15648858;fill-rule:evenodd;stroke:none;stroke-width:1px;stroke-linecap:butt;stroke-linejoin:miter;stroke-opacity:1;display:inline"
       d="M 18.074222,19.896136 C 14.459095,23.795323 11.178346,29.830028 9.0409538,35.620714 L 29.951298,51.345292 C 30.726714,49.046452 31.690557,46.98411 32.962388,45.323113 L 18.074222,19.896136 z"
       id="path8520" />
    <path
       inkscape:export-ydpi="57.964222"
       inkscape:export-xdpi="57.964222"
       inkscape:export-filename="/home/dafeba/DCV/tallerD/bocetos/08-09-22-hastaahora.png"
       style="fill:#ffffff;fill-opacity:0.2643678;fill-rule:evenodd;stroke:none;stroke-width:1px;stroke-linecap:butt;stroke-linejoin:miter;stroke-opacity:1;display:inline"
       d="M 33.12967,75.935855 L 18.241505,101.6974 C 22.036147,106.53061 28.243649,110.70698 33.966084,112.15257 L 38.817284,79.950641 C 36.673763,79.329152 34.746665,77.932141 33.12967,75.935855 z"
       id="path8523" />
    <path
       inkscape:export-ydpi="57.964222"
       inkscape:export-xdpi="57.964222"
       inkscape:export-filename="/home/dafeba/DCV/tallerD/bocetos/08-09-22-hastaahora.png"
       style="fill:#ffffff;fill-opacity:0.2643678;fill-rule:evenodd;stroke:none;stroke-width:1px;stroke-linecap:butt;stroke-linejoin:miter;stroke-opacity:1;display:inline"
       d="M 34.467932,77.4414 L 22.089008,105.71218 C 24.102289,107.49627 26.347518,109.08289 28.696678,110.22882 L 36.893532,79.114228 C 36.034984,78.649904 35.229323,78.154881 34.467932,77.4414 z"
       id="path8525" />
    <path
       inkscape:export-ydpi="57.964222"
       inkscape:export-xdpi="57.964222"
       inkscape:export-filename="/home/dafeba/DCV/tallerD/bocetos/08-09-22-hastaahora.png"
       style="fill:#ffffff;fill-opacity:0.2643678;fill-rule:evenodd;stroke:none;stroke-width:1px;stroke-linecap:butt;stroke-linejoin:miter;stroke-opacity:1;display:inline"
       d="M 52.534469,10.611944 L 45.843159,41.47561 C 47.929429,42.51014 49.728455,44.293321 51.196207,46.577734 L 66.084371,24.078205 C 63.532653,18.261182 56.808877,13.342801 52.534469,10.611944 z"
       id="path8527" />
    <path
       inkscape:export-ydpi="57.964222"
       inkscape:export-xdpi="57.964222"
       inkscape:export-filename="/home/dafeba/DCV/tallerD/bocetos/08-09-22-hastaahora.png"
       style="fill:#000000;fill-opacity:0.15648858;fill-rule:evenodd;stroke:none;stroke-width:1px;stroke-linecap:butt;stroke-linejoin:miter;stroke-opacity:1;display:inline"
       d="M 14.812209,24.245488 C 13.653755,26.179303 12.280297,28.339311 11.299271,30.685873 L 30.620429,49.505182 C 30.990459,48.649497 31.425287,47.834067 31.87505,47.079582 L 14.812209,24.245488 z"
       id="path8529" />
    <path
       inkscape:export-ydpi="57.964222"
       inkscape:export-xdpi="57.964222"
       inkscape:export-filename="/home/dafeba/DCV/tallerD/bocetos/08-09-22-hastaahora.png"
       style="fill:#ffffff;fill-opacity:0.2643678;fill-rule:evenodd;stroke:none;stroke-width:1px;stroke-linecap:butt;stroke-linejoin:miter;stroke-opacity:1;display:inline"
       d="M 57.385668,13.706675 L 47.76691,42.646589 C 48.557449,43.259272 49.256797,43.998261 49.941586,44.821265 L 62.822357,19.394288 C 61.01367,17.067184 59.486873,15.042822 57.385668,13.706675 z"
       id="path8531" />
    <path
       inkscape:export-ydpi="57.964222"
       inkscape:export-xdpi="57.964222"
       inkscape:export-filename="/home/dafeba/DCV/tallerD/bocetos/08-09-22-hastaahora.png"
       style="fill:url(#linearGradient8571);fill-opacity:1;stroke:none;stroke-width:0.5;stroke-linecap:round;stroke-linejoin:round;stroke-miterlimit:4;stroke-opacity:0.30041151;display:inline"
       d="M 76.326812,58.963937 C 76.326812,84.329916 61.004355,109.99936 43.528153,112.5696 C 22.717375,115.63026 4.5291107,92.174299 4.5291107,61.393578 C 4.5291107,30.443514 21.888938,6.5613729 42.862742,8.0222999 C 61.973551,9.353362 76.326812,33.767302 76.326812,58.963937 z"
       id="path8533"
       sodipodi:nodetypes="cszsz" />
    <path
       inkscape:export-ydpi="57.964222"
       inkscape:export-xdpi="57.964222"
       inkscape:export-filename="/home/dafeba/DCV/tallerD/bocetos/08-09-22-hastaahora.png"
       style="fill:url(#linearGradient8591);fill-opacity:1;fill-rule:evenodd;stroke:none;stroke-width:0.1;stroke-linecap:butt;stroke-linejoin:miter;stroke-miterlimit:4;stroke-dasharray:none;stroke-opacity:1;display:inline"
       d="M 77.355802,6.5383815 C 80.585349,6.547107 83.854161,6.673546 87.162586,6.9188494 L 122.47878,9.7799464 C 125.11368,10.322076 126.55799,12.054778 126.96268,14.827121 L 126.96268,100.87482 C 126.73376,103.99535 124.61898,107.74779 121.79627,108.26561 L 86.446963,114.04792 C 81.86363,114.92569 79.032885,114.88369 77.247028,114.85061 L 77.355802,6.5383815 z"
       id="path8535"
       sodipodi:nodetypes="ccccccccc" />
    <path
       inkscape:export-ydpi="57.964222"
       inkscape:export-xdpi="57.964222"
       inkscape:export-filename="/home/dafeba/DCV/tallerD/bocetos/08-09-22-hastaahora.png"
       sodipodi:nodetypes="ccccccccc"
       id="path8537"
       d="M 67.13587,7.2362851 L 72.093381,6.760533 L 77.402641,12.286886 L 77.291753,108.39072 L 71.161255,114.22163 L 65.977792,113.12345 L 67.649816,110.34592 L 67.692132,9.2664018 L 67.13587,7.2362851 z"
       style="fill:url(#linearGradient8595);fill-opacity:1;stroke:none;stroke-width:0.1;stroke-linecap:round;stroke-linejoin:round;stroke-miterlimit:4;stroke-opacity:1;display:inline" />
    <path
       inkscape:export-ydpi="57.964222"
       inkscape:export-xdpi="57.964222"
       inkscape:export-filename="/home/dafeba/DCV/tallerD/bocetos/08-09-22-hastaahora.png"
       style="fill:url(#linearGradient8597);fill-opacity:1;stroke:none;stroke-width:0.1;stroke-linecap:round;stroke-linejoin:round;stroke-miterlimit:4;stroke-opacity:1;display:inline"
       d="M 61.670783,9.8611254 L 67.692962,9.2756358 L 67.692962,110.39805 L 61.670783,109.22708 L 61.670783,9.8611254 z"
       id="path8539"
       sodipodi:nodetypes="ccccc" />
    <path
       sodipodi:nodetypes="cccccccccccccccc"
       id="path8541"
       d="M 57.834441,8.1289059 L 72.051949,6.764521 C 73.837832,6.623147 75.623716,6.4646165 77.4096,6.5430922 L 77.284312,114.8519 C 75.094487,114.80067 72.911621,114.6866 70.776799,114.14018 L 57.305613,111.27711 C 56.128211,111.04235 55.60214,110.43989 55.505035,109.59392 C 57.792901,108.02462 59.799786,106.20946 61.642278,104.25045 L 61.640913,109.28909 L 67.794563,110.3317 L 67.727623,9.326463 L 61.704668,9.9029059 L 61.708094,15.35817 C 59.792827,13.579326 57.801787,11.945549 55.663566,10.501163 L 55.640655,10.227113 C 55.635462,8.5836473 56.716858,8.216562 57.834441,8.1289059 z"
       style="fill:url(#linearGradient8600);fill-opacity:1;stroke:none;stroke-width:0.1;stroke-linecap:round;stroke-linejoin:round;stroke-miterlimit:4;stroke-opacity:1;display:inline"
       inkscape:export-filename="/home/dafeba/DCV/tallerD/bocetos/08-09-22-hastaahora.png"
       inkscape:export-xdpi="57.964222"
       inkscape:export-ydpi="57.964222" />
    <path
       inkscape:export-ydpi="57.964222"
       inkscape:export-xdpi="57.964222"
       inkscape:export-filename="/home/dafeba/DCV/tallerD/bocetos/08-09-22-hastaahora.png"
       style="fill:#ffffff;fill-opacity:0.2643678;fill-rule:evenodd;stroke:none;stroke-width:1px;stroke-linecap:butt;stroke-linejoin:miter;stroke-opacity:1;display:inline"
       d="M 57.385668,13.706675 L 47.76691,42.646589 C 48.557449,43.259272 49.256797,43.998261 49.941586,44.821265 L 62.822357,19.394288 C 61.01367,17.067184 59.486873,15.042822 57.385668,13.706675 z"
       id="path8545" />
    <path
       inkscape:export-ydpi="57.964222"
       inkscape:export-xdpi="57.964222"
       inkscape:export-filename="/home/dafeba/DCV/tallerD/bocetos/08-09-22-hastaahora.png"
       style="fill:none;fill-opacity:1;stroke:url(#linearGradient9875);stroke-width:2.67652392;stroke-linecap:round;stroke-linejoin:round;stroke-miterlimit:4;stroke-dasharray:none;stroke-opacity:1;display:inline"
       d="M 39.527804,5.5927067 C 18.307422,5.7080596 1.3953295,30.000919 1.3953295,61.172417 C 1.3953295,93.173446 20.166182,117.34371 42.202318,114.99308 C 46.863803,114.49584 51.329275,112.57313 55.40772,109.77649 C 55.497718,110.6428 56.053934,110.99816 57.246446,111.23594 L 70.702584,114.07761 C 72.835803,114.62359 75.033556,114.69497 77.221708,114.74623 C 79.006222,114.77928 81.166853,114.91295 85.746715,114.03583 L 121.55399,108.23979 C 124.80781,107.70574 126.58029,104.72688 126.57458,101.2065 L 126.43479,14.704654 C 126.40885,11.470739 123.97897,9.8420953 121.26524,9.6096017 L 87.083971,6.9299623 C 83.80649,6.6869554 80.588839,6.5227694 77.388865,6.5120713 C 77.361077,6.511991 77.333076,6.5121516 77.305288,6.5120713 C 75.548613,6.4421043 73.712935,6.6238108 71.956263,6.7628054 L 57.831497,8.100061 C 56.714755,8.1876529 55.569743,8.3107757 55.574877,9.9529515 C 50.367044,6.9380026 45.132761,5.5845621 39.527804,5.5927067 z"
       id="path9873"
       sodipodi:nodetypes="csscccsccscccsscccc" />
  </g>
</svg>
