<?xml version="1.0" encoding="UTF-8" standalone="no"?>
<!-- Created with Inkscape (http://www.inkscape.org/) -->
<svg
   xmlns:dc="http://purl.org/dc/elements/1.1/"
   xmlns:cc="http://creativecommons.org/ns#"
   xmlns:rdf="http://www.w3.org/1999/02/22-rdf-syntax-ns#"
   xmlns:svg="http://www.w3.org/2000/svg"
   xmlns="http://www.w3.org/2000/svg"
   xmlns:xlink="http://www.w3.org/1999/xlink"
   xmlns:sodipodi="http://sodipodi.sourceforge.net/DTD/sodipodi-0.dtd"
   xmlns:inkscape="http://www.inkscape.org/namespaces/inkscape"
   width="128"
   height="128"
   id="svg2"
   sodipodi:version="0.32"
   inkscape:version="0.46"
   version="1.0"
   sodipodi:docname="gnome-mime-application-x-object.svg"
   inkscape:output_extension="org.inkscape.output.svg.inkscape">
  <defs
     id="defs4">
    <linearGradient
       y2="641.10242"
       x2="504.48212"
       y1="635.44617"
       x1="504.91962"
       gradientTransform="matrix(2.6765239,0,0,2.6765239,-1298.6209,-1689.8172)"
       gradientUnits="userSpaceOnUse"
       id="linearGradient10395"
       xlink:href="#linearGradient5362"
       inkscape:collect="always" />
    <linearGradient
       y2="667.20789"
       x2="511.42725"
       y1="723.67017"
       x1="519.31262"
       gradientTransform="matrix(2.6765239,0,0,2.6765239,-1298.6209,-1689.8172)"
       gradientUnits="userSpaceOnUse"
       id="linearGradient10397"
       xlink:href="#linearGradient5344"
       inkscape:collect="always" />
    <linearGradient
       y2="410.98141"
       x2="927.93488"
       y1="459.10907"
       x1="927.93488"
       gradientTransform="matrix(2.6765239,0,0,2.6765239,-2422.7609,-1101.1492)"
       gradientUnits="userSpaceOnUse"
       id="linearGradient11192"
       xlink:href="#linearGradient9863"
       inkscape:collect="always" />
    <linearGradient
       gradientUnits="userSpaceOnUse"
       y2="501.21667"
       x2="501.15973"
       y1="453.29626"
       x1="555.38788"
       id="linearGradient11187"
       xlink:href="#linearGradient5344"
       inkscape:collect="always"
       gradientTransform="matrix(2.6765239,0,0,2.6765239,-1298.6209,-1261.5733)" />
    <linearGradient
       y2="1041.7268"
       x2="632.45203"
       y1="929.74353"
       x1="482.47244"
       gradientTransform="matrix(2.6765239,0,0,2.6765239,-1298.6766,-2514.4034)"
       gradientUnits="userSpaceOnUse"
       id="linearGradient6642"
       xlink:href="#linearGradient5439"
       inkscape:collect="always" />
    <linearGradient
       y2="974.72845"
       x2="481.26718"
       y1="926.28644"
       x1="503.1875"
       gradientTransform="matrix(2.6765239,0,0,2.6765239,-1298.6766,-2514.4034)"
       gradientUnits="userSpaceOnUse"
       id="linearGradient6644"
       xlink:href="#linearGradient5362"
       inkscape:collect="always" />
    <linearGradient
       y2="932.17682"
       x2="479.43231"
       y1="990.51312"
       x1="512.6452"
       gradientTransform="matrix(2.6765239,0,0,2.6765239,-1298.6766,-2508.3812)"
       gradientUnits="userSpaceOnUse"
       id="linearGradient6678"
       xlink:href="#linearGradient5344"
       inkscape:collect="always" />
    <linearGradient
       y2="431.66223"
       x2="691.25696"
       y1="478.72107"
       x1="691.25696"
       gradientTransform="matrix(2.660984,0,0,2.6609781,-1769.6339,-1147.5459)"
       gradientUnits="userSpaceOnUse"
       id="linearGradient11137"
       xlink:href="#linearGradient9863"
       inkscape:collect="always" />
    <linearGradient
       id="linearGradient12578">
      <stop
         id="stop12580"
         offset="0"
         style="stop-color:#e9b551;stop-opacity:1;" />
      <stop
         id="stop12582"
         offset="1"
         style="stop-color:#b48739;stop-opacity:1;" />
    </linearGradient>
    <linearGradient
       gradientTransform="matrix(2.6943474,0,0,2.6943474,-683.16883,-1430.2664)"
       gradientUnits="userSpaceOnUse"
       y2="483.33371"
       x2="313.54166"
       y1="553.00134"
       x1="282.71295"
       id="linearGradient20981"
       xlink:href="#linearGradient5439"
       inkscape:collect="always" />
    <linearGradient
       id="linearGradient12594">
      <stop
         id="stop12596"
         offset="0"
         style="stop-color:#e9b551;stop-opacity:1;" />
      <stop
         id="stop12598"
         offset="1"
         style="stop-color:#e9b551;stop-opacity:0;" />
    </linearGradient>
    <linearGradient
       id="linearGradient5316">
      <stop
         style="stop-color:#87c7ff;stop-opacity:1;"
         offset="0"
         id="stop5320" />
      <stop
         style="stop-color:#74aadb;stop-opacity:1;"
         offset="1"
         id="stop5322" />
    </linearGradient>
    <linearGradient
       id="linearGradient9863">
      <stop
         style="stop-color:#2f445a;stop-opacity:1;"
         offset="0"
         id="stop9865" />
      <stop
         style="stop-color:#415f7c;stop-opacity:1"
         offset="1"
         id="stop9867" />
    </linearGradient>
    <linearGradient
       id="linearGradient12336">
      <stop
         id="stop12338"
         offset="0"
         style="stop-color:#ff6e00;stop-opacity:1;" />
      <stop
         id="stop12340"
         offset="1"
         style="stop-color:#eb2600;stop-opacity:1;" />
    </linearGradient>
    <linearGradient
       id="linearGradient5362">
      <stop
         style="stop-color:#ffffff;stop-opacity:1;"
         offset="0"
         id="stop5364" />
      <stop
         style="stop-color:#ffffff;stop-opacity:0;"
         offset="1"
         id="stop5366" />
    </linearGradient>
    <linearGradient
       id="linearGradient5439">
      <stop
         style="stop-color:#ffffff;stop-opacity:1;"
         offset="0"
         id="stop5441" />
      <stop
         style="stop-color:#000000;stop-opacity:1;"
         offset="1"
         id="stop5443" />
    </linearGradient>
    <linearGradient
       inkscape:collect="always"
       xlink:href="#linearGradient5439"
       id="linearGradient13309"
       gradientUnits="userSpaceOnUse"
       x1="499.90704"
       y1="953.39532"
       x2="652.75177"
       y2="1116.9413"
       gradientTransform="matrix(2.6765239,0,0,2.6765239,-1298.6765,-2514.903)" />
    <linearGradient
       inkscape:collect="always"
       id="linearGradient5398">
      <stop
         style="stop-color:#87c6ff;stop-opacity:1;"
         offset="0"
         id="stop5400" />
      <stop
         style="stop-color:#87c6ff;stop-opacity:0"
         offset="1"
         id="stop5402" />
    </linearGradient>
    <linearGradient
       inkscape:collect="always"
       xlink:href="#linearGradient5398"
       id="linearGradient13322"
       gradientUnits="userSpaceOnUse"
       x1="500.87799"
       y1="948.11993"
       x2="500.87799"
       y2="953.17468"
       gradientTransform="matrix(2.6765239,0,0,2.6765239,-1298.6765,-2514.903)" />
    <linearGradient
       id="linearGradient5344">
      <stop
         style="stop-color:#000000;stop-opacity:1;"
         offset="0"
         id="stop5346" />
      <stop
         style="stop-color:#000000;stop-opacity:0;"
         offset="1"
         id="stop5348" />
    </linearGradient>
    <linearGradient
       inkscape:collect="always"
       xlink:href="#linearGradient5344"
       id="linearGradient13314"
       gradientUnits="userSpaceOnUse"
       x1="544.89001"
       y1="919.05762"
       x2="506.01498"
       y2="969.80762"
       gradientTransform="translate(-485.21014,-859.4386)" />
    <linearGradient
       id="linearGradient8702">
      <stop
         id="stop8704"
         offset="0"
         style="stop-color:#aac736;stop-opacity:1;" />
      <stop
         id="stop8706"
         offset="1"
         style="stop-color:#5d8b2c;stop-opacity:1;" />
    </linearGradient>
    <linearGradient
       inkscape:collect="always"
       xlink:href="#linearGradient8702"
       id="linearGradient13316"
       gradientUnits="userSpaceOnUse"
       gradientTransform="matrix(2.6765239,0,0,2.6765239,-1779.5422,-994.63744)"
       x1="700.13062"
       y1="378.86951"
       x2="707.80457"
       y2="395.74899" />
    <inkscape:perspective
       sodipodi:type="inkscape:persp3d"
       inkscape:vp_x="0 : 526.18109 : 1"
       inkscape:vp_y="0 : 1000 : 0"
       inkscape:vp_z="744.09448 : 526.18109 : 1"
       inkscape:persp3d-origin="372.04724 : 350.78739 : 1"
       id="perspective10" />
    <linearGradient
       inkscape:collect="always"
       xlink:href="#linearGradient5344"
       id="linearGradient11982"
       gradientUnits="userSpaceOnUse"
       gradientTransform="translate(58.38756,-239.79289)"
       x1="493.9072"
       y1="282.77054"
       x2="435.71548"
       y2="231.20738" />
    <linearGradient
       inkscape:collect="always"
       xlink:href="#linearGradient5316"
       id="linearGradient11987"
       gradientUnits="userSpaceOnUse"
       gradientTransform="matrix(0,-6.4509326,6.4649818,0,-726.43747,2464.539)"
       x1="380.45135"
       y1="123.74059"
       x2="373.96744"
       y2="128.94151" />
    <linearGradient
       inkscape:collect="always"
       xlink:href="#linearGradient9863"
       id="linearGradient11991"
       gradientUnits="userSpaceOnUse"
       gradientTransform="matrix(2.6724743,0,0,2.6666667,-1136.3076,-136.45573)"
       x1="448.61356"
       y1="98.163681"
       x2="448.61356"
       y2="51.040291" />
    <linearGradient
       inkscape:collect="always"
       xlink:href="#linearGradient5439"
       id="linearGradient11994"
       gradientUnits="userSpaceOnUse"
       gradientTransform="matrix(2.5929476,0,0,2.5467438,-1253.6197,-1603.2437)"
       x1="485.01462"
       y1="633.39752"
       x2="594.81787"
       y2="707.73212" />
    <linearGradient
       inkscape:collect="always"
       xlink:href="#linearGradient5439"
       id="linearGradient11997"
       gradientUnits="userSpaceOnUse"
       gradientTransform="matrix(2.7004997,0,0,2.6523792,-1308.1375,-1672.2418)"
       x1="511.00421"
       y1="661.83636"
       x2="484.41125"
       y2="630.4527" />
    <linearGradient
       inkscape:collect="always"
       xlink:href="#linearGradient5439"
       id="linearGradient12000"
       gradientUnits="userSpaceOnUse"
       gradientTransform="matrix(2.6724743,0,0,2.6666667,-1296.1836,-1683.3724)"
       x1="513.53632"
       y1="643.15497"
       x2="572.04932"
       y2="698.16571" />
    <linearGradient
       inkscape:collect="always"
       xlink:href="#linearGradient5439"
       id="linearGradient12003"
       gradientUnits="userSpaceOnUse"
       gradientTransform="matrix(2.4555546,0,0,2.4508294,-1182.6426,-1541.5864)"
       x1="482.04404"
       y1="629.51166"
       x2="600.66217"
       y2="711.91254" />
    <linearGradient
       inkscape:collect="always"
       xlink:href="#linearGradient5439"
       id="linearGradient12006"
       gradientUnits="userSpaceOnUse"
       gradientTransform="matrix(2.4316245,0,0,2.4263403,-1173.0757,-1524.0986)"
       x1="484.04169"
       y1="629.66498"
       x2="598.57666"
       y2="708.88654" />
    <linearGradient
       inkscape:collect="always"
       xlink:href="#linearGradient5439"
       id="linearGradient12009"
       gradientUnits="userSpaceOnUse"
       gradientTransform="matrix(2.6724743,0,0,2.6666667,-1296.656,-1683.1224)"
       x1="494.96805"
       y1="639.71228"
       x2="531.75"
       y2="670.73663" />
    <linearGradient
       inkscape:collect="always"
       xlink:href="#linearGradient5439"
       id="linearGradient12012"
       gradientUnits="userSpaceOnUse"
       gradientTransform="matrix(2.6724743,0,0,2.6666667,-1296.656,-1683.1224)"
       x1="495.35397"
       y1="640.05084"
       x2="531.08636"
       y2="670.77136" />
    <linearGradient
       inkscape:collect="always"
       xlink:href="#linearGradient5439"
       id="linearGradient12015"
       gradientUnits="userSpaceOnUse"
       gradientTransform="matrix(2.6724743,0,0,2.6666667,-1296.656,-1683.1224)"
       x1="485.65756"
       y1="629.86298"
       x2="594.2511"
       y2="706.58405" />
    <linearGradient
       inkscape:collect="always"
       xlink:href="#linearGradient5362"
       id="linearGradient12018"
       gradientUnits="userSpaceOnUse"
       gradientTransform="matrix(2.6724743,0,0,2.6666667,-1296.656,-1683.1224)"
       x1="491.02121"
       y1="633.16431"
       x2="485.68814"
       y2="640.88721" />
    <linearGradient
       inkscape:collect="always"
       xlink:href="#linearGradient5439"
       id="linearGradient12021"
       gradientUnits="userSpaceOnUse"
       gradientTransform="matrix(2.6724743,0,0,2.6666667,-1296.656,-1683.1224)"
       x1="490.27121"
       y1="632.72681"
       x2="449.2301"
       y2="708.07471" />
  </defs>
  <sodipodi:namedview
     id="base"
     pagecolor="#ffffff"
     bordercolor="#666666"
     borderopacity="1.0"
     inkscape:pageopacity="0.0"
     inkscape:pageshadow="2"
     inkscape:zoom="2.5020702"
     inkscape:cx="88.564355"
     inkscape:cy="71.511062"
     inkscape:document-units="px"
     inkscape:current-layer="layer1"
     showgrid="false"
     inkscape:showpageshadow="false"
     inkscape:window-width="1014"
     inkscape:window-height="715"
     inkscape:window-x="0"
     inkscape:window-y="6"
     showguides="true"
     inkscape:guide-bbox="true" />
  <metadata
     id="metadata7">
    <rdf:RDF>
      <cc:Work
         rdf:about="">
        <dc:format>image/svg+xml</dc:format>
        <dc:type
           rdf:resource="http://purl.org/dc/dcmitype/StillImage" />
      </cc:Work>
    </rdf:RDF>
  </metadata>
  <g
     inkscape:label="Capa 1"
     inkscape:groupmode="layer"
     id="layer1">
    <path
       sodipodi:nodetypes="ccccccccc"
       id="path10387"
       d="M 0.79406054,5.0300292 C 10.435703,5.9564276 14.517643,17.135866 14.510443,25.471338 L 14.38577,101.75387 C 14.468555,111.11539 19.353372,120.42249 31.995558,127.21075 L 120.07669,112.17917 C 109.64427,110.25545 102.18552,99.918955 102.26999,91.515874 L 102.47999,28.451942 C 102.57147,20.324249 97.23874,12.146505 87.336886,11.268632 L 0.79406054,5.0300292 z"
       style="fill:#f2f2f2;fill-rule:evenodd;stroke:none;stroke-width:0.5;stroke-linecap:round;stroke-linejoin:round;stroke-miterlimit:4;stroke-dasharray:none;stroke-opacity:1;display:inline"
       inkscape:export-filename="/home/dafeba/DCV/tallerD/bocetos/08-09-22-hastaahora.png"
       inkscape:export-xdpi="57.964222"
       inkscape:export-ydpi="57.964222" />
    <path
       style="fill:url(#linearGradient10395);fill-rule:evenodd;stroke:none;stroke-width:0.5;stroke-linecap:round;stroke-linejoin:round;stroke-miterlimit:4;stroke-dasharray:none;stroke-opacity:1;display:inline"
       d="M 0.79406054,5.0300292 C 10.435703,5.9564276 14.517643,17.135866 14.510443,25.471338 L 102.47999,28.451942 C 102.57147,20.324249 97.23874,12.146505 87.336886,11.268632 L 0.79406054,5.0300292 z"
       id="path10389"
       sodipodi:nodetypes="ccccc"
       inkscape:export-filename="/home/dafeba/DCV/tallerD/bocetos/08-09-22-hastaahora.png"
       inkscape:export-xdpi="57.964222"
       inkscape:export-ydpi="57.964222" />
    <path
       style="fill:url(#linearGradient10397);fill-rule:evenodd;stroke:none;stroke-width:0.5;stroke-linecap:round;stroke-linejoin:round;stroke-miterlimit:4;stroke-dasharray:none;stroke-opacity:1;display:inline"
       d="M 14.38577,101.75387 C 14.468555,111.11539 19.353372,120.42249 31.995558,127.21075 L 120.07669,112.17917 C 109.64427,110.25545 102.18552,99.918955 102.26999,91.515874 L 14.38577,101.75387 z"
       id="path10391"
       sodipodi:nodetypes="ccccc"
       inkscape:export-filename="/home/dafeba/DCV/tallerD/bocetos/08-09-22-hastaahora.png"
       inkscape:export-xdpi="57.964222"
       inkscape:export-ydpi="57.964222" />
    <path
       inkscape:export-ydpi="57.964222"
       inkscape:export-xdpi="57.964222"
       inkscape:export-filename="/home/dafeba/DCV/tallerD/bocetos/08-09-22-hastaahora.png"
       style="fill:none;fill-rule:evenodd;stroke:url(#linearGradient11192);stroke-width:2.67652392;stroke-linecap:round;stroke-linejoin:round;stroke-miterlimit:4;stroke-dasharray:none;stroke-opacity:1;display:inline"
       d="M 1.6812212,4.9514732 C 4.9184502,5.262512 6.6417836,6.6406809 8.681161,8.7676877 C 12.715807,12.975665 14.515234,19.767264 14.510443,25.304055 L 14.38577,101.58659 C 14.459535,109.9268 18.344697,118.22384 28.131059,124.73502 C 30.580506,126.35091 33.837889,126.35091 37.281666,125.97807 L 120.07669,112.01189 C 109.64427,110.08817 102.18552,99.751672 102.26999,91.348592 L 102.47999,28.284659 C 102.57147,20.156966 97.23874,11.979222 87.336886,11.101349 L 9.8672091,5.5168086 L 1.6812212,4.9514732 z"
       id="path11190"
       sodipodi:nodetypes="cscccccccccc" />
    <path
       style="fill:url(#linearGradient11187);fill-opacity:1;display:inline"
       d="M 71.746782,8.7532077 L 41.885046,39.339774 C 30.578178,50.646615 49.205526,49.704398 55.946164,53.980705 C 59.062816,56.010152 45.943914,58.619415 48.625684,61.301185 C 51.234973,63.982955 64.353822,66.447257 66.963111,69.056547 C 69.572374,71.73829 61.672078,74.56502 64.281368,77.246763 C 66.818151,79.928533 72.906466,77.391724 73.99367,83.480066 C 74.790953,87.973816 85.155573,85.726928 89.794283,81.8855 C 92.693494,79.421171 84.793171,79.421171 87.402461,76.739401 C 93.925658,70.143724 99.724053,73.767737 102.11587,67.679422 C 103.42052,64.41781 92.258612,62.098468 95.230303,59.99654 C 102.33334,54.995428 128.42613,52.458648 116.39443,40.426951 L 85.445494,8.7532077 C 81.604066,5.1292211 75.298315,5.1292211 71.746782,8.7532077 z M 64.571262,55.647751 C 65.223585,55.647751 86.895099,58.546935 78.559927,60.793823 C 75.370795,61.663586 60.729835,55.647751 64.571262,55.647751 z M 106.02981,67.679422 C 106.02981,69.201507 117.84404,70.071244 117.19172,67.31702 C 116.24947,62.67831 107.33445,63.040711 106.02981,67.679422 z M 55.656243,75.724705 C 58.338013,78.044046 62.396881,75.217343 63.701499,71.955731 C 61.092236,68.549185 51.452388,72.173171 55.656243,75.724705 z M 104.5802,70.868527 C 101.24614,73.912698 105.16005,77.10183 108.42163,74.999902 C 109.29139,74.42006 108.34918,71.593329 104.5802,70.868527 z"
       id="path10409" />
    <path
       style="display:inline"
       id="path10406"
       d="M 77.661124,4.7314629 L 47.799387,35.318029 C 36.492519,46.62487 55.119868,45.682653 61.860506,49.958962 C 64.977157,51.98841 51.858256,54.59767 54.540025,57.27944 C 57.149315,59.96121 70.268163,62.425512 72.877453,65.034802 C 75.486716,67.716545 67.58642,70.543275 70.19571,73.225019 C 72.732492,75.906788 78.820808,73.369979 79.908007,79.458322 C 80.70529,83.952071 91.069914,81.705183 95.708625,77.863756 C 98.607835,75.399427 90.707513,75.399427 93.316803,72.717657 C 99.84,66.121979 105.63839,69.745992 108.03022,63.657677 C 109.33486,60.396065 98.172954,58.076723 101.14464,55.974795 C 108.24768,50.973686 134.34047,48.436904 122.30878,36.405206 L 91.359835,4.7314629 C 87.518408,1.1074763 81.212651,1.1074763 77.661124,4.7314629 z M 70.485604,51.626009 C 71.137926,51.626009 92.809441,54.52519 84.474264,56.772078 C 81.285132,57.641841 66.644177,51.626009 70.485604,51.626009 z M 111.94415,63.657677 C 111.94415,65.179762 123.75838,66.049499 123.10606,63.295275 C 122.16382,58.656565 113.2488,59.018966 111.94415,63.657677 z M 61.570585,71.70296 C 64.252355,74.022301 68.311223,71.195598 69.615841,67.933986 C 67.006578,64.52744 57.366729,68.151427 61.570585,71.70296 z M 110.49455,66.846782 C 107.16048,69.890953 111.07439,73.080085 114.33597,70.978157 C 115.20574,70.398315 114.26352,67.571584 110.49455,66.846782 z" />
    <path
       d="M 89.547855,6.9058709 L 101.36206,18.937542 C 102.44929,20.024746 102.44929,22.271634 101.79697,22.92393 L 95.926092,18.140259 L 94.766408,25.170818 L 89.91023,22.561555 L 82.009908,27.562667 L 79.400645,17.053055 L 75.196821,26.185542 L 64.687209,26.113062 C 62.657789,26.113062 62.94771,24.011134 65.049638,21.909233 C 69.180986,17.342976 77.226269,9.5876408 79.763046,6.9058709 C 82.372336,4.224101 86.938566,4.2965813 89.547855,6.9058709 z"
       style="opacity:1;fill:#ffffff;display:inline"
       class="full-specularity"
       id="path5803" />
  </g>
</svg>
