<?xml version="1.0" encoding="UTF-8" standalone="no"?>
<!-- Created with Inkscape (http://www.inkscape.org/) -->

<svg
   xmlns:dc="http://purl.org/dc/elements/1.1/"
   xmlns:cc="http://creativecommons.org/ns#"
   xmlns:rdf="http://www.w3.org/1999/02/22-rdf-syntax-ns#"
   xmlns:svg="http://www.w3.org/2000/svg"
   xmlns="http://www.w3.org/2000/svg"
   xmlns:xlink="http://www.w3.org/1999/xlink"
   xmlns:sodipodi="http://sodipodi.sourceforge.net/DTD/sodipodi-0.dtd"
   xmlns:inkscape="http://www.inkscape.org/namespaces/inkscape"
   width="128"
   height="128"
   id="svg2"
   sodipodi:version="0.32"
   inkscape:version="0.48.3.1 r9886"
   version="1.0"
   sodipodi:docname="text-x-java.svg"
   inkscape:output_extension="org.inkscape.output.svg.inkscape">
  <defs
     id="defs4">
    <linearGradient
       inkscape:collect="always"
       xlink:href="#linearGradient5362"
       id="linearGradient16345"
       gradientUnits="userSpaceOnUse"
       gradientTransform="matrix(2.6666667,0,0,2.6666667,-1293.8383,-1683.1224)"
       x1="504.91962"
       y1="635.44617"
       x2="504.48212"
       y2="641.10242" />
    <linearGradient
       inkscape:collect="always"
       xlink:href="#linearGradient5344"
       id="linearGradient16347"
       gradientUnits="userSpaceOnUse"
       gradientTransform="matrix(2.6666667,0,0,2.6666667,-1293.8383,-1683.1224)"
       x1="519.31262"
       y1="723.67017"
       x2="511.42725"
       y2="667.20789" />
    <linearGradient
       inkscape:collect="always"
       xlink:href="#linearGradient9863"
       id="linearGradient16349"
       gradientUnits="userSpaceOnUse"
       gradientTransform="matrix(2.6666667,0,0,2.6666667,-2413.8383,-1096.6224)"
       x1="927.93488"
       y1="459.10907"
       x2="927.93488"
       y2="410.98141" />
    <linearGradient
       id="linearGradient9863">
      <stop
         style="stop-color:#2f445a;stop-opacity:1;"
         offset="0"
         id="stop9865" />
      <stop
         style="stop-color:#415f7c;stop-opacity:1"
         offset="1"
         id="stop9867" />
    </linearGradient>
    <linearGradient
       id="linearGradient5362">
      <stop
         style="stop-color:#ffffff;stop-opacity:1;"
         offset="0"
         id="stop5364" />
      <stop
         style="stop-color:#ffffff;stop-opacity:0;"
         offset="1"
         id="stop5366" />
    </linearGradient>
    <linearGradient
       id="linearGradient5344">
      <stop
         style="stop-color:#000000;stop-opacity:1;"
         offset="0"
         id="stop5346" />
      <stop
         style="stop-color:#000000;stop-opacity:0;"
         offset="1"
         id="stop5348" />
    </linearGradient>
    <linearGradient
       id="linearGradient5344-6">
      <stop
         style="stop-color:#000000;stop-opacity:1;"
         offset="0"
         id="stop5346-8" />
      <stop
         style="stop-color:#000000;stop-opacity:0;"
         offset="1"
         id="stop5348-3" />
    </linearGradient>
    <linearGradient
       y2="572.7771"
       x2="434.51016"
       y1="486.7771"
       x1="495.94766"
       gradientTransform="matrix(2.6666667,0,0,2.6666667,-1133.7756,-1417.9965)"
       gradientUnits="userSpaceOnUse"
       id="linearGradient3107"
       xlink:href="#linearGradient5344-6"
       inkscape:collect="always" />
  </defs>
  <sodipodi:namedview
     id="base"
     pagecolor="#ffffff"
     bordercolor="#666666"
     borderopacity="1.0"
     inkscape:pageopacity="0.0"
     inkscape:pageshadow="2"
     inkscape:zoom="2.5020702"
     inkscape:cx="36.715824"
     inkscape:cy="66.874735"
     inkscape:document-units="px"
     inkscape:current-layer="layer1"
     showgrid="false"
     inkscape:showpageshadow="false"
     inkscape:window-width="1366"
     inkscape:window-height="717"
     inkscape:window-x="0"
     inkscape:window-y="0"
     showguides="true"
     inkscape:guide-bbox="true"
     inkscape:window-maximized="1" />
  <metadata
     id="metadata7">
    <rdf:RDF>
      <cc:Work
         rdf:about="">
        <dc:format>image/svg+xml</dc:format>
        <dc:type
           rdf:resource="http://purl.org/dc/dcmitype/StillImage" />
        <dc:title />
      </cc:Work>
    </rdf:RDF>
  </metadata>
  <g
     inkscape:label="Capa 1"
     inkscape:groupmode="layer"
     id="layer1">
    <path
       sodipodi:nodetypes="ccccccccc"
       id="path16325"
       d="M 0.79114262,5.4829152 C 10.397277,6.4059022 14.464183,17.544168 14.45701,25.848942 L 14.332797,101.85054 C 14.415277,111.17758 19.282103,120.45041 31.87773,127.21368 L 119.63448,112.23745 C 109.24048,110.32081 101.8092,100.02238 101.89336,91.650248 L 102.10259,28.818568 C 102.19373,20.720808 96.880636,12.573182 87.015246,11.698542 L 0.79114262,5.4829152 z"
       style="fill:#f2f2f2;fill-rule:evenodd;stroke:none;stroke-width:0.5;stroke-linecap:round;stroke-linejoin:round;stroke-miterlimit:4;stroke-dasharray:none;stroke-opacity:1;display:inline"
       inkscape:export-filename="/home/dafeba/DCV/tallerD/bocetos/08-09-22-hastaahora.png"
       inkscape:export-xdpi="57.964222"
       inkscape:export-ydpi="57.964222" />
    <path
       style="fill:url(#linearGradient16345);fill-rule:evenodd;stroke:none;stroke-width:0.5;stroke-linecap:round;stroke-linejoin:round;stroke-miterlimit:4;stroke-dasharray:none;stroke-opacity:1;display:inline"
       d="M 0.79114262,5.4829152 C 10.397277,6.4059022 14.464183,17.544168 14.45701,25.848942 L 102.10259,28.818568 C 102.19373,20.720808 96.880636,12.573182 87.015246,11.698542 L 0.79114262,5.4829152 z"
       id="path16327"
       sodipodi:nodetypes="ccccc"
       inkscape:export-filename="/home/dafeba/DCV/tallerD/bocetos/08-09-22-hastaahora.png"
       inkscape:export-xdpi="57.964222"
       inkscape:export-ydpi="57.964222" />
    <path
       style="fill:url(#linearGradient16347);fill-rule:evenodd;stroke:none;stroke-width:0.5;stroke-linecap:round;stroke-linejoin:round;stroke-miterlimit:4;stroke-dasharray:none;stroke-opacity:1;display:inline"
       d="M 14.332797,101.85054 C 14.415277,111.17758 19.282103,120.45041 31.87773,127.21368 L 119.63448,112.23745 C 109.24048,110.32081 101.8092,100.02238 101.89336,91.650248 L 14.332797,101.85054 z"
       id="path16329"
       sodipodi:nodetypes="ccccc"
       inkscape:export-filename="/home/dafeba/DCV/tallerD/bocetos/08-09-22-hastaahora.png"
       inkscape:export-xdpi="57.964222"
       inkscape:export-ydpi="57.964222" />
    <path
       inkscape:export-ydpi="57.964222"
       inkscape:export-xdpi="57.964222"
       inkscape:export-filename="/home/dafeba/DCV/tallerD/bocetos/08-09-22-hastaahora.png"
       style="fill:none;fill-rule:evenodd;stroke:url(#linearGradient16349);stroke-width:2.66666675;stroke-linecap:round;stroke-linejoin:round;stroke-miterlimit:4;stroke-dasharray:none;stroke-opacity:1;display:inline"
       d="M 1.6750366,5.4046482 C 4.9003426,5.7145422 6.6173296,7.0876352 8.6491966,9.2068082 C 12.668983,13.399288 14.461783,20.165875 14.45701,25.682275 L 14.332797,101.68388 C 14.40629,109.99337 18.277143,118.25985 28.027463,124.74705 C 30.46789,126.357 33.713277,126.357 37.14437,125.98553 L 119.63448,112.07078 C 109.24048,110.15414 101.8092,99.855715 101.89336,91.483582 L 102.10259,28.651902 C 102.19373,20.554142 96.880636,12.406515 87.015246,11.531875 L 9.8308766,5.9679022 L 1.6750366,5.4046482 z"
       id="path16331"
       sodipodi:nodetypes="cscccccccccc" />
    <rect
       style="fill:url(#linearGradient3107);fill-opacity:1;stroke:none;display:inline"
       id="rect28644"
       width="78.166664"
       height="78.166664"
       x="41.418297"
       y="7.6591678"
       rx="4.7293906"
       ry="4.7293906"
       inkscape:export-filename="/home/dafeba/DCV/tallerD/bocetos/08-09-22-hastaahora.png"
       inkscape:export-xdpi="57.964222"
       inkscape:export-ydpi="57.964222" />
    <rect
       style="fill:#ff6600;fill-opacity:1;stroke:#000000;stroke-width:1.60000002;stroke-miterlimit:4;stroke-dasharray:none;display:inline"
       id="rect28646"
       width="74.666664"
       height="74.666664"
       x="49.724121"
       y="4.1081433"
       rx="4.5176268"
       ry="4.5176268"
       inkscape:export-filename="/home/dafeba/DCV/tallerD/bocetos/08-09-22-hastaahora.png"
       inkscape:export-xdpi="57.964222"
       inkscape:export-ydpi="57.964222" />
    <path
       style="fill:#ffffff;fill-opacity:1;fill-rule:evenodd;stroke:#ffffff;stroke-width:0.80000001;stroke-linecap:round;stroke-linejoin:round;stroke-miterlimit:4;stroke-dasharray:none"
       id="path3672"
       inkscape:connector-curvature="0"
       d="M 94.06152,6.0666901 C 96.990728,17.606617 83.720921,21.115548 78.934672,28.302319 c -3.259326,4.896644 1.599826,10.142079 8.224705,16.118776 -2.583507,-5.840009 -11.348341,-10.957731 0,-19.92115 C 101.31059,13.330358 94.06152,6.0666901 94.06152,6.0666901 z m 8.72066,14.3002449 c 1.6e-4,0 -23.909523,5.967131 -12.481709,19.135871 3.373596,3.883383 -0.86793,7.356765 -0.86793,7.356765 0,0 8.559842,-4.383228 4.628979,-9.919239 -3.672633,-5.160282 -6.522967,-7.733063 8.72066,-16.573397 z m 3.88504,23.516865 c -0.73288,0.03758 -1.48813,0.178776 -2.27316,0.454633 -0.73431,0.259924 -1.11591,0.86793 -1.11591,0.86793 0,0 0.45283,-0.197286 1.48788,-0.413297 4.23268,-0.881984 10.30446,5.668502 -2.81045,12.481713 -0.0608,0.162349 -0.24814,0.371971 -0.24798,0.371971 15.87064,-4.172048 12.04406,-14.126364 4.95962,-13.76295 z m -28.352493,0.661282 c -1.672073,0.0437 -5.618136,0.403075 -10.167223,2.603799 -7.175337,3.469463 17.76451,5.046753 30.666984,1.653208 1.341372,-0.915375 3.182422,-1.694534 3.182422,-1.694534 0,0 -5.28104,0.92259 -10.539189,1.363888 -6.435775,0.539957 -13.314609,0.670375 -16.780057,0.206659 -8.20482,-1.09691 4.504992,-4.13302 4.504992,-4.13302 0,0 -0.310579,-0.0146 -0.867929,0 z m -2.107841,7.935395 c -11.836333,3.92838 6.602257,8.393206 23.144896,3.55439 -1.757611,-0.61958 -2.893109,-1.735869 -2.893109,-1.735869 -8.088244,1.55661 -12.763616,1.478855 -18.68124,0.86794 -4.575028,-0.472842 -1.570547,-2.686461 -1.570547,-2.686461 z m 1.653208,7.646075 c -10.747475,3.002966 6.567374,9.210641 20.251788,3.347752 -2.241287,-0.871 -3.843713,-1.859867 -3.843713,-1.859867 -6.102402,1.153503 -8.967628,1.252366 -14.506893,0.619956 -4.571613,-0.524325 -1.901182,-2.107841 -1.901182,-2.107841 z m -6.943468,5.083612 c -4.618511,-0.177681 -15.068473,4.41621 -6.116864,5.86889 27.898708,4.522138 50.838968,-2.025373 43.603328,-5.29026 0,0 1.9624,1.633227 -2.19051,2.893109 -7.896809,2.391879 -32.863576,3.100305 -39.800946,0.08267 -2.492085,-1.085465 2.165958,-2.575358 3.637052,-2.893109 1.533881,-0.331827 2.438487,-0.247984 2.438487,-0.247984 -0.346687,-0.24413 -0.910758,-0.387916 -1.570547,-0.413308 z m 41.908794,4.13302 c 0,0 -0.89221,2.258884 -10.41521,4.050359 -10.743446,2.022635 -23.966375,1.793408 -31.82423,0.495959 0,0 1.606128,1.32749 9.877913,1.859856 12.585955,0.804669 31.903977,-0.450198 32.361527,-6.406174 z" />
  </g>
</svg>
