<?xml version="1.0" encoding="UTF-8" standalone="no"?>
<!-- Created with Inkscape (http://www.inkscape.org/) -->

<svg
   xmlns:dc="http://purl.org/dc/elements/1.1/"
   xmlns:cc="http://creativecommons.org/ns#"
   xmlns:rdf="http://www.w3.org/1999/02/22-rdf-syntax-ns#"
   xmlns:svg="http://www.w3.org/2000/svg"
   xmlns="http://www.w3.org/2000/svg"
   xmlns:xlink="http://www.w3.org/1999/xlink"
   xmlns:sodipodi="http://sodipodi.sourceforge.net/DTD/sodipodi-0.dtd"
   xmlns:inkscape="http://www.inkscape.org/namespaces/inkscape"
   version="1.0"
   width="128"
   height="128"
   id="svg2408"
   style="display:inline"
   inkscape:version="0.48.3.1 r9886"
   sodipodi:docname="text-x-python.svg">
  <sodipodi:namedview
     pagecolor="#ffffff"
     bordercolor="#666666"
     borderopacity="1"
     objecttolerance="10"
     gridtolerance="10"
     guidetolerance="10"
     inkscape:pageopacity="0"
     inkscape:pageshadow="2"
     inkscape:window-width="1366"
     inkscape:window-height="717"
     id="namedview698"
     showgrid="false"
     inkscape:zoom="2.4583333"
     inkscape:cx="54.305085"
     inkscape:cy="63.050847"
     inkscape:window-x="0"
     inkscape:window-y="0"
     inkscape:window-maximized="1"
     inkscape:current-layer="svg2408" />
  <defs
     id="defs2410">
    <linearGradient
       x1="45.447727"
       y1="92.539597"
       x2="45.447727"
       y2="7.0165396"
       id="ButtonShadow"
       gradientUnits="userSpaceOnUse"
       gradientTransform="scale(1.0058652,0.994169)">
      <stop
         id="stop3750"
         style="stop-color:#000000;stop-opacity:1"
         offset="0" />
      <stop
         id="stop3752"
         style="stop-color:#000000;stop-opacity:0.58823532"
         offset="1" />
    </linearGradient>
    <filter
       color-interpolation-filters="sRGB"
       id="filter3174">
      <feGaussianBlur
         id="feGaussianBlur3176"
         stdDeviation="1.71" />
    </filter>
    <linearGradient
       id="linearGradient5344">
      <stop
         style="stop-color:#000000;stop-opacity:1;"
         offset="0"
         id="stop5346" />
      <stop
         style="stop-color:#000000;stop-opacity:0;"
         offset="1"
         id="stop5348" />
    </linearGradient>
    <linearGradient
       inkscape:collect="always"
       xlink:href="#linearGradient5439"
       id="linearGradient11015"
       gradientUnits="userSpaceOnUse"
       gradientTransform="matrix(1.6284723,0,0,1.6284723,47.012344,2.3646141)"
       x1="18.264242"
       y1="-3.8831213"
       x2="145.0313"
       y2="140.38754" />
    <linearGradient
       id="linearGradient5439">
      <stop
         style="stop-color:#ffffff;stop-opacity:1;"
         offset="0"
         id="stop5441" />
      <stop
         style="stop-color:#000000;stop-opacity:1;"
         offset="1"
         id="stop5443" />
    </linearGradient>
    <linearGradient
       inkscape:collect="always"
       xlink:href="#linearGradient5344"
       id="linearGradient11013"
       gradientUnits="userSpaceOnUse"
       gradientTransform="matrix(2.6666667,0,0,2.6666667,-1133.8382,-1417.1628)"
       x1="533.94769"
       y1="471.7771"
       x2="436.88516"
       y2="567.9021" />
    <linearGradient
       inkscape:collect="always"
       xlink:href="#linearGradient9863"
       id="linearGradient11009"
       gradientUnits="userSpaceOnUse"
       gradientTransform="matrix(2.6666667,0,0,2.6666667,-2413.8382,-1096.6224)"
       x1="927.93488"
       y1="459.10907"
       x2="927.93488"
       y2="410.98141" />
    <linearGradient
       id="linearGradient9863">
      <stop
         style="stop-color:#2f445a;stop-opacity:1;"
         offset="0"
         id="stop9865" />
      <stop
         style="stop-color:#415f7c;stop-opacity:1"
         offset="1"
         id="stop9867" />
    </linearGradient>
    <linearGradient
       inkscape:collect="always"
       xlink:href="#linearGradient5344"
       id="linearGradient11006"
       gradientUnits="userSpaceOnUse"
       gradientTransform="matrix(2.6666667,0,0,2.6666667,-1293.8382,-1683.1223)"
       x1="519.31262"
       y1="723.67017"
       x2="511.42725"
       y2="667.20789" />
    <linearGradient
       inkscape:collect="always"
       xlink:href="#linearGradient5362"
       id="linearGradient11003"
       gradientUnits="userSpaceOnUse"
       gradientTransform="matrix(2.6666667,0,0,2.6666667,-1293.8382,-1683.1223)"
       x1="504.91962"
       y1="635.44617"
       x2="504.48212"
       y2="641.10242" />
    <linearGradient
       id="linearGradient5362">
      <stop
         style="stop-color:#ffffff;stop-opacity:1;"
         offset="0"
         id="stop5364" />
      <stop
         style="stop-color:#ffffff;stop-opacity:0;"
         offset="1"
         id="stop5366" />
    </linearGradient>
    <linearGradient
       x1="114.99662"
       y1="165.98375"
       x2="135.83893"
       y2="120.67539"
       id="linearGradient8399-3"
       xlink:href="#linearGradient4076-9"
       gradientUnits="userSpaceOnUse"
       gradientTransform="matrix(0.40558412,0,0,0.39999599,1.5499393,2.1179479)" />
    <linearGradient
       id="linearGradient4076-9">
      <stop
         id="stop4078-4"
         style="stop-color:#ffe45d;stop-opacity:1"
         offset="0" />
      <stop
         id="stop4080-5"
         style="stop-color:#ffb01c;stop-opacity:1"
         offset="1" />
    </linearGradient>
    <linearGradient
       x1="48.800121"
       y1="43.643417"
       x2="54.379364"
       y2="57.859699"
       id="linearGradient8429-8"
       xlink:href="#linearGradient8362-9"
       gradientUnits="userSpaceOnUse" />
    <linearGradient
       id="linearGradient8362-9">
      <stop
         id="stop8364-7"
         style="stop-color:#ffffff;stop-opacity:1"
         offset="0" />
      <stop
         id="stop8366-1"
         style="stop-color:#ffffff;stop-opacity:0"
         offset="1" />
    </linearGradient>
    <linearGradient
       x1="62.684563"
       y1="65.534477"
       x2="51.501648"
       y2="46.1651"
       id="linearGradient8409-4"
       xlink:href="#linearGradient8403-3"
       gradientUnits="userSpaceOnUse" />
    <linearGradient
       id="linearGradient8403-3">
      <stop
         id="stop8405-0"
         style="stop-color:#aa6f00;stop-opacity:1"
         offset="0" />
      <stop
         id="stop8407-7"
         style="stop-color:#d99800;stop-opacity:1"
         offset="1" />
    </linearGradient>
    <linearGradient
       x1="116.53692"
       y1="58.201862"
       x2="77.087646"
       y2="118.20246"
       id="linearGradient8345-0"
       xlink:href="#linearGradient4092-4"
       gradientUnits="userSpaceOnUse"
       gradientTransform="matrix(0.40558412,0,0,0.39999599,0.73447513,0.71948886)" />
    <linearGradient
       id="linearGradient4092-4">
      <stop
         id="stop4094-8"
         style="stop-color:#2b5d87;stop-opacity:1"
         offset="0" />
      <stop
         id="stop4096-2"
         style="stop-color:#4182b8;stop-opacity:1"
         offset="1" />
    </linearGradient>
    <linearGradient
       x1="36.129795"
       y1="26.97562"
       x2="46.904793"
       y2="43.868523"
       id="linearGradient8368-7"
       xlink:href="#linearGradient8362-9"
       gradientUnits="userSpaceOnUse" />
    <linearGradient
       x1="49.395386"
       y1="49.177551"
       x2="31.857361"
       y2="24.6332"
       id="linearGradient8390-5"
       xlink:href="#linearGradient8384-3"
       gradientUnits="userSpaceOnUse" />
    <linearGradient
       id="linearGradient8384-3">
      <stop
         id="stop8386-6"
         style="stop-color:#1e3b55;stop-opacity:1"
         offset="0" />
      <stop
         id="stop8388-7"
         style="stop-color:#2e5c84;stop-opacity:1"
         offset="1" />
    </linearGradient>
  </defs>
  <metadata
     id="metadata2413">
    <rdf:RDF>
      <cc:Work
         rdf:about="">
        <dc:format>image/svg+xml</dc:format>
        <dc:type
           rdf:resource="http://purl.org/dc/dcmitype/StillImage" />
        <dc:title />
      </cc:Work>
    </rdf:RDF>
  </metadata>
  <g
     id="layer2"
     style="display:none"
     transform="translate(0,32)">
    <rect
       width="86"
       height="85"
       rx="6"
       ry="6"
       x="5"
       y="7"
       id="rect3745"
       style="opacity:0.9;fill:url(#ButtonShadow);fill-opacity:1;fill-rule:nonzero;stroke:none;filter:url(#filter3174)" />
  </g>
  <path
     inkscape:connector-curvature="0"
     inkscape:export-ydpi="57.964222"
     inkscape:export-xdpi="57.964222"
     inkscape:export-filename="/home/dafeba/DCV/tallerD/bocetos/08-09-22-hastaahora.png"
     style="fill:#f2f2f2;fill-rule:evenodd;stroke:none;display:inline"
     d="M 0.79114413,5.4829141 C 10.397278,6.4059041 14.464184,17.544164 14.457011,25.84894 l -0.124213,76.0016 c 0.08248,9.32704 4.949306,18.59987 17.544933,25.36312 l 87.756749,-14.97621 c -10.394,-1.91664 -17.82528,-12.21507 -17.74112,-20.587203 l 0.20923,-62.83168 C 102.19373,20.720804 96.880638,12.573184 87.015251,11.698544 L 0.79114413,5.4829141 z"
     id="path10985"
     sodipodi:nodetypes="ccccccccc" />
  <path
     inkscape:connector-curvature="0"
     inkscape:export-ydpi="57.964222"
     inkscape:export-xdpi="57.964222"
     inkscape:export-filename="/home/dafeba/DCV/tallerD/bocetos/08-09-22-hastaahora.png"
     sodipodi:nodetypes="ccccc"
     id="path10987"
     d="M 0.79114413,5.4829141 C 10.397278,6.4059041 14.464184,17.544164 14.457011,25.84894 l 87.645579,2.969627 C 102.19373,20.720804 96.880638,12.573184 87.015251,11.698544 L 0.79114413,5.4829141 z"
     style="fill:url(#linearGradient11003);fill-rule:evenodd;stroke:none;display:inline" />
  <path
     inkscape:connector-curvature="0"
     inkscape:export-ydpi="57.964222"
     inkscape:export-xdpi="57.964222"
     inkscape:export-filename="/home/dafeba/DCV/tallerD/bocetos/08-09-22-hastaahora.png"
     sodipodi:nodetypes="ccccc"
     id="path10989"
     d="m 14.332798,101.85054 c 0.08248,9.32704 4.949306,18.59987 17.544933,25.36312 l 87.756749,-14.97621 c -10.394,-1.91664 -17.82528,-12.21507 -17.74112,-20.587203 L 14.332798,101.85054 z"
     style="fill:url(#linearGradient11006);fill-rule:evenodd;stroke:none;display:inline" />
  <path
     inkscape:connector-curvature="0"
     sodipodi:nodetypes="cscccccccccc"
     id="path10991"
     d="m 1.6750382,5.4046441 c 3.225306,0.3099 4.942293,1.68299 6.97416,3.80216 4.0197858,4.1924799 5.8125858,10.9590699 5.8078128,16.4754699 l -0.124213,76.001596 c 0.07349,8.3095 3.944346,16.57598 13.694666,23.06318 2.440427,1.60994 5.685814,1.60994 9.116907,1.23848 l 82.490109,-13.91475 c -10.394,-1.91664 -17.82528,-12.215067 -17.74112,-20.5872 L 102.10259,28.6519 C 102.19373,20.554144 96.880638,12.406514 87.015251,11.531874 L 9.8308782,5.9679041 l -8.15584,-0.56326 z"
     style="fill:none;stroke:url(#linearGradient11009);stroke-width:2.66666675;stroke-linecap:round;stroke-linejoin:round;stroke-miterlimit:4;stroke-opacity:1;stroke-dasharray:none;display:inline"
     inkscape:export-filename="/home/dafeba/DCV/tallerD/bocetos/08-09-22-hastaahora.png"
     inkscape:export-xdpi="57.964222"
     inkscape:export-ydpi="57.964222" />
  <rect
     style="fill:url(#linearGradient11013);fill-opacity:1;stroke:none;display:inline"
     id="rect10993"
     width="78.166664"
     height="78.166664"
     x="41.355469"
     y="8.492837"
     rx="4.7293906"
     ry="4.7293906"
     inkscape:export-filename="/home/dafeba/DCV/tallerD/bocetos/08-09-22-hastaahora.png"
     inkscape:export-xdpi="57.964222"
     inkscape:export-ydpi="57.964222" />
  <rect
     inkscape:export-ydpi="57.964222"
     inkscape:export-xdpi="57.964222"
     inkscape:export-filename="/home/dafeba/DCV/tallerD/bocetos/08-09-22-hastaahora.png"
     style="fill:url(#linearGradient11015);fill-opacity:1;stroke:#000000;stroke-width:1.33333337;stroke-miterlimit:4;stroke-dasharray:none;display:inline"
     id="rect10995"
     width="78.166664"
     height="78.166664"
     x="47.012371"
     y="2.3645866"
     rx="4.7293906"
     ry="4.7293906" />
  <g
     style="display:inline"
     id="layer4"
     transform="matrix(1.4373603,0,0,1.4373603,17.067202,-28.996099)">
    <path
       d="m 47.8125,22.96875 c -2.070832,-0.02603 -4.221656,0.25164 -6.53125,0.90625 -1.581632,0.447306 -3.37913,1.146714 -4.96875,2.34375 -1.660418,1.250349 -3.09375,3.272231 -3.09375,5.84375 l 0,2.21875 -2.09375,0 c -2.40328,0 -4.449322,1.081878 -5.75,2.71875 -1.222988,1.539103 -1.834946,3.320021 -2.40625,5 -1.339147,3.924628 -1.238358,7.882854 -0.0625,12.5 0.450986,1.7745 1.132353,3.605656 2.46875,5.09375 1.386452,1.54383 3.430629,2.46875 5.75,2.46875 l 4.84375,0 0.8125,0 c 0.0027,-1.6e-5 0.09102,1.49e-4 0.09375,0 0.0027,-1.49e-4 0.122285,-0.03097 0.125,-0.03125 0.0027,-2.82e-4 0.09105,4.14e-4 0.09375,0 0.0027,-4.14e-4 0.09107,5.45e-4 0.09375,0 0.0027,-5.45e-4 0.0911,-0.03058 0.09375,-0.03125 0.0026,-6.74e-4 0.09114,-0.03045 0.09375,-0.03125 0.0026,-8.02e-4 0.09118,-0.03032 0.09375,-0.03125 0.0026,-9.28e-4 0.09123,-0.0302 0.09375,-0.03125 0.0025,-0.0011 0.09128,-0.03008 0.09375,-0.03125 0.0025,-0.0012 0.09134,-0.06121 0.09375,-0.0625 0.0024,-0.0013 0.06016,-0.02984 0.0625,-0.03125 0.0023,-0.0014 0.09148,-0.06098 0.09375,-0.0625 0.0023,-0.0015 0.09156,-0.06087 0.09375,-0.0625 0.0022,-0.0016 0.06039,-0.06077 0.0625,-0.0625 0.0021,-0.0017 0.06048,-0.06067 0.0625,-0.0625 0.002,-0.0018 0.09182,-0.06057 0.09375,-0.0625 0.0019,-0.0019 0.06067,-0.09173 0.0625,-0.09375 0.0018,-0.002 0.06077,-0.06039 0.0625,-0.0625 0.0017,-0.0021 0.06087,-0.06031 0.0625,-0.0625 0.0016,-0.0022 0.06098,-0.09148 0.0625,-0.09375 0.0015,-0.0023 0.06109,-0.09141 0.0625,-0.09375 0.0014,-0.0023 0.02996,-0.06009 0.03125,-0.0625 0.0013,-0.0024 0.06133,-0.09128 0.0625,-0.09375 0.0012,-0.0025 0.0302,-0.09123 0.03125,-0.09375 0.0011,-0.0025 0.03032,-0.09118 0.03125,-0.09375 9.28e-4,-0.0026 0.03045,-0.09114 0.03125,-0.09375 8.02e-4,-0.0026 0.03058,-0.0911 0.03125,-0.09375 6.74e-4,-0.0026 0.0307,-0.09107 0.03125,-0.09375 5.45e-4,-0.0027 -4.14e-4,-0.09105 0,-0.09375 4.14e-4,-0.0027 -2.82e-4,-0.09103 0,-0.09375 2.82e-4,-0.0027 0.0311,-0.122274 0.03125,-0.125 1.49e-4,-0.0027 -1.6e-5,-0.09102 0,-0.09375 l 0,-0.8125 0,-4.28125 c 0,-0.763419 0.519094,-1.820808 1.4375,-2.65625 0.432727,-0.393637 0.992701,-0.741082 1.5,-0.96875 C 42.257299,51.084832 42.757253,51 42.84375,51 l 10.1875,0 c 4.788528,0 8.3125,-4.273733 8.3125,-8.75 l 0,-10.1875 c 0,-2.316345 -1.093702,-4.265586 -2.59375,-5.59375 -1.448085,-1.282156 -3.208579,-2.097026 -4.9375,-2.59375 -1.931755,-0.55483 -3.930348,-0.880237 -6,-0.90625 z"
       id="path8475"
       style="opacity:0.05;fill:#2c5f89;fill-opacity:1;stroke:none"
       inkscape:connector-curvature="0" />
    <path
       d="m 47.8125,23.90625 c -1.978568,-0.02487 -4.050983,0.242874 -6.28125,0.875 -1.513884,0.428146 -3.198549,1.089803 -4.65625,2.1875 -1.485789,1.118848 -2.71875,2.866248 -2.71875,5.09375 l 0,3.15625 -3.03125,0 c -2.124923,0 -3.900275,0.951695 -5.03125,2.375 -1.096089,1.379403 -1.680658,3.04454 -2.25,4.71875 -1.273375,3.731872 -1.179781,7.458906 -0.03125,11.96875 0.433453,1.705512 1.063488,3.366305 2.25,4.6875 1.206864,1.343856 2.986321,2.15625 5.0625,2.15625 l 4.84375,0 0.8125,0 A 1.1003999,1.1003999 0 0 0 37.875,60.03125 l 0,-0.8125 0,-4.28125 c 0,-1.138241 0.686453,-2.376278 1.75,-3.34375 1.049515,-0.954707 2.527431,-1.53125 3.21875,-1.53125 l 10.1875,0 c 4.225582,0 7.375,-3.827413 7.375,-7.8125 l 0,-10.1875 c 0,-2.02472 -0.95004,-3.727578 -2.28125,-4.90625 -1.31142,-1.16115 -2.928042,-1.905415 -4.5625,-2.375 -1.862672,-0.534988 -3.7718,-0.850136 -5.75,-0.875 z"
       id="path8471"
       style="opacity:0.15;fill:#2c5f89;fill-opacity:1;stroke:none"
       inkscape:connector-curvature="0" />
    <path
       d="m 47.8125,25 c -1.866466,-0.02346 -3.828684,0.23719 -5.96875,0.84375 -1.435165,0.405883 -3.020526,1.027101 -4.3125,2 C 36.239276,28.816649 35.25,30.231266 35.25,32.0625 l 0,4.25 -4.125,0 c -1.810499,0 -3.208529,0.776065 -4.15625,1.96875 -0.947721,1.192685 -1.532597,2.72487 -2.09375,4.375 -1.197461,3.50939 -1.117628,6.95525 0,11.34375 0.411825,1.62041 0.993993,3.09855 2,4.21875 1.006007,1.1202 2.457053,1.8125 4.25,1.8125 l 4.84375,0 0.8125,0 0,-0.8125 0,-4.28125 c 0,-1.54638 0.860417,-3.03433 2.09375,-4.15625 1.233333,-1.12192 2.831864,-1.8125 3.96875,-1.8125 l 10.1875,0 c 3.535091,0 6.28125,-3.32769 6.28125,-6.71875 l 0,-10.1875 c 0,-1.691553 -0.768301,-3.086194 -1.90625,-4.09375 C 56.268301,26.961194 54.777772,26.282684 53.25,25.84375 51.462141,25.330249 49.678966,25.02346 47.8125,25 z"
       inkscape:connector-curvature="0"
       id="path8454"
       style="opacity:0.3;fill:#2c5f89;fill-opacity:1;stroke:none" />
    <path
       d="m 58.9375,35.90625 a 1.2187565,1.2187565 0 0 0 -0.09375,0.03125 c 0.01045,-0.002 -0.19773,0.03419 -0.1875,0.03125 0.01023,-0.0029 -0.197437,0.06631 -0.1875,0.0625 0.0099,-0.0038 -0.165819,0.06716 -0.15625,0.0625 0.0096,-0.0047 -0.165379,0.09922 -0.15625,0.09375 0.0091,-0.0055 -0.164871,0.09999 -0.15625,0.09375 0.0086,-0.0062 -0.133047,0.131967 -0.125,0.125 0.008,-0.007 -0.132413,0.132638 -0.125,0.125 0.0074,-0.0076 -0.131724,0.133252 -0.125,0.125 0.0067,-0.0083 -0.130983,0.133803 -0.125,0.125 0.006,-0.0088 -0.09895,0.165539 -0.09375,0.15625 0.0052,-0.0093 -0.06687,0.197204 -0.0625,0.1875 0.0044,-0.0097 -0.06602,0.166297 -0.0625,0.15625 0.0035,-0.01005 -0.06513,0.166564 -0.0625,0.15625 0.0026,-0.01031 -0.03298,0.198003 -0.03125,0.1875 0.0017,-0.0105 -0.03206,0.198113 -0.03125,0.1875 8.11e-4,-0.01061 1.11e-4,0.166893 0,0.15625 l 0,0.8125 0,3.65625 c 0,0.83471 -0.551755,2.081571 -1.46875,3 -0.917527,0.918961 -2.165361,1.46875 -2.96875,1.46875 l -9.75,0.0625 c -2.087464,0 -4.156568,0.68803 -5.75,2.125 -1.626784,1.46705 -2.59375,3.660558 -2.59375,6.125 l 0,10.71875 c 0,2.324299 1.085835,4.289866 2.59375,5.625 1.454603,1.287931 3.207288,2.065411 4.9375,2.5625 3.866533,1.110537 7.93575,1.342622 12.5625,0.03125 1.572499,-0.444722 3.364704,-1.135849 4.96875,-2.34375 1.669287,-1.25703 3.125,-3.287743 3.125,-5.875 l 0,-2.1875 2.0625,0 c 2.413678,0 4.478038,-1.109929 5.78125,-2.75 1.216857,-1.531394 1.86026,-3.271302 2.4375,-4.96875 1.343624,-3.937735 1.207319,-7.94451 0.03125,-12.5625 -0.451574,-1.776821 -1.129071,-3.570749 -2.46875,-5.0625 -1.389656,-1.547402 -3.446047,-2.5 -5.78125,-2.5 l -4.84375,0 -0.6875,0 c 0.0064,5.92e-4 -0.06879,0.0026 -0.125,0 -0.04216,-0.002 -0.09858,0 -0.09375,0 0.01128,0 -0.198734,10e-4 -0.1875,0 z"
       id="path8452"
       style="opacity:0.05;fill:#b07400;fill-opacity:1;stroke:none"
       inkscape:connector-curvature="0" />
    <path
       d="m 59.0625,37.125 a 0.85063183,0.85063183 0 0 0 -0.6875,0.84375 l 0,0.8125 0,3.65625 c 0,1.276802 -0.694791,2.755544 -1.8125,3.875 -1.11812,1.119868 -2.591133,1.8125 -3.84375,1.8125 l -9.75,0.0625 c -1.820642,0 -3.590703,0.597948 -4.9375,1.8125 -1.358755,1.225339 -2.1875,3.067248 -2.1875,5.21875 l 0,10.71875 c 0,1.949095 0.900158,3.578915 2.1875,4.71875 1.272044,1.12629 2.858496,1.849875 4.46875,2.3125 3.693092,1.060722 7.454183,1.253004 11.875,0 1.496011,-0.42309 3.173665,-1.055628 4.59375,-2.125 1.441796,-1.085722 2.625,-2.768695 2.625,-4.90625 l 0,-3.40625 3.28125,0 c 2.053553,0 3.72312,-0.910283 4.8125,-2.28125 1.062409,-1.337024 1.68252,-2.956253 2.25,-4.625 1.256149,-3.681374 1.141515,-7.36144 0,-11.84375 C 71.508957,42.095049 70.895539,40.494324 69.75,39.21875 68.588726,37.925655 66.88689,37.125 64.875,37.125 l -4.84375,0 -0.8125,0 a 0.85063183,0.85063183 0 0 0 -0.15625,0 z"
       id="path8448"
       style="opacity:0.15;fill:#b07400;fill-opacity:1;stroke:none"
       inkscape:connector-curvature="0" />
    <path
       d="m 59.21875,37.96875 0,0.8125 0,3.65625 c 0,1.569933 -0.811589,3.215884 -2.0625,4.46875 -1.250911,1.252866 -2.888505,2.0625 -4.4375,2.0625 l -9.75,0.0625 c -1.634787,0 -3.201893,0.535833 -4.375,1.59375 -1.173107,1.05792 -1.90625,2.65688 -1.90625,4.59375 l 0,10.71875 c 0,1.69155 0.768301,3.08619 1.90625,4.09375 1.137949,1.00756 2.628469,1.68607 4.15625,2.125 3.575718,1.02701 7.126116,1.21313 11.40625,0 1.435159,-0.40588 3.020527,-1.0271 4.3125,-2 C 59.760723,69.18335 60.75,67.76873 60.75,65.9375 l 0,-4.25 4.125,0 c 1.810498,0 3.20853,-0.77606 4.15625,-1.96875 0.94772,-1.19269 1.532601,-2.72487 2.09375,-4.375 1.197465,-3.50939 1.117627,-6.95524 0,-11.34375 -0.411823,-1.620414 -0.993993,-3.098547 -2,-4.21875 -1.006007,-1.120203 -2.457054,-1.8125 -4.25,-1.8125 l -4.84375,0 -0.8125,0 z"
       inkscape:connector-curvature="0"
       id="path8431"
       style="opacity:0.3;fill:#b07400;fill-opacity:1;stroke:none" />
    <g
       transform="translate(91.301337,59.321993)"
       id="layer6-2" />
    <g
       transform="translate(91.301337,59.321993)"
       id="layer1-3"
       style="display:inline" />
    <path
       d="m 59.394351,64.937319 c 0,3.087968 -2.717419,4.651953 -5.475389,5.431942 -4.14912,1.175996 -7.478965,0.995993 -10.94671,0 -2.89588,-0.831984 -5.475388,-2.531971 -5.475388,-5.431942 l 0,-10.187898 c 0,-2.93197 2.478111,-5.435946 5.475388,-5.435946 l 10.77163,-0.69068 c 3.646194,0 6.029213,-2.244617 6.029213,-5.928582 l 0.992132,-4.924621 4.104513,0 c 3.187888,0 4.688549,2.335975 5.475378,5.431944 1.095075,4.299956 1.14375,7.515926 0,10.867892 -1.107237,3.255967 -2.291548,5.431945 -5.475378,5.431945 l -5.475389,0 -10.946721,0 0,-0.02136 10.946721,0 0,5.457318 z"
       inkscape:connector-curvature="0"
       id="path2732"
       style="fill:url(#linearGradient8399-3);fill-opacity:1;stroke:none" />
    <path
       d="m 69.21875,48.46875 c -0.04547,1.362708 -0.297872,2.643708 -0.75,3.96875 -0.528288,1.553496 -1.047647,2.691056 -1.5625,3.28125 -0.514853,0.590194 -0.888653,0.8125 -2.03125,0.8125 l -5.46875,0 A 1.9674614,1.9674614 0 0 0 57.4375,58.5 l 0,0.8125 a 1.9674614,1.9674614 0 0 1 1.96875,-1.78125 l 5.46875,0 c 1.142597,0 1.516397,-0.222306 2.03125,-0.8125 0.514853,-0.590194 1.034212,-1.727754 1.5625,-3.28125 0.560206,-1.641785 0.814675,-3.214773 0.75,-4.96875 z m -29.75,15.46875 0,1 c 0,0.868196 0.311065,1.419297 1,2.03125 0.688935,0.611953 1.777593,1.139825 3.03125,1.5 3.20792,0.921367 6.041492,1.086541 9.875,0 1.210764,-0.342419 2.328413,-0.839976 3.03125,-1.4375 0.702837,-0.597524 1.03125,-1.132058 1.03125,-2.09375 l 0,-1 c 0,0.961692 -0.328413,1.496226 -1.03125,2.09375 -0.702837,0.597524 -1.820486,1.095081 -3.03125,1.4375 -3.833508,1.086541 -6.66708,0.921367 -9.875,0 -1.253657,-0.360175 -2.342315,-0.888047 -3.03125,-1.5 -0.688935,-0.611953 -1,-1.163054 -1,-2.03125 z"
       inkscape:connector-curvature="0"
       id="path8413"
       style="opacity:0.4;fill:#ffffff;fill-opacity:1;stroke:none" />
    <path
       d="m 52.00209,66.124377 c 0,-1.12399 0.920683,-2.03598 2.052262,-2.03598 1.135637,0 2.052251,0.91199 2.052251,2.03598 0,1.127988 -0.916614,2.039978 -2.052251,2.039978 -1.131579,0 -2.052262,-0.91199 -2.052262,-2.039978 z"
       inkscape:connector-curvature="0"
       id="path8401"
       style="fill:#ac7100;fill-opacity:1" />
    <path
       d="m 52.00209,65.124377 c 0,-1.12399 0.920683,-2.03598 2.052262,-2.03598 1.135637,0 2.052251,0.91199 2.052251,2.03598 0,1.127988 -0.916614,2.039978 -2.052251,2.039978 -1.131579,0 -2.052262,-0.91199 -2.052262,-2.039978 z"
       inkscape:connector-curvature="0"
       id="path2736"
       style="fill:#ffffff" />
    <path
       d="m 60.75,37.78125 -0.96875,4.90625 c 0,3.683965 -2.385056,5.9375 -6.03125,5.9375 L 42.96875,49.3125 C 39.971473,49.3125 37.5,51.81803 37.5,54.75 l 0,6.90625 c 0.740078,-2.894468 2.658806,-7.761596 7.34375,-8.1875 5.643711,-0.513065 12.489186,1.65128 16.875,-1.9375 3.756903,-3.074161 4.14558,-7.400403 2.6875,-13.71875 l 0,-0.03125 -3.65625,0 z"
       inkscape:connector-curvature="0"
       id="path8418"
       style="opacity:0.6;fill:url(#linearGradient8429-8);fill-opacity:1;stroke:none" />
    <path
       d="m 59.943111,64.937321 c 0,3.087968 -3.266178,4.651952 -6.024147,5.431941 -4.149121,1.175997 -7.478966,0.995994 -10.94671,0 -2.895881,-0.831983 -5.475389,-2.53197 -5.475389,-5.431941 l 0,-10.729103 c 0,-3.474035 2.556505,-5.358632 5.475389,-5.358632 l 9.735773,-0.05756 c 3.646194,0 7.336561,-3.680098 7.336561,-7.364062 l 0,-3.658374 4.825154,0 c 3.187887,0 4.688548,2.335976 5.475378,5.431944 1.095075,4.299957 1.14375,7.515927 0,10.867892 -1.107236,3.255968 -2.291548,5.818519 -5.475378,5.818519 l -4.926631,0 -11.495479,0 0,-0.02136 11.495479,0.03866 0,5.032086 z"
       inkscape:connector-curvature="0"
       id="path2744"
       style="fill:none;stroke:url(#linearGradient8409-4);stroke-width:1.62946153;stroke-opacity:1" />
    <path
       d="m 36.681387,30.935187 c 0,-3.08797 0.839561,-4.767953 5.475389,-5.567947 3.147337,-0.543994 7.182889,-0.611991 10.946721,0 2.972922,0.483996 5.475377,2.667976 5.475377,5.567947 l 0,10.187897 c 0,2.98797 -2.429447,5.435945 -5.475377,5.435945 l -9.927587,0.541204 c -3.715144,0 -7.551811,3.201285 -7.551811,6.733249 l -0.313588,4.26943 -3.76382,0 c -3.183831,0 -5.03735,-2.263976 -5.816073,-5.431944 -1.050461,-4.255957 -1.005848,-6.791931 0,-10.867891 0.872008,-3.555966 3.65837,-5.431946 6.842199,-5.431946 l 4.10857,0 10.950778,0 0,-0.03618 -10.950778,0 0,-5.399763 0,0 z"
       inkscape:connector-curvature="0"
       id="path2730"
       style="fill:url(#linearGradient8345-0);fill-opacity:1;stroke:none" />
    <path
       d="m 38.71875,33.3125 0,1 8.90625,0 a 2.041095,2.041095 0 0 1 1.96875,1.5 2.041095,2.041095 0 0 0 0.0625,-0.4375 l 0,-0.03125 A 2.041095,2.041095 0 0 0 47.625,33.3125 l -8.90625,0 z M 56.5625,40.125 c 0,1.870491 -1.517007,3.40625 -3.46875,3.40625 a 2.041095,2.041095 0 0 0 -0.09375,0 l -9.8125,0.53125 -0.09375,0 0,0.03125 c -2.409143,0.0272 -4.690414,0.973687 -6.4375,2.5 -1.732022,1.513153 -2.974475,3.656782 -3.03125,6.09375 l -0.03125,0 0,0.15625 -0.1875,2.21875 -1.875,0 c -1.106979,0 -1.764898,-0.323848 -2.375,-0.9375 -0.610102,-0.613652 -1.141846,-1.638854 -1.46875,-2.96875 -0.443934,-1.798606 -0.673265,-3.160438 -0.71875,-4.46875 -0.06602,1.630861 0.1618,3.212258 0.71875,5.46875 0.326904,1.329896 0.858648,2.355098 1.46875,2.96875 0.610102,0.613652 1.268021,0.9375 2.375,0.9375 l 1.875,0 0.1875,-2.21875 0,-0.15625 0.03125,0 c 0.05678,-2.436968 1.299228,-4.580597 3.03125,-6.09375 1.747086,-1.526313 4.028357,-2.472799 6.4375,-2.5 l 0,-0.03125 0.09375,0 L 53,44.53125 a 2.041095,2.041095 0 0 1 0.09375,0 c 1.951743,0 3.46875,-1.535759 3.46875,-3.40625 l 0,-1 z"
       inkscape:connector-curvature="0"
       id="path8349"
       style="opacity:0.2;fill:#ffffff;fill-opacity:1;stroke:none" />
    <path
       d="m 47.40625,24.9375 c -1.872784,0.0085 -3.676332,0.165503 -5.25,0.4375 -4.635828,0.799994 -5.46875,2.47453 -5.46875,5.5625 l 0,5.40625 10.9375,0 0,0.03125 -10.9375,0 -4.125,0 c -3.183829,0 -5.971742,1.881534 -6.84375,5.4375 -0.790699,3.204119 -0.962319,5.459302 -0.5,8.34375 0.651523,-2.558758 1.215858,-10.580271 8,-11.03125 C 39.966999,38.676407 45.018226,39.972053 50,39 55.103281,38.149453 56.954207,28.336384 53.1875,25.90625 l -0.75,-0.625 C 50.762477,25.045559 49.060964,24.92999 47.40625,24.9375 z"
       inkscape:connector-curvature="0"
       id="path8356"
       style="opacity:0.6;fill:url(#linearGradient8368-7);fill-opacity:1;stroke:none" />
    <path
       d="m 58.59375,39.125 c 0,2.98797 -2.45407,5.4375 -5.5,5.4375 l -9.90625,0.53125 c -3.715144,0 -7.5625,3.218036 -7.5625,6.75 l -0.3125,4.25 -3.78125,0 c -3.183831,0 -5.033777,-2.269532 -5.8125,-5.4375 C 25.324827,49.060266 25.092991,47.721651 25,46.4375 c -0.09055,1.918683 0.117983,3.784733 0.71875,6.21875 0.778723,3.167968 2.628669,5.4375 5.8125,5.4375 l 3.78125,0 0.3125,-4.25 c 0,-3.531964 3.847356,-6.75 7.5625,-6.75 l 9.90625,-0.53125 c 3.04593,0 5.5,-2.44953 5.5,-5.4375 l 0,-2 z"
       inkscape:connector-curvature="0"
       id="path8370"
       style="opacity:0.2;fill:#000000;fill-opacity:1;stroke:none" />
    <path
       d="m 36.056883,31.062678 c 0,-3.087969 3.266178,-4.651953 6.024159,-5.431945 4.14912,-1.175988 7.478965,-0.995991 10.94671,0 2.895869,0.831992 5.475388,2.531973 5.475388,5.431945 l 0,10.187897 c 0,2.931972 -2.478122,5.899837 -5.475388,5.899837 l -10.19917,0 c -2.863332,0 -6.873164,3.107968 -6.873164,6.791932 l 0,4.288062 -4.825154,0 c -3.187889,0 -4.68855,-2.335976 -5.475385,-5.431945 -1.095076,-4.299956 -1.143746,-7.515926 0,-10.867891 1.107245,-3.255968 2.291551,-5.81852 5.475385,-5.81852 l 4.926619,0 11.49548,0 0,0.02137 -11.49548,-0.03866 0,-5.032088 z"
       inkscape:connector-curvature="0"
       id="path3530"
       style="fill:none;stroke:url(#linearGradient8390-5);stroke-width:1.62946153;stroke-opacity:1" />
    <path
       d="m 40.030252,28.998655 c 0,-1.069172 0.889328,-1.933607 1.991143,-1.933607 1.097882,0 1.991135,0.864435 1.991135,1.933607 0,1.065379 -0.893253,1.929814 -1.991135,1.929814 -1.101815,0 -1.991143,-0.864435 -1.991143,-1.929814 z"
       inkscape:connector-curvature="0"
       id="path8354"
       style="fill:#274e70;fill-opacity:1" />
    <path
       d="m 40.030252,29.998655 c 0,-1.069172 0.889328,-1.933607 1.991143,-1.933607 1.097882,0 1.991135,0.864435 1.991135,1.933607 0,1.065379 -0.893253,1.929814 -1.991135,1.929814 -1.101815,0 -1.991143,-0.864435 -1.991143,-1.929814 z"
       inkscape:connector-curvature="0"
       id="path2734"
       style="fill:#ffffff" />
  </g>
</svg>
