<?xml version="1.0" encoding="UTF-8" standalone="no"?>
<!-- Created with Inkscape (http://www.inkscape.org/) -->
<svg
   xmlns:dc="http://purl.org/dc/elements/1.1/"
   xmlns:cc="http://creativecommons.org/ns#"
   xmlns:rdf="http://www.w3.org/1999/02/22-rdf-syntax-ns#"
   xmlns:svg="http://www.w3.org/2000/svg"
   xmlns="http://www.w3.org/2000/svg"
   xmlns:xlink="http://www.w3.org/1999/xlink"
   xmlns:sodipodi="http://sodipodi.sourceforge.net/DTD/sodipodi-0.dtd"
   xmlns:inkscape="http://www.inkscape.org/namespaces/inkscape"
   width="128"
   height="128"
   id="svg2"
   sodipodi:version="0.32"
   inkscape:version="0.46"
   version="1.0"
   sodipodi:docname="vnd.oasis.opendocument.odt.svg"
   inkscape:output_extension="org.inkscape.output.svg.inkscape">
  <defs
     id="defs4">
    <linearGradient
       y2="641.10242"
       x2="504.48212"
       y1="635.44617"
       x1="504.91962"
       gradientTransform="matrix(2.6666667,0,0,2.6666667,-1293.8382,-1683.1224)"
       gradientUnits="userSpaceOnUse"
       id="linearGradient13716"
       xlink:href="#linearGradient5362"
       inkscape:collect="always" />
    <linearGradient
       y2="667.20789"
       x2="511.42725"
       y1="723.67017"
       x1="519.31262"
       gradientTransform="matrix(2.6666667,0,0,2.6666667,-1293.8382,-1683.1224)"
       gradientUnits="userSpaceOnUse"
       id="linearGradient13718"
       xlink:href="#linearGradient5344"
       inkscape:collect="always" />
    <linearGradient
       y2="410.98141"
       x2="927.93488"
       y1="459.10907"
       x1="927.93488"
       gradientTransform="matrix(2.6666667,0,0,2.6666667,-2413.8382,-1096.4557)"
       gradientUnits="userSpaceOnUse"
       id="linearGradient11216"
       xlink:href="#linearGradient9863"
       inkscape:collect="always" />
    <linearGradient
       y2="547.73096"
       x2="1121.9812"
       y1="502.41663"
       x1="1171.4529"
       gradientTransform="matrix(2.7177223,0,0,2.7177223,-3016.505,-1402.7898)"
       gradientUnits="userSpaceOnUse"
       id="linearGradient13856"
       xlink:href="#linearGradient5344"
       inkscape:collect="always" />
    <linearGradient
       inkscape:collect="always"
       xlink:href="#linearGradient5316"
       id="linearGradient24955"
       gradientUnits="userSpaceOnUse"
       gradientTransform="matrix(2.6666667,0,0,2.6666667,-1293.8381,-1683.1224)"
       x1="506.875"
       y1="671.74292"
       x2="506.59363"
       y2="634.74292" />
    <linearGradient
       inkscape:collect="always"
       xlink:href="#linearGradient5316"
       id="linearGradient24957"
       gradientUnits="userSpaceOnUse"
       gradientTransform="matrix(2.6666667,0,0,2.6666667,-1293.8381,-1683.1224)"
       x1="505.92102"
       y1="635.54803"
       x2="508.99728"
       y2="673.02472" />
    <linearGradient
       inkscape:collect="always"
       xlink:href="#linearGradient5344"
       id="linearGradient24959"
       gradientUnits="userSpaceOnUse"
       gradientTransform="matrix(2.6666667,0,0,2.6666667,-1293.8381,-1683.1224)"
       x1="537.08398"
       y1="731.19934"
       x2="502.27975"
       y2="637.1001" />
    <linearGradient
       id="linearGradient25975"
       inkscape:collect="always">
      <stop
         id="stop25977"
         offset="0"
         style="stop-color:#f2f2f2;stop-opacity:1;" />
      <stop
         id="stop25979"
         offset="1"
         style="stop-color:#f2f2f2;stop-opacity:0;" />
    </linearGradient>
    <linearGradient
       inkscape:collect="always"
       xlink:href="#linearGradient25975"
       id="linearGradient24961"
       gradientUnits="userSpaceOnUse"
       x1="165.70816"
       y1="123.31397"
       x2="109.8125"
       y2="156.71875"
       gradientTransform="matrix(2.6666667,0,0,2.6666667,-333.89355,-296.47656)" />
    <linearGradient
       inkscape:collect="always"
       xlink:href="#linearGradient5316"
       id="linearGradient24963"
       gradientUnits="userSpaceOnUse"
       gradientTransform="matrix(2.6666667,0,0,2.6666667,-1293.8381,-1683.1224)"
       x1="516.58734"
       y1="643.28003"
       x2="518.94879"
       y2="670.57684" />
    <linearGradient
       inkscape:collect="always"
       xlink:href="#linearGradient9863"
       id="linearGradient24965"
       gradientUnits="userSpaceOnUse"
       gradientTransform="matrix(2.6666667,0,0,2.6666667,-173.89356,-296.47656)"
       x1="90.376579"
       y1="158.70711"
       x2="92.053268"
       y2="111.14841" />
    <linearGradient
       inkscape:collect="always"
       xlink:href="#linearGradient5362"
       id="linearGradient24969"
       gradientUnits="userSpaceOnUse"
       gradientTransform="matrix(2.6666667,0,0,2.6666667,-1987.2269,-829.80989)"
       x1="749.04877"
       y1="314.47687"
       x2="794.7475"
       y2="358.77771" />
    <linearGradient
       inkscape:collect="always"
       xlink:href="#linearGradient5439"
       id="linearGradient22723"
       gradientUnits="userSpaceOnUse"
       gradientTransform="matrix(2.6844245,0,0,2.6844245,-682.84559,-1424.5281)"
       x1="282.71295"
       y1="553.00134"
       x2="313.54166"
       y2="483.33371" />
    <linearGradient
       id="linearGradient4689">
      <stop
         id="stop4691"
         offset="0"
         style="stop-color:#5a9fd4;stop-opacity:1;" />
      <stop
         id="stop4693"
         offset="1"
         style="stop-color:#306998;stop-opacity:1;" />
    </linearGradient>
    <linearGradient
       id="linearGradient4671">
      <stop
         id="stop4673"
         offset="0"
         style="stop-color:#ffd43b;stop-opacity:1;" />
      <stop
         id="stop4675"
         offset="1"
         style="stop-color:#ffe873;stop-opacity:1" />
    </linearGradient>
    <linearGradient
       id="linearGradient5165-7-9-8-2">
      <stop
         offset="0"
         style="stop-color:#ffffff;stop-opacity:1"
         id="stop5167-4-8-6-9" />
      <stop
         offset="1"
         style="stop-color:#ffffff;stop-opacity:0"
         id="stop5169-5-5-2-9" />
    </linearGradient>
    <linearGradient
       id="linearGradient7210">
      <stop
         style="stop-color:#75aadb;stop-opacity:1"
         offset="0"
         id="stop7212" />
      <stop
         style="stop-color:#c0bfbb;stop-opacity:1;"
         offset="0.5"
         id="stop8994" />
      <stop
         style="stop-color:#798088;stop-opacity:1;"
         offset="1"
         id="stop7214" />
    </linearGradient>
    <linearGradient
       y2="637.52454"
       x2="518.86896"
       y1="661.19366"
       x1="513.96362"
       gradientTransform="translate(-296.48677,-601.99164)"
       gradientUnits="userSpaceOnUse"
       id="linearGradient10430"
       xlink:href="#linearGradient5344"
       inkscape:collect="always" />
    <linearGradient
       y2="643.21948"
       x2="516.5"
       y1="647.79089"
       x1="519.95825"
       gradientTransform="translate(-296.48677,-601.99164)"
       gradientUnits="userSpaceOnUse"
       id="linearGradient10427"
       xlink:href="#linearGradient5316"
       inkscape:collect="always" />
    <linearGradient
       y2="650.17572"
       x2="519.57452"
       y1="632.9248"
       x1="512.30157"
       gradientTransform="translate(-296.48677,-601.99164)"
       gradientUnits="userSpaceOnUse"
       id="linearGradient10424"
       xlink:href="#linearGradient5344"
       inkscape:collect="always" />
    <linearGradient
       y2="643.65698"
       x2="524.125"
       y1="667.56323"
       x1="526.0625"
       gradientTransform="translate(-296.48677,-601.99164)"
       gradientUnits="userSpaceOnUse"
       id="linearGradient10419"
       xlink:href="#linearGradient5344"
       inkscape:collect="always" />
    <linearGradient
       inkscape:collect="always"
       xlink:href="#linearGradient5439"
       id="linearGradient15562"
       gradientUnits="userSpaceOnUse"
       gradientTransform="matrix(2.6666667,0,0,2.6666667,-1134.9597,-1416.4558)"
       x1="457.89578"
       y1="539.88666"
       x2="457.89578"
       y2="569.06531" />
    <linearGradient
       inkscape:collect="always"
       xlink:href="#linearGradient5439"
       id="linearGradient15559"
       gradientUnits="userSpaceOnUse"
       x1="459.76584"
       y1="546.18964"
       x2="459.76584"
       y2="583.90106"
       gradientTransform="matrix(2.6666667,0,0,2.6666667,-1134.3706,-1416.4558)" />
    <linearGradient
       id="linearGradient4508">
      <stop
         offset="0"
         style="stop-color:#75aadb;stop-opacity:1"
         id="stop4510" />
      <stop
         offset="1"
         style="stop-color:#5a83a9;stop-opacity:1"
         id="stop4512" />
    </linearGradient>
    <linearGradient
       inkscape:collect="always"
       xlink:href="#linearGradient4508"
       id="linearGradient15556"
       gradientUnits="userSpaceOnUse"
       gradientTransform="matrix(2.6666667,0,0,2.6666667,-1134.3706,-1414.3934)"
       x1="456.31311"
       y1="551.46545"
       x2="456.31311"
       y2="554.8988" />
    <linearGradient
       id="linearGradient12578">
      <stop
         id="stop12580"
         offset="0"
         style="stop-color:#e9b551;stop-opacity:1;" />
      <stop
         id="stop12582"
         offset="1"
         style="stop-color:#b48739;stop-opacity:1;" />
    </linearGradient>
    <linearGradient
       id="linearGradient5165-9">
      <stop
         offset="0"
         style="stop-color:#ffffff;stop-opacity:1"
         id="stop5167-6" />
      <stop
         offset="1"
         style="stop-color:#ffffff;stop-opacity:0"
         id="stop5169-7" />
    </linearGradient>
    <linearGradient
       id="linearGradient9121">
      <stop
         style="stop-color:#2f445a;stop-opacity:1"
         offset="0"
         id="stop9123" />
      <stop
         style="stop-color:#415f7c;stop-opacity:1"
         offset="1"
         id="stop9125" />
    </linearGradient>
    <linearGradient
       id="linearGradient12594">
      <stop
         id="stop12596"
         offset="0"
         style="stop-color:#e9b551;stop-opacity:1;" />
      <stop
         id="stop12598"
         offset="1"
         style="stop-color:#e9b551;stop-opacity:0;" />
    </linearGradient>
    <linearGradient
       id="linearGradient5316">
      <stop
         style="stop-color:#c0bfbb;stop-opacity:1;"
         offset="0"
         id="stop5320" />
      <stop
         style="stop-color:#798088;stop-opacity:1;"
         offset="1"
         id="stop5322" />
    </linearGradient>
    <linearGradient
       id="linearGradient9863">
      <stop
         style="stop-color:#2f445a;stop-opacity:1;"
         offset="0"
         id="stop9865" />
      <stop
         style="stop-color:#415f7c;stop-opacity:1"
         offset="1"
         id="stop9867" />
    </linearGradient>
    <linearGradient
       id="linearGradient12336">
      <stop
         id="stop12338"
         offset="0"
         style="stop-color:#ff6e00;stop-opacity:1;" />
      <stop
         id="stop12340"
         offset="1"
         style="stop-color:#eb2600;stop-opacity:1;" />
    </linearGradient>
    <linearGradient
       id="linearGradient5362">
      <stop
         style="stop-color:#ffffff;stop-opacity:1;"
         offset="0"
         id="stop5364" />
      <stop
         style="stop-color:#ffffff;stop-opacity:0;"
         offset="1"
         id="stop5366" />
    </linearGradient>
    <linearGradient
       id="linearGradient5439">
      <stop
         style="stop-color:#ffffff;stop-opacity:1;"
         offset="0"
         id="stop5441" />
      <stop
         style="stop-color:#000000;stop-opacity:1;"
         offset="1"
         id="stop5443" />
    </linearGradient>
    <linearGradient
       inkscape:collect="always"
       xlink:href="#linearGradient5439"
       id="linearGradient13309"
       gradientUnits="userSpaceOnUse"
       x1="499.90704"
       y1="953.39532"
       x2="652.75177"
       y2="1116.9413"
       gradientTransform="matrix(2.6765239,0,0,2.6765239,-1298.6765,-2514.903)" />
    <linearGradient
       inkscape:collect="always"
       id="linearGradient5398">
      <stop
         style="stop-color:#87c6ff;stop-opacity:1;"
         offset="0"
         id="stop5400" />
      <stop
         style="stop-color:#87c6ff;stop-opacity:0"
         offset="1"
         id="stop5402" />
    </linearGradient>
    <linearGradient
       inkscape:collect="always"
       xlink:href="#linearGradient5398"
       id="linearGradient13322"
       gradientUnits="userSpaceOnUse"
       x1="500.87799"
       y1="948.11993"
       x2="500.87799"
       y2="953.17468"
       gradientTransform="matrix(2.6765239,0,0,2.6765239,-1298.6765,-2514.903)" />
    <linearGradient
       id="linearGradient5344">
      <stop
         style="stop-color:#000000;stop-opacity:1;"
         offset="0"
         id="stop5346" />
      <stop
         style="stop-color:#000000;stop-opacity:0;"
         offset="1"
         id="stop5348" />
    </linearGradient>
    <linearGradient
       inkscape:collect="always"
       xlink:href="#linearGradient5344"
       id="linearGradient13314"
       gradientUnits="userSpaceOnUse"
       x1="544.89001"
       y1="919.05762"
       x2="506.01498"
       y2="969.80762"
       gradientTransform="translate(-485.21014,-859.4386)" />
    <linearGradient
       id="linearGradient8702">
      <stop
         id="stop8704"
         offset="0"
         style="stop-color:#aac736;stop-opacity:1;" />
      <stop
         id="stop8706"
         offset="1"
         style="stop-color:#5d8b2c;stop-opacity:1;" />
    </linearGradient>
    <linearGradient
       inkscape:collect="always"
       xlink:href="#linearGradient8702"
       id="linearGradient13316"
       gradientUnits="userSpaceOnUse"
       gradientTransform="matrix(2.6765239,0,0,2.6765239,-1779.5422,-994.63744)"
       x1="700.13062"
       y1="378.86951"
       x2="707.80457"
       y2="395.74899" />
    <inkscape:perspective
       sodipodi:type="inkscape:persp3d"
       inkscape:vp_x="0 : 526.18109 : 1"
       inkscape:vp_y="0 : 1000 : 0"
       inkscape:vp_z="744.09448 : 526.18109 : 1"
       inkscape:persp3d-origin="372.04724 : 350.78739 : 1"
       id="perspective10" />
    <inkscape:perspective
       id="perspective22402"
       inkscape:persp3d-origin="133.5 : 106 : 1"
       inkscape:vp_z="267 : 159 : 1"
       inkscape:vp_y="0 : 1000 : 0"
       inkscape:vp_x="0 : 159 : 1"
       sodipodi:type="inkscape:persp3d" />
    <linearGradient
       inkscape:collect="always"
       xlink:href="#linearGradient4689"
       id="linearGradient22409"
       x1="20.863827"
       y1="18.166332"
       x2="247.12524"
       y2="318.047"
       gradientUnits="userSpaceOnUse" />
  </defs>
  <sodipodi:namedview
     id="base"
     pagecolor="#ffffff"
     bordercolor="#666666"
     borderopacity="1.0"
     inkscape:pageopacity="0.0"
     inkscape:pageshadow="2"
     inkscape:zoom="2"
     inkscape:cx="88.095193"
     inkscape:cy="60.399237"
     inkscape:document-units="px"
     inkscape:current-layer="layer1"
     showgrid="false"
     inkscape:showpageshadow="false"
     inkscape:window-width="1014"
     inkscape:window-height="715"
     inkscape:window-x="0"
     inkscape:window-y="6"
     showguides="true"
     inkscape:guide-bbox="true" />
  <metadata
     id="metadata7">
    <rdf:RDF>
      <cc:Work
         rdf:about="">
        <dc:format>image/svg+xml</dc:format>
        <dc:type
           rdf:resource="http://purl.org/dc/dcmitype/StillImage" />
      </cc:Work>
    </rdf:RDF>
  </metadata>
  <g
     inkscape:label="Capa 1"
     inkscape:groupmode="layer"
     id="layer1">
    <path
       sodipodi:nodetypes="ccccccccc"
       id="path13707"
       d="M 0.79114746,5.482912 C 10.397281,6.405899 14.464187,17.544165 14.457014,25.848939 L 14.332801,101.85054 C 14.415281,111.17758 19.282103,120.45041 31.877733,127.21366 L 119.63449,112.23744 C 109.24049,110.32081 101.80921,100.02238 101.89337,91.650245 L 102.10259,28.818565 C 102.19374,20.720805 96.880653,12.573179 87.015263,11.698539 L 0.79114746,5.482912 z"
       style="fill:#f2f2f2;fill-rule:evenodd;stroke:none;stroke-width:0.5;stroke-linecap:round;stroke-linejoin:round;stroke-miterlimit:4;stroke-dasharray:none;stroke-opacity:1;display:inline"
       inkscape:export-filename="/home/dafeba/DCV/tallerD/bocetos/08-09-22-hastaahora.png"
       inkscape:export-xdpi="57.964222"
       inkscape:export-ydpi="57.964222" />
    <path
       style="fill:url(#linearGradient13716);fill-rule:evenodd;stroke:none;stroke-width:0.5;stroke-linecap:round;stroke-linejoin:round;stroke-miterlimit:4;stroke-dasharray:none;stroke-opacity:1;display:inline"
       d="M 0.79114746,5.482912 C 10.397281,6.405899 14.464187,17.544165 14.457014,25.848939 L 102.10259,28.818565 C 102.19374,20.720805 96.880653,12.573179 87.015263,11.698539 L 0.79114746,5.482912 z"
       id="path13709"
       sodipodi:nodetypes="ccccc"
       inkscape:export-filename="/home/dafeba/DCV/tallerD/bocetos/08-09-22-hastaahora.png"
       inkscape:export-xdpi="57.964222"
       inkscape:export-ydpi="57.964222" />
    <path
       style="fill:url(#linearGradient13718);fill-rule:evenodd;stroke:none;stroke-width:0.5;stroke-linecap:round;stroke-linejoin:round;stroke-miterlimit:4;stroke-dasharray:none;stroke-opacity:1;display:inline"
       d="M 14.332801,101.85054 C 14.415281,111.17758 19.282103,120.45041 31.877733,127.21366 L 119.63449,112.23744 C 109.24049,110.32081 101.80921,100.02238 101.89337,91.650245 L 14.332801,101.85054 z"
       id="path13711"
       sodipodi:nodetypes="ccccc"
       inkscape:export-filename="/home/dafeba/DCV/tallerD/bocetos/08-09-22-hastaahora.png"
       inkscape:export-xdpi="57.964222"
       inkscape:export-ydpi="57.964222" />
    <path
       sodipodi:nodetypes="cscccccccccc"
       id="path11214"
       d="M 1.6750415,5.571312 C 4.9003475,5.881205 6.6173345,7.254299 8.6492015,9.373472 C 12.668987,13.565952 14.461787,20.332539 14.457014,25.848939 L 14.332801,101.85054 C 14.406294,110.16003 18.277143,118.42651 28.027463,124.91371 C 30.467893,126.52366 33.713283,126.52366 37.144373,126.15219 L 119.63449,112.23744 C 109.24049,110.32081 101.80921,100.02238 101.89337,91.650245 L 102.10259,28.818565 C 102.19374,20.720805 96.880653,12.573179 87.015263,11.698539 L 9.8308815,6.134565 L 1.6750415,5.571312 z"
       style="fill:none;fill-rule:evenodd;stroke:url(#linearGradient11216);stroke-width:2.66666675;stroke-linecap:round;stroke-linejoin:round;stroke-miterlimit:4;stroke-dasharray:none;stroke-opacity:1;display:inline"
       inkscape:export-filename="/home/dafeba/DCV/tallerD/bocetos/08-09-22-hastaahora.png"
       inkscape:export-xdpi="57.964222"
       inkscape:export-ydpi="57.964222" />
    <path
       id="path13854"
       d="M 91.634884,20.362485 C 83.181409,20.606645 74.533888,22.211705 67.515099,27.326648 C 57.950619,25.94542 47.982285,26.631455 38.894214,30.214228 C 32.959524,32.576798 28.306511,36.802014 24.541379,41.764548 C 24.498982,41.825669 24.479687,41.864043 24.456314,41.934405 C 24.40359,42.025829 24.299502,42.169379 24.286457,42.274121 C 24.299502,42.378807 24.40359,42.437456 24.456314,42.528907 C 24.479687,42.599269 24.499254,42.722626 24.541379,42.783693 C 24.571274,42.819649 24.590298,42.838646 24.626172,42.868622 C 24.708791,42.956513 24.768037,42.996056 24.881094,43.03848 C 24.979204,43.057368 25.1227,43.057314 25.22081,43.03848 C 25.286578,43.04685 25.324626,43.046796 25.390395,43.03848 C 36.669758,39.073541 48.024953,34.801906 59.956569,35.904459 C 63.531461,36.185553 66.96014,37.526722 70.487743,38.70711 C 70.617379,38.740837 70.782344,38.740891 70.912251,38.70711 C 71.016884,38.694228 71.075587,38.674796 71.167174,38.622181 C 71.237563,38.5987 71.360676,38.579431 71.422096,38.537252 C 80.819164,29.466773 94.367282,27.134315 106.92207,24.523997 C 106.95849,24.493993 107.06258,24.474942 107.0922,24.439068 C 107.71266,24.202463 108.10863,24.025866 108.45106,23.674709 C 108.62201,23.499171 108.84921,23.232427 108.87557,22.910349 C 108.90193,22.588272 108.69647,22.332806 108.53585,22.14599 C 108.21435,21.772276 107.84637,21.608887 107.43192,21.466559 C 107.01746,21.324314 106.51197,21.227373 105.98799,21.126844 C 103.8929,20.724648 101.12544,20.512095 100.12777,20.447414 C 100.09488,20.445402 100.07613,20.445348 100.04297,20.447414 C 97.280952,20.328269 94.491482,20.279975 91.634884,20.362485 z M 101.99647,31.912804 C 97.59811,31.983166 93.254646,32.471079 89.087291,33.526452 C 81.388255,35.475956 74.459694,39.372055 69.893106,45.331558 C 61.336357,43.595667 51.039723,45.488805 42.036452,49.068426 C 37.205693,50.989122 32.799993,53.401726 29.297393,56.032589 C 25.804848,58.65598 23.040653,61.477301 22.078307,64.950116 C 21.742669,66.073296 22.107659,67.289395 23.012388,68.007553 C 23.916846,68.725711 25.2469,68.829555 26.239955,68.26234 C 44.394348,58.204403 60.562893,55.314268 73.629974,61.892678 C 74.86844,62.515281 76.385201,62.166923 77.197256,61.04339 C 84.75198,50.474847 98.562086,41.485682 114.99045,38.622181 C 116.32675,38.379625 117.26518,37.249269 117.28366,35.904459 C 117.3016,34.559676 116.39361,33.377983 115.07524,33.101808 C 110.86032,32.258852 106.39456,31.842443 101.99647,31.912804 z"
       style="fill:url(#linearGradient13856);fill-opacity:1;fill-rule:evenodd;stroke:none;stroke-width:1pt;stroke-linecap:butt;stroke-linejoin:miter;stroke-opacity:1;display:inline" />
    <g
       style="display:inline"
       transform="matrix(2.7177223,0,0,2.7177223,-2296.6458,-1270.4451)"
       id="g13785">
      <path
         style="fill:#000000;fill-opacity:1;fill-rule:evenodd;stroke:none;stroke-width:1pt;stroke-linecap:butt;stroke-linejoin:miter;stroke-opacity:1"
         id="path12978"
         d="M 881.63579,473.14561 C 878.52519,473.23544 875.35929,473.81553 872.77669,475.6976 C 869.25739,475.18937 865.58459,475.43655 862.24069,476.75485 C 860.05709,477.62419 858.33989,479.19432 856.95439,481.02031 C 856.93889,481.04279 856.92659,481.06733 856.91799,481.09324 C 856.89859,481.12688 856.88619,481.16407 856.88149,481.20261 C 856.88619,481.24113 856.89859,481.27833 856.91799,481.31197 C 856.92659,481.33787 856.93889,481.36242 856.95439,481.38488 C 856.96539,481.39809 856.97759,481.4103 856.99079,481.42134 C 857.02119,481.45371 857.05859,481.47865 857.10019,481.49425 C 857.13639,481.50119 857.17349,481.50119 857.20959,481.49425 C 857.23379,481.49733 857.25829,481.49733 857.28249,481.49425 C 861.43269,480.03532 865.61559,478.46366 870.00599,478.86935 C 871.32149,478.9728 872.57249,479.45583 873.87039,479.89015 C 873.91819,479.90258 873.96839,479.90258 874.01629,479.89015 C 874.05479,479.88543 874.09199,479.87305 874.12569,479.85369 C 874.15149,479.84503 874.17609,479.83277 874.19849,479.81724 C 877.65619,476.4797 882.66689,475.63729 887.28659,474.6768 C 887.29979,474.66575 887.31199,474.65355 887.32309,474.64035 C 887.55129,474.55329 887.70749,474.47791 887.83339,474.34869 C 887.89639,474.28408 887.96959,474.21201 887.97919,474.09349 C 887.98909,473.97497 887.92899,473.87059 887.86989,473.80183 C 887.75159,473.66434 887.62139,473.599 887.46889,473.54663 C 887.31629,473.49426 887.11479,473.47426 886.92199,473.43726 C 886.15089,473.2893 885.13799,473.20586 884.77099,473.18206 C 884.75899,473.18129 884.74669,473.18129 884.73459,473.18206 C 883.71829,473.13819 882.68699,473.11525 881.63579,473.14561 z" />
      <path
         style="fill:#88c2ff;fill-opacity:1;stroke:none"
         id="path12980"
         d="M 858.60079,480.19394 C 864.49109,477.93652 869.84579,477.27271 873.86139,479.05648 C 877.14309,475.85877 884.39129,474.1149 886.73619,474.10989 C 878.21879,473.19443 874.69089,475.13279 873.00159,476.39892 C 867.52079,475.73744 862.38999,476.32892 858.60079,480.19278" />
      <path
         style="fill:#000000;fill-opacity:1;fill-rule:evenodd;stroke:none;stroke-width:1pt;stroke-linecap:butt;stroke-linejoin:miter;stroke-opacity:1"
         id="path12982"
         d="M 880.70149,477.99769 C 877.86879,478.71505 875.33389,480.13221 873.65359,482.32502 C 870.50519,481.68631 866.70039,482.39787 863.38759,483.715 C 861.61009,484.42173 859.98899,485.2924 858.70019,486.26045 C 857.41499,487.22571 856.40469,488.27981 856.05069,489.55764 C 855.92719,489.97093 856.07789,490.41138 856.41069,490.67563 C 856.74349,490.93988 857.20879,490.96291 857.57409,490.7542 C 864.25409,487.05331 870.20149,486.00144 875.00969,488.42199 C 875.46539,488.65107 876.02999,488.51866 876.32859,488.10525 C 879.10839,484.21651 884.18399,480.92008 890.22899,479.86644 C 890.72059,479.77718 891.08889,479.35212 891.09559,478.8573 C 891.10219,478.36245 890.74419,477.91757 890.25929,477.81595 C 887.15739,477.19562 883.76859,477.22103 880.70149,477.99769 z" />
      <path
         style="fill:#88c2ff;fill-opacity:1;stroke:none"
         id="path12984"
         d="M 857.02349,489.89442 C 864.43269,485.71091 870.43379,484.95377 875.51909,487.49933 C 878.89889,482.0827 887.43849,478.94682 890.31429,478.85932 C 881.40589,476.9484 875.23449,481.07124 874.10989,483.39049 C 869.11909,482.0127 858.88079,485.40874 857.02349,489.89324" />
    </g>
  </g>
</svg>
