<?xml version="1.0" encoding="UTF-8" standalone="no"?>
<!-- Created with Inkscape (http://www.inkscape.org/) -->

<svg
   xmlns:dc="http://purl.org/dc/elements/1.1/"
   xmlns:cc="http://creativecommons.org/ns#"
   xmlns:rdf="http://www.w3.org/1999/02/22-rdf-syntax-ns#"
   xmlns:svg="http://www.w3.org/2000/svg"
   xmlns="http://www.w3.org/2000/svg"
   xmlns:xlink="http://www.w3.org/1999/xlink"
   xmlns:sodipodi="http://sodipodi.sourceforge.net/DTD/sodipodi-0.dtd"
   xmlns:inkscape="http://www.inkscape.org/namespaces/inkscape"
   width="16"
   height="16"
   id="svg2"
   sodipodi:version="0.32"
   inkscape:version="0.48.3.1 r9886"
   version="1.0"
   sodipodi:docname="audio-volume-low-symbolic.svg"
   inkscape:output_extension="org.inkscape.output.svg.inkscape">
  <defs
     id="defs4">
    <linearGradient
       inkscape:collect="always"
       xlink:href="#linearGradient8702"
       id="linearGradient3565"
       x1="8.7566776"
       y1="5.9313111"
       x2="124.26582"
       y2="125.78591"
       gradientUnits="userSpaceOnUse"
       gradientTransform="matrix(0.125,0,0,0.125,0,112)" />
    <linearGradient
       id="linearGradient8702">
      <stop
         id="stop8704"
         offset="0"
         style="stop-color:#aac736;stop-opacity:1;" />
      <stop
         id="stop8706"
         offset="1"
         style="stop-color:#5d8b2c;stop-opacity:1;" />
    </linearGradient>
    <linearGradient
       inkscape:collect="always"
       xlink:href="#linearGradient8702"
       id="linearGradient3571"
       gradientUnits="userSpaceOnUse"
       x1="13.435027"
       y1="7.7918472"
       x2="122.68303"
       y2="124.11092"
       gradientTransform="matrix(0.125,0,0,0.125,0,112)" />
  </defs>
  <sodipodi:namedview
     id="base"
     pagecolor="#ffffff"
     bordercolor="#666666"
     borderopacity="1.0"
     inkscape:pageopacity="0.0"
     inkscape:pageshadow="2"
     inkscape:zoom="32.625"
     inkscape:cx="15.448276"
     inkscape:cy="8"
     inkscape:document-units="px"
     inkscape:current-layer="layer1"
     showgrid="false"
     inkscape:showpageshadow="false"
     inkscape:window-width="1366"
     inkscape:window-height="716"
     inkscape:window-x="0"
     inkscape:window-y="0"
     showguides="true"
     inkscape:guide-bbox="true"
     inkscape:window-maximized="1" />
  <metadata
     id="metadata7">
    <rdf:RDF>
      <cc:Work
         rdf:about="">
        <dc:format>image/svg+xml</dc:format>
        <dc:type
           rdf:resource="http://purl.org/dc/dcmitype/StillImage" />
        <dc:title />
      </cc:Work>
    </rdf:RDF>
  </metadata>
  <g
     inkscape:label="Capa 1"
     inkscape:groupmode="layer"
     id="layer1"
     transform="translate(0,-112)">
    <path
       inkscape:connector-curvature="0"
       style="fill:url(#linearGradient3571);fill-opacity:1;stroke:none;display:inline"
       d="m 11.09375,114.60938 -0.707031,0.73046 c 0.954821,1.20289 1.562586,2.8734 1.648437,4.78516 0.0057,0.12745 0.0107,0.2572 0.01171,0.38672 0.0034,0.43005 -0.02118,0.84697 -0.07031,1.25 -0.14739,1.2091 -0.521089,2.28916 -1.066406,3.19141 l 0.738281,0.66796 c 0.89527,-1.40548 1.413663,-3.17987 1.398444,-5.11718 -0.01805,-2.29803 -0.735435,-4.40451 -1.953125,-5.89453 z"
       id="path3548" />
    <path
       style="fill:url(#linearGradient3565);stroke:none;display:inline"
       d="m 6.7265625,114.19531 c -0.080271,-0.001 -0.1595663,-8.5e-4 -0.2421875,0.004 -1.29654,0.0745 -2.5141288,0.88399 -3.3710938,2.17969 -0.00476,0.007 -0.010887,0.0123 -0.015625,0.0195 l -1.4140625,1.57422 -0.2226562,0.008 -0.00391,0 c -0.48678875,0.004 -0.85448875,0.30966 -1.0703125,0.75391 -0.21642375,0.44547 -0.30859625,1.03729 -0.30859375,1.6914 0,0.65416 0.0932875,1.23285 0.296875,1.67578 0.19975875,0.43461 0.52764875,0.74166 0.96093745,0.80078 l 0,0.004 c 0.00796,0.001 0.015401,0.003 0.023438,0.004 l 0.2304688,0.0586 1.2109375,1.67578 c 0.1498437,0.26091 0.3193825,0.50001 0.5,0.72266 6.25e-4,8.7e-4 -6.25e-4,0.003 0,0.004 a 0.16732924,0.16732924 0 0 0 0.03125,0.0547 c 0.942375,1.12872 2.2653537,1.68413 3.640625,1.45703 2.440735,-0.40303 4.301157,-2.83452 4.273437,-6.36328 -0.02794,-3.55744 -1.970287,-6.10856 -4.2773433,-6.3125 -0.080666,-0.007 -0.1619162,-0.0104 -0.2421875,-0.0117 z m -0.070313,0.875 c 0.0688,7.6e-4 0.1378462,0.006 0.2070312,0.0117 2.048545,0.17164 3.6280213,2.35163 3.6523443,5.44922 0.02412,3.07326 -1.5886455,5.14102 -3.6679693,5.48438 -2.2770425,0.376 -4.2460937,-1.76712 -4.2460937,-5.22657 0,-3.36335 1.92187,-5.74222 4.0546875,-5.71875 z m -0.015625,0.91407 c -1.0972675,-0.0121 -2.1294925,0.73468 -2.7578125,1.96875 0.454925,-0.55638 1.0512737,-0.86722 1.6992187,-0.80469 1.16479,0.11356 2.1281763,1.72986 2.078125,3.37109 -0.050386,1.65227 -1.0905787,3.29333 -2.2421875,3.42578 -0.6856837,0.0789 -1.3013087,-0.26897 -1.7382812,-0.88672 0.6075625,1.47411 1.8017625,2.27255 3.1210937,2.05469 1.734515,-0.28641 3.0787175,-2.01449 3.0585938,-4.57812 -0.020289,-2.58393 -1.3380338,-4.3998 -3.046875,-4.54297 -0.057711,-0.005 -0.1144838,-0.007 -0.171875,-0.008 z m -1.1484375,1.98437 c -0.9375775,0.0432 -1.6911488,1.16304 -1.734375,2.60938 -0.045851,1.53432 0.7724912,2.71835 1.8007812,2.59765 0.863545,-0.10136 1.65361,-1.34495 1.6914063,-2.60937 0.037529,-1.25598 -0.6328113,-2.48799 -1.5703125,-2.58985 -0.063981,-0.007 -0.124995,-0.0107 -0.1875,-0.008 z"
       id="path5245"
       inkscape:connector-curvature="0" />
  </g>
</svg>
