<?xml version="1.0" encoding="UTF-8" standalone="no"?>
<!-- Created with Inkscape (http://www.inkscape.org/) -->

<svg
   xmlns:dc="http://purl.org/dc/elements/1.1/"
   xmlns:cc="http://creativecommons.org/ns#"
   xmlns:rdf="http://www.w3.org/1999/02/22-rdf-syntax-ns#"
   xmlns:svg="http://www.w3.org/2000/svg"
   xmlns="http://www.w3.org/2000/svg"
   xmlns:xlink="http://www.w3.org/1999/xlink"
   xmlns:sodipodi="http://sodipodi.sourceforge.net/DTD/sodipodi-0.dtd"
   xmlns:inkscape="http://www.inkscape.org/namespaces/inkscape"
   width="128"
   height="128"
   id="svg52672"
   sodipodi:version="0.32"
   inkscape:version="0.48.3.1 r9886"
   version="1.0"
   sodipodi:docname="audio-volume-0 (copia).svg"
   inkscape:output_extension="org.inkscape.output.svg.inkscape">
  <defs
     id="defs52674">
    <linearGradient
       inkscape:collect="always"
       xlink:href="#linearGradient5344"
       id="linearGradient58832"
       gradientUnits="userSpaceOnUse"
       gradientTransform="translate(-184,-280)"
       x1="519.31262"
       y1="723.67017"
       x2="511.42725"
       y2="667.20789" />
    <linearGradient
       inkscape:collect="always"
       xlink:href="#linearGradient5362"
       id="linearGradient58830"
       gradientUnits="userSpaceOnUse"
       gradientTransform="translate(-184,-280)"
       x1="504.91962"
       y1="635.44617"
       x2="504.48212"
       y2="641.10242" />
    <linearGradient
       inkscape:collect="always"
       xlink:href="#linearGradient5451"
       id="linearGradient58828"
       gradientUnits="userSpaceOnUse"
       gradientTransform="translate(-184,-280)"
       x1="484.70901"
       y1="674.9306"
       x2="533.03339"
       y2="674.9306" />
    <linearGradient
       id="linearGradient5451">
      <stop
         style="stop-color:#000000;stop-opacity:0.35099337;"
         offset="0"
         id="stop5453" />
      <stop
         id="stop5459"
         offset="0.45549738"
         style="stop-color:#000000;stop-opacity:0.29139072;" />
      <stop
         style="stop-color:#000000;stop-opacity:0;"
         offset="1"
         id="stop5455" />
    </linearGradient>
    <linearGradient
       id="linearGradient5362">
      <stop
         style="stop-color:#ffffff;stop-opacity:1;"
         offset="0"
         id="stop5364" />
      <stop
         style="stop-color:#ffffff;stop-opacity:0;"
         offset="1"
         id="stop5366" />
    </linearGradient>
    <linearGradient
       id="linearGradient5344">
      <stop
         style="stop-color:#000000;stop-opacity:1;"
         offset="0"
         id="stop5346" />
      <stop
         style="stop-color:#000000;stop-opacity:0;"
         offset="1"
         id="stop5348" />
    </linearGradient>
    <linearGradient
       inkscape:collect="always"
       xlink:href="#linearGradient9863"
       id="linearGradient10955"
       gradientUnits="userSpaceOnUse"
       gradientTransform="matrix(2.6765239,0,0,2.6765239,-977.438,-940.39043)"
       x1="392.3085"
       y1="398.4826"
       x2="392.3085"
       y2="352.06906" />
    <linearGradient
       id="linearGradient9863">
      <stop
         style="stop-color:#2f445a;stop-opacity:1;"
         offset="0"
         id="stop9865" />
      <stop
         style="stop-color:#415f7c;stop-opacity:1"
         offset="1"
         id="stop9867" />
    </linearGradient>
    <linearGradient
       inkscape:collect="always"
       xlink:href="#linearGradient5344-3"
       id="linearGradient8465"
       gradientUnits="userSpaceOnUse"
       gradientTransform="matrix(2.7642986,0,0,2.8210385,-1342.4466,-1789.1735)"
       x1="497.4556"
       y1="669.95612"
       x2="504.83231"
       y2="649.57263" />
    <linearGradient
       id="linearGradient5344-3">
      <stop
         style="stop-color:#000000;stop-opacity:1;"
         offset="0"
         id="stop5346-1" />
      <stop
         style="stop-color:#000000;stop-opacity:0;"
         offset="1"
         id="stop5348-2" />
    </linearGradient>
    <linearGradient
       inkscape:collect="always"
       xlink:href="#linearGradient5344-3"
       id="linearGradient8463"
       gradientUnits="userSpaceOnUse"
       gradientTransform="matrix(2.1481476,0,0,2.2660452,-1072.5125,-1414.5137)"
       x1="504.64963"
       y1="667.4726"
       x2="503.15131"
       y2="654.14331" />
    <radialGradient
       inkscape:collect="always"
       xlink:href="#linearGradient5439-8"
       id="radialGradient8459"
       gradientUnits="userSpaceOnUse"
       gradientTransform="matrix(4.9397802,0,0,5.7128195,-2434.1566,-3693.5548)"
       cx="502.22336"
       cy="657.59094"
       fx="502.22336"
       fy="657.59094"
       r="5.6949959" />
    <linearGradient
       id="linearGradient5439-8">
      <stop
         style="stop-color:#ffffff;stop-opacity:1;"
         offset="0"
         id="stop5441-3" />
      <stop
         style="stop-color:#000000;stop-opacity:1;"
         offset="1"
         id="stop5443-1" />
    </linearGradient>
    <linearGradient
       inkscape:collect="always"
       xlink:href="#linearGradient5439-8"
       id="linearGradient8457"
       gradientUnits="userSpaceOnUse"
       gradientTransform="matrix(3.1132681,0.09494446,-0.09345971,3.0643206,-1468.494,-1984.6058)"
       x1="494.64386"
       y1="641.93042"
       x2="509.46909"
       y2="661.21436" />
    <linearGradient
       inkscape:collect="always"
       xlink:href="#linearGradient5439-8"
       id="linearGradient8455"
       gradientUnits="userSpaceOnUse"
       gradientTransform="matrix(2.2024173,0,0,2.2023236,-1059.2662,-1371.7939)"
       x1="523.76074"
       y1="673.95343"
       x2="490.40436"
       y2="648.80872" />
    <linearGradient
       inkscape:collect="always"
       xlink:href="#linearGradient7210-4"
       id="linearGradient8453"
       gradientUnits="userSpaceOnUse"
       gradientTransform="matrix(2.4865983,0,0,2.4864923,-1202.2427,-1557.6523)"
       x1="494.4577"
       y1="637.09772"
       x2="515.29169"
       y2="668.90833" />
    <linearGradient
       id="linearGradient7210-4">
      <stop
         id="stop7212-7"
         offset="0"
         style="stop-color:#5d8b2c;stop-opacity:1;" />
      <stop
         id="stop8994-1"
         offset="0.5"
         style="stop-color:#aac736;stop-opacity:1;" />
      <stop
         id="stop7214-5"
         offset="1"
         style="stop-color:#5d8b2c;stop-opacity:1;" />
    </linearGradient>
    <linearGradient
       inkscape:collect="always"
       xlink:href="#linearGradient5362-7"
       id="linearGradient8449"
       gradientUnits="userSpaceOnUse"
       gradientTransform="matrix(2.1481476,0,0,2.2660452,-1072.5125,-1414.5137)"
       x1="508.48956"
       y1="642.86359"
       x2="506.59845"
       y2="653.34991" />
    <linearGradient
       id="linearGradient5362-7">
      <stop
         style="stop-color:#ffffff;stop-opacity:1;"
         offset="0"
         id="stop5364-8" />
      <stop
         style="stop-color:#ffffff;stop-opacity:0;"
         offset="1"
         id="stop5366-1" />
    </linearGradient>
    <linearGradient
       id="linearGradient5316-5">
      <stop
         style="stop-color:#aac736;stop-opacity:1;"
         offset="0"
         id="stop5320-6" />
      <stop
         style="stop-color:#5d8b2c;stop-opacity:1;"
         offset="1"
         id="stop5322-4" />
    </linearGradient>
    <linearGradient
       y2="659.34265"
       x2="504.58081"
       y1="645.81702"
       x1="505.28644"
       gradientTransform="matrix(2.1481476,0,0,2.2660452,-1072.5125,-1414.5137)"
       gradientUnits="userSpaceOnUse"
       id="linearGradient3865"
       xlink:href="#linearGradient5316-5"
       inkscape:collect="always" />
  </defs>
  <sodipodi:namedview
     id="base"
     pagecolor="#ffffff"
     bordercolor="#666666"
     borderopacity="1.0"
     inkscape:pageopacity="0.0"
     inkscape:pageshadow="2"
     inkscape:zoom="2"
     inkscape:cx="126.81318"
     inkscape:cy="44.173957"
     inkscape:document-units="px"
     inkscape:current-layer="layer1"
     showgrid="false"
     inkscape:window-width="1024"
     inkscape:window-height="713"
     inkscape:window-x="0"
     inkscape:window-y="0"
     inkscape:window-maximized="0" />
  <metadata
     id="metadata52677">
    <rdf:RDF>
      <cc:Work
         rdf:about="">
        <dc:format>image/svg+xml</dc:format>
        <dc:type
           rdf:resource="http://purl.org/dc/dcmitype/StillImage" />
      </cc:Work>
    </rdf:RDF>
  </metadata>
  <g
     inkscape:label="Capa 1"
     inkscape:groupmode="layer"
     id="layer1">
    <g
       inkscape:export-ydpi="89.986237"
       inkscape:export-xdpi="89.986237"
       inkscape:export-filename="/home/dafeba/DCV/tallerD/elementos.png"
       transform="translate(424,80)"
       id="g58804">
      <rect
         style="opacity:1;fill:#f2f2f2;fill-opacity:1;stroke:none;stroke-width:0.1;stroke-linecap:round;stroke-linejoin:round;stroke-miterlimit:4;stroke-dasharray:none;stroke-opacity:0.30041151"
         id="rect58806"
         width="47.823223"
         height="48"
         x="301.18933"
         y="351.1709" />
      <path
         style="fill:url(#linearGradient58828);fill-rule:evenodd;stroke:none;stroke-width:1px;stroke-linecap:butt;stroke-linejoin:miter;stroke-opacity:1"
         d="M 313.09207,399.15115 L 301.20351,395.7431 L 336.08403,390.7653 L 349.00384,390.68796 L 349.03336,399.15114 L 313.09207,399.15115 z"
         id="path58808"
         sodipodi:nodetypes="cccccc" />
      <path
         style="fill:#f2f2f2;fill-rule:evenodd;stroke:none;stroke-width:0.5;stroke-linecap:round;stroke-linejoin:round;stroke-miterlimit:4;stroke-dasharray:none;stroke-opacity:1"
         d="M 301.48601,353.22699 C 305.08831,353.57311 306.6134,357.74996 306.61071,360.86425 L 306.56413,389.36485 C 306.59506,392.86249 308.42012,396.3398 313.14348,398.87602 L 346.05226,393.25994 C 342.15451,392.5412 339.36778,388.67929 339.39934,385.53974 L 339.4778,361.97786 C 339.51198,358.9412 337.51957,355.88584 333.82005,355.55785 L 301.48601,353.22699 z"
         id="path58810"
         sodipodi:nodetypes="ccccccccc" />
      <path
         sodipodi:nodetypes="ccccc"
         id="path58812"
         d="M 301.48601,353.22699 C 305.08831,353.57311 306.6134,357.74996 306.61071,360.86425 L 339.4778,361.97786 C 339.51198,358.9412 337.51957,355.88584 333.82005,355.55785 L 301.48601,353.22699 z"
         style="fill:url(#linearGradient58830);fill-rule:evenodd;stroke:none;stroke-width:0.5;stroke-linecap:round;stroke-linejoin:round;stroke-miterlimit:4;stroke-dasharray:none;stroke-opacity:1" />
      <path
         sodipodi:nodetypes="ccccc"
         id="path58814"
         d="M 306.56413,389.36485 C 306.59506,392.86249 308.42012,396.3398 313.14348,398.87602 L 346.05226,393.25994 C 342.15451,392.5412 339.36778,388.67929 339.39934,385.53974 L 306.56413,389.36485 z"
         style="fill:url(#linearGradient58832);fill-rule:evenodd;stroke:none;stroke-width:0.5;stroke-linecap:round;stroke-linejoin:round;stroke-miterlimit:4;stroke-dasharray:none;stroke-opacity:1" />
      <path
         sodipodi:nodetypes="ccccccccc"
         id="path58816"
         d="M 301.48601,353.22699 C 305.08831,353.57311 306.6134,357.74996 306.61071,360.86425 L 306.56413,389.36485 C 306.59506,392.86249 308.42012,396.3398 313.14348,398.87602 L 346.05226,393.25994 C 342.15451,392.5412 339.36778,388.67929 339.39934,385.53974 L 339.4778,361.97786 C 339.51198,358.9412 337.51957,355.88584 333.82005,355.55785 L 301.48601,353.22699 z"
         style="fill:none;fill-rule:evenodd;stroke:#000000;stroke-width:0.5;stroke-linecap:round;stroke-linejoin:round;stroke-miterlimit:4;stroke-dasharray:none;stroke-opacity:1" />
    </g>
    <path
       sodipodi:nodetypes="ccccc"
       id="path58818"
       d="M 740.12551,445.55112 L 757.25142,445.69471 L 757.28066,447.8612 L 740.12588,448.00172 L 740.12551,445.55112 z"
       style="fill:#000000;fill-rule:evenodd;stroke:none;stroke-width:1px;stroke-linecap:butt;stroke-linejoin:miter;stroke-opacity:1" />
    <path
       style="fill:#000000;fill-rule:evenodd;stroke:none;stroke-width:1px;stroke-linecap:butt;stroke-linejoin:miter;stroke-opacity:1"
       d="M 744.24688,449.98324 L 754.3118,449.81922 L 754.31233,452.041 L 744.12653,452.24935 L 744.24688,449.98324 z"
       id="path58820"
       sodipodi:nodetypes="ccccc" />
    <path
       sodipodi:nodetypes="ccccc"
       id="path58822"
       d="M 737.18797,454.68729 L 758.68836,453.88522 L 758.75025,455.99227 L 737.18522,457.06633 L 737.18797,454.68729 z"
       style="fill:#000000;fill-rule:evenodd;stroke:none;stroke-width:1px;stroke-linecap:butt;stroke-linejoin:miter;stroke-opacity:1" />
    <path
       style="fill:#000000;fill-rule:evenodd;stroke:none;stroke-width:1px;stroke-linecap:butt;stroke-linejoin:miter;stroke-opacity:1"
       d="M 747.11973,459.21937 L 751.38008,458.93979 L 751.25403,461.03473 L 746.94583,461.39831 L 747.11973,459.21937 z"
       id="path58824"
       sodipodi:nodetypes="ccccc" />
    <path
       sodipodi:nodetypes="ccccc"
       id="path58826"
       d="M 742.54569,464.13694 L 754.55952,462.8959 L 754.44101,465.07791 L 742.37806,466.57431 L 742.54569,464.13694 z"
       style="fill:#000000;fill-rule:evenodd;stroke:none;stroke-width:1px;stroke-linecap:butt;stroke-linejoin:miter;stroke-opacity:1" />
    <path
       inkscape:export-ydpi="57.964222"
       inkscape:export-xdpi="57.964222"
       inkscape:export-filename="/home/dafeba/DCV/tallerD/bocetos/08-09-22-hastaahora.png"
       style="fill:url(#linearGradient3865);fill-opacity:1;stroke:none;display:inline"
       d="m 32.447791,67.68097 c 0,8.97484 1.059529,37.97958 -4.751392,38.88899 L 14.211912,86.531728 10.988923,85.947898 C 4.911982,85.262253 1.910368,77.578568 1.910368,67.373009 c 0,-10.205559 3.032555,-18.138018 9.803705,-18.165747 l 3.037025,-0.12957 17.20523,-20.366233 c 6.351471,0.515204 0.491463,30.054545 0.491463,38.969511 z"
       id="path8425"
       sodipodi:nodetypes="cccczcccz"
       inkscape:connector-curvature="0" />
    <path
       inkscape:connector-curvature="0"
       sodipodi:nodetypes="ccccc"
       id="path8427"
       d="M 27.696399,106.56996 14.211912,86.531728 C 7.3765253,75.61333 8.6946063,57.089376 14.751098,49.077692 L 31.956328,28.711459 C 24.288302,43.375277 21.407961,92.063701 27.696399,106.56996 z"
       style="fill:url(#linearGradient8449);fill-opacity:1;stroke:none;display:inline"
       inkscape:export-filename="/home/dafeba/DCV/tallerD/bocetos/08-09-22-hastaahora.png"
       inkscape:export-xdpi="57.964222"
       inkscape:export-ydpi="57.964222" />
    <path
       style="fill:url(#linearGradient8453);fill-opacity:1;stroke:none;display:inline"
       d="M 88.68199,68.198851 C 88.90012,95.957348 74.34492,114.64179 55.56429,117.743 34.99734,121.13916 16.31646,101.76155 16.31646,70.5149 c 0,-31.358654 19.37303,-53.298174 39.36158,-51.531133 17.53685,1.550269 32.7842,21.236798 33.00395,49.215084 z"
       id="path8431"
       sodipodi:nodetypes="cszsz"
       inkscape:export-filename="/home/dafeba/DCV/tallerD/bocetos/08-09-22-hastaahora.png"
       inkscape:export-xdpi="57.964222"
       inkscape:export-ydpi="57.964222"
       inkscape:connector-curvature="0" />
    <path
       inkscape:connector-curvature="0"
       sodipodi:nodetypes="cszsz"
       id="path8433"
       d="M 84.125472,68.247108 C 84.31845,92.833229 71.426972,109.38237 54.792376,112.12918 36.576035,115.13719 20.808768,97.974082 20.808768,70.298477 c 0,-27.774816 16.373259,-47.125817 34.084513,-45.641925 16.388356,1.37311 29.037608,18.809807 29.232191,43.590556 z"
       style="fill:url(#linearGradient8455);fill-opacity:1;stroke:none;display:inline"
       inkscape:export-filename="/home/dafeba/DCV/tallerD/bocetos/08-09-22-hastaahora.png"
       inkscape:export-xdpi="57.964222"
       inkscape:export-ydpi="57.964222" />
    <path
       inkscape:connector-curvature="0"
       style="fill:url(#linearGradient8457);fill-opacity:1;stroke:none;display:inline"
       d="M 61.27117,68.143607 C 60.868085,81.361728 52.555338,94.510579 43.342475,95.570215 32.371537,96.832009 23.629289,84.453113 24.118504,68.413427 c 0.491891,-16.127948 9.600342,-28.266332 20.532523,-27.2113 9.318318,0.908466 17.020551,13.811632 16.620143,26.94148 z"
       id="path8435"
       sodipodi:nodetypes="cszsz"
       inkscape:export-filename="/home/dafeba/DCV/tallerD/bocetos/08-09-22-hastaahora.png"
       inkscape:export-xdpi="57.964222"
       inkscape:export-ydpi="57.964222" />
    <path
       inkscape:connector-curvature="0"
       sodipodi:nodetypes="cszsz"
       id="path8437"
       d="M 59.761878,68.526752 C 59.421692,79.907251 52.296518,91.107808 44.52416,92.020127 35.269008,93.106502 27.893846,82.44853 28.306539,68.638791 28.721534,54.753119 36.414346,44.215358 45.628226,45.21065 c 8.438009,0.916736 14.471429,12.011615 14.133652,23.316102 z"
       style="fill:url(#radialGradient8459);fill-opacity:1;stroke:none;display:inline"
       inkscape:export-filename="/home/dafeba/DCV/tallerD/bocetos/08-09-22-hastaahora.png"
       inkscape:export-xdpi="57.964222"
       inkscape:export-ydpi="57.964222" />
    <path
       sodipodi:nodetypes="cczccc"
       id="path8441"
       d="m 14.211912,86.531728 -3.222989,-0.58383 C 4.911982,85.262253 1.910368,77.578568 1.910368,67.373009 c 0,-10.205559 3.032555,-18.138018 9.803705,-18.165747 l 3.037025,-0.12957 C 8.765989,57.26865 7.250006,75.733372 14.211912,86.531728 z"
       style="fill:url(#linearGradient8463);fill-opacity:1;stroke:none;display:inline"
       inkscape:export-filename="/home/dafeba/DCV/tallerD/bocetos/08-09-22-hastaahora.png"
       inkscape:export-xdpi="57.964222"
       inkscape:export-ydpi="57.964222"
       inkscape:connector-curvature="0" />
    <path
       inkscape:connector-curvature="0"
       inkscape:export-ydpi="57.964222"
       inkscape:export-xdpi="57.964222"
       inkscape:export-filename="/home/dafeba/DCV/tallerD/bocetos/08-09-22-hastaahora.png"
       style="fill:url(#linearGradient8465);fill-opacity:1;stroke:none;display:inline"
       d="M 59.761878,68.526752 C 59.421692,79.907251 52.296518,91.107808 44.52416,92.020127 35.269008,93.106502 27.893846,82.44853 28.306539,68.638791 28.721534,54.753119 36.414346,44.215358 45.628226,45.21065 c 8.438009,0.916736 14.471429,12.011615 14.133652,23.316102 z"
       id="path8443"
       sodipodi:nodetypes="cszsz" />
    <path
       sodipodi:nodetypes="ccccscccccsssc"
       id="path10953"
       d="m 51.964093,18.919129 c -9.919144,0.570287 -19.395725,6.82187 -26.076247,17.012976 l -11.824213,13.165794 -2.368108,0.08552 c -6.771151,0.0277 -9.746562,8.004244 -9.746535,18.20983 0,10.205559 2.985555,17.866145 9.062549,18.551817 l 2.483199,0.628019 10.084714,13.905665 c 1.244209,2.16646 2.607469,4.18598 4.103779,5.98449 l 0,0.0855 c 7.28622,8.72697 17.347702,12.93727 27.871687,11.19946 C 74.335711,114.64701 88.859868,95.921241 88.641812,68.162691 88.422043,40.184432 73.177419,20.554886 55.640406,19.004644 c -1.249267,-0.110461 -2.43644,-0.156791 -3.676313,-0.08552 z"
       style="fill:none;stroke:url(#linearGradient10955);stroke-width:2.67652392;stroke-linecap:round;stroke-linejoin:round;stroke-miterlimit:4;stroke-opacity:1;stroke-dasharray:none;display:inline"
       inkscape:export-filename="/home/dafeba/DCV/tallerD/bocetos/08-09-22-hastaahora.png"
       inkscape:export-xdpi="57.964222"
       inkscape:export-ydpi="57.964222"
       inkscape:connector-curvature="0" />
  </g>
</svg>
