<?xml version="1.0" encoding="UTF-8" standalone="no"?>
<!-- Created with Inkscape (http://www.inkscape.org/) -->

<svg
   xmlns:dc="http://purl.org/dc/elements/1.1/"
   xmlns:cc="http://creativecommons.org/ns#"
   xmlns:rdf="http://www.w3.org/1999/02/22-rdf-syntax-ns#"
   xmlns:svg="http://www.w3.org/2000/svg"
   xmlns="http://www.w3.org/2000/svg"
   xmlns:xlink="http://www.w3.org/1999/xlink"
   xmlns:sodipodi="http://sodipodi.sourceforge.net/DTD/sodipodi-0.dtd"
   xmlns:inkscape="http://www.inkscape.org/namespaces/inkscape"
   width="128"
   height="128"
   id="svg17172"
   version="1.1"
   inkscape:version="0.48.3.1 r9886"
   sodipodi:docname="battery-low-symbolic.svg">
  <defs
     id="defs17174">
    <linearGradient
       id="linearGradient18314-0">
      <stop
         style="stop-color:#aac736;stop-opacity:1;"
         offset="0"
         id="stop18316-1" />
      <stop
         style="stop-color:#5d8b2c;stop-opacity:1;"
         offset="1"
         id="stop18318-2" />
    </linearGradient>
    <linearGradient
       inkscape:collect="always"
       xlink:href="#linearGradient18314-0"
       id="linearGradient6419"
       x1="5.8526444"
       y1="9.5795469"
       x2="123.85714"
       y2="123.86526"
       gradientUnits="userSpaceOnUse" />
    <linearGradient
       inkscape:collect="always"
       xlink:href="#linearGradient18314-0"
       id="linearGradient3332"
       x1="4.3169379"
       y1="7.3119912"
       x2="124.21563"
       y2="121.95485"
       gradientUnits="userSpaceOnUse" />
  </defs>
  <sodipodi:namedview
     id="base"
     pagecolor="#ffffff"
     bordercolor="#666666"
     borderopacity="1.0"
     inkscape:pageopacity="0.0"
     inkscape:pageshadow="2"
     inkscape:zoom="2.8"
     inkscape:cx="91.43576"
     inkscape:cy="63.257524"
     inkscape:document-units="px"
     inkscape:current-layer="layer1"
     showgrid="false"
     inkscape:showpageshadow="false"
     inkscape:window-width="1366"
     inkscape:window-height="716"
     inkscape:window-x="0"
     inkscape:window-y="0"
     inkscape:window-maximized="1" />
  <metadata
     id="metadata17177">
    <rdf:RDF>
      <cc:Work
         rdf:about="">
        <dc:format>image/svg+xml</dc:format>
        <dc:type
           rdf:resource="http://purl.org/dc/dcmitype/StillImage" />
        <dc:title />
      </cc:Work>
    </rdf:RDF>
  </metadata>
  <g
     inkscape:label="Capa 1"
     inkscape:groupmode="layer"
     id="layer1"
     transform="translate(0,-924.36217)">
    <path
       style="fill:url(#linearGradient3332);fill-opacity:1;stroke:none;display:inline"
       d="M 61.375 1.875 C 60.78826 1.889 60.45197 1.951 59.625 2 C 53.15259 2.3804 46.82766 4.205 40.96875 7.25 C 40.94825 7.261 40.92675 7.27125 40.90625 7.28125 C 40.02487 7.54505 39.19635 7.81685 38.46875 8.09375 C 17.99648 15.88545 5.00992 38.6802 5.03125 63.8125 C 5.04935 84.78691 14.27971 103.55855 30.15625 112.15625 C 31.40365 112.83175 32.77384 113.44145 34.21875 114.03125 C 34.25275 114.04525 34.2785 114.07975 34.3125 114.09375 C 43.63458 119.88695 55.55066 121.97445 69.40625 119.71875 C 69.45865 119.70875 69.51076 119.6995 69.5625 119.6875 C 94.37867 113.8977 111.17381 92.36651 111 62.25 C 111.00007 62.24 111.00007 62.22875 111 62.21875 C 110.64924 40.05335 104.22239 25.1497 95.1875 15.75 C 86.16155 6.3596 74.68343 2.559 64.65625 2 C 64.64585 1.9994 64.6483 2.001 64.625 2 C 62.79894 1.8971 61.96174 1.8614 61.375 1.875 z M 62.125 6.9375 C 62.86489 6.9379 63.60419 6.957 64.34375 7 L 64.375 7 C 73.36671 7.4956 83.52561 10.85735 91.5625 19.21875 C 99.59527 27.57585 105.65818 41.0276 106 62.25 C 106.00018 62.261 105.99983 62.27025 106 62.28125 C 106.15121 90.48316 91.16834 109.44315 68.59375 114.78125 L 68.5 114.78125 C 68.4771 114.78125 68.4604 114.8075 68.4375 114.8125 C 51.20263 117.578 38.31006 113.27205 29.46875 103.59375 C 20.59959 93.88475 15.77083 78.39436 16 58.53125 C 16.54918 28.72395 37.75548 8.3218 59.90625 7 C 60.64461 6.956 61.38511 6.9375 62.125 6.9375 z M 39.65625 16.03125 C 26.73948 25.33465 20.83615 38.38175 18.40625 52.03125 L 28.53125 53.90625 C 26.87943 53.04205 25.66116 51.88535 26.0625 49.84375 C 27.00189 46.67105 30.19676 47.60925 33.53125 47.78125 L 50.21875 50.34375 C 51.3221 48.28215 52.74078 46.4631 54.46875 45.0625 L 39.65625 16.03125 z M 29.28125 48.96875 C 28.4724 48.99275 27.8525 49.4046 27.5625 50.0625 C 27.18232 50.9252 27.4625 52.06155 29 52.65625 L 58.34375 63.34375 C 59.42941 65.43295 61.40568 66.84375 63.6875 66.84375 C 67.129 66.84375 69.90625 63.64845 69.90625 59.71875 C 69.90625 55.78915 67.129 52.59375 63.6875 52.59375 C 62.35108 52.59375 61.10843 53.08845 60.09375 53.90625 L 30.125 49.09375 C 29.81889 49.00975 29.55087 48.96085 29.28125 48.96875 z M 17.84375 54.59375 C 16.12268 70.43735 19.70696 84.62835 28.125 97.46875 L 51.40625 72.46875 C 49.18843 69.57575 47.8772 65.74725 47.6875 61.65625 L 36.84375 57.3125 L 17.84375 54.59375 z "
       transform="translate(0,924.36217)"
       id="path4229" />
  </g>
</svg>
