<?xml version="1.0" encoding="UTF-8" standalone="no"?>
<!-- Created with Inkscape (http://www.inkscape.org/) -->

<svg
   xmlns:dc="http://purl.org/dc/elements/1.1/"
   xmlns:cc="http://creativecommons.org/ns#"
   xmlns:rdf="http://www.w3.org/1999/02/22-rdf-syntax-ns#"
   xmlns:svg="http://www.w3.org/2000/svg"
   xmlns="http://www.w3.org/2000/svg"
   xmlns:xlink="http://www.w3.org/1999/xlink"
   xmlns:sodipodi="http://sodipodi.sourceforge.net/DTD/sodipodi-0.dtd"
   xmlns:inkscape="http://www.inkscape.org/namespaces/inkscape"
   width="128"
   height="128"
   id="svg17172"
   version="1.1"
   inkscape:version="0.48.3.1 r9886"
   sodipodi:docname="battery-missing-symbolic.svg">
  <defs
     id="defs17174">
    <linearGradient
       id="linearGradient5316-0-7-4">
      <stop
         style="stop-color:#aac736;stop-opacity:1;"
         offset="0"
         id="stop5320-8-1-4" />
      <stop
         style="stop-color:#5d8b2c;stop-opacity:1;"
         offset="1"
         id="stop5322-1-3-9" />
    </linearGradient>
    <linearGradient
       gradientTransform="translate(248.66483,939.15746)"
       y2="25.321428"
       x2="-68.571426"
       y1="25.321428"
       x1="-90.35714"
       gradientUnits="userSpaceOnUse"
       id="linearGradient6244"
       xlink:href="#linearGradient5316-0-7-4"
       inkscape:collect="always" />
    <linearGradient
       inkscape:collect="always"
       xlink:href="#linearGradient5316-0-7-4"
       id="linearGradient6316"
       x1="8.2659864"
       y1="6.6690912"
       x2="120.94923"
       y2="121.3214"
       gradientUnits="userSpaceOnUse" />
    <linearGradient
       inkscape:collect="always"
       xlink:href="#linearGradient5316-0-7-4"
       id="linearGradient3240"
       x1="4.5261474"
       y1="3.1567914"
       x2="121.60794"
       y2="122.35479"
       gradientUnits="userSpaceOnUse" />
  </defs>
  <sodipodi:namedview
     id="base"
     pagecolor="#ffffff"
     bordercolor="#666666"
     borderopacity="1.0"
     inkscape:pageopacity="0.0"
     inkscape:pageshadow="2"
     inkscape:zoom="1.979899"
     inkscape:cx="103.12342"
     inkscape:cy="71.513485"
     inkscape:document-units="px"
     inkscape:current-layer="layer1"
     showgrid="false"
     inkscape:showpageshadow="false"
     inkscape:window-width="1366"
     inkscape:window-height="716"
     inkscape:window-x="0"
     inkscape:window-y="0"
     inkscape:window-maximized="1" />
  <metadata
     id="metadata17177">
    <rdf:RDF>
      <cc:Work
         rdf:about="">
        <dc:format>image/svg+xml</dc:format>
        <dc:type
           rdf:resource="http://purl.org/dc/dcmitype/StillImage" />
        <dc:title />
      </cc:Work>
    </rdf:RDF>
  </metadata>
  <g
     inkscape:label="Capa 1"
     inkscape:groupmode="layer"
     id="layer1"
     transform="translate(0,-924.36217)">
    <path
       style="fill:url(#linearGradient6316);fill-opacity:1;stroke:none;display:inline"
       d="m 102.125,1.84375 8.96875,33.46875 13.125,0 L 126,1.84375 z m 9.625,37.46875 3.5,13.90625 8.1875,0 0.875,-13.90625 z"
       transform="translate(0,924.36217)"
       id="path3964"
       inkscape:connector-curvature="0"
       sodipodi:nodetypes="cccccccccc" />
    <path
       style="fill:url(#linearGradient3240);fill-opacity:1;stroke:none;display:inline"
       d="M 61.375 1.875 C 60.788256 1.889 60.451966 1.951 59.625 2 C 53.15259 2.3804 46.82766 4.205 40.96875 7.25 C 40.94825 7.261 40.92675 7.27125 40.90625 7.28125 C 40.02487 7.54505 39.19635 7.81685 38.46875 8.09375 C 17.99648 15.88545 5.00992 38.6802 5.03125 63.8125 C 5.04935 84.78687 14.27971 103.55855 30.15625 112.15625 C 31.40365 112.83175 32.77384 113.44145 34.21875 114.03125 C 34.25275 114.04525 34.2785 114.07975 34.3125 114.09375 C 43.63458 119.88695 55.55066 121.97445 69.40625 119.71875 C 69.45865 119.70875 69.510764 119.6995 69.5625 119.6875 C 94.378668 113.8977 111.17381 92.36647 111 62.25 C 111.00007 62.24 111.00007 62.22875 111 62.21875 C 110.64924 40.05335 104.22239 25.14966 95.1875 15.75 C 86.161549 6.3596 74.683431 2.559 64.65625 2 C 64.64585 1.9994 64.64785 2.001 64.625 2 C 62.798941 1.8971 61.961744 1.8614 61.375 1.875 z M 62.125 6.9375 C 62.864894 6.9379 63.604185 6.957 64.34375 7 L 64.375 7 C 73.366714 7.4956 83.525609 10.85739 91.5625 19.21875 C 99.595272 27.57585 105.65818 41.0276 106 62.25 C 106.00018 62.261 105.99983 62.27025 106 62.28125 C 106.15121 90.48312 91.168337 109.44315 68.59375 114.78125 L 68.5 114.78125 C 68.47709 114.78125 68.46043 114.8075 68.4375 114.8125 C 51.20263 117.578 38.31006 113.27205 29.46875 103.59375 C 20.59959 93.88475 15.77083 78.39432 16 58.53125 C 16.54918 28.72395 37.75548 8.3218 59.90625 7 C 60.644609 6.956 61.385106 6.9375 62.125 6.9375 z M 63.6875 52.59375 C 60.246005 52.59375 57.4375 55.789099 57.4375 59.71875 C 57.4375 63.648401 60.246005 66.84375 63.6875 66.84375 C 67.128995 66.84375 69.90625 63.648401 69.90625 59.71875 C 69.90625 55.789099 67.128995 52.59375 63.6875 52.59375 z "
       transform="translate(0,924.36217)"
       id="path4478" />
  </g>
</svg>
