<?xml version="1.0" encoding="UTF-8" standalone="no"?>
<!-- Created with Inkscape (http://www.inkscape.org/) -->

<svg
   xmlns:dc="http://purl.org/dc/elements/1.1/"
   xmlns:cc="http://creativecommons.org/ns#"
   xmlns:rdf="http://www.w3.org/1999/02/22-rdf-syntax-ns#"
   xmlns:svg="http://www.w3.org/2000/svg"
   xmlns="http://www.w3.org/2000/svg"
   xmlns:xlink="http://www.w3.org/1999/xlink"
   xmlns:sodipodi="http://sodipodi.sourceforge.net/DTD/sodipodi-0.dtd"
   xmlns:inkscape="http://www.inkscape.org/namespaces/inkscape"
   width="136.53334"
   height="136.53334"
   id="svg17172"
   version="1.1"
   inkscape:version="0.92.1 r15371"
   sodipodi:docname="battery-good-symbolic.svg">
  <defs
     id="defs17174">
    <linearGradient
       id="linearGradient18314">
      <stop
         style="stop-color:#aac736;stop-opacity:1;"
         offset="0"
         id="stop18316" />
      <stop
         style="stop-color:#5d8b2c;stop-opacity:1;"
         offset="1"
         id="stop18318" />
    </linearGradient>
    <linearGradient
       inkscape:collect="always"
       xlink:href="#linearGradient18314"
       id="linearGradient1018"
       gradientUnits="userSpaceOnUse"
       gradientTransform="translate(0,3.0454102e-5)"
       x1="2.6289308"
       y1="1053.908"
       x2="120.98979"
       y2="1077.0596" />
    <linearGradient
       inkscape:collect="always"
       xlink:href="#linearGradient18314"
       id="linearGradient1069"
       gradientUnits="userSpaceOnUse"
       gradientTransform="matrix(1.0666667,0,0,1.0666667,0,985.9863)"
       x1="4.5261474"
       y1="3.1567914"
       x2="121.60794"
       y2="122.35479" />
  </defs>
  <sodipodi:namedview
     id="base"
     pagecolor="#ffffff"
     bordercolor="#666666"
     borderopacity="1.0"
     inkscape:pageopacity="0.0"
     inkscape:pageshadow="2"
     inkscape:zoom="1.4"
     inkscape:cx="89.530329"
     inkscape:cy="64.050633"
     inkscape:document-units="px"
     inkscape:current-layer="layer1"
     showgrid="false"
     inkscape:showpageshadow="false"
     inkscape:window-width="1366"
     inkscape:window-height="714"
     inkscape:window-x="0"
     inkscape:window-y="26"
     inkscape:window-maximized="1" />
  <metadata
     id="metadata17177">
    <rdf:RDF>
      <cc:Work
         rdf:about="">
        <dc:format>image/svg+xml</dc:format>
        <dc:type
           rdf:resource="http://purl.org/dc/dcmitype/StillImage" />
        <dc:title />
      </cc:Work>
    </rdf:RDF>
  </metadata>
  <g
     inkscape:label="Capa 1"
     inkscape:groupmode="layer"
     id="layer1"
     transform="translate(0,-985.98631)">
    <path
       inkscape:connector-curvature="0"
       style="color:#000000;font-style:normal;font-variant:normal;font-weight:normal;font-stretch:normal;font-size:medium;line-height:normal;font-family:sans-serif;font-variant-ligatures:normal;font-variant-position:normal;font-variant-caps:normal;font-variant-numeric:normal;font-variant-alternates:normal;font-feature-settings:normal;text-indent:0;text-align:start;text-decoration:none;text-decoration-line:none;text-decoration-style:solid;text-decoration-color:#000000;letter-spacing:normal;word-spacing:normal;text-transform:none;writing-mode:lr-tb;direction:ltr;text-orientation:mixed;dominant-baseline:auto;baseline-shift:baseline;text-anchor:start;white-space:normal;shape-padding:0;clip-rule:nonzero;display:inline;overflow:visible;visibility:visible;opacity:1;isolation:auto;mix-blend-mode:normal;color-interpolation:sRGB;color-interpolation-filters:linearRGB;solid-color:#000000;solid-opacity:1;vector-effect:none;fill:url(#linearGradient1018);fill-opacity:1;fill-rule:nonzero;stroke:none;stroke-width:21;stroke-linecap:butt;stroke-linejoin:miter;stroke-miterlimit:4;stroke-dasharray:none;stroke-dashoffset:0;stroke-opacity:1;color-rendering:auto;image-rendering:auto;shape-rendering:auto;text-rendering:auto;enable-background:accumulate"
       d="m 66.51953,999.30271 c -16.689115,-0.1203 -34.13487,11.38959 -42.64062,28.97659 -4.52577,9.3576 -6.62459,22.7113 -4.11914,37.957 l 10.95312,-3.4336 a 1.20012,1.20012 0 0 1 0.31641,-0.059 1.20012,1.20012 0 0 1 0.40039,2.3496 l -11.2168,3.5156 c 4.5162,15.1191 12.2891,25.9001 24.691406,31.5801 l 4.982422,-11.1074 a 1.20012,1.20012 0 0 1 1.109375,-0.7246 1.20012,1.20012 0 0 1 1.080078,1.707 l -4.966797,11.0723 c 0.770219,0.3024 1.547628,0.5956 2.351563,0.8613 0.719223,0.2377 1.425793,0.4432 2.132812,0.6485 0.05402,0.017 0.108059,0.033 0.162109,0.049 0.281608,0.081 0.563879,0.1645 0.84375,0.2402 0.80286,0.2233 1.608092,0.4252 2.416016,0.5996 0.03324,0.01 0.06639,0.012 0.09961,0.02 0.642263,0.137 1.285871,0.2572 1.929688,0.3633 11.970232,2.0754 22.865161,-1.0213 37.154297,-10.5176 a 1.70017,1.70017 0 0 0 0.669922,-0.8809 c 0.08026,-0.055 0.16404,-0.1088 0.24414,-0.164 l -0.160156,-0.2324 a 1.70017,1.70017 0 0 0 -0.308594,-1.1231 l -12.59375,-17.7461 a 1.70017,1.70017 0 1 0 -2.771484,1.9688 l 1.199219,1.6894 c -6.946062,4.6432 -11.352416,6.7667 -17.490235,6.5469 -8.87744,-0.3176 -16.359523,-3.7502 -20.845703,-16.7637 l -0.0039,-0.01 -0.0039,-0.01 c -3.223328,-9.2958 -1.78611,-23.358 1.15625,-28.832 0.086,-0.16 0.173575,-0.3018 0.259765,-0.459 l -7.417973,-4.457 a 1.20012,1.20012 0 0 0 -0.26172,-1.9727 l -7.50195,-3.9214 c 8.066,-14.3162 22.693436,-23.5859 36.46094,-24.1973 l 0.234375,19.7129 a 1.7003192,1.7003192 0 1 0 3.400391,-0.041 l -0.257813,-21.5254 a 1.70017,1.70017 0 0 0 -1.6875,-1.67969 z"
       id="path1016" />
    <path
       sodipodi:nodetypes="cccccccccccccccccccscccscc"
       inkscape:connector-curvature="0"
       id="path1057"
       d="m 63.6,988.1196 c -4.366249,0.2567 -8.669577,1.1294 -12.824038,2.5579 -3.589627,1.4687 -6.327931,2.7319 -9.742632,3.9421 -21.837088,8.3112 -36.4470327,30.3528 -36.4242807,57.1606 0.019307,22.3726 10.6226387,44.6686 27.5576147,53.8394 1.33056,0.7206 2.792096,1.3709 4.333333,2 0.03627,0.015 0.06373,0.052 0.1,0.067 9.943552,6.1794 22.654037,8.4061 37.433333,6 0.05589,-0.011 0.111482,-0.021 0.166667,-0.033 26.470583,-6.1757 44.385403,-29.1424 44.200003,-61.2666 7e-5,-0.011 7e-5,-0.023 0,-0.033 -0.37414,-23.6431 -7.22945,-39.5404 -16.86667,-49.5667 C 95.197069,996.1952 87.727881,992.1856 80.312555,990.0446 74.671459,988.6614 69.467758,987.6951 63.6,988.1196 Z m 15.321604,7.0737 c 6.562199,1.9073 13.137813,5.4594 18.745059,11.293 8.568297,8.9143 15.035397,23.2628 15.400007,45.9 1.9e-4,0.012 -1.8e-4,0.022 0,0.033 0.16129,30.082 -15.820448,50.3061 -39.900007,56 h -0.1 c -0.02444,0 -0.04221,0.028 -0.06667,0.033 -18.383861,2.9498 -32.135936,-1.6432 -41.566667,-11.9667 -9.460437,-10.3563 -17.136495,-23.8489 -16.892047,-45.0362 0.42436,-23.0325 13.737245,-42.3907 30.024877,-51.8469 6.196045,-3.5973 12.822581,-5.7616 19.333837,-6.1502 4.960096,-0.3003 10.642627,0.4901 15.021611,1.741 z"
       style="display:inline;fill:url(#linearGradient1069);fill-opacity:1;stroke:none;stroke-width:1.06666672" />
  </g>
</svg>
