<?xml version="1.0" encoding="UTF-8" standalone="no"?>
<!-- Created with Inkscape (http://www.inkscape.org/) -->

<svg
   xmlns:dc="http://purl.org/dc/elements/1.1/"
   xmlns:cc="http://creativecommons.org/ns#"
   xmlns:rdf="http://www.w3.org/1999/02/22-rdf-syntax-ns#"
   xmlns:svg="http://www.w3.org/2000/svg"
   xmlns="http://www.w3.org/2000/svg"
   xmlns:xlink="http://www.w3.org/1999/xlink"
   xmlns:sodipodi="http://sodipodi.sourceforge.net/DTD/sodipodi-0.dtd"
   xmlns:inkscape="http://www.inkscape.org/namespaces/inkscape"
   width="128"
   height="128"
   id="svg17172"
   version="1.1"
   inkscape:version="0.48.3.1 r9886"
   sodipodi:docname="battery-empty-symbolic.svg">
  <defs
     id="defs17174">
    <linearGradient
       id="linearGradient5316-0-7-6">
      <stop
         style="stop-color:#aac736;stop-opacity:1;"
         offset="0"
         id="stop5320-8-1-0" />
      <stop
         style="stop-color:#5d8b2c;stop-opacity:1;"
         offset="1"
         id="stop5322-1-3-0" />
    </linearGradient>
    <linearGradient
       y2="25.321428"
       x2="-68.571426"
       y1="25.321428"
       x1="-90.35714"
       gradientTransform="translate(257.67858,947.75499)"
       gradientUnits="userSpaceOnUse"
       id="linearGradient6337"
       xlink:href="#linearGradient5316-0-7-6"
       inkscape:collect="always" />
    <linearGradient
       inkscape:collect="always"
       xlink:href="#linearGradient5316-0-7-6"
       id="linearGradient6356"
       x1="9.0669298"
       y1="9.5795469"
       x2="121.71429"
       y2="121.36526"
       gradientUnits="userSpaceOnUse" />
    <linearGradient
       inkscape:collect="always"
       xlink:href="#linearGradient5316-0-7-6"
       id="linearGradient3278"
       x1="5.3883667"
       y1="3.3691792"
       x2="125.51659"
       y2="123.4974"
       gradientUnits="userSpaceOnUse" />
  </defs>
  <sodipodi:namedview
     id="base"
     pagecolor="#ffffff"
     bordercolor="#666666"
     borderopacity="1.0"
     inkscape:pageopacity="0.0"
     inkscape:pageshadow="2"
     inkscape:zoom="2.8"
     inkscape:cx="97.150046"
     inkscape:cy="61.640556"
     inkscape:document-units="px"
     inkscape:current-layer="layer1"
     showgrid="false"
     inkscape:showpageshadow="false"
     inkscape:window-width="1366"
     inkscape:window-height="716"
     inkscape:window-x="0"
     inkscape:window-y="0"
     inkscape:window-maximized="1" />
  <metadata
     id="metadata17177">
    <rdf:RDF>
      <cc:Work
         rdf:about="">
        <dc:format>image/svg+xml</dc:format>
        <dc:type
           rdf:resource="http://purl.org/dc/dcmitype/StillImage" />
        <dc:title />
      </cc:Work>
    </rdf:RDF>
  </metadata>
  <g
     inkscape:label="Capa 1"
     inkscape:groupmode="layer"
     id="layer1"
     transform="translate(0,-924.36217)">
    <path
       style="fill:url(#linearGradient3278);fill-opacity:1;stroke:none;display:inline"
       d="M 102.125 1.84375 L 111.09375 35.3125 L 124.21875 35.3125 L 126 1.84375 L 102.125 1.84375 z M 61.375 1.875 C 60.788256 1.889 60.451966 1.951 59.625 2 C 53.152593 2.3804 46.827656 4.205 40.96875 7.25 C 40.94823 7.261 40.92675 7.27125 40.90625 7.28125 C 40.024874 7.54505 39.19635 7.81685 38.46875 8.09375 C 17.996481 15.88545 5.00992 38.6802 5.03125 63.8125 C 5.049383 84.7869 14.279714 103.55855 30.15625 112.15625 C 31.403653 112.83175 32.773836 113.44145 34.21875 114.03125 C 34.2527 114.04525 34.27846 114.07975 34.3125 114.09375 C 43.634578 119.88695 55.550661 121.97445 69.40625 119.71875 C 69.45865 119.70875 69.510764 119.6995 69.5625 119.6875 C 94.378668 113.8977 111.17381 92.3665 111 62.25 C 111.00007 62.24 111.00007 62.22875 111 62.21875 C 110.64924 40.05335 104.22239 25.1497 95.1875 15.75 C 86.161549 6.3596 74.683431 2.559 64.65625 2 C 64.64585 1.9994 64.64785 2.001 64.625 2 C 62.798941 1.8971 61.961744 1.8614 61.375 1.875 z M 62.125 6.9375 C 62.864894 6.9379 63.604185 6.957 64.34375 7 L 64.375 7 C 73.366714 7.4956 83.525609 10.85735 91.5625 19.21875 C 99.595267 27.57585 105.65818 41.0276 106 62.25 C 106.00018 62.261 105.99983 62.27025 106 62.28125 C 106.15121 90.48315 91.168337 109.44315 68.59375 114.78125 L 68.5 114.78125 C 68.47709 114.78125 68.46043 114.8075 68.4375 114.8125 C 51.202628 117.578 38.310061 113.27205 29.46875 103.59375 C 20.599594 93.88475 15.770832 78.39435 16 58.53125 C 16.549177 28.72395 37.755478 8.3218 59.90625 7 C 60.644609 6.956 61.385106 6.9375 62.125 6.9375 z M 111.75 39.3125 L 115.25 53.21875 L 123.4375 53.21875 L 124.3125 39.3125 L 111.75 39.3125 z M 63.6875 52.59375 C 60.676192 52.59375 58.174803 55.03895 57.59375 58.28125 L 35.6875 79.21875 C 34.680742 79.99205 34.440694 81.0372 34.90625 81.875 C 35.364215 82.6991 36.441163 83.14745 37.84375 82.28125 L 62.15625 66.59375 C 62.649701 66.73725 63.154913 66.84375 63.6875 66.84375 C 67.128995 66.84375 69.90625 63.64845 69.90625 59.71875 C 69.90625 55.78915 67.128995 52.59375 63.6875 52.59375 z M 17.84375 54.59375 C 16.122677 70.43735 19.706963 84.62835 28.125 97.46875 L 44.46875 79.9375 L 40.96875 82.03125 C 38.511721 83.57745 35.891177 85.20215 33.84375 82.90625 C 31.882359 80.24155 34.567819 78.27265 36.71875 75.71875 L 48.0625 64.6875 C 47.81343 63.3799 47.657552 62.03655 47.65625 60.65625 C 47.655641 60.05855 47.70557 59.4628 47.75 58.875 L 17.84375 54.59375 z "
       transform="translate(0,924.36217)"
       id="path4188" />
  </g>
</svg>
