<?xml version="1.0" encoding="UTF-8" standalone="no"?>
<!-- Created with Inkscape (http://www.inkscape.org/) -->
<svg
   xmlns:dc="http://purl.org/dc/elements/1.1/"
   xmlns:cc="http://creativecommons.org/ns#"
   xmlns:rdf="http://www.w3.org/1999/02/22-rdf-syntax-ns#"
   xmlns:svg="http://www.w3.org/2000/svg"
   xmlns="http://www.w3.org/2000/svg"
   xmlns:xlink="http://www.w3.org/1999/xlink"
   xmlns:sodipodi="http://sodipodi.sourceforge.net/DTD/sodipodi-0.dtd"
   xmlns:inkscape="http://www.inkscape.org/namespaces/inkscape"
   width="128"
   height="128"
   id="svg2"
   sodipodi:version="0.32"
   inkscape:version="0.46"
   version="1.0"
   sodipodi:docname="error.svg"
   inkscape:output_extension="org.inkscape.output.svg.inkscape">
  <defs
     id="defs4">
    <linearGradient
       inkscape:collect="always"
       xlink:href="#linearGradient5439"
       id="linearGradient6075"
       gradientUnits="userSpaceOnUse"
       gradientTransform="matrix(2.72248,0,0,2.72248,-835.20101,-1283.2884)"
       x1="308.74927"
       y1="465.0192"
       x2="275.71313"
       y2="574.98462" />
    <linearGradient
       inkscape:collect="always"
       xlink:href="#linearGradient5439"
       id="linearGradient6077"
       gradientUnits="userSpaceOnUse"
       gradientTransform="matrix(2.72248,0,0,2.72248,-835.20101,-1283.2884)"
       x1="314.59473"
       y1="473.02225"
       x2="389.19135"
       y2="560.27191" />
    <linearGradient
       inkscape:collect="always"
       xlink:href="#linearGradient5362"
       id="linearGradient6079"
       gradientUnits="userSpaceOnUse"
       gradientTransform="matrix(2.72248,0,0,2.72248,-1325.2474,-1718.8853)"
       x1="497.40543"
       y1="631.66345"
       x2="486.63849"
       y2="648.24927" />
    <linearGradient
       inkscape:collect="always"
       xlink:href="#linearGradient12336"
       id="linearGradient6081"
       gradientUnits="userSpaceOnUse"
       gradientTransform="matrix(2.5582839,0,0,2.5582839,-781.15951,-1202.1323)"
       x1="311.40219"
       y1="477.27896"
       x2="338.6427"
       y2="508.65906" />
    <linearGradient
       inkscape:collect="always"
       xlink:href="#linearGradient5344"
       id="linearGradient6083"
       gradientUnits="userSpaceOnUse"
       gradientTransform="matrix(2.72248,0,0,2.72248,-1325.2474,-1718.8853)"
       x1="511.70114"
       y1="681.87585"
       x2="494.52274"
       y2="658.36462" />
    <linearGradient
       inkscape:collect="always"
       xlink:href="#linearGradient5439"
       id="linearGradient6085"
       gradientUnits="userSpaceOnUse"
       gradientTransform="matrix(2.72248,0,0,2.72248,-998.5498,-1283.2884)"
       x1="372.19498"
       y1="478.91763"
       x2="393.67245"
       y2="498.9711" />
    <linearGradient
       inkscape:collect="always"
       xlink:href="#linearGradient9863"
       id="linearGradient10935"
       x1="1051.1798"
       y1="338.34076"
       x2="1051.1798"
       y2="291.32755"
       gradientUnits="userSpaceOnUse"
       gradientTransform="matrix(2.7224801,0,0,2.7224801,-2795.3867,-793.24207)" />
    <linearGradient
       inkscape:collect="always"
       xlink:href="#linearGradient5344"
       id="linearGradient6087"
       gradientUnits="userSpaceOnUse"
       gradientTransform="matrix(2.72248,0,0,2.72248,-1325.2474,-1718.8853)"
       x1="544.09601"
       y1="724.27393"
       x2="505.62787"
       y2="652.76361" />
    <linearGradient
       inkscape:collect="always"
       xlink:href="#linearGradient5439"
       id="linearGradient10401"
       gradientUnits="userSpaceOnUse"
       gradientTransform="matrix(2.6765239,0,0,2.6765239,-1298.6208,-1689.8171)"
       x1="492.65778"
       y1="626.40784"
       x2="586.93988"
       y2="745.66449" />
    <linearGradient
       inkscape:collect="always"
       xlink:href="#linearGradient5344"
       id="linearGradient10394"
       gradientUnits="userSpaceOnUse"
       gradientTransform="matrix(2.6765239,0,0,2.6765239,-1298.6208,-1689.8171)"
       x1="513.96362"
       y1="661.19366"
       x2="518.86896"
       y2="637.52454" />
    <linearGradient
       inkscape:collect="always"
       xlink:href="#linearGradient5316"
       id="linearGradient10391"
       gradientUnits="userSpaceOnUse"
       gradientTransform="matrix(2.6765239,0,0,2.6765239,-1298.6208,-1689.8171)"
       x1="519.95825"
       y1="647.79089"
       x2="516.5"
       y2="643.21948" />
    <linearGradient
       inkscape:collect="always"
       xlink:href="#linearGradient5344"
       id="linearGradient10387"
       gradientUnits="userSpaceOnUse"
       gradientTransform="matrix(2.6765239,0,0,2.6765239,-1298.6208,-1689.8171)"
       x1="512.30157"
       y1="632.9248"
       x2="519.57452"
       y2="650.17572" />
    <linearGradient
       inkscape:collect="always"
       xlink:href="#linearGradient5344"
       id="linearGradient10381"
       gradientUnits="userSpaceOnUse"
       gradientTransform="matrix(2.6765239,0,0,2.6765239,-1298.6208,-1689.8171)"
       x1="526.0625"
       y1="667.56323"
       x2="524.125"
       y2="643.65698" />
    <linearGradient
       inkscape:collect="always"
       xlink:href="#linearGradient5362"
       id="linearGradient10376"
       gradientUnits="userSpaceOnUse"
       gradientTransform="matrix(2.6765239,0,0,2.6765239,-1298.6208,-2514.1865)"
       x1="476.7262"
       y1="940.28815"
       x2="502.00113"
       y2="979.54144" />
    <linearGradient
       inkscape:collect="always"
       xlink:href="#linearGradient5344"
       id="linearGradient10366"
       gradientUnits="userSpaceOnUse"
       gradientTransform="matrix(2.6765239,0,0,2.6765239,-1298.6208,-2514.1865)"
       x1="556.40369"
       y1="975.97461"
       x2="494.40411"
       y2="944.34961" />
    <linearGradient
       inkscape:collect="always"
       xlink:href="#linearGradient5362"
       id="linearGradient10363"
       gradientUnits="userSpaceOnUse"
       gradientTransform="matrix(2.6765239,0,0,2.6765239,-1298.6208,-2514.1865)"
       x1="487.4212"
       y1="938.40631"
       x2="495.68619"
       y2="945.75403" />
    <linearGradient
       inkscape:collect="always"
       xlink:href="#linearGradient9863"
       id="linearGradient10442"
       gradientUnits="userSpaceOnUse"
       x1="509.19516"
       y1="157.46848"
       x2="509.19516"
       y2="112.66784"
       gradientTransform="matrix(2.6765239,0,0,2.6765239,-1298.9218,-298.0247)" />
    <linearGradient
       inkscape:collect="always"
       xlink:href="#linearGradient5316"
       id="linearGradient10679"
       gradientUnits="userSpaceOnUse"
       gradientTransform="matrix(2.4993378,-5.8003287e-2,4.3271185e-2,2.4990827,-1237.5897,-1542.7369)"
       x1="507.57828"
       y1="652.32129"
       x2="520.39868"
       y2="671.72296" />
    <linearGradient
       inkscape:collect="always"
       xlink:href="#linearGradient5344"
       id="linearGradient10701"
       x1="603.46594"
       y1="-107.73232"
       x2="571.42249"
       y2="-143.35732"
       gradientUnits="userSpaceOnUse"
       gradientTransform="matrix(2.6765239,0,0,2.6765239,-1459.5132,451.402)" />
    <linearGradient
       id="linearGradient12594">
      <stop
         id="stop12596"
         offset="0"
         style="stop-color:#e9b551;stop-opacity:1;" />
      <stop
         id="stop12598"
         offset="1"
         style="stop-color:#e9b551;stop-opacity:0;" />
    </linearGradient>
    <linearGradient
       id="linearGradient5316">
      <stop
         style="stop-color:#87c7ff;stop-opacity:1;"
         offset="0"
         id="stop5320" />
      <stop
         style="stop-color:#74aadb;stop-opacity:1;"
         offset="1"
         id="stop5322" />
    </linearGradient>
    <linearGradient
       id="linearGradient9863">
      <stop
         style="stop-color:#2f445a;stop-opacity:1;"
         offset="0"
         id="stop9865" />
      <stop
         style="stop-color:#415f7c;stop-opacity:1"
         offset="1"
         id="stop9867" />
    </linearGradient>
    <linearGradient
       id="linearGradient12336">
      <stop
         id="stop12338"
         offset="0"
         style="stop-color:#ff6e00;stop-opacity:1;" />
      <stop
         id="stop12340"
         offset="1"
         style="stop-color:#eb2600;stop-opacity:1;" />
    </linearGradient>
    <linearGradient
       id="linearGradient5362">
      <stop
         style="stop-color:#ffffff;stop-opacity:1;"
         offset="0"
         id="stop5364" />
      <stop
         style="stop-color:#ffffff;stop-opacity:0;"
         offset="1"
         id="stop5366" />
    </linearGradient>
    <linearGradient
       id="linearGradient5439">
      <stop
         style="stop-color:#ffffff;stop-opacity:1;"
         offset="0"
         id="stop5441" />
      <stop
         style="stop-color:#000000;stop-opacity:1;"
         offset="1"
         id="stop5443" />
    </linearGradient>
    <linearGradient
       inkscape:collect="always"
       xlink:href="#linearGradient5439"
       id="linearGradient13309"
       gradientUnits="userSpaceOnUse"
       x1="499.90704"
       y1="953.39532"
       x2="652.75177"
       y2="1116.9413"
       gradientTransform="matrix(2.6765239,0,0,2.6765239,-1298.6765,-2514.903)" />
    <linearGradient
       inkscape:collect="always"
       id="linearGradient5398">
      <stop
         style="stop-color:#87c6ff;stop-opacity:1;"
         offset="0"
         id="stop5400" />
      <stop
         style="stop-color:#87c6ff;stop-opacity:0"
         offset="1"
         id="stop5402" />
    </linearGradient>
    <linearGradient
       inkscape:collect="always"
       xlink:href="#linearGradient5398"
       id="linearGradient13322"
       gradientUnits="userSpaceOnUse"
       x1="500.87799"
       y1="948.11993"
       x2="500.87799"
       y2="953.17468"
       gradientTransform="matrix(2.6765239,0,0,2.6765239,-1298.6765,-2514.903)" />
    <linearGradient
       id="linearGradient5344">
      <stop
         style="stop-color:#000000;stop-opacity:1;"
         offset="0"
         id="stop5346" />
      <stop
         style="stop-color:#000000;stop-opacity:0;"
         offset="1"
         id="stop5348" />
    </linearGradient>
    <linearGradient
       inkscape:collect="always"
       xlink:href="#linearGradient5344"
       id="linearGradient13314"
       gradientUnits="userSpaceOnUse"
       x1="544.89001"
       y1="919.05762"
       x2="506.01498"
       y2="969.80762"
       gradientTransform="translate(-485.21014,-859.4386)" />
    <linearGradient
       id="linearGradient8702">
      <stop
         id="stop8704"
         offset="0"
         style="stop-color:#aac736;stop-opacity:1;" />
      <stop
         id="stop8706"
         offset="1"
         style="stop-color:#5d8b2c;stop-opacity:1;" />
    </linearGradient>
    <linearGradient
       inkscape:collect="always"
       xlink:href="#linearGradient8702"
       id="linearGradient13316"
       gradientUnits="userSpaceOnUse"
       gradientTransform="matrix(2.6765239,0,0,2.6765239,-1779.5422,-994.63744)"
       x1="700.13062"
       y1="378.86951"
       x2="707.80457"
       y2="395.74899" />
    <inkscape:perspective
       sodipodi:type="inkscape:persp3d"
       inkscape:vp_x="0 : 526.18109 : 1"
       inkscape:vp_y="0 : 1000 : 0"
       inkscape:vp_z="744.09448 : 526.18109 : 1"
       inkscape:persp3d-origin="372.04724 : 350.78739 : 1"
       id="perspective10" />
  </defs>
  <sodipodi:namedview
     id="base"
     pagecolor="#ffffff"
     bordercolor="#666666"
     borderopacity="1.0"
     inkscape:pageopacity="0.0"
     inkscape:pageshadow="2"
     inkscape:zoom="2.5020702"
     inkscape:cx="85.665645"
     inkscape:cy="59.111099"
     inkscape:document-units="px"
     inkscape:current-layer="layer1"
     showgrid="false"
     inkscape:showpageshadow="false"
     inkscape:window-width="1014"
     inkscape:window-height="715"
     inkscape:window-x="0"
     inkscape:window-y="6"
     showguides="true"
     inkscape:guide-bbox="true" />
  <metadata
     id="metadata7">
    <rdf:RDF>
      <cc:Work
         rdf:about="">
        <dc:format>image/svg+xml</dc:format>
        <dc:type
           rdf:resource="http://purl.org/dc/dcmitype/StillImage" />
      </cc:Work>
    </rdf:RDF>
  </metadata>
  <g
     inkscape:label="Capa 1"
     inkscape:groupmode="layer"
     id="layer1">
    <path
       inkscape:export-ydpi="57.964222"
       inkscape:export-xdpi="57.964222"
       inkscape:export-filename="/home/dafeba/DCV/tallerD/bocetos/08-09-22-hastaahora.png"
       style="fill:url(#linearGradient6075);fill-opacity:1;stroke:none;stroke-width:0.5;stroke-linecap:round;stroke-linejoin:round;stroke-miterlimit:4;stroke-opacity:1;display:inline"
       d="M 32.039538,117.20484 L 41.534732,119.72937 C 41.014739,119.56245 40.571791,119.29232 40.135378,119.01395 L 37.198366,10.192705 C 39.037946,6.5094892 41.551611,4.0925804 47.325175,4.5637055 L 43.459525,4.7109917 L 36.678917,5.609764 C 32.93224,6.1028868 30.798633,8.5889466 29.599107,10.977623 L 6.3621959,58.511192 C 5.2059582,61.482888 4.9086634,65.799598 6.2459456,68.595884 L 26.941695,111.09565 C 28.076425,113.73164 29.498649,116.62182 32.039538,117.20484 z"
       id="path6005"
       sodipodi:nodetypes="cccccccccccc" />
    <path
       inkscape:export-ydpi="57.964222"
       inkscape:export-xdpi="57.964222"
       inkscape:export-filename="/home/dafeba/DCV/tallerD/bocetos/08-09-22-hastaahora.png"
       sodipodi:nodetypes="ccccccccccccc"
       id="path6007"
       d="M 82.554066,114.407 L 47.647244,119.91924 C 40.510263,120.93921 38.807897,118.75097 36.280618,113.65118 L 14.145766,68.177167 C 12.597764,64.93423 12.531336,62.348011 14.181158,59.077359 L 37.198366,10.192705 C 39.037946,6.5094892 41.551611,4.0925804 47.325175,4.5637055 L 83.888898,7.4369292 C 88.202939,7.8855394 90.147879,9.8516601 91.559212,13.744562 L 108.01661,56.182546 C 108.97329,58.632533 108.92265,61.160029 108.06997,63.749216 L 92.264062,105.6184 C 90.251606,110.4349 88.258206,113.52775 82.554066,114.407 z"
       style="fill:url(#linearGradient6077);fill-opacity:1;stroke:none;stroke-width:0.5;stroke-linecap:round;stroke-linejoin:round;stroke-miterlimit:4;stroke-opacity:1;display:inline" />
    <path
       inkscape:export-ydpi="57.964222"
       inkscape:export-xdpi="57.964222"
       inkscape:export-filename="/home/dafeba/DCV/tallerD/bocetos/08-09-22-hastaahora.png"
       sodipodi:nodetypes="cccccccc"
       id="path6009"
       d="M 14.181158,59.077359 L 37.198366,10.192705 C 39.037946,6.5094892 41.551611,4.0925804 47.325175,4.5637055 L 43.459525,4.7109917 L 36.678917,5.609764 C 32.93224,6.1028868 30.798633,8.5889466 29.599107,10.977623 L 6.3621959,58.511192 L 14.181158,59.077359 z"
       style="fill:url(#linearGradient6079);fill-opacity:1;stroke:none;stroke-width:0.5;stroke-linecap:round;stroke-linejoin:round;stroke-miterlimit:4;stroke-opacity:1;display:inline" />
    <path
       style="fill:url(#linearGradient6081);fill-opacity:1;stroke:none;stroke-width:0.5;stroke-linecap:round;stroke-linejoin:round;stroke-miterlimit:4;stroke-opacity:1;display:inline"
       d="M 46.8825,8.1880069 C 42.772372,8.3734351 40.738135,10.519457 39.225524,13.547889 L 27.059579,39.581604 L 98.524679,40.092069 L 89.251094,16.695757 C 87.924974,13.037642 86.158357,11.161853 82.104584,10.740332 L 48.754205,8.1880069 C 48.076035,8.132659 47.469738,8.1615173 46.8825,8.1880069 z M 98.779775,80.759108 L 26.974365,86.884688 L 38.119381,110.53623 C 40.494472,115.32842 42.643054,117.02463 48.413895,116.40658 L 81.253809,111.30193 C 86.613827,110.47571 88.465658,107.57545 90.357238,103.04941 L 98.779775,80.759108 z"
       id="path6011"
       inkscape:export-filename="/home/dafeba/DCV/tallerD/bocetos/08-09-22-hastaahora.png"
       inkscape:export-xdpi="57.964222"
       inkscape:export-ydpi="57.964222" />
    <path
       inkscape:export-ydpi="57.964222"
       inkscape:export-xdpi="57.964222"
       inkscape:export-filename="/home/dafeba/DCV/tallerD/bocetos/08-09-22-hastaahora.png"
       sodipodi:nodetypes="cccccccc"
       id="path6013"
       d="M 32.039538,117.20484 L 41.534732,119.72937 C 41.014739,119.56245 40.571791,119.29232 40.135378,119.01395 C 38.557973,117.94786 37.518257,116.14865 36.280618,113.65118 L 14.145766,68.177167 L 6.2459456,68.595884 L 26.941695,111.09565 C 28.076425,113.73164 29.498649,116.62182 32.039538,117.20484 z"
       style="fill:url(#linearGradient6083);fill-opacity:1;stroke:none;stroke-width:0.5;stroke-linecap:round;stroke-linejoin:round;stroke-miterlimit:4;stroke-opacity:1;display:inline" />
    <path
       inkscape:export-ydpi="57.964222"
       inkscape:export-xdpi="57.964222"
       inkscape:export-filename="/home/dafeba/DCV/tallerD/bocetos/08-09-22-hastaahora.png"
       sodipodi:nodetypes="cccsssccccssscccccccccccccccccccccccscccccccsccccccccccccccccccc"
       id="path6015"
       d="M 29.400095,53.434344 L 29.460262,62.399275 L 33.112469,62.28719 C 34.620177,62.245727 35.80119,61.824831 36.655775,61.02445 C 37.51009,60.224122 37.966378,59.104829 38.024367,57.666597 C 38.081811,56.23901 37.714549,55.147705 36.922579,54.392651 C 36.13061,53.637605 34.980906,53.280823 33.473469,53.322287 L 29.400095,53.434344 M 26.208532,50.806851 L 33.58019,50.66953 C 36.264011,50.595723 38.265306,51.147271 39.585164,52.32409 C 40.915912,53.489992 41.534188,55.239506 41.440263,57.572617 C 41.34552,59.927045 40.584314,61.725134 39.156646,62.966939 C 37.739596,64.208418 35.689295,64.866114 33.005747,64.939893 L 29.413435,65.051978 L 29.358441,75.00109 L 26.148909,75.15039 L 26.208532,50.806851 z M 53.207637,53.629655 L 48.298189,65.45809 L 57.017748,65.088241 L 53.207637,53.629655 z M 51.531406,50.469046 L 55.112828,50.413508 L 62.882242,72.947224 L 59.854572,73.1675 L 57.835037,67.617507 L 47.211919,68.16968 L 44.890733,73.967282 L 41.496073,74.125051 L 51.531406,50.469046 z M 77.447782,61.71822 C 79.30288,62.616882 80.401945,64.663316 81.090461,66.561539 L 82.491176,71.667522 L 79.582751,71.823411 L 78.420252,67.170911 C 77.69335,65.594677 76.818073,64.343098 76.090626,63.841672 C 75.374069,63.339946 74.161477,63.149291 72.878372,63.184574 L 70.07939,63.306542 L 69.999349,72.392328 L 66.78764,72.601768 L 66.725567,50.261811 L 73.978254,50.120786 C 79.066841,49.84451 81.300091,52.022901 81.295736,56.212112 C 81.304992,59.685153 79.519317,61.068989 77.447782,61.71822 z M 70.048353,60.628928 L 73.530678,60.474291 C 76.476129,60.314699 78.32551,59.146647 78.432775,56.433722 C 78.391666,53.089705 76.540924,52.451311 73.871532,52.557815 L 69.92802,52.664863 L 70.048353,60.628928 z M 98.866346,49.755403 L 98.87724,52.231416 L 88.180887,52.431193 L 88.094585,59.069056 L 98.125836,58.815511 L 98.106775,61.411832 L 88.027611,61.78571 L 87.980512,68.431664 L 98.965724,67.838082 L 98.976608,70.61188 L 85.322555,71.41493 L 85.420837,49.862668 L 98.866346,49.755403 z"
       style="font-size:12.03600407px;font-style:normal;font-variant:normal;font-weight:bold;font-stretch:normal;text-align:start;line-height:125%;writing-mode:lr-tb;text-anchor:start;fill:url(#linearGradient6085);fill-opacity:1;stroke:none;stroke-width:1px;stroke-linecap:butt;stroke-linejoin:miter;stroke-opacity:1;display:inline;font-family:Helvetica;-inkscape-font-specification:Helvetica Bold" />
    <path
       inkscape:export-ydpi="57.964222"
       inkscape:export-xdpi="57.964222"
       inkscape:export-filename="/home/dafeba/DCV/tallerD/bocetos/08-09-22-hastaahora.png"
       id="path6018"
       d="M 45.265891,4.5296745 C 44.672118,4.5564637 44.16492,4.5999417 43.649555,4.6998296 C 43.594833,4.7104472 43.533305,4.6884224 43.4794,4.6998296 L 36.6732,5.635682 C 32.926523,6.1288049 30.811156,8.6068877 29.611631,10.995564 L 6.3856092,58.468804 C 5.2296438,61.440526 4.8781716,65.796739 6.2154539,68.593026 L 26.974365,111.13177 C 28.109095,113.76768 29.538124,116.58926 32.079015,117.17228 L 41.522481,119.7246 C 43.010589,120.25192 44.927214,120.28364 47.648061,119.89475 L 82.530108,114.36472 C 88.234247,113.48546 90.216213,110.4183 92.22867,105.60173 L 108.05336,63.743609 C 108.90604,61.15442 109.01004,58.621725 108.05336,56.171711 L 91.54805,13.718044 C 90.136989,9.8251431 88.205117,7.8709197 83.891348,7.4223095 L 47.307751,4.5296745 C 46.586294,4.4707873 45.890973,4.5014697 45.265891,4.5296745 z"
       style="fill:none;fill-opacity:1;stroke:url(#linearGradient10935);stroke-width:2.72248006;stroke-linecap:round;stroke-linejoin:round;stroke-miterlimit:4;stroke-dasharray:none;stroke-opacity:1;display:inline" />
    <path
       inkscape:export-ydpi="57.964222"
       inkscape:export-xdpi="57.964222"
       inkscape:export-filename="/home/dafeba/DCV/tallerD/bocetos/08-09-22-hastaahora.png"
       style="fill:url(#linearGradient6087);fill-opacity:1;stroke:none;stroke-width:0.5;stroke-linecap:round;stroke-linejoin:round;stroke-miterlimit:4;stroke-opacity:1;display:inline"
       d="M 82.554066,114.407 L 47.647244,119.91924 C 40.510263,120.93921 38.807897,118.75097 36.280618,113.65118 L 14.145766,68.177167 C 12.597764,64.93423 12.531336,62.348011 14.181158,59.077359 L 37.198366,10.192705 C 39.037946,6.5094892 41.551611,4.0925804 47.325175,4.5637055 L 83.888898,7.4369292 C 88.202939,7.8855394 90.147879,9.8516601 91.559212,13.744562 L 108.01661,56.182546 C 108.97329,58.632533 108.92265,61.160029 108.06997,63.749216 L 92.264062,105.6184 C 90.251606,110.4349 88.258206,113.52775 82.554066,114.407 z"
       id="path6020"
       sodipodi:nodetypes="ccccccccccccc" />
  </g>
</svg>
