<?xml version="1.0" encoding="UTF-8" standalone="no"?>
<!-- Created with Inkscape (http://www.inkscape.org/) -->

<svg
   xmlns:dc="http://purl.org/dc/elements/1.1/"
   xmlns:cc="http://creativecommons.org/ns#"
   xmlns:rdf="http://www.w3.org/1999/02/22-rdf-syntax-ns#"
   xmlns:svg="http://www.w3.org/2000/svg"
   xmlns="http://www.w3.org/2000/svg"
   xmlns:xlink="http://www.w3.org/1999/xlink"
   xmlns:sodipodi="http://sodipodi.sourceforge.net/DTD/sodipodi-0.dtd"
   xmlns:inkscape="http://www.inkscape.org/namespaces/inkscape"
   width="128"
   height="128"
   id="svg70569"
   version="1.1"
   inkscape:version="0.48.3.1 r9886"
   sodipodi:docname="hcompartir-transfer2.svg">
  <defs
     id="defs70571">
    <clipPath
       clipPathUnits="userSpaceOnUse"
       id="clipPath71665">
      <path
         style="fill:#ff0000;fill-opacity:0.54377878;stroke:none"
         d="m 808.65625,1198.75 0,10.5312 3.5625,0 2.25,0 5.8125,0 0,-10.5312 -5.8125,0 -2.25,0 -3.5625,0 z"
         id="path71667"
         inkscape:connector-curvature="0" />
    </clipPath>
    <linearGradient
       inkscape:collect="always"
       xlink:href="#linearGradient8702-8"
       id="linearGradient73059"
       gradientUnits="userSpaceOnUse"
       gradientTransform="translate(320,240)"
       x1="488.76834"
       y1="964.76569"
       x2="491.40625"
       y2="967.89069" />
    <linearGradient
       id="linearGradient8702-8">
      <stop
         id="stop8704-8"
         offset="0"
         style="stop-color:#aac736;stop-opacity:1;" />
      <stop
         id="stop8706-7"
         offset="1"
         style="stop-color:#5d8b2c;stop-opacity:1;" />
    </linearGradient>
    <linearGradient
       inkscape:collect="always"
       xlink:href="#linearGradient5362-5-2"
       id="linearGradient73061"
       gradientUnits="userSpaceOnUse"
       gradientTransform="translate(260,240)"
       x1="553.27618"
       y1="959.94855"
       x2="553.66211"
       y2="965.25183" />
    <linearGradient
       id="linearGradient5362-5-2">
      <stop
         style="stop-color:#ffffff;stop-opacity:1;"
         offset="0"
         id="stop5364-9-7" />
      <stop
         style="stop-color:#ffffff;stop-opacity:0;"
         offset="1"
         id="stop5366-1-7" />
    </linearGradient>
    <linearGradient
       inkscape:collect="always"
       xlink:href="#linearGradient8702-8"
       id="linearGradient73063"
       gradientUnits="userSpaceOnUse"
       gradientTransform="translate(320,240)"
       x1="495.84396"
       y1="952.03333"
       x2="525.43182"
       y2="980.05243" />
    <linearGradient
       inkscape:collect="always"
       xlink:href="#linearGradient70056-3"
       id="linearGradient73047"
       gradientUnits="userSpaceOnUse"
       gradientTransform="translate(320,180)"
       x1="488.76834"
       y1="964.76569"
       x2="491.40625"
       y2="967.89069" />
    <linearGradient
       id="linearGradient70056-3">
      <stop
         id="stop70058-8"
         offset="0"
         style="stop-color:#c3c3c3;stop-opacity:1;" />
      <stop
         id="stop70060-6"
         offset="1"
         style="stop-color:#6e6e6e;stop-opacity:1;" />
    </linearGradient>
    <linearGradient
       inkscape:collect="always"
       xlink:href="#linearGradient5362-5-2"
       id="linearGradient73049"
       gradientUnits="userSpaceOnUse"
       gradientTransform="translate(260,180)"
       x1="553.27618"
       y1="959.94855"
       x2="553.66211"
       y2="965.25183" />
    <linearGradient
       inkscape:collect="always"
       xlink:href="#linearGradient70056-3"
       id="linearGradient73051"
       gradientUnits="userSpaceOnUse"
       gradientTransform="translate(320,180)"
       x1="495.84396"
       y1="952.03333"
       x2="525.43182"
       y2="980.05243" />
    <linearGradient
       inkscape:collect="always"
       xlink:href="#linearGradient5316-5"
       id="linearGradient73045"
       gradientUnits="userSpaceOnUse"
       gradientTransform="matrix(2.6666667,0,0,2.6666667,-1294.0251,-1580.8227)"
       x1="495.84396"
       y1="952.03333"
       x2="525.43182"
       y2="980.05243" />
    <linearGradient
       id="linearGradient5316-5">
      <stop
         style="stop-color:#87c7ff;stop-opacity:1;"
         offset="0"
         id="stop5320-8" />
      <stop
         style="stop-color:#74aadb;stop-opacity:1;"
         offset="1"
         id="stop5322-6" />
    </linearGradient>
    <linearGradient
       inkscape:collect="always"
       xlink:href="#linearGradient5316-5"
       id="linearGradient73043"
       gradientUnits="userSpaceOnUse"
       gradientTransform="matrix(2.6666667,0,0,2.6666667,-1294.0251,-1580.8227)"
       x1="495.84396"
       y1="952.03333"
       x2="525.43182"
       y2="980.05243" />
    <linearGradient
       inkscape:collect="always"
       xlink:href="#linearGradient5316-5"
       id="linearGradient73041"
       gradientUnits="userSpaceOnUse"
       gradientTransform="matrix(2.6666667,0,0,2.6666667,-1294.0251,-1580.8227)"
       x1="495.84396"
       y1="952.03333"
       x2="525.43182"
       y2="980.05243" />
    <linearGradient
       inkscape:collect="always"
       xlink:href="#linearGradient5316-5"
       id="linearGradient73039"
       gradientUnits="userSpaceOnUse"
       gradientTransform="matrix(2.6666667,0,0,2.6666667,-1294.0251,-1580.8227)"
       x1="495.84396"
       y1="952.03333"
       x2="525.43182"
       y2="980.05243" />
    <linearGradient
       inkscape:collect="always"
       xlink:href="#linearGradient5316-5"
       id="linearGradient73037"
       gradientUnits="userSpaceOnUse"
       gradientTransform="matrix(2.6666667,0,0,2.6666667,-1294.0251,-1580.8227)"
       x1="495.84396"
       y1="952.03333"
       x2="525.43182"
       y2="980.05243" />
    <linearGradient
       inkscape:collect="always"
       xlink:href="#linearGradient12578-7"
       id="linearGradient73035"
       gradientUnits="userSpaceOnUse"
       gradientTransform="matrix(2.6666667,0,0,2.6666667,-1294.0251,-1580.8227)"
       x1="495.84396"
       y1="952.03333"
       x2="525.43182"
       y2="980.05243" />
    <linearGradient
       id="linearGradient12578-7">
      <stop
         style="stop-color:#e9b551;stop-opacity:1;"
         offset="0"
         id="stop12580-7" />
      <stop
         style="stop-color:#b48739;stop-opacity:1;"
         offset="1"
         id="stop12582-2" />
    </linearGradient>
    <linearGradient
       inkscape:collect="always"
       xlink:href="#linearGradient5316-5"
       id="linearGradient73033"
       gradientUnits="userSpaceOnUse"
       gradientTransform="matrix(2.6666667,0,0,2.6666667,-1294.0251,-1580.8227)"
       x1="495.84396"
       y1="952.03333"
       x2="525.43182"
       y2="980.05243" />
    <linearGradient
       inkscape:collect="always"
       xlink:href="#linearGradient5362-5-2"
       id="linearGradient73031"
       gradientUnits="userSpaceOnUse"
       gradientTransform="matrix(2.6666667,0,0,2.6666667,-1454.0251,-1580.8227)"
       x1="570.07867"
       y1="957.39148"
       x2="569.13593"
       y2="964.28577" />
    <linearGradient
       inkscape:collect="always"
       xlink:href="#linearGradient5316-5"
       id="linearGradient73029"
       gradientUnits="userSpaceOnUse"
       gradientTransform="matrix(2.6666667,0,0,2.6666667,-1294.0251,-1580.8227)"
       x1="495.84396"
       y1="952.03333"
       x2="525.43182"
       y2="980.05243" />
    <linearGradient
       inkscape:collect="always"
       xlink:href="#linearGradient5362-5-2"
       id="linearGradient73027"
       gradientUnits="userSpaceOnUse"
       gradientTransform="matrix(2.6666667,0,0,2.6666667,-1454.0251,-1580.8227)"
       x1="563.46381"
       y1="966.29388"
       x2="560.87317"
       y2="973.58594" />
    <linearGradient
       inkscape:collect="always"
       xlink:href="#linearGradient12578-7"
       id="linearGradient73025"
       gradientUnits="userSpaceOnUse"
       gradientTransform="matrix(2.6666667,0,0,2.6666667,-1294.0251,-1580.8227)"
       x1="504.64279"
       y1="963.93219"
       x2="507.48212"
       y2="966.18219" />
    <linearGradient
       inkscape:collect="always"
       xlink:href="#linearGradient5362-5-2"
       id="linearGradient73023"
       gradientUnits="userSpaceOnUse"
       gradientTransform="matrix(2.6666667,0,0,2.6666667,-1454.0251,-1580.8227)"
       x1="569.9176"
       y1="968.8996"
       x2="570.15814"
       y2="977.42908" />
    <linearGradient
       inkscape:collect="always"
       xlink:href="#linearGradient5362-5-2"
       id="linearGradient73021"
       gradientUnits="userSpaceOnUse"
       gradientTransform="matrix(2.6666667,0,0,2.6666667,-1454.0251,-1580.8227)"
       x1="573.33215"
       y1="965.76404"
       x2="578.60663"
       y2="972.12799" />
    <linearGradient
       inkscape:collect="always"
       xlink:href="#linearGradient5362-5-2"
       id="linearGradient73019"
       gradientUnits="userSpaceOnUse"
       gradientTransform="matrix(2.6666667,0,0,2.6666667,-1454.0251,-1580.8227)"
       x1="579.84863"
       y1="958.64478"
       x2="580.14661"
       y2="963.46198" />
    <linearGradient
       inkscape:collect="always"
       xlink:href="#linearGradient5362-5-2"
       id="linearGradient73017"
       gradientUnits="userSpaceOnUse"
       gradientTransform="matrix(2.6666667,0,0,2.6666667,-1454.0251,-1580.8227)"
       x1="566.54944"
       y1="943.39459"
       x2="568.38373"
       y2="950.64246" />
    <linearGradient
       inkscape:collect="always"
       xlink:href="#linearGradient5362-5-2"
       id="linearGradient73015"
       gradientUnits="userSpaceOnUse"
       gradientTransform="matrix(2.6666667,0,0,2.6666667,-1454.0251,-1580.8227)"
       x1="582.08319"
       y1="947.46552"
       x2="579.84314"
       y2="954.625" />
    <linearGradient
       inkscape:collect="always"
       xlink:href="#linearGradient5362-5-2"
       id="linearGradient73013"
       gradientUnits="userSpaceOnUse"
       gradientTransform="matrix(2.6666667,0,0,2.6666667,-1454.0251,-1580.8227)"
       x1="553.10724"
       y1="948.68689"
       x2="558.46014"
       y2="955.84637" />
    <linearGradient
       inkscape:collect="always"
       xlink:href="#linearGradient5316-5"
       id="linearGradient73011"
       gradientUnits="userSpaceOnUse"
       gradientTransform="matrix(2.6666667,0,0,2.6666667,-1294.0251,-1580.8227)"
       x1="515.4292"
       y1="963.63873"
       x2="517.66461"
       y2="966.63873" />
    <linearGradient
       inkscape:collect="always"
       xlink:href="#linearGradient5316-5"
       id="linearGradient73009"
       gradientUnits="userSpaceOnUse"
       gradientTransform="matrix(2.6666667,0,0,2.6666667,-1294.0251,-1580.8227)"
       x1="513.24377"
       y1="971.68604"
       x2="516.78125"
       y2="974.87354" />
    <linearGradient
       inkscape:collect="always"
       xlink:href="#linearGradient5316-5"
       id="linearGradient73007"
       gradientUnits="userSpaceOnUse"
       gradientTransform="matrix(2.6666667,0,0,2.6666667,-1294.0251,-1580.8227)"
       x1="513.82202"
       y1="955.75"
       x2="516"
       y2="959.0625" />
    <linearGradient
       inkscape:collect="always"
       xlink:href="#linearGradient5316-5"
       id="linearGradient73005"
       gradientUnits="userSpaceOnUse"
       gradientTransform="matrix(2.6666667,0,0,2.6666667,-1294.0251,-1580.8227)"
       x1="506.0285"
       y1="977.3407"
       x2="508.40887"
       y2="981.9657" />
    <linearGradient
       inkscape:collect="always"
       xlink:href="#linearGradient5316-5"
       id="linearGradient73003"
       gradientUnits="userSpaceOnUse"
       gradientTransform="matrix(2.6666667,0,0,2.6666667,-1294.0251,-1580.8227)"
       x1="494.44818"
       y1="973.71851"
       x2="496.84381"
       y2="978.84351" />
    <linearGradient
       inkscape:collect="always"
       xlink:href="#linearGradient5316-5"
       id="linearGradient73001"
       gradientUnits="userSpaceOnUse"
       gradientTransform="matrix(2.6666667,0,0,2.6666667,-1294.0251,-1580.8227)"
       x1="497.20895"
       y1="956.96875"
       x2="501.71875"
       y2="958.78125" />
    <linearGradient
       inkscape:collect="always"
       xlink:href="#linearGradient5316-5"
       id="linearGradient72999"
       gradientUnits="userSpaceOnUse"
       gradientTransform="matrix(2.6666667,0,0,2.6666667,-1294.0251,-1580.8227)"
       x1="507.74323"
       y1="953.01746"
       x2="510.35046"
       y2="956.45496" />
    <linearGradient
       inkscape:collect="always"
       xlink:href="#linearGradient9863-4"
       id="linearGradient72997"
       gradientUnits="userSpaceOnUse"
       gradientTransform="matrix(2.6666667,0,0,2.6666667,-1134.025,-1420.8226)"
       x1="428.26834"
       y1="904.04584"
       x2="469.82092"
       y2="904.04584" />
    <linearGradient
       id="linearGradient9863-4">
      <stop
         style="stop-color:#2f445a;stop-opacity:1;"
         offset="0"
         id="stop9865-7" />
      <stop
         style="stop-color:#415f7c;stop-opacity:1"
         offset="1"
         id="stop9867-85" />
    </linearGradient>
  </defs>
  <sodipodi:namedview
     id="base"
     pagecolor="#ffffff"
     bordercolor="#666666"
     borderopacity="1.0"
     inkscape:pageopacity="0.0"
     inkscape:pageshadow="2"
     inkscape:zoom="1.979899"
     inkscape:cx="191.70742"
     inkscape:cy="73.874577"
     inkscape:document-units="px"
     inkscape:current-layer="layer1"
     showgrid="false"
     inkscape:window-width="1366"
     inkscape:window-height="717"
     inkscape:window-x="0"
     inkscape:window-y="0"
     inkscape:window-maximized="1" />
  <metadata
     id="metadata70574">
    <rdf:RDF>
      <cc:Work
         rdf:about="">
        <dc:format>image/svg+xml</dc:format>
        <dc:type
           rdf:resource="http://purl.org/dc/dcmitype/StillImage" />
        <dc:title />
      </cc:Work>
    </rdf:RDF>
  </metadata>
  <g
     inkscape:label="Capa 1"
     inkscape:groupmode="layer"
     id="layer1"
     transform="translate(0,-924.36218)">
    <path
       inkscape:connector-curvature="0"
       id="path72523"
       d="m 71.808301,937.26043 c -0.3073,0.027 -0.6184,0 -0.9167,0.083 l -7.5,0.5835 c -4.8658,0.3144 -8.5587,7.9805 -8.25,17.1666 0.075,2.2371 0.4302,4.3272 0.9167,6.2499 -0.7805,-1.1469 -1.6708,-2.2256 -2.6667,-3.3333 -4.9603,-5.5168 -11.0991,-8.7344 -15.5833,-8.5 l -7.6667,0.5 c -1.2952,0.1226 -2.4191,0.504 -3.3333,1.2501 -4.0616,3.3144 -2.0804,11.8437 4.4166,19 4.8488,5.3405 10.8308,8.4037 15.25,8.2499 l 7.5834,0.168 c 1.4756,-0.069 2.8153,-0.4944 3.8333,-1.3334 2.1486,-1.7704 2.5552,-4.956 1.5833,-8.6666 1.4601,1.7061 3.1753,2.6181 5,2.5 l 7.8334,0 c 1.2291,-0.059 2.4487,-0.5904 3.5,-1.5 -0.8316,2.9245 -0.6106,5.489 0.8333,7 0.7847,0.8213 1.8103,1.3256 3.0833,1.4168 l 7.9167,0.2506 c 3.7605,0.208 9.1517,-2.5666 13.833299,-7.5 6.3447,-6.6858 8.946,-14.7738 5.8334,-18.0834 -0.8568,-0.911 -1.9923,-1.3782 -3.4167,-1.4166 -0.4688,0 -0.9874,0 -1.5,0.083 l -6.416699,0.3333 c -3.717,-0.1173 -9.0133,2.5934 -13.5833,7.3334 -0.9058,0.9394 -1.6718,1.94 -2.4167,2.9165 0.6666,-2.4637 1.0479,-5.2763 1,-8.2499 -0.1506,-9.3674 -4.2499,-16.736 -9.1666,-16.5 z m -8.9167,39.6667 c -5.2326,0.4904 -9.4265,4.3248 -10.75,9.2501 -2.8936,-2.2669 -7.8642,-3.8085 -13.75,-3.9168 -2.4005,-0.056 -6.6927,-0.1546 -8.8333,-0.168 -10.5024,0.2507 -19.5415,4.6646 -20.1667003,9.9168 -0.379,3.1838 2.4018003,5.9718 7.0000003,7.5832 2.1991,0.77097 4.8025,1.24477 7.6667,1.41677 2.4246,0.2267 4.6346,0.4715 6.9166,0.5832 1.15,0.083 2.3564,0.112 3.5834,0.083 8.1187,-0.1947 15.2696,-2.91947 18.5,-6.58317 1.8799,3.676 5.5078,6.24797 9.6666,6.58317 l 6.5834,0.7501 c 0.9875,0.1654 2.0375,0.1814 3.0833,0.083 1.2432,-0.1173 2.3966,-0.4512 3.5,-0.9168 -0.076,0.091 -0.18,0.152 -0.2499,0.2507 -2.8407,3.9565 0.4754,10.6509 7.4167,15 3.3714,2.1125 7.0252,3.3176 10.1667,3.5 l 4.6666,0.6666 c 1.3404,0.3272 2.611099,0.567 3.833399,0.5835 3.0574,0.04 5.6261,-0.8917 7,-2.8333 2.8676,-4.0526 -0.493,-10.9616 -7.5,-15.4168 -3.596299,-2.2864 -7.457399,-3.50557 -10.749999,-3.58317 l -5.0834,-0.4168 c -0.8621,-0.1574 -1.6923,-0.224 -2.5,-0.2507 -1.3146,-0.043 -2.4893,0.1093 -3.5833,0.4168 1.6222,-1.4384 2.8429,-3.3224 3.5833,-5.4168 1.8788,1.5832 4.6776,2.7235 8.0834,3.0835 l 8.3333,0.5832 c 0.880499,0.075 1.810999,0.112 2.749999,0.083 8.073,-0.248 14.9732,-4.3922 15.4167,-9.2498 0.4224,-4.6272 -5.1575,-8.216 -12.6667,-8.3334 -0.374,0 -0.7837,0 -1.1667,0 l -6.499999,-0.2506 c -0.4615,0 -0.9408,0 -1.4166,0 -5.4426,0.1653 -10.29,2.1088 -13,4.8333 -1.8071,-4.4296 -5.9522,-7.4627 -10.75,-7.5835 -0.4701,0 -1.0197,-0.045 -1.5,0 l -4.9167,-0.2506 c -0.3357,-0.043 -0.6569,-0.069 -1,-0.083 -0.5306,-0.027 -1.1223,-0.051 -1.6667,0 z m -16.0833,24.33327 c -3.8492,-0.069 -9.1908,2.4816 -14,7.0835 -6.9824,6.6811 -10.1904,15.0971 -7.1667,18.8333 0.5838,0.7214 1.3317,1.2219 2.25,1.5 l 7,1.5832 c 3.877,1.4342 10.5997,-1.237 16.5,-6.9165 2.0304,-1.9544 3.7365,-4.072 5.0833,-6.1667 -0.702,2.4638 -1.1483,5.2099 -1.0833,8.1667 0.1853,8.4363 3.8502,15.0291 8.3333,15.5 l 7.25,1.8333 1.3334,0 c 4.9569,-0.4525 8.7836,-8.3029 8.5833,-17.5834 -0.1883,-8.7302 -3.8507,-15.5952 -8.4167,-16 l -7.75,-0.9166 c -0.2533,-0.027 -0.4918,-0.027 -0.75,0 -1.7447,0.1574 -3.3202,1.2766 -4.6666,3 0.8456,-2.9341 0.7527,-5.5058 -0.5834,-7.1666 -0.9099,-1.1312 -2.2663,-1.7475 -3.9166,-1.8334 l -6.4167,-0.7501 c -0.4951,-0.1253 -1.0169,-0.1547 -1.5833,-0.168 z m 18.9166,7.0835 5.8334,0.7499 -5.6667,-0.6667 -0.1667,-0.083 z"
       style="fill:none;stroke:url(#linearGradient72997);stroke-width:5.33333349;stroke-linecap:round;stroke-linejoin:round;stroke-miterlimit:4;stroke-dasharray:none;display:inline" />
    <path
       inkscape:connector-curvature="0"
       style="fill:url(#linearGradient72999);fill-opacity:1;stroke:none;display:inline"
       d="m 71.808301,937.26043 -8.4167,0.6667 c -4.8658,0.3147 -8.5587,7.9808 -8.25,17.1667 0.3086,9.1861 4.4675,16.3978 9.3333,16.0834 l 7.8334,0 -2.3334,-4.2501 c 1.838,-3.1763 2.9227,-7.8597 2.75,-13 l -0.2498,-3.1667 c -0.4928,-3.5672 -1.5747,-6.5858 -3,-8.8333 l 2.3333,-4.6667 z"
       id="path72525" />
    <path
       inkscape:connector-curvature="0"
       style="fill:url(#linearGradient73001);fill-opacity:1;stroke:none;display:inline"
       d="m 37.808301,949.51063 -7.6667,0.5 c -1.2952,0.1226 -2.4191,0.504 -3.3333,1.2498 -4.0616,3.3147 -2.0804,11.844 4.4166,19 4.8488,5.3408 10.8308,8.404 15.25,8.2502 l 7.5834,0.168 -3.4167,-1.8334 c 3.6003,-3.5064 1.6399,-11.637 -4.6667,-18.5834 -3.4577,-3.8083 -7.5295,-6.424 -11.1666,-7.5832 l 3,-1.1667 z"
       id="path72527" />
    <path
       inkscape:connector-curvature="0"
       style="fill:url(#linearGradient73003);fill-opacity:1;stroke:none;display:inline"
       d="m 46.808301,1001.2604 c -3.8492,-0.069 -9.1908,2.4816 -14,7.0835 -6.9824,6.6811 -10.1904,15.0971 -7.1667,18.8333 0.5838,0.7214 1.3317,1.2219 2.25,1.5 l 7,1.5832 -2,-1.5 0.083,-0.3333 c 3.3358,-0.9211 7.1697,-3.1573 10.75,-6.5832 6.4933,-6.2133 9.7616,-13.9416 7.75,-18 l 1.25,-0.5835 6,0.7502 -3.9167,-1.8334 -6.4167,-0.7501 c -0.4951,-0.1253 -1.0169,-0.1547 -1.5833,-0.168 z"
       id="path72529" />
    <path
       inkscape:connector-curvature="0"
       id="path72531"
       d="m 63.974901,1008.1772 c -4.9103,0.44 -8.7817,8.1411 -8.5833,17.1667 0.1853,8.4363 3.8502,15.0291 8.3333,15.5 l 7.25,1.8333 1.3334,0 -1.5,-0.3333 -2,-3.9168 c 2.699,-3.0208 4.5525,-8.4771 4.4166,-14.6667 -0.1034,-4.7098 -1.3667,-8.8397 -3.1666,-11.6666 l 1.5,-3 -5.6667,-0.6667 -0.1667,-0.083 5.8334,0.7499 0.9166,0 -7.75,-0.9165 c -0.2533,-0.027 -0.4918,-0.027 -0.75,0 z"
       style="fill:url(#linearGradient73005);fill-opacity:1;stroke:none;display:inline" />
    <path
       inkscape:connector-curvature="0"
       id="path72533"
       d="m 103.8916,951.34393 -7.916699,0.4165 c -3.717,-0.1173 -9.0133,2.5934 -13.5833,7.3334 -6.285,6.5192 -8.8334,14.3568 -5.75,17.5834 0.7847,0.8211 1.8103,1.3254 3.0833,1.4166 l 7.9167,0.2506 -2.9167,-1.2501 c 2.8637,-1.1757 5.9612,-3.3541 8.8334,-6.3333 5.9786,-6.2011 8.660899,-13.6774 6.25,-17.1667 l 0.999999,-0.5832 6.5,-0.2507 -3.4167,-1.4165 z"
       style="fill:url(#linearGradient73007);fill-opacity:1;stroke:none;display:inline" />
    <path
       inkscape:connector-curvature="0"
       style="fill:url(#linearGradient73009);fill-opacity:1;stroke:none;display:inline"
       d="m 82.891601,999.09383 c -3.155,-0.1014 -5.8465,0.7954 -7.25,2.75007 -2.8407,3.9563 0.4754,10.6507 7.4167,15 3.3714,2.1125 7.0252,3.3173 10.1666,3.5 l 8.499999,1.2499 7,-2.8334 -7.9166,-1.1666 c 2.8407,-3.9563 -0.4755,-10.7339 -7.416699,-15.0832 -1.4663,-0.9187 -3.0028,-1.6099 -4.5,-2.1667 l 1.5833,-0.58347 -5.0833,-0.4165 c -0.8622,-0.1573 -1.6923,-0.224 -2.5,-0.2507 z"
       id="path72535" />
    <path
       inkscape:connector-curvature="0"
       id="path72537"
       d="m 95.724901,980.01063 c -7.9972,0.2426 -14.8107,4.3178 -15.25,9.0832 -0.3786,4.1085 4.1275,7.4101 10.5,8.0834 l 8.3334,0.5832 -1.25,-0.9165 c 6.184699,-1.2051 10.968699,-4.7115 11.333299,-8.6667 0.3012,-3.268 -2.4736,-5.9224 -6.8333,-7.2501 l 1.0833,-0.6667 -5.749999,-0.168 c -0.252,-0.027 -0.4931,-0.077 -0.75,-0.083 -0.4616,0 -0.9409,0 -1.4167,0 z"
       style="fill:url(#linearGradient73011);fill-opacity:1;stroke:none;display:inline" />
    <path
       sodipodi:nodetypes="ccscccc"
       id="path72539"
       d="m 37.808301,949.51063 -7.6667,0.5 c -1.2952,0.1226 -2.4191,0.504 -3.3333,1.2498 -4.0616,3.3147 -2.0804,11.844 4.4166,19 19.6176,17.8619 30.8504,6.3166 14.75,-12 -3.4577,-3.8082 -7.5295,-6.424 -11.1666,-7.5832 z"
       style="fill:url(#linearGradient73013);fill-opacity:1;stroke:none;display:inline"
       inkscape:connector-curvature="0" />
    <path
       sodipodi:nodetypes="cccccccc"
       style="fill:url(#linearGradient73015);fill-opacity:1;stroke:none;display:inline"
       d="m 103.8916,951.34393 -7.916699,0.4165 c -3.717,-0.1173 -9.0133,2.5934 -13.5833,7.3334 l 11.1667,11.6666 c 5.9786,-6.201 8.660899,-13.6773 6.25,-17.1666 l 0.999999,-0.5832 6.5,-0.2507 z"
       id="path72541"
       inkscape:connector-curvature="0" />
    <path
       sodipodi:nodetypes="cccccccc"
       id="path72543"
       d="m 71.808301,937.26043 -8.4167,0.6667 c -4.8658,0.3147 -8.5587,7.9808 -8.25,17.1667 l 17.5833,-1.1667 -0.2498,-3.1667 c -0.4928,-3.5672 -1.5747,-6.5858 -3,-8.8333 l 2.3333,-4.6667 z"
       style="fill:url(#linearGradient73017);fill-opacity:1;stroke:none;display:inline"
       inkscape:connector-curvature="0" />
    <path
       id="path72545"
       d="m 95.724901,980.01063 c -7.9972,0.2426 -14.8107,4.3178 -15.25,9.0832 -0.01,0.056 0,0.1093 0,0.168 l 28.916699,-1.7499 c -0.1213,-2.9496 -2.785,-5.3507 -6.8333,-6.5835 l 1.0833,-0.6666 -5.749999,-0.168 c -0.252,-0.027 -0.4931,-0.077 -0.75,-0.083 -0.4616,0 -0.9409,0 -1.4167,0 z"
       style="fill:url(#linearGradient73019);fill-opacity:1;stroke:none;display:inline"
       inkscape:connector-curvature="0" />
    <path
       id="path72547"
       d="m 82.891601,999.09383 c -3.155,-0.1014 -5.8465,0.7954 -7.25,2.75007 -2.8407,3.9563 0.4754,10.6507 7.4167,15 0.213,0.1333 0.4515,0.208 0.6666,0.3333 l 10.75,-13.9168 c -0.3605,-0.2533 -0.7002,-0.5098 -1.0833,-0.7498 -1.4663,-0.9187 -3.0028,-1.6099 -4.5,-2.1667 l 1.5833,-0.58347 -5.0833,-0.4165 c -0.8622,-0.1573 -1.6923,-0.224 -2.5,-0.2507 z"
       style="fill:url(#linearGradient73021);fill-opacity:1;stroke:none;display:inline"
       inkscape:connector-curvature="0" />
    <path
       id="path72549"
       d="m 63.974901,1008.1772 c -4.803,0.4304 -8.6047,7.8144 -8.5833,16.5832 l 12.5833,1.7502 5.25,-2 c 0,-0.256 0.01,-0.492 0,-0.7502 -0.1034,-4.7098 -1.3667,-8.8397 -3.1666,-11.6666 l 1.5,-3 -5.6667,-0.6667 -0.1667,-0.083 5.8334,0.7499 0.9166,0 -7.75,-0.9165 c -0.2533,-0.027 -0.4918,-0.027 -0.75,0 z"
       style="fill:url(#linearGradient73023);fill-opacity:1;stroke:none;display:inline"
       inkscape:connector-curvature="0" />
    <path
       id="path72551"
       d="m 62.891601,976.92713 c -6.6677,0.6248 -11.6779,6.6755 -11.1667,13.5 0.4576,6.1085 5.2357,10.78527 11,11.25007 l 6.5834,0.7499 -1.4167,-1.5832 c 4.9967,-1.92027 8.4258,-6.98317 8,-12.66667 -0.3269,-4.3632 -2.8328,-7.9469 -6.3333,-9.8333 l 0.9166,-1.0835 -4.9166,-0.2506 c -0.3357,-0.043 -0.6569,-0.069 -1,-0.083 -0.5307,-0.027 -1.1223,-0.051 -1.6667,0 z"
       style="fill:url(#linearGradient73025);fill-opacity:1;stroke:none;display:inline"
       inkscape:connector-curvature="0" />
    <path
       id="path72553"
       d="m 46.808301,1001.2604 c -3.8492,-0.069 -9.1908,2.4816 -14,7.0835 -0.7566,0.724 -1.4186,1.4936 -2.0834,2.2499 6.1045,3.6165 13.3334,8.0834 13.3334,8.0834 l 1.6666,1 c 5.1062,-5.7629 7.5371,-12.228 5.75,-15.8333 l 1.25,-0.5835 6,0.7502 -3.9166,-1.8334 -6.4167,-0.7501 c -0.4951,-0.1253 -1.0169,-0.1547 -1.5833,-0.168 z"
       style="fill:url(#linearGradient73027);fill-opacity:1;stroke:none;display:inline"
       inkscape:connector-curvature="0" />
    <path
       id="path72555"
       d="m 71.808301,937.26043 c -4.9168,0.2347 -8.8174,7.9659 -8.6667,17.3334 0.1507,9.3677 4.2499,16.8194 9.1667,16.5834 4.9167,-0.2346 8.8173,-8.049 8.6666,-17.4168 -0.1506,-9.3674 -4.2499,-16.7357 -9.1666,-16.5 z"
       style="fill:url(#linearGradient73029);fill-opacity:1;stroke:none;display:inline"
       inkscape:connector-curvature="0" />
    <path
       inkscape:connector-curvature="0"
       style="fill:url(#linearGradient73031);fill-opacity:1;stroke:none;display:inline"
       d="m 62.891601,976.92713 c -6.6677,0.6248 -11.6779,6.6755 -11.1667,13.5 0.067,0.8963 0.2574,1.7579 0.5,2.5835 l 23.5,-5.8334 c -0.6115,-3.8994 -2.9428,-7.096 -6.1666,-8.8333 l 0.9166,-1.0835 -4.9166,-0.2506 c -0.3357,-0.043 -0.6569,-0.069 -1,-0.083 -0.5307,-0.027 -1.1223,-0.051 -1.6667,0 z"
       id="path72557" />
    <path
       id="path72559"
       d="m 37.808301,949.51063 c -1.4576,0.077 -2.7421,0.5861 -3.75,1.4165 -4.1089,3.3859 -2.0726,12.0235 4.5,19.3333 4.9442,5.499 11.0195,8.6286 15.5,8.4168 1.4756,-0.069 2.8153,-0.4944 3.8333,-1.3333 4.1088,-3.3856 2.0726,-12.0235 -4.5,-19.3333 -4.9603,-5.5168 -11.0991,-8.7344 -15.5833,-8.5 z"
       style="fill:url(#linearGradient73033);fill-opacity:1;stroke:none;display:inline"
       inkscape:connector-curvature="0" />
    <path
       inkscape:connector-curvature="0"
       style="fill:url(#linearGradient73035);fill-opacity:1;stroke:none;display:inline"
       d="m 70.474901,977.26043 c -6.7309,0.6384 -11.7661,6.8603 -11.25,13.8334 0.436,5.8898 4.7148,10.43727 10.0834,11.33327 0.9875,0.1653 2.0375,0.1813 3.0833,0.083 6.7309,-0.6382 11.7661,-6.77677 11.25,-13.74987 -0.4793,-6.4755 -5.5509,-11.3461 -11.6667,-11.5 -0.47,0 -1.0196,-0.045 -1.5,0 z"
       id="path72561" />
    <path
       id="path72563"
       d="m 103.8916,951.34393 c -3.7502,-0.1013 -9.068499,2.6547 -13.666699,7.5 -6.3446,6.6859 -8.9459,14.7739 -5.8333,18.0832 0.8159,0.8675 1.9142,1.3424 3.25,1.4168 3.7605,0.208 9.1517,-2.5667 13.833299,-7.5 6.3447,-6.6859 8.946,-14.7739 5.8334,-18.0835 -0.8568,-0.9109 -1.9923,-1.3781 -3.4167,-1.4165 z"
       style="fill:url(#linearGradient73037);fill-opacity:1;stroke:none;display:inline"
       inkscape:connector-curvature="0" />
    <path
       id="path72565"
       d="m 103.6416,980.26043 c -8.072999,0.248 -14.973199,4.3926 -15.416699,9.2502 -0.3918,4.2925 4.3942,7.6845 11.0834,8.2498 0.880399,0.075 1.810999,0.112 2.749999,0.083 8.073,-0.248 14.9732,-4.3923 15.4166,-9.2499 0.4224,-4.6272 -5.1574,-8.216 -12.6666,-8.3333 -0.374,0 -0.7837,0 -1.1667,0 z"
       style="fill:url(#linearGradient73039);fill-opacity:1;stroke:none;display:inline"
       inkscape:connector-curvature="0" />
    <path
       id="path72567"
       d="m 90.474901,999.76043 c -3.1227,-0.075 -5.6874,0.86077 -7.0833,2.83337 -2.8677,4.0525 0.4929,10.9616 7.5,15.4168 3.6501,2.3208 7.5089,3.5384 10.833299,3.5832 3.0575,0.04 5.6262,-0.8918 7,-2.8334 2.8677,-4.0522 -0.4929,-10.9613 -7.5,-15.4165 -3.596199,-2.2864 -7.457399,-3.50587 -10.749999,-3.58347 z"
       style="fill:url(#linearGradient73041);fill-opacity:1;stroke:none;display:inline"
       inkscape:connector-curvature="0" />
    <path
       id="path72569"
       d="m 54.808301,1002.1772 c -3.945,-0.2053 -9.5607,2.4155 -14.5834,7.2499 -7.1239,6.8573 -10.4183,15.4987 -7.3333,19.3333 0.5298,0.6587 1.1961,1.2027 2,1.5 3.877,1.4342 10.5997,-1.237 16.5,-6.9165 7.124,-6.8571 10.4183,-15.4987 7.3333,-19.3333 -0.9099,-1.1312 -2.2663,-1.7475 -3.9166,-1.8334 z"
       style="fill:url(#linearGradient73043);fill-opacity:1;stroke:none;display:inline"
       inkscape:connector-curvature="0" />
    <path
       id="path72571"
       d="m 71.558301,1009.0938 c -4.9569,0.4525 -8.7836,8.3029 -8.5834,17.5834 0.1827,8.4606 3.6289,15.2259 8,16 0.4236,0.075 0.8954,0.04 1.3334,0 4.9569,-0.4525 8.7836,-8.3029 8.5833,-17.5834 -0.1883,-8.7302 -3.8507,-15.5952 -8.4167,-16 -0.2877,-0.027 -0.6228,-0.027 -0.9166,0 z"
       style="fill:url(#linearGradient73045);fill-opacity:1;stroke:none;display:inline"
       inkscape:connector-curvature="0" />
    <path
       id="path72573"
       d="m 102.0427,997.85143 -7.897399,-0.5659 -3.1897,-0.1147 8.3541,0.6104 2.732999,0.069"
       inkscape:connector-curvature="0"
       style="fill:#000000;fill-opacity:0.3;stroke:none;display:inline" />
    <path
       id="path72575"
       d="m 103.6485,980.26023 -7.912499,-0.232 1.4066,0 7.641599,0.2266 -1.1357,0"
       inkscape:connector-curvature="0"
       style="fill:#000000;fill-opacity:0.3;stroke:none;display:inline" />
    <path
       id="path72577"
       d="m 102.0427,997.85143 -7.897399,-0.5662 0,3e-4 7.897399,0.5659 0,0"
       inkscape:connector-curvature="0"
       style="fill:#000000;fill-opacity:0.3;stroke:none;display:inline" />
    <path
       id="path72579"
       d="m 102.0427,997.85143 -7.897399,-0.5659 0,0 7.897399,0.5659 0,0"
       inkscape:connector-curvature="0"
       style="fill:#000000;fill-opacity:0.3;stroke:none;display:inline" />
    <g
       style="display:inline"
       id="g72581"
       transform="matrix(2.6666667,0,0,2.6666667,-2147.3584,-2060.8227)">
      <path
         style="fill:url(#linearGradient73047);fill-opacity:1;stroke:none"
         d="m 816.34375,1141.0937 c -3.93839,0.094 -7.32805,1.7492 -7.5625,3.7188 -0.14212,1.1939 0.90069,2.2394 2.625,2.8437 0.82465,0.2891 1.79629,0.4774 2.87037,0.5419 1.28615,0.1205 2.39311,0.2427 3.6765,0.2394 -5.85164,-0.3036 4.52991,-0.8518 5.07813,-3.9688 -0.57691,-2.0513 -2.77707,-3.1356 -3.37213,-3.3014 -0.9002,-0.021 -2.51262,-0.069 -3.31537,-0.073 z"
         id="path72583"
         inkscape:connector-curvature="0"
         sodipodi:nodetypes="cssccccc" />
      <path
         inkscape:connector-curvature="0"
         style="fill:url(#linearGradient73049);fill-opacity:1;stroke:none"
         d="m 816.34375,1141.0937 c -3.93839,0.094 -7.32805,1.7492 -7.5625,3.7188 -0.0253,0.2126 -0.0157,0.4235 0.0313,0.625 L 823,1144.5625 c 0.008,-0.032 0.0255,-0.061 0.0313,-0.094 -0.57691,-2.0513 -2.77994,-3.1467 -3.375,-3.3125 -0.9002,-0.021 -2.50975,-0.058 -3.3125,-0.063 z"
         id="path72585" />
      <path
         inkscape:connector-curvature="0"
         style="fill:url(#linearGradient73051);fill-opacity:1;stroke:none;display:inline"
         d="m 819.0625,1141.1562 c -3.97574,0.096 -7.38833,1.8049 -7.625,3.8125 -0.20193,1.7129 1.98114,3.0974 5.09375,3.4063 0.53566,0.054 1.10376,0.077 1.6875,0.063 3.97574,-0.096 7.38833,-1.8049 7.625,-3.8125 0.23667,-2.0076 -2.80551,-3.5644 -6.78125,-3.4688 z"
         id="path72587" />
    </g>
    <g
       style="display:inline"
       transform="matrix(2.6666667,0,0,2.6666667,-2147.3584,-2220.8227)"
       clip-path="url(#clipPath71665)"
       id="g72597">
      <path
         sodipodi:nodetypes="cssccccc"
         inkscape:connector-curvature="0"
         id="path72599"
         d="m 816.34375,1201.0937 c -3.93839,0.094 -7.32805,1.7492 -7.5625,3.7188 -0.14212,1.1939 0.90069,2.2394 2.625,2.8437 0.82465,0.2891 1.79629,0.4774 2.87037,0.5419 1.28615,0.1205 2.39311,0.2427 3.6765,0.2394 -5.85164,-0.3036 4.52991,-0.8518 5.07813,-3.9688 -0.57691,-2.0513 -2.77707,-3.1356 -3.37213,-3.3014 -0.9002,-0.021 -2.51262,-0.069 -3.31537,-0.073 z"
         style="fill:url(#linearGradient73059);fill-opacity:1;stroke:none" />
      <path
         id="path72601"
         d="m 816.34375,1201.0937 c -3.93839,0.094 -7.32805,1.7492 -7.5625,3.7188 -0.0253,0.2126 -0.0157,0.4235 0.0313,0.625 L 823,1204.5625 c 0.008,-0.032 0.0255,-0.061 0.0313,-0.094 -0.57691,-2.0513 -2.77994,-3.1467 -3.375,-3.3125 -0.9002,-0.021 -2.50975,-0.058 -3.3125,-0.063 z"
         style="fill:url(#linearGradient73061);fill-opacity:1;stroke:none"
         inkscape:connector-curvature="0" />
      <path
         id="path72603"
         d="m 819.0625,1201.1562 c -3.97574,0.096 -7.38833,1.8049 -7.625,3.8125 -0.20193,1.7129 1.98114,3.0974 5.09375,3.4063 0.53566,0.054 1.10376,0.077 1.6875,0.063 3.97574,-0.096 7.38833,-1.8049 7.625,-3.8125 0.23667,-2.0076 -2.80551,-3.5644 -6.78125,-3.4688 z"
         style="fill:url(#linearGradient73063);fill-opacity:1;stroke:none;display:inline"
         inkscape:connector-curvature="0" />
    </g>
  </g>
</svg>
