<?xml version="1.0" encoding="UTF-8" standalone="no"?>
<!-- Created with Inkscape (http://www.inkscape.org/) -->

<svg
   xmlns:dc="http://purl.org/dc/elements/1.1/"
   xmlns:cc="http://creativecommons.org/ns#"
   xmlns:rdf="http://www.w3.org/1999/02/22-rdf-syntax-ns#"
   xmlns:svg="http://www.w3.org/2000/svg"
   xmlns="http://www.w3.org/2000/svg"
   xmlns:xlink="http://www.w3.org/1999/xlink"
   xmlns:sodipodi="http://sodipodi.sourceforge.net/DTD/sodipodi-0.dtd"
   xmlns:inkscape="http://www.inkscape.org/namespaces/inkscape"
   width="128"
   height="128"
   id="svg73994"
   version="1.1"
   inkscape:version="0.48.3.1 r9886"
   sodipodi:docname="weather-few-clouds-night-080.svg">
  <defs
     id="defs73996">
    <linearGradient
       id="linearGradient9863-1">
      <stop
         id="stop9865-5"
         offset="0"
         style="stop-color:#2f445a;stop-opacity:1;" />
      <stop
         id="stop9867-6"
         offset="1"
         style="stop-color:#415f7c;stop-opacity:1" />
    </linearGradient>
    <linearGradient
       id="linearGradient14753-1">
      <stop
         id="stop14755-3"
         offset="0"
         style="stop-color:#ffffff;stop-opacity:1;" />
      <stop
         id="stop14757-4"
         offset="1"
         style="stop-color:#000000;stop-opacity:1;" />
    </linearGradient>
    <linearGradient
       id="linearGradient5344-4">
      <stop
         id="stop5346-0"
         offset="0"
         style="stop-color:#000000;stop-opacity:1;" />
      <stop
         id="stop5348-1"
         offset="1"
         style="stop-color:#000000;stop-opacity:0;" />
    </linearGradient>
    <linearGradient
       inkscape:collect="always"
       xlink:href="#linearGradient9863-1"
       id="linearGradient72306"
       gradientUnits="userSpaceOnUse"
       gradientTransform="matrix(2.2183638,0.04663043,0,2.2183638,-2387.0652,234.1115)"
       x1="1111.3293"
       y1="338.76315"
       x2="1111.3293"
       y2="292.43744" />
    <linearGradient
       inkscape:collect="always"
       xlink:href="#linearGradient14753-1"
       id="linearGradient72304"
       gradientUnits="userSpaceOnUse"
       gradientTransform="matrix(2.6666671,0,0,2.6666667,-1294.8236,-1581.2921)"
       x1="502.89264"
       y1="960.06226"
       x2="539.76996"
       y2="1027.2374" />
    <linearGradient
       inkscape:collect="always"
       xlink:href="#linearGradient14753-1"
       id="linearGradient72302"
       gradientUnits="userSpaceOnUse"
       gradientTransform="matrix(2.6666671,0,0,2.6666667,-1294.8236,-1581.2921)"
       x1="499.93954"
       y1="973.05579"
       x2="494.51364"
       y2="994.60516" />
    <linearGradient
       inkscape:collect="always"
       xlink:href="#linearGradient14753-1"
       id="linearGradient72300"
       gradientUnits="userSpaceOnUse"
       gradientTransform="matrix(2.6666671,0,0,2.6666667,-1294.8236,-1581.2921)"
       x1="504.44736"
       y1="959.78009"
       x2="497.26135"
       y2="993.01416" />
    <linearGradient
       inkscape:collect="always"
       xlink:href="#linearGradient5344-4"
       id="linearGradient72298"
       gradientUnits="userSpaceOnUse"
       gradientTransform="matrix(2.2293577,0.04686149,0,2.2292656,-1060.2506,-1186.2711)"
       x1="504.93024"
       y1="992.24542"
       x2="497.81961"
       y2="968.64575" />
    <linearGradient
       id="linearGradient5439-1">
      <stop
         id="stop5441-1"
         offset="0"
         style="stop-color:#ffffff;stop-opacity:1;" />
      <stop
         id="stop5443-9"
         offset="1"
         style="stop-color:#000000;stop-opacity:1;" />
    </linearGradient>
    <linearGradient
       id="linearGradient9312-0">
      <stop
         style="stop-color:#2f445a;stop-opacity:1"
         offset="0"
         id="stop9314-6" />
      <stop
         style="stop-color:#415f7c;stop-opacity:1"
         offset="1"
         id="stop9316-9" />
    </linearGradient>
    <linearGradient
       id="linearGradient5362-2">
      <stop
         id="stop5364-2"
         offset="0"
         style="stop-color:#ffffff;stop-opacity:1;" />
      <stop
         id="stop5366-3"
         offset="1"
         style="stop-color:#ffffff;stop-opacity:0;" />
    </linearGradient>
    <linearGradient
       inkscape:collect="always"
       xlink:href="#linearGradient5439-1"
       id="linearGradient71626"
       gradientUnits="userSpaceOnUse"
       gradientTransform="matrix(2.7150289,0,0,2.7149163,-1310.6641,-1625.0805)"
       x1="506.521"
       y1="945.86438"
       x2="538.38342"
       y2="1017.9187" />
    <linearGradient
       inkscape:collect="always"
       xlink:href="#linearGradient9863-1"
       id="linearGradient71554"
       gradientUnits="userSpaceOnUse"
       gradientTransform="matrix(2.7016395,0,0,2.7016395,-2926.5284,138.70158)"
       x1="1111.3293"
       y1="338.76315"
       x2="1111.3293"
       y2="292.43744" />
    <linearGradient
       inkscape:collect="always"
       xlink:href="#linearGradient9312-0"
       id="linearGradient71552"
       gradientUnits="userSpaceOnUse"
       gradientTransform="matrix(2.7150289,0,0,2.7149163,-1310.6641,-1625.0805)"
       x1="512.19513"
       y1="982.966"
       x2="512.19513"
       y2="941.53302" />
    <linearGradient
       inkscape:collect="always"
       xlink:href="#linearGradient5344-4"
       id="linearGradient71550"
       gradientUnits="userSpaceOnUse"
       gradientTransform="matrix(2.7150289,0,0,2.7149163,-1310.6641,-1625.0805)"
       x1="504.93024"
       y1="992.24542"
       x2="497.81961"
       y2="968.64575" />
    <linearGradient
       inkscape:collect="always"
       xlink:href="#linearGradient5362-2"
       id="linearGradient71548"
       gradientUnits="userSpaceOnUse"
       gradientTransform="matrix(2.7150289,0,0,2.7149163,-1310.6641,-1625.0805)"
       x1="502.97885"
       y1="936.30072"
       x2="499.43576"
       y2="956.01135" />
    <linearGradient
       inkscape:collect="always"
       xlink:href="#linearGradient9312-0"
       id="linearGradient71546"
       gradientUnits="userSpaceOnUse"
       gradientTransform="matrix(2.7150289,0,0,2.7149163,-1310.6641,-1625.0805)"
       x1="492.45096"
       y1="978.53174"
       x2="497.51462"
       y2="950.40552" />
  </defs>
  <sodipodi:namedview
     id="base"
     pagecolor="#ffffff"
     bordercolor="#666666"
     borderopacity="1.0"
     inkscape:pageopacity="0.0"
     inkscape:pageshadow="2"
     inkscape:zoom="0.35"
     inkscape:cx="432.93824"
     inkscape:cy="251.80767"
     inkscape:document-units="px"
     inkscape:current-layer="layer1"
     showgrid="false"
     inkscape:window-width="1366"
     inkscape:window-height="717"
     inkscape:window-x="0"
     inkscape:window-y="0"
     inkscape:window-maximized="1" />
  <metadata
     id="metadata73999">
    <rdf:RDF>
      <cc:Work
         rdf:about="">
        <dc:format>image/svg+xml</dc:format>
        <dc:type
           rdf:resource="http://purl.org/dc/dcmitype/StillImage" />
        <dc:title />
      </cc:Work>
    </rdf:RDF>
  </metadata>
  <g
     inkscape:label="Capa 1"
     inkscape:groupmode="layer"
     id="layer1"
     transform="translate(0,-924.36218)">
    <path
       inkscape:export-ydpi="57.964222"
       inkscape:export-xdpi="57.964222"
       inkscape:export-filename="/home/dafeba/DCV/tallerD/bocetos/08-09-22-hastaahora.png"
       sodipodi:nodetypes="csssssc"
       id="path71058"
       d="m 107.6973,986.87881 c -0.7603,29.84989 -15.5798,58.68799 -41.0507,58.85709 -10.7483,0.071 -22.628,-2.5462 -30.3102,-6.7064 -15.8765,-8.5976 -25.0999,-27.3744 -25.1181,-48.34871 -0.021,-25.13222 12.9768,-47.92952 33.4491,-55.72128 5.9776,-2.2751 17.6869,-4.21923 25.9837,-4.13344 21.6277,0.22106 37.0462,24.6821 37.0462,56.05274 z"
       style="fill:url(#linearGradient71546);fill-opacity:1;stroke:none;display:inline"
       inkscape:connector-curvature="0" />
    <path
       inkscape:export-ydpi="57.964222"
       inkscape:export-xdpi="57.964222"
       inkscape:export-filename="/home/dafeba/DCV/tallerD/bocetos/08-09-22-hastaahora.png"
       style="fill:url(#linearGradient71548);fill-opacity:1;stroke:none;display:inline"
       d="M 60.4282,989.32332 13.9226,970.97177 c 4.5469,-15.92458 14.6224,-29.06253 28.6635,-35.16962 6.5138,-2.83315 16.8807,-5.11304 24.9456,-4.49616 50.8573,-6.5063 23.9698,58.90816 -7.1035,58.01733 z"
       id="path71060"
       sodipodi:nodetypes="ccscc"
       inkscape:connector-curvature="0" />
    <path
       inkscape:export-ydpi="57.964222"
       inkscape:export-xdpi="57.964222"
       inkscape:export-filename="/home/dafeba/DCV/tallerD/bocetos/08-09-22-hastaahora.png"
       style="fill:url(#linearGradient71550);fill-opacity:1;stroke:none;display:inline"
       d="m 67.6066,1045.7359 c -7.9467,1.1421 -19.0075,-1.8752 -25.3781,-4.1019 -15.6859,-5.4824 -26.216,-19.9909 -29.7238,-37.6893 -0.845,-4.26341 20.7952,-1.0329 34.4702,0.6542 32.2365,-1.9119 73.0853,26.082 20.6317,41.137 z"
       id="path71062"
       sodipodi:nodetypes="csscc"
       inkscape:connector-curvature="0" />
    <path
       inkscape:export-ydpi="57.964222"
       inkscape:export-xdpi="57.964222"
       inkscape:export-filename="/home/dafeba/DCV/tallerD/bocetos/08-09-22-hastaahora.png"
       style="fill:url(#linearGradient71552);fill-opacity:1;stroke:none;display:inline"
       d="m 116.3426,987.11388 c -0.7605,30.66142 -17.1459,53.86622 -42.263,58.18602 -33.5834,5.7757 -54.7199,-22.0715 -54.7501,-54.04071 -0.031,-33.2592 22.08,-62.53747 54.3275,-60.00312 25.3939,1.99472 42.6856,23.63424 42.6856,55.85781 z"
       id="path71064"
       sodipodi:nodetypes="csssc"
       inkscape:connector-curvature="0" />
    <path
       sodipodi:nodetypes="csssccccc"
       id="path71066"
       d="m 67.4794,930.11311 c -7.9845,0.35026 -17.7493,2.12 -23.0485,4.13688 -20.7408,7.89394 -33.9611,31.01936 -33.9393,56.48114 0.019,21.24937 9.4121,40.25677 25.4969,48.96717 3.8306,2.0744 8.9325,4.0746 14.1744,5.2378 7.1184,1.6958 15.837,2.1851 24.0706,1.0942 25.4464,-4.3763 42.0336,-27.8659 42.804,-58.92949 0,-31.0408 -15.7755,-52.69853 -39.4483,-56.46005 -3.3447,-0.55339 -6.7335,-0.52765 -10.1098,-0.52765 z"
       style="fill:none;stroke:url(#linearGradient71554);stroke-width:2.66666698;stroke-linecap:round;stroke-linejoin:round;stroke-miterlimit:4;stroke-opacity:1;stroke-dasharray:none;stroke-dashoffset:0;display:inline"
       inkscape:export-filename="/home/dafeba/DCV/tallerD/bocetos/08-09-22-hastaahora.png"
       inkscape:export-xdpi="57.964222"
       inkscape:export-ydpi="57.964222"
       inkscape:connector-curvature="0" />
    <path
       inkscape:connector-curvature="0"
       id="path71150"
       d="m 69.01,931.1246 c -1.1619,31.33349 -0.2318,82.6233 0.5,114.6667 1.4906,-0.1264 3.0392,-0.2344 4.5833,-0.5 25.1171,-4.3198 41.4895,-27.5052 42.25,-58.1667 0,-32.22357 -17.2728,-53.83861 -42.6667,-55.83333 -1.5835,-0.12454 -3.1334,-0.19227 -4.6666,-0.16667 z"
       style="fill:url(#linearGradient71626);fill-opacity:1;stroke:none;display:inline" />
    <g
       style="fill:#38526b;fill-opacity:0.28947371;display:inline"
       id="g71182"
       transform="matrix(2.6666671,0,0,2.6666667,-1454.8236,-1154.6254)">
      <path
         style="fill:#38526b;fill-opacity:0.28947371;stroke:none;display:inline"
         d="m 563.1875,795.71875 c -2.43993,0.10519 -4.06437,2.40781 -4.0625,5.03125 0.003,2.68981 1.76811,5.04845 4.59375,4.5625 2.11328,-0.36346 3.4985,-2.32648 3.5625,-4.90625 0,-2.71121 -1.45716,-4.51967 -3.59375,-4.6875 -0.16958,-0.0133 -0.33734,-0.007 -0.5,0 z m 16.71875,2.90625 c -2.77337,0.11956 -4.62781,2.76813 -4.625,5.75 0.003,3.0573 2.03832,5.70861 5.25,5.15625 2.40202,-0.41311 3.95845,-2.63027 4.03125,-5.5625 0,-3.08163 -1.63402,-5.15299 -4.0625,-5.34375 -0.19274,-0.0151 -0.40886,-0.008 -0.59375,0 z M 557,802.15625 c -1.58391,-0.12448 -2.65709,1.30388 -2.65625,2.9375 10e-4,1.57024 1.03795,2.93994 2.6875,2.65625 1.23369,-0.21219 2.05645,-1.33773 2.09375,-2.84375 0,-1.58274 -0.8777,-2.652 -2.125,-2.75 z m 10.46875,3.4375 c -4.06797,0.17536 -6.785,4.06365 -6.78125,8.4375 0.004,4.48449 2.97657,8.3727 7.6875,7.5625 3.52331,-0.60596 5.79945,-3.85522 5.90625,-8.15625 0,-4.52016 -2.40661,-7.56395 -5.96875,-7.84375 -0.28272,-0.0222 -0.57255,-0.0117 -0.84375,0 z"
         id="path71184"
         inkscape:connector-curvature="0" />
      <path
         inkscape:connector-curvature="0"
         sodipodi:nodetypes="csssc"
         id="path71186"
         d="m 581.3493,814.02005 c -0.0383,1.54185 -0.8622,2.70873 -2.12525,2.92595 -1.68878,0.29045 -2.75166,-1.10989 -2.75318,-2.7175 -0.002,-1.67247 1.11032,-3.14477 2.73193,-3.01733 1.27696,0.10031 2.1465,1.18848 2.1465,2.80888 z"
         style="fill:#38526b;fill-opacity:0.28947371;stroke:none;display:inline"
         inkscape:export-filename="/home/dafeba/DCV/tallerD/bocetos/08-09-22-hastaahora.png"
         inkscape:export-xdpi="57.964222"
         inkscape:export-ydpi="57.964222" />
    </g>
    <path
       inkscape:export-ydpi="57.964222"
       inkscape:export-xdpi="57.964222"
       inkscape:export-filename="/home/dafeba/DCV/tallerD/bocetos/08-09-22-hastaahora.png"
       style="fill:url(#linearGradient72298);fill-opacity:1;stroke:none;display:inline"
       d="m 71.4716,1030.5722 c -6.5252,0.8005 -15.6073,-1.868 -20.8384,-3.8064 -12.88,-4.7723 -21.5264,-16.8672 -24.4067,-31.46027 -0.6939,-3.51546 17.0753,-0.48933 28.304,1.132 26.47,-1.01333 60.0116,22.67787 16.9411,34.13437 z"
       id="path72258"
       sodipodi:nodetypes="csscc"
       inkscape:connector-curvature="0" />
    <path
       sodipodi:nodetypes="cccccccccccccc"
       id="path72260"
       d="m 34.1838,1049.8805 58.5721,-11.7854 c 22.2518,-2.6786 29.4592,-30.7826 17.1089,-40.80183 -3.7068,-1.54214 -14.7094,-3.26827 -17.3998,-2.77734 -4.8447,0.0613 -4.6423,0.51174 -11.4943,3.98134 11.8039,-10.68374 7.4352,-21.34062 -1.2359,-25.56544 l -15.1363,-0.57246 c -5.1832,1.96344 -9.2565,6.9323 -9.555,16.0027 -3.1716,-6.8704 -7.9238,-11.04115 -13.0207,-13.06142 l -13.1942,-0.64872 c -2.7321,0.86443 -5.5466,2.52454 -7.4905,4.39974 -7.6951,7.3072 -9.4844,32.42983 5.5327,34.47173 -14.5202,2.8755 -17.9515,26.7645 -6.2749,32.8136 1.32,1.4443 9.3204,3.2027 13.5879,3.5435 z"
       style="fill:url(#linearGradient72300);fill-rule:evenodd;stroke:none;display:inline"
       inkscape:connector-curvature="0" />
    <path
       style="fill:url(#linearGradient72302);fill-rule:evenodd;stroke:none;display:inline"
       d="m 34.1838,1049.8805 2.0461,-34.8054 -9.5948,-1.4338 c -14.5202,2.8754 -17.7158,26.6466 -6.0392,32.6957 1.32,1.4443 9.3204,3.2027 13.5879,3.5435 z"
       id="path72262"
       sodipodi:nodetypes="ccccc"
       inkscape:connector-curvature="0" />
    <path
       style="fill:url(#linearGradient72304);fill-rule:evenodd;stroke:none;display:inline"
       d="m 38.78,1049.409 60.8112,-9.664 c 32.0504,-3.8581 26.0438,-58.75227 -11.7851,-39.5979 24.7864,-22.43431 -24.8564,-42.67138 -25.9273,-10.13517 -7.9496,-17.22053 -25.8293,-17.48053 -34.1768,-9.428 -9.5807,7.4248 -8.4237,33.25467 8.8326,34.35357 -26.2286,5.428 -16.2883,38.8067 2.2454,34.4715 z"
       id="path72264"
       sodipodi:nodetypes="ccccccc"
       inkscape:connector-curvature="0" />
    <path
       style="fill:none;stroke:url(#linearGradient72306);stroke-width:2.66666698;stroke-linecap:round;stroke-linejoin:round;stroke-miterlimit:4;stroke-opacity:1;stroke-dasharray:none;stroke-dashoffset:0;display:inline"
       d="m 25.5948,973.62324 c -0.1582,0.85445 -0.2976,1.71629 -0.4182,2.58469 -1.4499,0.81216 -2.7576,1.79563 -3.8333,2.83334 -7.6951,7.3072 -9.5172,32.45813 5.5,34.50003 -14.5202,2.8754 -17.9267,26.7842 -6.25,32.8333 1.32,1.4443 9.3158,3.1592 13.5833,3.5 l 0.5834,-0.083 c 1.2913,0.075 2.5984,-0.088 4,-0.4165 l 60.8333,-9.6667 c 23.7652,-2.8611 26.5415,-33.6803 11,-41.66666 -0.1432,-0.136 -0.2819,-0.27414 -0.4167,-0.4168 0.2312,-0.9368 0.4443,-1.8872 0.6375,-2.85094"
       id="path72266"
       inkscape:connector-curvature="0"
       sodipodi:nodetypes="cccccccccccc" />
  </g>
</svg>
