<?xml version="1.0" encoding="UTF-8" standalone="no"?>
<!-- Created with Inkscape (http://www.inkscape.org/) -->

<svg
   xmlns:dc="http://purl.org/dc/elements/1.1/"
   xmlns:cc="http://creativecommons.org/ns#"
   xmlns:rdf="http://www.w3.org/1999/02/22-rdf-syntax-ns#"
   xmlns:svg="http://www.w3.org/2000/svg"
   xmlns="http://www.w3.org/2000/svg"
   xmlns:xlink="http://www.w3.org/1999/xlink"
   xmlns:sodipodi="http://sodipodi.sourceforge.net/DTD/sodipodi-0.dtd"
   xmlns:inkscape="http://www.inkscape.org/namespaces/inkscape"
   width="136.53334"
   height="136.53334"
   id="svg6934"
   sodipodi:version="0.32"
   inkscape:version="0.92.1 r15371"
   version="1.0"
   sodipodi:docname="start-here-symbolic.svg"
   inkscape:output_extension="org.inkscape.output.svg.inkscape">
  <defs
     id="defs6936">
    <linearGradient
       inkscape:collect="always"
       xlink:href="#linearGradient5316"
       id="linearGradient1459"
       gradientUnits="userSpaceOnUse"
       x1="9.495225"
       y1="-3.1310093"
       x2="75.466797"
       y2="104.28125" />
    <linearGradient
       id="linearGradient5316">
      <stop
         style="stop-color:#87c7ff;stop-opacity:1;"
         offset="0"
         id="stop5320" />
      <stop
         style="stop-color:#74aadb;stop-opacity:1;"
         offset="1"
         id="stop5322" />
    </linearGradient>
  </defs>
  <sodipodi:namedview
     id="base"
     pagecolor="#ffffff"
     bordercolor="#666666"
     borderopacity="1.0"
     inkscape:pageopacity="0.0"
     inkscape:pageshadow="2"
     inkscape:zoom="2.9706337"
     inkscape:cx="-47.571976"
     inkscape:cy="54.24255"
     inkscape:document-units="px"
     inkscape:current-layer="layer1"
     showgrid="false"
     inkscape:window-width="1366"
     inkscape:window-height="714"
     inkscape:window-x="0"
     inkscape:window-y="26"
     inkscape:window-maximized="1" />
  <metadata
     id="metadata6939">
    <rdf:RDF>
      <cc:Work
         rdf:about="">
        <dc:format>image/svg+xml</dc:format>
        <dc:type
           rdf:resource="http://purl.org/dc/dcmitype/StillImage" />
        <dc:title />
      </cc:Work>
    </rdf:RDF>
  </metadata>
  <g
     inkscape:label="Capa 1"
     inkscape:groupmode="layer"
     id="layer1">
    <path
       style="fill:url(#linearGradient1459);fill-opacity:1;fill-rule:evenodd;stroke:none;stroke-width:1.06666672"
       d="M 39.998047 5.578125 C 37.878341 6.396493 36.158816 7.9325495 34.833984 9.9316406 C 33.132418 13.192557 32.103944 16.146676 32.117188 19.480469 L 32.519531 120.53125 C 33.019162 125.90816 34.479176 128.75318 36.732422 131 C 36.995926 130.9744 37.2623 130.94379 37.533203 130.90039 L 121.0332 118.30078 C 123.70278 118.01157 125.96908 116.7361 127.64648 114.71875 C 128.12574 114.14236 128.55681 113.50653 128.93555 112.81445 C 130.26114 110.39219 130.9457 107.29608 130.80078 103.76758 L 131.23242 24.533203 C 131.46974 18.170173 128.24578 12.826277 121.26758 11.767578 L 41.521484 5.6835938 L 40.189453 5.5820312 C 40.184953 5.5815516 40.180351 5.5824974 40.175781 5.5820312 C 40.116851 5.5759713 40.05714 5.5819012 39.998047 5.578125 z M 32.966797 5.9472656 C 25.957636 6.7107112 16.045752 8.3556349 11.996094 8.9667969 C 5.8826774 10.186574 3.367109 15.777336 3.265625 21.066406 L 3.265625 72.966797 L 3.265625 104.98438 L 3.265625 111.40039 C 3.194793 117.42947 5.334487 122.16756 9.6328125 123.66602 L 27.4375 130.09961 L 31.572266 130.86523 C 29.970653 128.33071 28.81841 125.13168 28.427734 120.85156 L 28.419922 120.76367 L 28.015625 18.691406 L 28.015625 18.664062 C 28.098955 14.901174 29.23588 10.95571 31.416016 7.6660156 C 31.790508 7.1009284 32.746264 6.2076947 32.966797 5.9472656 z M 79.335938 17.560547 C 79.625208 17.549687 79.919962 17.590794 80.195312 17.683594 C 81.680582 18.831374 83.675945 18.580984 85.453125 18.583984 C 87.625725 17.037914 90.247943 19.183851 92.564453 19.369141 C 95.581843 21.446611 99.164901 19.431708 102.08789 21.367188 C 108.0079 23.924758 113.28492 28.355873 116.73633 33.876953 C 118.38795 36.202433 119.56285 39.146811 118.9707 41.707031 C 119.54344 44.022101 122.14216 47.20848 119.87109 49.3125 C 118.09977 50.07667 119.72053 53.48006 118.3418 55.4375 C 117.73214 57.24598 118.22914 60.197052 116.65039 62.289062 C 114.63877 63.385103 116.14937 66.454942 114.13477 67.576172 C 112.66077 68.280582 113.12155 71.540191 110.70703 71.462891 C 107.87902 73.514621 104.91466 76.517832 101.19531 77.539062 C 98.574523 77.901962 98.634871 81.844636 95.056641 81.322266 C 87.608271 82.157076 79.743384 78.661648 75.089844 72.835938 C 73.021424 71.097307 75.95458 68.893152 73.78125 67.263672 C 72.28561 63.638212 71.370329 59.301526 72.443359 55.472656 C 73.270249 52.419856 75.118201 48.965617 77.212891 46.216797 C 82.637471 39.478827 93.929477 39.770772 99.310547 46.414062 C 101.024 48.166322 98.800444 51.286514 96.583984 50.240234 C 93.258364 47.515534 88.284161 46.902293 84.550781 49.195312 C 81.212031 51.028633 78.833119 55.283024 79.568359 59.021484 C 79.824299 64.488814 83.670391 69.434262 88.832031 71.201172 C 92.159491 72.736742 95.621514 71.476351 98.746094 70.269531 C 100.73988 67.646421 103.96745 67.364142 105.80273 64.632812 C 104.57369 61.807882 108.83093 60.833444 107.73047 58.402344 C 108.1285 55.223834 108.1613 51.854322 107.47266 48.732422 C 106.55049 42.004222 102.00203 36.150799 96.292969 32.662109 C 90.900629 29.794789 84.05529 29.453087 78.4375 31.841797 C 75.44673 30.973437 74.717187 35.006193 71.873047 35.220703 C 68.455907 34.507423 69.014766 39.028805 66.097656 39.234375 C 62.451846 40.733135 60.089301 44.366563 57.832031 47.476562 C 58.010661 50.766392 55.131144 53.490043 55.152344 56.757812 C 55.147694 61.725803 54.135935 67.17087 56.640625 71.6875 C 56.189895 73.51403 57.636084 74.772761 57.708984 76.488281 C 59.287194 78.803931 63.3725 80.197213 63.71875 84.007812 C 63.56908 85.731472 64.652191 87.389342 65.738281 88.695312 C 66.098521 90.689943 67.113391 92.315403 69.119141 93.001953 C 70.104331 94.616953 70.625381 96.623526 72.775391 96.878906 C 74.153151 98.782326 75.403507 98.952918 77.060547 100.09961 C 77.276507 102.31238 79.046108 100.61668 80.335938 101.71484 C 83.157827 105.34993 87.581213 106.04483 91.876953 106.37109 C 93.950133 106.28313 95.369257 108.9582 93.873047 110.49609 C 91.485697 112.22117 88.054763 111.13769 85.283203 111.38672 C 69.477793 109.32595 56.275124 97.397691 49.865234 83.175781 C 46.408864 75.950541 45.750626 67.875804 45.441406 59.996094 C 45.730916 56.785354 44.224081 56.118249 45.300781 52.792969 C 46.681681 48.872569 46.664441 43.868889 49.925781 40.974609 C 51.081281 37.845149 52.326519 34.409802 54.699219 31.857422 C 57.108509 30.052402 58.429862 26.414451 61.445312 25.619141 C 64.517102 23.474531 67.826666 21.260056 71.322266 19.666016 C 73.731966 17.642576 76.577547 18.370307 79.335938 17.560547 z M 77.152344 21.642578 C 76.654934 22.361418 77.067144 21.826538 77.152344 21.642578 z M 117.03516 50.257812 C 115.44548 50.925232 116.43775 50.961942 117.03516 50.257812 z M 105.82422 64.884766 C 105.89742 64.755376 105.68843 65.093386 105.82422 64.884766 z "
       id="path4493" />
  </g>
</svg>
