<?xml version="1.0" encoding="UTF-8" standalone="no"?>
<!-- Created with Inkscape (http://www.inkscape.org/) -->
<svg
   xmlns:dc="http://purl.org/dc/elements/1.1/"
   xmlns:cc="http://creativecommons.org/ns#"
   xmlns:rdf="http://www.w3.org/1999/02/22-rdf-syntax-ns#"
   xmlns:svg="http://www.w3.org/2000/svg"
   xmlns="http://www.w3.org/2000/svg"
   xmlns:xlink="http://www.w3.org/1999/xlink"
   xmlns:sodipodi="http://sodipodi.sourceforge.net/DTD/sodipodi-0.dtd"
   xmlns:inkscape="http://www.inkscape.org/namespaces/inkscape"
   width="48px"
   height="48px"
   id="svg17121"
   sodipodi:version="0.32"
   inkscape:version="0.46"
   sodipodi:docname="emblem-multimedia.svg"
   inkscape:output_extension="org.inkscape.output.svg.inkscape">
  <defs
     id="defs17123">
    <linearGradient
       inkscape:collect="always"
       xlink:href="#linearGradient2818"
       id="linearGradient16045"
       gradientUnits="userSpaceOnUse"
       gradientTransform="matrix(0.9803922,0,0,0.9803922,0.4705459,0.4706088)"
       x1="22.5"
       y1="-0.00033215381"
       x2="22.5"
       y2="48.001324" />
    <linearGradient
       inkscape:collect="always"
       xlink:href="#linearGradient2818"
       id="linearGradient16118"
       gradientUnits="userSpaceOnUse"
       gradientTransform="matrix(0.9803922,0,0,0.9803922,0.470528,0.4706089)"
       x1="22.5"
       y1="-0.00033215381"
       x2="22.5"
       y2="48.001324" />
    <clipPath
       clipPathUnits="userSpaceOnUse"
       id="clipPath4871">
      <rect
         ry="2.8540657"
         rx="2.8540657"
         y="719.51721"
         x="318.22049"
         height="47.171574"
         width="47.171574"
         id="rect4873"
         style="fill:url(#linearGradient4875);fill-opacity:1;stroke:none" />
    </clipPath>
    <linearGradient
       id="linearGradient2818">
      <stop
         style="stop-color:#87c7ff;stop-opacity:1;"
         offset="0"
         id="stop2820" />
      <stop
         style="stop-color:#74aadb;stop-opacity:1;"
         offset="1"
         id="stop2822" />
    </linearGradient>
    <inkscape:perspective
       sodipodi:type="inkscape:persp3d"
       inkscape:vp_x="0 : 24 : 1"
       inkscape:vp_y="0 : 1000 : 0"
       inkscape:vp_z="48 : 24 : 1"
       inkscape:persp3d-origin="24 : 16 : 1"
       id="perspective17129" />
  </defs>
  <sodipodi:namedview
     id="base"
     pagecolor="#ffffff"
     bordercolor="#666666"
     borderopacity="1.0"
     inkscape:pageopacity="0.0"
     inkscape:pageshadow="2"
     inkscape:zoom="4"
     inkscape:cx="25.965972"
     inkscape:cy="25.66415"
     inkscape:current-layer="layer1"
     showgrid="true"
     inkscape:grid-bbox="true"
     inkscape:document-units="px"
     inkscape:window-width="1024"
     inkscape:window-height="731"
     inkscape:window-x="0"
     inkscape:window-y="6" />
  <metadata
     id="metadata17126">
    <rdf:RDF>
      <cc:Work
         rdf:about="">
        <dc:format>image/svg+xml</dc:format>
        <dc:type
           rdf:resource="http://purl.org/dc/dcmitype/StillImage" />
      </cc:Work>
    </rdf:RDF>
  </metadata>
  <g
     id="layer1"
     inkscape:label="Layer 1"
     inkscape:groupmode="layer">
    <rect
       ry="2.8472438"
       rx="2.8472438"
       y="0.47058824"
       x="0.47058824"
       height="47.058823"
       width="47.058823"
       id="rect5058-5"
       style="fill:url(#linearGradient16045);fill-opacity:1;stroke:none" />
    <path
       style="fill:#ffffff;fill-opacity:1;stroke:none"
       d="M 7.3087577,5.1323499 C 6.1000989,5.1323499 5.1322872,6.1001617 5.1322872,7.3088205 L 5.1322872,40.691127 C 5.1322872,41.89988 6.1000989,42.867691 7.3087577,42.867691 L 40.691158,42.867691 C 41.899816,42.867691 42.867628,41.89988 42.867628,40.691127 L 42.867628,7.3088205 C 42.867628,6.1001617 41.899816,5.1323499 40.691158,5.1323499 L 7.3087577,5.1323499 z M 11.544052,5.6617617 C 11.948381,5.6193146 12.351393,5.753244 12.649934,6.0292911 C 12.948475,6.305244 13.113558,6.6965852 13.102922,7.1029852 L 13.102922,9.4264676 L 15.220569,9.4264676 L 15.220569,6.9853382 C 15.202781,6.4868911 15.576899,6.061197 16.073464,6.0147029 C 16.343205,5.989197 16.610875,6.0810558 16.807958,6.2669382 C 17.00504,6.4528205 17.112522,6.7145617 17.102922,6.9853382 L 17.102922,15.985244 L 28.01464,15.985244 L 30.896993,15.985244 L 30.896993,6.9853382 C 30.879299,6.4868911 31.253416,6.061197 31.749981,6.0147029 C 32.019628,5.989197 32.287299,6.0810558 32.484381,6.2669382 C 32.681558,6.4528205 32.78904,6.7145617 32.779346,6.9853382 L 32.779346,9.4264676 L 34.926452,9.4264676 L 34.926452,7.1029852 C 34.905652,6.3762088 35.44024,5.752397 36.161746,5.6617617 C 36.570781,5.6100911 36.982075,5.7398793 37.287393,6.0169617 C 37.592805,6.294044 37.761746,6.690844 37.749981,7.1029852 L 37.749981,10.544115 C 37.787158,10.728585 37.787158,10.918515 37.749981,11.102985 L 37.749981,23.661762 C 37.787158,23.846138 37.787158,24.036162 37.749981,24.220538 L 37.749981,36.750044 C 37.751581,36.789197 37.751581,36.828538 37.749981,36.867691 C 37.77304,37.013856 37.77304,37.162656 37.749981,37.308821 L 37.749981,40.926421 C 37.757134,41.435597 37.489652,41.909103 37.04984,42.165762 C 36.610122,42.422421 36.066216,42.422421 35.626499,42.165762 C 35.186687,41.909103 34.919205,41.435597 34.926452,40.926421 L 34.926452,38.455832 L 32.779346,38.455832 L 32.779346,40.808774 C 32.784146,41.148162 32.605793,41.463927 32.312616,41.635032 C 32.01944,41.806138 31.656899,41.806138 31.363722,41.635032 C 31.070546,41.463927 30.892193,41.148162 30.896993,40.808774 L 30.896993,31.926515 L 28.01464,31.926515 L 17.102922,31.926515 L 17.102922,40.808774 C 17.107628,41.148162 16.929369,41.463927 16.636193,41.635032 C 16.343016,41.806138 15.980381,41.806138 15.687205,41.635032 C 15.394028,41.463927 15.215675,41.148162 15.220569,40.808774 L 15.220569,38.455832 L 13.102922,38.455832 L 13.102922,40.926421 C 13.110075,41.435597 12.842593,41.909103 12.402781,42.165762 C 11.963064,42.422421 11.419158,42.422421 10.97944,42.165762 C 10.539628,41.909103 10.272146,41.435597 10.279393,40.926421 L 10.279393,37.33828 C 10.242122,37.153809 10.242122,36.96388 10.279393,36.779409 L 10.279393,24.338185 C 10.20344,24.078891 10.20344,23.803409 10.279393,23.544115 L 10.279393,11.220632 C 10.20344,10.961338 10.20344,10.685762 10.279393,10.426468 L 10.279393,7.1029852 C 10.260005,6.366044 10.810875,5.7383735 11.544052,5.6617617 L 11.544052,5.6617617 z M 13.102922,12.249997 L 13.102922,15.985244 L 15.220569,15.985244 L 15.220569,12.249997 L 13.102922,12.249997 z M 32.779346,12.249997 L 32.779346,15.985244 L 34.926452,15.985244 L 34.926452,12.249997 L 32.779346,12.249997 z M 13.102922,18.808774 L 13.102922,22.544115 L 15.220569,22.544115 L 15.220569,18.808774 L 13.102922,18.808774 z M 17.102922,18.808774 L 17.102922,29.102985 L 28.01464,29.102985 L 30.896993,29.102985 L 30.896993,18.808774 L 28.01464,18.808774 L 17.102922,18.808774 z M 32.779346,18.808774 L 32.779346,22.544115 L 34.926452,22.544115 L 34.926452,18.808774 L 32.779346,18.808774 z M 13.102922,25.367644 L 13.102922,29.102985 L 15.220569,29.102985 L 15.220569,25.367644 L 13.102922,25.367644 z M 32.779346,25.367644 L 32.779346,29.102985 L 34.926452,29.102985 L 34.926452,25.367644 L 32.779346,25.367644 z M 13.102922,31.926515 L 13.102922,35.632303 L 15.220569,35.632303 L 15.220569,31.926515 L 13.102922,31.926515 z M 32.779346,31.926515 L 32.779346,35.632303 L 34.926452,35.632303 L 34.926452,31.926515 L 32.779346,31.926515 z"
       id="rect6549-0" />
    <rect
       ry="2.8472438"
       rx="2.8472438"
       y="0.47058824"
       x="0.47058824"
       height="47.058823"
       width="47.058823"
       id="rect4228-06"
       style="fill:none;stroke:#344b63;stroke-width:0.94117647;stroke-miterlimit:4;stroke-dasharray:none;stroke-opacity:1" />
  </g>
</svg>
