<?xml version="1.0" encoding="UTF-8" standalone="no"?>
<!-- Created with Inkscape (http://www.inkscape.org/) -->

<svg
   xmlns:dc="http://purl.org/dc/elements/1.1/"
   xmlns:cc="http://creativecommons.org/ns#"
   xmlns:rdf="http://www.w3.org/1999/02/22-rdf-syntax-ns#"
   xmlns:svg="http://www.w3.org/2000/svg"
   xmlns="http://www.w3.org/2000/svg"
   xmlns:xlink="http://www.w3.org/1999/xlink"
   xmlns:sodipodi="http://sodipodi.sourceforge.net/DTD/sodipodi-0.dtd"
   xmlns:inkscape="http://www.inkscape.org/namespaces/inkscape"
   width="48"
   height="48"
   viewBox="0 0 48 48.000001"
   id="svg10223"
   version="1.1"
   inkscape:version="0.91 r13725"
   sodipodi:docname="emblem-code.svg">
  <defs
     id="defs10225">
    <linearGradient
       id="linearGradient9863">
      <stop
         id="stop9865"
         offset="0"
         style="stop-color:#2f445a;stop-opacity:1;" />
      <stop
         id="stop9867"
         offset="1"
         style="stop-color:#415f7c;stop-opacity:1" />
    </linearGradient>
    <linearGradient
       id="linearGradient26351">
      <stop
         id="stop26353"
         offset="0"
         style="stop-color:#aac736;stop-opacity:1;" />
      <stop
         id="stop26355"
         offset="1"
         style="stop-color:#5d8b2c;stop-opacity:1;" />
    </linearGradient>
    <linearGradient
       id="linearGradient3737-0">
      <stop
         offset="0"
         style="stop-color:#ffffff;stop-opacity:1"
         id="stop3739-6" />
      <stop
         offset="1"
         style="stop-color:#ffffff;stop-opacity:0"
         id="stop3741-0" />
    </linearGradient>
    <linearGradient
       id="linearGradient5439">
      <stop
         id="stop5441"
         offset="0"
         style="stop-color:#ffffff;stop-opacity:1;" />
      <stop
         id="stop5443"
         offset="1"
         style="stop-color:#000000;stop-opacity:1;" />
    </linearGradient>
    <linearGradient
       id="linearGradient12578">
      <stop
         style="stop-color:#e9b551;stop-opacity:1;"
         offset="0"
         id="stop12580" />
      <stop
         style="stop-color:#b48739;stop-opacity:1;"
         offset="1"
         id="stop12582" />
    </linearGradient>
    <linearGradient
       id="linearGradient12336">
      <stop
         style="stop-color:#ff6e00;stop-opacity:1;"
         offset="0"
         id="stop12338" />
      <stop
         style="stop-color:#eb2600;stop-opacity:1;"
         offset="1"
         id="stop12340" />
    </linearGradient>
    <inkscape:path-effect
       effect="spiro"
       id="path-effect8644"
       is_visible="true" />
    <linearGradient
       gradientTransform="translate(-185,915.00001)"
       inkscape:collect="always"
       xlink:href="#linearGradient12578"
       id="linearGradient8255"
       x1="189.43875"
       y1="92.347656"
       x2="217.12961"
       y2="133.72266"
       gradientUnits="userSpaceOnUse" />
    <linearGradient
       gradientTransform="translate(-185,915.00001)"
       inkscape:collect="always"
       xlink:href="#linearGradient9863"
       id="linearGradient6037"
       x1="226.93875"
       y1="127.72266"
       x2="197.50461"
       y2="99.347656"
       gradientUnits="userSpaceOnUse" />
  </defs>
  <sodipodi:namedview
     id="base"
     pagecolor="#ffffff"
     bordercolor="#666666"
     borderopacity="1.0"
     inkscape:pageopacity="0.0"
     inkscape:pageshadow="2"
     inkscape:zoom="7.9195959"
     inkscape:cx="28.245838"
     inkscape:cy="23.687294"
     inkscape:document-units="px"
     inkscape:current-layer="layer1"
     showgrid="false"
     units="px"
     borderlayer="true"
     inkscape:showpageshadow="false"
     inkscape:window-width="1600"
     inkscape:window-height="847"
     inkscape:window-x="0"
     inkscape:window-y="0"
     inkscape:window-maximized="1" />
  <metadata
     id="metadata10228">
    <rdf:RDF>
      <cc:Work
         rdf:about="">
        <dc:format>image/svg+xml</dc:format>
        <dc:type
           rdf:resource="http://purl.org/dc/dcmitype/StillImage" />
        <dc:title></dc:title>
      </cc:Work>
    </rdf:RDF>
  </metadata>
  <g
     inkscape:label="Capa 1"
     inkscape:groupmode="layer"
     id="layer1"
     transform="translate(0,-1004.3622)">
    <path
       style="color:#000000;font-style:normal;font-variant:normal;font-weight:normal;font-stretch:normal;font-size:28.42173195px;line-height:125%;font-family:Sans;text-indent:0;text-align:start;text-decoration:none;text-decoration-line:none;text-decoration-style:solid;text-decoration-color:#000000;letter-spacing:0px;word-spacing:0px;text-transform:none;direction:ltr;block-progression:tb;writing-mode:lr-tb;baseline-shift:baseline;text-anchor:start;white-space:normal;clip-rule:nonzero;display:inline;overflow:visible;visibility:visible;opacity:1;isolation:auto;mix-blend-mode:normal;color-interpolation:sRGB;color-interpolation-filters:linearRGB;solid-color:#000000;solid-opacity:1;fill:#000000;fill-opacity:0.43921569;fill-rule:nonzero;stroke:none;stroke-width:1;stroke-linecap:butt;stroke-linejoin:miter;stroke-miterlimit:4;stroke-dasharray:none;stroke-dashoffset:0;stroke-opacity:1;color-rendering:auto;image-rendering:auto;shape-rendering:auto;text-rendering:auto;enable-background:accumulate"
       d="m 13.181641,1008.9844 c -3.6539102,0.039 -5.8489602,2.4979 -5.8437502,6.0332 l 0,9.7637 c 10e-6,1.2239 -0.57308,2.0494 -1.74023,2.0683 -0.006,10e-5 -0.01,-10e-5 -0.0156,0 l -2.07422,0 c -0.007,0 -0.0138,0 -0.0215,0 -0.12615,0 -0.25205,0.018 -0.375,0.053 -0.96752,0.2211 -1.70231,1.144 -1.67969,2.2051 2e-5,10e-4 -4e-5,0 0,0 l 0,0 0,2.1133 c -4e-5,10e-4 2e-5,0 0,0 1e-5,0 -2e-5,0 0,0.01 -0.0207,1.0607 0.7154,1.9839 1.68359,2.2031 0.12429,0.034 0.25142,0.051 0.37891,0.053 0.005,10e-5 0.008,0 0.0137,0 l 2.07422,0 c 1.17883,0.011 1.75588,0.8404 1.75586,2.0703 l 0,9.7617 c -0.005,3.5353 2.18984,5.9965 5.8437502,6.0352 l 3.30664,0 0.0273,0 c 1.25389,-0.055 2.05277,-0.9523 2.08204,-2.1934 l 0.002,-0.018 0,-0.018 0,-1.6093 -0.002,0.037 c 0.0294,-1.2431 -0.954,-2.2657 -2.17188,-2.2657 -0.83421,0.01 -1.85709,-10e-5 -2.5625,-0.018 -0.53805,0 -0.87109,-0.4212 -0.87109,-1.1054 l 0,-7.295 c 0,-2.2757 -0.26717,-4.1822 -1.19727,-5.7109 -0.19779,-0.3251 -0.51625,-0.4648 -0.76367,-0.7226 -0.006,-0.096 -0.0281,-0.1789 -0.0391,-0.2715 0.0111,-0.093 0.0328,-0.1794 0.0391,-0.2754 0.24742,-0.2578 0.56588,-0.3956 0.76367,-0.7207 0.9301,-1.5287 1.19727,-3.4352 1.19727,-5.711 l 0,-7.2968 c 0,-0.6843 0.33304,-1.1036 0.87109,-1.1036 0.70541,-0.017 1.72829,-0.026 2.5625,-0.019 1.21788,0 2.20132,-1.0206 2.17188,-2.2636 l 0.002,0.035 0,-1.6074 0,-0.018 -0.002,-0.019 c -0.0292,-1.2411 -0.82816,-2.1366 -2.08204,-2.1914 l -0.0273,0 -3.30664,0 z m 14.48438,0 c -1.25388,0.055 -2.05277,0.9542 -2.08204,2.1953 l -0.002,0.016 0,0.018 0,1.6094 0.002,-0.037 c -0.0294,1.243 0.954,2.2656 2.17188,2.2656 0.83421,-0.01 1.85709,3e-4 2.5625,0.018 0.53805,0 0.87109,0.4212 0.87109,1.1055 l 0,7.2949 c 0,2.2758 0.26716,4.1822 1.19727,5.7109 0.19779,0.3251 0.5143,0.4649 0.76172,0.7227 0.006,0.096 0.03,0.1808 0.041,0.2734 -0.0111,0.093 -0.0347,0.1793 -0.041,0.2754 -0.24742,0.2578 -0.56393,0.3936 -0.76172,0.7187 -0.93011,1.5288 -1.19727,3.4352 -1.19727,5.711 l 0,7.2988 c 0,0.6843 -0.33304,1.1016 -0.87109,1.1016 -0.70541,0.017 -1.72829,0.028 -2.5625,0.021 -1.21788,0 -2.20132,1.0186 -2.17188,2.2617 l -0.002,-0.033 0,1.6055 0,0.02 0.002,0.018 c 0.0292,1.241 0.82816,2.1366 2.08204,2.1914 l 0.0254,0 3.30859,0 c 3.65391,-0.039 5.84895,-2.498 5.84375,-6.0332 l 0,-9.7637 c -2e-5,-1.2239 0.57113,-2.0475 1.73828,-2.0664 0.006,-10e-5 0.0117,10e-5 0.0176,0 l 2.07227,0 c 0.007,0 0.0158,-0.01 0.0234,-0.01 0.12615,0 0.25205,-0.018 0.375,-0.053 0.96753,-0.2211 1.70036,-1.1421 1.67774,-2.2031 -2e-5,-0 4e-5,0 0,0 l 0,0 0,-2.1153 c 4e-5,-10e-4 -2e-5,0 0,0 -10e-6,0 2e-5,0 0,-0.01 0.0207,-1.0607 -0.71345,-1.982 -1.68164,-2.2012 -0.12429,-0.034 -0.25142,-0.051 -0.37891,-0.053 -0.005,0 -0.0103,0 -0.0156,0 l -2.07227,0 c -1.17883,-0.011 -1.75588,-0.8404 -1.75586,-2.0703 l 0,-9.7617 c 0.005,-3.5348 -2.18986,-5.996 -5.84377,-6.0347 l -3.30859,0 -0.0254,0 0,0 z"
       id="path5944"
       inkscape:connector-curvature="0" />
    <path
       style="color:#000000;font-style:normal;font-variant:normal;font-weight:normal;font-stretch:normal;font-size:28.42173195px;line-height:125%;font-family:Sans;text-indent:0;text-align:start;text-decoration:none;text-decoration-line:none;text-decoration-style:solid;text-decoration-color:#000000;letter-spacing:0px;word-spacing:0px;text-transform:none;direction:ltr;block-progression:tb;writing-mode:lr-tb;baseline-shift:baseline;text-anchor:start;white-space:normal;clip-rule:nonzero;display:inline;overflow:visible;visibility:visible;opacity:1;isolation:auto;mix-blend-mode:normal;color-interpolation:sRGB;color-interpolation-filters:linearRGB;solid-color:#000000;solid-opacity:1;fill:url(#linearGradient8255);fill-opacity:1;fill-rule:nonzero;stroke:url(#linearGradient6037);stroke-width:1;stroke-linecap:butt;stroke-linejoin:miter;stroke-miterlimit:4;stroke-dasharray:none;stroke-dashoffset:0;stroke-opacity:1;color-rendering:auto;image-rendering:auto;shape-rendering:auto;text-rendering:auto;enable-background:accumulate"
       d="m 16.687501,1006.0313 c -3.65391,0.039 -5.84896,2.4979 -5.84375,6.0332 l 0,9.7656 c 1e-5,1.2239 -0.57113,2.0474 -1.7382802,2.0664 -0.006,1e-4 -0.0117,-2e-4 -0.0176,0 l -2.07227,0 c -0.007,0 -0.0158,0 -0.0234,0 -0.12615,0 -0.25205,0.018 -0.375,0.053 -0.96752,0.221 -1.70036,1.144 -1.67774,2.2051 2e-5,10e-4 -4e-5,0 0,0 l 0,0 0,2.1132 c -4e-5,10e-4 2e-5,0 0,0 10e-6,0 -2e-5,0.01 0,0.01 -0.0207,1.0608 0.71345,1.9821 1.68164,2.2012 0.12429,0.034 0.25142,0.051 0.37891,0.053 0.005,10e-5 0.0103,0 0.0156,0 l 2.07227,0 c 1.1788302,0.011 1.7558802,0.8404 1.7558602,2.0703 l 0,9.7617 c -0.005,3.5353 2.18984,5.9965 5.84375,6.0352 l 3.30859,0 0.0254,0 c 1.25388,-0.055 2.05277,-0.9523 2.08204,-2.1934 l 0.002,-0.016 0,-0.02 0,-1.6074 -0.002,0.035 c 0.0294,-1.243 -0.954,-2.2636 -2.17188,-2.2636 -0.83421,0.01 -1.85709,0 -2.5625,-0.02 -0.53805,0 -0.87109,-0.4212 -0.87109,-1.1055 l 0,-7.2949 c 0,-2.2758 -0.26717,-4.1823 -1.19727,-5.711 -0.19779,-0.3251 -0.5143,-0.4629 -0.76172,-0.7207 -0.006,-0.096 -0.0299,-0.1808 -0.041,-0.2734 0.0111,-0.093 0.0347,-0.1793 0.041,-0.2754 0.24742,-0.2578 0.56393,-0.3956 0.76172,-0.7207 0.9301,-1.5287 1.19727,-3.4352 1.19727,-5.7109 l 0,-7.2969 c 0,-0.6843 0.33304,-1.1035 0.87109,-1.1035 0.70541,-0.017 1.72829,-0.026 2.5625,-0.02 1.21788,0 2.20132,-1.0206 2.17188,-2.2636 l 0.002,0.035 0,-1.6074 0,-0.018 -0.002,-0.018 c -0.0292,-1.241 -0.82816,-2.1385 -2.08204,-2.1933 l -0.0254,0 -3.30859,0 z m 14.48438,0 c -1.25389,0.055 -2.05277,0.9522 -2.08204,2.1933 l -0.002,0.016 0,0.02 0,1.6074 0.002,-0.035 c -0.0294,1.2431 0.954,2.2637 2.17188,2.2637 0.83421,-0.01 1.85709,0 2.5625,0.019 0.53805,0 0.87109,0.4212 0.87109,1.1055 l 0,7.2949 c 0,2.2758 0.26716,4.1823 1.19727,5.711 0.19779,0.3251 0.5143,0.4628 0.76172,0.7207 0.006,0.096 0.03,0.1808 0.041,0.2734 -0.0111,0.093 -0.0347,0.1793 -0.041,0.2754 -0.24742,0.2578 -0.56393,0.3956 -0.76172,0.7207 -0.93011,1.5287 -1.19727,3.4352 -1.19727,5.7109 l 0,7.2969 c 0,0.6842 -0.33304,1.1035 -0.87109,1.1035 -0.70541,0.017 -1.72829,0.026 -2.5625,0.02 -1.21788,0 -2.20132,1.0206 -2.17188,2.2637 l -0.002,-0.035 0,1.6074 0,0.018 0.002,0.018 c 0.0292,1.2411 0.82816,2.1386 2.08204,2.1934 l 0.0273,0 3.30664,0 c 3.65391,-0.039 5.84896,-2.4979 5.84375,-6.0332 l 0,-9.7656 c -10e-6,-1.2239 0.57308,-2.0475 1.74023,-2.0664 0.006,-2e-4 0.01,10e-5 0.0156,0 l 2.07422,0 c 0.007,0 0.0138,0 0.0215,0 0.12615,0 0.25205,-0.018 0.375,-0.053 0.96753,-0.2211 1.70036,-1.1441 1.67774,-2.2051 -2e-5,-10e-4 4e-5,0 0,0 l 0,0 0,-2.1133 c 4e-5,-10e-4 -2e-5,0 0,-0.01 -1e-5,0 2e-5,0 0,-0.01 0.0207,-1.0608 -0.71345,-1.982 -1.68164,-2.2012 -0.12429,-0.034 -0.25142,-0.051 -0.37891,-0.053 -0.005,0 -0.008,0 -0.0137,0 l -2.07422,0 c -1.17883,-0.011 -1.75588,-0.8404 -1.75586,-2.0703 l 0,-9.7617 c 0.005,-3.5353 -2.18984,-5.9965 -5.84375,-6.0352 l -3.30664,0 -0.0273,0 z"
       id="path4233"
       inkscape:connector-curvature="0" />
  </g>
</svg>
