<?xml version="1.0" encoding="UTF-8" standalone="no"?>
<!-- Created with Inkscape (http://www.inkscape.org/) -->
<svg
   xmlns:dc="http://purl.org/dc/elements/1.1/"
   xmlns:cc="http://creativecommons.org/ns#"
   xmlns:rdf="http://www.w3.org/1999/02/22-rdf-syntax-ns#"
   xmlns:svg="http://www.w3.org/2000/svg"
   xmlns="http://www.w3.org/2000/svg"
   xmlns:xlink="http://www.w3.org/1999/xlink"
   xmlns:sodipodi="http://sodipodi.sourceforge.net/DTD/sodipodi-0.dtd"
   xmlns:inkscape="http://www.inkscape.org/namespaces/inkscape"
   width="48px"
   height="48px"
   id="svg17121"
   sodipodi:version="0.32"
   inkscape:version="0.46"
   sodipodi:docname="emblem-marketing.svg"
   inkscape:output_extension="org.inkscape.output.svg.inkscape">
  <defs
     id="defs17123">
    <linearGradient
       inkscape:collect="always"
       xlink:href="#linearGradient2818"
       id="linearGradient16128"
       gradientUnits="userSpaceOnUse"
       gradientTransform="matrix(0.9803922,0,0,0.9803922,0.47058,0.4706173)"
       x1="22.5"
       y1="-0.00033215381"
       x2="22.5"
       y2="48.001324" />
    <linearGradient
       inkscape:collect="always"
       xlink:href="#linearGradient2818"
       id="linearGradient16113"
       gradientUnits="userSpaceOnUse"
       gradientTransform="matrix(0.9803922,0,0,0.9803922,0.470608,0.4706087)"
       x1="22.5"
       y1="-0.00033215381"
       x2="22.5"
       y2="48.001324" />
    <clipPath
       clipPathUnits="userSpaceOnUse"
       id="clipPath4871">
      <rect
         ry="2.8540657"
         rx="2.8540657"
         y="719.51721"
         x="318.22049"
         height="47.171574"
         width="47.171574"
         id="rect4873"
         style="fill:url(#linearGradient4875);fill-opacity:1;stroke:none" />
    </clipPath>
    <linearGradient
       id="linearGradient2818">
      <stop
         style="stop-color:#87c7ff;stop-opacity:1;"
         offset="0"
         id="stop2820" />
      <stop
         style="stop-color:#74aadb;stop-opacity:1;"
         offset="1"
         id="stop2822" />
    </linearGradient>
    <inkscape:perspective
       sodipodi:type="inkscape:persp3d"
       inkscape:vp_x="0 : 24 : 1"
       inkscape:vp_y="0 : 1000 : 0"
       inkscape:vp_z="48 : 24 : 1"
       inkscape:persp3d-origin="24 : 16 : 1"
       id="perspective17129" />
  </defs>
  <sodipodi:namedview
     id="base"
     pagecolor="#ffffff"
     bordercolor="#666666"
     borderopacity="1.0"
     inkscape:pageopacity="0.0"
     inkscape:pageshadow="2"
     inkscape:zoom="5.6568542"
     inkscape:cx="33.427733"
     inkscape:cy="24.049838"
     inkscape:current-layer="layer1"
     showgrid="true"
     inkscape:grid-bbox="true"
     inkscape:document-units="px"
     inkscape:window-width="1024"
     inkscape:window-height="731"
     inkscape:window-x="0"
     inkscape:window-y="6" />
  <metadata
     id="metadata17126">
    <rdf:RDF>
      <cc:Work
         rdf:about="">
        <dc:format>image/svg+xml</dc:format>
        <dc:type
           rdf:resource="http://purl.org/dc/dcmitype/StillImage" />
      </cc:Work>
    </rdf:RDF>
  </metadata>
  <g
     id="layer1"
     inkscape:label="Layer 1"
     inkscape:groupmode="layer">
    <rect
       style="fill:url(#linearGradient16128);fill-opacity:1;stroke:none"
       id="rect6887-9"
       width="47.058823"
       height="47.058823"
       x="0.47058824"
       y="0.47058824"
       rx="2.8472438"
       ry="2.8472438" />
    <path
       style="fill:#ffffff;fill-opacity:1;stroke:none"
       d="M 5.0441043,7.7206032 C 3.9736855,7.7206032 3.1323396,8.5619491 3.1323396,9.6323679 L 3.1323396,38.367662 C 3.1323396,39.43809 3.9736855,40.279427 5.0441043,40.279427 L 42.95586,40.279427 C 44.026279,40.279427 44.867624,39.43809 44.867624,38.367662 L 44.867624,9.6323679 C 44.867624,8.5619491 44.026279,7.7206032 42.95586,7.7206032 L 5.0441043,7.7206032 z M 28.985272,13.132368 C 29.03426,13.129817 29.083342,13.129817 29.13233,13.132368 C 29.17153,13.13073 29.210777,13.13073 29.249977,13.132368 C 35.660123,13.282956 38.45346,13.394674 39.691154,13.485309 C 40.000575,13.507897 40.194373,13.550533 40.367624,13.573497 C 40.525432,13.594486 40.525102,13.494533 40.95586,13.720556 C 41.038928,13.761733 41.117742,13.810984 41.191154,13.867615 C 41.248377,13.90338 41.300961,13.922768 41.367624,13.985262 C 41.424095,14.038156 41.481036,14.103624 41.544095,14.191144 C 41.559719,14.212886 41.554166,14.245262 41.57346,14.279333 C 41.632001,14.38257 41.72034,14.514156 41.720519,14.514627 C 41.720707,14.515257 41.808707,14.955192 41.808707,14.955803 C 41.808801,14.95602 41.790448,15.049921 41.779342,15.132274 L 43.691107,25.102862 C 43.83202,25.615022 43.673554,26.162928 43.281017,26.520801 C 42.888472,26.878664 42.328293,26.98594 41.831314,26.798401 C 41.334326,26.610862 40.98466,26.160255 40.926401,25.632274 L 39.485224,18.07345 L 28.632283,30.102862 C 28.330853,30.448368 27.880424,30.625987 27.424302,30.57921 C 26.96818,30.532424 26.563182,30.267069 26.338166,29.867568 L 20.24994,19.161686 L 6.7499396,34.39698 C 6.2301466,34.981752 5.3347113,35.03442 4.7499396,34.514627 C 4.1651678,33.994834 4.1124996,33.099399 4.6322925,32.514627 L 19.455822,15.808744 C 19.761592,15.465742 20.215154,15.292999 20.671634,15.345686 C 21.128104,15.398373 21.530382,15.669893 21.749977,16.073535 L 27.838213,26.750006 L 37.367624,16.220594 C 35.822909,16.145582 33.600999,16.059483 29.191154,15.955888 C 28.411455,16.012744 27.7333,15.426759 27.676453,14.647069 C 27.619596,13.86737 28.205573,13.189215 28.985272,13.132359 L 28.985272,13.132368 z"
       id="rect6474" />
    <rect
       ry="2.8472438"
       rx="2.8472438"
       y="0.47058824"
       x="0.47058824"
       height="47.058823"
       width="47.058823"
       id="rect4228-04"
       style="fill:none;stroke:#344b63;stroke-width:0.94117647;stroke-miterlimit:4;stroke-dasharray:none;stroke-opacity:1" />
  </g>
</svg>
