<?xml version="1.0" encoding="UTF-8" standalone="no"?>
<!-- Created with Inkscape (http://www.inkscape.org/) -->

<svg
   xmlns:dc="http://purl.org/dc/elements/1.1/"
   xmlns:cc="http://creativecommons.org/ns#"
   xmlns:rdf="http://www.w3.org/1999/02/22-rdf-syntax-ns#"
   xmlns:svg="http://www.w3.org/2000/svg"
   xmlns="http://www.w3.org/2000/svg"
   xmlns:xlink="http://www.w3.org/1999/xlink"
   xmlns:sodipodi="http://sodipodi.sourceforge.net/DTD/sodipodi-0.dtd"
   xmlns:inkscape="http://www.inkscape.org/namespaces/inkscape"
   width="48"
   height="48"
   viewBox="0 0 48 48.000001"
   id="svg10223"
   version="1.1"
   inkscape:version="0.91 r13725"
   sodipodi:docname="emblem-bin.svg">
  <defs
     id="defs10225">
    <linearGradient
       id="linearGradient9863">
      <stop
         id="stop9865"
         offset="0"
         style="stop-color:#2f445a;stop-opacity:1;" />
      <stop
         id="stop9867"
         offset="1"
         style="stop-color:#415f7c;stop-opacity:1" />
    </linearGradient>
    <linearGradient
       id="linearGradient26351">
      <stop
         id="stop26353"
         offset="0"
         style="stop-color:#aac736;stop-opacity:1;" />
      <stop
         id="stop26355"
         offset="1"
         style="stop-color:#5d8b2c;stop-opacity:1;" />
    </linearGradient>
    <linearGradient
       id="linearGradient3737-0">
      <stop
         offset="0"
         style="stop-color:#ffffff;stop-opacity:1"
         id="stop3739-6" />
      <stop
         offset="1"
         style="stop-color:#ffffff;stop-opacity:0"
         id="stop3741-0" />
    </linearGradient>
    <linearGradient
       id="linearGradient5439">
      <stop
         id="stop5441"
         offset="0"
         style="stop-color:#ffffff;stop-opacity:1;" />
      <stop
         id="stop5443"
         offset="1"
         style="stop-color:#000000;stop-opacity:1;" />
    </linearGradient>
    <linearGradient
       id="linearGradient12578">
      <stop
         style="stop-color:#e9b551;stop-opacity:1;"
         offset="0"
         id="stop12580" />
      <stop
         style="stop-color:#b48739;stop-opacity:1;"
         offset="1"
         id="stop12582" />
    </linearGradient>
    <linearGradient
       inkscape:collect="always"
       xlink:href="#linearGradient9863"
       id="linearGradient8054"
       gradientUnits="userSpaceOnUse"
       x1="167.14526"
       y1="126.98391"
       x2="139.64038"
       y2="102.0584"
       gradientTransform="matrix(0.97980068,0,0,0.97980155,-126.43812,916.83723)" />
  </defs>
  <sodipodi:namedview
     id="base"
     pagecolor="#ffffff"
     bordercolor="#666666"
     borderopacity="1.0"
     inkscape:pageopacity="0.0"
     inkscape:pageshadow="2"
     inkscape:zoom="3.959798"
     inkscape:cx="11.895147"
     inkscape:cy="22.948902"
     inkscape:document-units="px"
     inkscape:current-layer="layer1"
     showgrid="false"
     units="px"
     borderlayer="true"
     inkscape:showpageshadow="false"
     inkscape:window-width="1600"
     inkscape:window-height="847"
     inkscape:window-x="0"
     inkscape:window-y="0"
     inkscape:window-maximized="1" />
  <metadata
     id="metadata10228">
    <rdf:RDF>
      <cc:Work
         rdf:about="">
        <dc:format>image/svg+xml</dc:format>
        <dc:type
           rdf:resource="http://purl.org/dc/dcmitype/StillImage" />
        <dc:title></dc:title>
      </cc:Work>
    </rdf:RDF>
  </metadata>
  <g
     inkscape:label="Capa 1"
     inkscape:groupmode="layer"
     id="layer1"
     transform="translate(0,-1004.3622)">
    <rect
       inkscape:export-ydpi="57.964222"
       inkscape:export-xdpi="57.964222"
       inkscape:export-filename="/home/dafeba/DCV/tallerD/bocetos/08-09-22-hastaahora.png"
       ry="2.5440514"
       rx="2.5439539"
       y="1009.3536"
       x="1.0738525"
       height="42.047703"
       width="42.046089"
       id="rect8008"
       style="display:inline;fill:#000000;fill-opacity:0.43921569;stroke:none" />
    <rect
       inkscape:export-ydpi="57.964222"
       inkscape:export-xdpi="57.964222"
       inkscape:export-filename="/home/dafeba/DCV/tallerD/bocetos/08-09-22-hastaahora.png"
       style="display:inline;fill:#000000;fill-opacity:1;stroke:url(#linearGradient8054);stroke-width:1;stroke-miterlimit:4;stroke-dasharray:none"
       id="rect8010"
       width="42.046093"
       height="42.047695"
       x="4.0456696"
       y="1006.2027"
       rx="2.5439541"
       ry="2.5440512" />
    <path
       d="m 8.7222402,1010.2742 -1.89316,6.753 c 0.0932,0.056 0.19361,0.084 0.30118,0.084 l 0.83902,0 c 0.294,0 0.51631,-0.2004 0.66691,-0.6012 0.12189,-0.3076 0.18284,-0.6524 0.18285,-1.0346 l 0,-4.4041 c -10e-6,-0.2703 -0.0322,-0.536 -0.0968,-0.7969 m -2.34494,5.9979 1.92543,-6.7669 c -0.10039,-0.065 -0.21154,-0.098 -0.33345,-0.098 l -0.83902,0 c -0.29402,0 -0.5199,0.2004 -0.67766,0.6012 -0.12191,0.3169 -0.18287,0.6711 -0.18286,1.0626 l 0,4.4041 c -1e-5,0.2796 0.0358,0.5453 0.10756,0.7969 m 3.56044,-0.7969 c -10e-6,0.5872 -0.0968,1.1045 -0.29043,1.5519 -0.24383,0.5686 -0.59163,0.8529 -1.04339,0.8529 l -2.11905,0 c -0.4446,0 -0.78882,-0.2843 -1.03263,-0.8529 -0.19362,-0.4474 -0.29043,-0.9647 -0.29043,-1.5519 l 0,-4.4041 c 0,-0.5872 0.0968,-1.1138 0.29043,-1.5799 0.24381,-0.5779 0.58803,-0.8668 1.03263,-0.8668 l 2.11905,0 c 0.45176,0 0.79956,0.2889 1.04339,0.8668 0.1936,0.4661 0.29042,0.9927 0.29043,1.5799 l 0,4.4041"
       style="font-style:normal;font-variant:normal;font-weight:normal;font-stretch:normal;font-size:medium;line-height:100%;font-family:Unispace;-inkscape-font-specification:Unispace;text-align:start;writing-mode:lr-tb;text-anchor:start;display:inline;fill:#6aff6a;fill-opacity:1;stroke:none"
       id="path8012"
       inkscape:connector-curvature="0" />
    <path
       d="m 9.8624302,1031.8475 -4.62532,0 0,-0.769 1.78558,0 0,-7.7037 -1.15095,0 0,-0.7831 2.32342,0 0,8.4868 1.66727,0 0,0.769"
       style="font-style:normal;font-variant:normal;font-weight:normal;font-stretch:normal;font-size:medium;line-height:100%;font-family:Unispace;-inkscape-font-specification:Unispace;text-align:start;writing-mode:lr-tb;text-anchor:start;display:inline;fill:#6aff6a;fill-opacity:1;stroke:none"
       id="path8026"
       inkscape:connector-curvature="0" />
    <path
       d="m 8.7222402,1038.2369 -1.89316,6.753 c 0.0932,0.056 0.19361,0.084 0.30118,0.084 l 0.83902,0 c 0.294,0 0.51631,-0.2004 0.66691,-0.6012 0.12189,-0.3075 0.18284,-0.6524 0.18285,-1.0346 l 0,-4.4041 c -10e-6,-0.2703 -0.0322,-0.5359 -0.0968,-0.7969 m -2.34494,5.998 1.92543,-6.767 c -0.10039,-0.065 -0.21154,-0.098 -0.33345,-0.098 l -0.83902,0 c -0.29402,0 -0.5199,0.2004 -0.67766,0.6012 -0.12191,0.3169 -0.18287,0.6711 -0.18286,1.0626 l 0,4.4041 c -1e-5,0.2796 0.0358,0.5453 0.10756,0.7969 m 3.56044,-0.7969 c -10e-6,0.5872 -0.0968,1.1045 -0.29043,1.5519 -0.24383,0.5686 -0.59163,0.8529 -1.04339,0.8529 l -2.11905,0 c -0.4446,0 -0.78882,-0.2843 -1.03263,-0.8529 -0.19362,-0.4474 -0.29043,-0.9647 -0.29043,-1.5519 l 0,-4.4041 c 0,-0.5872 0.0968,-1.1138 0.29043,-1.5799 0.24381,-0.5779 0.58803,-0.8668 1.03263,-0.8668 l 2.11905,0 c 0.45176,0 0.79956,0.2889 1.04339,0.8668 0.1936,0.4661 0.29042,0.9927 0.29043,1.5799 l 0,4.4041"
       style="font-style:normal;font-variant:normal;font-weight:normal;font-stretch:normal;font-size:medium;line-height:100%;font-family:Unispace;-inkscape-font-specification:Unispace;text-align:start;writing-mode:lr-tb;text-anchor:start;display:inline;fill:#6aff6a;fill-opacity:1;stroke:none"
       id="path8040"
       inkscape:connector-curvature="0" />
    <path
       d="m 15.69995,1017.8661 -4.62532,0 0,-0.769 1.78558,0 0,-7.7037 -1.15095,0 0,-0.783 2.32343,0 0,8.4867 1.66726,0 0,0.769"
       style="font-style:normal;font-variant:normal;font-weight:normal;font-stretch:normal;font-size:medium;line-height:100%;font-family:Unispace;-inkscape-font-specification:Unispace;text-align:start;writing-mode:lr-tb;text-anchor:start;display:inline;fill:#6aff6a;fill-opacity:1;stroke:none"
       id="path8014"
       inkscape:connector-curvature="0" />
    <path
       d="m 15.69995,1031.8475 -4.62532,0 0,-0.769 1.78558,0 0,-7.7037 -1.15095,0 0,-0.7831 2.32343,0 0,8.4868 1.66726,0 0,0.769"
       style="font-style:normal;font-variant:normal;font-weight:normal;font-stretch:normal;font-size:medium;line-height:100%;font-family:Unispace;-inkscape-font-specification:Unispace;text-align:start;writing-mode:lr-tb;text-anchor:start;display:inline;fill:#6aff6a;fill-opacity:1;stroke:none"
       id="path8028"
       inkscape:connector-curvature="0" />
    <path
       d="m 14.55976,1038.2369 -1.89315,6.753 c 0.0932,0.056 0.1936,0.084 0.30117,0.084 l 0.83902,0 c 0.29401,0 0.51631,-0.2004 0.6669,-0.6012 0.12191,-0.3075 0.18286,-0.6524 0.18287,-1.0346 l 0,-4.4041 c -10e-6,-0.2703 -0.0322,-0.5359 -0.0968,-0.7969 m -2.34493,5.998 1.92542,-6.767 c -0.10039,-0.065 -0.21154,-0.098 -0.33345,-0.098 l -0.83902,0 c -0.29401,0 -0.5199,0.2004 -0.67766,0.6012 -0.12191,0.3169 -0.18286,0.6711 -0.18286,1.0626 l 0,4.4041 c 0,0.2796 0.0358,0.5453 0.10757,0.7969 m 3.56041,-0.7969 c 0,0.5872 -0.0968,1.1045 -0.29041,1.5519 -0.24383,0.5686 -0.59162,0.8529 -1.04339,0.8529 l -2.11905,0 c -0.44461,0 -0.78881,-0.2843 -1.03263,-0.8529 -0.19361,-0.4474 -0.29043,-0.9647 -0.29043,-1.5519 l 0,-4.4041 c 0,-0.5872 0.0968,-1.1138 0.29043,-1.5799 0.24382,-0.5779 0.58802,-0.8668 1.03263,-0.8668 l 2.11905,0 c 0.45177,0 0.79956,0.2889 1.04339,0.8668 0.19361,0.4661 0.29041,0.9927 0.29041,1.5799 l 0,4.4041"
       style="font-style:normal;font-variant:normal;font-weight:normal;font-stretch:normal;font-size:medium;line-height:100%;font-family:Unispace;-inkscape-font-specification:Unispace;text-align:start;writing-mode:lr-tb;text-anchor:start;display:inline;fill:#6aff6a;fill-opacity:1;stroke:none"
       id="path8042"
       inkscape:connector-curvature="0" />
    <path
       d="m 20.39726,1010.2742 -1.89317,6.753 c 0.0932,0.056 0.19363,0.084 0.3012,0.084 l 0.83901,0 c 0.29402,0 0.51632,-0.2004 0.66691,-0.6012 0.12191,-0.3076 0.18286,-0.6524 0.18286,-1.0346 l 0,-4.4041 c 0,-0.2703 -0.0322,-0.536 -0.0968,-0.7969 m -2.34494,5.9979 1.92544,-6.7669 c -0.1004,-0.065 -0.21155,-0.098 -0.33346,-0.098 l -0.83901,0 c -0.29401,0 -0.51991,0.2004 -0.67767,0.6012 -0.12191,0.3169 -0.18286,0.6711 -0.18286,1.0626 l 0,4.4041 c 0,0.2796 0.0358,0.5453 0.10756,0.7969 m 3.56043,-0.7969 c -1e-5,0.5872 -0.0968,1.1045 -0.29043,1.5519 -0.24382,0.5686 -0.59161,0.8529 -1.04339,0.8529 l -2.11903,0 c -0.44462,0 -0.78883,-0.2843 -1.03263,-0.8529 -0.19363,-0.4474 -0.29044,-0.9647 -0.29044,-1.5519 l 0,-4.4041 c 0,-0.5872 0.0968,-1.1138 0.29044,-1.5799 0.2438,-0.5779 0.58801,-0.8668 1.03263,-0.8668 l 2.11903,0 c 0.45178,0 0.79957,0.2889 1.04339,0.8668 0.19362,0.4661 0.29042,0.9927 0.29043,1.5799 l 0,4.4041"
       style="font-style:normal;font-variant:normal;font-weight:normal;font-stretch:normal;font-size:medium;line-height:100%;font-family:Unispace;-inkscape-font-specification:Unispace;text-align:start;writing-mode:lr-tb;text-anchor:start;display:inline;fill:#6aff6a;fill-opacity:1;stroke:none"
       id="path8016"
       inkscape:connector-curvature="0" />
    <path
       d="m 20.39726,1024.2556 -1.89317,6.753 c 0.0932,0.056 0.19363,0.084 0.3012,0.084 l 0.83901,0 c 0.29402,0 0.51632,-0.2004 0.66691,-0.6012 0.12191,-0.3076 0.18286,-0.6524 0.18286,-1.0346 l 0,-4.4041 c 0,-0.2703 -0.0322,-0.5359 -0.0968,-0.7969 m -2.34494,5.9979 1.92544,-6.7669 c -0.1004,-0.065 -0.21155,-0.098 -0.33346,-0.098 l -0.83901,0 c -0.29401,0 -0.51991,0.2004 -0.67767,0.6012 -0.12191,0.3169 -0.18286,0.6711 -0.18286,1.0626 l 0,4.4041 c 0,0.2796 0.0358,0.5453 0.10756,0.7969 m 3.56043,-0.7969 c -1e-5,0.5872 -0.0968,1.1045 -0.29043,1.5519 -0.24382,0.5686 -0.59161,0.8529 -1.04339,0.8529 l -2.11903,0 c -0.44462,0 -0.78883,-0.2843 -1.03263,-0.8529 -0.19363,-0.4474 -0.29044,-0.9647 -0.29044,-1.5519 l 0,-4.4041 c 0,-0.5872 0.0968,-1.1138 0.29044,-1.5799 0.2438,-0.5779 0.58801,-0.8669 1.03263,-0.8669 l 2.11903,0 c 0.45178,0 0.79957,0.289 1.04339,0.8669 0.19362,0.4661 0.29042,0.9927 0.29043,1.5799 l 0,4.4041"
       style="font-style:normal;font-variant:normal;font-weight:normal;font-stretch:normal;font-size:medium;line-height:100%;font-family:Unispace;-inkscape-font-specification:Unispace;text-align:start;writing-mode:lr-tb;text-anchor:start;display:inline;fill:#6aff6a;fill-opacity:1;stroke:none"
       id="path8030"
       inkscape:connector-curvature="0" />
    <path
       d="m 20.39726,1038.2369 -1.89317,6.753 c 0.0932,0.056 0.19363,0.084 0.3012,0.084 l 0.83901,0 c 0.29402,0 0.51632,-0.2004 0.66691,-0.6012 0.12191,-0.3075 0.18286,-0.6524 0.18286,-1.0346 l 0,-4.4041 c 0,-0.2703 -0.0322,-0.5359 -0.0968,-0.7969 m -2.34494,5.998 1.92544,-6.767 c -0.1004,-0.065 -0.21155,-0.098 -0.33346,-0.098 l -0.83901,0 c -0.29401,0 -0.51991,0.2004 -0.67767,0.6012 -0.12191,0.3169 -0.18286,0.6711 -0.18286,1.0626 l 0,4.4041 c 0,0.2796 0.0358,0.5453 0.10756,0.7969 m 3.56043,-0.7969 c -1e-5,0.5872 -0.0968,1.1045 -0.29043,1.5519 -0.24382,0.5686 -0.59161,0.8529 -1.04339,0.8529 l -2.11903,0 c -0.44462,0 -0.78883,-0.2843 -1.03263,-0.8529 -0.19363,-0.4474 -0.29044,-0.9647 -0.29044,-1.5519 l 0,-4.4041 c 0,-0.5872 0.0968,-1.1138 0.29044,-1.5799 0.2438,-0.5779 0.58801,-0.8668 1.03263,-0.8668 l 2.11903,0 c 0.45178,0 0.79957,0.2889 1.04339,0.8668 0.19362,0.4661 0.29042,0.9927 0.29043,1.5799 l 0,4.4041"
       style="font-style:normal;font-variant:normal;font-weight:normal;font-stretch:normal;font-size:medium;line-height:100%;font-family:Unispace;-inkscape-font-specification:Unispace;text-align:start;writing-mode:lr-tb;text-anchor:start;display:inline;fill:#6aff6a;fill-opacity:1;stroke:none"
       id="path8044"
       inkscape:connector-curvature="0" />
    <path
       d="m 27.29968,1017.8661 -4.62534,0 0,-0.769 1.7856,0 0,-7.7037 -1.15095,0 0,-0.783 2.32341,0 0,8.4867 1.66728,0 0,0.769"
       style="font-style:normal;font-variant:normal;font-weight:normal;font-stretch:normal;font-size:medium;line-height:100%;font-family:Unispace;-inkscape-font-specification:Unispace;text-align:start;writing-mode:lr-tb;text-anchor:start;display:inline;fill:#6aff6a;fill-opacity:1;stroke:none"
       id="path8018"
       inkscape:connector-curvature="0" />
    <path
       d="m 27.29968,1031.8475 -4.62534,0 0,-0.769 1.7856,0 0,-7.7037 -1.15095,0 0,-0.7831 2.32341,0 0,8.4868 1.66728,0 0,0.769"
       style="font-style:normal;font-variant:normal;font-weight:normal;font-stretch:normal;font-size:medium;line-height:100%;font-family:Unispace;-inkscape-font-specification:Unispace;text-align:start;writing-mode:lr-tb;text-anchor:start;display:inline;fill:#6aff6a;fill-opacity:1;stroke:none"
       id="path8032"
       inkscape:connector-curvature="0" />
    <path
       d="m 27.29968,1045.8288 -4.62534,0 0,-0.769 1.7856,0 0,-7.7037 -1.15095,0 0,-0.783 2.32341,0 0,8.4867 1.66728,0 0,0.769"
       style="font-style:normal;font-variant:normal;font-weight:normal;font-stretch:normal;font-size:medium;line-height:100%;font-family:Unispace;-inkscape-font-specification:Unispace;text-align:start;writing-mode:lr-tb;text-anchor:start;display:inline;fill:#6aff6a;fill-opacity:1;stroke:none"
       id="path8046"
       inkscape:connector-curvature="0" />
    <path
       d="m 33.0619,1017.8661 -4.62533,0 0,-0.769 1.78559,0 0,-7.7037 -1.15096,0 0,-0.783 2.32343,0 0,8.4867 1.66727,0 0,0.769"
       style="font-style:normal;font-variant:normal;font-weight:normal;font-stretch:normal;font-size:medium;line-height:100%;font-family:Unispace;-inkscape-font-specification:Unispace;text-align:start;writing-mode:lr-tb;text-anchor:start;display:inline;fill:#6aff6a;fill-opacity:1;stroke:none"
       id="path8020"
       inkscape:connector-curvature="0" />
    <path
       d="m 31.92169,1024.2556 -1.89315,6.753 c 0.0932,0.056 0.19361,0.084 0.30117,0.084 l 0.83903,0 c 0.294,0 0.51631,-0.2004 0.6669,-0.6012 0.1219,-0.3076 0.18286,-0.6524 0.18287,-1.0346 l 0,-4.4041 c -10e-6,-0.2703 -0.0322,-0.5359 -0.0968,-0.7969 m -2.34493,5.9979 1.92543,-6.7669 c -0.1004,-0.065 -0.21155,-0.098 -0.33345,-0.098 l -0.83903,0 c -0.29401,0 -0.5199,0.2004 -0.67766,0.6012 -0.1219,0.3169 -0.18286,0.6711 -0.18286,1.0626 l 0,4.4041 c 0,0.2796 0.0358,0.5453 0.10757,0.7969 m 3.56042,-0.7969 c 0,0.5872 -0.0968,1.1045 -0.29042,1.5519 -0.24381,0.5686 -0.59161,0.8529 -1.04338,0.8529 l -2.11906,0 c -0.4446,0 -0.78881,-0.2843 -1.03262,-0.8529 -0.19362,-0.4474 -0.29043,-0.9647 -0.29043,-1.5519 l 0,-4.4041 c 0,-0.5872 0.0968,-1.1138 0.29043,-1.5799 0.24381,-0.5779 0.58802,-0.8669 1.03262,-0.8669 l 2.11906,0 c 0.45177,0 0.79957,0.289 1.04338,0.8669 0.19362,0.4661 0.29042,0.9927 0.29042,1.5799 l 0,4.4041"
       style="font-style:normal;font-variant:normal;font-weight:normal;font-stretch:normal;font-size:medium;line-height:100%;font-family:Unispace;-inkscape-font-specification:Unispace;text-align:start;writing-mode:lr-tb;text-anchor:start;display:inline;fill:#6aff6a;fill-opacity:1;stroke:none"
       id="path8034"
       inkscape:connector-curvature="0" />
    <path
       d="m 31.92169,1038.2369 -1.89315,6.753 c 0.0932,0.056 0.19361,0.084 0.30117,0.084 l 0.83903,0 c 0.294,0 0.51631,-0.2004 0.6669,-0.6012 0.1219,-0.3075 0.18286,-0.6524 0.18287,-1.0346 l 0,-4.4041 c -10e-6,-0.2703 -0.0322,-0.5359 -0.0968,-0.7969 m -2.34493,5.998 1.92543,-6.767 c -0.1004,-0.065 -0.21155,-0.098 -0.33345,-0.098 l -0.83903,0 c -0.29401,0 -0.5199,0.2004 -0.67766,0.6012 -0.1219,0.3169 -0.18286,0.6711 -0.18286,1.0626 l 0,4.4041 c 0,0.2796 0.0358,0.5453 0.10757,0.7969 m 3.56042,-0.7969 c 0,0.5872 -0.0968,1.1045 -0.29042,1.5519 -0.24381,0.5686 -0.59161,0.8529 -1.04338,0.8529 l -2.11906,0 c -0.4446,0 -0.78881,-0.2843 -1.03262,-0.8529 -0.19362,-0.4474 -0.29043,-0.9647 -0.29043,-1.5519 l 0,-4.4041 c 0,-0.5872 0.0968,-1.1138 0.29043,-1.5799 0.24381,-0.5779 0.58802,-0.8668 1.03262,-0.8668 l 2.11906,0 c 0.45177,0 0.79957,0.2889 1.04338,0.8668 0.19362,0.4661 0.29042,0.9927 0.29042,1.5799 l 0,4.4041"
       style="font-style:normal;font-variant:normal;font-weight:normal;font-stretch:normal;font-size:medium;line-height:100%;font-family:Unispace;-inkscape-font-specification:Unispace;text-align:start;writing-mode:lr-tb;text-anchor:start;display:inline;fill:#6aff6a;fill-opacity:1;stroke:none"
       id="path8048"
       inkscape:connector-curvature="0" />
    <path
       d="m 38.89939,1017.8661 -4.62533,0 0,-0.769 1.78559,0 0,-7.7037 -1.15094,0 0,-0.783 2.32341,0 0,8.4867 1.66727,0 0,0.769"
       style="font-style:normal;font-variant:normal;font-weight:normal;font-stretch:normal;font-size:medium;line-height:100%;font-family:Unispace;-inkscape-font-specification:Unispace;text-align:start;writing-mode:lr-tb;text-anchor:start;display:inline;fill:#6aff6a;fill-opacity:1;stroke:none"
       id="path8022"
       inkscape:connector-curvature="0" />
    <path
       d="m 37.75919,1024.2556 -1.89316,6.753 c 0.0932,0.056 0.19362,0.084 0.30119,0.084 l 0.83901,0 c 0.29402,0 0.51632,-0.2004 0.66692,-0.6012 0.1219,-0.3076 0.18286,-0.6524 0.18286,-1.0346 l 0,-4.4041 c 0,-0.2703 -0.0322,-0.5359 -0.0968,-0.7969 m -2.34493,5.9979 1.92543,-6.7669 c -0.1004,-0.065 -0.21155,-0.098 -0.33346,-0.098 l -0.83901,0 c -0.29401,0 -0.5199,0.2004 -0.67767,0.6012 -0.1219,0.3169 -0.18286,0.6711 -0.18286,1.0626 l 0,4.4041 c 0,0.2796 0.0358,0.5453 0.10757,0.7969 m 3.56043,-0.7969 c -1e-5,0.5872 -0.0968,1.1045 -0.29043,1.5519 -0.24382,0.5686 -0.59162,0.8529 -1.04339,0.8529 l -2.11904,0 c -0.44461,0 -0.78882,-0.2843 -1.03263,-0.8529 -0.19363,-0.4474 -0.29043,-0.9647 -0.29043,-1.5519 l 0,-4.4041 c 0,-0.5872 0.0968,-1.1138 0.29043,-1.5799 0.24381,-0.5779 0.58802,-0.8669 1.03263,-0.8669 l 2.11904,0 c 0.45177,0 0.79957,0.289 1.04339,0.8669 0.19361,0.4661 0.29042,0.9927 0.29043,1.5799 l 0,4.4041"
       style="font-style:normal;font-variant:normal;font-weight:normal;font-stretch:normal;font-size:medium;line-height:100%;font-family:Unispace;-inkscape-font-specification:Unispace;text-align:start;writing-mode:lr-tb;text-anchor:start;display:inline;fill:#6aff6a;fill-opacity:1;stroke:none"
       id="path8036"
       inkscape:connector-curvature="0" />
    <path
       d="m 38.89939,1045.8288 -4.62533,0 0,-0.769 1.78559,0 0,-7.7037 -1.15094,0 0,-0.783 2.32341,0 0,8.4867 1.66727,0 0,0.769"
       style="font-style:normal;font-variant:normal;font-weight:normal;font-stretch:normal;font-size:medium;line-height:100%;font-family:Unispace;-inkscape-font-specification:Unispace;text-align:start;writing-mode:lr-tb;text-anchor:start;display:inline;fill:#6aff6a;fill-opacity:1;stroke:none"
       id="path8050"
       inkscape:connector-curvature="0" />
    <path
       d="m 43.5967,1010.2742 -1.89315,6.753 c 0.0932,0.056 0.19361,0.084 0.30118,0.084 l 0.83901,0 c 0.29401,0 0.51631,-0.2004 0.66691,-0.6012 0.12191,-0.3076 0.18286,-0.6524 0.18286,-1.0346 l 0,-4.4041 c 0,-0.2703 -0.0322,-0.536 -0.0968,-0.7969 m -2.34493,5.9979 1.92543,-6.7669 c -0.1004,-0.065 -0.21155,-0.098 -0.33346,-0.098 l -0.83901,0 c -0.29402,0 -0.5199,0.2004 -0.67766,0.6012 -0.12191,0.3169 -0.18287,0.6711 -0.18287,1.0626 l 0,4.4041 c 0,0.2796 0.0358,0.5453 0.10757,0.7969 m 3.56043,-0.7969 c -1e-5,0.5872 -0.0968,1.1045 -0.29042,1.5519 -0.24383,0.5686 -0.59162,0.8529 -1.0434,0.8529 l -2.11904,0 c -0.44461,0 -0.78882,-0.2843 -1.03265,-0.8529 -0.19361,-0.4474 -0.29041,-0.9647 -0.29041,-1.5519 l 0,-4.4041 c 0,-0.5872 0.0968,-1.1138 0.29041,-1.5799 0.24383,-0.5779 0.58804,-0.8668 1.03265,-0.8668 l 2.11904,0 c 0.45178,0 0.79957,0.2889 1.0434,0.8668 0.1936,0.4661 0.29041,0.9927 0.29042,1.5799 l 0,4.4041"
       style="font-style:normal;font-variant:normal;font-weight:normal;font-stretch:normal;font-size:medium;line-height:100%;font-family:Unispace;-inkscape-font-specification:Unispace;text-align:start;writing-mode:lr-tb;text-anchor:start;display:inline;fill:#6aff6a;fill-opacity:1;stroke:none"
       id="path8024"
       inkscape:connector-curvature="0" />
    <path
       d="m 44.7369,1031.8475 -4.62533,0 0,-0.769 1.78559,0 0,-7.7037 -1.15095,0 0,-0.7831 2.32341,0 0,8.4868 1.66728,0 0,0.769"
       style="font-style:normal;font-variant:normal;font-weight:normal;font-stretch:normal;font-size:medium;line-height:100%;font-family:Unispace;-inkscape-font-specification:Unispace;text-align:start;writing-mode:lr-tb;text-anchor:start;display:inline;fill:#6aff6a;fill-opacity:1;stroke:none"
       id="path8038"
       inkscape:connector-curvature="0" />
    <path
       d="m 44.7369,1045.8288 -4.62533,0 0,-0.769 1.78559,0 0,-7.7037 -1.15095,0 0,-0.783 2.32341,0 0,8.4867 1.66728,0 0,0.769"
       style="font-style:normal;font-variant:normal;font-weight:normal;font-stretch:normal;font-size:medium;line-height:100%;font-family:Unispace;-inkscape-font-specification:Unispace;text-align:start;writing-mode:lr-tb;text-anchor:start;display:inline;fill:#6aff6a;fill-opacity:1;stroke:none"
       id="path8052"
       inkscape:connector-curvature="0" />
  </g>
</svg>
