<?xml version="1.0" encoding="UTF-8" standalone="no"?>
<!-- Created with Inkscape (http://www.inkscape.org/) -->
<svg
   xmlns:dc="http://purl.org/dc/elements/1.1/"
   xmlns:cc="http://creativecommons.org/ns#"
   xmlns:rdf="http://www.w3.org/1999/02/22-rdf-syntax-ns#"
   xmlns:svg="http://www.w3.org/2000/svg"
   xmlns="http://www.w3.org/2000/svg"
   xmlns:xlink="http://www.w3.org/1999/xlink"
   xmlns:sodipodi="http://sodipodi.sourceforge.net/DTD/sodipodi-0.dtd"
   xmlns:inkscape="http://www.inkscape.org/namespaces/inkscape"
   width="128"
   height="128"
   id="svg2"
   sodipodi:version="0.32"
   inkscape:version="0.46"
   version="1.0"
   sodipodi:docname="gtk-replace.svg"
   inkscape:output_extension="org.inkscape.output.svg.inkscape">
  <defs
     id="defs4">
    <linearGradient
       inkscape:collect="always"
       xlink:href="#linearGradient5362"
       id="linearGradient23491"
       gradientUnits="userSpaceOnUse"
       gradientTransform="matrix(2.6765239,0,0,2.6765239,-1298.3708,-1689.8172)"
       x1="504.91962"
       y1="635.44617"
       x2="504.48212"
       y2="641.10242" />
    <linearGradient
       inkscape:collect="always"
       xlink:href="#linearGradient5344"
       id="linearGradient23493"
       gradientUnits="userSpaceOnUse"
       gradientTransform="matrix(2.6765239,0,0,2.6765239,-1298.3708,-1689.8172)"
       x1="519.31262"
       y1="723.67017"
       x2="511.42725"
       y2="667.20789" />
    <linearGradient
       inkscape:collect="always"
       xlink:href="#linearGradient9863"
       id="linearGradient23495"
       gradientUnits="userSpaceOnUse"
       gradientTransform="matrix(2.6765239,0,0,2.6765239,-2422.5109,-1101.1492)"
       x1="927.93488"
       y1="459.10907"
       x2="927.93488"
       y2="410.98141" />
    <linearGradient
       inkscape:collect="always"
       xlink:href="#linearGradient5344"
       id="linearGradient23497"
       gradientUnits="userSpaceOnUse"
       gradientTransform="matrix(-2.6602956,0.3561043,0.3560962,2.6604198,2859.0843,-1506.5851)"
       x1="1058.9668"
       y1="494.57156"
       x2="1119.7804"
       y2="430.48416" />
    <linearGradient
       inkscape:collect="always"
       xlink:href="#linearGradient5439"
       id="linearGradient23499"
       gradientUnits="userSpaceOnUse"
       gradientTransform="matrix(-1.8978904,1.8979785,1.8978904,1.8979785,1321.8802,-2906.2012)"
       x1="1117.25"
       y1="451.18191"
       x2="1144.3892"
       y2="451.18192" />
    <linearGradient
       inkscape:collect="always"
       xlink:href="#linearGradient5316"
       id="linearGradient23501"
       gradientUnits="userSpaceOnUse"
       gradientTransform="matrix(-1.8978904,1.8979785,1.8978904,1.8979785,1321.8802,-2906.2012)"
       x1="1118.8125"
       y1="447.03708"
       x2="1124.375"
       y2="447.03708" />
    <linearGradient
       inkscape:collect="always"
       xlink:href="#linearGradient5344"
       id="linearGradient23515"
       gradientUnits="userSpaceOnUse"
       gradientTransform="matrix(2.7841839,0,0,2.7841839,-3249.6651,-867.09918)"
       x1="1262.0155"
       y1="265.98712"
       x2="1183.4896"
       y2="344.66345" />
    <linearGradient
       inkscape:collect="always"
       xlink:href="#linearGradient5362"
       id="linearGradient23503"
       gradientUnits="userSpaceOnUse"
       gradientTransform="matrix(-1.8978904,1.8979785,1.8978904,1.8979785,1321.8802,-2906.2012)"
       x1="1118.3125"
       y1="447.01843"
       x2="1121.0625"
       y2="447.01843" />
    <linearGradient
       inkscape:collect="always"
       xlink:href="#linearGradient5316"
       id="linearGradient23517"
       gradientUnits="userSpaceOnUse"
       gradientTransform="matrix(3.1588713,0,0,3.1588177,-3703.9162,-983.75769)"
       x1="1196.1906"
       y1="321.07474"
       x2="1203.3486"
       y2="327.61548" />
    <linearGradient
       inkscape:collect="always"
       xlink:href="#linearGradient5439"
       id="linearGradient23519"
       gradientUnits="userSpaceOnUse"
       x1="815.53125"
       y1="354.75"
       x2="841.96875"
       y2="379.125"
       gradientTransform="matrix(2.7841839,0,0,2.7841839,-2186.107,-978.46653)" />
    <linearGradient
       inkscape:collect="always"
       xlink:href="#linearGradient12594"
       id="linearGradient23521"
       gradientUnits="userSpaceOnUse"
       x1="1194.4072"
       y1="306.77557"
       x2="1202.3015"
       y2="316.06638" />
    <linearGradient
       y2="641.10242"
       x2="504.48212"
       y1="635.44617"
       x1="504.91962"
       gradientTransform="matrix(2.6651929,0,0,2.6651929,-1291.5812,-1682.6681)"
       gradientUnits="userSpaceOnUse"
       id="linearGradient6193"
       xlink:href="#linearGradient5362"
       inkscape:collect="always" />
    <linearGradient
       y2="641.10242"
       x2="504.48212"
       y1="635.44617"
       x1="504.91962"
       gradientTransform="matrix(2.6651929,0,0,2.6651929,-1291.5812,-1682.6681)"
       gradientUnits="userSpaceOnUse"
       id="linearGradient6201"
       xlink:href="#linearGradient5362"
       inkscape:collect="always" />
    <linearGradient
       y2="472.12598"
       x2="623.98755"
       y1="436.26382"
       x1="620.23755"
       gradientTransform="matrix(2.6651929,0,0,2.6651929,-1611.4044,-1149.6296)"
       gradientUnits="userSpaceOnUse"
       id="linearGradient6205"
       xlink:href="#linearGradient5344"
       inkscape:collect="always" />
    <linearGradient
       y2="469.80151"
       x2="631.42725"
       y1="514.55151"
       x1="636.98602"
       gradientTransform="matrix(2.6651929,0,0,2.6651929,-1611.4044,-1149.6296)"
       gradientUnits="userSpaceOnUse"
       id="linearGradient6203"
       xlink:href="#linearGradient5344"
       inkscape:collect="always" />
    <filter
       id="filter20356"
       inkscape:collect="always">
      <feGaussianBlur
         id="feGaussianBlur20358"
         stdDeviation="0.48197145"
         inkscape:collect="always" />
    </filter>
    <linearGradient
       y2="400.18481"
       x2="688.08392"
       y1="336.13824"
       x1="720.71875"
       gradientTransform="translate(-666.5043,-290.34387)"
       gradientUnits="userSpaceOnUse"
       id="linearGradient6207"
       xlink:href="#linearGradient5344"
       inkscape:collect="always" />
    <linearGradient
       id="linearGradient12594">
      <stop
         id="stop12596"
         offset="0"
         style="stop-color:#e9b551;stop-opacity:1;" />
      <stop
         id="stop12598"
         offset="1"
         style="stop-color:#e9b551;stop-opacity:0;" />
    </linearGradient>
    <linearGradient
       id="linearGradient5316">
      <stop
         style="stop-color:#aac736;stop-opacity:1;"
         offset="0"
         id="stop5320" />
      <stop
         style="stop-color:#5d8b2c;stop-opacity:1;"
         offset="1"
         id="stop5322" />
    </linearGradient>
    <linearGradient
       id="linearGradient9863">
      <stop
         style="stop-color:#2f445a;stop-opacity:1;"
         offset="0"
         id="stop9865" />
      <stop
         style="stop-color:#415f7c;stop-opacity:1"
         offset="1"
         id="stop9867" />
    </linearGradient>
    <linearGradient
       id="linearGradient12336">
      <stop
         id="stop12338"
         offset="0"
         style="stop-color:#ff6e00;stop-opacity:1;" />
      <stop
         id="stop12340"
         offset="1"
         style="stop-color:#eb2600;stop-opacity:1;" />
    </linearGradient>
    <linearGradient
       id="linearGradient5362">
      <stop
         style="stop-color:#ffffff;stop-opacity:1;"
         offset="0"
         id="stop5364" />
      <stop
         style="stop-color:#ffffff;stop-opacity:0;"
         offset="1"
         id="stop5366" />
    </linearGradient>
    <linearGradient
       id="linearGradient5439">
      <stop
         style="stop-color:#ffffff;stop-opacity:1;"
         offset="0"
         id="stop5441" />
      <stop
         style="stop-color:#000000;stop-opacity:1;"
         offset="1"
         id="stop5443" />
    </linearGradient>
    <linearGradient
       inkscape:collect="always"
       xlink:href="#linearGradient5439"
       id="linearGradient13309"
       gradientUnits="userSpaceOnUse"
       x1="499.90704"
       y1="953.39532"
       x2="652.75177"
       y2="1116.9413"
       gradientTransform="matrix(2.6765239,0,0,2.6765239,-1298.6765,-2514.903)" />
    <linearGradient
       inkscape:collect="always"
       id="linearGradient5398">
      <stop
         style="stop-color:#87c6ff;stop-opacity:1;"
         offset="0"
         id="stop5400" />
      <stop
         style="stop-color:#87c6ff;stop-opacity:0"
         offset="1"
         id="stop5402" />
    </linearGradient>
    <linearGradient
       inkscape:collect="always"
       xlink:href="#linearGradient5398"
       id="linearGradient13322"
       gradientUnits="userSpaceOnUse"
       x1="500.87799"
       y1="948.11993"
       x2="500.87799"
       y2="953.17468"
       gradientTransform="matrix(2.6765239,0,0,2.6765239,-1298.6765,-2514.903)" />
    <linearGradient
       id="linearGradient5344">
      <stop
         style="stop-color:#000000;stop-opacity:1;"
         offset="0"
         id="stop5346" />
      <stop
         style="stop-color:#000000;stop-opacity:0;"
         offset="1"
         id="stop5348" />
    </linearGradient>
    <linearGradient
       inkscape:collect="always"
       xlink:href="#linearGradient5344"
       id="linearGradient13314"
       gradientUnits="userSpaceOnUse"
       x1="544.89001"
       y1="919.05762"
       x2="506.01498"
       y2="969.80762"
       gradientTransform="translate(-485.21014,-859.4386)" />
    <linearGradient
       id="linearGradient8702">
      <stop
         id="stop8704"
         offset="0"
         style="stop-color:#aac736;stop-opacity:1;" />
      <stop
         id="stop8706"
         offset="1"
         style="stop-color:#5d8b2c;stop-opacity:1;" />
    </linearGradient>
    <linearGradient
       inkscape:collect="always"
       xlink:href="#linearGradient8702"
       id="linearGradient13316"
       gradientUnits="userSpaceOnUse"
       gradientTransform="matrix(2.6765239,0,0,2.6765239,-1779.5422,-994.63744)"
       x1="700.13062"
       y1="378.86951"
       x2="707.80457"
       y2="395.74899" />
    <inkscape:perspective
       sodipodi:type="inkscape:persp3d"
       inkscape:vp_x="0 : 526.18109 : 1"
       inkscape:vp_y="0 : 1000 : 0"
       inkscape:vp_z="744.09448 : 526.18109 : 1"
       inkscape:persp3d-origin="372.04724 : 350.78739 : 1"
       id="perspective10" />
  </defs>
  <sodipodi:namedview
     id="base"
     pagecolor="#ffffff"
     bordercolor="#666666"
     borderopacity="1.0"
     inkscape:pageopacity="0.0"
     inkscape:pageshadow="2"
     inkscape:zoom="2"
     inkscape:cx="122.03322"
     inkscape:cy="90.295909"
     inkscape:document-units="px"
     inkscape:current-layer="layer1"
     showgrid="false"
     inkscape:showpageshadow="false"
     inkscape:window-width="1014"
     inkscape:window-height="715"
     inkscape:window-x="0"
     inkscape:window-y="6"
     showguides="true"
     inkscape:guide-bbox="true" />
  <metadata
     id="metadata7">
    <rdf:RDF>
      <cc:Work
         rdf:about="">
        <dc:format>image/svg+xml</dc:format>
        <dc:type
           rdf:resource="http://purl.org/dc/dcmitype/StillImage" />
      </cc:Work>
    </rdf:RDF>
  </metadata>
  <g
     inkscape:label="Capa 1"
     inkscape:groupmode="layer"
     id="layer1">
    <path
       style="fill:#f2f2f2;fill-rule:evenodd;stroke:none;stroke-width:0.5;stroke-linecap:round;stroke-linejoin:round;stroke-miterlimit:4;stroke-dasharray:none;stroke-opacity:1;display:inline"
       d="M 1.0440622,5.0300318 C 10.685704,5.9564303 14.767644,17.135869 14.760444,25.471341 L 14.635772,101.75387 C 14.718556,111.11539 19.603373,120.42249 32.24556,127.21075 L 120.3267,112.17917 C 109.89428,110.25545 102.43553,99.918955 102.52,91.515874 L 102.73,28.451945 C 102.82148,20.324252 97.488748,12.146507 87.586894,11.268634 L 1.0440622,5.0300318 z"
       id="path23471"
       sodipodi:nodetypes="ccccccccc"
       inkscape:export-filename="/home/dafeba/DCV/tallerD/bocetos/08-09-22-hastaahora.png"
       inkscape:export-xdpi="57.964222"
       inkscape:export-ydpi="57.964222" />
    <path
       sodipodi:nodetypes="ccccc"
       id="path23473"
       d="M 1.0440622,5.0300318 C 10.685704,5.9564303 14.767644,17.135869 14.760444,25.471341 L 102.73,28.451945 C 102.82148,20.324252 97.488748,12.146507 87.586894,11.268634 L 1.0440622,5.0300318 z"
       style="fill:url(#linearGradient23491);fill-rule:evenodd;stroke:none;stroke-width:0.5;stroke-linecap:round;stroke-linejoin:round;stroke-miterlimit:4;stroke-dasharray:none;stroke-opacity:1;display:inline"
       inkscape:export-filename="/home/dafeba/DCV/tallerD/bocetos/08-09-22-hastaahora.png"
       inkscape:export-xdpi="57.964222"
       inkscape:export-ydpi="57.964222" />
    <path
       sodipodi:nodetypes="ccccc"
       id="path23475"
       d="M 14.635772,101.75387 C 14.718556,111.11539 19.603373,120.42249 32.24556,127.21075 L 120.3267,112.17917 C 109.89428,110.25545 102.43553,99.918955 102.52,91.515874 L 14.635772,101.75387 z"
       style="fill:url(#linearGradient23493);fill-rule:evenodd;stroke:none;stroke-width:0.5;stroke-linecap:round;stroke-linejoin:round;stroke-miterlimit:4;stroke-dasharray:none;stroke-opacity:1;display:inline"
       inkscape:export-filename="/home/dafeba/DCV/tallerD/bocetos/08-09-22-hastaahora.png"
       inkscape:export-xdpi="57.964222"
       inkscape:export-ydpi="57.964222" />
    <path
       inkscape:export-ydpi="57.964222"
       inkscape:export-xdpi="57.964222"
       inkscape:export-filename="/home/dafeba/DCV/tallerD/bocetos/08-09-22-hastaahora.png"
       style="fill:none;fill-rule:evenodd;stroke:url(#linearGradient23495);stroke-width:2.67652392;stroke-linecap:round;stroke-linejoin:round;stroke-miterlimit:4;stroke-dasharray:none;stroke-opacity:1;display:inline"
       d="M 1.9312228,4.9514759 C 5.1684515,5.2625147 6.891785,6.6406836 8.9311624,8.7676904 C 12.965808,12.975668 14.765235,19.767267 14.760444,25.304058 L 14.635772,101.58659 C 14.709537,109.9268 18.594698,118.22384 28.381061,124.73502 C 30.830509,126.35091 34.087892,126.35091 37.531668,125.97807 L 120.3267,112.01189 C 109.89428,110.08817 102.43553,99.751672 102.52,91.348592 L 102.73,28.284662 C 102.82148,20.156969 97.488748,11.979225 87.586894,11.101352 L 10.11721,5.5168112 L 1.9312228,4.9514759 z"
       id="path23477"
       sodipodi:nodetypes="cscccccccccc" />
    <path
       style="fill:url(#linearGradient23497);fill-opacity:1;stroke:none;stroke-width:0.5;stroke-linecap:round;stroke-linejoin:round;stroke-miterlimit:4;stroke-dasharray:none;stroke-opacity:1;display:inline"
       d="M 9.7075202,53.996282 L 4.9016449,60.287799 C 3.1863892,62.533216 3.9700085,65.994336 6.6585125,68.048113 L 61.206935,109.71929 C 64.476424,112.2171 82.534993,118.65468 84.245832,116.19417 C 86.533444,114.02482 76.832715,98.841172 72.204625,95.321543 L 17.656467,53.650314 C 14.967963,51.596537 11.422779,51.75086 9.7075202,53.996282 z"
       id="path23479"
       sodipodi:nodetypes="cccccccc"
       inkscape:export-filename="/home/dafeba/DCV/tallerD/bocetos/08-09-22-hastaahora.png"
       inkscape:export-xdpi="57.964222"
       inkscape:export-ydpi="57.964222" />
    <path
       style="fill:url(#linearGradient23499);fill-opacity:1;stroke:none;stroke-width:1;stroke-linecap:round;stroke-linejoin:round;stroke-miterlimit:4;stroke-opacity:1;display:inline"
       d="M 18.906032,40.908407 L 13.308082,46.506704 C 11.310271,48.504676 11.627546,52.039186 14.01977,54.431485 L 62.557782,102.97156 C 65.466789,105.88107 82.51175,114.65766 84.533917,112.44589 C 87.089114,110.5992 79.488509,94.262737 75.368268,90.160188 L 26.830764,41.620148 C 24.438273,39.227817 20.90411,38.910381 18.906032,40.908407 z"
       id="path23481"
       sodipodi:nodetypes="cccccccc"
       inkscape:export-filename="/home/dafeba/DCV/tallerD/bocetos/08-09-22-hastaahora.png"
       inkscape:export-xdpi="57.964222"
       inkscape:export-ydpi="57.964222" />
    <path
       sodipodi:nodetypes="ccccccc"
       id="path23483"
       d="M 18.906032,40.908407 L 13.308082,46.506704 C 11.310271,48.504676 11.627546,52.039186 14.01977,54.431485 L 62.557782,102.97156 C 63.059845,96.06725 68.45933,90.858172 75.368268,90.160188 L 26.830764,41.620148 C 24.438273,39.227817 20.90411,38.910381 18.906032,40.908407 z"
       style="fill:url(#linearGradient23501);fill-opacity:1;stroke:none;stroke-width:1;stroke-linecap:round;stroke-linejoin:round;stroke-miterlimit:4;stroke-opacity:1;display:inline"
       inkscape:export-filename="/home/dafeba/DCV/tallerD/bocetos/08-09-22-hastaahora.png"
       inkscape:export-xdpi="57.964222"
       inkscape:export-ydpi="57.964222" />
    <path
       style="fill:#000000;fill-rule:evenodd;stroke:none;stroke-width:1px;stroke-linecap:butt;stroke-linejoin:miter;stroke-opacity:1;display:inline"
       d="M 81.745461,100.53927 C 78.208247,100.94388 73.197607,105.88324 73.02018,109.28087 C 76.875686,111.11571 84.130859,113.49953 84.943318,112.68721 C 86.014677,111.59706 82.928752,103.1405 81.745461,100.53927 z"
       id="path23485"
       sodipodi:nodetypes="cccc"
       inkscape:export-filename="/home/dafeba/DCV/tallerD/bocetos/08-09-22-hastaahora.png"
       inkscape:export-xdpi="57.964222"
       inkscape:export-ydpi="57.964222" />
    <path
       sodipodi:nodetypes="csccccccccccssc"
       style="fill:url(#linearGradient23515);fill-opacity:1;stroke:none;stroke-width:0.49999997;stroke-linecap:round;stroke-linejoin:round;stroke-miterlimit:4;stroke-dasharray:none;stroke-opacity:1;display:inline"
       d="M 95.634024,10.701292 C 83.346317,10.701292 73.324635,20.623969 73.324635,32.911729 C 73.324635,36.832757 74.405201,40.569398 76.187338,43.770173 L 70.560776,49.396788 C 69.505021,50.452275 68.955156,51.869361 68.981333,53.246588 L 56.172132,65.782623 C 54.701516,67.253373 54.700953,69.642411 56.172132,71.113161 L 57.751602,72.692551 C 59.222191,74.163301 61.61131,74.163274 63.081899,72.692551 L 75.792551,60.156516 C 77.202169,60.210046 78.561709,59.658094 79.642516,58.577099 L 85.466472,52.753042 C 88.50818,54.31345 91.982576,55.220872 95.634024,55.220872 C 107.92203,55.220872 117.84486,45.199544 117.84486,32.911729 C 117.84486,20.623969 107.92229,10.701292 95.634024,10.701292 z"
       id="path23505"
       inkscape:export-filename="/home/dafeba/DCV/tallerD/bocetos/08-09-22-hastaahora.png"
       inkscape:export-xdpi="57.964222"
       inkscape:export-ydpi="57.964222" />
    <path
       style="fill:url(#linearGradient23503);fill-rule:evenodd;stroke:none;stroke-width:1px;stroke-linecap:butt;stroke-linejoin:miter;stroke-opacity:1;display:inline"
       d="M 75.312436,90.193109 L 26.693967,41.661152 C 24.228621,39.195485 20.967062,39.232501 19.221032,40.890233 L 16.37396,43.737171 L 66.742233,94.107767 C 68.762366,91.825655 73.146325,90.238557 75.312436,90.193109 z"
       id="path23487"
       sodipodi:nodetypes="cccccc"
       inkscape:export-filename="/home/dafeba/DCV/tallerD/bocetos/08-09-22-hastaahora.png"
       inkscape:export-xdpi="57.964222"
       inkscape:export-ydpi="57.964222" />
    <path
       sodipodi:nodetypes="cccccccc"
       id="path23489"
       d="M 18.906032,40.90854 L 13.308082,46.506811 C 11.310003,48.50481 11.627546,52.03932 14.01977,54.431619 L 62.557782,102.97166 C 65.467057,105.88121 82.51175,114.6578 84.533917,112.44602 C 87.089114,110.59936 79.488509,94.262871 75.368268,90.160322 L 26.830764,41.620282 C 24.43854,39.227924 20.90411,38.910542 18.906032,40.90854 z"
       style="fill:none;fill-opacity:1;stroke:#000000;stroke-width:1.26909339;stroke-linecap:round;stroke-linejoin:round;stroke-miterlimit:4;stroke-dasharray:none;stroke-opacity:1;display:inline"
       inkscape:export-filename="/home/dafeba/DCV/tallerD/bocetos/08-09-22-hastaahora.png"
       inkscape:export-xdpi="57.964222"
       inkscape:export-ydpi="57.964222" />
    <path
       style="fill:url(#linearGradient23517);fill-opacity:1;stroke:none;stroke-width:0.5;stroke-linecap:round;stroke-linejoin:round;stroke-miterlimit:4;stroke-dasharray:none;stroke-opacity:1;display:inline"
       d="M 103.01684,1.5960249 C 90.729401,1.5960249 80.707746,11.518675 80.707746,23.806436 C 80.707746,27.72749 81.788018,31.464131 83.570449,34.664879 L 77.943887,40.291521 C 76.888132,41.347035 76.337678,42.764067 76.364417,44.141353 L 63.598656,56.633862 C 62.127772,58.104612 62.12721,60.493597 63.598656,61.964347 L 65.178126,63.543764 C 66.648448,65.014514 69.038128,65.014487 70.50845,63.543764 L 83.175367,51.051255 C 84.58528,51.104758 85.944231,50.552832 87.025627,49.471838 L 92.849583,43.647775 C 95.891291,45.208162 99.365955,46.115611 103.01684,46.115611 C 115.30514,46.115611 125.22795,36.09425 125.22795,23.806436 C 125.22795,11.518675 115.30567,1.5960249 103.01684,1.5960249 z M 101.24054,6.9265364 C 101.81018,6.8685629 102.43189,6.9265364 103.01684,6.9265364 C 112.38202,6.9265631 119.99593,14.441761 119.99593,23.806436 C 119.99593,33.171138 112.38202,40.785099 103.01684,40.785099 C 93.652245,40.785072 86.03807,33.171138 86.03807,23.806436 C 86.038338,15.027063 92.688643,7.7958446 101.24054,6.9265364 z"
       id="path23507"
       sodipodi:nodetypes="csccccccccccssccssssc"
       inkscape:export-filename="/home/dafeba/DCV/tallerD/bocetos/08-09-22-hastaahora.png"
       inkscape:export-xdpi="57.964222"
       inkscape:export-ydpi="57.964222" />
    <path
       style="fill:url(#linearGradient23519);fill-opacity:1;stroke:none;stroke-width:0.627451;stroke-linecap:round;stroke-linejoin:round;stroke-miterlimit:4;stroke-dasharray:none;stroke-opacity:1;display:inline"
       d="M 103.01406,1.4791679 C 90.671481,1.4791679 80.653653,11.49729 80.6536,23.839625 C 80.6536,36.182013 90.671508,46.200135 103.01406,46.200108 C 115.35666,46.200108 125.37449,36.18204 125.37454,23.839625 C 125.37454,11.497263 115.35666,1.4791946 103.01406,1.4791679 z M 103.01406,6.8735144 C 112.37892,6.8735412 119.98019,14.474949 119.98019,23.839625 C 119.98025,33.204354 112.37892,40.805762 103.01406,40.805762 C 93.649248,40.805789 86.047946,33.204327 86.047946,23.839625 C 86.04792,14.474976 93.649221,6.8735144 103.01406,6.8735144 z"
       id="path23509"
       inkscape:export-filename="/home/dafeba/DCV/tallerD/bocetos/08-09-22-hastaahora.png"
       inkscape:export-xdpi="57.964222"
       inkscape:export-ydpi="57.964222" />
    <path
       id="path23511"
       d="M 103.01684,1.5959714 C 90.729133,1.5959714 80.707478,11.518648 80.707478,23.806409 C 80.707478,27.727436 81.788018,31.464105 83.570154,34.664852 L 77.943619,40.291495 C 76.887838,41.346982 76.337973,42.764041 76.364149,44.1413 L 63.554948,56.677329 C 62.084332,58.148079 62.08377,60.537091 63.554948,62.007841 L 65.134418,63.587257 C 66.605008,65.058007 68.994126,65.057981 70.464742,63.587257 L 83.175367,51.051228 C 84.585012,51.104731 85.944526,50.552805 87.025333,49.471811 L 92.849288,43.647748 C 95.891024,45.208135 99.365393,46.115557 103.01684,46.115557 C 115.30484,46.115557 125.22768,36.094223 125.22768,23.806409 C 125.22768,11.518648 115.30514,1.5959714 103.01684,1.5959714 z"
       style="fill:none;fill-opacity:1;stroke:#000000;stroke-width:1.39209187;stroke-linecap:round;stroke-linejoin:round;stroke-miterlimit:4;stroke-dasharray:none;stroke-opacity:1;display:inline"
       sodipodi:nodetypes="csccccccccccssc"
       inkscape:export-filename="/home/dafeba/DCV/tallerD/bocetos/08-09-22-hastaahora.png"
       inkscape:export-xdpi="57.964222"
       inkscape:export-ydpi="57.964222" />
    <path
       sodipodi:type="arc"
       style="fill:url(#linearGradient23521);fill-opacity:1;stroke:none;stroke-width:0.627451;stroke-linecap:round;stroke-linejoin:round;stroke-miterlimit:4;stroke-dasharray:none;stroke-opacity:1;display:inline"
       id="path23513"
       sodipodi:cx="1199.8972"
       sodipodi:cy="314.76477"
       sodipodi:rx="6.4069266"
       sodipodi:ry="6.4069266"
       d="M 1206.3041,314.76477 A 6.4069266,6.4069266 0 1 1 1193.4903,314.76477 A 6.4069266,6.4069266 0 1 1 1206.3041,314.76477 z"
       transform="matrix(2.6479622,0,0,2.6479175,-3074.2867,-809.62596)"
       inkscape:export-filename="/home/dafeba/DCV/tallerD/bocetos/08-09-22-hastaahora.png"
       inkscape:export-xdpi="57.964222"
       inkscape:export-ydpi="57.964222" />
  </g>
</svg>
