<?xml version="1.0" encoding="UTF-8" standalone="no"?>
<!-- Created with Inkscape (http://www.inkscape.org/) -->

<svg
   xmlns:dc="http://purl.org/dc/elements/1.1/"
   xmlns:cc="http://creativecommons.org/ns#"
   xmlns:rdf="http://www.w3.org/1999/02/22-rdf-syntax-ns#"
   xmlns:svg="http://www.w3.org/2000/svg"
   xmlns="http://www.w3.org/2000/svg"
   xmlns:xlink="http://www.w3.org/1999/xlink"
   xmlns:sodipodi="http://sodipodi.sourceforge.net/DTD/sodipodi-0.dtd"
   xmlns:inkscape="http://www.inkscape.org/namespaces/inkscape"
   width="128"
   height="128"
   id="svg2"
   sodipodi:version="0.32"
   inkscape:version="0.91 r13725"
   version="1.0"
   sodipodi:docname="gtk-sort-ascending.svg"
   inkscape:output_extension="org.inkscape.output.svg.inkscape">
  <defs
     id="defs4">
    <linearGradient
       inkscape:collect="always"
       xlink:href="#linearGradient9863-1"
       id="linearGradient47257"
       gradientUnits="userSpaceOnUse"
       gradientTransform="matrix(2.6666667,0,0,2.6666667,-1134.0056,-2238.5029)"
       x1="445.625"
       y1="886.10938"
       x2="446.03125"
       y2="839.98438" />
    <linearGradient
       id="linearGradient9863-1">
      <stop
         style="stop-color:#2f445a;stop-opacity:1;"
         offset="0"
         id="stop9865-3" />
      <stop
         style="stop-color:#415f7c;stop-opacity:1"
         offset="1"
         id="stop9867-0" />
    </linearGradient>
    <linearGradient
       inkscape:collect="always"
       xlink:href="#linearGradient14753-2"
       id="linearGradient47260"
       gradientUnits="userSpaceOnUse"
       gradientTransform="matrix(2.6666667,0,0,2.6666667,-1294.0055,-2238.5029)"
       x1="497.11279"
       y1="847.23224"
       x2="570.96802"
       y2="963.29163" />
    <linearGradient
       id="linearGradient14753-2">
      <stop
         style="stop-color:#ffffff;stop-opacity:1;"
         offset="0"
         id="stop14755-9" />
      <stop
         style="stop-color:#000000;stop-opacity:1;"
         offset="1"
         id="stop14757-6" />
    </linearGradient>
    <linearGradient
       inkscape:collect="always"
       xlink:href="#linearGradient5458-1"
       id="linearGradient47264"
       gradientUnits="userSpaceOnUse"
       gradientTransform="matrix(2.6666667,0,0,2.6666667,-1294.0055,-2505.1696)"
       x1="565.86224"
       y1="1062.4384"
       x2="520.92639"
       y2="949.47815" />
    <linearGradient
       inkscape:collect="always"
       id="linearGradient5458-1">
      <stop
         style="stop-color:#000000;stop-opacity:1;"
         offset="0"
         id="stop5460-2" />
      <stop
         style="stop-color:#000000;stop-opacity:0;"
         offset="1"
         id="stop5462-6" />
    </linearGradient>
    <linearGradient
       inkscape:collect="always"
       xlink:href="#linearGradient5316-9"
       id="linearGradient47267"
       gradientUnits="userSpaceOnUse"
       gradientTransform="matrix(2.6666667,0,0,2.6666667,-1294.0055,-2505.1696)"
       x1="520.92639"
       y1="943.78064"
       x2="523.34564"
       y2="983.20184" />
    <linearGradient
       id="linearGradient5316-9">
      <stop
         style="stop-color:#aac736;stop-opacity:1;"
         offset="0"
         id="stop5320-3" />
      <stop
         style="stop-color:#5d8b2c;stop-opacity:1;"
         offset="1"
         id="stop5322-5" />
    </linearGradient>
    <linearGradient
       inkscape:collect="always"
       xlink:href="#linearGradient9590-4"
       id="linearGradient47270"
       gradientUnits="userSpaceOnUse"
       gradientTransform="matrix(2.6666667,0,0,2.6666667,-1294.0055,-2505.1696)"
       x1="515.13361"
       y1="966.92792"
       x2="515.13361"
       y2="938.64368" />
    <linearGradient
       id="linearGradient9590-4">
      <stop
         style="stop-color:#ffffff;stop-opacity:0.0000000;"
         offset="0.0000000"
         id="stop9591-3" />
      <stop
         style="stop-color:#fff;stop-opacity:1;"
         offset="1"
         id="stop9592-6" />
    </linearGradient>
    <linearGradient
       inkscape:collect="always"
       xlink:href="#linearGradient583-4"
       id="linearGradient47273"
       gradientUnits="userSpaceOnUse"
       gradientTransform="matrix(2.6666667,0,0,2.6666667,-1294.0055,-2505.1696)"
       x1="524.69397"
       y1="989.65344"
       x2="511.93942"
       y2="970.56152" />
    <linearGradient
       inkscape:collect="always"
       id="linearGradient583-4">
      <stop
         style="stop-color:#000000;stop-opacity:1;"
         offset="0"
         id="stop584-3" />
      <stop
         style="stop-color:#000000;stop-opacity:0;"
         offset="1"
         id="stop585-1" />
    </linearGradient>
    <linearGradient
       inkscape:collect="always"
       xlink:href="#linearGradient5316-9"
       id="linearGradient47276"
       gradientUnits="userSpaceOnUse"
       gradientTransform="matrix(2.6666667,0,0,2.6666667,-1294.0055,-2505.1696)"
       x1="507.90018"
       y1="945.33972"
       x2="518.01135"
       y2="981.9325" />
  </defs>
  <sodipodi:namedview
     id="base"
     pagecolor="#ffffff"
     bordercolor="#666666"
     borderopacity="1.0"
     inkscape:pageopacity="0.0"
     inkscape:pageshadow="2"
     inkscape:zoom="2.5020702"
     inkscape:cx="63.347652"
     inkscape:cy="52.412288"
     inkscape:document-units="px"
     inkscape:current-layer="layer1"
     showgrid="false"
     inkscape:showpageshadow="false"
     inkscape:window-width="1024"
     inkscape:window-height="714"
     inkscape:window-x="0"
     inkscape:window-y="24"
     showguides="true"
     inkscape:guide-bbox="true"
     inkscape:window-maximized="0" />
  <metadata
     id="metadata7">
    <rdf:RDF>
      <cc:Work
         rdf:about="">
        <dc:format>image/svg+xml</dc:format>
        <dc:type
           rdf:resource="http://purl.org/dc/dcmitype/StillImage" />
      </cc:Work>
    </rdf:RDF>
  </metadata>
  <g
     inkscape:label="Capa 1"
     inkscape:groupmode="layer"
     id="layer1">
    <path
       inkscape:connector-curvature="0"
       style="fill:url(#linearGradient47276);fill-rule:evenodd;stroke:none;display:inline"
       d="m 83.413709,110.10825 13.97138,2.67952 26.364321,-33.560959 -24.770241,-1.983866 -2.79586,-63.773281 -14.47662,-6.3094663 -12.13237,1.35288 0,73.1711473 -18.6074,1.432613 32.44679,26.991412 z"
       id="path5478"
       sodipodi:nodetypes="cccccccccc" />
    <path
       inkscape:connector-curvature="0"
       sodipodi:nodetypes="cccccc"
       id="path5480"
       d="m 83.413709,110.10825 13.97138,2.67952 1.59408,-35.544825 -22.73818,8.607946 -25.27407,-2.734053 32.44679,26.991412 z"
       style="fill:url(#linearGradient47273);fill-rule:evenodd;stroke:none;display:inline" />
    <path
       inkscape:connector-curvature="0"
       sodipodi:nodetypes="cccccc"
       id="path5483-3"
       d="m 92.883469,10.641238 -11.17678,-3.4810403 -12.13237,1.35288 0,73.1711473 19.81205,2.61112 3.4971,-73.654107 z"
       style="fill:url(#linearGradient47270);fill-rule:evenodd;stroke:none;display:inline" />
    <path
       inkscape:connector-curvature="0"
       sodipodi:nodetypes="cccccccc"
       id="path5485-6"
       d="m 97.655759,113.07862 26.083121,-33.865995 -13.46227,1.051733 0,-70.6844543 -28.607281,-2.391573 0,76.0209073 -15.14506,1.682773 31.13149,28.186609 z"
       style="fill:url(#linearGradient47267);fill-rule:evenodd;stroke:none;display:inline" />
    <path
       inkscape:connector-curvature="0"
       style="fill:url(#linearGradient47264);fill-opacity:1;fill-rule:evenodd;stroke:none;display:inline"
       d="m 97.655759,113.07862 26.083121,-33.865995 -13.46227,1.051733 0,-70.6844543 -28.607281,-2.391573 0,76.0209073 -15.14506,1.682773 31.13149,28.186609 z"
       id="path5487"
       sodipodi:nodetypes="cccccccc" />
    <path
       inkscape:connector-curvature="0"
       style="fill:#000000;fill-opacity:1;fill-rule:evenodd;stroke:none;display:inline"
       d="m 32.994489,5.6637707 c -1.78912,0.1432 -3.38624,1.176667 -4.25,2.75 L 8.9944888,44.913771 c -1.11355,1.680454 -1.16774,3.83352 -0.16667,5.583334 1.00101,1.749866 2.9036502,2.77488 4.9166702,2.666666 2.01304,-0.108266 3.77565,-1.319626 4.58333,-3.166666 l 5.16667,-9.5 18.58333,0.416666 4,8.166667 c 1.28867,2.669387 4.49728,3.788667 7.16667,2.5 2.66939,-1.288667 3.78867,-4.49728 2.5,-7.166667 l -17.5,-35.7500003 c -0.95941,-1.991147 -3.04747,-3.18432 -5.25,-3 z m 0.16667,17.0000003 3.66666,7.5 -7.66666,-0.166667 4,-7.333333 z m 16.58333,40.5 -38.66667,1.666667 c -2.9455202,0.138133 -5.2214102,2.637813 -5.0833302,5.583333 0.13813,2.94552 2.63781,5.221414 5.5833302,5.083334 L 36.994489,74.413771 7.4111488,105.58044 c -1.57312,1.62677 -1.92869,4.05928 -0.91666,6.08333 1.01205,2.02403 3.17138,3.19909 5.4166602,2.91667 l 40.33334,-4.75 c 1.95784,-0.14214 3.69768,-1.37512 4.5,-3.16667 0.80235,-1.79149 0.53096,-3.86133 -0.66667,-5.41667 -1.19762,-1.555329 -3.14624,-2.317862 -5.08333,-1.999995 l -25.75,2.999995 28.58333,-30.083329 c 1.49355,-1.574853 1.89678,-3.8568 1,-5.833333 -0.89677,-1.976507 -2.91461,-3.253387 -5.08333,-3.166667 z"
       id="path5489" />
    <path
       inkscape:connector-curvature="0"
       style="fill:url(#linearGradient47260);fill-opacity:1;fill-rule:evenodd;stroke:none;display:inline"
       d="m 32.994489,8.3304377 c -0.79504,0.168266 -1.46997,0.689786 -1.83333,1.416666 L 11.327819,46.163771 c -0.71336,1.288667 -0.28864,2.95328 1,3.666667 1.28867,0.713387 2.95331,0.205333 3.66667,-1.083333 l 6,-11 c 0.11226,0.0053 0.2184,0.09227 0.33333,0.0832 l 21.5,0.5 4.66667,9.583333 c 0.64432,1.334693 2.24864,1.89432 3.58333,1.25 1.3347,-0.64432 1.89432,-2.24864 1.25,-3.583333 l -17.5,-35.7498673 c -0.50498,-1.0752 -1.66021,-1.6868 -2.83333,-1.5 z m 0.33333,8.5000003 7.83334,16.083333 -16.33334,-0.333333 8.5,-15.75 z m 16.5,49 -38.66667,1.666667 c -1.4727402,0.06907 -2.6523402,1.36056 -2.5833302,2.833333 0.0691,1.472747 1.36059,2.56904 2.8333302,2.5 L 43.494489,71.413771 9.4111488,107.41377 c -0.78656,0.81339 -1.00602,2.07128 -0.5,3.08333 0.506,1.01208 1.6273602,1.55787 2.7500002,1.41667 l 40.25001,-4.75 c 1.04133,0.0296 2.03813,-0.56621 2.5,-1.5 0.46186,-0.93371 0.32224,-2.02371 -0.33334,-2.83333 -0.65554,-0.80968 -1.74058,-1.17422 -2.75,-0.91667 l -33,3.83333 33.58334,-35.416662 c 0.75349,-0.792773 0.95949,-1.92416 0.5,-2.916667 -0.4595,-0.992586 -1.49136,-1.64496 -2.58334,-1.583333 z"
       id="path5505" />
    <path
       inkscape:connector-curvature="0"
       style="fill:none;stroke:url(#linearGradient47257);stroke-width:2.66666675px;stroke-linecap:round;stroke-linejoin:round;stroke-opacity:1;display:inline"
       d="m 81.661149,7.1637707 -12.08334,1.333333 0,73.1666673 -18.58332,1.416667 32.41666,27.000002 13.83333,2.66666 0.41667,0.33334 26.083331,-33.833335 -13.5,-1.083334 0,-68.5833333 -28.500001,-2.416667 -0.0832,0 z"
       id="path5511" />
  </g>
</svg>
