<?xml version="1.0" encoding="UTF-8" standalone="no"?>
<svg
   xmlns:dc="http://purl.org/dc/elements/1.1/"
   xmlns:cc="http://creativecommons.org/ns#"
   xmlns:rdf="http://www.w3.org/1999/02/22-rdf-syntax-ns#"
   xmlns:svg="http://www.w3.org/2000/svg"
   xmlns="http://www.w3.org/2000/svg"
   xmlns:xlink="http://www.w3.org/1999/xlink"
   xmlns:sodipodi="http://sodipodi.sourceforge.net/DTD/sodipodi-0.dtd"
   xmlns:inkscape="http://www.inkscape.org/namespaces/inkscape"
   xml:space="preserve"
   width="256"
   height="256"
   style="fill-rule:evenodd"
   viewBox="0 0 72.24889 72.24889"
   id="svg2"
   version="1.1"
   inkscape:version="0.48.3.1 r9886"
   sodipodi:docname="avatar-default.svg"><metadata
   id="metadata20"><rdf:RDF><cc:Work
       rdf:about=""><dc:format>image/svg+xml</dc:format><dc:type
         rdf:resource="http://purl.org/dc/dcmitype/StillImage" /><dc:title /></cc:Work></rdf:RDF></metadata><sodipodi:namedview
   pagecolor="#ffffff"
   bordercolor="#666666"
   borderopacity="1"
   objecttolerance="10"
   gridtolerance="10"
   guidetolerance="10"
   inkscape:pageopacity="0"
   inkscape:pageshadow="2"
   inkscape:window-width="1366"
   inkscape:window-height="723"
   id="namedview18"
   showgrid="false"
   showguides="true"
   inkscape:guide-bbox="true"
   fit-margin-top="0"
   fit-margin-left="0"
   fit-margin-right="0"
   fit-margin-bottom="0"
   inkscape:zoom="1.2685914"
   inkscape:cx="279.66314"
   inkscape:cy="109.39756"
   inkscape:window-x="0"
   inkscape:window-y="0"
   inkscape:window-maximized="1"
   inkscape:current-layer="svg2"><sodipodi:guide
     orientation="0,1"
     position="202.03568,-1.5223364e-06"
     id="guide3001" /></sodipodi:namedview>
 <defs
   id="defs4"><linearGradient
     id="linearGradient3150"><stop
       style="stop-color:#b0b0b0;stop-opacity:1;"
       offset="0"
       id="stop3152" /><stop
       style="stop-color:#585858;stop-opacity:1;"
       offset="1"
       id="stop3154" /></linearGradient><style
     type="text/css"
     id="style6">
   
    .fil2 {fill:#6F448A}
    .fil3 {fill:#73A848}
    .fil1 {fill:#6F448A;fill-rule:nonzero}
    .fil0 {fill:#73A848;fill-rule:nonzero}
   
  </style><linearGradient
     id="linearGradient9863-1"><stop
       style="stop-color:#2f445a;stop-opacity:1;"
       offset="0"
       id="stop9865-3" /><stop
       style="stop-color:#415f7c;stop-opacity:1"
       offset="1"
       id="stop9867-0" /></linearGradient><linearGradient
     id="linearGradient5316-9"><stop
       style="stop-color:#87c7ff;stop-opacity:1;"
       offset="0"
       id="stop5320-3" /><stop
       style="stop-color:#74aadb;stop-opacity:1;"
       offset="1"
       id="stop5322-5" /></linearGradient><linearGradient
     id="linearGradient9590-4"><stop
       style="stop-color:#ffffff;stop-opacity:0.0000000;"
       offset="0.0000000"
       id="stop9591-3" /><stop
       style="stop-color:#fff;stop-opacity:1;"
       offset="1"
       id="stop9592-6" /></linearGradient><linearGradient
     inkscape:collect="always"
     id="linearGradient583-4"><stop
       style="stop-color:#000000;stop-opacity:1;"
       offset="0"
       id="stop584-3" /><stop
       style="stop-color:#000000;stop-opacity:0;"
       offset="1"
       id="stop585-1" /></linearGradient><linearGradient
     inkscape:collect="always"
     xlink:href="#linearGradient5316-9"
     id="linearGradient47276"
     gradientUnits="userSpaceOnUse"
     gradientTransform="translate(264.70173,-52.459401)"
     x1="507.90018"
     y1="945.33972"
     x2="518.01135"
     y2="981.9325" /><linearGradient
     id="linearGradient46657"><stop
       style="stop-color:#87c7ff;stop-opacity:1;"
       offset="0"
       id="stop46659" /><stop
       style="stop-color:#74aadb;stop-opacity:1;"
       offset="1"
       id="stop46661" /></linearGradient><linearGradient
     inkscape:collect="always"
     xlink:href="#linearGradient46657"
     id="linearGradient3132"
     x1="24.674227"
     y1="41.637333"
     x2="39.275204"
     y2="60.547195"
     gradientUnits="userSpaceOnUse" /><linearGradient
     inkscape:collect="always"
     xlink:href="#linearGradient583-4"
     id="linearGradient3134"
     x1="151.26585"
     y1="86.725616"
     x2="90.459274"
     y2="46.903671"
     gradientUnits="userSpaceOnUse"
     gradientTransform="translate(-62.088894,0)" /><linearGradient
     inkscape:collect="always"
     xlink:href="#linearGradient9590-4"
     id="linearGradient3136"
     x1="37.766987"
     y1="220.84352"
     x2="61.034096"
     y2="71.543442"
     gradientUnits="userSpaceOnUse" /><linearGradient
     inkscape:collect="always"
     xlink:href="#linearGradient9590-4"
     id="linearGradient3138"
     x1="24.232645"
     y1="23.652439"
     x2="24.59667"
     y2="1.6291339"
     gradientUnits="userSpaceOnUse" /><linearGradient
     inkscape:collect="always"
     xlink:href="#linearGradient9863-1"
     id="linearGradient3140"
     x1="38.904858"
     y1="72.248894"
     x2="38.904858"
     y2="-0.38931304"
     gradientUnits="userSpaceOnUse" /><linearGradient
     inkscape:collect="always"
     xlink:href="#linearGradient3150"
     id="linearGradient3156"
     x1="36.338451"
     y1="22.224525"
     x2="57.260593"
     y2="27.573042"
     gradientUnits="userSpaceOnUse" /></defs>
 
<path
   style="fill:none;stroke:url(#linearGradient3140);stroke-width:3.01037049000000012;stroke-linecap:round;stroke-linejoin:round;stroke-miterlimit:4;stroke-dasharray:none;display:inline"
   d="m 37.707446,1.6339469 c -9.170708,0 -16.620988,7.506128 -16.620988,16.7603681 0,6.073093 3.058162,12.112698 7.846221,15.321109 0.443051,0.756811 0.77248,1.574096 0.928547,2.41424 -2.003015,0.24768 -3.975096,0.609797 -5.803418,1.114261 C 12.565229,39.903978 2.1905292,52.597957 2.1905292,65.750479 l 16.8995528,4.82847 49.77011,-8.496251 c 0.137654,-9.9512 -10.297141,-22.17481 -20.753021,-24.281642 0.0068,-0.01653 0.03957,-0.0304 0.0464,-0.0464 -1.037054,-0.414454 -2.238228,-0.779504 -3.482031,-1.067856 2.574361,-0.7824 5.395057,-2.852197 7.33552,-4.828469 2.32901,-2.050614 2.715885,-8.956848 2.228514,-14.624699 C 53.643734,8.5219419 46.49074,1.6339469 37.707446,1.6339469 z"
   id="path45897"
   inkscape:connector-curvature="0" /><path
   style="fill:url(#linearGradient3132);stroke:none;display:inline"
   d="m 28.037015,36.724165 c -0.197865,0.0043 -0.392653,0.01631 -0.590903,0.02646 C 14.672244,37.404741 2.2048612,51.304962 2.2048612,65.748958 l 16.9068758,4.833052 0.05292,-0.0176 49.697571,-8.50194 C 69.016555,50.906411 55.892769,36.905222 44.335348,37.491457 c -2.269301,0.115107 -4.412691,0.597146 -6.420555,1.375833 -3.075788,-1.419778 -6.445016,-2.21821 -9.877778,-2.143125 z"
   id="path3126"
   inkscape:connector-curvature="0" /><path
   style="fill:url(#linearGradient3136);stroke:none;display:inline"
   d="M 99.34375 130.125 C 98.642654 130.14034 97.95246 130.18278 97.25 130.21875 C 51.988264 132.53649 7.8125 181.78923 7.8125 232.96875 L 67.71875 250.09375 L 67.90625 250.03125 L 67.6875 250.0625 C 67.6875 206.35421 92.722569 153.86022 134.34375 137.71875 C 123.44529 132.68804 111.50708 129.85895 99.34375 130.125 z "
   transform="scale(0.28222223,0.28222223)"
   id="path45874" /><path
   sodipodi:nodetypes="cscc"
   inkscape:connector-curvature="0"
   id="path3124"
   d="m 19.099239,70.573898 c 0,-14.444 9.691305,-32.296128 25.236481,-33.084629 11.55742,-0.586235 24.67702,13.418437 24.52269,24.574453 z"
   style="fill:url(#linearGradient3134);stroke:none;display:inline" /><path
   style="fill:url(#linearGradient3156);fill-opacity:1;stroke:none;display:inline"
   d="m 37.707446,1.6339469 c -9.170708,0 -16.620988,7.506128 -16.620988,16.7603681 0,6.073093 3.058162,12.112698 7.846221,15.321109 0.443051,0.756811 0.77248,1.574096 0.928547,2.41424 -2.578951,0.31888 -5.090908,0.811381 -7.33552,1.578538 8.30897,0.82624 18.352601,6.311606 21.960131,14.39256 1.223685,-5.163914 2.526956,-11.67809 3.66776,-14.346133 -1.037074,-0.4144 -2.238248,-0.779488 -3.48205,-1.067835 2.57436,-0.782405 5.395056,-2.852197 7.33552,-4.828474 2.329008,-2.050608 2.715883,-8.956842 2.228512,-14.624698 C 53.643734,8.5219419 46.49074,1.6339469 37.707446,1.6339469 z"
   id="path45868"
   inkscape:connector-curvature="0" /><path
   style="font-size:medium;font-style:normal;font-variant:normal;font-weight:normal;font-stretch:normal;text-indent:0;text-align:start;text-decoration:none;line-height:normal;letter-spacing:normal;word-spacing:normal;text-transform:none;direction:ltr;block-progression:tb;writing-mode:lr-tb;text-anchor:start;baseline-shift:baseline;color:#000000;fill:#333333;fill-opacity:1;stroke:none;stroke-width:1px;marker:none;visibility:visible;display:inline;overflow:visible;enable-background:accumulate;font-family:Sans;-inkscape-font-specification:Sans"
   d="m 44.061885,15.100896 1.760791,11.381221 -3.307911,1.37432 1.188392,0.383894 5.571282,-0.981974 z"
   id="path45889"
   inkscape:connector-curvature="0"
   sodipodi:nodetypes="cccccc" /><path
   inkscape:connector-curvature="0"
   id="path45922"
   d="m 37.707446,1.6339469 c -9.170708,0 -16.620988,7.506128 -16.620988,16.7603681 0,6.073093 3.058162,12.112698 7.846221,15.321109 -1.720489,-6.786912 -4.484173,-18.286725 4.03729,-20.095562 7.257032,-1.701334 11.430107,-1.59696 12.919991,-6.9114081 0.867309,-3.093712 -4.033191,-5.074507 -8.182514,-5.074507 z"
   style="fill:url(#linearGradient3138);fill-opacity:1;stroke:none;display:inline"
   sodipodi:nodetypes="ssccss" /></svg>