<?xml version="1.0" encoding="UTF-8" standalone="no"?>
<!-- Created with Inkscape (http://www.inkscape.org/) -->

<svg
   xmlns:dc="http://purl.org/dc/elements/1.1/"
   xmlns:cc="http://creativecommons.org/ns#"
   xmlns:rdf="http://www.w3.org/1999/02/22-rdf-syntax-ns#"
   xmlns:svg="http://www.w3.org/2000/svg"
   xmlns="http://www.w3.org/2000/svg"
   xmlns:xlink="http://www.w3.org/1999/xlink"
   xmlns:sodipodi="http://sodipodi.sourceforge.net/DTD/sodipodi-0.dtd"
   xmlns:inkscape="http://www.inkscape.org/namespaces/inkscape"
   width="128"
   height="128"
   id="svg17172"
   version="1.1"
   inkscape:version="0.48.3.1 r9886"
   sodipodi:docname="battery-full-symbolic.svg">
  <defs
     id="defs17174">
    <linearGradient
       id="linearGradient5316-0-7">
      <stop
         style="stop-color:#87c7ff;stop-opacity:1;"
         offset="0"
         id="stop5320-8-1" />
      <stop
         style="stop-color:#74aadb;stop-opacity:1;"
         offset="1"
         id="stop5322-1-3" />
    </linearGradient>
    <linearGradient
       inkscape:collect="always"
       xlink:href="#linearGradient5316-0-7"
       id="linearGradient5889"
       x1="7.6383586"
       y1="7.7938333"
       x2="126"
       y2="119.93669"
       gradientUnits="userSpaceOnUse" />
    <linearGradient
       inkscape:collect="always"
       xlink:href="#linearGradient5316-0-7"
       id="linearGradient3348"
       x1="7.1428604"
       y1="6.9285727"
       x2="116.42857"
       y2="119.78571"
       gradientUnits="userSpaceOnUse" />
  </defs>
  <sodipodi:namedview
     id="base"
     pagecolor="#ffffff"
     bordercolor="#666666"
     borderopacity="1.0"
     inkscape:pageopacity="0.0"
     inkscape:pageshadow="2"
     inkscape:zoom="2.8"
     inkscape:cx="101.43576"
     inkscape:cy="67.186095"
     inkscape:document-units="px"
     inkscape:current-layer="layer1"
     showgrid="false"
     inkscape:showpageshadow="false"
     inkscape:window-width="1366"
     inkscape:window-height="716"
     inkscape:window-x="0"
     inkscape:window-y="0"
     inkscape:window-maximized="1" />
  <metadata
     id="metadata17177">
    <rdf:RDF>
      <cc:Work
         rdf:about="">
        <dc:format>image/svg+xml</dc:format>
        <dc:type
           rdf:resource="http://purl.org/dc/dcmitype/StillImage" />
        <dc:title />
      </cc:Work>
    </rdf:RDF>
  </metadata>
  <g
     inkscape:label="Capa 1"
     inkscape:groupmode="layer"
     id="layer1"
     transform="translate(0,-924.36217)">
    <path
       style="fill:url(#linearGradient3348);fill-opacity:1;stroke:none;display:inline"
       d="M 61.375 1.875 C 60.78826 1.889 60.45197 1.951 59.625 2 C 53.15259 2.3804 46.82766 4.205 40.96875 7.25 C 40.94825 7.261 40.92675 7.27125 40.90625 7.28125 C 40.02487 7.54505 39.19635 7.81685 38.46875 8.09375 C 17.99648 15.88545 5.00992 38.6802 5.03125 63.8125 C 5.04935 84.78691 14.27971 103.55855 30.15625 112.15625 C 31.40365 112.83175 32.77384 113.44145 34.21875 114.03125 C 34.25275 114.04525 34.2785 114.07975 34.3125 114.09375 C 43.63458 119.88695 55.55066 121.97445 69.40625 119.71875 C 69.45865 119.70875 69.51076 119.6995 69.5625 119.6875 C 94.37867 113.8977 111.17381 92.36651 111 62.25 C 111.00007 62.24 111.00007 62.22875 111 62.21875 C 110.64924 40.05335 104.22239 25.1497 95.1875 15.75 C 86.16155 6.3596 74.68343 2.559 64.65625 2 C 64.64585 1.9994 64.6483 2.001 64.625 2 C 62.79894 1.8971 61.96174 1.8614 61.375 1.875 z M 62.125 6.9375 C 62.86489 6.9379 63.60419 6.957 64.34375 7 L 64.375 7 C 73.36671 7.4956 83.52561 10.85735 91.5625 19.21875 C 99.59527 27.57585 105.65818 41.0276 106 62.25 C 106.00018 62.261 105.99983 62.27025 106 62.28125 C 106.15121 90.48316 91.16834 109.44315 68.59375 114.78125 L 68.5 114.78125 C 68.4771 114.78125 68.4604 114.8075 68.4375 114.8125 C 51.20263 117.578 38.31006 113.27205 29.46875 103.59375 C 20.59959 93.88475 15.77083 78.39436 16 58.53125 C 16.54918 28.72395 37.75548 8.3218 59.90625 7 C 60.64461 6.956 61.38511 6.9375 62.125 6.9375 z M 60.96875 9.25 C 53.45117 9.441 46.66388 11.78605 41.96875 14.78125 L 55.8125 44.09375 C 58.32291 42.48505 61.31133 41.64335 64.65625 41.90625 C 67.46842 42.12725 69.95103 43.1139 72 44.75 L 87.40625 19.0625 C 78.9404 11.5782 69.48867 9.0335 60.96875 9.25 z M 39.65625 16.03125 C 26.73948 25.33465 20.83615 38.38175 18.40625 52.03125 L 47.90625 57.5 C 48.60061 52.4376 50.93697 47.9253 54.46875 45.0625 L 39.65625 16.03125 z M 89.375 20.84375 L 73.8125 46.53125 C 75.25991 48.21345 76.37733 50.3164 77.09375 52.75 L 95.40625 53 C 98.30929 52.984 101.37955 53.00045 101.90625 56.03125 C 102.1651 59.32995 98.86251 59.5917 95.6875 60.625 L 84.125 63.15625 L 102.0625 65.78125 C 104.77482 46.67465 99.00309 32.59365 89.375 20.84375 z M 63.6875 52.59375 C 60.246 52.59375 57.4375 55.78915 57.4375 59.71875 C 57.4375 63.64845 60.246 66.84375 63.6875 66.84375 C 65.50441 66.84375 67.14222 65.94775 68.28125 64.53125 L 98.40625 58.1875 C 99.66958 58.0622 100.42176 57.30115 100.46875 56.34375 C 100.51485 55.40215 99.83602 54.4423 98.1875 54.4375 L 68.28125 54.9375 C 67.1416 53.5099 65.5125 52.59375 63.6875 52.59375 z M 17.84375 54.59375 C 16.12268 70.43735 19.70696 84.62835 28.125 97.46875 L 51.40625 72.46875 C 49.00743 69.33965 47.66046 65.12385 47.65625 60.65625 C 47.65564 60.05855 47.7057 59.4628 47.75 58.875 L 17.84375 54.59375 z "
       transform="translate(0,924.36217)"
       id="path4295" />
  </g>
</svg>
