<?xml version="1.0" encoding="UTF-8" standalone="no"?>
<!-- Created with Inkscape (http://www.inkscape.org/) -->

<svg
   xmlns:dc="http://purl.org/dc/elements/1.1/"
   xmlns:cc="http://creativecommons.org/ns#"
   xmlns:rdf="http://www.w3.org/1999/02/22-rdf-syntax-ns#"
   xmlns:svg="http://www.w3.org/2000/svg"
   xmlns="http://www.w3.org/2000/svg"
   xmlns:xlink="http://www.w3.org/1999/xlink"
   xmlns:sodipodi="http://sodipodi.sourceforge.net/DTD/sodipodi-0.dtd"
   xmlns:inkscape="http://www.inkscape.org/namespaces/inkscape"
   width="136.53334"
   height="136.53334"
   id="svg17172"
   version="1.1"
   inkscape:version="0.92.1 r15371"
   sodipodi:docname="battery-good-charging-symbolic.svg">
  <defs
     id="defs17174">
    <linearGradient
       id="linearGradient5316-0-7-6">
      <stop
         style="stop-color:#87c7ff;stop-opacity:1;"
         offset="0"
         id="stop5320-8-1-0" />
      <stop
         style="stop-color:#74aadb;stop-opacity:1;"
         offset="1"
         id="stop5322-1-3-0" />
    </linearGradient>
    <linearGradient
       id="linearGradient18314">
      <stop
         style="stop-color:#87c7ff;stop-opacity:1;"
         offset="0"
         id="stop18316" />
      <stop
         style="stop-color:#74aadb;stop-opacity:1;"
         offset="1"
         id="stop18318" />
    </linearGradient>
    <linearGradient
       inkscape:collect="always"
       xlink:href="#linearGradient5316-0-7-6"
       id="linearGradient903"
       gradientUnits="userSpaceOnUse"
       gradientTransform="translate(-1.04079,1.2914705)"
       x1="78.9216"
       y1="995.1933"
       x2="131.66667"
       y2="1042.7531" />
    <linearGradient
       inkscape:collect="always"
       xlink:href="#linearGradient18314"
       id="linearGradient954"
       gradientUnits="userSpaceOnUse"
       gradientTransform="matrix(1.0666667,0,0,1.0666667,0,985.98631)"
       x1="4.5261474"
       y1="3.1567914"
       x2="121.60794"
       y2="122.35479" />
    <linearGradient
       inkscape:collect="always"
       xlink:href="#linearGradient18314"
       id="linearGradient1018"
       gradientUnits="userSpaceOnUse"
       gradientTransform="translate(0,3.4030734e-5)"
       x1="2.6289308"
       y1="1053.908"
       x2="120.98979"
       y2="1077.0596" />
    <linearGradient
       inkscape:collect="always"
       xlink:href="#linearGradient18314"
       id="linearGradient5617"
       x1="71.15234"
       y1="1018.9326"
       x2="135.6875"
       y2="1018.9326"
       gradientUnits="userSpaceOnUse" />
  </defs>
  <sodipodi:namedview
     id="base"
     pagecolor="#ffffff"
     bordercolor="#666666"
     borderopacity="1.0"
     inkscape:pageopacity="0.0"
     inkscape:pageshadow="2"
     inkscape:zoom="2.8"
     inkscape:cx="-2.6781119"
     inkscape:cy="70.168726"
     inkscape:document-units="px"
     inkscape:current-layer="layer1"
     showgrid="false"
     inkscape:showpageshadow="false"
     inkscape:window-width="1366"
     inkscape:window-height="714"
     inkscape:window-x="0"
     inkscape:window-y="26"
     inkscape:window-maximized="1" />
  <metadata
     id="metadata17177">
    <rdf:RDF>
      <cc:Work
         rdf:about="">
        <dc:format>image/svg+xml</dc:format>
        <dc:type
           rdf:resource="http://purl.org/dc/dcmitype/StillImage" />
        <dc:title />
      </cc:Work>
    </rdf:RDF>
  </metadata>
  <g
     inkscape:label="Capa 1"
     inkscape:groupmode="layer"
     id="layer1"
     transform="translate(0,-985.98631)">
    <path
       style="color:#000000;font-style:normal;font-variant:normal;font-weight:normal;font-stretch:normal;font-size:medium;line-height:normal;font-family:'Bitstream Vera Sans';-inkscape-font-specification:'Bitstream Vera Sans';text-indent:0;text-align:start;text-decoration:none;text-decoration-line:none;letter-spacing:normal;word-spacing:normal;text-transform:none;writing-mode:lr-tb;direction:ltr;baseline-shift:baseline;text-anchor:start;display:inline;overflow:visible;visibility:visible;fill:url(#linearGradient903);fill-opacity:1;stroke:none;stroke-width:0.53333336;marker:none;enable-background:accumulate"
       d="m 130.46422,1008.0541 c -0.21594,-1.9999 -2.096,-3.6787 -4.10749,-3.6673 h -14.44965 l -0.0726,-6.45444 c 0,-2.15061 -1.9568,-4.10727 -4.10744,-4.10748 -10.8445,0 -18.75512,2.24336 -24.05821,6.82132 -5.30285,4.5779 -7.3623,11.2612 -7.26138,18.1168 0.0939,6.4326 2.11977,12.9075 7.33482,17.6035 5.21513,4.696 13.09992,7.3459 24.05821,7.5548 2.19908,0.079 4.25538,-1.9071 4.25415,-4.1075 v -7.0414 h 14.3028 c 2.17016,0.031 4.16617,-1.9372 4.16617,-4.1074 0,-2.1703 -1.99601,-4.1382 -4.16617,-4.1075 h -14.3028 l -0.0726,-11.9557 h 14.37624 c 2.30536,0.014 4.35419,-2.2553 4.10751,-4.5475 z m -26.62544,27.0654 c -6.88042,-0.7278 -11.90659,-2.4192 -14.59621,-4.841 -3.26766,-2.9425 -4.54898,-6.778 -4.62102,-11.6623 -0.0776,-5.2841 1.19278,-8.9661 4.40086,-11.7356 2.6506,-2.2881 7.67677,-3.8424 14.59637,-4.4009 0.0239,10.8778 0.22065,21.7843 0.22065,32.6398 z"
       id="path899"
       inkscape:connector-curvature="0"
       sodipodi:nodetypes="cccccscsccccscccccccssscc"
       inkscape:export-filename="/home/dafeba/DCV/tallerD/bocetos/bateria.png"
       inkscape:export-xdpi="90.041016"
       inkscape:export-ydpi="90.041016" />
    <path
       style="color:#000000;font-style:normal;font-variant:normal;font-weight:normal;font-stretch:normal;font-size:medium;line-height:normal;font-family:sans-serif;font-variant-ligatures:normal;font-variant-position:normal;font-variant-caps:normal;font-variant-numeric:normal;font-variant-alternates:normal;font-feature-settings:normal;text-indent:0;text-align:start;text-decoration:none;text-decoration-line:none;text-decoration-style:solid;text-decoration-color:#000000;letter-spacing:normal;word-spacing:normal;text-transform:none;writing-mode:lr-tb;direction:ltr;text-orientation:mixed;dominant-baseline:auto;baseline-shift:baseline;text-anchor:start;white-space:normal;shape-padding:0;clip-rule:nonzero;display:inline;overflow:visible;visibility:visible;opacity:1;isolation:auto;mix-blend-mode:normal;color-interpolation:sRGB;color-interpolation-filters:linearRGB;solid-color:#000000;solid-opacity:1;vector-effect:none;fill:url(#linearGradient5617);fill-opacity:1;fill-rule:nonzero;stroke:none;stroke-width:3.5;stroke-linecap:butt;stroke-linejoin:miter;stroke-miterlimit:4;stroke-dasharray:none;stroke-dashoffset:0;stroke-opacity:1;color-rendering:auto;image-rendering:auto;shape-rendering:auto;text-rendering:auto;enable-background:accumulate"
       d="m 76.5957,986.66602 c -2.98503,0 -5.44336,2.45638 -5.44336,5.4414 v 53.64848 c 0,2.985 2.45833,5.4433 5.44336,5.4433 h 53.64844 c 2.98503,0 5.44336,-2.4583 5.44336,-5.4433 v -53.64848 c 0,-2.98502 -2.45833,-5.4414 -5.44336,-5.4414 z m 0,3.5 h 53.64844 c 1.10663,0 1.94336,0.83489 1.94336,1.9414 v 53.64848 c 0,1.1065 -0.83673,1.9433 -1.94336,1.9433 H 76.5957 c -1.10663,0 -1.94336,-0.8368 -1.94336,-1.9433 v -53.64848 c 0,-1.10651 0.83673,-1.9414 1.94336,-1.9414 z"
       id="rect901"
       inkscape:connector-curvature="0" />
    <path
       inkscape:connector-curvature="0"
       style="display:inline;fill:url(#linearGradient954);fill-opacity:1;stroke:none;stroke-width:1.06666672"
       d="m 65.771484,988.02342 c -0.714869,0.0115 -1.438405,0.0426 -2.171875,0.0957 -4.366249,0.25662 -8.669757,1.13008 -12.824218,2.5586 -3.589627,1.4687 -6.327487,2.73113 -9.742188,3.9414 -21.837088,8.31118 -36.44658,30.35238 -36.423828,57.16018 0.019307,22.3726 10.621665,44.669 27.556641,53.8398 1.33056,0.7206 2.792747,1.3709 4.333984,2 0.03627,0.015 0.06334,0.053 0.09961,0.068 9.943552,6.1794 22.654298,8.4061 37.433594,6 0.05589,-0.011 0.110831,-0.021 0.166016,-0.033 26.47058,-6.1757 44.38657,-29.1434 44.20117,-61.2676 7e-5,-0.011 7e-5,-0.023 0,-0.033 -0.0156,-0.9884 -0.0596,-1.9428 -0.0977,-2.9043 h -5.33398 c 0.0397,0.9696 0.0815,1.9357 0.0977,2.9375 1.9e-4,0.012 -1.8e-4,0.022 0,0.033 0.16129,30.082 -15.820834,50.3061 -39.900393,56 h -0.09961 c -0.02444,0 -0.04195,0.028 -0.06641,0.033 -18.383858,2.9498 -32.135672,-1.6433 -41.566403,-11.9668 -9.460437,-10.3563 -17.137026,-23.8498 -16.892578,-45.0371 0.42436,-23.0325 13.737758,-42.3914 30.02539,-51.84766 6.196045,-3.59729 12.822729,-5.75988 19.333985,-6.14843 2.89048,-0.17503 6.021739,0.0277 9.001953,0.46875 V 992.107 c 0,-1.41711 0.799124,-2.62658 1.964844,-3.24609 -2.994537,-0.55003 -5.966417,-0.88827 -9.095704,-0.83789 z"
       id="path940" />
    <path
       inkscape:connector-curvature="0"
       style="color:#000000;font-style:normal;font-variant:normal;font-weight:normal;font-stretch:normal;font-size:medium;line-height:normal;font-family:sans-serif;font-variant-ligatures:normal;font-variant-position:normal;font-variant-caps:normal;font-variant-numeric:normal;font-variant-alternates:normal;font-feature-settings:normal;text-indent:0;text-align:start;text-decoration:none;text-decoration-line:none;text-decoration-style:solid;text-decoration-color:#000000;letter-spacing:normal;word-spacing:normal;text-transform:none;writing-mode:lr-tb;direction:ltr;text-orientation:mixed;dominant-baseline:auto;baseline-shift:baseline;text-anchor:start;white-space:normal;shape-padding:0;clip-rule:nonzero;display:inline;overflow:visible;visibility:visible;opacity:1;isolation:auto;mix-blend-mode:normal;color-interpolation:sRGB;color-interpolation-filters:linearRGB;solid-color:#000000;solid-opacity:1;vector-effect:none;fill:url(#linearGradient1018);fill-opacity:1;fill-rule:nonzero;stroke:none;stroke-width:21;stroke-linecap:butt;stroke-linejoin:miter;stroke-miterlimit:4;stroke-dasharray:none;stroke-dashoffset:0;stroke-opacity:1;color-rendering:auto;image-rendering:auto;shape-rendering:auto;text-rendering:auto;enable-background:accumulate"
       d="m 66.51953,999.30271 c -16.689115,-0.12027 -34.13487,11.38959 -42.64062,28.97659 -4.52577,9.3576 -6.62459,22.7114 -4.11914,37.957 l 10.95312,-3.4336 c 0.102342,-0.034 0.208769,-0.054 0.31641,-0.059 1.419456,-0.072 1.7635,1.9472 0.40039,2.3496 l -11.2168,3.5156 c 4.5162,15.1191 12.2891,25.9 24.691406,31.5801 l 4.982422,-11.1075 c 0.190857,-0.4423 0.627674,-0.7276 1.109375,-0.7246 0.874439,0.01 1.449503,0.9145 1.080078,1.7071 l -4.966797,11.0722 c 4.927235,1.9066 10.23959,3.1612 15.460065,3.3695 9.917149,0.3688 19.563254,-3.0868 31.62978,-11.106 0.3153,-0.2107 0.551106,-0.5208 0.669922,-0.8809 0.08026,-0.055 0.16404,-0.1088 0.24414,-0.1641 l -0.160156,-0.2324 c 0.03255,-0.399 -0.07673,-0.7967 -0.308594,-1.123 l -12.59375,-17.7461 c -1.300321,-1.9171 -4.153497,0.1097 -2.771484,1.9687 l 1.199219,1.6895 c -6.946062,4.6431 -11.352416,6.7666 -17.490235,6.5468 -8.87744,-0.3176 -16.359523,-3.7501 -20.845703,-16.7636 l -0.0039,-0.01 -0.0039,-0.01 c -3.223328,-9.2958 -1.78611,-23.3581 1.15625,-28.8321 0.086,-0.16 0.173575,-0.3017 0.259765,-0.4589 l -7.417973,-4.4571 c 0.636656,-0.5644 0.500088,-1.5937 -0.26172,-1.9726 l -7.50195,-3.9219 c 8.066,-14.3151 22.693436,-23.5848 36.46094,-24.1962 l 0.234375,19.7129 c 0.02651,2.2678 3.426898,2.2268 3.400391,-0.041 l -0.257813,-21.5254 c -0.01112,-0.9261 -0.761394,-1.67288 -1.6875,-1.67971 z"
       id="path1016"
       sodipodi:nodetypes="cccccccccccccccccccccccccccccccccccc" />
  </g>
</svg>
