<?xml version="1.0" encoding="UTF-8" standalone="no"?>
<!-- Created with Inkscape (http://www.inkscape.org/) -->

<svg
   xmlns:dc="http://purl.org/dc/elements/1.1/"
   xmlns:cc="http://creativecommons.org/ns#"
   xmlns:rdf="http://www.w3.org/1999/02/22-rdf-syntax-ns#"
   xmlns:svg="http://www.w3.org/2000/svg"
   xmlns="http://www.w3.org/2000/svg"
   xmlns:xlink="http://www.w3.org/1999/xlink"
   xmlns:sodipodi="http://sodipodi.sourceforge.net/DTD/sodipodi-0.dtd"
   xmlns:inkscape="http://www.inkscape.org/namespaces/inkscape"
   width="128"
   height="128"
   id="svg17172"
   version="1.1"
   inkscape:version="0.48.3.1 r9886"
   sodipodi:docname="battery-good-symbolic.svg">
  <defs
     id="defs17174">
    <linearGradient
       id="linearGradient18314">
      <stop
         style="stop-color:#87c7ff;stop-opacity:1;"
         offset="0"
         id="stop18316" />
      <stop
         style="stop-color:#74aadb;stop-opacity:1;"
         offset="1"
         id="stop18318" />
    </linearGradient>
    <linearGradient
       inkscape:collect="always"
       xlink:href="#linearGradient18314"
       id="linearGradient3307"
       x1="4.0669298"
       y1="4.5795474"
       x2="122.42857"
       y2="124.57954"
       gradientUnits="userSpaceOnUse" />
    <linearGradient
       inkscape:collect="always"
       xlink:href="#linearGradient18314"
       id="linearGradient3418"
       x1="4.6740808"
       y1="3.7405624"
       x2="124.92992"
       y2="125.16914"
       gradientUnits="userSpaceOnUse" />
  </defs>
  <sodipodi:namedview
     id="base"
     pagecolor="#ffffff"
     bordercolor="#666666"
     borderopacity="1.0"
     inkscape:pageopacity="0.0"
     inkscape:pageshadow="2"
     inkscape:zoom="2.8"
     inkscape:cx="85.364332"
     inkscape:cy="62.543238"
     inkscape:document-units="px"
     inkscape:current-layer="layer1"
     showgrid="false"
     inkscape:showpageshadow="false"
     inkscape:window-width="1366"
     inkscape:window-height="716"
     inkscape:window-x="0"
     inkscape:window-y="0"
     inkscape:window-maximized="1" />
  <metadata
     id="metadata17177">
    <rdf:RDF>
      <cc:Work
         rdf:about="">
        <dc:format>image/svg+xml</dc:format>
        <dc:type
           rdf:resource="http://purl.org/dc/dcmitype/StillImage" />
        <dc:title />
      </cc:Work>
    </rdf:RDF>
  </metadata>
  <g
     inkscape:label="Capa 1"
     inkscape:groupmode="layer"
     id="layer1"
     transform="translate(0,-924.36217)">
    <path
       style="fill:url(#linearGradient3418);fill-opacity:1;stroke:none;display:inline"
       d="M 61.375 1.875 C 60.78826 1.889 60.45197 1.951 59.625 2 C 53.15259 2.3804 46.82766 4.205 40.96875 7.25 C 40.94825 7.261 40.92675 7.27125 40.90625 7.28125 C 40.02487 7.54505 39.19635 7.81685 38.46875 8.09375 C 17.99648 15.88545 5.00992 38.68022 5.03125 63.8125 C 5.04935 84.78693 14.27971 103.55855 30.15625 112.15625 C 31.40365 112.83175 32.77384 113.44145 34.21875 114.03125 C 34.25275 114.04525 34.2785 114.07975 34.3125 114.09375 C 43.63458 119.88695 55.55066 121.97445 69.40625 119.71875 C 69.45865 119.70875 69.51076 119.6995 69.5625 119.6875 C 94.37867 113.8977 111.17381 92.36653 111 62.25 C 111.00007 62.24 111.00007 62.22875 111 62.21875 C 110.64924 40.05337 104.22239 25.1497 95.1875 15.75 C 86.16155 6.3596 74.68343 2.559 64.65625 2 C 64.64585 1.9994 64.6483 2.001 64.625 2 C 62.79894 1.8971 61.96174 1.8614 61.375 1.875 z M 62.125 6.9375 C 62.86489 6.9379 63.60419 6.957 64.34375 7 L 64.375 7 C 73.36671 7.4956 83.52561 10.85735 91.5625 19.21875 C 99.59527 27.57585 105.65818 41.02762 106 62.25 C 106.00018 62.261 105.99983 62.27025 106 62.28125 C 106.15121 90.48318 91.16834 109.44315 68.59375 114.78125 L 68.5 114.78125 C 68.4771 114.78125 68.4604 114.8075 68.4375 114.8125 C 51.20263 117.578 38.31006 113.27205 29.46875 103.59375 C 20.59959 93.88475 15.77083 78.39438 16 58.53125 C 16.54918 28.72397 37.75548 8.3218 59.90625 7 C 60.64461 6.956 61.38511 6.9375 62.125 6.9375 z M 60.96875 9.25 C 53.45117 9.441 46.66388 11.78605 41.96875 14.78125 L 46.90625 25.1875 C 47.13892 24.96371 47.41019 24.74249 47.75 24.5625 C 50.80615 23.2943 52.09627 26.39515 54.0625 29.09375 L 61.625 42 C 62.60234 41.87479 63.60466 41.82355 64.65625 41.90625 C 67.46842 42.12725 69.95103 43.1139 72 44.75 L 87.40625 19.0625 C 78.9404 11.5782 69.48867 9.0335 60.96875 9.25 z M 39.65625 16.03125 C 26.73948 25.33465 20.83615 38.38179 18.40625 52.03125 L 47.90625 57.5 C 48.41147 53.8166 49.80324 50.42751 51.875 47.75 L 46.90625 31.71875 C 46.56323 30.68555 46.21843 29.62269 46.0625 28.625 C 46.0595 28.6037 46.0655 28.5837 46.0625 28.5625 L 39.65625 16.03125 z M 48.875 25.8125 C 48.75933 25.8215 48.64685 25.8435 48.53125 25.875 C 47.62167 26.1229 46.90001 27.0561 47.40625 28.625 L 57.59375 58.21875 C 57.50345 58.70085 57.4375 59.20595 57.4375 59.71875 C 57.4375 63.64845 60.246 66.84375 63.6875 66.84375 C 67.129 66.84375 69.90625 63.64845 69.90625 59.71875 C 69.90625 56.62275 68.16783 54.00955 65.75 53.03125 L 50.90625 27.25 C 50.45947 26.23308 49.68466 25.75133 48.875 25.8125 z M 17.84375 54.59375 C 16.12268 70.43735 19.70696 84.62835 28.125 97.46875 L 51.40625 72.46875 C 49.00743 69.33965 47.66046 65.12385 47.65625 60.65625 C 47.65564 60.05855 47.7057 59.4628 47.75 58.875 L 17.84375 54.59375 z "
       transform="translate(0,924.36217)"
       id="path4251" />
  </g>
</svg>
