<?xml version="1.0" encoding="UTF-8" standalone="no"?>
<!-- Created with Inkscape (http://www.inkscape.org/) -->

<svg
   xmlns:dc="http://purl.org/dc/elements/1.1/"
   xmlns:cc="http://creativecommons.org/ns#"
   xmlns:rdf="http://www.w3.org/1999/02/22-rdf-syntax-ns#"
   xmlns:svg="http://www.w3.org/2000/svg"
   xmlns="http://www.w3.org/2000/svg"
   xmlns:xlink="http://www.w3.org/1999/xlink"
   xmlns:sodipodi="http://sodipodi.sourceforge.net/DTD/sodipodi-0.dtd"
   xmlns:inkscape="http://www.inkscape.org/namespaces/inkscape"
   width="128"
   height="128"
   id="svg61455"
   version="1.1"
   inkscape:version="0.48.3.1 r9886"
   sodipodi:docname="mail_new.svg">
  <defs
     id="defs61457">
    <linearGradient
       id="linearGradient5316-1">
      <stop
         style="stop-color:#87c7ff;stop-opacity:1;"
         offset="0"
         id="stop5320-0" />
      <stop
         style="stop-color:#74aadb;stop-opacity:1;"
         offset="1"
         id="stop5322-13" />
    </linearGradient>
    <linearGradient
       id="linearGradient5362-3">
      <stop
         style="stop-color:#ffffff;stop-opacity:1;"
         offset="0"
         id="stop5364-3" />
      <stop
         style="stop-color:#ffffff;stop-opacity:0;"
         offset="1"
         id="stop5366-0" />
    </linearGradient>
    <linearGradient
       id="linearGradient74798">
      <stop
         style="stop-color:#000000;stop-opacity:1;"
         offset="0"
         id="stop74800" />
      <stop
         style="stop-color:#000000;stop-opacity:0;"
         offset="1"
         id="stop74802" />
    </linearGradient>
    <linearGradient
       id="linearGradient53443">
      <stop
         style="stop-color:#ffffff;stop-opacity:1;"
         offset="0"
         id="stop53445" />
      <stop
         style="stop-color:#000000;stop-opacity:1;"
         offset="1"
         id="stop53447" />
    </linearGradient>
    <linearGradient
       id="linearGradient5439-6">
      <stop
         style="stop-color:#ffffff;stop-opacity:1;"
         offset="0"
         id="stop5441-6" />
      <stop
         style="stop-color:#000000;stop-opacity:1;"
         offset="1"
         id="stop5443-00" />
    </linearGradient>
    <linearGradient
       id="linearGradient68494">
      <stop
         style="stop-color:#2f445a;stop-opacity:1;"
         offset="0"
         id="stop68496" />
      <stop
         style="stop-color:#415f7c;stop-opacity:1"
         offset="1"
         id="stop68498" />
    </linearGradient>
    <linearGradient
       inkscape:collect="always"
       xlink:href="#linearGradient12578-6"
       id="linearGradient46550"
       gradientUnits="userSpaceOnUse"
       x1="126.81757"
       y1="921.52106"
       x2="163.21715"
       y2="942.08569" />
    <linearGradient
       id="linearGradient12578-6">
      <stop
         style="stop-color:#e9b551;stop-opacity:1;"
         offset="0"
         id="stop12580-9" />
      <stop
         style="stop-color:#b48739;stop-opacity:1;"
         offset="1"
         id="stop12582-2" />
    </linearGradient>
    <linearGradient
       y2="966.40143"
       x2="105.384"
       y1="874.75006"
       x1="204.57381"
       gradientUnits="userSpaceOnUse"
       id="linearGradient60789"
       xlink:href="#linearGradient5344-8"
       inkscape:collect="always" />
    <linearGradient
       id="linearGradient5344-8">
      <stop
         style="stop-color:#000000;stop-opacity:1;"
         offset="0"
         id="stop5346-7" />
      <stop
         style="stop-color:#000000;stop-opacity:0;"
         offset="1"
         id="stop5348-4" />
    </linearGradient>
    <linearGradient
       inkscape:collect="always"
       xlink:href="#linearGradient68494"
       id="linearGradient62182"
       gradientUnits="userSpaceOnUse"
       gradientTransform="matrix(2.6666667,0,0,2.6666667,-1294.4773,-1420.9157)"
       x1="486.21869"
       y1="903.63593"
       x2="532.1875"
       y2="903.63593" />
    <linearGradient
       inkscape:collect="always"
       xlink:href="#linearGradient5439-6"
       id="linearGradient62185"
       gradientUnits="userSpaceOnUse"
       gradientTransform="matrix(2.739444,0,0,2.9987998,-1329.9567,-1890.5313)"
       x1="513.67834"
       y1="953.53577"
       x2="516.82965"
       y2="1004.3837" />
    <linearGradient
       inkscape:collect="always"
       xlink:href="#linearGradient53443"
       id="linearGradient62188"
       gradientUnits="userSpaceOnUse"
       gradientTransform="matrix(2.5914128,0,0,2.5914128,-1252.2112,-1506.6737)"
       x1="510.94437"
       y1="976.55774"
       x2="509.08151"
       y2="922.39801" />
    <linearGradient
       inkscape:collect="always"
       xlink:href="#linearGradient74798"
       id="linearGradient62191"
       gradientUnits="userSpaceOnUse"
       gradientTransform="matrix(2.6666667,0,0,2.6666667,-1294.0059,-1580.9157)"
       x1="520.96094"
       y1="1031.5024"
       x2="510.17758"
       y2="955.8421" />
    <linearGradient
       inkscape:collect="always"
       xlink:href="#linearGradient5316-1"
       id="linearGradient62194"
       gradientUnits="userSpaceOnUse"
       gradientTransform="matrix(2.6666667,0,0,2.6666667,-1294.0059,-1580.9157)"
       x1="508.83759"
       y1="948.79541"
       x2="520.16022"
       y2="994.22705" />
    <linearGradient
       inkscape:collect="always"
       xlink:href="#linearGradient74798"
       id="linearGradient62197"
       gradientUnits="userSpaceOnUse"
       gradientTransform="matrix(2.6666667,0,0,2.6666667,-1294.0059,-1580.9157)"
       x1="483.57159"
       y1="988.9873"
       x2="483.57159"
       y2="970.3028" />
    <linearGradient
       inkscape:collect="always"
       xlink:href="#linearGradient5362-3"
       id="linearGradient62200"
       gradientUnits="userSpaceOnUse"
       gradientTransform="matrix(2.6666667,0,0,2.6666667,-1294.0059,-1580.9157)"
       x1="492.76398"
       y1="934.24158"
       x2="490.59512"
       y2="957.75287" />
    <linearGradient
       inkscape:collect="always"
       xlink:href="#linearGradient5316-1"
       id="linearGradient62203"
       gradientUnits="userSpaceOnUse"
       gradientTransform="matrix(2.6666667,0,0,2.6666667,-1294.0059,-1580.9157)"
       x1="483.92514"
       y1="952.62634"
       x2="483.52405"
       y2="976.66797" />
  </defs>
  <sodipodi:namedview
     id="base"
     pagecolor="#ffffff"
     bordercolor="#666666"
     borderopacity="1.0"
     inkscape:pageopacity="0.0"
     inkscape:pageshadow="2"
     inkscape:zoom="0.7"
     inkscape:cx="-27.462846"
     inkscape:cy="133.64821"
     inkscape:document-units="px"
     inkscape:current-layer="layer1"
     showgrid="false"
     inkscape:window-width="1366"
     inkscape:window-height="717"
     inkscape:window-x="0"
     inkscape:window-y="0"
     inkscape:window-maximized="1" />
  <metadata
     id="metadata61460">
    <rdf:RDF>
      <cc:Work
         rdf:about="">
        <dc:format>image/svg+xml</dc:format>
        <dc:type
           rdf:resource="http://purl.org/dc/dcmitype/StillImage" />
        <dc:title />
      </cc:Work>
    </rdf:RDF>
  </metadata>
  <g
     inkscape:label="Capa 1"
     inkscape:groupmode="layer"
     id="layer1"
     transform="translate(0,-924.36218)">
    <path
       style="fill:url(#linearGradient62203);stroke:none;display:inline"
       d="m 20.689886,1046.5505 92.285384,-14.938 c 6.11334,-0.8936 9.99654,-4.3152 10.16694,-11.9442 l -0.48667,-71.23045 c -0.04,-6.0168 -2.37547,-10.78587 -8.89093,-11.46533 l -91.455551,-6.26168 c -1.991253,-0.0853 -5.963147,0.41192 -8.971627,0.90056 -4.1651997,0.27096 -7.0941597,3.89896 -8.6718931,6.95765 -1.3639467,2.70227 -2.0895467,5.74648 -2.0758667,8.63936 l 0.7389334,83.85029 c 0,6.3485 2.07192,11.6065 7.2739204,13.4956 1.814533,0.6589 7.862853,2.3358 10.08736,1.9962 z"
       id="path60795"
       sodipodi:nodetypes="ccccccccccsc"
       inkscape:connector-curvature="0" />
    <path
       inkscape:connector-curvature="0"
       sodipodi:nodetypes="ccccccccc"
       id="path60797"
       d="m 122.79879,969.40601 -0.1432,-20.96816 c -0.04,-6.0168 -2.37546,-10.78587 -8.89093,-11.46533 l -91.455548,-6.26168 c -1.991253,-0.0853 -5.963146,0.41192 -8.971626,0.90056 -4.1652004,0.27096 -7.0941604,3.89896 -8.6718938,6.95765 -1.3639467,2.70227 -2.0895467,5.74648 -2.0758667,8.63936 l 0.2122667,24.07582 z"
       style="fill:url(#linearGradient62200);stroke:none;display:inline" />
    <path
       id="path60799"
       d="m 3.0774855,1002.4177 0.2500001,28.6666 c 0,6.3485 2.048,11.611 7.2500004,13.5 1.814533,0.659 7.858826,2.3397 10.083333,2 l 92.333331,-15 c 6.11334,-0.8936 9.99627,-4.2876 10.16667,-11.9166 l -0.0835,-17.25 -119.9999978,0 z"
       style="fill:url(#linearGradient62197);stroke:none;display:inline"
       inkscape:connector-curvature="0" />
    <path
       inkscape:connector-curvature="0"
       sodipodi:nodetypes="ccccccccc"
       id="path60801"
       d="m 22.648899,1046.6779 92.593311,-14.5331 c 5.95362,-0.8703 9.73536,-4.2025 9.9013,-11.6322 l -0.47392,-71.94432 c -0.0389,-5.85963 -2.31344,-10.50411 -8.65869,-11.16584 l -93.542508,-6.61456 c -9.131573,-0.39214 -14.7655197,7.92994 -14.7281064,15.83706 l 0.7196267,86.14266 c 0,8.3392 5.8118137,15.1893 14.1889867,13.9103 z"
       style="fill:url(#linearGradient62194);stroke:none;display:inline" />
    <path
       style="fill:url(#linearGradient62191);fill-opacity:1;stroke:none;display:inline"
       d="m 22.648899,1046.6779 92.593311,-14.5331 c 5.95362,-0.8703 9.73536,-4.2025 9.9013,-11.6322 l -0.47392,-71.94432 c -0.0389,-5.85963 -2.31344,-10.50411 -8.65869,-11.16584 l -93.542508,-6.61456 c -9.131573,-0.39214 -14.7655197,7.92994 -14.7281064,15.83706 l 0.7196267,86.14266 c 0,8.3392 5.8118137,15.1893 14.1889867,13.9103 z"
       id="path60803"
       sodipodi:nodetypes="ccccccccc"
       inkscape:connector-curvature="0" />
    <path
       sodipodi:nodetypes="cccccccccc"
       inkscape:connector-curvature="0"
       id="path60805"
       d="m 102.65935,976.44716 -6.559517,6.07363 24.456617,47.82661 c 1.77133,-1.2485 3.41725,-3.1132 3.95477,-5.5713 z m -61.708024,4.13008 -30.554934,59.94086 c 1.313627,2.2818 3.227094,4.6671 6.58168,5.6079 l 32.314374,-59.31319 z"
       style="fill:url(#linearGradient62188);fill-rule:evenodd;stroke:none;display:inline" />
    <path
       sodipodi:nodetypes="ccccccccsc"
       inkscape:connector-curvature="0"
       id="path60807"
       d="m 7.8043656,954.71263 56.2268004,43.19466 c 4.57624,3.73051 13.25584,2.33111 16.196347,-0.97178 l 44.377917,-40.49083 0,-9.09712 -44.839277,40.16584 c -2.781627,2.85419 -8.30992,3.53352 -12.638853,0.30984 L 7.8483656,944.64756 c -0.14,1.37904 -0.1250667,3.03474 -0.1298667,4.65264 -0.00533,2.12362 0.06,3.30045 0.085867,5.41243 z"
       style="fill:url(#linearGradient62185);fill-rule:evenodd;stroke:none;display:inline" />
    <path
       inkscape:connector-curvature="0"
       id="path60809"
       d="m 20.022739,930.751 c -2.098187,0.12666 -4.910293,0.46685 -7.166667,0.83333 -4.1651997,0.27096 -7.0889331,3.94131 -8.6666664,7 -1.3639467,2.70227 -2.0970134,5.69045 -2.0833334,8.58333 l 0.75,83.91664 c 0,6.3486 2.048,11.611 7.2499998,13.5 1.10168,0.4 3.746987,1.112 6.166667,1.5832 0.0576,0.027 0.108533,0.064 0.166667,0.083 1.722906,0.5928 3.655706,0.7365 5.75,0.4168 l 92.583334,-14.5 c 5.95363,-0.8702 9.75072,-4.2369 9.91667,-11.6667 l -0.5,-71.91597 c -0.0389,-5.85963 -2.32142,-10.50493 -8.66667,-11.16667 -0.68749,-0.2072 -1.43557,-0.33173 -2.25,-0.41666 l -87.333334,-6 -4.083334,-0.24987 c -0.497813,-0.0213 -1.133946,-0.0421 -1.833333,0 z"
       style="fill:none;stroke:url(#linearGradient62182);stroke-width:2.59666657;stroke-miterlimit:4;stroke-dasharray:none;display:inline" />
    <path
       sodipodi:type="star"
       style="fill:url(#linearGradient60789);fill-opacity:1;stroke:none;display:inline"
       id="path12850"
       sodipodi:sides="7"
       sodipodi:cx="142.99593"
       sodipodi:cy="932.80035"
       sodipodi:r1="25.473122"
       sodipodi:r2="18.17729"
       sodipodi:arg1="0.69233443"
       sodipodi:arg2="1.1411334"
       inkscape:flatsided="false"
       inkscape:rounded="0.010368286"
       inkscape:randomized="0"
       d="m 162.60406,949.06076 c -0.0797,0.0961 -11.92264,0.21268 -12.03612,0.26468 -0.11348,0.052 -7.93464,8.94576 -8.05944,8.94337 -0.1248,-0.002 -7.59993,-9.18889 -7.71134,-9.2452 -0.1114,-0.0563 -11.94124,-0.62595 -12.01718,-0.72502 -0.0759,-0.0991 2.44569,-11.67104 2.42025,-11.79325 -0.0255,-0.1222 -6.95585,-9.72631 -6.92575,-9.84745 0.0301,-0.12115 10.64965,-5.36467 10.72933,-5.46075 0.0797,-0.0961 3.26744,-11.50256 3.38092,-11.55456 0.11348,-0.052 10.83421,4.98142 10.95902,4.98381 0.1248,0.002 11.03027,-4.61714 11.14168,-4.56084 0.11141,0.0563 2.86039,11.5764 2.93633,11.67546 0.076,0.0991 10.4871,5.74508 10.51254,5.86728 0.0254,0.12221 -7.26737,9.45411 -7.29747,9.57525 -0.0301,0.12114 2.04691,11.78114 1.96723,11.87722 z"
       transform="matrix(1.4093069,0,0,1.4093069,-119.84627,-348.31094)" />
    <path
       transform="matrix(1.4093069,0,0,1.4093069,-111.59669,-355.38201)"
       d="m 162.60406,949.06076 c -0.0797,0.0961 -11.92264,0.21268 -12.03612,0.26468 -0.11348,0.052 -7.93464,8.94576 -8.05944,8.94337 -0.1248,-0.002 -7.59993,-9.18889 -7.71134,-9.2452 -0.1114,-0.0563 -11.94124,-0.62595 -12.01718,-0.72502 -0.0759,-0.0991 2.44569,-11.67104 2.42025,-11.79325 -0.0255,-0.1222 -6.95585,-9.72631 -6.92575,-9.84745 0.0301,-0.12115 10.64965,-5.36467 10.72933,-5.46075 0.0797,-0.0961 3.26744,-11.50256 3.38092,-11.55456 0.11348,-0.052 10.83421,4.98142 10.95902,4.98381 0.1248,0.002 11.03027,-4.61714 11.14168,-4.56084 0.11141,0.0563 2.86039,11.5764 2.93633,11.67546 0.076,0.0991 10.4871,5.74508 10.51254,5.86728 0.0254,0.12221 -7.26737,9.45411 -7.29747,9.57525 -0.0301,0.12114 2.04691,11.78114 1.96723,11.87722 z"
       inkscape:randomized="0"
       inkscape:rounded="0.010368286"
       inkscape:flatsided="false"
       sodipodi:arg2="1.1411334"
       sodipodi:arg1="0.69233443"
       sodipodi:r2="18.17729"
       sodipodi:r1="25.473122"
       sodipodi:cy="932.80035"
       sodipodi:cx="142.99593"
       sodipodi:sides="7"
       id="path12852"
       style="fill:url(#linearGradient46550);fill-opacity:1;stroke:#000000;stroke-width:1.89218307;stroke-linecap:round;stroke-linejoin:round;stroke-miterlimit:4;stroke-opacity:1;stroke-dasharray:none;stroke-dashoffset:0;display:inline"
       sodipodi:type="star" />
  </g>
</svg>
