<?xml version="1.0" encoding="UTF-8" standalone="no"?>
<!-- Created with Inkscape (http://www.inkscape.org/) -->

<svg
   xmlns:dc="http://purl.org/dc/elements/1.1/"
   xmlns:cc="http://creativecommons.org/ns#"
   xmlns:rdf="http://www.w3.org/1999/02/22-rdf-syntax-ns#"
   xmlns:svg="http://www.w3.org/2000/svg"
   xmlns="http://www.w3.org/2000/svg"
   xmlns:xlink="http://www.w3.org/1999/xlink"
   xmlns:sodipodi="http://sodipodi.sourceforge.net/DTD/sodipodi-0.dtd"
   xmlns:inkscape="http://www.inkscape.org/namespaces/inkscape"
   width="128"
   height="128"
   id="svg3487"
   version="1.1"
   inkscape:version="0.48.3.1 r9886"
   sodipodi:docname="network-vpn-acquiring-symbolic.svg">
  <defs
     id="defs3489">
    <linearGradient
       inkscape:collect="always"
       xlink:href="#linearGradient12578-2-9"
       id="linearGradient3502-8"
       gradientUnits="userSpaceOnUse"
       x1="126.81757"
       y1="921.52106"
       x2="163.21715"
       y2="942.08569" />
    <linearGradient
       id="linearGradient12578-2-9">
      <stop
         style="stop-color:#e9b551;stop-opacity:1;"
         offset="0"
         id="stop12580-04-6" />
      <stop
         style="stop-color:#b48739;stop-opacity:1;"
         offset="1"
         id="stop12582-9-5" />
    </linearGradient>
    <linearGradient
       inkscape:collect="always"
       xlink:href="#linearGradient5344-50-7"
       id="linearGradient3500-1"
       gradientUnits="userSpaceOnUse"
       x1="204.57381"
       y1="874.75006"
       x2="105.384"
       y2="966.40143" />
    <linearGradient
       id="linearGradient5344-50-7">
      <stop
         style="stop-color:#000000;stop-opacity:1;"
         offset="0"
         id="stop5346-2-5" />
      <stop
         style="stop-color:#000000;stop-opacity:0;"
         offset="1"
         id="stop5348-5-7" />
    </linearGradient>
    <filter
       color-interpolation-filters="sRGB"
       inkscape:collect="always"
       id="filter12965-6-5">
      <feGaussianBlur
         inkscape:collect="always"
         stdDeviation="0.73714962"
         id="feGaussianBlur12967-7-4" />
    </filter>
    <linearGradient
       inkscape:collect="always"
       xlink:href="#linearGradient12594-5-8"
       id="linearGradient3496-5"
       gradientUnits="userSpaceOnUse"
       gradientTransform="matrix(1.0867923,0.10225032,0,1.0867923,-523.83903,-81.499932)"
       x1="507.16531"
       y1="964.5368"
       x2="487.82626"
       y2="962.98047" />
    <linearGradient
       id="linearGradient12594-5-8">
      <stop
         id="stop12596-9-4"
         offset="0"
         style="stop-color:#e9b551;stop-opacity:1;" />
      <stop
         id="stop12598-2-0"
         offset="1"
         style="stop-color:#e9b551;stop-opacity:0;" />
    </linearGradient>
    <linearGradient
       inkscape:collect="always"
       xlink:href="#linearGradient12594-5-8"
       id="linearGradient3488-1"
       gradientUnits="userSpaceOnUse"
       gradientTransform="matrix(1.0867923,0.09842648,0,1.0867923,-514.38149,-80.673642)"
       x1="507.16531"
       y1="964.5368"
       x2="487.82626"
       y2="962.98047" />
    <linearGradient
       inkscape:collect="always"
       xlink:href="#linearGradient12594-5-8"
       id="linearGradient3486-9"
       gradientUnits="userSpaceOnUse"
       gradientTransform="matrix(1.0867923,0.09842648,0,1.0867923,-514.38149,-83.381982)"
       x1="507.16531"
       y1="964.5368"
       x2="487.82626"
       y2="962.98047" />
    <linearGradient
       inkscape:collect="always"
       xlink:href="#linearGradient9312-62-5"
       id="linearGradient3464-8"
       gradientUnits="userSpaceOnUse"
       gradientTransform="matrix(2.6666667,0,0,2.6666667,-1080.6722,-1740.8075)"
       x1="427.9429"
       y1="1046.9056"
       x2="427.01163"
       y2="1000.9056" />
    <linearGradient
       id="linearGradient9312-62-5">
      <stop
         id="stop9314-3-0"
         offset="0"
         style="stop-color:#2f445a;stop-opacity:1" />
      <stop
         id="stop9316-7-5"
         offset="1"
         style="stop-color:#415f7c;stop-opacity:1" />
    </linearGradient>
    <linearGradient
       inkscape:collect="always"
       xlink:href="#linearGradient12594-5-8"
       id="linearGradient3462-9"
       gradientUnits="userSpaceOnUse"
       gradientTransform="matrix(2.6666667,0,0,2.6666667,-1294.0055,-1580.8074)"
       x1="520.61182"
       y1="966.24689"
       x2="487.82626"
       y2="962.98047" />
    <linearGradient
       inkscape:collect="always"
       xlink:href="#linearGradient12671-3-6"
       id="linearGradient3460-3"
       gradientUnits="userSpaceOnUse"
       gradientTransform="matrix(2.6666667,0,0,2.6666667,-1294.0055,-1580.8074)"
       x1="482.375"
       y1="952.11218"
       x2="524.3125"
       y2="980.61218" />
    <linearGradient
       inkscape:collect="always"
       id="linearGradient12671-3-6">
      <stop
         style="stop-color:#000000;stop-opacity:1;"
         offset="0"
         id="stop12673-4-6" />
      <stop
         style="stop-color:#000000;stop-opacity:0;"
         offset="1"
         id="stop12675-8-0" />
    </linearGradient>
    <linearGradient
       inkscape:collect="always"
       xlink:href="#linearGradient14753-2-1"
       id="linearGradient3458-9"
       gradientUnits="userSpaceOnUse"
       gradientTransform="matrix(2.6666667,0,0,2.6666667,-1294.0055,-1580.8074)"
       x1="566.72217"
       y1="1008.5345"
       x2="487.38141"
       y2="969.03448" />
    <linearGradient
       id="linearGradient14753-2-1">
      <stop
         style="stop-color:#ffffff;stop-opacity:1;"
         offset="0"
         id="stop14755-0-3" />
      <stop
         style="stop-color:#000000;stop-opacity:1;"
         offset="1"
         id="stop14757-1-4" />
    </linearGradient>
    <linearGradient
       inkscape:collect="always"
       xlink:href="#linearGradient14753-2-1"
       id="linearGradient3456-2"
       gradientUnits="userSpaceOnUse"
       gradientTransform="matrix(2.9282093,0,0,2.9252053,-1427.0583,-1830.3373)"
       x1="503.37485"
       y1="953.7937"
       x2="492.66019"
       y2="1078.48" />
    <linearGradient
       inkscape:collect="always"
       xlink:href="#linearGradient12671-3-6"
       id="linearGradient3454-8"
       gradientUnits="userSpaceOnUse"
       gradientTransform="matrix(2.6666667,0,0,2.6666667,-1080.6722,-1740.8074)"
       x1="442.0679"
       y1="1071.4056"
       x2="428.38663"
       y2="998.65558" />
    <linearGradient
       inkscape:collect="always"
       xlink:href="#linearGradient5316-3"
       id="linearGradient3452-2"
       gradientUnits="userSpaceOnUse"
       gradientTransform="matrix(2.6666667,0,0,2.6666667,-1294.0055,-1580.8074)"
       x1="488.28757"
       y1="939.09247"
       x2="521.72607"
       y2="980.63501" />
    <linearGradient
       id="linearGradient5316-3">
      <stop
         style="stop-color:#87c7ff;stop-opacity:1;"
         offset="0"
         id="stop5320-6" />
      <stop
         style="stop-color:#74aadb;stop-opacity:1;"
         offset="1"
         id="stop5322-8" />
    </linearGradient>
    <linearGradient
       inkscape:collect="always"
       xlink:href="#linearGradient12578-2-9-2"
       id="linearGradient3143"
       gradientUnits="userSpaceOnUse"
       x1="126.81757"
       y1="921.52106"
       x2="163.21715"
       y2="942.08569" />
    <linearGradient
       id="linearGradient12578-2-9-2">
      <stop
         style="stop-color:#e9b551;stop-opacity:1;"
         offset="0"
         id="stop12580-04-6-3" />
      <stop
         style="stop-color:#b48739;stop-opacity:1;"
         offset="1"
         id="stop12582-9-5-0" />
    </linearGradient>
    <linearGradient
       id="linearGradient5316-3-8">
      <stop
         style="stop-color:#87c7ff;stop-opacity:1;"
         offset="0"
         id="stop5320-6-9" />
      <stop
         style="stop-color:#74aadb;stop-opacity:1;"
         offset="1"
         id="stop5322-8-2" />
    </linearGradient>
    <linearGradient
       y2="980.63501"
       x2="521.72607"
       y1="939.09247"
       x1="488.28757"
       gradientTransform="matrix(2.6666667,0,0,2.6666667,-1294.0056,-1580.8074)"
       gradientUnits="userSpaceOnUse"
       id="linearGradient3968"
       xlink:href="#linearGradient5316-3-8"
       inkscape:collect="always" />
  </defs>
  <sodipodi:namedview
     id="base"
     pagecolor="#ffffff"
     bordercolor="#666666"
     borderopacity="1.0"
     inkscape:pageopacity="0.0"
     inkscape:pageshadow="2"
     inkscape:zoom="1.4"
     inkscape:cx="114.16734"
     inkscape:cy="63.722041"
     inkscape:document-units="px"
     inkscape:current-layer="layer1"
     showgrid="false"
     inkscape:window-width="821"
     inkscape:window-height="626"
     inkscape:window-x="5"
     inkscape:window-y="25"
     inkscape:window-maximized="0" />
  <metadata
     id="metadata3492">
    <rdf:RDF>
      <cc:Work
         rdf:about="">
        <dc:format>image/svg+xml</dc:format>
        <dc:type
           rdf:resource="http://purl.org/dc/dcmitype/StillImage" />
        <dc:title />
      </cc:Work>
    </rdf:RDF>
  </metadata>
  <g
     inkscape:label="Capa 1"
     inkscape:groupmode="layer"
     id="layer1"
     transform="translate(0,-924.36218)">
    <path
       inkscape:connector-curvature="0"
       style="fill:url(#linearGradient3968);stroke:none;display:inline"
       d="m 10.84375,930.14341 0,112.90619 94.5,-13.9062 0,-54.31249 c -0.24747,0.26831 -0.52684,0.57527 -0.90625,1 -0.88298,0.98846 -2.01726,2.31088 -3.1875,3.625 -0.43814,0.49202 -0.79211,0.87285 -1.21875,1.34375 l 0,42.87494 -81.21875,10.75 0,-74.74994 18.875,0.28125 0.125,-8.5 31.21875,0.8125 c -0.786388,-1.10927 -1.585926,-2.23768 -2.1875,-3.09375 -0.382689,-0.54459 -0.740243,-1.00787 -0.96875,-1.34375 -0.114258,-0.16793 -0.17655,-0.29109 -0.25,-0.40625 -0.03672,-0.0576 -0.08509,-0.1166 -0.125,-0.1875 -0.01995,-0.0354 -0.02506,-0.0722 -0.0625,-0.15625 -0.01873,-0.042 -0.03075,-0.0781 -0.0625,-0.1875 -0.01587,-0.0547 -0.07974,-0.13657 -0.09375,-0.25 -0.01402,-0.11342 0.06236,-0.56194 0.0625,-0.5625 1.42e-4,-5.5e-4 0.15328,-0.37505 0.21875,-0.46875 0.06547,-0.0937 0.14787,-0.1466 0.1875,-0.1875 0.07926,-0.0818 0.0888,-0.0966 0.125,-0.125 0.0724,-0.0566 0.12203,-0.103 0.15625,-0.125 0.06845,-0.0439 0.12808,-0.0913 0.1875,-0.125 0.11882,-0.0674 0.25791,-0.12385 0.4375,-0.21875 0.359169,-0.18989 0.844369,-0.44782 1.4375,-0.75 1.186261,-0.60436 2.770556,-1.39887 4.34375,-2.1875 1.573194,-0.78862 3.128466,-1.56042 4.3125,-2.15625 0.592023,-0.29792 1.093121,-0.57349 1.4375,-0.75 0.109781,-0.37102 0.254222,-0.89445 0.4375,-1.53125 0.211306,-0.73416 0.503008,-1.75574 0.78125,-2.6875 l -68.5625,-4.625 z"
       id="path3380" />
    <path
       sodipodi:type="star"
       style="fill:url(#linearGradient3143);fill-opacity:1;stroke:none;display:inline"
       id="path3917"
       sodipodi:sides="7"
       sodipodi:cx="142.99593"
       sodipodi:cy="932.80035"
       sodipodi:r1="25.473122"
       sodipodi:r2="18.17729"
       sodipodi:arg1="0.69233443"
       sodipodi:arg2="1.1411334"
       inkscape:flatsided="false"
       inkscape:rounded="0.010368286"
       inkscape:randomized="0"
       d="m 162.60406,949.06076 c -0.0797,0.0961 -11.92264,0.21268 -12.03612,0.26468 -0.11348,0.052 -7.93464,8.94576 -8.05944,8.94337 -0.1248,-0.002 -7.59993,-9.18889 -7.71134,-9.2452 -0.1114,-0.0563 -11.94124,-0.62595 -12.01718,-0.72502 -0.0759,-0.0991 2.44569,-11.67104 2.42025,-11.79325 -0.0255,-0.1222 -6.95585,-9.72631 -6.92575,-9.84745 0.0301,-0.12115 10.64965,-5.36467 10.72933,-5.46075 0.0797,-0.0961 3.26744,-11.50256 3.38092,-11.55456 0.11348,-0.052 10.83421,4.98142 10.95902,4.98381 0.1248,0.002 11.03027,-4.61714 11.14168,-4.56084 0.11141,0.0563 2.86039,11.5764 2.93633,11.67546 0.076,0.0991 10.4871,5.74508 10.51254,5.86728 0.0254,0.12221 -7.26737,9.45411 -7.29747,9.57525 -0.0301,0.12114 2.04691,11.78114 1.96723,11.87722 z"
       transform="matrix(1.1784134,0,0,1.1781555,-72.579902,-145.2815)" />
  </g>
</svg>
