<?xml version="1.0" encoding="UTF-8" standalone="no"?>
<!-- Created with Inkscape (http://www.inkscape.org/) -->
<svg
   xmlns:dc="http://purl.org/dc/elements/1.1/"
   xmlns:cc="http://creativecommons.org/ns#"
   xmlns:rdf="http://www.w3.org/1999/02/22-rdf-syntax-ns#"
   xmlns:svg="http://www.w3.org/2000/svg"
   xmlns="http://www.w3.org/2000/svg"
   xmlns:xlink="http://www.w3.org/1999/xlink"
   xmlns:sodipodi="http://sodipodi.sourceforge.net/DTD/sodipodi-0.dtd"
   xmlns:inkscape="http://www.inkscape.org/namespaces/inkscape"
   width="48px"
   height="48px"
   id="svg9155"
   sodipodi:version="0.32"
   inkscape:version="0.46"
   sodipodi:docname="printer-error.svg"
   inkscape:output_extension="org.inkscape.output.svg.inkscape">
  <defs
     id="defs9157">
    <linearGradient
       inkscape:collect="always"
       xlink:href="#linearGradient5439"
       id="linearGradient9123"
       gradientUnits="userSpaceOnUse"
       gradientTransform="translate(-485.25696,-939.4386)"
       x1="486.89792"
       y1="969.32477"
       x2="503.62073"
       y2="1000.8342" />
    <linearGradient
       inkscape:collect="always"
       xlink:href="#linearGradient5439"
       id="linearGradient9125"
       gradientUnits="userSpaceOnUse"
       gradientTransform="translate(-485.25696,-939.4386)"
       x1="523.25903"
       y1="955.53271"
       x2="528.47394"
       y2="1007.3283" />
    <linearGradient
       inkscape:collect="always"
       xlink:href="#linearGradient5439"
       id="linearGradient9127"
       gradientUnits="userSpaceOnUse"
       gradientTransform="translate(-485.25696,-939.4386)"
       x1="518.11029"
       y1="962.73602"
       x2="521.13147"
       y2="992.92078" />
    <linearGradient
       inkscape:collect="always"
       xlink:href="#linearGradient5439"
       id="linearGradient9129"
       gradientUnits="userSpaceOnUse"
       gradientTransform="translate(-484.81945,-939.5636)"
       x1="495.14523"
       y1="952.63599"
       x2="490.30273"
       y2="974.92358" />
    <linearGradient
       inkscape:collect="always"
       xlink:href="#linearGradient5439"
       id="linearGradient9131"
       gradientUnits="userSpaceOnUse"
       gradientTransform="translate(-484.81945,-939.5636)"
       x1="460.05701"
       y1="938.95984"
       x2="578.43964"
       y2="1001.9598" />
    <linearGradient
       inkscape:collect="always"
       xlink:href="#linearGradient5439"
       id="linearGradient9133"
       gradientUnits="userSpaceOnUse"
       x1="1126.8752"
       y1="264.99054"
       x2="1112.0474"
       y2="321.77481"
       gradientTransform="translate(-1105.2101,-251.4386)" />
    <linearGradient
       inkscape:collect="always"
       xlink:href="#linearGradient5439"
       id="linearGradient9135"
       gradientUnits="userSpaceOnUse"
       x1="1123.3315"
       y1="257.92944"
       x2="1152.9561"
       y2="395.60709"
       gradientTransform="translate(-1105.2101,-251.4386)" />
    <linearGradient
       inkscape:collect="always"
       xlink:href="#linearGradient5362"
       id="linearGradient9137"
       gradientUnits="userSpaceOnUse"
       gradientTransform="translate(-485.25696,-939.4386)"
       x1="519.8905"
       y1="987.91498"
       x2="516.83636"
       y2="977.53998" />
    <linearGradient
       id="linearGradient5362">
      <stop
         style="stop-color:#ffffff;stop-opacity:1;"
         offset="0"
         id="stop5364" />
      <stop
         style="stop-color:#ffffff;stop-opacity:0;"
         offset="1"
         id="stop5366" />
    </linearGradient>
    <linearGradient
       inkscape:collect="always"
       xlink:href="#linearGradient5362"
       id="linearGradient9139"
       gradientUnits="userSpaceOnUse"
       gradientTransform="translate(-485.25696,-939.4386)"
       x1="530.70715"
       y1="987.82306"
       x2="527.51965"
       y2="974.76056" />
    <linearGradient
       id="linearGradient5439">
      <stop
         style="stop-color:#ffffff;stop-opacity:1;"
         offset="0"
         id="stop5441" />
      <stop
         style="stop-color:#000000;stop-opacity:1;"
         offset="1"
         id="stop5443" />
    </linearGradient>
    <linearGradient
       inkscape:collect="always"
       xlink:href="#linearGradient5439"
       id="linearGradient9141"
       gradientUnits="userSpaceOnUse"
       gradientTransform="translate(-485.25696,-939.4386)"
       x1="520.9256"
       y1="990.09143"
       x2="517.44531"
       y2="976.27893" />
    <linearGradient
       inkscape:collect="always"
       xlink:href="#linearGradient5344"
       id="linearGradient9143"
       gradientUnits="userSpaceOnUse"
       x1="1129.8333"
       y1="279.14658"
       x2="1129.6968"
       y2="277.33365"
       gradientTransform="translate(-1105.2101,-251.4386)" />
    <filter
       inkscape:collect="always"
       id="filter7660">
      <feGaussianBlur
         inkscape:collect="always"
         stdDeviation="0.48407933"
         id="feGaussianBlur7662" />
    </filter>
    <linearGradient
       id="linearGradient5344">
      <stop
         style="stop-color:#000000;stop-opacity:1;"
         offset="0"
         id="stop5346" />
      <stop
         style="stop-color:#000000;stop-opacity:0;"
         offset="1"
         id="stop5348" />
    </linearGradient>
    <linearGradient
       inkscape:collect="always"
       xlink:href="#linearGradient5344"
       id="linearGradient9151"
       gradientUnits="userSpaceOnUse"
       gradientTransform="translate(0.8838835,0)"
       x1="919.75909"
       y1="168.68549"
       x2="848.04993"
       y2="244.30811" />
    <linearGradient
       id="linearGradient12336">
      <stop
         id="stop12338"
         offset="0"
         style="stop-color:#ff6e00;stop-opacity:1;" />
      <stop
         id="stop12340"
         offset="1"
         style="stop-color:#eb2600;stop-opacity:1;" />
    </linearGradient>
    <linearGradient
       inkscape:collect="always"
       xlink:href="#linearGradient12336"
       id="linearGradient9153"
       gradientUnits="userSpaceOnUse"
       gradientTransform="matrix(0.5816396,0,0,0.5098004,-154.98321,-240.88095)"
       x1="316.84473"
       y1="475.34854"
       x2="341.94135"
       y2="507.52188" />
    <inkscape:perspective
       sodipodi:type="inkscape:persp3d"
       inkscape:vp_x="0 : 24 : 1"
       inkscape:vp_y="0 : 1000 : 0"
       inkscape:vp_z="48 : 24 : 1"
       inkscape:persp3d-origin="24 : 16 : 1"
       id="perspective9163" />
  </defs>
  <sodipodi:namedview
     id="base"
     pagecolor="#ffffff"
     bordercolor="#666666"
     borderopacity="1.0"
     inkscape:pageopacity="0.0"
     inkscape:pageshadow="2"
     inkscape:zoom="7"
     inkscape:cx="24"
     inkscape:cy="24"
     inkscape:current-layer="layer1"
     showgrid="true"
     inkscape:grid-bbox="true"
     inkscape:document-units="px"
     inkscape:window-width="641"
     inkscape:window-height="721"
     inkscape:window-x="5"
     inkscape:window-y="24" />
  <metadata
     id="metadata9160">
    <rdf:RDF>
      <cc:Work
         rdf:about="">
        <dc:format>image/svg+xml</dc:format>
        <dc:type
           rdf:resource="http://purl.org/dc/dcmitype/StillImage" />
      </cc:Work>
    </rdf:RDF>
  </metadata>
  <g
     id="layer1"
     inkscape:label="Layer 1"
     inkscape:groupmode="layer">
    <path
       id="path9095"
       d="M 11.368017,6.4676006 L 10.336817,7.0614006 L 11.368017,18.186401 L 7.7743167,18.311401 L 8.4305167,26.873901 L 4.8368167,27.092601 C 4.0465167,27.143101 3.2674167,27.220701 2.5555167,27.592601 C 1.7166167,28.153801 0.72071671,28.880101 0.61801671,31.530201 L 0.61801671,44.248901 L 11.774317,47.248901 L 24.149317,45.186401 L 29.305517,46.780201 C 32.282017,47.904801 40.489117,47.237501 43.305517,46.311401 C 45.567717,45.554901 47.651717,43.631001 45.899317,43.155201 L 42.461817,42.155201 L 47.274317,41.342601 L 47.274317,31.248901 C 47.263717,27.990001 43.513617,25.795601 37.055517,25.217601 L 33.711817,25.405201 L 32.930517,17.530201 L 32.836817,17.530201 L 32.336817,17.405201 L 29.711817,17.498901 L 28.680517,7.0926006 L 14.805517,6.6239006 L 11.368017,6.4676006 z"
       style="fill:none;fill-rule:evenodd;stroke:#000000;stroke-width:1;stroke-linecap:butt;stroke-linejoin:miter;stroke-miterlimit:4;stroke-dasharray:none;stroke-opacity:1" />
    <path
       sodipodi:nodetypes="cccccc"
       id="path9097"
       d="M 2.5824167,27.573641 C 7.6134167,28.441211 11.862117,32.102691 11.883317,34.788281 L 11.839117,47.251041 L 0.61381671,44.245841 L 0.61381671,31.517351 C 0.71781671,28.831811 1.7366167,28.138571 2.5824167,27.573641 z"
       style="fill:url(#linearGradient9123);fill-rule:evenodd;stroke:none;stroke-width:1px;stroke-linecap:butt;stroke-linejoin:miter;stroke-opacity:1" />
    <path
       style="fill:url(#linearGradient9125);fill-rule:evenodd;stroke:none;stroke-width:1px;stroke-linecap:butt;stroke-linejoin:miter;stroke-opacity:1"
       d="M 47.282817,31.252751 L 47.217317,30.940101 L 11.750717,34.699891 L 11.776617,47.251041 L 47.282817,41.329021 L 47.282817,31.252751 z"
       id="path9099"
       sodipodi:nodetypes="cccccc" />
    <path
       sodipodi:nodetypes="cccccc"
       id="path9101"
       d="M 47.282817,31.252751 L 11.750717,34.788281 C 11.750717,31.436401 4.7873167,28.255581 2.5513167,27.598051 C 3.2632167,27.226211 4.0457167,27.148721 4.8360167,27.098231 L 37.057517,25.216461 C 43.515617,25.794521 47.272317,27.993861 47.282817,31.252751 z"
       style="fill:url(#linearGradient9127);fill-rule:evenodd;stroke:none;stroke-width:1px;stroke-linecap:butt;stroke-linejoin:miter;stroke-opacity:1" />
    <path
       sodipodi:nodetypes="ccccc"
       id="path9103"
       d="M 16.258517,46.367161 C 16.306917,41.011641 16.756517,37.588581 18.821817,37.263151 L 41.979517,34.523121 C 44.476617,34.206091 44.454417,36.892861 44.454417,41.770961 L 16.258517,46.367161 z"
       style="fill:#000000;fill-rule:evenodd;stroke:none;stroke-width:1px;stroke-linecap:butt;stroke-linejoin:miter;stroke-opacity:1" />
    <path
       sodipodi:nodetypes="ccccc"
       id="path9105"
       d="M 6.9012167,26.989871 C 7.8962167,27.133541 8.5457167,27.591501 9.0711167,28.017331 L 36.640117,25.967771 C 35.933017,25.603731 35.032917,25.445871 34.164917,25.407961 L 6.9012167,26.989871 z"
       style="fill:#1a1a1a;fill-rule:evenodd;stroke:none;stroke-width:1px;stroke-linecap:butt;stroke-linejoin:miter;stroke-opacity:1" />
    <path
       sodipodi:nodetypes="ccccccc"
       id="path9107"
       d="M 8.4393167,26.971661 L 7.7688167,18.311441 L 32.340517,17.406801 L 32.930017,17.545971 L 33.276417,25.615511 L 9.0234167,27.393201 L 8.4393167,26.971661 z"
       style="fill:url(#linearGradient9129);fill-rule:evenodd;stroke:none;stroke-width:1px;stroke-linecap:butt;stroke-linejoin:miter;stroke-opacity:1" />
    <path
       style="fill:url(#linearGradient9131);fill-rule:evenodd;stroke:none;stroke-width:1px;stroke-linecap:butt;stroke-linejoin:miter;stroke-opacity:1"
       d="M 9.0018167,27.409161 L 8.2375167,18.467691 L 32.942117,17.539611 L 33.745217,25.771761 L 9.0018167,27.409161 z"
       id="path9109"
       sodipodi:nodetypes="ccccc" />
    <path
       style="fill:url(#linearGradient9133);fill-rule:evenodd;stroke:none;stroke-width:1px;stroke-linecap:butt;stroke-linejoin:miter;stroke-opacity:1"
       d="M 12.248617,27.771981 L 10.351417,7.0533506 L 11.367017,6.4808706 L 27.482617,7.1604808 L 30.348617,26.415361 L 13.390117,27.707051 L 12.248617,27.771981 z"
       id="path9111"
       sodipodi:nodetypes="ccccccc" />
    <path
       sodipodi:nodetypes="ccccc"
       id="path9113"
       d="M 13.279817,27.693861 L 11.476417,6.4908506 L 28.670117,7.0979806 L 30.598617,26.415361 L 13.279817,27.693861 z"
       style="fill:url(#linearGradient9135);fill-rule:evenodd;stroke:none;stroke-width:1px;stroke-linecap:butt;stroke-linejoin:miter;stroke-opacity:1" />
    <path
       style="fill:url(#linearGradient9137);fill-rule:evenodd;stroke:none;stroke-width:1px;stroke-linecap:butt;stroke-linejoin:miter;stroke-opacity:1"
       d="M 16.258517,46.367161 C 16.266617,45.470291 16.286017,44.627611 16.322317,43.844601 L 39.979517,40.335621 L 44.454417,41.770961 L 16.258517,46.367161 z"
       id="path9115"
       sodipodi:nodetypes="ccccc" />
    <path
       style="fill:url(#linearGradient9139);fill-rule:evenodd;stroke:none;stroke-width:1px;stroke-linecap:butt;stroke-linejoin:miter;stroke-opacity:1"
       d="M 40.071017,40.367161 L 40.164217,34.737911 L 41.979517,34.523121 C 44.476617,34.206091 44.454417,36.892861 44.454417,41.770961 L 40.071017,40.367161 z"
       id="path9117"
       sodipodi:nodetypes="ccccc" />
    <path
       sodipodi:nodetypes="cccccc"
       id="path9119"
       d="M 45.911517,43.148561 C 47.663917,43.624411 45.571817,45.541661 43.309717,46.298201 C 40.493217,47.224341 32.271017,47.897111 29.294517,46.772481 L 18.543617,43.473261 L 37.551517,40.694861 L 45.911517,43.148561 z"
       style="fill:url(#linearGradient9141);fill-opacity:1;fill-rule:evenodd;stroke:none;stroke-width:1px;stroke-linecap:butt;stroke-linejoin:miter;stroke-opacity:1" />
    <path
       style="fill:url(#linearGradient9143);fill-rule:evenodd;stroke:none;stroke-width:1px;stroke-linecap:butt;stroke-linejoin:miter;stroke-opacity:1"
       d="M 6.9012167,26.989871 C 7.8962167,27.133541 8.5457167,27.591501 9.0711167,28.017331 L 36.640117,25.967771 C 35.933017,25.603731 34.325817,25.224901 33.457817,25.186991 L 6.9012167,26.989871 z"
       id="path9121"
       sodipodi:nodetypes="ccccc" />
    <path
       transform="matrix(1.0649481,0,0,1.0361068,-899.85943,-199.20888)"
       inkscape:export-ydpi="89"
       inkscape:export-xdpi="89"
       inkscape:export-filename="/home/dafeba/DCV/tallerD/elementos.png"
       sodipodi:nodetypes="ccccccccccccc"
       id="path9145"
       d="M 880.86353,214.70724 L 872.63186,214.81535 C 871.20009,214.99969 870.85857,214.60421 870.35156,213.68252 L 867.13993,206.35212 C 866.82933,205.76602 866.816,205.29861 867.14698,204.7075 L 870.9453,196.37137 C 871.31434,195.7057 871.81862,195.26889 872.97688,195.35404 L 881.13132,195.37451 C 881.99677,195.45559 882.38695,195.81093 882.67009,196.51449 L 885.97167,204.18432 C 886.16359,204.62711 886.15343,205.08391 885.98237,205.55185 L 882.81154,213.11888 C 882.40776,213.98937 882.00786,214.54834 880.86353,214.70724 z"
       style="fill:url(#linearGradient9151);fill-opacity:1;stroke:none;stroke-width:0.5;stroke-linecap:round;stroke-linejoin:round;stroke-miterlimit:4;stroke-opacity:1;filter:url(#filter7660)" />
    <path
       style="fill:url(#linearGradient9153);fill-opacity:1;stroke:#000000;stroke-width:0.5;stroke-linecap:round;stroke-linejoin:round;stroke-miterlimit:4;stroke-opacity:1"
       d="M 41.089017,20.845731 L 32.322717,20.957741 C 30.798017,21.148741 30.434317,20.738971 29.894317,19.784011 L 26.474117,12.188931 C 26.143317,11.581671 26.129117,11.097391 26.481617,10.484931 L 30.526617,1.8478106 C 30.919717,1.1581006 31.456717,0.7055206 32.690217,0.7937506 L 41.374217,0.8149506 C 42.295917,0.8989706 42.711417,1.2671406 43.012917,1.9961006 L 46.528917,9.9428608 C 46.733317,10.401641 46.722517,10.874931 46.540317,11.359771 L 43.163617,19.200021 C 42.733617,20.101941 42.307717,20.681091 41.089017,20.845731 z"
       id="path9147"
       sodipodi:nodetypes="ccccccccccccc"
       inkscape:export-filename="/home/dafeba/DCV/tallerD/elementos.png"
       inkscape:export-xdpi="89"
       inkscape:export-ydpi="89" />
    <path
       sodipodi:nodetypes="ccccccccc"
       id="path9149"
       d="M 29.131917,7.0641006 L 27.192217,10.671941 C 26.988317,11.075641 26.888717,11.487661 27.213317,11.933471 L 28.710617,14.860151 L 44.546917,14.766611 L 45.974617,11.446331 C 46.197017,10.924561 46.094817,10.580551 45.934017,10.268751 L 44.457617,7.1402106 L 29.131917,7.0641006 z"
       style="fill:#ffffff;fill-rule:evenodd;stroke:none;stroke-width:1px;stroke-linecap:butt;stroke-linejoin:miter;stroke-opacity:1"
       inkscape:export-filename="/home/dafeba/DCV/tallerD/elementos.png"
       inkscape:export-xdpi="89"
       inkscape:export-ydpi="89" />
  </g>
</svg>
