<?xml version="1.0" encoding="UTF-8" standalone="no"?>
<!-- Created with Inkscape (http://www.inkscape.org/) -->

<svg
   xmlns:dc="http://purl.org/dc/elements/1.1/"
   xmlns:cc="http://creativecommons.org/ns#"
   xmlns:rdf="http://www.w3.org/1999/02/22-rdf-syntax-ns#"
   xmlns:svg="http://www.w3.org/2000/svg"
   xmlns="http://www.w3.org/2000/svg"
   xmlns:xlink="http://www.w3.org/1999/xlink"
   xmlns:sodipodi="http://sodipodi.sourceforge.net/DTD/sodipodi-0.dtd"
   xmlns:inkscape="http://www.inkscape.org/namespaces/inkscape"
   width="128"
   height="128"
   id="svg50797"
   version="1.1"
   inkscape:version="0.48.3.1 r9886"
   sodipodi:docname="weather-clear-night-110.svg">
  <defs
     id="defs50799">
    <linearGradient
       id="linearGradient5439-5">
      <stop
         id="stop5441-3"
         offset="0"
         style="stop-color:#ffffff;stop-opacity:1;" />
      <stop
         id="stop5443-3"
         offset="1"
         style="stop-color:#000000;stop-opacity:1;" />
    </linearGradient>
    <linearGradient
       id="linearGradient9863-4">
      <stop
         id="stop9865-6"
         offset="0"
         style="stop-color:#2f445a;stop-opacity:1;" />
      <stop
         id="stop9867-3"
         offset="1"
         style="stop-color:#415f7c;stop-opacity:1" />
    </linearGradient>
    <linearGradient
       id="linearGradient9312-1">
      <stop
         style="stop-color:#2f445a;stop-opacity:1"
         offset="0"
         id="stop9314-4" />
      <stop
         style="stop-color:#415f7c;stop-opacity:1"
         offset="1"
         id="stop9316-0" />
    </linearGradient>
    <linearGradient
       id="linearGradient5344-9">
      <stop
         id="stop5346-9"
         offset="0"
         style="stop-color:#000000;stop-opacity:1;" />
      <stop
         id="stop5348-4"
         offset="1"
         style="stop-color:#000000;stop-opacity:0;" />
    </linearGradient>
    <linearGradient
       id="linearGradient5362-4">
      <stop
         id="stop5364-4"
         offset="0"
         style="stop-color:#ffffff;stop-opacity:1;" />
      <stop
         id="stop5366-0"
         offset="1"
         style="stop-color:#ffffff;stop-opacity:0;" />
    </linearGradient>
    <linearGradient
       inkscape:collect="always"
       xlink:href="#linearGradient5439-5"
       id="linearGradient49666-7"
       gradientUnits="userSpaceOnUse"
       gradientTransform="matrix(2.7150285,0,0,2.7149163,-1310.664,-1625.0806)"
       x1="506.521"
       y1="945.86438"
       x2="538.38342"
       y2="1017.9187" />
    <linearGradient
       inkscape:collect="always"
       xlink:href="#linearGradient9863-4"
       id="linearGradient49480-4"
       gradientUnits="userSpaceOnUse"
       gradientTransform="matrix(2.7016395,0,0,2.7016395,-2926.5285,138.70147)"
       x1="1111.3293"
       y1="338.76315"
       x2="1111.3293"
       y2="292.43744" />
    <linearGradient
       inkscape:collect="always"
       xlink:href="#linearGradient9312-1"
       id="linearGradient49478-2"
       gradientUnits="userSpaceOnUse"
       gradientTransform="matrix(2.7150285,0,0,2.7149163,-1310.664,-1625.0806)"
       x1="512.19513"
       y1="982.966"
       x2="512.19513"
       y2="941.53302" />
    <linearGradient
       inkscape:collect="always"
       xlink:href="#linearGradient5344-9"
       id="linearGradient49476-7"
       gradientUnits="userSpaceOnUse"
       gradientTransform="matrix(2.7150285,0,0,2.7149163,-1310.664,-1625.0806)"
       x1="504.93024"
       y1="992.24542"
       x2="497.81961"
       y2="968.64575" />
    <linearGradient
       inkscape:collect="always"
       xlink:href="#linearGradient5362-4"
       id="linearGradient49474-1"
       gradientUnits="userSpaceOnUse"
       gradientTransform="matrix(2.7150285,0,0,2.7149163,-1310.664,-1625.0806)"
       x1="502.97885"
       y1="936.30072"
       x2="499.43576"
       y2="956.01135" />
    <linearGradient
       inkscape:collect="always"
       xlink:href="#linearGradient9312-1"
       id="linearGradient49472-6"
       gradientUnits="userSpaceOnUse"
       gradientTransform="matrix(2.7150285,0,0,2.7149163,-1310.664,-1625.0806)"
       x1="492.45096"
       y1="978.53174"
       x2="497.51462"
       y2="950.40552" />
  </defs>
  <sodipodi:namedview
     id="base"
     pagecolor="#ffffff"
     bordercolor="#666666"
     borderopacity="1.0"
     inkscape:pageopacity="0.0"
     inkscape:pageshadow="2"
     inkscape:zoom="1.1328191"
     inkscape:cx="203.83669"
     inkscape:cy="4.4717979"
     inkscape:document-units="px"
     inkscape:current-layer="layer1"
     showgrid="false"
     inkscape:window-width="1366"
     inkscape:window-height="717"
     inkscape:window-x="0"
     inkscape:window-y="0"
     inkscape:window-maximized="1" />
  <metadata
     id="metadata50802">
    <rdf:RDF>
      <cc:Work
         rdf:about="">
        <dc:format>image/svg+xml</dc:format>
        <dc:type
           rdf:resource="http://purl.org/dc/dcmitype/StillImage" />
        <dc:title />
      </cc:Work>
    </rdf:RDF>
  </metadata>
  <g
     inkscape:label="Capa 1"
     inkscape:groupmode="layer"
     id="layer1"
     transform="translate(0,-924.36218)">
    <path
       inkscape:connector-curvature="0"
       style="fill:url(#linearGradient49472-6);fill-opacity:1;stroke:none;display:inline"
       d="m 107.697,986.8788 c -0.7602,29.8498 -15.5797,58.688 -41.0506,58.857 -10.7483,0.069 -22.628,-2.5461 -30.31021,-6.7064 -15.8765,-8.5976 -25.1,-27.3744 -25.1181,-48.3488 -0.027,-25.1322 12.9768,-47.9293 33.44911,-55.7213 5.9776,-2.2749 17.6869,-4.2192 25.9837,-4.1333 21.6277,0.2213 37.0461,24.6821 37.0461,56.0528 z"
       id="path49432"
       sodipodi:nodetypes="csssssc"
       inkscape:export-filename="/home/dafeba/DCV/tallerD/bocetos/08-09-22-hastaahora.png"
       inkscape:export-xdpi="57.964222"
       inkscape:export-ydpi="57.964222" />
    <path
       inkscape:connector-curvature="0"
       sodipodi:nodetypes="ccscc"
       id="path49434"
       d="M 60.428,989.3233 13.92239,970.9716 c 4.5469,-15.9246 14.6224,-29.0624 28.66341,-35.1696 6.5139,-2.8331 16.8808,-5.1131 24.9456,-4.496 50.8574,-6.5064 23.9699,58.908 -7.1034,58.0173 z"
       style="fill:url(#linearGradient49474-1);fill-opacity:1;stroke:none;display:inline"
       inkscape:export-filename="/home/dafeba/DCV/tallerD/bocetos/08-09-22-hastaahora.png"
       inkscape:export-xdpi="57.964222"
       inkscape:export-ydpi="57.964222" />
    <path
       inkscape:connector-curvature="0"
       sodipodi:nodetypes="csscc"
       id="path49436"
       d="m 67.6064,1045.7358 c -7.9467,1.1422 -19.0075,-1.8752 -25.3782,-4.1018 -15.68581,-5.4824 -26.21601,-19.991 -29.72371,-37.6894 -0.8451,-4.2634 20.7952,-1.033 34.47011,0.6542 32.2366,-1.9118 73.0854,26.0821 20.6318,41.137 z"
       style="fill:url(#linearGradient49476-7);fill-opacity:1;stroke:none;display:inline"
       inkscape:export-filename="/home/dafeba/DCV/tallerD/bocetos/08-09-22-hastaahora.png"
       inkscape:export-xdpi="57.964222"
       inkscape:export-ydpi="57.964222" />
    <path
       inkscape:connector-curvature="0"
       sodipodi:nodetypes="csssc"
       id="path49438"
       d="m 116.3424,987.1137 c -0.7606,30.6616 -17.1459,53.8664 -42.263,58.1861 -33.5834,5.7758 -54.72001,-22.0714 -54.75011,-54.0408 -0.032,-33.2592 22.08001,-62.5373 54.32751,-60.0029 25.3938,1.9947 42.6856,23.6341 42.6856,55.8576 z"
       style="fill:url(#linearGradient49478-2);fill-opacity:1;stroke:none;display:inline"
       inkscape:export-filename="/home/dafeba/DCV/tallerD/bocetos/08-09-22-hastaahora.png"
       inkscape:export-xdpi="57.964222"
       inkscape:export-ydpi="57.964222" />
    <path
       inkscape:connector-curvature="0"
       inkscape:export-ydpi="57.964222"
       inkscape:export-xdpi="57.964222"
       inkscape:export-filename="/home/dafeba/DCV/tallerD/bocetos/08-09-22-hastaahora.png"
       style="fill:none;stroke:url(#linearGradient49480-4);stroke-width:2.66666675;stroke-linecap:round;stroke-linejoin:round;stroke-miterlimit:4;stroke-opacity:1;stroke-dasharray:none;stroke-dashoffset:0;display:inline"
       d="m 67.4792,930.1129 c -7.9846,0.3504 -17.7494,2.12 -23.0486,4.1371 -20.74081,7.8938 -33.96101,31.0192 -33.93921,56.481 0.027,21.2494 9.412,40.2568 25.4968,48.9672 3.8307,2.0744 8.93261,4.0747 14.17441,5.2379 7.1184,1.6957 15.8371,2.1851 24.0707,1.0941 25.4464,-4.3762 42.0336,-27.8658 42.804,-58.9296 0,-31.0408 -15.7755,-52.6984 -39.4483,-56.46 -3.3448,-0.5533 -6.7336,-0.5277 -10.1098,-0.5277 z"
       id="path49440"
       sodipodi:nodetypes="csssccccc" />
    <path
       style="fill:url(#linearGradient49666-7);fill-opacity:1;stroke:none;display:inline"
       d="m 67.7597,931.1246 c -3.2315,0.1387 -6.3531,0.6526 -9.3333,1.4166 -3.3472,12.4794 -5.5,30.8016 -5.5,54.1666 0,24.6627 1.3832,44.5555 5.1666,58.7502 4.9446,0.8149 10.2944,0.8144 16,-0.168 25.1171,-4.3198 41.4896,-27.5054 42.2502,-58.1667 0,-32.2237 -17.2728,-53.8387 -42.6667,-55.8333 -2.0155,-0.1574 -3.9835,-0.2507 -5.9168,-0.168 z"
       id="path48973"
       inkscape:connector-curvature="0" />
    <g
       transform="matrix(2.6666667,0,0,2.6666667,-1454.8235,-1154.6255)"
       id="g49712"
       style="fill:#38526b;fill-opacity:0.28947371;display:inline">
      <path
         inkscape:connector-curvature="0"
         id="path49714"
         d="m 563.1875,795.71875 c -2.43993,0.10519 -4.06437,2.40781 -4.0625,5.03125 0.003,2.68981 1.76811,5.04845 4.59375,4.5625 2.11328,-0.36346 3.4985,-2.32648 3.5625,-4.90625 0,-2.71121 -1.45716,-4.51967 -3.59375,-4.6875 -0.16958,-0.0133 -0.33734,-0.007 -0.5,0 z m 16.71875,2.90625 c -2.77337,0.11956 -4.62781,2.76813 -4.625,5.75 0.003,3.0573 2.03832,5.70861 5.25,5.15625 2.40202,-0.41311 3.95845,-2.63027 4.03125,-5.5625 0,-3.08163 -1.63402,-5.15299 -4.0625,-5.34375 -0.19274,-0.0151 -0.40886,-0.008 -0.59375,0 z M 557,802.15625 c -1.58391,-0.12448 -2.65709,1.30388 -2.65625,2.9375 10e-4,1.57024 1.03795,2.93994 2.6875,2.65625 1.23369,-0.21219 2.05645,-1.33773 2.09375,-2.84375 0,-1.58274 -0.8777,-2.652 -2.125,-2.75 z m 10.46875,3.4375 c -4.06797,0.17536 -6.785,4.06365 -6.78125,8.4375 0.004,4.48449 2.97657,8.3727 7.6875,7.5625 3.52331,-0.60596 5.79945,-3.85522 5.90625,-8.15625 0,-4.52016 -2.40661,-7.56395 -5.96875,-7.84375 -0.28272,-0.0222 -0.57255,-0.0117 -0.84375,0 z"
         style="fill:#38526b;fill-opacity:0.28947371;stroke:none;display:inline" />
      <path
         inkscape:export-ydpi="57.964222"
         inkscape:export-xdpi="57.964222"
         inkscape:export-filename="/home/dafeba/DCV/tallerD/bocetos/08-09-22-hastaahora.png"
         style="fill:#38526b;fill-opacity:0.28947371;stroke:none;display:inline"
         d="m 581.3493,814.02005 c -0.0383,1.54185 -0.8622,2.70873 -2.12525,2.92595 -1.68878,0.29045 -2.75166,-1.10989 -2.75318,-2.7175 -0.002,-1.67247 1.11032,-3.14477 2.73193,-3.01733 1.27696,0.10031 2.1465,1.18848 2.1465,2.80888 z"
         id="path49716"
         sodipodi:nodetypes="csssc"
         inkscape:connector-curvature="0" />
    </g>
  </g>
</svg>
