<?xml version="1.0" encoding="UTF-8" standalone="no"?>
<!-- Created with Inkscape (http://www.inkscape.org/) -->

<svg
   xmlns:dc="http://purl.org/dc/elements/1.1/"
   xmlns:cc="http://creativecommons.org/ns#"
   xmlns:rdf="http://www.w3.org/1999/02/22-rdf-syntax-ns#"
   xmlns:svg="http://www.w3.org/2000/svg"
   xmlns="http://www.w3.org/2000/svg"
   xmlns:xlink="http://www.w3.org/1999/xlink"
   xmlns:sodipodi="http://sodipodi.sourceforge.net/DTD/sodipodi-0.dtd"
   xmlns:inkscape="http://www.inkscape.org/namespaces/inkscape"
   width="136.53334"
   height="136.53334"
   id="svg6934"
   sodipodi:version="0.32"
   inkscape:version="0.91 r13725"
   version="1.0"
   sodipodi:docname="start-here-symbolic-ceibo.svg"
   inkscape:output_extension="org.inkscape.output.svg.inkscape">
  <defs
     id="defs6936">
    <linearGradient
       inkscape:collect="always"
       xlink:href="#linearGradient12336"
       id="linearGradient874"
       x1="9.495225"
       y1="-3.1310093"
       x2="75.466797"
       y2="104.28125"
       gradientUnits="userSpaceOnUse" />
    <linearGradient
       id="linearGradient12336">
      <stop
         id="stop12338"
         offset="0"
         style="stop-color:#ff6e00;stop-opacity:1;" />
      <stop
         id="stop12340"
         offset="1"
         style="stop-color:#eb2600;stop-opacity:1;" />
    </linearGradient>
  </defs>
  <sodipodi:namedview
     id="base"
     pagecolor="#ffffff"
     bordercolor="#666666"
     borderopacity="1.0"
     inkscape:pageopacity="0.0"
     inkscape:pageshadow="2"
     inkscape:zoom="2.3546387"
     inkscape:cx="58.726458"
     inkscape:cy="70.801534"
     inkscape:document-units="px"
     inkscape:current-layer="layer1"
     showgrid="false"
     inkscape:window-width="1600"
     inkscape:window-height="852"
     inkscape:window-x="0"
     inkscape:window-y="0"
     inkscape:window-maximized="1"
     inkscape:snap-global="false" />
  <metadata
     id="metadata6939">
    <rdf:RDF>
      <cc:Work
         rdf:about="">
        <dc:format>image/svg+xml</dc:format>
        <dc:type
           rdf:resource="http://purl.org/dc/dcmitype/StillImage" />
        <dc:title />
      </cc:Work>
    </rdf:RDF>
  </metadata>
  <g
     inkscape:label="Capa 1"
     inkscape:groupmode="layer"
     id="layer1">
    <path
       style="fill:url(#linearGradient874);fill-opacity:1;fill-rule:evenodd;stroke:none;stroke-width:1.06666672"
       d="M 39.998047 5.578125 C 37.878341 6.396493 36.158816 7.9325495 34.833984 9.9316406 C 33.138519 12.489996 32.181612 15.774889 32.148438 17.265625 L 32.519531 120.53125 C 33.019162 125.90816 34.479176 128.75318 36.732422 131 C 36.995926 130.9744 37.2623 130.94379 37.533203 130.90039 L 121.0332 118.30078 C 123.70278 118.01157 125.96908 116.7361 127.64648 114.71875 C 128.12574 114.14236 128.55681 113.50653 128.93555 112.81445 C 130.26114 110.39219 130.9457 107.29608 130.80078 103.76758 L 131.23242 24.533203 C 131.46974 18.170173 128.24578 12.826277 121.26758 11.767578 L 40.189453 5.5820312 C 40.184953 5.5815516 40.180351 5.5824974 40.175781 5.5820312 C 40.116851 5.5759713 40.05714 5.5818974 39.998047 5.578125 z M 32.652344 6.0429688 L 12.5 8.9667969 L 11.996094 8.9667969 L 11.996094 9.1660156 C 6.2324133 10.285024 3.265625 15.131185 3.265625 21.066406 L 3.265625 72.966797 L 3.265625 104.98438 L 3.265625 111.40039 C 3.194793 117.42947 5.334487 122.16756 9.6328125 123.66602 L 27.4375 130.09961 L 31.572266 130.86523 C 29.970653 128.33071 28.81841 125.13168 28.427734 120.85156 L 28.419922 120.76367 L 28.056641 18.494141 C 28.098311 16.599024 29.23588 10.95571 31.416016 7.6660156 C 31.790508 7.1009284 32.211266 6.5638331 32.652344 6.0429688 z M 92.542969 19.621094 C 101.61019 19.548453 110.16955 21.148106 118.02539 20.566406 C 115.57549 33.281596 136.90971 60.162004 97.070312 87.802734 C 82.208713 99.134194 61.077638 104.63977 60.960938 113.84375 C 60.905137 113.84375 60.859687 113.83476 60.804688 113.83398 C 58.610588 122.82409 52.348519 122.18147 46.386719 121.78906 C 38.971819 119.33511 43.270231 102.54609 44.957031 98.167969 C 49.743231 85.611029 53.530884 74.260728 62.583984 62.861328 C 67.589484 57.387328 70.187456 55.247716 71.472656 56.003906 C 73.134756 57.933246 70.71875 67.058594 70.71875 67.058594 L 67.054688 80.576172 C 65.172588 88.859372 62.263247 96.833249 59.560547 104.87109 C 59.151447 105.94628 58.732809 107.02861 58.412109 108.04492 C 65.176609 98.343867 72.199281 83.599251 74.800781 67.019531 C 75.526881 63.161571 77.239197 53.294594 71.279297 53.089844 C 60.724197 54.568474 50.988909 74.696317 44.349609 95.335938 C 37.937609 77.661168 42.713666 63.080184 52.509766 46.552734 C 60.849166 32.455024 68.1479 22.951175 88.625 19.765625 C 89.9404 19.675724 91.247652 19.631471 92.542969 19.621094 z "
       id="path30949" />
  </g>
</svg>
