<?xml version="1.0" encoding="UTF-8" standalone="no"?>
<!-- Created with Inkscape (http://www.inkscape.org/) -->

<svg
   xmlns:dc="http://purl.org/dc/elements/1.1/"
   xmlns:cc="http://creativecommons.org/ns#"
   xmlns:rdf="http://www.w3.org/1999/02/22-rdf-syntax-ns#"
   xmlns:svg="http://www.w3.org/2000/svg"
   xmlns="http://www.w3.org/2000/svg"
   xmlns:xlink="http://www.w3.org/1999/xlink"
   xmlns:sodipodi="http://sodipodi.sourceforge.net/DTD/sodipodi-0.dtd"
   xmlns:inkscape="http://www.inkscape.org/namespaces/inkscape"
   width="128"
   height="128"
   id="svg2"
   sodipodi:version="0.32"
   inkscape:version="0.48.3.1 r9886"
   version="1.0"
   sodipodi:docname="folder-documents-symbolic.svg"
   inkscape:output_extension="org.inkscape.output.svg.inkscape">
  <defs
     id="defs4">
    <linearGradient
       inkscape:collect="always"
       xlink:href="#linearGradient9863-4-3"
       id="linearGradient9523"
       gradientUnits="userSpaceOnUse"
       gradientTransform="matrix(2.6666667,0,0,2.6666667,-173.89353,-296.47657)"
       x1="90.376579"
       y1="158.70711"
       x2="92.053268"
       y2="111.14841" />
    <linearGradient
       id="linearGradient9863-4-3">
      <stop
         style="stop-color:#2f445a;stop-opacity:1;"
         offset="0"
         id="stop9865-0-0" />
      <stop
         style="stop-color:#415f7c;stop-opacity:1"
         offset="1"
         id="stop9867-6-3" />
    </linearGradient>
    <linearGradient
       inkscape:collect="always"
       xlink:href="#linearGradient5344-50-6"
       id="linearGradient9526"
       gradientUnits="userSpaceOnUse"
       gradientTransform="matrix(2.6666667,0,0,2.6666667,-1293.8381,-1683.1224)"
       x1="528.61981"
       y1="704.3277"
       x2="520.89331"
       y2="663.72803" />
    <linearGradient
       id="linearGradient5344-50-6">
      <stop
         style="stop-color:#000000;stop-opacity:1;"
         offset="0"
         id="stop5346-2-7" />
      <stop
         style="stop-color:#000000;stop-opacity:0;"
         offset="1"
         id="stop5348-5-2" />
    </linearGradient>
    <linearGradient
       inkscape:collect="always"
       xlink:href="#linearGradient5316-0-9"
       id="linearGradient9529"
       gradientUnits="userSpaceOnUse"
       gradientTransform="matrix(2.6666667,0,0,2.6666667,-1293.8381,-1683.1224)"
       x1="516.58734"
       y1="643.28003"
       x2="518.94879"
       y2="670.57684" />
    <linearGradient
       id="linearGradient5316-0-9">
      <stop
         style="stop-color:#766287;stop-opacity:1;"
         offset="0"
         id="stop5320-8-8" />
      <stop
         style="stop-color:#766287;stop-opacity:1;"
         offset="1"
         id="stop5322-1-0" />
    </linearGradient>
    <linearGradient
       inkscape:collect="always"
       xlink:href="#linearGradient5439-3-7"
       id="linearGradient9532"
       gradientUnits="userSpaceOnUse"
       gradientTransform="matrix(2.6666667,0,0,2.6666667,-1293.8381,-1523.1224)"
       x1="500.92007"
       y1="580.97955"
       x2="509.07632"
       y2="655.40179" />
    <linearGradient
       id="linearGradient5439-3-7">
      <stop
         style="stop-color:#ffffff;stop-opacity:1;"
         offset="0"
         id="stop5441-29-5" />
      <stop
         style="stop-color:#000000;stop-opacity:1;"
         offset="1"
         id="stop5443-3-1" />
    </linearGradient>
    <linearGradient
       inkscape:collect="always"
       xlink:href="#linearGradient5439-3-7"
       id="linearGradient9535"
       gradientUnits="userSpaceOnUse"
       gradientTransform="matrix(2.6666667,0,0,2.6666667,-1293.8381,-1523.1224)"
       x1="497.42068"
       y1="575.9082"
       x2="510.12534"
       y2="627.35168" />
    <linearGradient
       inkscape:collect="always"
       xlink:href="#linearGradient5439-3-7"
       id="linearGradient9538"
       gradientUnits="userSpaceOnUse"
       gradientTransform="matrix(2.6666667,0,0,2.6666667,-1293.8381,-1523.1224)"
       x1="501.65167"
       y1="578.54364"
       x2="517.6955"
       y2="644.08337" />
    <linearGradient
       inkscape:collect="always"
       xlink:href="#linearGradient5439-3-7"
       id="linearGradient9541"
       gradientUnits="userSpaceOnUse"
       gradientTransform="matrix(2.6666667,0,0,2.6666667,-1293.8381,-1523.1224)"
       x1="495.64603"
       y1="577.02094"
       x2="510.03174"
       y2="626.15326" />
    <linearGradient
       inkscape:collect="always"
       xlink:href="#linearGradient5439-3-7"
       id="linearGradient9545"
       gradientUnits="userSpaceOnUse"
       gradientTransform="matrix(2.6666667,0,0,2.6666667,-1293.8381,-1523.1224)"
       x1="494.88635"
       y1="579.75201"
       x2="514.15509"
       y2="638.97217" />
    <linearGradient
       inkscape:collect="always"
       xlink:href="#linearGradient5344-50-6"
       id="linearGradient9548"
       gradientUnits="userSpaceOnUse"
       gradientTransform="matrix(2.6666667,0,0,2.6666667,-1293.8381,-1683.1224)"
       x1="537.08398"
       y1="731.19934"
       x2="502.27975"
       y2="637.1001" />
    <linearGradient
       inkscape:collect="always"
       xlink:href="#linearGradient5316-0-9"
       id="linearGradient9551"
       gradientUnits="userSpaceOnUse"
       gradientTransform="matrix(2.6666667,0,0,2.6666667,-1293.8381,-1683.1224)"
       x1="505.92102"
       y1="635.54803"
       x2="508.99728"
       y2="673.02472" />
    <linearGradient
       inkscape:collect="always"
       xlink:href="#linearGradient5344-50-6"
       id="linearGradient9554"
       gradientUnits="userSpaceOnUse"
       gradientTransform="matrix(2.6666667,0,0,2.6666667,-1293.8381,-1683.1224)"
       x1="492.58792"
       y1="636.94122"
       x2="474.76993"
       y2="649.21399" />
    <linearGradient
       inkscape:collect="always"
       xlink:href="#linearGradient5316-0-9"
       id="linearGradient9558"
       gradientUnits="userSpaceOnUse"
       gradientTransform="matrix(2.6666667,0,0,2.6666667,-1293.8381,-1683.1224)"
       x1="506.875"
       y1="671.74292"
       x2="506.59363"
       y2="634.74292" />
    <linearGradient
       id="linearGradient5316-4">
      <stop
         style="stop-color:#766287;stop-opacity:1;"
         offset="0"
         id="stop5320-0" />
      <stop
         style="stop-color:#766287;stop-opacity:1;"
         offset="1"
         id="stop5322-0" />
    </linearGradient>
    <linearGradient
       y2="677.00159"
       x2="528.8429"
       y1="633.81464"
       x1="489.25479"
       gradientTransform="matrix(2.6765239,0,0,2.6765239,-1298.6209,-1689.8172)"
       gradientUnits="userSpaceOnUse"
       id="linearGradient3025"
       xlink:href="#linearGradient5316-4"
       inkscape:collect="always" />
  </defs>
  <sodipodi:namedview
     id="base"
     pagecolor="#ffffff"
     bordercolor="#666666"
     borderopacity="1.0"
     inkscape:pageopacity="0.0"
     inkscape:pageshadow="2"
     inkscape:zoom="1.7692308"
     inkscape:cx="116.57046"
     inkscape:cy="37.684267"
     inkscape:document-units="px"
     inkscape:current-layer="layer1"
     showgrid="false"
     inkscape:showpageshadow="false"
     inkscape:window-width="1024"
     inkscape:window-height="713"
     inkscape:window-x="0"
     inkscape:window-y="0"
     showguides="true"
     inkscape:guide-bbox="true"
     inkscape:window-maximized="0" />
  <metadata
     id="metadata7">
    <rdf:RDF>
      <cc:Work
         rdf:about="">
        <dc:format>image/svg+xml</dc:format>
        <dc:type
           rdf:resource="http://purl.org/dc/dcmitype/StillImage" />
        <dc:title />
      </cc:Work>
    </rdf:RDF>
  </metadata>
  <g
     inkscape:label="Capa 1"
     inkscape:groupmode="layer"
     id="layer1">
    <path
       style="fill:url(#linearGradient3025);fill-rule:evenodd;stroke:none;display:inline"
       d="M 4.34375 4.5 C 1.642602 5.2549939 1.1290407 7.5040698 0.84375 9.90625 L 0.90625 118.71875 L 10.1875 117.375 L 7.03125 13.9375 C 7.143498 4.9802626 5.6906145 5.0673406 4.34375 4.5 z M 4.78125 4.5 C 7.2825151 4.835422 8.1911151 6.5989131 8.75 8.65625 L 13 116.34375 C 13.160244 119.82139 14.962294 123.00135 17.25 123.75 C 17.976408 123.97763 19.237839 124.2975 19.84375 124.34375 L 20.59375 124.21875 C 21.669154 124.16885 22.755089 123.94068 24.09375 123.6875 L 114.0625 109.5 C 115.50788 109.32964 117.3373 108.01879 117.5625 105.75 L 127.3125 26.96875 L 123.53125 26.84375 L 120.5 30.0625 L 40.90625 27.6875 L 38.96875 23.46875 L 32.03125 23.21875 L 23.25 119.21875 C 23.20695 119.99562 22.996936 120.69289 22.6875 121.28125 L 21.71875 121.4375 L 21.78125 120.40625 L 19.96875 120.6875 L 20 119.8125 L 18.03125 120.09375 L 18.03125 119.5 L 16.53125 119.71875 L 16.53125 119.1875 L 15.3125 119.375 L 11.28125 19.3125 L 14.75 19.4375 L 14.75 18.84375 L 19.375 19.03125 L 19.375 18.96875 L 35.15625 19.71875 L 41.9375 20.03125 L 42.125 17.5625 L 54.6875 18.34375 L 56.1875 20.65625 L 56.375 20.65625 L 56.4375 16.46875 L 67.75 17.15625 L 70.5625 21.28125 L 71.625 21.3125 L 71.78125 16.90625 L 81.5 17.59375 L 84.90625 21.90625 L 85.6875 21.9375 L 85.5625 18.0625 L 94.09375 18.59375 L 97 22.4375 L 97.15625 22.4375 L 97.1875 22.4375 L 97.375 19.21875 L 104.96875 19.59375 L 107.4375 22.875 L 108.75 22.9375 L 108.59375 15.0625 C 108.53155 13.207267 107.43527 11.822578 105.125 11.5625 L 4.78125 4.5 z M 50.6875 43.53125 L 54.65625 43.8125 L 92.03125 46.5625 C 96.80245 46.98973 98.95408 50.95076 98.46875 54.90625 L 94.96875 85.59375 C 94.47035 89.68327 97.528 94.68876 102.5 95.625 L 61.4375 102.4375 C 59.7415 102.61894 58.16677 102.5989 57.0625 101.8125 C 52.65423 98.643703 51.2058 94.62141 51.625 90.5625 L 55.84375 53.4375 C 56.14721 50.74292 55.64065 47.45414 53.90625 45.40625 C 53.02945 44.37108 52.24617 43.68271 50.6875 43.53125 z M 58.0625 55.5 L 57.65625 59.15625 L 95.625 59 C 95.68367 58.12397 95.71117 57.46207 95.8125 56.5625 L 58.0625 55.5 z M 95.1875 61.9375 L 57.3125 62.25 L 56.90625 65.9375 L 95 64.375 C 95.05867 63.49897 95.08616 62.83707 95.1875 61.9375 z M 94.53125 67.96875 L 56.5625 69.03125 L 56.15625 72.6875 L 94.34375 70.40625 C 94.40241 69.53023 94.42992 68.86833 94.53125 67.96875 z M 93.84375 74.0625 L 56.0625 76.375 L 55.65625 80.0625 L 93.65625 76.5 C 93.71758 75.62398 93.74241 74.96208 93.84375 74.0625 z M 93.15625 80.25 L 54.84375 84.25 L 54.4375 87.90625 L 92.96875 82.75 C 92.98475 81.85989 93.12955 81.1697 93.15625 80.25 z "
       id="path7475" />
  </g>
</svg>
