<?xml version="1.0" encoding="UTF-8" standalone="no"?>
<!-- Created with Inkscape (http://www.inkscape.org/) -->

<svg
   xmlns:dc="http://purl.org/dc/elements/1.1/"
   xmlns:cc="http://creativecommons.org/ns#"
   xmlns:rdf="http://www.w3.org/1999/02/22-rdf-syntax-ns#"
   xmlns:svg="http://www.w3.org/2000/svg"
   xmlns="http://www.w3.org/2000/svg"
   xmlns:xlink="http://www.w3.org/1999/xlink"
   xmlns:sodipodi="http://sodipodi.sourceforge.net/DTD/sodipodi-0.dtd"
   xmlns:inkscape="http://www.inkscape.org/namespaces/inkscape"
   width="136.53334"
   height="136.53334"
   id="svg6934"
   sodipodi:version="0.32"
   inkscape:version="0.92.1 r15371"
   version="1.0"
   sodipodi:docname="start-here.svg"
   inkscape:output_extension="org.inkscape.output.svg.inkscape">
  <defs
     id="defs6936">
    <linearGradient
       inkscape:collect="always"
       xlink:href="#linearGradient5344"
       id="linearGradient3105"
       x1="7.9531264"
       y1="2.2416961"
       x2="13.667412"
       y2="-64.464973"
       gradientUnits="userSpaceOnUse"
       gradientTransform="matrix(1.0666667,0,0,1.0666667,-4.3041915e-8,149.33333)" />
    <linearGradient
       id="linearGradient5344">
      <stop
         style="stop-color:#000000;stop-opacity:1;"
         offset="0"
         id="stop5346" />
      <stop
         style="stop-color:#000000;stop-opacity:0;"
         offset="1"
         id="stop5348" />
    </linearGradient>
    <linearGradient
       inkscape:collect="always"
       xlink:href="#linearGradient5165-7-9-8-2"
       id="linearGradient3103"
       x1="22.933788"
       y1="-144.76825"
       x2="18.618809"
       y2="-96.331688"
       gradientUnits="userSpaceOnUse"
       gradientTransform="matrix(1.0666667,0,0,1.0666667,-4.3041915e-8,149.33333)" />
    <linearGradient
       id="linearGradient5165-7-9-8-2">
      <stop
         id="stop5167-4-8-6-9"
         style="stop-color:#ffffff;stop-opacity:1"
         offset="0" />
      <stop
         id="stop5169-5-5-2-9"
         style="stop-color:#ffffff;stop-opacity:0"
         offset="1" />
    </linearGradient>
    <linearGradient
       inkscape:collect="always"
       xlink:href="#linearGradient5344"
       id="linearGradient3107"
       gradientUnits="userSpaceOnUse"
       gradientTransform="matrix(5.6896682,0,0,5.6896682,-1548.2455,-6255.5279)"
       x1="305.23422"
       y1="1137.0681"
       x2="283.35095"
       y2="1104.2024" />
    <linearGradient
       inkscape:collect="always"
       xlink:href="#linearGradient5316"
       id="linearGradient4454"
       x1="6.5963445"
       y1="25.086559"
       x2="117.48683"
       y2="107.41399"
       gradientUnits="userSpaceOnUse"
       gradientTransform="scale(1.0666667)" />
    <linearGradient
       id="linearGradient5316">
      <stop
         style="stop-color:#87c7ff;stop-opacity:1;"
         offset="0"
         id="stop5320" />
      <stop
         style="stop-color:#74aadb;stop-opacity:1;"
         offset="1"
         id="stop5322" />
    </linearGradient>
  </defs>
  <sodipodi:namedview
     id="base"
     pagecolor="#ffffff"
     bordercolor="#666666"
     borderopacity="1.0"
     inkscape:pageopacity="0.0"
     inkscape:pageshadow="2"
     inkscape:zoom="1.6411629"
     inkscape:cx="-61.269119"
     inkscape:cy="98.745157"
     inkscape:document-units="px"
     inkscape:current-layer="layer1"
     showgrid="false"
     inkscape:window-width="1366"
     inkscape:window-height="714"
     inkscape:window-x="0"
     inkscape:window-y="26"
     inkscape:window-maximized="1" />
  <metadata
     id="metadata6939">
    <rdf:RDF>
      <cc:Work
         rdf:about="">
        <dc:format>image/svg+xml</dc:format>
        <dc:type
           rdf:resource="http://purl.org/dc/dcmitype/StillImage" />
        <dc:title />
      </cc:Work>
    </rdf:RDF>
  </metadata>
  <g
     inkscape:label="Capa 1"
     inkscape:groupmode="layer"
     id="layer1">
    <path
       style="fill:url(#linearGradient4454);fill-opacity:1;fill-rule:evenodd;stroke:none;stroke-width:1.06666672"
       d="m 36.5,5.4000032 c -1.417888,0.059093 -2.720594,0.298304 -3.9,0.6666667 l -19.566667,2.9 H 12.5 v 0.2 C 6.403466,10.285678 3.2666667,15.131449 3.2666667,21.06667 V 111.4 C 3.191744,117.42908 5.4534439,122.16821 10,123.66667 L 30.233333,130 c 0.02226,0.0109 0.0443,0.0226 0.06667,0.0334 2.018902,0.96994 4.442053,1.31466 7.233333,0.86666 l 83.499994,-12.6 c 6.10189,-0.66105 10.09792,-6.46819 9.76667,-14.53333 l 0.43333,-79.233383 c 0.23732,-6.36303 -2.98846,-11.707968 -9.96666,-12.766667 L 38.233333,5.4333365 C 37.639936,5.4042165 37.05673,5.3768032 36.5,5.3999499 Z"
       id="path30949"
       inkscape:connector-curvature="0" />
    <path
       style="fill:url(#linearGradient3107);fill-rule:evenodd;stroke:none;stroke-width:1.06666672"
       d="M 31.2,17.833337 31.16667,120.66667 c 0.478612,3.68883 1.501382,8.66619 4.633333,10.4 0.56227,-0.0244 1.13867,-0.0713 1.733333,-0.16667 l 83.499994,-12.6 c 6.10189,-0.66106 10.09792,-6.46819 9.76667,-14.53333 l 0.43333,-79.233333 c 0.23728,-6.36303 -2.98846,-11.707968 -9.96666,-12.766667 L 40.19035,5.582606 C 35.954335,5.133891 31.213801,10.681881 31.2,17.833337 Z m 0.966667,112.833333 c 0.691161,0.18296 1.40232,0.34791 2.166666,0.4 z"
       id="path30953"
       inkscape:connector-curvature="0"
       sodipodi:nodetypes="ccccccccccccc" />
    <path
       style="display:inline;fill:url(#linearGradient3103);fill-rule:evenodd;stroke:none;stroke-width:1.06666672"
       d="m 37.1,5.6666699 -24.066667,3.3 H 12.5 v 0.2 C 6.4034656,10.285678 3.2666667,15.131449 3.2666667,21.06667 V 47.733337 H 31.2 v -29.9 C 31.570188,12.588771 33.625668,7.2053045 37.1,5.6666699 Z"
       id="path3073"
       inkscape:connector-curvature="0" />
    <path
       style="display:inline;fill:url(#linearGradient3105);fill-rule:evenodd;stroke:none;stroke-width:1.06666672"
       d="M 3.2666667,72.96667 V 111.4 C 3.191744,117.42908 5.4534443,122.16821 10,123.66667 l 18.833333,6.43333 8,1.4 C 32.8751,130.38546 31.69472,124.73655 31.166667,120.66667 v -47.7 z"
       id="path3081"
       inkscape:connector-curvature="0" />
    <path
       inkscape:connector-curvature="0"
       id="path30957"
       d="M 38.213346,5.4233952 C 36.363347,5.3324085 34.727917,5.5656139 33.23489,5.9581472 L 12.432043,9.1587232 C 6.3355143,10.277731 3.1863319,15.136035 3.1863319,21.071257 v 90.323663 c -0.074923,6.02908 2.2099238,10.77021 6.7564798,12.26866 l 20.9806473,6.57806 c 1.911724,0.78962 4.026654,1.12128 6.57868,0.71168 l 83.567001,-12.62421 c 6.10189,-0.66048 10.11037,-6.51435 9.77912,-14.57949 l 0.35561,-79.300294 c 0.23728,-6.363029 -2.97871,-11.564949 -9.95692,-12.623648 L 38.213353,5.4245365 Z"
       style="display:inline;fill:none;stroke:#344b63;stroke-width:2.84483409;stroke-linecap:butt;stroke-linejoin:miter;stroke-miterlimit:4;stroke-dasharray:none;stroke-opacity:1"
       sodipodi:nodetypes="ccccccccccccc" />
    <path
       inkscape:connector-curvature="0"
       id="path867"
       d="m 107.31055,16.681743 c -1.29949,0.07916 -2.61885,0.649362 -3.27149,1.904297 L 82.65625,47.871196 65.417969,47.816508 c -4.854171,4.365697 -9.297075,9.075571 -13.009766,13.826172 -13.188818,16.953421 -16.199163,35.291442 2.738281,51.08398 9.574859,9.02233 36.888541,7.39131 52.453126,-0.875 13.76204,-8.72805 15.99033,-23.164594 10.67383,-37.124996 -6.42121,-5.696965 -27.431012,-5.055605 -60.726565,-9.929687 -3.626692,-0.561476 -3.298015,-2.261909 0.484375,-1.71875 17.608146,1.993813 37.040527,2.94969 53.16211,-1.123047 -0.046,-0.06216 -0.0885,-0.125446 -0.13477,-0.1875 -4.18392,-5.133493 -8.74303,-10.711803 -14.003902,-13.86914 l -7.933594,-0.02734 18.837886,-24.708985 2.5254,-3.683593 c 1.10498,-1.696774 -1.00803,-2.928814 -3.17383,-2.796875 z"
       style="fill:#000000;stroke:#000000;stroke-width:5;stroke-miterlimit:4;stroke-dasharray:none;stroke-opacity:0.45909092;fill-opacity:0.53636366" />
    <path
       style="fill:#ffffff;stroke:none;stroke-width:1.06666672"
       d="m 109.31055,16.681743 c -1.29949,0.07916 -2.61885,0.649362 -3.27149,1.904297 L 84.65625,47.871196 67.417969,47.816508 c -4.854171,4.365697 -9.297075,9.075571 -13.009766,13.826172 -13.188818,16.953421 -16.199163,35.291442 2.738281,51.08398 9.574859,9.02233 36.888541,7.39131 52.453126,-0.875 13.76204,-8.72805 15.99033,-23.164594 10.67383,-37.124996 -6.42121,-5.696965 -27.431012,-5.055605 -60.726565,-9.929687 -3.626692,-0.561476 -3.298015,-2.261909 0.484375,-1.71875 17.608146,1.993813 37.040527,2.94969 53.16211,-1.123047 -0.046,-0.06216 -0.0885,-0.125446 -0.13477,-0.1875 -4.18392,-5.133493 -8.74303,-10.711803 -14.003902,-13.86914 l -7.933594,-0.02734 18.837886,-24.708985 2.5254,-3.683593 c 1.10498,-1.696774 -1.00803,-2.928814 -3.17383,-2.796875 z"
       id="path32368"
       inkscape:connector-curvature="0" />
  </g>
</svg>
