<?xml version="1.0" encoding="UTF-8" standalone="no"?>
<!-- Created with Inkscape (http://www.inkscape.org/) -->

<svg
   xmlns:dc="http://purl.org/dc/elements/1.1/"
   xmlns:cc="http://creativecommons.org/ns#"
   xmlns:rdf="http://www.w3.org/1999/02/22-rdf-syntax-ns#"
   xmlns:svg="http://www.w3.org/2000/svg"
   xmlns="http://www.w3.org/2000/svg"
   xmlns:xlink="http://www.w3.org/1999/xlink"
   xmlns:sodipodi="http://sodipodi.sourceforge.net/DTD/sodipodi-0.dtd"
   xmlns:inkscape="http://www.inkscape.org/namespaces/inkscape"
   width="136.53334"
   height="136.53334"
   id="svg6934"
   sodipodi:version="0.32"
   inkscape:version="0.92.1 r15371"
   version="1.0"
   sodipodi:docname="start-here-symbolic celeste.svg"
   inkscape:output_extension="org.inkscape.output.svg.inkscape">
  <defs
     id="defs6936">
    <linearGradient
       inkscape:collect="always"
       xlink:href="#linearGradient5316"
       id="linearGradient1459"
       gradientUnits="userSpaceOnUse"
       x1="9.495225"
       y1="-3.1310093"
       x2="75.466797"
       y2="104.28125" />
    <linearGradient
       id="linearGradient5316">
      <stop
         style="stop-color:#c0bfbb;stop-opacity:1;"
         offset="0"
         id="stop5320" />
      <stop
         style="stop-color:#798088;stop-opacity:1;"
         offset="1"
         id="stop5322" />
    </linearGradient>
  </defs>
  <sodipodi:namedview
     id="base"
     pagecolor="#ffffff"
     bordercolor="#666666"
     borderopacity="1.0"
     inkscape:pageopacity="0.0"
     inkscape:pageshadow="2"
     inkscape:zoom="4.0264091"
     inkscape:cx="67.254267"
     inkscape:cy="68.244255"
     inkscape:document-units="px"
     inkscape:current-layer="layer1"
     showgrid="false"
     inkscape:window-width="1366"
     inkscape:window-height="714"
     inkscape:window-x="0"
     inkscape:window-y="26"
     inkscape:window-maximized="1" />
  <metadata
     id="metadata6939">
    <rdf:RDF>
      <cc:Work
         rdf:about="">
        <dc:format>image/svg+xml</dc:format>
        <dc:type
           rdf:resource="http://purl.org/dc/dcmitype/StillImage" />
        <dc:title></dc:title>
      </cc:Work>
    </rdf:RDF>
  </metadata>
  <g
     inkscape:label="Capa 1"
     inkscape:groupmode="layer"
     id="layer1">
    <path
       style="fill:url(#linearGradient1459);fill-opacity:1;fill-rule:evenodd;stroke:none;stroke-width:1.06666672"
       d="M 39.998047 5.578125 C 37.878341 6.396493 36.158816 7.9325495 34.833984 9.9316406 C 33.132418 13.192557 32.103944 16.146676 32.117188 19.480469 L 32.519531 120.53125 C 33.019162 125.90816 34.479176 128.75318 36.732422 131 C 36.995926 130.9744 37.2623 130.94379 37.533203 130.90039 L 121.0332 118.30078 C 123.70278 118.01157 125.96908 116.7361 127.64648 114.71875 C 128.12574 114.14236 128.55681 113.50653 128.93555 112.81445 C 130.26114 110.39219 130.9457 107.29608 130.80078 103.76758 L 131.23242 24.533203 C 131.46974 18.170173 128.24578 12.826277 121.26758 11.767578 L 41.521484 5.6835938 L 40.189453 5.5820312 C 40.184953 5.5815516 40.180351 5.5824974 40.175781 5.5820312 C 40.116851 5.5759713 40.05714 5.5819012 39.998047 5.578125 z M 32.966797 5.9472656 C 25.957636 6.7107112 16.045752 8.3556349 11.996094 8.9667969 C 5.8826774 10.186574 3.367109 15.777336 3.265625 21.066406 L 3.265625 72.966797 L 3.265625 104.98438 L 3.265625 111.40039 C 3.194793 117.42947 5.334487 122.16756 9.6328125 123.66602 L 27.4375 130.09961 L 31.572266 130.86523 C 29.970653 128.33071 28.81841 125.13168 28.427734 120.85156 L 28.419922 120.76367 L 28.015625 18.691406 L 28.015625 18.664062 C 28.098955 14.901174 29.23588 10.95571 31.416016 7.6660156 C 31.790508 7.1009284 32.746264 6.2076947 32.966797 5.9472656 z M 104.19727 19.488281 C 107.30431 19.469161 110.14522 19.947582 112.65625 20.951172 A 4.4574455 4.4574455 0 1 1 109.34766 29.228516 C 108.04897 28.709456 106.37905 28.377084 104.20117 28.396484 L 104.13672 28.396484 L 104.07227 28.394531 C 99.586852 28.305541 96.487127 30.148241 93.960938 33.707031 C 91.434736 37.265821 89.835938 42.681896 89.835938 48.822266 L 89.835938 57.423828 L 100.85938 57.220703 C 100.96736 57.216703 101.07553 57.21575 101.18359 57.21875 C 107.27531 57.39954 107.16269 66.487778 101.06836 66.517578 L 90.609375 66.796875 L 90.931641 80.535156 L 90.931641 80.59375 C 90.931641 88.76157 89.167128 96.174347 85.455078 102.05078 C 81.760738 107.89917 75.886389 112.11968 68.787109 113.17969 C 63.882619 114.07941 59.063845 113.96368 54.703125 112.33594 A 5.0005 5.0005 0 1 1 58.199219 102.96875 C 60.432819 103.8025 63.447621 104.01429 67.056641 103.3418 L 67.15625 103.32227 L 67.257812 103.30859 C 71.511994 102.69266 74.58271 100.53766 77 96.710938 C 79.41606 92.886146 80.929641 87.296016 80.931641 80.603516 L 80.613281 67.0625 L 67.398438 67.414062 C 61.083227 67.685094 60.868793 57.861344 67.189453 57.839844 L 80.921875 57.587891 L 80.921875 48.822266 C 80.921875 41.186536 82.791059 34.044245 86.693359 28.546875 C 90.585949 23.063145 96.858302 19.361711 104.19727 19.488281 z M 118.41797 28.28125 A 4.4574455 4.4574455 0 0 1 122.53906 31.171875 C 124.09645 35.152895 124.52056 39.544885 124.29883 44.021484 C 124.07546 52.089101 120.17392 58.9296 113.54102 62.570312 A 4.4574455 4.4574455 0 1 1 109.25195 54.755859 C 113.41507 52.470777 115.2432 49.480781 115.39258 43.748047 L 115.39453 43.691406 L 115.39844 43.636719 C 115.58233 40.032327 115.17037 36.80254 114.23828 34.419922 A 4.4574455 4.4574455 0 0 1 118.41797 28.28125 z M 57.232422 60.386719 A 5.0005 5.0005 0 0 1 59.542969 69.867188 C 53.289401 73.07622 51.538416 79.125174 51.326172 86.332031 L 51.324219 86.404297 L 51.318359 86.476562 C 51.011643 91.728099 51.761628 95.503802 52.955078 98.015625 A 5.0005 5.0005 0 1 1 43.923828 102.30859 C 41.800399 97.839472 40.971572 92.385082 41.337891 85.962891 C 41.616607 76.994826 44.682973 66.253884 54.978516 60.970703 A 5.0005 5.0005 0 0 1 57.232422 60.386719 z "
       id="path4493" />
  </g>
</svg>
