<?xml version="1.0" encoding="UTF-8" standalone="no"?>
<!-- Created with Inkscape (http://www.inkscape.org/) -->

<svg
   xmlns:dc="http://purl.org/dc/elements/1.1/"
   xmlns:cc="http://creativecommons.org/ns#"
   xmlns:rdf="http://www.w3.org/1999/02/22-rdf-syntax-ns#"
   xmlns:svg="http://www.w3.org/2000/svg"
   xmlns="http://www.w3.org/2000/svg"
   xmlns:xlink="http://www.w3.org/1999/xlink"
   xmlns:sodipodi="http://sodipodi.sourceforge.net/DTD/sodipodi-0.dtd"
   xmlns:inkscape="http://www.inkscape.org/namespaces/inkscape"
   width="136.53334"
   height="136.53334"
   id="svg8156"
   version="1.1"
   inkscape:version="0.92.1 r15371"
   sodipodi:docname="start-here-symbolic.svg">
  <defs
     id="defs8158">
    <linearGradient
       inkscape:collect="always"
       xlink:href="#jaca"
       id="linearGradient3431"
       gradientUnits="userSpaceOnUse"
       gradientTransform="matrix(2.8444445,0,0,2.8444445,-1390.243,-1688.2497)"
       x1="493.72034"
       y1="944.05688"
       x2="533.07172"
       y2="985.46356" />
    <linearGradient
       id="jaca">
      <stop
         id="stop8362"
         offset="0"
         style="stop-color:#b995da;stop-opacity:1" />
      <stop
         id="stop8364"
         offset="1"
         style="stop-color:#766287;stop-opacity:1" />
    </linearGradient>
  </defs>
  <sodipodi:namedview
     id="base"
     pagecolor="#ffffff"
     bordercolor="#666666"
     borderopacity="1.0"
     inkscape:pageopacity="0.0"
     inkscape:pageshadow="2"
     inkscape:zoom="1.979899"
     inkscape:cx="19.651309"
     inkscape:cy="61.610158"
     inkscape:document-units="px"
     inkscape:current-layer="layer1"
     showgrid="false"
     inkscape:window-width="1366"
     inkscape:window-height="714"
     inkscape:window-x="0"
     inkscape:window-y="26"
     inkscape:window-maximized="1" />
  <metadata
     id="metadata8161">
    <rdf:RDF>
      <cc:Work
         rdf:about="">
        <dc:format>image/svg+xml</dc:format>
        <dc:type
           rdf:resource="http://purl.org/dc/dcmitype/StillImage" />
        <dc:title />
      </cc:Work>
    </rdf:RDF>
  </metadata>
  <g
     inkscape:label="Capa 1"
     inkscape:groupmode="layer"
     id="layer1"
     transform="translate(0,-985.98633)">
    <path
       style="display:inline;fill:url(#linearGradient3431);stroke:none;stroke-width:1.06666672"
       d="m 42.733333,995.21966 c -0.03484,-1.7e-4 -0.06754,0.023 -0.1,0.0333 -0.0084,9.1e-4 -0.02481,-9.2e-4 -0.03333,0 -0.0317,0.0135 -0.07092,0.009 -0.1,0.0333 -2.581347,0.27948 -7.694908,0.90878 -8.166667,1 -0.5886,0.11381 -0.819782,1.45589 -0.133333,5.39994 0.46664,2.6812 1.857079,13.1265 3.466667,25.1667 0.757077,5.663 1.441518,11.1099 2.3,17.3333 8.91e-4,0.01 0.104042,0.027 0.133333,0.033 -0.515511,0.3513 -1.056867,0.7119 -1.566667,1.1 -6.17586,-8.0785 -12.767004,-14.3016 -16.866666,-18.6334 -2.982541,-3.1514 -5.385021,-5.3073 -6,-5 -2.74927,0.07 -7.5816963,0.143 -8.0000003,0.2667 -0.5175467,0.153 -0.010635,1.7187 2.0666666,5.3 4.5494827,7.7416 9.2174507,15.2124 13.5333337,23 0.194711,0.3513 0.373454,0.7142 0.566666,1.0667 0.5206,0.9496 1.024234,1.9067 1.533334,2.8666 0.673337,1.2698 1.349132,2.5397 2,3.8334 -0.125449,0.2001 -0.242215,0.3963 -0.366667,0.6 -0.341572,0.5581 -0.69954,1.1153 -1.033333,1.7 -0.051,0.089 -0.115862,0.1766 -0.166667,0.2666 -2.855636,-1.4859 -5.515817,-2.7508 -8.033333,-4.0333 -3.42494,-1.7448 -6.296824,-2.9342 -7.333334,-2.8667 -0.0089,-8e-4 -0.02479,5e-4 -0.03333,0 -1.6991861,-0.096 -8.090688,-0.9406 -8.7333333,-0.6 -0.4882208,0.2588 1.1488672,2.4333 3.7666666,5.3334 1.6474193,1.825 4.9148007,5.6299 10.9999997,10.7333 -0.0017,0.011 0.0017,0.023 0,0.033 0.557858,0.4677 1.126789,0.9113 1.733334,1.4 0.661273,0.5344 1.344837,1.0746 2.066666,1.6334 0.06646,0.051 0.133016,0.1152 0.2,0.1666 l 0.233334,0.1667 c 0.58709,0.449 1.172537,0.9034 1.8,1.3667 0.633513,0.4692 1.323989,0.9837 2,1.4666 0.208544,0.1485 0.420672,0.2837 0.633333,0.4334 1.650722,1.166 3.357372,2.3332 5.266667,3.5666 l 8.466666,1.1667 v -0.033 h 0.03333 l 0.03333,0.033 c 0.2688,-1.2221 0.571865,-2.4453 0.9,-3.5667 0.423253,-1.4465 0.819883,-2.783 1.333333,-4.0666 4.433051,-11.083 12.048861,-16.2225 19.733334,-17.0667 0.279198,0.077 0.557401,0.1792 0.833333,0.2667 0.04331,0.014 0.09011,0.019 0.133333,0.033 0.108593,0.035 0.225294,0.063 0.333334,0.1 0.612344,0.208 1.207694,0.4429 1.8,0.7 0.09995,0.043 0.20068,0.089 0.3,0.1333 0.04548,0.021 0.08799,0.046 0.133333,0.067 0.295799,0.1354 0.576921,0.2527 0.866667,0.4 0.25154,0.1278 0.520027,0.2634 0.766666,0.4 0.07782,0.043 0.15602,0.089 0.233334,0.1333 0.25044,0.1425 0.488459,0.2819 0.733333,0.4334 0.08026,0.05 0.1537,0.116 0.233333,0.1666 0.240396,0.1528 0.49883,0.3054 0.733334,0.4667 0.06685,0.046 0.133649,0.087 0.2,0.1333 0.243154,0.171 0.463747,0.3533 0.7,0.5334 0.365817,0.2789 0.718552,0.5665 1.066666,0.8666 0.22673,0.1953 0.447927,0.3961 0.666667,0.6 0.330419,0.3082 0.655591,0.6059 0.966667,0.9334 0.725515,0.7645 1.39197,1.6035 2,2.4666 0.04012,0.057 0.09376,0.1094 0.133333,0.1667 0.174207,0.2527 0.336734,0.5062 0.5,0.7667 0.03493,0.056 0.06558,0.1106 0.1,0.1666 0.165328,0.2691 0.346749,0.5563 0.5,0.8334 0.02414,0.044 0.04284,0.089 0.06667,0.1333 0.157328,0.2894 0.289642,0.569 0.433333,0.8667 0.02188,0.045 0.04512,0.088 0.06667,0.1333 0.07314,0.1544 0.130624,0.3101 0.2,0.4667 0.08258,0.1862 0.189513,0.3774 0.266666,0.5666 0.126342,0.3108 0.255396,0.6481 0.366667,0.9667 0.0151,0.043 0.01852,0.09 0.03333,0.1333 0.109944,0.3219 0.205942,0.6373 0.3,0.9667 0.01265,0.044 0.02098,0.089 0.03333,0.1333 0.09214,0.3313 0.191102,0.6615 0.266666,1 0.0099,0.044 0.02366,0.089 0.03333,0.1334 0.07351,0.3401 0.143736,0.6861 0.2,1.0333 0.02638,0.1634 0.04419,0.3351 0.06667,0.5 0.08574,0.6267 0.139332,1.2527 0.166667,1.9 0.0014,0.034 -0.0013,0.066 0,0.1 0.01409,0.3765 0.0065,0.7503 0,1.1333 -5.39e-4,0.034 6.99e-4,0.066 0,0.1 -7.1e-4,0.033 8.65e-4,0.067 0,0.1 -0.02867,1.1217 -0.151563,2.2621 -0.366667,3.4334 -0.01425,0.078 -0.01822,0.1553 -0.03333,0.2333 -0.0021,0.011 0.0021,0.022 0,0.033 -0.0833,0.427 -0.190566,0.834 -0.3,1.2667 -0.0052,0.021 0.0053,0.046 0,0.067 -0.221701,0.8673 -0.502263,1.7452 -0.833333,2.6333 -0.0036,0.01 0.0036,0.024 0,0.033 -0.166463,0.445 -0.371643,0.8837 -0.566667,1.3334 l 11.933333,2.6666 c 8.474733,1.6593 16.890656,3.0686 23.733336,3.7334 2.25664,0.3456 4.47022,0.6544 6.6,0.9 3.92115,0.4416 7.39518,0.6634 10.16666,0.5666 5.47852,-0.1911 9.34939,-0.7825 0.16667,-3.3666 -8.88323,-2.4999 -12.85988,-4.7103 -29.066666,-10.4 0.271072,-1.7898 0.430635,-3.5173 0.433334,-5.2667 12.460492,-3.8698 24.065222,-9.3467 29.266662,-12.8 4.15728,-2.76 7.24063,-6.3114 5.46667,-6.9333 -0.005,-0.022 -0.01,-0.055 -0.0334,-0.067 -0.0225,-0.022 -0.039,-0.031 -0.0999,-0.033 -0.91408,-0.038 -2.7456,-0.1436 -4.46667,-0.2334 -1.72802,-0.1 -3.37059,-0.1929 -3.9,-0.2 -0.84405,-0.011 -2.64735,0.5177 -4.86667,1.3667 -0.0142,0.01 -0.0191,0.028 -0.0334,0.033 -0.72861,0.2794 -1.49967,0.5916 -2.3,0.9334 -0.014,0.01 -0.0193,0.027 -0.0334,0.033 -0.60416,0.2544 -1.67497,0.5551 -3,0.9333 -0.68701,0.201 -1.44785,0.408 -2.3,0.6334 -0.69353,0.1817 -1.27549,0.3463 -2.03333,0.5333 -0.0969,0.024 -0.1685,0.043 -0.26667,0.067 -1.75798,0.4356 -3.80074,0.8969 -5.93333,1.3666 -2.43587,0.5285 -5.021908,1.047 -7.733336,1.5667 -0.493991,-1.3449 -1.078785,-2.6304 -1.733333,-3.9 13.495639,-8.3835 25.244389,-19.0348 30.333329,-24.6333 3.29905,-3.6294 5.50869,-7.5802 4.43334,-8.3334 -0.0598,-0.083 -0.16918,-0.1277 -0.33334,-0.1333 -0.10799,-0.013 -0.22753,-0.019 -0.36666,0 -1.70594,-0.035 -7.26709,0.056 -7.96667,0.1 -0.12297,0.01 -0.27265,0.031 -0.43333,0.067 -0.0508,0.01 -0.11181,0.02 -0.16667,0.033 -0.29216,0.077 -0.62314,0.1838 -1.03333,0.3667 -0.0145,0.01 -0.0187,0.027 -0.0334,0.033 -0.12236,0.055 -0.26671,0.1342 -0.4,0.2 -1.19002,0.5643 -2.82173,1.5309 -5,3.2333 -2.01253,1.5729 -7.28479,4.8197 -14.499999,8.9 -3.517375,1.9961 -7.49359,4.1927 -11.866667,6.5 7.632756,-10.4164 11.476716,-20.8978 18.633336,-32.0333 3.05729,-4.7571 4.97928,-9.9613 3.06666,-9.3 -0.28092,0.013 -1.1877,0.078 -1.9,0.1333 -0.87928,0.069 -1.2748,0.1131 -2.33333,0.2 -1.77415,0.1428 -3.55515,0.2485 -3.7,0.2334 -0.27685,-0.029 -0.69375,0.1417 -1.3,0.5666 -0.601921,0.424 -1.357938,1.1004 -2.333332,2.1334 -0.320478,0.3361 -0.67148,0.6894 -1.033334,1.1 -0.0058,0.01 0.0058,0.027 0,0.033 -0.357331,0.4059 -0.768183,0.8504 -1.166666,1.3333 -0.808368,0.9797 -2.160336,2.6813 -4,4.9334 -3.182242,3.8776 -7.369104,8.9103 -13.133334,15.3666 -0.119393,0.1336 -0.246378,0.2658 -0.366666,0.4 -0.789829,0.8784 -1.539681,1.731 -2.366667,2.6334 -0.04945,0.054 -0.08375,0.1124 -0.133333,0.1666 -0.382698,0.4171 -0.809796,0.8453 -1.2,1.2667 -0.189351,0.2052 -0.375604,0.4272 -0.566667,0.6333 4.407246,-13.4039 4.847325,-24.0653 5.533333,-30.9666 0.382114,-3.84447 0.31509,-6.73095 -0.233333,-7.70001 -0.02758,-0.084 -0.08382,-0.14646 -0.133333,-0.2 -0.0345,-0.0392 -0.06247,-0.0734 -0.1,-0.1 -0.0093,-0.005 -0.0235,0.004 -0.03333,0 -0.13606,-0.0861 -0.291822,-0.0864 -0.466666,0 -2.415551,0.24888 -7.510888,0.93875 -8,0.8 -0.687161,-0.19499 -1.826993,1.22197 -3.4,5.53331 -1.385305,3.7969 -5.885344,14.7911 -11.466667,31.1667 -3.41362,-12.9832 -7.375569,-23.851 -9.39984,-30.5667 -1.245298,-4.13139 -2.740896,-7.02782 -3.566667,-7.03331 z m 14.3,72.73334 c -0.332007,-0.01 -0.635474,0 -0.966666,0.033 -0.459125,0.042 -0.920426,0.1132 -1.366667,0.2 -0.27069,0.053 -0.53505,0.1317 -0.8,0.2 -0.293072,0.076 -0.581596,0.1722 -0.866667,0.2667 -0.08691,0.029 -0.18056,0.036 -0.266666,0.067 -0.485852,0.172 -0.942876,0.3751 -1.4,0.6 -0.171303,0.084 -0.333215,0.1756 -0.5,0.2666 -0.147294,0.081 -0.289776,0.1807 -0.433334,0.2667 -0.295087,0.1767 -0.588577,0.3343 -0.866666,0.5333 -0.333234,0.2377 -0.626972,0.4986 -0.933334,0.7667 -0.04141,0.036 -0.09245,0.063 -0.133333,0.1 -0.344222,0.3097 -0.694967,0.62 -1,0.9667 -0.04293,0.049 -0.05789,0.117 -0.1,0.1666 -0.102677,0.1206 -0.202329,0.242 -0.3,0.3667 -0.05323,0.068 -0.114975,0.1306 -0.166667,0.2 -0.120347,0.161 -0.221497,0.3326 -0.333333,0.5 -0.188086,0.2821 -0.370704,0.5672 -0.533333,0.8667 -0.901089,1.6548 -1.406247,3.5733 -1.366667,5.6666 0.03068,1.6226 0.360693,3.1682 0.966667,4.5667 -0.01003,-1e-4 -0.02334,10e-5 -0.03333,0 0.06551,0.1515 0.160932,0.2859 0.233334,0.4333 0.08242,0.1686 0.141891,0.3371 0.233333,0.5 0.02702,0.048 0.07219,0.086 0.1,0.1334 0.156227,0.2673 0.318767,0.5165 0.5,0.7666 0.03794,0.053 0.06095,0.115 0.1,0.1667 0.0094,0.012 0.02392,0.021 0.03333,0.033 0.02853,0.037 0.07088,0.063 0.1,0.1 0.149115,0.1889 0.302241,0.3897 0.466667,0.5667 0.0536,0.058 0.111433,0.1103 0.166667,0.1667 0.231196,0.2357 0.4734,0.4554 0.733333,0.6666 0.07922,0.065 0.151423,0.1379 0.233333,0.2 0.169258,0.1283 0.352558,0.2492 0.533334,0.3667 0.121801,0.079 0.239611,0.1592 0.366666,0.2333 0.0083,0 0.02501,0 0.03333,0 0.208162,0.1206 0.411081,0.2603 0.633333,0.3667 0.0549,0.026 0.110909,0.041 0.166667,0.067 0.185244,0.084 0.371871,0.159 0.566666,0.2333 0.409041,0.1564 0.848504,0.2911 1.3,0.4 0.323425,0.077 0.654676,0.1486 1,0.2 1.087858,0.1619 4.639198,0.8258 6.8,1.2 0.0099,0 0.02348,0 0.03333,0 0.02193,0 0.0451,0.03 0.06667,0.033 0.667086,0.1731 1.36574,0.2573 2.066667,0.3 1.682209,0.2046 2.577279,0.1835 2.933333,-0.2333 0.144444,-0.031 0.288765,-0.03 0.433334,-0.067 6.073154,-1.5339 9.916409,-7.8299 8.566666,-14.0333 l -0.06667,-0.2333 c -1.037305,-4.3173 -4.328038,-7.3825 -8.3,-8.2667 -0.167385,-0.059 -0.33251,-0.1098 -0.533334,-0.1333 -0.03709,0 -0.09547,0 -0.133333,0 -0.08879,-0.014 -0.177334,-0.022 -0.266667,-0.033 -0.05995,-0.01 -0.138517,-0.027 -0.2,-0.033 -2.137282,-0.228 -5.110082,-0.4271 -6.5,-0.6 -0.330097,-0.041 -0.667992,-0.094 -1,-0.1 z m -14.666666,28.3 c -0.146923,0.3168 -0.300833,0.6025 -0.466667,0.9 -0.14117,0.2533 -0.279026,0.4935 -0.433333,0.7333 -0.02696,0.042 -0.03932,0.092 -0.06667,0.1334 -0.08825,0.1343 -0.174386,0.2697 -0.266667,0.4 -0.102208,0.144 -0.22631,0.2942 -0.333333,0.4333 -0.137837,0.179 -0.287753,0.3622 -0.433333,0.5333 -0.06195,0.073 -0.136683,0.1288 -0.2,0.2 -0.203197,0.2291 -0.383184,0.4515 -0.6,0.6667 -0.02201,0.022 -0.04452,0.045 -0.06667,0.067 -0.09387,0.092 -0.203716,0.1771 -0.3,0.2666 -0.142251,0.1325 -0.285946,0.2729 -0.433333,0.4 -0.03513,0.03 -0.0646,0.07 -0.1,0.1 -0.21271,0.1801 -0.410638,0.3301 -0.633334,0.5 -0.107624,0.082 -0.223455,0.1532 -0.333333,0.2333 -0.161084,0.1172 -0.334242,0.2543 -0.5,0.3667 -0.05365,0.036 -0.112542,0.064 -0.166667,0.1 -0.458449,0.304 -0.90949,0.5958 -1.4,0.8667 -0.04426,0.024 -0.08883,0.042 -0.133333,0.067 -0.595939,0.3239 -1.23061,0.6176 -1.866667,0.9 -0.0909,0.04 -0.175025,0.094 -0.266666,0.1333 -0.206684,0.089 -0.423046,0.1478 -0.633334,0.2333 -0.597128,0.2429 -1.210663,0.4839 -1.833333,0.7 -0.4175,0.1448 -0.839652,0.2986 -1.266667,0.4334 -8.13379,2.5697 -17.825988,3.4403 -23.733333,8.0666 3.3987291,1.0732 5.300769,1.6267 8.866667,2.5667 0.01225,0 0.02105,0 0.03333,0 6.296668,1.9643 15.503469,1.1672 26.5,-1.3333 1.085017,-0.368 2.036733,-0.7857 2.9,-1.2334 0.275614,-0.1426 0.543531,-0.2826 0.8,-0.4333 0.152619,-0.09 0.287023,-0.1742 0.433333,-0.2667 0.362779,-0.2285 0.705579,-0.4539 1.033334,-0.7 0.01943,-0.015 0.04735,-0.019 0.06667,-0.033 0.371195,-0.2815 0.699846,-0.5956 1.033334,-0.9 0.05638,-0.051 0.111227,-0.1146 0.166666,-0.1666 0.01056,0 0.02276,0 0.03333,0 3.259553,-3.0768 4.913412,-7.2889 8.833333,-12.6334 -2.083613,0.1511 -3.860377,-0.1034 -5.233333,-0.9 -0.02735,0.059 -0.07198,0.1083 -0.1,0.1667 -3.21558,-0.4379 -6.397837,-0.9061 -8.9,-1.5667 z"
       id="path7264"
       inkscape:connector-curvature="0" />
  </g>
</svg>
