<?xml version="1.0" encoding="UTF-8" standalone="no"?>
<!-- Created with Inkscape (http://www.inkscape.org/) -->

<svg
   xmlns:dc="http://purl.org/dc/elements/1.1/"
   xmlns:cc="http://creativecommons.org/ns#"
   xmlns:rdf="http://www.w3.org/1999/02/22-rdf-syntax-ns#"
   xmlns:svg="http://www.w3.org/2000/svg"
   xmlns="http://www.w3.org/2000/svg"
   xmlns:xlink="http://www.w3.org/1999/xlink"
   xmlns:sodipodi="http://sodipodi.sourceforge.net/DTD/sodipodi-0.dtd"
   xmlns:inkscape="http://www.inkscape.org/namespaces/inkscape"
   width="136.53334"
   height="136.53334"
   id="svg8156"
   version="1.1"
   inkscape:version="0.92.1 r15371"
   sodipodi:docname="start-here.svg">
  <defs
     id="defs8158">
    <linearGradient
       gradientTransform="matrix(2.8444445,0,0,2.8444445,-1778.5097,-1515.5387)"
       inkscape:collect="always"
       xlink:href="#linearGradient9863"
       id="linearGradient7873"
       x1="644.40491"
       y1="926.25873"
       x2="652.68567"
       y2="883.30194"
       gradientUnits="userSpaceOnUse" />
    <linearGradient
       id="linearGradient9863">
      <stop
         style="stop-color:#2f445a;stop-opacity:1;"
         offset="0"
         id="stop9865" />
      <stop
         style="stop-color:#415f7c;stop-opacity:1"
         offset="1"
         id="stop9867" />
    </linearGradient>
    <linearGradient
       inkscape:collect="always"
       xlink:href="#linearGradient12578"
       id="linearGradient7416"
       gradientUnits="userSpaceOnUse"
       x1="9.5300207"
       y1="9.6453409"
       x2="13.114401"
       y2="15.088529"
       gradientTransform="matrix(4.2382221,0,0,4.3164794,-135.12156,1020.6771)" />
    <linearGradient
       id="linearGradient12578">
      <stop
         style="stop-color:#e9b551;stop-opacity:1;"
         offset="0"
         id="stop12580" />
      <stop
         style="stop-color:#b48739;stop-opacity:1;"
         offset="1"
         id="stop12582" />
    </linearGradient>
    <linearGradient
       inkscape:collect="always"
       xlink:href="#linearGradient3249"
       id="linearGradient7414"
       gradientUnits="userSpaceOnUse"
       x1="504.90103"
       y1="978.02399"
       x2="504.0184"
       y2="974.03284"
       gradientTransform="matrix(2.8444445,0,0,2.8444445,-1380.2875,-1686.2053)" />
    <linearGradient
       id="linearGradient3249">
      <stop
         style="stop-color:#000000;stop-opacity:1;"
         offset="0"
         id="stop3251" />
      <stop
         style="stop-color:#000000;stop-opacity:0;"
         offset="1"
         id="stop3253-2" />
    </linearGradient>
    <linearGradient
       inkscape:collect="always"
       xlink:href="#linearGradient9495"
       id="linearGradient7412"
       gradientUnits="userSpaceOnUse"
       x1="504.91241"
       y1="965.13464"
       x2="502.77573"
       y2="971.09668"
       gradientTransform="matrix(2.8444445,0,0,2.8444445,-1380.2875,-1686.2053)" />
    <linearGradient
       inkscape:collect="always"
       id="linearGradient9495">
      <stop
         style="stop-color:#ffffff;stop-opacity:1;"
         offset="0"
         id="stop9497" />
      <stop
         style="stop-color:#ffffff;stop-opacity:0;"
         offset="1"
         id="stop9499" />
    </linearGradient>
    <linearGradient
       inkscape:collect="always"
       xlink:href="#linearGradient12578"
       id="linearGradient7410"
       gradientUnits="userSpaceOnUse"
       x1="503.58203"
       y1="968.48517"
       x2="503.85971"
       y2="975.43262"
       gradientTransform="matrix(2.8444445,0,0,2.8444445,-1380.2875,-1686.2053)" />
    <linearGradient
       inkscape:collect="always"
       xlink:href="#jaca"
       id="linearGradient7406"
       gradientUnits="userSpaceOnUse"
       x1="499.41898"
       y1="944.26801"
       x2="517.93237"
       y2="972.64899"
       gradientTransform="matrix(2.8444445,0,0,2.8444445,-1380.2875,-1686.2053)" />
    <linearGradient
       inkscape:collect="always"
       xlink:href="#jaca"
       id="linearGradient7364"
       gradientUnits="userSpaceOnUse"
       x1="522.14795"
       y1="956.44171"
       x2="523.64545"
       y2="958.39282"
       gradientTransform="matrix(2.8444445,0,0,2.8444445,-1380.2875,-1686.2053)" />
    <linearGradient
       inkscape:collect="always"
       xlink:href="#jaca"
       id="linearGradient7358"
       gradientUnits="userSpaceOnUse"
       x1="526.14325"
       y1="963.68213"
       x2="527.8717"
       y2="966.60876"
       gradientTransform="matrix(2.8444445,0,0,2.8444445,-1380.2875,-1686.2053)" />
    <linearGradient
       inkscape:collect="always"
       xlink:href="#jaca"
       id="linearGradient7356"
       gradientUnits="userSpaceOnUse"
       x1="514.25336"
       y1="952.99561"
       x2="516.48315"
       y2="955.15576"
       gradientTransform="matrix(2.8444445,0,0,2.8444445,-1380.2875,-1686.2053)" />
    <linearGradient
       inkscape:collect="always"
       xlink:href="#jaca"
       id="linearGradient7354"
       gradientUnits="userSpaceOnUse"
       x1="507.50449"
       y1="948.90527"
       x2="510.01953"
       y2="950.08984"
       gradientTransform="matrix(2.8444445,0,0,2.8444445,-1380.2875,-1686.2053)" />
    <linearGradient
       inkscape:collect="always"
       xlink:href="#jaca"
       id="linearGradient7352"
       gradientUnits="userSpaceOnUse"
       x1="498.38791"
       y1="951.03802"
       x2="501.2634"
       y2="951.73486"
       gradientTransform="matrix(2.8444445,0,0,2.8444445,-1380.2875,-1686.2053)" />
    <linearGradient
       inkscape:collect="always"
       xlink:href="#jaca"
       id="linearGradient7350"
       gradientUnits="userSpaceOnUse"
       x1="491.08978"
       y1="958.44739"
       x2="493.50464"
       y2="957.82025"
       gradientTransform="matrix(2.8444445,0,0,2.8444445,-1380.2875,-1686.2053)" />
    <linearGradient
       inkscape:collect="always"
       xlink:href="#jaca"
       id="linearGradient7348"
       gradientUnits="userSpaceOnUse"
       x1="490.69354"
       y1="968.67584"
       x2="492.09064"
       y2="967.83966"
       gradientTransform="matrix(2.8444445,0,0,2.8444445,-1380.2875,-1686.2053)" />
    <linearGradient
       inkscape:collect="always"
       xlink:href="#jaca"
       id="linearGradient7344"
       gradientUnits="userSpaceOnUse"
       x1="511.6962"
       y1="974.53223"
       x2="529.18732"
       y2="974.53223"
       gradientTransform="matrix(2.8444445,0,0,2.8444445,-1380.2875,-1686.2053)" />
    <linearGradient
       inkscape:collect="always"
       xlink:href="#jaca"
       id="linearGradient7342"
       gradientUnits="userSpaceOnUse"
       x1="498.49457"
       y1="962.30219"
       x2="507.29385"
       y2="963.46375"
       gradientTransform="matrix(2.8444445,0,0,2.8444445,-1380.2875,-1686.2053)" />
    <linearGradient
       inkscape:collect="always"
       xlink:href="#jaca"
       id="linearGradient7338"
       gradientUnits="userSpaceOnUse"
       x1="498"
       y1="972.89343"
       x2="501.0625"
       y2="984.70593"
       gradientTransform="matrix(2.8444445,0,0,2.8444445,-1380.2875,-1686.2053)" />
    <linearGradient
       inkscape:collect="always"
       xlink:href="#linearGradient9590"
       id="linearGradient7336"
       gradientUnits="userSpaceOnUse"
       gradientTransform="matrix(2.8444445,0,0,2.8444445,-1390.243,-1688.2497)"
       x1="502.91904"
       y1="981.9881"
       x2="504.20029"
       y2="976.3974" />
    <linearGradient
       id="linearGradient9590">
      <stop
         style="stop-color:#ffffff;stop-opacity:0.0000000;"
         offset="0.0000000"
         id="stop9591" />
      <stop
         style="stop-color:#fff;stop-opacity:1;"
         offset="1"
         id="stop9592" />
    </linearGradient>
    <linearGradient
       inkscape:collect="always"
       xlink:href="#jaca"
       id="linearGradient7334"
       gradientUnits="userSpaceOnUse"
       gradientTransform="matrix(2.8444445,0,0,2.8444445,-1390.243,-1688.2497)"
       x1="503.75873"
       y1="980.04358"
       x2="501.0625"
       y2="984.70593" />
    <linearGradient
       id="jaca">
      <stop
         id="stop8362"
         offset="0"
         style="stop-color:#b995da;stop-opacity:1" />
      <stop
         id="stop8364"
         offset="1"
         style="stop-color:#766287;stop-opacity:1" />
    </linearGradient>
    <linearGradient
       inkscape:collect="always"
       xlink:href="#linearGradient9495"
       id="linearGradient7388"
       gradientUnits="userSpaceOnUse"
       x1="533.7652"
       y1="960.7713"
       x2="525.43396"
       y2="967.87891"
       gradientTransform="matrix(2.8444445,0,0,2.8444445,-1380.2875,-2672.1917)" />
    <linearGradient
       inkscape:collect="always"
       xlink:href="#linearGradient9495"
       id="linearGradient7386"
       gradientUnits="userSpaceOnUse"
       x1="530.06799"
       y1="948.79803"
       x2="524.05096"
       y2="960.78333"
       gradientTransform="matrix(2.8444445,0,0,2.8444445,-1380.2875,-2672.1917)" />
    <linearGradient
       inkscape:collect="always"
       xlink:href="#linearGradient9495"
       id="linearGradient7382"
       gradientUnits="userSpaceOnUse"
       x1="521.33777"
       y1="941.61536"
       x2="518.71277"
       y2="954.92456"
       gradientTransform="matrix(2.8444445,0,0,2.8444445,-1380.2875,-2672.1917)" />
    <linearGradient
       inkscape:collect="always"
       xlink:href="#linearGradient9495"
       id="linearGradient7372"
       gradientUnits="userSpaceOnUse"
       x1="510.21683"
       y1="939.59192"
       x2="510.09769"
       y2="952.90118"
       gradientTransform="matrix(2.8444445,0,0,2.8444445,-1380.2875,-2672.1917)" />
    <linearGradient
       inkscape:collect="always"
       xlink:href="#linearGradient9495"
       id="linearGradient7366"
       gradientUnits="userSpaceOnUse"
       x1="484.07101"
       y1="960.50787"
       x2="493.65625"
       y2="966.77924"
       gradientTransform="matrix(2.8444445,0,0,2.8444445,-1380.2875,-2672.1917)" />
    <linearGradient
       inkscape:collect="always"
       xlink:href="#linearGradient9495"
       id="linearGradient7368"
       gradientUnits="userSpaceOnUse"
       x1="486.55066"
       y1="948.86316"
       x2="496.47592"
       y2="960.15161"
       gradientTransform="matrix(2.8444445,0,0,2.8444445,-1380.2875,-2672.1917)" />
    <linearGradient
       inkscape:collect="always"
       xlink:href="#linearGradient9495"
       id="linearGradient7370"
       gradientUnits="userSpaceOnUse"
       x1="494.897"
       y1="939.91022"
       x2="501.27188"
       y2="952.3136"
       gradientTransform="matrix(2.8444445,0,0,2.8444445,-1380.2875,-2672.1917)" />
    <linearGradient
       inkscape:collect="always"
       xlink:href="#linearGradient3249"
       id="linearGradient7346"
       gradientUnits="userSpaceOnUse"
       x1="505.95053"
       y1="966.20435"
       x2="498.86234"
       y2="956.56519"
       gradientTransform="matrix(2.8444445,0,0,2.8444445,-1380.2875,-2672.1916)" />
    <linearGradient
       inkscape:collect="always"
       xlink:href="#linearGradient3249"
       id="linearGradient7360"
       gradientUnits="userSpaceOnUse"
       x1="503.88083"
       y1="965.2442"
       x2="519.55634"
       y2="973.9162"
       gradientTransform="matrix(2.8444445,0,0,2.8444445,-1380.2875,-2672.1917)" />
    <linearGradient
       inkscape:collect="always"
       xlink:href="#linearGradient3249"
       id="linearGradient7404"
       gradientUnits="userSpaceOnUse"
       x1="517.75867"
       y1="983.15723"
       x2="529.18732"
       y2="974.53223"
       gradientTransform="matrix(2.8444445,0,0,2.8444445,-1380.2875,-2672.1916)" />
    <linearGradient
       inkscape:collect="always"
       xlink:href="#linearGradient3249"
       id="linearGradient7390"
       gradientUnits="userSpaceOnUse"
       x1="515.26477"
       y1="970.04193"
       x2="525.87769"
       y2="966.90625"
       gradientTransform="matrix(2.8444445,0,0,2.8444445,-1380.2875,-2672.1916)" />
    <linearGradient
       inkscape:collect="always"
       xlink:href="#linearGradient3249"
       id="linearGradient7392"
       gradientUnits="userSpaceOnUse"
       x1="512.58618"
       y1="966.49304"
       x2="523.43536"
       y2="959.52484"
       gradientTransform="matrix(2.8444445,0,0,2.8444445,-1380.2875,-2672.1916)" />
    <linearGradient
       inkscape:collect="always"
       xlink:href="#linearGradient3249"
       id="linearGradient7394"
       gradientUnits="userSpaceOnUse"
       x1="508.13217"
       y1="962.60834"
       x2="516.60168"
       y2="953.75873"
       gradientTransform="matrix(2.8444445,0,0,2.8444445,-1380.2875,-2672.1916)" />
    <linearGradient
       inkscape:collect="always"
       xlink:href="#linearGradient3249"
       id="linearGradient7396"
       gradientUnits="userSpaceOnUse"
       x1="504.51901"
       y1="962.52405"
       x2="508.2655"
       y2="952.21112"
       gradientTransform="matrix(2.8444445,0,0,2.8444445,-1380.2875,-2672.1916)" />
    <linearGradient
       inkscape:collect="always"
       xlink:href="#linearGradient3249"
       id="linearGradient7398"
       gradientUnits="userSpaceOnUse"
       x1="503.51712"
       y1="962.07922"
       x2="502.30066"
       y2="954.48389"
       gradientTransform="matrix(2.8444445,0,0,2.8444445,-1380.2875,-2672.1916)" />
    <linearGradient
       inkscape:collect="always"
       xlink:href="#linearGradient3249"
       id="linearGradient7402"
       gradientUnits="userSpaceOnUse"
       x1="501.06546"
       y1="973.474"
       x2="492.28647"
       y2="967.55103"
       gradientTransform="matrix(2.8444445,0,0,2.8444445,-1380.2875,-2672.1916)" />
    <linearGradient
       inkscape:collect="always"
       xlink:href="#linearGradient3249"
       id="linearGradient7400"
       gradientUnits="userSpaceOnUse"
       x1="501.25372"
       y1="966.9411"
       x2="498.23135"
       y2="959.27612"
       gradientTransform="matrix(2.8444445,0,0,2.8444445,-1380.2875,-2672.1916)" />
    <linearGradient
       inkscape:collect="always"
       xlink:href="#linearGradient3249"
       id="linearGradient7340"
       gradientUnits="userSpaceOnUse"
       x1="490.08923"
       y1="994.99048"
       x2="499.6041"
       y2="982.93817"
       gradientTransform="matrix(2.8444445,0,0,2.8444445,-1380.2875,-2672.1916)" />
  </defs>
  <sodipodi:namedview
     id="base"
     pagecolor="#ffffff"
     bordercolor="#666666"
     borderopacity="1.0"
     inkscape:pageopacity="0.0"
     inkscape:pageshadow="2"
     inkscape:zoom="1.4"
     inkscape:cx="56.521879"
     inkscape:cy="51.508633"
     inkscape:document-units="px"
     inkscape:current-layer="layer1"
     showgrid="false"
     inkscape:window-width="1366"
     inkscape:window-height="714"
     inkscape:window-x="0"
     inkscape:window-y="26"
     inkscape:window-maximized="1" />
  <metadata
     id="metadata8161">
    <rdf:RDF>
      <cc:Work
         rdf:about="">
        <dc:format>image/svg+xml</dc:format>
        <dc:type
           rdf:resource="http://purl.org/dc/dcmitype/StillImage" />
        <dc:title />
      </cc:Work>
    </rdf:RDF>
  </metadata>
  <g
     inkscape:label="Capa 1"
     inkscape:groupmode="layer"
     id="layer1"
     transform="translate(0,-985.98633)">
    <path
       style="display:inline;fill:url(#linearGradient7334);stroke:none;stroke-width:1.06666672"
       d="m 51.445831,1097.8471 c -3.630194,8.068 -11.459413,12.0963 -20.088889,15.0222 -5.05819,1.1502 -12.598129,4.4157 -16.547811,3.3748 -3.589547,-0.9461 -5.5084664,-1.4757 -8.9188696,-2.5526 9.9450596,-7.7885 30.7058056,-4.9733 36.4889036,-17.4444 2.546688,0.6724 5.792682,1.1558 9.066666,1.6 z"
       id="path7264"
       inkscape:connector-curvature="0"
       sodipodi:nodetypes="ccsccc" />
    <path
       sodipodi:nodetypes="ccccc"
       inkscape:connector-curvature="0"
       id="path7266"
       d="m 51.445831,1097.8471 c -2.247253,4.9945 -6.103609,8.4408 -10.762809,11.0359 -3.738027,-0.2494 -9.783808,-1.4983 -11.048078,-3.2664 5.567915,-1.7565 10.393458,-4.3001 12.744221,-9.3695 2.546688,0.6724 5.792682,1.1558 9.066666,1.6 z"
       style="display:inline;fill:url(#linearGradient7336);stroke:none;stroke-width:1.06666672" />
    <path
       sodipodi:nodetypes="ccccc"
       inkscape:connector-curvature="0"
       id="path7268"
       d="m 56.601387,1098.5582 c -5.852416,7.9792 -6.659414,13.4296 -15.288889,16.3556 -11.032093,2.5086 -20.279751,3.322 -26.577778,1.3333 9.945059,-7.7885 30.839125,-6.1066 36.622222,-18.5778 1.372957,0.7966 3.160832,1.0399 5.244445,0.8889 z"
       style="display:inline;fill:url(#linearGradient7338);stroke:none;stroke-width:1.06666672" />
    <path
       sodipodi:nodetypes="ccccc"
       style="display:inline;fill:url(#linearGradient7342);fill-opacity:1;fill-rule:evenodd;stroke-width:1.06666672"
       inkscape:connector-curvature="0"
       d="m 20.413739,1072.3388 9.971256,6.9753 c 9.46068,-42.2603 57.456498,-22.392 44.830379,6.7172 l 12.377341,2.7278 c 17.932015,-39.9015 -43.296395,-80.69 -67.178976,-16.4203 z"
       class="fil0"
       id="path7272" />
    <path
       sodipodi:nodetypes="cscccczc"
       style="display:inline;fill:url(#linearGradient7344);fill-opacity:1;fill-rule:evenodd;stroke-width:1.06666672"
       inkscape:connector-curvature="0"
       d="m 119.4398,1089.4763 c 9.18272,2.5386 5.31467,3.1561 -0.16384,3.3439 -7.35292,0.252 -19.703576,-1.698 -32.131352,-4.1312 l -11.940669,-2.67 8.015247,1.1975 5.732633,-8.4636 c 17.644691,6.0257 21.305071,8.1848 30.487811,10.7234 z"
       class="fil0"
       id="path7274" />
    <path
       sodipodi:nodetypes="zsscccz"
       style="display:inline;fill:url(#linearGradient7348);fill-opacity:1;fill-rule:evenodd;stroke-width:1.06666672"
       inkscape:connector-curvature="0"
       d="m 5.4365729,1058.4044 c -2.6177995,-2.9001 -4.2501408,-5.0607 -3.76192,-5.3195 0.6426453,-0.3407 7.0182677,0.4943 8.7174541,0.5906 1.870962,0.1061 13.034951,8.7017 23.048476,16.4474 l 5.42063,10.3951 -8.481935,-1.1549 C 14.699193,1069.2339 8.0544001,1061.3045 5.4365729,1058.4044 Z"
       class="fil0"
       id="path7278" />
    <path
       sodipodi:nodetypes="cssscccc"
       style="display:inline;fill:url(#linearGradient7350);fill-opacity:1;fill-rule:evenodd;stroke-width:1.06666672"
       inkscape:connector-curvature="0"
       d="m 9.7286966,1027.2396 c -2.077297,-3.5813 -2.585856,-5.123 -2.0683093,-5.276 0.418304,-0.1237 5.2725197,-0.2133 8.0217887,-0.283 0.757931,-0.02 1.539442,1.8456 2.636971,2.9848 5.191367,5.3887 15.299555,22.8334 22.582101,34.1408 l -13.464263,-0.6371 c -5.384107,-10.7225 -11.642311,-20.6075 -17.7082884,-30.9295 z"
       class="fil0"
       id="path7280" />
    <path
       sodipodi:nodetypes="zsssccsz"
       style="display:inline;fill:url(#linearGradient7352);fill-opacity:1;fill-rule:evenodd;stroke-width:1.06666672"
       inkscape:connector-curvature="0"
       d="m 34.209038,1001.6983 c -0.686449,-3.94415 -0.471409,-5.30441 0.117191,-5.41823 0.478322,-0.0925 5.775588,-0.74368 8.318692,-1.01685 0.906212,-0.0973 1.580089,4.45775 2.100935,6.15528 2.424917,7.9033 0.815587,22.9891 4.528099,39.1617 l 0.416768,4.079 c -0.02275,-0.1695 -9.659846,-0.2895 -9.683228,-0.4591 -2.685895,-19.471 -5.112007,-38.5577 -5.798457,-42.5018 z"
       class="fil0"
       id="path7282" />
    <path
       sodipodi:nodetypes="zsssccz"
       style="display:inline;fill:url(#linearGradient7354);fill-opacity:1;fill-rule:evenodd;stroke-width:1.06666672"
       inkscape:connector-curvature="0"
       d="m 67.153763,1001.6596 c 1.573007,-4.31141 2.730212,-5.72706 3.417373,-5.53207 0.501333,0.14222 5.897301,-0.61488 8.228523,-0.84514 1.792967,-0.17693 -1.320334,6.57351 -1.51296,8.47761 -0.817152,8.0765 -7.261213,21.3791 -14.526294,38.2629 l -9.389909,-2.2653 c 6.630343,-20.2186 12.210261,-33.7867 13.783267,-38.098 z"
       class="fil0"
       id="path7284" />
    <path
       sodipodi:nodetypes="zsssccz"
       style="display:inline;fill:url(#linearGradient7356);fill-opacity:1;fill-rule:evenodd;stroke-width:1.06666672"
       inkscape:connector-curvature="0"
       d="m 95.778144,1008.8772 c 3.233483,-3.9187 5.097076,-5.2245 5.835346,-5.1473 0.31326,0.033 7.5286,-0.6045 8.27288,-0.6116 1.53537,-0.014 -7.16499,10.5157 -9.30737,13.7905 -8.923651,13.6405 -15.173827,22.1061 -27.563462,34.8874 l -8.152633,-8.0165 c 15.490674,-15.4073 27.681767,-30.9838 30.915239,-34.9025 z"
       class="fil0"
       id="path7286" />
    <path
       sodipodi:nodetypes="zsssccz"
       style="display:inline;fill:url(#linearGradient7358);fill-opacity:1;fill-rule:evenodd;stroke-width:1.06666672"
       inkscape:connector-curvature="0"
       d="m 118.16555,1056.9451 c 3.25751,-1.3911 6.1355,-2.3513 7.26089,-2.3375 1.05882,0.014 6.49959,0.3279 8.32775,0.4046 1.39274,0.058 -7.62801,5.5011 -9.7081,6.8577 -6.72039,4.3831 -11.9546,5.159 -28.118442,8.456 -1.216,-1.7975 -4.720299,-3.5354 -8.369835,-6.6061 13.313857,-2.1402 27.350247,-5.3836 30.607737,-6.7747 z"
       class="fil0"
       id="path7288" />
    <path
       inkscape:transform-center-x="-0.19522569"
       inkscape:transform-center-y="2.6470063"
       sodipodi:nodetypes="zsssccz"
       style="display:inline;fill:url(#linearGradient7364);fill-opacity:1;fill-rule:evenodd;stroke-width:1.06666672"
       inkscape:connector-curvature="0"
       d="m 114.23658,1029.1188 c 3.87927,-3.0318 6.03528,-3.9169 7.01903,-3.9782 0.73,-0.045 6.96468,-0.1422 8.35942,-0.094 1.96995,0.067 -4.0708,6.1154 -6.13569,8.347 -5.91906,6.397 -27.14462,19.5883 -43.366458,28.0922 l -4.712249,-10.5991 c 19.310162,-9.5223 34.956657,-18.7355 38.835947,-21.7674 z"
       class="fil0"
       id="path7292" />
    <path
       sodipodi:nodetypes="ssccssccsscccccssccccsccssccssccssccssccss"
       inkscape:connector-curvature="0"
       id="path7324"
       d="m 42.73472,995.2169 c -0.642275,0 -0.895801,1.7559 -0.177778,5.9556 1.626937,9.5161 3.108125,23.6527 5.777778,43.3777 -2.179243,1.5252 -4.257479,3.384 -6.311111,5.6 -7.047396,-10.4976 -15.468089,-18.3024 -20.355556,-23.4666 -5.191367,-5.4853 -8.674446,-8.0038 -3.911111,0.3555 4.69669,8.2425 8.877881,14.54 17.866667,31.6445 -1.078102,1.7598 -2.112512,3.6608 -3.111111,5.6889 -5.621049,-3.4611 -10.37258,-5.5894 -14.755556,-7.8223 -6.604657,-3.3647 -11.157049,-4.6907 -4.444444,1.1556 4.967595,4.3265 7.999004,8.9082 15.555555,15.2 -0.02275,0.064 -0.06542,0.1135 -0.08903,0.1777 l 3.555556,2.5778 c 0.715804,0.5415 1.432689,1.1231 2.222222,1.6889 l 4.355555,3.2 c 0.2688,-1.2221 0.560754,-2.4341 0.88889,-3.5555 0.423253,-1.4465 0.819882,-2.8053 1.333333,-4.0889 13.099974,-32.7509 54.026981,-13.3922 42.222221,14.3111 l 8.26547,1.6893 c 8.68076,1.7457 17.80987,3.4897 25.83262,4.4147 3.92115,0.4416 7.39709,0.6594 10.16858,0.5626 5.47851,-0.1911 9.3605,-0.7936 0.17778,-3.3777 -8.88323,-2.4998 -12.85988,-4.7103 -29.06667,-10.4 0.27107,-1.7897 0.44174,-3.495 0.44444,-5.2445 12.46049,-3.8697 24.04301,-9.3466 29.24445,-12.7999 6.25621,-4.1536 10.14524,-10.1696 -1.42222,-5.1556 -9.10183,3.9452 -17.17846,5.2107 -29.42223,7.2 -0.64343,-2.0735 -1.42,-4.0547 -2.4,-5.9556 13.49564,-8.3835 25.22217,-19.0236 30.31111,-24.6222 5.51023,-6.0619 8.06133,-13.1206 -2.84444,-4.4444 -9.92274,7.894 -18.39918,11.8917 -34.31111,19.8222 -0.72635,-0.7273 -1.44247,-1.4737 -2.22223,-2.1333 8.8334,-11.1757 12.67417,-22.3591 20.35556,-34.3111 4.47087,-6.9566 6.5315,-14.9087 -2.31111,-4 -8.24539,10.1719 -14.63014,18.7219 -28,32.5333 -1.3395,-0.5094 -2.6952,-1.0143 -4.08889,-1.3333 6.24108,-15.9506 6.69096,-28.5519 7.46667,-36.3556 0.81715,-8.2214 -0.44009,-12.0654 -4,-2.1333 -3.50655,9.783 -7.0693,18.044 -13.51111,37.9555 -1.5034,0.19 -3.028682,0.5334 -4.533336,0.9778 -3.701163,-16.185 -8.806514,-29.9261 -11.2,-37.8667 -1.245298,-4.1314 -2.729784,-7.0167 -3.555555,-7.0222 z"
       style="display:inline;fill:url(#linearGradient7406);fill-opacity:1;fill-rule:evenodd;stroke-width:1.06666672" />
    <path
       sodipodi:nodetypes="ssssssss"
       inkscape:connector-curvature="0"
       id="path7326"
       d="m 61.249323,1091.601 c -1.632285,-0.2387 -6.819442,-1.259 -8.108516,-1.4509 -5.640362,-0.8395 -8.349724,-5.2363 -8.443136,-10.1776 -0.124586,-6.5892 5.094798,-11.3951 11.353259,-11.9706 0.662385,-0.061 1.329123,-0.047 1.989319,0.035 1.509234,0.1878 4.953316,0.4249 7.087189,0.6747 3.21317,0.3761 1.964601,5.5369 2.064327,8.9725 0.161565,5.5713 -0.219875,14.7537 -5.942442,13.9168 z"
       style="display:inline;fill:url(#linearGradient7410);fill-opacity:1;fill-rule:evenodd;stroke:none;stroke-width:1.06666672" />
    <path
       style="display:inline;fill:url(#linearGradient7412);fill-opacity:1;fill-rule:evenodd;stroke:none;stroke-width:1.06666672"
       d="m 45.691235,1075.0501 c 1.791716,-3.964 5.799936,-6.6289 10.359695,-7.0482 0.662385,-0.061 1.329123,-0.047 1.989319,0.035 1.509234,0.1878 4.953316,0.4249 7.087189,0.6747 3.21317,0.3761 1.964601,5.5369 2.064327,8.9725 -7.85408,0.379 -14.997447,-1.6624 -21.50053,-2.634 z"
       id="path7328"
       inkscape:connector-curvature="0"
       sodipodi:nodetypes="cssscc" />
    <path
       style="display:inline;fill:url(#linearGradient7414);fill-opacity:1;fill-rule:evenodd;stroke:none;stroke-width:1.06666672"
       d="m 61.249323,1091.601 c -1.632285,-0.2387 -6.819442,-1.259 -8.108516,-1.4509 -3.791047,-0.5642 -6.258005,-2.7355 -7.496533,-5.5991 6.435299,0.047 16.643243,-0.564 19.164899,1.1217 0.161565,5.5714 2.162717,6.7651 -3.55985,5.9282 z"
       id="path7330"
       inkscape:connector-curvature="0"
       sodipodi:nodetypes="csccsc" />
    <path
       sodipodi:type="arc"
       style="display:inline;fill:url(#linearGradient7416);fill-opacity:1;fill-rule:evenodd;stroke:none;stroke-width:4.27717161"
       id="path7332"
       sodipodi:cx="-87.726242"
       sodipodi:cy="1075.7268"
       sodipodi:rx="11.31372"
       sodipodi:ry="11.522624"
       d="m -76.445227,1074.8513 a 11.31372,11.522624 0 0 1 -10.359795,12.3599 11.31372,11.522624 0 0 1 -12.192173,-10.4835 11.31372,11.522624 0 0 1 10.226615,-12.4743 11.31372,11.522624 0 0 1 12.303883,10.3471"
       transform="matrix(0.98555741,-0.16934165,0.13897456,0.99029595,0,0)"
       sodipodi:start="6.2071318"
       sodipodi:end="6.1852847"
       sodipodi:open="true" />
    <path
       style="display:inline;fill:none;stroke:url(#linearGradient7873);stroke-width:2.84444451;stroke-linecap:round;stroke-linejoin:round"
       d="m 42.73472,995.21691 c -0.0802,-3.7e-4 -0.11065,0.033 -0.17778,0.0891 -2.5728,0.27819 -7.79335,0.88631 -8.26667,0.97778 -0.5886,0.11378 -0.77533,1.47812 -0.089,5.42221 0.68644,3.9441 3.09188,23.0178 5.77777,42.4889 4.3e-4,0 0.17124,0 0.17778,0 -0.51962,0.3532 -0.99726,0.7649 -1.51111,1.1555 -6.19247,-8.1154 -12.86537,-14.3214 -16.97778,-18.6666 -3.00126,-3.1712 -5.35956,-5.3184 -5.95556,-4.9778 -2.74926,0.07 -7.67058,0.143 -8.08888,0.2665 -0.51755,0.153 0.056,1.6631 2.13333,5.2444 6.04561,10.2875 12.22813,20.1636 17.6,30.8445 -0.23381,0.3731 -0.48071,0.7703 -0.71111,1.1555 -0.26254,0.4394 -0.54215,0.8781 -0.8,1.3334 -0.0142,0.023 0.0142,0.066 0,0.089 -2.87548,-1.4977 -5.5562,-2.7986 -8.08889,-4.0888 -3.50874,-1.7876 -6.40876,-2.9774 -7.37778,-2.8445 -1.69918,-0.096 -8.06846,-0.9628 -8.71111,-0.6222 -0.48822,0.2588 1.11553,2.4332 3.73333,5.3333 1.97729,2.1905 6.29211,7.246 15.02223,13.9556 l 1.15555,0.8 0.089,0.09 c 2.5598,1.9228 5.38678,3.9858 8.71111,6.1333 l 8.44445,1.1555 h 0.089 c 0.2688,-1.222 0.56075,-2.4341 0.88889,-3.5555 0.42325,-1.4465 0.81988,-2.8052 1.33333,-4.0889 4.43594,-11.0902 12.04377,-16.2275 19.73333,-17.0667 11.6975,3.2424 20.65898,15.5874 14.31111,30.2223 l 12,2.6667 c 3.10694,0.6083 6.13513,1.1677 9.15555,1.6888 3.02044,0.5211 6.01988,0.9533 8.80001,1.3333 2.17364,0.2972 4.10143,0.5294 6.04445,0.7112 0.0285,0 0.0609,0 0.0891,0 0.51291,0.047 1.10653,0.1393 1.59999,0.1777 1.55879,0.2236 3.13,0.5391 4.62222,0.7111 3.92115,0.4416 7.36185,0.6301 10.13334,0.5334 5.47851,-0.1912 9.3605,-0.7937 0.17778,-3.3778 -8.88324,-2.4998 -12.85988,-4.7103 -29.06666,-10.4 0.27107,-1.7897 0.44173,-3.495 0.44443,-5.2444 12.46049,-3.8699 24.04301,-9.3467 29.24445,-12.8 4.13934,-2.7482 7.23553,-6.2888 5.51111,-6.9334 -0.009,-0.043 -0.0908,-0.085 -0.17778,-0.089 -1.82815,-0.077 -7.29674,-0.4302 -8.35555,-0.4445 -1.12541,-0.014 -3.94249,0.9201 -7.2,2.3111 -2.4937,1.065 -11.36587,3.2456 -21.33333,5.1556 -0.49101,-1.3329 -1.03985,-2.6522 -1.6889,-3.9111 13.49563,-8.3836 25.22217,-19.0237 30.31111,-24.6222 3.1546,-3.4705 5.28828,-7.1935 4.53334,-8.1778 -0.0142,-0.1323 -0.12772,-0.2261 -0.26653,-0.2665 -0.14307,-0.048 -0.31331,-0.03 -0.53334,0 -1.7118,-0.034 -7.30105,0.045 -8,0.089 -0.98374,0.061 -3.14293,0.8793 -7.02221,3.9111 -3.0024,2.3466 -13.14595,8.4372 -26.48889,15.4667 7.67567,-10.4454 11.57885,-20.9221 18.75555,-32.0889 2.68684,-4.1806 4.453,-8.6543 3.55555,-9.2444 -0.0114,-0.046 -0.05,-0.07 -0.0891,-0.089 -0.12886,-0.031 -0.3278,-0.085 -0.53334,0 -1.32321,0.067 -7.52571,0.6532 -7.82223,0.6222 -0.73827,-0.077 -2.54429,1.2369 -5.77776,5.1556 -2.56524,3.1088 -10.85107,13.5443 -21.86667,25.4222 4.41273,-13.4123 4.91369,-24.1178 5.6,-31.0222 0.3974,-3.99817 0.34338,-6.97553 -0.26652,-7.82221 -0.0227,-0.043 -0.0594,-0.0572 -0.089,-0.0891 -0.16441,-0.18688 -0.38909,-0.20395 -0.62223,-0.0891 -2.425,0.25116 -7.51243,0.93833 -8,0.8 -0.68716,-0.19484 -1.80477,1.19976 -3.37777,5.51111 -1.37902,3.7797 -5.92052,15.0364 -11.46667,31.2889 -3.41862,-13.0193 -7.39371,-23.9368 -9.42222,-30.6667 -1.2453,-4.13139 -2.72979,-7.01671 -3.55556,-7.0222 z m 13.33333,72.79999 c -6.25846,0.5754 -11.50236,5.4107 -11.37778,12 0.0933,4.9413 2.80409,9.2939 8.44445,10.1333 1.19048,0.1773 5.49729,1.0112 7.46667,1.3333 0.14649,0.031 0.29627,0.064 0.44444,0.089 0.0378,0 0.14308,0 0.17778,0 0.35766,0.052 0.74957,0.1115 1.06667,0.09 1.04675,0.046 2.12411,0 3.2,-0.2665 6.07314,-1.534 9.88308,-7.8411 8.53333,-14.0445 v -0.2665 c -1.087,-4.5241 -4.66338,-7.6529 -8.88889,-8.3556 -2.13387,-0.2497 -5.60188,-0.5234 -7.11111,-0.7111 -0.6602,-0.082 -1.29317,-0.061 -1.95556,0 z m -13.68889,28.2666 c -5.78309,12.4712 -26.58827,9.6337 -36.53333,17.4223 3.4104,1.0769 5.38823,1.6318 8.97778,2.5777 6.29623,1.957 15.50316,1.1648 26.48889,-1.3333 8.62947,-2.9259 9.43647,-8.3763 15.28889,-16.3555 -2.08362,0.151 -3.87149,-0.093 -5.24445,-0.8889 -0.029,0.063 -0.0592,0.1157 -0.089,0.1777 -3.21345,-0.4375 -6.38834,-0.9398 -8.88889,-1.6 z"
       id="path7695"
       inkscape:connector-curvature="0" />
  </g>
  <g
     inkscape:groupmode="layer"
     id="layer2"
     inkscape:label="Capa 2"
     style="display:none">
    <path
       inkscape:connector-curvature="0"
       id="path7294"
       d="m 3.0902753,67.008371 c -0.7146379,-0.032 -1.261568,0 -1.4222219,0.089 -0.4882208,0.2588 1.1155339,2.4332 3.7333334,5.3333 2.1801813,2.4153 7.2961692,8.3315 17.9555542,16.0888 -0.294343,-3.9632 -0.15104,-7.8373 0.533333,-11.6444 -6.595754,-4.9972 -12.236913,-9.0833 -13.511109,-9.1555 -1.2743969,-0.072 -5.144975,-0.6155 -7.2888897,-0.7111 z"
       style="display:inline;fill:url(#linearGradient7366);fill-opacity:1;fill-rule:evenodd;stroke-width:1.06666672" />
    <path
       inkscape:connector-curvature="0"
       id="path7296"
       d="m 15.712497,35.719471 c -2.749269,0.07 -7.6705844,0.1431 -8.0888884,0.2665 -0.5175466,0.1531 0.056032,1.6631 2.1333334,5.2445 5.533326,9.4157 11.133923,18.522 16.177777,28.1777 1.421995,-4.0005 3.365917,-7.8266 5.777778,-11.2888 -5.148843,-8.2659 -10.206407,-16.1287 -13.422223,-19.4667 -1.097528,-1.1393 -1.819846,-2.9533 -2.577777,-2.9333 z"
       style="display:inline;fill:url(#linearGradient7368);fill-opacity:1;fill-rule:evenodd;stroke-width:1.06666672" />
    <path
       inkscape:connector-curvature="0"
       id="path7298"
       d="m 42.64583,9.3194711 c -2.543104,0.27307 -7.877234,0.8853399 -8.355556,0.9777699 -0.5886,0.11378 -0.775338,1.47813 -0.08903,5.42223 0.582968,3.3496 2.525155,18.1583 4.71111,34.3111 2.609152,-2.337 5.499962,-4.3466 8.622223,-6.0444 -1.398613,-11.9451 -0.872363,-22.3961 -2.755413,-28.5334 -0.520847,-1.69748 -1.227123,-6.2305799 -2.133334,-6.1332999 z"
       style="display:inline;fill:url(#linearGradient7370);fill-opacity:1;fill-rule:evenodd;stroke-width:1.06666672" />
    <path
       inkscape:connector-curvature="0"
       id="path7300"
       d="m 78.823608,9.3194711 c -2.331222,0.2304 -7.765334,0.9422199 -8.266667,0.7999999 -0.687161,-0.1948499 -1.804771,1.19976 -3.377777,5.5111 -1.179762,3.2335 -4.626404,11.7188 -9.066667,24.2667 4.109596,-1.0207 8.172288,-1.4919 12.177777,-1.3334 3.676616,-8.6112 6.516538,-15.8018 7.022223,-20.8 0.192569,-1.9041 3.304078,-8.6213299 1.511111,-8.4443999 z"
       style="display:inline;fill:url(#linearGradient7372);fill-opacity:1;fill-rule:evenodd;stroke-width:1.06666672" />
    <path
       inkscape:connector-curvature="0"
       id="path7302"
       d="m 109.84583,17.141671 c -0.74427,0.01 -7.9534,0.655 -8.26666,0.6222 -0.73828,-0.077 -2.544302,1.2369 -5.777784,5.1556 -2.174123,2.6348 -8.602027,10.6862 -17.155556,20.2667 h 13.511108 c 2.713717,-3.7566 5.462528,-7.7086 8.444452,-12.2667 2.14238,-3.2748 10.77982,-13.792 9.24444,-13.7778 z"
       style="display:inline;fill:url(#linearGradient7382);fill-opacity:1;fill-rule:evenodd;stroke-width:1.06666672" />
    <path
       inkscape:connector-curvature="0"
       id="path7304"
       d="m 129.57917,39.097271 c -1.39475,-0.048 -7.62556,0.043 -8.35556,0.089 -0.98375,0.061 -3.14294,0.8793 -7.02222,3.9112 -2.01254,1.5728 -7.27368,4.8085 -14.48889,8.8888 2.39832,2.5371 4.45585,5.4092 6.22222,8.5334 7.95085,-5.0946 14.5858,-9.9941 17.51111,-13.1556 2.0649,-2.2316 8.10328,-8.1992 6.13334,-8.2666 z"
       style="display:inline;fill:url(#linearGradient7386);fill-opacity:1;fill-rule:evenodd;stroke-width:1.06666672" />
    <path
       inkscape:connector-curvature="0"
       id="path7306"
       d="m 125.40139,68.608371 c -1.12541,-0.014 -3.94249,0.92 -7.2,2.3111 -1.15627,0.4938 -4.01975,1.305 -7.37778,2.1333 v 0.089 c 0.56198,2.5828 0.85834,5.1669 0.97778,7.7333 4.9765,-1.2635 8.51899,-2.5335 12.26666,-4.9777 2.08009,-1.3567 11.08165,-6.7862 9.68889,-6.8445 -1.82815,-0.077 -7.29674,-0.4302 -8.35555,-0.4444 z"
       style="display:inline;fill:url(#linearGradient7388);fill-opacity:1;fill-rule:evenodd;stroke-width:1.06666672" />
    <path
       inkscape:connector-curvature="0"
       id="path7276"
       d="m 56.868053,52.78617 c -13.315584,0.1405 -27.488483,9.4988 -36.444444,33.599999 l 9.955556,6.9333 c 4.45787,-19.9131 17.515178,-26.0537 28.71111,-23.9111 L 69.13472,55.36387 c -3.867022,-1.6438 -8.018546,-2.6225 -12.266667,-2.5777 z"
       style="display:inline;fill:url(#linearGradient7346);fill-opacity:1;fill-rule:evenodd;stroke-width:1.06666672" />
    <path
       id="path7290"
       class="fil0"
       d="m 60.749213,69.82997 c 11.766357,3.1821 20.839566,15.5212 14.466161,30.215 l 12.377341,2.7278 c 4.797728,-10.6756 3.928864,-21.4148 -0.375179,-30.1884 -9.826162,-15.6829 -33.163235,-7.7036 -26.468323,-2.7544 z"
       inkscape:connector-curvature="0"
       style="display:inline;fill:url(#linearGradient7360);fill-opacity:1;fill-rule:evenodd;stroke-width:1.06666672"
       sodipodi:nodetypes="ccccc" />
    <path
       inkscape:connector-curvature="0"
       id="path7308"
       d="m 115.17917,71.897274 c -5.49607,1.6074 -16.638103,4.0974 -27.64445,5.8666 3.649536,3.0708 7.139552,4.7804 8.355552,6.5778 9.490668,-1.9358 15.176538,-3.0064 19.644448,-4.4444 0.035,-2.7388 -0.0438,-5.4025 -0.35555,-8 z"
       style="display:inline;fill:url(#linearGradient7390);fill-opacity:1;fill-rule:evenodd;stroke-width:1.06666672" />
    <path
       inkscape:connector-curvature="0"
       id="path7310"
       d="m 104.24583,49.408374 c -7.207025,4.2356 -17.195323,9.7003 -28.888888,15.4667 l 4.8,10.6666 c 9.76341,-5.1182 21.261768,-11.9446 30.222228,-17.9555 -1.87904,-2.9866 -3.93156,-5.7188 -6.13334,-8.1778 z"
       style="display:inline;fill:url(#linearGradient7392);fill-opacity:1;fill-rule:evenodd;stroke-width:1.06666672" />
    <path
       inkscape:connector-curvature="0"
       id="path7312"
       d="m 85.13472,35.808374 c -5.421966,6.3599 -12.406301,14.1375 -20.266667,21.9555 l 8.177778,8.0889 c 9.198308,-9.4891 15.029988,-16.6292 21.06667,-25.2444 -2.885802,-1.9134 -5.833536,-3.562 -8.977781,-4.8 z"
       style="display:inline;fill:url(#linearGradient7394);fill-opacity:1;fill-rule:evenodd;stroke-width:1.06666672" />
    <path
       inkscape:connector-curvature="0"
       id="path7314"
       d="m 66.023609,32.430574 c -1.765177,0.037 -3.546994,0.2264 -5.333334,0.4445 -2.154496,5.8576 -4.584021,12.6406 -7.288888,20.8888 l 9.333333,2.3112 c 3.791929,-8.8124 7.383182,-16.6617 10.044445,-23.2889 -2.235023,-0.2535 -4.467912,-0.404 -6.755556,-0.3556 z"
       style="display:inline;fill:url(#linearGradient7396);fill-opacity:1;fill-rule:evenodd;stroke-width:1.06666672" />
    <path
       inkscape:connector-curvature="0"
       id="path7316"
       d="m 46.823609,36.430574 c -1.970518,0.7514 -3.99818,1.5176 -5.955556,2.4889 -1.134364,0.5906 -2.153045,1.2291 -3.2,1.9556 0.757078,5.663 1.45263,11.1098 2.311112,17.3333 0.02275,0.1695 9.666133,0.2748 9.688888,0.4444 l -0.355555,-4.0889 c -1.454962,-6.3381 -2.105543,-12.4959 -2.488889,-18.1333 z"
       style="display:inline;fill:url(#linearGradient7398);fill-opacity:1;fill-rule:evenodd;stroke-width:1.06666672" />
    <path
       inkscape:connector-curvature="0"
       id="path7318"
       d="m 27.623609,51.541674 c -2.146958,3.2602 -3.964388,6.8567 -5.511111,10.6667 1.844707,3.2652 3.629852,6.5631 5.333333,9.9555 l 13.422222,0.6223 c -4.040192,-6.2731 -8.786915,-14.3 -13.244444,-21.2445 z"
       style="display:inline;fill:url(#linearGradient7400);fill-opacity:1;fill-rule:evenodd;stroke-width:1.06666672" />
    <path
       inkscape:connector-curvature="0"
       id="path7320"
       d="m 18.556942,72.875074 c -0.900096,3.4274 -1.576675,6.8771 -2.133333,10.3111 3.582293,3.0033 8.150898,6.4724 13.955556,10.2222 l 8.444444,1.1555 -5.422222,-10.4 c -5.127652,-3.9663 -10.515741,-8.1308 -14.844445,-11.2888 z"
       style="display:inline;fill:url(#linearGradient7402);fill-opacity:1;fill-rule:evenodd;stroke-width:1.06666672" />
    <path
       id="path7322"
       class="fil0"
       d="m 119.4398,103.48997 c 9.18272,2.5386 5.31467,3.1561 -0.16384,3.3439 -7.35292,0.252 -19.703576,-1.698 -32.131352,-4.1312 l -11.940669,-2.67 8.015247,1.1975 5.732633,-8.463596 c 17.644691,6.0257 21.305071,8.184796 30.487811,10.723396 z"
       inkscape:connector-curvature="0"
       style="display:inline;fill:url(#linearGradient7404);fill-opacity:1;fill-rule:evenodd;stroke-width:1.06666672"
       sodipodi:nodetypes="cscccczc" />
    <path
       style="display:inline;fill:url(#linearGradient7340);stroke:none;stroke-width:1.06666672"
       d="m 47.753117,125.21477 c -1.604808,1.5114 -3.59845,2.749 -6.440619,3.7127 -11.032093,2.5086 -20.279751,3.322 -26.577778,1.3333 5.645909,-4.4216 14.820608,-5.791 22.755925,-8.4305 2.052608,1.0544 6.225266,2.6558 10.262472,3.3845 z"
       id="path7270"
       inkscape:connector-curvature="0"
       sodipodi:nodetypes="ccccc" />
  </g>
</svg>
