<?xml version="1.0" encoding="UTF-8" standalone="no"?>
<!-- Created with Inkscape (http://www.inkscape.org/) -->

<svg
   xmlns:dc="http://purl.org/dc/elements/1.1/"
   xmlns:cc="http://creativecommons.org/ns#"
   xmlns:rdf="http://www.w3.org/1999/02/22-rdf-syntax-ns#"
   xmlns:svg="http://www.w3.org/2000/svg"
   xmlns="http://www.w3.org/2000/svg"
   xmlns:xlink="http://www.w3.org/1999/xlink"
   xmlns:sodipodi="http://sodipodi.sourceforge.net/DTD/sodipodi-0.dtd"
   xmlns:inkscape="http://www.inkscape.org/namespaces/inkscape"
   width="136.53334"
   height="136.53334"
   id="svg6934"
   sodipodi:version="0.32"
   inkscape:version="0.92.1 r15371"
   version="1.0"
   sodipodi:docname="start-here.svg"
   inkscape:output_extension="org.inkscape.output.svg.inkscape">
  <defs
     id="defs6936">
    <linearGradient
       inkscape:collect="always"
       xlink:href="#linearGradient5344"
       id="linearGradient3105"
       x1="7.9531264"
       y1="2.2416961"
       x2="13.667412"
       y2="-64.464973"
       gradientUnits="userSpaceOnUse"
       gradientTransform="matrix(1.0666667,0,0,1.0666667,-4.3041915e-8,149.33333)" />
    <linearGradient
       id="linearGradient5344">
      <stop
         style="stop-color:#000000;stop-opacity:1;"
         offset="0"
         id="stop5346" />
      <stop
         style="stop-color:#000000;stop-opacity:0;"
         offset="1"
         id="stop5348" />
    </linearGradient>
    <linearGradient
       inkscape:collect="always"
       xlink:href="#linearGradient5165-7-9-8-2"
       id="linearGradient3103"
       x1="22.933788"
       y1="-144.76825"
       x2="18.618809"
       y2="-96.331688"
       gradientUnits="userSpaceOnUse"
       gradientTransform="matrix(1.0666667,0,0,1.0666667,-4.3041915e-8,149.33333)" />
    <linearGradient
       id="linearGradient5165-7-9-8-2">
      <stop
         id="stop5167-4-8-6-9"
         style="stop-color:#ffffff;stop-opacity:1"
         offset="0" />
      <stop
         id="stop5169-5-5-2-9"
         style="stop-color:#ffffff;stop-opacity:0"
         offset="1" />
    </linearGradient>
    <linearGradient
       inkscape:collect="always"
       xlink:href="#linearGradient5344"
       id="linearGradient3107"
       gradientUnits="userSpaceOnUse"
       gradientTransform="matrix(5.6896682,0,0,5.6896682,-1548.2455,-6255.5279)"
       x1="305.23422"
       y1="1137.0681"
       x2="283.35095"
       y2="1104.2024" />
    <linearGradient
       inkscape:collect="always"
       xlink:href="#jaca"
       id="linearGradient4454"
       x1="6.5963445"
       y1="25.086559"
       x2="117.48683"
       y2="107.41399"
       gradientUnits="userSpaceOnUse"
       gradientTransform="scale(1.0666667)" />
    <linearGradient
       id="jaca">
      <stop
         id="stop8362"
         offset="0"
         style="stop-color:#b995da;stop-opacity:1" />
      <stop
         id="stop8364"
         offset="1"
         style="stop-color:#766287;stop-opacity:1" />
    </linearGradient>
  </defs>
  <sodipodi:namedview
     id="base"
     pagecolor="#ffffff"
     bordercolor="#666666"
     borderopacity="1.0"
     inkscape:pageopacity="0.0"
     inkscape:pageshadow="2"
     inkscape:zoom="2.5676815"
     inkscape:cx="-18.730245"
     inkscape:cy="79.773251"
     inkscape:document-units="px"
     inkscape:current-layer="layer1"
     showgrid="false"
     inkscape:window-width="1366"
     inkscape:window-height="714"
     inkscape:window-x="0"
     inkscape:window-y="26"
     inkscape:window-maximized="1" />
  <metadata
     id="metadata6939">
    <rdf:RDF>
      <cc:Work
         rdf:about="">
        <dc:format>image/svg+xml</dc:format>
        <dc:type
           rdf:resource="http://purl.org/dc/dcmitype/StillImage" />
        <dc:title />
      </cc:Work>
    </rdf:RDF>
  </metadata>
  <g
     inkscape:label="Capa 1"
     inkscape:groupmode="layer"
     id="layer1">
    <path
       style="fill:url(#linearGradient4454);fill-opacity:1;fill-rule:evenodd;stroke:none;stroke-width:1.06666672"
       d="m 36.5,5.4000032 c -1.417888,0.059093 -2.720594,0.298304 -3.9,0.6666667 l -19.566667,2.9 H 12.5 v 0.2 C 6.403466,10.285678 3.2666667,15.131449 3.2666667,21.06667 V 111.4 C 3.191744,117.42908 5.4534439,122.16821 10,123.66667 L 30.233333,130 c 0.02226,0.0109 0.0443,0.0226 0.06667,0.0334 2.018902,0.96994 4.442053,1.31466 7.233333,0.86666 l 83.499994,-12.6 c 6.10189,-0.66105 10.09792,-6.46819 9.76667,-14.53333 l 0.43333,-79.233383 c 0.23732,-6.36303 -2.98846,-11.707968 -9.96666,-12.766667 L 38.233333,5.4333365 C 37.639936,5.4042165 37.05673,5.3768032 36.5,5.3999499 Z"
       id="path30949"
       inkscape:connector-curvature="0" />
    <path
       style="fill:url(#linearGradient3107);fill-rule:evenodd;stroke:none;stroke-width:1.06666672"
       d="M 31.2,17.833337 31.16667,120.66667 c 0.478612,3.68883 1.501382,8.66619 4.633333,10.4 0.56227,-0.0244 1.13867,-0.0713 1.733333,-0.16667 l 83.499994,-12.6 c 6.10189,-0.66106 10.09792,-6.46819 9.76667,-14.53333 l 0.43333,-79.233333 c 0.23728,-6.36303 -2.98846,-11.707968 -9.96666,-12.766667 L 40.19035,5.582606 C 35.954335,5.133891 31.213801,10.681881 31.2,17.833337 Z m 0.966667,112.833333 c 0.691161,0.18296 1.40232,0.34791 2.166666,0.4 z"
       id="path30953"
       inkscape:connector-curvature="0"
       sodipodi:nodetypes="ccccccccccccc" />
    <path
       style="display:inline;fill:url(#linearGradient3103);fill-rule:evenodd;stroke:none;stroke-width:1.06666672"
       d="m 37.1,5.6666699 -24.066667,3.3 H 12.5 v 0.2 C 6.4034656,10.285678 3.2666667,15.131449 3.2666667,21.06667 V 47.733337 H 31.2 v -29.9 C 31.570188,12.588771 33.625668,7.2053045 37.1,5.6666699 Z"
       id="path3073"
       inkscape:connector-curvature="0" />
    <path
       style="display:inline;fill:url(#linearGradient3105);fill-rule:evenodd;stroke:none;stroke-width:1.06666672"
       d="M 3.2666667,72.96667 V 111.4 C 3.191744,117.42908 5.4534443,122.16821 10,123.66667 l 18.833333,6.43333 8,1.4 C 32.8751,130.38546 31.69472,124.73655 31.166667,120.66667 v -47.7 z"
       id="path3081"
       inkscape:connector-curvature="0" />
    <path
       inkscape:connector-curvature="0"
       id="path30957"
       d="M 38.213346,5.4233952 C 36.363347,5.3324085 34.727917,5.5656139 33.23489,5.9581472 L 12.432043,9.1587232 C 6.3355143,10.277731 3.1863319,15.136035 3.1863319,21.071257 v 90.323663 c -0.074923,6.02908 2.2099238,10.77021 6.7564798,12.26866 l 20.9806473,6.57806 c 1.911724,0.78962 4.026654,1.12128 6.57868,0.71168 l 83.567001,-12.62421 c 6.10189,-0.66048 10.11037,-6.51435 9.77912,-14.57949 l 0.35561,-79.300294 c 0.23728,-6.363029 -2.97871,-11.564949 -9.95692,-12.623648 L 38.213353,5.4245365 Z"
       style="display:inline;fill:none;stroke:#344b63;stroke-width:2.84483409;stroke-linecap:butt;stroke-linejoin:miter;stroke-miterlimit:4;stroke-dasharray:none;stroke-opacity:1"
       sodipodi:nodetypes="ccccccccccccc" />
    <path
       inkscape:connector-curvature="0"
       id="path4194"
       d="M 83.513882,13.70071 C 59.613264,11.845049 37.909611,29.11043 36.182884,63.539771 34.71475,92.813555 49.549538,116.17039 69.106823,121.00467 l 5.641014,-16.59656 C 62.047724,100.05783 53.802285,85.419975 54.841954,64.689901 56.142855,38.751143 71.915167,26.163525 88.64297,29.437654 c 9.43297,1.846329 16.68094,8.681431 20.75618,18.338934 2.49791,5.919447 3.94144,12.865826 3.56152,20.441315 -0.72606,14.476855 -7.44452,26.915447 -16.459185,33.165367 l 4.588205,14.72102 c 13.89155,-8.89184 24.11287,-26.463907 25.13581,-46.860699 1.41548,-28.223805 -14.40095,-50.541112 -37.858278,-54.958866 -1.611869,-0.303556 -3.25996,-0.460293 -4.853341,-0.583978 z m 4.054368,35.690842 c -7.855209,-0.947221 -15.193235,4.973241 -15.840799,17.88509 -0.647585,12.912237 5.383126,20.323701 14.600233,20.1263 C 93.58898,87.247424 98.975509,78.604906 99.478731,68.571133 99.976403,58.648012 95.173413,50.306329 87.56825,49.391552 Z"
       style="display:inline;fill:#000000;fill-opacity:1;stroke:#000000;stroke-width:4.63067627;stroke-linecap:round;stroke-linejoin:round;stroke-miterlimit:4;stroke-dasharray:none;stroke-opacity:0.55135139" />
    <path
       style="display:inline;fill:#ffffff;fill-opacity:1;stroke:none;stroke-width:1.06666672"
       d="M 84.175326,14.166622 C 60.430838,12.323083 38.868963,29.475679 37.153517,63.680111 35.694973,92.762666 50.432851,115.96693 69.86238,120.76962 l 5.604164,-16.48814 C 62.849394,99.959616 54.657819,85.417386 55.690697,64.822729 56.983099,39.053415 72.65238,26.548025 89.270909,29.800767 c 9.37135,1.834267 16.571971,8.624719 20.620581,18.219133 2.48159,5.880779 3.91569,12.781781 3.53825,20.307784 -0.7213,14.382286 -7.39587,26.739624 -16.351653,32.948716 l 4.558233,14.62486 c 13.8008,-8.83375 23.95536,-26.291038 24.97162,-46.554588 1.40623,-28.039435 -14.30687,-50.210955 -37.610978,-54.59985 -1.601341,-0.301573 -3.238664,-0.457286 -4.821637,-0.580164 z m 4.027883,35.457694 c -7.803895,-0.941034 -15.093984,4.940752 -15.737319,17.768256 -0.643355,12.827889 5.34796,20.190937 14.504858,19.994825 7.213861,-0.154502 12.565204,-8.740563 13.065142,-18.708791 0.49442,-9.858298 -4.277199,-18.14549 -11.832681,-19.05429 z"
       id="path27063"
       inkscape:connector-curvature="0" />
  </g>
</svg>
