<?xml version="1.0" encoding="UTF-8" standalone="no"?>
<!-- Created with Inkscape (http://www.inkscape.org/) -->

<svg
   xmlns:dc="http://purl.org/dc/elements/1.1/"
   xmlns:cc="http://creativecommons.org/ns#"
   xmlns:rdf="http://www.w3.org/1999/02/22-rdf-syntax-ns#"
   xmlns:svg="http://www.w3.org/2000/svg"
   xmlns="http://www.w3.org/2000/svg"
   xmlns:xlink="http://www.w3.org/1999/xlink"
   xmlns:sodipodi="http://sodipodi.sourceforge.net/DTD/sodipodi-0.dtd"
   xmlns:inkscape="http://www.inkscape.org/namespaces/inkscape"
   width="16"
   height="16"
   id="svg2"
   sodipodi:version="0.32"
   inkscape:version="0.48.3.1 r9886"
   version="1.0"
   sodipodi:docname="document-save-symbolic.svg"
   inkscape:output_extension="org.inkscape.output.svg.inkscape">
  <defs
     id="defs4">
    <linearGradient
       id="linearGradient9863">
      <stop
         style="stop-color:#2f445a;stop-opacity:1;"
         offset="0"
         id="stop9865" />
      <stop
         style="stop-color:#415f7c;stop-opacity:1"
         offset="1"
         id="stop9867" />
    </linearGradient>
    <linearGradient
       id="linearGradient5362">
      <stop
         style="stop-color:#ffffff;stop-opacity:1;"
         offset="0"
         id="stop5364" />
      <stop
         style="stop-color:#ffffff;stop-opacity:0;"
         offset="1"
         id="stop5366" />
    </linearGradient>
    <linearGradient
       id="linearGradient5439">
      <stop
         style="stop-color:#ffffff;stop-opacity:1;"
         offset="0"
         id="stop5441" />
      <stop
         style="stop-color:#000000;stop-opacity:1;"
         offset="1"
         id="stop5443" />
    </linearGradient>
    <linearGradient
       id="linearGradient5344">
      <stop
         style="stop-color:#000000;stop-opacity:1;"
         offset="0"
         id="stop5346" />
      <stop
         style="stop-color:#000000;stop-opacity:0;"
         offset="1"
         id="stop5348" />
    </linearGradient>
    <linearGradient
       id="linearGradient8702">
      <stop
         id="stop8704"
         offset="0"
         style="stop-color:#87c7ff;stop-opacity:1;" />
      <stop
         id="stop8706"
         offset="1"
         style="stop-color:#74aadb;stop-opacity:1;" />
    </linearGradient>
    <linearGradient
       id="linearGradient8702-5">
      <stop
         id="stop8704-4"
         offset="0"
         style="stop-color:#87c7ff;stop-opacity:1;" />
      <stop
         id="stop8706-4"
         offset="1"
         style="stop-color:#74aadb;stop-opacity:1;" />
    </linearGradient>
    <linearGradient
       inkscape:collect="always"
       xlink:href="#linearGradient8702-5"
       id="linearGradient3356"
       gradientUnits="userSpaceOnUse"
       x1="16.54705"
       y1="10.225347"
       x2="100.17935"
       y2="106.87752" />
    <linearGradient
       y2="106.87752"
       x2="100.17935"
       y1="10.225347"
       x1="16.54705"
       gradientUnits="userSpaceOnUse"
       id="linearGradient3407"
       xlink:href="#linearGradient8702-5-3"
       inkscape:collect="always"
       gradientTransform="matrix(0.12496705,0,0,0.125,0,112)" />
    <linearGradient
       id="linearGradient8702-5-3">
      <stop
         id="stop8704-4-3"
         offset="0"
         style="stop-color:#87c7ff;stop-opacity:1;" />
      <stop
         id="stop8706-4-5"
         offset="1"
         style="stop-color:#74aadb;stop-opacity:1;" />
    </linearGradient>
    <linearGradient
       y2="106.87752"
       x2="100.17935"
       y1="10.225347"
       x1="16.54705"
       gradientTransform="matrix(0.12496705,0,0,0.125,0,112)"
       gradientUnits="userSpaceOnUse"
       id="linearGradient4283"
       xlink:href="#linearGradient8702-5-3"
       inkscape:collect="always" />
  </defs>
  <sodipodi:namedview
     id="base"
     pagecolor="#ffffff"
     bordercolor="#666666"
     borderopacity="1.0"
     inkscape:pageopacity="0.0"
     inkscape:pageshadow="2"
     inkscape:zoom="32.5625"
     inkscape:cx="8"
     inkscape:cy="8"
     inkscape:document-units="px"
     inkscape:current-layer="layer1"
     showgrid="false"
     inkscape:showpageshadow="false"
     inkscape:window-width="1024"
     inkscape:window-height="713"
     inkscape:window-x="0"
     inkscape:window-y="0"
     showguides="true"
     inkscape:guide-bbox="true"
     inkscape:window-maximized="0" />
  <metadata
     id="metadata7">
    <rdf:RDF>
      <cc:Work
         rdf:about="">
        <dc:format>image/svg+xml</dc:format>
        <dc:type
           rdf:resource="http://purl.org/dc/dcmitype/StillImage" />
      </cc:Work>
    </rdf:RDF>
  </metadata>
  <g
     inkscape:label="Capa 1"
     inkscape:groupmode="layer"
     id="layer1"
     transform="translate(0,-112)">
    <path
       style="fill:url(#linearGradient4283);fill-rule:evenodd;stroke:none;display:inline"
       d="m 7.9666494,112.18359 a 0.58465509,0.58480925 0 0 0 -0.5779726,0.4961 l -4.0223769,-0.31641 c -0.1199034,-0.009 -0.2363676,-0.0139 -0.3514699,-0.0156 -0.1151022,-0.002 -0.2288427,-1.3e-4 -0.3397541,0.004 -0.6639412,0.0244 -1.2433897,0.15932 -1.70658127,0.37109 -0.001125,5e-4 -0.002831,-5e-4 -0.003905,0 -0.54087863,0.23214 -0.92750544,0.70765 -0.94506331,1.35157 -1.524e-5,10e-4 -1.524e-5,0.003 0,0.004 l 0,10.90625 c -0.0023619,0.43758 0.06152753,0.81882 0.2108819,1.1289 0.14935436,0.31008 0.39530951,0.54404 0.72246575,0.64844 -1.525e-5,10e-4 -1.525e-5,0.003 0,0.004 0.59220253,0.1838 1.27067243,0.38933 1.80030653,0.4375 0.0013,2e-5 0.0026,2e-5 0.00391,0 0.195441,0.0144 0.410638,0.004 0.6443614,-0.0352 l 0.00391,0 11.3563811,-1.77735 c 0.0013,2e-5 0.0026,2e-5 0.0039,0 0.485537,-0.0811 0.812826,-0.33942 0.991926,-0.67968 0.1791,-0.34027 0.222598,-0.75162 0.222598,-1.17188 l -0.0078,-6.63283 a 0.58465509,0.58480925 0 0 0 0,-0.008 0.58465509,0.58480925 0 0 0 0,-0.35547 l 0,-1.82813 c -3.75e-4,-0.30128 -0.02426,-0.62825 -0.175735,-0.91015 -0.151477,-0.2819 -0.448533,-0.49444 -0.898201,-0.53906 l -1.116893,-0.0859 0,0.43359 0.554541,0.0469 c 0.229772,0.0192 0.400422,0.12965 0.515489,0.32031 l 0.562352,0.875 c 0.09138,0.13559 0.172099,0.35206 0.160114,0.55859 l 0,0.74219 a 0.58465509,0.58480925 0 0 0 -0.160114,-0.0234 l -0.0078,0 0,-0.46093 c -0.0071,-0.17586 -0.06308,-0.32802 -0.144493,-0.47266 l -0.597503,-0.88672 c -0.09235,-0.12508 -0.209128,-0.23383 -0.495963,-0.24219 l -0.386617,-0.0273 0,2.17578 2.132251,0 -4.694075,5.36719 -5.0260187,-5.36719 2.2728382,0 0,-4.03516 -0.4998681,0 z m -1.2965332,0.78125 c 0.083783,0.001 0.1659124,0.004 0.2499341,0.0117 0.1549515,0.0137 0.3090936,0.0397 0.460816,0.0742 l 0,0.78906 c -0.080303,-0.0126 -0.1603558,-0.0244 -0.2421236,-0.0313 -0.07648,-0.006 -0.1543527,-0.0109 -0.230408,-0.0117 -2.3577151,-0.026 -4.4792877,2.60114 -4.4792877,6.32031 0,3.82543 2.176909,6.19703 4.6940748,5.78125 0.8896539,-0.14695 1.7028046,-0.57766 2.3626582,-1.25 0.1720953,-0.17274 0.4217321,-0.20242 0.585783,-0.0234 l 0.562352,0.60156 c 0.122342,0.14453 0.278627,0.15648 0.456911,0.1211 l 3.053882,-0.45313 c 0.190656,-0.0341 0.336529,-0.13775 0.429574,-0.26953 l 0.734181,-0.94531 c 0.06831,-0.0948 0.105374,-0.20289 0.09763,-0.36328 l 0,-2.96875 c 0,-0.12797 -0.07004,-0.23192 -0.187451,-0.26563 l -0.558445,-0.13672 c -0.132363,-0.0406 -0.183545,-0.13283 -0.183545,-0.25781 l 0.0078,-0.63281 c 0.0051,-0.1088 0.05592,-0.2007 0.152304,-0.24219 l 0.617024,-0.27344 c 0.08867,-0.0332 0.155284,-0.11652 0.152304,-0.21093 l 0,-0.71094 0.167924,-0.19141 0,0.86719 c 0.0116,0.18864 -0.07847,0.2771 -0.199166,0.32812 l -0.597488,0.25391 c -0.118051,0.0458 -0.173922,0.1274 -0.175735,0.24609 l -0.0078,0.38672 c 5e-4,0.0915 0.03624,0.19666 0.160114,0.21875 l 0.492058,0.14453 c 0.164649,0.0383 0.329487,0.22088 0.328038,0.41797 l 0,3.04688 c 0.01043,0.19811 -0.0261,0.33109 -0.121061,0.47656 l -0.714656,0.89844 c -0.144497,0.18014 -0.295016,0.31583 -0.546731,0.34375 l -3.299911,0.5664 c -0.197211,0.0287 -0.354217,-0.0428 -0.445195,-0.13281 l -0.5740782,-0.57422 c -0.1105146,-0.1303 -0.2809339,-0.12389 -0.390522,-0.004 l 0,-0.004 c -0.7220383,0.72881 -1.6075511,1.19918 -2.5774454,1.35939 -2.7664917,0.45696 -5.2798578,-2.15114 -5.2798578,-6.35547 0,-4.08755 2.4482705,-6.98433 5.0455446,-6.94532 z m -0.9333476,4.65235 0.2186923,0.23437 c -0.4165593,0.44621 -0.6834135,1.17819 -0.6834135,2.01953 0,1.42805 0.8125557,2.50528 1.7846856,2.36329 0.6302425,-0.0921 1.1984763,-0.81652 1.4254054,-1.6836 l 0.3553751,0.375 c -0.2906908,1.01451 -0.9596097,1.8524 -1.7026761,1.96094 -1.1857487,0.1732 -2.1752077,-1.14097 -2.1752077,-2.88281 0,-0.98555 0.3026167,-1.83916 0.7771389,-2.38672 z"
       id="path8898"
       inkscape:connector-curvature="0" />
  </g>
</svg>
