<?xml version="1.0" encoding="UTF-8" standalone="no"?>
<!-- Created with Inkscape (http://www.inkscape.org/) -->

<svg
   xmlns:dc="http://purl.org/dc/elements/1.1/"
   xmlns:cc="http://creativecommons.org/ns#"
   xmlns:rdf="http://www.w3.org/1999/02/22-rdf-syntax-ns#"
   xmlns:svg="http://www.w3.org/2000/svg"
   xmlns="http://www.w3.org/2000/svg"
   xmlns:xlink="http://www.w3.org/1999/xlink"
   xmlns:sodipodi="http://sodipodi.sourceforge.net/DTD/sodipodi-0.dtd"
   xmlns:inkscape="http://www.inkscape.org/namespaces/inkscape"
   width="16"
   height="16"
   id="svg6349"
   sodipodi:version="0.32"
   inkscape:version="0.48.3.1 r9886"
   version="1.0"
   sodipodi:docname="list-add-symbolic.svg"
   inkscape:output_extension="org.inkscape.output.svg.inkscape">
  <defs
     id="defs6351">
    <linearGradient
       id="linearGradient8702">
      <stop
         id="stop8704"
         offset="0"
         style="stop-color:#aac736;stop-opacity:1;" />
      <stop
         id="stop8706"
         offset="1"
         style="stop-color:#5d8b2c;stop-opacity:1;" />
    </linearGradient>
    <linearGradient
       inkscape:collect="always"
       xlink:href="#linearGradient8702"
       id="linearGradient7725"
       x1="861.77502"
       y1="443.29251"
       x2="903.36829"
       y2="485.01181"
       gradientUnits="userSpaceOnUse" />
    <linearGradient
       id="linearGradient5362">
      <stop
         style="stop-color:#ffffff;stop-opacity:1;"
         offset="0"
         id="stop5364" />
      <stop
         style="stop-color:#ffffff;stop-opacity:0;"
         offset="1"
         id="stop5366" />
    </linearGradient>
    <linearGradient
       id="linearGradient5344">
      <stop
         style="stop-color:#000000;stop-opacity:1;"
         offset="0"
         id="stop5346" />
      <stop
         style="stop-color:#000000;stop-opacity:0;"
         offset="1"
         id="stop5348" />
    </linearGradient>
    <linearGradient
       id="linearGradient12336">
      <stop
         id="stop12338"
         offset="0"
         style="stop-color:#ff6e00;stop-opacity:1;" />
      <stop
         id="stop12340"
         offset="1"
         style="stop-color:#eb2600;stop-opacity:1;" />
    </linearGradient>
    <inkscape:perspective
       sodipodi:type="inkscape:persp3d"
       inkscape:vp_x="0 : 526.18109 : 1"
       inkscape:vp_y="0 : 1000 : 0"
       inkscape:vp_z="744.09448 : 526.18109 : 1"
       inkscape:persp3d-origin="372.04724 : 350.78739 : 1"
       id="perspective6357" />
    <linearGradient
       inkscape:collect="always"
       xlink:href="#linearGradient8702"
       id="linearGradient6453"
       gradientUnits="userSpaceOnUse"
       x1="861.77502"
       y1="443.29251"
       x2="903.36829"
       y2="485.01181" />
    <linearGradient
       inkscape:collect="always"
       xlink:href="#linearGradient8702"
       id="linearGradient6455"
       gradientUnits="userSpaceOnUse"
       x1="861.77502"
       y1="443.29251"
       x2="903.36829"
       y2="485.01181" />
    <linearGradient
       inkscape:collect="always"
       xlink:href="#linearGradient8702"
       id="linearGradient3011"
       gradientUnits="userSpaceOnUse"
       x1="861.77502"
       y1="443.29251"
       x2="903.36829"
       y2="485.01181" />
    <linearGradient
       inkscape:collect="always"
       xlink:href="#linearGradient12336"
       id="linearGradient3013"
       gradientUnits="userSpaceOnUse"
       x1="854.03577"
       y1="431.5502"
       x2="890.29163"
       y2="474.60385" />
    <linearGradient
       inkscape:collect="always"
       xlink:href="#linearGradient8702"
       id="linearGradient3015"
       gradientUnits="userSpaceOnUse"
       x1="861.77502"
       y1="443.29251"
       x2="903.36829"
       y2="485.01181" />
  </defs>
  <sodipodi:namedview
     id="base"
     pagecolor="#ffffff"
     bordercolor="#666666"
     borderopacity="1.0"
     inkscape:pageopacity="0.0"
     inkscape:pageshadow="2"
     inkscape:zoom="5.6"
     inkscape:cx="14.421472"
     inkscape:cy="18.896303"
     inkscape:document-units="px"
     inkscape:current-layer="layer1"
     showgrid="false"
     inkscape:window-width="1012"
     inkscape:window-height="713"
     inkscape:window-x="0"
     inkscape:window-y="0"
     inkscape:window-maximized="0" />
  <metadata
     id="metadata6354">
    <rdf:RDF>
      <cc:Work
         rdf:about="">
        <dc:format>image/svg+xml</dc:format>
        <dc:type
           rdf:resource="http://purl.org/dc/dcmitype/StillImage" />
      </cc:Work>
    </rdf:RDF>
  </metadata>
  <g
     inkscape:label="Capa 1"
     inkscape:groupmode="layer"
     id="layer1"
     transform="translate(0,-112)">
    <g
       transform="matrix(0.33456549,0,0,0.33456549,-283.90684,-31.651975)"
       id="g7717"
       style="fill:url(#linearGradient7725)">
      <path
         style="fill:url(#linearGradient6453);fill-opacity:1;fill-rule:evenodd;stroke:#000000;stroke-width:1.62331581;stroke-linecap:round;stroke-linejoin:miter;stroke-miterlimit:4;stroke-opacity:1;stroke-dasharray:none"
         d="m 872.17762,434.3816 c -1.49519,0.16778 -2.61948,1.442 -2.5998,2.94644 l 0,12.82572 -12.8835,0 c -1.62727,0 -2.94645,1.31918 -2.94645,2.94645 0,1.62726 1.31918,2.94645 2.94645,2.94645 l 12.8835,0 0,12.82572 c -0.0856,1.09665 0.44855,2.14081 1.38655,2.71535 0.93805,0.57451 2.12398,0.57453 3.062,0 0.93798,-0.57455 1.47213,-1.6187 1.38657,-2.71535 l 0,-12.82572 12.88349,0 c 1.62728,0 2.94645,-1.31919 2.94645,-2.94645 0,-1.62727 -1.31917,-2.94645 -2.94645,-2.94645 l -12.88349,0 0,-12.82572 c 0.0104,-0.83622 -0.36385,-1.63231 -0.98216,-2.1954 -0.61828,-0.56308 -1.42155,-0.83939 -2.25316,-0.75104 z"
         id="path7719"
         inkscape:export-filename="/home/dafeba/DCV/tallerD/elementos.png"
         inkscape:export-xdpi="89.986237"
         inkscape:export-ydpi="89.986237"
         inkscape:connector-curvature="0" />
      <path
         id="path7721"
         d="m 872.17762,434.3816 c -1.49519,0.16778 -2.61948,1.442 -2.5998,2.94644 l 0,12.82572 -12.8835,0 c -1.62727,0 -2.94645,1.31918 -2.94645,2.94645 0,1.62726 1.31918,2.94645 2.94645,2.94645 l 12.8835,0 0,12.82572 c -0.0856,1.09665 0.44855,2.14081 1.38655,2.71535 0.93805,0.57451 2.12398,0.57453 3.062,0 0.93798,-0.57455 1.47213,-1.6187 1.38657,-2.71535 l 0,-12.82572 12.88349,0 c 1.62728,0 2.94645,-1.31919 2.94645,-2.94645 0,-1.62727 -1.31917,-2.94645 -2.94645,-2.94645 l -12.88349,0 0,-12.82572 c 0.0104,-0.83622 -0.36385,-1.63231 -0.98216,-2.1954 -0.61828,-0.56308 -1.42155,-0.83939 -2.25316,-0.75104 z"
         style="fill:url(#linearGradient6455);fill-opacity:1;fill-rule:evenodd;stroke:none"
         inkscape:export-filename="/home/dafeba/DCV/tallerD/elementos.png"
         inkscape:export-xdpi="89.986237"
         inkscape:export-ydpi="89.986237"
         inkscape:connector-curvature="0" />
    </g>
  </g>
</svg>
