<?xml version="1.0" encoding="UTF-8" standalone="no"?>
<!-- Created with Inkscape (http://www.inkscape.org/) -->

<svg
   xmlns:dc="http://purl.org/dc/elements/1.1/"
   xmlns:cc="http://creativecommons.org/ns#"
   xmlns:rdf="http://www.w3.org/1999/02/22-rdf-syntax-ns#"
   xmlns:svg="http://www.w3.org/2000/svg"
   xmlns="http://www.w3.org/2000/svg"
   xmlns:xlink="http://www.w3.org/1999/xlink"
   xmlns:sodipodi="http://sodipodi.sourceforge.net/DTD/sodipodi-0.dtd"
   xmlns:inkscape="http://www.inkscape.org/namespaces/inkscape"
   width="128"
   height="128"
   id="svg52672"
   sodipodi:version="0.32"
   inkscape:version="0.48.3.1 r9886"
   version="1.0"
   sodipodi:docname="system-lock-screen.svg"
   inkscape:output_extension="org.inkscape.output.svg.inkscape">
  <defs
     id="defs52674">
    <linearGradient
       inkscape:collect="always"
       xlink:href="#linearGradient5439"
       id="linearGradient9788"
       gradientUnits="userSpaceOnUse"
       gradientTransform="matrix(4.6816014,4.7195002e-2,0,4.6816014,-2309.4144,-4525.3689)"
       x1="493.79773"
       y1="966.80334"
       x2="479.87286"
       y2="1015.4691" />
    <linearGradient
       inkscape:collect="always"
       xlink:href="#linearGradient5439"
       id="linearGradient9790"
       gradientUnits="userSpaceOnUse"
       gradientTransform="matrix(4.6785879,-0.1207899,0.1679545,4.680281,-2474.6334,-4434.0154)"
       x1="515.25647"
       y1="980.49353"
       x2="497.72803"
       y2="991.33789" />
    <linearGradient
       inkscape:collect="always"
       xlink:href="#linearGradient5439"
       id="linearGradient9792"
       gradientUnits="userSpaceOnUse"
       gradientTransform="matrix(4.6785879,-0.1207899,0.1679545,4.680281,-2474.6635,-4437.1225)"
       x1="510.13104"
       y1="987.76733"
       x2="509.42908"
       y2="983.16199" />
    <linearGradient
       inkscape:collect="always"
       xlink:href="#linearGradient5439"
       id="linearGradient9794"
       gradientUnits="userSpaceOnUse"
       gradientTransform="matrix(2.6765239,0,0,2.6765239,-1299.0906,-2514.9622)"
       x1="520.0495"
       y1="980.01654"
       x2="505.46637"
       y2="979.97235" />
    <linearGradient
       inkscape:collect="always"
       xlink:href="#linearGradient5439"
       id="linearGradient9796"
       gradientUnits="userSpaceOnUse"
       gradientTransform="matrix(4.6816014,4.7195002e-2,0,4.6816014,-2309.4144,-4525.3689)"
       x1="491.99448"
       y1="955.10822"
       x2="556.50537"
       y2="1020.8551" />
    <linearGradient
       inkscape:collect="always"
       xlink:href="#linearGradient5439"
       id="linearGradient9798"
       gradientUnits="userSpaceOnUse"
       gradientTransform="matrix(4.6816014,4.7195002e-2,0,4.6816014,-2309.4144,-4525.0584)"
       x1="528.23529"
       y1="987.03857"
       x2="489.7879"
       y2="956.6394" />
    <linearGradient
       inkscape:collect="always"
       xlink:href="#linearGradient5439"
       id="linearGradient9800"
       gradientUnits="userSpaceOnUse"
       gradientTransform="matrix(4.5487676,4.5855905e-2,0,4.5487676,-2243.2237,-4396.1442)"
       x1="484.58182"
       y1="944.99841"
       x2="518.39886"
       y2="980.99731" />
    <linearGradient
       inkscape:collect="always"
       xlink:href="#linearGradient9863"
       id="linearGradient11106"
       gradientUnits="userSpaceOnUse"
       gradientTransform="matrix(2.6765239,0,0,2.6765239,-2101.6337,-775.16248)"
       x1="810.84375"
       y1="336.11224"
       x2="811.0625"
       y2="289.8125" />
    <filter
       inkscape:collect="always"
       id="filter10381">
      <feGaussianBlur
         inkscape:collect="always"
         stdDeviation="0.49765688"
         id="feGaussianBlur10383" />
    </filter>
    <linearGradient
       inkscape:collect="always"
       xlink:href="#linearGradient5344"
       id="linearGradient10379"
       x1="1023.0977"
       y1="300.65042"
       x2="983.05676"
       y2="345.68076"
       gradientUnits="userSpaceOnUse"
       gradientTransform="translate(-966.62436,-229.936)" />
    <linearGradient
       inkscape:collect="always"
       xlink:href="#linearGradient12578"
       id="linearGradient7370"
       x1="-747.0946"
       y1="-713.92029"
       x2="-747.0946"
       y2="-759.54541"
       gradientUnits="userSpaceOnUse"
       gradientTransform="matrix(1.3188154,0,0,1.3188154,577.99084,156.94875)" />
    <linearGradient
       inkscape:collect="always"
       xlink:href="#linearGradient5439"
       id="linearGradient7372"
       x1="744.22913"
       y1="713.04987"
       x2="744.22913"
       y2="766.74945"
       gradientUnits="userSpaceOnUse"
       gradientTransform="matrix(1.3188154,0,0,1.3188154,-577.99084,-156.94875)" />
    <linearGradient
       id="linearGradient12578">
      <stop
         style="stop-color:#e9b551;stop-opacity:1;"
         offset="0"
         id="stop12580" />
      <stop
         style="stop-color:#b48739;stop-opacity:1;"
         offset="1"
         id="stop12582" />
    </linearGradient>
    <linearGradient
       id="linearGradient9863">
      <stop
         style="stop-color:#2f445a;stop-opacity:1;"
         offset="0"
         id="stop9865" />
      <stop
         style="stop-color:#415f7c;stop-opacity:1"
         offset="1"
         id="stop9867" />
    </linearGradient>
    <linearGradient
       inkscape:collect="always"
       xlink:href="#linearGradient5344"
       id="linearGradient58832"
       gradientUnits="userSpaceOnUse"
       gradientTransform="translate(-184,-280)"
       x1="519.31262"
       y1="723.67017"
       x2="511.42725"
       y2="667.20789" />
    <linearGradient
       inkscape:collect="always"
       xlink:href="#linearGradient5362"
       id="linearGradient58830"
       gradientUnits="userSpaceOnUse"
       gradientTransform="translate(-184,-280)"
       x1="504.91962"
       y1="635.44617"
       x2="504.48212"
       y2="641.10242" />
    <linearGradient
       inkscape:collect="always"
       xlink:href="#linearGradient5451"
       id="linearGradient58828"
       gradientUnits="userSpaceOnUse"
       gradientTransform="translate(-184,-280)"
       x1="484.70901"
       y1="674.9306"
       x2="533.03339"
       y2="674.9306" />
    <linearGradient
       id="linearGradient5451">
      <stop
         style="stop-color:#000000;stop-opacity:0.35099337;"
         offset="0"
         id="stop5453" />
      <stop
         id="stop5459"
         offset="0.45549738"
         style="stop-color:#000000;stop-opacity:0.29139072;" />
      <stop
         style="stop-color:#000000;stop-opacity:0;"
         offset="1"
         id="stop5455" />
    </linearGradient>
    <linearGradient
       id="linearGradient5439">
      <stop
         style="stop-color:#ffffff;stop-opacity:1;"
         offset="0"
         id="stop5441" />
      <stop
         style="stop-color:#000000;stop-opacity:1;"
         offset="1"
         id="stop5443" />
    </linearGradient>
    <linearGradient
       id="linearGradient5362">
      <stop
         style="stop-color:#ffffff;stop-opacity:1;"
         offset="0"
         id="stop5364" />
      <stop
         style="stop-color:#ffffff;stop-opacity:0;"
         offset="1"
         id="stop5366" />
    </linearGradient>
    <linearGradient
       id="linearGradient5344">
      <stop
         style="stop-color:#000000;stop-opacity:1;"
         offset="0"
         id="stop5346" />
      <stop
         style="stop-color:#000000;stop-opacity:0;"
         offset="1"
         id="stop5348" />
    </linearGradient>
  </defs>
  <sodipodi:namedview
     id="base"
     pagecolor="#ffffff"
     bordercolor="#666666"
     borderopacity="1.0"
     inkscape:pageopacity="0.0"
     inkscape:pageshadow="2"
     inkscape:zoom="2"
     inkscape:cx="94.00261"
     inkscape:cy="55.434761"
     inkscape:document-units="px"
     inkscape:current-layer="layer1"
     showgrid="false"
     inkscape:window-width="1024"
     inkscape:window-height="713"
     inkscape:window-x="0"
     inkscape:window-y="0"
     inkscape:window-maximized="0" />
  <metadata
     id="metadata52677">
    <rdf:RDF>
      <cc:Work
         rdf:about="">
        <dc:format>image/svg+xml</dc:format>
        <dc:type
           rdf:resource="http://purl.org/dc/dcmitype/StillImage" />
      </cc:Work>
    </rdf:RDF>
  </metadata>
  <g
     inkscape:label="Capa 1"
     inkscape:groupmode="layer"
     id="layer1">
    <g
       inkscape:export-ydpi="89.986237"
       inkscape:export-xdpi="89.986237"
       inkscape:export-filename="/home/dafeba/DCV/tallerD/elementos.png"
       transform="translate(424,80)"
       id="g58804">
      <rect
         style="opacity:1;fill:#f2f2f2;fill-opacity:1;stroke:none;stroke-width:0.1;stroke-linecap:round;stroke-linejoin:round;stroke-miterlimit:4;stroke-dasharray:none;stroke-opacity:0.30041151"
         id="rect58806"
         width="47.823223"
         height="48"
         x="301.18933"
         y="351.1709" />
      <path
         style="fill:url(#linearGradient58828);fill-rule:evenodd;stroke:none;stroke-width:1px;stroke-linecap:butt;stroke-linejoin:miter;stroke-opacity:1"
         d="M 313.09207,399.15115 L 301.20351,395.7431 L 336.08403,390.7653 L 349.00384,390.68796 L 349.03336,399.15114 L 313.09207,399.15115 z"
         id="path58808"
         sodipodi:nodetypes="cccccc" />
      <path
         style="fill:#f2f2f2;fill-rule:evenodd;stroke:none;stroke-width:0.5;stroke-linecap:round;stroke-linejoin:round;stroke-miterlimit:4;stroke-dasharray:none;stroke-opacity:1"
         d="M 301.48601,353.22699 C 305.08831,353.57311 306.6134,357.74996 306.61071,360.86425 L 306.56413,389.36485 C 306.59506,392.86249 308.42012,396.3398 313.14348,398.87602 L 346.05226,393.25994 C 342.15451,392.5412 339.36778,388.67929 339.39934,385.53974 L 339.4778,361.97786 C 339.51198,358.9412 337.51957,355.88584 333.82005,355.55785 L 301.48601,353.22699 z"
         id="path58810"
         sodipodi:nodetypes="ccccccccc" />
      <path
         sodipodi:nodetypes="ccccc"
         id="path58812"
         d="M 301.48601,353.22699 C 305.08831,353.57311 306.6134,357.74996 306.61071,360.86425 L 339.4778,361.97786 C 339.51198,358.9412 337.51957,355.88584 333.82005,355.55785 L 301.48601,353.22699 z"
         style="fill:url(#linearGradient58830);fill-rule:evenodd;stroke:none;stroke-width:0.5;stroke-linecap:round;stroke-linejoin:round;stroke-miterlimit:4;stroke-dasharray:none;stroke-opacity:1" />
      <path
         sodipodi:nodetypes="ccccc"
         id="path58814"
         d="M 306.56413,389.36485 C 306.59506,392.86249 308.42012,396.3398 313.14348,398.87602 L 346.05226,393.25994 C 342.15451,392.5412 339.36778,388.67929 339.39934,385.53974 L 306.56413,389.36485 z"
         style="fill:url(#linearGradient58832);fill-rule:evenodd;stroke:none;stroke-width:0.5;stroke-linecap:round;stroke-linejoin:round;stroke-miterlimit:4;stroke-dasharray:none;stroke-opacity:1" />
      <path
         sodipodi:nodetypes="ccccccccc"
         id="path58816"
         d="M 301.48601,353.22699 C 305.08831,353.57311 306.6134,357.74996 306.61071,360.86425 L 306.56413,389.36485 C 306.59506,392.86249 308.42012,396.3398 313.14348,398.87602 L 346.05226,393.25994 C 342.15451,392.5412 339.36778,388.67929 339.39934,385.53974 L 339.4778,361.97786 C 339.51198,358.9412 337.51957,355.88584 333.82005,355.55785 L 301.48601,353.22699 z"
         style="fill:none;fill-rule:evenodd;stroke:#000000;stroke-width:0.5;stroke-linecap:round;stroke-linejoin:round;stroke-miterlimit:4;stroke-dasharray:none;stroke-opacity:1" />
    </g>
    <path
       sodipodi:nodetypes="ccccc"
       id="path58818"
       d="M 740.12551,445.55112 L 757.25142,445.69471 L 757.28066,447.8612 L 740.12588,448.00172 L 740.12551,445.55112 z"
       style="fill:#000000;fill-rule:evenodd;stroke:none;stroke-width:1px;stroke-linecap:butt;stroke-linejoin:miter;stroke-opacity:1" />
    <path
       style="fill:#000000;fill-rule:evenodd;stroke:none;stroke-width:1px;stroke-linecap:butt;stroke-linejoin:miter;stroke-opacity:1"
       d="M 744.24688,449.98324 L 754.3118,449.81922 L 754.31233,452.041 L 744.12653,452.24935 L 744.24688,449.98324 z"
       id="path58820"
       sodipodi:nodetypes="ccccc" />
    <path
       sodipodi:nodetypes="ccccc"
       id="path58822"
       d="M 737.18797,454.68729 L 758.68836,453.88522 L 758.75025,455.99227 L 737.18522,457.06633 L 737.18797,454.68729 z"
       style="fill:#000000;fill-rule:evenodd;stroke:none;stroke-width:1px;stroke-linecap:butt;stroke-linejoin:miter;stroke-opacity:1" />
    <path
       style="fill:#000000;fill-rule:evenodd;stroke:none;stroke-width:1px;stroke-linecap:butt;stroke-linejoin:miter;stroke-opacity:1"
       d="M 747.11973,459.21937 L 751.38008,458.93979 L 751.25403,461.03473 L 746.94583,461.39831 L 747.11973,459.21937 z"
       id="path58824"
       sodipodi:nodetypes="ccccc" />
    <path
       sodipodi:nodetypes="ccccc"
       id="path58826"
       d="M 742.54569,464.13694 L 754.55952,462.8959 L 754.44101,465.07791 L 742.37806,466.57431 L 742.54569,464.13694 z"
       style="fill:#000000;fill-rule:evenodd;stroke:none;stroke-width:1px;stroke-linecap:butt;stroke-linejoin:miter;stroke-opacity:1" />
    <path
       id="path9772"
       d="M 121.16826,83.441739 C 121.22607,89.584521 117.82261,95.605362 111.33766,96.469826 L 24.899101,116.73293 L 9.6592954,112.43877 C 4.7995844,110.99837 2.4596333,105.11294 2.3497888,99.137062 L 2.6985399,15.704863 C 2.6481944,9.4324292 8.1101768,3.7393023 15.246833,3.2016957 L 26.029478,1.8794661 L 102.12051,7.4215836 C 103.24197,7.3806327 104.52831,7.3372731 105.71294,7.4988013 L 117.20406,8.588655 C 119.16114,8.8935914 116.27852,21.436184 116.27852,22.89141 L 121.16826,83.441739 z"
       style="fill:url(#linearGradient9788);fill-rule:evenodd;stroke:none;stroke-width:0.09701986;stroke-linecap:butt;stroke-linejoin:miter;stroke-miterlimit:4;stroke-dasharray:none;stroke-opacity:1;display:inline"
       sodipodi:nodetypes="ccccccccccccc"
       inkscape:export-filename="/home/dafeba/DCV/tallerD/bocetos/08-09-22-hastaahora.png"
       inkscape:export-xdpi="57.964222"
       inkscape:export-ydpi="57.964222" />
    <path
       style="fill:url(#linearGradient9790);fill-rule:evenodd;stroke:none;stroke-width:1px;stroke-linecap:butt;stroke-linejoin:miter;stroke-opacity:1;display:inline"
       d="M 43.583595,120.74908 C 55.11406,124.88854 74.42518,123.0021 87.385711,119.99462 C 96.254373,117.93667 100.61497,114.91356 100.71748,112.54203 L 100.60613,109.08913 C 89.919576,106.56557 73.395521,108.35803 61.622027,110.1387 C 54.789665,111.08678 44.807837,113.19146 41.022697,115.55052 L 41.000749,119.12307 C 41.285264,119.67681 42.267548,120.37043 43.583595,120.74908 z"
       id="path9774"
       sodipodi:nodetypes="cscccccc"
       inkscape:export-filename="/home/dafeba/DCV/tallerD/bocetos/08-09-22-hastaahora.png"
       inkscape:export-xdpi="57.964222"
       inkscape:export-ydpi="57.964222" />
    <path
       sodipodi:nodetypes="csccc"
       id="path9776"
       d="M 43.553618,117.64164 C 56.385141,122.19507 74.395203,119.89471 87.355734,116.88723 C 100.40566,113.85901 104.76625,108.33585 96.539155,106.07964 C 85.852598,103.55614 73.365276,105.25067 61.59205,107.03128 C 49.162541,108.75601 35.31616,115.2716 43.553618,117.64164 z"
       style="fill:url(#linearGradient9792);fill-rule:evenodd;stroke:none;stroke-width:1px;stroke-linecap:butt;stroke-linejoin:miter;stroke-opacity:1;display:inline"
       inkscape:export-filename="/home/dafeba/DCV/tallerD/bocetos/08-09-22-hastaahora.png"
       inkscape:export-xdpi="57.964222"
       inkscape:export-ydpi="57.964222" />
    <path
       sodipodi:nodetypes="cccccc"
       id="path9778"
       d="M 63.779038,102.39908 L 81.4813,100.38301 L 81.348276,110.97241 C 81.24523,112.80733 68.61284,115.05004 63.779038,113.15736 C 63.424666,112.99776 63.21563,112.74135 63.026132,112.47177 L 63.779038,102.39908 z"
       style="fill:url(#linearGradient9794);fill-opacity:1;stroke:none;stroke-width:0.1;stroke-linecap:round;stroke-miterlimit:4;stroke-opacity:1;display:inline"
       inkscape:export-filename="/home/dafeba/DCV/tallerD/bocetos/08-09-22-hastaahora.png"
       inkscape:export-xdpi="57.964222"
       inkscape:export-ydpi="57.964222" />
    <path
       sodipodi:nodetypes="ccccccccc"
       style="fill:url(#linearGradient9796);fill-rule:evenodd;stroke:none;stroke-width:0.1;stroke-linecap:butt;stroke-linejoin:miter;stroke-miterlimit:4;stroke-dasharray:none;stroke-opacity:1;display:inline"
       d="M 125.25264,89.05374 C 125.31206,95.385245 121.8042,101.59095 115.12012,102.48197 L 28.80929,116.85594 C 21.174906,117.96344 17.129822,110.55161 16.990027,102.94388 L 17.948276,14.697071 C 17.896298,8.2319815 22.077269,1.5163956 29.192862,2.0879673 L 115.35646,8.2182777 C 121.70142,8.8226635 125.36425,11.667889 125.36425,18.073292 L 125.25264,89.05374 z"
       id="path9780"
       inkscape:export-filename="/home/dafeba/DCV/tallerD/bocetos/08-09-22-hastaahora.png"
       inkscape:export-xdpi="57.964222"
       inkscape:export-ydpi="57.964222" />
    <path
       sodipodi:nodetypes="cccccc"
       id="path9782"
       d="M 24.00169,25.634499 L 24.042373,111.32919 L 120.99402,96.359259 L 121.22019,15.063568 L 118.41331,14.930009 L 24.00169,25.634499 z"
       style="fill:url(#linearGradient9798);fill-opacity:1;fill-rule:evenodd;stroke:none;stroke-width:1px;stroke-linecap:butt;stroke-linejoin:miter;stroke-opacity:1;display:inline"
       inkscape:export-filename="/home/dafeba/DCV/tallerD/bocetos/08-09-22-hastaahora.png"
       inkscape:export-xdpi="57.964222"
       inkscape:export-ydpi="57.964222" />
    <path
       style="fill:url(#linearGradient9800);fill-opacity:1;fill-rule:evenodd;stroke:none;stroke-width:1px;stroke-linecap:butt;stroke-linejoin:miter;stroke-opacity:1;display:inline"
       d="M 24.082949,8.4369764 L 24.082092,108.57748 L 118.22542,94.147192 L 118.4449,14.845164 L 24.082949,8.4369764 z"
       id="path9784"
       sodipodi:nodetypes="ccccc"
       inkscape:export-filename="/home/dafeba/DCV/tallerD/bocetos/08-09-22-hastaahora.png"
       inkscape:export-xdpi="57.964222"
       inkscape:export-ydpi="57.964222" />
    <path
       inkscape:export-ydpi="57.964222"
       inkscape:export-xdpi="57.964222"
       inkscape:export-filename="/home/dafeba/DCV/tallerD/bocetos/08-09-22-hastaahora.png"
       sodipodi:nodetypes="cccccccccccsccccccccccc"
       id="path11104"
       d="M 24.16742,1.4578065 L 15.413046,2.5350003 C 8.276389,3.0726069 1.8964124,9.3942084 1.9467845,15.666696 L 2.3649914,99.140782 C 2.4748359,105.11666 4.7821067,110.99936 9.6417909,112.43976 L 22.764921,116.67592 C 24.644403,117.27198 27.91956,117.42642 29.387098,117.22761 L 39.658071,115.51147 C 40.237966,115.41782 41.02805,115.3208 41.007173,116.01544 L 40.965339,119.44473 C 41.250121,119.99848 42.284142,120.34161 43.600189,120.72026 C 55.130654,124.8598 74.384229,122.97496 87.34476,119.96748 C 96.213155,117.90956 101.41953,114.8531 101.52204,112.48157 L 101.6473,109.97235 C 101.43826,106.81529 99.198014,106.07188 96.545311,106.08302 L 114.69536,103.23921 C 122.3834,102.09727 126.13,96.690023 126.07058,90.358438 L 125.69721,18.092296 C 125.69721,11.686892 122.89221,8.5313507 116.54724,7.9268845 L 108.79148,7.2476095 L 41.676437,2.3677176 L 29.297514,1.5313039 C 27.587483,1.4527479 25.877451,1.3817397 24.16742,1.4578065 z"
       style="fill:none;fill-rule:evenodd;stroke:url(#linearGradient11106);stroke-width:2.67652392;stroke-linecap:round;stroke-linejoin:round;stroke-miterlimit:4;stroke-dasharray:none;stroke-opacity:1;display:inline" />
    <path
       style="fill:url(#linearGradient10379);stroke:none;stroke-width:0.98546892;stroke-linecap:round;stroke-linejoin:round;stroke-miterlimit:4;stroke-dasharray:none;stroke-dashoffset:0;stroke-opacity:1;display:inline;filter:url(#filter10381)"
       d="M 33.688156,82.345251 C 31.102156,82.345241 29.000656,84.415481 29.000656,87.001501 L 29.000656,91.032751 L 28.188156,91.032751 C 27.410556,91.032751 26.781856,91.661461 26.781856,92.439001 L 26.781856,101.939 C 26.781856,102.71655 27.410556,103.34525 28.188156,103.34525 L 44.188156,103.34525 C 44.965656,103.34525 45.594456,102.71654 45.594456,101.939 L 45.594456,92.439001 C 45.594456,91.661451 44.965656,91.032751 44.188156,91.032751 L 43.188156,91.032751 L 43.188156,87.001501 C 43.188156,84.415501 41.117956,82.345251 38.531856,82.345251 L 33.688156,82.345251 z M 34.531856,84.626501 L 37.688156,84.626501 C 39.375956,84.626511 40.719456,85.975041 40.719456,87.657751 L 40.719456,91.032751 L 31.469356,91.032751 L 31.469356,87.657751 C 31.469456,85.975041 32.844056,84.626501 34.531856,84.626501 z"
       id="rect10364"
       inkscape:export-filename="/home/dafeba/DCV/tallerD/bocetos/08-09-22-hastaahora.png"
       inkscape:export-xdpi="57.964222"
       inkscape:export-ydpi="57.964222"
       transform="matrix(2.6765239,0,0,2.6765239,0,-214.59506)" />
    <rect
       ry="3.7565405"
       rx="3.7565405"
       y="-57.960396"
       x="-125.79058"
       height="32.935017"
       width="50.334354"
       id="rect7360"
       style="fill:url(#linearGradient7370);stroke:#000000;stroke-width:1.33826196;stroke-linecap:round;stroke-linejoin:round;stroke-miterlimit:4;stroke-dasharray:none;stroke-dashoffset:0;stroke-opacity:1;display:inline"
       transform="scale(-1,-1)"
       inkscape:export-filename="/home/dafeba/DCV/tallerD/bocetos/08-09-22-hastaahora.png"
       inkscape:export-xdpi="57.964222"
       inkscape:export-ydpi="57.964222" />
    <rect
       transform="scale(1,-1)"
       ry="1.7842636"
       rx="1.7842636"
       y="-58.03381"
       x="75.765518"
       height="4.9674363"
       width="49.628162"
       id="rect7362"
       style="fill:none;stroke:#000000;stroke-width:1.33826196;stroke-linecap:round;stroke-linejoin:round;stroke-miterlimit:4;stroke-dasharray:none;stroke-dashoffset:0;stroke-opacity:1;display:inline"
       inkscape:export-filename="/home/dafeba/DCV/tallerD/bocetos/08-09-22-hastaahora.png"
       inkscape:export-xdpi="57.964222"
       inkscape:export-ydpi="57.964222" />
    <path
       sodipodi:nodetypes="ccccccccccccc"
       id="path7365"
       d="M 93.928474,1.7481291 C 87.006983,1.7481291 81.440884,7.3141211 81.440884,14.235665 L 81.440884,25.023663 L 88.035036,25.047966 L 88.035036,15.9666 C 88.035036,11.462813 91.677785,7.8476326 96.195222,7.8476326 L 104.68516,7.8476326 C 109.20259,7.8476326 112.80412,11.462787 112.80412,15.9666 L 112.80412,25.01657 L 119.39801,25.012261 L 119.39801,14.235665 C 119.39801,7.3141479 113.83218,1.7481291 106.91069,1.7481291 L 93.928474,1.7481291 z"
       style="fill:url(#linearGradient7372);stroke:#000000;stroke-width:1.33826196;stroke-linecap:round;stroke-linejoin:round;stroke-miterlimit:4;stroke-dasharray:none;stroke-dashoffset:0;stroke-opacity:1;display:inline"
       inkscape:export-filename="/home/dafeba/DCV/tallerD/bocetos/08-09-22-hastaahora.png"
       inkscape:export-xdpi="57.964222"
       inkscape:export-ydpi="57.964222" />
    <path
       sodipodi:nodetypes="ccccccccccc"
       id="path7367"
       d="M 99.370382,39.907384 L 97.86805,45.100215 L 103.30113,45.120557 L 101.87641,39.907384 C 102.92481,39.907384 103.76898,39.060666 103.76898,38.008926 L 103.76898,36.311983 C 103.76898,35.260243 102.92481,34.413524 101.87641,34.413524 L 99.370382,34.413524 C 98.32172,34.413524 97.477545,35.260243 97.477545,36.311983 L 97.477545,38.008926 C 97.477545,39.060666 98.32172,39.907384 99.370382,39.907384 z"
       style="fill:#000000;stroke:#000000;stroke-width:1.33826196;stroke-linecap:round;stroke-linejoin:round;stroke-miterlimit:4;stroke-dasharray:none;stroke-dashoffset:0;stroke-opacity:1;display:inline"
       inkscape:export-filename="/home/dafeba/DCV/tallerD/bocetos/08-09-22-hastaahora.png"
       inkscape:export-xdpi="57.964222"
       inkscape:export-ydpi="57.964222" />
  </g>
</svg>
