<?xml version="1.0" encoding="UTF-8" standalone="no"?>
<!-- Created with Inkscape (http://www.inkscape.org/) -->

<svg
   xmlns:dc="http://purl.org/dc/elements/1.1/"
   xmlns:cc="http://creativecommons.org/ns#"
   xmlns:rdf="http://www.w3.org/1999/02/22-rdf-syntax-ns#"
   xmlns:svg="http://www.w3.org/2000/svg"
   xmlns="http://www.w3.org/2000/svg"
   xmlns:xlink="http://www.w3.org/1999/xlink"
   xmlns:sodipodi="http://sodipodi.sourceforge.net/DTD/sodipodi-0.dtd"
   xmlns:inkscape="http://www.inkscape.org/namespaces/inkscape"
   width="128"
   height="128"
   viewBox="0 0 128 128"
   id="svg13186"
   version="1.1"
   inkscape:version="0.91 r13725">
  <defs
     id="defs13188">
    <linearGradient
       gradientTransform="matrix(2.6666667,0,0,2.6666667,-1019.5083,-1585.6494)"
       inkscape:collect="always"
       xlink:href="#linearGradient9863"
       id="linearGradient11244"
       x1="429.73837"
       y1="846.28412"
       x2="429.73837"
       y2="799.57806"
       gradientUnits="userSpaceOnUse" />
    <linearGradient
       id="linearGradient9863">
      <stop
         style="stop-color:#2f445a;stop-opacity:1;"
         offset="0"
         id="stop9865" />
      <stop
         style="stop-color:#415f7c;stop-opacity:1"
         offset="1"
         id="stop9867" />
    </linearGradient>
    <linearGradient
       y2="981.20593"
       x2="524.875"
       y1="943.76843"
       x1="493.9375"
       gradientTransform="matrix(2.6666667,0,0,2.6666667,-1232.8416,-1958.9827)"
       gradientUnits="userSpaceOnUse"
       id="linearGradient32049"
       xlink:href="#linearGradient8702"
       inkscape:collect="always" />
    <linearGradient
       id="linearGradient8702">
      <stop
         id="stop8704"
         offset="0"
         style="stop-color:#aac736;stop-opacity:1;" />
      <stop
         id="stop8706"
         offset="1"
         style="stop-color:#5d8b2c;stop-opacity:1;" />
    </linearGradient>
    <linearGradient
       y2="966.39349"
       x2="506.66528"
       y1="956.35394"
       x1="505.02216"
       gradientTransform="matrix(2.6666667,0,0,2.6666667,-1242.0083,-1959.9827)"
       gradientUnits="userSpaceOnUse"
       id="linearGradient32071"
       xlink:href="#linearGradient14474"
       inkscape:collect="always" />
    <linearGradient
       inkscape:collect="always"
       id="linearGradient14474">
      <stop
         style="stop-color:#ffffff;stop-opacity:1;"
         offset="0"
         id="stop14476" />
      <stop
         style="stop-color:#ffffff;stop-opacity:0;"
         offset="1"
         id="stop14478" />
    </linearGradient>
    <linearGradient
       y2="970.83093"
       x2="512.375"
       y1="959.92255"
       x1="506.6875"
       gradientTransform="matrix(2.6666667,0,0,2.6666667,-1242.0083,-1959.9827)"
       gradientUnits="userSpaceOnUse"
       id="linearGradient32045"
       xlink:href="#linearGradient8702"
       inkscape:collect="always" />
    <linearGradient
       y2="979.33771"
       x2="519.22742"
       y1="949.08014"
       x1="496.11346"
       gradientTransform="matrix(2.7150285,0,0,2.7149163,-1255.6868,-2005.7637)"
       gradientUnits="userSpaceOnUse"
       id="linearGradient32011"
       xlink:href="#linearGradient8702"
       inkscape:collect="always" />
    <linearGradient
       y2="963.31854"
       x2="518.37347"
       y1="957.17877"
       x1="498.17371"
       gradientTransform="matrix(2.6666667,0,0,2.6666667,-1231.6631,-1958.9827)"
       gradientUnits="userSpaceOnUse"
       id="linearGradient32009"
       xlink:href="#linearGradient5344"
       inkscape:collect="always" />
    <linearGradient
       id="linearGradient5344">
      <stop
         style="stop-color:#000000;stop-opacity:1;"
         offset="0"
         id="stop5346" />
      <stop
         style="stop-color:#000000;stop-opacity:0;"
         offset="1"
         id="stop5348" />
    </linearGradient>
    <linearGradient
       y2="955.362"
       x2="516.24847"
       y1="976.92877"
       x1="510.04871"
       gradientTransform="matrix(2.6666667,0,0,2.6666667,-1231.6631,-1958.9827)"
       gradientUnits="userSpaceOnUse"
       id="linearGradient32007"
       xlink:href="#linearGradient8702"
       inkscape:collect="always" />
    <linearGradient
       y2="968.64575"
       x2="497.81961"
       y1="992.24542"
       x1="504.93024"
       gradientTransform="matrix(2.7150285,0,0,2.7149163,-1255.6868,-2005.7637)"
       gradientUnits="userSpaceOnUse"
       id="linearGradient32005"
       xlink:href="#linearGradient5344"
       inkscape:collect="always" />
    <linearGradient
       y2="956.01135"
       x2="499.43576"
       y1="936.30072"
       x1="502.97885"
       gradientTransform="matrix(2.7150285,0,0,2.7149163,-1255.6868,-2005.7637)"
       gradientUnits="userSpaceOnUse"
       id="linearGradient32003"
       xlink:href="#linearGradient14474"
       inkscape:collect="always" />
    <linearGradient
       y2="976.85352"
       x2="489.08588"
       y1="941.43011"
       x1="495.83362"
       gradientTransform="matrix(2.7150285,0,0,2.7149163,-1255.6868,-2005.7637)"
       gradientUnits="userSpaceOnUse"
       id="linearGradient32001"
       xlink:href="#linearGradient8702"
       inkscape:collect="always" />
  </defs>
  <sodipodi:namedview
     id="base"
     pagecolor="#ffffff"
     bordercolor="#666666"
     borderopacity="1.0"
     inkscape:pageopacity="0.0"
     inkscape:pageshadow="2"
     inkscape:zoom="2.5599475"
     inkscape:cx="81.462231"
     inkscape:cy="79.11515"
     inkscape:document-units="px"
     inkscape:current-layer="layer1"
     showgrid="false"
     units="px"
     inkscape:window-width="1600"
     inkscape:window-height="852"
     inkscape:window-x="0"
     inkscape:window-y="0"
     inkscape:window-maximized="1" />
  <metadata
     id="metadata13191">
    <rdf:RDF>
      <cc:Work
         rdf:about="">
        <dc:format>image/svg+xml</dc:format>
        <dc:type
           rdf:resource="http://purl.org/dc/dcmitype/StillImage" />
        <dc:title></dc:title>
      </cc:Work>
    </rdf:RDF>
  </metadata>
  <g
     inkscape:label="Capa 1"
     inkscape:groupmode="layer"
     id="layer1"
     transform="translate(0,-924.36215)">
    <g
       id="g13826"
       transform="translate(-56.085689,380.12837)">
      <path
         style="display:inline;fill:url(#linearGradient32001);fill-opacity:1;stroke:none;stroke-width:7.4000001;stroke-linecap:round;stroke-linejoin:round;stroke-miterlimit:4;stroke-dashoffset:0;stroke-opacity:1"
         d="m 124.99172,550.35063 c -8.77582,-0.23813 -18.61811,1.41584 -25.333337,3.91667 -20.472267,7.79173 -33.52184,30.6177 -33.5,55.75 0.01867,20.9744 9.290133,39.7357 25.166666,48.33333 7.682134,4.16 19.585071,6.73731 30.333331,6.66667 21.82262,-0.1448 35.79123,-21.3268 39.83334,-46.16667 l -4.33334,-0.41667 c -3.73834,16.44579 -14.27677,28.16323 -29,30.75 -24.22888,4.25688 -39.478344,-16.27093 -39.499997,-39.83333 -0.02133,-23.74651 14.912937,-44.74275 36.999997,-44.33333 0.71248,0.0133 1.43963,0.10826 2.16667,0.16666 15.49357,1.24323 26.79421,12.83582 29.91667,30.75 l 4.41666,0.16667 c -2.51653,-22.78243 -13.5616,-40.32669 -28.91666,-44.83333 -2.53856,-0.5376 -5.32472,-0.83726 -8.25,-0.91667 z"
         id="path31917"
         inkscape:connector-curvature="0" />
      <path
         inkscape:export-ydpi="57.964222"
         inkscape:export-xdpi="57.964222"
         inkscape:export-filename="/home/dafeba/DCV/tallerD/bocetos/08-09-22-hastaahora.png"
         sodipodi:nodetypes="ccsccc"
         id="path31919"
         d="M 81.354569,595.20335 68.899716,590.2885 c 4.546933,-15.92454 14.6224,-29.0624 28.663467,-35.1696 6.513867,-2.83307 16.797467,-4.884 24.945597,-4.76694 5.92395,0.16454 10.38392,3.92144 13.26099,9.45646 -31.59987,1.44333 -43.065067,18.37488 -54.415201,35.39493 z"
         style="display:inline;fill:url(#linearGradient32003);fill-opacity:1;stroke:none;stroke-width:7.4000001;stroke-linecap:round;stroke-linejoin:round;stroke-miterlimit:4;stroke-dashoffset:0;stroke-opacity:1"
         inkscape:connector-curvature="0" />
      <path
         inkscape:export-ydpi="57.964222"
         inkscape:export-xdpi="57.964222"
         inkscape:export-filename="/home/dafeba/DCV/tallerD/bocetos/08-09-22-hastaahora.png"
         sodipodi:nodetypes="cssccc"
         id="path31921"
         d="m 122.58372,665.05276 c -7.94667,1.14214 -19.00747,-1.8752 -25.378137,-4.10186 -15.685867,-5.4824 -26.216,-19.99094 -29.723734,-37.68934 -0.845066,-4.26346 7.94944,-1.85802 21.624374,-0.17093 2.811253,17.25552 18.795837,39.10349 48.122187,14.33131 13.00432,9.10456 13.29141,19.6125 -14.64469,27.63072 z"
         style="display:inline;fill:url(#linearGradient32005);fill-opacity:1;stroke:none;stroke-width:7.4000001;stroke-linecap:round;stroke-linejoin:round;stroke-miterlimit:4;stroke-dashoffset:0;stroke-opacity:1"
         inkscape:connector-curvature="0" />
      <path
         style="display:inline;fill:url(#linearGradient32007);fill-opacity:1;stroke:none;stroke-width:7.4000001;stroke-linecap:round;stroke-linejoin:round;stroke-miterlimit:4;stroke-dashoffset:0;stroke-opacity:1"
         d="m 128.40838,565.2673 c 9.5484,4.12141 16.42224,13.18552 19.16667,25.66666 1.18531,3.36622 3.09443,4.98891 6.75,4.91667 l 8.97144,0.24987 c 3.01287,-9.90152 -7.098,-25.67851 -12.93845,-31.02982 -4.82291,-4.41898 -15.08574,0.86763 -21.94966,0.19654 z m 24.91667,52.91666 c -3.70211,0.14614 -6.84816,2.05723 -7.91667,4.41667 l -0.0835,0 c -4.77398,12.51077 -14.03851,21.24709 -26.25,23.41667 -4.2547,0.75573 -8.18008,0.69946 -11.83334,0 -8.073944,2.53981 -7.861277,12.59253 22.33088,10.00202 14.89318,-1.28789 40.42765,-35.88352 27.66912,-37.58536 l -2.33333,-0.24986 c -0.54973,-0.0544 -1.05445,-0.0213 -1.58333,0 z"
         id="path31923"
         sodipodi:nodetypes="ccccsccccscsccc"
         inkscape:connector-curvature="0" />
      <path
         sodipodi:nodetypes="cccccsccccscsccc"
         id="path31925"
         d="m 128.40838,565.2673 c 9.5484,4.12141 16.42224,13.18552 19.16667,25.66666 l 0.16667,0 c 0.3673,2.82624 3.53437,5.03094 6.58333,4.91667 l 8.66667,0.0835 c 3.01287,-9.90152 -6.79323,-25.51184 -12.63368,-30.86315 -4.82291,-4.41899 -15.08574,0.86763 -21.94966,0.19653 z m 24.91667,52.91666 c -3.70211,0.14614 -6.84816,2.05723 -7.91667,4.41667 l -0.0835,0 c -4.77398,12.51077 -14.03851,21.24709 -26.25,23.41667 -4.2547,0.75573 -8.18008,0.69946 -11.83334,0 -8.073944,2.53981 -7.861277,12.59253 22.33088,10.00202 14.89318,-1.28789 40.42765,-35.88352 27.66912,-37.58536 l -2.33333,-0.24986 c -0.54973,-0.0544 -1.05445,-0.0213 -1.58333,0 z"
         style="display:inline;fill:url(#linearGradient32009);fill-opacity:1;stroke:none;stroke-width:7.4000001;stroke-linecap:round;stroke-linejoin:round;stroke-miterlimit:4;stroke-dashoffset:0;stroke-opacity:1"
         inkscape:connector-curvature="0" />
      <path
         style="display:inline;fill:url(#linearGradient32011);fill-opacity:1;stroke:none;stroke-width:7.4000001;stroke-linecap:round;stroke-linejoin:round;stroke-miterlimit:4;stroke-dashoffset:0;stroke-opacity:1"
         d="m 122.74172,550.43396 c -29.000191,1.25035 -48.445924,28.98624 -48.416671,60.16667 0.03013,31.96933 21.166507,59.77608 54.750001,54 19.25963,-3.31213 33.36621,-17.71568 39.24999,-38.08333 0.0107,-0.0544 -0.008,-0.112 0,-0.16667 0.45515,-2.80781 -0.66424,-5.96083 -4.49999,-7.33333 -5.41451,-0.97206 -7.25864,2.65696 -8.15355,4.6953 -4.63442,13.648 -14.41874,23.17075 -27.51312,25.47136 -24.22888,4.25688 -39.478344,-16.27093 -39.499997,-39.83333 -0.02133,-23.74651 14.912937,-44.74275 36.999997,-44.33333 0.71248,0.0133 1.43963,0.10826 2.16667,0.16666 13.82944,1.10974 24.31829,10.46494 28.63243,25.20142 0.89816,4.21064 3.54797,5.57485 6.9509,5.71525 4.17138,0.0325 6.68234,-4.07003 5.91666,-7.66667 -5.24868,-22.07736 -20.36474,-36.23845 -40.66666,-37.83333 -2.01546,-0.1584 -3.98333,-0.25013 -5.91666,-0.16667 z"
         id="path31927"
         sodipodi:nodetypes="csscsccsssscccsc"
         inkscape:connector-curvature="0" />
      <circle
         style="display:inline;opacity:1;fill:#000080;fill-opacity:1;stroke:none;stroke-width:1;stroke-linecap:round;stroke-linejoin:round;stroke-miterlimit:4;stroke-dasharray:none;stroke-dashoffset:0;stroke-opacity:1"
         id="path31967"
         cx="115.45927"
         cy="609.22601"
         r="7.4835458" />
      <circle
         id="path31969"
         style="display:inline;opacity:1;fill:#000080;fill-opacity:1;stroke:none;stroke-width:1;stroke-linecap:round;stroke-linejoin:round;stroke-miterlimit:4;stroke-dasharray:none;stroke-dashoffset:0;stroke-opacity:1"
         cx="164.91328"
         cy="607.17914"
         r="6.3799934" />
      <path
         sodipodi:nodetypes="ccscccc"
         id="path31971"
         d="m 105.95004,600.94146 41.70834,-0.95835 c 3.3355,-0.0621 18.26392,0.2392 19.42506,1.03077 4.72848,3.22326 -4.80852,11.4772 -10.75839,11.46923 -15.88739,0.99624 -27.02477,3.024 -42.91213,4.57517 -2.94787,0.0875 -8.28232,-0.52146 -10.56118,-1.1241 -7.091464,-2.15494 -6.192264,-14.86286 3.0983,-14.99272 z"
         style="display:inline;fill:url(#linearGradient32045);fill-rule:evenodd;stroke:none;stroke-width:1px;stroke-linecap:butt;stroke-linejoin:miter;stroke-opacity:1"
         inkscape:connector-curvature="0" />
      <path
         style="display:inline;fill:url(#linearGradient32071);fill-rule:evenodd;stroke:none;stroke-width:1px;stroke-linecap:butt;stroke-linejoin:miter;stroke-opacity:1"
         d="m 105.95004,600.94146 41.70834,-0.95835 c 3.3355,-0.0621 18.26392,0.2392 19.42506,1.03077 4.72848,3.22326 -4.80852,11.4772 -10.75839,11.46923 -15.88739,0.99624 -27.02477,3.024 -42.91213,4.57517 -2.94787,0.0875 -8.28232,-0.52146 -10.56118,-1.1241 -7.091464,-2.15494 -6.192264,-14.86286 3.0983,-14.99272 z"
         id="path32069"
         sodipodi:nodetypes="ccscccc"
         inkscape:connector-curvature="0" />
      <path
         style="display:inline;fill:url(#linearGradient32049);fill-rule:evenodd;stroke:none;stroke-width:1px;stroke-linecap:butt;stroke-linejoin:miter;stroke-opacity:1"
         d="m 115.24172,601.81644 49.91666,-1 c 8.46466,0.10774 7.74429,14.1644 0.33333,14.15448 l -50.49999,2.12744 c -10.08707,0.64712 -10.15222,-15.1365 0.24986,-15.28192 z"
         id="path31975"
         sodipodi:nodetypes="ccccc"
         inkscape:connector-curvature="0" />
      <path
         sodipodi:nodetypes="ccsscscscscccccsccccscccccccsccssscccccsccccccssssssssscc"
         style="display:inline;fill:none;fill-opacity:1;stroke:url(#linearGradient11244);stroke-width:2.66666675;stroke-linecap:round;stroke-linejoin:round;stroke-miterlimit:4;stroke-dasharray:none;stroke-dashoffset:0;stroke-opacity:1"
         d="m 121.65838,550.35063 c -7.8548,0.1912 -16.12418,1.72845 -21.999997,3.91667 -20.472267,7.79173 -33.52184,30.6177 -33.5,55.75 0.01867,20.9744 9.290133,39.7357 25.166666,48.33333 4.935814,2.67283 11.588451,4.66643 18.583331,5.75 5.80899,1.42195 12.21384,1.69584 19.16667,0.5 19.25963,-3.31213 33.36621,-17.71568 39.24999,-38.08333 0.0107,-0.0544 -0.008,-0.112 0,-0.16667 0.45515,-2.80781 -0.66424,-5.96083 -4.49999,-7.33333 -0.89192,-0.16027 -1.62347,-0.14534 -2.33333,-0.0835 0.005,-0.0272 -0.005,-0.056 0,-0.0835 l -4.16667,-0.41666 -0.0835,0 -0.0835,0 -2.25,-0.24987 c -0.54974,-0.0544 -1.05446,-0.0213 -1.58334,0 -3.7021,0.14613 -6.84816,2.05723 -7.91666,4.41667 l -0.0835,0 c -4.77397,12.51077 -14.03851,21.24709 -26.25,23.41666 -7.42587,1.0475 -13.24944,-0.22693 -19.00717,-5.5452 -7.306084,-7.54938 -11.398217,-18.92389 -11.409497,-31.12146 -0.02133,-23.74651 14.618297,-44.44811 36.705357,-44.0387 5.36595,-0.0859 9.61824,3.87022 13.28144,7.31774 4.22611,4.68904 7.30195,10.9008 8.92987,18.30429 1.18531,3.36621 3.09443,4.98891 6.75,4.91667 l 3.41667,0.0835 4.41666,0.16667 1.16667,0 c 0.0283,0.001 0.0552,-10e-4 0.0835,0 4.17138,0.0325 6.68234,-4.07003 5.91666,-7.66667 -5.09586,-21.43456 -19.5029,-35.4116 -38.91666,-37.66666 -0.57702,-0.0792 -1.15496,-0.10827 -1.75,-0.16667 -1.00774,-0.0792 -2.01443,-0.1344 -3,-0.16667 -0.22854,-0.008 -0.43635,-0.0771 -0.66667,-0.0835 -1.09699,-0.0299 -2.21123,-0.0272 -3.33333,0 z m 26,49.66667 -41.66666,0.91666 c -9.290564,0.12987 -10.258137,12.51176 -3.16667,14.66667 2.27885,0.60264 7.05389,0.74771 10.58333,1.08333 0.18587,-0.0187 0.31536,-0.0651 0.5,-0.0835 0.3607,0.0213 0.69251,0.10853 1.08334,0.0835 l 0.33333,0 c 0.0563,0.001 0.10987,0 0.16667,0 l 0.66666,-0.0835 c 0.27995,-0.0267 0.5631,-0.028 0.83334,-0.0835 l 47.66666,-2.91667 c 0.0856,0.003 0.16347,0 0.24987,0 0.2056,0 0.38261,-0.0643 0.58333,-0.0835 2.24083,0.003 3.88486,-1.18627 4.83334,-2.83334 0.0339,-0.052 0.0509,-0.1136 0.0835,-0.16666 0.17467,-0.3247 0.37691,-0.64782 0.5,-1 0.0107,-0.024 -0.008,-0.0592 0,-0.0835 0.12774,-0.3776 0.18267,-0.77099 0.24987,-1.16667 0.0645,-0.36408 0.16667,-0.70077 0.16667,-1.08333 0,-0.2344 -0.0587,-0.43867 -0.0835,-0.66667 -0.1288,-2.49258 -1.45171,-4.83181 -4.16667,-5.5 -1.16114,-0.79152 -16.08112,-1.06213 -19.41662,-1 z"
         id="path9885"
         inkscape:connector-curvature="0" />
    </g>
  </g>
</svg>
