<?xml version="1.0" encoding="UTF-8" standalone="no"?>
<!-- Created with Inkscape (http://www.inkscape.org/) -->
<svg
   xmlns:dc="http://purl.org/dc/elements/1.1/"
   xmlns:cc="http://creativecommons.org/ns#"
   xmlns:rdf="http://www.w3.org/1999/02/22-rdf-syntax-ns#"
   xmlns:svg="http://www.w3.org/2000/svg"
   xmlns="http://www.w3.org/2000/svg"
   xmlns:xlink="http://www.w3.org/1999/xlink"
   xmlns:sodipodi="http://sodipodi.sourceforge.net/DTD/sodipodi-0.dtd"
   xmlns:inkscape="http://www.inkscape.org/namespaces/inkscape"
   width="128"
   height="128"
   id="svg2"
   sodipodi:version="0.32"
   inkscape:version="0.46"
   version="1.0"
   sodipodi:docname="gnome-mime-application-pdf.svg"
   inkscape:output_extension="org.inkscape.output.svg.inkscape">
  <defs
     id="defs4">
    <linearGradient
       y2="641.10242"
       x2="504.48212"
       y1="635.44617"
       x1="504.91962"
       gradientTransform="matrix(2.6666667,0,0,2.6666667,-1293.8382,-1683.1224)"
       gradientUnits="userSpaceOnUse"
       id="linearGradient13859"
       xlink:href="#linearGradient5362"
       inkscape:collect="always" />
    <linearGradient
       y2="667.20789"
       x2="511.42725"
       y1="723.67017"
       x1="519.31262"
       gradientTransform="matrix(2.6666667,0,0,2.6666667,-1293.8382,-1683.1224)"
       gradientUnits="userSpaceOnUse"
       id="linearGradient13861"
       xlink:href="#linearGradient5344"
       inkscape:collect="always" />
    <linearGradient
       y2="410.98141"
       x2="927.93488"
       y1="459.10907"
       x1="927.93488"
       gradientTransform="matrix(2.6666667,0,0,2.6666667,-2413.8383,-1096.4558)"
       gradientUnits="userSpaceOnUse"
       id="linearGradient11161"
       xlink:href="#linearGradient9863"
       inkscape:collect="always" />
    <linearGradient
       inkscape:collect="always"
       xlink:href="#linearGradient5344"
       id="linearGradient9372"
       x1="188.51231"
       y1="397.02289"
       x2="123.26517"
       y2="458.52289"
       gradientUnits="userSpaceOnUse"
       gradientTransform="matrix(2.6666667,0,0,2.6666667,-333.0049,-1097.1224)" />
    <linearGradient
       y2="637.52454"
       x2="518.86896"
       y1="661.19366"
       x1="513.96362"
       gradientTransform="translate(-296.48677,-601.99164)"
       gradientUnits="userSpaceOnUse"
       id="linearGradient10430"
       xlink:href="#linearGradient5344"
       inkscape:collect="always" />
    <linearGradient
       y2="643.21948"
       x2="516.5"
       y1="647.79089"
       x1="519.95825"
       gradientTransform="translate(-296.48677,-601.99164)"
       gradientUnits="userSpaceOnUse"
       id="linearGradient10427"
       xlink:href="#linearGradient5316"
       inkscape:collect="always" />
    <linearGradient
       y2="650.17572"
       x2="519.57452"
       y1="632.9248"
       x1="512.30157"
       gradientTransform="translate(-296.48677,-601.99164)"
       gradientUnits="userSpaceOnUse"
       id="linearGradient10424"
       xlink:href="#linearGradient5344"
       inkscape:collect="always" />
    <linearGradient
       y2="643.65698"
       x2="524.125"
       y1="667.56323"
       x1="526.0625"
       gradientTransform="translate(-296.48677,-601.99164)"
       gradientUnits="userSpaceOnUse"
       id="linearGradient10419"
       xlink:href="#linearGradient5344"
       inkscape:collect="always" />
    <linearGradient
       y2="646.90363"
       x2="503.55746"
       y1="636.31903"
       x1="506.66599"
       gradientTransform="matrix(2.6406961,0,0,2.6406961,-1283.1083,-1664.9387)"
       gradientUnits="userSpaceOnUse"
       id="linearGradient6540"
       xlink:href="#linearGradient5344"
       inkscape:collect="always" />
    <linearGradient
       y2="645.41931"
       x2="501.48886"
       y1="636.98193"
       x1="506.95987"
       gradientTransform="matrix(2.6406961,0,0,2.6406961,-1268.2544,-1664.6086)"
       gradientUnits="userSpaceOnUse"
       id="linearGradient6538"
       xlink:href="#linearGradient5165-9"
       inkscape:collect="always" />
    <filter
       id="filter20342"
       inkscape:collect="always">
      <feGaussianBlur
         id="feGaussianBlur20344"
         stdDeviation="0.5439693"
         inkscape:collect="always" />
    </filter>
    <linearGradient
       y2="399.89111"
       x2="628.88568"
       y1="338.36591"
       x1="661.80859"
       gradientTransform="translate(-416.59922,-341.99164)"
       gradientUnits="userSpaceOnUse"
       id="linearGradient10161"
       xlink:href="#linearGradient5344"
       inkscape:collect="always" />
    <linearGradient
       y2="672.06232"
       x2="536.1507"
       y1="635.96948"
       x1="515.3125"
       gradientTransform="matrix(2.6406961,0,0,2.6406961,-1268.2544,-1664.6086)"
       gradientUnits="userSpaceOnUse"
       id="linearGradient6544"
       xlink:href="#linearGradient5439"
       inkscape:collect="always" />
    <linearGradient
       inkscape:collect="always"
       xlink:href="#linearGradient5362"
       id="linearGradient15513"
       gradientUnits="userSpaceOnUse"
       gradientTransform="matrix(2.6666667,0,0,2.6666667,-1293.8382,-1683.1224)"
       x1="504.91962"
       y1="635.44617"
       x2="504.48212"
       y2="641.10242" />
    <linearGradient
       inkscape:collect="always"
       xlink:href="#linearGradient5344"
       id="linearGradient15517"
       gradientUnits="userSpaceOnUse"
       gradientTransform="matrix(2.6666667,0,0,2.6666667,-1293.8382,-1683.1224)"
       x1="519.31262"
       y1="723.67017"
       x2="511.42725"
       y2="667.20789" />
    <linearGradient
       inkscape:collect="always"
       xlink:href="#linearGradient9863"
       id="linearGradient15519"
       gradientUnits="userSpaceOnUse"
       gradientTransform="matrix(2.6666667,0,0,2.6666667,-2413.8382,-1096.6224)"
       x1="927.93488"
       y1="459.10907"
       x2="927.93488"
       y2="410.98141" />
    <linearGradient
       inkscape:collect="always"
       xlink:href="#linearGradient5344"
       id="linearGradient15566"
       gradientUnits="userSpaceOnUse"
       gradientTransform="matrix(2.6666667,0,0,2.6666667,-1133.8382,-1417.1628)"
       x1="533.94769"
       y1="471.7771"
       x2="436.88516"
       y2="567.9021" />
    <linearGradient
       inkscape:collect="always"
       xlink:href="#linearGradient5398"
       id="linearGradient15529"
       gradientUnits="userSpaceOnUse"
       gradientTransform="matrix(1.6284723,0,0,1.6284723,47.012348,2.3646147)"
       x1="43.787846"
       y1="2.7217839"
       x2="-13.959496"
       y2="60.469124" />
    <linearGradient
       inkscape:collect="always"
       xlink:href="#linearGradient5439"
       id="linearGradient15562"
       gradientUnits="userSpaceOnUse"
       gradientTransform="matrix(2.6666667,0,0,2.6666667,-1134.9597,-1416.4558)"
       x1="457.89578"
       y1="539.88666"
       x2="457.89578"
       y2="569.06531" />
    <linearGradient
       inkscape:collect="always"
       xlink:href="#linearGradient5439"
       id="linearGradient15559"
       gradientUnits="userSpaceOnUse"
       x1="459.76584"
       y1="546.18964"
       x2="459.76584"
       y2="583.90106"
       gradientTransform="matrix(2.6666667,0,0,2.6666667,-1134.3706,-1416.4558)" />
    <linearGradient
       id="linearGradient4508">
      <stop
         offset="0"
         style="stop-color:#75aadb;stop-opacity:1"
         id="stop4510" />
      <stop
         offset="1"
         style="stop-color:#5a83a9;stop-opacity:1"
         id="stop4512" />
    </linearGradient>
    <linearGradient
       inkscape:collect="always"
       xlink:href="#linearGradient4508"
       id="linearGradient15556"
       gradientUnits="userSpaceOnUse"
       gradientTransform="matrix(2.6666667,0,0,2.6666667,-1134.3706,-1414.3934)"
       x1="456.31311"
       y1="551.46545"
       x2="456.31311"
       y2="554.8988" />
    <linearGradient
       id="linearGradient12578">
      <stop
         id="stop12580"
         offset="0"
         style="stop-color:#e9b551;stop-opacity:1;" />
      <stop
         id="stop12582"
         offset="1"
         style="stop-color:#b48739;stop-opacity:1;" />
    </linearGradient>
    <linearGradient
       id="linearGradient5165-9">
      <stop
         offset="0"
         style="stop-color:#ffffff;stop-opacity:1"
         id="stop5167-6" />
      <stop
         offset="1"
         style="stop-color:#ffffff;stop-opacity:0"
         id="stop5169-7" />
    </linearGradient>
    <linearGradient
       id="linearGradient9121">
      <stop
         style="stop-color:#2f445a;stop-opacity:1"
         offset="0"
         id="stop9123" />
      <stop
         style="stop-color:#415f7c;stop-opacity:1"
         offset="1"
         id="stop9125" />
    </linearGradient>
    <linearGradient
       id="linearGradient12594">
      <stop
         id="stop12596"
         offset="0"
         style="stop-color:#e9b551;stop-opacity:1;" />
      <stop
         id="stop12598"
         offset="1"
         style="stop-color:#e9b551;stop-opacity:0;" />
    </linearGradient>
    <linearGradient
       id="linearGradient5316">
      <stop
         style="stop-color:#87c7ff;stop-opacity:1;"
         offset="0"
         id="stop5320" />
      <stop
         style="stop-color:#74aadb;stop-opacity:1;"
         offset="1"
         id="stop5322" />
    </linearGradient>
    <linearGradient
       id="linearGradient9863">
      <stop
         style="stop-color:#2f445a;stop-opacity:1;"
         offset="0"
         id="stop9865" />
      <stop
         style="stop-color:#415f7c;stop-opacity:1"
         offset="1"
         id="stop9867" />
    </linearGradient>
    <linearGradient
       id="linearGradient12336">
      <stop
         id="stop12338"
         offset="0"
         style="stop-color:#ff6e00;stop-opacity:1;" />
      <stop
         id="stop12340"
         offset="1"
         style="stop-color:#eb2600;stop-opacity:1;" />
    </linearGradient>
    <linearGradient
       id="linearGradient5362">
      <stop
         style="stop-color:#ffffff;stop-opacity:1;"
         offset="0"
         id="stop5364" />
      <stop
         style="stop-color:#ffffff;stop-opacity:0;"
         offset="1"
         id="stop5366" />
    </linearGradient>
    <linearGradient
       id="linearGradient5439">
      <stop
         style="stop-color:#ffffff;stop-opacity:1;"
         offset="0"
         id="stop5441" />
      <stop
         style="stop-color:#000000;stop-opacity:1;"
         offset="1"
         id="stop5443" />
    </linearGradient>
    <linearGradient
       inkscape:collect="always"
       xlink:href="#linearGradient5439"
       id="linearGradient13309"
       gradientUnits="userSpaceOnUse"
       x1="499.90704"
       y1="953.39532"
       x2="652.75177"
       y2="1116.9413"
       gradientTransform="matrix(2.6765239,0,0,2.6765239,-1298.6765,-2514.903)" />
    <linearGradient
       inkscape:collect="always"
       id="linearGradient5398">
      <stop
         style="stop-color:#87c6ff;stop-opacity:1;"
         offset="0"
         id="stop5400" />
      <stop
         style="stop-color:#87c6ff;stop-opacity:0"
         offset="1"
         id="stop5402" />
    </linearGradient>
    <linearGradient
       inkscape:collect="always"
       xlink:href="#linearGradient5398"
       id="linearGradient13322"
       gradientUnits="userSpaceOnUse"
       x1="500.87799"
       y1="948.11993"
       x2="500.87799"
       y2="953.17468"
       gradientTransform="matrix(2.6765239,0,0,2.6765239,-1298.6765,-2514.903)" />
    <linearGradient
       id="linearGradient5344">
      <stop
         style="stop-color:#000000;stop-opacity:1;"
         offset="0"
         id="stop5346" />
      <stop
         style="stop-color:#000000;stop-opacity:0;"
         offset="1"
         id="stop5348" />
    </linearGradient>
    <linearGradient
       inkscape:collect="always"
       xlink:href="#linearGradient5344"
       id="linearGradient13314"
       gradientUnits="userSpaceOnUse"
       x1="544.89001"
       y1="919.05762"
       x2="506.01498"
       y2="969.80762"
       gradientTransform="translate(-485.21014,-859.4386)" />
    <linearGradient
       id="linearGradient8702">
      <stop
         id="stop8704"
         offset="0"
         style="stop-color:#aac736;stop-opacity:1;" />
      <stop
         id="stop8706"
         offset="1"
         style="stop-color:#5d8b2c;stop-opacity:1;" />
    </linearGradient>
    <linearGradient
       inkscape:collect="always"
       xlink:href="#linearGradient8702"
       id="linearGradient13316"
       gradientUnits="userSpaceOnUse"
       gradientTransform="matrix(2.6765239,0,0,2.6765239,-1779.5422,-994.63744)"
       x1="700.13062"
       y1="378.86951"
       x2="707.80457"
       y2="395.74899" />
    <inkscape:perspective
       sodipodi:type="inkscape:persp3d"
       inkscape:vp_x="0 : 526.18109 : 1"
       inkscape:vp_y="0 : 1000 : 0"
       inkscape:vp_z="744.09448 : 526.18109 : 1"
       inkscape:persp3d-origin="372.04724 : 350.78739 : 1"
       id="perspective10" />
  </defs>
  <sodipodi:namedview
     id="base"
     pagecolor="#ffffff"
     bordercolor="#666666"
     borderopacity="1.0"
     inkscape:pageopacity="0.0"
     inkscape:pageshadow="2"
     inkscape:zoom="1.2510351"
     inkscape:cx="98.862601"
     inkscape:cy="30.530396"
     inkscape:document-units="px"
     inkscape:current-layer="layer1"
     showgrid="false"
     inkscape:showpageshadow="false"
     inkscape:window-width="1024"
     inkscape:window-height="713"
     inkscape:window-x="0"
     inkscape:window-y="24"
     showguides="true"
     inkscape:guide-bbox="true" />
  <metadata
     id="metadata7">
    <rdf:RDF>
      <cc:Work
         rdf:about="">
        <dc:format>image/svg+xml</dc:format>
        <dc:type
           rdf:resource="http://purl.org/dc/dcmitype/StillImage" />
      </cc:Work>
    </rdf:RDF>
  </metadata>
  <g
     inkscape:label="Capa 1"
     inkscape:groupmode="layer"
     id="layer1">
    <path
       inkscape:export-ydpi="57.964222"
       inkscape:export-xdpi="57.964222"
       inkscape:export-filename="/home/dafeba/DCV/tallerD/bocetos/08-09-22-hastaahora.png"
       style="fill:#f2f2f2;fill-rule:evenodd;stroke:none;stroke-width:0.5;stroke-linecap:round;stroke-linejoin:round;stroke-miterlimit:4;stroke-dasharray:none;stroke-opacity:1;display:inline"
       d="M 0.79114086,5.4829102 C 10.397274,6.4058962 14.464181,17.544163 14.457008,25.848936 L 14.332794,101.85054 C 14.415274,111.17758 19.282101,120.4504 31.877728,127.21366 L 119.63447,112.23744 C 109.24047,110.3208 101.80919,100.02238 101.89335,91.650241 L 102.10258,28.818563 C 102.19373,20.720803 96.880634,12.573176 87.015248,11.698536 L 0.79114086,5.4829102 z"
       id="path13833"
       sodipodi:nodetypes="ccccccccc" />
    <path
       inkscape:export-ydpi="57.964222"
       inkscape:export-xdpi="57.964222"
       inkscape:export-filename="/home/dafeba/DCV/tallerD/bocetos/08-09-22-hastaahora.png"
       sodipodi:nodetypes="ccccc"
       id="path13835"
       d="M 0.79114086,5.4829102 C 10.397274,6.4058962 14.464181,17.544163 14.457008,25.848936 L 102.10258,28.818563 C 102.19373,20.720803 96.880634,12.573176 87.015248,11.698536 L 0.79114086,5.4829102 z"
       style="fill:url(#linearGradient13859);fill-rule:evenodd;stroke:none;stroke-width:0.5;stroke-linecap:round;stroke-linejoin:round;stroke-miterlimit:4;stroke-dasharray:none;stroke-opacity:1;display:inline" />
    <path
       inkscape:export-ydpi="57.964222"
       inkscape:export-xdpi="57.964222"
       inkscape:export-filename="/home/dafeba/DCV/tallerD/bocetos/08-09-22-hastaahora.png"
       sodipodi:nodetypes="ccccc"
       id="path13837"
       d="M 14.332794,101.85054 C 14.415274,111.17758 19.282101,120.4504 31.877728,127.21366 L 119.63447,112.23744 C 109.24047,110.3208 101.80919,100.02238 101.89335,91.650241 L 14.332794,101.85054 z"
       style="fill:url(#linearGradient13861);fill-rule:evenodd;stroke:none;stroke-width:0.5;stroke-linecap:round;stroke-linejoin:round;stroke-miterlimit:4;stroke-dasharray:none;stroke-opacity:1;display:inline" />
    <path
       inkscape:export-ydpi="57.964222"
       inkscape:export-xdpi="57.964222"
       inkscape:export-filename="/home/dafeba/DCV/tallerD/bocetos/08-09-22-hastaahora.png"
       style="fill:#666666;fill-rule:evenodd;stroke:none;stroke-width:1px;stroke-linecap:butt;stroke-linejoin:miter;stroke-opacity:1;display:inline"
       d="M 19.495114,39.17675 L 98.828448,39.510083 L 98.995114,41.17675 L 19.495114,41.843416 L 19.495114,39.17675 z"
       id="path13849"
       sodipodi:nodetypes="ccccc" />
    <path
       inkscape:export-ydpi="57.964222"
       inkscape:export-xdpi="57.964222"
       inkscape:export-filename="/home/dafeba/DCV/tallerD/bocetos/08-09-22-hastaahora.png"
       sodipodi:nodetypes="ccccc"
       id="path13851"
       d="M 19.495114,51.510083 L 98.828448,49.343416 L 98.995114,51.010083 L 19.495114,54.17675 L 19.495114,51.510083 z"
       style="fill:#666666;fill-rule:evenodd;stroke:none;stroke-width:1px;stroke-linecap:butt;stroke-linejoin:miter;stroke-opacity:1;display:inline" />
    <path
       inkscape:export-ydpi="57.964222"
       inkscape:export-xdpi="57.964222"
       inkscape:export-filename="/home/dafeba/DCV/tallerD/bocetos/08-09-22-hastaahora.png"
       style="fill:#666666;fill-rule:evenodd;stroke:none;stroke-width:1px;stroke-linecap:butt;stroke-linejoin:miter;stroke-opacity:1;display:inline"
       d="M 19.495114,63.843416 L 98.828448,60.343416 L 98.995114,62.010083 L 19.495114,66.510083 L 19.495114,63.843416 z"
       id="path13853"
       sodipodi:nodetypes="ccccc" />
    <path
       inkscape:export-ydpi="57.964222"
       inkscape:export-xdpi="57.964222"
       inkscape:export-filename="/home/dafeba/DCV/tallerD/bocetos/08-09-22-hastaahora.png"
       sodipodi:nodetypes="ccccc"
       id="path13855"
       d="M 20.161781,77.343421 L 98.828448,71.510083 L 98.995114,73.176751 L 20.161781,80.010081 L 20.161781,77.343421 z"
       style="fill:#666666;fill-rule:evenodd;stroke:none;stroke-width:1px;stroke-linecap:butt;stroke-linejoin:miter;stroke-opacity:1;display:inline" />
    <path
       inkscape:export-ydpi="57.964222"
       inkscape:export-xdpi="57.964222"
       inkscape:export-filename="/home/dafeba/DCV/tallerD/bocetos/08-09-22-hastaahora.png"
       style="fill:#666666;fill-rule:evenodd;stroke:none;stroke-width:1px;stroke-linecap:butt;stroke-linejoin:miter;stroke-opacity:1;display:inline"
       d="M 19.495114,91.676751 L 98.828448,82.843421 L 98.995114,84.510081 L 19.495114,94.343421 L 19.495114,91.676751 z"
       id="path13857"
       sodipodi:nodetypes="ccccc" />
    <path
       sodipodi:nodetypes="cscccccccccc"
       id="path11159"
       d="M 1.6750339,5.5713102 C 4.9003409,5.8812032 6.6173279,7.2542962 8.6491939,9.3734702 C 12.668981,13.56595 14.461781,20.332536 14.457008,25.848936 L 14.332794,101.85054 C 14.406288,110.16003 18.277141,118.42651 28.027461,124.91371 C 30.467888,126.52366 33.713274,126.52366 37.144368,126.15219 L 119.63447,112.23744 C 109.24047,110.3208 101.80919,100.02238 101.89335,91.650241 L 102.10258,28.818563 C 102.19373,20.720803 96.880634,12.573176 87.015248,11.698536 L 9.8308739,6.1345632 L 1.6750339,5.5713102 z"
       style="fill:none;fill-rule:evenodd;stroke:url(#linearGradient11161);stroke-width:2.66666675;stroke-linecap:round;stroke-linejoin:round;stroke-miterlimit:4;stroke-dasharray:none;stroke-opacity:1;display:inline"
       inkscape:export-filename="/home/dafeba/DCV/tallerD/bocetos/08-09-22-hastaahora.png"
       inkscape:export-xdpi="57.964222"
       inkscape:export-ydpi="57.964222" />
    <path
       sodipodi:nodetypes="csscccccsssccsccccsssssccccscccccccccccccccccsssscccc"
       id="path9366"
       d="M 71.245114,9.6276032 C 69.816288,12.131523 69.584608,15.48955 70.661781,19.127603 C 70.664901,19.147203 70.658554,19.19131 70.661781,19.210936 C 70.697488,19.32931 70.706448,19.425256 70.745114,19.54427 L 70.828448,19.54427 C 71.399274,22.54091 73.130314,25.75619 75.661781,29.960936 C 71.225354,39.692243 66.151941,49.108083 60.828448,58.377603 C 56.556448,59.126723 52.479888,59.85187 49.995114,60.960936 C 46.133861,62.52219 43.600048,64.639043 42.161781,67.210936 C 40.723514,69.78283 40.637728,72.810911 41.995114,75.127601 C 43.352501,77.444301 46.107728,78.772721 48.995114,78.627601 C 51.882501,78.482481 54.865754,77.089761 57.745114,74.294271 L 57.745114,74.210941 C 59.704608,72.221821 62.713034,67.825043 65.570074,62.99371 C 65.614528,62.918536 65.868848,62.34803 65.913514,62.272323 C 76.455781,60.533923 87.277354,60.55819 98.411781,60.460936 C 101.50922,63.86963 104.37151,66.66003 106.99511,68.127603 L 106.91178,68.210936 C 107.02519,68.29147 107.1317,68.300643 107.24511,68.377603 C 110.23922,70.40931 113.17002,71.275123 115.82845,70.710936 C 118.58757,70.12539 120.71509,67.99043 121.41178,65.54427 C 122.10847,63.09811 121.55125,60.28579 119.74511,58.127603 C 117.97141,56.008136 115.06938,54.64611 111.41178,54.29427 C 111.34495,54.287843 111.31247,54.216643 111.24511,54.210936 L 111.24511,54.29427 C 109.03223,53.956723 105.51458,54.019336 100.91178,54.210936 C 94.177594,46.489496 88.178501,38.16811 82.661781,29.54427 C 84.858661,24.672856 86.397328,21.01171 86.828448,18.127603 C 86.837781,18.065096 86.903488,17.939416 86.911781,17.877603 L 86.828448,17.877603 C 87.638848,14.02659 87.173434,10.722883 85.411781,8.3776032 C 80.628554,3.4598702 74.633728,4.6590162 71.245114,9.6276032 z M 80.578448,11.960936 C 81.717754,16.60043 80.123354,20.95299 78.828448,25.608403 C 77.076981,21.072936 76.018634,17.201443 76.578448,12.627603 C 77.042874,9.9915502 80.214341,10.54163 80.578448,11.960936 z M 79.578448,35.79427 C 83.635568,42.524323 88.506981,48.662163 93.495114,54.710936 C 85.111194,54.974936 76.797914,56.004403 68.495114,57.127603 C 72.597674,50.229576 76.122448,43.029523 79.578448,35.79427 z M 106.13565,60.034163 C 109.75743,59.875096 112.17311,60.026776 115.31415,61.63179 C 117.17005,62.569176 117.2461,65.85531 114.28381,65.442456 C 110.80495,64.888936 108.89119,62.216856 106.13565,60.034163 z M 59.328448,64.04427 C 58.307461,65.55387 53.745834,69.621843 53.411781,69.960936 C 51.291088,72.019871 49.650608,72.577901 48.661781,72.627601 C 47.672954,72.677311 47.425488,72.352141 47.245114,72.044271 C 47.064741,71.736403 46.834768,71.159416 47.411781,70.127603 C 47.988794,69.09579 49.490074,67.72563 52.411781,66.54427 L 52.411781,66.460936 L 52.495114,66.460936 C 53.058101,66.209656 58.224101,64.345283 59.328448,64.04427 z"
       style="fill:url(#linearGradient9372);fill-opacity:1;fill-rule:evenodd;stroke:none;stroke-width:2.27530694;stroke-linecap:butt;stroke-linejoin:miter;stroke-miterlimit:4;stroke-dasharray:none;stroke-opacity:1;display:inline" />
    <path
       style="fill:#ff0000;fill-opacity:1;fill-rule:evenodd;stroke:none;stroke-width:2.27530694;stroke-linecap:butt;stroke-linejoin:miter;stroke-miterlimit:4;stroke-dasharray:none;stroke-opacity:1;display:inline"
       d="M 75.411781,5.2942702 C 73.982954,7.7981902 73.751274,11.156216 74.828448,14.79427 C 74.831568,14.81387 74.825221,14.857976 74.828448,14.877603 C 74.864154,14.995976 74.873114,15.091923 74.911781,15.210936 L 74.995114,15.210936 C 75.565941,18.207576 77.296981,21.422856 79.828448,25.627603 C 75.392021,35.35891 70.318608,44.77475 64.995114,54.04427 C 60.723114,54.79339 56.646554,55.518536 54.161781,56.627603 C 50.300528,58.188856 47.766714,60.30571 46.328448,62.877603 C 44.890181,65.449496 44.804394,68.477576 46.161781,70.79427 C 47.519168,73.110961 50.274394,74.439391 53.161781,74.294271 C 56.049168,74.149151 59.032421,72.756431 61.911781,69.960936 L 61.911781,69.877603 C 63.871274,67.888483 66.879701,63.49171 69.736741,58.660376 C 69.781194,58.585203 70.035514,58.014696 70.080181,57.93899 C 80.622448,56.20059 91.444021,56.224856 102.57845,56.127603 C 105.67589,59.536296 108.53818,62.326696 111.16178,63.79427 L 111.07845,63.877603 C 111.19186,63.958136 111.29837,63.96731 111.41178,64.04427 C 114.40589,66.075976 117.33669,66.94179 119.99511,66.377603 C 122.75423,65.792056 124.88175,63.657096 125.57845,61.210936 C 126.27514,58.764776 125.71791,55.952456 123.91178,53.79427 C 122.13807,51.674803 119.23605,50.312776 115.57845,49.960936 C 115.51162,49.95451 115.47914,49.88331 115.41178,49.877603 L 115.41178,49.960936 C 113.1989,49.62339 109.68125,49.686003 105.07845,49.877603 C 98.344261,42.156163 92.345168,33.834776 86.828448,25.210936 C 89.025328,20.339523 90.563994,16.678376 90.995114,13.79427 C 91.004448,13.731763 91.070154,13.606083 91.078448,13.54427 L 90.995114,13.54427 C 91.805514,9.6932562 91.340101,6.3895502 89.578448,4.0442702 C 84.795221,-0.87346384 78.800394,0.32568316 75.411781,5.2942702 z M 84.745114,7.6276032 C 85.884421,12.267096 84.290021,16.619656 82.995114,21.27507 C 81.243648,16.739603 80.185301,12.86811 80.745114,8.2942702 C 81.209541,5.6582162 84.381008,6.2082962 84.745114,7.6276032 z M 83.745114,31.460936 C 87.802234,38.19099 92.673648,44.32883 97.661781,50.377603 C 89.277861,50.641603 80.964581,51.67107 72.661781,52.79427 C 76.764341,45.896243 80.289114,38.69619 83.745114,31.460936 z M 110.30231,55.70083 C 113.9241,55.541763 116.33978,55.693443 119.48082,57.298456 C 121.33671,58.235843 121.41277,61.521976 118.45047,61.109123 C 114.97162,60.555603 113.05786,57.883523 110.30231,55.70083 z M 63.495114,59.710936 C 62.474128,61.220536 57.912501,65.28851 57.578448,65.627603 C 55.457754,67.686536 53.817274,68.244563 52.828448,68.29427 C 51.839621,68.343976 51.592154,68.018803 51.411781,67.710936 C 51.231408,67.40307 51.001434,66.826083 51.578448,65.79427 C 52.155461,64.762456 53.656741,63.392296 56.578448,62.210936 L 56.578448,62.127603 L 56.661781,62.127603 C 57.224768,61.876323 62.390768,60.01195 63.495114,59.710936 z"
       id="path13867"
       sodipodi:nodetypes="csscccccsssccsccccsssssccccscccccccccccccccccsssscccc" />
  </g>
</svg>
