<?xml version="1.0" encoding="UTF-8" standalone="no"?>
<!-- Created with Inkscape (http://www.inkscape.org/) -->

<svg
   xmlns:dc="http://purl.org/dc/elements/1.1/"
   xmlns:cc="http://creativecommons.org/ns#"
   xmlns:rdf="http://www.w3.org/1999/02/22-rdf-syntax-ns#"
   xmlns:svg="http://www.w3.org/2000/svg"
   xmlns="http://www.w3.org/2000/svg"
   xmlns:xlink="http://www.w3.org/1999/xlink"
   xmlns:sodipodi="http://sodipodi.sourceforge.net/DTD/sodipodi-0.dtd"
   xmlns:inkscape="http://www.inkscape.org/namespaces/inkscape"
   width="128"
   height="128"
   id="svg2"
   sodipodi:version="0.32"
   inkscape:version="0.48.3.1 r9886"
   version="1.0"
   sodipodi:docname="application-rss+xml.svg"
   inkscape:output_extension="org.inkscape.output.svg.inkscape">
  <defs
     id="defs4">
    <linearGradient
       inkscape:collect="always"
       xlink:href="#linearGradient5362"
       id="linearGradient10395"
       gradientUnits="userSpaceOnUse"
       gradientTransform="matrix(2.6765239,0,0,2.6765239,-1298.6208,-1689.8172)"
       x1="504.91962"
       y1="635.44617"
       x2="504.48212"
       y2="641.10242" />
    <linearGradient
       inkscape:collect="always"
       xlink:href="#linearGradient5344"
       id="linearGradient10397"
       gradientUnits="userSpaceOnUse"
       gradientTransform="matrix(2.6765239,0,0,2.6765239,-1298.6208,-1689.8172)"
       x1="519.31262"
       y1="723.67017"
       x2="511.42725"
       y2="667.20789" />
    <linearGradient
       inkscape:collect="always"
       xlink:href="#linearGradient5439"
       id="linearGradient13498"
       x1="518.22302"
       y1="947.47754"
       x2="558.05865"
       y2="1039.9775"
       gradientUnits="userSpaceOnUse"
       gradientTransform="matrix(2.6765239,0,0,2.6765239,-1298.6765,-2514.903)" />
    <linearGradient
       inkscape:collect="always"
       xlink:href="#linearGradient5439"
       id="linearGradient13500"
       x1="526.0874"
       y1="959.14893"
       x2="527.13647"
       y2="963.68018"
       gradientUnits="userSpaceOnUse" />
    <linearGradient
       inkscape:collect="always"
       xlink:href="#linearGradient12336"
       id="linearGradient13510"
       x1="486.4375"
       y1="952.23718"
       x2="487.4375"
       y2="969.17468"
       gradientUnits="userSpaceOnUse"
       gradientTransform="matrix(2.6765239,0,0,2.6765239,-1298.6765,-2514.903)" />
    <linearGradient
       inkscape:collect="always"
       xlink:href="#linearGradient12336"
       id="linearGradient13514"
       gradientUnits="userSpaceOnUse"
       x1="486.4375"
       y1="952.23718"
       x2="487.4375"
       y2="969.17468"
       gradientTransform="matrix(2.206684,0,0,2.6541747,-1011.0478,-2510.7549)" />
    <linearGradient
       inkscape:collect="always"
       xlink:href="#linearGradient5362"
       id="linearGradient13528"
       x1="511.79846"
       y1="938.65411"
       x2="509.33572"
       y2="953.51331"
       gradientUnits="userSpaceOnUse"
       gradientTransform="matrix(2.6765239,0,0,2.6765239,-1298.6765,-2514.903)" />
    <linearGradient
       id="linearGradient12336">
      <stop
         id="stop12338"
         offset="0"
         style="stop-color:#ff6e00;stop-opacity:1;" />
      <stop
         id="stop12340"
         offset="1"
         style="stop-color:#eb2600;stop-opacity:1;" />
    </linearGradient>
    <linearGradient
       inkscape:collect="always"
       xlink:href="#linearGradient12336"
       id="linearGradient13496"
       x1="495.75"
       y1="948.79968"
       x2="514.75"
       y2="968.79968"
       gradientUnits="userSpaceOnUse"
       gradientTransform="matrix(2.6765239,0,0,2.6765239,-1298.6765,-2514.903)" />
    <linearGradient
       inkscape:collect="always"
       xlink:href="#linearGradient5344"
       id="linearGradient13521"
       x1="533.375"
       y1="1029.2189"
       x2="496.625"
       y2="950.34387"
       gradientUnits="userSpaceOnUse"
       gradientTransform="matrix(2.6765239,0,0,2.6765239,-1298.6765,-2514.903)" />
    <linearGradient
       id="linearGradient5362">
      <stop
         style="stop-color:#ffffff;stop-opacity:1;"
         offset="0"
         id="stop5364" />
      <stop
         style="stop-color:#ffffff;stop-opacity:0;"
         offset="1"
         id="stop5366" />
    </linearGradient>
    <linearGradient
       inkscape:collect="always"
       xlink:href="#linearGradient5362"
       id="linearGradient13530"
       x1="489.8125"
       y1="943.79736"
       x2="486.80103"
       y2="963.84375"
       gradientUnits="userSpaceOnUse"
       gradientTransform="matrix(2.6765239,0,0,2.6765239,-1298.6765,-2514.903)" />
    <linearGradient
       id="linearGradient5439">
      <stop
         style="stop-color:#ffffff;stop-opacity:1;"
         offset="0"
         id="stop5441" />
      <stop
         style="stop-color:#000000;stop-opacity:1;"
         offset="1"
         id="stop5443" />
    </linearGradient>
    <linearGradient
       inkscape:collect="always"
       xlink:href="#linearGradient5439"
       id="linearGradient13309"
       gradientUnits="userSpaceOnUse"
       x1="499.90704"
       y1="953.39532"
       x2="652.75177"
       y2="1116.9413"
       gradientTransform="matrix(2.6765239,0,0,2.6765239,-1298.6765,-2514.903)" />
    <linearGradient
       inkscape:collect="always"
       id="linearGradient5398">
      <stop
         style="stop-color:#87c6ff;stop-opacity:1;"
         offset="0"
         id="stop5400" />
      <stop
         style="stop-color:#87c6ff;stop-opacity:0"
         offset="1"
         id="stop5402" />
    </linearGradient>
    <linearGradient
       inkscape:collect="always"
       xlink:href="#linearGradient5398"
       id="linearGradient13322"
       gradientUnits="userSpaceOnUse"
       x1="500.87799"
       y1="948.11993"
       x2="500.87799"
       y2="953.17468"
       gradientTransform="matrix(2.6765239,0,0,2.6765239,-1298.6765,-2514.903)" />
    <linearGradient
       id="linearGradient5344">
      <stop
         style="stop-color:#000000;stop-opacity:1;"
         offset="0"
         id="stop5346" />
      <stop
         style="stop-color:#000000;stop-opacity:0;"
         offset="1"
         id="stop5348" />
    </linearGradient>
    <linearGradient
       inkscape:collect="always"
       xlink:href="#linearGradient5344"
       id="linearGradient13314"
       gradientUnits="userSpaceOnUse"
       x1="544.89001"
       y1="919.05762"
       x2="506.01498"
       y2="969.80762"
       gradientTransform="translate(-485.21014,-859.4386)" />
    <linearGradient
       id="linearGradient8702">
      <stop
         id="stop8704"
         offset="0"
         style="stop-color:#aac736;stop-opacity:1;" />
      <stop
         id="stop8706"
         offset="1"
         style="stop-color:#5d8b2c;stop-opacity:1;" />
    </linearGradient>
    <linearGradient
       inkscape:collect="always"
       xlink:href="#linearGradient8702"
       id="linearGradient13316"
       gradientUnits="userSpaceOnUse"
       gradientTransform="matrix(2.6765239,0,0,2.6765239,-1779.5422,-994.63744)"
       x1="700.13062"
       y1="378.86951"
       x2="707.80457"
       y2="395.74899" />
    <inkscape:perspective
       sodipodi:type="inkscape:persp3d"
       inkscape:vp_x="0 : 526.18109 : 1"
       inkscape:vp_y="0 : 1000 : 0"
       inkscape:vp_z="744.09448 : 526.18109 : 1"
       inkscape:persp3d-origin="372.04724 : 350.78739 : 1"
       id="perspective10" />
    <linearGradient
       id="linearGradient2841">
      <stop
         id="stop2843"
         style="stop-color:#d4530d;stop-opacity:1"
         offset="0" />
      <stop
         id="stop2845"
         style="stop-color:#f7ad25;stop-opacity:1"
         offset="1" />
    </linearGradient>
    <clipPath
       id="clipPath3763">
      <path
         d="m -88,6 c -3.324,0 -6,2.676 -6,6 l 0,72 c 0,3.324 2.676,6 6,6 l 72,0 c 3.324,0 6,-2.676 6,-6 l 0,-72 c 0,-3.324 -2.676,-6 -6,-6 l -72,0 z m 4,38 a 36,36 0 0 1 36,36 l -7.1875,0 A 28.8,28.8 0 0 0 -84,51.1875 L -84,44 z m 0,12.125 A 23.862857,23.862857 0 0 1 -60.125,80 l -7,0 A 16.868571,16.868571 0 0 0 -84,63.125 l 0,-7 z m 4.9375,14 c 2.726708,0 4.9375,2.210792 4.9375,4.9375 0,2.726709 -2.210792,4.9375 -4.9375,4.9375 C -81.789209,80 -84,77.789209 -84,75.0625 c 0,-2.726708 2.210792,-4.9375 4.9375,-4.9375 z"
         inkscape:connector-curvature="0"
         id="path3765"
         style="fill:#ff00ff;fill-opacity:1;fill-rule:nonzero;stroke:none" />
    </clipPath>
    <filter
       color-interpolation-filters="sRGB"
       id="filter3767">
      <feGaussianBlur
         id="feGaussianBlur3769"
         stdDeviation="1.08" />
    </filter>
    <linearGradient
       y2="410.98141"
       x2="927.93488"
       y1="459.10907"
       x1="927.93488"
       gradientTransform="matrix(2.6765239,0,0,2.6765239,-2422.7609,-1101.1492)"
       gradientUnits="userSpaceOnUse"
       id="linearGradient11354"
       xlink:href="#linearGradient9863"
       inkscape:collect="always" />
    <linearGradient
       id="linearGradient9863">
      <stop
         style="stop-color:#2f445a;stop-opacity:1;"
         offset="0"
         id="stop9865" />
      <stop
         style="stop-color:#415f7c;stop-opacity:1"
         offset="1"
         id="stop9867" />
    </linearGradient>
    <linearGradient
       id="linearGradient2481">
      <stop
         style="stop-color:#87c6ff;stop-opacity:1;"
         offset="0"
         id="stop2483" />
      <stop
         id="stop3944"
         offset="0.5"
         style="stop-color:#75aadb;stop-opacity:1;" />
      <stop
         style="stop-color:#75aadb;stop-opacity:1;"
         offset="1"
         id="stop2485" />
    </linearGradient>
    <linearGradient
       y2="572.7771"
       x2="434.51016"
       y1="513.5271"
       x1="490.44766"
       gradientTransform="matrix(2.6765239,0,0,2.6765239,-1140.3714,-1422.0598)"
       gradientUnits="userSpaceOnUse"
       id="linearGradient11364"
       xlink:href="#linearGradient5344-4"
       inkscape:collect="always" />
    <linearGradient
       id="linearGradient5344-4">
      <stop
         style="stop-color:#000000;stop-opacity:1;"
         offset="0"
         id="stop5346-7" />
      <stop
         style="stop-color:#000000;stop-opacity:0;"
         offset="1"
         id="stop5348-0" />
    </linearGradient>
    <linearGradient
       y2="410.98141"
       x2="927.93488"
       y1="459.10907"
       x1="927.93488"
       gradientTransform="matrix(2.6765239,0,0,2.6765239,-2422.7609,-1101.1492)"
       gradientUnits="userSpaceOnUse"
       id="linearGradient3079"
       xlink:href="#linearGradient9863"
       inkscape:collect="always" />
    <linearGradient
       inkscape:collect="always"
       xlink:href="#linearGradient2841"
       id="linearGradient3252"
       x1="215.93924"
       y1="80.042412"
       x2="141.00957"
       y2="-12.653235"
       gradientUnits="userSpaceOnUse"
       gradientTransform="translate(-100,0)" />
  </defs>
  <sodipodi:namedview
     id="base"
     pagecolor="#ffffff"
     bordercolor="#666666"
     borderopacity="1.0"
     inkscape:pageopacity="0.0"
     inkscape:pageshadow="2"
     inkscape:zoom="3.5384616"
     inkscape:cx="79.914605"
     inkscape:cy="62.796365"
     inkscape:document-units="px"
     inkscape:current-layer="layer1"
     showgrid="false"
     inkscape:showpageshadow="false"
     inkscape:window-width="1366"
     inkscape:window-height="721"
     inkscape:window-x="0"
     inkscape:window-y="24"
     showguides="true"
     inkscape:guide-bbox="true"
     inkscape:window-maximized="1" />
  <metadata
     id="metadata7">
    <rdf:RDF>
      <cc:Work
         rdf:about="">
        <dc:format>image/svg+xml</dc:format>
        <dc:type
           rdf:resource="http://purl.org/dc/dcmitype/StillImage" />
        <dc:title></dc:title>
      </cc:Work>
    </rdf:RDF>
  </metadata>
  <g
     inkscape:label="Capa 1"
     inkscape:groupmode="layer"
     id="layer1">
    <path
       inkscape:export-ydpi="57.964222"
       inkscape:export-xdpi="57.964222"
       inkscape:export-filename="/home/dafeba/DCV/tallerD/bocetos/08-09-22-hastaahora.png"
       style="fill:#f2f2f2;fill-rule:evenodd;stroke:none;stroke-width:0.5;stroke-linecap:round;stroke-linejoin:round;stroke-miterlimit:4;stroke-dasharray:none;stroke-opacity:1;display:inline"
       d="M 0.79406774,5.0300318 C 10.43571,5.9564303 14.517649,17.135869 14.510449,25.471341 L 14.385777,101.75387 C 14.468562,111.11539 19.353378,120.42249 31.995566,127.21075 L 120.0767,112.17917 C 109.64428,110.25545 102.18553,99.918955 102.27,91.515874 L 102.48,28.451945 C 102.57149,20.324252 97.238753,12.146507 87.3369,11.268634 L 0.79406774,5.0300318 z"
       id="path10387"
       sodipodi:nodetypes="ccccccccc" />
    <path
       inkscape:export-ydpi="57.964222"
       inkscape:export-xdpi="57.964222"
       inkscape:export-filename="/home/dafeba/DCV/tallerD/bocetos/08-09-22-hastaahora.png"
       sodipodi:nodetypes="ccccc"
       id="path10389"
       d="M 0.79406774,5.0300318 C 10.43571,5.9564303 14.517649,17.135869 14.510449,25.471341 L 102.48,28.451945 C 102.57149,20.324252 97.238753,12.146507 87.3369,11.268634 L 0.79406774,5.0300318 z"
       style="fill:url(#linearGradient10395);fill-rule:evenodd;stroke:none;stroke-width:0.5;stroke-linecap:round;stroke-linejoin:round;stroke-miterlimit:4;stroke-dasharray:none;stroke-opacity:1;display:inline" />
    <path
       inkscape:export-ydpi="57.964222"
       inkscape:export-xdpi="57.964222"
       inkscape:export-filename="/home/dafeba/DCV/tallerD/bocetos/08-09-22-hastaahora.png"
       sodipodi:nodetypes="ccccc"
       id="path10391"
       d="M 14.385777,101.75387 C 14.468562,111.11539 19.353378,120.42249 31.995566,127.21075 L 120.0767,112.17917 C 109.64428,110.25545 102.18553,99.918955 102.27,91.515874 L 14.385777,101.75387 z"
       style="fill:url(#linearGradient10397);fill-rule:evenodd;stroke:none;stroke-width:0.5;stroke-linecap:round;stroke-linejoin:round;stroke-miterlimit:4;stroke-dasharray:none;stroke-opacity:1;display:inline" />
    <path
       inkscape:export-ydpi="57.964222"
       inkscape:export-xdpi="57.964222"
       inkscape:export-filename="/home/dafeba/DCV/tallerD/bocetos/08-09-22-hastaahora.png"
       sodipodi:nodetypes="ccccccccc"
       id="path10393"
       d="M 0.79406774,5.0300318 C 10.43571,5.9564303 14.517649,17.135869 14.510449,25.471341 L 14.385777,101.75387 C 14.468562,111.11539 19.353378,120.42249 31.995566,127.21075 L 120.0767,112.17917 C 109.64428,110.25545 102.18553,99.918955 102.27,91.515874 L 102.48,28.451945 C 102.57149,20.324252 97.238753,12.146507 87.3369,11.268634 L 0.79406774,5.0300318 z"
       style="fill:none;fill-rule:evenodd;stroke:#000000;stroke-width:1.33826196;stroke-linecap:round;stroke-linejoin:round;stroke-miterlimit:4;stroke-dasharray:none;stroke-opacity:1;display:inline" />
    <path
       d="m -84,44 0,7.2 A 28.8,28.8 0 0 1 -55.2,80 l 7.2,0 A 36,36 0 0 0 -84,44 z m 0,12.137143 0,6.994286 A 16.868571,16.868571 0 0 1 -67.131429,80 l 6.994286,0 A 23.862857,23.862857 0 0 0 -84,56.137143 z m 4.937142,13.988571 C -81.789566,70.125714 -84,72.336149 -84,75.062857 -84,77.789566 -81.789566,80 -79.062857,80 c 2.726708,0 4.937143,-2.210434 4.937143,-4.937143 0,-2.726708 -2.210435,-4.937143 -4.937143,-4.937143 z"
       inkscape:connector-curvature="0"
       transform="translate(172.82609,-35.173911)"
       clip-path="url(#clipPath3763)"
       id="path3051"
       style="opacity:0.12000002;fill:none;stroke:#ffffff;stroke-width:2;stroke-miterlimit:4;stroke-dasharray:none;display:inline;filter:url(#filter3767)" />
    <path
       inkscape:connector-curvature="0"
       sodipodi:nodetypes="cscccccccccc"
       id="path11340"
       d="M 1.6812291,4.951472 C 4.918458,5.2625108 6.6417914,6.6406797 8.6811688,8.7676865 12.715814,12.975664 14.515241,19.767263 14.510451,25.304054 l -0.124673,76.282536 c 0.07376,8.34021 3.958927,16.63725 13.745289,23.14843 2.449447,1.61589 5.70683,1.61589 9.150607,1.24305 L 120.0767,112.01189 C 109.64428,110.08817 102.18553,99.751668 102.27,91.348588 l 0.21,-63.063933 C 102.5715,20.156965 97.238753,11.979221 87.3369,11.101348 L 9.8672168,5.5168073 1.6812291,4.951472 z"
       style="fill:none;stroke:url(#linearGradient3079);stroke-width:2.67652392;stroke-linecap:round;stroke-linejoin:round;stroke-miterlimit:4;stroke-opacity:1;stroke-dasharray:none;display:inline"
       inkscape:export-filename="/home/dafeba/DCV/tallerD/bocetos/docs.png"
       inkscape:export-xdpi="57.964222"
       inkscape:export-ydpi="57.964222" />
    <rect
       style="fill:url(#linearGradient11364);fill-opacity:1;stroke:none;display:inline"
       id="rect11360"
       width="78.455605"
       height="78.455605"
       x="39.166527"
       y="8.8657675"
       rx="4.7468729"
       ry="4.7468729"
       inkscape:export-filename="/home/dafeba/DCV/tallerD/bocetos/docs.png"
       inkscape:export-xdpi="57.964222"
       inkscape:export-ydpi="57.964222" />
    <rect
       style="fill:url(#linearGradient3252);fill-opacity:1;stroke:#000000;stroke-width:1.60591435;stroke-miterlimit:4;stroke-dasharray:none;display:inline"
       id="rect11362"
       width="74.942673"
       height="74.942673"
       x="47.503067"
       y="4.9841213"
       rx="4.5343261"
       ry="4.5343261"
       inkscape:export-filename="/home/dafeba/DCV/tallerD/bocetos/docs.png"
       inkscape:export-xdpi="57.964222"
       inkscape:export-ydpi="57.964222" />
    <path
       d="m 53.377929,10.497494 0,12.607522 a 50.430095,50.430095 0 0 1 50.430091,50.430095 l 12.60752,0 A 63.037619,63.037619 0 0 0 53.377929,10.497494 z m 0,21.252694 0,12.2473 a 29.537626,29.537626 0 0 1 29.537622,29.537623 l 12.2473,0 A 41.784936,41.784936 0 0 0 53.377929,31.750188 z m 8.645157,24.494616 c -4.774603,0 -8.645157,3.870563 -8.645157,8.645153 0,4.774592 3.870554,8.645154 8.645157,8.645154 4.774592,0 8.645146,-3.870562 8.645146,-8.645154 0,-4.77459 -3.870554,-8.645153 -8.645146,-8.645153 z"
       inkscape:connector-curvature="0"
       id="path3053"
       style="fill:#ffffff;fill-opacity:1;display:inline" />
  </g>
</svg>
