<?xml version="1.0" encoding="UTF-8" standalone="no"?>
<!-- Created with Inkscape (http://www.inkscape.org/) -->

<svg
   xmlns:dc="http://purl.org/dc/elements/1.1/"
   xmlns:cc="http://creativecommons.org/ns#"
   xmlns:rdf="http://www.w3.org/1999/02/22-rdf-syntax-ns#"
   xmlns:svg="http://www.w3.org/2000/svg"
   xmlns="http://www.w3.org/2000/svg"
   xmlns:xlink="http://www.w3.org/1999/xlink"
   xmlns:sodipodi="http://sodipodi.sourceforge.net/DTD/sodipodi-0.dtd"
   xmlns:inkscape="http://www.inkscape.org/namespaces/inkscape"
   width="128"
   height="128"
   id="svg2"
   sodipodi:version="0.32"
   inkscape:version="0.48.3.1 r9886"
   version="1.0"
   sodipodi:docname="application-x-ruby.svg"
   inkscape:output_extension="org.inkscape.output.svg.inkscape">
  <defs
     id="defs4">
    <linearGradient
       gradientUnits="userSpaceOnUse"
       id="linearGradient4775"
       y2="181.66141"
       x2="47.046902"
       y1="127.3906"
       x1="38.696301">
      <stop
         offset="0"
         style="stop-color:#ffffff;stop-opacity:1"
         id="stop4777" />
      <stop
         offset="0.0602107"
         style="stop-color:#ffffff;stop-opacity:1"
         id="stop4779" />
      <stop
         offset="0.23"
         style="stop-color:#e57252;stop-opacity:1"
         id="stop4781" />
      <stop
         offset="0.46000001"
         style="stop-color:#de3b20;stop-opacity:1"
         id="stop4783" />
      <stop
         offset="0.99000001"
         style="stop-color:#a60003;stop-opacity:1"
         id="stop4785" />
      <stop
         offset="1"
         style="stop-color:#a60003;stop-opacity:1"
         id="stop4787" />
    </linearGradient>
    <linearGradient
       inkscape:collect="always"
       xlink:href="#linearGradient5362"
       id="linearGradient16345"
       gradientUnits="userSpaceOnUse"
       gradientTransform="matrix(2.6666667,0,0,2.6666667,-1293.8383,-1683.1224)"
       x1="504.91962"
       y1="635.44617"
       x2="504.48212"
       y2="641.10242" />
    <linearGradient
       inkscape:collect="always"
       xlink:href="#linearGradient5344"
       id="linearGradient16347"
       gradientUnits="userSpaceOnUse"
       gradientTransform="matrix(2.6666667,0,0,2.6666667,-1293.8383,-1683.1224)"
       x1="519.31262"
       y1="723.67017"
       x2="511.42725"
       y2="667.20789" />
    <linearGradient
       inkscape:collect="always"
       xlink:href="#linearGradient9863"
       id="linearGradient16349"
       gradientUnits="userSpaceOnUse"
       gradientTransform="matrix(2.6666667,0,0,2.6666667,-2413.8383,-1096.6224)"
       x1="927.93488"
       y1="459.10907"
       x2="927.93488"
       y2="410.98141" />
    <linearGradient
       id="linearGradient9863">
      <stop
         style="stop-color:#2f445a;stop-opacity:1;"
         offset="0"
         id="stop9865" />
      <stop
         style="stop-color:#415f7c;stop-opacity:1"
         offset="1"
         id="stop9867" />
    </linearGradient>
    <linearGradient
       id="linearGradient5362">
      <stop
         style="stop-color:#ffffff;stop-opacity:1;"
         offset="0"
         id="stop5364" />
      <stop
         style="stop-color:#ffffff;stop-opacity:0;"
         offset="1"
         id="stop5366" />
    </linearGradient>
    <linearGradient
       id="linearGradient5344">
      <stop
         style="stop-color:#000000;stop-opacity:1;"
         offset="0"
         id="stop5346" />
      <stop
         style="stop-color:#000000;stop-opacity:0;"
         offset="1"
         id="stop5348" />
    </linearGradient>
    <linearGradient
       id="linearGradient5344-6">
      <stop
         style="stop-color:#000000;stop-opacity:1;"
         offset="0"
         id="stop5346-8" />
      <stop
         style="stop-color:#000000;stop-opacity:0;"
         offset="1"
         id="stop5348-3" />
    </linearGradient>
    <linearGradient
       y2="572.7771"
       x2="434.51016"
       y1="486.7771"
       x1="495.94766"
       gradientTransform="matrix(2.6666667,0,0,2.6666667,-1133.7756,-1417.9965)"
       gradientUnits="userSpaceOnUse"
       id="linearGradient3107"
       xlink:href="#linearGradient5344-6"
       inkscape:collect="always" />
    <linearGradient
       x1="174.0737"
       y1="215.5488"
       x2="132.27631"
       y2="141.7533"
       id="linearGradient5627"
       xlink:href="#XMLID_17_"
       gradientUnits="userSpaceOnUse" />
    <linearGradient
       x1="174.0737"
       y1="215.5488"
       x2="132.27631"
       y2="141.7533"
       id="XMLID_17_"
       gradientUnits="userSpaceOnUse">
      <stop
         id="stop6"
         style="stop-color:#fb7655;stop-opacity:1"
         offset="0" />
      <stop
         id="stop8"
         style="stop-color:#fb7655;stop-opacity:1"
         offset="0" />
      <stop
         id="stop10"
         style="stop-color:#e42b1e;stop-opacity:1"
         offset="0.41" />
      <stop
         id="stop12"
         style="stop-color:#990000;stop-opacity:1"
         offset="0.99000001" />
      <stop
         id="stop14"
         style="stop-color:#990000;stop-opacity:1"
         offset="1" />
    </linearGradient>
    <linearGradient
       x1="194.895"
       y1="153.5576"
       x2="141.0276"
       y2="117.4093"
       id="linearGradient5629"
       xlink:href="#XMLID_18_"
       gradientUnits="userSpaceOnUse" />
    <linearGradient
       x1="194.895"
       y1="153.5576"
       x2="141.0276"
       y2="117.4093"
       id="XMLID_18_"
       gradientUnits="userSpaceOnUse">
      <stop
         id="stop19"
         style="stop-color:#871101;stop-opacity:1"
         offset="0" />
      <stop
         id="stop21"
         style="stop-color:#871101;stop-opacity:1"
         offset="0" />
      <stop
         id="stop23"
         style="stop-color:#911209;stop-opacity:1"
         offset="0.99000001" />
      <stop
         id="stop25"
         style="stop-color:#911209;stop-opacity:1"
         offset="1" />
    </linearGradient>
    <linearGradient
       x1="151.79539"
       y1="217.7852"
       x2="97.929703"
       y2="181.638"
       id="linearGradient5631"
       xlink:href="#XMLID_19_"
       gradientUnits="userSpaceOnUse" />
    <linearGradient
       x1="151.79539"
       y1="217.7852"
       x2="97.929703"
       y2="181.638"
       id="XMLID_19_"
       gradientUnits="userSpaceOnUse">
      <stop
         id="stop30"
         style="stop-color:#871101;stop-opacity:1"
         offset="0" />
      <stop
         id="stop32"
         style="stop-color:#871101;stop-opacity:1"
         offset="0" />
      <stop
         id="stop34"
         style="stop-color:#911209;stop-opacity:1"
         offset="0.99000001" />
      <stop
         id="stop36"
         style="stop-color:#911209;stop-opacity:1"
         offset="1" />
    </linearGradient>
    <linearGradient
       x1="38.696301"
       y1="127.3906"
       x2="47.046902"
       y2="181.66141"
       id="linearGradient5633"
       xlink:href="#XMLID_20_"
       gradientUnits="userSpaceOnUse" />
    <linearGradient
       x1="38.696301"
       y1="127.3906"
       x2="47.046902"
       y2="181.66141"
       id="XMLID_20_"
       gradientUnits="userSpaceOnUse">
      <stop
         id="stop41"
         style="stop-color:#ffffff;stop-opacity:1"
         offset="0" />
      <stop
         id="stop43"
         style="stop-color:#ffffff;stop-opacity:1"
         offset="0" />
      <stop
         id="stop45"
         style="stop-color:#e57252;stop-opacity:1"
         offset="0.23" />
      <stop
         id="stop47"
         style="stop-color:#de3b20;stop-opacity:1"
         offset="0.46000001" />
      <stop
         id="stop49"
         style="stop-color:#a60003;stop-opacity:1"
         offset="0.99000001" />
      <stop
         id="stop51"
         style="stop-color:#a60003;stop-opacity:1"
         offset="1" />
    </linearGradient>
    <linearGradient
       x1="96.132797"
       y1="76.715302"
       x2="99.209602"
       y2="132.1021"
       id="linearGradient5635"
       xlink:href="#XMLID_21_"
       gradientUnits="userSpaceOnUse" />
    <linearGradient
       x1="96.132797"
       y1="76.715302"
       x2="99.209602"
       y2="132.1021"
       id="XMLID_21_"
       gradientUnits="userSpaceOnUse">
      <stop
         id="stop56"
         style="stop-color:#ffffff;stop-opacity:1"
         offset="0" />
      <stop
         id="stop58"
         style="stop-color:#ffffff;stop-opacity:1"
         offset="0" />
      <stop
         id="stop60"
         style="stop-color:#e4714e;stop-opacity:1"
         offset="0.23" />
      <stop
         id="stop62"
         style="stop-color:#be1a0d;stop-opacity:1"
         offset="0.56" />
      <stop
         id="stop64"
         style="stop-color:#a80d00;stop-opacity:1"
         offset="0.99000001" />
      <stop
         id="stop66"
         style="stop-color:#a80d00;stop-opacity:1"
         offset="1" />
    </linearGradient>
    <linearGradient
       x1="147.103"
       y1="25.521"
       x2="156.3141"
       y2="65.216202"
       id="linearGradient5637"
       xlink:href="#XMLID_22_"
       gradientUnits="userSpaceOnUse" />
    <linearGradient
       x1="147.103"
       y1="25.521"
       x2="156.3141"
       y2="65.216202"
       id="XMLID_22_"
       gradientUnits="userSpaceOnUse">
      <stop
         id="stop71"
         style="stop-color:#ffffff;stop-opacity:1"
         offset="0" />
      <stop
         id="stop73"
         style="stop-color:#ffffff;stop-opacity:1"
         offset="0" />
      <stop
         id="stop75"
         style="stop-color:#e46342;stop-opacity:1"
         offset="0.18000001" />
      <stop
         id="stop77"
         style="stop-color:#c82410;stop-opacity:1"
         offset="0.40000001" />
      <stop
         id="stop79"
         style="stop-color:#a80d00;stop-opacity:1"
         offset="0.99000001" />
      <stop
         id="stop81"
         style="stop-color:#a80d00;stop-opacity:1"
         offset="1" />
    </linearGradient>
    <linearGradient
       x1="118.9761"
       y1="11.5415"
       x2="158.66859"
       y2="-8.3048"
       id="linearGradient5639"
       xlink:href="#XMLID_23_"
       gradientUnits="userSpaceOnUse" />
    <linearGradient
       x1="118.9761"
       y1="11.5415"
       x2="158.66859"
       y2="-8.3048"
       id="XMLID_23_"
       gradientUnits="userSpaceOnUse">
      <stop
         id="stop86"
         style="stop-color:#ffffff;stop-opacity:1"
         offset="0" />
      <stop
         id="stop88"
         style="stop-color:#ffffff;stop-opacity:1"
         offset="0" />
      <stop
         id="stop90"
         style="stop-color:#c81f11;stop-opacity:1"
         offset="0.54000002" />
      <stop
         id="stop92"
         style="stop-color:#bf0905;stop-opacity:1"
         offset="0.99000001" />
      <stop
         id="stop94"
         style="stop-color:#bf0905;stop-opacity:1"
         offset="1" />
    </linearGradient>
    <linearGradient
       x1="3.9033"
       y1="113.5547"
       x2="7.1701999"
       y2="146.2628"
       id="linearGradient5641"
       xlink:href="#XMLID_24_"
       gradientUnits="userSpaceOnUse" />
    <linearGradient
       x1="3.9033"
       y1="113.5547"
       x2="7.1701999"
       y2="146.2628"
       id="XMLID_24_"
       gradientUnits="userSpaceOnUse">
      <stop
         id="stop99"
         style="stop-color:#ffffff;stop-opacity:1"
         offset="0" />
      <stop
         id="stop101"
         style="stop-color:#ffffff;stop-opacity:1"
         offset="0" />
      <stop
         id="stop103"
         style="stop-color:#de4024;stop-opacity:1"
         offset="0.31" />
      <stop
         id="stop105"
         style="stop-color:#bf190b;stop-opacity:1"
         offset="0.99000001" />
      <stop
         id="stop107"
         style="stop-color:#bf190b;stop-opacity:1"
         offset="1" />
    </linearGradient>
    <linearGradient
       x1="-18.5557"
       y1="155.10451"
       x2="135.0152"
       y2="-2.8092999"
       id="linearGradient5643"
       xlink:href="#XMLID_25_"
       gradientUnits="userSpaceOnUse"
       gradientTransform="translate(144,-77.58)" />
    <linearGradient
       x1="-18.5557"
       y1="155.10451"
       x2="135.0152"
       y2="-2.8092999"
       id="XMLID_25_"
       gradientUnits="userSpaceOnUse"
       gradientTransform="translate(144,-77.58)">
      <stop
         id="stop114"
         style="stop-color:#bd0012;stop-opacity:1"
         offset="0" />
      <stop
         id="stop116"
         style="stop-color:#bd0012;stop-opacity:1"
         offset="0" />
      <stop
         id="stop118"
         style="stop-color:#ffffff;stop-opacity:1"
         offset="0.07" />
      <stop
         id="stop120"
         style="stop-color:#ffffff;stop-opacity:1"
         offset="0.17" />
      <stop
         id="stop122"
         style="stop-color:#c82f1c;stop-opacity:1"
         offset="0.27000001" />
      <stop
         id="stop124"
         style="stop-color:#820c01;stop-opacity:1"
         offset="0.33000001" />
      <stop
         id="stop126"
         style="stop-color:#a31601;stop-opacity:1"
         offset="0.46000001" />
      <stop
         id="stop128"
         style="stop-color:#b31301;stop-opacity:1"
         offset="0.72000003" />
      <stop
         id="stop130"
         style="stop-color:#e82609;stop-opacity:1"
         offset="0.99000001" />
      <stop
         id="stop132"
         style="stop-color:#e82609;stop-opacity:1"
         offset="1" />
    </linearGradient>
    <linearGradient
       x1="99.074699"
       y1="171.0332"
       x2="52.817699"
       y2="159.61659"
       id="linearGradient5645"
       xlink:href="#XMLID_26_"
       gradientUnits="userSpaceOnUse"
       gradientTransform="translate(144,-77.58)" />
    <linearGradient
       x1="99.074699"
       y1="171.0332"
       x2="52.817699"
       y2="159.61659"
       id="XMLID_26_"
       gradientUnits="userSpaceOnUse"
       gradientTransform="translate(144,-77.58)">
      <stop
         id="stop137"
         style="stop-color:#8c0c01;stop-opacity:1"
         offset="0" />
      <stop
         id="stop139"
         style="stop-color:#8c0c01;stop-opacity:1"
         offset="0" />
      <stop
         id="stop141"
         style="stop-color:#990c00;stop-opacity:1"
         offset="0.54000002" />
      <stop
         id="stop143"
         style="stop-color:#a80d0e;stop-opacity:1"
         offset="0.99000001" />
      <stop
         id="stop145"
         style="stop-color:#a80d0e;stop-opacity:1"
         offset="1" />
    </linearGradient>
    <linearGradient
       x1="178.52589"
       y1="115.5146"
       x2="137.43269"
       y2="78.683998"
       id="linearGradient5647"
       xlink:href="#XMLID_27_"
       gradientUnits="userSpaceOnUse"
       gradientTransform="translate(144,-77.58)" />
    <linearGradient
       x1="178.52589"
       y1="115.5146"
       x2="137.43269"
       y2="78.683998"
       id="XMLID_27_"
       gradientUnits="userSpaceOnUse"
       gradientTransform="translate(144,-77.58)">
      <stop
         id="stop150"
         style="stop-color:#7e110b;stop-opacity:1"
         offset="0" />
      <stop
         id="stop152"
         style="stop-color:#7e110b;stop-opacity:1"
         offset="0" />
      <stop
         id="stop154"
         style="stop-color:#9e0c00;stop-opacity:1"
         offset="0.99000001" />
      <stop
         id="stop156"
         style="stop-color:#9e0c00;stop-opacity:1"
         offset="1" />
    </linearGradient>
    <linearGradient
       x1="193.6235"
       y1="47.937"
       x2="173.15421"
       y2="26.053801"
       id="linearGradient5649"
       xlink:href="#XMLID_28_"
       gradientUnits="userSpaceOnUse"
       gradientTransform="translate(144,-77.58)" />
    <linearGradient
       x1="193.6235"
       y1="47.937"
       x2="173.15421"
       y2="26.053801"
       id="XMLID_28_"
       gradientUnits="userSpaceOnUse"
       gradientTransform="translate(144,-77.58)">
      <stop
         id="stop161"
         style="stop-color:#79130d;stop-opacity:1"
         offset="0" />
      <stop
         id="stop163"
         style="stop-color:#79130d;stop-opacity:1"
         offset="0" />
      <stop
         id="stop165"
         style="stop-color:#9e120b;stop-opacity:1"
         offset="0.99000001" />
      <stop
         id="stop167"
         style="stop-color:#9e120b;stop-opacity:1"
         offset="1" />
    </linearGradient>
    <radialGradient
       cx="143.8315"
       cy="79.388199"
       r="50.357601"
       id="radialGradient5651"
       xlink:href="#XMLID_29_"
       gradientUnits="userSpaceOnUse"
       gradientTransform="translate(144,-77.58)" />
    <radialGradient
       cx="143.8315"
       cy="79.388199"
       r="50.357601"
       id="XMLID_29_"
       gradientUnits="userSpaceOnUse"
       gradientTransform="translate(144,-77.58)">
      <stop
         id="stop174"
         style="stop-color:#a80d00;stop-opacity:1"
         offset="0" />
      <stop
         id="stop176"
         style="stop-color:#a80d00;stop-opacity:1"
         offset="0" />
      <stop
         id="stop178"
         style="stop-color:#7e0e08;stop-opacity:1"
         offset="0.99000001" />
      <stop
         id="stop180"
         style="stop-color:#7e0e08;stop-opacity:1"
         offset="1" />
    </radialGradient>
    <radialGradient
       cx="74.0923"
       cy="145.75101"
       r="66.943703"
       id="radialGradient5653"
       xlink:href="#XMLID_30_"
       gradientUnits="userSpaceOnUse"
       gradientTransform="translate(144,-77.58)" />
    <radialGradient
       cx="74.0923"
       cy="145.75101"
       r="66.943703"
       id="XMLID_30_"
       gradientUnits="userSpaceOnUse"
       gradientTransform="translate(144,-77.58)">
      <stop
         id="stop185"
         style="stop-color:#a30c00;stop-opacity:1"
         offset="0" />
      <stop
         id="stop187"
         style="stop-color:#a30c00;stop-opacity:1"
         offset="0" />
      <stop
         id="stop189"
         style="stop-color:#800e08;stop-opacity:1"
         offset="0.99000001" />
      <stop
         id="stop191"
         style="stop-color:#800e08;stop-opacity:1"
         offset="1" />
    </radialGradient>
    <linearGradient
       x1="26.669901"
       y1="197.33591"
       x2="9.9886999"
       y2="140.742"
       id="linearGradient5655"
       xlink:href="#XMLID_31_"
       gradientUnits="userSpaceOnUse"
       gradientTransform="translate(144,-77.58)" />
    <linearGradient
       x1="26.669901"
       y1="197.33591"
       x2="9.9886999"
       y2="140.742"
       id="XMLID_31_"
       gradientUnits="userSpaceOnUse"
       gradientTransform="translate(144,-77.58)">
      <stop
         id="stop196"
         style="stop-color:#8b2114;stop-opacity:1"
         offset="0" />
      <stop
         id="stop198"
         style="stop-color:#8b2114;stop-opacity:1"
         offset="0" />
      <stop
         id="stop200"
         style="stop-color:#9e100a;stop-opacity:1"
         offset="0.43000001" />
      <stop
         id="stop202"
         style="stop-color:#b3100c;stop-opacity:1"
         offset="0.99000001" />
      <stop
         id="stop204"
         style="stop-color:#b3100c;stop-opacity:1"
         offset="1" />
    </linearGradient>
    <linearGradient
       x1="154.6411"
       y1="9.7979002"
       x2="192.039"
       y2="26.305901"
       id="linearGradient5657"
       xlink:href="#XMLID_32_"
       gradientUnits="userSpaceOnUse"
       gradientTransform="translate(144,-77.58)" />
    <linearGradient
       x1="154.6411"
       y1="9.7979002"
       x2="192.039"
       y2="26.305901"
       id="XMLID_32_"
       gradientUnits="userSpaceOnUse"
       gradientTransform="translate(144,-77.58)">
      <stop
         id="stop209"
         style="stop-color:#b31000;stop-opacity:1"
         offset="0" />
      <stop
         id="stop211"
         style="stop-color:#b31000;stop-opacity:1"
         offset="0" />
      <stop
         id="stop213"
         style="stop-color:#910f08;stop-opacity:1"
         offset="0.44" />
      <stop
         id="stop215"
         style="stop-color:#791c12;stop-opacity:1"
         offset="0.99000001" />
      <stop
         id="stop217"
         style="stop-color:#791c12;stop-opacity:1"
         offset="1" />
    </linearGradient>
    <linearGradient
       inkscape:collect="always"
       xlink:href="#linearGradient4775"
       id="linearGradient4773"
       x1="83.402382"
       y1="-15.961802"
       x2="160.79948"
       y2="205.03819"
       gradientUnits="userSpaceOnUse" />
  </defs>
  <sodipodi:namedview
     id="base"
     pagecolor="#ffffff"
     bordercolor="#666666"
     borderopacity="1.0"
     inkscape:pageopacity="0.0"
     inkscape:pageshadow="2"
     inkscape:zoom="1.7692308"
     inkscape:cx="108.93844"
     inkscape:cy="45.481835"
     inkscape:document-units="px"
     inkscape:current-layer="layer1"
     showgrid="false"
     inkscape:showpageshadow="false"
     inkscape:window-width="1366"
     inkscape:window-height="717"
     inkscape:window-x="0"
     inkscape:window-y="0"
     showguides="true"
     inkscape:guide-bbox="true"
     inkscape:window-maximized="1" />
  <metadata
     id="metadata7">
    <rdf:RDF>
      <cc:Work
         rdf:about="">
        <dc:format>image/svg+xml</dc:format>
        <dc:type
           rdf:resource="http://purl.org/dc/dcmitype/StillImage" />
        <dc:title />
      </cc:Work>
    </rdf:RDF>
  </metadata>
  <g
     inkscape:label="Capa 1"
     inkscape:groupmode="layer"
     id="layer1">
    <path
       sodipodi:nodetypes="ccccccccc"
       id="path16325"
       d="M 0.79114262,5.4829152 C 10.397277,6.4059022 14.464183,17.544168 14.45701,25.848942 L 14.332797,101.85054 C 14.415277,111.17758 19.282103,120.45041 31.87773,127.21368 L 119.63448,112.23745 C 109.24048,110.32081 101.8092,100.02238 101.89336,91.650248 L 102.10259,28.818568 C 102.19373,20.720808 96.880636,12.573182 87.015246,11.698542 L 0.79114262,5.4829152 z"
       style="fill:#f2f2f2;fill-rule:evenodd;stroke:none;stroke-width:0.5;stroke-linecap:round;stroke-linejoin:round;stroke-miterlimit:4;stroke-dasharray:none;stroke-opacity:1;display:inline"
       inkscape:export-filename="/home/dafeba/DCV/tallerD/bocetos/08-09-22-hastaahora.png"
       inkscape:export-xdpi="57.964222"
       inkscape:export-ydpi="57.964222" />
    <path
       style="fill:url(#linearGradient16345);fill-rule:evenodd;stroke:none;stroke-width:0.5;stroke-linecap:round;stroke-linejoin:round;stroke-miterlimit:4;stroke-dasharray:none;stroke-opacity:1;display:inline"
       d="M 0.79114262,5.4829152 C 10.397277,6.4059022 14.464183,17.544168 14.45701,25.848942 L 102.10259,28.818568 C 102.19373,20.720808 96.880636,12.573182 87.015246,11.698542 L 0.79114262,5.4829152 z"
       id="path16327"
       sodipodi:nodetypes="ccccc"
       inkscape:export-filename="/home/dafeba/DCV/tallerD/bocetos/08-09-22-hastaahora.png"
       inkscape:export-xdpi="57.964222"
       inkscape:export-ydpi="57.964222" />
    <path
       style="fill:url(#linearGradient16347);fill-rule:evenodd;stroke:none;stroke-width:0.5;stroke-linecap:round;stroke-linejoin:round;stroke-miterlimit:4;stroke-dasharray:none;stroke-opacity:1;display:inline"
       d="M 14.332797,101.85054 C 14.415277,111.17758 19.282103,120.45041 31.87773,127.21368 L 119.63448,112.23745 C 109.24048,110.32081 101.8092,100.02238 101.89336,91.650248 L 14.332797,101.85054 z"
       id="path16329"
       sodipodi:nodetypes="ccccc"
       inkscape:export-filename="/home/dafeba/DCV/tallerD/bocetos/08-09-22-hastaahora.png"
       inkscape:export-xdpi="57.964222"
       inkscape:export-ydpi="57.964222" />
    <path
       inkscape:export-ydpi="57.964222"
       inkscape:export-xdpi="57.964222"
       inkscape:export-filename="/home/dafeba/DCV/tallerD/bocetos/08-09-22-hastaahora.png"
       style="fill:none;fill-rule:evenodd;stroke:url(#linearGradient16349);stroke-width:2.66666675;stroke-linecap:round;stroke-linejoin:round;stroke-miterlimit:4;stroke-dasharray:none;stroke-opacity:1;display:inline"
       d="M 1.6750366,5.4046482 C 4.9003426,5.7145422 6.6173296,7.0876352 8.6491966,9.2068082 C 12.668983,13.399288 14.461783,20.165875 14.45701,25.682275 L 14.332797,101.68388 C 14.40629,109.99337 18.277143,118.25985 28.027463,124.74705 C 30.46789,126.357 33.713277,126.357 37.14437,125.98553 L 119.63448,112.07078 C 109.24048,110.15414 101.8092,99.855715 101.89336,91.483582 L 102.10259,28.651902 C 102.19373,20.554142 96.880636,12.406515 87.015246,11.531875 L 9.8308766,5.9679022 L 1.6750366,5.4046482 z"
       id="path16331"
       sodipodi:nodetypes="cscccccccccc" />
    <rect
       style="fill:url(#linearGradient3107);fill-opacity:1;stroke:none;display:inline"
       id="rect28644"
       width="78.166664"
       height="78.166664"
       x="41.418297"
       y="7.6591678"
       rx="4.7293906"
       ry="4.7293906"
       inkscape:export-filename="/home/dafeba/DCV/tallerD/bocetos/08-09-22-hastaahora.png"
       inkscape:export-xdpi="57.964222"
       inkscape:export-ydpi="57.964222" />
    <rect
       style="fill:url(#linearGradient4773);fill-opacity:1;stroke:#000000;stroke-width:1.60000001999999997;stroke-miterlimit:4;stroke-dasharray:none;display:inline"
       id="rect28646"
       width="74.666664"
       height="74.666664"
       x="49.724121"
       y="3.79182"
       rx="4.5176268"
       ry="4.5176268"
       inkscape:export-filename="/home/dafeba/DCV/tallerD/bocetos/08-09-22-hastaahora.png"
       inkscape:export-xdpi="57.964222"
       inkscape:export-ydpi="57.964222" />
    <g
       transform="matrix(1.314447,0,0,1.314447,23.960644,-23.160477)"
       style="display:inline"
       id="layer4">
      <path
         inkscape:connector-curvature="0"
         d="M 50.59375,22.03125 A 0.95441491,0.95441491 0 0 0 50.25,22.09375 c -3.722918,1.368287 -7.454272,2.779579 -11.15625,4.21875 a 0.95441491,0.95441491 0 0 0 -0.28125,0.15625 c -3.611796,3.17612 -7.015254,6.587923 -10.5,9.8125 a 0.95441491,0.95441491 0 0 0 -0.15625,0.1875 c -2.342785,3.900807 -4.451319,7.954998 -6.5,11.96875 a 0.95441491,0.95441491 0 0 0 -0.0625,0.15625 c -0.214082,0.708871 -0.106128,1.330939 -0.03125,1.78125 0.07488,0.450311 0.12475,0.743435 0.0625,0.96875 A 0.95441491,0.95441491 0 0 0 21.5625,51.5625 C 21.390848,55.633237 21.0821,59.715875 21,63.84375 a 0.95441491,0.95441491 0 0 0 0,0.0625 c 0.09624,4.650359 2.561232,9.73553 7.4375,11.25 0.0092,0.0029 0.02201,-0.0028 0.03125,0 4.426992,1.515247 8.874496,0.434957 12.9375,0.3125 A 0.95441491,0.95441491 0 0 0 41.4375,75.4375 c 9.448217,-0.669621 18.917176,-1.229554 28.375,-1.96875 a 0.95441491,0.95441491 0 0 0 0.09375,0 c 0.909256,-0.15419 1.617735,-0.745401 2,-1.4375 0.350487,-0.634564 0.422923,-1.367232 0.375,-2.0625 l 0.03125,0 c 0.0047,-0.06211 -0.0047,-0.125392 0,-0.1875 C 73.200358,58.088928 74.143955,46.387083 75,34.6875 a 0.95441491,0.95441491 0 0 0 0,-0.15625 C 74.761798,31.863384 74.616152,28.659426 72.40625,26.25 72.396465,26.238472 72.384828,26.230229 72.375,26.21875 69.855804,23.276249 65.958627,21.974154 62.21875,22.25 l 0,-0.03125 C 58.634062,22.18054 55.07487,22.21355 51.53125,22.125 l 0,0.03125 c -0.371156,-0.07373 -0.773854,-0.122341 -0.9375,-0.125 z"
         id="path5780"
         style="opacity:0.05;fill:#bd1717;fill-opacity:1;fill-rule:evenodd" />
      <path
         d="m 50.59375,23 c -3.721665,1.367826 -7.464119,2.752157 -11.15625,4.1875 -3.580625,3.148709 -6.965429,6.539485 -10.46875,9.78125 -2.322835,3.867589 -4.422522,7.897304 -6.46875,11.90625 -0.274687,0.909547 0.285974,1.790498 0.02645,2.729858 -0.17254,4.091797 -0.487815,8.182368 -0.569213,12.274963 0.08973,4.335985 2.396209,9.008994 6.786726,10.357854 4.106255,1.416469 8.42374,0.389959 12.633222,0.263087 C 50.832819,73.830615 60.304195,73.269507 69.75,72.53125 70.969676,72.32442 71.497797,71.023106 71.366358,69.893854 72.258653,58.137323 73.202198,46.382761 74.0625,34.625 73.821392,31.924586 73.631053,28.98787 71.672891,26.87775 69.37131,24.166106 65.715304,22.902749 62.219669,23.177319 58.647729,23.139249 55.06553,23.182847 51.5,23.09375 51.220286,22.973735 50.894806,23.004892 50.59375,23 z"
         inkscape:connector-curvature="0"
         id="path5774"
         style="opacity:0.1;fill:#bd1717;fill-opacity:1;fill-rule:evenodd" />
      <path
         inkscape:connector-curvature="0"
         d="m 50.84375,24.03125 a 0.96607826,0.96607826 0 0 0 -0.25,0.0625 L 40.125,28 a 0.96607826,0.96607826 0 0 0 -0.3125,0.1875 c -1.655868,1.540145 -4.0905,3.828308 -6.125,5.75 -1.01725,0.960846 -1.915415,1.836229 -2.59375,2.46875 -0.339167,0.31626 -0.616429,0.572491 -0.8125,0.75 -0.09803,0.08875 -0.201457,0.17706 -0.25,0.21875 -0.02427,0.02085 -0.02942,0.02981 -0.03125,0.03125 -0.092,0.07267 -0.190439,0.183673 -0.21875,0.21875 -0.04256,0.05273 -0.06375,0.08082 -0.09375,0.125 -0.06,0.08835 -0.146251,0.192425 -0.21875,0.3125 -0.144998,0.240149 -0.309668,0.543756 -0.53125,0.9375 -0.443164,0.787488 -1.019525,1.855277 -1.65625,3.03125 -1.273449,2.351945 -2.760073,5.134357 -3.71875,6.9375 A 0.96607826,0.96607826 0 0 0 23.5,49.78125 l 0.125,0.3125 L 22.96875,63.25 a 0.96607826,0.96607826 0 0 0 0,0.09375 c 0.135468,4.873178 2.029019,7.682056 4.34375,9.09375 2.314731,1.411694 4.906661,1.488108 6.40625,1.53125 a 0.96607826,0.96607826 0 0 0 0.03125,0 l 0.15625,0 a 0.96607826,0.96607826 0 0 0 0.0625,0 L 69.375,71.5625 a 0.96607826,0.96607826 0 0 0 0.09375,-0.03125 0.96607826,0.96607826 0 0 0 0.21875,-0.0625 0.96607826,0.96607826 0 0 0 0.15625,-0.0625 0.96607826,0.96607826 0 0 0 0.25,-0.25 0.96607826,0.96607826 0 0 0 0.25,-0.6875 l -0.03125,-0.125 0,-0.09375 0,-0.0625 2.71875,-35.40625 a 0.96607826,0.96607826 0 0 0 -0.0625,-0.375 0.96607826,0.96607826 0 0 0 -0.03125,-0.09375 c -0.0011,-1.069156 -0.04685,-2.15593 -0.3125,-3.1875 -0.0024,-0.01025 0.0025,-0.02104 0,-0.03125 -0.10229,-0.425821 -0.234965,-0.819224 -0.375,-1.1875 0.0253,0.06315 -0.003,-0.01977 -0.03125,-0.09375 -0.0034,-0.0086 0.0034,-0.02264 0,-0.03125 -1.175249,-2.955125 -3.861474,-4.937618 -7.6875,-5.5625 a 0.96607826,0.96607826 0 0 0 -0.15625,0 l -13,-0.0625 a 0.96607826,0.96607826 0 0 0 -0.53125,-0.125 z"
         id="path5770"
         style="opacity:0.2;fill:#bd1717;fill-opacity:1;fill-rule:evenodd" />
      <path
         d="m 50.9375,25 -10.46875,3.90625 c -3.298876,3.06833 -9.675458,9.16707 -9.90625,9.28125 -0.228364,0.11661 -4.239457,7.64477 -6.15625,11.25 l 0.1875,0.5 -0.65625,13.375 C 24.195786,72.60383 30.777064,72.91447 33.75,73 l 0.15625,0 35.40625,-2.40625 0,-0.0312 0,-0.0625 0.0625,0.0625 -0.03125,-0.28125 2.71875,-35.5625 -0.03125,0.0625 c 0.03408,-1.17423 -0.05979,-2.34835 -0.34375,-3.4375 -0.09058,-0.38386 -0.209877,-0.74168 -0.34375,-1.09375 -0.0123,-0.0307 -0.01859,-0.0632 -0.03125,-0.0937 C 70.26618,27.50059 67.980223,25.77642 64.375,25.1876 L 51.125,25.125 50.9375,25 z m -11.53125,29.59375 0.03125,0 0,0.0625 -0.09375,0 0.0625,-0.0625 z"
         inkscape:connector-curvature="0"
         id="polygon5661"
         style="opacity:0.3;fill:#bd1717;fill-opacity:1;fill-rule:evenodd" />
      <g
         transform="matrix(0.24293957,0,0,0.24293957,-11.050107,42.847252)"
         id="g5607">
        <polygon
           points="40.38,197.58 186.849,187.641 198.13,39.95 153.5,130.41 "
           transform="translate(144,-77.58)"
           id="polygon16"
           style="fill:url(#linearGradient5627);fill-rule:evenodd" />
        <polygon
           points="174.5,100.65 140.209,145.93 187.089,187.54 "
           transform="translate(144,-77.58)"
           id="polygon27"
           style="fill:url(#linearGradient5629);fill-rule:evenodd" />
        <polygon
           points="95.03,180.3 40.87,197.391 187.259,187.54 "
           transform="translate(144,-77.58)"
           id="polygon38"
           style="fill:url(#linearGradient5631);fill-rule:evenodd" />
        <polygon
           points="64.04,121.93 13.34,132.771 41,197.41 "
           transform="translate(144,-77.58)"
           id="polygon53"
           style="fill:url(#linearGradient5633);fill-rule:evenodd" />
        <polygon
           points="119,63.14 58.33,120.01 140.2,146.18 "
           transform="translate(144,-77.58)"
           id="polygon68"
           style="fill:url(#linearGradient5635);fill-rule:evenodd" />
        <polygon
           points="135.97,17.47 120,69.1 193.32,64.31 "
           transform="translate(144,-77.58)"
           id="polygon83"
           style="fill:url(#linearGradient5637);fill-rule:evenodd" />
        <polygon
           points="132.77,19.41 111.49,0.52 166.5,0.77 "
           transform="translate(144,-77.58)"
           id="polygon96"
           style="fill:url(#linearGradient5639);fill-rule:evenodd" />
        <polygon
           points="14.13,132.32 2.7,101.62 0,158.09 "
           transform="translate(144,-77.58)"
           id="polygon109"
           style="fill:url(#linearGradient5641);fill-rule:evenodd" />
        <path
           d="m 145.94,23.07 11.5,32.62 49.97,-11.211 57.05,-53.02 16.1,-51.139 -25.351,-17.9 -43.1,16.13 c -13.579,12.63 -39.929,37.62 -40.879,38.09 -0.94,0.48 -17.4,31.59 -25.29,46.43 z"
           inkscape:connector-curvature="0"
           id="path111"
           style="fill:#ffffff;fill-rule:evenodd" />
        <path
           d="m 186.32,-35.53 c 29.43,-29.18 67.37,-46.42 81.93,-31.73 14.551,14.69 -0.88,50.39 -30.31,79.56 -29.43,29.17 -66.9,47.36 -81.45,32.67 -14.56,-14.68 0.4,-51.33 29.83,-80.5 z"
           inkscape:connector-curvature="0"
           id="path134"
           style="fill:url(#linearGradient5643);fill-rule:evenodd" />
        <path
           d="m 185,119.8 22.86,-75.72 75.92,24.39 C 256.33,94.21 225.8,115.97 185,119.8 z"
           inkscape:connector-curvature="0"
           id="path147"
           style="fill:url(#linearGradient5645);fill-rule:evenodd" />
        <path
           d="m 264.56,-8.69 19.49,77.2 c 22.93,-24.11 43.51,-50.03 53.589,-82.09 l -73.079,4.89 z"
           inkscape:connector-curvature="0"
           id="path158"
           style="fill:url(#linearGradient5647);fill-rule:evenodd" />
        <path
           d="m 337.44,-13.19 c 7.8,-23.54 9.6,-57.31 -27.181,-63.58 l -30.18,16.67 57.361,46.91 z"
           inkscape:connector-curvature="0"
           id="path169"
           style="fill:url(#linearGradient5649);fill-rule:evenodd" />
        <path
           d="m 144,80.17 c 1.08,38.851 29.11,39.43 41.05,39.771 L 157.47,55.53 144,80.17 z"
           inkscape:connector-curvature="0"
           id="path171"
           style="fill:#9e1209;fill-rule:evenodd" />
        <path
           d="m 264.669,-8.57 c 17.62,10.83 53.131,32.58 53.851,32.98 1.119,0.63 15.31,-23.93 18.53,-37.81 l -72.381,4.83 z"
           inkscape:connector-curvature="0"
           id="path182"
           style="fill:url(#radialGradient5651);fill-rule:evenodd" />
        <path
           d="m 207.83,44.08 30.56,58.96 c 18.07,-9.8 32.22,-21.74 45.18,-34.53 L 207.83,44.08 z"
           inkscape:connector-curvature="0"
           id="path193"
           style="fill:url(#radialGradient5653);fill-rule:evenodd" />
        <path
           d="m 157.35,55.61 -4.33,51.56 c 8.17,11.16 19.41,12.13 31.2,11.26 C 175.69,97.2 158.65,54.75 157.35,55.61 z"
           inkscape:connector-curvature="0"
           id="path206"
           style="fill:url(#linearGradient5655);fill-rule:evenodd" />
        <path
           d="m 279.9,-59.97 60.71,8.52 c -3.24,-13.73 -13.19,-22.59 -30.15,-25.36 l -30.56,16.84 z"
           inkscape:connector-curvature="0"
           id="path219"
           style="fill:url(#linearGradient5657);fill-rule:evenodd" />
      </g>
    </g>
  </g>
</svg>
