<?xml version="1.0" encoding="UTF-8" standalone="no"?>
<!-- Created with Inkscape (http://www.inkscape.org/) -->
<svg
   xmlns:dc="http://purl.org/dc/elements/1.1/"
   xmlns:cc="http://creativecommons.org/ns#"
   xmlns:rdf="http://www.w3.org/1999/02/22-rdf-syntax-ns#"
   xmlns:svg="http://www.w3.org/2000/svg"
   xmlns="http://www.w3.org/2000/svg"
   xmlns:xlink="http://www.w3.org/1999/xlink"
   xmlns:sodipodi="http://sodipodi.sourceforge.net/DTD/sodipodi-0.dtd"
   xmlns:inkscape="http://www.inkscape.org/namespaces/inkscape"
   width="128"
   height="128"
   id="svg2"
   sodipodi:version="0.32"
   inkscape:version="0.46"
   version="1.0"
   sodipodi:docname="gnome-mime-application-x-perl.svg"
   inkscape:output_extension="org.inkscape.output.svg.inkscape">
  <defs
     id="defs4">
    <linearGradient
       inkscape:collect="always"
       xlink:href="#linearGradient5362"
       id="linearGradient23093"
       gradientUnits="userSpaceOnUse"
       gradientTransform="matrix(2.6666667,0,0,2.6666667,-1293.8382,-1683.1224)"
       x1="504.91962"
       y1="635.44617"
       x2="504.48212"
       y2="641.10242" />
    <linearGradient
       inkscape:collect="always"
       xlink:href="#linearGradient5344"
       id="linearGradient23095"
       gradientUnits="userSpaceOnUse"
       gradientTransform="matrix(2.6666667,0,0,2.6666667,-1293.8382,-1683.1224)"
       x1="519.31262"
       y1="723.67017"
       x2="511.42725"
       y2="667.20789" />
    <linearGradient
       inkscape:collect="always"
       xlink:href="#linearGradient9863"
       id="linearGradient23097"
       gradientUnits="userSpaceOnUse"
       gradientTransform="matrix(2.6666667,0,0,2.6666667,-2413.8382,-1096.6224)"
       x1="927.93488"
       y1="459.10907"
       x2="927.93488"
       y2="410.98141" />
    <linearGradient
       inkscape:collect="always"
       xlink:href="#linearGradient5344"
       id="linearGradient23121"
       gradientUnits="userSpaceOnUse"
       gradientTransform="matrix(2.6666667,0,0,2.6666667,-1133.8382,-1417.1628)"
       x1="533.94769"
       y1="471.7771"
       x2="436.88516"
       y2="567.9021" />
    <linearGradient
       inkscape:collect="always"
       xlink:href="#linearGradient5439"
       id="linearGradient23123"
       gradientUnits="userSpaceOnUse"
       gradientTransform="matrix(1.6284723,0,0,1.6284723,47.012342,2.3646274)"
       x1="18.264242"
       y1="-3.8831213"
       x2="145.0313"
       y2="140.38754" />
    <linearGradient
       inkscape:collect="always"
       xlink:href="#linearGradient5316"
       id="linearGradient9957"
       gradientUnits="userSpaceOnUse"
       gradientTransform="matrix(1.5501013,0,0,1.5501013,48.893275,4.2455547)"
       x1="44.797516"
       y1="-3.8831213"
       x2="3.823154"
       y2="-3.8831213" />
    <linearGradient
       inkscape:collect="always"
       xlink:href="#linearGradient8702"
       id="linearGradient10741"
       x1="864.47417"
       y1="665.06289"
       x2="873.49957"
       y2="672.95392"
       gradientUnits="userSpaceOnUse"
       gradientTransform="matrix(2.6666667,0,0,2.6666667,-2253.8382,-1736.4557)" />
    <linearGradient
       inkscape:collect="always"
       xlink:href="#linearGradient5316"
       id="linearGradient10743"
       x1="879.13647"
       y1="668.05713"
       x2="884.60846"
       y2="672.72003"
       gradientUnits="userSpaceOnUse"
       gradientTransform="matrix(2.6666667,0,0,2.6666667,-2253.8382,-1736.4557)" />
    <linearGradient
       y2="637.52454"
       x2="518.86896"
       y1="661.19366"
       x1="513.96362"
       gradientTransform="translate(-296.48677,-601.99164)"
       gradientUnits="userSpaceOnUse"
       id="linearGradient10430"
       xlink:href="#linearGradient5344"
       inkscape:collect="always" />
    <linearGradient
       y2="643.21948"
       x2="516.5"
       y1="647.79089"
       x1="519.95825"
       gradientTransform="translate(-296.48677,-601.99164)"
       gradientUnits="userSpaceOnUse"
       id="linearGradient10427"
       xlink:href="#linearGradient5316"
       inkscape:collect="always" />
    <linearGradient
       y2="650.17572"
       x2="519.57452"
       y1="632.9248"
       x1="512.30157"
       gradientTransform="translate(-296.48677,-601.99164)"
       gradientUnits="userSpaceOnUse"
       id="linearGradient10424"
       xlink:href="#linearGradient5344"
       inkscape:collect="always" />
    <linearGradient
       y2="643.65698"
       x2="524.125"
       y1="667.56323"
       x1="526.0625"
       gradientTransform="translate(-296.48677,-601.99164)"
       gradientUnits="userSpaceOnUse"
       id="linearGradient10419"
       xlink:href="#linearGradient5344"
       inkscape:collect="always" />
    <linearGradient
       y2="646.90363"
       x2="503.55746"
       y1="636.31903"
       x1="506.66599"
       gradientTransform="matrix(2.6406961,0,0,2.6406961,-1283.1083,-1664.9387)"
       gradientUnits="userSpaceOnUse"
       id="linearGradient6540"
       xlink:href="#linearGradient5344"
       inkscape:collect="always" />
    <linearGradient
       y2="645.41931"
       x2="501.48886"
       y1="636.98193"
       x1="506.95987"
       gradientTransform="matrix(2.6406961,0,0,2.6406961,-1268.2544,-1664.6086)"
       gradientUnits="userSpaceOnUse"
       id="linearGradient6538"
       xlink:href="#linearGradient5165-9"
       inkscape:collect="always" />
    <linearGradient
       y2="399.89111"
       x2="628.88568"
       y1="338.36591"
       x1="661.80859"
       gradientTransform="translate(-416.59922,-341.99164)"
       gradientUnits="userSpaceOnUse"
       id="linearGradient10161"
       xlink:href="#linearGradient5344"
       inkscape:collect="always" />
    <linearGradient
       y2="672.06232"
       x2="536.1507"
       y1="635.96948"
       x1="515.3125"
       gradientTransform="matrix(2.6406961,0,0,2.6406961,-1268.2544,-1664.6086)"
       gradientUnits="userSpaceOnUse"
       id="linearGradient6544"
       xlink:href="#linearGradient5439"
       inkscape:collect="always" />
    <linearGradient
       inkscape:collect="always"
       xlink:href="#linearGradient5362"
       id="linearGradient15513"
       gradientUnits="userSpaceOnUse"
       gradientTransform="matrix(2.6666667,0,0,2.6666667,-1293.8382,-1683.1224)"
       x1="504.91962"
       y1="635.44617"
       x2="504.48212"
       y2="641.10242" />
    <linearGradient
       inkscape:collect="always"
       xlink:href="#linearGradient5344"
       id="linearGradient15517"
       gradientUnits="userSpaceOnUse"
       gradientTransform="matrix(2.6666667,0,0,2.6666667,-1293.8382,-1683.1224)"
       x1="519.31262"
       y1="723.67017"
       x2="511.42725"
       y2="667.20789" />
    <linearGradient
       inkscape:collect="always"
       xlink:href="#linearGradient9863"
       id="linearGradient15519"
       gradientUnits="userSpaceOnUse"
       gradientTransform="matrix(2.6666667,0,0,2.6666667,-2413.8382,-1096.6224)"
       x1="927.93488"
       y1="459.10907"
       x2="927.93488"
       y2="410.98141" />
    <linearGradient
       inkscape:collect="always"
       xlink:href="#linearGradient5344"
       id="linearGradient15566"
       gradientUnits="userSpaceOnUse"
       gradientTransform="matrix(2.6666667,0,0,2.6666667,-1133.8382,-1417.1628)"
       x1="533.94769"
       y1="471.7771"
       x2="436.88516"
       y2="567.9021" />
    <linearGradient
       inkscape:collect="always"
       xlink:href="#linearGradient5398"
       id="linearGradient15529"
       gradientUnits="userSpaceOnUse"
       gradientTransform="matrix(1.6284723,0,0,1.6284723,47.012348,2.3646147)"
       x1="43.787846"
       y1="2.7217839"
       x2="-13.959496"
       y2="60.469124" />
    <linearGradient
       inkscape:collect="always"
       xlink:href="#linearGradient5439"
       id="linearGradient15562"
       gradientUnits="userSpaceOnUse"
       gradientTransform="matrix(2.6666667,0,0,2.6666667,-1134.9597,-1416.4558)"
       x1="457.89578"
       y1="539.88666"
       x2="457.89578"
       y2="569.06531" />
    <linearGradient
       inkscape:collect="always"
       xlink:href="#linearGradient5439"
       id="linearGradient15559"
       gradientUnits="userSpaceOnUse"
       x1="459.76584"
       y1="546.18964"
       x2="459.76584"
       y2="583.90106"
       gradientTransform="matrix(2.6666667,0,0,2.6666667,-1134.3706,-1416.4558)" />
    <linearGradient
       id="linearGradient4508">
      <stop
         offset="0"
         style="stop-color:#eb2600;stop-opacity:1"
         id="stop4510" />
      <stop
         offset="1"
         style="stop-color:#5a83a9;stop-opacity:1"
         id="stop4512" />
    </linearGradient>
    <linearGradient
       inkscape:collect="always"
       xlink:href="#linearGradient4508"
       id="linearGradient15556"
       gradientUnits="userSpaceOnUse"
       gradientTransform="matrix(2.6666667,0,0,2.6666667,-1134.3706,-1414.3934)"
       x1="456.31311"
       y1="551.46545"
       x2="456.31311"
       y2="554.8988" />
    <linearGradient
       id="linearGradient12578">
      <stop
         id="stop12580"
         offset="0"
         style="stop-color:#e9b551;stop-opacity:1;" />
      <stop
         id="stop12582"
         offset="1"
         style="stop-color:#b48739;stop-opacity:1;" />
    </linearGradient>
    <linearGradient
       id="linearGradient5165-9">
      <stop
         offset="0"
         style="stop-color:#ffffff;stop-opacity:1"
         id="stop5167-6" />
      <stop
         offset="1"
         style="stop-color:#ffffff;stop-opacity:0"
         id="stop5169-7" />
    </linearGradient>
    <linearGradient
       id="linearGradient9121">
      <stop
         style="stop-color:#2f445a;stop-opacity:1"
         offset="0"
         id="stop9123" />
      <stop
         style="stop-color:#415f7c;stop-opacity:1"
         offset="1"
         id="stop9125" />
    </linearGradient>
    <linearGradient
       id="linearGradient12594">
      <stop
         id="stop12596"
         offset="0"
         style="stop-color:#e9b551;stop-opacity:1;" />
      <stop
         id="stop12598"
         offset="1"
         style="stop-color:#e9b551;stop-opacity:0;" />
    </linearGradient>
    <linearGradient
       id="linearGradient5316">
      <stop
         style="stop-color:#ff6e00;stop-opacity:1;"
         offset="0"
         id="stop5320" />
      <stop
         style="stop-color:#eb2600;stop-opacity:1;"
         offset="1"
         id="stop5322" />
    </linearGradient>
    <linearGradient
       id="linearGradient9863">
      <stop
         style="stop-color:#2f445a;stop-opacity:1;"
         offset="0"
         id="stop9865" />
      <stop
         style="stop-color:#415f7c;stop-opacity:1"
         offset="1"
         id="stop9867" />
    </linearGradient>
    <linearGradient
       id="linearGradient12336">
      <stop
         id="stop12338"
         offset="0"
         style="stop-color:#ff6e00;stop-opacity:1;" />
      <stop
         id="stop12340"
         offset="1"
         style="stop-color:#eb2600;stop-opacity:1;" />
    </linearGradient>
    <linearGradient
       id="linearGradient5362">
      <stop
         style="stop-color:#ffffff;stop-opacity:1;"
         offset="0"
         id="stop5364" />
      <stop
         style="stop-color:#ffffff;stop-opacity:0;"
         offset="1"
         id="stop5366" />
    </linearGradient>
    <linearGradient
       id="linearGradient5439">
      <stop
         style="stop-color:#ffffff;stop-opacity:1;"
         offset="0"
         id="stop5441" />
      <stop
         style="stop-color:#000000;stop-opacity:1;"
         offset="1"
         id="stop5443" />
    </linearGradient>
    <linearGradient
       inkscape:collect="always"
       xlink:href="#linearGradient5439"
       id="linearGradient13309"
       gradientUnits="userSpaceOnUse"
       x1="499.90704"
       y1="953.39532"
       x2="652.75177"
       y2="1116.9413"
       gradientTransform="matrix(2.6765239,0,0,2.6765239,-1298.6765,-2514.903)" />
    <linearGradient
       inkscape:collect="always"
       id="linearGradient5398">
      <stop
         style="stop-color:#87c6ff;stop-opacity:1;"
         offset="0"
         id="stop5400" />
      <stop
         style="stop-color:#87c6ff;stop-opacity:0"
         offset="1"
         id="stop5402" />
    </linearGradient>
    <linearGradient
       inkscape:collect="always"
       xlink:href="#linearGradient5398"
       id="linearGradient13322"
       gradientUnits="userSpaceOnUse"
       x1="500.87799"
       y1="948.11993"
       x2="500.87799"
       y2="953.17468"
       gradientTransform="matrix(2.6765239,0,0,2.6765239,-1298.6765,-2514.903)" />
    <linearGradient
       id="linearGradient5344">
      <stop
         style="stop-color:#000000;stop-opacity:1;"
         offset="0"
         id="stop5346" />
      <stop
         style="stop-color:#000000;stop-opacity:0;"
         offset="1"
         id="stop5348" />
    </linearGradient>
    <linearGradient
       inkscape:collect="always"
       xlink:href="#linearGradient5344"
       id="linearGradient13314"
       gradientUnits="userSpaceOnUse"
       x1="544.89001"
       y1="919.05762"
       x2="506.01498"
       y2="969.80762"
       gradientTransform="translate(-485.21014,-859.4386)" />
    <linearGradient
       id="linearGradient8702">
      <stop
         id="stop8704"
         offset="0"
         style="stop-color:#aac736;stop-opacity:1;" />
      <stop
         id="stop8706"
         offset="1"
         style="stop-color:#5d8b2c;stop-opacity:1;" />
    </linearGradient>
    <linearGradient
       inkscape:collect="always"
       xlink:href="#linearGradient8702"
       id="linearGradient13316"
       gradientUnits="userSpaceOnUse"
       gradientTransform="matrix(2.6765239,0,0,2.6765239,-1779.5422,-994.63744)"
       x1="700.13062"
       y1="378.86951"
       x2="707.80457"
       y2="395.74899" />
    <inkscape:perspective
       sodipodi:type="inkscape:persp3d"
       inkscape:vp_x="0 : 526.18109 : 1"
       inkscape:vp_y="0 : 1000 : 0"
       inkscape:vp_z="744.09448 : 526.18109 : 1"
       inkscape:persp3d-origin="372.04724 : 350.78739 : 1"
       id="perspective10" />
  </defs>
  <sodipodi:namedview
     id="base"
     pagecolor="#ffffff"
     bordercolor="#666666"
     borderopacity="1.0"
     inkscape:pageopacity="0.0"
     inkscape:pageshadow="2"
     inkscape:zoom="2.5020702"
     inkscape:cx="112.68942"
     inkscape:cy="53.96334"
     inkscape:document-units="px"
     inkscape:current-layer="layer1"
     showgrid="false"
     inkscape:showpageshadow="false"
     inkscape:window-width="1024"
     inkscape:window-height="714"
     inkscape:window-x="0"
     inkscape:window-y="24"
     showguides="true"
     inkscape:guide-bbox="true" />
  <metadata
     id="metadata7">
    <rdf:RDF>
      <cc:Work
         rdf:about="">
        <dc:format>image/svg+xml</dc:format>
        <dc:type
           rdf:resource="http://purl.org/dc/dcmitype/StillImage" />
      </cc:Work>
    </rdf:RDF>
  </metadata>
  <g
     inkscape:label="Capa 1"
     inkscape:groupmode="layer"
     id="layer1">
    <path
       sodipodi:nodetypes="ccccccccc"
       id="path23075"
       d="M 0.79114011,5.4829147 C 10.397273,6.4059013 14.46418,17.544168 14.457007,25.848941 L 14.332793,101.85053 C 14.415273,111.17757 19.2821,120.4504 31.877728,127.21365 L 119.63447,112.23744 C 109.24047,110.3208 101.80919,100.02237 101.89335,91.65024 L 102.10258,28.818568 C 102.19373,20.720808 96.880635,12.573181 87.015248,11.698541 L 0.79114011,5.4829147 z"
       style="fill:#f2f2f2;fill-rule:evenodd;stroke:none;stroke-width:0.5;stroke-linecap:round;stroke-linejoin:round;stroke-miterlimit:4;stroke-dasharray:none;stroke-opacity:1;display:inline"
       inkscape:export-filename="/home/dafeba/DCV/tallerD/bocetos/08-09-22-hastaahora.png"
       inkscape:export-xdpi="57.964222"
       inkscape:export-ydpi="57.964222" />
    <path
       style="fill:url(#linearGradient23093);fill-rule:evenodd;stroke:none;stroke-width:0.5;stroke-linecap:round;stroke-linejoin:round;stroke-miterlimit:4;stroke-dasharray:none;stroke-opacity:1;display:inline"
       d="M 0.79114011,5.4829147 C 10.397273,6.4059013 14.46418,17.544168 14.457007,25.848941 L 102.10258,28.818568 C 102.19373,20.720808 96.880635,12.573181 87.015248,11.698541 L 0.79114011,5.4829147 z"
       id="path23077"
       sodipodi:nodetypes="ccccc"
       inkscape:export-filename="/home/dafeba/DCV/tallerD/bocetos/08-09-22-hastaahora.png"
       inkscape:export-xdpi="57.964222"
       inkscape:export-ydpi="57.964222" />
    <path
       style="fill:url(#linearGradient23095);fill-rule:evenodd;stroke:none;stroke-width:0.5;stroke-linecap:round;stroke-linejoin:round;stroke-miterlimit:4;stroke-dasharray:none;stroke-opacity:1;display:inline"
       d="M 14.332793,101.85053 C 14.415273,111.17757 19.2821,120.4504 31.877728,127.21365 L 119.63447,112.23744 C 109.24047,110.3208 101.80919,100.02237 101.89335,91.65024 L 14.332793,101.85053 z"
       id="path23079"
       sodipodi:nodetypes="ccccc"
       inkscape:export-filename="/home/dafeba/DCV/tallerD/bocetos/08-09-22-hastaahora.png"
       inkscape:export-xdpi="57.964222"
       inkscape:export-ydpi="57.964222" />
    <path
       inkscape:export-ydpi="57.964222"
       inkscape:export-xdpi="57.964222"
       inkscape:export-filename="/home/dafeba/DCV/tallerD/bocetos/08-09-22-hastaahora.png"
       style="fill:none;fill-rule:evenodd;stroke:url(#linearGradient23097);stroke-width:2.66666675;stroke-linecap:round;stroke-linejoin:round;stroke-miterlimit:4;stroke-dasharray:none;stroke-opacity:1;display:inline"
       d="M 1.6750334,5.404648 C 4.90034,5.7145413 6.6173267,7.0876347 8.6491933,9.206808 C 12.66898,13.399288 14.46178,20.165875 14.457007,25.682275 L 14.332793,101.68387 C 14.406287,109.99336 18.27714,118.25984 28.027461,124.74704 C 30.467888,126.35699 33.713275,126.35699 37.144368,125.98552 L 119.63447,112.07077 C 109.24047,110.15413 101.80919,99.855707 101.89335,91.483573 L 102.10258,28.651901 C 102.19373,20.554141 96.880635,12.406515 87.015248,11.531875 L 9.8308733,5.9679013 L 1.6750334,5.404648 z"
       id="path23081"
       sodipodi:nodetypes="cscccccccccc" />
    <rect
       inkscape:export-ydpi="57.964222"
       inkscape:export-xdpi="57.964222"
       inkscape:export-filename="/home/dafeba/DCV/tallerD/bocetos/08-09-22-hastaahora.png"
       ry="4.7293906"
       rx="4.7293906"
       y="8.4928389"
       x="41.355469"
       height="78.166664"
       width="78.166664"
       id="rect23117"
       style="fill:url(#linearGradient23121);fill-opacity:1;stroke:none;display:inline" />
    <rect
       ry="4.7293906"
       rx="4.7293906"
       y="2.3645833"
       x="47.012371"
       height="78.166664"
       width="78.166664"
       id="rect23119"
       style="fill:url(#linearGradient23123);fill-opacity:1;stroke:#000000;stroke-width:1.33333337;stroke-miterlimit:4;stroke-dasharray:none;display:inline"
       inkscape:export-filename="/home/dafeba/DCV/tallerD/bocetos/08-09-22-hastaahora.png"
       inkscape:export-xdpi="57.964222"
       inkscape:export-ydpi="57.964222" />
    <path
       style="fill:url(#linearGradient9957);fill-opacity:1;stroke:none;stroke-width:0.47593725;stroke-miterlimit:4;display:inline"
       d="M 52.438501,4.245448 L 119.95205,4.245448 C 122.16706,4.245448 123.29807,6.531848 123.29807,8.7472347 L 123.29807,14.845848 L 48.893221,14.845848 L 48.893221,8.3088347 C 48.893221,6.053608 50.143808,4.245448 52.438501,4.245448 z"
       id="rect9955"
       sodipodi:nodetypes="ccccccc" />
    <path
       style="opacity:1;fill:url(#linearGradient10741);fill-opacity:1;stroke:none;stroke-width:1;stroke-linecap:round;stroke-linejoin:round;stroke-miterlimit:4;stroke-dasharray:none;stroke-dashoffset:0;stroke-opacity:1;display:inline"
       d="M 65.539488,17.837768 C 65.467515,17.857048 63.641701,24.743875 63.577221,24.781155 C 63.512688,24.818435 56.686448,22.917101 56.633835,22.969848 C 56.581141,23.022541 58.406875,29.924168 58.369675,29.988701 C 58.332421,30.053261 51.445621,31.803528 51.426288,31.875501 C 51.406981,31.947501 56.482928,37.008568 56.482901,37.083048 C 56.482901,37.157581 51.407061,42.143181 51.426288,42.215128 C 51.445568,42.287128 58.332341,44.112781 58.369675,44.177395 C 58.406955,44.241955 56.581061,51.068061 56.633835,51.120781 C 56.686528,51.173501 63.512635,49.347635 63.577221,49.384941 C 63.641781,49.422221 65.467515,56.233573 65.539488,56.252853 C 65.611488,56.27216 70.597035,51.271741 70.671568,51.271741 C 70.746101,51.271741 75.731675,56.272133 75.803648,56.252853 C 75.875648,56.233573 77.701435,49.422168 77.765915,49.384941 C 77.830475,49.347688 84.656555,51.173475 84.709301,51.120781 C 84.762021,51.068088 82.936261,44.241875 82.973461,44.177395 C 83.010741,44.112835 89.822048,42.287181 89.841381,42.215128 C 89.860688,42.143128 84.860235,37.157635 84.860261,37.083048 C 84.860261,37.008515 89.860608,31.947528 89.841381,31.875501 C 89.822101,31.803501 83.010795,30.053235 82.973461,29.988701 C 82.936208,29.924168 84.761941,23.022515 84.709301,22.969848 C 84.656608,22.917155 77.830528,24.818408 77.765915,24.781155 C 77.701355,24.743901 75.875648,17.857021 75.803648,17.837768 C 75.731648,17.818461 70.746101,22.894301 70.671568,22.894381 C 70.597035,22.894381 65.611461,17.818408 65.539488,17.837768 z M 70.671568,26.366061 C 76.569061,26.366061 81.388555,31.185555 81.388555,37.083048 C 81.388608,42.980595 76.569061,47.724568 70.671568,47.724568 C 64.774075,47.724488 59.954581,42.980541 59.954581,37.083048 C 59.954528,31.185608 64.774075,26.366061 70.671568,26.366061 z"
       id="path10733" />
    <path
       id="path10738"
       d="M 91.700315,37.495608 C 91.636235,37.533688 91.744208,44.657608 91.692235,44.710968 C 91.640208,44.764328 84.554155,44.783155 84.517781,44.848195 C 84.481355,44.913181 88.108341,51.062248 88.090021,51.134461 C 88.071621,51.206701 81.916448,54.757013 81.917301,54.83152 C 81.918235,54.906053 88.175355,58.402933 88.195488,58.47464 C 88.215675,58.5464 84.680128,64.720533 84.718128,64.784587 C 84.756208,64.848667 91.880021,64.740587 91.933461,64.792667 C 91.986821,64.844693 92.078261,71.910213 92.143355,71.946667 C 92.208341,71.98312 98.284661,68.376453 98.356928,68.39488 C 98.429168,68.41328 102.0317,74.475413 102.10623,74.47448 C 102.18077,74.473573 105.62541,68.3096 105.69714,68.289413 C 105.7689,68.2692 111.92258,71.73216 111.98666,71.694133 C 112.05071,71.656053 111.96317,64.604747 112.01514,64.55144 C 112.06719,64.49808 119.13266,64.40656 119.16917,64.341573 C 119.20562,64.27656 115.59906,58.200107 115.61738,58.127947 C 115.63575,58.055733 121.69789,54.453253 121.69701,54.378667 C 121.69607,54.304133 115.53207,50.859581 115.51191,50.787768 C 115.49173,50.716008 118.93421,44.489741 118.89618,44.425608 C 118.8581,44.361528 111.82735,44.521768 111.77391,44.469768 C 111.72058,44.417715 111.60855,37.279528 111.54362,37.243101 C 111.47861,37.206648 105.42274,40.885875 105.35045,40.867528 C 105.27821,40.849155 101.65522,34.714301 101.58071,34.715261 C 101.50621,34.716168 98.081968,40.952728 98.010261,40.972995 C 97.938528,40.993181 91.764368,37.457501 91.700315,37.495608 z M 98.950661,44.314915 C 104.62767,42.717395 110.5725,46.051181 112.16999,51.728195 C 113.76759,57.405227 110.41327,63.277333 104.73629,64.874853 C 99.059275,66.472293 93.134928,63.211227 91.537381,57.53424 C 89.939835,51.857288 93.273675,45.912408 98.950661,44.314915 z"
       style="opacity:1;fill:url(#linearGradient10743);fill-opacity:1;stroke:none;stroke-width:1;stroke-linecap:round;stroke-linejoin:round;stroke-miterlimit:4;stroke-dasharray:none;stroke-dashoffset:0;stroke-opacity:1;display:inline" />
  </g>
</svg>
