<?xml version="1.0" encoding="UTF-8" standalone="no"?>
<!-- Created with Inkscape (http://www.inkscape.org/) -->

<svg
   xmlns:dc="http://purl.org/dc/elements/1.1/"
   xmlns:cc="http://creativecommons.org/ns#"
   xmlns:rdf="http://www.w3.org/1999/02/22-rdf-syntax-ns#"
   xmlns:svg="http://www.w3.org/2000/svg"
   xmlns="http://www.w3.org/2000/svg"
   xmlns:xlink="http://www.w3.org/1999/xlink"
   xmlns:sodipodi="http://sodipodi.sourceforge.net/DTD/sodipodi-0.dtd"
   xmlns:inkscape="http://www.inkscape.org/namespaces/inkscape"
   version="1.2"
   width="128"
   height="128"
   id="svg2408"
   style="display:inline"
   inkscape:version="0.48.3.1 r9886"
   sodipodi:docname="multipart-encrypted.svg">
  <sodipodi:namedview
     pagecolor="#ffffff"
     bordercolor="#666666"
     borderopacity="1"
     objecttolerance="10"
     gridtolerance="10"
     guidetolerance="10"
     inkscape:pageopacity="0"
     inkscape:pageshadow="2"
     inkscape:window-width="1366"
     inkscape:window-height="717"
     id="namedview86"
     showgrid="false"
     inkscape:zoom="1"
     inkscape:cx="122.48482"
     inkscape:cy="53.400814"
     inkscape:window-x="0"
     inkscape:window-y="0"
     inkscape:window-maximized="1"
     inkscape:current-layer="svg2408" />
  <defs
     id="defs2410">
    <linearGradient
       id="linearGradient3789">
      <stop
         id="stop3791"
         style="stop-color:#949494;stop-opacity:1"
         offset="0" />
      <stop
         id="stop3793"
         style="stop-color:#b3b3b3;stop-opacity:1"
         offset="1" />
    </linearGradient>
    <linearGradient
       x1="45.447727"
       y1="92.539597"
       x2="45.447727"
       y2="7.0165396"
       id="ButtonShadow"
       gradientUnits="userSpaceOnUse"
       gradientTransform="scale(1.0058652,0.994169)">
      <stop
         id="stop3750"
         style="stop-color:#000000;stop-opacity:1"
         offset="0" />
      <stop
         id="stop3752"
         style="stop-color:#000000;stop-opacity:0.58823532"
         offset="1" />
    </linearGradient>
    <linearGradient
       id="linearGradient3700">
      <stop
         id="stop3702"
         style="stop-color:#e6e6e6;stop-opacity:1"
         offset="0" />
      <stop
         id="stop3704"
         style="stop-color:#f5f5f5;stop-opacity:1"
         offset="1" />
    </linearGradient>
    <linearGradient
       x1="48"
       y1="90"
       x2="48"
       y2="5.9877172"
       id="linearGradient3706"
       xlink:href="#linearGradient3700"
       gradientUnits="userSpaceOnUse" />
    <filter
       color-interpolation-filters="sRGB"
       id="filter3174">
      <feGaussianBlur
         id="feGaussianBlur3176"
         stdDeviation="1.71" />
    </filter>
    <linearGradient
       x1="45.447727"
       y1="92.539597"
       x2="45.447727"
       y2="7.0165396"
       id="ButtonShadow-0"
       gradientUnits="userSpaceOnUse"
       gradientTransform="matrix(1.0058652,0,0,0.994169,100,0)">
      <stop
         id="stop3750-8"
         style="stop-color:#000000;stop-opacity:1"
         offset="0" />
      <stop
         id="stop3752-5"
         style="stop-color:#000000;stop-opacity:0.58823532"
         offset="1" />
    </linearGradient>
    <linearGradient
       x1="32.251034"
       y1="6.1317081"
       x2="32.251034"
       y2="90.238609"
       id="linearGradient3780"
       xlink:href="#ButtonShadow-0"
       gradientUnits="userSpaceOnUse"
       gradientTransform="matrix(1.0238095,0,0,1.0119048,-1.1428571,-98.071429)" />
    <linearGradient
       x1="32.251034"
       y1="6.1317081"
       x2="32.251034"
       y2="90.238609"
       id="linearGradient3772"
       xlink:href="#ButtonShadow-0"
       gradientUnits="userSpaceOnUse"
       gradientTransform="matrix(1.0238095,0,0,1.0119048,-1.1428571,-98.071429)" />
    <linearGradient
       x1="32.251034"
       y1="6.1317081"
       x2="32.251034"
       y2="90.238609"
       id="linearGradient3725"
       xlink:href="#ButtonShadow-0"
       gradientUnits="userSpaceOnUse"
       gradientTransform="matrix(1.0238095,0,0,1.0119048,-1.1428571,-98.071429)" />
    <linearGradient
       x1="32.251034"
       y1="6.1317081"
       x2="32.251034"
       y2="90.238609"
       id="linearGradient3721"
       xlink:href="#ButtonShadow-0"
       gradientUnits="userSpaceOnUse"
       gradientTransform="translate(0,-97)" />
    <linearGradient
       x1="32.251034"
       y1="6.1317081"
       x2="32.251034"
       y2="90.238609"
       id="linearGradient3760"
       xlink:href="#ButtonShadow-0"
       gradientUnits="userSpaceOnUse"
       gradientTransform="matrix(1.0238095,0,0,1.0119048,-1.1428571,-98.071429)" />
    <radialGradient
       cx="48"
       cy="90.171875"
       r="42"
       fx="48"
       fy="90.171875"
       id="radialGradient2886"
       xlink:href="#linearGradient3737-0"
       gradientUnits="userSpaceOnUse"
       gradientTransform="matrix(1.1573129,0,0,0.99590774,-7.551021,0.1971319)" />
    <linearGradient
       id="linearGradient3737-0">
      <stop
         id="stop3739-6"
         style="stop-color:#ffffff;stop-opacity:1"
         offset="0" />
      <stop
         id="stop3741-0"
         style="stop-color:#ffffff;stop-opacity:0"
         offset="1" />
    </linearGradient>
    <linearGradient
       id="linearGradient3737-1">
      <stop
         id="stop3739-9-8"
         style="stop-color:#ffffff;stop-opacity:1"
         offset="0" />
      <stop
         id="stop3741-3"
         style="stop-color:#ffffff;stop-opacity:0"
         offset="1" />
    </linearGradient>
    <linearGradient
       x1="36.357143"
       y1="6"
       x2="36.357143"
       y2="63.893143"
       id="linearGradient3680"
       xlink:href="#linearGradient3737-1"
       gradientUnits="userSpaceOnUse" />
    <filter
       x="-0.14713043"
       y="-0.141"
       width="1.2942609"
       height="1.2819999"
       color-interpolation-filters="sRGB"
       id="filter3785">
      <feGaussianBlur
         id="feGaussianBlur3787"
         stdDeviation="2.82" />
    </filter>
    <linearGradient
       x1="42"
       y1="72"
       x2="42"
       y2="24"
       id="linearGradient3795"
       xlink:href="#linearGradient3789"
       gradientUnits="userSpaceOnUse" />
    <linearGradient
       id="linearGradient3737-9">
      <stop
         id="stop3739-2"
         style="stop-color:#ffffff;stop-opacity:1"
         offset="0" />
      <stop
         id="stop3741-1"
         style="stop-color:#ffffff;stop-opacity:0"
         offset="1" />
    </linearGradient>
    <filter
       x="-0.192"
       y="-0.192"
       width="1.3839999"
       height="1.3839999"
       color-interpolation-filters="sRGB"
       id="filter3794">
      <feGaussianBlur
         id="feGaussianBlur3796"
         stdDeviation="5.28" />
    </filter>
    <linearGradient
       x1="48"
       y1="20.220806"
       x2="48"
       y2="138.66119"
       id="linearGradient4209"
       xlink:href="#linearGradient3737-9"
       gradientUnits="userSpaceOnUse" />
    <linearGradient
       inkscape:collect="always"
       xlink:href="#linearGradient3789"
       id="linearGradient3146"
       gradientUnits="userSpaceOnUse"
       x1="42"
       y1="72"
       x2="42"
       y2="24" />
    <linearGradient
       id="linearGradient5439">
      <stop
         style="stop-color:#ffffff;stop-opacity:1;"
         offset="0"
         id="stop5441" />
      <stop
         style="stop-color:#000000;stop-opacity:1;"
         offset="1"
         id="stop5443" />
    </linearGradient>
    <linearGradient
       id="linearGradient5316">
      <stop
         style="stop-color:#ff6e00;stop-opacity:1;"
         offset="0"
         id="stop5320" />
      <stop
         style="stop-color:#eb2600;stop-opacity:1;"
         offset="1"
         id="stop5322" />
    </linearGradient>
    <linearGradient
       id="linearGradient5344">
      <stop
         style="stop-color:#000000;stop-opacity:1;"
         offset="0"
         id="stop5346" />
      <stop
         style="stop-color:#000000;stop-opacity:0;"
         offset="1"
         id="stop5348" />
    </linearGradient>
    <linearGradient
       id="linearGradient9863">
      <stop
         style="stop-color:#2f445a;stop-opacity:1;"
         offset="0"
         id="stop9865" />
      <stop
         style="stop-color:#415f7c;stop-opacity:1"
         offset="1"
         id="stop9867" />
    </linearGradient>
    <linearGradient
       id="linearGradient3182-5">
      <stop
         style="stop-color:#000000;stop-opacity:1;"
         offset="0"
         id="stop3184" />
      <stop
         style="stop-color:#000000;stop-opacity:0;"
         offset="1"
         id="stop3186" />
    </linearGradient>
    <linearGradient
       id="linearGradient5362">
      <stop
         style="stop-color:#ffffff;stop-opacity:1;"
         offset="0"
         id="stop5364" />
      <stop
         style="stop-color:#ffffff;stop-opacity:0;"
         offset="1"
         id="stop5366" />
    </linearGradient>
    <linearGradient
       id="linearGradient5439-5">
      <stop
         style="stop-color:#ffffff;stop-opacity:1;"
         offset="0"
         id="stop5441-7" />
      <stop
         style="stop-color:#000000;stop-opacity:1;"
         offset="1"
         id="stop5443-7" />
    </linearGradient>
    <linearGradient
       id="linearGradient5316-9">
      <stop
         style="stop-color:#ff6e00;stop-opacity:1;"
         offset="0"
         id="stop5320-4" />
      <stop
         style="stop-color:#eb2600;stop-opacity:1;"
         offset="1"
         id="stop5322-9" />
    </linearGradient>
    <linearGradient
       inkscape:collect="always"
       xlink:href="#linearGradient5344-4"
       id="linearGradient27530-1"
       gradientUnits="userSpaceOnUse"
       gradientTransform="matrix(2.6666667,0,0,2.6666667,-1133.8382,-1417.1628)"
       x1="492.44766"
       y1="503.7771"
       x2="434.51016"
       y2="572.7771" />
    <linearGradient
       id="linearGradient5344-4">
      <stop
         style="stop-color:#000000;stop-opacity:1;"
         offset="0"
         id="stop5346-1" />
      <stop
         style="stop-color:#000000;stop-opacity:0;"
         offset="1"
         id="stop5348-7" />
    </linearGradient>
    <linearGradient
       inkscape:collect="always"
       xlink:href="#linearGradient9863-7"
       id="linearGradient27528-1"
       gradientUnits="userSpaceOnUse"
       gradientTransform="matrix(2.6666667,0,0,2.6666667,-2413.8382,-1096.6224)"
       x1="927.93488"
       y1="459.10907"
       x2="927.93488"
       y2="410.98141" />
    <linearGradient
       id="linearGradient9863-7">
      <stop
         style="stop-color:#2f445a;stop-opacity:1;"
         offset="0"
         id="stop9865-2" />
      <stop
         style="stop-color:#415f7c;stop-opacity:1"
         offset="1"
         id="stop9867-8" />
    </linearGradient>
    <linearGradient
       inkscape:collect="always"
       xlink:href="#linearGradient5344-4"
       id="linearGradient27526-4"
       gradientUnits="userSpaceOnUse"
       gradientTransform="matrix(2.6666667,0,0,2.6666667,-1293.8382,-1683.1224)"
       x1="516.71942"
       y1="703.83966"
       x2="511.42725"
       y2="667.20789" />
    <linearGradient
       id="linearGradient3233">
      <stop
         style="stop-color:#000000;stop-opacity:1;"
         offset="0"
         id="stop3235" />
      <stop
         style="stop-color:#000000;stop-opacity:0;"
         offset="1"
         id="stop3237" />
    </linearGradient>
    <linearGradient
       inkscape:collect="always"
       xlink:href="#linearGradient5362-6"
       id="linearGradient27524-5"
       gradientUnits="userSpaceOnUse"
       gradientTransform="matrix(2.6666667,0,0,2.6666667,-1293.8382,-1683.1224)"
       x1="504.76706"
       y1="631.17499"
       x2="504.48212"
       y2="641.10242" />
    <linearGradient
       id="linearGradient5362-6">
      <stop
         style="stop-color:#ffffff;stop-opacity:1;"
         offset="0"
         id="stop5364-9" />
      <stop
         style="stop-color:#ffffff;stop-opacity:0;"
         offset="1"
         id="stop5366-9" />
    </linearGradient>
    <linearGradient
       inkscape:collect="always"
       xlink:href="#linearGradient5316-9"
       id="linearGradient3340"
       x1="10.147079"
       y1="8.5855703"
       x2="121.26161"
       y2="112.72116"
       gradientUnits="userSpaceOnUse" />
  </defs>
  <metadata
     id="metadata2413">
    <rdf:RDF>
      <cc:Work
         rdf:about="">
        <dc:format>image/svg+xml</dc:format>
        <dc:type
           rdf:resource="http://purl.org/dc/dcmitype/StillImage" />
      </cc:Work>
    </rdf:RDF>
  </metadata>
  <g
     id="layer2"
     style="display:none"
     transform="translate(0,32)">
    <rect
       width="86"
       height="85"
       rx="6"
       ry="6"
       x="5"
       y="7"
       id="rect3745"
       style="opacity:0.9;fill:url(#ButtonShadow);fill-opacity:1;fill-rule:nonzero;stroke:none;filter:url(#filter3174)" />
  </g>
  <path
     inkscape:connector-curvature="0"
     style="fill:url(#linearGradient3340);fill-rule:evenodd;stroke:none;display:inline"
     d="M 0.79114676,5.482915 C 10.397293,6.405902 14.464193,17.54416 14.457023,25.848933 l -0.12421,76.001597 c 0.08248,9.32704 4.9493,18.59987 17.54493,25.36312 l 87.756747,-14.97621 c -10.394,-1.91664 -17.82528,-12.21507 -17.74112,-20.587197 L 102.10259,28.81856 C 102.19369,20.7208 96.88065,12.573181 87.01526,11.698541 L 0.79114676,5.482915 z"
     id="path27269"
     sodipodi:nodetypes="ccccccccc"
     inkscape:export-filename="/home/dafeba/DCV/tallerD/bocetos/08-09-22-hastaahora.png"
     inkscape:export-xdpi="57.964222"
     inkscape:export-ydpi="57.964222" />
  <path
     inkscape:connector-curvature="0"
     sodipodi:nodetypes="ccccc"
     id="path27271"
     d="M 0.79114676,5.482915 C 10.397293,6.405902 14.464193,17.54416 14.457023,25.848933 L 102.10259,28.81856 C 102.19369,20.7208 96.88065,12.573181 87.01526,11.698541 L 0.79114676,5.482915 z"
     style="fill:url(#linearGradient27524-5);fill-rule:evenodd;stroke:none;display:inline"
     inkscape:export-filename="/home/dafeba/DCV/tallerD/bocetos/08-09-22-hastaahora.png"
     inkscape:export-xdpi="57.964222"
     inkscape:export-ydpi="57.964222" />
  <path
     inkscape:connector-curvature="0"
     sodipodi:nodetypes="ccccc"
     id="path27273"
     d="m 14.332813,101.85053 c 0.08248,9.32704 4.9493,18.59987 17.54493,25.36312 l 87.756747,-14.97621 c -10.394,-1.91664 -17.82528,-12.21507 -17.74112,-20.587197 L 14.332813,101.85053 z"
     style="fill:url(#linearGradient27526-4);fill-rule:evenodd;stroke:none;display:inline"
     inkscape:export-filename="/home/dafeba/DCV/tallerD/bocetos/08-09-22-hastaahora.png"
     inkscape:export-xdpi="57.964222"
     inkscape:export-ydpi="57.964222" />
  <path
     inkscape:connector-curvature="0"
     inkscape:export-ydpi="57.964222"
     inkscape:export-xdpi="57.964222"
     inkscape:export-filename="/home/dafeba/DCV/tallerD/bocetos/08-09-22-hastaahora.png"
     style="fill:none;stroke:url(#linearGradient27528-1);stroke-width:2.66666675;stroke-linecap:round;stroke-linejoin:round;stroke-miterlimit:4;stroke-opacity:1;stroke-dasharray:none;display:inline"
     d="m 1.6750398,5.404649 c 3.225303,0.309893 4.942293,1.682986 6.974173,3.80216 4.0197802,4.192479 5.8125802,10.959057 5.8078102,16.475457 l -0.12421,76.001604 c 0.07349,8.30949 3.94434,16.57597 13.69466,23.06317 2.44043,1.60995 5.68582,1.60995 9.11691,1.23848 l 82.490107,-13.91475 c -10.394,-1.91664 -17.82528,-12.215057 -17.74112,-20.587197 l 0.20922,-62.83168 c 0.0911,-8.09776 -5.22194,-16.245379 -15.08733,-17.120019 L 9.8308928,5.967902 1.6750398,5.404649 z"
     id="path27283"
     sodipodi:nodetypes="cscccccccccc" />
  <rect
     style="fill:url(#linearGradient27530-1);fill-opacity:1;stroke:none;display:inline"
     id="rect27287"
     width="78.166664"
     height="78.166664"
     x="41.35556"
     y="8.4928379"
     rx="4.7293906"
     ry="4.7293906"
     inkscape:export-filename="/home/dafeba/DCV/tallerD/bocetos/08-09-22-hastaahora.png"
     inkscape:export-xdpi="57.964222"
     inkscape:export-ydpi="57.964222" />
  <rect
     ry="4.7293906"
     rx="4.7293906"
     y="2.364584"
     x="47.01239"
     height="78.166664"
     width="78.166664"
     id="rect27289"
     style="fill:#ffffff;fill-opacity:1;stroke:#000000;stroke-width:1.33333337;stroke-miterlimit:4;stroke-dasharray:none;display:inline"
     inkscape:export-filename="/home/dafeba/DCV/tallerD/bocetos/08-09-22-hastaahora.png"
     inkscape:export-xdpi="57.964222"
     inkscape:export-ydpi="57.964222" />
  <g
     transform="matrix(1.3195388,0,0,1.6707294,31.06832,-55.495739)"
     style="font-size:16px;font-style:normal;font-variant:normal;font-weight:normal;font-stretch:normal;text-align:start;line-height:100%;writing-mode:lr-tb;text-anchor:start;fill:#000000;fill-opacity:1;stroke:none;font-family:Unispace;-inkscape-font-specification:Unispace"
     id="flowRoot2424">
    <path
       d="m 19.446,38.624749 -2.816,7.728 c 0.138664,0.064 0.287997,0.096 0.448,0.096 l 1.248,0 c 0.437328,10e-7 0.767995,-0.229332 0.992,-0.688 0.181328,-0.351998 0.271994,-0.746664 0.272,-1.184 l 0,-5.04 c -6e-6,-0.309325 -0.04801,-0.613325 -0.144,-0.912 m -3.488,6.864 2.864,-7.744 c -0.149338,-0.07466 -0.314671,-0.11199 -0.496,-0.112 l -1.248,0 c -0.437336,1e-5 -0.773336,0.229343 -1.008,0.688 -0.181335,0.362675 -0.272002,0.768008 -0.272,1.216 l 0,5.04 c -2e-6,0.320002 0.05333,0.624002 0.16,0.912 m 5.296,-0.912 c -8e-6,0.672002 -0.144007,1.264001 -0.432,1.776 -0.362673,0.650667 -0.880006,0.976 -1.552,0.976 l -3.152,0 c -0.661335,0 -1.173335,-0.325333 -1.536,-0.976 -0.288001,-0.511999 -0.432,-1.103998 -0.432,-1.776 l 0,-5.04 c 0,-0.671992 0.143999,-1.274658 0.432,-1.808 0.362665,-0.661323 0.874665,-0.991989 1.536,-0.992 l 3.152,0 c 0.671994,1.1e-5 1.189327,0.330677 1.552,0.992 0.287993,0.533342 0.431992,1.136008 0.432,1.808 l 0,5.04"
       style="fill:#000000"
       id="path3343"
       inkscape:connector-curvature="0" />
    <path
       d="m 29.142,47.312749 -6.88,0 0,-0.88 2.656,0 0,-8.816 -1.712,0 0,-0.896 3.456,0 0,9.712 2.48,0 0,0.88"
       style="fill:#000000"
       id="path3345"
       inkscape:connector-curvature="0" />
    <path
       d="m 35.446,38.624749 -2.816,7.728 c 0.138664,0.064 0.287997,0.096 0.448,0.096 l 1.248,0 c 0.437328,10e-7 0.767995,-0.229332 0.992,-0.688 0.181328,-0.351998 0.271994,-0.746664 0.272,-1.184 l 0,-5.04 c -6e-6,-0.309325 -0.04801,-0.613325 -0.144,-0.912 m -3.488,6.864 2.864,-7.744 c -0.149338,-0.07466 -0.314671,-0.11199 -0.496,-0.112 l -1.248,0 c -0.437336,1e-5 -0.773336,0.229343 -1.008,0.688 -0.181335,0.362675 -0.272002,0.768008 -0.272,1.216 l 0,5.04 c -2e-6,0.320002 0.05333,0.624002 0.16,0.912 m 5.296,-0.912 c -8e-6,0.672002 -0.144007,1.264001 -0.432,1.776 -0.362673,0.650667 -0.880006,0.976 -1.552,0.976 l -3.152,0 c -0.661335,0 -1.173335,-0.325333 -1.536,-0.976 -0.288001,-0.511999 -0.432,-1.103998 -0.432,-1.776 l 0,-5.04 c 0,-0.671992 0.143999,-1.274658 0.432,-1.808 0.362665,-0.661323 0.874665,-0.991989 1.536,-0.992 l 3.152,0 c 0.671994,1.1e-5 1.189327,0.330677 1.552,0.992 0.287993,0.533342 0.431992,1.136008 0.432,1.808 l 0,5.04"
       style="fill:#000000"
       id="path3347"
       inkscape:connector-curvature="0" />
    <path
       d="m 45.142,47.312749 -6.88,0 0,-0.88 2.656,0 0,-8.816 -1.712,0 0,-0.896 3.456,0 0,9.712 2.48,0 0,0.88"
       style="fill:#000000"
       id="path3349"
       inkscape:connector-curvature="0" />
    <path
       d="m 53.142,47.312749 -6.88,0 0,-0.88 2.656,0 0,-8.816 -1.712,0 0,-0.896 3.456,0 0,9.712 2.48,0 0,0.88"
       style="fill:#000000"
       id="path3351"
       inkscape:connector-curvature="0" />
    <path
       d="m 61.142,47.312749 -6.88,0 0,-0.88 2.656,0 0,-8.816 -1.712,0 0,-0.896 3.456,0 0,9.712 2.48,0 0,0.88"
       style="fill:#000000"
       id="path3353"
       inkscape:connector-curvature="0" />
    <path
       d="m 67.446,38.624749 -2.816,7.728 c 0.138664,0.064 0.287997,0.096 0.448,0.096 l 1.248,0 c 0.437328,10e-7 0.767995,-0.229332 0.992,-0.688 0.181328,-0.351998 0.271994,-0.746664 0.272,-1.184 l 0,-5.04 c -6e-6,-0.309325 -0.04801,-0.613325 -0.144,-0.912 m -3.488,6.864 2.864,-7.744 c -0.149338,-0.07466 -0.314671,-0.11199 -0.496,-0.112 l -1.248,0 c -0.437336,1e-5 -0.773336,0.229343 -1.008,0.688 -0.181335,0.362675 -0.272002,0.768008 -0.272,1.216 l 0,5.04 c -2e-6,0.320002 0.05333,0.624002 0.16,0.912 m 5.296,-0.912 c -8e-6,0.672002 -0.144007,1.264001 -0.432,1.776 -0.362673,0.650667 -0.880006,0.976 -1.552,0.976 l -3.152,0 c -0.661335,0 -1.173335,-0.325333 -1.536,-0.976 -0.288001,-0.511999 -0.432,-1.103998 -0.432,-1.776 l 0,-5.04 c 0,-0.671992 0.143999,-1.274658 0.432,-1.808 0.362665,-0.661323 0.874665,-0.991989 1.536,-0.992 l 3.152,0 c 0.671994,1.1e-5 1.189327,0.330677 1.552,0.992 0.287993,0.533342 0.431992,1.136008 0.432,1.808 l 0,5.04"
       style="fill:#000000"
       id="path3355"
       inkscape:connector-curvature="0" />
    <path
       d="m 21.142,63.312749 -6.88,0 0,-0.88 2.656,0 0,-8.816 -1.712,0 0,-0.896 3.456,0 0,9.712 2.48,0 0,0.88"
       style="fill:#000000"
       id="path3357"
       inkscape:connector-curvature="0" />
    <path
       d="m 29.142,63.312749 -6.88,0 0,-0.88 2.656,0 0,-8.816 -1.712,0 0,-0.896 3.456,0 0,9.712 2.48,0 0,0.88"
       style="fill:#000000"
       id="path3359"
       inkscape:connector-curvature="0" />
    <path
       d="m 35.446,54.624749 -2.816,7.728 c 0.138664,0.064 0.287997,0.096 0.448,0.096 l 1.248,0 c 0.437328,10e-7 0.767995,-0.229332 0.992,-0.688 0.181328,-0.351998 0.271994,-0.746664 0.272,-1.184 l 0,-5.04 c -6e-6,-0.309325 -0.04801,-0.613325 -0.144,-0.912 m -3.488,6.864 2.864,-7.744 c -0.149338,-0.07466 -0.314671,-0.11199 -0.496,-0.112 l -1.248,0 c -0.437336,1e-5 -0.773336,0.229343 -1.008,0.688 -0.181335,0.362675 -0.272002,0.768008 -0.272,1.216 l 0,5.04 c -2e-6,0.320002 0.05333,0.624002 0.16,0.912 m 5.296,-0.912 c -8e-6,0.672002 -0.144007,1.264001 -0.432,1.776 -0.362673,0.650667 -0.880006,0.976 -1.552,0.976 l -3.152,0 c -0.661335,0 -1.173335,-0.325333 -1.536,-0.976 -0.288001,-0.511999 -0.432,-1.103998 -0.432,-1.776 l 0,-5.04 c 0,-0.671992 0.143999,-1.274658 0.432,-1.808 0.362665,-0.661323 0.874665,-0.991989 1.536,-0.992 l 3.152,0 c 0.671994,1.1e-5 1.189327,0.330677 1.552,0.992 0.287993,0.533342 0.431992,1.136008 0.432,1.808 l 0,5.04"
       style="fill:#000000"
       id="path3361"
       inkscape:connector-curvature="0" />
    <path
       d="m 45.142,63.312749 -6.88,0 0,-0.88 2.656,0 0,-8.816 -1.712,0 0,-0.896 3.456,0 0,9.712 2.48,0 0,0.88"
       style="fill:#000000"
       id="path3363"
       inkscape:connector-curvature="0" />
    <path
       d="m 51.446,54.624749 -2.816,7.728 c 0.138664,0.064 0.287997,0.096 0.448,0.096 l 1.248,0 c 0.437328,10e-7 0.767995,-0.229332 0.992,-0.688 0.181328,-0.351998 0.271994,-0.746664 0.272,-1.184 l 0,-5.04 c -6e-6,-0.309325 -0.04801,-0.613325 -0.144,-0.912 m -3.488,6.864 2.864,-7.744 c -0.149338,-0.07466 -0.314671,-0.11199 -0.496,-0.112 l -1.248,0 c -0.437336,1e-5 -0.773336,0.229343 -1.008,0.688 -0.181335,0.362675 -0.272002,0.768008 -0.272,1.216 l 0,5.04 c -2e-6,0.320002 0.05333,0.624002 0.16,0.912 m 5.296,-0.912 c -8e-6,0.672002 -0.144007,1.264001 -0.432,1.776 -0.362673,0.650667 -0.880006,0.976 -1.552,0.976 l -3.152,0 c -0.661335,0 -1.173335,-0.325333 -1.536,-0.976 -0.288001,-0.511999 -0.432,-1.103998 -0.432,-1.776 l 0,-5.04 c 0,-0.671992 0.143999,-1.274658 0.432,-1.808 0.362665,-0.661323 0.874665,-0.991989 1.536,-0.992 l 3.152,0 c 0.671994,1.1e-5 1.189327,0.330677 1.552,0.992 0.287993,0.533342 0.431992,1.136008 0.432,1.808 l 0,5.04"
       style="fill:#000000"
       id="path3365"
       inkscape:connector-curvature="0" />
    <path
       d="m 59.446,54.624749 -2.816,7.728 c 0.138664,0.064 0.287997,0.096 0.448,0.096 l 1.248,0 c 0.437328,10e-7 0.767995,-0.229332 0.992,-0.688 0.181328,-0.351998 0.271994,-0.746664 0.272,-1.184 l 0,-5.04 c -6e-6,-0.309325 -0.04801,-0.613325 -0.144,-0.912 m -3.488,6.864 2.864,-7.744 c -0.149338,-0.07466 -0.314671,-0.11199 -0.496,-0.112 l -1.248,0 c -0.437336,1e-5 -0.773336,0.229343 -1.008,0.688 -0.181335,0.362675 -0.272002,0.768008 -0.272,1.216 l 0,5.04 c -2e-6,0.320002 0.05333,0.624002 0.16,0.912 m 5.296,-0.912 c -8e-6,0.672002 -0.144007,1.264001 -0.432,1.776 -0.362673,0.650667 -0.880006,0.976 -1.552,0.976 l -3.152,0 c -0.661335,0 -1.173335,-0.325333 -1.536,-0.976 -0.288001,-0.511999 -0.432,-1.103998 -0.432,-1.776 l 0,-5.04 c 0,-0.671992 0.143999,-1.274658 0.432,-1.808 0.362665,-0.661323 0.874665,-0.991989 1.536,-0.992 l 3.152,0 c 0.671994,1.1e-5 1.189327,0.330677 1.552,0.992 0.287993,0.533342 0.431992,1.136008 0.432,1.808 l 0,5.04"
       style="fill:#000000"
       id="path3367"
       inkscape:connector-curvature="0" />
    <path
       d="m 69.142,63.312749 -6.88,0 0,-0.88 2.656,0 0,-8.816 -1.712,0 0,-0.896 3.456,0 0,9.712 2.48,0 0,0.88"
       style="fill:#000000"
       id="path3369"
       inkscape:connector-curvature="0" />
    <path
       d="m 19.446,70.624749 -2.816,7.728 c 0.138664,0.064 0.287997,0.096 0.448,0.096 l 1.248,0 c 0.437328,10e-7 0.767995,-0.229332 0.992,-0.688 0.181328,-0.351998 0.271994,-0.746664 0.272,-1.184 l 0,-5.04 c -6e-6,-0.309325 -0.04801,-0.613325 -0.144,-0.912 m -3.488,6.864 2.864,-7.744 c -0.149338,-0.07466 -0.314671,-0.11199 -0.496,-0.112 l -1.248,0 c -0.437336,10e-6 -0.773336,0.229343 -1.008,0.688 -0.181335,0.362675 -0.272002,0.768008 -0.272,1.216 l 0,5.04 c -2e-6,0.320002 0.05333,0.624002 0.16,0.912 m 5.296,-0.912 c -8e-6,0.672002 -0.144007,1.264001 -0.432,1.776 -0.362673,0.650667 -0.880006,0.976 -1.552,0.976 l -3.152,0 c -0.661335,0 -1.173335,-0.325333 -1.536,-0.976 -0.288001,-0.511999 -0.432,-1.103998 -0.432,-1.776 l 0,-5.04 c 0,-0.671992 0.143999,-1.274658 0.432,-1.808 0.362665,-0.661323 0.874665,-0.991989 1.536,-0.992 l 3.152,0 c 0.671994,1.1e-5 1.189327,0.330677 1.552,0.992 0.287993,0.533342 0.431992,1.136008 0.432,1.808 l 0,5.04"
       style="fill:#000000"
       id="path3371"
       inkscape:connector-curvature="0" />
    <path
       d="m 27.446,70.624749 -2.816,7.728 c 0.138664,0.064 0.287997,0.096 0.448,0.096 l 1.248,0 c 0.437328,10e-7 0.767995,-0.229332 0.992,-0.688 0.181328,-0.351998 0.271994,-0.746664 0.272,-1.184 l 0,-5.04 c -6e-6,-0.309325 -0.04801,-0.613325 -0.144,-0.912 m -3.488,6.864 2.864,-7.744 c -0.149338,-0.07466 -0.314671,-0.11199 -0.496,-0.112 l -1.248,0 c -0.437336,10e-6 -0.773336,0.229343 -1.008,0.688 -0.181335,0.362675 -0.272002,0.768008 -0.272,1.216 l 0,5.04 c -2e-6,0.320002 0.05333,0.624002 0.16,0.912 m 5.296,-0.912 c -8e-6,0.672002 -0.144007,1.264001 -0.432,1.776 -0.362673,0.650667 -0.880006,0.976 -1.552,0.976 l -3.152,0 c -0.661335,0 -1.173335,-0.325333 -1.536,-0.976 -0.288001,-0.511999 -0.432,-1.103998 -0.432,-1.776 l 0,-5.04 c 0,-0.671992 0.143999,-1.274658 0.432,-1.808 0.362665,-0.661323 0.874665,-0.991989 1.536,-0.992 l 3.152,0 c 0.671994,1.1e-5 1.189327,0.330677 1.552,0.992 0.287993,0.533342 0.431992,1.136008 0.432,1.808 l 0,5.04"
       style="fill:#000000"
       id="path3373"
       inkscape:connector-curvature="0" />
    <path
       d="m 35.446,70.624749 -2.816,7.728 c 0.138664,0.064 0.287997,0.096 0.448,0.096 l 1.248,0 c 0.437328,10e-7 0.767995,-0.229332 0.992,-0.688 0.181328,-0.351998 0.271994,-0.746664 0.272,-1.184 l 0,-5.04 c -6e-6,-0.309325 -0.04801,-0.613325 -0.144,-0.912 m -3.488,6.864 2.864,-7.744 c -0.149338,-0.07466 -0.314671,-0.11199 -0.496,-0.112 l -1.248,0 c -0.437336,10e-6 -0.773336,0.229343 -1.008,0.688 -0.181335,0.362675 -0.272002,0.768008 -0.272,1.216 l 0,5.04 c -2e-6,0.320002 0.05333,0.624002 0.16,0.912 m 5.296,-0.912 c -8e-6,0.672002 -0.144007,1.264001 -0.432,1.776 -0.362673,0.650667 -0.880006,0.976 -1.552,0.976 l -3.152,0 c -0.661335,0 -1.173335,-0.325333 -1.536,-0.976 -0.288001,-0.511999 -0.432,-1.103998 -0.432,-1.776 l 0,-5.04 c 0,-0.671992 0.143999,-1.274658 0.432,-1.808 0.362665,-0.661323 0.874665,-0.991989 1.536,-0.992 l 3.152,0 c 0.671994,1.1e-5 1.189327,0.330677 1.552,0.992 0.287993,0.533342 0.431992,1.136008 0.432,1.808 l 0,5.04"
       style="fill:#000000"
       id="path3375"
       inkscape:connector-curvature="0" />
    <path
       d="m 45.142,79.312749 -6.88,0 0,-0.88 2.656,0 0,-8.816 -1.712,0 0,-0.896 3.456,0 0,9.712 2.48,0 0,0.88"
       style="fill:#000000"
       id="path3377"
       inkscape:connector-curvature="0" />
    <path
       d="m 51.446,70.624749 -2.816,7.728 c 0.138664,0.064 0.287997,0.096 0.448,0.096 l 1.248,0 c 0.437328,10e-7 0.767995,-0.229332 0.992,-0.688 0.181328,-0.351998 0.271994,-0.746664 0.272,-1.184 l 0,-5.04 c -6e-6,-0.309325 -0.04801,-0.613325 -0.144,-0.912 m -3.488,6.864 2.864,-7.744 c -0.149338,-0.07466 -0.314671,-0.11199 -0.496,-0.112 l -1.248,0 c -0.437336,10e-6 -0.773336,0.229343 -1.008,0.688 -0.181335,0.362675 -0.272002,0.768008 -0.272,1.216 l 0,5.04 c -2e-6,0.320002 0.05333,0.624002 0.16,0.912 m 5.296,-0.912 c -8e-6,0.672002 -0.144007,1.264001 -0.432,1.776 -0.362673,0.650667 -0.880006,0.976 -1.552,0.976 l -3.152,0 c -0.661335,0 -1.173335,-0.325333 -1.536,-0.976 -0.288001,-0.511999 -0.432,-1.103998 -0.432,-1.776 l 0,-5.04 c 0,-0.671992 0.143999,-1.274658 0.432,-1.808 0.362665,-0.661323 0.874665,-0.991989 1.536,-0.992 l 3.152,0 c 0.671994,1.1e-5 1.189327,0.330677 1.552,0.992 0.287993,0.533342 0.431992,1.136008 0.432,1.808 l 0,5.04"
       style="fill:#000000"
       id="path3379"
       inkscape:connector-curvature="0" />
    <path
       d="m 61.142,79.312749 -6.88,0 0,-0.88 2.656,0 0,-8.816 -1.712,0 0,-0.896 3.456,0 0,9.712 2.48,0 0,0.88"
       style="fill:#000000"
       id="path3381"
       inkscape:connector-curvature="0" />
    <path
       d="m 69.142,79.312749 -6.88,0 0,-0.88 2.656,0 0,-8.816 -1.712,0 0,-0.896 3.456,0 0,9.712 2.48,0 0,0.88"
       style="fill:#000000"
       id="path3383"
       inkscape:connector-curvature="0" />
  </g>
</svg>
