<?xml version="1.0" encoding="UTF-8" standalone="no"?>
<!-- Created with Inkscape (http://www.inkscape.org/) -->

<svg
   xmlns:dc="http://purl.org/dc/elements/1.1/"
   xmlns:cc="http://creativecommons.org/ns#"
   xmlns:rdf="http://www.w3.org/1999/02/22-rdf-syntax-ns#"
   xmlns:svg="http://www.w3.org/2000/svg"
   xmlns="http://www.w3.org/2000/svg"
   xmlns:xlink="http://www.w3.org/1999/xlink"
   xmlns:sodipodi="http://sodipodi.sourceforge.net/DTD/sodipodi-0.dtd"
   xmlns:inkscape="http://www.inkscape.org/namespaces/inkscape"
   width="136.53334"
   height="136.53334"
   id="svg6934"
   sodipodi:version="0.32"
   inkscape:version="0.92.1 r15371"
   version="1.0"
   sodipodi:docname="start-here-symbolic.svg"
   inkscape:output_extension="org.inkscape.output.svg.inkscape">
  <defs
     id="defs6936">
    <linearGradient
       inkscape:collect="always"
       xlink:href="#jaca"
       id="linearGradient1459"
       gradientUnits="userSpaceOnUse"
       x1="9.495225"
       y1="-3.1310093"
       x2="75.466797"
       y2="104.28125" />
    <linearGradient
       id="jaca">
      <stop
         id="stop8362"
         offset="0"
         style="stop-color:#b995da;stop-opacity:1" />
      <stop
         id="stop8364"
         offset="1"
         style="stop-color:#766287;stop-opacity:1" />
    </linearGradient>
  </defs>
  <sodipodi:namedview
     id="base"
     pagecolor="#ffffff"
     bordercolor="#666666"
     borderopacity="1.0"
     inkscape:pageopacity="0.0"
     inkscape:pageshadow="2"
     inkscape:zoom="0.71177561"
     inkscape:cx="-207.41095"
     inkscape:cy="68.244278"
     inkscape:document-units="px"
     inkscape:current-layer="layer1"
     showgrid="false"
     inkscape:window-width="1366"
     inkscape:window-height="714"
     inkscape:window-x="0"
     inkscape:window-y="26"
     inkscape:window-maximized="1" />
  <metadata
     id="metadata6939">
    <rdf:RDF>
      <cc:Work
         rdf:about="">
        <dc:format>image/svg+xml</dc:format>
        <dc:type
           rdf:resource="http://purl.org/dc/dcmitype/StillImage" />
        <dc:title />
      </cc:Work>
    </rdf:RDF>
  </metadata>
  <g
     inkscape:label="Capa 1"
     inkscape:groupmode="layer"
     id="layer1">
    <path
       style="fill:url(#linearGradient1459);fill-opacity:1;fill-rule:evenodd;stroke:none;stroke-width:1.06666672"
       d="M 39.998047 5.578125 C 37.878341 6.396493 36.158816 7.9325495 34.833984 9.9316406 C 33.138519 12.489996 32.181584 15.774387 32.115234 18.753906 L 32.115234 18.755859 L 32.519531 120.53125 C 33.019162 125.90816 34.479176 128.75318 36.732422 131 C 36.995926 130.9744 37.2623 130.94379 37.533203 130.90039 L 121.0332 118.30078 C 123.70278 118.01157 125.96908 116.7361 127.64648 114.71875 C 128.12574 114.14236 128.55681 113.50653 128.93555 112.81445 C 130.26114 110.39219 130.9457 107.29608 130.80078 103.76758 L 131.23242 24.533203 C 131.46974 18.170173 128.24578 12.826277 121.26758 11.767578 L 40.189453 5.5820312 C 40.184953 5.5815516 40.180351 5.5824974 40.175781 5.5820312 C 40.116851 5.5759713 40.05714 5.5819012 39.998047 5.578125 z M 32.652344 6.0429688 L 12.5 8.9667969 L 11.996094 8.9667969 L 11.996094 9.1660156 C 6.2324131 10.285024 3.265625 15.131185 3.265625 21.066406 L 3.265625 72.966797 L 3.265625 104.98438 L 3.265625 111.40039 C 3.194793 117.42947 5.334487 122.16756 9.6328125 123.66602 L 27.4375 130.09961 L 31.572266 130.86523 C 29.970653 128.33071 28.81841 125.13168 28.427734 120.85156 L 28.419922 120.76367 L 28.015625 18.691406 L 28.015625 18.664062 C 28.098955 14.901174 29.23588 10.95571 31.416016 7.6660156 C 31.790508 7.1009284 32.211266 6.5638331 32.652344 6.0429688 z M 109.31055 16.681641 C 111.47635 16.549702 113.58935 17.781742 112.48438 19.478516 L 109.95898 23.162109 L 91.121094 47.871094 L 99.054688 47.898438 C 104.31556 51.055774 108.87467 56.634085 113.05859 61.767578 C 113.10486 61.829632 113.14736 61.892918 113.19336 61.955078 C 97.071776 66.027815 77.639396 65.071938 60.03125 63.078125 C 56.24886 62.534966 55.920183 64.235399 59.546875 64.796875 C 92.842428 69.670957 113.85223 69.029597 120.27344 74.726562 C 125.58994 88.686964 123.36165 103.12351 109.59961 111.85156 C 94.035024 120.11787 66.721343 121.74889 57.146484 112.72656 C 38.20904 96.934024 41.219385 78.595999 54.408203 61.642578 C 58.120894 56.891977 62.563798 52.182103 67.417969 47.816406 L 84.65625 47.871094 L 106.03906 18.585938 C 106.6917 17.331003 108.01106 16.760801 109.31055 16.681641 z "
       id="path4493" />
  </g>
</svg>
