<?xml version="1.0" encoding="UTF-8" standalone="no"?>
<!-- Created with Inkscape (http://www.inkscape.org/) -->
<svg
   xmlns:dc="http://purl.org/dc/elements/1.1/"
   xmlns:cc="http://creativecommons.org/ns#"
   xmlns:rdf="http://www.w3.org/1999/02/22-rdf-syntax-ns#"
   xmlns:svg="http://www.w3.org/2000/svg"
   xmlns="http://www.w3.org/2000/svg"
   xmlns:xlink="http://www.w3.org/1999/xlink"
   xmlns:sodipodi="http://sodipodi.sourceforge.net/DTD/sodipodi-0.dtd"
   xmlns:inkscape="http://www.inkscape.org/namespaces/inkscape"
   width="128"
   height="128"
   id="svg2"
   sodipodi:version="0.32"
   inkscape:version="0.46"
   version="1.0"
   sodipodi:docname="gaim-icon-connect.svg"
   inkscape:output_extension="org.inkscape.output.svg.inkscape">
  <defs
     id="defs4">
    <linearGradient
       inkscape:collect="always"
       xlink:href="#linearGradient5316"
       id="linearGradient15396"
       gradientUnits="userSpaceOnUse"
       gradientTransform="matrix(3.5509045,0,0,6.1826896,-1731.9964,-5771.5493)"
       x1="491.92484"
       y1="945.52692"
       x2="498.68216"
       y2="947.94556" />
    <linearGradient
       inkscape:collect="always"
       xlink:href="#linearGradient5165-9"
       id="linearGradient15398"
       gradientUnits="userSpaceOnUse"
       x1="536.125"
       y1="1009.125"
       x2="560.34888"
       y2="1024.5"
       gradientTransform="matrix(2.6666667,0,0,2.6666667,-1454.0055,-2665.1696)" />
    <linearGradient
       inkscape:collect="always"
       xlink:href="#linearGradient5344"
       id="linearGradient15400"
       gradientUnits="userSpaceOnUse"
       gradientTransform="matrix(2.6666667,0,0,2.6666667,-1294.0055,-2505.1696)"
       x1="538.70038"
       y1="961.08887"
       x2="501.34375"
       y2="963.18353" />
    <linearGradient
       inkscape:collect="always"
       xlink:href="#linearGradient9121"
       id="linearGradient15402"
       gradientUnits="userSpaceOnUse"
       gradientTransform="matrix(2.6666667,0,0,2.6666667,-1294.0055,-2505.1697)"
       x1="498.85938"
       y1="985.16748"
       x2="498.85938"
       y2="945.0625" />
    <linearGradient
       inkscape:collect="always"
       xlink:href="#linearGradient5439"
       id="linearGradient15434"
       gradientUnits="userSpaceOnUse"
       gradientTransform="matrix(2.9772475,-8.3210104e-2,0,2.512688,-1461.4968,-2314.2884)"
       x1="526.8338"
       y1="951.78943"
       x2="526.8338"
       y2="976.62146" />
    <linearGradient
       inkscape:collect="always"
       xlink:href="#linearGradient5344"
       id="linearGradient15436"
       gradientUnits="userSpaceOnUse"
       gradientTransform="matrix(2.9772475,-8.3210104e-2,0,2.512688,-1461.4968,-2314.2884)"
       x1="523.62518"
       y1="985.7196"
       x2="523.62518"
       y2="956.83093" />
    <linearGradient
       inkscape:collect="always"
       xlink:href="#linearGradient5439"
       id="linearGradient15438"
       gradientUnits="userSpaceOnUse"
       x1="520.61639"
       y1="953.89056"
       x2="520.61639"
       y2="978.27325" />
    <linearGradient
       inkscape:collect="always"
       xlink:href="#linearGradient5439"
       id="linearGradient15440"
       gradientUnits="userSpaceOnUse"
       gradientTransform="matrix(2.3254517,-6.499328e-2,0,2.3254517,-1068.5139,-2146.4518)"
       x1="492.35342"
       y1="950.95502"
       x2="492.35342"
       y2="994.22156" />
    <linearGradient
       inkscape:collect="always"
       xlink:href="#linearGradient5165-9"
       id="linearGradient15442"
       gradientUnits="userSpaceOnUse"
       gradientTransform="matrix(2.3254517,-6.499328e-2,0,2.3254517,-1068.5139,-2146.4518)"
       x1="483.0965"
       y1="954.914"
       x2="494.30414"
       y2="961.98505" />
    <linearGradient
       inkscape:collect="always"
       xlink:href="#linearGradient5344"
       id="linearGradient15444"
       gradientUnits="userSpaceOnUse"
       gradientTransform="matrix(2.3254517,-6.499328e-2,0,2.3254517,-1068.5139,-2146.4518)"
       x1="498.77618"
       y1="976.26416"
       x2="495.89969"
       y2="962.7652" />
    <linearGradient
       inkscape:collect="always"
       xlink:href="#linearGradient9863"
       id="linearGradient15446"
       gradientUnits="userSpaceOnUse"
       x1="1009.8859"
       y1="906.94275"
       x2="1009.8859"
       y2="859.41876"
       gradientTransform="matrix(2.3254518,-6.4993281e-2,0,2.3254518,-2233.8559,-1927.8459)" />
    <linearGradient
       inkscape:collect="always"
       xlink:href="#linearGradient5398"
       id="linearGradient15448"
       gradientUnits="userSpaceOnUse"
       gradientTransform="matrix(2.3254518,-6.4993281e-2,0,2.3254518,-1071.13,-2146.3787)"
       x1="488.83911"
       y1="970.04968"
       x2="486.80615"
       y2="986.17834" />
    <linearGradient
       inkscape:collect="always"
       xlink:href="#linearGradient5344"
       id="linearGradient15450"
       gradientUnits="userSpaceOnUse"
       x1="995.40308"
       y1="853.93726"
       x2="995.40308"
       y2="903.52625"
       gradientTransform="matrix(2.3254518,-6.4993281e-2,0,2.3254518,-2233.8559,-1927.8459)" />
    <linearGradient
       inkscape:collect="always"
       xlink:href="#linearGradient5344"
       id="linearGradient10888"
       gradientUnits="userSpaceOnUse"
       gradientTransform="matrix(3.5509045,0,0,6.1826896,-1731.9965,-5771.5494)"
       x1="536.79602"
       y1="967.73944"
       x2="491.73557"
       y2="944.83771" />
    <linearGradient
       inkscape:collect="always"
       xlink:href="#linearGradient5165-9"
       id="linearGradient10890"
       gradientUnits="userSpaceOnUse"
       gradientTransform="matrix(2.6666667,0,0,2.6666667,-1454.0056,-2665.1696)"
       x1="536.125"
       y1="1009.125"
       x2="560.34888"
       y2="1024.5" />
    <linearGradient
       inkscape:collect="always"
       xlink:href="#linearGradient5344"
       id="linearGradient10892"
       gradientUnits="userSpaceOnUse"
       gradientTransform="matrix(2.6666667,0,0,2.6666667,-1294.0056,-2505.1696)"
       x1="538.70038"
       y1="961.08887"
       x2="501.34375"
       y2="963.18353" />
    <linearGradient
       inkscape:collect="always"
       xlink:href="#linearGradient9121"
       id="linearGradient10894"
       gradientUnits="userSpaceOnUse"
       gradientTransform="matrix(2.6666667,0,0,2.6666667,-1294.0056,-2505.1696)"
       x1="498.85938"
       y1="985.16748"
       x2="498.85938"
       y2="945.0625" />
    <linearGradient
       inkscape:collect="always"
       xlink:href="#linearGradient5344"
       id="linearGradient10872"
       gradientUnits="userSpaceOnUse"
       gradientTransform="matrix(-3.6881368,-3.6741779e-2,0,-3.4756195,1995.0755,3376.6168)"
       x1="477.41565"
       y1="988.98737"
       x2="532.91528"
       y2="931.46869" />
    <linearGradient
       inkscape:collect="always"
       xlink:href="#linearGradient9863"
       id="linearGradient10876"
       gradientUnits="userSpaceOnUse"
       x1="219.49205"
       y1="312.349"
       x2="219.49205"
       y2="290.39264"
       gradientTransform="matrix(-3.6881371,-3.6741779e-2,0,-3.4756195,905.17902,1094.1219)" />
    <linearGradient
       inkscape:collect="always"
       xlink:href="#linearGradient5316"
       id="linearGradient10874"
       gradientUnits="userSpaceOnUse"
       gradientTransform="matrix(-6.981486,-6.9550625e-2,0,-6.5665139,3764.3396,6293.6758)"
       x1="527.354"
       y1="949.22937"
       x2="524.38684"
       y2="944.79547" />
    <linearGradient
       id="linearGradient12578">
      <stop
         id="stop12580"
         offset="0"
         style="stop-color:#e9b551;stop-opacity:1;" />
      <stop
         id="stop12582"
         offset="1"
         style="stop-color:#b48739;stop-opacity:1;" />
    </linearGradient>
    <linearGradient
       id="linearGradient5165-9">
      <stop
         offset="0"
         style="stop-color:#ffffff;stop-opacity:1"
         id="stop5167-6" />
      <stop
         offset="1"
         style="stop-color:#ffffff;stop-opacity:0"
         id="stop5169-7" />
    </linearGradient>
    <linearGradient
       id="linearGradient9121">
      <stop
         style="stop-color:#2f445a;stop-opacity:1"
         offset="0"
         id="stop9123" />
      <stop
         style="stop-color:#415f7c;stop-opacity:1"
         offset="1"
         id="stop9125" />
    </linearGradient>
    <linearGradient
       id="linearGradient12594">
      <stop
         id="stop12596"
         offset="0"
         style="stop-color:#e9b551;stop-opacity:1;" />
      <stop
         id="stop12598"
         offset="1"
         style="stop-color:#e9b551;stop-opacity:0;" />
    </linearGradient>
    <linearGradient
       id="linearGradient5316">
      <stop
         style="stop-color:#c0bfbb;stop-opacity:1;"
         offset="0"
         id="stop5320" />
      <stop
         style="stop-color:#798088;stop-opacity:1;"
         offset="1"
         id="stop5322" />
    </linearGradient>
    <linearGradient
       id="linearGradient9863">
      <stop
         style="stop-color:#2f445a;stop-opacity:1;"
         offset="0"
         id="stop9865" />
      <stop
         style="stop-color:#415f7c;stop-opacity:1"
         offset="1"
         id="stop9867" />
    </linearGradient>
    <linearGradient
       id="linearGradient12336">
      <stop
         id="stop12338"
         offset="0"
         style="stop-color:#ff6e00;stop-opacity:1;" />
      <stop
         id="stop12340"
         offset="1"
         style="stop-color:#eb2600;stop-opacity:1;" />
    </linearGradient>
    <linearGradient
       id="linearGradient5362">
      <stop
         style="stop-color:#ffffff;stop-opacity:1;"
         offset="0"
         id="stop5364" />
      <stop
         style="stop-color:#ffffff;stop-opacity:0;"
         offset="1"
         id="stop5366" />
    </linearGradient>
    <linearGradient
       id="linearGradient5439">
      <stop
         style="stop-color:#ffffff;stop-opacity:1;"
         offset="0"
         id="stop5441" />
      <stop
         style="stop-color:#000000;stop-opacity:1;"
         offset="1"
         id="stop5443" />
    </linearGradient>
    <linearGradient
       inkscape:collect="always"
       xlink:href="#linearGradient5439"
       id="linearGradient13309"
       gradientUnits="userSpaceOnUse"
       x1="499.90704"
       y1="953.39532"
       x2="652.75177"
       y2="1116.9413"
       gradientTransform="matrix(2.6765239,0,0,2.6765239,-1298.6765,-2514.903)" />
    <linearGradient
       inkscape:collect="always"
       id="linearGradient5398">
      <stop
         style="stop-color:#87c6ff;stop-opacity:1;"
         offset="0"
         id="stop5400" />
      <stop
         style="stop-color:#87c6ff;stop-opacity:0"
         offset="1"
         id="stop5402" />
    </linearGradient>
    <linearGradient
       inkscape:collect="always"
       xlink:href="#linearGradient5398"
       id="linearGradient13322"
       gradientUnits="userSpaceOnUse"
       x1="500.87799"
       y1="948.11993"
       x2="500.87799"
       y2="953.17468"
       gradientTransform="matrix(2.6765239,0,0,2.6765239,-1298.6765,-2514.903)" />
    <linearGradient
       id="linearGradient5344">
      <stop
         style="stop-color:#000000;stop-opacity:1;"
         offset="0"
         id="stop5346" />
      <stop
         style="stop-color:#000000;stop-opacity:0;"
         offset="1"
         id="stop5348" />
    </linearGradient>
    <linearGradient
       inkscape:collect="always"
       xlink:href="#linearGradient5344"
       id="linearGradient13314"
       gradientUnits="userSpaceOnUse"
       x1="544.89001"
       y1="919.05762"
       x2="506.01498"
       y2="969.80762"
       gradientTransform="translate(-485.21014,-859.4386)" />
    <linearGradient
       id="linearGradient8702">
      <stop
         id="stop8704"
         offset="0"
         style="stop-color:#c0bfbb;stop-opacity:1;" />
      <stop
         id="stop8706"
         offset="1"
         style="stop-color:#798088;stop-opacity:1;" />
    </linearGradient>
    <linearGradient
       inkscape:collect="always"
       xlink:href="#linearGradient8702"
       id="linearGradient13316"
       gradientUnits="userSpaceOnUse"
       gradientTransform="matrix(2.6765239,0,0,2.6765239,-1779.5422,-994.63744)"
       x1="700.13062"
       y1="378.86951"
       x2="707.80457"
       y2="395.74899" />
    <inkscape:perspective
       sodipodi:type="inkscape:persp3d"
       inkscape:vp_x="0 : 526.18109 : 1"
       inkscape:vp_y="0 : 1000 : 0"
       inkscape:vp_z="744.09448 : 526.18109 : 1"
       inkscape:persp3d-origin="372.04724 : 350.78739 : 1"
       id="perspective10" />
  </defs>
  <sodipodi:namedview
     id="base"
     pagecolor="#ffffff"
     bordercolor="#666666"
     borderopacity="1.0"
     inkscape:pageopacity="0.0"
     inkscape:pageshadow="2"
     inkscape:zoom="1.7692308"
     inkscape:cx="112.88631"
     inkscape:cy="63.431633"
     inkscape:document-units="px"
     inkscape:current-layer="layer1"
     showgrid="false"
     inkscape:showpageshadow="false"
     inkscape:window-width="1014"
     inkscape:window-height="715"
     inkscape:window-x="0"
     inkscape:window-y="6"
     showguides="true"
     inkscape:guide-bbox="true" />
  <metadata
     id="metadata7">
    <rdf:RDF>
      <cc:Work
         rdf:about="">
        <dc:format>image/svg+xml</dc:format>
        <dc:type
           rdf:resource="http://purl.org/dc/dcmitype/StillImage" />
      </cc:Work>
    </rdf:RDF>
  </metadata>
  <g
     inkscape:label="Capa 1"
     inkscape:groupmode="layer"
     id="layer1">
    <path
       style="fill:url(#linearGradient15396);fill-opacity:1;stroke:none;stroke-width:1;stroke-linecap:round;stroke-linejoin:round;stroke-miterlimit:4;stroke-dasharray:none;stroke-dashoffset:0;stroke-opacity:1;display:inline"
       d="M 36.24447,16.3304 C 22.71327,16.3304 11.744443,27.2992 11.74447,40.8304 C 11.74447,50.133067 16.936683,58.261067 24.577803,62.413867 C 12.333563,66.976 3.6611375,81.0456 3.6611375,117.3304 C 22.161137,126.408 47.56879,125.24373 68.911137,118.49707 C 68.911137,81.8144 60.14911,67.241334 47.827803,62.497067 C 55.558017,58.371467 60.827803,50.1992 60.827803,40.8304 C 60.827803,27.2992 49.77567,16.3304 36.24447,16.3304 z"
       id="path15384" />
    <path
       sodipodi:nodetypes="csccccc"
       id="path15386"
       d="M 36.24447,16.3304 C 22.71327,16.3304 11.744443,27.2992 11.74447,40.8304 C 11.74447,50.133067 16.936683,58.261067 24.577803,62.413867 C 12.333563,66.976 3.6611375,81.0456 3.6611375,117.3304 C 12.757723,85.756534 24.873297,69.5784 36.161137,62.497067 C 12.541377,60.026667 21.810123,18.2096 47.258177,18.930934 C 43.941297,17.2672 40.198737,16.3304 36.24447,16.3304 z"
       style="fill:url(#linearGradient15398);fill-opacity:1;stroke:none;stroke-width:1;stroke-linecap:round;stroke-linejoin:round;stroke-miterlimit:4;stroke-dasharray:none;stroke-dashoffset:0;stroke-opacity:1;display:inline" />
    <path
       sodipodi:nodetypes="cccccsc"
       style="fill:url(#linearGradient15400);fill-opacity:1;stroke:none;stroke-width:0.5;stroke-linecap:round;stroke-linejoin:round;stroke-miterlimit:4;stroke-dashoffset:0;stroke-opacity:1;display:inline"
       d="M 36.24447,16.3304 C 26.823323,18.092534 33.287537,57.639467 40.74447,62.246934 C 37.27183,69.3072 39.75791,123.0624 56.698897,121.64267 C 60.862683,120.8056 64.956683,119.7472 68.911137,118.49707 C 68.911137,81.8144 60.14911,67.241334 47.827803,62.497067 C 55.558017,58.371467 60.827803,50.1992 60.827803,40.8304 C 60.827803,27.2992 49.77567,16.3304 36.24447,16.3304 z"
       id="path15388" />
    <path
       id="path15390"
       d="M 36.24447,16.3304 C 22.71327,16.3304 11.744443,27.2992 11.74447,40.8304 C 11.74447,50.133067 16.936683,58.261067 24.577803,62.413867 C 12.333563,66.976 3.6611375,81.0456 3.6611375,117.3304 C 22.161137,126.408 47.56879,125.24373 68.911137,118.49707 C 68.911137,81.8144 60.14911,67.241334 47.827803,62.497067 C 55.558017,58.371467 60.827803,50.1992 60.827803,40.8304 C 60.827803,27.2992 49.77567,16.3304 36.24447,16.3304 z"
       style="fill:none;fill-opacity:1;stroke:url(#linearGradient15402);stroke-width:2.66666675;stroke-linecap:round;stroke-linejoin:round;stroke-miterlimit:4;stroke-dasharray:none;stroke-dashoffset:0;stroke-opacity:1;display:inline" />
    <path
       style="fill:#333333;fill-rule:evenodd;stroke:none;stroke-width:1px;stroke-linecap:butt;stroke-linejoin:miter;stroke-opacity:1;display:inline"
       d="M 120.52895,50.121334 L 95.391512,51.261334 L 98.298092,45.523734 L 122.53161,44.780267 L 120.52895,50.121334 z"
       id="path15408"
       sodipodi:nodetypes="ccccc" />
    <path
       style="fill:#999999;fill-rule:evenodd;stroke:none;stroke-width:1px;stroke-linecap:butt;stroke-linejoin:miter;stroke-opacity:1;display:inline"
       d="M 85.666177,52.737067 L 114.75553,51.997334 L 116.24313,46.4128 L 87.472523,47.586134 L 85.666177,52.737067 z"
       id="path15410"
       sodipodi:nodetypes="ccccc" />
    <path
       sodipodi:nodetypes="cccccc"
       id="path15412"
       d="M 122.10905,50.930667 L 99.617772,52.210667 L 98.574122,45.808534 L 122.36721,44.928267 L 123.96647,47.084 L 122.10905,50.930667 z"
       style="fill:#000000;fill-rule:evenodd;stroke:none;stroke-width:1px;stroke-linecap:butt;stroke-linejoin:miter;stroke-opacity:1;display:inline" />
    <path
       style="fill:#000000;fill-rule:evenodd;stroke:none;stroke-width:1px;stroke-linecap:butt;stroke-linejoin:miter;stroke-opacity:1;display:inline"
       d="M 116.40801,73.3808 L 97.630922,75.699734 L 97.087452,68.6208 L 116.64287,67.006934 C 118.52564,68.9768 118.74313,71.078134 116.40801,73.3808 z"
       id="path15414"
       sodipodi:nodetypes="ccccc" />
    <path
       sodipodi:nodetypes="csssssc"
       id="path15416"
       d="M 111.63759,57.202134 C 111.63759,70.1304 105.03609,80.869334 96.773292,81.628 C 96.557962,81.647734 90.920282,82.326134 90.702792,82.332267 C 82.139323,82.571467 80.61039,71.3344 80.61039,58.069334 C 80.61039,44.804267 81.97231,33.6792 90.535772,33.439734 C 90.606712,33.437867 96.265642,33.601334 96.336332,33.601067 C 104.80215,33.540534 111.63759,44.046934 111.63759,57.202134 z"
       style="fill:url(#linearGradient15434);fill-opacity:1;stroke:none;stroke-width:1;stroke-linecap:round;stroke-linejoin:round;stroke-miterlimit:4;stroke-dashoffset:0;stroke-opacity:1;display:inline" />
    <path
       style="fill:url(#linearGradient15436);fill-opacity:1;stroke:none;stroke-width:1;stroke-linecap:round;stroke-linejoin:round;stroke-miterlimit:4;stroke-dashoffset:0;stroke-opacity:1;display:inline"
       d="M 111.63759,57.202134 C 111.63759,70.1304 105.03609,80.869334 96.773292,81.628 C 96.557962,81.647734 90.920282,82.326134 90.702792,82.332267 C 82.139323,82.571467 80.61039,71.3344 80.61039,58.069334 C 80.61039,44.804267 81.97231,33.6792 90.535772,33.439734 C 90.606712,33.437867 96.265642,33.601334 96.336332,33.601067 C 104.80215,33.540534 111.63759,44.046934 111.63759,57.202134 z"
       id="path15418"
       sodipodi:nodetypes="csssssc" />
    <path
       transform="matrix(3.0222637,-8.4468248e-2,0,2.55068,-1490.9179,-2349.9154)"
       d="M 528.38553,961.30426 A 5.2107229,9.5638885 0 1 1 517.96408,961.30426 A 5.2107229,9.5638885 0 1 1 528.38553,961.30426 z"
       sodipodi:ry="9.5638885"
       sodipodi:rx="5.2107229"
       sodipodi:cy="961.30426"
       sodipodi:cx="523.1748"
       id="path15420"
       style="opacity:1;fill:url(#linearGradient15438);fill-opacity:1;stroke:none;stroke-width:1;stroke-linecap:round;stroke-linejoin:round;stroke-miterlimit:4;stroke-dasharray:none;stroke-dashoffset:0;stroke-opacity:1;display:inline"
       sodipodi:type="arc" />
    <path
       sodipodi:nodetypes="ccccc"
       id="path15422"
       d="M 90.336682,77.8392 C 102.51111,75.858134 106.32321,41.3256 90.131162,37.764267 L 67.521403,49.084267 C 61.785297,52.144 62.22223,68.3352 68.960203,70.214934 L 90.336682,77.8392 z"
       style="fill:url(#linearGradient15440);fill-rule:evenodd;stroke:none;stroke-width:1px;stroke-linecap:butt;stroke-linejoin:miter;stroke-opacity:1;display:inline" />
    <path
       style="fill:url(#linearGradient15442);fill-rule:evenodd;stroke:none;stroke-width:1px;stroke-linecap:butt;stroke-linejoin:miter;stroke-opacity:1;display:inline"
       d="M 98.396682,44.607734 C 96.650282,41.161334 93.945772,38.6032 90.131162,37.764267 L 67.521403,49.084267 C 61.785297,52.144 62.22223,68.3352 68.960203,70.214934 C 61.957243,54.5096 78.439163,49.733067 98.396682,44.607734 z"
       id="path15424"
       sodipodi:nodetypes="ccccc" />
    <path
       style="fill:url(#linearGradient15444);fill-rule:evenodd;stroke:none;stroke-width:1px;stroke-linecap:butt;stroke-linejoin:miter;stroke-opacity:1;display:inline"
       d="M 90.336682,77.8392 C 98.174842,76.563734 102.95783,61.5272 99.985912,48.698134 C 90.565532,53.149334 63.611963,48.592534 69.243323,70.316 L 90.336682,77.8392 z"
       id="path15426"
       sodipodi:nodetypes="cccc" />
    <path
       sodipodi:nodetypes="cccccsssccccccccccssc"
       id="path15428"
       d="M 90.287832,33.465334 C 84.981857,33.6136 80.27887,37.8296 77.425057,44.144 L 67.54191,49.0712 C 61.805697,52.130934 62.257297,68.370667 68.995297,70.2504 L 77.933883,73.416 C 80.820683,78.920534 85.313243,82.438934 90.287832,82.299734 C 90.437372,82.302934 90.569912,82.364534 90.723852,82.360267 C 90.941532,82.354134 96.540042,81.630134 96.755612,81.6104 C 100.69401,81.2488 104.28079,78.620534 106.92948,74.567734 L 116.37639,73.358934 C 119.87105,72.999467 120.26124,66.789867 116.66705,67.028534 L 110.999,67.4776 C 112.57287,62.448534 112.34265,57.056 111.72572,52.123734 L 114.77785,51.965867 L 114.99577,51.233067 L 121.49724,50.8416 C 125.36508,50.983467 125.93361,43.958667 119.82692,44.5576 L 109.83628,44.8368 C 107.18457,37.826134 101.96556,33.5472 96.319372,33.587467 C 96.248652,33.588 90.576892,33.457334 90.505722,33.4592 C 90.432712,33.459734 90.361322,33.4632 90.287832,33.465334 z"
       style="fill:none;fill-rule:evenodd;stroke:url(#linearGradient15446);stroke-width:2.32545185px;stroke-linecap:round;stroke-linejoin:round;stroke-opacity:1;display:inline" />
    <path
       style="fill:none;fill-rule:evenodd;stroke:url(#linearGradient15448);stroke-width:5.58108473;stroke-linecap:round;stroke-linejoin:round;stroke-miterlimit:4;stroke-dasharray:none;stroke-opacity:1;display:inline"
       d="M 64.962203,62.012534 C 54.944843,64.9936 71.431457,79.141867 76.037297,91.767734 C 82.840497,105.73493 71.703083,111.1072 60.492977,115.44107"
       id="path15430"
       sodipodi:nodetypes="ccc" />
    <path
       sodipodi:nodetypes="ccc"
       id="path15432"
       d="M 64.962203,62.012534 C 54.944843,64.9936 71.431457,79.141867 76.037297,91.767734 C 82.840497,105.73493 71.703083,111.1072 60.492977,115.44107"
       style="fill:none;fill-rule:evenodd;stroke:url(#linearGradient15450);stroke-width:5.58108473;stroke-linecap:round;stroke-linejoin:round;stroke-miterlimit:4;stroke-dasharray:none;stroke-opacity:1;display:inline" />
  </g>
</svg>
