<?xml version="1.0" encoding="UTF-8" standalone="no"?>
<!-- Created with Inkscape (http://www.inkscape.org/) -->

<svg
   xmlns:dc="http://purl.org/dc/elements/1.1/"
   xmlns:cc="http://creativecommons.org/ns#"
   xmlns:rdf="http://www.w3.org/1999/02/22-rdf-syntax-ns#"
   xmlns:svg="http://www.w3.org/2000/svg"
   xmlns="http://www.w3.org/2000/svg"
   xmlns:xlink="http://www.w3.org/1999/xlink"
   xmlns:sodipodi="http://sodipodi.sourceforge.net/DTD/sodipodi-0.dtd"
   xmlns:inkscape="http://www.inkscape.org/namespaces/inkscape"
   width="128"
   height="128"
   id="svg2"
   sodipodi:version="0.32"
   inkscape:version="0.48.3.1 r9886"
   version="1.0"
   sodipodi:docname="gaim-text-bigger.svg"
   inkscape:output_extension="org.inkscape.output.svg.inkscape">
  <defs
     id="defs4">
    <linearGradient
       inkscape:collect="always"
       xlink:href="#linearGradient5362"
       id="linearGradient10577"
       gradientUnits="userSpaceOnUse"
       x1="504.91962"
       y1="635.44617"
       x2="504.48212"
       y2="641.10242"
       gradientTransform="translate(-377.99132,-511.48208)" />
    <linearGradient
       inkscape:collect="always"
       xlink:href="#linearGradient5439"
       id="linearGradient98584"
       x1="373.96051"
       y1="1007.7943"
       x2="454.39761"
       y2="1114.5674"
       gradientUnits="userSpaceOnUse"
       gradientTransform="translate(-257.99132,-891.48208)" />
    <linearGradient
       inkscape:collect="always"
       xlink:href="#linearGradient8702"
       id="linearGradient10607"
       gradientUnits="userSpaceOnUse"
       gradientTransform="translate(-363.66053,640)"
       x1="702.77777"
       y1="379.11951"
       x2="696.05457"
       y2="390.85318" />
    <filter
       inkscape:collect="always"
       id="filter20356">
      <feGaussianBlur
         inkscape:collect="always"
         stdDeviation="0.48197145"
         id="feGaussianBlur20358" />
    </filter>
    <linearGradient
       inkscape:collect="always"
       xlink:href="#linearGradient5344"
       id="linearGradient10605"
       gradientUnits="userSpaceOnUse"
       gradientTransform="translate(-363.66053,640)"
       x1="720.71875"
       y1="336.13824"
       x2="688.4375"
       y2="403.01324" />
    <linearGradient
       id="linearGradient5316">
      <stop
         style="stop-color:#87c7ff;stop-opacity:1;"
         offset="0"
         id="stop5320" />
      <stop
         style="stop-color:#74aadb;stop-opacity:1;"
         offset="1"
         id="stop5322" />
    </linearGradient>
    <linearGradient
       id="linearGradient2481">
      <stop
         id="stop2483"
         offset="0"
         style="stop-color:#87c6ff;stop-opacity:1;" />
      <stop
         style="stop-color:#75aadb;stop-opacity:1;"
         offset="0.5"
         id="stop3944" />
      <stop
         id="stop2485"
         offset="1"
         style="stop-color:#75aadb;stop-opacity:1;" />
    </linearGradient>
    <linearGradient
       id="linearGradient12336">
      <stop
         id="stop12338"
         offset="0"
         style="stop-color:#ff6e00;stop-opacity:1;" />
      <stop
         id="stop12340"
         offset="1"
         style="stop-color:#eb2600;stop-opacity:1;" />
    </linearGradient>
    <linearGradient
       id="linearGradient5362">
      <stop
         style="stop-color:#ffffff;stop-opacity:1;"
         offset="0"
         id="stop5364" />
      <stop
         style="stop-color:#ffffff;stop-opacity:0;"
         offset="1"
         id="stop5366" />
    </linearGradient>
    <linearGradient
       id="linearGradient5439">
      <stop
         style="stop-color:#ffffff;stop-opacity:1;"
         offset="0"
         id="stop5441" />
      <stop
         style="stop-color:#000000;stop-opacity:1;"
         offset="1"
         id="stop5443" />
    </linearGradient>
    <linearGradient
       inkscape:collect="always"
       xlink:href="#linearGradient5439"
       id="linearGradient13309"
       gradientUnits="userSpaceOnUse"
       x1="499.90704"
       y1="953.39532"
       x2="652.75177"
       y2="1116.9413"
       gradientTransform="matrix(2.6765239,0,0,2.6765239,-1298.6765,-2514.903)" />
    <linearGradient
       inkscape:collect="always"
       id="linearGradient5398">
      <stop
         style="stop-color:#87c6ff;stop-opacity:1;"
         offset="0"
         id="stop5400" />
      <stop
         style="stop-color:#87c6ff;stop-opacity:0"
         offset="1"
         id="stop5402" />
    </linearGradient>
    <linearGradient
       inkscape:collect="always"
       xlink:href="#linearGradient5398"
       id="linearGradient13322"
       gradientUnits="userSpaceOnUse"
       x1="500.87799"
       y1="948.11993"
       x2="500.87799"
       y2="953.17468"
       gradientTransform="matrix(2.6765239,0,0,2.6765239,-1298.6765,-2514.903)" />
    <linearGradient
       id="linearGradient5344">
      <stop
         style="stop-color:#000000;stop-opacity:1;"
         offset="0"
         id="stop5346" />
      <stop
         style="stop-color:#000000;stop-opacity:0;"
         offset="1"
         id="stop5348" />
    </linearGradient>
    <linearGradient
       inkscape:collect="always"
       xlink:href="#linearGradient5344"
       id="linearGradient13314"
       gradientUnits="userSpaceOnUse"
       x1="544.89001"
       y1="919.05762"
       x2="506.01498"
       y2="969.80762"
       gradientTransform="translate(-485.21014,-859.4386)" />
    <linearGradient
       id="linearGradient8702">
      <stop
         id="stop8704"
         offset="0"
         style="stop-color:#aac736;stop-opacity:1;" />
      <stop
         id="stop8706"
         offset="1"
         style="stop-color:#5d8b2c;stop-opacity:1;" />
    </linearGradient>
    <linearGradient
       inkscape:collect="always"
       xlink:href="#linearGradient8702"
       id="linearGradient13316"
       gradientUnits="userSpaceOnUse"
       gradientTransform="matrix(2.6765239,0,0,2.6765239,-1779.5422,-994.63744)"
       x1="700.13062"
       y1="378.86951"
       x2="707.80457"
       y2="395.74899" />
    <inkscape:perspective
       sodipodi:type="inkscape:persp3d"
       inkscape:vp_x="0 : 526.18109 : 1"
       inkscape:vp_y="0 : 1000 : 0"
       inkscape:vp_z="744.09448 : 526.18109 : 1"
       inkscape:persp3d-origin="372.04724 : 350.78739 : 1"
       id="perspective10" />
    <linearGradient
       inkscape:collect="always"
       xlink:href="#linearGradient5316"
       id="linearGradient99742"
       gradientUnits="userSpaceOnUse"
       gradientTransform="matrix(2.6765239,0,0,2.6666667,-2101.6337,-1577.1696)"
       x1="789.5"
       y1="633.61218"
       x2="827.375"
       y2="633.61218" />
    <linearGradient
       inkscape:collect="always"
       xlink:href="#linearGradient5439"
       id="linearGradient99745"
       gradientUnits="userSpaceOnUse"
       gradientTransform="matrix(2.2856047,-1.7703609e-2,0,2.2771872,-825.60344,-2267.1537)"
       x1="373.96051"
       y1="1007.7943"
       x2="454.39761"
       y2="1114.5674" />
    <linearGradient
       inkscape:collect="always"
       xlink:href="#linearGradient5362"
       id="linearGradient99819"
       gradientUnits="userSpaceOnUse"
       gradientTransform="translate(-377.99132,-511.48208)"
       x1="504.91962"
       y1="635.44617"
       x2="504.48212"
       y2="641.10242" />
    <linearGradient
       inkscape:collect="always"
       xlink:href="#linearGradient5439"
       id="linearGradient99821"
       gradientUnits="userSpaceOnUse"
       gradientTransform="translate(-257.99132,-891.48208)"
       x1="373.96051"
       y1="1007.7943"
       x2="454.39761"
       y2="1114.5674" />
    <linearGradient
       inkscape:collect="always"
       xlink:href="#linearGradient5344"
       id="linearGradient99823"
       gradientUnits="userSpaceOnUse"
       gradientTransform="translate(-363.66053,640)"
       x1="720.71875"
       y1="336.13824"
       x2="688.4375"
       y2="403.01324" />
    <linearGradient
       inkscape:collect="always"
       xlink:href="#linearGradient8702"
       id="linearGradient99825"
       gradientUnits="userSpaceOnUse"
       gradientTransform="translate(-363.66053,640)"
       x1="702.77777"
       y1="379.11951"
       x2="696.05457"
       y2="390.85318" />
    <linearGradient
       inkscape:collect="always"
       xlink:href="#linearGradient5439"
       id="linearGradient99832"
       gradientUnits="userSpaceOnUse"
       gradientTransform="matrix(2.6765239,0,0,2.6536415,-977.49366,-2648.7004)"
       x1="373.96051"
       y1="1007.7943"
       x2="454.39761"
       y2="1114.5674" />
    <linearGradient
       inkscape:collect="always"
       xlink:href="#linearGradient5362"
       id="linearGradient99836"
       gradientUnits="userSpaceOnUse"
       gradientTransform="matrix(2.6765239,0,0,2.6536415,-1298.6765,-1640.3167)"
       x1="504.91962"
       y1="635.44617"
       x2="504.48212"
       y2="641.10242" />
    <linearGradient
       inkscape:collect="always"
       xlink:href="#linearGradient5344"
       id="linearGradient99838"
       gradientUnits="userSpaceOnUse"
       gradientTransform="translate(-363.66053,640)"
       x1="720.71875"
       y1="336.13824"
       x2="688.4375"
       y2="403.01324" />
    <linearGradient
       inkscape:collect="always"
       xlink:href="#linearGradient8702"
       id="linearGradient99840"
       gradientUnits="userSpaceOnUse"
       gradientTransform="translate(-363.66053,640)"
       x1="702.77777"
       y1="379.11951"
       x2="696.05457"
       y2="390.85318" />
  </defs>
  <sodipodi:namedview
     id="base"
     pagecolor="#ffffff"
     bordercolor="#666666"
     borderopacity="1.0"
     inkscape:pageopacity="0.0"
     inkscape:pageshadow="2"
     inkscape:zoom="1.7692308"
     inkscape:cx="76.593167"
     inkscape:cy="69.937888"
     inkscape:document-units="px"
     inkscape:current-layer="layer1"
     showgrid="false"
     inkscape:showpageshadow="false"
     inkscape:window-width="1024"
     inkscape:window-height="718"
     inkscape:window-x="0"
     inkscape:window-y="24"
     showguides="true"
     inkscape:guide-bbox="true"
     inkscape:window-maximized="0" />
  <metadata
     id="metadata7">
    <rdf:RDF>
      <cc:Work
         rdf:about="">
        <dc:format>image/svg+xml</dc:format>
        <dc:type
           rdf:resource="http://purl.org/dc/dcmitype/StillImage" />
      </cc:Work>
    </rdf:RDF>
  </metadata>
  <g
     inkscape:label="Capa 1"
     inkscape:groupmode="layer"
     id="layer1">
    <path
       id="path98570"
       d="M 53.811116,15.590382 C 53.811116,15.590382 53.662408,100.52602 53.662408,100.52602 C 53.637115,114.96528 51.755599,117.08421 37.581745,119.8509 C 37.581745,119.8509 37.574546,123.18414 37.574546,123.18414 C 37.574546,123.18414 87.438748,116.12174 87.438748,116.12174 C 87.438748,116.12174 87.441103,113.11649 87.441103,113.11649 C 73.440287,114.35574 71.052507,112.54569 71.067682,100.58546 C 71.067682,100.58546 71.17394,16.86413 71.17394,16.86413 C 71.17394,16.86413 80.366034,17.53842 80.366034,17.53842 C 99.771528,18.962099 103.51572,21.983535 107.42893,38.882455 C 107.42893,38.882455 111.517,39.000542 111.517,39.000542 C 111.517,39.000542 110.49588,13.441463 110.49588,13.441463 C 110.49588,13.441463 14.510431,4.9967794 14.510431,4.9967794 C 14.510431,4.9967794 13.403394,36.168575 13.403394,36.168575 C 13.403394,36.168575 17.491463,36.286397 17.491463,36.286397 C 21.630038,16.670148 25.553982,13.517092 44.619049,14.915826 C 44.619049,14.915826 53.811116,15.590382 53.811116,15.590382"
       style="font-size:53.08331299px;font-style:normal;font-variant:normal;font-weight:normal;font-stretch:normal;text-align:start;line-height:125%;writing-mode:lr-tb;text-anchor:start;fill:url(#linearGradient99832);fill-opacity:1;stroke:#000000;stroke-width:2.66505814px;stroke-linecap:butt;stroke-linejoin:miter;stroke-opacity:1;display:inline;font-family:Nimbus Roman No9 L;-inkscape-font-specification:Nimbus Roman No9 L" />
    <g
       style="display:inline"
       id="g10595"
       transform="matrix(2.6765239,0,0,2.6536415,-812.75118,-2676.5637)">
      <path
         inkscape:export-ydpi="57.964222"
         inkscape:export-xdpi="57.964222"
         inkscape:export-filename="/home/dafeba/DCV/tallerD/bocetos/08-09-22-hastaahora.png"
         style="fill:url(#linearGradient99838);fill-opacity:1;fill-rule:evenodd;stroke:none;stroke-width:1;stroke-linecap:round;stroke-linejoin:miter;stroke-miterlimit:4;stroke-dasharray:none;stroke-opacity:1;filter:url(#filter20356)"
         d="M 322.12072,1023.7812 C 320.84804,1023.7812 319.80822,1024.8211 319.80822,1026.0938 C 319.80825,1027.3664 320.84806,1028.4062 322.12072,1028.4062 L 329.55822,1028.4062 L 329.55822,1035.7812 L 329.55822,1035.8125 C 329.50373,1036.662 329.92519,1037.4611 330.65197,1037.9062 C 331.3899,1038.3582 332.32031,1038.3582 333.05822,1037.9062 C 333.78496,1037.4611 334.20644,1036.662 334.15197,1035.8125 C 334.15129,1035.8019 334.1528,1035.7918 334.15197,1035.7812 L 334.15197,1028.4062 L 341.58947,1028.4062 C 342.86214,1028.4062 343.90197,1027.3664 343.90197,1026.0938 C 343.90194,1024.8211 342.86213,1023.7812 341.58947,1023.7812 L 322.12072,1023.7812 z"
         id="path10571"
         sodipodi:nodetypes="csccccssscccscc" />
      <path
         inkscape:export-ydpi="57.964222"
         inkscape:export-xdpi="57.964222"
         inkscape:export-filename="/home/dafeba/DCV/tallerD/bocetos/08-09-22-hastaahora.png"
         id="path10573"
         d="M 336.27437,1012.5637 C 335.3533,1012.6671 334.66071,1013.452 334.67283,1014.3788 L 334.67283,1022.2797 L 326.7363,1022.2797 C 325.73386,1022.2797 324.92122,1023.0924 324.92122,1024.0948 C 324.92122,1025.0973 325.73386,1025.9099 326.7363,1025.9099 L 334.67283,1025.9099 L 334.67283,1033.8108 C 334.62012,1034.4864 334.94915,1035.1296 335.52698,1035.4836 C 336.10484,1035.8375 336.8354,1035.8375 337.41324,1035.4836 C 337.99106,1035.1296 338.32011,1034.4864 338.2674,1033.8108 L 338.2674,1025.9099 L 346.20393,1025.9099 C 347.20637,1025.9099 348.01901,1025.0973 348.01901,1024.0948 C 348.01901,1023.0924 347.20637,1022.2797 346.20393,1022.2797 L 338.2674,1022.2797 L 338.2674,1014.3788 C 338.27381,1013.8637 338.04326,1013.3733 337.66237,1013.0264 C 337.28149,1012.6795 336.78666,1012.5093 336.27437,1012.5637 z"
         style="fill:#c2e3ff;fill-opacity:1;fill-rule:evenodd;stroke:#000000;stroke-width:1;stroke-linecap:round;stroke-linejoin:miter;stroke-miterlimit:4;stroke-dasharray:none;stroke-opacity:1" />
      <path
         inkscape:export-ydpi="57.964222"
         inkscape:export-xdpi="57.964222"
         inkscape:export-filename="/home/dafeba/DCV/tallerD/bocetos/08-09-22-hastaahora.png"
         style="fill:url(#linearGradient99840);fill-opacity:1;fill-rule:evenodd;stroke:none;stroke-width:3.16552567;stroke-linecap:round;stroke-linejoin:miter;stroke-miterlimit:4;stroke-dasharray:none;stroke-opacity:1"
         d="M 336.27437,1012.5637 C 335.3533,1012.6671 334.66071,1013.452 334.67283,1014.3788 L 334.67283,1022.2797 L 326.7363,1022.2797 C 325.73386,1022.2797 324.92122,1023.0924 324.92122,1024.0948 C 324.92122,1025.0973 325.73386,1025.9099 326.7363,1025.9099 L 334.67283,1025.9099 L 334.67283,1033.8108 C 334.62012,1034.4864 334.94915,1035.1296 335.52698,1035.4836 C 336.10484,1035.8375 336.8354,1035.8375 337.41324,1035.4836 C 337.99106,1035.1296 338.32011,1034.4864 338.2674,1033.8108 L 338.2674,1025.9099 L 346.20393,1025.9099 C 347.20637,1025.9099 348.01901,1025.0973 348.01901,1024.0948 C 348.01901,1023.0924 347.20637,1022.2797 346.20393,1022.2797 L 338.2674,1022.2797 L 338.2674,1014.3788 C 338.27381,1013.8637 338.04326,1013.3733 337.66237,1013.0264 C 337.28149,1012.6795 336.78666,1012.5093 336.27437,1012.5637 z"
         id="path10575" />
    </g>
  </g>
</svg>
