<?xml version="1.0" encoding="UTF-8" standalone="no"?>
<!-- Created with Inkscape (http://www.inkscape.org/) -->

<svg
   xmlns:dc="http://purl.org/dc/elements/1.1/"
   xmlns:cc="http://creativecommons.org/ns#"
   xmlns:rdf="http://www.w3.org/1999/02/22-rdf-syntax-ns#"
   xmlns:svg="http://www.w3.org/2000/svg"
   xmlns="http://www.w3.org/2000/svg"
   xmlns:xlink="http://www.w3.org/1999/xlink"
   xmlns:sodipodi="http://sodipodi.sourceforge.net/DTD/sodipodi-0.dtd"
   xmlns:inkscape="http://www.inkscape.org/namespaces/inkscape"
   width="128"
   height="128"
   id="svg2"
   sodipodi:version="0.32"
   inkscape:version="0.48.3.1 r9886"
   version="1.0"
   sodipodi:docname="gtk-print-preview.svg"
   inkscape:output_extension="org.inkscape.output.svg.inkscape">
  <defs
     id="defs4">
    <linearGradient
       y2="1000.8342"
       x2="503.62073"
       y1="969.32477"
       x1="486.89792"
       gradientTransform="matrix(2.6765239,0,0,2.6765239,-1298.8019,-2514.903)"
       gradientUnits="userSpaceOnUse"
       id="linearGradient10901"
       xlink:href="#linearGradient5439"
       inkscape:collect="always" />
    <linearGradient
       y2="1007.3283"
       x2="528.47394"
       y1="955.53271"
       x1="523.25903"
       gradientTransform="matrix(2.6765239,0,0,2.6765239,-1298.8019,-2514.903)"
       gradientUnits="userSpaceOnUse"
       id="linearGradient10903"
       xlink:href="#linearGradient5439"
       inkscape:collect="always" />
    <linearGradient
       y2="992.92078"
       x2="521.13147"
       y1="962.73602"
       x1="518.11029"
       gradientTransform="matrix(2.6765239,0,0,2.6765239,-1298.8019,-2514.903)"
       gradientUnits="userSpaceOnUse"
       id="linearGradient10905"
       xlink:href="#linearGradient5439"
       inkscape:collect="always" />
    <linearGradient
       y2="974.92358"
       x2="490.30273"
       y1="952.63599"
       x1="495.14523"
       gradientTransform="matrix(2.6765239,0,0,2.6765239,-1297.6308,-2515.2376)"
       gradientUnits="userSpaceOnUse"
       id="linearGradient10907"
       xlink:href="#linearGradient5439"
       inkscape:collect="always" />
    <linearGradient
       y2="1001.9598"
       x2="578.43964"
       y1="938.95984"
       x1="460.05701"
       gradientTransform="matrix(2.6765239,0,0,2.6765239,-1297.6308,-2515.2376)"
       gradientUnits="userSpaceOnUse"
       id="linearGradient10909"
       xlink:href="#linearGradient5439"
       inkscape:collect="always" />
    <linearGradient
       y2="321.77481"
       x2="1112.0474"
       y1="264.99054"
       x1="1126.8752"
       gradientTransform="matrix(2.6765239,0,0,2.6765239,-2958.1213,-673.45457)"
       gradientUnits="userSpaceOnUse"
       id="linearGradient10911"
       xlink:href="#linearGradient5439"
       inkscape:collect="always" />
    <linearGradient
       y2="395.60709"
       x2="1152.9561"
       y1="257.92944"
       x1="1123.3315"
       gradientTransform="matrix(2.6765239,0,0,2.6765239,-2958.1213,-673.45457)"
       gradientUnits="userSpaceOnUse"
       id="linearGradient10913"
       xlink:href="#linearGradient5439"
       inkscape:collect="always" />
    <linearGradient
       y2="977.53998"
       x2="516.83636"
       y1="987.91498"
       x1="519.8905"
       gradientTransform="matrix(2.6765239,0,0,2.6765239,-1298.8019,-2514.903)"
       gradientUnits="userSpaceOnUse"
       id="linearGradient10915"
       xlink:href="#linearGradient5362"
       inkscape:collect="always" />
    <linearGradient
       y2="974.76056"
       x2="527.51965"
       y1="987.82306"
       x1="530.70715"
       gradientTransform="matrix(2.6765239,0,0,2.6765239,-1298.8019,-2514.903)"
       gradientUnits="userSpaceOnUse"
       id="linearGradient10917"
       xlink:href="#linearGradient5362"
       inkscape:collect="always" />
    <linearGradient
       y2="981.65393"
       x2="517.81042"
       y1="987.46643"
       x1="521.3006"
       gradientTransform="matrix(2.6765239,0,0,2.6765239,-1298.8019,-2514.903)"
       gradientUnits="userSpaceOnUse"
       id="linearGradient10919"
       xlink:href="#linearGradient5316"
       inkscape:collect="always" />
    <linearGradient
       y2="277.33365"
       x2="1129.6968"
       y1="279.14658"
       x1="1129.8333"
       gradientTransform="matrix(2.6765239,0,0,2.6765239,-2958.1213,-673.45457)"
       gradientUnits="userSpaceOnUse"
       id="linearGradient10921"
       xlink:href="#linearGradient5344"
       inkscape:collect="always" />
    <linearGradient
       y2="986.15393"
       x2="521.81042"
       y1="971.34143"
       x1="510.8006"
       gradientTransform="matrix(2.6765239,0,0,2.6765239,-1298.8019,-2514.903)"
       gradientUnits="userSpaceOnUse"
       id="linearGradient10923"
       xlink:href="#linearGradient5344"
       inkscape:collect="always" />
    <linearGradient
       y2="52.357536"
       x2="1172.1902"
       y1="99.328629"
       x1="1172.1902"
       gradientTransform="matrix(2.6765239,0,0,2.6765239,-3065.1822,-138.14979)"
       gradientUnits="userSpaceOnUse"
       id="linearGradient10925"
       xlink:href="#linearGradient9863"
       inkscape:collect="always" />
    <linearGradient
       gradientTransform="matrix(2.6765239,0,0,2.6765239,-3124.0657,-834.04601)"
       gradientUnits="userSpaceOnUse"
       y2="344.66345"
       x2="1183.4896"
       y1="290.34167"
       x1="1240.4443"
       id="linearGradient9477"
       xlink:href="#linearGradient5344"
       inkscape:collect="always" />
    <linearGradient
       gradientTransform="matrix(3.0367227,0,0,3.0366713,-3560.7519,-946.19354)"
       gradientUnits="userSpaceOnUse"
       y2="327.61548"
       x2="1203.3486"
       y1="321.07474"
       x1="1196.1906"
       id="linearGradient9473"
       xlink:href="#linearGradient5316"
       inkscape:collect="always" />
    <linearGradient
       gradientUnits="userSpaceOnUse"
       y2="379.125"
       x2="841.96875"
       y1="354.75"
       x1="815.53125"
       id="linearGradient7106"
       xlink:href="#linearGradient5439"
       inkscape:collect="always"
       gradientTransform="matrix(2.6765239,0,0,2.6765239,-2101.6336,-941.10696)" />
    <linearGradient
       gradientUnits="userSpaceOnUse"
       y2="316.06638"
       x2="1202.3015"
       y1="306.77557"
       x1="1194.4072"
       id="linearGradient9471"
       xlink:href="#linearGradient12594"
       inkscape:collect="always" />
    <linearGradient
       id="linearGradient12594">
      <stop
         id="stop12596"
         offset="0"
         style="stop-color:#e9b551;stop-opacity:1;" />
      <stop
         id="stop12598"
         offset="1"
         style="stop-color:#e9b551;stop-opacity:0;" />
    </linearGradient>
    <linearGradient
       id="linearGradient5316">
      <stop
         style="stop-color:#c0bfbb;stop-opacity:1;"
         offset="0"
         id="stop5320" />
      <stop
         style="stop-color:#798088;stop-opacity:1;"
         offset="1"
         id="stop5322" />
    </linearGradient>
    <linearGradient
       id="linearGradient9863">
      <stop
         style="stop-color:#2f445a;stop-opacity:1;"
         offset="0"
         id="stop9865" />
      <stop
         style="stop-color:#415f7c;stop-opacity:1"
         offset="1"
         id="stop9867" />
    </linearGradient>
    <linearGradient
       id="linearGradient5362">
      <stop
         style="stop-color:#ffffff;stop-opacity:1;"
         offset="0"
         id="stop5364" />
      <stop
         style="stop-color:#ffffff;stop-opacity:0;"
         offset="1"
         id="stop5366" />
    </linearGradient>
    <linearGradient
       id="linearGradient5439">
      <stop
         style="stop-color:#ffffff;stop-opacity:1;"
         offset="0"
         id="stop5441" />
      <stop
         style="stop-color:#000000;stop-opacity:1;"
         offset="1"
         id="stop5443" />
    </linearGradient>
    <linearGradient
       id="linearGradient5344">
      <stop
         style="stop-color:#000000;stop-opacity:1;"
         offset="0"
         id="stop5346" />
      <stop
         style="stop-color:#000000;stop-opacity:0;"
         offset="1"
         id="stop5348" />
    </linearGradient>
  </defs>
  <sodipodi:namedview
     id="base"
     pagecolor="#ffffff"
     bordercolor="#666666"
     borderopacity="1.0"
     inkscape:pageopacity="0.0"
     inkscape:pageshadow="2"
     inkscape:zoom="2.5020702"
     inkscape:cx="47.34663"
     inkscape:cy="73.579118"
     inkscape:document-units="px"
     inkscape:current-layer="layer1"
     showgrid="false"
     inkscape:showpageshadow="false"
     inkscape:window-width="1024"
     inkscape:window-height="713"
     inkscape:window-x="0"
     inkscape:window-y="0"
     showguides="true"
     inkscape:guide-bbox="true"
     inkscape:window-maximized="0" />
  <metadata
     id="metadata7">
    <rdf:RDF>
      <cc:Work
         rdf:about="">
        <dc:format>image/svg+xml</dc:format>
        <dc:type
           rdf:resource="http://purl.org/dc/dcmitype/StillImage" />
      </cc:Work>
    </rdf:RDF>
  </metadata>
  <g
     inkscape:label="Capa 1"
     inkscape:groupmode="layer"
     id="layer1">
    <path
       style="fill:url(#linearGradient10901);fill-rule:evenodd;stroke:none;stroke-width:1px;stroke-linecap:butt;stroke-linejoin:miter;stroke-opacity:1;display:inline"
       d="M 6.9119043,73.328359 C 20.377496,75.650431 31.749242,85.45047 31.805985,92.638516 L 31.687682,125.99539 L 1.6428993,117.9519 L 1.6428993,83.883793 C 1.9212578,76.695881 4.6481004,74.840408 6.9119043,73.328359 z"
       id="path10871"
       sodipodi:nodetypes="cccccc"
       inkscape:export-filename="/home/dafeba/DCV/tallerD/bocetos/08-09-22-hastaahora.png"
       inkscape:export-xdpi="57.964222"
       inkscape:export-ydpi="57.964222" />
    <path
       sodipodi:nodetypes="cccccc"
       id="path10873"
       d="M 126.55359,83.175585 L 126.37828,82.33877 L 31.451078,92.401938 L 31.5204,125.99539 L 126.55359,110.14496 L 126.55359,83.175585 z"
       style="fill:url(#linearGradient10903);fill-rule:evenodd;stroke:none;stroke-width:1px;stroke-linecap:butt;stroke-linejoin:miter;stroke-opacity:1;display:inline"
       inkscape:export-filename="/home/dafeba/DCV/tallerD/bocetos/08-09-22-hastaahora.png"
       inkscape:export-xdpi="57.964222"
       inkscape:export-ydpi="57.964222" />
    <path
       style="fill:url(#linearGradient10905);fill-rule:evenodd;stroke:none;stroke-width:1px;stroke-linecap:butt;stroke-linejoin:miter;stroke-opacity:1;display:inline"
       d="M 126.55359,83.175585 L 31.451078,92.638516 C 31.451078,83.667129 12.813372,75.153588 6.8286644,73.393693 C 8.7340818,72.398454 10.828462,72.191051 12.943719,72.055913 L 99.185333,67.01931 C 116.47059,68.566502 126.52549,74.453088 126.55359,83.175585 z"
       id="path10875"
       sodipodi:nodetypes="cccccc"
       inkscape:export-filename="/home/dafeba/DCV/tallerD/bocetos/08-09-22-hastaahora.png"
       inkscape:export-xdpi="57.964222"
       inkscape:export-ydpi="57.964222" />
    <path
       style="fill:#000000;fill-rule:evenodd;stroke:none;stroke-width:1px;stroke-linecap:butt;stroke-linejoin:miter;stroke-opacity:1;display:inline"
       d="M 43.516312,123.62966 C 43.645856,109.29549 44.849221,100.13359 50.377046,99.262564 L 112.35918,91.928808 C 119.04273,91.08027 118.98331,98.271474 118.98331,111.32783 L 43.516312,123.62966 z"
       id="path10877"
       sodipodi:nodetypes="ccccc"
       inkscape:export-filename="/home/dafeba/DCV/tallerD/bocetos/08-09-22-hastaahora.png"
       inkscape:export-xdpi="57.964222"
       inkscape:export-ydpi="57.964222" />
    <path
       style="fill:#1a1a1a;fill-rule:evenodd;stroke:none;stroke-width:1px;stroke-linecap:butt;stroke-linejoin:miter;stroke-opacity:1;display:inline"
       d="M 18.471276,71.765885 C 21.134417,72.150421 22.872819,73.376162 24.279065,74.515906 L 98.068152,69.03021 C 96.175582,68.055848 93.766443,67.633332 91.44322,67.531865 L 18.471276,71.765885 z"
       id="path10879"
       sodipodi:nodetypes="ccccc"
       inkscape:export-filename="/home/dafeba/DCV/tallerD/bocetos/08-09-22-hastaahora.png"
       inkscape:export-xdpi="57.964222"
       inkscape:export-ydpi="57.964222" />
    <path
       style="fill:url(#linearGradient10907);fill-rule:evenodd;stroke:none;stroke-width:1px;stroke-linecap:butt;stroke-linejoin:miter;stroke-opacity:1;display:inline"
       d="M 22.588037,71.717145 L 20.793428,48.537859 L 86.56017,46.116569 L 88.13798,46.489061 L 89.065128,68.087377 L 24.151395,72.845407 L 22.588037,71.717145 z"
       id="path10881"
       sodipodi:nodetypes="ccccccc"
       inkscape:export-filename="/home/dafeba/DCV/tallerD/bocetos/08-09-22-hastaahora.png"
       inkscape:export-xdpi="57.964222"
       inkscape:export-ydpi="57.964222" />
    <path
       sodipodi:nodetypes="ccccc"
       id="path10883"
       d="M 24.093582,72.888124 L 22.047915,48.956066 L 88.170366,46.472038 L 90.319883,68.505584 L 24.093582,72.888124 z"
       style="fill:url(#linearGradient10909);fill-rule:evenodd;stroke:none;stroke-width:1px;stroke-linecap:butt;stroke-linejoin:miter;stroke-opacity:1;display:inline"
       inkscape:export-filename="/home/dafeba/DCV/tallerD/bocetos/08-09-22-hastaahora.png"
       inkscape:export-xdpi="57.964222"
       inkscape:export-ydpi="57.964222" />
    <path
       sodipodi:nodetypes="ccccccc"
       id="path10885"
       d="M 32.783719,73.859221 L 27.705818,18.405312 L 30.424095,16.873056 L 73.557884,18.692048 L 81.228802,70.228195 L 35.838971,73.685434 L 32.783719,73.859221 z"
       style="fill:url(#linearGradient10911);fill-rule:evenodd;stroke:none;stroke-width:1px;stroke-linecap:butt;stroke-linejoin:miter;stroke-opacity:1;display:inline"
       inkscape:export-filename="/home/dafeba/DCV/tallerD/bocetos/08-09-22-hastaahora.png"
       inkscape:export-xdpi="57.964222"
       inkscape:export-ydpi="57.964222" />
    <path
       style="fill:url(#linearGradient10913);fill-rule:evenodd;stroke:none;stroke-width:1px;stroke-linecap:butt;stroke-linejoin:miter;stroke-opacity:1;display:inline"
       d="M 35.54375,73.650131 L 30.716907,16.899768 L 76.736256,18.524766 L 81.897933,70.228195 L 35.54375,73.650131 z"
       id="path10887"
       sodipodi:nodetypes="ccccc"
       inkscape:export-filename="/home/dafeba/DCV/tallerD/bocetos/08-09-22-hastaahora.png"
       inkscape:export-xdpi="57.964222"
       inkscape:export-ydpi="57.964222" />
    <path
       sodipodi:nodetypes="ccccc"
       id="path10889"
       d="M 43.516312,123.62966 C 43.537992,121.22917 43.589917,118.97372 43.687074,116.87797 L 107.00614,107.4861 L 118.98331,111.32783 L 43.516312,123.62966 z"
       style="fill:url(#linearGradient10915);fill-rule:evenodd;stroke:none;stroke-width:1px;stroke-linecap:butt;stroke-linejoin:miter;stroke-opacity:1;display:inline"
       inkscape:export-filename="/home/dafeba/DCV/tallerD/bocetos/08-09-22-hastaahora.png"
       inkscape:export-xdpi="57.964222"
       inkscape:export-ydpi="57.964222" />
    <path
       sodipodi:nodetypes="ccccc"
       id="path10891"
       d="M 107.25104,107.57052 L 107.50049,92.503699 L 112.35918,91.928808 C 119.04273,91.08027 118.98331,98.271474 118.98331,111.32783 L 107.25104,107.57052 z"
       style="fill:url(#linearGradient10917);fill-rule:evenodd;stroke:none;stroke-width:1px;stroke-linecap:butt;stroke-linejoin:miter;stroke-opacity:1;display:inline"
       inkscape:export-filename="/home/dafeba/DCV/tallerD/bocetos/08-09-22-hastaahora.png"
       inkscape:export-xdpi="57.964222"
       inkscape:export-ydpi="57.964222" />
    <path
       style="fill:url(#linearGradient10919);fill-opacity:1;fill-rule:evenodd;stroke:none;stroke-width:1px;stroke-linecap:butt;stroke-linejoin:miter;stroke-opacity:1;display:inline"
       d="M 122.88328,115.015 C 127.57361,116.28863 121.97406,121.42019 115.9195,123.44509 C 108.38107,125.92393 86.374151,127.72461 78.407478,124.71451 L 49.632437,115.88407 L 100.50754,108.44762 L 122.88328,115.015 z"
       id="path10893"
       sodipodi:nodetypes="cccccc"
       inkscape:export-filename="/home/dafeba/DCV/tallerD/bocetos/08-09-22-hastaahora.png"
       inkscape:export-xdpi="57.964222"
       inkscape:export-ydpi="57.964222" />
    <path
       sodipodi:nodetypes="ccccc"
       id="path10895"
       d="M 18.471276,71.765885 C 21.134417,72.150421 22.872819,73.376162 24.279065,74.515906 L 98.068152,69.03021 C 96.175582,68.055848 91.873873,67.0419 89.55065,66.940433 L 18.471276,71.765885 z"
       style="fill:url(#linearGradient10921);fill-rule:evenodd;stroke:none;stroke-width:1px;stroke-linecap:butt;stroke-linejoin:miter;stroke-opacity:1;display:inline"
       inkscape:export-filename="/home/dafeba/DCV/tallerD/bocetos/08-09-22-hastaahora.png"
       inkscape:export-xdpi="57.964222"
       inkscape:export-ydpi="57.964222" />
    <path
       inkscape:export-ydpi="57.964222"
       inkscape:export-xdpi="57.964222"
       inkscape:export-filename="/home/dafeba/DCV/tallerD/bocetos/08-09-22-hastaahora.png"
       sodipodi:nodetypes="cccccc"
       id="path10897"
       d="M 122.88328,115.015 C 127.57361,116.28863 121.97406,121.42019 115.9195,123.44509 C 108.38107,125.92393 86.374151,127.72461 78.407478,124.71451 L 49.632437,115.88407 L 100.50754,108.44762 L 122.88328,115.015 z"
       style="fill:url(#linearGradient10923);fill-opacity:1;fill-rule:evenodd;stroke:none;stroke-width:1px;stroke-linecap:butt;stroke-linejoin:miter;stroke-opacity:1;display:inline" />
    <path
       style="fill:none;fill-rule:evenodd;stroke:url(#linearGradient10925);stroke-width:2.67652392;stroke-linecap:round;stroke-linejoin:round;stroke-miterlimit:4;stroke-dasharray:none;stroke-opacity:1;display:inline"
       d="M 30.426772,16.837538 L 27.666741,18.426858 L 30.426772,48.203187 L 20.808149,48.537752 L 22.564484,71.455488 L 12.94586,72.040844 C 10.830603,72.176009 8.7453232,72.383707 6.8399058,73.379106 C 4.5945699,74.881171 1.9290197,76.825131 1.6541407,83.918187 L 1.6541407,117.96009 L 31.514244,125.98966 L 64.636227,120.46933 L 78.43692,124.73518 C 86.403593,127.74519 108.37009,125.95915 115.90825,123.48042 C 121.96309,121.45563 127.54095,116.30627 122.85062,115.03278 L 113.65007,112.35625 L 126.35339,110.21089 L 126.41254,83.194856 C 126.38417,74.472332 116.46524,68.569393 99.17998,67.022362 L 91.29494,67.406202 L 88.612528,45.382264 L 80.234205,45.594218 L 76.764092,18.510366 L 39.627323,17.255879 L 30.426772,16.837538 z"
       id="path10899"
       inkscape:export-filename="/home/dafeba/DCV/tallerD/bocetos/08-09-22-hastaahora.png"
       inkscape:export-xdpi="57.964222"
       inkscape:export-ydpi="57.964222"
       sodipodi:nodetypes="cccccccccccccccccccccccc" />
    <path
       inkscape:export-ydpi="57.964222"
       inkscape:export-xdpi="57.964222"
       inkscape:export-filename="/home/dafeba/DCV/tallerD/bocetos/08-09-22-hastaahora.png"
       id="path9475"
       d="M 91.876281,9.811342 C 80.063711,9.811342 70.429563,19.350313 70.429563,31.162937 C 70.429563,34.932339 71.468322,38.524502 73.181565,41.601487 L 67.772578,47.010555 C 66.75764,48.025225 66.229026,49.387495 66.254186,50.711491 L 53.940302,62.762781 C 52.526562,64.176655 52.526027,66.4733 53.940302,67.887173 L 55.458694,69.405512 C 56.872434,70.819386 59.169159,70.819359 60.582899,69.405512 L 72.802034,57.354222 C 74.157158,57.405665 75.464104,56.875071 76.503131,55.835884 L 82.101884,50.237024 C 85.025986,51.737082 88.36602,52.609414 91.876281,52.609414 C 103.68912,52.609414 113.22825,42.975588 113.22825,31.162937 C 113.22825,19.350313 103.68939,9.811342 91.876281,9.811342 z"
       style="fill:url(#linearGradient9477);fill-opacity:1;stroke:none;stroke-width:0.49999997;stroke-linecap:round;stroke-linejoin:round;stroke-miterlimit:4;stroke-dasharray:none;stroke-opacity:1;display:inline"
       sodipodi:nodetypes="csccccccccccssc" />
    <path
       inkscape:export-ydpi="57.964222"
       inkscape:export-xdpi="57.964222"
       inkscape:export-filename="/home/dafeba/DCV/tallerD/bocetos/08-09-22-hastaahora.png"
       sodipodi:nodetypes="csccccccccccssccssssc"
       id="rect9460"
       d="M 98.97362,1.0581453 C 87.161317,1.0581453 77.527169,10.597116 77.527169,22.40974 C 77.527169,26.179169 78.56566,29.771305 80.279171,32.84829 L 74.870184,38.257358 C 73.855246,39.272055 73.326097,40.634298 73.351792,41.958321 L 61.079662,53.967777 C 59.665654,55.381651 59.665119,57.678269 61.079662,59.092143 L 62.598054,60.610481 C 64.011526,62.024355 66.308787,62.024328 67.722259,60.610481 L 79.899372,48.601025 C 81.254764,48.652468 82.561175,48.121874 83.600737,47.082687 L 89.19949,41.483827 C 92.123592,42.983885 95.463894,43.856244 98.97362,43.856244 C 110.78673,43.856244 120.32586,34.222391 120.32586,22.40974 C 120.32586,10.597116 110.78726,1.0581453 98.97362,1.0581453 z M 97.265998,6.1825377 C 97.813614,6.1268124 98.411282,6.1825377 98.97362,6.1825377 C 107.97664,6.1825644 115.29613,13.407172 115.29613,22.40974 C 115.29613,31.412309 107.97664,38.731852 98.97362,38.731852 C 89.971132,38.731825 82.651374,31.412309 82.651374,22.40974 C 82.651642,13.96983 89.044787,7.0182287 97.265998,6.1825377 z"
       style="fill:url(#linearGradient9473);fill-opacity:1;stroke:none;stroke-width:0.5;stroke-linecap:round;stroke-linejoin:round;stroke-miterlimit:4;stroke-dasharray:none;stroke-opacity:1;display:inline" />
    <path
       inkscape:export-ydpi="57.964222"
       inkscape:export-xdpi="57.964222"
       inkscape:export-filename="/home/dafeba/DCV/tallerD/bocetos/08-09-22-hastaahora.png"
       id="path7088"
       d="M 98.970943,0.94581159 C 87.105618,0.94581159 77.475164,10.57656 77.475111,22.441644 C 77.475111,34.306755 87.105645,43.937504 98.970943,43.937477 C 110.83627,43.937477 120.46672,34.306782 120.46678,22.441644 C 120.46678,10.576533 110.83627,0.94583835 98.970943,0.94581159 z M 98.970943,6.1315767 C 107.97367,6.1316034 115.28101,13.439076 115.28101,22.441644 C 115.28106,31.444239 107.97367,38.751712 98.970943,38.751712 C 89.968241,38.751739 82.660876,31.444213 82.660876,22.441644 C 82.660849,13.439103 89.968214,6.1315767 98.970943,6.1315767 z"
       style="fill:url(#linearGradient7106);fill-opacity:1;stroke:none;stroke-width:0.627451;stroke-linecap:round;stroke-linejoin:round;stroke-miterlimit:4;stroke-dasharray:none;stroke-opacity:1;display:inline" />
    <path
       inkscape:export-ydpi="57.964222"
       inkscape:export-xdpi="57.964222"
       inkscape:export-filename="/home/dafeba/DCV/tallerD/bocetos/08-09-22-hastaahora.png"
       sodipodi:nodetypes="csccccccccccssc"
       style="fill:none;fill-opacity:1;stroke:#000000;stroke-width:1.33826184;stroke-linecap:round;stroke-linejoin:round;stroke-miterlimit:4;stroke-dasharray:none;stroke-opacity:1;display:inline"
       d="M 98.97362,1.0581185 C 87.161049,1.0581185 77.526901,10.597089 77.526901,22.409713 C 77.526901,26.179115 78.56566,29.771278 80.278903,32.848264 L 74.869916,38.257331 C 73.854978,39.272001 73.326365,40.634272 73.351524,41.958268 L 61.037641,54.009557 C 59.623901,55.423431 59.623365,57.720076 61.037641,59.13395 L 62.556033,60.652288 C 63.969773,62.066162 66.266498,62.066135 67.680238,60.652288 L 79.899372,48.600999 C 81.254496,48.652441 82.561443,48.121847 83.600469,47.08266 L 89.199222,41.4838 C 92.123325,42.983858 95.463359,43.856191 98.97362,43.856191 C 110.78646,43.856191 120.32559,34.222364 120.32559,22.409713 C 120.32559,10.597089 110.78673,1.0581185 98.97362,1.0581185 z"
       id="path9468" />
    <path
       inkscape:export-ydpi="57.964222"
       inkscape:export-xdpi="57.964222"
       inkscape:export-filename="/home/dafeba/DCV/tallerD/bocetos/08-09-22-hastaahora.png"
       transform="matrix(2.5455699,0,0,2.5455268,-2955.4686,-778.79517)"
       d="M 1206.3041,314.76477 A 6.4069266,6.4069266 0 1 1 1193.4903,314.76477 A 6.4069266,6.4069266 0 1 1 1206.3041,314.76477 z"
       sodipodi:ry="6.4069266"
       sodipodi:rx="6.4069266"
       sodipodi:cy="314.76477"
       sodipodi:cx="1199.8972"
       id="path9464"
       style="fill:url(#linearGradient9471);fill-opacity:1;stroke:none;stroke-width:0.627451;stroke-linecap:round;stroke-linejoin:round;stroke-miterlimit:4;stroke-dasharray:none;stroke-opacity:1;display:inline"
       sodipodi:type="arc" />
  </g>
</svg>
