<?xml version="1.0" encoding="UTF-8" standalone="no"?>
<!-- Created with Inkscape (http://www.inkscape.org/) -->
<svg
   xmlns:dc="http://purl.org/dc/elements/1.1/"
   xmlns:cc="http://creativecommons.org/ns#"
   xmlns:rdf="http://www.w3.org/1999/02/22-rdf-syntax-ns#"
   xmlns:svg="http://www.w3.org/2000/svg"
   xmlns="http://www.w3.org/2000/svg"
   xmlns:xlink="http://www.w3.org/1999/xlink"
   xmlns:sodipodi="http://sodipodi.sourceforge.net/DTD/sodipodi-0.dtd"
   xmlns:inkscape="http://www.inkscape.org/namespaces/inkscape"
   width="128"
   height="128"
   id="svg2"
   sodipodi:version="0.32"
   inkscape:version="0.46"
   version="1.0"
   sodipodi:docname="gtk-convert.svg"
   inkscape:output_extension="org.inkscape.output.svg.inkscape">
  <defs
     id="defs4">
    <linearGradient
       inkscape:collect="always"
       xlink:href="#linearGradient8702"
       id="linearGradient9755"
       gradientUnits="userSpaceOnUse"
       gradientTransform="matrix(2.6666667,0,0,2.6666667,-1291.1633,-2506.2874)"
       x1="495.37997"
       y1="945.61487"
       x2="500.93387"
       y2="969.61194" />
    <linearGradient
       inkscape:collect="always"
       xlink:href="#linearGradient5362"
       id="linearGradient9757"
       gradientUnits="userSpaceOnUse"
       gradientTransform="matrix(2.6666667,0,0,2.6666667,-1283.3389,-2665.1696)"
       x1="487.07755"
       y1="995.86676"
       x2="506.40234"
       y2="1029.9624" />
    <linearGradient
       inkscape:collect="always"
       xlink:href="#linearGradient8702"
       id="linearGradient9759"
       gradientUnits="userSpaceOnUse"
       gradientTransform="matrix(2.6666667,0,0,2.6666667,-1283.3389,-2505.1696)"
       x1="495.37997"
       y1="944.67175"
       x2="518.74829"
       y2="979.04309" />
    <linearGradient
       inkscape:collect="always"
       xlink:href="#linearGradient5316"
       id="linearGradient9761"
       gradientUnits="userSpaceOnUse"
       gradientTransform="matrix(2.6666667,0,0,2.6666667,-1283.3389,-2505.1696)"
       x1="511.39841"
       y1="948.43909"
       x2="510.04541"
       y2="982.3913" />
    <linearGradient
       inkscape:collect="always"
       xlink:href="#linearGradient5362"
       id="linearGradient9763"
       gradientUnits="userSpaceOnUse"
       gradientTransform="matrix(2.6666667,0,0,2.6666667,-1283.3389,-2665.1696)"
       x1="511.00061"
       y1="995.77911"
       x2="527.11444"
       y2="1030.3601" />
    <linearGradient
       inkscape:collect="always"
       xlink:href="#linearGradient5316"
       id="linearGradient9765"
       gradientUnits="userSpaceOnUse"
       gradientTransform="matrix(2.6666667,0,0,2.6666667,-1283.3389,-2505.1696)"
       x1="492.74567"
       y1="945.50494"
       x2="524.72339"
       y2="983.96704" />
    <linearGradient
       inkscape:collect="always"
       xlink:href="#linearGradient9863"
       id="linearGradient9767"
       gradientUnits="userSpaceOnUse"
       gradientTransform="matrix(2.6666667,0,0,2.6666667,-910.00556,-2291.8363)"
       x1="370.23785"
       y1="907.04321"
       x2="370.23785"
       y2="858.64172" />
    <linearGradient
       id="linearGradient583"
       inkscape:collect="always">
      <stop
         id="stop584"
         offset="0"
         style="stop-color:#000000;stop-opacity:1;" />
      <stop
         id="stop585"
         offset="1"
         style="stop-color:#000000;stop-opacity:0;" />
    </linearGradient>
    <linearGradient
       inkscape:collect="always"
       xlink:href="#linearGradient583"
       id="linearGradient9786"
       x1="539.3623"
       y1="1024.0978"
       x2="515.49548"
       y2="958.86719"
       gradientUnits="userSpaceOnUse"
       gradientTransform="matrix(2.6666667,0,0,2.6666667,-1294.0056,-2505.1696)" />
    <linearGradient
       y2="637.52454"
       x2="518.86896"
       y1="661.19366"
       x1="513.96362"
       gradientTransform="translate(-296.48677,-601.99164)"
       gradientUnits="userSpaceOnUse"
       id="linearGradient10430"
       xlink:href="#linearGradient5344"
       inkscape:collect="always" />
    <linearGradient
       y2="643.21948"
       x2="516.5"
       y1="647.79089"
       x1="519.95825"
       gradientTransform="translate(-296.48677,-601.99164)"
       gradientUnits="userSpaceOnUse"
       id="linearGradient10427"
       xlink:href="#linearGradient5316"
       inkscape:collect="always" />
    <linearGradient
       y2="650.17572"
       x2="519.57452"
       y1="632.9248"
       x1="512.30157"
       gradientTransform="translate(-296.48677,-601.99164)"
       gradientUnits="userSpaceOnUse"
       id="linearGradient10424"
       xlink:href="#linearGradient5344"
       inkscape:collect="always" />
    <linearGradient
       y2="643.65698"
       x2="524.125"
       y1="667.56323"
       x1="526.0625"
       gradientTransform="translate(-296.48677,-601.99164)"
       gradientUnits="userSpaceOnUse"
       id="linearGradient10419"
       xlink:href="#linearGradient5344"
       inkscape:collect="always" />
    <linearGradient
       y2="646.90363"
       x2="503.55746"
       y1="636.31903"
       x1="506.66599"
       gradientTransform="matrix(2.6406961,0,0,2.6406961,-1283.1083,-1664.9387)"
       gradientUnits="userSpaceOnUse"
       id="linearGradient6540"
       xlink:href="#linearGradient5344"
       inkscape:collect="always" />
    <linearGradient
       y2="645.41931"
       x2="501.48886"
       y1="636.98193"
       x1="506.95987"
       gradientTransform="matrix(2.6406961,0,0,2.6406961,-1268.2544,-1664.6086)"
       gradientUnits="userSpaceOnUse"
       id="linearGradient6538"
       xlink:href="#linearGradient5165-9"
       inkscape:collect="always" />
    <filter
       id="filter20342"
       inkscape:collect="always">
      <feGaussianBlur
         id="feGaussianBlur20344"
         stdDeviation="0.5439693"
         inkscape:collect="always" />
    </filter>
    <linearGradient
       y2="399.89111"
       x2="628.88568"
       y1="338.36591"
       x1="661.80859"
       gradientTransform="translate(-416.59922,-341.99164)"
       gradientUnits="userSpaceOnUse"
       id="linearGradient10161"
       xlink:href="#linearGradient5344"
       inkscape:collect="always" />
    <linearGradient
       y2="672.06232"
       x2="536.1507"
       y1="635.96948"
       x1="515.3125"
       gradientTransform="matrix(2.6406961,0,0,2.6406961,-1268.2544,-1664.6086)"
       gradientUnits="userSpaceOnUse"
       id="linearGradient6544"
       xlink:href="#linearGradient5439"
       inkscape:collect="always" />
    <linearGradient
       inkscape:collect="always"
       xlink:href="#linearGradient5362"
       id="linearGradient15513"
       gradientUnits="userSpaceOnUse"
       gradientTransform="matrix(2.6666667,0,0,2.6666667,-1293.8382,-1683.1224)"
       x1="504.91962"
       y1="635.44617"
       x2="504.48212"
       y2="641.10242" />
    <linearGradient
       inkscape:collect="always"
       xlink:href="#linearGradient5344"
       id="linearGradient15517"
       gradientUnits="userSpaceOnUse"
       gradientTransform="matrix(2.6666667,0,0,2.6666667,-1293.8382,-1683.1224)"
       x1="519.31262"
       y1="723.67017"
       x2="511.42725"
       y2="667.20789" />
    <linearGradient
       inkscape:collect="always"
       xlink:href="#linearGradient9863"
       id="linearGradient15519"
       gradientUnits="userSpaceOnUse"
       gradientTransform="matrix(2.6666667,0,0,2.6666667,-2413.8382,-1096.6224)"
       x1="927.93488"
       y1="459.10907"
       x2="927.93488"
       y2="410.98141" />
    <linearGradient
       inkscape:collect="always"
       xlink:href="#linearGradient5344"
       id="linearGradient15566"
       gradientUnits="userSpaceOnUse"
       gradientTransform="matrix(2.6666667,0,0,2.6666667,-1133.8382,-1417.1628)"
       x1="533.94769"
       y1="471.7771"
       x2="436.88516"
       y2="567.9021" />
    <linearGradient
       inkscape:collect="always"
       xlink:href="#linearGradient5398"
       id="linearGradient15529"
       gradientUnits="userSpaceOnUse"
       gradientTransform="matrix(1.6284723,0,0,1.6284723,47.012348,2.3646147)"
       x1="43.787846"
       y1="2.7217839"
       x2="-13.959496"
       y2="60.469124" />
    <linearGradient
       inkscape:collect="always"
       xlink:href="#linearGradient5439"
       id="linearGradient15562"
       gradientUnits="userSpaceOnUse"
       gradientTransform="matrix(2.6666667,0,0,2.6666667,-1134.9597,-1416.4558)"
       x1="457.89578"
       y1="539.88666"
       x2="457.89578"
       y2="569.06531" />
    <linearGradient
       inkscape:collect="always"
       xlink:href="#linearGradient5439"
       id="linearGradient15559"
       gradientUnits="userSpaceOnUse"
       x1="459.76584"
       y1="546.18964"
       x2="459.76584"
       y2="583.90106"
       gradientTransform="matrix(2.6666667,0,0,2.6666667,-1134.3706,-1416.4558)" />
    <linearGradient
       id="linearGradient4508">
      <stop
         offset="0"
         style="stop-color:#75aadb;stop-opacity:1"
         id="stop4510" />
      <stop
         offset="1"
         style="stop-color:#5a83a9;stop-opacity:1"
         id="stop4512" />
    </linearGradient>
    <linearGradient
       inkscape:collect="always"
       xlink:href="#linearGradient4508"
       id="linearGradient15556"
       gradientUnits="userSpaceOnUse"
       gradientTransform="matrix(2.6666667,0,0,2.6666667,-1134.3706,-1414.3934)"
       x1="456.31311"
       y1="551.46545"
       x2="456.31311"
       y2="554.8988" />
    <linearGradient
       id="linearGradient12578">
      <stop
         id="stop12580"
         offset="0"
         style="stop-color:#e9b551;stop-opacity:1;" />
      <stop
         id="stop12582"
         offset="1"
         style="stop-color:#b48739;stop-opacity:1;" />
    </linearGradient>
    <linearGradient
       id="linearGradient5165-9">
      <stop
         offset="0"
         style="stop-color:#ffffff;stop-opacity:1"
         id="stop5167-6" />
      <stop
         offset="1"
         style="stop-color:#ffffff;stop-opacity:0"
         id="stop5169-7" />
    </linearGradient>
    <linearGradient
       id="linearGradient9121">
      <stop
         style="stop-color:#2f445a;stop-opacity:1"
         offset="0"
         id="stop9123" />
      <stop
         style="stop-color:#415f7c;stop-opacity:1"
         offset="1"
         id="stop9125" />
    </linearGradient>
    <linearGradient
       id="linearGradient12594">
      <stop
         id="stop12596"
         offset="0"
         style="stop-color:#e9b551;stop-opacity:1;" />
      <stop
         id="stop12598"
         offset="1"
         style="stop-color:#e9b551;stop-opacity:0;" />
    </linearGradient>
    <linearGradient
       id="linearGradient5316">
      <stop
         style="stop-color:#87c7ff;stop-opacity:1;"
         offset="0"
         id="stop5320" />
      <stop
         style="stop-color:#74aadb;stop-opacity:1;"
         offset="1"
         id="stop5322" />
    </linearGradient>
    <linearGradient
       id="linearGradient9863">
      <stop
         style="stop-color:#2f445a;stop-opacity:1;"
         offset="0"
         id="stop9865" />
      <stop
         style="stop-color:#415f7c;stop-opacity:1"
         offset="1"
         id="stop9867" />
    </linearGradient>
    <linearGradient
       id="linearGradient12336">
      <stop
         id="stop12338"
         offset="0"
         style="stop-color:#ff6e00;stop-opacity:1;" />
      <stop
         id="stop12340"
         offset="1"
         style="stop-color:#eb2600;stop-opacity:1;" />
    </linearGradient>
    <linearGradient
       id="linearGradient5362">
      <stop
         style="stop-color:#ffffff;stop-opacity:1;"
         offset="0"
         id="stop5364" />
      <stop
         style="stop-color:#ffffff;stop-opacity:0;"
         offset="1"
         id="stop5366" />
    </linearGradient>
    <linearGradient
       id="linearGradient5439">
      <stop
         style="stop-color:#ffffff;stop-opacity:1;"
         offset="0"
         id="stop5441" />
      <stop
         style="stop-color:#000000;stop-opacity:1;"
         offset="1"
         id="stop5443" />
    </linearGradient>
    <linearGradient
       inkscape:collect="always"
       xlink:href="#linearGradient5439"
       id="linearGradient13309"
       gradientUnits="userSpaceOnUse"
       x1="499.90704"
       y1="953.39532"
       x2="652.75177"
       y2="1116.9413"
       gradientTransform="matrix(2.6765239,0,0,2.6765239,-1298.6765,-2514.903)" />
    <linearGradient
       inkscape:collect="always"
       id="linearGradient5398">
      <stop
         style="stop-color:#87c6ff;stop-opacity:1;"
         offset="0"
         id="stop5400" />
      <stop
         style="stop-color:#87c6ff;stop-opacity:0"
         offset="1"
         id="stop5402" />
    </linearGradient>
    <linearGradient
       inkscape:collect="always"
       xlink:href="#linearGradient5398"
       id="linearGradient13322"
       gradientUnits="userSpaceOnUse"
       x1="500.87799"
       y1="948.11993"
       x2="500.87799"
       y2="953.17468"
       gradientTransform="matrix(2.6765239,0,0,2.6765239,-1298.6765,-2514.903)" />
    <linearGradient
       id="linearGradient5344">
      <stop
         style="stop-color:#000000;stop-opacity:1;"
         offset="0"
         id="stop5346" />
      <stop
         style="stop-color:#000000;stop-opacity:0;"
         offset="1"
         id="stop5348" />
    </linearGradient>
    <linearGradient
       inkscape:collect="always"
       xlink:href="#linearGradient5344"
       id="linearGradient13314"
       gradientUnits="userSpaceOnUse"
       x1="544.89001"
       y1="919.05762"
       x2="506.01498"
       y2="969.80762"
       gradientTransform="translate(-485.21014,-859.4386)" />
    <linearGradient
       id="linearGradient8702">
      <stop
         id="stop8704"
         offset="0"
         style="stop-color:#aac736;stop-opacity:1;" />
      <stop
         id="stop8706"
         offset="1"
         style="stop-color:#5d8b2c;stop-opacity:1;" />
    </linearGradient>
    <linearGradient
       inkscape:collect="always"
       xlink:href="#linearGradient8702"
       id="linearGradient13316"
       gradientUnits="userSpaceOnUse"
       gradientTransform="matrix(2.6765239,0,0,2.6765239,-1779.5422,-994.63744)"
       x1="700.13062"
       y1="378.86951"
       x2="707.80457"
       y2="395.74899" />
    <inkscape:perspective
       sodipodi:type="inkscape:persp3d"
       inkscape:vp_x="0 : 526.18109 : 1"
       inkscape:vp_y="0 : 1000 : 0"
       inkscape:vp_z="744.09448 : 526.18109 : 1"
       inkscape:persp3d-origin="372.04724 : 350.78739 : 1"
       id="perspective10" />
  </defs>
  <sodipodi:namedview
     id="base"
     pagecolor="#ffffff"
     bordercolor="#666666"
     borderopacity="1.0"
     inkscape:pageopacity="0.0"
     inkscape:pageshadow="2"
     inkscape:zoom="1.2510351"
     inkscape:cx="98.862601"
     inkscape:cy="30.530396"
     inkscape:document-units="px"
     inkscape:current-layer="layer1"
     showgrid="false"
     inkscape:showpageshadow="false"
     inkscape:window-width="1024"
     inkscape:window-height="714"
     inkscape:window-x="0"
     inkscape:window-y="24"
     showguides="true"
     inkscape:guide-bbox="true" />
  <metadata
     id="metadata7">
    <rdf:RDF>
      <cc:Work
         rdf:about="">
        <dc:format>image/svg+xml</dc:format>
        <dc:type
           rdf:resource="http://purl.org/dc/dcmitype/StillImage" />
      </cc:Work>
    </rdf:RDF>
  </metadata>
  <g
     inkscape:label="Capa 1"
     inkscape:groupmode="layer"
     id="layer1">
    <path
       sodipodi:nodetypes="ccccccccsccs"
       id="path9741"
       d="M 15.732306,114.30187 C 15.751776,119.4712 18.769906,122.5368 21.854446,123.5056 C 23.464046,124.0112 28.302446,125.76907 29.375506,125.20427 C 31.478706,123.81733 30.453106,117.2752 30.453106,113.82213 L 30.453106,62.502131 C 30.565376,48.236006 34.478976,36.929072 45.371506,27.132539 C 51.429106,22.207472 59.341646,18.530139 67.502176,18.833606 C 78.163776,20.012272 87.668846,5.3005394 77.085646,4.3104061 C 74.582706,4.2154728 64.107776,4.7170728 61.688306,5.0042728 C 51.793376,6.1784061 42.781906,10.077873 36.183246,15.869872 C 21.189106,30.485606 17.535246,42.910406 15.534446,62.502131 L 15.732306,114.30187 z"
       style="fill:url(#linearGradient9755);fill-rule:evenodd;stroke:none;stroke-width:1px;stroke-linecap:butt;stroke-linejoin:miter;stroke-opacity:1;display:inline" />
    <path
       style="fill:url(#linearGradient9757);fill-rule:evenodd;stroke:none;stroke-width:1px;stroke-linecap:butt;stroke-linejoin:miter;stroke-opacity:1;display:inline"
       d="M 15.732306,114.30187 C 15.751776,119.4712 18.769906,122.5368 21.854446,123.5056 C 23.464046,124.0112 28.302446,125.76907 29.375506,125.20427 C 31.478706,123.81733 30.453106,117.2752 30.453106,113.82213 L 30.453106,62.502131 C 30.565376,48.236006 34.478976,36.929072 45.371506,27.132539 C 51.429106,22.207472 59.341646,18.530139 67.502176,18.833606 C 78.163776,20.012272 87.668846,5.3005394 77.085646,4.3104061 C 74.582706,4.2154728 64.107776,4.7170728 61.688306,5.0042728 C 51.793376,6.1784061 42.781906,10.077873 36.183246,15.869872 C 21.189106,30.485606 17.535246,42.910406 15.534446,62.502131 L 15.732306,114.30187 z"
       id="path9743"
       sodipodi:nodetypes="ccccccccsccs" />
    <path
       style="fill:url(#linearGradient9759);fill-rule:evenodd;stroke:none;stroke-width:1px;stroke-linecap:butt;stroke-linejoin:miter;stroke-opacity:1;display:inline"
       d="M 23.556576,118.35387 C 23.556576,129.16587 38.277376,127.08773 38.277376,116.4768 L 38.277376,63.619998 C 38.389906,49.353872 42.303506,36.663739 53.195776,26.867206 C 59.253376,21.942139 67.165906,18.264806 75.326446,18.568272 C 85.988306,19.746939 87.490446,5.1338728 76.907246,4.1437394 C 64.169106,3.6600061 52.220046,8.3962728 44.007776,15.604272 C 29.013376,30.220272 25.359776,44.028006 23.358976,63.619998 L 23.556576,118.35387 z"
       id="path9745"
       sodipodi:nodetypes="ccccccccc" />
    <path
       sodipodi:nodetypes="ccccccccccc"
       id="path9747"
       d="M 65.565646,101.5064 C 81.557646,98.856798 91.214976,92.179731 95.813106,77.214664 C 97.619506,71.993331 99.113646,66.122131 99.340046,60.110931 L 99.200306,15.378939 C 99.200306,11.533073 102.66271,8.8418728 105.95391,8.4840061 L 114.19578,7.5146728 L 111.63551,60.949064 C 111.34645,82.028264 103.26991,95.500264 96.405906,103.564 C 85.136306,115.05307 84.347776,117.10453 75.912306,118.80213 C 71.878976,119.1824 62.441376,116.33573 60.901376,114.4024 C 57.514176,110.36613 58.137906,102.6104 65.565646,101.5064 z"
       style="fill:url(#linearGradient9761);fill-rule:evenodd;stroke:none;stroke-width:1px;stroke-linecap:butt;stroke-linejoin:miter;stroke-opacity:1;display:inline" />
    <path
       style="fill:url(#linearGradient9763);fill-rule:evenodd;stroke:none;stroke-width:1px;stroke-linecap:butt;stroke-linejoin:miter;stroke-opacity:1;display:inline"
       d="M 65.565646,101.5064 C 81.557646,98.856798 91.214976,92.179731 95.813106,77.214664 C 97.619506,71.993331 99.113646,66.122131 99.340046,60.110931 L 99.200306,15.378939 C 99.200306,11.533073 102.66271,8.8418728 105.95391,8.4840061 L 114.19578,7.5146728 L 111.63551,60.949064 C 111.34645,82.028264 103.26991,95.500264 96.405906,103.564 C 85.136306,115.05307 84.347776,117.10453 75.912306,118.80213 C 71.878976,119.1824 62.441376,116.33573 60.901376,114.4024 C 57.514176,110.36613 58.137906,102.6104 65.565646,101.5064 z"
       id="path9749"
       sodipodi:nodetypes="ccccccccccc" />
    <path
       style="fill:url(#linearGradient9765);fill-rule:evenodd;stroke:none;stroke-width:1px;stroke-linecap:butt;stroke-linejoin:miter;stroke-opacity:1;display:inline"
       d="M 76.286176,103.28453 C 89.709376,101.22773 99.564306,92.772531 105.34805,77.017064 C 107.15445,71.795731 108.05578,66.122131 108.28218,60.110931 L 108.14245,13.304272 C 108.14245,5.9349394 120.85445,4.8800061 120.71738,14.282406 L 120.57765,60.949064 C 120.28858,82.028264 112.21205,95.500264 105.34805,103.564 C 94.078446,115.05307 85.583506,116.95627 77.148306,118.65387 C 66.701906,120.03493 65.839776,104.83733 76.286176,103.28453 z"
       id="path9751"
       sodipodi:nodetypes="ccccccccc" />
    <path
       style="fill:none;fill-rule:evenodd;stroke:url(#linearGradient9767);stroke-width:2.66666675;stroke-linecap:butt;stroke-linejoin:miter;stroke-miterlimit:4;stroke-dasharray:none;stroke-opacity:1;display:inline"
       d="M 72.161106,4.1637394 C 71.196846,4.2237394 70.277106,4.3802728 69.327776,4.4970728 C 66.093646,4.6464061 62.870976,4.8533394 61.661106,4.9970728 C 51.766176,6.1712061 42.759776,10.038406 36.161106,15.830406 C 21.166976,30.446139 17.495246,42.905339 15.494446,62.497064 L 15.744306,114.3304 C 15.764046,119.49973 18.743246,122.52827 21.827776,123.49707 C 23.034976,123.87627 26.105646,124.9672 27.994446,125.24693 C 32.331506,126.5424 38.244576,123.2584 38.244576,116.49707 L 38.244576,63.580264 C 38.356846,49.314406 42.268846,36.626939 53.161106,26.830406 C 59.218706,21.905339 67.167246,18.277072 75.327776,18.580272 C 85.989376,19.759206 87.494446,5.1538728 76.911246,4.1637394 C 75.318706,4.1032061 73.722976,4.0664061 72.161106,4.1637394 z M 114.16111,7.4970728 L 113.24458,7.5802728 L 105.99445,8.4970728 C 102.70325,8.8549394 99.161106,11.568006 99.161106,15.413872 L 99.327776,60.080531 C 99.101376,66.091731 97.634176,72.025864 95.827776,77.246931 C 91.229646,92.212264 81.569906,98.847464 65.577906,101.49706 C 58.149906,102.60107 57.523776,110.3776 60.911246,114.41387 C 62.451246,116.34693 71.877646,119.21067 75.911246,118.8304 C 76.130706,118.78613 76.284846,118.70853 76.494446,118.66373 C 76.721376,118.64907 76.924306,118.69493 77.161106,118.66373 C 85.596306,116.96613 94.058176,115.06933 105.32778,103.58027 C 112.19178,95.516531 120.28858,81.993064 120.57791,60.913598 L 120.74431,14.246939 C 120.81551,9.3789394 117.43151,7.3336061 114.16111,7.4970728 z"
       id="path9753" />
    <path
       sodipodi:nodetypes="ccccccccc"
       id="path9783"
       d="M 76.286176,103.28453 C 89.709376,101.22773 99.564306,92.772531 105.34805,77.017064 C 107.15445,71.795731 108.05578,66.122131 108.28218,60.110931 L 108.14245,13.304272 C 108.14245,5.9349394 120.85445,4.8800061 120.71738,14.282406 L 120.57765,60.949064 C 120.28858,82.028264 112.21205,95.500264 105.34805,103.564 C 94.078446,115.05307 85.583506,116.95627 77.148306,118.65387 C 66.701906,120.03493 65.839776,104.83733 76.286176,103.28453 z"
       style="fill:url(#linearGradient9786);fill-rule:evenodd;stroke:none;stroke-width:1px;stroke-linecap:butt;stroke-linejoin:miter;stroke-opacity:1;display:inline" />
  </g>
</svg>
