<?xml version="1.0" encoding="UTF-8" standalone="no"?>
<!-- Created with Inkscape (http://www.inkscape.org/) -->
<svg
   xmlns:dc="http://purl.org/dc/elements/1.1/"
   xmlns:cc="http://creativecommons.org/ns#"
   xmlns:rdf="http://www.w3.org/1999/02/22-rdf-syntax-ns#"
   xmlns:svg="http://www.w3.org/2000/svg"
   xmlns="http://www.w3.org/2000/svg"
   xmlns:xlink="http://www.w3.org/1999/xlink"
   xmlns:sodipodi="http://sodipodi.sourceforge.net/DTD/sodipodi-0.dtd"
   xmlns:inkscape="http://www.inkscape.org/namespaces/inkscape"
   width="128"
   height="128"
   id="svg2"
   sodipodi:version="0.32"
   inkscape:version="0.46"
   version="1.0"
   sodipodi:docname="gtk-gpg-bad.svg"
   inkscape:output_extension="org.inkscape.output.svg.inkscape">
  <defs
     id="defs4">
    <linearGradient
       id="linearGradient9863">
      <stop
         style="stop-color:#2f445a;stop-opacity:1;"
         offset="0"
         id="stop9865" />
      <stop
         style="stop-color:#415f7c;stop-opacity:1"
         offset="1"
         id="stop9867" />
    </linearGradient>
    <linearGradient
       inkscape:collect="always"
       xlink:href="#linearGradient9863"
       id="linearGradient11258"
       gradientUnits="userSpaceOnUse"
       x1="511.72525"
       y1="844.99249"
       x2="511.72525"
       y2="797.59735"
       gradientTransform="matrix(2.6666667,0,0,2.6666667,-1293.9466,-2126.7331)" />
    <linearGradient
       inkscape:collect="always"
       xlink:href="#linearGradient12336"
       id="linearGradient9027"
       gradientUnits="userSpaceOnUse"
       gradientTransform="matrix(2.6765239,0,0,2.6765239,-1298.6765,-2514.903)"
       x1="492.30246"
       y1="966.60321"
       x2="491.67746"
       y2="983.97821" />
    <linearGradient
       inkscape:collect="always"
       xlink:href="#linearGradient5439"
       id="linearGradient9029"
       gradientUnits="userSpaceOnUse"
       gradientTransform="matrix(2.6765239,0,0,2.6765239,-1298.6765,-2514.903)"
       x1="499.46854"
       y1="939.90875"
       x2="567.06256"
       y2="1010.736" />
    <linearGradient
       inkscape:collect="always"
       xlink:href="#linearGradient14474"
       id="linearGradient9031"
       gradientUnits="userSpaceOnUse"
       gradientTransform="matrix(2.6765239,0,0,2.6765239,-1298.6765,-2514.903)"
       x1="500.14951"
       y1="954.06738"
       x2="498.06781"
       y2="979.94238" />
    <linearGradient
       id="linearGradient12336">
      <stop
         id="stop12338"
         offset="0"
         style="stop-color:#ff6e00;stop-opacity:1;" />
      <stop
         id="stop12340"
         offset="1"
         style="stop-color:#eb2600;stop-opacity:1;" />
    </linearGradient>
    <linearGradient
       inkscape:collect="always"
       xlink:href="#linearGradient12336"
       id="linearGradient9033"
       gradientUnits="userSpaceOnUse"
       gradientTransform="matrix(2.6765239,0,0,2.6765239,-1298.6765,-2514.903)"
       x1="498.57062"
       y1="961.28485"
       x2="526.69824"
       y2="979.65985" />
    <linearGradient
       inkscape:collect="always"
       xlink:href="#linearGradient5439"
       id="linearGradient9035"
       gradientUnits="userSpaceOnUse"
       gradientTransform="matrix(2.4139858,0,0,2.4139858,-1163.9011,-2259.8099)"
       x1="529.39545"
       y1="984.84515"
       x2="509.94092"
       y2="966.22015" />
    <linearGradient
       inkscape:collect="always"
       xlink:href="#linearGradient12578"
       id="linearGradient14578"
       gradientUnits="userSpaceOnUse"
       x1="492.30246"
       y1="966.60321"
       x2="491.67746"
       y2="983.97821"
       gradientTransform="matrix(7.1373971,0,0,7.1373971,-4943.7254,-8996.8529)" />
    <linearGradient
       inkscape:collect="always"
       xlink:href="#linearGradient5439"
       id="linearGradient14580"
       gradientUnits="userSpaceOnUse"
       x1="499.46854"
       y1="939.90875"
       x2="567.06256"
       y2="1010.736"
       gradientTransform="matrix(7.1373971,0,0,7.1373971,-4943.7254,-8996.8529)" />
    <linearGradient
       inkscape:collect="always"
       id="linearGradient14474">
      <stop
         style="stop-color:#ffffff;stop-opacity:1;"
         offset="0"
         id="stop14476" />
      <stop
         style="stop-color:#ffffff;stop-opacity:0;"
         offset="1"
         id="stop14478" />
    </linearGradient>
    <linearGradient
       inkscape:collect="always"
       xlink:href="#linearGradient14474"
       id="linearGradient14582"
       gradientUnits="userSpaceOnUse"
       x1="500.14951"
       y1="954.06738"
       x2="498.06781"
       y2="979.94238"
       gradientTransform="matrix(7.1373971,0,0,7.1373971,-4943.7254,-8996.8529)" />
    <linearGradient
       id="linearGradient12578">
      <stop
         style="stop-color:#e9b551;stop-opacity:1;"
         offset="0"
         id="stop12580" />
      <stop
         style="stop-color:#b48739;stop-opacity:1;"
         offset="1"
         id="stop12582" />
    </linearGradient>
    <linearGradient
       inkscape:collect="always"
       xlink:href="#linearGradient12578"
       id="linearGradient14584"
       gradientUnits="userSpaceOnUse"
       x1="498.57062"
       y1="961.28485"
       x2="526.69824"
       y2="979.65985"
       gradientTransform="matrix(7.1373971,0,0,7.1373971,-4943.7254,-8996.8529)" />
    <linearGradient
       id="linearGradient5439">
      <stop
         style="stop-color:#ffffff;stop-opacity:1;"
         offset="0"
         id="stop5441" />
      <stop
         style="stop-color:#000000;stop-opacity:1;"
         offset="1"
         id="stop5443" />
    </linearGradient>
    <linearGradient
       inkscape:collect="always"
       xlink:href="#linearGradient5439"
       id="linearGradient14586"
       gradientUnits="userSpaceOnUse"
       gradientTransform="matrix(6.4372955,0,0,6.4372955,-4584.3243,-8316.6046)"
       x1="529.39545"
       y1="984.84515"
       x2="509.94092"
       y2="966.22015" />
    <inkscape:perspective
       sodipodi:type="inkscape:persp3d"
       inkscape:vp_x="0 : 526.18109 : 1"
       inkscape:vp_y="0 : 1000 : 0"
       inkscape:vp_z="744.09448 : 526.18109 : 1"
       inkscape:persp3d-origin="372.04724 : 350.78739 : 1"
       id="perspective10" />
  </defs>
  <sodipodi:namedview
     id="base"
     pagecolor="#ffffff"
     bordercolor="#666666"
     borderopacity="1.0"
     inkscape:pageopacity="0.0"
     inkscape:pageshadow="2"
     inkscape:zoom="1.7692308"
     inkscape:cx="77.941262"
     inkscape:cy="62.562995"
     inkscape:document-units="px"
     inkscape:current-layer="layer1"
     showgrid="false"
     inkscape:showpageshadow="false"
     inkscape:window-width="1024"
     inkscape:window-height="714"
     inkscape:window-x="0"
     inkscape:window-y="24" />
  <metadata
     id="metadata7">
    <rdf:RDF>
      <cc:Work
         rdf:about="">
        <dc:format>image/svg+xml</dc:format>
        <dc:type
           rdf:resource="http://purl.org/dc/dcmitype/StillImage" />
      </cc:Work>
    </rdf:RDF>
  </metadata>
  <g
     inkscape:label="Capa 1"
     inkscape:groupmode="layer"
     id="layer1">
    <path
       style="fill:url(#linearGradient9027);fill-rule:evenodd;stroke:none;stroke-width:0.5;stroke-linecap:round;stroke-linejoin:round;stroke-miterlimit:4;stroke-dasharray:none;stroke-opacity:1;display:inline"
       d="M 15.403624,121.50135 C 10.94772,120.55683 8.5891676,117.37439 8.8978511,112.45156 L 9.134429,61.529144 C 9.3141576,55.854512 14.691187,50.840556 19.523357,50.751615 L 87.76725,49.063076 L 97.614797,49.086068 C 103.55989,48.912281 109.36634,53.263021 110.36014,60.714598 L 92.863913,107.31588 L 30.084627,125.32324 L 27.362361,124.98776 L 15.403624,121.50135 z"
       id="path9015"
       sodipodi:nodetypes="ccccccccccc" />
    <path
       style="fill:url(#linearGradient9029);fill-opacity:1;fill-rule:evenodd;stroke:none;stroke-width:0.5;stroke-linecap:round;stroke-linejoin:round;stroke-miterlimit:4;stroke-dasharray:none;stroke-opacity:1;display:inline"
       d="M 55.811829,1.5313039 C 45.435107,0.80248641 37.141121,5.3295322 32.726811,11.902834 C 28.3125,18.476136 27.122839,26.339335 27.122839,33.565949 L 27.122839,50.628789 C 27.122839,51.851452 29.889561,53.218216 33.148952,53.056504 C 36.425553,52.886223 39.167196,51.95482 39.167196,50.628789 L 39.167196,33.565949 C 39.167196,27.837599 40.40996,22.099186 42.763775,18.594144 C 45.117591,15.089102 47.948844,13.082164 54.975416,13.575661 C 55.003305,13.575849 55.031168,13.575849 55.059057,13.575661 L 84.417179,15.081206 C 93.322081,16.136747 96.636741,25.241987 96.377895,33.649591 L 96.126971,49.541451 C 96.057676,52.867407 97.861305,55.201601 101.18726,55.270896 C 104.51324,55.340165 107.26562,52.700124 107.33491,49.374169 L 107.58584,33.984156 C 107.58603,33.956267 107.58603,33.928404 107.58584,33.900515 C 107.63019,19.353206 100.74753,4.9570671 86.006365,3.5386968 L 55.811829,1.5313039 z"
       id="path9017"
       sodipodi:nodetypes="cscccccssccccsccccc" />
    <path
       sodipodi:nodetypes="ccccccccccc"
       id="path9019"
       d="M 15.403624,121.50135 C 10.94772,120.55683 8.5891676,117.37439 8.8978511,112.45156 L 9.134429,61.529144 C 9.3141576,55.854512 14.691187,50.840556 19.523357,50.751615 L 87.76725,49.063076 L 97.614797,49.086068 C 103.55989,48.912281 109.36634,53.263021 110.36014,60.714598 L 92.863913,107.31588 L 30.084627,125.32324 L 27.362361,124.98776 L 15.403624,121.50135 z"
       style="fill:url(#linearGradient9031);fill-rule:evenodd;stroke:none;stroke-width:0.5;stroke-linecap:round;stroke-linejoin:round;stroke-miterlimit:4;stroke-dasharray:none;stroke-opacity:1;display:inline" />
    <path
       style="fill:url(#linearGradient9033);fill-rule:evenodd;stroke:none;stroke-width:0.5;stroke-linecap:round;stroke-linejoin:round;stroke-miterlimit:4;stroke-dasharray:none;stroke-opacity:1;display:inline"
       d="M 21.198513,115.48032 L 21.383166,61.883971 C 21.383166,56.302937 26.218119,50.583877 31.723971,50.624507 L 111.60598,48.86943 C 115.99679,48.925717 119.95882,52.07181 119.95882,57.444234 L 119.89156,102.31399 C 119.91209,108.11466 116.16966,111.01826 110.6841,112.11652 L 31.555831,125.04316 C 24.801087,126.5403 21.406559,120.54923 21.198513,115.48032 z"
       id="path9021"
       sodipodi:nodetypes="ccccccccc" />
    <path
       style="fill:url(#linearGradient9035);fill-rule:evenodd;stroke:none;stroke-width:1px;stroke-linecap:butt;stroke-linejoin:miter;stroke-opacity:1;display:inline"
       d="M 85.307498,99.848509 L 65.934041,102.33923 L 71.136026,90.307959 C 68.325248,90.540576 64.496373,88.533531 64.566177,83.679093 L 64.577659,76.744246 C 64.583494,73.234467 66.369833,69.530934 70.936919,69.221073 L 79.820222,68.724658 C 83.965676,68.724658 86.099079,72.246455 86.099079,75.570403 L 86.005133,81.491784 C 86.005133,85.709932 83.171364,88.947268 79.905068,89.362771 L 85.307498,99.848509 z"
       id="path9023"
       sodipodi:nodetypes="ccccscccccc" />
    <path
       id="path11256"
       d="M 51.803364,1.7669269 C 43.235574,2.2333269 36.401654,6.3698069 32.553364,12.10026 C 28.155304,18.649354 26.970024,26.483594 26.970024,33.683594 L 26.970024,50.600261 L 19.386694,50.766928 C 14.572324,50.855541 9.2324842,55.863221 9.0533642,61.516928 L 8.8033642,112.26693 C 8.4958142,117.17162 10.863924,120.32594 15.303364,121.26693 L 26.970024,124.68359 L 27.220024,124.76693 C 27.270744,124.78205 27.335364,124.75287 27.386694,124.76693 C 27.906534,124.90919 28.468134,124.99285 29.053364,125.01693 L 29.220024,125.01693 L 29.886694,125.10026 L 30.136694,125.01693 L 30.220024,125.01693 C 30.590294,124.97903 30.993624,124.93738 31.386694,124.85026 L 110.22002,111.93359 C 115.68538,110.83938 119.40712,107.96295 119.38669,102.18359 L 119.47002,57.433594 C 119.47002,52.080954 115.5113,48.989728 111.13669,48.933594 L 106.88669,49.016928 L 107.13669,34.10026 C 107.13688,34.072474 107.13688,34.044714 107.13669,34.016927 C 107.18088,19.523194 100.32357,5.1800739 85.636694,3.7669269 L 55.553364,1.7669269 C 54.261044,1.6761539 53.027334,1.7002869 51.803364,1.7669269 z M 52.303364,13.683594 C 53.055064,13.66914 53.844934,13.70546 54.720024,13.766927 C 54.747814,13.767114 54.775574,13.767114 54.803364,13.766927 L 84.053364,15.266927 C 92.925464,16.31858 96.227924,25.390287 95.970024,33.766927 L 95.720024,49.183594 L 87.386694,49.100261 L 38.970024,50.266928 L 38.970024,33.683594 C 38.970024,27.97634 40.208214,22.25906 42.553364,18.766927 C 44.605364,15.7113 47.041464,13.784687 52.303364,13.683594 z"
       style="fill:none;fill-rule:evenodd;stroke:url(#linearGradient11258);stroke-width:2.66666675;stroke-linecap:round;stroke-linejoin:round;stroke-miterlimit:4;stroke-dasharray:none;stroke-opacity:1;display:inline" />
  </g>
</svg>
