<?xml version="1.0" encoding="UTF-8" standalone="no"?>
<!-- Created with Inkscape (http://www.inkscape.org/) -->

<svg
   xmlns:dc="http://purl.org/dc/elements/1.1/"
   xmlns:cc="http://creativecommons.org/ns#"
   xmlns:rdf="http://www.w3.org/1999/02/22-rdf-syntax-ns#"
   xmlns:svg="http://www.w3.org/2000/svg"
   xmlns="http://www.w3.org/2000/svg"
   xmlns:xlink="http://www.w3.org/1999/xlink"
   xmlns:sodipodi="http://sodipodi.sourceforge.net/DTD/sodipodi-0.dtd"
   xmlns:inkscape="http://www.inkscape.org/namespaces/inkscape"
   width="128"
   height="128"
   id="svg2"
   sodipodi:version="0.32"
   inkscape:version="0.48.3.1 r9886"
   version="1.0"
   sodipodi:docname="gtk-cut.svg"
   inkscape:output_extension="org.inkscape.output.svg.inkscape">
  <defs
     id="defs4">
    <linearGradient
       y2="959.90618"
       x2="526.54727"
       y1="959.90618"
       x1="511.12103"
       gradientTransform="matrix(3.206018,0,0,3.2057664,-1579.1413,-3012.6567)"
       gradientUnits="userSpaceOnUse"
       id="linearGradient10434"
       xlink:href="#linearGradient7210"
       inkscape:collect="always" />
    <linearGradient
       y2="945.16702"
       x2="526.69513"
       y1="945.16702"
       x1="511.02246"
       gradientTransform="matrix(3.206018,0,0,3.2057664,-1579.1413,-3012.6567)"
       gradientUnits="userSpaceOnUse"
       id="linearGradient10431"
       xlink:href="#linearGradient7210"
       inkscape:collect="always" />
    <linearGradient
       y2="948.66021"
       x2="526.54727"
       y1="948.66021"
       x1="511.12103"
       gradientTransform="matrix(3.206018,0,0,3.2057664,-1579.1413,-3012.6567)"
       gradientUnits="userSpaceOnUse"
       id="linearGradient10428"
       xlink:href="#linearGradient7210"
       inkscape:collect="always" />
    <linearGradient
       y2="952.15596"
       x2="526.54727"
       y1="952.15596"
       x1="511.12103"
       gradientTransform="matrix(3.206018,0,0,3.2057664,-1579.1413,-3012.6567)"
       gradientUnits="userSpaceOnUse"
       id="linearGradient10425"
       xlink:href="#linearGradient7210"
       inkscape:collect="always" />
    <linearGradient
       y2="956.03965"
       x2="526.54727"
       y1="956.03965"
       x1="511.12103"
       gradientTransform="matrix(3.206018,0,0,3.2057664,-1579.1413,-3012.6567)"
       gradientUnits="userSpaceOnUse"
       id="linearGradient10420"
       xlink:href="#linearGradient7210"
       inkscape:collect="always" />
    <linearGradient
       y2="959.90618"
       x2="526.54727"
       y1="959.90618"
       x1="511.12103"
       gradientTransform="matrix(3.0794524,0,0,2.9822193,-1513.1882,-2805.2011)"
       gradientUnits="userSpaceOnUse"
       id="linearGradient10414"
       xlink:href="#linearGradient7210"
       inkscape:collect="always" />
    <linearGradient
       y2="945.16702"
       x2="526.69513"
       y1="945.16702"
       x1="511.02246"
       gradientTransform="matrix(3.0794524,0,0,2.9822193,-1513.1882,-2803.5098)"
       gradientUnits="userSpaceOnUse"
       id="linearGradient10411"
       xlink:href="#linearGradient7210"
       inkscape:collect="always" />
    <linearGradient
       y2="948.66021"
       x2="526.54727"
       y1="948.66021"
       x1="511.12103"
       gradientTransform="matrix(3.0794524,0,0,2.9822193,-1513.1882,-2803.9709)"
       gradientUnits="userSpaceOnUse"
       id="linearGradient10408"
       xlink:href="#linearGradient7210"
       inkscape:collect="always" />
    <linearGradient
       y2="952.15596"
       x2="526.54727"
       y1="952.15596"
       x1="511.12103"
       gradientTransform="matrix(3.0794524,0,0,2.9822193,-1513.1882,-2804.1248)"
       gradientUnits="userSpaceOnUse"
       id="linearGradient10405"
       xlink:href="#linearGradient7210"
       inkscape:collect="always" />
    <filter
       id="filter7018"
       inkscape:collect="always">
      <feGaussianBlur
         id="feGaussianBlur7020"
         stdDeviation="0.35961865"
         inkscape:collect="always" />
    </filter>
    <linearGradient
       y2="985.64343"
       x2="493.58197"
       y1="904.68359"
       x1="562.74658"
       gradientTransform="translate(-485.21015,-859.43859)"
       gradientUnits="userSpaceOnUse"
       id="linearGradient10402"
       xlink:href="#linearGradient5344"
       inkscape:collect="always" />
    <linearGradient
       y2="956.03965"
       x2="526.54727"
       y1="956.03965"
       x1="511.12103"
       gradientTransform="matrix(3.0794524,0,0,2.9822193,-1513.1882,-2804.586)"
       gradientUnits="userSpaceOnUse"
       id="linearGradient10399"
       xlink:href="#linearGradient7210"
       inkscape:collect="always" />
    <linearGradient
       y2="986.73901"
       x2="518.14636"
       y1="946.10571"
       x1="485.10596"
       gradientTransform="matrix(2.6765239,0,0,2.6765239,-1298.6766,-2514.903)"
       gradientUnits="userSpaceOnUse"
       id="linearGradient10396"
       xlink:href="#linearGradient5439"
       inkscape:collect="always" />
    <linearGradient
       y2="1002.3989"
       x2="533.07922"
       y1="975.12122"
       x1="499.70569"
       gradientTransform="matrix(1.4869961,8.0050018e-2,-0.6032743,1.5493784,-111.60702,-1484.1481)"
       gradientUnits="userSpaceOnUse"
       id="linearGradient10393"
       xlink:href="#linearGradient5439"
       inkscape:collect="always" />
    <linearGradient
       y2="231.9062"
       x2="572.69031"
       y1="278.98059"
       x1="572.69031"
       gradientUnits="userSpaceOnUse"
       id="linearGradient10389"
       xlink:href="#linearGradient9863"
       inkscape:collect="always"
       gradientTransform="matrix(2.6765239,0,0,2.6765239,-1459.268,-619.92407)" />
    <linearGradient
       id="linearGradient7210">
      <stop
         style="stop-color:#798088;stop-opacity:1;"
         offset="0"
         id="stop7212" />
      <stop
         style="stop-color:#c0bfbb;stop-opacity:1;"
         offset="0.5"
         id="stop8994" />
      <stop
         style="stop-color:#798088;stop-opacity:1;"
         offset="1"
         id="stop7214" />
    </linearGradient>
    <linearGradient
       id="linearGradient9863">
      <stop
         style="stop-color:#2f445a;stop-opacity:1;"
         offset="0"
         id="stop9865" />
      <stop
         style="stop-color:#415f7c;stop-opacity:1"
         offset="1"
         id="stop9867" />
    </linearGradient>
    <linearGradient
       id="linearGradient5439">
      <stop
         style="stop-color:#ffffff;stop-opacity:1;"
         offset="0"
         id="stop5441" />
      <stop
         style="stop-color:#000000;stop-opacity:1;"
         offset="1"
         id="stop5443" />
    </linearGradient>
    <linearGradient
       id="linearGradient5344">
      <stop
         style="stop-color:#000000;stop-opacity:1;"
         offset="0"
         id="stop5346" />
      <stop
         style="stop-color:#000000;stop-opacity:0;"
         offset="1"
         id="stop5348" />
    </linearGradient>
  </defs>
  <sodipodi:namedview
     id="base"
     pagecolor="#ffffff"
     bordercolor="#666666"
     borderopacity="1.0"
     inkscape:pageopacity="0.0"
     inkscape:pageshadow="2"
     inkscape:zoom="7.0769232"
     inkscape:cx="97.908671"
     inkscape:cy="94.826812"
     inkscape:document-units="px"
     inkscape:current-layer="layer1"
     showgrid="false"
     inkscape:showpageshadow="false"
     inkscape:window-width="1014"
     inkscape:window-height="713"
     inkscape:window-x="0"
     inkscape:window-y="0"
     showguides="true"
     inkscape:guide-bbox="true"
     inkscape:window-maximized="0" />
  <metadata
     id="metadata7">
    <rdf:RDF>
      <cc:Work
         rdf:about="">
        <dc:format>image/svg+xml</dc:format>
        <dc:type
           rdf:resource="http://purl.org/dc/dcmitype/StillImage" />
      </cc:Work>
    </rdf:RDF>
  </metadata>
  <g
     inkscape:label="Capa 1"
     inkscape:groupmode="layer"
     id="layer1">
    <path
       inkscape:export-ydpi="57.964222"
       inkscape:export-xdpi="57.964222"
       inkscape:export-filename="/home/dafeba/DCV/tallerD/bocetos/08-09-22-hastaahora.png"
       sodipodi:nodetypes="ccccccccc"
       id="path6712"
       d="M 45.637613,2.3745722 C 52.033621,2.9891824 54.741426,9.1706946 54.736688,14.700982 L 54.653984,66.547065 C 54.708906,72.757965 57.949347,78.932813 66.335833,83.43676 L 124.76638,79.394781 C 117.84583,78.118373 112.89793,70.212082 112.95395,64.637017 L 113.09323,17.573186 C 113.09323,12.909129 108.97401,7.590582 104.37015,7.590582 L 45.637613,2.3745722 z"
       style="fill:#ffffff;fill-rule:evenodd;stroke:#000000;stroke-width:1.33826208;stroke-linecap:round;stroke-linejoin:round;stroke-miterlimit:4;stroke-dasharray:none;stroke-opacity:1;display:inline" />
    <path
       inkscape:export-ydpi="57.964222"
       inkscape:export-xdpi="57.964222"
       inkscape:export-filename="/home/dafeba/DCV/tallerD/bocetos/08-09-22-hastaahora.png"
       sodipodi:nodetypes="ccccc"
       id="path6802"
       d="M 59.521831,68.073727 L 59.679853,62.486992 L 108.97864,61.082352 L 108.82064,66.108757 L 59.521831,68.073727 z"
       style="fill:url(#linearGradient10434);fill-rule:evenodd;stroke:none;stroke-width:1px;stroke-linecap:butt;stroke-linejoin:miter;stroke-opacity:1;display:inline" />
    <path
       inkscape:export-ydpi="57.964222"
       inkscape:export-xdpi="57.964222"
       inkscape:export-filename="/home/dafeba/DCV/tallerD/bocetos/08-09-22-hastaahora.png"
       style="fill:url(#linearGradient10431);fill-rule:evenodd;stroke:none;stroke-width:1px;stroke-linecap:butt;stroke-linejoin:miter;stroke-opacity:1;display:inline"
       d="M 59.521831,18.653967 L 59.205814,13.017636 L 108.97864,16.545348 L 109.45268,21.637889 L 59.521831,18.653967 z"
       id="path6793"
       sodipodi:nodetypes="ccccc" />
    <path
       inkscape:export-ydpi="57.964222"
       inkscape:export-xdpi="57.964222"
       inkscape:export-filename="/home/dafeba/DCV/tallerD/bocetos/08-09-22-hastaahora.png"
       sodipodi:nodetypes="ccccc"
       id="path6795"
       d="M 59.521831,30.234135 L 59.679853,24.647373 L 108.97864,27.378391 L 108.82064,32.404822 L 59.521831,30.234135 z"
       style="fill:url(#linearGradient10428);fill-rule:evenodd;stroke:none;stroke-width:1px;stroke-linecap:butt;stroke-linejoin:miter;stroke-opacity:1;display:inline" />
    <path
       inkscape:export-ydpi="57.964222"
       inkscape:export-xdpi="57.964222"
       inkscape:export-filename="/home/dafeba/DCV/tallerD/bocetos/08-09-22-hastaahora.png"
       style="fill:url(#linearGradient10425);fill-rule:evenodd;stroke:none;stroke-width:1px;stroke-linecap:butt;stroke-linejoin:miter;stroke-opacity:1;display:inline"
       d="M 59.521831,42.187812 L 59.679853,36.601077 L 108.97864,37.837845 L 108.82064,42.864276 L 59.521831,42.187812 z"
       id="path6798"
       sodipodi:nodetypes="ccccc" />
    <path
       inkscape:export-ydpi="57.964222"
       inkscape:export-xdpi="57.964222"
       inkscape:export-filename="/home/dafeba/DCV/tallerD/bocetos/08-09-22-hastaahora.png"
       style="fill:url(#linearGradient10420);fill-rule:evenodd;stroke:none;stroke-width:1px;stroke-linecap:butt;stroke-linejoin:miter;stroke-opacity:1;display:inline"
       d="M 59.521831,55.063492 L 59.679853,49.476736 L 108.97864,49.3022 L 108.82064,54.328599 L 59.521831,55.063492 z"
       id="path6800"
       sodipodi:nodetypes="ccccc" />
    <path
       inkscape:export-ydpi="57.964222"
       inkscape:export-xdpi="57.964222"
       inkscape:export-filename="/home/dafeba/DCV/tallerD/bocetos/08-09-22-hastaahora.png"
       style="fill:#ffffff;fill-rule:evenodd;stroke:none;stroke-width:0.50000006;stroke-linecap:round;stroke-linejoin:round;stroke-miterlimit:4;stroke-dasharray:none;stroke-opacity:1;display:inline"
       d="M 45.637613,2.1379942 C 52.033621,2.7526044 54.741426,9.1706946 54.736688,14.700982 L 54.653984,66.547065 C 54.708906,72.757965 57.949347,78.932813 66.335833,83.43676 L 124.76638,78.921625 C 117.84583,77.645217 112.89793,69.502348 112.95395,63.927283 L 113.09323,18.28292 C 113.09323,13.618863 108.97401,7.590582 104.37015,7.590582 L 45.637613,2.1379942 z"
       id="path6838"
       sodipodi:nodetypes="ccccccccc" />
    <path
       inkscape:export-ydpi="57.964222"
       inkscape:export-xdpi="57.964222"
       inkscape:export-filename="/home/dafeba/DCV/tallerD/bocetos/08-09-22-hastaahora.png"
       style="fill:url(#linearGradient10414);fill-rule:evenodd;stroke:none;stroke-width:1px;stroke-linecap:butt;stroke-linejoin:miter;stroke-opacity:1;display:inline"
       d="M 60.784562,60.701322 L 60.936348,55.504155 L 108.28893,54.197449 L 108.13717,58.87339 L 60.784562,60.701322 z"
       id="path6840"
       sodipodi:nodetypes="ccccc" />
    <path
       inkscape:export-ydpi="57.964222"
       inkscape:export-xdpi="57.964222"
       inkscape:export-filename="/home/dafeba/DCV/tallerD/bocetos/08-09-22-hastaahora.png"
       sodipodi:nodetypes="ccccc"
       id="path6854"
       d="M 60.784562,16.419176 L 60.481017,11.175839 L 108.28893,14.457579 L 108.74426,19.194999 L 60.784562,16.419176 z"
       style="fill:url(#linearGradient10411);fill-rule:evenodd;stroke:none;stroke-width:1px;stroke-linecap:butt;stroke-linejoin:miter;stroke-opacity:1;display:inline" />
    <path
       inkscape:export-ydpi="57.964222"
       inkscape:export-xdpi="57.964222"
       inkscape:export-filename="/home/dafeba/DCV/tallerD/bocetos/08-09-22-hastaahora.png"
       style="fill:url(#linearGradient10408);fill-rule:evenodd;stroke:none;stroke-width:1px;stroke-linecap:butt;stroke-linejoin:miter;stroke-opacity:1;display:inline"
       d="M 60.784562,26.730485 L 60.936348,21.533291 L 108.28893,24.073901 L 108.13717,28.749815 L 60.784562,26.730485 z"
       id="path6856"
       sodipodi:nodetypes="ccccc" />
    <path
       inkscape:export-ydpi="57.964222"
       inkscape:export-xdpi="57.964222"
       inkscape:export-filename="/home/dafeba/DCV/tallerD/bocetos/08-09-22-hastaahora.png"
       sodipodi:nodetypes="ccccc"
       id="path6858"
       d="M 60.784562,37.696872 L 60.936348,32.499678 L 108.28893,33.650236 L 108.13717,38.326123 L 60.784562,37.696872 z"
       style="fill:url(#linearGradient10405);fill-rule:evenodd;stroke:none;stroke-width:1px;stroke-linecap:butt;stroke-linejoin:miter;stroke-opacity:1;display:inline" />
    <path
       inkscape:export-ydpi="57.964222"
       inkscape:export-xdpi="57.964222"
       inkscape:export-filename="/home/dafeba/DCV/tallerD/bocetos/08-09-22-hastaahora.png"
       sodipodi:nodetypes="ccccccc"
       id="path7010"
       d="M 20.451463,94.919142 L 22.171133,106.67358 L 34.164853,98.798582 C 34.528053,100.56724 34.638833,102.31907 32.539853,103.92358 L 23.539853,110.04858 C 22.205183,109.76093 20.063873,108.888 19.229196,107.10036 L 20.451463,94.919142 z"
       style="fill:url(#linearGradient10402);fill-rule:evenodd;stroke:none;stroke-width:1px;stroke-linecap:butt;stroke-linejoin:miter;stroke-opacity:1;display:inline;filter:url(#filter7018)"
       transform="matrix(2.6765239,0,0,2.6765239,0,-214.59506)" />
    <path
       inkscape:export-ydpi="57.964222"
       inkscape:export-xdpi="57.964222"
       inkscape:export-filename="/home/dafeba/DCV/tallerD/bocetos/08-09-22-hastaahora.png"
       sodipodi:nodetypes="ccccc"
       id="path6860"
       d="M 60.784562,49.213366 L 60.936348,44.016199 L 108.28893,44.354699 L 108.13717,49.03064 L 60.784562,49.213366 z"
       style="fill:url(#linearGradient10399);fill-rule:evenodd;stroke:none;stroke-width:1px;stroke-linecap:butt;stroke-linejoin:miter;stroke-opacity:1;display:inline" />
    <path
       inkscape:export-ydpi="57.964222"
       inkscape:export-xdpi="57.964222"
       inkscape:export-filename="/home/dafeba/DCV/tallerD/bocetos/08-09-22-hastaahora.png"
       sodipodi:nodetypes="cccccccccccccccccccsscscsssc"
       id="path7002"
       d="M 93.366797,37.831662 L 54.87742,68.55253 C 54.645633,65.071631 54.608081,61.432281 54.671836,57.921752 L 54.724483,38.166228 C 50.743109,39.16872 49.729322,41.638883 49.371444,46.112158 L 46.443996,73.37924 L 32.05768,83.081639 C 27.495786,85.164885 23.143652,76.970948 12.4856,84.168977 C 6.2252373,87.925906 4.1930062,96.217563 7.8853245,100.47904 C 13.004043,105.87711 21.494619,103.9797 25.700937,100.06084 L 45.523941,86.260011 L 44.520244,109.76324 C 44.654338,116.00219 46.132047,122.74357 55.059049,125.15325 C 63.376882,126.652 70.155741,121.98639 69.77993,110.26508 C 69.90744,97.279099 54.152939,98.554062 54.138994,91.111211 L 54.222635,80.656039 L 87.930108,53.8908 C 92.352582,50.193161 93.900389,42.813155 93.366797,37.831662 z M 26.370068,86.929142 C 28.613127,89.090489 26.673478,93.445273 22.606206,96.631541 C 18.538907,99.817863 13.415612,100.19156 11.230979,97.969803 C 9.0463738,95.748101 10.091155,91.286389 14.158427,88.100121 C 18.327729,84.962218 23.584743,84.245285 26.370068,86.929142 z M 57.066442,101.06453 C 60.37666,100.70205 63.016087,104.91364 63.004979,110.43237 C 62.993818,115.95109 60.293018,120.69237 56.982801,121.05482 C 53.672583,121.41728 51.033164,117.28935 51.044271,111.77063 C 51.055405,106.2519 53.756224,101.42699 57.066442,101.06453 z"
       style="fill:url(#linearGradient10396);fill-rule:evenodd;stroke:none;stroke-width:0.5;stroke-linecap:round;stroke-linejoin:round;stroke-miterlimit:4;stroke-dasharray:none;stroke-opacity:1;display:inline" />
    <path
       inkscape:export-ydpi="57.964222"
       inkscape:export-xdpi="57.964222"
       inkscape:export-filename="/home/dafeba/DCV/tallerD/bocetos/08-09-22-hastaahora.png"
       sodipodi:nodetypes="csssc"
       id="path7022"
       d="M 53.641268,77.310331 C 52.611081,79.956128 49.786492,81.90437 48.098248,81.141159 C 46.741357,80.527753 46.382784,78.015407 47.528898,75.433231 C 48.680793,72.838047 51.112201,70.836301 52.733158,71.175096 C 54.76688,71.600154 54.910127,74.614456 53.641268,77.310331 z"
       style="fill:url(#linearGradient10393);fill-opacity:1;stroke:none;stroke-width:0.87257522;stroke-linecap:round;stroke-linejoin:round;stroke-miterlimit:4;stroke-opacity:1;display:inline" />
    <path
       inkscape:export-ydpi="57.964222"
       inkscape:export-xdpi="57.964222"
       inkscape:export-filename="/home/dafeba/DCV/tallerD/bocetos/08-09-22-hastaahora.png"
       sodipodi:nodetypes="cccccccccccccccccccccccssscccsssc"
       id="path7030"
       d="M 45.607582,2.1166623 C 52.003564,2.7314599 54.729221,9.1329021 54.724483,14.663136 L 54.724483,38.166228 C 50.743109,39.168586 49.729322,41.63875 49.371444,46.112292 L 46.443996,73.379106 L 32.05768,83.081505 C 27.495786,85.164911 23.143652,76.971001 12.4856,84.168977 C 6.2252373,87.926013 4.1930062,96.217885 7.8853245,100.47891 C 13.004043,105.87719 21.494619,103.9798 25.700937,100.06084 L 45.523941,86.260145 L 44.520244,109.76324 C 44.654338,116.00221 46.215688,123.32906 55.14269,125.73874 C 63.460524,127.23759 70.155741,121.98639 69.77993,110.26508 C 69.295774,95.749975 54.152939,98.553955 54.138994,91.111077 L 54.222635,80.656039 L 58.571987,77.226877 C 60.411669,79.497104 62.945213,81.58747 66.350634,83.416071 L 124.73231,78.899704 C 117.81168,77.623002 112.88286,69.502964 112.93888,63.927765 L 113.10616,18.259581 C 113.10613,13.59547 109.01132,7.5534853 104.40746,7.5534853 L 45.607582,2.1166623 z M 22.355282,85.256449 C 23.907237,85.357889 25.325581,85.922635 26.370068,86.929276 C 28.613127,89.090569 26.673478,93.445006 22.606206,96.631675 C 18.538907,99.817809 13.415612,100.19118 11.230979,97.969937 C 9.0463738,95.748155 10.091155,91.286657 14.158427,88.099988 C 16.764238,86.138898 19.768689,85.086757 22.355282,85.256449 z M 57.066442,101.06453 C 60.37666,100.70213 63.016087,104.91364 63.004979,110.43237 C 62.993818,115.95109 60.293018,120.69202 56.982801,121.05496 C 53.672583,121.41736 51.033164,117.28935 51.044271,111.77063 C 51.055405,106.2519 53.756224,101.42694 57.066442,101.06453 z"
       style="fill:none;fill-rule:evenodd;stroke:url(#linearGradient10389);stroke-width:2.67652392;stroke-linecap:round;stroke-linejoin:round;stroke-miterlimit:4;stroke-dasharray:none;stroke-opacity:1;display:inline" />
  </g>
</svg>
