<?xml version="1.0" encoding="UTF-8" standalone="no"?>
<!-- Created with Inkscape (http://www.inkscape.org/) -->
<svg
   xmlns:dc="http://purl.org/dc/elements/1.1/"
   xmlns:cc="http://creativecommons.org/ns#"
   xmlns:rdf="http://www.w3.org/1999/02/22-rdf-syntax-ns#"
   xmlns:svg="http://www.w3.org/2000/svg"
   xmlns="http://www.w3.org/2000/svg"
   xmlns:xlink="http://www.w3.org/1999/xlink"
   xmlns:sodipodi="http://sodipodi.sourceforge.net/DTD/sodipodi-0.dtd"
   xmlns:inkscape="http://www.inkscape.org/namespaces/inkscape"
   width="128"
   height="128"
   id="svg2"
   sodipodi:version="0.32"
   inkscape:version="0.46"
   version="1.0"
   sodipodi:docname="lock-screen.svg"
   inkscape:output_extension="org.inkscape.output.svg.inkscape">
  <defs
     id="defs4">
    <linearGradient
       inkscape:collect="always"
       xlink:href="#linearGradient5439"
       id="linearGradient9788"
       gradientUnits="userSpaceOnUse"
       gradientTransform="matrix(4.6643597,4.7021189e-2,0,4.6643597,-2300.9091,-4508.2312)"
       x1="493.79773"
       y1="966.80334"
       x2="479.87286"
       y2="1015.4691" />
    <linearGradient
       inkscape:collect="always"
       xlink:href="#linearGradient5439"
       id="linearGradient9790"
       gradientUnits="userSpaceOnUse"
       gradientTransform="matrix(4.6613573,-0.120345,0.1673359,4.6630443,-2465.5197,-4417.2141)"
       x1="515.25647"
       y1="980.49353"
       x2="497.72803"
       y2="991.33789" />
    <linearGradient
       inkscape:collect="always"
       xlink:href="#linearGradient5439"
       id="linearGradient9792"
       gradientUnits="userSpaceOnUse"
       gradientTransform="matrix(4.6613573,-0.120345,0.1673359,4.6630443,-2465.5496,-4420.3099)"
       x1="510.13104"
       y1="987.76733"
       x2="509.42908"
       y2="983.16199" />
    <linearGradient
       inkscape:collect="always"
       xlink:href="#linearGradient5439"
       id="linearGradient9794"
       gradientUnits="userSpaceOnUse"
       gradientTransform="matrix(2.6666667,0,0,2.6666667,-1294.3062,-2505.2285)"
       x1="520.0495"
       y1="980.01654"
       x2="505.46637"
       y2="979.97235" />
    <linearGradient
       inkscape:collect="always"
       xlink:href="#linearGradient5439"
       id="linearGradient9796"
       gradientUnits="userSpaceOnUse"
       gradientTransform="matrix(4.6643597,4.7021189e-2,0,4.6643597,-2300.9091,-4508.2312)"
       x1="491.99448"
       y1="955.10822"
       x2="556.50537"
       y2="1020.8551" />
    <linearGradient
       inkscape:collect="always"
       xlink:href="#linearGradient5439"
       id="linearGradient9798"
       gradientUnits="userSpaceOnUse"
       gradientTransform="matrix(4.6643597,4.7021189e-2,0,4.6643597,-2300.9091,-4507.9219)"
       x1="528.23529"
       y1="987.03857"
       x2="489.7879"
       y2="956.6394" />
    <linearGradient
       inkscape:collect="always"
       xlink:href="#linearGradient5439"
       id="linearGradient9800"
       gradientUnits="userSpaceOnUse"
       gradientTransform="matrix(4.5320152,4.5687024e-2,0,4.5320152,-2234.9622,-4379.4824)"
       x1="484.58182"
       y1="944.99841"
       x2="518.39886"
       y2="980.99731" />
    <filter
       inkscape:collect="always"
       id="filter10381">
      <feGaussianBlur
         inkscape:collect="always"
         stdDeviation="0.49765688"
         id="feGaussianBlur10383" />
    </filter>
    <linearGradient
       id="linearGradient5344">
      <stop
         style="stop-color:#000000;stop-opacity:1;"
         offset="0"
         id="stop5346" />
      <stop
         style="stop-color:#000000;stop-opacity:0;"
         offset="1"
         id="stop5348" />
    </linearGradient>
    <linearGradient
       inkscape:collect="always"
       xlink:href="#linearGradient5344"
       id="linearGradient10379"
       x1="1031.4062"
       y1="291.28125"
       x2="991.71881"
       y2="335.78125"
       gradientUnits="userSpaceOnUse"
       gradientTransform="translate(-966.62435,-229.936)" />
    <linearGradient
       id="linearGradient12578">
      <stop
         style="stop-color:#e9b551;stop-opacity:1;"
         offset="0"
         id="stop12580" />
      <stop
         style="stop-color:#b48739;stop-opacity:1;"
         offset="1"
         id="stop12582" />
    </linearGradient>
    <linearGradient
       inkscape:collect="always"
       xlink:href="#linearGradient12578"
       id="linearGradient7370"
       x1="-747.0946"
       y1="-713.92029"
       x2="-747.0946"
       y2="-759.54541"
       gradientUnits="userSpaceOnUse"
       gradientTransform="matrix(1.3139584,0,0,1.3139584,575.86217,155.89933)" />
    <linearGradient
       id="linearGradient5439">
      <stop
         style="stop-color:#ffffff;stop-opacity:1;"
         offset="0"
         id="stop5441" />
      <stop
         style="stop-color:#000000;stop-opacity:1;"
         offset="1"
         id="stop5443" />
    </linearGradient>
    <linearGradient
       inkscape:collect="always"
       xlink:href="#linearGradient5439"
       id="linearGradient7372"
       x1="744.22913"
       y1="713.04987"
       x2="744.22913"
       y2="766.74945"
       gradientUnits="userSpaceOnUse"
       gradientTransform="matrix(1.3139584,0,0,1.3139584,-575.86217,-155.89933)" />
    <inkscape:perspective
       sodipodi:type="inkscape:persp3d"
       inkscape:vp_x="0 : 526.18109 : 1"
       inkscape:vp_y="0 : 1000 : 0"
       inkscape:vp_z="744.09448 : 526.18109 : 1"
       inkscape:persp3d-origin="372.04724 : 350.78739 : 1"
       id="perspective10" />
  </defs>
  <sodipodi:namedview
     id="base"
     pagecolor="#ffffff"
     bordercolor="#666666"
     borderopacity="1.0"
     inkscape:pageopacity="0.0"
     inkscape:pageshadow="2"
     inkscape:zoom="1.7692308"
     inkscape:cx="131.98447"
     inkscape:cy="64.285714"
     inkscape:document-units="px"
     inkscape:current-layer="layer1"
     showgrid="false"
     inkscape:showpageshadow="false"
     inkscape:window-width="927"
     inkscape:window-height="713"
     inkscape:window-x="87"
     inkscape:window-y="25" />
  <metadata
     id="metadata7">
    <rdf:RDF>
      <cc:Work
         rdf:about="">
        <dc:format>image/svg+xml</dc:format>
        <dc:type
           rdf:resource="http://purl.org/dc/dcmitype/StillImage" />
      </cc:Work>
    </rdf:RDF>
  </metadata>
  <g
     inkscape:label="Capa 1"
     inkscape:groupmode="layer"
     id="layer1">
    <path
       id="path9772"
       d="M 120.72202,83.60584 C 120.77962,89.726 117.38868,95.724667 110.92762,96.585947 L 24.807403,116.77443 L 9.6237227,112.49608 C 4.7819091,111.06099 2.4505759,105.19723 2.3411359,99.24336 L 2.6886024,16.118429 C 2.6384425,9.869096 8.0803093,4.196936 15.190683,3.6613093 L 25.933616,2.3439493 L 101.74442,7.865656 C 102.86175,7.824856 104.14335,7.781656 105.32362,7.9425893 L 116.77242,9.0284293 C 118.72228,9.3322427 115.85028,21.828643 115.85028,23.278509 L 120.72202,83.60584 z"
       style="fill:url(#linearGradient9788);fill-rule:evenodd;stroke:none;stroke-width:0.09701986;stroke-linecap:butt;stroke-linejoin:miter;stroke-miterlimit:4;stroke-dasharray:none;stroke-opacity:1"
       sodipodi:nodetypes="ccccccccccccc" />
    <path
       style="fill:url(#linearGradient9790);fill-rule:evenodd;stroke:none;stroke-width:1px;stroke-linecap:butt;stroke-linejoin:miter;stroke-opacity:1"
       d="M 43.423083,120.77579 C 54.911083,124.9 74.151083,123.02051 87.063883,120.02411 C 95.899883,117.97373 100.24442,114.96176 100.34655,112.59896 L 100.23562,109.15877 C 89.588416,106.64451 73.125216,108.43037 61.395083,110.20448 C 54.587883,111.14907 44.642816,113.246 40.871616,115.59637 L 40.849749,119.15576 C 41.133216,119.70747 42.111883,120.39853 43.423083,120.77579 z"
       id="path9774"
       sodipodi:nodetypes="cscccccc" />
    <path
       sodipodi:nodetypes="csccc"
       id="path9776"
       d="M 43.393216,117.67979 C 56.177483,122.21645 74.121216,119.92456 87.034016,116.92816 C 100.03588,113.91109 104.38042,108.40827 96.183616,106.16037 C 85.536416,103.64616 73.095083,105.33445 61.365216,107.10851 C 48.981483,108.82688 35.186096,115.31848 43.393216,117.67979 z"
       style="fill:url(#linearGradient9792);fill-rule:evenodd;stroke:none;stroke-width:1px;stroke-linecap:butt;stroke-linejoin:miter;stroke-opacity:1" />
    <path
       sodipodi:nodetypes="cccccc"
       id="path9778"
       d="M 63.544149,102.49336 L 81.181216,100.48472 L 81.048683,111.03512 C 80.946016,112.86328 68.360149,115.09773 63.544149,113.21203 C 63.191083,113.05301 62.982816,112.79755 62.794016,112.52896 L 63.544149,102.49336 z"
       style="fill:url(#linearGradient9794);fill-opacity:1;stroke:none;stroke-width:0.1;stroke-linecap:round;stroke-miterlimit:4;stroke-opacity:1" />
    <path
       sodipodi:nodetypes="ccccccccc"
       style="fill:url(#linearGradient9796);fill-rule:evenodd;stroke:none;stroke-width:0.1;stroke-linecap:butt;stroke-linejoin:miter;stroke-miterlimit:4;stroke-dasharray:none;stroke-opacity:1"
       d="M 124.79135,89.197173 C 124.85055,95.50536 121.35562,101.68821 114.69615,102.57595 L 28.703189,116.89699 C 21.096923,118.0004 17.066736,110.61587 16.927456,103.03616 L 17.882176,15.114349 C 17.830389,8.6730693 21.995963,1.982216 29.085349,2.5516827 L 114.93162,8.659416 C 121.25322,9.261576 124.90255,12.096323 124.90255,18.478136 L 124.79135,89.197173 z"
       id="path9780" />
    <path
       sodipodi:nodetypes="cccccc"
       id="path9782"
       d="M 23.913296,26.011496 L 23.953829,111.39059 L 120.54842,96.475787 L 120.77375,15.479496 L 117.97722,15.346429 L 23.913296,26.011496 z"
       style="fill:url(#linearGradient9798);fill-opacity:1;fill-rule:evenodd;stroke:none;stroke-width:1px;stroke-linecap:butt;stroke-linejoin:miter;stroke-opacity:1" />
    <path
       style="fill:url(#linearGradient9800);fill-opacity:1;fill-rule:evenodd;stroke:none;stroke-width:1px;stroke-linecap:butt;stroke-linejoin:miter;stroke-opacity:1"
       d="M 23.994256,8.8773093 L 23.993403,108.64901 L 117.79002,94.271867 L 118.00868,15.261896 L 23.994256,8.8773093 z"
       id="path9784"
       sodipodi:nodetypes="ccccc" />
    <path
       sodipodi:nodetypes="ccccccccccccsccsccccccccccccc"
       id="path9786"
       d="M 25.939616,2.3304027 L 15.189616,3.663736 C 8.0792427,4.1993627 2.6394292,9.831016 2.6896157,16.080403 L 2.3562825,99.247067 C 2.4657225,105.20093 4.7644957,111.06197 9.6062827,112.49707 L 24.772949,116.74707 L 24.939616,116.66373 C 26.072603,116.96461 27.324389,117.11179 28.689616,116.91373 L 40.595349,115.03664 C 40.735616,115.00581 40.876949,114.88832 40.856149,115.5804 L 40.856149,119.16373 C 41.139883,119.71544 42.128416,120.36981 43.439616,120.74707 C 54.927616,124.87136 74.110283,122.99347 87.023083,119.99707 C 95.858816,117.94672 100.25428,114.9432 100.35642,112.5804 L 100.27295,109.91373 C 100.65695,108.38941 99.383083,107.03947 96.189483,106.16373 C 95.702283,106.04864 95.184416,106.0116 94.689749,105.91373 L 114.68975,102.5804 C 121.34922,101.69267 124.83215,95.472 124.77295,89.163733 L 124.93962,18.497069 C 124.93962,12.115256 121.26122,9.265976 114.93962,8.663736 L 108.27295,8.163736 L 105.35642,7.913736 C 104.76628,7.8332827 104.13055,7.834616 103.52282,7.8304027 L 103.18948,7.8304027 L 41.439616,3.413736 L 29.106283,2.5804027 C 28.663189,2.5448027 28.192869,2.4777627 27.772949,2.4970693 L 25.939616,2.3304027 z"
       style="fill:none;fill-rule:evenodd;stroke:#000000;stroke-width:1.33333337;stroke-linecap:round;stroke-linejoin:round;stroke-miterlimit:4;stroke-dasharray:none;stroke-opacity:1" />
    <path
       style="fill:url(#linearGradient10379);stroke:none;stroke-width:0.98546892;stroke-linecap:round;stroke-linejoin:round;stroke-miterlimit:4;stroke-dasharray:none;stroke-dashoffset:0;stroke-opacity:1;filter:url(#filter10381)"
       d="M 33.688156,82.345251 C 31.102156,82.345241 29.000656,84.415481 29.000656,87.001501 L 29.000656,91.032751 L 28.188156,91.032751 C 27.410556,91.032751 26.781856,91.661461 26.781856,92.439001 L 26.781856,101.939 C 26.781856,102.71655 27.410556,103.34525 28.188156,103.34525 L 44.188156,103.34525 C 44.965656,103.34525 45.594456,102.71654 45.594456,101.939 L 45.594456,92.439001 C 45.594456,91.661451 44.965656,91.032751 44.188156,91.032751 L 43.188156,91.032751 L 43.188156,87.001501 C 43.188156,84.415501 41.117956,82.345251 38.531856,82.345251 L 33.688156,82.345251 z M 34.531856,84.626501 L 37.688156,84.626501 C 39.375956,84.626511 40.719456,85.975041 40.719456,87.657751 L 40.719456,91.032751 L 31.469356,91.032751 L 31.469356,87.657751 C 31.469456,85.975041 32.844056,84.626501 34.531856,84.626501 z"
       id="rect10364"
       transform="matrix(2.6666667,0,0,2.6666667,0,-213.33333)" />
    <rect
       ry="3.7427056"
       rx="3.7427056"
       y="-58.218342"
       x="-125.32731"
       height="32.813721"
       width="50.148983"
       id="rect7360"
       style="fill:url(#linearGradient7370);stroke:#000000;stroke-width:1.33333337;stroke-linecap:round;stroke-linejoin:round;stroke-miterlimit:4;stroke-dasharray:none;stroke-dashoffset:0;stroke-opacity:1"
       transform="scale(-1,-1)" />
    <rect
       transform="scale(1,-1)"
       ry="1.7776924"
       rx="1.7776924"
       y="-58.291485"
       x="75.486328"
       height="4.949142"
       width="49.445389"
       id="rect7362"
       style="fill:none;stroke:#000000;stroke-width:1.33333337;stroke-linecap:round;stroke-linejoin:round;stroke-miterlimit:4;stroke-dasharray:none;stroke-dashoffset:0;stroke-opacity:1" />
    <path
       sodipodi:nodetypes="ccccccccccccc"
       id="path7365"
       d="M 93.582549,2.213096 C 86.686549,2.213096 81.140949,7.7585893 81.140949,14.654643 L 81.140949,25.402909 L 87.710816,25.427123 L 87.710816,16.379203 C 87.710816,11.892003 91.340149,8.290136 95.840949,8.290136 L 104.29962,8.290136 C 108.80042,8.290136 112.38868,11.891976 112.38868,16.379203 L 112.38868,25.395843 L 118.95828,25.391549 L 118.95828,14.654643 C 118.95828,7.758616 113.41295,2.213096 106.51695,2.213096 L 93.582549,2.213096 z"
       style="fill:url(#linearGradient7372);stroke:#000000;stroke-width:1.33333337;stroke-linecap:round;stroke-linejoin:round;stroke-miterlimit:4;stroke-dasharray:none;stroke-dashoffset:0;stroke-opacity:1" />
    <path
       sodipodi:nodetypes="ccccccccccc"
       id="path7367"
       d="M 99.004416,40.231816 L 97.507616,45.405523 L 102.92068,45.425789 L 101.50122,40.231816 C 102.54575,40.231816 103.38682,39.388216 103.38682,38.340349 L 103.38682,36.649656 C 103.38682,35.601789 102.54575,34.758189 101.50122,34.758189 L 99.004416,34.758189 C 97.959616,34.758189 97.118549,35.601789 97.118549,36.649656 L 97.118549,38.340349 C 97.118549,39.388216 97.959616,40.231816 99.004416,40.231816 z"
       style="fill:#000000;stroke:#000000;stroke-width:1.33333337;stroke-linecap:round;stroke-linejoin:round;stroke-miterlimit:4;stroke-dasharray:none;stroke-dashoffset:0;stroke-opacity:1" />
  </g>
</svg>
