<?xml version="1.0" encoding="UTF-8" standalone="no"?>
<!-- Created with Inkscape (http://www.inkscape.org/) -->
<svg
   xmlns:dc="http://purl.org/dc/elements/1.1/"
   xmlns:cc="http://creativecommons.org/ns#"
   xmlns:rdf="http://www.w3.org/1999/02/22-rdf-syntax-ns#"
   xmlns:svg="http://www.w3.org/2000/svg"
   xmlns="http://www.w3.org/2000/svg"
   xmlns:xlink="http://www.w3.org/1999/xlink"
   xmlns:sodipodi="http://sodipodi.sourceforge.net/DTD/sodipodi-0.dtd"
   xmlns:inkscape="http://www.inkscape.org/namespaces/inkscape"
   width="48px"
   height="48px"
   id="svg17121"
   sodipodi:version="0.32"
   inkscape:version="0.46"
   sodipodi:docname="emblem-danger.svg"
   inkscape:output_extension="org.inkscape.output.svg.inkscape">
  <defs
     id="defs17123">
    <linearGradient
       inkscape:collect="always"
       xlink:href="#linearGradient2818"
       id="linearGradient16197"
       gradientUnits="userSpaceOnUse"
       gradientTransform="matrix(1.0416667,0,0,1.0416667,196.35216,1007.1291)"
       x1="22.5"
       y1="-0.00033215381"
       x2="22.5"
       y2="48.001324" />
    <linearGradient
       inkscape:collect="always"
       xlink:href="#linearGradient2818"
       id="linearGradient16073"
       gradientUnits="userSpaceOnUse"
       gradientTransform="matrix(0.9803922,0,0,0.9803922,0.4705958,0.4707031)"
       x1="22.5"
       y1="-0.00033215381"
       x2="22.5"
       y2="48.001324" />
    <linearGradient
       id="linearGradient2818">
      <stop
         style="stop-color:#ff6e00;stop-opacity:1;"
         offset="0"
         id="stop2820" />
      <stop
         style="stop-color:#eb2600;stop-opacity:1;"
         offset="1"
         id="stop2822" />
    </linearGradient>
    <inkscape:perspective
       sodipodi:type="inkscape:persp3d"
       inkscape:vp_x="0 : 24 : 1"
       inkscape:vp_y="0 : 1000 : 0"
       inkscape:vp_z="48 : 24 : 1"
       inkscape:persp3d-origin="24 : 16 : 1"
       id="perspective17129" />
  </defs>
  <sodipodi:namedview
     id="base"
     pagecolor="#ffffff"
     bordercolor="#666666"
     borderopacity="1.0"
     inkscape:pageopacity="0.0"
     inkscape:pageshadow="2"
     inkscape:zoom="4"
     inkscape:cx="38.794462"
     inkscape:cy="21.451686"
     inkscape:current-layer="layer1"
     showgrid="true"
     inkscape:grid-bbox="true"
     inkscape:document-units="px"
     inkscape:window-width="1024"
     inkscape:window-height="731"
     inkscape:window-x="0"
     inkscape:window-y="6" />
  <metadata
     id="metadata17126">
    <rdf:RDF>
      <cc:Work
         rdf:about="">
        <dc:format>image/svg+xml</dc:format>
        <dc:type
           rdf:resource="http://purl.org/dc/dcmitype/StillImage" />
      </cc:Work>
    </rdf:RDF>
  </metadata>
  <g
     id="layer1"
     inkscape:label="Layer 1"
     inkscape:groupmode="layer">
    <g
       id="g6277"
       transform="matrix(0.9411765,0,0,0.9411765,-184.33148,-947.41572)">
      <rect
         ry="3.0251966"
         rx="3.0251966"
         y="1007.1292"
         x="196.35216"
         height="50"
         width="50"
         id="rect5668-5"
         style="fill:url(#linearGradient16197);fill-opacity:1;stroke:none" />
      <path
         id="path5696-1-6-1"
         d="M 221.023,1009.1884 C 217.9777,1009.1574 214.88024,1009.9073 212.148,1011.5321 C 204.86203,1015.865 202.84454,1024.7103 207.648,1031.2821 L 207.6792,1031.2821 C 207.52169,1031.9678 207.30733,1032.6933 207.02295,1033.5009 C 206.43395,1035.1734 206.3613,1037.0487 209.5542,1038.5009 C 209.73637,1039.7488 209.92757,1040.917 210.14795,1042.1259 L 204.46045,1040.5947 C 204.7517,1039.5061 204.10988,1038.3862 203.02295,1038.0947 C 202.81916,1038.0397 202.62956,1038.0227 202.4292,1038.0317 C 201.56098,1038.0667 200.75959,1038.6476 200.52295,1039.5317 C 200.38505,1040.0471 200.48085,1040.5622 200.71045,1041.0005 C 200.29276,1041.265 199.94211,1041.7039 199.8042,1042.2193 C 199.51296,1043.3076 200.18602,1044.3963 201.27295,1044.688 C 202.35988,1044.9796 203.48171,1044.3389 203.77295,1043.2505 L 210.71045,1045.1255 C 210.82122,1045.7714 210.93972,1046.4275 211.0542,1047.188 C 211.0879,1047.4116 211.1391,1047.632 211.21045,1047.8443 L 203.77295,1049.8443 C 203.48171,1048.7557 202.35988,1048.1152 201.27295,1048.4067 C 200.18602,1048.6984 199.51296,1049.8184 199.8042,1050.9067 C 199.94211,1051.4221 200.29276,1051.8296 200.71045,1052.0943 C 200.48082,1052.5325 200.38505,1053.0476 200.52295,1053.563 C 200.8142,1054.6513 201.93603,1055.2921 203.02295,1055.0005 C 204.10988,1054.7088 204.75169,1053.5889 204.46045,1052.5005 L 212.8667,1050.2505 C 213.78902,1051.132 214.91291,1051.873 215.89795,1052.5317 C 220.22721,1054.7364 221.11235,1054.8456 225.4292,1052.5317 C 226.51728,1051.8041 227.77157,1050.9725 228.7417,1049.9693 L 238.2417,1052.5005 C 237.95046,1053.5889 238.59227,1054.7088 239.6792,1055.0005 C 240.76613,1055.2921 241.88796,1054.6513 242.1792,1053.563 C 242.31711,1053.0476 242.2526,1052.5325 242.02295,1052.0943 C 242.44064,1051.8296 242.76005,1051.4221 242.89795,1050.9067 C 243.1892,1049.8184 242.54738,1048.6984 241.46045,1048.4067 C 240.37353,1048.1152 239.2517,1048.7557 238.96045,1049.8443 L 230.2417,1047.5005 C 230.2656,1047.3995 230.2574,1047.2914 230.2729,1047.188 C 230.3666,1046.5657 230.46325,1046.0438 230.55415,1045.5005 L 238.9604,1043.2505 C 239.25165,1044.3389 240.37348,1044.9796 241.4604,1044.688 C 242.54733,1044.3963 243.18915,1043.3076 242.8979,1042.2193 C 242.76,1041.7039 242.44059,1041.265 242.0229,1041.0005 C 242.25253,1040.5622 242.31706,1040.0471 242.17915,1039.5317 C 241.92432,1038.5796 241.03163,1037.9751 240.0854,1038.0317 C 239.95023,1038.0417 239.81502,1038.0577 239.67915,1038.0947 C 238.59222,1038.3862 237.95041,1039.5061 238.24165,1040.5947 L 231.0854,1042.5009 C 231.34005,1041.1378 231.57042,1039.8879 231.7729,1038.5009 C 234.96581,1037.0487 234.86191,1035.1734 234.2729,1033.5009 C 234.0465,1032.858 233.88608,1032.2524 233.74165,1031.6884 C 237.59691,1026.7842 237.72272,1020.614 234.05415,1015.5947 C 231.05199,1011.4872 226.09841,1009.2406 221.0229,1009.1884 L 221.023,1009.1884 z M 214.36675,1027.3134 C 216.74097,1027.3134 218.648,1028.8968 218.648,1030.8759 C 218.648,1032.8549 216.74097,1034.4697 214.36675,1034.4697 C 211.99252,1034.4697 210.05425,1032.8549 210.05425,1030.8759 C 210.05425,1028.8968 211.99252,1027.3134 214.36675,1027.3134 z M 227.30425,1027.3134 C 229.67848,1027.3134 231.61675,1028.8968 231.61675,1030.8759 C 231.61675,1032.8549 229.67848,1034.4697 227.30425,1034.4697 C 224.93003,1034.4697 222.99175,1032.8549 222.99175,1030.8759 C 222.99175,1028.8968 224.93003,1027.3134 227.30425,1027.3134 z M 220.74175,1034.2197 C 220.80705,1034.2097 220.86505,1034.2197 220.92925,1034.2197 C 220.99345,1034.2197 221.05425,1034.2357 221.11675,1034.2507 C 221.24181,1034.2797 221.35522,1034.3377 221.4605,1034.4069 C 221.4635,1034.4069 221.4878,1034.4069 221.4917,1034.4069 C 222.23108,1034.791 222.9372,1035.7627 223.3042,1036.9695 C 223.82902,1038.6946 223.46092,1040.2646 222.46045,1040.5007 C 221.9442,1040.6226 221.34713,1039.8445 220.83545,1039.8445 C 220.32194,1039.8445 219.72805,1040.6229 219.21045,1040.5007 C 218.20998,1040.2646 217.84188,1038.6947 218.3667,1036.9695 C 218.73371,1035.7627 219.43983,1034.791 220.1792,1034.4069 C 220.28448,1034.3379 220.42913,1034.2807 220.5542,1034.2507 C 220.6167,1034.2357 220.6775,1034.2197 220.7417,1034.2197 L 220.74175,1034.2197 z M 211.023,1038.5947 C 211.04381,1038.5934 211.06469,1038.5934 211.0855,1038.5947 C 211.14941,1038.593 211.21306,1038.6035 211.273,1038.6257 C 211.80729,1038.7924 212.41328,1038.9446 213.0855,1039.0945 C 213.70812,1039.2329 214.14292,1039.6281 214.398,1040.0632 C 214.65308,1040.4983 214.7615,1040.9593 214.8355,1041.3757 C 214.9095,1041.7921 214.98075,1042.1836 215.05425,1042.3757 C 215.09095,1042.4717 215.10875,1042.4907 215.11675,1042.5007 C 215.12475,1042.5107 215.11975,1042.5317 215.17925,1042.5317 C 215.22075,1042.5265 215.26275,1042.5265 215.30425,1042.5317 C 217.02262,1043.0122 218.70655,1043.2489 220.36675,1043.2817 C 220.37715,1043.2821 220.38765,1043.2817 220.39795,1043.2817 C 220.53163,1043.2339 220.67932,1043.2452 220.8042,1043.3127 C 220.8248,1043.3126 220.8461,1043.3128 220.8667,1043.3127 C 221.85161,1043.3027 222.83863,1043.2277 223.8042,1043.0627 C 223.81414,1043.0519 223.82455,1043.0416 223.8354,1043.0317 C 223.86553,1043.0183 223.89692,1043.0079 223.9291,1043.0007 C 223.94991,1042.9994 223.97079,1042.9994 223.9916,1043.0007 C 224.02276,1042.9978 224.05414,1042.9978 224.0853,1043.0007 C 224.1053,1043.0007 224.1278,1043.0007 224.1478,1043.0007 C 224.77031,1042.8823 225.37678,1042.716 225.99155,1042.5319 C 226.03305,1042.5267 226.07505,1042.5267 226.11655,1042.5319 C 226.17605,1042.5319 226.17105,1042.5109 226.17905,1042.5009 C 226.18705,1042.4909 226.20485,1042.4719 226.24155,1042.3759 C 226.31505,1042.1838 226.3863,1041.7923 226.4603,1041.3759 C 226.5343,1040.9595 226.64271,1040.4985 226.8978,1040.0634 C 227.15289,1039.6283 227.58768,1039.2331 228.2103,1039.0947 C 228.88169,1038.9449 229.48716,1038.793 230.0228,1038.6259 C 230.19983,1038.5714 230.39248,1038.6193 230.52345,1038.7502 C 230.65443,1038.8812 230.70228,1039.0739 230.6478,1039.2509 L 228.5228,1045.9071 C 228.2293,1046.8372 227.60807,1047.5713 226.86655,1048.1571 C 226.85661,1048.1679 226.8462,1048.1782 226.83535,1048.1881 C 226.6612,1048.3237 226.49019,1048.4789 226.3041,1048.5944 C 225.49616,1049.0951 224.60403,1049.3957 223.77285,1049.5006 C 223.5805,1049.5246 223.39486,1049.5626 223.21035,1049.5626 L 220.64785,1049.5626 L 218.08535,1049.5626 C 217.86022,1049.5626 217.63397,1049.5356 217.39785,1049.5006 C 217.37704,1049.5019 217.35616,1049.5019 217.33535,1049.5006 C 217.29395,1049.4906 217.25195,1049.4766 217.21035,1049.4696 C 217.18882,1049.4607 217.16794,1049.4504 217.14785,1049.4386 C 216.4313,1049.2935 215.67819,1049.0194 214.9916,1048.5949 C 214.84871,1048.5059 214.7225,1048.3827 214.58535,1048.2823 C 214.57835,1048.2823 214.56085,1048.2923 214.55415,1048.2823 C 214.53263,1048.2734 214.51174,1048.2631 214.49165,1048.2513 C 214.36913,1048.2074 214.26835,1048.1178 214.2104,1048.0013 C 214.19955,1047.9914 214.18914,1047.9811 214.1792,1047.9703 C 213.53817,1047.4133 213.00302,1046.7359 212.7417,1045.9077 L 211.71045,1042.5953 C 211.70987,1042.5943 211.67925,1042.5643 211.67925,1042.5643 C 211.60688,1042.4651 211.57353,1042.3428 211.58555,1042.2206 L 211.58555,1042.1896 L 210.64805,1039.2521 C 210.60954,1039.1236 210.62425,1038.9851 210.68889,1038.8675 C 210.75353,1038.75 210.86267,1038.6634 210.9918,1038.6271 C 211.00174,1038.6163 211.01215,1038.606 211.023,1038.5961 L 211.023,1038.5947 z M 211.898,1039.8447 L 212.61675,1042.1884 C 212.71315,1042.3217 212.98919,1042.6854 213.4605,1043.2821 C 213.69883,1043.5841 213.94658,1043.8961 214.2105,1044.1884 L 214.05425,1042.9697 C 214.0308,1042.8649 214.04174,1042.7552 214.08545,1042.6571 C 213.96009,1042.2978 213.93099,1041.925 213.8667,1041.5634 C 213.7984,1041.1792 213.6999,1040.8119 213.5542,1040.5634 C 213.4085,1040.3149 213.23872,1040.1776 212.8667,1040.0947 C 212.50865,1040.0147 212.22154,1039.9296 211.89795,1039.8447 L 211.898,1039.8447 z M 229.398,1039.8447 C 229.07648,1039.9297 228.78773,1040.0146 228.42925,1040.0947 C 228.05722,1040.1777 227.88745,1040.3149 227.74175,1040.5634 C 227.59605,1040.8119 227.5288,1041.1792 227.4605,1041.5634 C 227.3922,1041.9476 227.3248,1042.3389 227.17925,1042.7197 C 227.15445,1042.7847 227.11685,1042.8401 227.08555,1042.9071 C 227.08687,1042.9281 227.08687,1042.9491 227.08555,1042.9701 L 226.9293,1044.1888 C 227.20044,1043.896 227.47173,1043.5851 227.71055,1043.2825 C 228.25861,1042.5886 228.64805,1042.0013 228.64805,1042.0013 C 228.67254,1041.955 228.70416,1041.9128 228.74175,1041.8763 C 228.75169,1041.8655 228.7621,1041.8552 228.77295,1041.8453 L 229.39795,1039.8453 L 229.398,1039.8447 z M 215.148,1043.5321 L 215.36675,1045.2197 C 215.79995,1045.5019 216.26908,1045.7595 216.74175,1045.9384 L 216.61675,1043.8759 C 216.14077,1043.7789 215.65782,1043.6624 215.17925,1043.5321 C 215.16895,1043.5321 215.15835,1043.5321 215.14805,1043.5321 L 215.148,1043.5321 z M 226.023,1043.5631 C 225.52312,1043.7055 225.02868,1043.8058 224.523,1043.9068 L 224.398,1045.9381 C 224.88385,1045.7542 225.36071,1045.4806 225.80425,1045.1881 L 226.023,1043.5631 z M 217.61675,1044.0318 L 217.773,1046.1881 C 217.9718,1046.2181 218.17146,1046.2501 218.36675,1046.2501 L 220.0855,1046.2501 L 220.0855,1044.2813 C 219.2728,1044.2543 218.43923,1044.1588 217.61675,1044.0313 L 217.61675,1044.0318 z M 223.4605,1044.0948 C 222.67746,1044.2059 221.88023,1044.2683 221.0855,1044.2822 L 221.0855,1046.251 L 222.773,1046.251 C 222.96829,1046.251 223.16795,1046.219 223.36675,1046.189 L 223.523,1044.0953 C 223.5027,1044.0953 223.4808,1044.0953 223.4605,1044.0953 L 223.4605,1044.0948 z M 227.898,1044.5948 C 227.53144,1045.0207 227.16816,1045.4397 226.773,1045.751 L 226.898,1046.8135 C 227.2115,1046.4553 227.44965,1046.0564 227.5855,1045.626 L 227.898,1044.5948 z M 213.4605,1044.8135 L 213.7105,1045.626 C 213.82423,1045.9863 214.03088,1046.3148 214.273,1046.626 L 214.3667,1045.7198 C 214.05136,1045.4666 213.75964,1045.1471 213.46045,1044.8135 L 213.4605,1044.8135 z M 215.30425,1046.3448 L 215.17925,1047.501 C 215.29415,1047.585 215.40091,1047.6755 215.523,1047.751 C 215.9467,1048.0131 216.3927,1048.2071 216.8355,1048.3448 L 216.8043,1046.9698 C 216.28767,1046.8087 215.76981,1046.6115 215.3043,1046.3448 L 215.30425,1046.3448 z M 225.86675,1046.3448 C 225.3886,1046.6163 224.86838,1046.8083 224.3355,1046.9698 L 224.3043,1048.376 C 224.79528,1048.2395 225.30053,1048.0439 225.77305,1047.751 C 225.85005,1047.703 225.91748,1047.6459 225.9918,1047.5948 L 225.8668,1046.3448 L 225.86675,1046.3448 z M 217.80425,1047.2198 L 217.86675,1048.5322 C 217.93865,1048.5422 218.01752,1048.5632 218.0855,1048.5632 L 220.0855,1048.5632 L 220.0855,1047.2507 L 218.36675,1047.2507 C 218.1745,1047.2507 217.99338,1047.2407 217.80425,1047.2197 L 217.80425,1047.2198 z M 223.273,1047.2198 C 223.1034,1047.2378 222.94418,1047.2508 222.773,1047.2508 L 221.0855,1047.2508 L 221.0855,1048.5633 L 223.2105,1048.5633 C 223.2296,1048.5633 223.2535,1048.5637 223.273,1048.5633 L 223.3355,1047.2196 C 223.3159,1047.2196 223.2927,1047.2196 223.273,1047.2196 L 223.273,1047.2198 z"
         style="fill:#ffffff;stroke:none" />
    </g>
    <rect
       ry="2.8472438"
       rx="2.8472438"
       y="0.47058824"
       x="0.47058824"
       height="47.058823"
       width="47.058823"
       id="rect4228-87"
       style="fill:none;stroke:#344b63;stroke-width:0.94117647;stroke-miterlimit:4;stroke-dasharray:none;stroke-opacity:1" />
  </g>
</svg>
