<?xml version="1.0" encoding="UTF-8" standalone="no"?>
<!-- Created with Inkscape (http://www.inkscape.org/) -->

<svg
   xmlns:dc="http://purl.org/dc/elements/1.1/"
   xmlns:cc="http://creativecommons.org/ns#"
   xmlns:rdf="http://www.w3.org/1999/02/22-rdf-syntax-ns#"
   xmlns:svg="http://www.w3.org/2000/svg"
   xmlns="http://www.w3.org/2000/svg"
   xmlns:xlink="http://www.w3.org/1999/xlink"
   xmlns:sodipodi="http://sodipodi.sourceforge.net/DTD/sodipodi-0.dtd"
   xmlns:inkscape="http://www.inkscape.org/namespaces/inkscape"
   width="48"
   height="48"
   viewBox="0 0 48 48.000001"
   id="svg10223"
   version="1.1"
   inkscape:version="0.91 r13725"
   sodipodi:docname="emblem-certified.svg">
  <defs
     id="defs10225">
    <linearGradient
       id="linearGradient9863">
      <stop
         id="stop9865"
         offset="0"
         style="stop-color:#2f445a;stop-opacity:1;" />
      <stop
         id="stop9867"
         offset="1"
         style="stop-color:#415f7c;stop-opacity:1" />
    </linearGradient>
    <linearGradient
       id="linearGradient26351">
      <stop
         id="stop26353"
         offset="0"
         style="stop-color:#aac736;stop-opacity:1;" />
      <stop
         id="stop26355"
         offset="1"
         style="stop-color:#5d8b2c;stop-opacity:1;" />
    </linearGradient>
    <linearGradient
       id="linearGradient3737-0">
      <stop
         offset="0"
         style="stop-color:#ffffff;stop-opacity:1"
         id="stop3739-6" />
      <stop
         offset="1"
         style="stop-color:#ffffff;stop-opacity:0"
         id="stop3741-0" />
    </linearGradient>
    <linearGradient
       id="linearGradient5439">
      <stop
         id="stop5441"
         offset="0"
         style="stop-color:#ffffff;stop-opacity:1;" />
      <stop
         id="stop5443"
         offset="1"
         style="stop-color:#000000;stop-opacity:1;" />
    </linearGradient>
    <linearGradient
       id="linearGradient12578">
      <stop
         style="stop-color:#e9b551;stop-opacity:1;"
         offset="0"
         id="stop12580" />
      <stop
         style="stop-color:#b48739;stop-opacity:1;"
         offset="1"
         id="stop12582" />
    </linearGradient>
    <linearGradient
       id="linearGradient12336">
      <stop
         style="stop-color:#ff6e00;stop-opacity:1;"
         offset="0"
         id="stop12338" />
      <stop
         style="stop-color:#eb2600;stop-opacity:1;"
         offset="1"
         id="stop12340" />
    </linearGradient>
    <inkscape:path-effect
       effect="spiro"
       id="path-effect8644"
       is_visible="true" />
    <linearGradient
       inkscape:collect="always"
       xlink:href="#linearGradient9863"
       id="linearGradient8640"
       gradientUnits="userSpaceOnUse"
       x1="45.556717"
       y1="188.71356"
       x2="10.105879"
       y2="144.59016" />
    <linearGradient
       inkscape:collect="always"
       xlink:href="#linearGradient3737-0"
       id="linearGradient8638"
       gradientUnits="userSpaceOnUse"
       x1="24.660076"
       y1="147.63753"
       x2="49.445366"
       y2="169.26253"
       gradientTransform="translate(-20,860.00001)" />
    <linearGradient
       inkscape:collect="always"
       xlink:href="#linearGradient12578"
       id="linearGradient8636"
       gradientUnits="userSpaceOnUse"
       gradientTransform="matrix(1.4093069,0,0,1.4093069,-168.89679,-1147.3179)"
       x1="140.55742"
       y1="921.52106"
       x2="159.85852"
       y2="954.30365" />
  </defs>
  <sodipodi:namedview
     id="base"
     pagecolor="#ffffff"
     bordercolor="#666666"
     borderopacity="1.0"
     inkscape:pageopacity="0.0"
     inkscape:pageshadow="2"
     inkscape:zoom="3.959798"
     inkscape:cx="11.895147"
     inkscape:cy="22.948902"
     inkscape:document-units="px"
     inkscape:current-layer="layer1"
     showgrid="false"
     units="px"
     borderlayer="true"
     inkscape:showpageshadow="false"
     inkscape:window-width="1600"
     inkscape:window-height="847"
     inkscape:window-x="0"
     inkscape:window-y="0"
     inkscape:window-maximized="1" />
  <metadata
     id="metadata10228">
    <rdf:RDF>
      <cc:Work
         rdf:about="">
        <dc:format>image/svg+xml</dc:format>
        <dc:type
           rdf:resource="http://purl.org/dc/dcmitype/StillImage" />
        <dc:title></dc:title>
      </cc:Work>
    </rdf:RDF>
  </metadata>
  <g
     inkscape:label="Capa 1"
     inkscape:groupmode="layer"
     id="layer1"
     transform="translate(0,-1004.3622)">
    <path
       transform="matrix(0.58098494,0,0,0.58075764,7.4604,928.64373)"
       sodipodi:type="star"
       style="display:inline;opacity:1;fill:#000000;fill-opacity:0.43921569;stroke:none;stroke-width:1.89218307;stroke-linecap:round;stroke-linejoin:round;stroke-miterlimit:4;stroke-dasharray:none;stroke-dashoffset:0;stroke-opacity:1"
       id="path8628"
       sodipodi:sides="7"
       sodipodi:cx="24.378773"
       sodipodi:cy="174.35516"
       sodipodi:r1="35.899445"
       sodipodi:r2="25.61738"
       sodipodi:arg1="0.69233443"
       sodipodi:arg2="1.1411334"
       inkscape:flatsided="false"
       inkscape:rounded="0.010368286"
       inkscape:randomized="0"
       d="m 52.012656,197.27107 c -0.112293,0.13541 -16.802669,0.29973 -16.962595,0.37301 -0.159926,0.0733 -11.182335,12.60732 -11.358218,12.60396 -0.175884,-0.003 -10.710636,-12.94998 -10.867641,-13.02932 -0.157005,-0.0793 -16.8288706,-0.88217 -16.9359003,-1.02178 -0.1070297,-0.13961 3.44672435,-16.44809 3.41086835,-16.62031 -0.035856,-0.17222 -9.80292305,-13.70736 -9.76050405,-13.87809 0.04242,-0.17072 15.0086315,-7.56046 15.1209247,-7.69587 0.1122932,-0.13541 4.6048252,-16.21063 4.7647511,-16.28391 0.159926,-0.0733 15.2687322,7.02035 15.4446162,7.02371 0.175883,0.003 15.545046,-6.50696 15.702051,-6.42762 0.157005,0.0794 4.031167,16.31469 4.138196,16.4543 0.10703,0.13961 14.779531,8.09658 14.815387,8.26881 0.03586,0.17222 -10.24195,13.32373 -10.284369,13.49446 -0.04242,0.17072 2.884726,16.60323 2.772433,16.73865 z" />
    <path
       sodipodi:type="star"
       style="display:inline;opacity:1;fill:url(#linearGradient8636);fill-opacity:1;stroke:none;stroke-width:1.7215519;stroke-linecap:round;stroke-linejoin:round;stroke-miterlimit:4;stroke-dasharray:none;stroke-dashoffset:0;stroke-opacity:1"
       id="path8630"
       sodipodi:sides="7"
       sodipodi:cx="32.628357"
       sodipodi:cy="167.28407"
       sodipodi:r1="35.899445"
       sodipodi:r2="25.61738"
       sodipodi:arg1="0.69233443"
       sodipodi:arg2="1.1411334"
       inkscape:flatsided="false"
       inkscape:rounded="0.010368286"
       inkscape:randomized="0"
       d="m 60.26224,190.19998 c -0.112293,0.13541 -16.802669,0.29973 -16.962595,0.37301 -0.159926,0.0733 -11.182335,12.60732 -11.358218,12.60395 -0.175883,-0.003 -10.710636,-12.94997 -10.867641,-13.02931 -0.157005,-0.0794 -16.8288704,-0.88217 -16.9359001,-1.02178 -0.1070297,-0.13961 3.4467244,-16.44809 3.4108683,-16.62031 -0.035856,-0.17222 -9.802923,-13.70737 -9.7605036,-13.87809 0.042419,-0.17072 15.0086314,-7.56046 15.1209244,-7.69587 0.112293,-0.13541 4.604825,-16.21063 4.764751,-16.28391 0.159926,-0.0733 15.268732,7.02035 15.444616,7.02371 0.175883,0.003 15.545046,-6.50697 15.702051,-6.42762 0.157005,0.0794 4.031167,16.31469 4.138197,16.4543 0.107029,0.13961 14.77953,8.09658 14.815386,8.2688 0.03586,0.17223 -10.24195,13.32374 -10.284369,13.49447 -0.04242,0.17072 2.884726,16.60323 2.772433,16.73865 z"
       transform="matrix(0.58098494,0,0,0.58075764,6.695235,927.79018)" />
    <path
       id="path8632"
       d="m 16.962891,1005.9883 c -0.09291,0.043 -2.702338,9.3784 -2.767579,9.457 -0.06524,0.079 -8.760511,4.3696 -8.785156,4.4687 -0.02465,0.099 5.64909,7.9606 5.669922,8.0606 0.02083,0.1 -2.042651,9.5713 -1.980469,9.6523 0.06218,0.081 9.748627,0.5477 9.839844,0.5938 0.09122,0.046 6.210315,7.5644 6.3125,7.5664 0.102186,0 6.506695,-7.2778 6.599609,-7.3203 0.09291,-0.043 9.790229,-0.1382 9.855469,-0.2168 0.06524,-0.079 -1.635973,-9.6216 -1.611328,-9.7207 0.02464,-0.099 5.995441,-7.7379 5.974609,-7.8379 -0.02083,-0.1 -8.545239,-4.7197 -8.607421,-4.8008 -0.06218,-0.081 -2.31308,-9.5106 -2.404297,-9.5566 -0.09122,-0.046 -9.018908,3.7343 -9.121094,3.7324 -0.102186,0 -8.881695,-4.1207 -8.974609,-4.0781 z m 3.130859,6.8281 1.09375,0.5059 c 1.766326,0.7453 3.528583,1.9787 5.541016,1.6093 1.721891,-0.4018 3.292072,-1.2728 4.941406,-1.8945 0.47729,1.698 0.707777,3.4824 1.408203,5.1074 0.735324,1.5339 2.325722,2.2677 3.742187,3.0352 0.766603,0.5493 2.616367,0.8728 1.261719,1.8633 -1.14074,1.6073 -2.805179,3.0659 -2.90625,5.1679 0.009,1.7693 0.507674,3.4968 0.748047,5.2442 -1.762957,0.087 -3.553321,-0.083 -5.294922,0.2363 -1.656618,0.3769 -2.732746,1.7603 -3.794922,2.9707 -0.706031,0.6245 -1.431651,2.3573 -2.095703,0.8164 -1.312494,-1.4695 -2.365526,-3.4171 -4.392578,-3.9824 -1.727474,-0.3874 -3.525158,-0.2846 -5.283203,-0.4395 0.305902,-1.7372 0.872386,-3.443 0.947266,-5.2109 0.0024,-1.701 -1.109752,-3.053 -2.052735,-4.3594 -0.452574,-0.8271 -1.980908,-1.9199 -0.330078,-2.2246 1.725805,-0.9526 3.859769,-1.5468 4.863281,-3.3965 0.759994,-1.5982 1.061413,-3.3701 1.603516,-5.0488 z"
       style="display:inline;opacity:1;fill:url(#linearGradient8638);fill-opacity:1;stroke:none;stroke-width:1.7215519;stroke-linecap:round;stroke-linejoin:round;stroke-miterlimit:4;stroke-dasharray:none;stroke-dashoffset:0;stroke-opacity:1"
       inkscape:connector-curvature="0" />
    <path
       sodipodi:type="star"
       style="display:inline;opacity:1;fill:none;fill-opacity:1;stroke:url(#linearGradient8640);stroke-width:1.7215519;stroke-linecap:round;stroke-linejoin:round;stroke-miterlimit:4;stroke-dasharray:none;stroke-dashoffset:0;stroke-opacity:1"
       id="path8634"
       sodipodi:sides="7"
       sodipodi:cx="32.628357"
       sodipodi:cy="167.28407"
       sodipodi:r1="35.899445"
       sodipodi:r2="25.61738"
       sodipodi:arg1="0.69233443"
       sodipodi:arg2="1.1411334"
       inkscape:flatsided="false"
       inkscape:rounded="0.010368286"
       inkscape:randomized="0"
       d="m 60.26224,190.19998 c -0.112293,0.13541 -16.802669,0.29973 -16.962595,0.37301 -0.159926,0.0733 -11.182335,12.60732 -11.358218,12.60395 -0.175883,-0.003 -10.710636,-12.94997 -10.867641,-13.02931 -0.157005,-0.0794 -16.8288704,-0.88217 -16.9359001,-1.02178 -0.1070297,-0.13961 3.4467244,-16.44809 3.4108683,-16.62031 -0.035856,-0.17222 -9.802923,-13.70737 -9.7605036,-13.87809 0.042419,-0.17072 15.0086314,-7.56046 15.1209244,-7.69587 0.112293,-0.13541 4.604825,-16.21063 4.764751,-16.28391 0.159926,-0.0733 15.268732,7.02035 15.444616,7.02371 0.175883,0.003 15.545046,-6.50697 15.702051,-6.42762 0.157005,0.0794 4.031167,16.31469 4.138197,16.4543 0.107029,0.13961 14.77953,8.09658 14.815386,8.2688 0.03586,0.17223 -10.24195,13.32374 -10.284369,13.49447 -0.04242,0.17072 2.884726,16.60323 2.772433,16.73865 z"
       transform="matrix(0.58098494,0,0,0.58075764,6.695235,927.79018)" />
    <path
       style="display:inline;fill:none;fill-rule:evenodd;stroke:#000000;stroke-width:5;stroke-linecap:round;stroke-linejoin:round;stroke-miterlimit:4;stroke-dasharray:none;stroke-opacity:1"
       d="m 16.851248,1025.2502 6.638619,6.8231 9.36348,-13.3182"
       id="path8642"
       inkscape:path-effect="#path-effect8644"
       inkscape:original-d="m 16.851248,1025.2502 6.638619,6.8231 9.36348,-13.3182"
       inkscape:connector-curvature="0"
       sodipodi:nodetypes="ccc" />
  </g>
</svg>
