<?xml version="1.0" encoding="UTF-8" standalone="no"?>
<!-- Created with Inkscape (http://www.inkscape.org/) -->
<svg
   xmlns:dc="http://purl.org/dc/elements/1.1/"
   xmlns:cc="http://creativecommons.org/ns#"
   xmlns:rdf="http://www.w3.org/1999/02/22-rdf-syntax-ns#"
   xmlns:svg="http://www.w3.org/2000/svg"
   xmlns="http://www.w3.org/2000/svg"
   xmlns:xlink="http://www.w3.org/1999/xlink"
   xmlns:sodipodi="http://sodipodi.sourceforge.net/DTD/sodipodi-0.dtd"
   xmlns:inkscape="http://www.inkscape.org/namespaces/inkscape"
   width="48px"
   height="48px"
   id="svg4247"
   sodipodi:version="0.32"
   inkscape:version="0.46"
   sodipodi:docname="emblem-system.svg"
   inkscape:output_extension="org.inkscape.output.svg.inkscape">
  <defs
     id="defs4249">
    <linearGradient
       inkscape:collect="always"
       xlink:href="#linearGradient2818"
       id="linearGradient16008"
       gradientUnits="userSpaceOnUse"
       gradientTransform="matrix(0.9803922,0,0,0.9803922,0.4705728,0.4706164)"
       x1="22.5"
       y1="-0.00033215381"
       x2="22.5"
       y2="48.001324" />
    <linearGradient
       inkscape:collect="always"
       xlink:href="#linearGradient2818"
       id="linearGradient16025"
       gradientUnits="userSpaceOnUse"
       gradientTransform="matrix(0.9803922,0,0,0.9803922,0.4706024,0.4705973)"
       x1="22.5"
       y1="-0.00033215381"
       x2="22.5"
       y2="48.001324" />
    <linearGradient
       id="linearGradient2818">
      <stop
         style="stop-color:#ff6e00;stop-opacity:1;"
         offset="0"
         id="stop2820" />
      <stop
         style="stop-color:#eb2600;stop-opacity:1;"
         offset="1"
         id="stop2822" />
    </linearGradient>
    <inkscape:perspective
       sodipodi:type="inkscape:persp3d"
       inkscape:vp_x="0 : 24 : 1"
       inkscape:vp_y="0 : 1000 : 0"
       inkscape:vp_z="48 : 24 : 1"
       inkscape:persp3d-origin="24 : 16 : 1"
       id="perspective4255" />
  </defs>
  <sodipodi:namedview
     id="base"
     pagecolor="#ffffff"
     bordercolor="#666666"
     borderopacity="1.0"
     inkscape:pageopacity="0.0"
     inkscape:pageshadow="2"
     inkscape:zoom="7"
     inkscape:cx="24"
     inkscape:cy="24"
     inkscape:current-layer="layer1"
     showgrid="true"
     inkscape:grid-bbox="true"
     inkscape:document-units="px"
     inkscape:window-width="1024"
     inkscape:window-height="731"
     inkscape:window-x="0"
     inkscape:window-y="6" />
  <metadata
     id="metadata4252">
    <rdf:RDF>
      <cc:Work
         rdf:about="">
        <dc:format>image/svg+xml</dc:format>
        <dc:type
           rdf:resource="http://purl.org/dc/dcmitype/StillImage" />
      </cc:Work>
    </rdf:RDF>
  </metadata>
  <g
     id="layer1"
     inkscape:label="Layer 1"
     inkscape:groupmode="layer">
    <rect
       style="fill:url(#linearGradient16008);fill-opacity:1;stroke:none"
       id="rect7023-8"
       width="47.058823"
       height="47.058823"
       x="0.47058824"
       y="0.47058824"
       rx="2.8472438"
       ry="2.8472438" />
    <path
       style="fill:#ffffff;stroke:none"
       d="M 23.176456,5.1176564 C 21.599081,5.1176564 20.323514,6.3932234 20.323514,7.9705976 L 20.323514,10.058832 C 19.044832,10.393411 17.850564,10.93823 16.735279,11.588244 L 15.235279,10.088244 C 14.11991,8.9728748 12.321237,8.9728748 11.205867,10.088244 L 10.058808,11.235303 C 8.9434391,12.350673 8.9434391,14.149346 10.058808,15.264715 L 11.529397,16.735304 C 10.868945,17.854673 10.37079,19.066993 10.029397,20.352951 L 7.941161,20.352951 C 6.3637869,20.352951 5.1176316,21.628518 5.1176316,23.205892 L 5.1176316,24.823539 C 5.1176316,26.400913 6.3637869,27.67648 7.941161,27.67648 L 9.9999849,27.67648 C 10.334018,28.973751 10.841858,30.193534 11.499985,31.323539 L 10.058808,32.764715 C 8.9434391,33.880085 8.9434391,35.678758 10.058808,36.794127 L 11.205867,37.941186 C 12.321237,39.056555 14.11991,39.056555 15.235279,37.941186 L 16.647044,36.529421 C 17.782931,37.200584 19.01623,37.716772 20.323514,38.058833 L 20.323514,40.058833 C 20.323514,41.636207 21.599081,42.882362 23.176456,42.882362 L 24.794103,42.882362 C 26.371477,42.882362 27.647044,41.636207 27.647044,40.058833 L 27.647044,38.058833 C 28.95606,37.717609 30.186065,37.200536 31.323514,36.529421 L 32.735279,37.941186 C 33.850648,39.056555 35.649321,39.056555 36.764691,37.941186 L 37.91175,36.794127 C 39.027119,35.678758 39.027119,33.880085 37.91175,32.764715 L 36.499985,31.352951 C 37.161707,30.219426 37.6647,28.978635 37.999985,27.67648 L 40.029397,27.67648 C 41.606771,27.67648 42.882338,26.400913 42.882338,24.823539 L 42.882338,23.205892 C 42.882338,21.628518 41.606771,20.352951 40.029397,20.352951 L 37.970573,20.352951 C 37.6287,19.065186 37.10295,17.855972 36.441161,16.735304 L 37.91175,15.264715 C 39.027119,14.149346 39.027119,12.350673 37.91175,11.235303 L 36.764691,10.088244 C 35.649321,8.9728748 33.850648,8.9728748 32.735279,10.088244 L 31.264691,11.558832 C 30.145096,10.906051 28.93127,10.3936 27.647044,10.058832 L 27.647044,7.9705976 C 27.647044,6.3932234 26.371477,5.1176564 24.794103,5.1176564 L 23.176456,5.1176564 z M 23.470573,19.088245 C 23.6383,19.071209 23.827787,19.088245 23.999985,19.088245 C 26.755204,19.088245 28.970573,21.303614 28.970573,24.058833 C 28.970573,26.814052 26.755204,29.058833 23.999985,29.058833 C 21.244766,29.058833 18.999985,26.814052 18.999985,24.058833 C 18.999985,21.475812 20.954677,19.344 23.470573,19.088245 z"
       id="path7043-0" />
    <rect
       ry="2.8472438"
       rx="2.8472438"
       y="0.47058824"
       x="0.47058824"
       height="47.058823"
       width="47.058823"
       id="rect4228-13"
       style="fill:none;stroke:#344b63;stroke-width:0.94117647;stroke-miterlimit:4;stroke-dasharray:none;stroke-opacity:1" />
  </g>
</svg>
