<?xml version="1.0" encoding="UTF-8" standalone="no"?>
<!-- Created with Inkscape (http://www.inkscape.org/) -->

<svg
   xmlns:dc="http://purl.org/dc/elements/1.1/"
   xmlns:cc="http://creativecommons.org/ns#"
   xmlns:rdf="http://www.w3.org/1999/02/22-rdf-syntax-ns#"
   xmlns:svg="http://www.w3.org/2000/svg"
   xmlns="http://www.w3.org/2000/svg"
   xmlns:xlink="http://www.w3.org/1999/xlink"
   xmlns:sodipodi="http://sodipodi.sourceforge.net/DTD/sodipodi-0.dtd"
   xmlns:inkscape="http://www.inkscape.org/namespaces/inkscape"
   width="48"
   height="48"
   viewBox="0 0 48 48.000001"
   id="svg10223"
   version="1.1"
   inkscape:version="0.91 r13725"
   sodipodi:docname="emblem-danger.svg">
  <defs
     id="defs10225">
    <linearGradient
       id="linearGradient9863">
      <stop
         id="stop9865"
         offset="0"
         style="stop-color:#2f445a;stop-opacity:1;" />
      <stop
         id="stop9867"
         offset="1"
         style="stop-color:#415f7c;stop-opacity:1" />
    </linearGradient>
    <linearGradient
       id="linearGradient26351">
      <stop
         id="stop26353"
         offset="0"
         style="stop-color:#aac736;stop-opacity:1;" />
      <stop
         id="stop26355"
         offset="1"
         style="stop-color:#5d8b2c;stop-opacity:1;" />
    </linearGradient>
    <linearGradient
       id="linearGradient3737-0">
      <stop
         offset="0"
         style="stop-color:#ffffff;stop-opacity:1"
         id="stop3739-6" />
      <stop
         offset="1"
         style="stop-color:#ffffff;stop-opacity:0"
         id="stop3741-0" />
    </linearGradient>
    <linearGradient
       id="linearGradient5439">
      <stop
         id="stop5441"
         offset="0"
         style="stop-color:#ffffff;stop-opacity:1;" />
      <stop
         id="stop5443"
         offset="1"
         style="stop-color:#000000;stop-opacity:1;" />
    </linearGradient>
    <linearGradient
       id="linearGradient12578">
      <stop
         style="stop-color:#e9b551;stop-opacity:1;"
         offset="0"
         id="stop12580" />
      <stop
         style="stop-color:#b48739;stop-opacity:1;"
         offset="1"
         id="stop12582" />
    </linearGradient>
    <linearGradient
       id="linearGradient12336">
      <stop
         style="stop-color:#ff6e00;stop-opacity:1;"
         offset="0"
         id="stop12338" />
      <stop
         style="stop-color:#eb2600;stop-opacity:1;"
         offset="1"
         id="stop12340" />
    </linearGradient>
    <inkscape:path-effect
       effect="spiro"
       id="path-effect8644"
       is_visible="true" />
    <linearGradient
       id="linearGradient5316-0">
      <stop
         id="stop5320-2"
         offset="0"
         style="stop-color:#aac736;stop-opacity:1;" />
      <stop
         id="stop5322-4"
         offset="1"
         style="stop-color:#5d8b2f;stop-opacity:0.94117647;" />
    </linearGradient>
    <linearGradient
       id="linearGradient5316-2">
      <stop
         id="stop5320-9"
         offset="0"
         style="stop-color:#b995da;stop-opacity:1;" />
      <stop
         id="stop5322-1"
         offset="1"
         style="stop-color:#766287;stop-opacity:1;" />
    </linearGradient>
    <linearGradient
       id="linearGradient5316">
      <stop
         id="stop5320"
         offset="0"
         style="stop-color:#87c7ff;stop-opacity:1;" />
      <stop
         id="stop5322"
         offset="1"
         style="stop-color:#74aadb;stop-opacity:1;" />
    </linearGradient>
    <linearGradient
       inkscape:collect="always"
       xlink:href="#linearGradient9863"
       id="linearGradient9353"
       x1="116.38865"
       y1="235.18414"
       x2="82.322289"
       y2="204.80914"
       gradientUnits="userSpaceOnUse"
       gradientTransform="translate(-75.750001,805.18752)" />
  </defs>
  <sodipodi:namedview
     id="base"
     pagecolor="#ffffff"
     bordercolor="#666666"
     borderopacity="1.0"
     inkscape:pageopacity="0.0"
     inkscape:pageshadow="2"
     inkscape:zoom="7.9195959"
     inkscape:cx="28.245838"
     inkscape:cy="23.687294"
     inkscape:document-units="px"
     inkscape:current-layer="layer1"
     showgrid="false"
     units="px"
     borderlayer="true"
     inkscape:showpageshadow="false"
     inkscape:window-width="1600"
     inkscape:window-height="847"
     inkscape:window-x="0"
     inkscape:window-y="0"
     inkscape:window-maximized="1" />
  <metadata
     id="metadata10228">
    <rdf:RDF>
      <cc:Work
         rdf:about="">
        <dc:format>image/svg+xml</dc:format>
        <dc:type
           rdf:resource="http://purl.org/dc/dcmitype/StillImage" />
        <dc:title></dc:title>
      </cc:Work>
    </rdf:RDF>
  </metadata>
  <g
     inkscape:label="Capa 1"
     inkscape:groupmode="layer"
     id="layer1"
     transform="translate(0,-1004.3622)">
    <path
       id="path9343"
       d="m 23.363506,1010.5781 c -10.458981,0 -12.541017,4.7105 -12.541012,10.5195 10e-7,1.8626 0.547657,3.6095 1.523438,5.127 -0.424939,0.6827 -0.64407,1.4002 -0.648438,2.123 0.006,1.5423 0.988606,3.0334 2.773438,4.209 l 0.572265,6.1739 c 0.235218,2.5344 5.360199,5.5683 8.410159,5.5683 3.049973,0 8.174933,-3.0339 8.410153,-5.5683 l 0.58594,-6.2989 c 1.66713,-1.1571 2.57803,-2.5979 2.58203,-4.084 -0.004,-0.7228 -0.2235,-1.4403 -0.64844,-2.123 0.97579,-1.5175 1.52344,-3.2644 1.52344,-5.127 0,-5.809 -2.08398,-10.5195 -12.542973,-10.5195 z m -17.4394486,16.9883 c -0.7633286,-0.064 -1.5452276,0.2184 -1.9941406,1.2734 -0.718261,1.6881 -0.07603,2.6717 0.699219,3.5782 -1.157121,0.2894 -2.176514,0.7146 -2.541016,2.0312 -0.364509,1.3166 0.558817,2.8987 2.054688,3.0918 1.4958686,0.1932 3.5104086,-1.9085 5.7929676,-1.1797 l 4.0019526,1.2774 -0.427734,-4.6055 -2.255859,-0.7207 c -1.166934,-0.3726 -3.0689806,-3.8299 -4.0527346,-4.3496 -0.368908,-0.1949 -0.819345,-0.3581 -1.277343,-0.3965 z m 34.9726616,0 c -0.45786,0.038 -0.90844,0.2016 -1.27735,0.3965 -0.98375,0.5197 -2.8858,3.977 -4.05273,4.3496 l -2.16602,0.6934 -0.42773,4.6054 3.91211,-1.25 c 2.28255,-0.7288 4.29711,1.3729 5.79297,1.1797 1.49588,-0.1931 2.41919,-1.7752 2.05468,-3.0918 -0.3645,-1.3166 -1.38194,-1.7418 -2.53906,-2.0312 0.77524,-0.9065 1.41554,-1.8901 0.69727,-3.5782 -0.44891,-1.055 -1.23103,-1.3373 -1.99414,-1.2734 z m -26.787115,11.5859 -4.1738286,1.3321 c -2.282558,0.7288 -4.297099,-1.3729 -5.7929676,-1.1797 -1.495871,0.1932 -2.419195,1.7772 -2.054688,3.0937 0.364504,1.3166 1.383893,1.7399 2.541016,2.0293 -0.775245,0.9065 -1.41748,1.892 -0.699219,3.5801 0.718261,1.6881 2.2877276,1.3966 3.2714836,0.877 0.983755,-0.5197 2.8857996,-3.977 4.0527346,-4.3496 l 3.005859,-0.961 -0.02344,0.019 2.632812,-0.8398 c -1.365933,-0.9825 -2.488448,-2.1476 -2.759765,-3.6016 z m 18.681645,0.025 c -0.28145,1.4516 -1.41144,2.6132 -2.78125,3.5938 l 2.57422,0.8223 -0.0234,-0.02 3.00586,0.9609 c 1.16693,0.3726 3.06898,3.8299 4.05273,4.3496 0.98376,0.5197 2.55323,0.8111 3.27149,-0.8769 0.71827,-1.6881 0.078,-2.6737 -0.69727,-3.5801 1.15712,-0.2895 2.17456,-0.7127 2.53906,-2.0293 0.36451,-1.3166 -0.5588,-2.9006 -2.05468,-3.0938 -1.49586,-0.1932 -3.51042,1.9086 -5.79297,1.1797 l -4.09375,-1.3066 z"
       style="display:inline;opacity:1;fill:#000000;fill-opacity:0.43921569;stroke:none;stroke-width:1;stroke-linecap:round;stroke-linejoin:round;stroke-miterlimit:4;stroke-dasharray:none;stroke-opacity:1"
       inkscape:connector-curvature="0"
       sodipodi:nodetypes="ssccccsccccsscscscccccsccscccccscsccccscssccccccccccccscscccc" />
    <path
       style="display:inline;opacity:1;fill:#ffffff;fill-opacity:1;stroke:none;stroke-width:1;stroke-linecap:round;stroke-linejoin:round;stroke-miterlimit:4;stroke-dasharray:none;stroke-opacity:1"
       d="m 24.746089,1006.0156 c -10.458981,0 -12.541017,4.7105 -12.541012,10.5195 1e-6,1.8626 0.547657,3.6095 1.523438,5.127 a 11.666184,6.5247164 0 0 0 -0.648438,2.123 11.666184,6.5247164 0 0 0 2.773438,4.209 l 0.572265,6.1739 c 0.235218,2.5344 5.360199,5.5683 8.410159,5.5683 3.04997,0 8.17493,-3.0339 8.41015,-5.5683 l 0.58594,-6.2989 a 11.666184,6.5247164 0 0 0 2.58203,-4.084 11.666184,6.5247164 0 0 0 -0.64844,-2.123 c 0.97579,-1.5175 1.52344,-3.2644 1.52344,-5.127 0,-5.809 -2.08398,-10.5195 -12.54297,-10.5195 z m -5.197262,11.877 c 0.189129,-0.01 0.386585,-0.01 0.591797,0.01 1.548261,0.125 2.812502,0.6158 2.8125,1.9746 2e-6,1.3587 -1.614143,2.2383 -2.8125,2.2383 -1.198357,0 -2.812502,-0.8796 -2.8125,-2.2383 -2e-6,-1.1889 0.896798,-1.9115 2.220703,-1.9844 z m 11.021482,0.018 c 1.3662,0.022 2.19336,0.7778 2.19336,1.9668 0,1.3587 -1.61414,2.2382 -2.8125,2.2382 -1.19836,0 -2.8125,-0.8795 -2.8125,-2.2382 0,-1.3588 1.27171,-1.7349 2.8125,-1.9317 0.21626,-0.028 0.42397,-0.038 0.61914,-0.035 z m -23.2636686,5.0937 c -0.763329,-0.064 -1.545228,0.2184 -1.9941406,1.2734 -0.718261,1.6881 -0.07603,2.6717 0.6992186,3.5782 -1.1571206,0.2894 -2.1765136,0.7146 -2.5410156,2.0312 -0.364509,1.3166 0.558817,2.8987 2.054688,3.0918 1.4958686,0.1932 3.5104086,-1.9085 5.7929672,-1.1797 l 4.001953,1.2774 -0.427734,-4.6055 -2.255859,-0.7207 c -1.166934,-0.3726 -3.0689806,-3.8299 -4.0527346,-4.3496 -0.368908,-0.1949 -0.819345,-0.3581 -1.277343,-0.3965 z m 34.9726586,0 c -0.45786,0.038 -0.90844,0.2016 -1.27735,0.3965 -0.98375,0.5197 -2.8858,3.977 -4.05273,4.3496 l -2.16602,0.6934 -0.42773,4.6054 3.91211,-1.25 c 2.28255,-0.7288 4.29711,1.3729 5.79297,1.1797 1.49588,-0.1931 2.41919,-1.7752 2.05468,-3.0918 -0.3645,-1.3166 -1.38194,-1.7418 -2.53906,-2.0312 0.77524,-0.9065 1.41554,-1.8901 0.69727,-3.5782 -0.44891,-1.055 -1.23103,-1.3373 -1.99414,-1.2734 z m -17.44336,0.4824 c 1.10457,0 1.84375,1.5078 2,3.4375 0.15625,1.9298 -0.89543,-0.5703 -2,-0.5703 -1.104566,0 -2.125003,2.5313 -2.000002,0.5703 0.125,-1.9609 0.895436,-3.4375 2.000002,-3.4375 z m -6.533206,6.4766 0.908204,0.031 0.808593,2.5156 c 0.864052,0.4871 2.642352,0.819 4.726559,0.7969 2.08421,-0.022 3.86446,-0.3098 4.72852,-0.7969 l 0.80859,-2.5156 0.90821,-0.031 -0.92188,4.4687 c -1.11281,1.2316 -3.56978,1.9611 -5.52344,1.961 -1.953035,-10e-5 -4.408671,-0.7294 -5.521481,-1.961 l -0.921875,-4.4687 z m -2.810546,4.6269 -4.173829,1.3321 c -2.2825576,0.7288 -4.2970986,-1.3729 -5.7929672,-1.1797 -1.495871,0.1932 -2.419195,1.7772 -2.054688,3.0937 0.364504,1.3166 1.383893,1.7399 2.5410156,2.0293 -0.7752446,0.9065 -1.4174796,1.892 -0.6992186,3.5801 0.7182606,1.6881 2.2877276,1.3966 3.2714836,0.877 0.983755,-0.5197 2.8857996,-3.977 4.0527346,-4.3496 l 3.005859,-0.961 -0.02344,0.019 2.632812,-0.8398 c -1.365933,-0.9825 -2.488448,-2.1476 -2.759765,-3.6016 z m 18.681642,0.025 c -0.28145,1.4516 -1.41144,2.6132 -2.78125,3.5938 l 2.57422,0.8223 -0.0234,-0.02 3.00586,0.9609 c 1.16693,0.3726 3.06898,3.8299 4.05273,4.3496 0.98376,0.5197 2.55323,0.8111 3.27149,-0.8769 0.71827,-1.6881 0.078,-2.6737 -0.69727,-3.5801 1.15712,-0.2895 2.17456,-0.7127 2.53906,-2.0293 0.36451,-1.3166 -0.5588,-2.9006 -2.05468,-3.0938 -1.49586,-0.1932 -3.51042,1.9086 -5.79297,1.1797 l -4.09375,-1.3066 z"
       id="path9322"
       inkscape:connector-curvature="0" />
    <path
       id="path9345"
       d="m 24.746089,1006.0156 c -10.458981,0 -12.541017,4.7105 -12.541012,10.5195 1e-6,1.8626 0.547657,3.6095 1.523438,5.127 a 11.666184,6.5247164 0 0 0 -0.648438,2.123 11.666184,6.5247164 0 0 0 2.773438,4.209 l 0.572265,6.1739 c 0.235218,2.5344 5.360199,5.5683 8.410159,5.5683 3.04997,0 8.17493,-3.0339 8.41015,-5.5683 l 0.58594,-6.2989 a 11.666184,6.5247164 0 0 0 2.58203,-4.084 11.666184,6.5247164 0 0 0 -0.64844,-2.123 c 0.97579,-1.5175 1.52344,-3.2644 1.52344,-5.127 0,-5.809 -2.08398,-10.5195 -12.54297,-10.5195 z m -5.197262,11.877 c 0.189129,-0.01 0.386585,-0.01 0.591797,0.01 1.548261,0.125 2.812502,0.6158 2.8125,1.9746 2e-6,1.3587 -1.614143,2.2383 -2.8125,2.2383 -1.198357,0 -2.812502,-0.8796 -2.8125,-2.2383 -2e-6,-1.1889 0.896798,-1.9115 2.220703,-1.9844 z m 11.021482,0.018 c 1.3662,0.022 2.19336,0.7778 2.19336,1.9668 0,1.3587 -1.61414,2.2382 -2.8125,2.2382 -1.19836,0 -2.8125,-0.8795 -2.8125,-2.2382 0,-1.3588 1.27171,-1.7349 2.8125,-1.9317 0.21626,-0.028 0.42397,-0.038 0.61914,-0.035 z m -23.2636686,5.0937 c -0.763329,-0.064 -1.545228,0.2184 -1.9941406,1.2734 -0.718261,1.6881 -0.07603,2.6717 0.6992186,3.5782 -1.1571206,0.2894 -2.1765136,0.7146 -2.5410156,2.0312 -0.364509,1.3166 0.558817,2.8987 2.054688,3.0918 1.4958686,0.1932 3.5104086,-1.9085 5.7929672,-1.1797 l 4.001953,1.2774 -0.427734,-4.6055 -2.255859,-0.7207 c -1.166934,-0.3726 -3.0689806,-3.8299 -4.0527346,-4.3496 -0.368908,-0.1949 -0.819345,-0.3581 -1.277343,-0.3965 z m 34.9726586,0 c -0.45786,0.038 -0.90844,0.2016 -1.27735,0.3965 -0.98375,0.5197 -2.8858,3.977 -4.05273,4.3496 l -2.16602,0.6934 -0.42773,4.6054 3.91211,-1.25 c 2.28255,-0.7288 4.29711,1.3729 5.79297,1.1797 1.49588,-0.1931 2.41919,-1.7752 2.05468,-3.0918 -0.3645,-1.3166 -1.38194,-1.7418 -2.53906,-2.0312 0.77524,-0.9065 1.41554,-1.8901 0.69727,-3.5782 -0.44891,-1.055 -1.23103,-1.3373 -1.99414,-1.2734 z m -17.44336,0.4824 c 1.10457,0 1.84375,1.5078 2,3.4375 0.15625,1.9298 -0.89543,-0.5703 -2,-0.5703 -1.104566,0 -2.125003,2.5313 -2.000002,0.5703 0.125,-1.9609 0.895436,-3.4375 2.000002,-3.4375 z m -6.533206,6.4766 0.908204,0.031 0.808593,2.5156 c 0.864052,0.4871 2.642352,0.819 4.726559,0.7969 2.08421,-0.022 3.86446,-0.3098 4.72852,-0.7969 l 0.80859,-2.5156 0.90821,-0.031 -0.92188,4.4687 c -1.11281,1.2316 -3.56978,1.9611 -5.52344,1.961 -1.953035,-10e-5 -4.408671,-0.7294 -5.521481,-1.961 l -0.921875,-4.4687 z m -2.810546,4.6269 -4.173829,1.3321 c -2.2825576,0.7288 -4.2970986,-1.3729 -5.7929672,-1.1797 -1.495871,0.1932 -2.419195,1.7772 -2.054688,3.0937 0.364504,1.3166 1.383893,1.7399 2.5410156,2.0293 -0.7752446,0.9065 -1.4174796,1.892 -0.6992186,3.5801 0.7182606,1.6881 2.2877276,1.3966 3.2714836,0.877 0.983755,-0.5197 2.8857996,-3.977 4.0527346,-4.3496 l 3.005859,-0.961 -0.02344,0.019 2.632812,-0.8398 c -1.365933,-0.9825 -2.488448,-2.1476 -2.759765,-3.6016 z m 18.681642,0.025 c -0.28145,1.4516 -1.41144,2.6132 -2.78125,3.5938 l 2.57422,0.8223 -0.0234,-0.02 3.00586,0.9609 c 1.16693,0.3726 3.06898,3.8299 4.05273,4.3496 0.98376,0.5197 2.55323,0.8111 3.27149,-0.8769 0.71827,-1.6881 0.078,-2.6737 -0.69727,-3.5801 1.15712,-0.2895 2.17456,-0.7127 2.53906,-2.0293 0.36451,-1.3166 -0.5588,-2.9006 -2.05468,-3.0938 -1.49586,-0.1932 -3.51042,1.9086 -5.79297,1.1797 l -4.09375,-1.3066 z"
       style="display:inline;opacity:1;fill:none;fill-opacity:1;stroke:url(#linearGradient9353);stroke-width:1;stroke-linecap:round;stroke-linejoin:round;stroke-miterlimit:4;stroke-dasharray:none;stroke-opacity:1"
       inkscape:connector-curvature="0" />
  </g>
</svg>
