<?xml version="1.0" encoding="UTF-8" standalone="no"?>
<!-- Created with Inkscape (http://www.inkscape.org/) -->
<svg
   xmlns:dc="http://purl.org/dc/elements/1.1/"
   xmlns:cc="http://creativecommons.org/ns#"
   xmlns:rdf="http://www.w3.org/1999/02/22-rdf-syntax-ns#"
   xmlns:svg="http://www.w3.org/2000/svg"
   xmlns="http://www.w3.org/2000/svg"
   xmlns:xlink="http://www.w3.org/1999/xlink"
   xmlns:sodipodi="http://sodipodi.sourceforge.net/DTD/sodipodi-0.dtd"
   xmlns:inkscape="http://www.inkscape.org/namespaces/inkscape"
   width="48px"
   height="48px"
   id="svg17121"
   sodipodi:version="0.32"
   inkscape:version="0.46"
   sodipodi:docname="emblem-cvs-removed.svg"
   inkscape:output_extension="org.inkscape.output.svg.inkscape">
  <defs
     id="defs17123">
    <linearGradient
       inkscape:collect="always"
       xlink:href="#linearGradient2818"
       id="linearGradient16078"
       gradientUnits="userSpaceOnUse"
       gradientTransform="matrix(0.9803922,0,0,0.9803922,0.4706281,0.4706088)"
       x1="22.5"
       y1="-0.00033215381"
       x2="22.5"
       y2="48.001324" />
    <linearGradient
       inkscape:collect="always"
       xlink:href="#linearGradient2818"
       id="linearGradient16083"
       gradientUnits="userSpaceOnUse"
       gradientTransform="matrix(0.9803922,0,0,0.9803922,0.4705468,0.4707029)"
       x1="22.5"
       y1="-0.00033215381"
       x2="22.5"
       y2="48.001324" />
    <linearGradient
       id="linearGradient2818">
      <stop
         style="stop-color:#ff6e00;stop-opacity:1;"
         offset="0"
         id="stop2820" />
      <stop
         style="stop-color:#eb2600;stop-opacity:1;"
         offset="1"
         id="stop2822" />
    </linearGradient>
    <inkscape:perspective
       sodipodi:type="inkscape:persp3d"
       inkscape:vp_x="0 : 24 : 1"
       inkscape:vp_y="0 : 1000 : 0"
       inkscape:vp_z="48 : 24 : 1"
       inkscape:persp3d-origin="24 : 16 : 1"
       id="perspective17129" />
  </defs>
  <sodipodi:namedview
     id="base"
     pagecolor="#ffffff"
     bordercolor="#666666"
     borderopacity="1.0"
     inkscape:pageopacity="0.0"
     inkscape:pageshadow="2"
     inkscape:zoom="4"
     inkscape:cx="38.794462"
     inkscape:cy="21.451686"
     inkscape:current-layer="layer1"
     showgrid="true"
     inkscape:grid-bbox="true"
     inkscape:document-units="px"
     inkscape:window-width="1024"
     inkscape:window-height="731"
     inkscape:window-x="0"
     inkscape:window-y="6" />
  <metadata
     id="metadata17126">
    <rdf:RDF>
      <cc:Work
         rdf:about="">
        <dc:format>image/svg+xml</dc:format>
        <dc:type
           rdf:resource="http://purl.org/dc/dcmitype/StillImage" />
      </cc:Work>
    </rdf:RDF>
  </metadata>
  <g
     id="layer1"
     inkscape:label="Layer 1"
     inkscape:groupmode="layer">
    <rect
       style="fill:url(#linearGradient16078);fill-opacity:1;stroke:none"
       id="rect7395-2"
       width="47.058823"
       height="47.058823"
       x="0.47058824"
       y="0.47058824"
       rx="2.8472438"
       ry="2.8472438" />
    <path
       style="fill:#ffffff;stroke:none"
       d="M 5.7794281,9.1912678 L 23.985263,38.808868 L 42.220557,9.1912678 L 5.7794281,9.1912678 z M 18.632322,11.808774 C 18.691051,11.803221 18.750157,11.803221 18.808792,11.808774 C 19.054722,11.818468 19.28691,11.924068 19.455851,12.102891 L 23.985263,16.632397 L 28.514675,12.102891 C 28.68371,11.924068 28.915992,11.818468 29.161734,11.808774 C 29.549404,11.79955 29.90291,12.029009 30.052463,12.386656 C 30.202016,12.744303 30.117028,13.157103 29.838251,13.426562 L 25.30884,17.95588 L 29.838251,22.485385 C 30.11891,22.71155 30.245875,23.078044 30.165028,23.429385 C 30.084275,23.780632 29.810016,24.054985 29.458675,24.135738 C 29.107428,24.216491 28.74084,24.089527 28.514675,23.808868 L 23.985263,19.279456 L 19.455851,23.808868 C 19.229781,24.089527 18.863192,24.216491 18.511945,24.135738 C 18.160698,24.054985 17.886345,23.780632 17.805592,23.429385 C 17.724745,23.078044 17.85171,22.71155 18.132369,22.485385 L 22.661781,17.95588 L 18.132369,13.426562 C 17.869216,13.18035 17.769734,12.805574 17.876087,12.461291 C 17.982534,12.116915 18.276181,11.863644 18.632322,11.808868 L 18.632322,11.808774 z"
       id="path7397-9" />
    <rect
       ry="2.8472438"
       rx="2.8472438"
       y="0.47058824"
       x="0.47058824"
       height="47.058823"
       width="47.058823"
       id="rect4228-78"
       style="fill:none;stroke:#344b63;stroke-width:0.94117647;stroke-miterlimit:4;stroke-dasharray:none;stroke-opacity:1" />
  </g>
</svg>
