<?xml version="1.0" encoding="UTF-8" standalone="no"?>
<!-- Created with Inkscape (http://www.inkscape.org/) -->
<svg
   xmlns:dc="http://purl.org/dc/elements/1.1/"
   xmlns:cc="http://creativecommons.org/ns#"
   xmlns:rdf="http://www.w3.org/1999/02/22-rdf-syntax-ns#"
   xmlns:svg="http://www.w3.org/2000/svg"
   xmlns="http://www.w3.org/2000/svg"
   xmlns:xlink="http://www.w3.org/1999/xlink"
   xmlns:sodipodi="http://sodipodi.sourceforge.net/DTD/sodipodi-0.dtd"
   xmlns:inkscape="http://www.inkscape.org/namespaces/inkscape"
   width="48px"
   height="48px"
   id="svg17121"
   sodipodi:version="0.32"
   inkscape:version="0.46"
   sodipodi:docname="emblem-cool.svg"
   inkscape:output_extension="org.inkscape.output.svg.inkscape">
  <defs
     id="defs17123">
    <linearGradient
       inkscape:collect="always"
       xlink:href="#linearGradient2818"
       id="linearGradient16103"
       gradientUnits="userSpaceOnUse"
       gradientTransform="matrix(0.9803922,0,0,0.9803922,0.4705732,0.4706089)"
       x1="22.5"
       y1="-0.00033215381"
       x2="22.5"
       y2="48.001324" />
    <linearGradient
       inkscape:collect="always"
       xlink:href="#linearGradient2818"
       id="linearGradient16108"
       gradientUnits="userSpaceOnUse"
       gradientTransform="matrix(0.9803922,0,0,0.9803922,0.4705694,0.4706089)"
       x1="22.5"
       y1="-0.00033215381"
       x2="22.5"
       y2="48.001324" />
    <linearGradient
       id="linearGradient2818">
      <stop
         style="stop-color:#aac736;stop-opacity:1;"
         offset="0"
         id="stop2820" />
      <stop
         style="stop-color:#5d8b2c;stop-opacity:1;"
         offset="1"
         id="stop2822" />
    </linearGradient>
    <inkscape:perspective
       sodipodi:type="inkscape:persp3d"
       inkscape:vp_x="0 : 24 : 1"
       inkscape:vp_y="0 : 1000 : 0"
       inkscape:vp_z="48 : 24 : 1"
       inkscape:persp3d-origin="24 : 16 : 1"
       id="perspective17129" />
  </defs>
  <sodipodi:namedview
     id="base"
     pagecolor="#ffffff"
     bordercolor="#666666"
     borderopacity="1.0"
     inkscape:pageopacity="0.0"
     inkscape:pageshadow="2"
     inkscape:zoom="4"
     inkscape:cx="38.794462"
     inkscape:cy="21.451686"
     inkscape:current-layer="layer1"
     showgrid="true"
     inkscape:grid-bbox="true"
     inkscape:document-units="px"
     inkscape:window-width="1024"
     inkscape:window-height="731"
     inkscape:window-x="0"
     inkscape:window-y="6" />
  <metadata
     id="metadata17126">
    <rdf:RDF>
      <cc:Work
         rdf:about="">
        <dc:format>image/svg+xml</dc:format>
        <dc:type
           rdf:resource="http://purl.org/dc/dcmitype/StillImage" />
      </cc:Work>
    </rdf:RDF>
  </metadata>
  <g
     id="layer1"
     inkscape:label="Layer 1"
     inkscape:groupmode="layer">
    <rect
       ry="2.8472438"
       rx="2.8472438"
       y="0.47058824"
       x="0.47058824"
       height="47.058823"
       width="47.058823"
       id="rect3810-6-1"
       style="fill:url(#linearGradient16103);fill-opacity:1;stroke:none" />
    <path
       style="fill:#ffffff;stroke:none"
       d="M 24.014705,3.8676913 C 12.90198,3.8676913 3.8676461,12.90195 3.8676461,24.014797 C 3.8676461,35.127362 12.90198,44.132444 24.014705,44.132444 C 35.127439,44.132444 44.132352,35.127362 44.132352,24.014797 C 44.132352,12.90195 35.127439,3.8676913 24.014705,3.8676913 z M 15.014705,16.632397 C 16.484154,16.632397 17.691176,17.839362 17.691176,19.308915 C 17.691176,20.778185 16.484154,21.95588 15.014705,21.95588 C 13.545265,21.95588 12.367646,20.778185 12.367646,19.308915 C 12.367646,17.839362 13.545265,16.632397 15.014705,16.632397 z M 32.985293,16.632397 C 34.454743,16.632397 35.661764,17.839362 35.661764,19.308915 C 35.661764,20.778185 34.454743,21.95588 32.985293,21.95588 C 31.515853,21.95588 30.308823,20.778185 30.308823,19.308915 C 30.308823,17.839362 31.515853,16.632397 32.985293,16.632397 z M 31.867646,26.955974 C 31.906846,26.954374 31.946093,26.954374 31.985293,26.955974 C 32.521312,26.935362 33.022733,27.220162 33.279411,27.691221 C 35.284879,31.164821 34.076493,35.656303 30.60294,37.661856 C 27.129387,39.667127 22.63782,38.458938 20.632352,34.985338 C 20.347957,34.547691 20.328192,33.988821 20.580964,33.532256 C 20.833736,33.075597 21.317811,32.795597 21.839665,32.804256 C 22.361528,32.812915 22.836041,33.108821 23.073528,33.573574 C 24.315138,35.724162 27.040653,36.462138 29.191176,35.220632 C 31.341707,33.979032 32.079844,31.253574 30.838234,29.102985 C 30.583627,28.693385 30.555731,28.182138 30.764239,27.747221 C 30.972757,27.312303 31.388841,27.01395 31.867646,26.955974 z"
       id="path6682-7-3-0" />
    <rect
       ry="2.8472438"
       rx="2.8472438"
       y="0.47058824"
       x="0.47058824"
       height="47.058823"
       width="47.058823"
       id="rect4228-38"
       style="fill:none;stroke:#344b63;stroke-width:0.94117647;stroke-miterlimit:4;stroke-dasharray:none;stroke-opacity:1" />
  </g>
</svg>
