<?xml version="1.0" encoding="UTF-8" standalone="no"?>
<!-- Created with Inkscape (http://www.inkscape.org/) -->

<svg
   xmlns:dc="http://purl.org/dc/elements/1.1/"
   xmlns:cc="http://creativecommons.org/ns#"
   xmlns:rdf="http://www.w3.org/1999/02/22-rdf-syntax-ns#"
   xmlns:svg="http://www.w3.org/2000/svg"
   xmlns="http://www.w3.org/2000/svg"
   xmlns:xlink="http://www.w3.org/1999/xlink"
   xmlns:sodipodi="http://sodipodi.sourceforge.net/DTD/sodipodi-0.dtd"
   xmlns:inkscape="http://www.inkscape.org/namespaces/inkscape"
   width="136.53334"
   height="136.53334"
   id="svg6934"
   sodipodi:version="0.32"
   inkscape:version="0.91 r13725"
   version="1.0"
   sodipodi:docname="start-here-ceibo.svg"
   inkscape:output_extension="org.inkscape.output.svg.inkscape">
  <defs
     id="defs6936">
    <linearGradient
       inkscape:collect="always"
       xlink:href="#linearGradient5316"
       id="linearGradient7799"
       gradientUnits="userSpaceOnUse"
       gradientTransform="matrix(1.0666667,0,0,1.0666667,163.58991,41.65317)"
       x1="6.5963445"
       y1="25.086559"
       x2="117.48683"
       y2="107.41399" />
    <linearGradient
       id="linearGradient5316">
      <stop
         id="stop5320"
         offset="0"
         style="stop-color:#ff6e00;stop-opacity:1;" />
      <stop
         id="stop5322"
         offset="1"
         style="stop-color:#eb2600;stop-opacity:1;" />
    </linearGradient>
    <linearGradient
       inkscape:collect="always"
       xlink:href="#linearGradient5344"
       id="linearGradient7801"
       gradientUnits="userSpaceOnUse"
       gradientTransform="matrix(5.6896682,0,0,5.6896682,-1384.6556,-6213.8747)"
       x1="305.23422"
       y1="1137.0681"
       x2="283.35095"
       y2="1104.2024" />
    <linearGradient
       id="linearGradient5344">
      <stop
         id="stop5346"
         offset="0"
         style="stop-color:#000000;stop-opacity:1;" />
      <stop
         id="stop5348"
         offset="1"
         style="stop-color:#000000;stop-opacity:0;" />
    </linearGradient>
    <linearGradient
       inkscape:collect="always"
       xlink:href="#linearGradient5362"
       id="linearGradient7803"
       gradientUnits="userSpaceOnUse"
       gradientTransform="matrix(1.0666667,0,0,1.0666667,163.58991,190.9865)"
       x1="22.933788"
       y1="-144.76825"
       x2="18.618809"
       y2="-96.331688" />
    <linearGradient
       id="linearGradient5362">
      <stop
         id="stop5364"
         offset="0"
         style="stop-color:#ffffff;stop-opacity:1;" />
      <stop
         id="stop5366"
         offset="1"
         style="stop-color:#ffffff;stop-opacity:0;" />
    </linearGradient>
    <linearGradient
       inkscape:collect="always"
       xlink:href="#linearGradient5344"
       id="linearGradient7805"
       gradientUnits="userSpaceOnUse"
       gradientTransform="matrix(1.0666667,0,0,1.0666667,163.58991,190.9865)"
       x1="7.9531264"
       y1="2.2416961"
       x2="13.667412"
       y2="-64.464973" />
  </defs>
  <sodipodi:namedview
     id="base"
     pagecolor="#ffffff"
     bordercolor="#666666"
     borderopacity="1.0"
     inkscape:pageopacity="0.0"
     inkscape:pageshadow="2"
     inkscape:zoom="2.8003061"
     inkscape:cx="47.177587"
     inkscape:cy="54.55558"
     inkscape:document-units="px"
     inkscape:current-layer="layer1"
     showgrid="false"
     inkscape:window-width="1600"
     inkscape:window-height="852"
     inkscape:window-x="0"
     inkscape:window-y="0"
     inkscape:window-maximized="1" />
  <metadata
     id="metadata6939">
    <rdf:RDF>
      <cc:Work
         rdf:about="">
        <dc:format>image/svg+xml</dc:format>
        <dc:type
           rdf:resource="http://purl.org/dc/dcmitype/StillImage" />
        <dc:title />
      </cc:Work>
    </rdf:RDF>
  </metadata>
  <g
     inkscape:label="Capa 1"
     inkscape:groupmode="layer"
     id="layer1">
    <g
       transform="translate(-163.5899,-41.65317)"
       id="g7743"
       inkscape:export-xdpi="153.72714"
       inkscape:export-ydpi="153.72714">
      <path
         style="fill:url(#linearGradient7799);fill-opacity:1;fill-rule:evenodd;stroke:none;stroke-width:1.06666672"
         d="m 200.08991,47.053173 c -1.41789,0.05909 -2.72059,0.298304 -3.9,0.666667 l -19.56667,2.9 -0.53333,0 0,0.2 c -6.09653,1.119008 -9.23333,5.964779 -9.23333,11.9 l 0,90.33333 c -0.0749,6.02908 2.18677,10.76821 6.73333,12.26667 l 20.23333,6.33333 c 0.0223,0.0109 0.0443,0.0226 0.0667,0.0334 2.01891,0.96994 4.44206,1.31466 7.23334,0.86666 l 83.49999,-12.6 c 6.10189,-0.66105 10.09792,-6.46819 9.76667,-14.53333 l 0.43333,-79.233383 c 0.23732,-6.36303 -2.98846,-11.707968 -9.96666,-12.766667 l -83.03334,-6.333343 c -0.59339,-0.02912 -1.1766,-0.05653 -1.73333,-0.03339 z"
         id="path7745"
         inkscape:connector-curvature="0" />
      <path
         style="fill:url(#linearGradient7801);fill-rule:evenodd;stroke:none;stroke-width:1.06666672"
         d="m 194.78991,59.486507 -0.0333,102.833333 c 0.47861,3.68883 1.50138,8.66619 4.63333,10.4 0.56227,-0.0244 1.13867,-0.0713 1.73334,-0.16667 l 83.49999,-12.6 c 6.10189,-0.66106 10.09792,-6.46819 9.76667,-14.53333 l 0.43333,-79.23333 c 0.23728,-6.363033 -2.98846,-11.707971 -9.96666,-12.76667 l -81.07632,-6.184064 c -4.23602,-0.448715 -8.97655,5.099275 -8.99035,12.250731 z m 0.96667,112.833333 c 0.69116,0.18296 1.40232,0.34791 2.16666,0.4 z"
         id="path7747"
         inkscape:connector-curvature="0"
         sodipodi:nodetypes="ccccccccccccc" />
      <path
         style="display:inline;fill:url(#linearGradient7803);fill-rule:evenodd;stroke:none;stroke-width:1.06666672"
         d="m 200.68991,47.31984 -24.06667,3.3 -0.53333,0 0,0.2 c -6.09653,1.119008 -9.23333,5.964779 -9.23333,11.9 l 0,26.666667 27.93333,0 0,-29.9 c 0.37019,-5.244566 2.42567,-10.628033 5.9,-12.166667 z"
         id="path7749"
         inkscape:connector-curvature="0" />
      <path
         style="display:inline;fill:url(#linearGradient7805);fill-rule:evenodd;stroke:none;stroke-width:1.06666672"
         d="m 166.85658,114.61984 0,38.43333 c -0.0749,6.02908 2.18677,10.76821 6.73333,12.26667 l 18.83333,6.43333 8,1.4 c -3.95823,-1.11454 -5.13861,-6.76345 -5.66666,-10.83333 l 0,-47.7 z"
         id="path7751"
         inkscape:connector-curvature="0" />
      <path
         inkscape:connector-curvature="0"
         id="path7753"
         d="m 201.80326,47.076565 c -1.85,-0.09099 -3.48543,0.142219 -4.97846,0.534752 l -20.80285,3.200576 c -6.09653,1.119008 -9.24571,5.977312 -9.24571,11.912537 l 0,90.32366 c -0.0749,6.02908 2.20993,10.77021 6.75648,12.26866 l 20.98065,6.57806 c 1.91172,0.78962 4.02665,1.12128 6.57868,0.71168 l 83.567,-12.62421 c 6.10189,-0.66048 10.11037,-6.51435 9.77912,-14.57949 l 0.35561,-79.30029 c 0.23728,-6.363033 -2.97871,-11.564953 -9.95692,-12.623652 l -83.0336,-6.401141 z"
         style="display:inline;fill:none;stroke:#344b63;stroke-width:2.84483409;stroke-linecap:butt;stroke-linejoin:miter;stroke-miterlimit:4;stroke-dasharray:none;stroke-opacity:1"
         sodipodi:nodetypes="ccccccccccccc" />
    </g>
    <path
       style="fill:#000000;fill-opacity:0.54441259;fill-rule:evenodd;stroke:#000000;stroke-width:5;stroke-linecap:butt;stroke-linejoin:miter;stroke-miterlimit:4;stroke-dasharray:none;stroke-opacity:0.45558741"
       d="M 86.6259,19.76481 C 66.1488,22.95036 58.8489,32.45476 50.5095,46.55247 40.7134,63.07992 35.9369,77.66033 42.3489,95.3351 48.9882,74.69548 58.725,54.56837 69.2801,53.08974 c 5.9599,0.20475 4.2464,10.07096 3.5203,13.92892 -2.6015,16.57972 -9.6243,31.325 -16.3888,41.02605 0.3207,-1.01631 0.7392,-2.09897 1.1483,-3.17416 2.7027,-8.03784 5.6134,-16.01023 7.4955,-24.29343 l 3.6632,-13.51947 c 0,0 2.4167,-9.12468 0.7546,-11.05402 -1.2852,-0.75619 -3.8828,1.38408 -8.8883,6.85808 -9.0531,11.3994 -12.8407,22.75011 -17.6269,35.30705 -1.6868,4.37812 -5.9871,21.16721 1.4278,23.62117 5.9618,0.39241 12.2257,1.03383 14.4198,-7.95629 0.055,7.8e-4 0.1005,0.01 0.1563,0.01 0.1167,-9.20398 21.246,-14.70912 36.1076,-26.04058 39.8394,-27.64073 18.5069,-54.52102 20.9568,-67.23621 -8.9781,0.6648 -18.8772,-1.52041 -29.4004,-0.8012 z"
       id="path7755"
       inkscape:connector-curvature="0"
       inkscape:export-xdpi="153.72714"
       inkscape:export-ydpi="153.72714" />
    <path
       inkscape:connector-curvature="0"
       id="path7757"
       d="M 88.6259,19.76481 C 68.1488,22.95036 60.8489,32.45476 52.5095,46.55247 42.7134,63.07992 37.9369,77.66033 44.3489,95.3351 50.9882,74.69548 60.725,54.56837 71.2801,53.08974 c 5.9599,0.20475 4.2464,10.07096 3.5203,13.92892 -2.6015,16.57972 -9.6243,31.325 -16.3888,41.02605 0.3207,-1.01631 0.7392,-2.09897 1.1483,-3.17416 2.7027,-8.03784 5.6134,-16.01023 7.4955,-24.29343 l 3.6632,-13.51947 c 0,0 2.4167,-9.12468 0.7546,-11.05402 -1.2852,-0.75619 -3.8828,1.38408 -8.8883,6.85808 -9.0531,11.3994 -12.8407,22.75011 -17.6269,35.30705 -1.6868,4.37812 -5.9871,21.16721 1.4278,23.62117 5.9618,0.39241 12.2257,1.03383 14.4198,-7.95629 0.055,7.8e-4 0.1005,0.01 0.1563,0.01 0.1167,-9.20398 21.246,-14.70912 36.1076,-26.04058 39.8394,-27.64073 18.5069,-54.52102 20.9568,-67.23621 -8.9781,0.6648 -18.8772,-1.52041 -29.4004,-0.8012 z"
       style="fill:#ffffff;fill-rule:evenodd;stroke:none;stroke-width:1px;stroke-linecap:butt;stroke-linejoin:miter;stroke-opacity:1"
       inkscape:export-xdpi="153.72714"
       inkscape:export-ydpi="153.72714" />
  </g>
</svg>
