<?xml version="1.0" encoding="UTF-8" standalone="no"?>
<!-- Created with Inkscape (http://www.inkscape.org/) -->

<svg
   xmlns:dc="http://purl.org/dc/elements/1.1/"
   xmlns:cc="http://creativecommons.org/ns#"
   xmlns:rdf="http://www.w3.org/1999/02/22-rdf-syntax-ns#"
   xmlns:svg="http://www.w3.org/2000/svg"
   xmlns="http://www.w3.org/2000/svg"
   xmlns:xlink="http://www.w3.org/1999/xlink"
   xmlns:sodipodi="http://sodipodi.sourceforge.net/DTD/sodipodi-0.dtd"
   xmlns:inkscape="http://www.inkscape.org/namespaces/inkscape"
   width="128"
   height="128"
   id="svg6934"
   sodipodi:version="0.32"
   inkscape:version="0.91 r13725"
   version="1.0"
   sodipodi:docname="start-rojo.svg"
   inkscape:output_extension="org.inkscape.output.svg.inkscape">
  <defs
     id="defs6936">
    <linearGradient
       id="linearGradient5316-39">
      <stop
         style="stop-color:#aac736;stop-opacity:1;"
         offset="0"
         id="stop5320-84" />
      <stop
         style="stop-color:#5d8b2c;stop-opacity:1;"
         offset="1"
         id="stop5322-5" />
    </linearGradient>
    <linearGradient
       inkscape:collect="always"
       xlink:href="#linearGradient5344"
       id="linearGradient3105"
       x1="7.9531264"
       y1="2.2416961"
       x2="13.667412"
       y2="-64.464973"
       gradientUnits="userSpaceOnUse"
       gradientTransform="translate(-4.0351795e-8,140)" />
    <linearGradient
       id="linearGradient5344">
      <stop
         style="stop-color:#000000;stop-opacity:1;"
         offset="0"
         id="stop5346" />
      <stop
         style="stop-color:#000000;stop-opacity:0;"
         offset="1"
         id="stop5348" />
    </linearGradient>
    <linearGradient
       inkscape:collect="always"
       xlink:href="#linearGradient5165-7-9-8-2"
       id="linearGradient3103"
       x1="22.933788"
       y1="-144.76825"
       x2="18.618809"
       y2="-96.331688"
       gradientUnits="userSpaceOnUse"
       gradientTransform="translate(-4.0351795e-8,140)" />
    <linearGradient
       id="linearGradient5165-7-9-8-2">
      <stop
         id="stop5167-4-8-6-9"
         style="stop-color:#ffffff;stop-opacity:1"
         offset="0" />
      <stop
         id="stop5169-5-5-2-9"
         style="stop-color:#ffffff;stop-opacity:0"
         offset="1" />
    </linearGradient>
    <linearGradient
       inkscape:collect="always"
       xlink:href="#linearGradient5344"
       id="linearGradient3107"
       gradientUnits="userSpaceOnUse"
       gradientTransform="matrix(5.3340639,0,0,5.3340639,-1451.4802,-5864.5574)"
       x1="305.23422"
       y1="1137.0681"
       x2="283.35095"
       y2="1104.2024" />
    <linearGradient
       inkscape:collect="always"
       xlink:href="#linearGradient12336"
       id="linearGradient4454"
       x1="6.5963445"
       y1="25.086559"
       x2="117.48683"
       y2="107.41399"
       gradientUnits="userSpaceOnUse" />
    <linearGradient
       inkscape:collect="always"
       xlink:href="#linearGradient12336"
       id="linearGradient6037"
       gradientUnits="userSpaceOnUse"
       gradientTransform="translate(100.49337,-1063.7179)"
       x1="-94.488182"
       y1="967.47961"
       x2="-63.906944"
       y2="967.47961" />
    <linearGradient
       id="linearGradient12336">
      <stop
         id="stop12338"
         offset="0"
         style="stop-color:#ff6e00;stop-opacity:1;" />
      <stop
         id="stop12340"
         offset="1"
         style="stop-color:#eb2600;stop-opacity:1;" />
    </linearGradient>
    <linearGradient
       inkscape:collect="always"
       xlink:href="#linearGradient5316-39"
       id="linearGradient6033"
       gradientUnits="userSpaceOnUse"
       gradientTransform="translate(140.87629,-1063.7179)"
       x1="-94.488182"
       y1="967.47961"
       x2="-63.906944"
       y2="967.47961" />
    <linearGradient
       gradientTransform="translate(178.51473,-1063.7179)"
       inkscape:collect="always"
       xlink:href="#linearGradient5316"
       id="linearGradient6005"
       x1="-94.488182"
       y1="967.47961"
       x2="-63.906944"
       y2="967.47961"
       gradientUnits="userSpaceOnUse" />
    <linearGradient
       id="linearGradient5316">
      <stop
         style="stop-color:#87c7ff;stop-opacity:1;"
         offset="0"
         id="stop5320" />
      <stop
         style="stop-color:#74aadb;stop-opacity:1;"
         offset="1"
         id="stop5322" />
    </linearGradient>
  </defs>
  <sodipodi:namedview
     id="base"
     pagecolor="#ffffff"
     bordercolor="#666666"
     borderopacity="1.0"
     inkscape:pageopacity="0.0"
     inkscape:pageshadow="2"
     inkscape:zoom="1.5222371"
     inkscape:cx="9.7811554"
     inkscape:cy="32.537895"
     inkscape:document-units="px"
     inkscape:current-layer="layer1"
     showgrid="false"
     inkscape:window-width="1600"
     inkscape:window-height="852"
     inkscape:window-x="0"
     inkscape:window-y="0"
     inkscape:window-maximized="1" />
  <metadata
     id="metadata6939">
    <rdf:RDF>
      <cc:Work
         rdf:about="">
        <dc:format>image/svg+xml</dc:format>
        <dc:type
           rdf:resource="http://purl.org/dc/dcmitype/StillImage" />
        <dc:title />
      </cc:Work>
    </rdf:RDF>
  </metadata>
  <g
     inkscape:label="Capa 1"
     inkscape:groupmode="layer"
     id="layer1">
    <path
       style="fill:url(#linearGradient4454);fill-opacity:1;fill-rule:evenodd;stroke:none"
       d="m 34.21875,5.062503 c -1.32927,0.0554 -2.550557,0.27966 -3.65625,0.625 l -18.34375,2.71875 -0.5,0 0,0.1875 C 6.0032494,9.642823 3.0625,14.185733 3.0625,19.750003 l 0,84.687497 c -0.07024,5.65226 2.0501037,10.0952 6.3125,11.5 l 18.96875,5.9375 c 0.02087,0.0102 0.04153,0.0212 0.0625,0.0313 1.892721,0.90932 4.164425,1.2325 6.78125,0.8125 l 78.28125,-11.8125 c 5.72052,-0.61974 9.4668,-6.06393 9.15625,-13.625 l 0.40625,-74.281297 c 0.22248,-5.96534 -2.80168,-10.97622 -9.34375,-11.96875 l -77.84375,-5.9375 c -0.55631,-0.0273 -1.103066,-0.053 -1.625,-0.0313 z"
       id="path30949"
       inkscape:connector-curvature="0" />
    <path
       style="fill:url(#linearGradient3107);fill-rule:evenodd;stroke:none"
       d="M 29.25,16.71875 29.21875,113.125 c 0.448699,3.45828 1.407546,8.12456 4.34375,9.75 0.527128,-0.0229 1.067503,-0.0668 1.625,-0.15625 l 78.28125,-11.8125 c 5.72052,-0.61974 9.4668,-6.06393 9.15625,-13.625 L 123.03125,23 C 123.2537,17.03466 120.22957,12.02378 113.6875,11.03125 L 37.678453,5.23369 C 33.707189,4.81302 29.262938,10.01426 29.25,16.71875 Z M 30.15625,122.5 c 0.647964,0.17153 1.314675,0.32617 2.03125,0.375 z"
       id="path30953"
       inkscape:connector-curvature="0"
       sodipodi:nodetypes="ccccccccccccc" />
    <path
       style="display:inline;fill:url(#linearGradient3103);fill-rule:evenodd;stroke:none"
       d="m 34.78125,5.3125 -22.5625,3.09375 -0.5,0 0,0.1875 C 6.003249,9.64282 3.0625,14.18573 3.0625,19.75 l 0,25 26.1875,0 0,-28.03125 C 29.597051,11.80197 31.524064,6.75497 34.78125,5.3125 Z"
       id="path3073"
       inkscape:connector-curvature="0" />
    <path
       style="display:inline;fill:url(#linearGradient3105);fill-rule:evenodd;stroke:none"
       d="m 3.0625,68.40625 0,36.03125 c -0.07024,5.65226 2.050104,10.0952 6.3125,11.5 l 17.65625,6.03125 7.5,1.3125 c -3.710844,-1.04488 -4.81745,-6.34073 -5.3125,-10.15625 l 0,-44.71875 -26.15625,0 z"
       id="path3081"
       inkscape:connector-curvature="0" />
    <path
       inkscape:connector-curvature="0"
       id="path30957"
       d="m 35.825012,5.08443 c -1.734374,-0.0853 -3.26759,0.13333 -4.667303,0.50133 L 11.65504,8.5863 C 5.9395447,9.63537 2.9871862,14.19003 2.9871862,19.7543 l 0,84.67844 c -0.07024,5.65226 2.0718035,10.09707 6.3341998,11.50187 l 19.669357,6.16693 c 1.792241,0.74027 3.774988,1.0512 6.167512,0.6672 l 78.344065,-11.8352 c 5.72052,-0.6192 9.47847,-6.1072 9.16792,-13.66827 l 0.33339,-74.34403 C 123.22608,16.9559 120.21109,12.0791 113.66902,11.08657 L 35.825018,5.0855 Z"
       style="display:inline;fill:none;stroke:#344b63;stroke-width:2.667032;stroke-linecap:butt;stroke-linejoin:miter;stroke-miterlimit:4;stroke-dasharray:none;stroke-opacity:1"
       sodipodi:nodetypes="ccccccccccccc" />
    <path
       inkscape:connector-curvature="0"
       id="path4194"
       d="M 78.294264,12.844416 C 55.887435,11.104733 35.54026,27.291028 33.921454,59.568535 32.545078,87.012708 46.452692,108.90974 64.787647,113.44188 l 5.28845,-15.559281 C 58.169741,93.804213 50.439642,80.081227 51.414332,60.646782 52.633927,36.329197 67.420469,24.528305 83.102784,27.597801 c 8.84341,1.730933 15.638384,8.138841 19.458916,17.19275 2.34179,5.549482 3.6951,12.061712 3.33893,19.163733 -0.68068,13.572052 -6.979235,25.233232 -15.430488,31.092531 l 4.301444,13.800955 C 107.79491,100.51167 117.3774,84.037859 118.33641,64.915867 119.66342,38.456049 104.83552,17.533574 82.844271,13.39193 81.333143,13.107346 79.788058,12.960405 78.294263,12.84445 Z m 3.80097,33.460164 C 74.730976,45.41656 67.851577,50.966993 67.244485,63.071852 66.637374,75.177074 72.291166,82.125322 80.932204,81.940258 87.739669,81.79446 92.78954,73.692099 93.26131,64.285437 93.727878,54.982511 89.225075,47.162183 82.095234,46.30458 Z"
       style="display:inline;fill:#000000;fill-opacity:1;stroke:#000000;stroke-width:4.341259;stroke-linecap:round;stroke-linejoin:round;stroke-miterlimit:4;stroke-dasharray:none;stroke-opacity:0.55135139" />
    <path
       style="display:inline;fill:#ffffff;fill-opacity:1;stroke:none"
       d="M 78.914368,13.281208 C 56.653911,11.55289 36.439653,27.633449 34.831422,59.700104 33.464037,86.964999 47.280798,108.719 65.495981,113.22152 L 70.749885,97.763883 C 58.921307,93.71214 51.241705,80.078799 52.210028,60.771308 53.421655,36.612577 68.111606,24.888773 83.691477,27.938219 c 8.785641,1.719625 15.536227,8.085674 19.331793,17.080437 2.32649,5.513231 3.67096,11.98292 3.31711,19.038548 -0.67622,13.483393 -6.933627,25.068397 -15.329673,30.88942 l 4.273346,13.710806 C 108.2223,100.37579 117.7422,84.009583 118.69494,65.012505 120.01328,38.725535 105.28225,17.939735 83.434652,13.825146 81.933395,13.542421 80.398404,13.39644 78.914367,13.281242 Z m 3.77614,33.241588 c -7.316151,-0.882219 -14.15061,4.631955 -14.753736,16.65774 -0.603145,12.026146 5.013712,18.929004 13.598304,18.745149 6.762995,-0.144846 11.779879,-8.194278 12.248567,-17.539492 0.463519,-9.242154 -4.00987,-17.011397 -11.093135,-17.863397 z"
       id="path27063"
       inkscape:connector-curvature="0" />
    <rect
       style="opacity:1;fill:url(#linearGradient6005);fill-opacity:1;fill-rule:nonzero;stroke:none;stroke-width:2.5999999;stroke-linecap:round;stroke-linejoin:round;stroke-miterlimit:4;stroke-dasharray:none;stroke-dashoffset:0;stroke-opacity:0.46486487"
       id="rect6003"
       width="30.581238"
       height="56.065605"
       x="84.026558"
       y="-124.27103" />
    <rect
       y="-124.27103"
       x="46.388103"
       height="56.065605"
       width="30.581238"
       id="rect6031"
       style="opacity:1;fill:url(#linearGradient6033);fill-opacity:1;fill-rule:nonzero;stroke:none;stroke-width:2.5999999;stroke-linecap:round;stroke-linejoin:round;stroke-miterlimit:4;stroke-dasharray:none;stroke-dashoffset:0;stroke-opacity:0.46486487" />
    <rect
       style="opacity:1;fill:url(#linearGradient6037);fill-opacity:1;fill-rule:nonzero;stroke:none;stroke-width:2.5999999;stroke-linecap:round;stroke-linejoin:round;stroke-miterlimit:4;stroke-dasharray:none;stroke-dashoffset:0;stroke-opacity:0.46486487"
       id="rect6035"
       width="30.581238"
       height="56.065605"
       x="6.0051961"
       y="-124.27103" />
  </g>
</svg>
