<?xml version="1.0" encoding="UTF-8" standalone="no"?>
<!-- Created with Inkscape (http://www.inkscape.org/) -->

<svg
   xmlns:dc="http://purl.org/dc/elements/1.1/"
   xmlns:cc="http://creativecommons.org/ns#"
   xmlns:rdf="http://www.w3.org/1999/02/22-rdf-syntax-ns#"
   xmlns:svg="http://www.w3.org/2000/svg"
   xmlns="http://www.w3.org/2000/svg"
   xmlns:xlink="http://www.w3.org/1999/xlink"
   xmlns:sodipodi="http://sodipodi.sourceforge.net/DTD/sodipodi-0.dtd"
   xmlns:inkscape="http://www.inkscape.org/namespaces/inkscape"
   width="136.53334"
   height="136.53334"
   id="svg6934"
   sodipodi:version="0.32"
   inkscape:version="0.92.1 r15371"
   version="1.0"
   sodipodi:docname=" jaca debian.svg"
   inkscape:output_extension="org.inkscape.output.svg.inkscape">
  <defs
     id="defs6936">
    <linearGradient
       id="linearGradient5165-7-9-8-2-1">
      <stop
         id="stop5167-4-8-6-9-4"
         style="stop-color:#ffffff;stop-opacity:1"
         offset="0" />
      <stop
         id="stop5169-5-5-2-9-90"
         style="stop-color:#ffffff;stop-opacity:0"
         offset="1" />
    </linearGradient>
    <linearGradient
       id="linearGradient5344-4">
      <stop
         style="stop-color:#000000;stop-opacity:1;"
         offset="0"
         id="stop5346-96" />
      <stop
         style="stop-color:#000000;stop-opacity:0;"
         offset="1"
         id="stop5348-31" />
    </linearGradient>
    <linearGradient
       inkscape:collect="always"
       xlink:href="#jaca"
       id="linearGradient4877"
       gradientUnits="userSpaceOnUse"
       gradientTransform="scale(1.0666667)"
       x1="6.5963445"
       y1="25.086559"
       x2="117.48683"
       y2="107.41399" />
    <linearGradient
       id="jaca">
      <stop
         id="stop8362"
         offset="0"
         style="stop-color:#b995da;stop-opacity:1" />
      <stop
         id="stop8364"
         offset="1"
         style="stop-color:#766287;stop-opacity:1" />
    </linearGradient>
    <linearGradient
       inkscape:collect="always"
       xlink:href="#linearGradient5344-4"
       id="linearGradient4879"
       gradientUnits="userSpaceOnUse"
       gradientTransform="matrix(5.6896682,0,0,5.6896682,-1548.2455,-6255.5279)"
       x1="305.23422"
       y1="1137.0681"
       x2="283.35095"
       y2="1104.2024" />
    <linearGradient
       inkscape:collect="always"
       xlink:href="#linearGradient5344-4"
       id="linearGradient4883"
       gradientUnits="userSpaceOnUse"
       gradientTransform="matrix(1.0666667,0,0,1.0666667,0,149.33333)"
       x1="7.9531264"
       y1="2.2416961"
       x2="13.667412"
       y2="-64.464973" />
    <linearGradient
       inkscape:collect="always"
       xlink:href="#linearGradient5165-7-9-8-2-1"
       id="linearGradient4881"
       gradientUnits="userSpaceOnUse"
       gradientTransform="matrix(1.0666667,0,0,1.0666667,0,149.33333)"
       x1="22.933788"
       y1="-144.76825"
       x2="18.618809"
       y2="-96.331688" />
  </defs>
  <sodipodi:namedview
     id="base"
     pagecolor="#ffffff"
     bordercolor="#666666"
     borderopacity="1.0"
     inkscape:pageopacity="0.0"
     inkscape:pageshadow="2"
     inkscape:zoom="0.85561262"
     inkscape:cx="247.20028"
     inkscape:cy="148.26842"
     inkscape:document-units="px"
     inkscape:current-layer="layer2"
     showgrid="false"
     inkscape:window-width="1366"
     inkscape:window-height="714"
     inkscape:window-x="0"
     inkscape:window-y="26"
     inkscape:window-maximized="1"
     inkscape:snap-global="false" />
  <metadata
     id="metadata6939">
    <rdf:RDF>
      <cc:Work
         rdf:about="">
        <dc:format>image/svg+xml</dc:format>
        <dc:type
           rdf:resource="http://purl.org/dc/dcmitype/StillImage" />
        <dc:title />
      </cc:Work>
    </rdf:RDF>
  </metadata>
  <g
     inkscape:label="Capa 1"
     inkscape:groupmode="layer"
     id="layer1">
    <path
       style="fill:url(#linearGradient4877);fill-opacity:1;fill-rule:evenodd;stroke:none;stroke-width:1.06666672"
       d="m 36.5,5.4 c -1.41789,0.0591 -2.72059,0.29831 -3.9,0.66667 l -19.56667,2.9 H 12.5 v 0.2 c -6.09653,1.11901 -9.23333,5.96478 -9.23333,11.9 V 111.4 C 3.19177,117.42908 5.45344,122.16821 10,123.66667 L 30.23333,130 c 0.0223,0.0109 0.0443,0.0226 0.0667,0.0334 2.01891,0.96994 4.44206,1.31466 7.23334,0.86666 l 83.49999,-12.6 c 6.10189,-0.66105 10.09792,-6.46819 9.76667,-14.53333 l 0.43333,-79.23338 C 131.47068,18.17032 128.2449,12.82538 121.2667,11.76668 L 38.23336,5.43334 c -0.59339,-0.0291 -1.1766,-0.0565 -1.73333,-0.0334 z"
       id="path4859"
       inkscape:connector-curvature="0" />
  </g>
  <g
     inkscape:groupmode="layer"
     id="layer3"
     inkscape:label="som"
     style="display:inline">
    <path
       style="fill:url(#linearGradient4879);fill-rule:evenodd;stroke:none;stroke-width:1.06666672"
       d="m 31.2,17.83334 -0.0333,102.83333 c 0.47861,3.68883 1.50138,8.66619 4.63333,10.4 0.56227,-0.0244 1.13867,-0.0713 1.73334,-0.16667 l 83.49999,-12.6 c 6.10189,-0.66106 10.09792,-6.46819 9.76667,-14.53333 l 0.43333,-79.23333 C 131.47064,18.17031 128.2449,12.82537 121.2667,11.76667 L 40.19038,5.5826105 C 35.95437,5.1338905 31.21383,10.68188 31.20003,17.83334 Z m 0.96667,112.83333 c 0.69116,0.18296 1.40232,0.34791 2.16666,0.4 z"
       id="path4861"
       inkscape:connector-curvature="0"
       sodipodi:nodetypes="ccccccccccccc" />
    <path
       style="display:inline;fill:url(#linearGradient4881);fill-rule:evenodd;stroke:none;stroke-width:1.06666672"
       d="m 37.1,5.6666705 -24.06667,3.3 H 12.5 v 0.2 C 6.40347,10.28568 3.26667,15.13145 3.26667,21.06667 V 47.73334 H 31.2 v -29.9 C 31.57019,12.58877 33.62567,7.2053005 37.1,5.6666705 Z"
       id="path4863"
       inkscape:connector-curvature="0" />
    <path
       style="display:inline;fill:url(#linearGradient4883);fill-rule:evenodd;stroke:none;stroke-width:1.06666672"
       d="M 3.26667,72.96667 V 111.4 C 3.19177,117.42908 5.45344,122.16821 10,123.66667 l 18.83333,6.43333 8,1.4 c -3.95823,-1.11454 -5.13861,-6.76345 -5.66666,-10.83333 v -47.7 z"
       id="path4865"
       inkscape:connector-curvature="0" />
  </g>
  <g
     inkscape:groupmode="layer"
     id="layer2"
     inkscape:label="top"
     style="display:inline">
    <path
       inkscape:connector-curvature="0"
       id="path4953"
       d="m 77.33607,17.559934 c -2.75839,0.809762 -5.60405,0.08199 -8.01375,2.105435 -3.4956,1.594041 -6.80606,3.808271 -9.87785,5.952887 -3.01545,0.795305 -4.33598,4.434879 -6.74527,6.239893 -2.3727,2.552385 -3.61857,5.986407 -4.77407,9.11586 -3.26134,2.894283 -3.24425,7.89937 -4.62515,11.819775 -1.0767,3.325275 0.43024,3.991838 0.14073,7.202575 0.30922,7.879718 0.96774,15.953592 4.42411,23.17883 6.40989,14.221916 19.61338,26.151581 35.41879,28.212351 2.77156,-0.24903 6.20118,0.83287 8.58853,-0.89221 1.49621,-1.53789 0.0783,-4.21252 -1.99488,-4.12456 -4.29574,-0.32626 -8.71956,-1.02084 -11.54145,-4.65593 -1.28983,-1.09816 -3.05894,0.59671 -3.2749,-1.61606 -1.65704,-1.146683 -2.90714,-1.317165 -4.2849,-3.220586 -2.15001,-0.255383 -2.67251,-2.260489 -3.6577,-3.875486 -2.00575,-0.686559 -3.01943,-2.312666 -3.37967,-4.307296 -1.08609,-1.305964 -2.16986,-2.963971 -2.02019,-4.687627 -0.34625,-3.810599 -4.43156,-5.203229 -6.00977,-7.518883 -0.0729,-1.715522 -1.51884,-2.975667 -1.06811,-4.802196 -2.50469,-4.516629 -1.49345,-9.960471 -1.4888,-14.928461 -0.0212,-3.267769 2.8587,-5.992263 2.68007,-9.282087 2.25727,-3.110005 4.62074,-6.742597 8.26655,-8.24135 2.91711,-0.205577 2.3575,-4.727326 5.77464,-4.014044 2.84414,-0.214515 3.57316,-4.247958 6.56393,-3.379599 5.61779,-2.388713 12.46452,-2.045897 17.85686,0.821418 5.70906,3.488693 10.25703,9.342411 11.1792,16.070607 0.68864,3.121908 0.65488,6.490765 0.25685,9.669274 1.10046,2.431096 -3.15584,3.406194 -1.9268,6.231122 -1.83528,2.731326 -5.06396,3.013654 -7.05775,5.63677 -3.12458,1.206821 -6.58536,2.466236 -9.91282,0.930669 -5.16164,-1.766914 -9.00739,-6.711656 -9.26333,-12.178984 -0.73524,-3.738456 1.64367,-7.992517 4.98242,-9.825841 3.73338,-2.293021 8.70765,-1.680546 12.03327,1.044153 2.21646,1.046282 4.43853,-2.074423 2.72508,-3.826675 -5.38107,-6.643292 -16.67252,-6.935583 -22.0971,-0.197616 -2.09469,2.748817 -3.94211,6.202839 -4.769,9.255645 -1.07303,3.828865 -0.15744,8.167331 1.3382,11.79279 2.17333,1.629481 -0.76135,3.833129 1.30707,5.571752 4.65354,5.825719 12.51874,9.321293 19.96711,8.486483 3.57823,0.522376 3.51859,-3.421565 6.13938,-3.784465 3.71935,-1.021237 6.68347,-4.023349 9.51148,-6.07508 2.41452,0.07727 1.95279,-3.1827 3.42679,-3.887115 2.0146,-1.12123 0.50428,-4.190178 2.5159,-5.286217 1.57875,-2.092012 1.08247,-5.043906 1.69213,-6.852378 1.37873,-1.957448 -0.24246,-5.360923 1.52886,-6.125092 2.27107,-2.104026 -0.32829,-5.289814 -0.90103,-7.604884 0.59215,-2.560219 -0.58136,-5.504953 -2.23298,-7.830442 -3.45141,-5.521074 -8.72974,-9.952777 -14.64975,-12.51035 -2.92299,-1.935475 -6.50527,0.08068 -9.52266,-1.996766 -2.31651,-0.185294 -4.9377,-2.332108 -7.1103,-0.786038 -1.77718,-0.0029 -3.77414,0.247979 -5.25941,-0.899799 -0.27535,-0.09281 -0.56929,-0.13503 -0.85856,-0.124172 z m -2.1841,4.083309 c -0.49741,0.71884 -0.0852,0.183959 0,0 z m 39.88348,28.613631 c -0.59741,0.704129 -1.58968,0.667419 0,0 z m -11.21073,14.627532 c 0.0732,-0.129392 -0.13579,0.208618 0,0 z"
       style="display:inline;fill:#000000;fill-opacity:0.46601939;stroke:#000000;stroke-width:2.5999999;stroke-miterlimit:4;stroke-dasharray:none;stroke-opacity:0.45145629" />
    <path
       inkscape:connector-curvature="0"
       id="path4867"
       d="m 38.21335,5.4233905 c -1.85,-0.091 -3.48543,0.14222 -4.97846,0.53476 l -20.80285,3.20057 C 6.33551,10.27773 3.18633,15.13603 3.18633,21.07126 v 90.32366 c -0.0749,6.02908 2.20993,10.77021 6.75648,12.26866 l 20.98065,6.57806 c 1.91172,0.78962 4.02665,1.12128 6.57868,0.71168 l 83.567,-12.62421 c 6.10189,-0.66048 10.11037,-6.51435 9.77912,-14.57949 l 0.35561,-79.30029 c 0.23728,-6.36303 -2.97871,-11.56495 -9.95692,-12.62365 L 38.21335,5.4245405 Z"
       style="display:inline;fill:none;stroke:#344b63;stroke-width:2.84483409;stroke-linecap:butt;stroke-linejoin:miter;stroke-miterlimit:4;stroke-dasharray:none;stroke-opacity:1"
       sodipodi:nodetypes="ccccccccccccc" />
    <path
       style="display:inline;fill:#ffffff;stroke-width:1"
       d="m 79.33607,17.55993 c -2.75839,0.80976 -5.60405,0.082 -8.01375,2.10544 -3.4956,1.59404 -6.80606,3.80827 -9.87785,5.95288 -3.01545,0.79531 -4.33598,4.43488 -6.74527,6.2399 -2.3727,2.55238 -3.61857,5.9864 -4.77407,9.11586 -3.26134,2.89428 -3.24425,7.89937 -4.62515,11.81977 -1.0767,3.32528 0.43024,3.99184 0.14073,7.20258 0.30922,7.87971 0.96774,15.95359 4.42411,23.17883 6.40989,14.22191 19.61338,26.15158 35.41879,28.21235 2.77156,-0.24903 6.20118,0.83287 8.58853,-0.89221 1.49621,-1.53789 0.0783,-4.21252 -1.99488,-4.12456 -4.29574,-0.32626 -8.71956,-1.02084 -11.54145,-4.65593 -1.28983,-1.09816 -3.05894,0.59671 -3.2749,-1.61606 -1.65704,-1.14669 -2.90714,-1.31717 -4.2849,-3.22059 C 70.626,96.62281 70.1035,94.6177 69.11831,93.0027 67.11256,92.31615 66.09888,90.69004 65.73864,88.69541 64.65255,87.38944 63.56878,85.73144 63.71845,84.00778 63.3722,80.19718 59.28689,78.80455 57.70868,76.4889 c -0.0729,-1.71552 -1.51884,-2.97567 -1.06811,-4.8022 -2.50469,-4.51663 -1.49345,-9.96047 -1.4888,-14.92846 -0.0212,-3.26777 2.8587,-5.99226 2.68007,-9.28209 2.25727,-3.11 4.62074,-6.74259 8.26655,-8.24135 2.91711,-0.20557 2.3575,-4.72732 5.77464,-4.01404 2.84414,-0.21451 3.57316,-4.24796 6.56393,-3.3796 5.61779,-2.38871 12.46452,-2.0459 17.85686,0.82142 5.70906,3.48869 10.25703,9.34241 11.1792,16.07061 0.68864,3.1219 0.65488,6.49076 0.25685,9.66927 1.10046,2.4311 -3.15584,3.40619 -1.9268,6.23112 -1.83528,2.73133 -5.06396,3.01366 -7.05775,5.63677 -3.12458,1.20682 -6.58536,2.46624 -9.91282,0.93067 -5.16164,-1.76691 -9.00739,-6.71165 -9.26333,-12.17898 -0.73524,-3.73846 1.64367,-7.99252 4.98242,-9.82584 3.73338,-2.29302 8.70765,-1.68055 12.03327,1.04415 2.21646,1.04628 4.43853,-2.07442 2.72508,-3.82668 -5.38107,-6.64329 -16.67252,-6.93558 -22.0971,-0.19761 -2.09469,2.74882 -3.94211,6.20284 -4.769,9.25564 -1.07303,3.82887 -0.15744,8.16733 1.3382,11.79279 2.17333,1.62948 -0.76135,3.83313 1.30707,5.57176 4.65354,5.82571 12.51874,9.32129 19.96711,8.48648 3.57823,0.52237 3.51859,-3.42157 6.13938,-3.78447 3.71935,-1.02123 6.68347,-4.02335 9.51148,-6.07508 2.41452,0.0773 1.95279,-3.1827 3.42679,-3.88711 2.0146,-1.12123 0.50428,-4.19018 2.5159,-5.28622 1.57875,-2.09201 1.08247,-5.0439 1.69213,-6.85238 1.37873,-1.95744 -0.24246,-5.36092 1.52886,-6.12509 2.27107,-2.10402 -0.32829,-5.28981 -0.90103,-7.60488 0.59215,-2.56022 -0.58136,-5.50496 -2.23298,-7.83044 -3.45141,-5.52108 -8.72974,-9.95278 -14.64975,-12.51035 -2.92299,-1.93548 -6.50527,0.0807 -9.52266,-1.99677 -2.31651,-0.18529 -4.9377,-2.33211 -7.1103,-0.78604 -1.77718,-0.003 -3.77414,0.24798 -5.25941,-0.8998 -0.27535,-0.0928 -0.56929,-0.13503 -0.85856,-0.12417 z m -2.1841,4.08331 c -0.49741,0.71884 -0.0852,0.18396 0,0 z m 39.88348,28.61363 c -0.59741,0.70413 -1.58968,0.66742 0,0 z M 105.82472,64.8844 c 0.0732,-0.12939 -0.13579,0.20862 0,0 z"
       id="path6264"
       inkscape:connector-curvature="0" />
  </g>
</svg>
