<?xml version="1.0" encoding="UTF-8" standalone="no"?>
<!-- Created with Inkscape (http://www.inkscape.org/) -->

<svg
   xmlns:dc="http://purl.org/dc/elements/1.1/"
   xmlns:cc="http://creativecommons.org/ns#"
   xmlns:rdf="http://www.w3.org/1999/02/22-rdf-syntax-ns#"
   xmlns:svg="http://www.w3.org/2000/svg"
   xmlns="http://www.w3.org/2000/svg"
   xmlns:xlink="http://www.w3.org/1999/xlink"
   xmlns:sodipodi="http://sodipodi.sourceforge.net/DTD/sodipodi-0.dtd"
   xmlns:inkscape="http://www.inkscape.org/namespaces/inkscape"
   width="128"
   height="128"
   id="svg43537"
   version="1.1"
   inkscape:version="0.48.3.1 r9886"
   sodipodi:docname="gtk-indent-rtl.svg">
  <defs
     id="defs43539">
    <linearGradient
       gradientTransform="matrix(2.6666667,0,0,2.6666667,-3213.8379,307.90644)"
       inkscape:collect="always"
       xlink:href="#linearGradient13628"
       id="linearGradient43511"
       x1="1216.1819"
       y1="234.66792"
       x2="1218.8632"
       y2="252.04292"
       gradientUnits="userSpaceOnUse" />
    <linearGradient
       id="linearGradient13628">
      <stop
         style="stop-color:#87c7ff;stop-opacity:1;"
         offset="0"
         id="stop13630" />
      <stop
         style="stop-color:#74aadb;stop-opacity:1;"
         offset="1"
         id="stop13632" />
    </linearGradient>
    <linearGradient
       inkscape:collect="always"
       xlink:href="#linearGradient9863"
       id="linearGradient42705"
       gradientUnits="userSpaceOnUse"
       gradientTransform="matrix(2.6666667,0,0,2.6666667,-2413.8379,310.73487)"
       x1="929.57672"
       y1="278.60513"
       x2="929.57672"
       y2="232.92415" />
    <linearGradient
       id="linearGradient9863">
      <stop
         style="stop-color:#2f445a;stop-opacity:1;"
         offset="0"
         id="stop9865" />
      <stop
         style="stop-color:#415f7c;stop-opacity:1"
         offset="1"
         id="stop9867" />
    </linearGradient>
  </defs>
  <sodipodi:namedview
     id="base"
     pagecolor="#ffffff"
     bordercolor="#666666"
     borderopacity="1.0"
     inkscape:pageopacity="0.0"
     inkscape:pageshadow="2"
     inkscape:zoom="1.4"
     inkscape:cx="126.04257"
     inkscape:cy="92.03623"
     inkscape:document-units="px"
     inkscape:current-layer="layer1"
     showgrid="false"
     inkscape:showpageshadow="false"
     inkscape:window-width="1366"
     inkscape:window-height="720"
     inkscape:window-x="0"
     inkscape:window-y="24"
     inkscape:window-maximized="1" />
  <metadata
     id="metadata43542">
    <rdf:RDF>
      <cc:Work
         rdf:about="">
        <dc:format>image/svg+xml</dc:format>
        <dc:type
           rdf:resource="http://purl.org/dc/dcmitype/StillImage" />
        <dc:title></dc:title>
      </cc:Work>
    </rdf:RDF>
  </metadata>
  <g
     inkscape:label="Capa 1"
     inkscape:groupmode="layer"
     id="layer1"
     transform="translate(0,-924.36218)">
    <path
       inkscape:connector-curvature="0"
       inkscape:export-ydpi="57.964222"
       inkscape:export-xdpi="57.964222"
       inkscape:export-filename="/home/dafeba/DCV/tallerD/bocetos/08-09-22-hastaahora.png"
       sodipodi:nodetypes="ccccccccc"
       id="path42693"
       d="m 10.596027,943.5985 0,90.9813 c -0.613067,8.3232 4.392266,14.6502 12.733866,13.3112 l 77.983197,-11.7754 c 5.69894,-0.6174 9.41627,-6.0251 9.1072,-13.5571 l 0.42,-74.01067 c 0.22134,-5.9424 -2.8192,-10.916 -9.33653,-11.9048 L 23.961093,930.7065 c -8.8672,-0.43387 -13.353866,5.54586 -13.353866,12.892 z"
       style="fill:#ffffff;fill-rule:evenodd;stroke:url(#linearGradient42705);stroke-width:2.66666675;stroke-linecap:round;stroke-linejoin:round;stroke-miterlimit:4;stroke-opacity:1;stroke-dasharray:none;display:inline" />
    <path
       inkscape:connector-curvature="0"
       style="fill:#000000;fill-rule:evenodd;stroke:none;display:inline"
       d="m 61.828827,956.57316 0,7.33334 46.166663,-0.25067 0,-6.75013 -46.166663,-0.33334 z m 46.000003,12.83334 -46.000003,0.74986 0,7.08347 46.166663,-0.9168 -0.168,-6.91653 z m 0,12.83333 -46.000003,1.74987 0,7 46.166663,-2.24987 -0.168,-6.5 z m 0,14.0832 -93.66667,6.16667 0,7.6667 93.83333,-7.9166 -0.168,-5.91677 z m 0,12.25017 -93.916803,9.6666 0,8.3334 94.083463,-11.6667 -0.168,-6.3333 z"
       id="path42695" />
    <path
       style="font-size:medium;font-style:normal;font-variant:normal;font-weight:normal;font-stretch:normal;text-indent:0;text-align:start;text-decoration:none;line-height:normal;letter-spacing:normal;word-spacing:normal;text-transform:none;direction:ltr;block-progression:tb;writing-mode:lr-tb;text-anchor:start;baseline-shift:baseline;color:#000000;fill:url(#linearGradient43511);fill-opacity:1;stroke:none;stroke-width:3.20000005;marker:none;visibility:visible;display:inline;overflow:visible;enable-background:accumulate;font-family:Sans;-inkscape-font-specification:Sans"
       d="m 23.578693,939.9065 a 4.2670933,4.2670933 0 0 0 -2.333333,7.5832 l 23.8336,19.83333 -23.333333,19.25013 a 4.2891533,4.2891533 0 1 0 5.499733,6.5832 l 27.333333,-22.5 a 4.2670933,4.2670933 0 0 0 0,-6.5832 L 26.745627,940.9065 a 4.2670933,4.2670933 0 0 0 -3.166934,-1 z"
       id="path42709"
       inkscape:connector-curvature="0" />
  </g>
</svg>
