<?xml version="1.0" encoding="UTF-8" standalone="no"?>
<!-- Created with Inkscape (http://www.inkscape.org/) -->

<svg
   xmlns:dc="http://purl.org/dc/elements/1.1/"
   xmlns:cc="http://creativecommons.org/ns#"
   xmlns:rdf="http://www.w3.org/1999/02/22-rdf-syntax-ns#"
   xmlns:svg="http://www.w3.org/2000/svg"
   xmlns="http://www.w3.org/2000/svg"
   xmlns:xlink="http://www.w3.org/1999/xlink"
   xmlns:sodipodi="http://sodipodi.sourceforge.net/DTD/sodipodi-0.dtd"
   xmlns:inkscape="http://www.inkscape.org/namespaces/inkscape"
   width="128"
   height="128"
   id="svg2"
   sodipodi:version="0.32"
   inkscape:version="0.48.3.1 r9886"
   version="1.0"
   sodipodi:docname="stock_volume-max.svg"
   inkscape:output_extension="org.inkscape.output.svg.inkscape">
  <defs
     id="defs4">
    <linearGradient
       id="linearGradient8702">
      <stop
         id="stop8704"
         offset="0"
         style="stop-color:#87c7ff;stop-opacity:1;" />
      <stop
         id="stop8706"
         offset="1"
         style="stop-color:#74aadb;stop-opacity:1;" />
    </linearGradient>
    <linearGradient
       id="linearGradient9863-9">
      <stop
         style="stop-color:#2f445a;stop-opacity:1;"
         offset="0"
         id="stop9865-4" />
      <stop
         style="stop-color:#415f7c;stop-opacity:1"
         offset="1"
         id="stop9867-8" />
    </linearGradient>
    <linearGradient
       id="linearGradient5344-2">
      <stop
         style="stop-color:#000000;stop-opacity:1;"
         offset="0"
         id="stop5346-3" />
      <stop
         style="stop-color:#000000;stop-opacity:0;"
         offset="1"
         id="stop5348-2" />
    </linearGradient>
    <linearGradient
       id="linearGradient5439-5">
      <stop
         style="stop-color:#ffffff;stop-opacity:1;"
         offset="0"
         id="stop5441-1" />
      <stop
         style="stop-color:#000000;stop-opacity:1;"
         offset="1"
         id="stop5443-8" />
    </linearGradient>
    <linearGradient
       id="linearGradient7210-3">
      <stop
         id="stop7212-5"
         offset="0"
         style="stop-color:#74aadb;stop-opacity:1;" />
      <stop
         id="stop8994-7"
         offset="0.5"
         style="stop-color:#87c7ff;stop-opacity:1;" />
      <stop
         id="stop7214-6"
         offset="1"
         style="stop-color:#74aadb;stop-opacity:1;" />
    </linearGradient>
    <linearGradient
       id="linearGradient5362-8">
      <stop
         style="stop-color:#ffffff;stop-opacity:1;"
         offset="0"
         id="stop5364-9" />
      <stop
         style="stop-color:#ffffff;stop-opacity:0;"
         offset="1"
         id="stop5366-3" />
    </linearGradient>
    <linearGradient
       id="linearGradient5316-5">
      <stop
         style="stop-color:#87c7ff;stop-opacity:1;"
         offset="0"
         id="stop5320-7" />
      <stop
         style="stop-color:#74aadb;stop-opacity:1;"
         offset="1"
         id="stop5322-4" />
    </linearGradient>
    <linearGradient
       inkscape:collect="always"
       xlink:href="#linearGradient5316-5"
       id="linearGradient8972"
       gradientUnits="userSpaceOnUse"
       gradientTransform="matrix(2.1481476,0,0,2.2660452,-1072.5125,-1414.5137)"
       x1="505.28644"
       y1="645.81702"
       x2="504.58081"
       y2="659.34265" />
    <linearGradient
       inkscape:collect="always"
       xlink:href="#linearGradient5362-8"
       id="linearGradient8974"
       gradientUnits="userSpaceOnUse"
       gradientTransform="matrix(2.1481476,0,0,2.2660452,-1072.5125,-1414.5137)"
       x1="508.48956"
       y1="642.86359"
       x2="506.59845"
       y2="653.34991" />
    <linearGradient
       inkscape:collect="always"
       xlink:href="#linearGradient7210-3"
       id="linearGradient8976"
       gradientUnits="userSpaceOnUse"
       gradientTransform="matrix(2.4865983,0,0,2.4864923,-1202.2427,-1557.6523)"
       x1="494.4577"
       y1="637.09772"
       x2="515.29169"
       y2="668.90833" />
    <linearGradient
       inkscape:collect="always"
       xlink:href="#linearGradient5439-5"
       id="linearGradient8978"
       gradientUnits="userSpaceOnUse"
       gradientTransform="matrix(2.2024173,0,0,2.2023236,-1059.2662,-1371.7939)"
       x1="523.76074"
       y1="673.95343"
       x2="490.40436"
       y2="648.80872" />
    <linearGradient
       inkscape:collect="always"
       xlink:href="#linearGradient5439-5"
       id="linearGradient8980"
       gradientUnits="userSpaceOnUse"
       gradientTransform="matrix(3.1132681,0.09494446,-0.09345971,3.0643206,-1468.494,-1984.6058)"
       x1="494.64386"
       y1="641.93042"
       x2="509.46909"
       y2="661.21436" />
    <radialGradient
       inkscape:collect="always"
       xlink:href="#linearGradient5439-5"
       id="radialGradient8982"
       gradientUnits="userSpaceOnUse"
       gradientTransform="matrix(4.9397802,0,0,5.7128195,-2434.1566,-3693.5548)"
       cx="502.22336"
       cy="657.59094"
       fx="502.22336"
       fy="657.59094"
       r="5.6949959" />
    <linearGradient
       inkscape:collect="always"
       xlink:href="#linearGradient5344-2"
       id="linearGradient8984"
       gradientUnits="userSpaceOnUse"
       gradientTransform="matrix(2.1481476,0,0,2.2660452,-1072.5125,-1414.5137)"
       x1="504.64963"
       y1="667.4726"
       x2="503.15131"
       y2="654.14331" />
    <linearGradient
       inkscape:collect="always"
       xlink:href="#linearGradient5344-2"
       id="linearGradient8986"
       gradientUnits="userSpaceOnUse"
       gradientTransform="matrix(2.7642986,0,0,2.8210385,-1342.4466,-1789.1735)"
       x1="497.4556"
       y1="669.95612"
       x2="504.83231"
       y2="649.57263" />
    <linearGradient
       inkscape:collect="always"
       xlink:href="#linearGradient9863-9"
       id="linearGradient8988"
       gradientUnits="userSpaceOnUse"
       gradientTransform="matrix(2.6765239,0,0,2.6765239,-977.438,-940.39043)"
       x1="392.3085"
       y1="398.4826"
       x2="392.3085"
       y2="352.06906" />
    <linearGradient
       inkscape:collect="always"
       xlink:href="#linearGradient8702"
       id="linearGradient8990"
       gradientUnits="userSpaceOnUse"
       x1="128.86537"
       y1="62.91391"
       x2="84.855629"
       y2="62.91391" />
    <linearGradient
       inkscape:collect="always"
       xlink:href="#linearGradient9863-9"
       id="linearGradient8992"
       gradientUnits="userSpaceOnUse"
       x1="103.76308"
       y1="110.29007"
       x2="104.65604"
       y2="10.941563" />
    <linearGradient
       inkscape:collect="always"
       xlink:href="#linearGradient5316-5"
       id="linearGradient8994"
       gradientUnits="userSpaceOnUse"
       x1="129.57248"
       y1="64.287071"
       x2="86.30394"
       y2="64.287071" />
    <linearGradient
       inkscape:collect="always"
       xlink:href="#linearGradient9863-9"
       id="linearGradient8996"
       gradientUnits="userSpaceOnUse"
       x1="117.90521"
       y1="112.01678"
       x2="115.29675"
       y2="22.921324" />
    <linearGradient
       inkscape:collect="always"
       xlink:href="#linearGradient5316-5"
       id="linearGradient8998"
       gradientUnits="userSpaceOnUse"
       x1="139.85335"
       y1="64.838593"
       x2="95.899979"
       y2="64.838593" />
    <linearGradient
       inkscape:collect="always"
       xlink:href="#linearGradient9863-9"
       id="linearGradient9000"
       gradientUnits="userSpaceOnUse"
       x1="81.135651"
       y1="112.69846"
       x2="78.352371"
       y2="28.906303" />
  </defs>
  <sodipodi:namedview
     id="base"
     pagecolor="#ffffff"
     bordercolor="#666666"
     borderopacity="1.0"
     inkscape:pageopacity="0.0"
     inkscape:pageshadow="2"
     inkscape:zoom="0.70710678"
     inkscape:cx="213.86548"
     inkscape:cy="6.2058388"
     inkscape:document-units="px"
     inkscape:current-layer="layer1"
     showgrid="false"
     inkscape:showpageshadow="false"
     inkscape:window-width="1366"
     inkscape:window-height="717"
     inkscape:window-x="0"
     inkscape:window-y="0"
     showguides="true"
     inkscape:guide-bbox="true"
     inkscape:window-maximized="1" />
  <metadata
     id="metadata7">
    <rdf:RDF>
      <cc:Work
         rdf:about="">
        <dc:format>image/svg+xml</dc:format>
        <dc:type
           rdf:resource="http://purl.org/dc/dcmitype/StillImage" />
        <dc:title />
      </cc:Work>
    </rdf:RDF>
  </metadata>
  <g
     inkscape:label="Capa 1"
     inkscape:groupmode="layer"
     id="layer1">
    <path
       inkscape:export-ydpi="57.964222"
       inkscape:export-xdpi="57.964222"
       inkscape:export-filename="/home/dafeba/DCV/tallerD/bocetos/08-09-22-hastaahora.png"
       style="fill:url(#linearGradient8972);fill-opacity:1;stroke:none;display:inline"
       d="m 32.44779,67.68097 c 0,8.97484 1.05953,37.97958 -4.75139,38.88899 L 14.21191,86.53173 10.98892,85.9479 C 4.91198,85.26225 1.91037,77.57857 1.91037,67.37301 c 0,-10.20556 3.03255,-18.13802 9.8037,-18.16575 L 14.7511,49.07769 31.95633,28.71146 c 6.35147,0.5152 0.49146,30.05454 0.49146,38.96951 z"
       id="path8900"
       sodipodi:nodetypes="cccczcccz"
       inkscape:connector-curvature="0" />
    <path
       inkscape:connector-curvature="0"
       sodipodi:nodetypes="ccccc"
       id="path8902"
       d="M 27.6964,106.56996 14.21191,86.53173 C 7.37653,75.61333 8.69461,57.08938 14.7511,49.07769 L 31.95633,28.71146 C 24.2883,43.37528 21.40796,92.0637 27.6964,106.56996 z"
       style="fill:url(#linearGradient8974);fill-opacity:1;stroke:none;display:inline"
       inkscape:export-filename="/home/dafeba/DCV/tallerD/bocetos/08-09-22-hastaahora.png"
       inkscape:export-xdpi="57.964222"
       inkscape:export-ydpi="57.964222" />
    <path
       style="fill:url(#linearGradient8976);fill-opacity:1;stroke:none;display:inline"
       d="m 88.68199,68.19885 c 0.21813,27.7585 -14.33707,46.44294 -33.1177,49.54415 -20.56695,3.39616 -39.24783,-15.98145 -39.24783,-47.2281 0,-31.35865 19.37303,-53.29817 39.36158,-51.53113 17.53685,1.55027 32.7842,21.23679 33.00395,49.21508 z"
       id="path8904"
       sodipodi:nodetypes="cszsz"
       inkscape:export-filename="/home/dafeba/DCV/tallerD/bocetos/08-09-22-hastaahora.png"
       inkscape:export-xdpi="57.964222"
       inkscape:export-ydpi="57.964222"
       inkscape:connector-curvature="0" />
    <path
       inkscape:connector-curvature="0"
       sodipodi:nodetypes="cszsz"
       id="path8906"
       d="m 84.12547,68.24711 c 0.19298,24.58612 -12.6985,41.13526 -29.33309,43.88207 -18.21635,3.00801 -33.98361,-14.1551 -33.98361,-41.8307 0,-27.77482 16.37326,-47.12582 34.08451,-45.64193 16.38836,1.37311 29.03761,18.80981 29.23219,43.59056 z"
       style="fill:url(#linearGradient8978);fill-opacity:1;stroke:none;display:inline"
       inkscape:export-filename="/home/dafeba/DCV/tallerD/bocetos/08-09-22-hastaahora.png"
       inkscape:export-xdpi="57.964222"
       inkscape:export-ydpi="57.964222" />
    <path
       inkscape:connector-curvature="0"
       style="fill:url(#linearGradient8980);fill-opacity:1;stroke:none;display:inline"
       d="M 61.27117,68.14361 C 60.86808,81.36173 52.55534,94.51058 43.34247,95.57022 32.37154,96.83201 23.62929,84.45311 24.1185,68.41343 24.61039,52.28548 33.71885,40.1471 44.65103,41.20213 c 9.31832,0.90846 17.02055,13.81163 16.62014,26.94148 z"
       id="path8908"
       sodipodi:nodetypes="cszsz"
       inkscape:export-filename="/home/dafeba/DCV/tallerD/bocetos/08-09-22-hastaahora.png"
       inkscape:export-xdpi="57.964222"
       inkscape:export-ydpi="57.964222" />
    <path
       inkscape:connector-curvature="0"
       sodipodi:nodetypes="cszsz"
       id="path8910"
       d="M 59.76188,68.52675 C 59.42169,79.90725 52.29652,91.10781 44.52416,92.02013 35.26901,93.1065 27.89385,82.44853 28.30654,68.63879 28.72153,54.75312 36.41435,44.21536 45.62823,45.21065 c 8.438,0.91674 14.47143,12.01162 14.13365,23.3161 z"
       style="fill:url(#radialGradient8982);fill-opacity:1;stroke:none;display:inline"
       inkscape:export-filename="/home/dafeba/DCV/tallerD/bocetos/08-09-22-hastaahora.png"
       inkscape:export-xdpi="57.964222"
       inkscape:export-ydpi="57.964222" />
    <path
       sodipodi:nodetypes="cczccc"
       id="path8912"
       d="M 14.21191,86.53173 10.98892,85.9479 C 4.91198,85.26225 1.91037,77.57857 1.91037,67.37301 c 0,-10.20556 3.03255,-18.13802 9.8037,-18.16575 L 14.7511,49.07769 C 8.76599,57.26865 7.25001,75.73337 14.21191,86.53173 z"
       style="fill:url(#linearGradient8984);fill-opacity:1;stroke:none;display:inline"
       inkscape:export-filename="/home/dafeba/DCV/tallerD/bocetos/08-09-22-hastaahora.png"
       inkscape:export-xdpi="57.964222"
       inkscape:export-ydpi="57.964222"
       inkscape:connector-curvature="0" />
    <path
       inkscape:connector-curvature="0"
       inkscape:export-ydpi="57.964222"
       inkscape:export-xdpi="57.964222"
       inkscape:export-filename="/home/dafeba/DCV/tallerD/bocetos/08-09-22-hastaahora.png"
       style="fill:url(#linearGradient8986);fill-opacity:1;stroke:none;display:inline"
       d="M 59.76188,68.52675 C 59.42169,79.90725 52.29652,91.10781 44.52416,92.02013 35.26901,93.1065 27.89385,82.44853 28.30654,68.63879 28.72153,54.75312 36.41435,44.21536 45.62823,45.21065 c 8.438,0.91674 14.47143,12.01162 14.13365,23.3161 z"
       id="path8914"
       sodipodi:nodetypes="cszsz" />
    <path
       sodipodi:nodetypes="ccccscccccsssc"
       id="path8916"
       d="M 51.96409,18.91913 C 42.04495,19.48942 32.56837,25.741 25.88785,35.9321 l -11.82422,13.1658 -2.36811,0.0855 c -6.77115,0.0277 -9.74656,8.00424 -9.74653,18.20983 0,10.20556 2.98555,17.86614 9.06255,18.55182 l 2.4832,0.62801 10.08471,13.90567 c 1.24421,2.16646 2.60747,4.18598 4.10378,5.98449 l 0,0.0855 c 7.28622,8.72697 17.3477,12.93727 27.87169,11.19946 C 74.33571,114.64699 88.85987,95.92122 88.64181,68.16267 88.42204,40.18441 73.17742,20.55487 55.64041,19.00462 54.39114,18.89416 53.20397,18.84783 51.96409,18.91912 z"
       style="fill:none;stroke:url(#linearGradient8988);stroke-width:2.67700005;stroke-linecap:round;stroke-linejoin:round;stroke-miterlimit:4;stroke-opacity:1;stroke-dasharray:none;display:inline"
       inkscape:export-filename="/home/dafeba/DCV/tallerD/bocetos/08-09-22-hastaahora.png"
       inkscape:export-xdpi="57.964222"
       inkscape:export-ydpi="57.964222"
       inkscape:connector-curvature="0" />
    <path
       id="path8918"
       d="M 103.6875,3.59375 81.375,26.625 c 8.35501,10.03217 13.55547,24.65976 13.6875,41.46875 0.10994,13.9953 -3.37653,26.31638 -9.40625,35.84375 l 23.28125,21.125 c 11.52339,-15.96917 17.91355,-36.39888 17.75,-57.21875 -0.18772,-23.89783 -8.08354,-47.61397 -23,-64.25 z"
       style="fill:url(#linearGradient8990);fill-opacity:1;stroke:url(#linearGradient8992);stroke-width:2.5999999;stroke-linecap:round;stroke-linejoin:round;stroke-miterlimit:4;stroke-dasharray:none;display:inline"
       inkscape:connector-curvature="0" />
    <path
       inkscape:connector-curvature="0"
       id="path8920"
       d="M 96.46875,11.03125 81.375,26.625 c 8.35501,10.03217 13.55547,24.65976 13.6875,41.46875 0.10994,13.9953 -3.37653,26.31638 -9.40625,35.84375 L 101.4375,118.25 c 9.72593,-13.87084 15.1778,-31.65753 15.03125,-50.3125 -0.16995,-21.63536 -7.20727,-42.41475 -20,-56.90625 z"
       style="fill:url(#linearGradient8994);fill-opacity:1;stroke:url(#linearGradient8996);stroke-width:2.5999999;stroke-linecap:round;stroke-linejoin:round;stroke-miterlimit:4;stroke-dasharray:none;display:inline" />
    <path
       inkscape:connector-curvature="0"
       id="path8922"
       d="m 88.875,18.875 -7.5,7.75 c 8.35501,10.03217 13.55547,24.65976 13.6875,41.46875 0.10994,13.9953 -3.37653,26.31638 -9.40625,35.84375 L 93.5,111.0625 C 101.35036,99.38774 105.81591,84.37729 105.6875,68.03125 105.53649,48.8062 99.41873,31.12237 88.875,18.875 z"
       style="fill:url(#linearGradient8998);fill-opacity:1;stroke:url(#linearGradient9000);stroke-width:2.5999999;stroke-linecap:round;stroke-linejoin:round;stroke-miterlimit:4;stroke-dasharray:none;display:inline" />
  </g>
</svg>
