<?xml version="1.0" encoding="UTF-8" standalone="no"?>
<!-- Created with Inkscape (http://www.inkscape.org/) -->
<svg
   xmlns:dc="http://purl.org/dc/elements/1.1/"
   xmlns:cc="http://creativecommons.org/ns#"
   xmlns:rdf="http://www.w3.org/1999/02/22-rdf-syntax-ns#"
   xmlns:svg="http://www.w3.org/2000/svg"
   xmlns="http://www.w3.org/2000/svg"
   xmlns:xlink="http://www.w3.org/1999/xlink"
   xmlns:sodipodi="http://sodipodi.sourceforge.net/DTD/sodipodi-0.dtd"
   xmlns:inkscape="http://www.inkscape.org/namespaces/inkscape"
   width="128"
   height="128"
   id="svg2"
   sodipodi:version="0.32"
   inkscape:version="0.46"
   version="1.0"
   sodipodi:docname="stock-revert-to-saved.svg"
   inkscape:output_extension="org.inkscape.output.svg.inkscape">
  <defs
     id="defs4">
    <linearGradient
       inkscape:collect="always"
       xlink:href="#linearGradient5439"
       id="linearGradient8288"
       gradientUnits="userSpaceOnUse"
       gradientTransform="matrix(2.6666667,0,0,2.6666667,-1293.8382,-1683.1224)"
       x1="490.27121"
       y1="632.72681"
       x2="449.2301"
       y2="708.07471" />
    <linearGradient
       inkscape:collect="always"
       xlink:href="#linearGradient5362"
       id="linearGradient8290"
       gradientUnits="userSpaceOnUse"
       gradientTransform="matrix(2.6666667,0,0,2.6666667,-1293.8382,-1683.1224)"
       x1="491.02121"
       y1="633.16431"
       x2="485.68814"
       y2="640.88721" />
    <linearGradient
       inkscape:collect="always"
       xlink:href="#linearGradient5439"
       id="linearGradient8293"
       gradientUnits="userSpaceOnUse"
       gradientTransform="matrix(2.6666667,0,0,2.6666667,-1293.8382,-1683.1224)"
       x1="485.65756"
       y1="629.86298"
       x2="594.2511"
       y2="706.58405" />
    <linearGradient
       inkscape:collect="always"
       xlink:href="#linearGradient5439"
       id="linearGradient8295"
       gradientUnits="userSpaceOnUse"
       gradientTransform="matrix(2.6666667,0,0,2.6666667,-1293.8382,-1683.1224)"
       x1="495.35397"
       y1="640.05084"
       x2="531.08636"
       y2="670.77136" />
    <linearGradient
       inkscape:collect="always"
       xlink:href="#linearGradient5439"
       id="linearGradient8297"
       gradientUnits="userSpaceOnUse"
       gradientTransform="matrix(2.6666667,0,0,2.6666667,-1293.8382,-1683.1224)"
       x1="494.96805"
       y1="639.71228"
       x2="531.75"
       y2="670.73663" />
    <linearGradient
       inkscape:collect="always"
       xlink:href="#linearGradient5439"
       id="linearGradient8299"
       gradientUnits="userSpaceOnUse"
       gradientTransform="matrix(2.4263403,0,0,2.4263403,-1170.5264,-1524.0986)"
       x1="484.04169"
       y1="629.66498"
       x2="598.57666"
       y2="708.88654" />
    <linearGradient
       inkscape:collect="always"
       xlink:href="#linearGradient5439"
       id="linearGradient8301"
       gradientUnits="userSpaceOnUse"
       gradientTransform="matrix(2.4502184,0,0,2.4508293,-1180.0725,-1541.5864)"
       x1="482.04404"
       y1="629.51166"
       x2="600.66217"
       y2="711.91254" />
    <linearGradient
       inkscape:collect="always"
       xlink:href="#linearGradient5439"
       id="linearGradient8303"
       gradientUnits="userSpaceOnUse"
       gradientTransform="matrix(2.6666667,0,0,2.6666667,-1293.3668,-1683.3724)"
       x1="513.53632"
       y1="643.15497"
       x2="572.04932"
       y2="698.16571" />
    <linearGradient
       inkscape:collect="always"
       xlink:href="#linearGradient5439"
       id="linearGradient8305"
       gradientUnits="userSpaceOnUse"
       gradientTransform="matrix(2.6946312,0,0,2.6523792,-1305.2948,-1672.2417)"
       x1="511.00421"
       y1="661.83636"
       x2="484.41125"
       y2="630.4527" />
    <linearGradient
       inkscape:collect="always"
       xlink:href="#linearGradient5439"
       id="linearGradient8307"
       gradientUnits="userSpaceOnUse"
       gradientTransform="matrix(2.5873128,0,0,2.5467437,-1250.8954,-1603.2436)"
       x1="485.01462"
       y1="633.39752"
       x2="594.81787"
       y2="707.73212" />
    <linearGradient
       inkscape:collect="always"
       xlink:href="#linearGradient5344"
       id="linearGradient8317"
       gradientUnits="userSpaceOnUse"
       gradientTransform="matrix(2.6666667,0,0,2.6666667,-1293.1479,-1695.517)"
       x1="506.66599"
       y1="636.31903"
       x2="503.55746"
       y2="646.90363" />
    <linearGradient
       inkscape:collect="always"
       xlink:href="#linearGradient5316"
       id="linearGradient8315"
       gradientUnits="userSpaceOnUse"
       gradientTransform="matrix(2.6666667,0,0,2.6666667,-1278.1479,-1695.1837)"
       x1="499"
       y1="647.99408"
       x2="506.42969"
       y2="636.87573" />
    <filter
       inkscape:collect="always"
       id="filter20342">
      <feGaussianBlur
         inkscape:collect="always"
         stdDeviation="0.5439693"
         id="feGaussianBlur20344" />
    </filter>
    <linearGradient
       inkscape:collect="always"
       xlink:href="#linearGradient5344"
       id="linearGradient8319"
       gradientUnits="userSpaceOnUse"
       gradientTransform="translate(-604.93045,-295.81887)"
       x1="661.80859"
       y1="338.36591"
       x2="628.88568"
       y2="399.89111" />
    <linearGradient
       inkscape:collect="always"
       xlink:href="#linearGradient5316"
       id="linearGradient8321"
       gradientUnits="userSpaceOnUse"
       gradientTransform="matrix(2.6666667,0,0,2.6666667,-1278.1479,-1695.1837)"
       x1="515.3125"
       y1="635.96948"
       x2="521.32233"
       y2="650.16199" />
    <linearGradient
       id="linearGradient5316">
      <stop
         style="stop-color:#87c7ff;stop-opacity:1;"
         offset="0"
         id="stop5320" />
      <stop
         style="stop-color:#74aadb;stop-opacity:1;"
         offset="1"
         id="stop5322" />
    </linearGradient>
    <linearGradient
       inkscape:collect="always"
       xlink:href="#linearGradient5316"
       id="linearGradient7905"
       gradientUnits="userSpaceOnUse"
       x1="515.96655"
       y1="969.24048"
       x2="512.15381"
       y2="973.83667"
       gradientTransform="matrix(2.6765239,0,0,2.6765239,-1298.6766,-2514.903)" />
    <linearGradient
       inkscape:collect="always"
       xlink:href="#linearGradient5344"
       id="linearGradient7907"
       gradientUnits="userSpaceOnUse"
       x1="516.10785"
       y1="969.711"
       x2="512.9375"
       y2="972.711"
       gradientTransform="matrix(2.6765239,0,0,2.6765239,-1298.6766,-2514.903)" />
    <linearGradient
       inkscape:collect="always"
       xlink:href="#linearGradient5439"
       id="linearGradient7909"
       gradientUnits="userSpaceOnUse"
       x1="513.79034"
       y1="942.72662"
       x2="526.40491"
       y2="1007.8516"
       gradientTransform="matrix(2.6765239,0,0,2.6765239,-1298.6766,-2514.903)" />
    <linearGradient
       inkscape:collect="always"
       xlink:href="#linearGradient5439"
       id="linearGradient7911"
       gradientUnits="userSpaceOnUse"
       x1="509.01675"
       y1="947.74078"
       x2="536.96643"
       y2="1019.9908"
       gradientTransform="matrix(2.6765239,0,0,2.6765239,-1298.6766,-2514.903)" />
    <linearGradient
       id="linearGradient5362">
      <stop
         style="stop-color:#ffffff;stop-opacity:1;"
         offset="0"
         id="stop5364" />
      <stop
         style="stop-color:#ffffff;stop-opacity:0;"
         offset="1"
         id="stop5366" />
    </linearGradient>
    <linearGradient
       inkscape:collect="always"
       xlink:href="#linearGradient5362"
       id="linearGradient7913"
       gradientUnits="userSpaceOnUse"
       gradientTransform="matrix(2.6765239,0,0,2.6765239,-1304.1133,-2520.7997)"
       x1="506.89734"
       y1="960.09497"
       x2="505.13272"
       y2="967.29858" />
    <linearGradient
       inkscape:collect="always"
       xlink:href="#linearGradient5439"
       id="linearGradient7915"
       gradientUnits="userSpaceOnUse"
       x1="499.19803"
       y1="953.06122"
       x2="494.27518"
       y2="958.18781"
       gradientTransform="matrix(2.6765239,0,0,2.6765239,-1298.6766,-2514.903)" />
    <linearGradient
       inkscape:collect="always"
       xlink:href="#linearGradient5439"
       id="linearGradient7917"
       gradientUnits="userSpaceOnUse"
       x1="487.87024"
       y1="943.24536"
       x2="495.58206"
       y2="959.24365"
       gradientTransform="matrix(2.6765239,0,0,2.6765239,-1298.6766,-2514.903)" />
    <linearGradient
       id="linearGradient12336">
      <stop
         id="stop12338"
         offset="0"
         style="stop-color:#ff6e00;stop-opacity:1;" />
      <stop
         id="stop12340"
         offset="1"
         style="stop-color:#eb2600;stop-opacity:1;" />
    </linearGradient>
    <linearGradient
       inkscape:collect="always"
       xlink:href="#linearGradient12336"
       id="linearGradient7920"
       gradientUnits="userSpaceOnUse"
       x1="518.7218"
       y1="954.62677"
       x2="515.89337"
       y2="971.06702"
       gradientTransform="matrix(2.6765239,0,0,2.6765239,-1298.6766,-2514.903)" />
    <linearGradient
       id="linearGradient5439">
      <stop
         style="stop-color:#ffffff;stop-opacity:1;"
         offset="0"
         id="stop5441" />
      <stop
         style="stop-color:#000000;stop-opacity:1;"
         offset="1"
         id="stop5443" />
    </linearGradient>
    <linearGradient
       inkscape:collect="always"
       xlink:href="#linearGradient5439"
       id="linearGradient7922"
       gradientUnits="userSpaceOnUse"
       x1="523.34692"
       y1="956.00012"
       x2="522.96185"
       y2="948.68842"
       gradientTransform="matrix(2.6765239,0,0,2.6765239,-1298.6766,-2514.903)" />
    <linearGradient
       id="linearGradient5344">
      <stop
         style="stop-color:#000000;stop-opacity:1;"
         offset="0"
         id="stop5346" />
      <stop
         style="stop-color:#000000;stop-opacity:0;"
         offset="1"
         id="stop5348" />
    </linearGradient>
    <linearGradient
       inkscape:collect="always"
       xlink:href="#linearGradient5344"
       id="linearGradient7924"
       gradientUnits="userSpaceOnUse"
       x1="510.5"
       y1="966.67468"
       x2="506.125"
       y2="962.42468"
       gradientTransform="matrix(2.6765239,0,0,2.6765239,-1298.6766,-2514.903)" />
    <inkscape:perspective
       sodipodi:type="inkscape:persp3d"
       inkscape:vp_x="0 : 526.18109 : 1"
       inkscape:vp_y="0 : 1000 : 0"
       inkscape:vp_z="744.09448 : 526.18109 : 1"
       inkscape:persp3d-origin="372.04724 : 350.78739 : 1"
       id="perspective10" />
  </defs>
  <sodipodi:namedview
     id="base"
     pagecolor="#ffffff"
     bordercolor="#666666"
     borderopacity="1.0"
     inkscape:pageopacity="0.0"
     inkscape:pageshadow="2"
     inkscape:zoom="1"
     inkscape:cx="242.47545"
     inkscape:cy="47.25597"
     inkscape:document-units="px"
     inkscape:current-layer="layer1"
     showgrid="false"
     inkscape:showpageshadow="false"
     inkscape:window-width="1024"
     inkscape:window-height="718"
     inkscape:window-x="0"
     inkscape:window-y="0" />
  <metadata
     id="metadata7">
    <rdf:RDF>
      <cc:Work
         rdf:about="">
        <dc:format>image/svg+xml</dc:format>
        <dc:type
           rdf:resource="http://purl.org/dc/dcmitype/StillImage" />
      </cc:Work>
    </rdf:RDF>
  </metadata>
  <g
     inkscape:label="Capa 1"
     inkscape:groupmode="layer"
     id="layer1">
    <path
       style="fill:url(#linearGradient8288);fill-rule:evenodd;stroke:none;stroke-width:0.5;stroke-linecap:round;stroke-linejoin:round;stroke-miterlimit:4;stroke-dasharray:none;stroke-opacity:1"
       d="M 19.203458,119.33787 L 7.9534576,116.33787 C 3.4396443,114.89779 1.3528711,110.18411 1.3891111,103.48013 L 1.3301777,16.578005 C 1.5277511,9.3326453 8.3189776,5.421392 15.659404,5.638912 L 26.775352,4.1573653 L 19.203458,119.33787 z"
       id="path8265"
       sodipodi:nodetypes="ccccccc" />
    <path
       sodipodi:nodetypes="ccccccc"
       id="path8267"
       d="M 19.203458,119.33787 L 7.9534576,116.33787 C 3.4396443,114.89779 1.3528711,110.18411 1.3891111,103.48013 L 1.3301777,16.578005 C 1.5277511,9.3326453 8.3189776,5.421392 15.659404,5.638912 L 26.775352,4.1573653 L 19.203458,119.33787 z"
       style="fill:url(#linearGradient8290);fill-rule:evenodd;stroke:none;stroke-width:0.5;stroke-linecap:round;stroke-linejoin:round;stroke-miterlimit:4;stroke-dasharray:none;stroke-opacity:1" />
    <path
       sodipodi:nodetypes="ccccccccc"
       id="path8269"
       d="M 11.178471,105.96805 L 11.373084,15.841259 C 11.373084,8.6894987 19.517164,3.9068587 26.746632,4.172032 L 118.64618,11.410939 C 125.16061,12.057339 126.60111,15.717099 126.78263,21.629552 L 126.78263,91.962853 C 126.73703,99.34008 124.91471,104.18632 117.48034,105.36917 L 26.870445,119.58464 C 15.118284,121.58915 11.189138,113.89957 11.178471,105.96805 z"
       style="fill:url(#linearGradient8293);fill-rule:evenodd;stroke:none;stroke-width:0.5;stroke-linecap:round;stroke-linejoin:round;stroke-miterlimit:4;stroke-dasharray:none;stroke-opacity:1" />
    <path
       style="fill:url(#linearGradient8295);fill-opacity:1;stroke:none;stroke-width:0.5;stroke-linecap:round;stroke-linejoin:round;stroke-miterlimit:4;stroke-opacity:0.30041151"
       d="M 90.569645,60.540107 C 90.803485,90.310027 75.194365,110.34832 55.053539,113.67427 C 32.997299,117.31653 12.963644,96.5348 12.963644,63.023973 C 12.963644,29.393045 33.739565,5.863792 55.175565,7.758832 C 73.982472,9.4214453 90.333939,30.534512 90.569645,60.540107 z"
       id="path8271"
       sodipodi:nodetypes="cszsz" />
    <path
       sodipodi:nodetypes="ccccccccccccccccccccccccc"
       id="path8273"
       d="M 90.286872,11.253952 L 114.3113,13.212645 C 116.14319,13.365925 117.48813,14.232699 118.40551,15.752352 L 122.90146,22.732165 C 123.63002,23.812859 124.25733,25.538379 124.16178,27.184592 L 124.16178,50.129552 C 124.25421,51.633125 123.53623,52.337525 122.57397,52.744192 L 117.81391,54.761973 C 116.87274,55.12712 116.4133,55.78776 116.39885,56.73384 L 116.35186,59.82552 C 116.35549,60.5552 116.64101,61.385013 117.62861,61.56112 L 121.54095,62.72 C 122.85365,63.025333 124.17333,64.468107 124.16178,66.039067 L 124.16178,90.337893 C 124.24498,91.916987 123.97218,92.963227 123.21506,94.122693 L 117.51594,101.29536 C 116.36391,102.7312 115.13901,103.81504 113.13218,104.03755 L 86.824952,108.5504 C 85.252659,108.77936 84.018365,108.2072 83.293032,107.48987 L 78.703592,102.90075 C 77.822499,101.86219 76.460712,101.92309 75.587005,102.87955 L 73.399512,16.241499 C 75.197085,17.907952 77.682125,17.877525 79.417192,16.502485 L 83.438499,13.228459 C 85.166499,11.689392 87.786819,10.947392 90.286872,11.253952 z"
       style="fill:url(#linearGradient8297);fill-rule:evenodd;stroke:none;stroke-width:0.1;stroke-linecap:butt;stroke-linejoin:miter;stroke-miterlimit:4;stroke-dasharray:none;stroke-opacity:1" />
    <path
       sodipodi:nodetypes="cszsz"
       id="path8275"
       d="M 89.115219,62.420827 C 89.327992,89.507813 75.125592,107.74021 56.799912,110.76643 C 36.731459,114.08043 19.361111,95.1716 19.361111,64.680853 C 19.361111,34.080832 37.399085,12.761472 56.910952,14.396325 C 74.965725,15.909099 88.900765,35.119419 89.115219,62.420827 z"
       style="fill:url(#linearGradient8299);fill-opacity:1;stroke:none;stroke-width:0.5;stroke-linecap:round;stroke-linejoin:round;stroke-miterlimit:4;stroke-opacity:0.30041151" />
    <path
       style="fill:url(#linearGradient8301);fill-rule:evenodd;stroke:none;stroke-width:0.1;stroke-linecap:butt;stroke-linejoin:miter;stroke-miterlimit:4;stroke-dasharray:none;stroke-opacity:1"
       d="M 91.493752,14.983819 L 112.96047,16.459899 C 115.2473,16.526512 116.18178,17.404539 116.91805,18.401472 L 121.67962,25.470325 C 122.32871,26.623152 122.77466,27.845445 122.83117,29.247072 L 122.83117,50.400379 C 122.85493,51.152885 122.30674,51.839099 121.59981,52.103525 L 116.6993,54.266027 C 115.93085,54.596693 115.52333,55.324533 115.48298,56.19168 L 115.42381,61.233627 C 115.42381,62.229813 115.82079,62.969387 116.87607,63.29296 L 121.32327,64.39832 C 122.25933,64.66696 122.83117,65.484587 122.83117,66.504533 L 122.83117,90.171227 C 122.8929,91.449627 122.57842,92.317413 122.03383,93.07272 L 116.18074,100.59813 C 115.43893,101.64851 114.28197,102.49208 112.76194,102.76424 L 88.433725,106.35448 C 87.012339,106.63648 85.750979,106.53925 84.775592,105.38728 L 80.291752,100.60181 C 78.983832,99.175227 76.986552,99.4016 75.614499,100.7784 L 73.107965,21.287019 C 74.803619,23.358805 78.108019,22.902272 79.709459,21.781685 L 86.465485,16.463819 C 87.804819,15.305125 89.371832,14.831819 91.493752,14.983819 z"
       id="path8277"
       sodipodi:nodetypes="ccccccccccccccccccccccccc" />
    <path
       sodipodi:nodetypes="ccccccccc"
       id="path8279"
       d="M 91.010499,18.171632 L 111.00165,19.580405 C 112.58418,19.785392 113.32674,21.784139 113.30429,23.399125 L 113.30429,95.70072 C 113.38682,97.65896 112.58002,99.49392 110.18602,99.800613 L 91.064419,102.53845 C 88.500152,102.92341 87.384125,100.74043 87.384125,98.88248 L 87.377032,21.984885 C 87.383859,19.745205 88.894739,18.066699 91.010499,18.171632 z"
       style="fill:url(#linearGradient8303);fill-rule:evenodd;stroke:none;stroke-width:1px;stroke-linecap:butt;stroke-linejoin:miter;stroke-opacity:1" />
    <path
       style="fill:url(#linearGradient8305);fill-opacity:1;stroke:none;stroke-width:0.5;stroke-linecap:round;stroke-linejoin:round;stroke-miterlimit:4;stroke-opacity:0.30041151"
       d="M 71.673032,62.5584 C 71.673032,73.999573 64.831672,85.58944 56.892899,86.748747 C 47.439352,88.129227 39.553219,77.654933 39.553219,63.771493 C 39.553219,49.811685 47.109432,39.074592 56.590659,39.698672 C 64.672419,40.238485 71.673032,51.193605 71.673032,62.5584 z"
       id="path8281"
       sodipodi:nodetypes="cszsz"
       inkscape:export-filename="/home/dafeba/DCV/tallerD/tamañopantalla.png"
       inkscape:export-xdpi="89.986237"
       inkscape:export-ydpi="89.986237" />
    <path
       sodipodi:nodetypes="cszsz"
       id="path8283"
       d="M 69.458552,61.783947 C 69.458552,71.870533 63.322232,81.984853 56.323379,83.00688 C 47.989112,84.223947 41.036685,74.989733 41.036685,62.750053 C 41.036685,50.443072 47.703805,40.900059 56.056899,41.527419 C 63.706792,42.106645 69.458552,51.764699 69.458552,61.783947 z"
       style="fill:url(#linearGradient8307);fill-opacity:1;stroke:none;stroke-width:0.5;stroke-linecap:round;stroke-linejoin:round;stroke-miterlimit:4;stroke-opacity:0.30041151"
       inkscape:export-filename="/home/dafeba/DCV/tallerD/tamañopantalla.png"
       inkscape:export-xdpi="89.986237"
       inkscape:export-ydpi="89.986237" />
    <path
       sodipodi:nodetypes="cccccccccccc"
       id="path8285"
       d="M 8.2489509,6.9454987 C 4.2935909,8.633792 1.4551377,11.899259 1.3284444,16.544272 L 1.4117777,103.46093 C 1.3755377,110.16491 3.4812976,114.93749 7.9951109,116.3776 C 12.708791,117.84019 18.100151,119.46589 22.071724,119.82707 C 23.514844,119.93365 25.125804,119.84888 26.911779,119.54427 L 117.49511,105.3776 C 124.92949,104.19475 126.69943,99.338133 126.74511,91.960933 L 126.74511,21.627605 C 126.56359,15.715152 125.17623,12.023979 118.66178,11.377605 L 26.745112,4.2109387 C 19.286044,3.669792 12.923671,4.8026453 8.2489509,6.9454987 z"
       style="fill:none;fill-rule:evenodd;stroke:#000000;stroke-width:1.33333337;stroke-linecap:round;stroke-linejoin:round;stroke-miterlimit:4;stroke-dasharray:none;stroke-opacity:1" />
    <path
       sodipodi:nodetypes="ccccc"
       id="path8309"
       d="M 65.685459,1.5682987 L 101.3313,4.7349653 C 75.680499,2.0655787 54.403299,13.092432 52.421165,32.300539 L 46.586392,32.613632 C 43.584499,9.7658453 50.863139,0.678592 65.685459,1.5682987 z"
       style="fill:url(#linearGradient8315);fill-rule:evenodd;stroke:url(#linearGradient8317);stroke-width:1.33333337;stroke-linecap:round;stroke-linejoin:round;stroke-miterlimit:4;stroke-dasharray:none;stroke-opacity:1"
       inkscape:export-filename="/home/dafeba/DCV/tallerD/elementos.png"
       inkscape:export-xdpi="89.986237"
       inkscape:export-ydpi="89.986237" />
    <path
       style="fill:url(#linearGradient8319);fill-rule:evenodd;stroke:none;stroke-width:1px;stroke-linecap:butt;stroke-linejoin:miter;stroke-opacity:1;filter:url(#filter20342)"
       d="M 31.819197,102.41201 L 41.011587,90.744742 L 38.713497,83.054962 L 25.647187,80.902392 C 23.540477,80.489762 20.802357,81.028662 19.023417,81.780912 C 21.856797,81.651132 28.012707,85.454572 28.372057,91.098302 L 20.770657,90.921522 L 31.819197,102.41201 z"
       id="path8311"
       sodipodi:nodetypes="cccccccc"
       inkscape:export-filename="/home/dafeba/DCV/tallerD/elementos.png"
       inkscape:export-xdpi="89.986237"
       inkscape:export-ydpi="89.986237"
       transform="matrix(2.6666667,0,0,2.6666667,0,-213.33333)" />
    <path
       sodipodi:nodetypes="cccccccc"
       id="path8313"
       d="M 66.185459,1.5682987 C 72.211325,2.153552 80.251272,9.308032 82.352125,17.651632 L 63.685459,17.068299 L 100.49511,55.401627 L 125.85213,18.901632 L 113.51879,18.568299 C 113.05093,10.766219 107.69605,5.3690187 101.51879,4.7349653 L 66.185459,1.5682987 z"
       style="fill:url(#linearGradient8321);fill-rule:evenodd;stroke:#000000;stroke-width:1.33333337;stroke-linecap:round;stroke-linejoin:round;stroke-miterlimit:4;stroke-dasharray:none;stroke-opacity:1"
       inkscape:export-filename="/home/dafeba/DCV/tallerD/elementos.png"
       inkscape:export-xdpi="89.986237"
       inkscape:export-ydpi="89.986237" />
  </g>
</svg>
